solid 
facet normal -0.120357453823 -0.992730617523 0.0
outer loop
vertex -12.9499378204 -3.44895339012 -13.313000679
vertex -9.90670394897 -3.81791138649 -13.313000679
vertex -9.90670394897 -3.81791138649 -9.74200057983
endloop
endfacet
facet normal -0.120357453823 -0.992730617523 0.0
outer loop
vertex -12.9499378204 -3.44895339012 -13.313000679
vertex -9.90670394897 -3.81791138649 -9.74200057983
vertex -12.9499378204 -3.44895339012 -9.74200057983
endloop
endfacet
facet normal -0.154053524137 -0.988062500954 0.0
outer loop
vertex -15.9788627625 -2.97669935226 -13.313000679
vertex -12.9499378204 -3.44895339012 -9.74200057983
vertex -15.9788627625 -2.97669935226 -9.74200057983
endloop
endfacet
facet normal -0.154053524137 -0.988062500954 0.0
outer loop
vertex -15.9788627625 -2.97669935226 -13.313000679
vertex -12.9499378204 -3.44895339012 -13.313000679
vertex -12.9499378204 -3.44895339012 -9.74200057983
endloop
endfacet
facet normal -0.187571331859 -0.982250988483 0.0
outer loop
vertex -18.9899711609 -2.40169596672 -13.313000679
vertex -15.9788627625 -2.97669935226 -9.74200057983
vertex -18.9899711609 -2.40169596672 -9.74200057983
endloop
endfacet
facet normal -0.187571331859 -0.982250988483 0.0
outer loop
vertex -18.9899711609 -2.40169596672 -13.313000679
vertex -15.9788627625 -2.97669935226 -13.313000679
vertex -15.9788627625 -2.97669935226 -9.74200057983
endloop
endfacet
facet normal -0.978920996189 0.204239502549 0.0
outer loop
vertex -18.9899711609 -2.40169596672 -13.313000679
vertex -18.9797592163 -2.35275006294 -9.74200057983
vertex -18.9797592163 -2.35275006294 -13.313000679
endloop
endfacet
facet normal -0.978920996189 0.204239502549 0.0
outer loop
vertex -18.9899711609 -2.40169596672 -9.74200057983
vertex -18.9797592163 -2.35275006294 -9.74200057983
vertex -18.9899711609 -2.40169596672 -13.313000679
endloop
endfacet
facet normal 0.120357491076 0.992730617523 0.0
outer loop
vertex -9.90153121948 -3.76817965508 -9.74200057983
vertex -12.9430770874 -3.39942622185 -13.313000679
vertex -12.9430770874 -3.39942622185 -9.74200057983
endloop
endfacet
facet normal 0.120357491076 0.992730617523 -0.0
outer loop
vertex -9.90153121948 -3.76817965508 -13.313000679
vertex -12.9430770874 -3.39942622185 -13.313000679
vertex -9.90153121948 -3.76817965508 -9.74200057983
endloop
endfacet
facet normal 0.154053479433 0.988062500954 0.0
outer loop
vertex -12.9430770874 -3.39942622185 -9.74200057983
vertex -15.9703207016 -2.92743444443 -13.313000679
vertex -15.9703207016 -2.92743444443 -9.74200057983
endloop
endfacet
facet normal 0.154053479433 0.988062500954 -0.0
outer loop
vertex -12.9430770874 -3.39942622185 -13.313000679
vertex -15.9703207016 -2.92743444443 -13.313000679
vertex -12.9430770874 -3.39942622185 -9.74200057983
endloop
endfacet
facet normal 0.187571302056 0.982250988483 0.0
outer loop
vertex -15.9703207016 -2.92743444443 -9.74200057983
vertex -18.9797592163 -2.35275006294 -13.313000679
vertex -18.9797592163 -2.35275006294 -9.74200057983
endloop
endfacet
facet normal 0.187571302056 0.982250988483 -0.0
outer loop
vertex -15.9703207016 -2.92743444443 -13.313000679
vertex -18.9797592163 -2.35275006294 -13.313000679
vertex -15.9703207016 -2.92743444443 -9.74200057983
endloop
endfacet
facet normal 0.994634270668 -0.103454552591 0.0
outer loop
vertex -9.90153121948 -3.76817965508 -13.313000679
vertex -9.90670394897 -3.81791138649 -9.74200057983
vertex -9.90670394897 -3.81791138649 -13.313000679
endloop
endfacet
facet normal 0.994634270668 -0.103454552591 0.0
outer loop
vertex -9.90153121948 -3.76817965508 -9.74200057983
vertex -9.90670394897 -3.81791138649 -9.74200057983
vertex -9.90153121948 -3.76817965508 -13.313000679
endloop
endfacet
facet normal 0.0 -0.0 1.0
outer loop
vertex -15.9788627625 -2.97669935226 -9.74200057983
vertex -15.9703207016 -2.92743444443 -9.74200057983
vertex -18.9797592163 -2.35275006294 -9.74200057983
endloop
endfacet
facet normal 0.0 0.0 1.0
outer loop
vertex -15.9788627625 -2.97669935226 -9.74200057983
vertex -18.9797592163 -2.35275006294 -9.74200057983
vertex -18.9899711609 -2.40169596672 -9.74200057983
endloop
endfacet
facet normal 0.0 -0.0 1.0
outer loop
vertex -12.9499378204 -3.44895339012 -9.74200057983
vertex -12.9430770874 -3.39942622185 -9.74200057983
vertex -15.9703207016 -2.92743444443 -9.74200057983
endloop
endfacet
facet normal 0.0 0.0 1.0
outer loop
vertex -12.9499378204 -3.44895339012 -9.74200057983
vertex -15.9703207016 -2.92743444443 -9.74200057983
vertex -15.9788627625 -2.97669935226 -9.74200057983
endloop
endfacet
facet normal 0.0 -0.0 1.0
outer loop
vertex -9.90670394897 -3.81791138649 -9.74200057983
vertex -9.90153121948 -3.76817965508 -9.74200057983
vertex -12.9430770874 -3.39942622185 -9.74200057983
endloop
endfacet
facet normal 0.0 0.0 1.0
outer loop
vertex -9.90670394897 -3.81791138649 -9.74200057983
vertex -12.9430770874 -3.39942622185 -9.74200057983
vertex -12.9499378204 -3.44895339012 -9.74200057983
endloop
endfacet
facet normal -0.0 0.0 -1.0
outer loop
vertex -15.9703207016 -2.92743444443 -13.313000679
vertex -15.9788627625 -2.97669935226 -13.313000679
vertex -18.9797592163 -2.35275006294 -13.313000679
endloop
endfacet
facet normal 0.0 -0.0 -1.0
outer loop
vertex -18.9797592163 -2.35275006294 -13.313000679
vertex -15.9788627625 -2.97669935226 -13.313000679
vertex -18.9899711609 -2.40169596672 -13.313000679
endloop
endfacet
facet normal -0.0 0.0 -1.0
outer loop
vertex -12.9430770874 -3.39942622185 -13.313000679
vertex -12.9499378204 -3.44895339012 -13.313000679
vertex -15.9703207016 -2.92743444443 -13.313000679
endloop
endfacet
facet normal 0.0 -0.0 -1.0
outer loop
vertex -15.9703207016 -2.92743444443 -13.313000679
vertex -12.9499378204 -3.44895339012 -13.313000679
vertex -15.9788627625 -2.97669935226 -13.313000679
endloop
endfacet
facet normal -0.0 0.0 -1.0
outer loop
vertex -9.90153121948 -3.76817965508 -13.313000679
vertex -9.90670394897 -3.81791138649 -13.313000679
vertex -12.9430770874 -3.39942622185 -13.313000679
endloop
endfacet
facet normal 0.0 -0.0 -1.0
outer loop
vertex -12.9430770874 -3.39942622185 -13.313000679
vertex -9.90670394897 -3.81791138649 -13.313000679
vertex -12.9499378204 -3.44895339012 -13.313000679
endloop
endfacet
