solid 
facet normal 0.120357729495 -0.992730557919 -6.53381135862e-08
outer loop
vertex 12.9499607086 -3.44895124435 -100.056999207
vertex 9.90672588348 -3.8179101944 -100.056999207
vertex 9.90672588348 -3.81790995598 -103.628005981
endloop
endfacet
facet normal 0.120357729495 -0.992730557919 -6.62797390305e-08
outer loop
vertex 12.9499607086 -3.44895124435 -100.056999207
vertex 9.90672588348 -3.81790995598 -103.628005981
vertex 12.9499607086 -3.44895100594 -103.628005981
endloop
endfacet
facet normal 0.154053866863 -0.988062441349 -6.59680736703e-08
outer loop
vertex 15.978884697 -2.97669625282 -100.056999207
vertex 12.9499607086 -3.44895100594 -103.628005981
vertex 15.978884697 -2.9766960144 -103.628005981
endloop
endfacet
facet normal 0.154053866863 -0.988062441349 -6.53381277971e-08
outer loop
vertex 15.978884697 -2.97669625282 -100.056999207
vertex 12.9499607086 -3.44895124435 -100.056999207
vertex 12.9499607086 -3.44895100594 -103.628005981
endloop
endfacet
facet normal 0.187571585178 -0.982250928879 -6.55802026017e-08
outer loop
vertex 18.9899940491 -2.4016919136 -100.057006836
vertex 15.978884697 -2.9766960144 -103.628005981
vertex 18.9899940491 -2.40169167519 -103.628005981
endloop
endfacet
facet normal 0.187571570277 -0.982250928879 -6.53381135862e-08
outer loop
vertex 18.9899940491 -2.4016919136 -100.057006836
vertex 15.978884697 -2.97669625282 -100.056999207
vertex 15.978884697 -2.9766960144 -103.628005981
endloop
endfacet
facet normal 0.97891330719 0.204276055098 1.36920217386e-08
outer loop
vertex 18.9797801971 -2.35274600983 -100.057006836
vertex 18.9899940491 -2.4016919136 -100.057006836
vertex 18.9899940491 -2.40169167519 -103.628005981
endloop
endfacet
facet normal 0.97891330719 0.204276055098 1.36385374105e-08
outer loop
vertex 18.9797801971 -2.35274600983 -100.057006836
vertex 18.9899940491 -2.40169167519 -103.628005981
vertex 18.9797801971 -2.35274577141 -103.628005981
endloop
endfacet
facet normal -0.120357722044 0.992730557919 0.0
outer loop
vertex 9.90155315399 -3.76817822456 -103.628005981
vertex 12.9430990219 -3.39942407608 -100.056999207
vertex 12.9430990219 -3.39942407608 -103.628005981
endloop
endfacet
facet normal -0.12035779655 0.992730557919 6.62797461359e-08
outer loop
vertex 9.90155315399 -3.76817846298 -100.056999207
vertex 12.9430990219 -3.39942407608 -100.056999207
vertex 9.90155315399 -3.76817822456 -103.628005981
endloop
endfacet
facet normal -0.154053851962 0.988062441349 6.53744010037e-08
outer loop
vertex 12.9430990219 -3.39942407608 -103.628005981
vertex 15.9703426361 -2.92743134499 -100.056999207
vertex 15.9703426361 -2.92743110657 -103.628005981
endloop
endfacet
facet normal -0.154053777456 0.988062441349 0.0
outer loop
vertex 12.9430990219 -3.39942407608 -100.056999207
vertex 15.9703426361 -2.92743134499 -100.056999207
vertex 12.9430990219 -3.39942407608 -103.628005981
endloop
endfacet
facet normal -0.187571644783 0.982250869274 6.53745431123e-08
outer loop
vertex 15.9703426361 -2.92743110657 -103.628005981
vertex 18.9797801971 -2.35274600983 -100.057006836
vertex 18.9797801971 -2.35274577141 -103.628005981
endloop
endfacet
facet normal -0.187571659684 0.982250928879 6.55800675986e-08
outer loop
vertex 15.9703426361 -2.92743134499 -100.056999207
vertex 18.9797801971 -2.35274600983 -100.057006836
vertex 15.9703426361 -2.92743110657 -103.628005981
endloop
endfacet
facet normal -0.994634151459 -0.10345453769 -6.90715129537e-09
outer loop
vertex 9.90155315399 -3.76817846298 -100.056999207
vertex 9.90155315399 -3.76817822456 -103.628005981
vertex 9.90672588348 -3.81790995598 -103.628005981
endloop
endfacet
facet normal -0.994634151459 -0.10345453769 -6.90715129537e-09
outer loop
vertex 9.90672588348 -3.8179101944 -100.056999207
vertex 9.90155315399 -3.76817846298 -100.056999207
vertex 9.90672588348 -3.81790995598 -103.628005981
endloop
endfacet
facet normal 2.45390538112e-06 4.25483591471e-07 1.0
outer loop
vertex 15.9703426361 -2.92743134499 -100.056999207
vertex 15.978884697 -2.97669625282 -100.056999207
vertex 18.9797801971 -2.35274600983 -100.057006836
endloop
endfacet
facet normal 2.43665067501e-06 5.0847137345e-07 1.0
outer loop
vertex 18.9797801971 -2.35274600983 -100.057006836
vertex 15.978884697 -2.97669625282 -100.056999207
vertex 18.9899940491 -2.4016919136 -100.057006836
endloop
endfacet
facet normal -0.0 0.0 1.0
outer loop
vertex 12.9430990219 -3.39942407608 -100.056999207
vertex 12.9499607086 -3.44895124435 -100.056999207
vertex 15.9703426361 -2.92743134499 -100.056999207
endloop
endfacet
facet normal 0.0 0.0 1.0
outer loop
vertex 15.9703426361 -2.92743134499 -100.056999207
vertex 12.9499607086 -3.44895124435 -100.056999207
vertex 15.978884697 -2.97669625282 -100.056999207
endloop
endfacet
facet normal -0.0 0.0 1.0
outer loop
vertex 9.90155315399 -3.76817846298 -100.056999207
vertex 9.90672588348 -3.8179101944 -100.056999207
vertex 12.9430990219 -3.39942407608 -100.056999207
endloop
endfacet
facet normal 0.0 0.0 1.0
outer loop
vertex 12.9430990219 -3.39942407608 -100.056999207
vertex 9.90672588348 -3.8179101944 -100.056999207
vertex 12.9499607086 -3.44895124435 -100.056999207
endloop
endfacet
facet normal 0.0 0.0 -1.0
outer loop
vertex 15.978884697 -2.9766960144 -103.628005981
vertex 15.9703426361 -2.92743110657 -103.628005981
vertex 18.9797801971 -2.35274577141 -103.628005981
endloop
endfacet
facet normal 0.0 0.0 -1.0
outer loop
vertex 15.978884697 -2.9766960144 -103.628005981
vertex 18.9797801971 -2.35274577141 -103.628005981
vertex 18.9899940491 -2.40169167519 -103.628005981
endloop
endfacet
facet normal 0.0 0.0 -1.0
outer loop
vertex 12.9499607086 -3.44895100594 -103.628005981
vertex 12.9430990219 -3.39942407608 -103.628005981
vertex 15.9703426361 -2.92743110657 -103.628005981
endloop
endfacet
facet normal 0.0 0.0 -1.0
outer loop
vertex 12.9499607086 -3.44895100594 -103.628005981
vertex 15.9703426361 -2.92743110657 -103.628005981
vertex 15.978884697 -2.9766960144 -103.628005981
endloop
endfacet
facet normal 0.0 0.0 -1.0
outer loop
vertex 9.90672588348 -3.81790995598 -103.628005981
vertex 9.90155315399 -3.76817822456 -103.628005981
vertex 12.9430990219 -3.39942407608 -103.628005981
endloop
endfacet
facet normal 0.0 0.0 -1.0
outer loop
vertex 9.90672588348 -3.81790995598 -103.628005981
vertex 12.9430990219 -3.39942407608 -103.628005981
vertex 12.9499607086 -3.44895100594 -103.628005981
endloop
endfacet
