solid 
facet normal -0.0172590520233 0.999851047993 0.0
outer loop
vertex -3.67148280144 4.24854469299 -205.354995728
vertex -0.606420636177 4.30145263672 -205.354995728
vertex -0.606420636177 4.30145263672 -208.925994873
endloop
endfacet
facet normal -0.0172590520233 0.999851047993 0.0
outer loop
vertex -3.67148280144 4.24854469299 -205.354995728
vertex -0.606420636177 4.30145263672 -208.925994873
vertex -3.67148280144 4.24854469299 -208.925994873
endloop
endfacet
facet normal -0.0512569881976 0.998685479164 1.33354930654e-07
outer loop
vertex -6.73297214508 4.09141492844 -205.354995728
vertex -3.67148280144 4.24854469299 -208.925994873
vertex -6.73297214508 4.09141540527 -208.925994873
endloop
endfacet
facet normal -0.0851956680417 0.996364235878 1.33044963491e-07
outer loop
vertex -6.73297214508 4.09141492844 -205.354995728
vertex -6.73297214508 4.09141540527 -208.925994873
vertex -9.78734588623 3.83024644852 -208.925994873
endloop
endfacet
facet normal -0.051257148385 0.998685479164 0.0
outer loop
vertex -6.73297214508 4.09141492844 -205.354995728
vertex -3.67148280144 4.24854469299 -205.354995728
vertex -3.67148280144 4.24854469299 -208.925994873
endloop
endfacet
facet normal -0.0851955413818 0.996364235878 2.27523990759e-08
outer loop
vertex -9.78734493256 3.83024644852 -205.354995728
vertex -6.73297214508 4.09141492844 -205.354995728
vertex -9.78734588623 3.83024644852 -208.925994873
endloop
endfacet
facet normal -0.994772195816 -0.102119371295 -6.84603929102e-09
outer loop
vertex -9.78734493256 3.83024644852 -205.354995728
vertex -9.78223896027 3.78050804138 -208.925994873
vertex -9.78223896027 3.78050780296 -205.354995728
endloop
endfacet
facet normal -0.994770169258 -0.102138735354 2.65664255039e-07
outer loop
vertex -9.78734588623 3.83024644852 -208.925994873
vertex -9.78223896027 3.78050804138 -208.925994873
vertex -9.78734493256 3.83024644852 -205.354995728
endloop
endfacet
facet normal 0.017259137705 -0.999851047993 0.0
outer loop
vertex -0.606408119202 4.25145292282 -208.925994873
vertex -3.66976976395 4.19857406616 -205.354995728
vertex -3.66976976395 4.19857406616 -208.925994873
endloop
endfacet
facet normal 0.017259137705 -0.999851047993 0.0
outer loop
vertex -0.606408119202 4.25145292282 -205.354995728
vertex -3.66976976395 4.19857406616 -205.354995728
vertex -0.606408119202 4.25145292282 -208.925994873
endloop
endfacet
facet normal 0.051257122308 -0.998685419559 0.0
outer loop
vertex -3.66976976395 4.19857406616 -208.925994873
vertex -6.72956037521 4.04153156281 -205.354995728
vertex -6.72956037521 4.04153156281 -208.925994873
endloop
endfacet
facet normal 0.0851955115795 -0.996364295483 0.0
outer loop
vertex -6.72956037521 4.04153156281 -208.925994873
vertex -6.72956037521 4.04153156281 -205.354995728
vertex -9.78223896027 3.78050804138 -208.925994873
endloop
endfacet
facet normal 0.051257122308 -0.998685419559 0.0
outer loop
vertex -3.66976976395 4.19857406616 -205.354995728
vertex -6.72956037521 4.04153156281 -205.354995728
vertex -3.66976976395 4.19857406616 -208.925994873
endloop
endfacet
facet normal 0.0851955860853 -0.996364235878 -6.53745431123e-08
outer loop
vertex -6.72956037521 4.04153156281 -205.354995728
vertex -9.78223896027 3.78050780296 -205.354995728
vertex -9.78223896027 3.78050804138 -208.925994873
endloop
endfacet
facet normal 1.0 0.000250340934144 0.0
outer loop
vertex -0.606408119202 4.25145292282 -205.354995728
vertex -0.606420636177 4.30145263672 -208.925994873
vertex -0.606420636177 4.30145263672 -205.354995728
endloop
endfacet
facet normal 1.0 0.000250340934144 -0.0
outer loop
vertex -0.606408119202 4.25145292282 -208.925994873
vertex -0.606420636177 4.30145263672 -208.925994873
vertex -0.606408119202 4.25145292282 -205.354995728
endloop
endfacet
facet normal 0.0 0.0 -1.0
outer loop
vertex -6.72956037521 4.04153156281 -208.925994873
vertex -9.78223896027 3.78050804138 -208.925994873
vertex -9.78734588623 3.83024644852 -208.925994873
endloop
endfacet
facet normal 0.0 -0.0 -1.0
outer loop
vertex -6.73297214508 4.09141540527 -208.925994873
vertex -6.72956037521 4.04153156281 -208.925994873
vertex -9.78734588623 3.83024644852 -208.925994873
endloop
endfacet
facet normal 0.0 0.0 -1.0
outer loop
vertex -3.66976976395 4.19857406616 -208.925994873
vertex -6.72956037521 4.04153156281 -208.925994873
vertex -6.73297214508 4.09141540527 -208.925994873
endloop
endfacet
facet normal 0.0 -0.0 -1.0
outer loop
vertex -3.67148280144 4.24854469299 -208.925994873
vertex -3.66976976395 4.19857406616 -208.925994873
vertex -6.73297214508 4.09141540527 -208.925994873
endloop
endfacet
facet normal 0.0 0.0 -1.0
outer loop
vertex -0.606408119202 4.25145292282 -208.925994873
vertex -3.66976976395 4.19857406616 -208.925994873
vertex -3.67148280144 4.24854469299 -208.925994873
endloop
endfacet
facet normal 0.0 -0.0 -1.0
outer loop
vertex -0.606420636177 4.30145263672 -208.925994873
vertex -0.606408119202 4.25145292282 -208.925994873
vertex -3.67148280144 4.24854469299 -208.925994873
endloop
endfacet
facet normal 0.0 -0.0 1.0
outer loop
vertex -9.78223896027 3.78050780296 -205.354995728
vertex -6.72956037521 4.04153156281 -205.354995728
vertex -9.78734493256 3.83024644852 -205.354995728
endloop
endfacet
facet normal 0.0 0.0 1.0
outer loop
vertex -6.72956037521 4.04153156281 -205.354995728
vertex -6.73297214508 4.09141492844 -205.354995728
vertex -9.78734493256 3.83024644852 -205.354995728
endloop
endfacet
facet normal 0.0 -0.0 1.0
outer loop
vertex -6.72956037521 4.04153156281 -205.354995728
vertex -3.66976976395 4.19857406616 -205.354995728
vertex -6.73297214508 4.09141492844 -205.354995728
endloop
endfacet
facet normal 0.0 0.0 1.0
outer loop
vertex -3.66976976395 4.19857406616 -205.354995728
vertex -3.67148280144 4.24854469299 -205.354995728
vertex -6.73297214508 4.09141492844 -205.354995728
endloop
endfacet
facet normal 0.0 -0.0 1.0
outer loop
vertex -3.66976976395 4.19857406616 -205.354995728
vertex -0.606408119202 4.25145292282 -205.354995728
vertex -3.67148280144 4.24854469299 -205.354995728
endloop
endfacet
facet normal 0.0 0.0 1.0
outer loop
vertex -0.606408119202 4.25145292282 -205.354995728
vertex -0.606420636177 4.30145263672 -205.354995728
vertex -3.67148280144 4.24854469299 -205.354995728
endloop
endfacet
