solid 
facet normal -0.0172593612224 -0.999851047993 -1.36121391936e-09
outer loop
vertex -3.67149376869 -4.24854421616 -96.3860015869
vertex -0.606431543827 -4.30145311356 -96.3860015869
vertex -0.606431603432 -4.30145311356 -92.8150024414
endloop
endfacet
facet normal -0.0172592084855 -0.999851047993 -1.33510567935e-07
outer loop
vertex -3.67149376869 -4.24854421616 -96.3860015869
vertex -0.606431603432 -4.30145311356 -92.8150024414
vertex -3.67149376869 -4.24854469299 -92.8150024414
endloop
endfacet
facet normal -0.051257148385 -0.998685479164 -1.33354930654e-07
outer loop
vertex -6.73298311234 -4.0914144516 -96.3860015869
vertex -3.67149376869 -4.24854469299 -92.8150024414
vertex -6.73298311234 -4.09141492844 -92.8150024414
endloop
endfacet
facet normal -0.051257148385 -0.998685479164 -1.33398955882e-07
outer loop
vertex -6.73298311234 -4.0914144516 -96.3860015869
vertex -3.67149376869 -4.24854421616 -96.3860015869
vertex -3.67149376869 -4.24854469299 -92.8150024414
endloop
endfacet
facet normal -0.0851957574487 -0.996364235878 -6.65224888508e-08
outer loop
vertex -9.78735637665 -3.83024549484 -96.3860015869
vertex -6.73298311234 -4.09141492844 -92.8150024414
vertex -9.78735637665 -3.83024573326 -92.8150024414
endloop
endfacet
facet normal -0.0851956754923 -0.996364235878 -1.30676539811e-07
outer loop
vertex -9.78735637665 -3.83024549484 -96.3860015869
vertex -6.73298311234 -4.0914144516 -96.3860015869
vertex -6.73298311234 -4.09141492844 -92.8150024414
endloop
endfacet
facet normal -0.994770228863 0.102138251066 6.68302524431e-09
outer loop
vertex -9.78735637665 -3.83024549484 -96.3860015869
vertex -9.78224945068 -3.78050708771 -92.8150024414
vertex -9.78224945068 -3.78050684929 -96.3860015869
endloop
endfacet
facet normal -0.994770228863 0.102138251066 6.81928336022e-09
outer loop
vertex -9.78735637665 -3.83024573326 -92.8150024414
vertex -9.78224945068 -3.78050708771 -92.8150024414
vertex -9.78735637665 -3.83024549484 -96.3860015869
endloop
endfacet
facet normal 0.0172592941672 0.999851047993 1.33473022856e-07
outer loop
vertex -0.606419086456 -4.25145339966 -92.8150024414
vertex -3.6697807312 -4.19857358932 -96.3860015869
vertex -3.6697807312 -4.19857406616 -92.8150024414
endloop
endfacet
facet normal 0.0172592941672 0.999851047993 1.33798650381e-07
outer loop
vertex -0.606419026852 -4.25145292282 -96.3860015869
vertex -3.6697807312 -4.19857358932 -96.3860015869
vertex -0.606419086456 -4.25145339966 -92.8150024414
endloop
endfacet
facet normal 0.0512572787702 0.998685419559 0.0
outer loop
vertex -3.6697807312 -4.19857406616 -92.8150024414
vertex -6.72957134247 -4.04153108597 -96.3860015869
vertex -6.72957134247 -4.04153108597 -92.8150024414
endloop
endfacet
facet normal 0.0851956754923 0.996364235878 0.0
outer loop
vertex -6.72957134247 -4.04153108597 -92.8150024414
vertex -6.72957134247 -4.04153108597 -96.3860015869
vertex -9.78224945068 -3.78050708771 -92.8150024414
endloop
endfacet
facet normal 0.051257122308 0.998685419559 1.33354930654e-07
outer loop
vertex -3.6697807312 -4.19857358932 -96.3860015869
vertex -6.72957134247 -4.04153108597 -96.3860015869
vertex -3.6697807312 -4.19857406616 -92.8150024414
endloop
endfacet
facet normal 0.0851957574487 0.996364235878 6.53745502177e-08
outer loop
vertex -6.72957134247 -4.04153108597 -96.3860015869
vertex -9.78224945068 -3.78050684929 -96.3860015869
vertex -9.78224945068 -3.78050708771 -92.8150024414
endloop
endfacet
facet normal 0.999999940395 -0.000250338518526 1.6691306115e-08
outer loop
vertex -0.606419026852 -4.25145292282 -96.3860015869
vertex -0.606431603432 -4.30145311356 -92.8150024414
vertex -0.606431543827 -4.30145311356 -96.3860015869
endloop
endfacet
facet normal 1.0 -0.000250340934144 1.66578804084e-08
outer loop
vertex -0.606419086456 -4.25145339966 -92.8150024414
vertex -0.606431603432 -4.30145311356 -92.8150024414
vertex -0.606419026852 -4.25145292282 -96.3860015869
endloop
endfacet
facet normal 0.0 0.0 1.0
outer loop
vertex -6.72957134247 -4.04153108597 -92.8150024414
vertex -9.78224945068 -3.78050708771 -92.8150024414
vertex -9.78735637665 -3.83024573326 -92.8150024414
endloop
endfacet
facet normal 0.0 -0.0 1.0
outer loop
vertex -6.73298311234 -4.09141492844 -92.8150024414
vertex -6.72957134247 -4.04153108597 -92.8150024414
vertex -9.78735637665 -3.83024573326 -92.8150024414
endloop
endfacet
facet normal 0.0 0.0 1.0
outer loop
vertex -3.6697807312 -4.19857406616 -92.8150024414
vertex -6.72957134247 -4.04153108597 -92.8150024414
vertex -6.73298311234 -4.09141492844 -92.8150024414
endloop
endfacet
facet normal 0.0 -0.0 1.0
outer loop
vertex -3.67149376869 -4.24854469299 -92.8150024414
vertex -3.6697807312 -4.19857406616 -92.8150024414
vertex -6.73298311234 -4.09141492844 -92.8150024414
endloop
endfacet
facet normal 0.0 0.0 1.0
outer loop
vertex -0.606419086456 -4.25145339966 -92.8150024414
vertex -3.6697807312 -4.19857406616 -92.8150024414
vertex -3.67149376869 -4.24854469299 -92.8150024414
endloop
endfacet
facet normal 0.0 -0.0 1.0
outer loop
vertex -0.606431603432 -4.30145311356 -92.8150024414
vertex -0.606419086456 -4.25145339966 -92.8150024414
vertex -3.67149376869 -4.24854469299 -92.8150024414
endloop
endfacet
facet normal 0.0 -0.0 -1.0
outer loop
vertex -9.78224945068 -3.78050684929 -96.3860015869
vertex -6.72957134247 -4.04153108597 -96.3860015869
vertex -9.78735637665 -3.83024549484 -96.3860015869
endloop
endfacet
facet normal -0.0 0.0 -1.0
outer loop
vertex -6.72957134247 -4.04153108597 -96.3860015869
vertex -6.73298311234 -4.0914144516 -96.3860015869
vertex -9.78735637665 -3.83024549484 -96.3860015869
endloop
endfacet
facet normal 0.0 -0.0 -1.0
outer loop
vertex -6.72957134247 -4.04153108597 -96.3860015869
vertex -3.6697807312 -4.19857358932 -96.3860015869
vertex -6.73298311234 -4.0914144516 -96.3860015869
endloop
endfacet
facet normal -0.0 0.0 -1.0
outer loop
vertex -3.6697807312 -4.19857358932 -96.3860015869
vertex -3.67149376869 -4.24854421616 -96.3860015869
vertex -6.73298311234 -4.0914144516 -96.3860015869
endloop
endfacet
facet normal 0.0 -0.0 -1.0
outer loop
vertex -3.6697807312 -4.19857358932 -96.3860015869
vertex -0.606419026852 -4.25145292282 -96.3860015869
vertex -3.67149376869 -4.24854421616 -96.3860015869
endloop
endfacet
facet normal -0.0 0.0 -1.0
outer loop
vertex -0.606419026852 -4.25145292282 -96.3860015869
vertex -0.606431543827 -4.30145311356 -96.3860015869
vertex -3.67149376869 -4.24854421616 -96.3860015869
endloop
endfacet
