solid 
facet normal -0.0172590520233 -0.999851047993 0.0
outer loop
vertex -3.67147254944 -4.24854421616 245.035995483
vertex -0.606410443783 -4.30145215988 245.035995483
vertex -0.606410443783 -4.30145215988 248.606994629
endloop
endfacet
facet normal -0.0172590520233 -0.999851047993 0.0
outer loop
vertex -3.67147254944 -4.24854421616 245.035995483
vertex -0.606410443783 -4.30145215988 248.606994629
vertex -3.67147254944 -4.24854421616 248.606994629
endloop
endfacet
facet normal -0.0512568429112 -0.998685479164 0.0
outer loop
vertex -6.73296165466 -4.09141540527 245.035995483
vertex -3.67147254944 -4.24854421616 248.606994629
vertex -6.73296165466 -4.09141540527 248.606994629
endloop
endfacet
facet normal -0.0512568429112 -0.998685479164 0.0
outer loop
vertex -6.73296165466 -4.09141540527 245.035995483
vertex -3.67147254944 -4.24854421616 245.035995483
vertex -3.67147254944 -4.24854421616 248.606994629
endloop
endfacet
facet normal -0.0851954296231 -0.996364235878 0.0
outer loop
vertex -9.78733539581 -3.83024716377 245.035995483
vertex -6.73296165466 -4.09141540527 248.606994629
vertex -9.78733539581 -3.83024716377 248.606994629
endloop
endfacet
facet normal -0.0851954296231 -0.996364235878 0.0
outer loop
vertex -9.78733539581 -3.83024716377 245.035995483
vertex -6.73296165466 -4.09141540527 245.035995483
vertex -6.73296165466 -4.09141540527 248.606994629
endloop
endfacet
facet normal -0.994770228863 0.102138251066 0.0
outer loop
vertex -9.78733539581 -3.83024716377 245.035995483
vertex -9.78733539581 -3.83024716377 248.606994629
vertex -9.78222846985 -3.78050851822 245.035995483
endloop
endfacet
facet normal -0.994770228863 0.102138251066 0.0
outer loop
vertex -9.78733539581 -3.83024716377 248.606994629
vertex -9.78222846985 -3.78050851822 248.606994629
vertex -9.78222846985 -3.78050851822 245.035995483
endloop
endfacet
facet normal 0.017259137705 0.999851047993 0.0
outer loop
vertex -0.606397926807 -4.25145244598 248.606994629
vertex -3.66975951195 -4.19857358932 245.035995483
vertex -3.66975951195 -4.19857358932 248.606994629
endloop
endfacet
facet normal 0.0512568205595 0.998685538769 0.0
outer loop
vertex -3.66975951195 -4.19857358932 248.606994629
vertex -3.66975951195 -4.19857358932 245.035995483
vertex -6.7295498848 -4.04153203964 248.606994629
endloop
endfacet
facet normal 0.017259137705 0.999851047993 -0.0
outer loop
vertex -0.606397926807 -4.25145244598 245.035995483
vertex -3.66975951195 -4.19857358932 245.035995483
vertex -0.606397926807 -4.25145244598 248.606994629
endloop
endfacet
facet normal 0.0512568205595 0.998685538769 0.0
outer loop
vertex -3.66975951195 -4.19857358932 245.035995483
vertex -6.7295498848 -4.04153203964 245.035995483
vertex -6.7295498848 -4.04153203964 248.606994629
endloop
endfacet
facet normal 0.0851955115795 0.996364295483 0.0
outer loop
vertex -6.7295498848 -4.04153203964 248.606994629
vertex -9.78222846985 -3.78050851822 245.035995483
vertex -9.78222846985 -3.78050851822 248.606994629
endloop
endfacet
facet normal 0.0851955115795 0.996364295483 -0.0
outer loop
vertex -6.7295498848 -4.04153203964 245.035995483
vertex -9.78222846985 -3.78050851822 245.035995483
vertex -6.7295498848 -4.04153203964 248.606994629
endloop
endfacet
facet normal 1.0 -0.000250340934144 0.0
outer loop
vertex -0.606397926807 -4.25145244598 245.035995483
vertex -0.606397926807 -4.25145244598 248.606994629
vertex -0.606410443783 -4.30145215988 245.035995483
endloop
endfacet
facet normal 1.0 -0.000250340934144 0.0
outer loop
vertex -0.606397926807 -4.25145244598 248.606994629
vertex -0.606410443783 -4.30145215988 248.606994629
vertex -0.606410443783 -4.30145215988 245.035995483
endloop
endfacet
facet normal 0.0 -0.0 1.0
outer loop
vertex -6.73296165466 -4.09141540527 248.606994629
vertex -6.7295498848 -4.04153203964 248.606994629
vertex -9.78222846985 -3.78050851822 248.606994629
endloop
endfacet
facet normal 0.0 0.0 1.0
outer loop
vertex -6.73296165466 -4.09141540527 248.606994629
vertex -9.78222846985 -3.78050851822 248.606994629
vertex -9.78733539581 -3.83024716377 248.606994629
endloop
endfacet
facet normal 0.0 -0.0 1.0
outer loop
vertex -3.67147254944 -4.24854421616 248.606994629
vertex -3.66975951195 -4.19857358932 248.606994629
vertex -6.7295498848 -4.04153203964 248.606994629
endloop
endfacet
facet normal 0.0 0.0 1.0
outer loop
vertex -3.67147254944 -4.24854421616 248.606994629
vertex -6.7295498848 -4.04153203964 248.606994629
vertex -6.73296165466 -4.09141540527 248.606994629
endloop
endfacet
facet normal 0.0 -0.0 1.0
outer loop
vertex -0.606410443783 -4.30145215988 248.606994629
vertex -0.606397926807 -4.25145244598 248.606994629
vertex -3.66975951195 -4.19857358932 248.606994629
endloop
endfacet
facet normal 0.0 0.0 1.0
outer loop
vertex -0.606410443783 -4.30145215988 248.606994629
vertex -3.66975951195 -4.19857358932 248.606994629
vertex -3.67147254944 -4.24854421616 248.606994629
endloop
endfacet
facet normal 0.0 -0.0 -1.0
outer loop
vertex -9.78222846985 -3.78050851822 245.035995483
vertex -6.7295498848 -4.04153203964 245.035995483
vertex -9.78733539581 -3.83024716377 245.035995483
endloop
endfacet
facet normal -0.0 0.0 -1.0
outer loop
vertex -6.7295498848 -4.04153203964 245.035995483
vertex -6.73296165466 -4.09141540527 245.035995483
vertex -9.78733539581 -3.83024716377 245.035995483
endloop
endfacet
facet normal 0.0 -0.0 -1.0
outer loop
vertex -6.7295498848 -4.04153203964 245.035995483
vertex -3.66975951195 -4.19857358932 245.035995483
vertex -6.73296165466 -4.09141540527 245.035995483
endloop
endfacet
facet normal -0.0 0.0 -1.0
outer loop
vertex -3.66975951195 -4.19857358932 245.035995483
vertex -3.67147254944 -4.24854421616 245.035995483
vertex -6.73296165466 -4.09141540527 245.035995483
endloop
endfacet
facet normal 0.0 -0.0 -1.0
outer loop
vertex -3.66975951195 -4.19857358932 245.035995483
vertex -0.606397926807 -4.25145244598 245.035995483
vertex -3.67147254944 -4.24854421616 245.035995483
endloop
endfacet
facet normal -0.0 0.0 -1.0
outer loop
vertex -0.606397926807 -4.25145244598 245.035995483
vertex -0.606410443783 -4.30145215988 245.035995483
vertex -3.67147254944 -4.24854421616 245.035995483
endloop
endfacet
