solid 
facet normal -0.102243930101 0.994759321213 -6.64216841528e-08
outer loop
vertex -9.8072309494 3.8282020092 6.13100004196
vertex -9.78733539581 3.83024692535 6.13100004196
vertex -9.78733539581 3.83024668694 2.55999994278
endloop
endfacet
facet normal -0.102232128382 0.99476057291 0.0
outer loop
vertex -9.8072309494 3.8282020092 6.13100004196
vertex -9.78733539581 3.83024668694 2.55999994278
vertex -9.8072309494 3.8282020092 2.55999994278
endloop
endfacet
facet normal -0.102461107075 0.994736969471 0.0
outer loop
vertex -9.82712554932 3.82615280151 6.13100004196
vertex -9.8072309494 3.8282020092 2.55999994278
vertex -9.82712554932 3.82615280151 2.55999994278
endloop
endfacet
facet normal -0.102461107075 0.994736969471 0.0
outer loop
vertex -9.82712554932 3.82615280151 6.13100004196
vertex -9.8072309494 3.8282020092 6.13100004196
vertex -9.8072309494 3.8282020092 2.55999994278
endloop
endfacet
facet normal -0.102690085769 0.994713366032 -6.64122481453e-08
outer loop
vertex -9.84701919556 3.82409930229 6.13100004196
vertex -9.82712554932 3.82615280151 2.55999994278
vertex -9.84701919556 3.82409906387 2.55999994278
endloop
endfacet
facet normal -0.10267829895 0.994714617729 0.0
outer loop
vertex -9.84701919556 3.82409930229 6.13100004196
vertex -9.82712554932 3.82615280151 6.13100004196
vertex -9.82712554932 3.82615280151 2.55999994278
endloop
endfacet
facet normal -0.994703471661 -0.1027867347 0.0
outer loop
vertex -9.84701919556 3.82409930229 6.13100004196
vertex -9.84187984467 3.7743639946 2.55999994278
vertex -9.84187984467 3.7743639946 6.13100004196
endloop
endfacet
facet normal -0.994703412056 -0.102787233889 6.86261136806e-09
outer loop
vertex -9.84701919556 3.82409906387 2.55999994278
vertex -9.84187984467 3.7743639946 2.55999994278
vertex -9.84701919556 3.82409930229 6.13100004196
endloop
endfacet
facet normal 0.102238290012 -0.994759917259 3.91401826505e-08
outer loop
vertex -9.78222846985 3.7805082798 2.55999994278
vertex -9.80211257935 3.77846479416 6.13100004196
vertex -9.80211353302 3.77846455574 2.55999994278
endloop
endfacet
facet normal 0.10223133117 -0.99476057291 0.0
outer loop
vertex -9.78222846985 3.7805082798 6.13100004196
vertex -9.80211257935 3.77846479416 6.13100004196
vertex -9.78222846985 3.7805082798 2.55999994278
endloop
endfacet
facet normal 0.102460451424 -0.99473708868 0.0
outer loop
vertex -9.80211353302 3.77846455574 2.55999994278
vertex -9.82199668884 3.77641654015 6.13100004196
vertex -9.82199668884 3.77641654015 2.55999994278
endloop
endfacet
facet normal 0.102467380464 -0.99473631382 3.9048753564e-08
outer loop
vertex -9.80211257935 3.77846479416 6.13100004196
vertex -9.82199668884 3.77641654015 6.13100004196
vertex -9.80211353302 3.77846455574 2.55999994278
endloop
endfacet
facet normal 0.102684691548 -0.994713962078 0.0
outer loop
vertex -9.82199668884 3.77641654015 2.55999994278
vertex -9.84187984467 3.7743639946 6.13100004196
vertex -9.84187984467 3.7743639946 2.55999994278
endloop
endfacet
facet normal 0.102684691548 -0.994713962078 0.0
outer loop
vertex -9.82199668884 3.77641654015 6.13100004196
vertex -9.84187984467 3.7743639946 6.13100004196
vertex -9.82199668884 3.77641654015 2.55999994278
endloop
endfacet
facet normal 0.994770228863 0.102138236165 0.0
outer loop
vertex -9.78222846985 3.7805082798 6.13100004196
vertex -9.78222846985 3.7805082798 2.55999994278
vertex -9.78733539581 3.83024692535 6.13100004196
endloop
endfacet
facet normal 0.994770169258 0.102138727903 -6.68305499829e-09
outer loop
vertex -9.78222846985 3.7805082798 2.55999994278
vertex -9.78733539581 3.83024668694 2.55999994278
vertex -9.78733539581 3.83024692535 6.13100004196
endloop
endfacet
facet normal 0.0 -0.0 -1.0
outer loop
vertex -9.82712554932 3.82615280151 2.55999994278
vertex -9.82199668884 3.77641654015 2.55999994278
vertex -9.84187984467 3.7743639946 2.55999994278
endloop
endfacet
facet normal 0.0 0.0 -1.0
outer loop
vertex -9.82712554932 3.82615280151 2.55999994278
vertex -9.84187984467 3.7743639946 2.55999994278
vertex -9.84701919556 3.82409906387 2.55999994278
endloop
endfacet
facet normal 0.0 -0.0 -1.0
outer loop
vertex -9.8072309494 3.8282020092 2.55999994278
vertex -9.80211353302 3.77846455574 2.55999994278
vertex -9.82199668884 3.77641654015 2.55999994278
endloop
endfacet
facet normal 0.0 0.0 -1.0
outer loop
vertex -9.8072309494 3.8282020092 2.55999994278
vertex -9.82199668884 3.77641654015 2.55999994278
vertex -9.82712554932 3.82615280151 2.55999994278
endloop
endfacet
facet normal 0.0 -0.0 -1.0
outer loop
vertex -9.78733539581 3.83024668694 2.55999994278
vertex -9.78222846985 3.7805082798 2.55999994278
vertex -9.80211353302 3.77846455574 2.55999994278
endloop
endfacet
facet normal 0.0 0.0 -1.0
outer loop
vertex -9.78733539581 3.83024668694 2.55999994278
vertex -9.80211353302 3.77846455574 2.55999994278
vertex -9.8072309494 3.8282020092 2.55999994278
endloop
endfacet
facet normal 0.0 0.0 1.0
outer loop
vertex -9.82199668884 3.77641654015 6.13100004196
vertex -9.84701919556 3.82409930229 6.13100004196
vertex -9.84187984467 3.7743639946 6.13100004196
endloop
endfacet
facet normal 0.0 0.0 1.0
outer loop
vertex -9.80211257935 3.77846479416 6.13100004196
vertex -9.82712554932 3.82615280151 6.13100004196
vertex -9.82199668884 3.77641654015 6.13100004196
endloop
endfacet
facet normal 0.0 0.0 1.0
outer loop
vertex -9.82199668884 3.77641654015 6.13100004196
vertex -9.82712554932 3.82615280151 6.13100004196
vertex -9.84701919556 3.82409930229 6.13100004196
endloop
endfacet
facet normal 0.0 0.0 1.0
outer loop
vertex -9.78222846985 3.7805082798 6.13100004196
vertex -9.8072309494 3.8282020092 6.13100004196
vertex -9.80211257935 3.77846479416 6.13100004196
endloop
endfacet
facet normal 0.0 0.0 1.0
outer loop
vertex -9.80211257935 3.77846479416 6.13100004196
vertex -9.8072309494 3.8282020092 6.13100004196
vertex -9.82712554932 3.82615280151 6.13100004196
endloop
endfacet
facet normal 0.0 0.0 1.0
outer loop
vertex -9.78222846985 3.7805082798 6.13100004196
vertex -9.78733539581 3.83024692535 6.13100004196
vertex -9.8072309494 3.8282020092 6.13100004196
endloop
endfacet
