solid 
facet normal -0.10223698616 0.994760155678 0.0
outer loop
vertex -9.80725097656 3.82820081711 99.9770050049
vertex -9.78735637665 3.83024549484 99.9770050049
vertex -9.78735637665 3.83024549484 96.4060058594
endloop
endfacet
facet normal -0.102232135832 0.99476057291 2.7302208494e-08
outer loop
vertex -9.80725097656 3.82820081711 99.9770050049
vertex -9.78735637665 3.83024549484 96.4060058594
vertex -9.80725193024 3.82820081711 96.4060058594
endloop
endfacet
facet normal -0.102472916245 0.994735836983 -6.64137687068e-08
outer loop
vertex -9.82714653015 3.82615160942 99.9770050049
vertex -9.80725193024 3.82820081711 96.4060058594
vertex -9.82714653015 3.826151371 96.4060058594
endloop
endfacet
facet normal -0.10267829895 0.994714617729 -6.64123547267e-08
outer loop
vertex -9.82714653015 3.82615160942 99.9770050049
vertex -9.82714653015 3.826151371 96.4060058594
vertex -9.84704017639 3.82409787178 96.4060058594
endloop
endfacet
facet normal -0.102456234396 0.994737446308 2.74034412939e-08
outer loop
vertex -9.82714653015 3.82615160942 99.9770050049
vertex -9.80725097656 3.82820081711 99.9770050049
vertex -9.80725193024 3.82820081711 96.4060058594
endloop
endfacet
facet normal -0.102690093219 0.994713366032 0.0
outer loop
vertex -9.84704017639 3.82409787178 99.9770050049
vertex -9.82714653015 3.82615160942 99.9770050049
vertex -9.84704017639 3.82409787178 96.4060058594
endloop
endfacet
facet normal -0.994703412056 -0.102787233889 0.0
outer loop
vertex -9.84704017639 3.82409787178 99.9770050049
vertex -9.8419008255 3.77436280251 96.4060058594
vertex -9.8419008255 3.77436280251 99.9770050049
endloop
endfacet
facet normal -0.994703412056 -0.102787233889 0.0
outer loop
vertex -9.84704017639 3.82409787178 96.4060058594
vertex -9.8419008255 3.77436280251 96.4060058594
vertex -9.84704017639 3.82409787178 99.9770050049
endloop
endfacet
facet normal 0.10224314034 -0.994759440422 0.0
outer loop
vertex -9.78224945068 3.78050708771 96.4060058594
vertex -9.80213356018 3.77846336365 99.9770050049
vertex -9.80213356018 3.77846336365 96.4060058594
endloop
endfacet
facet normal 0.10224314034 -0.994759440422 0.0
outer loop
vertex -9.78224945068 3.78050708771 99.9770050049
vertex -9.80213356018 3.77846336365 99.9770050049
vertex -9.78224945068 3.78050708771 96.4060058594
endloop
endfacet
facet normal 0.102467373013 -0.99473631382 0.0
outer loop
vertex -9.80213356018 3.77846336365 96.4060058594
vertex -9.82201766968 3.77641510963 99.9770050049
vertex -9.82201766968 3.77641510963 96.4060058594
endloop
endfacet
facet normal 0.102672889829 -0.994715154171 0.0
outer loop
vertex -9.82201766968 3.77641510963 96.4060058594
vertex -9.82201766968 3.77641510963 99.9770050049
vertex -9.8419008255 3.77436280251 96.4060058594
endloop
endfacet
facet normal 0.102467373013 -0.99473631382 0.0
outer loop
vertex -9.80213356018 3.77846336365 99.9770050049
vertex -9.82201766968 3.77641510963 99.9770050049
vertex -9.80213356018 3.77846336365 96.4060058594
endloop
endfacet
facet normal 0.102672889829 -0.994715154171 0.0
outer loop
vertex -9.82201766968 3.77641510963 99.9770050049
vertex -9.8419008255 3.77436280251 99.9770050049
vertex -9.8419008255 3.77436280251 96.4060058594
endloop
endfacet
facet normal 0.994770169258 0.102138735354 0.0
outer loop
vertex -9.78224945068 3.78050708771 99.9770050049
vertex -9.78224945068 3.78050708771 96.4060058594
vertex -9.78735637665 3.83024549484 99.9770050049
endloop
endfacet
facet normal 0.994770169258 0.102138735354 0.0
outer loop
vertex -9.78224945068 3.78050708771 96.4060058594
vertex -9.78735637665 3.83024549484 96.4060058594
vertex -9.78735637665 3.83024549484 99.9770050049
endloop
endfacet
facet normal 0.0 0.0 -1.0
outer loop
vertex -9.84704017639 3.82409787178 96.4060058594
vertex -9.82201766968 3.77641510963 96.4060058594
vertex -9.8419008255 3.77436280251 96.4060058594
endloop
endfacet
facet normal 0.0 -0.0 -1.0
outer loop
vertex -9.82714653015 3.826151371 96.4060058594
vertex -9.82201766968 3.77641510963 96.4060058594
vertex -9.84704017639 3.82409787178 96.4060058594
endloop
endfacet
facet normal 0.0 -0.0 -1.0
outer loop
vertex -9.80725193024 3.82820081711 96.4060058594
vertex -9.80213356018 3.77846336365 96.4060058594
vertex -9.82201766968 3.77641510963 96.4060058594
endloop
endfacet
facet normal 0.0 0.0 -1.0
outer loop
vertex -9.80725193024 3.82820081711 96.4060058594
vertex -9.82201766968 3.77641510963 96.4060058594
vertex -9.82714653015 3.826151371 96.4060058594
endloop
endfacet
facet normal 0.0 -0.0 -1.0
outer loop
vertex -9.78735637665 3.83024549484 96.4060058594
vertex -9.78224945068 3.78050708771 96.4060058594
vertex -9.80213356018 3.77846336365 96.4060058594
endloop
endfacet
facet normal 0.0 0.0 -1.0
outer loop
vertex -9.78735637665 3.83024549484 96.4060058594
vertex -9.80213356018 3.77846336365 96.4060058594
vertex -9.80725193024 3.82820081711 96.4060058594
endloop
endfacet
facet normal 0.0 0.0 1.0
outer loop
vertex -9.82201766968 3.77641510963 99.9770050049
vertex -9.84704017639 3.82409787178 99.9770050049
vertex -9.8419008255 3.77436280251 99.9770050049
endloop
endfacet
facet normal 0.0 0.0 1.0
outer loop
vertex -9.80213356018 3.77846336365 99.9770050049
vertex -9.82714653015 3.82615160942 99.9770050049
vertex -9.82201766968 3.77641510963 99.9770050049
endloop
endfacet
facet normal 0.0 0.0 1.0
outer loop
vertex -9.82201766968 3.77641510963 99.9770050049
vertex -9.82714653015 3.82615160942 99.9770050049
vertex -9.84704017639 3.82409787178 99.9770050049
endloop
endfacet
facet normal 0.0 0.0 1.0
outer loop
vertex -9.78224945068 3.78050708771 99.9770050049
vertex -9.80725097656 3.82820081711 99.9770050049
vertex -9.80213356018 3.77846336365 99.9770050049
endloop
endfacet
facet normal 0.0 0.0 1.0
outer loop
vertex -9.80213356018 3.77846336365 99.9770050049
vertex -9.80725097656 3.82820081711 99.9770050049
vertex -9.82714653015 3.82615160942 99.9770050049
endloop
endfacet
facet normal 0.0 0.0 1.0
outer loop
vertex -9.78224945068 3.78050708771 99.9770050049
vertex -9.78735637665 3.83024549484 99.9770050049
vertex -9.80725097656 3.82820081711 99.9770050049
endloop
endfacet
