solid 
facet normal -0.1022439152 -0.994759321213 6.64216983637e-08
outer loop
vertex -9.8072309494 -3.8282020092 252.277999878
vertex -9.78733539581 -3.83024692535 252.277999878
vertex -9.78733539581 -3.83024668694 255.848999023
endloop
endfacet
facet normal -0.102232128382 -0.99476057291 0.0
outer loop
vertex -9.8072309494 -3.8282020092 252.277999878
vertex -9.78733539581 -3.83024668694 255.848999023
vertex -9.8072309494 -3.8282020092 255.848999023
endloop
endfacet
facet normal -0.102461114526 -0.994736969471 0.0
outer loop
vertex -9.82712554932 -3.82615280151 252.277999878
vertex -9.8072309494 -3.8282020092 255.848999023
vertex -9.82712554932 -3.82615280151 255.848999023
endloop
endfacet
facet normal -0.102690093219 -0.994713366032 0.0
outer loop
vertex -9.82712554932 -3.82615280151 252.277999878
vertex -9.82712554932 -3.82615280151 255.848999023
vertex -9.84701919556 -3.82409906387 255.848999023
endloop
endfacet
facet normal -0.102461114526 -0.994736969471 0.0
outer loop
vertex -9.82712554932 -3.82615280151 252.277999878
vertex -9.8072309494 -3.8282020092 252.277999878
vertex -9.8072309494 -3.8282020092 255.848999023
endloop
endfacet
facet normal -0.10267829895 -0.994714617729 6.64123547267e-08
outer loop
vertex -9.84701919556 -3.82409930229 252.277999878
vertex -9.82712554932 -3.82615280151 252.277999878
vertex -9.84701919556 -3.82409906387 255.848999023
endloop
endfacet
facet normal -0.994703471661 0.102786749601 0.0
outer loop
vertex -9.84701919556 -3.82409930229 252.277999878
vertex -9.84187984467 -3.7743639946 255.848999023
vertex -9.84187984467 -3.7743639946 252.277999878
endloop
endfacet
facet normal -0.994703412056 0.102787233889 -6.86261314442e-09
outer loop
vertex -9.84701919556 -3.82409906387 255.848999023
vertex -9.84187984467 -3.7743639946 255.848999023
vertex -9.84701919556 -3.82409930229 252.277999878
endloop
endfacet
facet normal 0.102238282561 0.994759917259 -3.91401897559e-08
outer loop
vertex -9.78222846985 -3.7805082798 255.848999023
vertex -9.80211257935 -3.77846479416 252.277999878
vertex -9.80211353302 -3.77846455574 255.848999023
endloop
endfacet
facet normal 0.102460451424 0.99473708868 -3.90506720294e-08
outer loop
vertex -9.80211353302 -3.77846455574 255.848999023
vertex -9.80211257935 -3.77846479416 252.277999878
vertex -9.82199668884 -3.77641654015 255.848999023
endloop
endfacet
facet normal 0.10223133862 0.99476069212 -0.0
outer loop
vertex -9.78222846985 -3.7805082798 252.277999878
vertex -9.80211257935 -3.77846479416 252.277999878
vertex -9.78222846985 -3.7805082798 255.848999023
endloop
endfacet
facet normal 0.102684698999 0.994713962078 0.0
outer loop
vertex -9.82199668884 -3.77641654015 255.848999023
vertex -9.82199668884 -3.77641654015 252.277999878
vertex -9.84187984467 -3.7743639946 255.848999023
endloop
endfacet
facet normal 0.102467373013 0.99473631382 0.0
outer loop
vertex -9.80211257935 -3.77846479416 252.277999878
vertex -9.82199668884 -3.77641654015 252.277999878
vertex -9.82199668884 -3.77641654015 255.848999023
endloop
endfacet
facet normal 0.102684698999 0.994713962078 0.0
outer loop
vertex -9.82199668884 -3.77641654015 252.277999878
vertex -9.84187984467 -3.7743639946 252.277999878
vertex -9.84187984467 -3.7743639946 255.848999023
endloop
endfacet
facet normal 0.994770228863 -0.102138251066 0.0
outer loop
vertex -9.78222846985 -3.7805082798 252.277999878
vertex -9.78222846985 -3.7805082798 255.848999023
vertex -9.78733539581 -3.83024692535 252.277999878
endloop
endfacet
facet normal 0.994770169258 -0.102138735354 6.68305677465e-09
outer loop
vertex -9.78222846985 -3.7805082798 255.848999023
vertex -9.78733539581 -3.83024668694 255.848999023
vertex -9.78733539581 -3.83024692535 252.277999878
endloop
endfacet
facet normal 0.0 0.0 1.0
outer loop
vertex -9.84701919556 -3.82409906387 255.848999023
vertex -9.82199668884 -3.77641654015 255.848999023
vertex -9.84187984467 -3.7743639946 255.848999023
endloop
endfacet
facet normal 0.0 -0.0 1.0
outer loop
vertex -9.82712554932 -3.82615280151 255.848999023
vertex -9.82199668884 -3.77641654015 255.848999023
vertex -9.84701919556 -3.82409906387 255.848999023
endloop
endfacet
facet normal 0.0 -0.0 1.0
outer loop
vertex -9.8072309494 -3.8282020092 255.848999023
vertex -9.80211353302 -3.77846455574 255.848999023
vertex -9.82199668884 -3.77641654015 255.848999023
endloop
endfacet
facet normal 0.0 0.0 1.0
outer loop
vertex -9.8072309494 -3.8282020092 255.848999023
vertex -9.82199668884 -3.77641654015 255.848999023
vertex -9.82712554932 -3.82615280151 255.848999023
endloop
endfacet
facet normal 0.0 -0.0 1.0
outer loop
vertex -9.78733539581 -3.83024668694 255.848999023
vertex -9.78222846985 -3.7805082798 255.848999023
vertex -9.80211353302 -3.77846455574 255.848999023
endloop
endfacet
facet normal 0.0 0.0 1.0
outer loop
vertex -9.78733539581 -3.83024668694 255.848999023
vertex -9.80211353302 -3.77846455574 255.848999023
vertex -9.8072309494 -3.8282020092 255.848999023
endloop
endfacet
facet normal -0.0 0.0 -1.0
outer loop
vertex -9.82199668884 -3.77641654015 252.277999878
vertex -9.84701919556 -3.82409930229 252.277999878
vertex -9.84187984467 -3.7743639946 252.277999878
endloop
endfacet
facet normal -0.0 0.0 -1.0
outer loop
vertex -9.80211257935 -3.77846479416 252.277999878
vertex -9.82712554932 -3.82615280151 252.277999878
vertex -9.82199668884 -3.77641654015 252.277999878
endloop
endfacet
facet normal 0.0 0.0 -1.0
outer loop
vertex -9.82199668884 -3.77641654015 252.277999878
vertex -9.82712554932 -3.82615280151 252.277999878
vertex -9.84701919556 -3.82409930229 252.277999878
endloop
endfacet
facet normal -0.0 0.0 -1.0
outer loop
vertex -9.78222846985 -3.7805082798 252.277999878
vertex -9.8072309494 -3.8282020092 252.277999878
vertex -9.80211257935 -3.77846479416 252.277999878
endloop
endfacet
facet normal 0.0 0.0 -1.0
outer loop
vertex -9.80211257935 -3.77846479416 252.277999878
vertex -9.8072309494 -3.8282020092 252.277999878
vertex -9.82712554932 -3.82615280151 252.277999878
endloop
endfacet
facet normal 0.0 0.0 -1.0
outer loop
vertex -9.78222846985 -3.7805082798 252.277999878
vertex -9.78733539581 -3.83024692535 252.277999878
vertex -9.8072309494 -3.8282020092 252.277999878
endloop
endfacet
