solid 
facet normal -0.102232120931 0.99476057291 0.0
outer loop
vertex -9.80723571777 3.82820224762 27.797000885
vertex -9.78734016418 3.83024692535 27.797000885
vertex -9.78734016418 3.83024692535 24.2259998322
endloop
endfacet
facet normal -0.1022439152 0.994759321213 -6.64152963736e-08
outer loop
vertex -9.80723571777 3.82820224762 27.797000885
vertex -9.78734016418 3.83024692535 24.2259998322
vertex -9.80723571777 3.8282020092 24.2259998322
endloop
endfacet
facet normal -0.102461099625 0.994736969471 0.0
outer loop
vertex -9.82713031769 3.82615280151 27.797000885
vertex -9.80723571777 3.8282020092 24.2259998322
vertex -9.82713031769 3.82615280151 24.2259998322
endloop
endfacet
facet normal -0.102472886443 0.994735717773 -6.64232757686e-08
outer loop
vertex -9.82713031769 3.82615280151 27.797000885
vertex -9.80723571777 3.82820224762 27.797000885
vertex -9.80723571777 3.8282020092 24.2259998322
endloop
endfacet
facet normal -0.102685205638 0.994713842869 -6.64122623562e-08
outer loop
vertex -9.8470249176 3.82409930229 27.797000885
vertex -9.82713031769 3.82615280151 24.2259998322
vertex -9.8470249176 3.82409906387 24.2259998322
endloop
endfacet
facet normal -0.10267341882 0.994715094566 0.0
outer loop
vertex -9.8470249176 3.82409930229 27.797000885
vertex -9.82713031769 3.82615280151 27.797000885
vertex -9.82713031769 3.82615280151 24.2259998322
endloop
endfacet
facet normal -0.994701445103 -0.102806091309 2.72537619139e-07
outer loop
vertex -9.8470249176 3.82409930229 27.797000885
vertex -9.84188556671 3.7743639946 24.2259998322
vertex -9.84188461304 3.77436423302 27.797000885
endloop
endfacet
facet normal -0.994703412056 -0.102787226439 6.86260914762e-09
outer loop
vertex -9.8470249176 3.82409906387 24.2259998322
vertex -9.84188556671 3.7743639946 24.2259998322
vertex -9.8470249176 3.82409930229 27.797000885
endloop
endfacet
facet normal 0.10224314034 -0.994759440422 6.64599042466e-08
outer loop
vertex -9.78223419189 3.7805082798 24.2259998322
vertex -9.80211830139 3.77846479416 27.797000885
vertex -9.80211830139 3.77846455574 24.2259998322
endloop
endfacet
facet normal 0.10223133862 -0.99476069212 0.0
outer loop
vertex -9.78223419189 3.7805082798 27.797000885
vertex -9.80211830139 3.77846479416 27.797000885
vertex -9.78223419189 3.7805082798 24.2259998322
endloop
endfacet
facet normal 0.102460443974 -0.99473708868 0.0
outer loop
vertex -9.80211830139 3.77846455574 24.2259998322
vertex -9.82200145721 3.77641654015 27.797000885
vertex -9.82200145721 3.77641654015 24.2259998322
endloop
endfacet
facet normal 0.102472245693 -0.994735836983 6.64137260742e-08
outer loop
vertex -9.80211830139 3.77846479416 27.797000885
vertex -9.82200145721 3.77641654015 27.797000885
vertex -9.80211830139 3.77846455574 24.2259998322
endloop
endfacet
facet normal 0.102679818869 -0.99471449852 3.89873662243e-08
outer loop
vertex -9.82200145721 3.77641654015 24.2259998322
vertex -9.84188461304 3.77436423302 27.797000885
vertex -9.84188556671 3.7743639946 24.2259998322
endloop
endfacet
facet normal 0.102672889829 -0.994715154171 0.0
outer loop
vertex -9.82200145721 3.77641654015 27.797000885
vertex -9.84188461304 3.77436423302 27.797000885
vertex -9.82200145721 3.77641654015 24.2259998322
endloop
endfacet
facet normal 0.994772136211 0.102119356394 0.0
outer loop
vertex -9.78223419189 3.7805082798 27.797000885
vertex -9.78223419189 3.7805082798 24.2259998322
vertex -9.78734016418 3.83024692535 27.797000885
endloop
endfacet
facet normal 0.994772136211 0.102119356394 0.0
outer loop
vertex -9.78223419189 3.7805082798 24.2259998322
vertex -9.78734016418 3.83024692535 24.2259998322
vertex -9.78734016418 3.83024692535 27.797000885
endloop
endfacet
facet normal 0.0 -0.0 -1.0
outer loop
vertex -9.82713031769 3.82615280151 24.2259998322
vertex -9.82200145721 3.77641654015 24.2259998322
vertex -9.84188556671 3.7743639946 24.2259998322
endloop
endfacet
facet normal 0.0 0.0 -1.0
outer loop
vertex -9.82713031769 3.82615280151 24.2259998322
vertex -9.84188556671 3.7743639946 24.2259998322
vertex -9.8470249176 3.82409906387 24.2259998322
endloop
endfacet
facet normal 0.0 -0.0 -1.0
outer loop
vertex -9.80723571777 3.8282020092 24.2259998322
vertex -9.80211830139 3.77846455574 24.2259998322
vertex -9.82200145721 3.77641654015 24.2259998322
endloop
endfacet
facet normal 0.0 0.0 -1.0
outer loop
vertex -9.80723571777 3.8282020092 24.2259998322
vertex -9.82200145721 3.77641654015 24.2259998322
vertex -9.82713031769 3.82615280151 24.2259998322
endloop
endfacet
facet normal 0.0 -0.0 -1.0
outer loop
vertex -9.78734016418 3.83024692535 24.2259998322
vertex -9.78223419189 3.7805082798 24.2259998322
vertex -9.80211830139 3.77846455574 24.2259998322
endloop
endfacet
facet normal 0.0 0.0 -1.0
outer loop
vertex -9.78734016418 3.83024692535 24.2259998322
vertex -9.80211830139 3.77846455574 24.2259998322
vertex -9.80723571777 3.8282020092 24.2259998322
endloop
endfacet
facet normal 0.0 0.0 1.0
outer loop
vertex -9.82200145721 3.77641654015 27.797000885
vertex -9.8470249176 3.82409930229 27.797000885
vertex -9.84188461304 3.77436423302 27.797000885
endloop
endfacet
facet normal 0.0 0.0 1.0
outer loop
vertex -9.80211830139 3.77846479416 27.797000885
vertex -9.82713031769 3.82615280151 27.797000885
vertex -9.82200145721 3.77641654015 27.797000885
endloop
endfacet
facet normal 0.0 0.0 1.0
outer loop
vertex -9.82200145721 3.77641654015 27.797000885
vertex -9.82713031769 3.82615280151 27.797000885
vertex -9.8470249176 3.82409930229 27.797000885
endloop
endfacet
facet normal 0.0 0.0 1.0
outer loop
vertex -9.78223419189 3.7805082798 27.797000885
vertex -9.80723571777 3.82820224762 27.797000885
vertex -9.80211830139 3.77846479416 27.797000885
endloop
endfacet
facet normal 0.0 0.0 1.0
outer loop
vertex -9.80211830139 3.77846479416 27.797000885
vertex -9.80723571777 3.82820224762 27.797000885
vertex -9.82713031769 3.82615280151 27.797000885
endloop
endfacet
facet normal 0.0 0.0 1.0
outer loop
vertex -9.78223419189 3.7805082798 27.797000885
vertex -9.78734016418 3.83024692535 27.797000885
vertex -9.80723571777 3.82820224762 27.797000885
endloop
endfacet
