solid 
facet normal -0.10223697871 0.994760155678 0.0
outer loop
vertex -9.78735637665 3.83024573326 103.628005981
vertex -9.78735637665 3.83024573326 100.056999207
vertex -9.80725097656 3.82820105553 100.056999207
endloop
endfacet
facet normal -0.10223697871 0.994760155678 0.0
outer loop
vertex -9.80725097656 3.82820105553 103.628005981
vertex -9.78735637665 3.83024573326 103.628005981
vertex -9.80725097656 3.82820105553 100.056999207
endloop
endfacet
facet normal -0.102468043566 0.99473631382 2.73651519223e-08
outer loop
vertex -9.82714557648 3.82615160942 103.628005981
vertex -9.80725097656 3.82820105553 100.056999207
vertex -9.82714653015 3.82615160942 100.056999207
endloop
endfacet
facet normal -0.10267829895 0.994714617729 2.74213007856e-08
outer loop
vertex -9.82714557648 3.82615160942 103.628005981
vertex -9.82714653015 3.82615160942 100.056999207
vertex -9.84704017639 3.8240981102 100.056999207
endloop
endfacet
facet normal -0.102472901344 0.994735777378 0.0
outer loop
vertex -9.82714557648 3.82615160942 103.628005981
vertex -9.80725097656 3.82820105553 103.628005981
vertex -9.80725097656 3.82820105553 100.056999207
endloop
endfacet
facet normal -0.10267342627 0.994715094566 0.0
outer loop
vertex -9.84704017639 3.8240981102 103.628005981
vertex -9.82714557648 3.82615160942 103.628005981
vertex -9.84704017639 3.8240981102 100.056999207
endloop
endfacet
facet normal -0.994703412056 -0.102787233889 -0.0
outer loop
vertex -9.84704017639 3.8240981102 103.628005981
vertex -9.84704017639 3.8240981102 100.056999207
vertex -9.8419008255 3.77436304092 103.628005981
endloop
endfacet
facet normal -0.994703412056 -0.102787233889 0.0
outer loop
vertex -9.84704017639 3.8240981102 100.056999207
vertex -9.8419008255 3.77436304092 100.056999207
vertex -9.8419008255 3.77436304092 103.628005981
endloop
endfacet
facet normal 0.10224314034 -0.994759440422 0.0
outer loop
vertex -9.78224945068 3.78050732613 100.056999207
vertex -9.80213356018 3.77846360207 103.628005981
vertex -9.80213356018 3.77846360207 100.056999207
endloop
endfacet
facet normal 0.10224314034 -0.994759440422 0.0
outer loop
vertex -9.78224945068 3.78050732613 103.628005981
vertex -9.80213356018 3.77846360207 103.628005981
vertex -9.78224945068 3.78050732613 100.056999207
endloop
endfacet
facet normal 0.102467395365 -0.994736433029 0.0
outer loop
vertex -9.80213356018 3.77846360207 100.056999207
vertex -9.82201766968 3.77641534805 103.628005981
vertex -9.82201766968 3.77641534805 100.056999207
endloop
endfacet
facet normal 0.102672889829 -0.994715213776 0.0
outer loop
vertex -9.82201766968 3.77641534805 100.056999207
vertex -9.82201766968 3.77641534805 103.628005981
vertex -9.8419008255 3.77436304092 100.056999207
endloop
endfacet
facet normal 0.102467395365 -0.994736433029 0.0
outer loop
vertex -9.80213356018 3.77846360207 103.628005981
vertex -9.82201766968 3.77641534805 103.628005981
vertex -9.80213356018 3.77846360207 100.056999207
endloop
endfacet
facet normal 0.102672889829 -0.994715213776 0.0
outer loop
vertex -9.82201766968 3.77641534805 103.628005981
vertex -9.8419008255 3.77436304092 103.628005981
vertex -9.8419008255 3.77436304092 100.056999207
endloop
endfacet
facet normal 0.994770169258 0.102138735354 0.0
outer loop
vertex -9.78224945068 3.78050732613 103.628005981
vertex -9.78224945068 3.78050732613 100.056999207
vertex -9.78735637665 3.83024573326 103.628005981
endloop
endfacet
facet normal 0.994770169258 0.102138735354 0.0
outer loop
vertex -9.78224945068 3.78050732613 100.056999207
vertex -9.78735637665 3.83024573326 100.056999207
vertex -9.78735637665 3.83024573326 103.628005981
endloop
endfacet
facet normal 0.0 0.0 -1.0
outer loop
vertex -9.84704017639 3.8240981102 100.056999207
vertex -9.82201766968 3.77641534805 100.056999207
vertex -9.8419008255 3.77436304092 100.056999207
endloop
endfacet
facet normal 0.0 -0.0 -1.0
outer loop
vertex -9.82714653015 3.82615160942 100.056999207
vertex -9.82201766968 3.77641534805 100.056999207
vertex -9.84704017639 3.8240981102 100.056999207
endloop
endfacet
facet normal 0.0 -0.0 -1.0
outer loop
vertex -9.80725097656 3.82820105553 100.056999207
vertex -9.80213356018 3.77846360207 100.056999207
vertex -9.82201766968 3.77641534805 100.056999207
endloop
endfacet
facet normal 0.0 0.0 -1.0
outer loop
vertex -9.80725097656 3.82820105553 100.056999207
vertex -9.82201766968 3.77641534805 100.056999207
vertex -9.82714653015 3.82615160942 100.056999207
endloop
endfacet
facet normal 0.0 -0.0 -1.0
outer loop
vertex -9.78735637665 3.83024573326 100.056999207
vertex -9.78224945068 3.78050732613 100.056999207
vertex -9.80213356018 3.77846360207 100.056999207
endloop
endfacet
facet normal 0.0 0.0 -1.0
outer loop
vertex -9.78735637665 3.83024573326 100.056999207
vertex -9.80213356018 3.77846360207 100.056999207
vertex -9.80725097656 3.82820105553 100.056999207
endloop
endfacet
facet normal 0.0 0.0 1.0
outer loop
vertex -9.82201766968 3.77641534805 103.628005981
vertex -9.84704017639 3.8240981102 103.628005981
vertex -9.8419008255 3.77436304092 103.628005981
endloop
endfacet
facet normal 0.0 0.0 1.0
outer loop
vertex -9.82201766968 3.77641534805 103.628005981
vertex -9.82714557648 3.82615160942 103.628005981
vertex -9.84704017639 3.8240981102 103.628005981
endloop
endfacet
facet normal 0.0 0.0 1.0
outer loop
vertex -9.80213356018 3.77846360207 103.628005981
vertex -9.80725097656 3.82820105553 103.628005981
vertex -9.82201766968 3.77641534805 103.628005981
endloop
endfacet
facet normal 0.0 -0.0 1.0
outer loop
vertex -9.82201766968 3.77641534805 103.628005981
vertex -9.80725097656 3.82820105553 103.628005981
vertex -9.82714557648 3.82615160942 103.628005981
endloop
endfacet
facet normal 0.0 0.0 1.0
outer loop
vertex -9.78224945068 3.78050732613 103.628005981
vertex -9.78735637665 3.83024573326 103.628005981
vertex -9.80213356018 3.77846360207 103.628005981
endloop
endfacet
facet normal 0.0 -0.0 1.0
outer loop
vertex -9.80213356018 3.77846360207 103.628005981
vertex -9.78735637665 3.83024573326 103.628005981
vertex -9.80725097656 3.82820105553 103.628005981
endloop
endfacet
