solid 
facet normal -0.120770685375 0.992680430412 0.0
outer loop
vertex -13.083656311 3.43032741547 56.7250022888
vertex -9.84703350067 3.82409882545 56.7250022888
vertex -9.84703350067 3.82409882545 56.6650009155
endloop
endfacet
facet normal -0.120770685375 0.992680430412 0.0
outer loop
vertex -13.083656311 3.43032741547 56.7250022888
vertex -9.84703350067 3.82409882545 56.6650009155
vertex -13.083656311 3.43032741547 56.6650009155
endloop
endfacet
facet normal -0.156602352858 0.987661719322 0.0
outer loop
vertex -16.3039169312 2.91972708702 56.7250022888
vertex -13.083656311 3.43032741547 56.6650009155
vertex -16.3039169312 2.91972708702 56.6650009155
endloop
endfacet
facet normal -0.156602352858 0.987661719322 0.0
outer loop
vertex -16.3039169312 2.91972708702 56.7250022888
vertex -13.083656311 3.43032741547 56.7250022888
vertex -13.083656311 3.43032741547 56.6650009155
endloop
endfacet
facet normal -0.192229032516 0.981350123882 0.0
outer loop
vertex -19.5035972595 2.29296660423 56.7250022888
vertex -16.3039169312 2.91972708702 56.6650009155
vertex -19.5035972595 2.29296660423 56.6650009155
endloop
endfacet
facet normal -0.192229032516 0.981350123882 0.0
outer loop
vertex -19.5035972595 2.29296660423 56.7250022888
vertex -16.3039169312 2.91972708702 56.7250022888
vertex -16.3039169312 2.91972708702 56.6650009155
endloop
endfacet
facet normal -0.977717876434 -0.209923103452 0.0
outer loop
vertex -19.5035972595 2.29296660423 56.7250022888
vertex -19.49310112 2.24408078194 56.6650009155
vertex -19.49310112 2.24408078194 56.7250022888
endloop
endfacet
facet normal -0.977717876434 -0.209923103452 0.0
outer loop
vertex -19.5035972595 2.29296660423 56.6650009155
vertex -19.49310112 2.24408078194 56.6650009155
vertex -19.5035972595 2.29296660423 56.7250022888
endloop
endfacet
facet normal 0.120770715177 -0.992680370808 0.0
outer loop
vertex -9.84189414978 3.77436375618 56.6650009155
vertex -13.0767211914 3.38081073761 56.7250022888
vertex -13.0767211914 3.38081073761 56.6650009155
endloop
endfacet
facet normal 0.120770715177 -0.992680370808 0.0
outer loop
vertex -9.84189414978 3.77436375618 56.7250022888
vertex -13.0767211914 3.38081073761 56.7250022888
vertex -9.84189414978 3.77436375618 56.6650009155
endloop
endfacet
facet normal 0.156602397561 -0.987661778927 0.0
outer loop
vertex -13.0767211914 3.38081073761 56.6650009155
vertex -16.2951946259 2.87049365044 56.7250022888
vertex -16.2951946259 2.87049365044 56.6650009155
endloop
endfacet
facet normal 0.192228987813 -0.981350123882 0.0
outer loop
vertex -16.2951946259 2.87049365044 56.6650009155
vertex -16.2951946259 2.87049365044 56.7250022888
vertex -19.49310112 2.24408078194 56.6650009155
endloop
endfacet
facet normal 0.156602397561 -0.987661778927 0.0
outer loop
vertex -13.0767211914 3.38081073761 56.7250022888
vertex -16.2951946259 2.87049365044 56.7250022888
vertex -13.0767211914 3.38081073761 56.6650009155
endloop
endfacet
facet normal 0.192228987813 -0.981350123882 0.0
outer loop
vertex -16.2951946259 2.87049365044 56.7250022888
vertex -19.49310112 2.24408078194 56.7250022888
vertex -19.49310112 2.24408078194 56.6650009155
endloop
endfacet
facet normal 0.994703292847 0.102787218988 0.0
outer loop
vertex -9.84189414978 3.77436375618 56.7250022888
vertex -9.84189414978 3.77436375618 56.6650009155
vertex -9.84703350067 3.82409882545 56.7250022888
endloop
endfacet
facet normal 0.994703292847 0.102787218988 0.0
outer loop
vertex -9.84189414978 3.77436375618 56.6650009155
vertex -9.84703350067 3.82409882545 56.6650009155
vertex -9.84703350067 3.82409882545 56.7250022888
endloop
endfacet
facet normal 0.0 -0.0 -1.0
outer loop
vertex -16.3039169312 2.91972708702 56.6650009155
vertex -16.2951946259 2.87049365044 56.6650009155
vertex -19.49310112 2.24408078194 56.6650009155
endloop
endfacet
facet normal 0.0 0.0 -1.0
outer loop
vertex -16.3039169312 2.91972708702 56.6650009155
vertex -19.49310112 2.24408078194 56.6650009155
vertex -19.5035972595 2.29296660423 56.6650009155
endloop
endfacet
facet normal 0.0 -0.0 -1.0
outer loop
vertex -13.083656311 3.43032741547 56.6650009155
vertex -13.0767211914 3.38081073761 56.6650009155
vertex -16.2951946259 2.87049365044 56.6650009155
endloop
endfacet
facet normal 0.0 0.0 -1.0
outer loop
vertex -13.083656311 3.43032741547 56.6650009155
vertex -16.2951946259 2.87049365044 56.6650009155
vertex -16.3039169312 2.91972708702 56.6650009155
endloop
endfacet
facet normal 0.0 -0.0 -1.0
outer loop
vertex -9.84703350067 3.82409882545 56.6650009155
vertex -9.84189414978 3.77436375618 56.6650009155
vertex -13.0767211914 3.38081073761 56.6650009155
endloop
endfacet
facet normal 0.0 0.0 -1.0
outer loop
vertex -9.84703350067 3.82409882545 56.6650009155
vertex -13.0767211914 3.38081073761 56.6650009155
vertex -13.083656311 3.43032741547 56.6650009155
endloop
endfacet
facet normal 0.0 0.0 1.0
outer loop
vertex -16.2951946259 2.87049365044 56.7250022888
vertex -16.3039169312 2.91972708702 56.7250022888
vertex -19.49310112 2.24408078194 56.7250022888
endloop
endfacet
facet normal 0.0 -0.0 1.0
outer loop
vertex -19.49310112 2.24408078194 56.7250022888
vertex -16.3039169312 2.91972708702 56.7250022888
vertex -19.5035972595 2.29296660423 56.7250022888
endloop
endfacet
facet normal 0.0 0.0 1.0
outer loop
vertex -13.0767211914 3.38081073761 56.7250022888
vertex -13.083656311 3.43032741547 56.7250022888
vertex -16.2951946259 2.87049365044 56.7250022888
endloop
endfacet
facet normal 0.0 -0.0 1.0
outer loop
vertex -16.2951946259 2.87049365044 56.7250022888
vertex -13.083656311 3.43032741547 56.7250022888
vertex -16.3039169312 2.91972708702 56.7250022888
endloop
endfacet
facet normal 0.0 0.0 1.0
outer loop
vertex -9.84189414978 3.77436375618 56.7250022888
vertex -9.84703350067 3.82409882545 56.7250022888
vertex -13.0767211914 3.38081073761 56.7250022888
endloop
endfacet
facet normal 0.0 -0.0 1.0
outer loop
vertex -13.0767211914 3.38081073761 56.7250022888
vertex -9.84703350067 3.82409882545 56.7250022888
vertex -13.083656311 3.43032741547 56.7250022888
endloop
endfacet
