solid 
facet normal 0.207010924816 0.978338599205 -0.0
outer loop
vertex 19.185710907 2.36062860489 -248.606994629
vertex 19.185710907 2.36062860489 -245.01600647
vertex 19.2916984558 2.33820223808 -245.01600647
endloop
endfacet
facet normal 0.208187028766 0.978089034557 -0.0
outer loop
vertex 19.2916984558 2.33820223808 -248.606994629
vertex 19.2916984558 2.33820223808 -245.01600647
vertex 19.3976573944 2.31564879417 -245.01600647
endloop
endfacet
facet normal 0.207010924816 0.978338599205 -0.0
outer loop
vertex 19.2916984558 2.33820223808 -248.606994629
vertex 19.185710907 2.36062860489 -248.606994629
vertex 19.2916984558 2.33820223808 -245.01600647
endloop
endfacet
facet normal 0.208187028766 0.978089034557 -0.0
outer loop
vertex 19.3976573944 2.31564879417 -248.606994629
vertex 19.2916984558 2.33820223808 -248.606994629
vertex 19.3976573944 2.31564879417 -245.01600647
endloop
endfacet
facet normal 0.209363460541 0.977837979794 -0.0
outer loop
vertex 19.5035896301 2.29296779633 -248.606994629
vertex 19.3976573944 2.31564879417 -245.01600647
vertex 19.5035896301 2.29296779633 -245.01600647
endloop
endfacet
facet normal 0.209363460541 0.977837979794 0.0
outer loop
vertex 19.5035896301 2.29296779633 -248.606994629
vertex 19.3976573944 2.31564879417 -248.606994629
vertex 19.3976573944 2.31564879417 -245.01600647
endloop
endfacet
facet normal 0.977709889412 -0.20996055007 0.0
outer loop
vertex 19.5035896301 2.29296779633 -248.606994629
vertex 19.5035896301 2.29296779633 -245.01600647
vertex 19.4930915833 2.24408221245 -245.01600647
endloop
endfacet
facet normal 0.977709889412 -0.20996055007 0.0
outer loop
vertex 19.4930915833 2.24408221245 -248.606994629
vertex 19.5035896301 2.29296779633 -248.606994629
vertex 19.4930915833 2.24408221245 -245.01600647
endloop
endfacet
facet normal -0.207013368607 -0.978338062763 0.0
outer loop
vertex 19.1753902435 2.31170535088 -245.01600647
vertex 19.2813167572 2.28929162025 -248.606994629
vertex 19.2813167572 2.28929162025 -245.01600647
endloop
endfacet
facet normal -0.208185091615 -0.97808945179 -0.0
outer loop
vertex 19.2813167572 2.28929162025 -245.01600647
vertex 19.2813167572 2.28929162025 -248.606994629
vertex 19.3872184753 2.26675057411 -245.01600647
endloop
endfacet
facet normal -0.207013368607 -0.978338062763 0.0
outer loop
vertex 19.1753902435 2.31170535088 -248.606994629
vertex 19.2813167572 2.28929162025 -248.606994629
vertex 19.1753902435 2.31170535088 -245.01600647
endloop
endfacet
facet normal -0.208185091615 -0.97808945179 0.0
outer loop
vertex 19.2813167572 2.28929162025 -248.606994629
vertex 19.3872184753 2.26675057411 -248.606994629
vertex 19.3872184753 2.26675057411 -245.01600647
endloop
endfacet
facet normal -0.209363639355 -0.97783780098 0.0
outer loop
vertex 19.3872184753 2.26675057411 -245.01600647
vertex 19.4930915833 2.24408221245 -248.606994629
vertex 19.4930915833 2.24408221245 -245.01600647
endloop
endfacet
facet normal -0.209363639355 -0.97783780098 0.0
outer loop
vertex 19.3872184753 2.26675057411 -248.606994629
vertex 19.4930915833 2.24408221245 -248.606994629
vertex 19.3872184753 2.26675057411 -245.01600647
endloop
endfacet
facet normal -0.978464901447 0.206413239241 0.0
outer loop
vertex 19.185710907 2.36062860489 -248.606994629
vertex 19.1753902435 2.31170535088 -248.606994629
vertex 19.1753902435 2.31170535088 -245.01600647
endloop
endfacet
facet normal -0.978464901447 0.206413239241 0.0
outer loop
vertex 19.185710907 2.36062860489 -248.606994629
vertex 19.1753902435 2.31170535088 -245.01600647
vertex 19.185710907 2.36062860489 -245.01600647
endloop
endfacet
facet normal 0.0 0.0 -1.0
outer loop
vertex 19.4930915833 2.24408221245 -248.606994629
vertex 19.3872184753 2.26675057411 -248.606994629
vertex 19.5035896301 2.29296779633 -248.606994629
endloop
endfacet
facet normal 0.0 0.0 -1.0
outer loop
vertex 19.3872184753 2.26675057411 -248.606994629
vertex 19.3976573944 2.31564879417 -248.606994629
vertex 19.5035896301 2.29296779633 -248.606994629
endloop
endfacet
facet normal 0.0 0.0 -1.0
outer loop
vertex 19.3872184753 2.26675057411 -248.606994629
vertex 19.2813167572 2.28929162025 -248.606994629
vertex 19.3976573944 2.31564879417 -248.606994629
endloop
endfacet
facet normal 0.0 0.0 -1.0
outer loop
vertex 19.2813167572 2.28929162025 -248.606994629
vertex 19.2916984558 2.33820223808 -248.606994629
vertex 19.3976573944 2.31564879417 -248.606994629
endloop
endfacet
facet normal 0.0 0.0 -1.0
outer loop
vertex 19.2813167572 2.28929162025 -248.606994629
vertex 19.1753902435 2.31170535088 -248.606994629
vertex 19.2916984558 2.33820223808 -248.606994629
endloop
endfacet
facet normal 0.0 0.0 -1.0
outer loop
vertex 19.1753902435 2.31170535088 -248.606994629
vertex 19.185710907 2.36062860489 -248.606994629
vertex 19.2916984558 2.33820223808 -248.606994629
endloop
endfacet
facet normal -0.0 0.0 1.0
outer loop
vertex 19.3872184753 2.26675057411 -245.01600647
vertex 19.4930915833 2.24408221245 -245.01600647
vertex 19.5035896301 2.29296779633 -245.01600647
endloop
endfacet
facet normal 0.0 0.0 1.0
outer loop
vertex 19.3976573944 2.31564879417 -245.01600647
vertex 19.3872184753 2.26675057411 -245.01600647
vertex 19.5035896301 2.29296779633 -245.01600647
endloop
endfacet
facet normal -0.0 0.0 1.0
outer loop
vertex 19.2813167572 2.28929162025 -245.01600647
vertex 19.3872184753 2.26675057411 -245.01600647
vertex 19.3976573944 2.31564879417 -245.01600647
endloop
endfacet
facet normal 0.0 0.0 1.0
outer loop
vertex 19.2916984558 2.33820223808 -245.01600647
vertex 19.2813167572 2.28929162025 -245.01600647
vertex 19.3976573944 2.31564879417 -245.01600647
endloop
endfacet
facet normal 0.0 0.0 1.0
outer loop
vertex 19.185710907 2.36062860489 -245.01600647
vertex 19.1753902435 2.31170535088 -245.01600647
vertex 19.2813167572 2.28929162025 -245.01600647
endloop
endfacet
facet normal 0.0 0.0 1.0
outer loop
vertex 19.185710907 2.36062860489 -245.01600647
vertex 19.2813167572 2.28929162025 -245.01600647
vertex 19.2916984558 2.33820223808 -245.01600647
endloop
endfacet
