solid 
facet normal -0.00497377850115 -0.999987602234 2.80545933706e-11
outer loop
vertex 0.189755022526 -4.30059432983 -56.7250022888
vertex 0.0814230367541 -4.30005550385 -56.7250022888
vertex 0.0814230144024 -4.30005550385 -60.3160018921
endloop
endfacet
facet normal -0.00497377850115 -0.999987661839 2.06391206209e-11
outer loop
vertex 0.189755022526 -4.30059432983 -56.7250022888
vertex 0.0814230144024 -4.30005550385 -60.3160018921
vertex 0.189755007625 -4.30059432983 -60.3160018921
endloop
endfacet
facet normal -0.00377214886248 -0.999992847443 -1.32785800133e-07
outer loop
vertex 0.298087567091 -4.30100345612 -56.7250022888
vertex 0.189755007625 -4.30059432983 -60.3160018921
vertex 0.298087567091 -4.30100297928 -60.3160018921
endloop
endfacet
facet normal -0.00377655099146 -0.999992847443 9.35153256915e-12
outer loop
vertex 0.298087567091 -4.30100345612 -56.7250022888
vertex 0.189755022526 -4.30059432983 -56.7250022888
vertex 0.189755007625 -4.30059432983 -60.3160018921
endloop
endfacet
facet normal -0.00257051968947 -0.999996721745 2.13331834836e-11
outer loop
vertex 0.406420558691 -4.30128145218 -56.7250022888
vertex 0.298087567091 -4.30100297928 -60.3160018921
vertex 0.406420528889 -4.30128145218 -60.3160018921
endloop
endfacet
facet normal -0.00256611709483 -0.999996721745 -1.32787050688e-07
outer loop
vertex 0.406420558691 -4.30128145218 -56.7250022888
vertex 0.298087567091 -4.30100345612 -56.7250022888
vertex 0.298087567091 -4.30100297928 -60.3160018921
endloop
endfacet
facet normal 0.999998092651 -0.00196874886751 -8.2997102524e-09
outer loop
vertex 0.406518995762 -4.25128173828 -56.7250022888
vertex 0.406420558691 -4.30128145218 -56.7250022888
vertex 0.406420528889 -4.30128145218 -60.3160018921
endloop
endfacet
facet normal 0.999998092651 -0.00196874910034 -8.29915602907e-09
outer loop
vertex 0.406518995762 -4.25128173828 -56.7250022888
vertex 0.406420528889 -4.30128145218 -60.3160018921
vertex 0.40651896596 -4.25128173828 -60.3160018921
endloop
endfacet
facet normal 0.00497654033825 0.999987661839 -2.06505819389e-11
outer loop
vertex 0.0817017927766 -4.25005626678 -60.3160018921
vertex 0.0817018076777 -4.25005626678 -56.7250022888
vertex 0.189973667264 -4.25059509277 -60.3160018921
endloop
endfacet
facet normal 0.00497654033825 0.999987661839 -2.80701711874e-11
outer loop
vertex 0.0817018076777 -4.25005626678 -56.7250022888
vertex 0.189973682165 -4.25059509277 -56.7250022888
vertex 0.189973667264 -4.25059509277 -60.3160018921
endloop
endfacet
facet normal 0.00376983941533 0.999992966652 -3.74268949166e-11
outer loop
vertex 0.189973667264 -4.25059509277 -60.3160018921
vertex 0.298246145248 -4.25100326538 -56.7250022888
vertex 0.298246115446 -4.25100326538 -60.3160018921
endloop
endfacet
facet normal 0.003769838484 0.999992847443 -1.5643267931e-11
outer loop
vertex 0.189973682165 -4.25059509277 -56.7250022888
vertex 0.298246145248 -4.25100326538 -56.7250022888
vertex 0.189973667264 -4.25059509277 -60.3160018921
endloop
endfacet
facet normal 0.00257194647565 0.999996721745 -1.87134474583e-11
outer loop
vertex 0.298246115446 -4.25100326538 -60.3160018921
vertex 0.406518995762 -4.25128173828 -56.7250022888
vertex 0.40651896596 -4.25128173828 -60.3160018921
endloop
endfacet
facet normal 0.00257194647565 0.999996721745 -2.13450247061e-11
outer loop
vertex 0.298246145248 -4.25100326538 -56.7250022888
vertex 0.406518995762 -4.25128173828 -56.7250022888
vertex 0.298246115446 -4.25100326538 -60.3160018921
endloop
endfacet
facet normal -0.999984502792 0.00557556562126 4.1495216152e-09
outer loop
vertex 0.0817018076777 -4.25005626678 -56.7250022888
vertex 0.0817017927766 -4.25005626678 -60.3160018921
vertex 0.0814230144024 -4.30005550385 -60.3160018921
endloop
endfacet
facet normal -0.999984502792 0.00557541707531 6.22428242281e-09
outer loop
vertex 0.0814230367541 -4.30005550385 -56.7250022888
vertex 0.0817018076777 -4.25005626678 -56.7250022888
vertex 0.0814230144024 -4.30005550385 -60.3160018921
endloop
endfacet
facet normal 0.0 0.0 1.0
outer loop
vertex 0.406518995762 -4.25128173828 -56.7250022888
vertex 0.298246145248 -4.25100326538 -56.7250022888
vertex 0.406420558691 -4.30128145218 -56.7250022888
endloop
endfacet
facet normal 0.0 0.0 1.0
outer loop
vertex 0.298246145248 -4.25100326538 -56.7250022888
vertex 0.298087567091 -4.30100345612 -56.7250022888
vertex 0.406420558691 -4.30128145218 -56.7250022888
endloop
endfacet
facet normal 0.0 0.0 1.0
outer loop
vertex 0.189973682165 -4.25059509277 -56.7250022888
vertex 0.189755022526 -4.30059432983 -56.7250022888
vertex 0.298246145248 -4.25100326538 -56.7250022888
endloop
endfacet
facet normal 0.0 0.0 1.0
outer loop
vertex 0.298246145248 -4.25100326538 -56.7250022888
vertex 0.189755022526 -4.30059432983 -56.7250022888
vertex 0.298087567091 -4.30100345612 -56.7250022888
endloop
endfacet
facet normal 0.0 0.0 1.0
outer loop
vertex 0.0817018076777 -4.25005626678 -56.7250022888
vertex 0.0814230367541 -4.30005550385 -56.7250022888
vertex 0.189973682165 -4.25059509277 -56.7250022888
endloop
endfacet
facet normal 0.0 0.0 1.0
outer loop
vertex 0.189973682165 -4.25059509277 -56.7250022888
vertex 0.0814230367541 -4.30005550385 -56.7250022888
vertex 0.189755022526 -4.30059432983 -56.7250022888
endloop
endfacet
facet normal 0.0 0.0 -1.0
outer loop
vertex 0.298246115446 -4.25100326538 -60.3160018921
vertex 0.40651896596 -4.25128173828 -60.3160018921
vertex 0.406420528889 -4.30128145218 -60.3160018921
endloop
endfacet
facet normal 0.0 0.0 -1.0
outer loop
vertex 0.298087567091 -4.30100297928 -60.3160018921
vertex 0.298246115446 -4.25100326538 -60.3160018921
vertex 0.406420528889 -4.30128145218 -60.3160018921
endloop
endfacet
facet normal 0.0 0.0 -1.0
outer loop
vertex 0.189755007625 -4.30059432983 -60.3160018921
vertex 0.189973667264 -4.25059509277 -60.3160018921
vertex 0.298246115446 -4.25100326538 -60.3160018921
endloop
endfacet
facet normal 0.0 0.0 -1.0
outer loop
vertex 0.189755007625 -4.30059432983 -60.3160018921
vertex 0.298246115446 -4.25100326538 -60.3160018921
vertex 0.298087567091 -4.30100297928 -60.3160018921
endloop
endfacet
facet normal 0.0 0.0 -1.0
outer loop
vertex 0.0814230144024 -4.30005550385 -60.3160018921
vertex 0.0817017927766 -4.25005626678 -60.3160018921
vertex 0.189973667264 -4.25059509277 -60.3160018921
endloop
endfacet
facet normal 0.0 0.0 -1.0
outer loop
vertex 0.0814230144024 -4.30005550385 -60.3160018921
vertex 0.189973667264 -4.25059509277 -60.3160018921
vertex 0.189755007625 -4.30059432983 -60.3160018921
endloop
endfacet
