solid 
facet normal -0.20701238513 0.978338301182 0.0
outer loop
vertex -19.1857147217 2.36062812805 -227.000991821
vertex -19.1857147217 2.36062812805 -230.591995239
vertex -19.2917003632 2.33820199966 -230.591995239
endloop
endfacet
facet normal -0.208185553551 0.978089392185 6.49385825113e-08
outer loop
vertex -19.2917003632 2.33820176125 -227.000991821
vertex -19.2917003632 2.33820199966 -230.591995239
vertex -19.3976612091 2.31564831734 -230.591995239
endloop
endfacet
facet normal -0.207014501095 0.978337824345 6.49550813137e-08
outer loop
vertex -19.2917003632 2.33820176125 -227.000991821
vertex -19.1857147217 2.36062812805 -227.000991821
vertex -19.2917003632 2.33820199966 -230.591995239
endloop
endfacet
facet normal -0.208183437586 0.978089809418 0.0
outer loop
vertex -19.3976612091 2.31564831734 -227.000991821
vertex -19.2917003632 2.33820176125 -227.000991821
vertex -19.3976612091 2.31564831734 -230.591995239
endloop
endfacet
facet normal -0.209363460541 0.977837920189 0.0
outer loop
vertex -19.5035934448 2.29296731949 -227.000991821
vertex -19.3976612091 2.31564831734 -230.591995239
vertex -19.5035934448 2.29296731949 -230.591995239
endloop
endfacet
facet normal -0.209363460541 0.977837920189 0.0
outer loop
vertex -19.5035934448 2.29296731949 -227.000991821
vertex -19.3976612091 2.31564831734 -227.000991821
vertex -19.3976612091 2.31564831734 -230.591995239
endloop
endfacet
facet normal -0.977709889412 -0.20996055007 0.0
outer loop
vertex -19.5035934448 2.29296731949 -227.000991821
vertex -19.4930953979 2.24408173561 -230.591995239
vertex -19.4930953979 2.24408173561 -227.000991821
endloop
endfacet
facet normal -0.977709889412 -0.20996055007 0.0
outer loop
vertex -19.5035934448 2.29296731949 -230.591995239
vertex -19.4930953979 2.24408173561 -230.591995239
vertex -19.5035934448 2.29296731949 -227.000991821
endloop
endfacet
facet normal 0.207015499473 -0.978337705135 0.0
outer loop
vertex -19.1753940582 2.31170511246 -230.591995239
vertex -19.2813205719 2.28929114342 -227.000991821
vertex -19.2813205719 2.28929114342 -230.591995239
endloop
endfacet
facet normal 0.207013398409 -0.978338181973 -6.49551026299e-08
outer loop
vertex -19.1753940582 2.31170487404 -227.000991821
vertex -19.2813205719 2.28929114342 -227.000991821
vertex -19.1753940582 2.31170511246 -230.591995239
endloop
endfacet
facet normal 0.208185091615 -0.978089511395 0.0
outer loop
vertex -19.2813205719 2.28929114342 -230.591995239
vertex -19.38722229 2.26675009727 -227.000991821
vertex -19.38722229 2.26675009727 -230.591995239
endloop
endfacet
facet normal 0.208185091615 -0.978089511395 0.0
outer loop
vertex -19.2813205719 2.28929114342 -227.000991821
vertex -19.38722229 2.26675009727 -227.000991821
vertex -19.2813205719 2.28929114342 -230.591995239
endloop
endfacet
facet normal 0.209363669157 -0.977837860584 0.0
outer loop
vertex -19.38722229 2.26675009727 -230.591995239
vertex -19.4930953979 2.24408173561 -227.000991821
vertex -19.4930953979 2.24408173561 -230.591995239
endloop
endfacet
facet normal 0.209363669157 -0.977837860584 0.0
outer loop
vertex -19.38722229 2.26675009727 -227.000991821
vertex -19.4930953979 2.24408173561 -227.000991821
vertex -19.38722229 2.26675009727 -230.591995239
endloop
endfacet
facet normal 0.978464901447 0.206413239241 1.37044562365e-08
outer loop
vertex -19.1753940582 2.31170487404 -227.000991821
vertex -19.1753940582 2.31170511246 -230.591995239
vertex -19.1857147217 2.36062812805 -227.000991821
endloop
endfacet
facet normal 0.978464722633 0.206414192915 0.0
outer loop
vertex -19.1753940582 2.31170511246 -230.591995239
vertex -19.1857147217 2.36062812805 -230.591995239
vertex -19.1857147217 2.36062812805 -227.000991821
endloop
endfacet
facet normal -0.0 0.0 -1.0
outer loop
vertex -19.38722229 2.26675009727 -230.591995239
vertex -19.4930953979 2.24408173561 -230.591995239
vertex -19.5035934448 2.29296731949 -230.591995239
endloop
endfacet
facet normal 0.0 -0.0 -1.0
outer loop
vertex -19.3976612091 2.31564831734 -230.591995239
vertex -19.38722229 2.26675009727 -230.591995239
vertex -19.5035934448 2.29296731949 -230.591995239
endloop
endfacet
facet normal -0.0 0.0 -1.0
outer loop
vertex -19.2813205719 2.28929114342 -230.591995239
vertex -19.38722229 2.26675009727 -230.591995239
vertex -19.3976612091 2.31564831734 -230.591995239
endloop
endfacet
facet normal 0.0 -0.0 -1.0
outer loop
vertex -19.2917003632 2.33820199966 -230.591995239
vertex -19.2813205719 2.28929114342 -230.591995239
vertex -19.3976612091 2.31564831734 -230.591995239
endloop
endfacet
facet normal -0.0 0.0 -1.0
outer loop
vertex -19.1753940582 2.31170511246 -230.591995239
vertex -19.2813205719 2.28929114342 -230.591995239
vertex -19.2917003632 2.33820199966 -230.591995239
endloop
endfacet
facet normal 0.0 -0.0 -1.0
outer loop
vertex -19.1857147217 2.36062812805 -230.591995239
vertex -19.1753940582 2.31170511246 -230.591995239
vertex -19.2917003632 2.33820199966 -230.591995239
endloop
endfacet
facet normal 0.0 -0.0 1.0
outer loop
vertex -19.4930953979 2.24408173561 -227.000991821
vertex -19.38722229 2.26675009727 -227.000991821
vertex -19.5035934448 2.29296731949 -227.000991821
endloop
endfacet
facet normal 0.0 0.0 1.0
outer loop
vertex -19.38722229 2.26675009727 -227.000991821
vertex -19.3976612091 2.31564831734 -227.000991821
vertex -19.5035934448 2.29296731949 -227.000991821
endloop
endfacet
facet normal 0.0 0.0 1.0
outer loop
vertex -19.2813205719 2.28929114342 -227.000991821
vertex -19.2917003632 2.33820176125 -227.000991821
vertex -19.38722229 2.26675009727 -227.000991821
endloop
endfacet
facet normal 0.0 -0.0 1.0
outer loop
vertex -19.38722229 2.26675009727 -227.000991821
vertex -19.2917003632 2.33820176125 -227.000991821
vertex -19.3976612091 2.31564831734 -227.000991821
endloop
endfacet
facet normal 0.0 0.0 1.0
outer loop
vertex -19.1753940582 2.31170487404 -227.000991821
vertex -19.1857147217 2.36062812805 -227.000991821
vertex -19.2813205719 2.28929114342 -227.000991821
endloop
endfacet
facet normal 0.0 -0.0 1.0
outer loop
vertex -19.2813205719 2.28929114342 -227.000991821
vertex -19.1857147217 2.36062812805 -227.000991821
vertex -19.2917003632 2.33820176125 -227.000991821
endloop
endfacet
