solid 
facet normal -0.00497377943248 0.999987661839 -9.35153256915e-12
outer loop
vertex 0.189750105143 4.30059432983 35.0590019226
vertex 0.0814181268215 4.30005550385 35.0590019226
vertex 0.0814181193709 4.30005550385 38.6500015259
endloop
endfacet
facet normal -0.00497377850115 0.999987602234 0.0
outer loop
vertex 0.189750105143 4.30059432983 35.0590019226
vertex 0.0814181193709 4.30005550385 38.6500015259
vertex 0.189750105143 4.30059432983 38.6500015259
endloop
endfacet
facet normal -0.00377214932814 0.999992847443 -3.13057149648e-11
outer loop
vertex 0.29808267951 4.30100297928 35.0590019226
vertex 0.189750105143 4.30059432983 38.6500015259
vertex 0.298082649708 4.30100297928 38.6500015259
endloop
endfacet
facet normal -0.00377214816399 0.999992847443 0.0
outer loop
vertex 0.29808267951 4.30100297928 35.0590019226
vertex 0.189750105143 4.30059432983 35.0590019226
vertex 0.189750105143 4.30059432983 38.6500015259
endloop
endfacet
facet normal -0.00257051875815 0.999996721745 0.0
outer loop
vertex 0.406415641308 4.30128145218 35.0590019226
vertex 0.298082649708 4.30100297928 38.6500015259
vertex 0.406415641308 4.30128145218 38.6500015259
endloop
endfacet
facet normal -0.00257051945664 0.999996721745 -2.33788283871e-11
outer loop
vertex 0.406415641308 4.30128145218 35.0590019226
vertex 0.29808267951 4.30100297928 35.0590019226
vertex 0.298082649708 4.30100297928 38.6500015259
endloop
endfacet
facet normal 0.999998092651 0.00196873000823 0.0
outer loop
vertex 0.406514078379 4.25128126144 35.0590019226
vertex 0.406415641308 4.30128145218 35.0590019226
vertex 0.406415641308 4.30128145218 38.6500015259
endloop
endfacet
facet normal 0.999998092651 0.00196873000823 -0.0
outer loop
vertex 0.406514078379 4.25128126144 35.0590019226
vertex 0.406415641308 4.30128145218 38.6500015259
vertex 0.406514078379 4.25128126144 38.6500015259
endloop
endfacet
facet normal 0.00497213564813 -0.999987661839 2.06323031576e-11
outer loop
vertex 0.0816968902946 4.25005626678 38.6500015259
vertex 0.0816969051957 4.25005626678 35.0590019226
vertex 0.189968779683 4.25059461594 38.6500015259
endloop
endfacet
facet normal 0.00497213611379 -0.999987661839 0.0
outer loop
vertex 0.0816969051957 4.25005626678 35.0590019226
vertex 0.189968779683 4.25059461594 35.0590019226
vertex 0.189968779683 4.25059461594 38.6500015259
endloop
endfacet
facet normal 0.00377424294129 -0.999992847443 0.0
outer loop
vertex 0.189968779683 4.25059461594 38.6500015259
vertex 0.298241227865 4.25100326538 35.0590019226
vertex 0.298241227865 4.25100326538 38.6500015259
endloop
endfacet
facet normal 0.00377424294129 -0.999992847443 0.0
outer loop
vertex 0.189968779683 4.25059461594 35.0590019226
vertex 0.298241227865 4.25100326538 35.0590019226
vertex 0.189968779683 4.25059461594 38.6500015259
endloop
endfacet
facet normal 0.00256754248403 -0.999996721745 0.0
outer loop
vertex 0.298241227865 4.25100326538 38.6500015259
vertex 0.406514078379 4.25128126144 35.0590019226
vertex 0.406514078379 4.25128126144 38.6500015259
endloop
endfacet
facet normal 0.00256754248403 -0.999996721745 0.0
outer loop
vertex 0.298241227865 4.25100326538 35.0590019226
vertex 0.406514078379 4.25128126144 35.0590019226
vertex 0.298241227865 4.25100326538 38.6500015259
endloop
endfacet
facet normal -0.999984502792 -0.00557541660964 -4.1495216152e-09
outer loop
vertex 0.0816969051957 4.25005626678 35.0590019226
vertex 0.0816968902946 4.25005626678 38.6500015259
vertex 0.0814181193709 4.30005550385 38.6500015259
endloop
endfacet
facet normal -0.999984502792 -0.00557556655258 -2.0747608076e-09
outer loop
vertex 0.0814181268215 4.30005550385 35.0590019226
vertex 0.0816969051957 4.25005626678 35.0590019226
vertex 0.0814181193709 4.30005550385 38.6500015259
endloop
endfacet
facet normal -0.0 0.0 -1.0
outer loop
vertex 0.406514078379 4.25128126144 35.0590019226
vertex 0.298241227865 4.25100326538 35.0590019226
vertex 0.406415641308 4.30128145218 35.0590019226
endloop
endfacet
facet normal 0.0 0.0 -1.0
outer loop
vertex 0.298241227865 4.25100326538 35.0590019226
vertex 0.29808267951 4.30100297928 35.0590019226
vertex 0.406415641308 4.30128145218 35.0590019226
endloop
endfacet
facet normal 0.0 0.0 -1.0
outer loop
vertex 0.189968779683 4.25059461594 35.0590019226
vertex 0.189750105143 4.30059432983 35.0590019226
vertex 0.298241227865 4.25100326538 35.0590019226
endloop
endfacet
facet normal 0.0 0.0 -1.0
outer loop
vertex 0.298241227865 4.25100326538 35.0590019226
vertex 0.189750105143 4.30059432983 35.0590019226
vertex 0.29808267951 4.30100297928 35.0590019226
endloop
endfacet
facet normal 0.0 0.0 -1.0
outer loop
vertex 0.0816969051957 4.25005626678 35.0590019226
vertex 0.0814181268215 4.30005550385 35.0590019226
vertex 0.189968779683 4.25059461594 35.0590019226
endloop
endfacet
facet normal 0.0 0.0 -1.0
outer loop
vertex 0.189968779683 4.25059461594 35.0590019226
vertex 0.0814181268215 4.30005550385 35.0590019226
vertex 0.189750105143 4.30059432983 35.0590019226
endloop
endfacet
facet normal 0.0 0.0 1.0
outer loop
vertex 0.298241227865 4.25100326538 38.6500015259
vertex 0.406514078379 4.25128126144 38.6500015259
vertex 0.406415641308 4.30128145218 38.6500015259
endloop
endfacet
facet normal -0.0 0.0 1.0
outer loop
vertex 0.298082649708 4.30100297928 38.6500015259
vertex 0.298241227865 4.25100326538 38.6500015259
vertex 0.406415641308 4.30128145218 38.6500015259
endloop
endfacet
facet normal 0.0 0.0 1.0
outer loop
vertex 0.189750105143 4.30059432983 38.6500015259
vertex 0.189968779683 4.25059461594 38.6500015259
vertex 0.298241227865 4.25100326538 38.6500015259
endloop
endfacet
facet normal -0.0 0.0 1.0
outer loop
vertex 0.189750105143 4.30059432983 38.6500015259
vertex 0.298241227865 4.25100326538 38.6500015259
vertex 0.298082649708 4.30100297928 38.6500015259
endloop
endfacet
facet normal 0.0 0.0 1.0
outer loop
vertex 0.0814181193709 4.30005550385 38.6500015259
vertex 0.0816968902946 4.25005626678 38.6500015259
vertex 0.189968779683 4.25059461594 38.6500015259
endloop
endfacet
facet normal -0.0 0.0 1.0
outer loop
vertex 0.0814181193709 4.30005550385 38.6500015259
vertex 0.189968779683 4.25059461594 38.6500015259
vertex 0.189750105143 4.30059432983 38.6500015259
endloop
endfacet
