solid 
facet normal 0.00497377896681 0.999987661839 -3.74062482378e-11
outer loop
vertex -0.189760625362 4.30059432983 -183.669006348
vertex -0.0814286395907 4.30005550385 -183.669006348
vertex -0.0814286619425 4.30005550385 -187.259994507
endloop
endfacet
facet normal 0.00497377850115 0.999987661839 -4.12783730808e-11
outer loop
vertex -0.189760625362 4.30059432983 -183.669006348
vertex -0.0814286619425 4.30005550385 -187.259994507
vertex -0.189760655165 4.30059432983 -187.259994507
endloop
endfacet
facet normal 0.00377214909531 0.999992847443 -3.13058155788e-11
outer loop
vertex -0.298093169928 4.30100297928 -183.669006348
vertex -0.189760655165 4.30059432983 -187.259994507
vertex -0.29809319973 4.30100297928 -187.259994507
endloop
endfacet
facet normal 0.00377214909531 0.999992847443 -2.8054685311e-11
outer loop
vertex -0.298093169928 4.30100297928 -183.669006348
vertex -0.189760625362 4.30059432983 -183.669006348
vertex -0.189760655165 4.30059432983 -187.259994507
endloop
endfacet
facet normal 0.00257051968947 0.999996721745 0.0
outer loop
vertex -0.406426161528 4.30128145218 -183.669006348
vertex -0.29809319973 4.30100297928 -187.259994507
vertex -0.406426161528 4.30128145218 -187.259994507
endloop
endfacet
facet normal 0.00257051875815 0.999996721745 -2.3378897776e-11
outer loop
vertex -0.406426161528 4.30128145218 -183.669006348
vertex -0.298093169928 4.30100297928 -183.669006348
vertex -0.29809319973 4.30100297928 -187.259994507
endloop
endfacet
facet normal -0.999998033047 0.00196874886751 8.29973600958e-09
outer loop
vertex -0.406426161528 4.30128145218 -183.669006348
vertex -0.406524628401 4.25128173828 -187.259994507
vertex -0.406524598598 4.25128173828 -183.669006348
endloop
endfacet
facet normal -0.999998033047 0.00196934491396 0.0
outer loop
vertex -0.406426161528 4.30128145218 -187.259994507
vertex -0.406524628401 4.25128173828 -187.259994507
vertex -0.406426161528 4.30128145218 -183.669006348
endloop
endfacet
facet normal -0.00497653987259 -0.999987661839 4.67837643625e-11
outer loop
vertex -0.0817074328661 4.25005626678 -187.259994507
vertex -0.189979285002 4.25059509277 -183.669006348
vertex -0.189979314804 4.25059509277 -187.259994507
endloop
endfacet
facet normal -0.00497653987259 -0.999987602234 3.09759683181e-11
outer loop
vertex -0.0817074105144 4.25005626678 -183.669006348
vertex -0.189979285002 4.25059509277 -183.669006348
vertex -0.0817074328661 4.25005626678 -187.259994507
endloop
endfacet
facet normal -0.00376983941533 -0.999992847443 0.0
outer loop
vertex -0.189979314804 4.25059509277 -187.259994507
vertex -0.298251748085 4.25100326538 -183.669006348
vertex -0.298251748085 4.25100326538 -187.259994507
endloop
endfacet
facet normal -0.00376983871683 -0.999992966652 3.12866399454e-11
outer loop
vertex -0.189979285002 4.25059509277 -183.669006348
vertex -0.298251748085 4.25100326538 -183.669006348
vertex -0.189979314804 4.25059509277 -187.259994507
endloop
endfacet
facet normal -0.00257194600999 -0.999996721745 1.87135012347e-11
outer loop
vertex -0.298251748085 4.25100326538 -187.259994507
vertex -0.406524598598 4.25128173828 -183.669006348
vertex -0.406524628401 4.25128173828 -187.259994507
endloop
endfacet
facet normal -0.00257194670849 -0.999996721745 -0.0
outer loop
vertex -0.298251748085 4.25100326538 -183.669006348
vertex -0.406524598598 4.25128173828 -183.669006348
vertex -0.298251748085 4.25100326538 -187.259994507
endloop
endfacet
facet normal 0.999984383583 -0.00557541614398 -6.22540952122e-09
outer loop
vertex -0.0817074105144 4.25005626678 -183.669006348
vertex -0.0814286619425 4.30005550385 -187.259994507
vertex -0.0814286395907 4.30005550385 -183.669006348
endloop
endfacet
facet normal 0.999984383583 -0.00557541614398 -6.22430151864e-09
outer loop
vertex -0.0817074328661 4.25005626678 -187.259994507
vertex -0.0814286619425 4.30005550385 -187.259994507
vertex -0.0817074105144 4.25005626678 -183.669006348
endloop
endfacet
facet normal 0.0 0.0 -1.0
outer loop
vertex -0.298251748085 4.25100326538 -187.259994507
vertex -0.406524628401 4.25128173828 -187.259994507
vertex -0.406426161528 4.30128145218 -187.259994507
endloop
endfacet
facet normal -0.0 0.0 -1.0
outer loop
vertex -0.29809319973 4.30100297928 -187.259994507
vertex -0.298251748085 4.25100326538 -187.259994507
vertex -0.406426161528 4.30128145218 -187.259994507
endloop
endfacet
facet normal 0.0 0.0 -1.0
outer loop
vertex -0.189979314804 4.25059509277 -187.259994507
vertex -0.298251748085 4.25100326538 -187.259994507
vertex -0.29809319973 4.30100297928 -187.259994507
endloop
endfacet
facet normal -0.0 0.0 -1.0
outer loop
vertex -0.189760655165 4.30059432983 -187.259994507
vertex -0.189979314804 4.25059509277 -187.259994507
vertex -0.29809319973 4.30100297928 -187.259994507
endloop
endfacet
facet normal 0.0 0.0 -1.0
outer loop
vertex -0.0814286619425 4.30005550385 -187.259994507
vertex -0.0817074328661 4.25005626678 -187.259994507
vertex -0.189979314804 4.25059509277 -187.259994507
endloop
endfacet
facet normal -0.0 0.0 -1.0
outer loop
vertex -0.0814286619425 4.30005550385 -187.259994507
vertex -0.189979314804 4.25059509277 -187.259994507
vertex -0.189760655165 4.30059432983 -187.259994507
endloop
endfacet
facet normal -0.0 0.0 1.0
outer loop
vertex -0.406524598598 4.25128173828 -183.669006348
vertex -0.298251748085 4.25100326538 -183.669006348
vertex -0.406426161528 4.30128145218 -183.669006348
endloop
endfacet
facet normal 0.0 -0.0 1.0
outer loop
vertex -0.298251748085 4.25100326538 -183.669006348
vertex -0.298093169928 4.30100297928 -183.669006348
vertex -0.406426161528 4.30128145218 -183.669006348
endloop
endfacet
facet normal -0.0 0.0 1.0
outer loop
vertex -0.298251748085 4.25100326538 -183.669006348
vertex -0.189979285002 4.25059509277 -183.669006348
vertex -0.298093169928 4.30100297928 -183.669006348
endloop
endfacet
facet normal 0.0 -0.0 1.0
outer loop
vertex -0.189979285002 4.25059509277 -183.669006348
vertex -0.189760625362 4.30059432983 -183.669006348
vertex -0.298093169928 4.30100297928 -183.669006348
endloop
endfacet
facet normal -0.0 0.0 1.0
outer loop
vertex -0.189979285002 4.25059509277 -183.669006348
vertex -0.0817074105144 4.25005626678 -183.669006348
vertex -0.189760625362 4.30059432983 -183.669006348
endloop
endfacet
facet normal 0.0 -0.0 1.0
outer loop
vertex -0.0817074105144 4.25005626678 -183.669006348
vertex -0.0814286395907 4.30005550385 -183.669006348
vertex -0.189760625362 4.30059432983 -183.669006348
endloop
endfacet
