solid 
facet normal 0.0173703506589 -0.999849200249 0.0
outer loop
vertex 3.69148755074 -4.24785661697 -121.643005371
vertex 0.606437027454 -4.30145311356 -121.643005371
vertex 0.606437027454 -4.30145311356 -121.663002014
endloop
endfacet
facet normal 0.0173703506589 -0.999849200249 0.0
outer loop
vertex 3.69148755074 -4.24785661697 -121.643005371
vertex 0.606437027454 -4.30145311356 -121.663002014
vertex 3.69148755074 -4.24785661697 -121.663002014
endloop
endfacet
facet normal 0.0515896417201 -0.998668372631 0.0
outer loop
vertex 3.69148755074 -4.24785661697 -121.643005371
vertex 3.69148755074 -4.24785661697 -121.663002014
vertex 6.77289438248 -4.0886759758 -121.663002014
endloop
endfacet
facet normal 0.085748642683 -0.996316790581 0.0
outer loop
vertex 6.77289438248 -4.0886759758 -121.643005371
vertex 6.77289438248 -4.0886759758 -121.663002014
vertex 9.84704589844 -3.82409715652 -121.663002014
endloop
endfacet
facet normal 0.0515896417201 -0.998668372631 0.0
outer loop
vertex 6.77289438248 -4.0886759758 -121.643005371
vertex 3.69148755074 -4.24785661697 -121.643005371
vertex 6.77289438248 -4.0886759758 -121.663002014
endloop
endfacet
facet normal 0.085748642683 -0.996316790581 0.0
outer loop
vertex 9.84704589844 -3.82409715652 -121.643005371
vertex 6.77289438248 -4.0886759758 -121.643005371
vertex 9.84704589844 -3.82409715652 -121.663002014
endloop
endfacet
facet normal 0.994703412056 0.10278672725 0.0
outer loop
vertex 9.84190654755 -3.77436184883 -121.663002014
vertex 9.84704589844 -3.82409715652 -121.643005371
vertex 9.84704589844 -3.82409715652 -121.663002014
endloop
endfacet
facet normal 0.994703412056 0.10278672725 0.0
outer loop
vertex 9.84190654755 -3.77436184883 -121.643005371
vertex 9.84704589844 -3.82409715652 -121.643005371
vertex 9.84190654755 -3.77436184883 -121.663002014
endloop
endfacet
facet normal -0.0173702538013 0.999849140644 0.0
outer loop
vertex 0.606424510479 -4.25145292282 -121.663002014
vertex 0.606424510479 -4.25145292282 -121.643005371
vertex 3.68976306915 -4.19788646698 -121.663002014
endloop
endfacet
facet normal -0.0173702538013 0.999849140644 0.0
outer loop
vertex 0.606424510479 -4.25145292282 -121.643005371
vertex 3.68976306915 -4.19788646698 -121.643005371
vertex 3.68976306915 -4.19788646698 -121.663002014
endloop
endfacet
facet normal -0.0515896677971 0.998668372631 0.0
outer loop
vertex 3.68976306915 -4.19788646698 -121.663002014
vertex 6.7694606781 -4.03879404068 -121.643005371
vertex 6.7694606781 -4.03879404068 -121.663002014
endloop
endfacet
facet normal -0.0515896677971 0.998668372631 0.0
outer loop
vertex 3.68976306915 -4.19788646698 -121.643005371
vertex 6.7694606781 -4.03879404068 -121.643005371
vertex 3.68976306915 -4.19788646698 -121.663002014
endloop
endfacet
facet normal -0.0857486948371 0.996316790581 0.0
outer loop
vertex 6.7694606781 -4.03879404068 -121.663002014
vertex 9.84190654755 -3.77436184883 -121.643005371
vertex 9.84190654755 -3.77436184883 -121.663002014
endloop
endfacet
facet normal -0.0857486948371 0.996316790581 0.0
outer loop
vertex 6.7694606781 -4.03879404068 -121.643005371
vertex 9.84190654755 -3.77436184883 -121.643005371
vertex 6.7694606781 -4.03879404068 -121.663002014
endloop
endfacet
facet normal -1.0 -0.00025033854763 0.0
outer loop
vertex 0.606437027454 -4.30145311356 -121.663002014
vertex 0.606424510479 -4.25145292282 -121.643005371
vertex 0.606424510479 -4.25145292282 -121.663002014
endloop
endfacet
facet normal -1.0 -0.00025033854763 -0.0
outer loop
vertex 0.606437027454 -4.30145311356 -121.643005371
vertex 0.606424510479 -4.25145292282 -121.643005371
vertex 0.606437027454 -4.30145311356 -121.663002014
endloop
endfacet
facet normal 0.0 0.0 1.0
outer loop
vertex 9.84190654755 -3.77436184883 -121.643005371
vertex 6.7694606781 -4.03879404068 -121.643005371
vertex 9.84704589844 -3.82409715652 -121.643005371
endloop
endfacet
facet normal -0.0 0.0 1.0
outer loop
vertex 6.7694606781 -4.03879404068 -121.643005371
vertex 6.77289438248 -4.0886759758 -121.643005371
vertex 9.84704589844 -3.82409715652 -121.643005371
endloop
endfacet
facet normal 0.0 0.0 1.0
outer loop
vertex 6.7694606781 -4.03879404068 -121.643005371
vertex 3.68976306915 -4.19788646698 -121.643005371
vertex 6.77289438248 -4.0886759758 -121.643005371
endloop
endfacet
facet normal -0.0 0.0 1.0
outer loop
vertex 3.68976306915 -4.19788646698 -121.643005371
vertex 3.69148755074 -4.24785661697 -121.643005371
vertex 6.77289438248 -4.0886759758 -121.643005371
endloop
endfacet
facet normal 0.0 0.0 1.0
outer loop
vertex 3.68976306915 -4.19788646698 -121.643005371
vertex 0.606424510479 -4.25145292282 -121.643005371
vertex 3.69148755074 -4.24785661697 -121.643005371
endloop
endfacet
facet normal -0.0 0.0 1.0
outer loop
vertex 0.606424510479 -4.25145292282 -121.643005371
vertex 0.606437027454 -4.30145311356 -121.643005371
vertex 3.69148755074 -4.24785661697 -121.643005371
endloop
endfacet
facet normal 0.0 0.0 -1.0
outer loop
vertex 6.7694606781 -4.03879404068 -121.663002014
vertex 9.84190654755 -3.77436184883 -121.663002014
vertex 9.84704589844 -3.82409715652 -121.663002014
endloop
endfacet
facet normal 0.0 0.0 -1.0
outer loop
vertex 6.77289438248 -4.0886759758 -121.663002014
vertex 6.7694606781 -4.03879404068 -121.663002014
vertex 9.84704589844 -3.82409715652 -121.663002014
endloop
endfacet
facet normal 0.0 0.0 -1.0
outer loop
vertex 3.69148755074 -4.24785661697 -121.663002014
vertex 3.68976306915 -4.19788646698 -121.663002014
vertex 6.7694606781 -4.03879404068 -121.663002014
endloop
endfacet
facet normal 0.0 0.0 -1.0
outer loop
vertex 3.69148755074 -4.24785661697 -121.663002014
vertex 6.7694606781 -4.03879404068 -121.663002014
vertex 6.77289438248 -4.0886759758 -121.663002014
endloop
endfacet
facet normal 0.0 0.0 -1.0
outer loop
vertex 0.606437027454 -4.30145311356 -121.663002014
vertex 0.606424510479 -4.25145292282 -121.663002014
vertex 3.68976306915 -4.19788646698 -121.663002014
endloop
endfacet
facet normal 0.0 0.0 -1.0
outer loop
vertex 0.606437027454 -4.30145311356 -121.663002014
vertex 3.68976306915 -4.19788646698 -121.663002014
vertex 3.69148755074 -4.24785661697 -121.663002014
endloop
endfacet
