solid 
facet normal -0.0173700433224 0.999849200249 0.0
outer loop
vertex -3.69146585464 4.24785757065 -223.350006104
vertex -0.606415450573 4.30145311356 -223.350006104
vertex -0.606415450573 4.30145311356 -223.369995117
endloop
endfacet
facet normal -0.0173700433224 0.999849200249 0.0
outer loop
vertex -3.69146585464 4.24785757065 -223.350006104
vertex -0.606415450573 4.30145311356 -223.369995117
vertex -3.69146585464 4.24785757065 -223.369995117
endloop
endfacet
facet normal -0.0515894852579 0.998668432236 0.0
outer loop
vertex -6.7728729248 4.08867740631 -223.350006104
vertex -3.69146585464 4.24785757065 -223.369995117
vertex -6.7728729248 4.08867740631 -223.369995117
endloop
endfacet
facet normal -0.0515894852579 0.998668432236 0.0
outer loop
vertex -6.7728729248 4.08867740631 -223.350006104
vertex -3.69146585464 4.24785757065 -223.350006104
vertex -3.69146585464 4.24785757065 -223.369995117
endloop
endfacet
facet normal -0.0857483223081 0.996316850185 0.0
outer loop
vertex -9.8470249176 3.82409954071 -223.350006104
vertex -6.7728729248 4.08867740631 -223.369995117
vertex -9.8470249176 3.82409954071 -223.369995117
endloop
endfacet
facet normal -0.0857483223081 0.996316850185 0.0
outer loop
vertex -9.8470249176 3.82409954071 -223.350006104
vertex -6.7728729248 4.08867740631 -223.350006104
vertex -6.7728729248 4.08867740631 -223.369995117
endloop
endfacet
facet normal -0.994701385498 -0.102806091309 0.0
outer loop
vertex -9.8470249176 3.82409954071 -223.350006104
vertex -9.84188461304 3.77436447144 -223.369995117
vertex -9.84188461304 3.77436447144 -223.350006104
endloop
endfacet
facet normal -0.994701385498 -0.102806091309 0.0
outer loop
vertex -9.8470249176 3.82409954071 -223.369995117
vertex -9.84188461304 3.77436447144 -223.369995117
vertex -9.8470249176 3.82409954071 -223.350006104
endloop
endfacet
facet normal 0.0173700992018 -0.999849140644 0.0
outer loop
vertex -0.606402933598 4.25145292282 -223.369995117
vertex -3.68974161148 4.19788694382 -223.350006104
vertex -3.68974161148 4.19788694382 -223.369995117
endloop
endfacet
facet normal 0.0173700992018 -0.999849140644 0.0
outer loop
vertex -0.606402933598 4.25145292282 -223.350006104
vertex -3.68974161148 4.19788694382 -223.350006104
vertex -0.606402933598 4.25145292282 -223.369995117
endloop
endfacet
facet normal 0.0515893623233 -0.998668372631 0.0
outer loop
vertex -3.68974161148 4.19788694382 -223.369995117
vertex -6.76943922043 4.03879547119 -223.350006104
vertex -6.76943922043 4.03879547119 -223.369995117
endloop
endfacet
facet normal 0.0857483223081 -0.996316850185 0.0
outer loop
vertex -6.76943922043 4.03879547119 -223.369995117
vertex -6.76943922043 4.03879547119 -223.350006104
vertex -9.84188461304 3.77436447144 -223.369995117
endloop
endfacet
facet normal 0.0515893623233 -0.998668372631 0.0
outer loop
vertex -3.68974161148 4.19788694382 -223.350006104
vertex -6.76943922043 4.03879547119 -223.350006104
vertex -3.68974161148 4.19788694382 -223.369995117
endloop
endfacet
facet normal 0.0857483223081 -0.996316850185 0.0
outer loop
vertex -6.76943922043 4.03879547119 -223.350006104
vertex -9.84188461304 3.77436447144 -223.350006104
vertex -9.84188461304 3.77436447144 -223.369995117
endloop
endfacet
facet normal 0.999999880791 0.000250338518526 0.0
outer loop
vertex -0.606402933598 4.25145292282 -223.350006104
vertex -0.606415450573 4.30145311356 -223.369995117
vertex -0.606415450573 4.30145311356 -223.350006104
endloop
endfacet
facet normal 0.999999880791 0.000250338518526 -0.0
outer loop
vertex -0.606402933598 4.25145292282 -223.369995117
vertex -0.606415450573 4.30145311356 -223.369995117
vertex -0.606402933598 4.25145292282 -223.350006104
endloop
endfacet
facet normal 0.0 0.0 -1.0
outer loop
vertex -6.76943922043 4.03879547119 -223.369995117
vertex -9.84188461304 3.77436447144 -223.369995117
vertex -9.8470249176 3.82409954071 -223.369995117
endloop
endfacet
facet normal 0.0 -0.0 -1.0
outer loop
vertex -6.7728729248 4.08867740631 -223.369995117
vertex -6.76943922043 4.03879547119 -223.369995117
vertex -9.8470249176 3.82409954071 -223.369995117
endloop
endfacet
facet normal 0.0 0.0 -1.0
outer loop
vertex -3.68974161148 4.19788694382 -223.369995117
vertex -6.76943922043 4.03879547119 -223.369995117
vertex -6.7728729248 4.08867740631 -223.369995117
endloop
endfacet
facet normal 0.0 -0.0 -1.0
outer loop
vertex -3.69146585464 4.24785757065 -223.369995117
vertex -3.68974161148 4.19788694382 -223.369995117
vertex -6.7728729248 4.08867740631 -223.369995117
endloop
endfacet
facet normal 0.0 -0.0 -1.0
outer loop
vertex -0.606415450573 4.30145311356 -223.369995117
vertex -0.606402933598 4.25145292282 -223.369995117
vertex -3.68974161148 4.19788694382 -223.369995117
endloop
endfacet
facet normal 0.0 0.0 -1.0
outer loop
vertex -0.606415450573 4.30145311356 -223.369995117
vertex -3.68974161148 4.19788694382 -223.369995117
vertex -3.69146585464 4.24785757065 -223.369995117
endloop
endfacet
facet normal 0.0 -0.0 1.0
outer loop
vertex -9.84188461304 3.77436447144 -223.350006104
vertex -6.76943922043 4.03879547119 -223.350006104
vertex -9.8470249176 3.82409954071 -223.350006104
endloop
endfacet
facet normal 0.0 0.0 1.0
outer loop
vertex -6.76943922043 4.03879547119 -223.350006104
vertex -6.7728729248 4.08867740631 -223.350006104
vertex -9.8470249176 3.82409954071 -223.350006104
endloop
endfacet
facet normal 0.0 -0.0 1.0
outer loop
vertex -6.76943922043 4.03879547119 -223.350006104
vertex -3.68974161148 4.19788694382 -223.350006104
vertex -6.7728729248 4.08867740631 -223.350006104
endloop
endfacet
facet normal 0.0 0.0 1.0
outer loop
vertex -3.68974161148 4.19788694382 -223.350006104
vertex -3.69146585464 4.24785757065 -223.350006104
vertex -6.7728729248 4.08867740631 -223.350006104
endloop
endfacet
facet normal 0.0 -0.0 1.0
outer loop
vertex -3.68974161148 4.19788694382 -223.350006104
vertex -0.606402933598 4.25145292282 -223.350006104
vertex -3.69146585464 4.24785757065 -223.350006104
endloop
endfacet
facet normal 0.0 0.0 1.0
outer loop
vertex -0.606402933598 4.25145292282 -223.350006104
vertex -0.606415450573 4.30145311356 -223.350006104
vertex -3.69146585464 4.24785757065 -223.350006104
endloop
endfacet
