solid 
facet normal -0.0173700414598 -0.999849140644 0.0
outer loop
vertex -3.69147086143 -4.24785757065 -60.3160018921
vertex -0.606420338154 -4.30145311356 -60.3160018921
vertex -0.606420338154 -4.30145311356 -60.2960014343
endloop
endfacet
facet normal -0.0173700414598 -0.999849140644 0.0
outer loop
vertex -3.69147086143 -4.24785757065 -60.3160018921
vertex -0.606420338154 -4.30145311356 -60.2960014343
vertex -3.69147086143 -4.24785757065 -60.2960014343
endloop
endfacet
facet normal -0.0515894815326 -0.998668372631 0.0
outer loop
vertex -6.77287817001 -4.08867740631 -60.3160018921
vertex -3.69147086143 -4.24785757065 -60.2960014343
vertex -6.77287817001 -4.08867740631 -60.2960014343
endloop
endfacet
facet normal -0.0515894815326 -0.998668372631 0.0
outer loop
vertex -6.77287817001 -4.08867740631 -60.3160018921
vertex -3.69147086143 -4.24785757065 -60.3160018921
vertex -3.69147086143 -4.24785757065 -60.2960014343
endloop
endfacet
facet normal -0.085748411715 -0.996316850185 0.0
outer loop
vertex -9.84702968597 -3.82409930229 -60.3160018921
vertex -6.77287817001 -4.08867740631 -60.2960014343
vertex -9.84702968597 -3.82409930229 -60.2960014343
endloop
endfacet
facet normal -0.085748411715 -0.996316850185 0.0
outer loop
vertex -9.84702968597 -3.82409930229 -60.3160018921
vertex -6.77287817001 -4.08867740631 -60.3160018921
vertex -6.77287817001 -4.08867740631 -60.2960014343
endloop
endfacet
facet normal -0.994701504707 0.10280610621 0.0
outer loop
vertex -9.84702968597 -3.82409930229 -60.3160018921
vertex -9.84188938141 -3.77436423302 -60.2960014343
vertex -9.84188938141 -3.77436423302 -60.3160018921
endloop
endfacet
facet normal -0.994701504707 0.10280610621 0.0
outer loop
vertex -9.84702968597 -3.82409930229 -60.2960014343
vertex -9.84188938141 -3.77436423302 -60.2960014343
vertex -9.84702968597 -3.82409930229 -60.3160018921
endloop
endfacet
facet normal 0.0173700992018 0.999849140644 0.0
outer loop
vertex -0.606407880783 -4.25145339966 -60.2960014343
vertex -3.68974661827 -4.19788742065 -60.3160018921
vertex -3.68974661827 -4.19788742065 -60.2960014343
endloop
endfacet
facet normal 0.0173700992018 0.999849140644 -0.0
outer loop
vertex -0.606407880783 -4.25145339966 -60.3160018921
vertex -3.68974661827 -4.19788742065 -60.3160018921
vertex -0.606407880783 -4.25145339966 -60.2960014343
endloop
endfacet
facet normal 0.0515895150602 0.998668372631 0.0
outer loop
vertex -3.68974661827 -4.19788742065 -60.2960014343
vertex -6.7694439888 -4.03879547119 -60.3160018921
vertex -6.7694439888 -4.03879547119 -60.2960014343
endloop
endfacet
facet normal 0.0857484042645 0.996316850185 0.0
outer loop
vertex -6.7694439888 -4.03879547119 -60.2960014343
vertex -6.7694439888 -4.03879547119 -60.3160018921
vertex -9.84188938141 -3.77436423302 -60.2960014343
endloop
endfacet
facet normal 0.0515895150602 0.998668372631 -0.0
outer loop
vertex -3.68974661827 -4.19788742065 -60.3160018921
vertex -6.7694439888 -4.03879547119 -60.3160018921
vertex -3.68974661827 -4.19788742065 -60.2960014343
endloop
endfacet
facet normal 0.0857484042645 0.996316850185 0.0
outer loop
vertex -6.7694439888 -4.03879547119 -60.3160018921
vertex -9.84188938141 -3.77436423302 -60.3160018921
vertex -9.84188938141 -3.77436423302 -60.2960014343
endloop
endfacet
facet normal 0.999999880791 -0.000249148812145 0.0
outer loop
vertex -0.606407880783 -4.25145339966 -60.3160018921
vertex -0.606420338154 -4.30145311356 -60.2960014343
vertex -0.606420338154 -4.30145311356 -60.3160018921
endloop
endfacet
facet normal 0.999999880791 -0.000249148812145 0.0
outer loop
vertex -0.606407880783 -4.25145339966 -60.2960014343
vertex -0.606420338154 -4.30145311356 -60.2960014343
vertex -0.606407880783 -4.25145339966 -60.3160018921
endloop
endfacet
facet normal 0.0 0.0 1.0
outer loop
vertex -6.7694439888 -4.03879547119 -60.2960014343
vertex -9.84188938141 -3.77436423302 -60.2960014343
vertex -9.84702968597 -3.82409930229 -60.2960014343
endloop
endfacet
facet normal 0.0 -0.0 1.0
outer loop
vertex -6.77287817001 -4.08867740631 -60.2960014343
vertex -6.7694439888 -4.03879547119 -60.2960014343
vertex -9.84702968597 -3.82409930229 -60.2960014343
endloop
endfacet
facet normal 0.0 0.0 1.0
outer loop
vertex -3.68974661827 -4.19788742065 -60.2960014343
vertex -6.7694439888 -4.03879547119 -60.2960014343
vertex -6.77287817001 -4.08867740631 -60.2960014343
endloop
endfacet
facet normal 0.0 -0.0 1.0
outer loop
vertex -3.69147086143 -4.24785757065 -60.2960014343
vertex -3.68974661827 -4.19788742065 -60.2960014343
vertex -6.77287817001 -4.08867740631 -60.2960014343
endloop
endfacet
facet normal 0.0 -0.0 1.0
outer loop
vertex -0.606420338154 -4.30145311356 -60.2960014343
vertex -0.606407880783 -4.25145339966 -60.2960014343
vertex -3.68974661827 -4.19788742065 -60.2960014343
endloop
endfacet
facet normal 0.0 0.0 1.0
outer loop
vertex -0.606420338154 -4.30145311356 -60.2960014343
vertex -3.68974661827 -4.19788742065 -60.2960014343
vertex -3.69147086143 -4.24785757065 -60.2960014343
endloop
endfacet
facet normal 0.0 -0.0 -1.0
outer loop
vertex -9.84188938141 -3.77436423302 -60.3160018921
vertex -6.7694439888 -4.03879547119 -60.3160018921
vertex -9.84702968597 -3.82409930229 -60.3160018921
endloop
endfacet
facet normal -0.0 0.0 -1.0
outer loop
vertex -6.7694439888 -4.03879547119 -60.3160018921
vertex -6.77287817001 -4.08867740631 -60.3160018921
vertex -9.84702968597 -3.82409930229 -60.3160018921
endloop
endfacet
facet normal 0.0 -0.0 -1.0
outer loop
vertex -6.7694439888 -4.03879547119 -60.3160018921
vertex -3.68974661827 -4.19788742065 -60.3160018921
vertex -6.77287817001 -4.08867740631 -60.3160018921
endloop
endfacet
facet normal -0.0 0.0 -1.0
outer loop
vertex -3.68974661827 -4.19788742065 -60.3160018921
vertex -3.69147086143 -4.24785757065 -60.3160018921
vertex -6.77287817001 -4.08867740631 -60.3160018921
endloop
endfacet
facet normal 0.0 -0.0 -1.0
outer loop
vertex -3.68974661827 -4.19788742065 -60.3160018921
vertex -0.606407880783 -4.25145339966 -60.3160018921
vertex -3.69147086143 -4.24785757065 -60.3160018921
endloop
endfacet
facet normal -0.0 0.0 -1.0
outer loop
vertex -0.606407880783 -4.25145339966 -60.3160018921
vertex -0.606420338154 -4.30145311356 -60.3160018921
vertex -3.69147086143 -4.24785757065 -60.3160018921
endloop
endfacet
