solid 
facet normal -0.119807049632 0.992797195911 0.0
outer loop
vertex -9.84704971313 3.82409691811 -140.336990356
vertex -9.84704971313 3.82409691811 -140.356994629
vertex -12.9103412628 3.45443034172 -140.356994629
endloop
endfacet
facet normal -0.153724893928 0.988113641739 0.0
outer loop
vertex -12.9103412628 3.45443034172 -140.336990356
vertex -12.9103412628 3.45443034172 -140.356994629
vertex -15.9591817856 2.98010969162 -140.356994629
endloop
endfacet
facet normal -0.119807049632 0.992797195911 0.0
outer loop
vertex -12.9103412628 3.45443034172 -140.336990356
vertex -9.84704971313 3.82409691811 -140.336990356
vertex -12.9103412628 3.45443034172 -140.356994629
endloop
endfacet
facet normal -0.153724893928 0.988113641739 0.0
outer loop
vertex -15.9591817856 2.98010969162 -140.336990356
vertex -12.9103412628 3.45443034172 -140.336990356
vertex -15.9591817856 2.98010969162 -140.356994629
endloop
endfacet
facet normal -0.187462568283 0.9822717309 0.0
outer loop
vertex -18.9899978638 2.40169072151 -140.336990356
vertex -15.9591817856 2.98010969162 -140.356994629
vertex -18.9899978638 2.40169072151 -140.356994629
endloop
endfacet
facet normal -0.187462568283 0.9822717309 0.0
outer loop
vertex -18.9899978638 2.40169072151 -140.336990356
vertex -15.9591817856 2.98010969162 -140.336990356
vertex -15.9591817856 2.98010969162 -140.356994629
endloop
endfacet
facet normal -0.97891330719 -0.204276025295 0.0
outer loop
vertex -18.9899978638 2.40169072151 -140.336990356
vertex -18.9797840118 2.35274481773 -140.356994629
vertex -18.9797840118 2.35274481773 -140.336990356
endloop
endfacet
facet normal -0.97891330719 -0.204276025295 0.0
outer loop
vertex -18.9899978638 2.40169072151 -140.356994629
vertex -18.9797840118 2.35274481773 -140.356994629
vertex -18.9899978638 2.40169072151 -140.336990356
endloop
endfacet
facet normal 0.119806997478 -0.992797195911 0.0
outer loop
vertex -9.84191036224 3.77436161041 -140.356994629
vertex -9.84191036224 3.77436161041 -140.336990356
vertex -12.9035024643 3.40490031242 -140.356994629
endloop
endfacet
facet normal 0.119806997478 -0.992797195911 0.0
outer loop
vertex -9.84191036224 3.77436161041 -140.336990356
vertex -12.9035024643 3.40490031242 -140.336990356
vertex -12.9035024643 3.40490031242 -140.356994629
endloop
endfacet
facet normal 0.153724908829 -0.988113701344 0.0
outer loop
vertex -12.9035024643 3.40490031242 -140.356994629
vertex -15.9506511688 2.93084287643 -140.336990356
vertex -15.9506511688 2.93084287643 -140.356994629
endloop
endfacet
facet normal 0.187462687492 -0.9822717309 0.0
outer loop
vertex -15.9506511688 2.93084287643 -140.356994629
vertex -15.9506511688 2.93084287643 -140.336990356
vertex -18.9797840118 2.35274481773 -140.356994629
endloop
endfacet
facet normal 0.153724908829 -0.988113701344 0.0
outer loop
vertex -12.9035024643 3.40490031242 -140.336990356
vertex -15.9506511688 2.93084287643 -140.336990356
vertex -12.9035024643 3.40490031242 -140.356994629
endloop
endfacet
facet normal 0.187462687492 -0.9822717309 0.0
outer loop
vertex -15.9506511688 2.93084287643 -140.336990356
vertex -18.9797840118 2.35274481773 -140.336990356
vertex -18.9797840118 2.35274481773 -140.356994629
endloop
endfacet
facet normal 0.994703412056 0.1027867347 0.0
outer loop
vertex -9.84191036224 3.77436161041 -140.336990356
vertex -9.84704971313 3.82409691811 -140.356994629
vertex -9.84704971313 3.82409691811 -140.336990356
endloop
endfacet
facet normal 0.994703412056 0.1027867347 -0.0
outer loop
vertex -9.84191036224 3.77436161041 -140.356994629
vertex -9.84704971313 3.82409691811 -140.356994629
vertex -9.84191036224 3.77436161041 -140.336990356
endloop
endfacet
facet normal 0.0 0.0 -1.0
outer loop
vertex -15.9506511688 2.93084287643 -140.356994629
vertex -18.9797840118 2.35274481773 -140.356994629
vertex -18.9899978638 2.40169072151 -140.356994629
endloop
endfacet
facet normal 0.0 -0.0 -1.0
outer loop
vertex -15.9591817856 2.98010969162 -140.356994629
vertex -15.9506511688 2.93084287643 -140.356994629
vertex -18.9899978638 2.40169072151 -140.356994629
endloop
endfacet
facet normal 0.0 0.0 -1.0
outer loop
vertex -12.9035024643 3.40490031242 -140.356994629
vertex -15.9506511688 2.93084287643 -140.356994629
vertex -15.9591817856 2.98010969162 -140.356994629
endloop
endfacet
facet normal 0.0 -0.0 -1.0
outer loop
vertex -12.9103412628 3.45443034172 -140.356994629
vertex -12.9035024643 3.40490031242 -140.356994629
vertex -15.9591817856 2.98010969162 -140.356994629
endloop
endfacet
facet normal 0.0 0.0 -1.0
outer loop
vertex -9.84191036224 3.77436161041 -140.356994629
vertex -12.9035024643 3.40490031242 -140.356994629
vertex -12.9103412628 3.45443034172 -140.356994629
endloop
endfacet
facet normal 0.0 -0.0 -1.0
outer loop
vertex -9.84704971313 3.82409691811 -140.356994629
vertex -9.84191036224 3.77436161041 -140.356994629
vertex -12.9103412628 3.45443034172 -140.356994629
endloop
endfacet
facet normal 0.0 0.0 1.0
outer loop
vertex -15.9506511688 2.93084287643 -140.336990356
vertex -15.9591817856 2.98010969162 -140.336990356
vertex -18.9797840118 2.35274481773 -140.336990356
endloop
endfacet
facet normal 0.0 -0.0 1.0
outer loop
vertex -18.9797840118 2.35274481773 -140.336990356
vertex -15.9591817856 2.98010969162 -140.336990356
vertex -18.9899978638 2.40169072151 -140.336990356
endloop
endfacet
facet normal 0.0 0.0 1.0
outer loop
vertex -12.9035024643 3.40490031242 -140.336990356
vertex -12.9103412628 3.45443034172 -140.336990356
vertex -15.9506511688 2.93084287643 -140.336990356
endloop
endfacet
facet normal 0.0 -0.0 1.0
outer loop
vertex -15.9506511688 2.93084287643 -140.336990356
vertex -12.9103412628 3.45443034172 -140.336990356
vertex -15.9591817856 2.98010969162 -140.336990356
endloop
endfacet
facet normal 0.0 0.0 1.0
outer loop
vertex -9.84191036224 3.77436161041 -140.336990356
vertex -9.84704971313 3.82409691811 -140.336990356
vertex -12.9035024643 3.40490031242 -140.336990356
endloop
endfacet
facet normal 0.0 -0.0 1.0
outer loop
vertex -12.9035024643 3.40490031242 -140.336990356
vertex -9.84704971313 3.82409691811 -140.336990356
vertex -12.9103412628 3.45443034172 -140.336990356
endloop
endfacet
