solid 
facet normal -0.204613447189 -0.9788428545 0.0
outer loop
vertex -19.0552330017 -2.3880546093 -34.9990005493
vertex -18.9899768829 -2.40169548988 -34.9990005493
vertex -18.9899768829 -2.40169548988 -31.408000946
endloop
endfacet
facet normal -0.204613447189 -0.9788428545 0.0
outer loop
vertex -19.0552330017 -2.3880546093 -34.9990005493
vertex -18.9899768829 -2.40169548988 -31.408000946
vertex -19.0552330017 -2.3880546093 -31.408000946
endloop
endfacet
facet normal -0.205339938402 -0.978690683842 0.0
outer loop
vertex -19.1204776764 -2.37436556816 -34.9990005493
vertex -19.0552330017 -2.3880546093 -31.408000946
vertex -19.1204776764 -2.37436556816 -31.408000946
endloop
endfacet
facet normal -0.205339938402 -0.978690683842 0.0
outer loop
vertex -19.1204776764 -2.37436556816 -34.9990005493
vertex -19.0552330017 -2.3880546093 -34.9990005493
vertex -19.0552330017 -2.3880546093 -31.408000946
endloop
endfacet
facet normal -0.206058248878 -0.978539764881 0.0
outer loop
vertex -19.1857147217 -2.36062812805 -34.9990005493
vertex -19.1204776764 -2.37436556816 -31.408000946
vertex -19.1857147217 -2.36062812805 -31.408000946
endloop
endfacet
facet normal -0.206058248878 -0.978539764881 0.0
outer loop
vertex -19.1857147217 -2.36062812805 -34.9990005493
vertex -19.1204776764 -2.37436556816 -34.9990005493
vertex -19.1204776764 -2.37436556816 -31.408000946
endloop
endfacet
facet normal -0.978464901447 0.206413239241 1.36158266884e-08
outer loop
vertex -19.1857147217 -2.36062812805 -34.9990005493
vertex -19.1753940582 -2.31170511246 -31.408000946
vertex -19.1753940582 -2.31170487404 -34.9990005493
endloop
endfacet
facet normal -0.978464722633 0.206414192915 0.0
outer loop
vertex -19.1857147217 -2.36062812805 -31.408000946
vertex -19.1753940582 -2.31170511246 -31.408000946
vertex -19.1857147217 -2.36062812805 -34.9990005493
endloop
endfacet
facet normal 0.204612657428 0.978843033314 0.0
outer loop
vertex -18.979763031 -2.35274958611 -31.408000946
vertex -18.979763031 -2.35274958611 -34.9990005493
vertex -19.0449829102 -2.33911633492 -31.408000946
endloop
endfacet
facet normal 0.205337241292 0.978691279888 0.0
outer loop
vertex -19.0449829102 -2.33911633492 -31.408000946
vertex -19.0449829102 -2.33911633492 -34.9990005493
vertex -19.1101932526 -2.32543468475 -31.408000946
endloop
endfacet
facet normal 0.204612657428 0.978843033314 0.0
outer loop
vertex -18.979763031 -2.35274958611 -34.9990005493
vertex -19.0449829102 -2.33911633492 -34.9990005493
vertex -19.0449829102 -2.33911633492 -31.408000946
endloop
endfacet
facet normal 0.205337241292 0.978691279888 0.0
outer loop
vertex -19.0449829102 -2.33911633492 -34.9990005493
vertex -19.1101932526 -2.32543468475 -34.9990005493
vertex -19.1101932526 -2.32543468475 -31.408000946
endloop
endfacet
facet normal 0.206054851413 0.978540420532 6.49533973274e-08
outer loop
vertex -19.1101932526 -2.32543468475 -31.408000946
vertex -19.1753940582 -2.31170487404 -34.9990005493
vertex -19.1753940582 -2.31170511246 -31.408000946
endloop
endfacet
facet normal 0.206058263779 0.978539705276 -0.0
outer loop
vertex -19.1101932526 -2.32543468475 -34.9990005493
vertex -19.1753940582 -2.31170487404 -34.9990005493
vertex -19.1101932526 -2.32543468475 -31.408000946
endloop
endfacet
facet normal 0.97891330719 -0.204276040196 0.0
outer loop
vertex -18.979763031 -2.35274958611 -34.9990005493
vertex -18.979763031 -2.35274958611 -31.408000946
vertex -18.9899768829 -2.40169548988 -34.9990005493
endloop
endfacet
facet normal 0.97891330719 -0.204276040196 0.0
outer loop
vertex -18.979763031 -2.35274958611 -31.408000946
vertex -18.9899768829 -2.40169548988 -31.408000946
vertex -18.9899768829 -2.40169548988 -34.9990005493
endloop
endfacet
facet normal 0.0 -0.0 1.0
outer loop
vertex -19.1204776764 -2.37436556816 -31.408000946
vertex -19.1101932526 -2.32543468475 -31.408000946
vertex -19.1753940582 -2.31170511246 -31.408000946
endloop
endfacet
facet normal 0.0 0.0 1.0
outer loop
vertex -19.1204776764 -2.37436556816 -31.408000946
vertex -19.1753940582 -2.31170511246 -31.408000946
vertex -19.1857147217 -2.36062812805 -31.408000946
endloop
endfacet
facet normal 0.0 -0.0 1.0
outer loop
vertex -19.0552330017 -2.3880546093 -31.408000946
vertex -19.0449829102 -2.33911633492 -31.408000946
vertex -19.1101932526 -2.32543468475 -31.408000946
endloop
endfacet
facet normal 0.0 0.0 1.0
outer loop
vertex -19.0552330017 -2.3880546093 -31.408000946
vertex -19.1101932526 -2.32543468475 -31.408000946
vertex -19.1204776764 -2.37436556816 -31.408000946
endloop
endfacet
facet normal 0.0 -0.0 1.0
outer loop
vertex -18.9899768829 -2.40169548988 -31.408000946
vertex -18.979763031 -2.35274958611 -31.408000946
vertex -19.0449829102 -2.33911633492 -31.408000946
endloop
endfacet
facet normal 0.0 0.0 1.0
outer loop
vertex -18.9899768829 -2.40169548988 -31.408000946
vertex -19.0449829102 -2.33911633492 -31.408000946
vertex -19.0552330017 -2.3880546093 -31.408000946
endloop
endfacet
facet normal 0.0 -0.0 -1.0
outer loop
vertex -19.1753940582 -2.31170487404 -34.9990005493
vertex -19.1101932526 -2.32543468475 -34.9990005493
vertex -19.1857147217 -2.36062812805 -34.9990005493
endloop
endfacet
facet normal 0.0 0.0 -1.0
outer loop
vertex -19.1101932526 -2.32543468475 -34.9990005493
vertex -19.1204776764 -2.37436556816 -34.9990005493
vertex -19.1857147217 -2.36062812805 -34.9990005493
endloop
endfacet
facet normal -0.0 0.0 -1.0
outer loop
vertex -19.0449829102 -2.33911633492 -34.9990005493
vertex -19.0552330017 -2.3880546093 -34.9990005493
vertex -19.1101932526 -2.32543468475 -34.9990005493
endloop
endfacet
facet normal 0.0 -0.0 -1.0
outer loop
vertex -19.1101932526 -2.32543468475 -34.9990005493
vertex -19.0552330017 -2.3880546093 -34.9990005493
vertex -19.1204776764 -2.37436556816 -34.9990005493
endloop
endfacet
facet normal 0.0 -0.0 -1.0
outer loop
vertex -19.0449829102 -2.33911633492 -34.9990005493
vertex -18.979763031 -2.35274958611 -34.9990005493
vertex -19.0552330017 -2.3880546093 -34.9990005493
endloop
endfacet
facet normal 0.0 0.0 -1.0
outer loop
vertex -18.979763031 -2.35274958611 -34.9990005493
vertex -18.9899768829 -2.40169548988 -34.9990005493
vertex -19.0552330017 -2.3880546093 -34.9990005493
endloop
endfacet
