solid 
facet normal -0.0016021723859 -0.999998748302 0.0
outer loop
vertex 0.473082393408 -4.30138778687 -27.8169994354
vertex 0.406415790319 -4.30128097534 -27.8169994354
vertex 0.406415790319 -4.30128097534 -31.408000946
endloop
endfacet
facet normal -0.00159502052702 -0.999998748302 -1.3277328037e-07
outer loop
vertex 0.473082393408 -4.30138778687 -27.8169994354
vertex 0.406415790319 -4.30128097534 -31.408000946
vertex 0.473082363605 -4.30138731003 -31.408000946
endloop
endfacet
facet normal -0.0008654591511 -0.999999642372 -0.0
outer loop
vertex 0.539749026299 -4.30144500732 -27.8169994354
vertex 0.473082363605 -4.30138731003 -31.408000946
vertex 0.539749026299 -4.30144500732 -31.408000946
endloop
endfacet
facet normal -0.000858307001181 -0.999999701977 -1.3277993105e-07
outer loop
vertex 0.539749026299 -4.30144500732 -27.8169994354
vertex 0.473082393408 -4.30138778687 -27.8169994354
vertex 0.473082363605 -4.30138731003 -31.408000946
endloop
endfacet
facet normal -0.000114440925245 -1.0 -0.0
outer loop
vertex 0.606415688992 -4.30145263672 -27.8169994354
vertex 0.539749026299 -4.30144500732 -31.408000946
vertex 0.606415688992 -4.30145263672 -31.408000946
endloop
endfacet
facet normal -0.000114440925245 -1.0 0.0
outer loop
vertex 0.606415688992 -4.30145263672 -27.8169994354
vertex 0.539749026299 -4.30144500732 -27.8169994354
vertex 0.539749026299 -4.30144500732 -31.408000946
endloop
endfacet
facet normal 1.0 0.000250340934144 0.0
outer loop
vertex 0.606403172016 -4.25145292282 -27.8169994354
vertex 0.606415688992 -4.30145263672 -27.8169994354
vertex 0.606415688992 -4.30145263672 -31.408000946
endloop
endfacet
facet normal 1.0 0.000250340934144 0.0
outer loop
vertex 0.606403172016 -4.25145292282 -27.8169994354
vertex 0.606415688992 -4.30145263672 -31.408000946
vertex 0.606403172016 -4.25145292282 -31.408000946
endloop
endfacet
facet normal 0.00160306249745 0.999998748302 0.0
outer loop
vertex 0.406514257193 -4.25128078461 -31.408000946
vertex 0.473143845797 -4.25138759613 -27.8169994354
vertex 0.473143845797 -4.25138759613 -31.408000946
endloop
endfacet
facet normal 0.00159590598196 0.999998748302 1.32786510676e-07
outer loop
vertex 0.406514257193 -4.25128126144 -27.8169994354
vertex 0.473143845797 -4.25138759613 -27.8169994354
vertex 0.406514257193 -4.25128078461 -31.408000946
endloop
endfacet
facet normal 0.000858783780131 0.999999642372 -1.52046725904e-11
outer loop
vertex 0.473143845797 -4.25138759613 -31.408000946
vertex 0.539773523808 -4.25144481659 -27.8169994354
vertex 0.539773464203 -4.25144481659 -31.408000946
endloop
endfacet
facet normal 0.000858783023432 0.999999642372 0.0
outer loop
vertex 0.473143845797 -4.25138759613 -27.8169994354
vertex 0.539773523808 -4.25144481659 -27.8169994354
vertex 0.473143845797 -4.25138759613 -31.408000946
endloop
endfacet
facet normal 0.000121660923469 1.0 0.0
outer loop
vertex 0.539773464203 -4.25144481659 -31.408000946
vertex 0.606403172016 -4.25145292282 -27.8169994354
vertex 0.606403172016 -4.25145292282 -31.408000946
endloop
endfacet
facet normal 0.000121661032608 1.0 -2.01937056486e-12
outer loop
vertex 0.539773523808 -4.25144481659 -27.8169994354
vertex 0.606403172016 -4.25145292282 -27.8169994354
vertex 0.539773464203 -4.25144481659 -31.408000946
endloop
endfacet
facet normal -0.999998092651 0.00196934491396 2.60869575941e-10
outer loop
vertex 0.406415790319 -4.30128097534 -27.8169994354
vertex 0.406514257193 -4.25128126144 -27.8169994354
vertex 0.406514257193 -4.25128078461 -31.408000946
endloop
endfacet
facet normal -0.999998033047 0.00196932605468 0.0
outer loop
vertex 0.406415790319 -4.30128097534 -27.8169994354
vertex 0.406514257193 -4.25128078461 -31.408000946
vertex 0.406415790319 -4.30128097534 -31.408000946
endloop
endfacet
facet normal 0.0 0.0 1.0
outer loop
vertex 0.606403172016 -4.25145292282 -27.8169994354
vertex 0.539773523808 -4.25144481659 -27.8169994354
vertex 0.606415688992 -4.30145263672 -27.8169994354
endloop
endfacet
facet normal 0.0 0.0 1.0
outer loop
vertex 0.539773523808 -4.25144481659 -27.8169994354
vertex 0.539749026299 -4.30144500732 -27.8169994354
vertex 0.606415688992 -4.30145263672 -27.8169994354
endloop
endfacet
facet normal 0.0 0.0 1.0
outer loop
vertex 0.473143845797 -4.25138759613 -27.8169994354
vertex 0.473082393408 -4.30138778687 -27.8169994354
vertex 0.539773523808 -4.25144481659 -27.8169994354
endloop
endfacet
facet normal 0.0 0.0 1.0
outer loop
vertex 0.539773523808 -4.25144481659 -27.8169994354
vertex 0.473082393408 -4.30138778687 -27.8169994354
vertex 0.539749026299 -4.30144500732 -27.8169994354
endloop
endfacet
facet normal 0.0 0.0 1.0
outer loop
vertex 0.406514257193 -4.25128126144 -27.8169994354
vertex 0.406415790319 -4.30128097534 -27.8169994354
vertex 0.473143845797 -4.25138759613 -27.8169994354
endloop
endfacet
facet normal 0.0 0.0 1.0
outer loop
vertex 0.473143845797 -4.25138759613 -27.8169994354
vertex 0.406415790319 -4.30128097534 -27.8169994354
vertex 0.473082393408 -4.30138778687 -27.8169994354
endloop
endfacet
facet normal 0.0 0.0 -1.0
outer loop
vertex 0.539773464203 -4.25144481659 -31.408000946
vertex 0.606403172016 -4.25145292282 -31.408000946
vertex 0.606415688992 -4.30145263672 -31.408000946
endloop
endfacet
facet normal 0.0 0.0 -1.0
outer loop
vertex 0.539749026299 -4.30144500732 -31.408000946
vertex 0.539773464203 -4.25144481659 -31.408000946
vertex 0.606415688992 -4.30145263672 -31.408000946
endloop
endfacet
facet normal 0.0 0.0 -1.0
outer loop
vertex 0.473082363605 -4.30138731003 -31.408000946
vertex 0.473143845797 -4.25138759613 -31.408000946
vertex 0.539773464203 -4.25144481659 -31.408000946
endloop
endfacet
facet normal 0.0 0.0 -1.0
outer loop
vertex 0.473082363605 -4.30138731003 -31.408000946
vertex 0.539773464203 -4.25144481659 -31.408000946
vertex 0.539749026299 -4.30144500732 -31.408000946
endloop
endfacet
facet normal 0.0 0.0 -1.0
outer loop
vertex 0.406415790319 -4.30128097534 -31.408000946
vertex 0.406514257193 -4.25128078461 -31.408000946
vertex 0.473143845797 -4.25138759613 -31.408000946
endloop
endfacet
facet normal 0.0 0.0 -1.0
outer loop
vertex 0.406415790319 -4.30128097534 -31.408000946
vertex 0.473143845797 -4.25138759613 -31.408000946
vertex 0.473082363605 -4.30138731003 -31.408000946
endloop
endfacet
