solid 
facet normal -0.0016021723859 0.999998748302 0.0
outer loop
vertex 0.473082393408 4.30138778687 -234.182998657
vertex 0.406415790319 4.30128097534 -234.182998657
vertex 0.406415790319 4.30128097534 -230.591995239
endloop
endfacet
facet normal -0.00159502052702 0.999998748302 1.32773209316e-07
outer loop
vertex 0.473082393408 4.30138778687 -234.182998657
vertex 0.406415790319 4.30128097534 -230.591995239
vertex 0.473082363605 4.30138731003 -230.591995239
endloop
endfacet
facet normal -0.000865459209308 0.999999642372 0.0
outer loop
vertex 0.539749026299 4.30144500732 -234.182998657
vertex 0.473082363605 4.30138731003 -230.591995239
vertex 0.539749026299 4.30144500732 -230.591995239
endloop
endfacet
facet normal -0.000858307001181 0.999999642372 1.32779845785e-07
outer loop
vertex 0.539749026299 4.30144500732 -234.182998657
vertex 0.473082393408 4.30138778687 -234.182998657
vertex 0.473082363605 4.30138731003 -230.591995239
endloop
endfacet
facet normal -0.000114440925245 1.0 0.0
outer loop
vertex 0.606415688992 4.30145263672 -234.182998657
vertex 0.539749026299 4.30144500732 -230.591995239
vertex 0.606415688992 4.30145263672 -230.591995239
endloop
endfacet
facet normal -0.000114440925245 1.0 0.0
outer loop
vertex 0.606415688992 4.30145263672 -234.182998657
vertex 0.539749026299 4.30144500732 -234.182998657
vertex 0.539749026299 4.30144500732 -230.591995239
endloop
endfacet
facet normal 0.999999940395 -0.000250340934144 0.0
outer loop
vertex 0.606403172016 4.25145292282 -234.182998657
vertex 0.606415688992 4.30145263672 -234.182998657
vertex 0.606415688992 4.30145263672 -230.591995239
endloop
endfacet
facet normal 0.999999940395 -0.000250340934144 0.0
outer loop
vertex 0.606403172016 4.25145292282 -234.182998657
vertex 0.606415688992 4.30145263672 -230.591995239
vertex 0.606403172016 4.25145292282 -230.591995239
endloop
endfacet
facet normal 0.00160306238104 -0.999998688698 0.0
outer loop
vertex 0.406514257193 4.25128078461 -230.591995239
vertex 0.473143845797 4.25138759613 -234.182998657
vertex 0.473143845797 4.25138759613 -230.591995239
endloop
endfacet
facet normal 0.00159590574913 -0.999998688698 -1.32786439622e-07
outer loop
vertex 0.406514257193 4.25128126144 -234.182998657
vertex 0.473143845797 4.25138759613 -234.182998657
vertex 0.406514257193 4.25128078461 -230.591995239
endloop
endfacet
facet normal 0.000858783838339 -0.999999642372 1.52046656515e-11
outer loop
vertex 0.473143845797 4.25138759613 -230.591995239
vertex 0.539773523808 4.25144481659 -234.182998657
vertex 0.539773464203 4.25144481659 -230.591995239
endloop
endfacet
facet normal 0.000858783023432 -0.999999642372 0.0
outer loop
vertex 0.473143845797 4.25138759613 -234.182998657
vertex 0.539773523808 4.25144481659 -234.182998657
vertex 0.473143845797 4.25138759613 -230.591995239
endloop
endfacet
facet normal 0.000121660916193 -1.0 0.0
outer loop
vertex 0.539773464203 4.25144481659 -230.591995239
vertex 0.606403172016 4.25145292282 -234.182998657
vertex 0.606403172016 4.25145292282 -230.591995239
endloop
endfacet
facet normal 0.000121661032608 -1.0 2.01936948066e-12
outer loop
vertex 0.539773523808 4.25144481659 -234.182998657
vertex 0.606403172016 4.25145292282 -234.182998657
vertex 0.539773464203 4.25144481659 -230.591995239
endloop
endfacet
facet normal -0.999998033047 -0.00196934491396 -2.60869437163e-10
outer loop
vertex 0.406415790319 4.30128097534 -234.182998657
vertex 0.406514257193 4.25128126144 -234.182998657
vertex 0.406514257193 4.25128078461 -230.591995239
endloop
endfacet
facet normal -0.999998033047 -0.00196932605468 0.0
outer loop
vertex 0.406415790319 4.30128097534 -234.182998657
vertex 0.406514257193 4.25128078461 -230.591995239
vertex 0.406415790319 4.30128097534 -230.591995239
endloop
endfacet
facet normal -0.0 0.0 -1.0
outer loop
vertex 0.606403172016 4.25145292282 -234.182998657
vertex 0.539773523808 4.25144481659 -234.182998657
vertex 0.606415688992 4.30145263672 -234.182998657
endloop
endfacet
facet normal 0.0 0.0 -1.0
outer loop
vertex 0.539773523808 4.25144481659 -234.182998657
vertex 0.539749026299 4.30144500732 -234.182998657
vertex 0.606415688992 4.30145263672 -234.182998657
endloop
endfacet
facet normal 0.0 0.0 -1.0
outer loop
vertex 0.473143845797 4.25138759613 -234.182998657
vertex 0.473082393408 4.30138778687 -234.182998657
vertex 0.539773523808 4.25144481659 -234.182998657
endloop
endfacet
facet normal 0.0 0.0 -1.0
outer loop
vertex 0.539773523808 4.25144481659 -234.182998657
vertex 0.473082393408 4.30138778687 -234.182998657
vertex 0.539749026299 4.30144500732 -234.182998657
endloop
endfacet
facet normal 0.0 0.0 -1.0
outer loop
vertex 0.406514257193 4.25128126144 -234.182998657
vertex 0.406415790319 4.30128097534 -234.182998657
vertex 0.473143845797 4.25138759613 -234.182998657
endloop
endfacet
facet normal 0.0 0.0 -1.0
outer loop
vertex 0.473143845797 4.25138759613 -234.182998657
vertex 0.406415790319 4.30128097534 -234.182998657
vertex 0.473082393408 4.30138778687 -234.182998657
endloop
endfacet
facet normal 0.0 0.0 1.0
outer loop
vertex 0.539773464203 4.25144481659 -230.591995239
vertex 0.606403172016 4.25145292282 -230.591995239
vertex 0.606415688992 4.30145263672 -230.591995239
endloop
endfacet
facet normal -0.0 0.0 1.0
outer loop
vertex 0.539749026299 4.30144500732 -230.591995239
vertex 0.539773464203 4.25144481659 -230.591995239
vertex 0.606415688992 4.30145263672 -230.591995239
endloop
endfacet
facet normal 0.0 0.0 1.0
outer loop
vertex 0.473082363605 4.30138731003 -230.591995239
vertex 0.473143845797 4.25138759613 -230.591995239
vertex 0.539773464203 4.25144481659 -230.591995239
endloop
endfacet
facet normal -0.0 0.0 1.0
outer loop
vertex 0.473082363605 4.30138731003 -230.591995239
vertex 0.539773464203 4.25144481659 -230.591995239
vertex 0.539749026299 4.30144500732 -230.591995239
endloop
endfacet
facet normal 0.0 0.0 1.0
outer loop
vertex 0.406415790319 4.30128097534 -230.591995239
vertex 0.406514257193 4.25128078461 -230.591995239
vertex 0.473143845797 4.25138759613 -230.591995239
endloop
endfacet
facet normal -0.0 0.0 1.0
outer loop
vertex 0.406415790319 4.30128097534 -230.591995239
vertex 0.473143845797 4.25138759613 -230.591995239
vertex 0.473082363605 4.30138731003 -230.591995239
endloop
endfacet
