solid 
facet normal -0.00159502052702 0.999998748302 0.0
outer loop
vertex 0.473077237606 4.30138683319 2.55999970436
vertex 0.40641066432 4.3012804985 2.55999970436
vertex 0.40641066432 4.3012804985 6.15099954605
endloop
endfacet
facet normal -0.00159502052702 0.999998748302 0.0
outer loop
vertex 0.473077237606 4.30138683319 2.55999970436
vertex 0.40641066432 4.3012804985 6.15099954605
vertex 0.473077237606 4.30138683319 6.15099954605
endloop
endfacet
facet normal -0.000858306651935 0.999999642372 0.0
outer loop
vertex 0.539743900299 4.30144405365 2.55999970436
vertex 0.473077237606 4.30138683319 6.15099954605
vertex 0.539743900299 4.30144405365 6.15099954605
endloop
endfacet
facet normal -0.000858306651935 0.999999642372 0.0
outer loop
vertex 0.539743900299 4.30144405365 2.55999970436
vertex 0.473077237606 4.30138683319 2.55999970436
vertex 0.473077237606 4.30138683319 6.15099954605
endloop
endfacet
facet normal -0.000121593482618 1.0 0.0
outer loop
vertex 0.606410562992 4.30145215988 2.55999970436
vertex 0.539743900299 4.30144405365 6.15099954605
vertex 0.606410562992 4.30145215988 6.15099954605
endloop
endfacet
facet normal -0.000121593482618 1.0 0.0
outer loop
vertex 0.606410562992 4.30145215988 2.55999970436
vertex 0.539743900299 4.30144405365 2.55999970436
vertex 0.539743900299 4.30144405365 6.15099954605
endloop
endfacet
facet normal 0.999999940395 -0.000250340934144 0.0
outer loop
vertex 0.606398046017 4.25145244598 2.55999970436
vertex 0.606410562992 4.30145215988 2.55999970436
vertex 0.606410562992 4.30145215988 6.15099954605
endloop
endfacet
facet normal 0.999999940395 -0.000250340934144 0.0
outer loop
vertex 0.606398046017 4.25145244598 2.55999970436
vertex 0.606410562992 4.30145215988 6.15099954605
vertex 0.606398046017 4.25145244598 6.15099954605
endloop
endfacet
facet normal 0.00160306249745 -0.999998748302 0.0
outer loop
vertex 0.406509131193 4.25128030777 6.15099954605
vertex 0.473138719797 4.25138711929 2.55999970436
vertex 0.473138719797 4.25138711929 6.15099954605
endloop
endfacet
facet normal 0.00160306249745 -0.999998748302 0.0
outer loop
vertex 0.406509131193 4.25128030777 2.55999970436
vertex 0.473138719797 4.25138711929 2.55999970436
vertex 0.406509131193 4.25128030777 6.15099954605
endloop
endfacet
facet normal 0.000858783838339 -0.999999642372 0.0
outer loop
vertex 0.473138719797 4.25138711929 6.15099954605
vertex 0.539768338203 4.25144433975 2.55999970436
vertex 0.539768338203 4.25144433975 6.15099954605
endloop
endfacet
facet normal 0.000858783838339 -0.999999642372 0.0
outer loop
vertex 0.473138719797 4.25138711929 2.55999970436
vertex 0.539768338203 4.25144433975 2.55999970436
vertex 0.473138719797 4.25138711929 6.15099954605
endloop
endfacet
facet normal 0.000121660916193 -1.0 0.0
outer loop
vertex 0.539768338203 4.25144433975 6.15099954605
vertex 0.606398046017 4.25145244598 2.55999970436
vertex 0.606398046017 4.25145244598 6.15099954605
endloop
endfacet
facet normal 0.000121660916193 -1.0 0.0
outer loop
vertex 0.539768338203 4.25144433975 2.55999970436
vertex 0.606398046017 4.25145244598 2.55999970436
vertex 0.539768338203 4.25144433975 6.15099954605
endloop
endfacet
facet normal -0.999998033047 -0.00196932605468 0.0
outer loop
vertex 0.40641066432 4.3012804985 2.55999970436
vertex 0.406509131193 4.25128030777 2.55999970436
vertex 0.406509131193 4.25128030777 6.15099954605
endloop
endfacet
facet normal -0.999998033047 -0.00196932605468 0.0
outer loop
vertex 0.40641066432 4.3012804985 2.55999970436
vertex 0.406509131193 4.25128030777 6.15099954605
vertex 0.40641066432 4.3012804985 6.15099954605
endloop
endfacet
facet normal -0.0 0.0 -1.0
outer loop
vertex 0.606398046017 4.25145244598 2.55999970436
vertex 0.539768338203 4.25144433975 2.55999970436
vertex 0.606410562992 4.30145215988 2.55999970436
endloop
endfacet
facet normal 0.0 0.0 -1.0
outer loop
vertex 0.539768338203 4.25144433975 2.55999970436
vertex 0.539743900299 4.30144405365 2.55999970436
vertex 0.606410562992 4.30145215988 2.55999970436
endloop
endfacet
facet normal 0.0 0.0 -1.0
outer loop
vertex 0.473138719797 4.25138711929 2.55999970436
vertex 0.473077237606 4.30138683319 2.55999970436
vertex 0.539768338203 4.25144433975 2.55999970436
endloop
endfacet
facet normal 0.0 0.0 -1.0
outer loop
vertex 0.539768338203 4.25144433975 2.55999970436
vertex 0.473077237606 4.30138683319 2.55999970436
vertex 0.539743900299 4.30144405365 2.55999970436
endloop
endfacet
facet normal 0.0 0.0 -1.0
outer loop
vertex 0.406509131193 4.25128030777 2.55999970436
vertex 0.40641066432 4.3012804985 2.55999970436
vertex 0.473138719797 4.25138711929 2.55999970436
endloop
endfacet
facet normal 0.0 0.0 -1.0
outer loop
vertex 0.473138719797 4.25138711929 2.55999970436
vertex 0.40641066432 4.3012804985 2.55999970436
vertex 0.473077237606 4.30138683319 2.55999970436
endloop
endfacet
facet normal 0.0 0.0 1.0
outer loop
vertex 0.539768338203 4.25144433975 6.15099954605
vertex 0.606398046017 4.25145244598 6.15099954605
vertex 0.606410562992 4.30145215988 6.15099954605
endloop
endfacet
facet normal -0.0 0.0 1.0
outer loop
vertex 0.539743900299 4.30144405365 6.15099954605
vertex 0.539768338203 4.25144433975 6.15099954605
vertex 0.606410562992 4.30145215988 6.15099954605
endloop
endfacet
facet normal 0.0 0.0 1.0
outer loop
vertex 0.473077237606 4.30138683319 6.15099954605
vertex 0.473138719797 4.25138711929 6.15099954605
vertex 0.539768338203 4.25144433975 6.15099954605
endloop
endfacet
facet normal -0.0 0.0 1.0
outer loop
vertex 0.473077237606 4.30138683319 6.15099954605
vertex 0.539768338203 4.25144433975 6.15099954605
vertex 0.539743900299 4.30144405365 6.15099954605
endloop
endfacet
facet normal 0.0 0.0 1.0
outer loop
vertex 0.40641066432 4.3012804985 6.15099954605
vertex 0.406509131193 4.25128030777 6.15099954605
vertex 0.473138719797 4.25138711929 6.15099954605
endloop
endfacet
facet normal -0.0 0.0 1.0
outer loop
vertex 0.40641066432 4.3012804985 6.15099954605
vertex 0.473138719797 4.25138711929 6.15099954605
vertex 0.473077237606 4.30138683319 6.15099954605
endloop
endfacet
