solid 
facet normal 0.00160217308439 0.999998748302 0.0
outer loop
vertex -0.473082184792 4.30138778687 -219.759002686
vertex -0.406415611506 4.30128097534 -219.759002686
vertex -0.406415611506 4.30128097534 -223.350006104
endloop
endfacet
facet normal 0.00160217308439 0.999998748302 0.0
outer loop
vertex -0.473082184792 4.30138778687 -219.759002686
vertex -0.406415611506 4.30128097534 -223.350006104
vertex -0.473082184792 4.30138778687 -223.350006104
endloop
endfacet
facet normal 0.000858306651935 0.999999642372 0.0
outer loop
vertex -0.539748847485 4.30144500732 -219.759002686
vertex -0.473082184792 4.30138778687 -223.350006104
vertex -0.539748847485 4.30144500732 -223.350006104
endloop
endfacet
facet normal 0.000858306651935 0.999999642372 0.0
outer loop
vertex -0.539748847485 4.30144500732 -219.759002686
vertex -0.473082184792 4.30138778687 -219.759002686
vertex -0.473082184792 4.30138778687 -223.350006104
endloop
endfacet
facet normal 0.000121593482618 1.0 0.0
outer loop
vertex -0.606415510178 4.30145311356 -219.759002686
vertex -0.539748847485 4.30144500732 -223.350006104
vertex -0.606415510178 4.30145311356 -223.350006104
endloop
endfacet
facet normal 0.000121593482618 1.0 0.0
outer loop
vertex -0.606415510178 4.30145311356 -219.759002686
vertex -0.539748847485 4.30144500732 -219.759002686
vertex -0.539748847485 4.30144500732 -223.350006104
endloop
endfacet
facet normal -0.999999940395 -0.000250338518526 0.0
outer loop
vertex -0.606415510178 4.30145311356 -219.759002686
vertex -0.606402993202 4.25145292282 -223.350006104
vertex -0.606402993202 4.25145292282 -219.759002686
endloop
endfacet
facet normal -0.999999940395 -0.000250338518526 0.0
outer loop
vertex -0.606415510178 4.30145311356 -223.350006104
vertex -0.606402993202 4.25145292282 -223.350006104
vertex -0.606415510178 4.30145311356 -219.759002686
endloop
endfacet
facet normal -0.00160306238104 -0.999998688698 0.0
outer loop
vertex -0.406514078379 4.25128126144 -223.350006104
vertex -0.406514078379 4.25128126144 -219.759002686
vertex -0.473143666983 4.25138807297 -223.350006104
endloop
endfacet
facet normal -0.000858783023432 -0.999999642372 -1.32786553309e-07
outer loop
vertex -0.473143666983 4.25138807297 -223.350006104
vertex -0.473143666983 4.25138759613 -219.759002686
vertex -0.539773344994 4.25144529343 -223.350006104
endloop
endfacet
facet normal -0.00159590574913 -0.999998688698 -1.32786070139e-07
outer loop
vertex -0.406514078379 4.25128126144 -219.759002686
vertex -0.473143666983 4.25138759613 -219.759002686
vertex -0.473143666983 4.25138807297 -223.350006104
endloop
endfacet
facet normal -0.000114504502562 -1.0 1.9005829896e-12
outer loop
vertex -0.539773344994 4.25144529343 -223.350006104
vertex -0.539773285389 4.25144529343 -219.759002686
vertex -0.606402993202 4.25145292282 -223.350006104
endloop
endfacet
facet normal -0.000865940353833 -0.999999642372 1.52046656515e-11
outer loop
vertex -0.473143666983 4.25138759613 -219.759002686
vertex -0.539773285389 4.25144529343 -219.759002686
vertex -0.539773344994 4.25144529343 -223.350006104
endloop
endfacet
facet normal -0.000114504393423 -1.0 0.0
outer loop
vertex -0.539773285389 4.25144529343 -219.759002686
vertex -0.606402993202 4.25145292282 -219.759002686
vertex -0.606402993202 4.25145292282 -223.350006104
endloop
endfacet
facet normal 0.999998033047 -0.00196934491396 0.0
outer loop
vertex -0.406514078379 4.25128126144 -219.759002686
vertex -0.406415611506 4.30128097534 -223.350006104
vertex -0.406415611506 4.30128097534 -219.759002686
endloop
endfacet
facet normal 0.999998033047 -0.00196934491396 0.0
outer loop
vertex -0.406514078379 4.25128126144 -223.350006104
vertex -0.406415611506 4.30128097534 -223.350006104
vertex -0.406514078379 4.25128126144 -219.759002686
endloop
endfacet
facet normal 0.0 0.0 -1.0
outer loop
vertex -0.539773344994 4.25144529343 -223.350006104
vertex -0.606402993202 4.25145292282 -223.350006104
vertex -0.606415510178 4.30145311356 -223.350006104
endloop
endfacet
facet normal -0.0 0.0 -1.0
outer loop
vertex -0.539748847485 4.30144500732 -223.350006104
vertex -0.539773344994 4.25144529343 -223.350006104
vertex -0.606415510178 4.30145311356 -223.350006104
endloop
endfacet
facet normal 0.0 0.0 -1.0
outer loop
vertex -0.473082184792 4.30138778687 -223.350006104
vertex -0.473143666983 4.25138807297 -223.350006104
vertex -0.539773344994 4.25144529343 -223.350006104
endloop
endfacet
facet normal -0.0 0.0 -1.0
outer loop
vertex -0.473082184792 4.30138778687 -223.350006104
vertex -0.539773344994 4.25144529343 -223.350006104
vertex -0.539748847485 4.30144500732 -223.350006104
endloop
endfacet
facet normal 0.0 0.0 -1.0
outer loop
vertex -0.406415611506 4.30128097534 -223.350006104
vertex -0.406514078379 4.25128126144 -223.350006104
vertex -0.473143666983 4.25138807297 -223.350006104
endloop
endfacet
facet normal -0.0 0.0 -1.0
outer loop
vertex -0.406415611506 4.30128097534 -223.350006104
vertex -0.473143666983 4.25138807297 -223.350006104
vertex -0.473082184792 4.30138778687 -223.350006104
endloop
endfacet
facet normal 0.0 -0.0 1.0
outer loop
vertex -0.539773285389 4.25144529343 -219.759002686
vertex -0.539748847485 4.30144500732 -219.759002686
vertex -0.606402993202 4.25145292282 -219.759002686
endloop
endfacet
facet normal 0.0 -0.0 1.0
outer loop
vertex -0.606402993202 4.25145292282 -219.759002686
vertex -0.539748847485 4.30144500732 -219.759002686
vertex -0.606415510178 4.30145311356 -219.759002686
endloop
endfacet
facet normal -0.0 0.0 1.0
outer loop
vertex -0.539773285389 4.25144529343 -219.759002686
vertex -0.473143666983 4.25138759613 -219.759002686
vertex -0.539748847485 4.30144500732 -219.759002686
endloop
endfacet
facet normal 0.0 -0.0 1.0
outer loop
vertex -0.473143666983 4.25138759613 -219.759002686
vertex -0.473082184792 4.30138778687 -219.759002686
vertex -0.539748847485 4.30144500732 -219.759002686
endloop
endfacet
facet normal -0.0 0.0 1.0
outer loop
vertex -0.473143666983 4.25138759613 -219.759002686
vertex -0.406514078379 4.25128126144 -219.759002686
vertex -0.473082184792 4.30138778687 -219.759002686
endloop
endfacet
facet normal 0.0 -0.0 1.0
outer loop
vertex -0.406514078379 4.25128126144 -219.759002686
vertex -0.406415611506 4.30128097534 -219.759002686
vertex -0.473082184792 4.30138778687 -219.759002686
endloop
endfacet
