solid 
facet normal 0.0172590520233 -0.999851047993 -1.33510425826e-07
outer loop
vertex 0.606420397758 -4.30145311356 -63.9070014954
vertex 0.606420397758 -4.30145263672 -67.4780044556
vertex 3.67148256302 -4.24854469299 -67.4780044556
endloop
endfacet
facet normal 0.0512569956481 -0.998685479164 0.0
outer loop
vertex 3.67148256302 -4.24854469299 -63.9070014954
vertex 3.67148256302 -4.24854469299 -67.4780044556
vertex 6.73297166824 -4.09141540527 -67.4780044556
endloop
endfacet
facet normal 0.0172592066228 -0.999851047993 0.0
outer loop
vertex 3.67148256302 -4.24854469299 -63.9070014954
vertex 0.606420397758 -4.30145311356 -63.9070014954
vertex 3.67148256302 -4.24854469299 -67.4780044556
endloop
endfacet
facet normal 0.0851956009865 -0.996364235878 0.0
outer loop
vertex 6.73297166824 -4.09141540527 -63.9070014954
vertex 6.73297166824 -4.09141540527 -67.4780044556
vertex 9.78734493256 -3.83024668694 -67.4780044556
endloop
endfacet
facet normal 0.0512569956481 -0.998685479164 0.0
outer loop
vertex 6.73297166824 -4.09141540527 -63.9070014954
vertex 3.67148256302 -4.24854469299 -63.9070014954
vertex 6.73297166824 -4.09141540527 -67.4780044556
endloop
endfacet
facet normal 0.0851956009865 -0.996364235878 0.0
outer loop
vertex 9.78734493256 -3.83024668694 -63.9070014954
vertex 6.73297166824 -4.09141540527 -63.9070014954
vertex 9.78734493256 -3.83024668694 -67.4780044556
endloop
endfacet
facet normal 0.994772136211 0.102119371295 0.0
outer loop
vertex 9.78734493256 -3.83024668694 -63.9070014954
vertex 9.78734493256 -3.83024668694 -67.4780044556
vertex 9.78223896027 -3.78050804138 -67.4780044556
endloop
endfacet
facet normal 0.994772136211 0.102119371295 0.0
outer loop
vertex 9.78223896027 -3.78050804138 -63.9070014954
vertex 9.78734493256 -3.83024668694 -63.9070014954
vertex 9.78223896027 -3.78050804138 -67.4780044556
endloop
endfacet
facet normal -0.017259137705 0.999851047993 0.0
outer loop
vertex 0.606407880783 -4.25145292282 -67.4780044556
vertex 0.606407880783 -4.25145292282 -63.9070014954
vertex 3.66976952553 -4.19857406616 -67.4780044556
endloop
endfacet
facet normal -0.017259137705 0.999851047993 0.0
outer loop
vertex 0.606407880783 -4.25145292282 -63.9070014954
vertex 3.66976952553 -4.19857406616 -63.9070014954
vertex 3.66976952553 -4.19857406616 -67.4780044556
endloop
endfacet
facet normal -0.0512571260333 0.998685479164 1.33472880748e-07
outer loop
vertex 3.66976952553 -4.19857406616 -67.4780044556
vertex 6.72955989838 -4.04153203964 -63.9070014954
vertex 6.72955989838 -4.04153156281 -67.4780044556
endloop
endfacet
facet normal -0.0851954966784 0.996364235878 1.33044835593e-07
outer loop
vertex 6.72955989838 -4.04153156281 -67.4780044556
vertex 6.72955989838 -4.04153203964 -63.9070014954
vertex 9.78223896027 -3.78050804138 -67.4780044556
endloop
endfacet
facet normal -0.0512569732964 0.998685538769 0.0
outer loop
vertex 3.66976952553 -4.19857406616 -63.9070014954
vertex 6.72955989838 -4.04153203964 -63.9070014954
vertex 3.66976952553 -4.19857406616 -67.4780044556
endloop
endfacet
facet normal -0.08519564569 0.996364235878 0.0
outer loop
vertex 6.72955989838 -4.04153203964 -63.9070014954
vertex 9.78223896027 -3.78050804138 -63.9070014954
vertex 9.78223896027 -3.78050804138 -67.4780044556
endloop
endfacet
facet normal -0.999999940395 -0.000250340934144 -0.0
outer loop
vertex 0.606407880783 -4.25145292282 -63.9070014954
vertex 0.606407880783 -4.25145292282 -67.4780044556
vertex 0.606420397758 -4.30145263672 -67.4780044556
endloop
endfacet
facet normal -0.999999940395 -0.00025033854763 -3.34277848457e-11
outer loop
vertex 0.606420397758 -4.30145311356 -63.9070014954
vertex 0.606407880783 -4.25145292282 -63.9070014954
vertex 0.606420397758 -4.30145263672 -67.4780044556
endloop
endfacet
facet normal -0.0 0.0 1.0
outer loop
vertex 6.72955989838 -4.04153203964 -63.9070014954
vertex 6.73297166824 -4.09141540527 -63.9070014954
vertex 9.78223896027 -3.78050804138 -63.9070014954
endloop
endfacet
facet normal 0.0 0.0 1.0
outer loop
vertex 9.78223896027 -3.78050804138 -63.9070014954
vertex 6.73297166824 -4.09141540527 -63.9070014954
vertex 9.78734493256 -3.83024668694 -63.9070014954
endloop
endfacet
facet normal -0.0 0.0 1.0
outer loop
vertex 3.66976952553 -4.19857406616 -63.9070014954
vertex 3.67148256302 -4.24854469299 -63.9070014954
vertex 6.72955989838 -4.04153203964 -63.9070014954
endloop
endfacet
facet normal 0.0 0.0 1.0
outer loop
vertex 6.72955989838 -4.04153203964 -63.9070014954
vertex 3.67148256302 -4.24854469299 -63.9070014954
vertex 6.73297166824 -4.09141540527 -63.9070014954
endloop
endfacet
facet normal -0.0 0.0 1.0
outer loop
vertex 0.606407880783 -4.25145292282 -63.9070014954
vertex 0.606420397758 -4.30145311356 -63.9070014954
vertex 3.66976952553 -4.19857406616 -63.9070014954
endloop
endfacet
facet normal 0.0 0.0 1.0
outer loop
vertex 3.66976952553 -4.19857406616 -63.9070014954
vertex 0.606420397758 -4.30145311356 -63.9070014954
vertex 3.67148256302 -4.24854469299 -63.9070014954
endloop
endfacet
facet normal 0.0 0.0 -1.0
outer loop
vertex 6.72955989838 -4.04153156281 -67.4780044556
vertex 9.78223896027 -3.78050804138 -67.4780044556
vertex 9.78734493256 -3.83024668694 -67.4780044556
endloop
endfacet
facet normal 0.0 0.0 -1.0
outer loop
vertex 6.73297166824 -4.09141540527 -67.4780044556
vertex 6.72955989838 -4.04153156281 -67.4780044556
vertex 9.78734493256 -3.83024668694 -67.4780044556
endloop
endfacet
facet normal 0.0 0.0 -1.0
outer loop
vertex 3.66976952553 -4.19857406616 -67.4780044556
vertex 6.72955989838 -4.04153156281 -67.4780044556
vertex 6.73297166824 -4.09141540527 -67.4780044556
endloop
endfacet
facet normal 0.0 0.0 -1.0
outer loop
vertex 3.67148256302 -4.24854469299 -67.4780044556
vertex 3.66976952553 -4.19857406616 -67.4780044556
vertex 6.73297166824 -4.09141540527 -67.4780044556
endloop
endfacet
facet normal 0.0 0.0 -1.0
outer loop
vertex 0.606407880783 -4.25145292282 -67.4780044556
vertex 3.66976952553 -4.19857406616 -67.4780044556
vertex 3.67148256302 -4.24854469299 -67.4780044556
endloop
endfacet
facet normal 0.0 0.0 -1.0
outer loop
vertex 0.606420397758 -4.30145263672 -67.4780044556
vertex 0.606407880783 -4.25145292282 -67.4780044556
vertex 3.67148256302 -4.24854469299 -67.4780044556
endloop
endfacet
