solid 
facet normal -0.0172592066228 0.999851047993 0.0
outer loop
vertex -3.67149353027 4.24854469299 103.628005981
vertex -0.606431365013 4.30145311356 103.628005981
vertex -0.606431365013 4.30145311356 100.056999207
endloop
endfacet
facet normal -0.0172592066228 0.999851047993 0.0
outer loop
vertex -3.67149353027 4.24854469299 103.628005981
vertex -0.606431365013 4.30145311356 100.056999207
vertex -3.67149353027 4.24854469299 100.056999207
endloop
endfacet
facet normal -0.0512571521103 0.998685479164 0.0
outer loop
vertex -6.7329826355 4.09141492844 103.628005981
vertex -3.67149353027 4.24854469299 100.056999207
vertex -6.7329826355 4.09141492844 100.056999207
endloop
endfacet
facet normal -0.0512571521103 0.998685479164 0.0
outer loop
vertex -6.7329826355 4.09141492844 103.628005981
vertex -3.67149353027 4.24854469299 103.628005981
vertex -3.67149353027 4.24854469299 100.056999207
endloop
endfacet
facet normal -0.0851957425475 0.996364235878 6.65223467422e-08
outer loop
vertex -9.78735637665 3.83024549484 103.628005981
vertex -6.7329826355 4.09141492844 100.056999207
vertex -9.78735637665 3.83024573326 100.056999207
endloop
endfacet
facet normal -0.0851958245039 0.996364235878 0.0
outer loop
vertex -9.78735637665 3.83024549484 103.628005981
vertex -6.7329826355 4.09141492844 103.628005981
vertex -6.7329826355 4.09141492844 100.056999207
endloop
endfacet
facet normal -0.994770169258 -0.102138735354 -6.81930112378e-09
outer loop
vertex -9.78735637665 3.83024549484 103.628005981
vertex -9.78735637665 3.83024573326 100.056999207
vertex -9.78224945068 3.78050708771 103.628005981
endloop
endfacet
facet normal -0.994770169258 -0.102138735354 -6.68304256379e-09
outer loop
vertex -9.78735637665 3.83024573326 100.056999207
vertex -9.78224945068 3.78050732613 100.056999207
vertex -9.78224945068 3.78050708771 103.628005981
endloop
endfacet
facet normal 0.0172592923045 -0.999851047993 0.0
outer loop
vertex -0.606418848038 4.25145339966 100.056999207
vertex -3.66978049278 4.19857406616 103.628005981
vertex -3.66978049278 4.19857406616 100.056999207
endloop
endfacet
facet normal 0.0512571297586 -0.998685479164 0.0
outer loop
vertex -3.66978049278 4.19857406616 100.056999207
vertex -3.66978049278 4.19857406616 103.628005981
vertex -6.72957086563 4.04153156281 100.056999207
endloop
endfacet
facet normal 0.0172591358423 -0.999851047993 -1.33510283717e-07
outer loop
vertex -0.606418848038 4.25145292282 103.628005981
vertex -3.66978049278 4.19857406616 103.628005981
vertex -0.606418848038 4.25145339966 100.056999207
endloop
endfacet
facet normal 0.0512572862208 -0.998685479164 -1.33472738639e-07
outer loop
vertex -3.66978049278 4.19857406616 103.628005981
vertex -6.72957086563 4.04153108597 103.628005981
vertex -6.72957086563 4.04153156281 100.056999207
endloop
endfacet
facet normal 0.0851957425475 -0.996364235878 -6.53744010037e-08
outer loop
vertex -6.72957086563 4.04153156281 100.056999207
vertex -9.78224945068 3.78050708771 103.628005981
vertex -9.78224945068 3.78050732613 100.056999207
endloop
endfacet
facet normal 0.0851956680417 -0.996364235878 -1.33044693484e-07
outer loop
vertex -6.72957086563 4.04153108597 103.628005981
vertex -9.78224945068 3.78050708771 103.628005981
vertex -6.72957086563 4.04153156281 100.056999207
endloop
endfacet
facet normal 1.0 0.00025033854763 3.34277501512e-11
outer loop
vertex -0.606418848038 4.25145292282 103.628005981
vertex -0.606418848038 4.25145339966 100.056999207
vertex -0.606431365013 4.30145311356 103.628005981
endloop
endfacet
facet normal 0.999999940395 0.000250340934144 0.0
outer loop
vertex -0.606418848038 4.25145339966 100.056999207
vertex -0.606431365013 4.30145311356 100.056999207
vertex -0.606431365013 4.30145311356 103.628005981
endloop
endfacet
facet normal 0.0 -0.0 -1.0
outer loop
vertex -6.7329826355 4.09141492844 100.056999207
vertex -6.72957086563 4.04153156281 100.056999207
vertex -9.78224945068 3.78050732613 100.056999207
endloop
endfacet
facet normal 0.0 0.0 -1.0
outer loop
vertex -6.7329826355 4.09141492844 100.056999207
vertex -9.78224945068 3.78050732613 100.056999207
vertex -9.78735637665 3.83024573326 100.056999207
endloop
endfacet
facet normal 0.0 -0.0 -1.0
outer loop
vertex -3.67149353027 4.24854469299 100.056999207
vertex -3.66978049278 4.19857406616 100.056999207
vertex -6.72957086563 4.04153156281 100.056999207
endloop
endfacet
facet normal 0.0 0.0 -1.0
outer loop
vertex -3.67149353027 4.24854469299 100.056999207
vertex -6.72957086563 4.04153156281 100.056999207
vertex -6.7329826355 4.09141492844 100.056999207
endloop
endfacet
facet normal 0.0 -0.0 -1.0
outer loop
vertex -0.606431365013 4.30145311356 100.056999207
vertex -0.606418848038 4.25145339966 100.056999207
vertex -3.66978049278 4.19857406616 100.056999207
endloop
endfacet
facet normal 0.0 0.0 -1.0
outer loop
vertex -0.606431365013 4.30145311356 100.056999207
vertex -3.66978049278 4.19857406616 100.056999207
vertex -3.67149353027 4.24854469299 100.056999207
endloop
endfacet
facet normal 0.0 -0.0 1.0
outer loop
vertex -9.78224945068 3.78050708771 103.628005981
vertex -6.72957086563 4.04153108597 103.628005981
vertex -9.78735637665 3.83024549484 103.628005981
endloop
endfacet
facet normal 0.0 0.0 1.0
outer loop
vertex -6.72957086563 4.04153108597 103.628005981
vertex -6.7329826355 4.09141492844 103.628005981
vertex -9.78735637665 3.83024549484 103.628005981
endloop
endfacet
facet normal 0.0 -0.0 1.0
outer loop
vertex -6.72957086563 4.04153108597 103.628005981
vertex -3.66978049278 4.19857406616 103.628005981
vertex -6.7329826355 4.09141492844 103.628005981
endloop
endfacet
facet normal 0.0 0.0 1.0
outer loop
vertex -3.66978049278 4.19857406616 103.628005981
vertex -3.67149353027 4.24854469299 103.628005981
vertex -6.7329826355 4.09141492844 103.628005981
endloop
endfacet
facet normal 0.0 -0.0 1.0
outer loop
vertex -3.66978049278 4.19857406616 103.628005981
vertex -0.606418848038 4.25145292282 103.628005981
vertex -3.67149353027 4.24854469299 103.628005981
endloop
endfacet
facet normal 0.0 0.0 1.0
outer loop
vertex -0.606418848038 4.25145292282 103.628005981
vertex -0.606431365013 4.30145311356 103.628005981
vertex -3.67149353027 4.24854469299 103.628005981
endloop
endfacet
