solid 
facet normal 0.0172592066228 -0.999851047993 0.0
outer loop
vertex 0.60642594099 -4.30145311356 -78.3909988403
vertex 0.60642594099 -4.30145311356 -81.9620056152
vertex 3.67148804665 -4.24854469299 -81.9620056152
endloop
endfacet
facet normal 0.051257148385 -0.998685479164 0.0
outer loop
vertex 3.67148804665 -4.24854469299 -78.3909988403
vertex 3.67148804665 -4.24854469299 -81.9620056152
vertex 6.73297739029 -4.09141492844 -81.9620056152
endloop
endfacet
facet normal 0.0172592066228 -0.999851047993 0.0
outer loop
vertex 3.67148804665 -4.24854469299 -78.3909988403
vertex 0.60642594099 -4.30145311356 -78.3909988403
vertex 3.67148804665 -4.24854469299 -81.9620056152
endloop
endfacet
facet normal 0.0851956009865 -0.996364235878 -1.33044693484e-07
outer loop
vertex 6.73297739029 -4.09141540527 -78.3909988403
vertex 6.73297739029 -4.09141492844 -81.9620056152
vertex 9.7873506546 -3.8302462101 -81.9620056152
endloop
endfacet
facet normal 0.0512569919229 -0.998685479164 -1.33354646437e-07
outer loop
vertex 6.73297739029 -4.09141540527 -78.3909988403
vertex 3.67148804665 -4.24854469299 -78.3909988403
vertex 6.73297739029 -4.09141492844 -81.9620056152
endloop
endfacet
facet normal 0.0851956829429 -0.996364235878 -6.65223467422e-08
outer loop
vertex 9.7873506546 -3.83024644852 -78.3909988403
vertex 6.73297739029 -4.09141540527 -78.3909988403
vertex 9.7873506546 -3.8302462101 -81.9620056152
endloop
endfacet
facet normal 0.994770169258 0.102138735354 6.81930112378e-09
outer loop
vertex 9.7873506546 -3.83024644852 -78.3909988403
vertex 9.7873506546 -3.8302462101 -81.9620056152
vertex 9.78224372864 -3.78050780296 -81.9620056152
endloop
endfacet
facet normal 0.994770228863 0.102138243616 0.0
outer loop
vertex 9.78224372864 -3.78050780296 -78.3909988403
vertex 9.7873506546 -3.83024644852 -78.3909988403
vertex 9.78224372864 -3.78050780296 -81.9620056152
endloop
endfacet
facet normal -0.0172591358423 0.999851047993 1.33510283717e-07
outer loop
vertex 0.606413424015 -4.25145292282 -81.9620056152
vertex 0.606413424015 -4.25145339966 -78.3909988403
vertex 3.66977500916 -4.19857406616 -81.9620056152
endloop
endfacet
facet normal -0.0172592923045 0.999851047993 0.0
outer loop
vertex 0.606413424015 -4.25145339966 -78.3909988403
vertex 3.66977500916 -4.19857406616 -78.3909988403
vertex 3.66977500916 -4.19857406616 -81.9620056152
endloop
endfacet
facet normal -0.051257122308 0.998685479164 1.33472724428e-07
outer loop
vertex 3.66977500916 -4.19857406616 -81.9620056152
vertex 6.72956562042 -4.04153203964 -78.3909988403
vertex 6.72956562042 -4.04153156281 -81.9620056152
endloop
endfacet
facet normal -0.0851956009865 0.996364235878 1.33044679274e-07
outer loop
vertex 6.72956562042 -4.04153156281 -81.9620056152
vertex 6.72956562042 -4.04153203964 -78.3909988403
vertex 9.78224372864 -3.78050780296 -81.9620056152
endloop
endfacet
facet normal -0.0512569770217 0.998685538769 0.0
outer loop
vertex 3.66977500916 -4.19857406616 -78.3909988403
vertex 6.72956562042 -4.04153203964 -78.3909988403
vertex 3.66977500916 -4.19857406616 -81.9620056152
endloop
endfacet
facet normal -0.0851957499981 0.996364235878 0.0
outer loop
vertex 6.72956562042 -4.04153203964 -78.3909988403
vertex 9.78224372864 -3.78050780296 -78.3909988403
vertex 9.78224372864 -3.78050780296 -81.9620056152
endloop
endfacet
facet normal -1.0 -0.00025033854763 -3.34277501512e-11
outer loop
vertex 0.606413424015 -4.25145339966 -78.3909988403
vertex 0.606413424015 -4.25145292282 -81.9620056152
vertex 0.60642594099 -4.30145311356 -81.9620056152
endloop
endfacet
facet normal -0.999999940395 -0.000250340934144 -0.0
outer loop
vertex 0.60642594099 -4.30145311356 -78.3909988403
vertex 0.606413424015 -4.25145339966 -78.3909988403
vertex 0.60642594099 -4.30145311356 -81.9620056152
endloop
endfacet
facet normal -0.0 0.0 1.0
outer loop
vertex 6.72956562042 -4.04153203964 -78.3909988403
vertex 6.73297739029 -4.09141540527 -78.3909988403
vertex 9.78224372864 -3.78050780296 -78.3909988403
endloop
endfacet
facet normal 0.0 0.0 1.0
outer loop
vertex 9.78224372864 -3.78050780296 -78.3909988403
vertex 6.73297739029 -4.09141540527 -78.3909988403
vertex 9.7873506546 -3.83024644852 -78.3909988403
endloop
endfacet
facet normal -0.0 0.0 1.0
outer loop
vertex 3.66977500916 -4.19857406616 -78.3909988403
vertex 3.67148804665 -4.24854469299 -78.3909988403
vertex 6.72956562042 -4.04153203964 -78.3909988403
endloop
endfacet
facet normal 0.0 0.0 1.0
outer loop
vertex 6.72956562042 -4.04153203964 -78.3909988403
vertex 3.67148804665 -4.24854469299 -78.3909988403
vertex 6.73297739029 -4.09141540527 -78.3909988403
endloop
endfacet
facet normal -0.0 0.0 1.0
outer loop
vertex 0.606413424015 -4.25145339966 -78.3909988403
vertex 0.60642594099 -4.30145311356 -78.3909988403
vertex 3.66977500916 -4.19857406616 -78.3909988403
endloop
endfacet
facet normal 0.0 0.0 1.0
outer loop
vertex 3.66977500916 -4.19857406616 -78.3909988403
vertex 0.60642594099 -4.30145311356 -78.3909988403
vertex 3.67148804665 -4.24854469299 -78.3909988403
endloop
endfacet
facet normal 0.0 0.0 -1.0
outer loop
vertex 6.72956562042 -4.04153156281 -81.9620056152
vertex 9.78224372864 -3.78050780296 -81.9620056152
vertex 9.7873506546 -3.8302462101 -81.9620056152
endloop
endfacet
facet normal 0.0 0.0 -1.0
outer loop
vertex 6.73297739029 -4.09141492844 -81.9620056152
vertex 6.72956562042 -4.04153156281 -81.9620056152
vertex 9.7873506546 -3.8302462101 -81.9620056152
endloop
endfacet
facet normal 0.0 0.0 -1.0
outer loop
vertex 3.66977500916 -4.19857406616 -81.9620056152
vertex 6.72956562042 -4.04153156281 -81.9620056152
vertex 6.73297739029 -4.09141492844 -81.9620056152
endloop
endfacet
facet normal 0.0 0.0 -1.0
outer loop
vertex 3.67148804665 -4.24854469299 -81.9620056152
vertex 3.66977500916 -4.19857406616 -81.9620056152
vertex 6.73297739029 -4.09141492844 -81.9620056152
endloop
endfacet
facet normal 0.0 0.0 -1.0
outer loop
vertex 0.606413424015 -4.25145292282 -81.9620056152
vertex 3.66977500916 -4.19857406616 -81.9620056152
vertex 3.67148804665 -4.24854469299 -81.9620056152
endloop
endfacet
facet normal 0.0 0.0 -1.0
outer loop
vertex 0.60642594099 -4.30145311356 -81.9620056152
vertex 0.606413424015 -4.25145292282 -81.9620056152
vertex 3.67148804665 -4.24854469299 -81.9620056152
endloop
endfacet
