solid 
facet normal -0.120357505977 0.992730617523 0.0
outer loop
vertex -9.90670490265 3.81791162491 -245.035995483
vertex -9.90670490265 3.81791162491 -248.606994629
vertex -12.9499397278 3.44895339012 -248.606994629
endloop
endfacet
facet normal -0.154053553939 0.988062500954 0.0
outer loop
vertex -12.9499397278 3.44895339012 -245.035995483
vertex -12.9499397278 3.44895339012 -248.606994629
vertex -15.9788637161 2.97669935226 -248.606994629
endloop
endfacet
facet normal -0.120357505977 0.992730617523 0.0
outer loop
vertex -12.9499397278 3.44895339012 -245.035995483
vertex -9.90670490265 3.81791162491 -245.035995483
vertex -12.9499397278 3.44895339012 -248.606994629
endloop
endfacet
facet normal -0.187571361661 0.982250988483 6.55802097072e-08
outer loop
vertex -15.9788637161 2.97669911385 -245.035995483
vertex -15.9788637161 2.97669935226 -248.606994629
vertex -18.9899730682 2.4016957283 -248.606994629
endloop
endfacet
facet normal -0.154053628445 0.988062500954 6.59682228843e-08
outer loop
vertex -15.9788637161 2.97669911385 -245.035995483
vertex -12.9499397278 3.44895339012 -245.035995483
vertex -15.9788637161 2.97669935226 -248.606994629
endloop
endfacet
facet normal -0.187571272254 0.982250988483 0.0
outer loop
vertex -18.9899730682 2.4016957283 -245.035995483
vertex -15.9788637161 2.97669911385 -245.035995483
vertex -18.9899730682 2.4016957283 -248.606994629
endloop
endfacet
facet normal -0.97891330719 -0.204276055098 5.22904826994e-07
outer loop
vertex -18.9899730682 2.4016957283 -245.035995483
vertex -18.9797611237 2.35274982452 -248.606994629
vertex -18.9797592163 2.35274982452 -245.035995483
endloop
endfacet
facet normal -0.978920996189 -0.204239502549 0.0
outer loop
vertex -18.9899730682 2.4016957283 -248.606994629
vertex -18.9797611237 2.35274982452 -248.606994629
vertex -18.9899730682 2.4016957283 -245.035995483
endloop
endfacet
facet normal 0.120357491076 -0.992730617523 0.0
outer loop
vertex -9.90153217316 3.76817989349 -248.606994629
vertex -9.90153217316 3.76817989349 -245.035995483
vertex -12.9430780411 3.39942646027 -248.606994629
endloop
endfacet
facet normal 0.154053628445 -0.988062500954 0.0
outer loop
vertex -12.9430780411 3.39942646027 -248.606994629
vertex -12.9430780411 3.39942646027 -245.035995483
vertex -15.9703216553 2.92743420601 -248.606994629
endloop
endfacet
facet normal 0.120357491076 -0.992730617523 0.0
outer loop
vertex -9.90153217316 3.76817989349 -245.035995483
vertex -12.9430780411 3.39942646027 -245.035995483
vertex -12.9430780411 3.39942646027 -248.606994629
endloop
endfacet
facet normal 0.187571242452 -0.982250988483 0.0
outer loop
vertex -15.9703216553 2.92743420601 -248.606994629
vertex -15.9703216553 2.92743420601 -245.035995483
vertex -18.9797611237 2.35274982452 -248.606994629
endloop
endfacet
facet normal 0.154053628445 -0.988062500954 0.0
outer loop
vertex -12.9430780411 3.39942646027 -245.035995483
vertex -15.9703216553 2.92743420601 -245.035995483
vertex -15.9703216553 2.92743420601 -248.606994629
endloop
endfacet
facet normal 0.187571361661 -0.982250988483 -9.80618253266e-08
outer loop
vertex -15.9703216553 2.92743420601 -245.035995483
vertex -18.9797592163 2.35274982452 -245.035995483
vertex -18.9797611237 2.35274982452 -248.606994629
endloop
endfacet
facet normal 0.994634151459 0.10345454514 0.0
outer loop
vertex -9.90153217316 3.76817989349 -245.035995483
vertex -9.90153217316 3.76817989349 -248.606994629
vertex -9.90670490265 3.81791162491 -245.035995483
endloop
endfacet
facet normal 0.994634151459 0.10345454514 0.0
outer loop
vertex -9.90153217316 3.76817989349 -248.606994629
vertex -9.90670490265 3.81791162491 -248.606994629
vertex -9.90670490265 3.81791162491 -245.035995483
endloop
endfacet
facet normal 0.0 -0.0 -1.0
outer loop
vertex -15.9788637161 2.97669935226 -248.606994629
vertex -15.9703216553 2.92743420601 -248.606994629
vertex -18.9797611237 2.35274982452 -248.606994629
endloop
endfacet
facet normal 0.0 0.0 -1.0
outer loop
vertex -15.9788637161 2.97669935226 -248.606994629
vertex -18.9797611237 2.35274982452 -248.606994629
vertex -18.9899730682 2.4016957283 -248.606994629
endloop
endfacet
facet normal 0.0 -0.0 -1.0
outer loop
vertex -12.9499397278 3.44895339012 -248.606994629
vertex -12.9430780411 3.39942646027 -248.606994629
vertex -15.9703216553 2.92743420601 -248.606994629
endloop
endfacet
facet normal 0.0 0.0 -1.0
outer loop
vertex -12.9499397278 3.44895339012 -248.606994629
vertex -15.9703216553 2.92743420601 -248.606994629
vertex -15.9788637161 2.97669935226 -248.606994629
endloop
endfacet
facet normal 0.0 -0.0 -1.0
outer loop
vertex -9.90670490265 3.81791162491 -248.606994629
vertex -9.90153217316 3.76817989349 -248.606994629
vertex -12.9430780411 3.39942646027 -248.606994629
endloop
endfacet
facet normal 0.0 0.0 -1.0
outer loop
vertex -9.90670490265 3.81791162491 -248.606994629
vertex -12.9430780411 3.39942646027 -248.606994629
vertex -12.9499397278 3.44895339012 -248.606994629
endloop
endfacet
facet normal 0.0 0.0 1.0
outer loop
vertex -15.9703216553 2.92743420601 -245.035995483
vertex -15.9788637161 2.97669911385 -245.035995483
vertex -18.9797592163 2.35274982452 -245.035995483
endloop
endfacet
facet normal 0.0 -0.0 1.0
outer loop
vertex -18.9797592163 2.35274982452 -245.035995483
vertex -15.9788637161 2.97669911385 -245.035995483
vertex -18.9899730682 2.4016957283 -245.035995483
endloop
endfacet
facet normal 0.0 0.0 1.0
outer loop
vertex -12.9430780411 3.39942646027 -245.035995483
vertex -12.9499397278 3.44895339012 -245.035995483
vertex -15.9703216553 2.92743420601 -245.035995483
endloop
endfacet
facet normal 0.0 -0.0 1.0
outer loop
vertex -15.9703216553 2.92743420601 -245.035995483
vertex -12.9499397278 3.44895339012 -245.035995483
vertex -15.9788637161 2.97669911385 -245.035995483
endloop
endfacet
facet normal 0.0 0.0 1.0
outer loop
vertex -9.90153217316 3.76817989349 -245.035995483
vertex -9.90670490265 3.81791162491 -245.035995483
vertex -12.9430780411 3.39942646027 -245.035995483
endloop
endfacet
facet normal 0.0 -0.0 1.0
outer loop
vertex -12.9430780411 3.39942646027 -245.035995483
vertex -9.90670490265 3.81791162491 -245.035995483
vertex -12.9499397278 3.44895339012 -245.035995483
endloop
endfacet
