solid 
facet normal -0.0172593612224 0.999851047993 0.0
outer loop
vertex -3.67149949074 4.24854421616 -147.539001465
vertex -0.606437206268 4.30145311356 -147.539001465
vertex -0.606437265873 4.30145311356 -151.11000061
endloop
endfacet
facet normal -0.0172593612224 0.999851047993 0.0
outer loop
vertex -3.67149949074 4.24854421616 -147.539001465
vertex -0.606437265873 4.30145311356 -151.11000061
vertex -3.67149949074 4.24854421616 -151.11000061
endloop
endfacet
facet normal -0.051257148385 0.998685479164 1.33354930654e-07
outer loop
vertex -6.73298883438 4.09141397476 -147.539001465
vertex -3.67149949074 4.24854421616 -151.11000061
vertex -6.73298883438 4.0914144516 -151.11000061
endloop
endfacet
facet normal -0.0512573048472 0.998685479164 0.0
outer loop
vertex -6.73298883438 4.09141397476 -147.539001465
vertex -3.67149949074 4.24854421616 -147.539001465
vertex -3.67149949074 4.24854421616 -151.11000061
endloop
endfacet
facet normal -0.0851958319545 0.996364235878 6.65224888508e-08
outer loop
vertex -9.78736209869 3.83024477959 -147.539001465
vertex -6.73298883438 4.0914144516 -151.11000061
vertex -9.78736209869 3.83024501801 -151.11000061
endloop
endfacet
facet normal -0.0851957499981 0.996364235878 1.30676539811e-07
outer loop
vertex -9.78736209869 3.83024477959 -147.539001465
vertex -6.73298883438 4.09141397476 -147.539001465
vertex -6.73298883438 4.0914144516 -151.11000061
endloop
endfacet
facet normal -0.994770169258 -0.102138735354 -6.81931577873e-09
outer loop
vertex -9.78736209869 3.83024477959 -147.539001465
vertex -9.78736209869 3.83024501801 -151.11000061
vertex -9.78225517273 3.78050637245 -147.539001465
endloop
endfacet
facet normal -0.994770228863 -0.102138251066 0.0
outer loop
vertex -9.78736209869 3.83024501801 -151.11000061
vertex -9.78225517273 3.78050637245 -151.11000061
vertex -9.78225517273 3.78050637245 -147.539001465
endloop
endfacet
facet normal 0.0172594487667 -0.999851047993 -1.3379863617e-07
outer loop
vertex -0.606424748898 4.25145339966 -151.11000061
vertex -0.606424689293 4.25145292282 -147.539001465
vertex -3.66978621483 4.19857358932 -151.11000061
endloop
endfacet
facet normal 0.0172592941672 -0.999851047993 0.0
outer loop
vertex -0.606424689293 4.25145292282 -147.539001465
vertex -3.66978621483 4.19857358932 -147.539001465
vertex -3.66978621483 4.19857358932 -151.11000061
endloop
endfacet
facet normal 0.0512571185827 -0.998685419559 -1.38920867698e-07
outer loop
vertex -3.66978621483 4.19857358932 -151.11000061
vertex -6.72957658768 4.04153060913 -147.539001465
vertex -6.72957706451 4.04153108597 -151.11000061
endloop
endfacet
facet normal 0.0512572824955 -0.998685419559 0.0
outer loop
vertex -3.66978621483 4.19857358932 -147.539001465
vertex -6.72957658768 4.04153060913 -147.539001465
vertex -3.66978621483 4.19857358932 -151.11000061
endloop
endfacet
facet normal 0.0851959064603 -0.996364235878 0.0
outer loop
vertex -6.72957706451 4.04153108597 -151.11000061
vertex -9.78225517273 3.78050637245 -147.539001465
vertex -9.78225517273 3.78050637245 -151.11000061
endloop
endfacet
facet normal 0.0851957425475 -0.996364235878 -1.44421193227e-07
outer loop
vertex -6.72957658768 4.04153060913 -147.539001465
vertex -9.78225517273 3.78050637245 -147.539001465
vertex -6.72957706451 4.04153108597 -151.11000061
endloop
endfacet
facet normal 0.999999940395 0.000250338518526 -1.6691306115e-08
outer loop
vertex -0.606424689293 4.25145292282 -147.539001465
vertex -0.606437265873 4.30145311356 -151.11000061
vertex -0.606437206268 4.30145311356 -147.539001465
endloop
endfacet
facet normal 1.0 0.000250340934144 -1.66578804084e-08
outer loop
vertex -0.606424748898 4.25145339966 -151.11000061
vertex -0.606437265873 4.30145311356 -151.11000061
vertex -0.606424689293 4.25145292282 -147.539001465
endloop
endfacet
facet normal 0.0 0.0 -1.0
outer loop
vertex -6.72957706451 4.04153108597 -151.11000061
vertex -9.78225517273 3.78050637245 -151.11000061
vertex -9.78736209869 3.83024501801 -151.11000061
endloop
endfacet
facet normal 0.0 -0.0 -1.0
outer loop
vertex -6.73298883438 4.0914144516 -151.11000061
vertex -6.72957706451 4.04153108597 -151.11000061
vertex -9.78736209869 3.83024501801 -151.11000061
endloop
endfacet
facet normal 0.0 0.0 -1.0
outer loop
vertex -3.66978621483 4.19857358932 -151.11000061
vertex -6.72957706451 4.04153108597 -151.11000061
vertex -6.73298883438 4.0914144516 -151.11000061
endloop
endfacet
facet normal 0.0 -0.0 -1.0
outer loop
vertex -3.67149949074 4.24854421616 -151.11000061
vertex -3.66978621483 4.19857358932 -151.11000061
vertex -6.73298883438 4.0914144516 -151.11000061
endloop
endfacet
facet normal 0.0 -0.0 -1.0
outer loop
vertex -0.606437265873 4.30145311356 -151.11000061
vertex -0.606424748898 4.25145339966 -151.11000061
vertex -3.66978621483 4.19857358932 -151.11000061
endloop
endfacet
facet normal 0.0 0.0 -1.0
outer loop
vertex -0.606437265873 4.30145311356 -151.11000061
vertex -3.66978621483 4.19857358932 -151.11000061
vertex -3.67149949074 4.24854421616 -151.11000061
endloop
endfacet
facet normal 0.0 -0.0 1.0
outer loop
vertex -9.78225517273 3.78050637245 -147.539001465
vertex -6.72957658768 4.04153060913 -147.539001465
vertex -9.78736209869 3.83024477959 -147.539001465
endloop
endfacet
facet normal 0.0 0.0 1.0
outer loop
vertex -6.72957658768 4.04153060913 -147.539001465
vertex -6.73298883438 4.09141397476 -147.539001465
vertex -9.78736209869 3.83024477959 -147.539001465
endloop
endfacet
facet normal 0.0 -0.0 1.0
outer loop
vertex -6.72957658768 4.04153060913 -147.539001465
vertex -3.66978621483 4.19857358932 -147.539001465
vertex -6.73298883438 4.09141397476 -147.539001465
endloop
endfacet
facet normal 0.0 0.0 1.0
outer loop
vertex -3.66978621483 4.19857358932 -147.539001465
vertex -3.67149949074 4.24854421616 -147.539001465
vertex -6.73298883438 4.09141397476 -147.539001465
endloop
endfacet
facet normal 0.0 0.0 1.0
outer loop
vertex -0.606424689293 4.25145292282 -147.539001465
vertex -0.606437206268 4.30145311356 -147.539001465
vertex -3.66978621483 4.19857358932 -147.539001465
endloop
endfacet
facet normal 0.0 -0.0 1.0
outer loop
vertex -3.66978621483 4.19857358932 -147.539001465
vertex -0.606437206268 4.30145311356 -147.539001465
vertex -3.67149949074 4.24854421616 -147.539001465
endloop
endfacet
