solid 
facet normal -0.102897532284 0.994691967964 -1.9926116579e-07
outer loop
vertex -9.866938591 3.82203984261 -169.205001831
vertex -9.84704399109 3.82409787178 -169.205001831
vertex -9.84704399109 3.82409715652 -172.776000977
endloop
endfacet
facet normal -0.102897532284 0.994691967964 -1.99232516707e-07
outer loop
vertex -9.866938591 3.82203984261 -169.205001831
vertex -9.84704399109 3.82409715652 -172.776000977
vertex -9.866938591 3.82203912735 -172.776000977
endloop
endfacet
facet normal -0.103131383657 0.994667708874 -1.99227656594e-07
outer loop
vertex -9.88683128357 3.81997728348 -169.205001831
vertex -9.866938591 3.82203912735 -172.776000977
vertex -9.88683128357 3.81997656822 -172.776000977
endloop
endfacet
facet normal -0.103131383657 0.994667708874 -1.99224473363e-07
outer loop
vertex -9.88683128357 3.81997728348 -169.205001831
vertex -9.866938591 3.82203984261 -169.205001831
vertex -9.866938591 3.82203912735 -172.776000977
endloop
endfacet
facet normal -0.103343687952 0.994645655155 -1.99223251229e-07
outer loop
vertex -9.90672397614 3.81791043282 -169.205001831
vertex -9.88683128357 3.81997656822 -172.776000977
vertex -9.90672397614 3.81790971756 -172.776000977
endloop
endfacet
facet normal -0.103343687952 0.994645655155 -1.99220067998e-07
outer loop
vertex -9.90672397614 3.81791043282 -169.205001831
vertex -9.88683128357 3.81997728348 -169.205001831
vertex -9.88683128357 3.81997656822 -172.776000977
endloop
endfacet
facet normal -0.994634151459 -0.10345454514 2.07011243702e-08
outer loop
vertex -9.90672397614 3.81791043282 -169.205001831
vertex -9.90155124664 3.76817798615 -172.776000977
vertex -9.90155124664 3.7681787014 -169.205001831
endloop
endfacet
facet normal -0.994634151459 -0.10345454514 2.07214991832e-08
outer loop
vertex -9.90672397614 3.81790971756 -172.776000977
vertex -9.90155124664 3.76817798615 -172.776000977
vertex -9.90672397614 3.81791043282 -169.205001831
endloop
endfacet
facet normal 0.102908916771 -0.994690775871 1.99222725428e-07
outer loop
vertex -9.8419046402 3.77436208725 -172.776000977
vertex -9.86178779602 3.77230572701 -169.205001831
vertex -9.86178779602 3.77230501175 -172.776000977
endloop
endfacet
facet normal 0.102908916771 -0.994690775871 1.99232289333e-07
outer loop
vertex -9.8419046402 3.77436280251 -169.205001831
vertex -9.86178779602 3.77230572701 -169.205001831
vertex -9.8419046402 3.77436208725 -172.776000977
endloop
endfacet
facet normal 0.103126235306 -0.99466830492 1.99227784492e-07
outer loop
vertex -9.86178779602 3.77230501175 -172.776000977
vertex -9.88166999817 3.77024435997 -169.205001831
vertex -9.88166999817 3.77024364471 -172.776000977
endloop
endfacet
facet normal 0.103126235306 -0.99466830492 1.99227784492e-07
outer loop
vertex -9.86178779602 3.77230572701 -169.205001831
vertex -9.88166999817 3.77024435997 -169.205001831
vertex -9.86178779602 3.77230501175 -172.776000977
endloop
endfacet
facet normal 0.10334353894 -0.99464571476 1.99181840799e-07
outer loop
vertex -9.88166999817 3.77024364471 -172.776000977
vertex -9.90155124664 3.7681787014 -169.205001831
vertex -9.90155124664 3.76817798615 -172.776000977
endloop
endfacet
facet normal 0.10334353894 -0.99464571476 1.99223251229e-07
outer loop
vertex -9.88166999817 3.77024435997 -169.205001831
vertex -9.90155124664 3.7681787014 -169.205001831
vertex -9.88166999817 3.77024364471 -172.776000977
endloop
endfacet
facet normal 0.994703412056 0.102787233889 -2.05381756047e-08
outer loop
vertex -9.8419046402 3.77436280251 -169.205001831
vertex -9.84704399109 3.82409715652 -172.776000977
vertex -9.84704399109 3.82409787178 -169.205001831
endloop
endfacet
facet normal 0.994703412056 0.102787233889 -2.05878389892e-08
outer loop
vertex -9.8419046402 3.77436208725 -172.776000977
vertex -9.84704399109 3.82409715652 -172.776000977
vertex -9.8419046402 3.77436280251 -169.205001831
endloop
endfacet
facet normal 0.0 0.0 -1.0
outer loop
vertex -9.90672397614 3.81790971756 -172.776000977
vertex -9.88166999817 3.77024364471 -172.776000977
vertex -9.90155124664 3.76817798615 -172.776000977
endloop
endfacet
facet normal 0.0 0.0 -1.0
outer loop
vertex -9.88683128357 3.81997656822 -172.776000977
vertex -9.86178779602 3.77230501175 -172.776000977
vertex -9.88166999817 3.77024364471 -172.776000977
endloop
endfacet
facet normal 0.0 -0.0 -1.0
outer loop
vertex -9.88683128357 3.81997656822 -172.776000977
vertex -9.88166999817 3.77024364471 -172.776000977
vertex -9.90672397614 3.81790971756 -172.776000977
endloop
endfacet
facet normal 0.0 -0.0 -1.0
outer loop
vertex -9.866938591 3.82203912735 -172.776000977
vertex -9.86178779602 3.77230501175 -172.776000977
vertex -9.88683128357 3.81997656822 -172.776000977
endloop
endfacet
facet normal 0.0 -0.0 -1.0
outer loop
vertex -9.84704399109 3.82409715652 -172.776000977
vertex -9.8419046402 3.77436208725 -172.776000977
vertex -9.86178779602 3.77230501175 -172.776000977
endloop
endfacet
facet normal 0.0 0.0 -1.0
outer loop
vertex -9.84704399109 3.82409715652 -172.776000977
vertex -9.86178779602 3.77230501175 -172.776000977
vertex -9.866938591 3.82203912735 -172.776000977
endloop
endfacet
facet normal 0.0 0.0 1.0
outer loop
vertex -9.88166999817 3.77024435997 -169.205001831
vertex -9.90672397614 3.81791043282 -169.205001831
vertex -9.90155124664 3.7681787014 -169.205001831
endloop
endfacet
facet normal 0.0 0.0 1.0
outer loop
vertex -9.86178779602 3.77230572701 -169.205001831
vertex -9.88683128357 3.81997728348 -169.205001831
vertex -9.88166999817 3.77024435997 -169.205001831
endloop
endfacet
facet normal 0.0 0.0 1.0
outer loop
vertex -9.88166999817 3.77024435997 -169.205001831
vertex -9.88683128357 3.81997728348 -169.205001831
vertex -9.90672397614 3.81791043282 -169.205001831
endloop
endfacet
facet normal 0.0 0.0 1.0
outer loop
vertex -9.8419046402 3.77436280251 -169.205001831
vertex -9.866938591 3.82203984261 -169.205001831
vertex -9.86178779602 3.77230572701 -169.205001831
endloop
endfacet
facet normal 0.0 0.0 1.0
outer loop
vertex -9.86178779602 3.77230572701 -169.205001831
vertex -9.866938591 3.82203984261 -169.205001831
vertex -9.88683128357 3.81997728348 -169.205001831
endloop
endfacet
facet normal 0.0 0.0 1.0
outer loop
vertex -9.8419046402 3.77436280251 -169.205001831
vertex -9.84704399109 3.82409787178 -169.205001831
vertex -9.866938591 3.82203984261 -169.205001831
endloop
endfacet
