solid 
facet normal -0.10223698616 -0.994760155678 0.0
outer loop
vertex -9.80722999573 -3.82820248604 241.445007324
vertex -9.78733539581 -3.83024716377 241.445007324
vertex -9.78733539581 -3.83024716377 245.01600647
endloop
endfacet
facet normal -0.102243937552 -0.994759440422 3.91099881369e-08
outer loop
vertex -9.80722999573 -3.82820248604 241.445007324
vertex -9.78733539581 -3.83024716377 245.01600647
vertex -9.8072309494 -3.82820224762 245.01600647
endloop
endfacet
facet normal -0.102461107075 -0.994736969471 6.64138468665e-08
outer loop
vertex -9.82712554932 -3.82615327835 241.445007324
vertex -9.8072309494 -3.82820224762 245.01600647
vertex -9.82712554932 -3.82615303993 245.01600647
endloop
endfacet
facet normal -0.10267829895 -0.994714617729 6.64123547267e-08
outer loop
vertex -9.82712554932 -3.82615327835 241.445007324
vertex -9.82712554932 -3.82615303993 245.01600647
vertex -9.84701919556 -3.82409954071 245.01600647
endloop
endfacet
facet normal -0.102456234396 -0.994737446308 3.90167969044e-08
outer loop
vertex -9.82712554932 -3.82615327835 241.445007324
vertex -9.80722999573 -3.82820248604 241.445007324
vertex -9.8072309494 -3.82820224762 245.01600647
endloop
endfacet
facet normal -0.102690093219 -0.994713366032 0.0
outer loop
vertex -9.84701919556 -3.82409954071 241.445007324
vertex -9.82712554932 -3.82615327835 241.445007324
vertex -9.84701919556 -3.82409954071 245.01600647
endloop
endfacet
facet normal -0.994703412056 0.102787233889 0.0
outer loop
vertex -9.84701919556 -3.82409954071 241.445007324
vertex -9.84701919556 -3.82409954071 245.01600647
vertex -9.84187984467 -3.77436447144 241.445007324
endloop
endfacet
facet normal -0.994703471661 0.102786749601 -6.84602552425e-09
outer loop
vertex -9.84701919556 -3.82409954071 245.01600647
vertex -9.84187984467 -3.77436423302 245.01600647
vertex -9.84187984467 -3.77436447144 241.445007324
endloop
endfacet
facet normal 0.10224314034 0.994759440422 -6.64599326683e-08
outer loop
vertex -9.78222846985 -3.78050851822 245.01600647
vertex -9.80211257935 -3.77846503258 241.445007324
vertex -9.80211257935 -3.77846479416 245.01600647
endloop
endfacet
facet normal 0.10224314034 0.994759440422 -6.64153390062e-08
outer loop
vertex -9.78222846985 -3.78050875664 241.445007324
vertex -9.80211257935 -3.77846503258 241.445007324
vertex -9.78222846985 -3.78050851822 245.01600647
endloop
endfacet
facet normal 0.102455578744 0.994737565517 -6.64075088253e-08
outer loop
vertex -9.80211257935 -3.77846479416 245.01600647
vertex -9.82199668884 -3.77641701698 241.445007324
vertex -9.82199668884 -3.77641677856 245.01600647
endloop
endfacet
facet normal 0.102684698999 0.994713962078 -6.64123049887e-08
outer loop
vertex -9.82199668884 -3.77641677856 245.01600647
vertex -9.82199668884 -3.77641701698 241.445007324
vertex -9.84187984467 -3.77436423302 245.01600647
endloop
endfacet
facet normal 0.102455578744 0.994737565517 -6.64138752882e-08
outer loop
vertex -9.80211257935 -3.77846503258 241.445007324
vertex -9.82199668884 -3.77641701698 241.445007324
vertex -9.80211257935 -3.77846479416 245.01600647
endloop
endfacet
facet normal 0.102684698999 0.994713962078 -6.64091217573e-08
outer loop
vertex -9.82199668884 -3.77641701698 241.445007324
vertex -9.84187984467 -3.77436447144 241.445007324
vertex -9.84187984467 -3.77436423302 245.01600647
endloop
endfacet
facet normal 0.994770169258 -0.102138735354 6.81931577873e-09
outer loop
vertex -9.78222846985 -3.78050875664 241.445007324
vertex -9.78222846985 -3.78050851822 245.01600647
vertex -9.78733539581 -3.83024716377 241.445007324
endloop
endfacet
facet normal 0.994770228863 -0.102138251066 0.0
outer loop
vertex -9.78222846985 -3.78050851822 245.01600647
vertex -9.78733539581 -3.83024716377 245.01600647
vertex -9.78733539581 -3.83024716377 241.445007324
endloop
endfacet
facet normal 0.0 0.0 1.0
outer loop
vertex -9.84701919556 -3.82409954071 245.01600647
vertex -9.82199668884 -3.77641677856 245.01600647
vertex -9.84187984467 -3.77436423302 245.01600647
endloop
endfacet
facet normal 0.0 0.0 1.0
outer loop
vertex -9.82712554932 -3.82615303993 245.01600647
vertex -9.80211257935 -3.77846479416 245.01600647
vertex -9.82199668884 -3.77641677856 245.01600647
endloop
endfacet
facet normal 0.0 -0.0 1.0
outer loop
vertex -9.82712554932 -3.82615303993 245.01600647
vertex -9.82199668884 -3.77641677856 245.01600647
vertex -9.84701919556 -3.82409954071 245.01600647
endloop
endfacet
facet normal 0.0 -0.0 1.0
outer loop
vertex -9.8072309494 -3.82820224762 245.01600647
vertex -9.80211257935 -3.77846479416 245.01600647
vertex -9.82712554932 -3.82615303993 245.01600647
endloop
endfacet
facet normal 0.0 -0.0 1.0
outer loop
vertex -9.78733539581 -3.83024716377 245.01600647
vertex -9.78222846985 -3.78050851822 245.01600647
vertex -9.80211257935 -3.77846479416 245.01600647
endloop
endfacet
facet normal 0.0 0.0 1.0
outer loop
vertex -9.78733539581 -3.83024716377 245.01600647
vertex -9.80211257935 -3.77846479416 245.01600647
vertex -9.8072309494 -3.82820224762 245.01600647
endloop
endfacet
facet normal -0.0 0.0 -1.0
outer loop
vertex -9.82199668884 -3.77641701698 241.445007324
vertex -9.84701919556 -3.82409954071 241.445007324
vertex -9.84187984467 -3.77436447144 241.445007324
endloop
endfacet
facet normal 0.0 0.0 -1.0
outer loop
vertex -9.82199668884 -3.77641701698 241.445007324
vertex -9.82712554932 -3.82615327835 241.445007324
vertex -9.84701919556 -3.82409954071 241.445007324
endloop
endfacet
facet normal -0.0 0.0 -1.0
outer loop
vertex -9.80211257935 -3.77846503258 241.445007324
vertex -9.80722999573 -3.82820248604 241.445007324
vertex -9.82199668884 -3.77641701698 241.445007324
endloop
endfacet
facet normal 0.0 -0.0 -1.0
outer loop
vertex -9.82199668884 -3.77641701698 241.445007324
vertex -9.80722999573 -3.82820248604 241.445007324
vertex -9.82712554932 -3.82615327835 241.445007324
endloop
endfacet
facet normal -0.0 0.0 -1.0
outer loop
vertex -9.78222846985 -3.78050875664 241.445007324
vertex -9.78733539581 -3.83024716377 241.445007324
vertex -9.80211257935 -3.77846503258 241.445007324
endloop
endfacet
facet normal 0.0 -0.0 -1.0
outer loop
vertex -9.80211257935 -3.77846503258 241.445007324
vertex -9.78733539581 -3.83024716377 241.445007324
vertex -9.80722999573 -3.82820248604 241.445007324
endloop
endfacet
