solid 
facet normal 0.102248780429 -0.99475890398 0.0
outer loop
vertex 9.80725669861 -3.82820010185 -110.88999939
vertex 9.78736209869 -3.83024501801 -110.88999939
vertex 9.78736209869 -3.83024501801 -114.461006165
endloop
endfacet
facet normal 0.102248780429 -0.99475890398 0.0
outer loop
vertex 9.80725669861 -3.82820010185 -110.88999939
vertex 9.78736209869 -3.83024501801 -114.461006165
vertex 9.80725669861 -3.82820010185 -114.461006165
endloop
endfacet
facet normal 0.102456249297 -0.994737565517 0.0
outer loop
vertex 9.8271522522 -3.82615089417 -110.88999939
vertex 9.80725669861 -3.82820010185 -114.461006165
vertex 9.8271522522 -3.82615089417 -114.461006165
endloop
endfacet
facet normal 0.102456249297 -0.994737565517 0.0
outer loop
vertex 9.8271522522 -3.82615089417 -110.88999939
vertex 9.80725669861 -3.82820010185 -110.88999939
vertex 9.80725669861 -3.82820010185 -114.461006165
endloop
endfacet
facet normal 0.10267829895 -0.994714617729 0.0
outer loop
vertex 9.84704589844 -3.82409739494 -110.88999939
vertex 9.8271522522 -3.82615089417 -114.461006165
vertex 9.84704589844 -3.82409739494 -114.461006165
endloop
endfacet
facet normal 0.10267829895 -0.994714617729 0.0
outer loop
vertex 9.84704589844 -3.82409739494 -110.88999939
vertex 9.8271522522 -3.82615089417 -110.88999939
vertex 9.8271522522 -3.82615089417 -114.461006165
endloop
endfacet
facet normal 0.994703471661 0.102786742151 0.0
outer loop
vertex 9.84190654755 -3.77436208725 -110.88999939
vertex 9.84704589844 -3.82409739494 -110.88999939
vertex 9.84704589844 -3.82409739494 -114.461006165
endloop
endfacet
facet normal 0.994703471661 0.102786742151 0.0
outer loop
vertex 9.84190654755 -3.77436208725 -110.88999939
vertex 9.84704589844 -3.82409739494 -114.461006165
vertex 9.84190654755 -3.77436208725 -114.461006165
endloop
endfacet
facet normal -0.102231346071 0.99476069212 0.0
outer loop
vertex 9.78225517273 -3.78050637245 -114.461006165
vertex 9.78225517273 -3.78050637245 -110.88999939
vertex 9.80213928223 -3.77846288681 -114.461006165
endloop
endfacet
facet normal -0.102231346071 0.99476069212 0.0
outer loop
vertex 9.78225517273 -3.78050637245 -110.88999939
vertex 9.80213928223 -3.77846288681 -110.88999939
vertex 9.80213928223 -3.77846288681 -114.461006165
endloop
endfacet
facet normal -0.102467395365 0.994736433029 0.0
outer loop
vertex 9.80213928223 -3.77846288681 -114.461006165
vertex 9.82202339172 -3.7764146328 -110.88999939
vertex 9.82202339172 -3.7764146328 -114.461006165
endloop
endfacet
facet normal -0.102467395365 0.994736433029 0.0
outer loop
vertex 9.80213928223 -3.77846288681 -110.88999939
vertex 9.82202339172 -3.7764146328 -110.88999939
vertex 9.80213928223 -3.77846288681 -114.461006165
endloop
endfacet
facet normal -0.102684684098 0.994713962078 0.0
outer loop
vertex 9.82202339172 -3.7764146328 -114.461006165
vertex 9.84190654755 -3.77436208725 -110.88999939
vertex 9.84190654755 -3.77436208725 -114.461006165
endloop
endfacet
facet normal -0.102684684098 0.994713962078 0.0
outer loop
vertex 9.82202339172 -3.7764146328 -110.88999939
vertex 9.84190654755 -3.77436208725 -110.88999939
vertex 9.82202339172 -3.7764146328 -114.461006165
endloop
endfacet
facet normal -0.994770228863 -0.102138243616 -0.0
outer loop
vertex 9.78225517273 -3.78050637245 -110.88999939
vertex 9.78225517273 -3.78050637245 -114.461006165
vertex 9.78736209869 -3.83024501801 -114.461006165
endloop
endfacet
facet normal -0.994770228863 -0.102138243616 -0.0
outer loop
vertex 9.78736209869 -3.83024501801 -110.88999939
vertex 9.78225517273 -3.78050637245 -110.88999939
vertex 9.78736209869 -3.83024501801 -114.461006165
endloop
endfacet
facet normal -0.0 0.0 1.0
outer loop
vertex 9.82202339172 -3.7764146328 -110.88999939
vertex 9.84704589844 -3.82409739494 -110.88999939
vertex 9.84190654755 -3.77436208725 -110.88999939
endloop
endfacet
facet normal 0.0 0.0 1.0
outer loop
vertex 9.82202339172 -3.7764146328 -110.88999939
vertex 9.8271522522 -3.82615089417 -110.88999939
vertex 9.84704589844 -3.82409739494 -110.88999939
endloop
endfacet
facet normal -0.0 0.0 1.0
outer loop
vertex 9.80213928223 -3.77846288681 -110.88999939
vertex 9.80725669861 -3.82820010185 -110.88999939
vertex 9.82202339172 -3.7764146328 -110.88999939
endloop
endfacet
facet normal 0.0 0.0 1.0
outer loop
vertex 9.82202339172 -3.7764146328 -110.88999939
vertex 9.80725669861 -3.82820010185 -110.88999939
vertex 9.8271522522 -3.82615089417 -110.88999939
endloop
endfacet
facet normal -0.0 0.0 1.0
outer loop
vertex 9.78225517273 -3.78050637245 -110.88999939
vertex 9.78736209869 -3.83024501801 -110.88999939
vertex 9.80213928223 -3.77846288681 -110.88999939
endloop
endfacet
facet normal 0.0 0.0 1.0
outer loop
vertex 9.80213928223 -3.77846288681 -110.88999939
vertex 9.78736209869 -3.83024501801 -110.88999939
vertex 9.80725669861 -3.82820010185 -110.88999939
endloop
endfacet
facet normal 0.0 0.0 -1.0
outer loop
vertex 9.84704589844 -3.82409739494 -114.461006165
vertex 9.82202339172 -3.7764146328 -114.461006165
vertex 9.84190654755 -3.77436208725 -114.461006165
endloop
endfacet
facet normal 0.0 0.0 -1.0
outer loop
vertex 9.8271522522 -3.82615089417 -114.461006165
vertex 9.80213928223 -3.77846288681 -114.461006165
vertex 9.82202339172 -3.7764146328 -114.461006165
endloop
endfacet
facet normal 0.0 0.0 -1.0
outer loop
vertex 9.8271522522 -3.82615089417 -114.461006165
vertex 9.82202339172 -3.7764146328 -114.461006165
vertex 9.84704589844 -3.82409739494 -114.461006165
endloop
endfacet
facet normal 0.0 0.0 -1.0
outer loop
vertex 9.80725669861 -3.82820010185 -114.461006165
vertex 9.80213928223 -3.77846288681 -114.461006165
vertex 9.8271522522 -3.82615089417 -114.461006165
endloop
endfacet
facet normal 0.0 0.0 -1.0
outer loop
vertex 9.78736209869 -3.83024501801 -114.461006165
vertex 9.78225517273 -3.78050637245 -114.461006165
vertex 9.80213928223 -3.77846288681 -114.461006165
endloop
endfacet
facet normal 0.0 0.0 -1.0
outer loop
vertex 9.78736209869 -3.83024501801 -114.461006165
vertex 9.80213928223 -3.77846288681 -114.461006165
vertex 9.80725669861 -3.82820010185 -114.461006165
endloop
endfacet
