solid 
facet normal 0.12077061832 -0.992680430412 0.0
outer loop
vertex 9.8470287323 -3.82409906387 -34.9990005493
vertex 9.8470287323 -3.82409906387 -35.0590019226
vertex 13.0836515427 -3.4303278923 -35.0590019226
endloop
endfacet
facet normal 0.156602337956 -0.987661719322 0.0
outer loop
vertex 13.0836515427 -3.4303278923 -34.9990005493
vertex 13.0836515427 -3.4303278923 -35.0590019226
vertex 16.3039112091 -2.91972780228 -35.0590019226
endloop
endfacet
facet normal 0.12077061832 -0.992680430412 0.0
outer loop
vertex 13.0836515427 -3.4303278923 -34.9990005493
vertex 9.8470287323 -3.82409906387 -34.9990005493
vertex 13.0836515427 -3.4303278923 -35.0590019226
endloop
endfacet
facet normal 0.192228928208 -0.981350123882 0.0
outer loop
vertex 16.3039112091 -2.91972780228 -34.9990005493
vertex 16.3039112091 -2.91972780228 -35.0590019226
vertex 19.5035934448 -2.29296731949 -35.0590019226
endloop
endfacet
facet normal 0.156602337956 -0.987661719322 0.0
outer loop
vertex 16.3039112091 -2.91972780228 -34.9990005493
vertex 13.0836515427 -3.4303278923 -34.9990005493
vertex 16.3039112091 -2.91972780228 -35.0590019226
endloop
endfacet
facet normal 0.192228928208 -0.981350123882 0.0
outer loop
vertex 19.5035934448 -2.29296731949 -34.9990005493
vertex 16.3039112091 -2.91972780228 -34.9990005493
vertex 19.5035934448 -2.29296731949 -35.0590019226
endloop
endfacet
facet normal 0.977709889412 0.209960564971 0.0
outer loop
vertex 19.4930953979 -2.24408173561 -34.9990005493
vertex 19.5035934448 -2.29296731949 -34.9990005493
vertex 19.5035934448 -2.29296731949 -35.0590019226
endloop
endfacet
facet normal 0.977709889412 0.209960564971 0.0
outer loop
vertex 19.4930953979 -2.24408173561 -34.9990005493
vertex 19.5035934448 -2.29296731949 -35.0590019226
vertex 19.4930953979 -2.24408173561 -35.0590019226
endloop
endfacet
facet normal -0.120770610869 0.992680370808 0.0
outer loop
vertex 9.84188842773 -3.7743639946 -35.0590019226
vertex 9.84188842773 -3.7743639946 -34.9990005493
vertex 13.076716423 -3.38081121445 -35.0590019226
endloop
endfacet
facet normal -0.156602367759 0.987661778927 0.0
outer loop
vertex 13.076716423 -3.38081121445 -35.0590019226
vertex 13.076716423 -3.38081121445 -34.9990005493
vertex 16.2951889038 -2.87049436569 -35.0590019226
endloop
endfacet
facet normal -0.120770610869 0.992680370808 0.0
outer loop
vertex 9.84188842773 -3.7743639946 -34.9990005493
vertex 13.076716423 -3.38081121445 -34.9990005493
vertex 13.076716423 -3.38081121445 -35.0590019226
endloop
endfacet
facet normal -0.156602367759 0.987661778927 0.0
outer loop
vertex 13.076716423 -3.38081121445 -34.9990005493
vertex 16.2951889038 -2.87049436569 -34.9990005493
vertex 16.2951889038 -2.87049436569 -35.0590019226
endloop
endfacet
facet normal -0.192228928208 0.981350123882 0.0
outer loop
vertex 16.2951889038 -2.87049436569 -35.0590019226
vertex 19.4930953979 -2.24408173561 -34.9990005493
vertex 19.4930953979 -2.24408173561 -35.0590019226
endloop
endfacet
facet normal -0.192228928208 0.981350123882 0.0
outer loop
vertex 16.2951889038 -2.87049436569 -34.9990005493
vertex 19.4930953979 -2.24408173561 -34.9990005493
vertex 16.2951889038 -2.87049436569 -35.0590019226
endloop
endfacet
facet normal -0.994701445103 -0.102806098759 -0.0
outer loop
vertex 9.84188842773 -3.7743639946 -34.9990005493
vertex 9.84188842773 -3.7743639946 -35.0590019226
vertex 9.8470287323 -3.82409906387 -35.0590019226
endloop
endfacet
facet normal -0.994701445103 -0.102806098759 -0.0
outer loop
vertex 9.8470287323 -3.82409906387 -34.9990005493
vertex 9.84188842773 -3.7743639946 -34.9990005493
vertex 9.8470287323 -3.82409906387 -35.0590019226
endloop
endfacet
facet normal -0.0 0.0 1.0
outer loop
vertex 16.2951889038 -2.87049436569 -34.9990005493
vertex 16.3039112091 -2.91972780228 -34.9990005493
vertex 19.4930953979 -2.24408173561 -34.9990005493
endloop
endfacet
facet normal 0.0 0.0 1.0
outer loop
vertex 19.4930953979 -2.24408173561 -34.9990005493
vertex 16.3039112091 -2.91972780228 -34.9990005493
vertex 19.5035934448 -2.29296731949 -34.9990005493
endloop
endfacet
facet normal -0.0 0.0 1.0
outer loop
vertex 13.076716423 -3.38081121445 -34.9990005493
vertex 13.0836515427 -3.4303278923 -34.9990005493
vertex 16.2951889038 -2.87049436569 -34.9990005493
endloop
endfacet
facet normal 0.0 0.0 1.0
outer loop
vertex 16.2951889038 -2.87049436569 -34.9990005493
vertex 13.0836515427 -3.4303278923 -34.9990005493
vertex 16.3039112091 -2.91972780228 -34.9990005493
endloop
endfacet
facet normal -0.0 0.0 1.0
outer loop
vertex 9.84188842773 -3.7743639946 -34.9990005493
vertex 9.8470287323 -3.82409906387 -34.9990005493
vertex 13.076716423 -3.38081121445 -34.9990005493
endloop
endfacet
facet normal 0.0 0.0 1.0
outer loop
vertex 13.076716423 -3.38081121445 -34.9990005493
vertex 9.8470287323 -3.82409906387 -34.9990005493
vertex 13.0836515427 -3.4303278923 -34.9990005493
endloop
endfacet
facet normal 0.0 0.0 -1.0
outer loop
vertex 16.3039112091 -2.91972780228 -35.0590019226
vertex 16.2951889038 -2.87049436569 -35.0590019226
vertex 19.4930953979 -2.24408173561 -35.0590019226
endloop
endfacet
facet normal 0.0 0.0 -1.0
outer loop
vertex 16.3039112091 -2.91972780228 -35.0590019226
vertex 19.4930953979 -2.24408173561 -35.0590019226
vertex 19.5035934448 -2.29296731949 -35.0590019226
endloop
endfacet
facet normal 0.0 0.0 -1.0
outer loop
vertex 13.0836515427 -3.4303278923 -35.0590019226
vertex 13.076716423 -3.38081121445 -35.0590019226
vertex 16.2951889038 -2.87049436569 -35.0590019226
endloop
endfacet
facet normal 0.0 0.0 -1.0
outer loop
vertex 13.0836515427 -3.4303278923 -35.0590019226
vertex 16.2951889038 -2.87049436569 -35.0590019226
vertex 16.3039112091 -2.91972780228 -35.0590019226
endloop
endfacet
facet normal 0.0 0.0 -1.0
outer loop
vertex 9.8470287323 -3.82409906387 -35.0590019226
vertex 9.84188842773 -3.7743639946 -35.0590019226
vertex 13.076716423 -3.38081121445 -35.0590019226
endloop
endfacet
facet normal 0.0 0.0 -1.0
outer loop
vertex 9.8470287323 -3.82409906387 -35.0590019226
vertex 13.076716423 -3.38081121445 -35.0590019226
vertex 13.0836515427 -3.4303278923 -35.0590019226
endloop
endfacet
