solid 
facet normal 0.120770581067 -0.992680430412 0.0
outer loop
vertex 9.84702682495 -3.82409882545 237.833999634
vertex 9.84702682495 -3.82409882545 237.774002075
vertex 13.083650589 -3.43032765388 237.774002075
endloop
endfacet
facet normal 0.156602218747 -0.987661778927 0.0
outer loop
vertex 13.083650589 -3.43032765388 237.833999634
vertex 13.083650589 -3.43032765388 237.774002075
vertex 16.3039112091 -2.91972780228 237.774002075
endloop
endfacet
facet normal 0.120770581067 -0.992680430412 0.0
outer loop
vertex 13.083650589 -3.43032765388 237.833999634
vertex 9.84702682495 -3.82409882545 237.833999634
vertex 13.083650589 -3.43032765388 237.774002075
endloop
endfacet
facet normal 0.192228972912 -0.981350064278 0.0
outer loop
vertex 16.3039112091 -2.91972780228 237.833999634
vertex 16.3039112091 -2.91972780228 237.774002075
vertex 19.5035915375 -2.29296755791 237.774002075
endloop
endfacet
facet normal 0.156602218747 -0.987661778927 0.0
outer loop
vertex 16.3039112091 -2.91972780228 237.833999634
vertex 13.083650589 -3.43032765388 237.833999634
vertex 16.3039112091 -2.91972780228 237.774002075
endloop
endfacet
facet normal 0.192228972912 -0.981350064278 0.0
outer loop
vertex 19.5035915375 -2.29296755791 237.833999634
vertex 16.3039112091 -2.91972780228 237.833999634
vertex 19.5035915375 -2.29296755791 237.774002075
endloop
endfacet
facet normal 0.977709889412 0.20996055007 0.0
outer loop
vertex 19.4930934906 -2.24408197403 237.833999634
vertex 19.5035915375 -2.29296755791 237.833999634
vertex 19.5035915375 -2.29296755791 237.774002075
endloop
endfacet
facet normal 0.977709889412 0.20996055007 0.0
outer loop
vertex 19.4930934906 -2.24408197403 237.833999634
vertex 19.5035915375 -2.29296755791 237.774002075
vertex 19.4930934906 -2.24408197403 237.774002075
endloop
endfacet
facet normal -0.120770655572 0.992680490017 0.0
outer loop
vertex 9.84188747406 -3.77436375618 237.774002075
vertex 13.0767145157 -3.38081097603 237.833999634
vertex 13.0767145157 -3.38081097603 237.774002075
endloop
endfacet
facet normal -0.120770655572 0.992680490017 0.0
outer loop
vertex 9.84188747406 -3.77436375618 237.833999634
vertex 13.0767145157 -3.38081097603 237.833999634
vertex 9.84188747406 -3.77436375618 237.774002075
endloop
endfacet
facet normal -0.156602218747 0.987661719322 0.0
outer loop
vertex 13.0767145157 -3.38081097603 237.774002075
vertex 16.2951889038 -2.87049436569 237.833999634
vertex 16.2951889038 -2.87049436569 237.774002075
endloop
endfacet
facet normal -0.156602218747 0.987661719322 0.0
outer loop
vertex 13.0767145157 -3.38081097603 237.833999634
vertex 16.2951889038 -2.87049436569 237.833999634
vertex 13.0767145157 -3.38081097603 237.774002075
endloop
endfacet
facet normal -0.19222894311 0.981350064278 0.0
outer loop
vertex 16.2951889038 -2.87049436569 237.774002075
vertex 19.4930934906 -2.24408197403 237.833999634
vertex 19.4930934906 -2.24408197403 237.774002075
endloop
endfacet
facet normal -0.19222894311 0.981350064278 0.0
outer loop
vertex 16.2951889038 -2.87049436569 237.833999634
vertex 19.4930934906 -2.24408197403 237.833999634
vertex 16.2951889038 -2.87049436569 237.774002075
endloop
endfacet
facet normal -0.994703412056 -0.102787226439 -0.0
outer loop
vertex 9.84188747406 -3.77436375618 237.833999634
vertex 9.84188747406 -3.77436375618 237.774002075
vertex 9.84702682495 -3.82409882545 237.774002075
endloop
endfacet
facet normal -0.994703412056 -0.102787226439 -0.0
outer loop
vertex 9.84702682495 -3.82409882545 237.833999634
vertex 9.84188747406 -3.77436375618 237.833999634
vertex 9.84702682495 -3.82409882545 237.774002075
endloop
endfacet
facet normal -0.0 0.0 1.0
outer loop
vertex 16.2951889038 -2.87049436569 237.833999634
vertex 16.3039112091 -2.91972780228 237.833999634
vertex 19.4930934906 -2.24408197403 237.833999634
endloop
endfacet
facet normal 0.0 0.0 1.0
outer loop
vertex 19.4930934906 -2.24408197403 237.833999634
vertex 16.3039112091 -2.91972780228 237.833999634
vertex 19.5035915375 -2.29296755791 237.833999634
endloop
endfacet
facet normal -0.0 0.0 1.0
outer loop
vertex 13.0767145157 -3.38081097603 237.833999634
vertex 13.083650589 -3.43032765388 237.833999634
vertex 16.2951889038 -2.87049436569 237.833999634
endloop
endfacet
facet normal 0.0 0.0 1.0
outer loop
vertex 16.2951889038 -2.87049436569 237.833999634
vertex 13.083650589 -3.43032765388 237.833999634
vertex 16.3039112091 -2.91972780228 237.833999634
endloop
endfacet
facet normal -0.0 0.0 1.0
outer loop
vertex 9.84188747406 -3.77436375618 237.833999634
vertex 9.84702682495 -3.82409882545 237.833999634
vertex 13.0767145157 -3.38081097603 237.833999634
endloop
endfacet
facet normal 0.0 0.0 1.0
outer loop
vertex 13.0767145157 -3.38081097603 237.833999634
vertex 9.84702682495 -3.82409882545 237.833999634
vertex 13.083650589 -3.43032765388 237.833999634
endloop
endfacet
facet normal 0.0 0.0 -1.0
outer loop
vertex 16.2951889038 -2.87049436569 237.774002075
vertex 19.4930934906 -2.24408197403 237.774002075
vertex 19.5035915375 -2.29296755791 237.774002075
endloop
endfacet
facet normal 0.0 0.0 -1.0
outer loop
vertex 16.3039112091 -2.91972780228 237.774002075
vertex 16.2951889038 -2.87049436569 237.774002075
vertex 19.5035915375 -2.29296755791 237.774002075
endloop
endfacet
facet normal 0.0 0.0 -1.0
outer loop
vertex 13.0767145157 -3.38081097603 237.774002075
vertex 16.2951889038 -2.87049436569 237.774002075
vertex 16.3039112091 -2.91972780228 237.774002075
endloop
endfacet
facet normal 0.0 0.0 -1.0
outer loop
vertex 13.083650589 -3.43032765388 237.774002075
vertex 13.0767145157 -3.38081097603 237.774002075
vertex 16.3039112091 -2.91972780228 237.774002075
endloop
endfacet
facet normal 0.0 0.0 -1.0
outer loop
vertex 9.84188747406 -3.77436375618 237.774002075
vertex 13.0767145157 -3.38081097603 237.774002075
vertex 13.083650589 -3.43032765388 237.774002075
endloop
endfacet
facet normal 0.0 0.0 -1.0
outer loop
vertex 9.84702682495 -3.82409882545 237.774002075
vertex 9.84188747406 -3.77436375618 237.774002075
vertex 13.083650589 -3.43032765388 237.774002075
endloop
endfacet
