solid 
facet normal 0.12077087909 0.992680430412 -0.0
outer loop
vertex 9.84704399109 3.82409787178 -162.002990723
vertex 9.84704399109 3.82409787178 -161.942993164
vertex 13.0836677551 3.43032574654 -161.942993164
endloop
endfacet
facet normal 0.156602501869 0.987661719322 -0.0
outer loop
vertex 13.0836677551 3.43032574654 -162.002990723
vertex 13.0836677551 3.43032574654 -161.942993164
vertex 16.3039283752 2.91972494125 -161.942993164
endloop
endfacet
facet normal 0.12077087909 0.992680430412 -0.0
outer loop
vertex 13.0836677551 3.43032574654 -162.002990723
vertex 9.84704399109 3.82409787178 -162.002990723
vertex 13.0836677551 3.43032574654 -161.942993164
endloop
endfacet
facet normal 0.192229181528 0.981350064278 -0.0
outer loop
vertex 16.3039283752 2.91972494125 -162.002990723
vertex 16.3039283752 2.91972494125 -161.942993164
vertex 19.5036087036 2.29296398163 -161.942993164
endloop
endfacet
facet normal 0.156602501869 0.987661719322 -0.0
outer loop
vertex 16.3039283752 2.91972494125 -162.002990723
vertex 13.0836677551 3.43032574654 -162.002990723
vertex 16.3039283752 2.91972494125 -161.942993164
endloop
endfacet
facet normal 0.192229181528 0.981350064278 -0.0
outer loop
vertex 19.5036087036 2.29296398163 -162.002990723
vertex 16.3039283752 2.91972494125 -162.002990723
vertex 19.5036087036 2.29296398163 -161.942993164
endloop
endfacet
facet normal 0.977709889412 -0.20996055007 0.0
outer loop
vertex 19.4931106567 2.24407839775 -162.002990723
vertex 19.5036087036 2.29296398163 -162.002990723
vertex 19.5036087036 2.29296398163 -161.942993164
endloop
endfacet
facet normal 0.977709889412 -0.20996055007 0.0
outer loop
vertex 19.4931106567 2.24407839775 -162.002990723
vertex 19.5036087036 2.29296398163 -161.942993164
vertex 19.4931106567 2.24407839775 -161.942993164
endloop
endfacet
facet normal -0.120770871639 -0.992680490017 -0.0
outer loop
vertex 9.8419046402 3.77436256409 -161.942993164
vertex 9.8419046402 3.77436256409 -162.002990723
vertex 13.0767316818 3.38080906868 -161.942993164
endloop
endfacet
facet normal -0.156602427363 -0.987661719322 -0.0
outer loop
vertex 13.0767316818 3.38080906868 -161.942993164
vertex 13.0767316818 3.38080906868 -162.002990723
vertex 16.2952060699 2.87049174309 -161.942993164
endloop
endfacet
facet normal -0.120770871639 -0.992680490017 0.0
outer loop
vertex 9.8419046402 3.77436256409 -162.002990723
vertex 13.0767316818 3.38080906868 -162.002990723
vertex 13.0767316818 3.38080906868 -161.942993164
endloop
endfacet
facet normal -0.156602427363 -0.987661719322 0.0
outer loop
vertex 13.0767316818 3.38080906868 -162.002990723
vertex 16.2952060699 2.87049174309 -162.002990723
vertex 16.2952060699 2.87049174309 -161.942993164
endloop
endfacet
facet normal -0.192229226232 -0.981350004673 0.0
outer loop
vertex 16.2952060699 2.87049174309 -161.942993164
vertex 19.4931106567 2.24407839775 -162.002990723
vertex 19.4931106567 2.24407839775 -161.942993164
endloop
endfacet
facet normal -0.192229226232 -0.981350004673 0.0
outer loop
vertex 16.2952060699 2.87049174309 -162.002990723
vertex 19.4931106567 2.24407839775 -162.002990723
vertex 16.2952060699 2.87049174309 -161.942993164
endloop
endfacet
facet normal -0.994703471661 0.1027867347 0.0
outer loop
vertex 9.8419046402 3.77436256409 -162.002990723
vertex 9.8419046402 3.77436256409 -161.942993164
vertex 9.84704399109 3.82409787178 -161.942993164
endloop
endfacet
facet normal -0.994703471661 0.1027867347 0.0
outer loop
vertex 9.84704399109 3.82409787178 -162.002990723
vertex 9.8419046402 3.77436256409 -162.002990723
vertex 9.84704399109 3.82409787178 -161.942993164
endloop
endfacet
facet normal 0.0 0.0 -1.0
outer loop
vertex 16.2952060699 2.87049174309 -162.002990723
vertex 16.3039283752 2.91972494125 -162.002990723
vertex 19.4931106567 2.24407839775 -162.002990723
endloop
endfacet
facet normal 0.0 0.0 -1.0
outer loop
vertex 19.4931106567 2.24407839775 -162.002990723
vertex 16.3039283752 2.91972494125 -162.002990723
vertex 19.5036087036 2.29296398163 -162.002990723
endloop
endfacet
facet normal 0.0 0.0 -1.0
outer loop
vertex 13.0767316818 3.38080906868 -162.002990723
vertex 13.0836677551 3.43032574654 -162.002990723
vertex 16.2952060699 2.87049174309 -162.002990723
endloop
endfacet
facet normal 0.0 0.0 -1.0
outer loop
vertex 16.2952060699 2.87049174309 -162.002990723
vertex 13.0836677551 3.43032574654 -162.002990723
vertex 16.3039283752 2.91972494125 -162.002990723
endloop
endfacet
facet normal 0.0 0.0 -1.0
outer loop
vertex 9.8419046402 3.77436256409 -162.002990723
vertex 9.84704399109 3.82409787178 -162.002990723
vertex 13.0767316818 3.38080906868 -162.002990723
endloop
endfacet
facet normal 0.0 0.0 -1.0
outer loop
vertex 13.0767316818 3.38080906868 -162.002990723
vertex 9.84704399109 3.82409787178 -162.002990723
vertex 13.0836677551 3.43032574654 -162.002990723
endloop
endfacet
facet normal 0.0 0.0 1.0
outer loop
vertex 16.3039283752 2.91972494125 -161.942993164
vertex 16.2952060699 2.87049174309 -161.942993164
vertex 19.4931106567 2.24407839775 -161.942993164
endloop
endfacet
facet normal 0.0 0.0 1.0
outer loop
vertex 16.3039283752 2.91972494125 -161.942993164
vertex 19.4931106567 2.24407839775 -161.942993164
vertex 19.5036087036 2.29296398163 -161.942993164
endloop
endfacet
facet normal 0.0 0.0 1.0
outer loop
vertex 13.0836677551 3.43032574654 -161.942993164
vertex 13.0767316818 3.38080906868 -161.942993164
vertex 16.2952060699 2.87049174309 -161.942993164
endloop
endfacet
facet normal 0.0 0.0 1.0
outer loop
vertex 13.0836677551 3.43032574654 -161.942993164
vertex 16.2952060699 2.87049174309 -161.942993164
vertex 16.3039283752 2.91972494125 -161.942993164
endloop
endfacet
facet normal 0.0 0.0 1.0
outer loop
vertex 9.84704399109 3.82409787178 -161.942993164
vertex 9.8419046402 3.77436256409 -161.942993164
vertex 13.0767316818 3.38080906868 -161.942993164
endloop
endfacet
facet normal 0.0 0.0 1.0
outer loop
vertex 9.84704399109 3.82409787178 -161.942993164
vertex 13.0767316818 3.38080906868 -161.942993164
vertex 13.0836677551 3.43032574654 -161.942993164
endloop
endfacet
