solid 
facet normal -0.0125158298761 -0.999921679497 0.0
outer loop
vertex -0.0814350619912 -4.30005550385 172.776000977
vertex -0.0814350619912 -4.30005550385 172.835998535
vertex -3.34166836739 -4.25924777985 172.835998535
endloop
endfacet
facet normal -0.0486804023385 -0.998814463615 0.0
outer loop
vertex -3.34166836739 -4.25924777985 172.776000977
vertex -3.34166836739 -4.25924777985 172.835998535
vertex -6.59829187393 -4.10052585602 172.835998535
endloop
endfacet
facet normal -0.0125158298761 -0.999921679497 0.0
outer loop
vertex -3.34166836739 -4.25924777985 172.776000977
vertex -0.0814350619912 -4.30005550385 172.776000977
vertex -3.34166836739 -4.25924777985 172.835998535
endloop
endfacet
facet normal -0.0486804023385 -0.998814463615 0.0
outer loop
vertex -6.59829187393 -4.10052585602 172.776000977
vertex -3.34166836739 -4.25924777985 172.776000977
vertex -6.59829187393 -4.10052585602 172.835998535
endloop
endfacet
facet normal -0.084781087935 -0.996399641037 -3.95949746235e-06
outer loop
vertex -9.84704113007 -3.82409787178 172.776000977
vertex -6.59829187393 -4.10052585602 172.835998535
vertex -9.84704113007 -3.8240981102 172.835998535
endloop
endfacet
facet normal -0.0847811624408 -0.996399641037 0.0
outer loop
vertex -9.84704113007 -3.82409787178 172.776000977
vertex -6.59829187393 -4.10052585602 172.776000977
vertex -6.59829187393 -4.10052585602 172.835998535
endloop
endfacet
facet normal -0.994703412056 0.102787226439 0.0
outer loop
vertex -9.84704113007 -3.82409787178 172.776000977
vertex -9.84190177917 -3.77436280251 172.835998535
vertex -9.84190177917 -3.77436280251 172.776000977
endloop
endfacet
facet normal -0.994703471661 0.1027867347 4.08454411627e-07
outer loop
vertex -9.84704113007 -3.8240981102 172.835998535
vertex -9.84190177917 -3.77436280251 172.835998535
vertex -9.84704113007 -3.82409787178 172.776000977
endloop
endfacet
facet normal 0.0125159015879 0.999921679497 0.0
outer loop
vertex -0.0817138329148 -4.25005626678 172.835998535
vertex -0.0817138329148 -4.25005626678 172.776000977
vertex -3.34013819695 -4.20927095413 172.835998535
endloop
endfacet
facet normal 0.0125159015879 0.999921679497 0.0
outer loop
vertex -0.0817138329148 -4.25005626678 172.776000977
vertex -3.34013819695 -4.20927095413 172.776000977
vertex -3.34013819695 -4.20927095413 172.835998535
endloop
endfacet
facet normal 0.0486803650856 0.998814463615 0.0
outer loop
vertex -3.34013819695 -4.20927095413 172.835998535
vertex -6.59495449066 -4.05063724518 172.776000977
vertex -6.59495449066 -4.05063724518 172.835998535
endloop
endfacet
facet normal 0.0486803650856 0.998814463615 -0.0
outer loop
vertex -3.34013819695 -4.20927095413 172.776000977
vertex -6.59495449066 -4.05063724518 172.776000977
vertex -3.34013819695 -4.20927095413 172.835998535
endloop
endfacet
facet normal 0.0847811028361 0.996399641037 0.0
outer loop
vertex -6.59495449066 -4.05063724518 172.835998535
vertex -9.84190177917 -3.77436280251 172.776000977
vertex -9.84190177917 -3.77436280251 172.835998535
endloop
endfacet
facet normal 0.0847811028361 0.996399641037 -0.0
outer loop
vertex -6.59495449066 -4.05063724518 172.776000977
vertex -9.84190177917 -3.77436280251 172.776000977
vertex -6.59495449066 -4.05063724518 172.835998535
endloop
endfacet
facet normal 0.999984502792 0.00557541707531 0.0
outer loop
vertex -0.0817138329148 -4.25005626678 172.776000977
vertex -0.0814350619912 -4.30005550385 172.835998535
vertex -0.0814350619912 -4.30005550385 172.776000977
endloop
endfacet
facet normal 0.999984502792 0.00557541707531 0.0
outer loop
vertex -0.0817138329148 -4.25005626678 172.835998535
vertex -0.0814350619912 -4.30005550385 172.835998535
vertex -0.0817138329148 -4.25005626678 172.776000977
endloop
endfacet
facet normal 0.0 0.0 1.0
outer loop
vertex -6.59495449066 -4.05063724518 172.835998535
vertex -9.84190177917 -3.77436280251 172.835998535
vertex -9.84704113007 -3.8240981102 172.835998535
endloop
endfacet
facet normal 0.0 -0.0 1.0
outer loop
vertex -6.59829187393 -4.10052585602 172.835998535
vertex -6.59495449066 -4.05063724518 172.835998535
vertex -9.84704113007 -3.8240981102 172.835998535
endloop
endfacet
facet normal 0.0 0.0 1.0
outer loop
vertex -3.34013819695 -4.20927095413 172.835998535
vertex -6.59495449066 -4.05063724518 172.835998535
vertex -6.59829187393 -4.10052585602 172.835998535
endloop
endfacet
facet normal 0.0 -0.0 1.0
outer loop
vertex -3.34166836739 -4.25924777985 172.835998535
vertex -3.34013819695 -4.20927095413 172.835998535
vertex -6.59829187393 -4.10052585602 172.835998535
endloop
endfacet
facet normal 0.0 0.0 1.0
outer loop
vertex -0.0817138329148 -4.25005626678 172.835998535
vertex -3.34013819695 -4.20927095413 172.835998535
vertex -3.34166836739 -4.25924777985 172.835998535
endloop
endfacet
facet normal 0.0 0.0 1.0
outer loop
vertex -0.0814350619912 -4.30005550385 172.835998535
vertex -0.0817138329148 -4.25005626678 172.835998535
vertex -3.34166836739 -4.25924777985 172.835998535
endloop
endfacet
facet normal -0.0 0.0 -1.0
outer loop
vertex -6.59495449066 -4.05063724518 172.776000977
vertex -6.59829187393 -4.10052585602 172.776000977
vertex -9.84190177917 -3.77436280251 172.776000977
endloop
endfacet
facet normal 0.0 -0.0 -1.0
outer loop
vertex -9.84190177917 -3.77436280251 172.776000977
vertex -6.59829187393 -4.10052585602 172.776000977
vertex -9.84704113007 -3.82409787178 172.776000977
endloop
endfacet
facet normal -0.0 0.0 -1.0
outer loop
vertex -3.34013819695 -4.20927095413 172.776000977
vertex -3.34166836739 -4.25924777985 172.776000977
vertex -6.59495449066 -4.05063724518 172.776000977
endloop
endfacet
facet normal 0.0 -0.0 -1.0
outer loop
vertex -6.59495449066 -4.05063724518 172.776000977
vertex -3.34166836739 -4.25924777985 172.776000977
vertex -6.59829187393 -4.10052585602 172.776000977
endloop
endfacet
facet normal -0.0 -0.0 -1.0
outer loop
vertex -0.0817138329148 -4.25005626678 172.776000977
vertex -0.0814350619912 -4.30005550385 172.776000977
vertex -3.34013819695 -4.20927095413 172.776000977
endloop
endfacet
facet normal 0.0 -0.0 -1.0
outer loop
vertex -3.34013819695 -4.20927095413 172.776000977
vertex -0.0814350619912 -4.30005550385 172.776000977
vertex -3.34166836739 -4.25924777985 172.776000977
endloop
endfacet
