solid 
facet normal 0.207010924816 0.978338599205 -0.0
outer loop
vertex 19.1857204437 2.36062693596 -198.093002319
vertex 19.1857204437 2.36062693596 -194.501998901
vertex 19.2917079926 2.33820056915 -194.501998901
endloop
endfacet
facet normal 0.208189144731 0.978088617325 6.49385327733e-08
outer loop
vertex 19.2917079926 2.33820080757 -198.093002319
vertex 19.2917079926 2.33820056915 -194.501998901
vertex 19.3976669312 2.31564688683 -194.501998901
endloop
endfacet
facet normal 0.207008823752 0.978339016438 6.49551594734e-08
outer loop
vertex 19.2917079926 2.33820080757 -198.093002319
vertex 19.1857204437 2.36062693596 -198.093002319
vertex 19.2917079926 2.33820056915 -194.501998901
endloop
endfacet
facet normal 0.208189144731 0.978088617325 6.49385327733e-08
outer loop
vertex 19.3976669312 2.31564712524 -198.093002319
vertex 19.2917079926 2.33820080757 -198.093002319
vertex 19.3976669312 2.31564688683 -194.501998901
endloop
endfacet
facet normal 0.209363460541 0.977837920189 6.49218918625e-08
outer loop
vertex 19.5035991669 2.2929661274 -198.093002319
vertex 19.3976669312 2.31564688683 -194.501998901
vertex 19.5035991669 2.29296588898 -194.501998901
endloop
endfacet
facet normal 0.209363460541 0.977837920189 6.4637838193e-08
outer loop
vertex 19.5035991669 2.2929661274 -198.093002319
vertex 19.3976669312 2.31564712524 -198.093002319
vertex 19.3976669312 2.31564688683 -194.501998901
endloop
endfacet
facet normal 0.97771769762 -0.209924072027 -1.39375533337e-08
outer loop
vertex 19.5035991669 2.2929661274 -198.093002319
vertex 19.5035991669 2.29296588898 -194.501998901
vertex 19.4931030273 2.2440803051 -194.501998901
endloop
endfacet
facet normal 0.97771769762 -0.209924072027 -1.39375533337e-08
outer loop
vertex 19.4931030273 2.24408054352 -198.093002319
vertex 19.5035991669 2.2929661274 -198.093002319
vertex 19.4931030273 2.2440803051 -194.501998901
endloop
endfacet
facet normal -0.20700982213 -0.978338897228 -6.49551523679e-08
outer loop
vertex 19.1753997803 2.31170368195 -194.501998901
vertex 19.1753997803 2.31170392036 -198.093002319
vertex 19.2813282013 2.28928995132 -194.501998901
endloop
endfacet
facet normal -0.207011923194 -0.978338479996 0.0
outer loop
vertex 19.1753997803 2.31170392036 -198.093002319
vertex 19.2813282013 2.28928995132 -198.093002319
vertex 19.2813282013 2.28928995132 -194.501998901
endloop
endfacet
facet normal -0.208188667893 -0.978088617325 0.0
outer loop
vertex 19.2813282013 2.28928995132 -194.501998901
vertex 19.3872280121 2.26674890518 -198.093002319
vertex 19.3872280121 2.26674890518 -194.501998901
endloop
endfacet
facet normal -0.208188667893 -0.978088617325 0.0
outer loop
vertex 19.2813282013 2.28928995132 -198.093002319
vertex 19.3872280121 2.26674890518 -198.093002319
vertex 19.2813282013 2.28928995132 -194.501998901
endloop
endfacet
facet normal -0.209362149239 -0.977838158607 -6.46727826847e-08
outer loop
vertex 19.3872280121 2.26674890518 -194.501998901
vertex 19.4931030273 2.24408054352 -198.093002319
vertex 19.4931030273 2.2440803051 -194.501998901
endloop
endfacet
facet normal -0.209360063076 -0.977838635445 0.0
outer loop
vertex 19.3872280121 2.26674890518 -198.093002319
vertex 19.4931030273 2.24408054352 -198.093002319
vertex 19.3872280121 2.26674890518 -194.501998901
endloop
endfacet
facet normal -0.978464901447 0.206413239241 1.37044562365e-08
outer loop
vertex 19.1753997803 2.31170392036 -198.093002319
vertex 19.1753997803 2.31170368195 -194.501998901
vertex 19.1857204437 2.36062693596 -194.501998901
endloop
endfacet
facet normal -0.978464722633 0.206414192915 0.0
outer loop
vertex 19.1857204437 2.36062693596 -198.093002319
vertex 19.1753997803 2.31170392036 -198.093002319
vertex 19.1857204437 2.36062693596 -194.501998901
endloop
endfacet
facet normal 0.0 0.0 -1.0
outer loop
vertex 19.3872280121 2.26674890518 -198.093002319
vertex 19.3976669312 2.31564712524 -198.093002319
vertex 19.4931030273 2.24408054352 -198.093002319
endloop
endfacet
facet normal 0.0 0.0 -1.0
outer loop
vertex 19.4931030273 2.24408054352 -198.093002319
vertex 19.3976669312 2.31564712524 -198.093002319
vertex 19.5035991669 2.2929661274 -198.093002319
endloop
endfacet
facet normal 0.0 0.0 -1.0
outer loop
vertex 19.2813282013 2.28928995132 -198.093002319
vertex 19.2917079926 2.33820080757 -198.093002319
vertex 19.3872280121 2.26674890518 -198.093002319
endloop
endfacet
facet normal 0.0 0.0 -1.0
outer loop
vertex 19.3872280121 2.26674890518 -198.093002319
vertex 19.2917079926 2.33820080757 -198.093002319
vertex 19.3976669312 2.31564712524 -198.093002319
endloop
endfacet
facet normal 0.0 0.0 -1.0
outer loop
vertex 19.1753997803 2.31170392036 -198.093002319
vertex 19.1857204437 2.36062693596 -198.093002319
vertex 19.2813282013 2.28928995132 -198.093002319
endloop
endfacet
facet normal 0.0 0.0 -1.0
outer loop
vertex 19.2813282013 2.28928995132 -198.093002319
vertex 19.1857204437 2.36062693596 -198.093002319
vertex 19.2917079926 2.33820080757 -198.093002319
endloop
endfacet
facet normal -0.0 0.0 1.0
outer loop
vertex 19.3872280121 2.26674890518 -194.501998901
vertex 19.4931030273 2.2440803051 -194.501998901
vertex 19.5035991669 2.29296588898 -194.501998901
endloop
endfacet
facet normal 0.0 0.0 1.0
outer loop
vertex 19.3976669312 2.31564688683 -194.501998901
vertex 19.3872280121 2.26674890518 -194.501998901
vertex 19.5035991669 2.29296588898 -194.501998901
endloop
endfacet
facet normal -0.0 0.0 1.0
outer loop
vertex 19.2813282013 2.28928995132 -194.501998901
vertex 19.3872280121 2.26674890518 -194.501998901
vertex 19.3976669312 2.31564688683 -194.501998901
endloop
endfacet
facet normal 0.0 0.0 1.0
outer loop
vertex 19.2917079926 2.33820056915 -194.501998901
vertex 19.2813282013 2.28928995132 -194.501998901
vertex 19.3976669312 2.31564688683 -194.501998901
endloop
endfacet
facet normal 0.0 0.0 1.0
outer loop
vertex 19.1857204437 2.36062693596 -194.501998901
vertex 19.1753997803 2.31170368195 -194.501998901
vertex 19.2813282013 2.28928995132 -194.501998901
endloop
endfacet
facet normal 0.0 0.0 1.0
outer loop
vertex 19.1857204437 2.36062693596 -194.501998901
vertex 19.2813282013 2.28928995132 -194.501998901
vertex 19.2917079926 2.33820056915 -194.501998901
endloop
endfacet
