solid 
facet normal -0.00497377943248 0.999987661839 -2.80545673498e-11
outer loop
vertex 0.18975520134 4.30059432983 -212.516998291
vertex 0.0814232230186 4.30005550385 -212.516998291
vertex 0.0814232006669 4.30005550385 -208.925994873
endloop
endfacet
facet normal -0.00497377896681 0.999987661839 -2.06390998042e-11
outer loop
vertex 0.18975520134 4.30059432983 -212.516998291
vertex 0.0814232006669 4.30005550385 -208.925994873
vertex 0.189755186439 4.30059432983 -208.925994873
endloop
endfacet
facet normal -0.00377214886248 0.999992847443 -3.13056768009e-11
outer loop
vertex 0.298087775707 4.30100297928 -212.516998291
vertex 0.189755186439 4.30059432983 -208.925994873
vertex 0.298087745905 4.30100297928 -208.925994873
endloop
endfacet
facet normal -0.00377214839682 0.999992847443 -9.35151955872e-12
outer loop
vertex 0.298087775707 4.30100297928 -212.516998291
vertex 0.18975520134 4.30059432983 -212.516998291
vertex 0.189755186439 4.30059432983 -208.925994873
endloop
endfacet
facet normal -0.00257051945664 0.999996721745 -2.13331609322e-11
outer loop
vertex 0.406420737505 4.30128145218 -212.516998291
vertex 0.298087745905 4.30100297928 -208.925994873
vertex 0.406420707703 4.30128145218 -208.925994873
endloop
endfacet
facet normal -0.00257051945664 0.999996721745 -2.3378804101e-11
outer loop
vertex 0.406420737505 4.30128145218 -212.516998291
vertex 0.298087775707 4.30100297928 -212.516998291
vertex 0.298087745905 4.30100297928 -208.925994873
endloop
endfacet
facet normal 0.999998033047 0.00196874863468 8.29970048244e-09
outer loop
vertex 0.406519174576 4.25128173828 -212.516998291
vertex 0.406420737505 4.30128145218 -212.516998291
vertex 0.406420707703 4.30128145218 -208.925994873
endloop
endfacet
facet normal 0.999998033047 0.00196932605468 2.61500127108e-10
outer loop
vertex 0.406519174576 4.25128173828 -212.516998291
vertex 0.406420707703 4.30128145218 -208.925994873
vertex 0.406519174576 4.25128126144 -208.925994873
endloop
endfacet
facet normal 0.00497213564813 -0.999987661839 1.87134249069e-11
outer loop
vertex 0.0817019790411 4.25005626678 -208.925994873
vertex 0.18997387588 4.25059461594 -212.516998291
vertex 0.189973860979 4.25059461594 -208.925994873
endloop
endfacet
facet normal 0.00497213564813 -0.999987661839 2.06322823409e-11
outer loop
vertex 0.0817019939423 4.25005626678 -212.516998291
vertex 0.18997387588 4.25059461594 -212.516998291
vertex 0.0817019790411 4.25005626678 -208.925994873
endloop
endfacet
facet normal 0.00377424363978 -0.999992847443 2.80701416971e-11
outer loop
vertex 0.189973860979 4.25059461594 -208.925994873
vertex 0.298246324062 4.25100326538 -212.516998291
vertex 0.29824629426 4.25100326538 -208.925994873
endloop
endfacet
facet normal 0.00377424317412 -0.999992847443 1.56615293651e-11
outer loop
vertex 0.18997387588 4.25059461594 -212.516998291
vertex 0.298246324062 4.25100326538 -212.516998291
vertex 0.189973860979 4.25059461594 -208.925994873
endloop
endfacet
facet normal 0.00256754178554 -0.999996721745 -1.32785771711e-07
outer loop
vertex 0.29824629426 4.25100326538 -208.925994873
vertex 0.406519174576 4.25128173828 -212.516998291
vertex 0.406519174576 4.25128126144 -208.925994873
endloop
endfacet
facet normal 0.00257194647565 -0.999996721745 2.13450021547e-11
outer loop
vertex 0.298246324062 4.25100326538 -212.516998291
vertex 0.406519174576 4.25128173828 -212.516998291
vertex 0.29824629426 4.25100326538 -208.925994873
endloop
endfacet
facet normal -0.999984502792 -0.00557541707531 -4.14856726749e-09
outer loop
vertex 0.0814232230186 4.30005550385 -212.516998291
vertex 0.0817019939423 4.25005626678 -212.516998291
vertex 0.0817019790411 4.25005626678 -208.925994873
endloop
endfacet
facet normal -0.999984502792 -0.00557556562126 -6.22427576147e-09
outer loop
vertex 0.0814232230186 4.30005550385 -212.516998291
vertex 0.0817019790411 4.25005626678 -208.925994873
vertex 0.0814232006669 4.30005550385 -208.925994873
endloop
endfacet
facet normal -0.0 0.0 -1.0
outer loop
vertex 0.406519174576 4.25128173828 -212.516998291
vertex 0.298246324062 4.25100326538 -212.516998291
vertex 0.406420737505 4.30128145218 -212.516998291
endloop
endfacet
facet normal 0.0 0.0 -1.0
outer loop
vertex 0.298246324062 4.25100326538 -212.516998291
vertex 0.298087775707 4.30100297928 -212.516998291
vertex 0.406420737505 4.30128145218 -212.516998291
endloop
endfacet
facet normal -0.0 0.0 -1.0
outer loop
vertex 0.298246324062 4.25100326538 -212.516998291
vertex 0.18997387588 4.25059461594 -212.516998291
vertex 0.298087775707 4.30100297928 -212.516998291
endloop
endfacet
facet normal 0.0 0.0 -1.0
outer loop
vertex 0.18997387588 4.25059461594 -212.516998291
vertex 0.18975520134 4.30059432983 -212.516998291
vertex 0.298087775707 4.30100297928 -212.516998291
endloop
endfacet
facet normal -0.0 0.0 -1.0
outer loop
vertex 0.18997387588 4.25059461594 -212.516998291
vertex 0.0817019939423 4.25005626678 -212.516998291
vertex 0.18975520134 4.30059432983 -212.516998291
endloop
endfacet
facet normal 0.0 0.0 -1.0
outer loop
vertex 0.0817019939423 4.25005626678 -212.516998291
vertex 0.0814232230186 4.30005550385 -212.516998291
vertex 0.18975520134 4.30059432983 -212.516998291
endloop
endfacet
facet normal 0.0 0.0 1.0
outer loop
vertex 0.29824629426 4.25100326538 -208.925994873
vertex 0.406519174576 4.25128126144 -208.925994873
vertex 0.406420707703 4.30128145218 -208.925994873
endloop
endfacet
facet normal -0.0 0.0 1.0
outer loop
vertex 0.298087745905 4.30100297928 -208.925994873
vertex 0.29824629426 4.25100326538 -208.925994873
vertex 0.406420707703 4.30128145218 -208.925994873
endloop
endfacet
facet normal 0.0 0.0 1.0
outer loop
vertex 0.189973860979 4.25059461594 -208.925994873
vertex 0.29824629426 4.25100326538 -208.925994873
vertex 0.298087745905 4.30100297928 -208.925994873
endloop
endfacet
facet normal -0.0 0.0 1.0
outer loop
vertex 0.189755186439 4.30059432983 -208.925994873
vertex 0.189973860979 4.25059461594 -208.925994873
vertex 0.298087745905 4.30100297928 -208.925994873
endloop
endfacet
facet normal 0.0 0.0 1.0
outer loop
vertex 0.0814232006669 4.30005550385 -208.925994873
vertex 0.0817019790411 4.25005626678 -208.925994873
vertex 0.189973860979 4.25059461594 -208.925994873
endloop
endfacet
facet normal -0.0 0.0 1.0
outer loop
vertex 0.0814232006669 4.30005550385 -208.925994873
vertex 0.189973860979 4.25059461594 -208.925994873
vertex 0.189755186439 4.30059432983 -208.925994873
endloop
endfacet
