solid 
facet normal -0.20701238513 -0.978338301182 -6.46383284675e-08
outer loop
vertex -19.2917118073 -2.33819961548 -81.9820022583
vertex -19.1857261658 -2.36062574387 -81.9820022583
vertex -19.1857261658 -2.36062598228 -78.3909988403
endloop
endfacet
facet normal -0.207008823752 -0.978339016438 -1.74907157202e-07
outer loop
vertex -19.2917118073 -2.33819961548 -81.9820022583
vertex -19.1857261658 -2.36062598228 -78.3909988403
vertex -19.2917137146 -2.3381998539 -78.3909988403
endloop
endfacet
facet normal -0.208189144731 -0.978088617325 -6.49385327733e-08
outer loop
vertex -19.3976726532 -2.31564593315 -81.9820022583
vertex -19.2917137146 -2.3381998539 -78.3909988403
vertex -19.3976726532 -2.31564617157 -78.3909988403
endloop
endfacet
facet normal -0.209363460541 -0.977837920189 -6.49218918625e-08
outer loop
vertex -19.3976726532 -2.31564593315 -81.9820022583
vertex -19.3976726532 -2.31564617157 -78.3909988403
vertex -19.5036048889 -2.29296517372 -78.3909988403
endloop
endfacet
facet normal -0.208185553551 -0.978089392185 -1.75956273551e-07
outer loop
vertex -19.3976726532 -2.31564593315 -81.9820022583
vertex -19.2917118073 -2.33819961548 -81.9820022583
vertex -19.2917137146 -2.3381998539 -78.3909988403
endloop
endfacet
facet normal -0.209363460541 -0.977837920189 -6.49218918625e-08
outer loop
vertex -19.5036048889 -2.2929649353 -81.9820022583
vertex -19.3976726532 -2.31564593315 -81.9820022583
vertex -19.5036048889 -2.29296517372 -78.3909988403
endloop
endfacet
facet normal -0.977709889412 0.20996055007 1.3939974508e-08
outer loop
vertex -19.5036048889 -2.2929649353 -81.9820022583
vertex -19.5036048889 -2.29296517372 -78.3909988403
vertex -19.493106842 -2.24407935143 -81.9820022583
endloop
endfacet
facet normal -0.977709889412 0.20996055007 1.3939974508e-08
outer loop
vertex -19.5036048889 -2.29296517372 -78.3909988403
vertex -19.493106842 -2.24407958984 -78.3909988403
vertex -19.493106842 -2.24407935143 -81.9820022583
endloop
endfacet
facet normal 0.207013398409 0.978338181973 0.0
outer loop
vertex -19.1754055023 -2.31170272827 -78.3909988403
vertex -19.1754055023 -2.31170272827 -81.9820022583
vertex -19.281332016 -2.28928899765 -78.3909988403
endloop
endfacet
facet normal 0.207013398409 0.978338181973 0.0
outer loop
vertex -19.1754055023 -2.31170272827 -81.9820022583
vertex -19.281332016 -2.28928899765 -81.9820022583
vertex -19.281332016 -2.28928899765 -78.3909988403
endloop
endfacet
facet normal 0.208185091615 0.978089511395 6.46730953235e-08
outer loop
vertex -19.281332016 -2.28928899765 -78.3909988403
vertex -19.3872337341 -2.26674771309 -81.9820022583
vertex -19.3872337341 -2.26674795151 -78.3909988403
endloop
endfacet
facet normal 0.209363669157 0.977837860584 6.4921884757e-08
outer loop
vertex -19.3872337341 -2.26674795151 -78.3909988403
vertex -19.3872337341 -2.26674771309 -81.9820022583
vertex -19.493106842 -2.24407958984 -78.3909988403
endloop
endfacet
facet normal 0.20818720758 0.978089034557 -0.0
outer loop
vertex -19.281332016 -2.28928899765 -81.9820022583
vertex -19.3872337341 -2.26674771309 -81.9820022583
vertex -19.281332016 -2.28928899765 -78.3909988403
endloop
endfacet
facet normal 0.209363669157 0.977837860584 6.4673933764e-08
outer loop
vertex -19.3872337341 -2.26674771309 -81.9820022583
vertex -19.493106842 -2.24407935143 -81.9820022583
vertex -19.493106842 -2.24407958984 -78.3909988403
endloop
endfacet
facet normal 0.978464722633 -0.206414192915 -1.36158755382e-08
outer loop
vertex -19.1754055023 -2.31170272827 -81.9820022583
vertex -19.1857261658 -2.36062598228 -78.3909988403
vertex -19.1857261658 -2.36062574387 -81.9820022583
endloop
endfacet
facet normal 0.978464901447 -0.206413239241 0.0
outer loop
vertex -19.1754055023 -2.31170272827 -78.3909988403
vertex -19.1857261658 -2.36062598228 -78.3909988403
vertex -19.1754055023 -2.31170272827 -81.9820022583
endloop
endfacet
facet normal 0.0 0.0 1.0
outer loop
vertex -19.3872337341 -2.26674795151 -78.3909988403
vertex -19.493106842 -2.24407958984 -78.3909988403
vertex -19.5036048889 -2.29296517372 -78.3909988403
endloop
endfacet
facet normal 0.0 -0.0 1.0
outer loop
vertex -19.3976726532 -2.31564617157 -78.3909988403
vertex -19.3872337341 -2.26674795151 -78.3909988403
vertex -19.5036048889 -2.29296517372 -78.3909988403
endloop
endfacet
facet normal 0.0 0.0 1.0
outer loop
vertex -19.281332016 -2.28928899765 -78.3909988403
vertex -19.3872337341 -2.26674795151 -78.3909988403
vertex -19.3976726532 -2.31564617157 -78.3909988403
endloop
endfacet
facet normal 0.0 -0.0 1.0
outer loop
vertex -19.2917137146 -2.3381998539 -78.3909988403
vertex -19.281332016 -2.28928899765 -78.3909988403
vertex -19.3976726532 -2.31564617157 -78.3909988403
endloop
endfacet
facet normal 0.0 -0.0 1.0
outer loop
vertex -19.1857261658 -2.36062598228 -78.3909988403
vertex -19.1754055023 -2.31170272827 -78.3909988403
vertex -19.281332016 -2.28928899765 -78.3909988403
endloop
endfacet
facet normal 0.0 0.0 1.0
outer loop
vertex -19.1857261658 -2.36062598228 -78.3909988403
vertex -19.281332016 -2.28928899765 -78.3909988403
vertex -19.2917137146 -2.3381998539 -78.3909988403
endloop
endfacet
facet normal 0.0 -0.0 -1.0
outer loop
vertex -19.493106842 -2.24407935143 -81.9820022583
vertex -19.3872337341 -2.26674771309 -81.9820022583
vertex -19.5036048889 -2.2929649353 -81.9820022583
endloop
endfacet
facet normal 0.0 0.0 -1.0
outer loop
vertex -19.3872337341 -2.26674771309 -81.9820022583
vertex -19.3976726532 -2.31564593315 -81.9820022583
vertex -19.5036048889 -2.2929649353 -81.9820022583
endloop
endfacet
facet normal 0.0 -0.0 -1.0
outer loop
vertex -19.3872337341 -2.26674771309 -81.9820022583
vertex -19.281332016 -2.28928899765 -81.9820022583
vertex -19.3976726532 -2.31564593315 -81.9820022583
endloop
endfacet
facet normal 0.0 0.0 -1.0
outer loop
vertex -19.281332016 -2.28928899765 -81.9820022583
vertex -19.2917118073 -2.33819961548 -81.9820022583
vertex -19.3976726532 -2.31564593315 -81.9820022583
endloop
endfacet
facet normal 0.0 -0.0 -1.0
outer loop
vertex -19.281332016 -2.28928899765 -81.9820022583
vertex -19.1754055023 -2.31170272827 -81.9820022583
vertex -19.2917118073 -2.33819961548 -81.9820022583
endloop
endfacet
facet normal 0.0 0.0 -1.0
outer loop
vertex -19.1754055023 -2.31170272827 -81.9820022583
vertex -19.1857261658 -2.36062574387 -81.9820022583
vertex -19.2917118073 -2.33819961548 -81.9820022583
endloop
endfacet
