solid 
facet normal 0.119806826115 -0.992797255516 0.0
outer loop
vertex 12.9103269577 -3.45443296432 198.112991333
vertex 9.84703540802 -3.82409882545 198.112991333
vertex 9.84703540802 -3.82409882545 198.093002319
endloop
endfacet
facet normal 0.119806826115 -0.992797255516 0.0
outer loop
vertex 12.9103269577 -3.45443296432 198.112991333
vertex 9.84703540802 -3.82409882545 198.093002319
vertex 12.9103269577 -3.45443296432 198.093002319
endloop
endfacet
facet normal 0.153724759817 -0.988113701344 0.0
outer loop
vertex 15.9591674805 -2.98011279106 198.112991333
vertex 12.9103269577 -3.45443296432 198.093002319
vertex 15.9591674805 -2.98011279106 198.093002319
endloop
endfacet
facet normal 0.153724759817 -0.988113701344 0.0
outer loop
vertex 15.9591674805 -2.98011279106 198.112991333
vertex 12.9103269577 -3.45443296432 198.112991333
vertex 12.9103269577 -3.45443296432 198.093002319
endloop
endfacet
facet normal 0.187462478876 -0.982271790504 0.0
outer loop
vertex 18.989982605 -2.40169429779 198.112991333
vertex 15.9591674805 -2.98011279106 198.093002319
vertex 18.989982605 -2.40169429779 198.093002319
endloop
endfacet
facet normal 0.187462478876 -0.982271790504 0.0
outer loop
vertex 18.989982605 -2.40169429779 198.112991333
vertex 15.9591674805 -2.98011279106 198.112991333
vertex 15.9591674805 -2.98011279106 198.093002319
endloop
endfacet
facet normal 0.978920936584 0.204239487648 0.0
outer loop
vertex 18.9797706604 -2.35274839401 198.112991333
vertex 18.989982605 -2.40169429779 198.112991333
vertex 18.989982605 -2.40169429779 198.093002319
endloop
endfacet
facet normal 0.978920936584 0.204239487648 0.0
outer loop
vertex 18.9797706604 -2.35274839401 198.112991333
vertex 18.989982605 -2.40169429779 198.093002319
vertex 18.9797706604 -2.35274839401 198.093002319
endloop
endfacet
facet normal -0.119806848466 0.992797195911 0.0
outer loop
vertex 9.84189510345 -3.77436375618 198.093002319
vertex 9.84189510345 -3.77436375618 198.112991333
vertex 12.9034872055 -3.40490293503 198.093002319
endloop
endfacet
facet normal -0.119806848466 0.992797195911 0.0
outer loop
vertex 9.84189510345 -3.77436375618 198.112991333
vertex 12.9034872055 -3.40490293503 198.112991333
vertex 12.9034872055 -3.40490293503 198.093002319
endloop
endfacet
facet normal -0.153724700212 0.988113701344 0.0
outer loop
vertex 12.9034872055 -3.40490293503 198.093002319
vertex 15.9506368637 -2.93084597588 198.112991333
vertex 15.9506368637 -2.93084597588 198.093002319
endloop
endfacet
facet normal -0.153724700212 0.988113701344 0.0
outer loop
vertex 12.9034872055 -3.40490293503 198.112991333
vertex 15.9506368637 -2.93084597588 198.112991333
vertex 12.9034872055 -3.40490293503 198.093002319
endloop
endfacet
facet normal -0.187462493777 0.982271790504 0.0
outer loop
vertex 15.9506368637 -2.93084597588 198.093002319
vertex 18.9797706604 -2.35274839401 198.112991333
vertex 18.9797706604 -2.35274839401 198.093002319
endloop
endfacet
facet normal -0.187462493777 0.982271790504 0.0
outer loop
vertex 15.9506368637 -2.93084597588 198.112991333
vertex 18.9797706604 -2.35274839401 198.112991333
vertex 15.9506368637 -2.93084597588 198.093002319
endloop
endfacet
facet normal -0.994701385498 -0.102806091309 0.0
outer loop
vertex 9.84703540802 -3.82409882545 198.093002319
vertex 9.84189510345 -3.77436375618 198.112991333
vertex 9.84189510345 -3.77436375618 198.093002319
endloop
endfacet
facet normal -0.994701385498 -0.102806091309 -0.0
outer loop
vertex 9.84703540802 -3.82409882545 198.112991333
vertex 9.84189510345 -3.77436375618 198.112991333
vertex 9.84703540802 -3.82409882545 198.093002319
endloop
endfacet
facet normal -0.0 0.0 1.0
outer loop
vertex 15.9506368637 -2.93084597588 198.112991333
vertex 15.9591674805 -2.98011279106 198.112991333
vertex 18.9797706604 -2.35274839401 198.112991333
endloop
endfacet
facet normal 0.0 0.0 1.0
outer loop
vertex 18.9797706604 -2.35274839401 198.112991333
vertex 15.9591674805 -2.98011279106 198.112991333
vertex 18.989982605 -2.40169429779 198.112991333
endloop
endfacet
facet normal -0.0 0.0 1.0
outer loop
vertex 12.9034872055 -3.40490293503 198.112991333
vertex 12.9103269577 -3.45443296432 198.112991333
vertex 15.9506368637 -2.93084597588 198.112991333
endloop
endfacet
facet normal 0.0 0.0 1.0
outer loop
vertex 15.9506368637 -2.93084597588 198.112991333
vertex 12.9103269577 -3.45443296432 198.112991333
vertex 15.9591674805 -2.98011279106 198.112991333
endloop
endfacet
facet normal 0.0 0.0 1.0
outer loop
vertex 12.9034872055 -3.40490293503 198.112991333
vertex 9.84189510345 -3.77436375618 198.112991333
vertex 12.9103269577 -3.45443296432 198.112991333
endloop
endfacet
facet normal -0.0 0.0 1.0
outer loop
vertex 9.84189510345 -3.77436375618 198.112991333
vertex 9.84703540802 -3.82409882545 198.112991333
vertex 12.9103269577 -3.45443296432 198.112991333
endloop
endfacet
facet normal 0.0 0.0 -1.0
outer loop
vertex 15.9591674805 -2.98011279106 198.093002319
vertex 15.9506368637 -2.93084597588 198.093002319
vertex 18.9797706604 -2.35274839401 198.093002319
endloop
endfacet
facet normal 0.0 0.0 -1.0
outer loop
vertex 15.9591674805 -2.98011279106 198.093002319
vertex 18.9797706604 -2.35274839401 198.093002319
vertex 18.989982605 -2.40169429779 198.093002319
endloop
endfacet
facet normal 0.0 0.0 -1.0
outer loop
vertex 12.9103269577 -3.45443296432 198.093002319
vertex 12.9034872055 -3.40490293503 198.093002319
vertex 15.9506368637 -2.93084597588 198.093002319
endloop
endfacet
facet normal 0.0 0.0 -1.0
outer loop
vertex 12.9103269577 -3.45443296432 198.093002319
vertex 15.9506368637 -2.93084597588 198.093002319
vertex 15.9591674805 -2.98011279106 198.093002319
endloop
endfacet
facet normal 0.0 0.0 -1.0
outer loop
vertex 9.84703540802 -3.82409882545 198.093002319
vertex 9.84189510345 -3.77436375618 198.093002319
vertex 12.9034872055 -3.40490293503 198.093002319
endloop
endfacet
facet normal 0.0 0.0 -1.0
outer loop
vertex 9.84703540802 -3.82409882545 198.093002319
vertex 12.9034872055 -3.40490293503 198.093002319
vertex 12.9103269577 -3.45443296432 198.093002319
endloop
endfacet
