solid 
facet normal 0.0173700414598 -0.999849140644 0.0
outer loop
vertex 0.606425821781 -4.30145311356 -81.9619979858
vertex 0.606425821781 -4.30145311356 -81.9820022583
vertex 3.69147634506 -4.24785757065 -81.9820022583
endloop
endfacet
facet normal 0.0173700414598 -0.999849140644 0.0
outer loop
vertex 3.69147634506 -4.24785757065 -81.9619979858
vertex 0.606425821781 -4.30145311356 -81.9619979858
vertex 3.69147634506 -4.24785757065 -81.9820022583
endloop
endfacet
facet normal 0.0515896379948 -0.998668313026 0.0
outer loop
vertex 6.77288341522 -4.08867692947 -81.9619979858
vertex 3.69147634506 -4.24785757065 -81.9820022583
vertex 6.77288341522 -4.08867692947 -81.9820022583
endloop
endfacet
facet normal 0.0857484340668 -0.996316790581 0.0
outer loop
vertex 6.77288341522 -4.08867692947 -81.9619979858
vertex 6.77288341522 -4.08867692947 -81.9820022583
vertex 9.84703445435 -3.82409882545 -81.9820022583
endloop
endfacet
facet normal 0.0515896379948 -0.998668313026 0.0
outer loop
vertex 6.77288341522 -4.08867692947 -81.9619979858
vertex 3.69147634506 -4.24785757065 -81.9619979858
vertex 3.69147634506 -4.24785757065 -81.9820022583
endloop
endfacet
facet normal 0.0857484340668 -0.996316790581 0.0
outer loop
vertex 9.84703445435 -3.82409882545 -81.9619979858
vertex 6.77288341522 -4.08867692947 -81.9619979858
vertex 9.84703445435 -3.82409882545 -81.9820022583
endloop
endfacet
facet normal 0.994703412056 0.102787226439 0.0
outer loop
vertex 9.84189510345 -3.77436375618 -81.9619979858
vertex 9.84703445435 -3.82409882545 -81.9619979858
vertex 9.84703445435 -3.82409882545 -81.9820022583
endloop
endfacet
facet normal 0.994703412056 0.102787226439 0.0
outer loop
vertex 9.84189510345 -3.77436375618 -81.9619979858
vertex 9.84703445435 -3.82409882545 -81.9820022583
vertex 9.84189510345 -3.77436375618 -81.9820022583
endloop
endfacet
facet normal -0.0173700992018 0.999849140644 0.0
outer loop
vertex 0.606413304806 -4.25145339966 -81.9820022583
vertex 0.606413304806 -4.25145339966 -81.9619979858
vertex 3.6897521019 -4.19788742065 -81.9820022583
endloop
endfacet
facet normal -0.051589678973 0.998668372631 0.0
outer loop
vertex 3.6897521019 -4.19788742065 -81.9820022583
vertex 3.6897521019 -4.19788742065 -81.9619979858
vertex 6.76944923401 -4.03879499435 -81.9820022583
endloop
endfacet
facet normal -0.0173700992018 0.999849140644 0.0
outer loop
vertex 0.606413304806 -4.25145339966 -81.9619979858
vertex 3.6897521019 -4.19788742065 -81.9619979858
vertex 3.6897521019 -4.19788742065 -81.9820022583
endloop
endfacet
facet normal -0.051589678973 0.998668372631 0.0
outer loop
vertex 3.6897521019 -4.19788742065 -81.9619979858
vertex 6.76944923401 -4.03879499435 -81.9619979858
vertex 6.76944923401 -4.03879499435 -81.9820022583
endloop
endfacet
facet normal -0.0857483893633 0.996316790581 0.0
outer loop
vertex 6.76944923401 -4.03879499435 -81.9820022583
vertex 9.84189510345 -3.77436375618 -81.9619979858
vertex 9.84189510345 -3.77436375618 -81.9820022583
endloop
endfacet
facet normal -0.0857483893633 0.996316790581 0.0
outer loop
vertex 6.76944923401 -4.03879499435 -81.9619979858
vertex 9.84189510345 -3.77436375618 -81.9619979858
vertex 6.76944923401 -4.03879499435 -81.9820022583
endloop
endfacet
facet normal -0.999999880791 -0.000250340934144 0.0
outer loop
vertex 0.606425821781 -4.30145311356 -81.9820022583
vertex 0.606413304806 -4.25145339966 -81.9619979858
vertex 0.606413304806 -4.25145339966 -81.9820022583
endloop
endfacet
facet normal -0.999999880791 -0.000250340934144 -0.0
outer loop
vertex 0.606425821781 -4.30145311356 -81.9619979858
vertex 0.606413304806 -4.25145339966 -81.9619979858
vertex 0.606425821781 -4.30145311356 -81.9820022583
endloop
endfacet
facet normal 0.0 0.0 1.0
outer loop
vertex 9.84189510345 -3.77436375618 -81.9619979858
vertex 6.76944923401 -4.03879499435 -81.9619979858
vertex 9.84703445435 -3.82409882545 -81.9619979858
endloop
endfacet
facet normal -0.0 0.0 1.0
outer loop
vertex 6.76944923401 -4.03879499435 -81.9619979858
vertex 6.77288341522 -4.08867692947 -81.9619979858
vertex 9.84703445435 -3.82409882545 -81.9619979858
endloop
endfacet
facet normal 0.0 0.0 1.0
outer loop
vertex 6.76944923401 -4.03879499435 -81.9619979858
vertex 3.6897521019 -4.19788742065 -81.9619979858
vertex 6.77288341522 -4.08867692947 -81.9619979858
endloop
endfacet
facet normal -0.0 0.0 1.0
outer loop
vertex 3.6897521019 -4.19788742065 -81.9619979858
vertex 3.69147634506 -4.24785757065 -81.9619979858
vertex 6.77288341522 -4.08867692947 -81.9619979858
endloop
endfacet
facet normal -0.0 0.0 1.0
outer loop
vertex 0.606413304806 -4.25145339966 -81.9619979858
vertex 0.606425821781 -4.30145311356 -81.9619979858
vertex 3.6897521019 -4.19788742065 -81.9619979858
endloop
endfacet
facet normal 0.0 0.0 1.0
outer loop
vertex 3.6897521019 -4.19788742065 -81.9619979858
vertex 0.606425821781 -4.30145311356 -81.9619979858
vertex 3.69147634506 -4.24785757065 -81.9619979858
endloop
endfacet
facet normal 0.0 0.0 -1.0
outer loop
vertex 6.76944923401 -4.03879499435 -81.9820022583
vertex 9.84189510345 -3.77436375618 -81.9820022583
vertex 9.84703445435 -3.82409882545 -81.9820022583
endloop
endfacet
facet normal 0.0 0.0 -1.0
outer loop
vertex 6.77288341522 -4.08867692947 -81.9820022583
vertex 6.76944923401 -4.03879499435 -81.9820022583
vertex 9.84703445435 -3.82409882545 -81.9820022583
endloop
endfacet
facet normal 0.0 0.0 -1.0
outer loop
vertex 3.6897521019 -4.19788742065 -81.9820022583
vertex 6.76944923401 -4.03879499435 -81.9820022583
vertex 6.77288341522 -4.08867692947 -81.9820022583
endloop
endfacet
facet normal 0.0 0.0 -1.0
outer loop
vertex 3.69147634506 -4.24785757065 -81.9820022583
vertex 3.6897521019 -4.19788742065 -81.9820022583
vertex 6.77288341522 -4.08867692947 -81.9820022583
endloop
endfacet
facet normal 0.0 0.0 -1.0
outer loop
vertex 0.606413304806 -4.25145339966 -81.9820022583
vertex 3.6897521019 -4.19788742065 -81.9820022583
vertex 3.69147634506 -4.24785757065 -81.9820022583
endloop
endfacet
facet normal 0.0 0.0 -1.0
outer loop
vertex 0.606425821781 -4.30145311356 -81.9820022583
vertex 0.606413304806 -4.25145339966 -81.9820022583
vertex 3.69147634506 -4.24785757065 -81.9820022583
endloop
endfacet
