solid 
facet normal -0.0173701997846 0.999849200249 0.0
outer loop
vertex -3.69148182869 4.24785709381 99.9970016479
vertex -0.606431424618 4.30145311356 99.9970016479
vertex -0.606431424618 4.30145311356 99.9770050049
endloop
endfacet
facet normal -0.0173701997846 0.999849200249 0.0
outer loop
vertex -3.69148182869 4.24785709381 99.9970016479
vertex -0.606431424618 4.30145311356 99.9770050049
vertex -3.69148182869 4.24785709381 99.9770050049
endloop
endfacet
facet normal -0.0515896342695 0.998668372631 0.0
outer loop
vertex -6.77288913727 4.08867645264 99.9970016479
vertex -3.69148182869 4.24785709381 99.9770050049
vertex -6.77288913727 4.08867645264 99.9770050049
endloop
endfacet
facet normal -0.0515896342695 0.998668372631 0.0
outer loop
vertex -6.77288913727 4.08867645264 99.9970016479
vertex -3.69148182869 4.24785709381 99.9970016479
vertex -3.69148182869 4.24785709381 99.9770050049
endloop
endfacet
facet normal -0.0857485756278 0.996316790581 0.0
outer loop
vertex -9.84704017639 3.82409787178 99.9970016479
vertex -6.77288913727 4.08867645264 99.9770050049
vertex -9.84704017639 3.82409787178 99.9770050049
endloop
endfacet
facet normal -0.0857485756278 0.996316790581 0.0
outer loop
vertex -9.84704017639 3.82409787178 99.9970016479
vertex -6.77288913727 4.08867645264 99.9970016479
vertex -6.77288913727 4.08867645264 99.9770050049
endloop
endfacet
facet normal -0.994703352451 -0.102787218988 0.0
outer loop
vertex -9.84704017639 3.82409787178 99.9970016479
vertex -9.8419008255 3.77436280251 99.9770050049
vertex -9.8419008255 3.77436280251 99.9970016479
endloop
endfacet
facet normal -0.994703352451 -0.102787218988 0.0
outer loop
vertex -9.84704017639 3.82409787178 99.9770050049
vertex -9.8419008255 3.77436280251 99.9770050049
vertex -9.84704017639 3.82409787178 99.9970016479
endloop
endfacet
facet normal 0.0173700992018 -0.999849140644 0.0
outer loop
vertex -0.606418907642 4.25145292282 99.9770050049
vertex -3.68975758553 4.19788694382 99.9970016479
vertex -3.68975758553 4.19788694382 99.9770050049
endloop
endfacet
facet normal 0.0173700992018 -0.999849140644 0.0
outer loop
vertex -0.606418907642 4.25145292282 99.9970016479
vertex -3.68975758553 4.19788694382 99.9970016479
vertex -0.606418907642 4.25145292282 99.9770050049
endloop
endfacet
facet normal 0.0515896715224 -0.998668372631 0.0
outer loop
vertex -3.68975758553 4.19788694382 99.9770050049
vertex -6.76945495605 4.03879451752 99.9970016479
vertex -6.76945495605 4.03879451752 99.9770050049
endloop
endfacet
facet normal 0.0857485383749 -0.996316790581 0.0
outer loop
vertex -6.76945495605 4.03879451752 99.9770050049
vertex -6.76945495605 4.03879451752 99.9970016479
vertex -9.8419008255 3.77436280251 99.9770050049
endloop
endfacet
facet normal 0.0515896715224 -0.998668372631 0.0
outer loop
vertex -3.68975758553 4.19788694382 99.9970016479
vertex -6.76945495605 4.03879451752 99.9970016479
vertex -3.68975758553 4.19788694382 99.9770050049
endloop
endfacet
facet normal 0.0857485383749 -0.996316790581 0.0
outer loop
vertex -6.76945495605 4.03879451752 99.9970016479
vertex -9.8419008255 3.77436280251 99.9970016479
vertex -9.8419008255 3.77436280251 99.9770050049
endloop
endfacet
facet normal 1.0 0.00025033854763 -0.0
outer loop
vertex -0.606418907642 4.25145292282 99.9770050049
vertex -0.606431424618 4.30145311356 99.9970016479
vertex -0.606418907642 4.25145292282 99.9970016479
endloop
endfacet
facet normal 1.0 0.00025033854763 0.0
outer loop
vertex -0.606418907642 4.25145292282 99.9770050049
vertex -0.606431424618 4.30145311356 99.9770050049
vertex -0.606431424618 4.30145311356 99.9970016479
endloop
endfacet
facet normal 0.0 0.0 -1.0
outer loop
vertex -6.76945495605 4.03879451752 99.9770050049
vertex -9.8419008255 3.77436280251 99.9770050049
vertex -9.84704017639 3.82409787178 99.9770050049
endloop
endfacet
facet normal 0.0 -0.0 -1.0
outer loop
vertex -6.77288913727 4.08867645264 99.9770050049
vertex -6.76945495605 4.03879451752 99.9770050049
vertex -9.84704017639 3.82409787178 99.9770050049
endloop
endfacet
facet normal 0.0 0.0 -1.0
outer loop
vertex -3.68975758553 4.19788694382 99.9770050049
vertex -6.76945495605 4.03879451752 99.9770050049
vertex -6.77288913727 4.08867645264 99.9770050049
endloop
endfacet
facet normal 0.0 -0.0 -1.0
outer loop
vertex -3.69148182869 4.24785709381 99.9770050049
vertex -3.68975758553 4.19788694382 99.9770050049
vertex -6.77288913727 4.08867645264 99.9770050049
endloop
endfacet
facet normal 0.0 0.0 -1.0
outer loop
vertex -0.606418907642 4.25145292282 99.9770050049
vertex -3.68975758553 4.19788694382 99.9770050049
vertex -3.69148182869 4.24785709381 99.9770050049
endloop
endfacet
facet normal 0.0 -0.0 -1.0
outer loop
vertex -0.606431424618 4.30145311356 99.9770050049
vertex -0.606418907642 4.25145292282 99.9770050049
vertex -3.69148182869 4.24785709381 99.9770050049
endloop
endfacet
facet normal 0.0 0.0 1.0
outer loop
vertex -6.76945495605 4.03879451752 99.9970016479
vertex -6.77288913727 4.08867645264 99.9970016479
vertex -9.8419008255 3.77436280251 99.9970016479
endloop
endfacet
facet normal 0.0 -0.0 1.0
outer loop
vertex -9.8419008255 3.77436280251 99.9970016479
vertex -6.77288913727 4.08867645264 99.9970016479
vertex -9.84704017639 3.82409787178 99.9970016479
endloop
endfacet
facet normal 0.0 0.0 1.0
outer loop
vertex -3.68975758553 4.19788694382 99.9970016479
vertex -3.69148182869 4.24785709381 99.9970016479
vertex -6.76945495605 4.03879451752 99.9970016479
endloop
endfacet
facet normal 0.0 -0.0 1.0
outer loop
vertex -6.76945495605 4.03879451752 99.9970016479
vertex -3.69148182869 4.24785709381 99.9970016479
vertex -6.77288913727 4.08867645264 99.9970016479
endloop
endfacet
facet normal 0.0 0.0 1.0
outer loop
vertex -0.606418907642 4.25145292282 99.9970016479
vertex -0.606431424618 4.30145311356 99.9970016479
vertex -3.68975758553 4.19788694382 99.9970016479
endloop
endfacet
facet normal 0.0 -0.0 1.0
outer loop
vertex -3.68975758553 4.19788694382 99.9970016479
vertex -0.606431424618 4.30145311356 99.9970016479
vertex -3.69148182869 4.24785709381 99.9970016479
endloop
endfacet
