solid 
facet normal -0.0173700414598 -0.999849140644 0.0
outer loop
vertex -0.606415629387 -4.30145263672 -31.408000946
vertex -0.606415629387 -4.30145263672 -31.3880004883
vertex -3.69146609306 -4.24785709381 -31.3880004883
endloop
endfacet
facet normal -0.0515894815326 -0.998668372631 0.0
outer loop
vertex -3.69146609306 -4.24785709381 -31.408000946
vertex -3.69146609306 -4.24785709381 -31.3880004883
vertex -6.77287340164 -4.08867692947 -31.3880004883
endloop
endfacet
facet normal -0.0173700414598 -0.999849140644 0.0
outer loop
vertex -3.69146609306 -4.24785709381 -31.408000946
vertex -0.606415629387 -4.30145263672 -31.408000946
vertex -3.69146609306 -4.24785709381 -31.3880004883
endloop
endfacet
facet normal -0.0515894815326 -0.998668372631 0.0
outer loop
vertex -6.77287340164 -4.08867692947 -31.408000946
vertex -3.69146609306 -4.24785709381 -31.408000946
vertex -6.77287340164 -4.08867692947 -31.3880004883
endloop
endfacet
facet normal -0.0857482627034 -0.996316850185 0.0
outer loop
vertex -9.8470249176 -3.82409930229 -31.408000946
vertex -6.77287340164 -4.08867692947 -31.3880004883
vertex -9.8470249176 -3.82409930229 -31.3880004883
endloop
endfacet
facet normal -0.0857482627034 -0.996316850185 0.0
outer loop
vertex -9.8470249176 -3.82409930229 -31.408000946
vertex -6.77287340164 -4.08867692947 -31.408000946
vertex -6.77287340164 -4.08867692947 -31.3880004883
endloop
endfacet
facet normal -0.994701504707 0.10280610621 0.0
outer loop
vertex -9.8470249176 -3.82409930229 -31.408000946
vertex -9.84188461304 -3.77436423302 -31.3880004883
vertex -9.84188461304 -3.77436423302 -31.408000946
endloop
endfacet
facet normal -0.994701504707 0.10280610621 0.0
outer loop
vertex -9.8470249176 -3.82409930229 -31.3880004883
vertex -9.84188461304 -3.77436423302 -31.3880004883
vertex -9.8470249176 -3.82409930229 -31.408000946
endloop
endfacet
facet normal 0.0173699446023 0.999849140644 0.0
outer loop
vertex -0.606403112411 -4.25145244598 -31.3880004883
vertex -3.6897418499 -4.19788694382 -31.408000946
vertex -3.6897418499 -4.19788694382 -31.3880004883
endloop
endfacet
facet normal 0.0173699446023 0.999849140644 -0.0
outer loop
vertex -0.606403112411 -4.25145244598 -31.408000946
vertex -3.6897418499 -4.19788694382 -31.408000946
vertex -0.606403112411 -4.25145244598 -31.3880004883
endloop
endfacet
facet normal 0.0515895150602 0.998668372631 0.0
outer loop
vertex -3.6897418499 -4.19788694382 -31.3880004883
vertex -6.76943922043 -4.03879499435 -31.408000946
vertex -6.76943922043 -4.03879499435 -31.3880004883
endloop
endfacet
facet normal 0.0857482552528 0.996316850185 0.0
outer loop
vertex -6.76943922043 -4.03879499435 -31.3880004883
vertex -6.76943922043 -4.03879499435 -31.408000946
vertex -9.84188461304 -3.77436423302 -31.3880004883
endloop
endfacet
facet normal 0.0515895150602 0.998668372631 -0.0
outer loop
vertex -3.6897418499 -4.19788694382 -31.408000946
vertex -6.76943922043 -4.03879499435 -31.408000946
vertex -3.6897418499 -4.19788694382 -31.3880004883
endloop
endfacet
facet normal 0.0857482552528 0.996316850185 0.0
outer loop
vertex -6.76943922043 -4.03879499435 -31.408000946
vertex -9.84188461304 -3.77436423302 -31.408000946
vertex -9.84188461304 -3.77436423302 -31.3880004883
endloop
endfacet
facet normal 0.999999880791 -0.000250338518526 0.0
outer loop
vertex -0.606403112411 -4.25145244598 -31.408000946
vertex -0.606415629387 -4.30145263672 -31.3880004883
vertex -0.606415629387 -4.30145263672 -31.408000946
endloop
endfacet
facet normal 0.999999880791 -0.000250338518526 0.0
outer loop
vertex -0.606403112411 -4.25145244598 -31.3880004883
vertex -0.606415629387 -4.30145263672 -31.3880004883
vertex -0.606403112411 -4.25145244598 -31.408000946
endloop
endfacet
facet normal 0.0 0.0 1.0
outer loop
vertex -6.76943922043 -4.03879499435 -31.3880004883
vertex -9.84188461304 -3.77436423302 -31.3880004883
vertex -9.8470249176 -3.82409930229 -31.3880004883
endloop
endfacet
facet normal 0.0 -0.0 1.0
outer loop
vertex -6.77287340164 -4.08867692947 -31.3880004883
vertex -6.76943922043 -4.03879499435 -31.3880004883
vertex -9.8470249176 -3.82409930229 -31.3880004883
endloop
endfacet
facet normal 0.0 0.0 1.0
outer loop
vertex -3.6897418499 -4.19788694382 -31.3880004883
vertex -6.76943922043 -4.03879499435 -31.3880004883
vertex -6.77287340164 -4.08867692947 -31.3880004883
endloop
endfacet
facet normal 0.0 -0.0 1.0
outer loop
vertex -3.69146609306 -4.24785709381 -31.3880004883
vertex -3.6897418499 -4.19788694382 -31.3880004883
vertex -6.77287340164 -4.08867692947 -31.3880004883
endloop
endfacet
facet normal 0.0 0.0 1.0
outer loop
vertex -0.606403112411 -4.25145244598 -31.3880004883
vertex -3.6897418499 -4.19788694382 -31.3880004883
vertex -3.69146609306 -4.24785709381 -31.3880004883
endloop
endfacet
facet normal 0.0 -0.0 1.0
outer loop
vertex -0.606415629387 -4.30145263672 -31.3880004883
vertex -0.606403112411 -4.25145244598 -31.3880004883
vertex -3.69146609306 -4.24785709381 -31.3880004883
endloop
endfacet
facet normal -0.0 0.0 -1.0
outer loop
vertex -6.76943922043 -4.03879499435 -31.408000946
vertex -6.77287340164 -4.08867692947 -31.408000946
vertex -9.84188461304 -3.77436423302 -31.408000946
endloop
endfacet
facet normal 0.0 -0.0 -1.0
outer loop
vertex -9.84188461304 -3.77436423302 -31.408000946
vertex -6.77287340164 -4.08867692947 -31.408000946
vertex -9.8470249176 -3.82409930229 -31.408000946
endloop
endfacet
facet normal -0.0 0.0 -1.0
outer loop
vertex -3.6897418499 -4.19788694382 -31.408000946
vertex -3.69146609306 -4.24785709381 -31.408000946
vertex -6.76943922043 -4.03879499435 -31.408000946
endloop
endfacet
facet normal 0.0 -0.0 -1.0
outer loop
vertex -6.76943922043 -4.03879499435 -31.408000946
vertex -3.69146609306 -4.24785709381 -31.408000946
vertex -6.77287340164 -4.08867692947 -31.408000946
endloop
endfacet
facet normal -0.0 0.0 -1.0
outer loop
vertex -0.606403112411 -4.25145244598 -31.408000946
vertex -0.606415629387 -4.30145263672 -31.408000946
vertex -3.6897418499 -4.19788694382 -31.408000946
endloop
endfacet
facet normal 0.0 -0.0 -1.0
outer loop
vertex -3.6897418499 -4.19788694382 -31.408000946
vertex -0.606415629387 -4.30145263672 -31.408000946
vertex -3.69146609306 -4.24785709381 -31.408000946
endloop
endfacet
