solid 
facet normal -0.00159501982853 0.999998748302 -1.32966892705e-11
outer loop
vertex 0.473098307848 4.3013882637 -172.776000977
vertex 0.40643170476 4.30128192902 -172.776000977
vertex 0.406431674957 4.30128192902 -169.184997559
endloop
endfacet
facet normal -0.00159502052702 0.999998748302 -2.64746696788e-11
outer loop
vertex 0.473098307848 4.3013882637 -172.776000977
vertex 0.406431674957 4.30128192902 -169.184997559
vertex 0.473098248243 4.3013882637 -169.184997559
endloop
endfacet
facet normal -0.000858306942973 0.999999642372 1.32772299821e-07
outer loop
vertex 0.539764940739 4.301445961 -172.776000977
vertex 0.473098248243 4.3013882637 -169.184997559
vertex 0.539764881134 4.30144548416 -169.184997559
endloop
endfacet
facet normal -0.000865459558554 0.999999642372 -1.3296695342e-11
outer loop
vertex 0.539764940739 4.301445961 -172.776000977
vertex 0.473098307848 4.3013882637 -172.776000977
vertex 0.473098248243 4.3013882637 -169.184997559
endloop
endfacet
facet normal -0.000121593475342 1.0 -2.01824819877e-12
outer loop
vertex 0.606431603432 4.30145359039 -172.776000977
vertex 0.539764881134 4.30144548416 -169.184997559
vertex 0.606431543827 4.30145359039 -169.184997559
endloop
endfacet
facet normal -0.000114440925245 1.0 1.32784592211e-07
outer loop
vertex 0.606431603432 4.30145359039 -172.776000977
vertex 0.539764940739 4.301445961 -172.776000977
vertex 0.539764881134 4.30144548416 -169.184997559
endloop
endfacet
facet normal 0.999999940395 -0.000250340934144 1.65984825884e-08
outer loop
vertex 0.606419086456 4.2514538765 -172.776000977
vertex 0.606431603432 4.30145359039 -172.776000977
vertex 0.606431543827 4.30145359039 -169.184997559
endloop
endfacet
facet normal 0.999999940395 -0.000250338518526 1.65650835271e-08
outer loop
vertex 0.606419086456 4.2514538765 -172.776000977
vertex 0.606431543827 4.30145359039 -169.184997559
vertex 0.606419026852 4.25145339966 -169.184997559
endloop
endfacet
facet normal 0.00160306238104 -0.999998688698 1.3304075723e-11
outer loop
vertex 0.40653014183 4.25128173828 -169.184997559
vertex 0.473159760237 4.2513885498 -172.776000977
vertex 0.473159730434 4.2513885498 -169.184997559
endloop
endfacet
facet normal 0.00160306238104 -0.999998688698 1.3304075723e-11
outer loop
vertex 0.406530171633 4.25128173828 -172.776000977
vertex 0.473159760237 4.2513885498 -172.776000977
vertex 0.40653014183 4.25128173828 -169.184997559
endloop
endfacet
facet normal 0.000858783430886 -0.999999642372 0.0
outer loop
vertex 0.473159730434 4.2513885498 -169.184997559
vertex 0.539789378643 4.25144577026 -172.776000977
vertex 0.539789378643 4.25144577026 -169.184997559
endloop
endfacet
facet normal 0.000858783838339 -0.999999642372 7.12718686152e-12
outer loop
vertex 0.473159760237 4.2513885498 -172.776000977
vertex 0.539789378643 4.25144577026 -172.776000977
vertex 0.473159730434 4.2513885498 -169.184997559
endloop
endfacet
facet normal 0.000114504502562 -1.0 -1.32784705897e-07
outer loop
vertex 0.539789378643 4.25144577026 -169.184997559
vertex 0.606419086456 4.2514538765 -172.776000977
vertex 0.606419026852 4.25145339966 -169.184997559
endloop
endfacet
facet normal 0.000121660916193 -1.0 0.0
outer loop
vertex 0.539789378643 4.25144577026 -172.776000977
vertex 0.606419086456 4.2514538765 -172.776000977
vertex 0.539789378643 4.25144577026 -169.184997559
endloop
endfacet
facet normal -0.999998033047 -0.00196932605468 -8.29708834971e-09
outer loop
vertex 0.40643170476 4.30128192902 -172.776000977
vertex 0.406530171633 4.25128173828 -172.776000977
vertex 0.40653014183 4.25128173828 -169.184997559
endloop
endfacet
facet normal -0.999998033047 -0.00196932605468 -8.29914625911e-09
outer loop
vertex 0.40643170476 4.30128192902 -172.776000977
vertex 0.40653014183 4.25128173828 -169.184997559
vertex 0.406431674957 4.30128192902 -169.184997559
endloop
endfacet
facet normal -0.0 0.0 -1.0
outer loop
vertex 0.606419086456 4.2514538765 -172.776000977
vertex 0.539789378643 4.25144577026 -172.776000977
vertex 0.606431603432 4.30145359039 -172.776000977
endloop
endfacet
facet normal 0.0 0.0 -1.0
outer loop
vertex 0.539789378643 4.25144577026 -172.776000977
vertex 0.539764940739 4.301445961 -172.776000977
vertex 0.606431603432 4.30145359039 -172.776000977
endloop
endfacet
facet normal 0.0 0.0 -1.0
outer loop
vertex 0.473159760237 4.2513885498 -172.776000977
vertex 0.473098307848 4.3013882637 -172.776000977
vertex 0.539789378643 4.25144577026 -172.776000977
endloop
endfacet
facet normal 0.0 0.0 -1.0
outer loop
vertex 0.539789378643 4.25144577026 -172.776000977
vertex 0.473098307848 4.3013882637 -172.776000977
vertex 0.539764940739 4.301445961 -172.776000977
endloop
endfacet
facet normal 0.0 0.0 -1.0
outer loop
vertex 0.406530171633 4.25128173828 -172.776000977
vertex 0.40643170476 4.30128192902 -172.776000977
vertex 0.473159760237 4.2513885498 -172.776000977
endloop
endfacet
facet normal 0.0 0.0 -1.0
outer loop
vertex 0.473159760237 4.2513885498 -172.776000977
vertex 0.40643170476 4.30128192902 -172.776000977
vertex 0.473098307848 4.3013882637 -172.776000977
endloop
endfacet
facet normal 0.0 0.0 1.0
outer loop
vertex 0.539789378643 4.25144577026 -169.184997559
vertex 0.606419026852 4.25145339966 -169.184997559
vertex 0.606431543827 4.30145359039 -169.184997559
endloop
endfacet
facet normal -0.0 0.0 1.0
outer loop
vertex 0.539764881134 4.30144548416 -169.184997559
vertex 0.539789378643 4.25144577026 -169.184997559
vertex 0.606431543827 4.30145359039 -169.184997559
endloop
endfacet
facet normal 0.0 0.0 1.0
outer loop
vertex 0.473098248243 4.3013882637 -169.184997559
vertex 0.473159730434 4.2513885498 -169.184997559
vertex 0.539789378643 4.25144577026 -169.184997559
endloop
endfacet
facet normal -0.0 0.0 1.0
outer loop
vertex 0.473098248243 4.3013882637 -169.184997559
vertex 0.539789378643 4.25144577026 -169.184997559
vertex 0.539764881134 4.30144548416 -169.184997559
endloop
endfacet
facet normal 0.0 0.0 1.0
outer loop
vertex 0.406431674957 4.30128192902 -169.184997559
vertex 0.40653014183 4.25128173828 -169.184997559
vertex 0.473159730434 4.2513885498 -169.184997559
endloop
endfacet
facet normal -0.0 0.0 1.0
outer loop
vertex 0.406431674957 4.30128192902 -169.184997559
vertex 0.473159730434 4.2513885498 -169.184997559
vertex 0.473098248243 4.3013882637 -169.184997559
endloop
endfacet
