solid 
facet normal -0.0172592047602 0.999851047993 0.0
outer loop
vertex -3.67149353027 4.24854469299 104.21900177
vertex -0.606431245804 4.30145311356 104.21900177
vertex -0.606431305408 4.30145311356 100.648002625
endloop
endfacet
facet normal -0.0172592047602 0.999851047993 0.0
outer loop
vertex -3.67149353027 4.24854469299 104.21900177
vertex -0.606431305408 4.30145311356 100.648002625
vertex -3.67149353027 4.24854469299 100.648002625
endloop
endfacet
facet normal -0.0512571521103 0.998685479164 0.0
outer loop
vertex -6.7329826355 4.09141492844 104.21900177
vertex -3.67149353027 4.24854469299 100.648002625
vertex -6.7329826355 4.09141492844 100.648002625
endloop
endfacet
facet normal -0.0512571521103 0.998685479164 0.0
outer loop
vertex -6.7329826355 4.09141492844 104.21900177
vertex -3.67149353027 4.24854469299 104.21900177
vertex -3.67149353027 4.24854469299 100.648002625
endloop
endfacet
facet normal -0.0851957350969 0.996364235878 0.0
outer loop
vertex -9.78735637665 3.83024573326 104.21900177
vertex -6.7329826355 4.09141492844 100.648002625
vertex -9.78735637665 3.83024573326 100.648002625
endloop
endfacet
facet normal -0.0851957350969 0.996364235878 0.0
outer loop
vertex -9.78735637665 3.83024573326 104.21900177
vertex -6.7329826355 4.09141492844 104.21900177
vertex -6.7329826355 4.09141492844 100.648002625
endloop
endfacet
facet normal -0.994770228863 -0.102138251066 -0.0
outer loop
vertex -9.78735637665 3.83024573326 104.21900177
vertex -9.78735637665 3.83024573326 100.648002625
vertex -9.78224945068 3.78050708771 104.21900177
endloop
endfacet
facet normal -0.994770169258 -0.102138735354 -6.68305677465e-09
outer loop
vertex -9.78735637665 3.83024573326 100.648002625
vertex -9.78224945068 3.78050732613 100.648002625
vertex -9.78224945068 3.78050708771 104.21900177
endloop
endfacet
facet normal 0.0172592941672 -0.999851047993 0.0
outer loop
vertex -0.606418788433 4.25145339966 100.648002625
vertex -3.66978025436 4.19857406616 104.21900177
vertex -3.66978025436 4.19857406616 100.648002625
endloop
endfacet
facet normal 0.051257122308 -0.998685419559 0.0
outer loop
vertex -3.66978025436 4.19857406616 100.648002625
vertex -3.66978025436 4.19857406616 104.21900177
vertex -6.72957086563 4.04153156281 100.648002625
endloop
endfacet
facet normal 0.017259137705 -0.999851047993 -1.33798650381e-07
outer loop
vertex -0.606418728828 4.25145292282 104.21900177
vertex -3.66978025436 4.19857406616 104.21900177
vertex -0.606418788433 4.25145339966 100.648002625
endloop
endfacet
facet normal 0.0512572787702 -0.998685419559 -1.33473008646e-07
outer loop
vertex -3.66978025436 4.19857406616 104.21900177
vertex -6.72957086563 4.04153108597 104.21900177
vertex -6.72957086563 4.04153156281 100.648002625
endloop
endfacet
facet normal 0.0851957425475 -0.996364235878 -6.53745431123e-08
outer loop
vertex -6.72957086563 4.04153156281 100.648002625
vertex -9.78224945068 3.78050708771 104.21900177
vertex -9.78224945068 3.78050732613 100.648002625
endloop
endfacet
facet normal 0.0851956605911 -0.996364235878 -1.33044977702e-07
outer loop
vertex -6.72957086563 4.04153108597 104.21900177
vertex -9.78224945068 3.78050708771 104.21900177
vertex -6.72957086563 4.04153156281 100.648002625
endloop
endfacet
facet normal 0.999999940395 0.000250338518526 -1.66578768557e-08
outer loop
vertex -0.606418728828 4.25145292282 104.21900177
vertex -0.606418788433 4.25145339966 100.648002625
vertex -0.606431245804 4.30145311356 104.21900177
endloop
endfacet
facet normal 1.0 0.000250340934144 -1.66914677635e-08
outer loop
vertex -0.606418788433 4.25145339966 100.648002625
vertex -0.606431305408 4.30145311356 100.648002625
vertex -0.606431245804 4.30145311356 104.21900177
endloop
endfacet
facet normal 0.0 -0.0 -1.0
outer loop
vertex -6.7329826355 4.09141492844 100.648002625
vertex -6.72957086563 4.04153156281 100.648002625
vertex -9.78224945068 3.78050732613 100.648002625
endloop
endfacet
facet normal 0.0 0.0 -1.0
outer loop
vertex -6.7329826355 4.09141492844 100.648002625
vertex -9.78224945068 3.78050732613 100.648002625
vertex -9.78735637665 3.83024573326 100.648002625
endloop
endfacet
facet normal 0.0 -0.0 -1.0
outer loop
vertex -3.67149353027 4.24854469299 100.648002625
vertex -3.66978025436 4.19857406616 100.648002625
vertex -6.72957086563 4.04153156281 100.648002625
endloop
endfacet
facet normal 0.0 0.0 -1.0
outer loop
vertex -3.67149353027 4.24854469299 100.648002625
vertex -6.72957086563 4.04153156281 100.648002625
vertex -6.7329826355 4.09141492844 100.648002625
endloop
endfacet
facet normal 0.0 -0.0 -1.0
outer loop
vertex -0.606431305408 4.30145311356 100.648002625
vertex -0.606418788433 4.25145339966 100.648002625
vertex -3.66978025436 4.19857406616 100.648002625
endloop
endfacet
facet normal 0.0 0.0 -1.0
outer loop
vertex -0.606431305408 4.30145311356 100.648002625
vertex -3.66978025436 4.19857406616 100.648002625
vertex -3.67149353027 4.24854469299 100.648002625
endloop
endfacet
facet normal 0.0 -0.0 1.0
outer loop
vertex -9.78224945068 3.78050708771 104.21900177
vertex -6.72957086563 4.04153108597 104.21900177
vertex -9.78735637665 3.83024573326 104.21900177
endloop
endfacet
facet normal 0.0 0.0 1.0
outer loop
vertex -6.72957086563 4.04153108597 104.21900177
vertex -6.7329826355 4.09141492844 104.21900177
vertex -9.78735637665 3.83024573326 104.21900177
endloop
endfacet
facet normal 0.0 -0.0 1.0
outer loop
vertex -6.72957086563 4.04153108597 104.21900177
vertex -3.66978025436 4.19857406616 104.21900177
vertex -6.7329826355 4.09141492844 104.21900177
endloop
endfacet
facet normal 0.0 0.0 1.0
outer loop
vertex -3.66978025436 4.19857406616 104.21900177
vertex -3.67149353027 4.24854469299 104.21900177
vertex -6.7329826355 4.09141492844 104.21900177
endloop
endfacet
facet normal 0.0 -0.0 1.0
outer loop
vertex -3.66978025436 4.19857406616 104.21900177
vertex -0.606418728828 4.25145292282 104.21900177
vertex -3.67149353027 4.24854469299 104.21900177
endloop
endfacet
facet normal 0.0 0.0 1.0
outer loop
vertex -0.606418728828 4.25145292282 104.21900177
vertex -0.606431245804 4.30145311356 104.21900177
vertex -3.67149353027 4.24854469299 104.21900177
endloop
endfacet
