solid 
facet normal -0.120357692242 0.992730617523 0.0
outer loop
vertex -12.9499492645 3.44895267487 60.8870010376
vertex -9.90671539307 3.81791138649 60.8870010376
vertex -9.90671539307 3.81791138649 57.3160018921
endloop
endfacet
facet normal -0.120357617736 0.992730617523 6.62798882445e-08
outer loop
vertex -12.9499492645 3.44895267487 60.8870010376
vertex -9.90671539307 3.81791138649 57.3160018921
vertex -12.9499492645 3.44895291328 57.3160018921
endloop
endfacet
facet normal -0.154053643346 0.988062441349 1.07109919156e-07
outer loop
vertex -15.9788732529 2.97669816017 60.8870010376
vertex -12.9499492645 3.44895291328 57.3160018921
vertex -15.9788742065 2.97669839859 57.3160018921
endloop
endfacet
facet normal -0.154053688049 0.988062441349 6.53382699056e-08
outer loop
vertex -15.9788732529 2.97669816017 60.8870010376
vertex -12.9499492645 3.44895267487 60.8870010376
vertex -12.9499492645 3.44895291328 57.3160018921
endloop
endfacet
facet normal -0.187571495771 0.982250988483 6.55802097072e-08
outer loop
vertex -18.989982605 2.40169429779 60.8870010376
vertex -15.9788742065 2.97669839859 57.3160018921
vertex -18.989982605 2.40169453621 57.3160018921
endloop
endfacet
facet normal -0.187571436167 0.982250988483 1.19786804476e-07
outer loop
vertex -18.989982605 2.40169429779 60.8870010376
vertex -15.9788732529 2.97669816017 60.8870010376
vertex -15.9788742065 2.97669839859 57.3160018921
endloop
endfacet
facet normal -0.978920996189 -0.204239502549 -1.36921292082e-08
outer loop
vertex -18.989982605 2.40169429779 60.8870010376
vertex -18.9797706604 2.35274863243 57.3160018921
vertex -18.9797706604 2.35274839401 60.8870010376
endloop
endfacet
facet normal -0.978920996189 -0.204239502549 -1.36360975844e-08
outer loop
vertex -18.989982605 2.40169453621 57.3160018921
vertex -18.9797706604 2.35274863243 57.3160018921
vertex -18.989982605 2.40169429779 60.8870010376
endloop
endfacet
facet normal 0.120357647538 -0.992730617523 0.0
outer loop
vertex -9.90154266357 3.76817965508 57.3160018921
vertex -12.9430885315 3.39942574501 60.8870010376
vertex -12.9430885315 3.39942574501 57.3160018921
endloop
endfacet
facet normal 0.120357647538 -0.992730617523 0.0
outer loop
vertex -9.90154266357 3.76817965508 60.8870010376
vertex -12.9430885315 3.39942574501 60.8870010376
vertex -9.90154266357 3.76817965508 57.3160018921
endloop
endfacet
facet normal 0.15405370295 -0.988062500954 0.0
outer loop
vertex -12.9430885315 3.39942574501 57.3160018921
vertex -15.9703321457 2.92743325233 60.8870010376
vertex -15.9703321457 2.92743325233 57.3160018921
endloop
endfacet
facet normal 0.15405370295 -0.988062500954 0.0
outer loop
vertex -12.9430885315 3.39942574501 60.8870010376
vertex -15.9703321457 2.92743325233 60.8870010376
vertex -12.9430885315 3.39942574501 57.3160018921
endloop
endfacet
facet normal 0.187571376562 -0.982250988483 -6.53745360069e-08
outer loop
vertex -15.9703321457 2.92743325233 57.3160018921
vertex -18.9797706604 2.35274839401 60.8870010376
vertex -18.9797706604 2.35274863243 57.3160018921
endloop
endfacet
facet normal 0.187571465969 -0.982250988483 0.0
outer loop
vertex -15.9703321457 2.92743325233 60.8870010376
vertex -18.9797706604 2.35274839401 60.8870010376
vertex -15.9703321457 2.92743325233 57.3160018921
endloop
endfacet
facet normal 0.994634151459 0.10345454514 0.0
outer loop
vertex -9.90154266357 3.76817965508 60.8870010376
vertex -9.90671539307 3.81791138649 57.3160018921
vertex -9.90671539307 3.81791138649 60.8870010376
endloop
endfacet
facet normal 0.994634151459 0.10345454514 -0.0
outer loop
vertex -9.90154266357 3.76817965508 57.3160018921
vertex -9.90671539307 3.81791138649 57.3160018921
vertex -9.90154266357 3.76817965508 60.8870010376
endloop
endfacet
facet normal 0.0 0.0 -1.0
outer loop
vertex -15.9703321457 2.92743325233 57.3160018921
vertex -18.9797706604 2.35274863243 57.3160018921
vertex -18.989982605 2.40169453621 57.3160018921
endloop
endfacet
facet normal 0.0 -0.0 -1.0
outer loop
vertex -15.9788742065 2.97669839859 57.3160018921
vertex -15.9703321457 2.92743325233 57.3160018921
vertex -18.989982605 2.40169453621 57.3160018921
endloop
endfacet
facet normal 0.0 0.0 -1.0
outer loop
vertex -12.9430885315 3.39942574501 57.3160018921
vertex -15.9703321457 2.92743325233 57.3160018921
vertex -15.9788742065 2.97669839859 57.3160018921
endloop
endfacet
facet normal 0.0 -0.0 -1.0
outer loop
vertex -12.9499492645 3.44895291328 57.3160018921
vertex -12.9430885315 3.39942574501 57.3160018921
vertex -15.9788742065 2.97669839859 57.3160018921
endloop
endfacet
facet normal 0.0 0.0 -1.0
outer loop
vertex -9.90154266357 3.76817965508 57.3160018921
vertex -12.9430885315 3.39942574501 57.3160018921
vertex -12.9499492645 3.44895291328 57.3160018921
endloop
endfacet
facet normal 0.0 -0.0 -1.0
outer loop
vertex -9.90671539307 3.81791138649 57.3160018921
vertex -9.90154266357 3.76817965508 57.3160018921
vertex -12.9499492645 3.44895291328 57.3160018921
endloop
endfacet
facet normal 0.0 -0.0 1.0
outer loop
vertex -18.9797706604 2.35274839401 60.8870010376
vertex -15.9703321457 2.92743325233 60.8870010376
vertex -18.989982605 2.40169429779 60.8870010376
endloop
endfacet
facet normal 0.0 0.0 1.0
outer loop
vertex -15.9703321457 2.92743325233 60.8870010376
vertex -15.9788732529 2.97669816017 60.8870010376
vertex -18.989982605 2.40169429779 60.8870010376
endloop
endfacet
facet normal 0.0 -0.0 1.0
outer loop
vertex -15.9703321457 2.92743325233 60.8870010376
vertex -12.9430885315 3.39942574501 60.8870010376
vertex -15.9788732529 2.97669816017 60.8870010376
endloop
endfacet
facet normal 0.0 0.0 1.0
outer loop
vertex -12.9430885315 3.39942574501 60.8870010376
vertex -12.9499492645 3.44895267487 60.8870010376
vertex -15.9788732529 2.97669816017 60.8870010376
endloop
endfacet
facet normal 0.0 -0.0 1.0
outer loop
vertex -12.9430885315 3.39942574501 60.8870010376
vertex -9.90154266357 3.76817965508 60.8870010376
vertex -12.9499492645 3.44895267487 60.8870010376
endloop
endfacet
facet normal 0.0 0.0 1.0
outer loop
vertex -9.90154266357 3.76817965508 60.8870010376
vertex -9.90671539307 3.81791138649 60.8870010376
vertex -12.9499492645 3.44895267487 60.8870010376
endloop
endfacet
