solid 
facet normal -0.0172590520233 0.999851047993 0.0
outer loop
vertex -3.67147254944 4.24854421616 -228.854003906
vertex -0.606410384178 4.30145215988 -228.854003906
vertex -0.606410384178 4.30145215988 -232.425003052
endloop
endfacet
facet normal -0.0172590520233 0.999851047993 0.0
outer loop
vertex -3.67147254944 4.24854421616 -228.854003906
vertex -0.606410384178 4.30145215988 -232.425003052
vertex -3.67147254944 4.24854421616 -232.425003052
endloop
endfacet
facet normal -0.0512568429112 0.998685479164 0.0
outer loop
vertex -6.73296165466 4.09141540527 -228.854003906
vertex -3.67147254944 4.24854421616 -232.425003052
vertex -6.73296165466 4.09141540527 -232.425003052
endloop
endfacet
facet normal -0.0512568429112 0.998685479164 0.0
outer loop
vertex -6.73296165466 4.09141540527 -228.854003906
vertex -3.67147254944 4.24854421616 -228.854003906
vertex -3.67147254944 4.24854421616 -232.425003052
endloop
endfacet
facet normal -0.0851954296231 0.996364235878 0.0
outer loop
vertex -9.78733539581 3.83024716377 -228.854003906
vertex -6.73296165466 4.09141540527 -232.425003052
vertex -9.78733539581 3.83024716377 -232.425003052
endloop
endfacet
facet normal -0.0851954296231 0.996364235878 0.0
outer loop
vertex -9.78733539581 3.83024716377 -228.854003906
vertex -6.73296165466 4.09141540527 -228.854003906
vertex -6.73296165466 4.09141540527 -232.425003052
endloop
endfacet
facet normal -0.994770228863 -0.102138251066 -0.0
outer loop
vertex -9.78733539581 3.83024716377 -228.854003906
vertex -9.78733539581 3.83024716377 -232.425003052
vertex -9.78222846985 3.78050851822 -228.854003906
endloop
endfacet
facet normal -0.994770228863 -0.102138251066 0.0
outer loop
vertex -9.78733539581 3.83024716377 -232.425003052
vertex -9.78222846985 3.78050851822 -232.425003052
vertex -9.78222846985 3.78050851822 -228.854003906
endloop
endfacet
facet normal 0.017259137705 -0.999851047993 0.0
outer loop
vertex -0.606397926807 4.25145244598 -232.425003052
vertex -3.66975951195 4.19857358932 -228.854003906
vertex -3.66975951195 4.19857358932 -232.425003052
endloop
endfacet
facet normal 0.0512568205595 -0.998685538769 0.0
outer loop
vertex -3.66975951195 4.19857358932 -232.425003052
vertex -3.66975951195 4.19857358932 -228.854003906
vertex -6.7295498848 4.04153203964 -232.425003052
endloop
endfacet
facet normal 0.0172589812428 -0.999851047993 -1.33510567935e-07
outer loop
vertex -0.606397926807 4.25145196915 -228.854003906
vertex -3.66975951195 4.19857358932 -228.854003906
vertex -0.606397926807 4.25145244598 -232.425003052
endloop
endfacet
facet normal 0.0512568205595 -0.998685538769 0.0
outer loop
vertex -3.66975951195 4.19857358932 -228.854003906
vertex -6.7295498848 4.04153203964 -228.854003906
vertex -6.7295498848 4.04153203964 -232.425003052
endloop
endfacet
facet normal 0.0851955115795 -0.996364295483 0.0
outer loop
vertex -6.7295498848 4.04153203964 -232.425003052
vertex -9.78222846985 3.78050851822 -228.854003906
vertex -9.78222846985 3.78050851822 -232.425003052
endloop
endfacet
facet normal 0.0851955115795 -0.996364295483 0.0
outer loop
vertex -6.7295498848 4.04153203964 -228.854003906
vertex -9.78222846985 3.78050851822 -228.854003906
vertex -6.7295498848 4.04153203964 -232.425003052
endloop
endfacet
facet normal 0.999999940395 0.000249146425631 3.32686378446e-11
outer loop
vertex -0.606397926807 4.25145196915 -228.854003906
vertex -0.606397926807 4.25145244598 -232.425003052
vertex -0.606410384178 4.30145215988 -228.854003906
endloop
endfacet
facet normal 1.0 0.000249148841249 0.0
outer loop
vertex -0.606397926807 4.25145244598 -232.425003052
vertex -0.606410384178 4.30145215988 -232.425003052
vertex -0.606410384178 4.30145215988 -228.854003906
endloop
endfacet
facet normal 0.0 -0.0 -1.0
outer loop
vertex -6.73296165466 4.09141540527 -232.425003052
vertex -6.7295498848 4.04153203964 -232.425003052
vertex -9.78222846985 3.78050851822 -232.425003052
endloop
endfacet
facet normal 0.0 0.0 -1.0
outer loop
vertex -6.73296165466 4.09141540527 -232.425003052
vertex -9.78222846985 3.78050851822 -232.425003052
vertex -9.78733539581 3.83024716377 -232.425003052
endloop
endfacet
facet normal 0.0 -0.0 -1.0
outer loop
vertex -3.67147254944 4.24854421616 -232.425003052
vertex -3.66975951195 4.19857358932 -232.425003052
vertex -6.7295498848 4.04153203964 -232.425003052
endloop
endfacet
facet normal 0.0 0.0 -1.0
outer loop
vertex -3.67147254944 4.24854421616 -232.425003052
vertex -6.7295498848 4.04153203964 -232.425003052
vertex -6.73296165466 4.09141540527 -232.425003052
endloop
endfacet
facet normal 0.0 -0.0 -1.0
outer loop
vertex -0.606410384178 4.30145215988 -232.425003052
vertex -0.606397926807 4.25145244598 -232.425003052
vertex -3.66975951195 4.19857358932 -232.425003052
endloop
endfacet
facet normal 0.0 0.0 -1.0
outer loop
vertex -0.606410384178 4.30145215988 -232.425003052
vertex -3.66975951195 4.19857358932 -232.425003052
vertex -3.67147254944 4.24854421616 -232.425003052
endloop
endfacet
facet normal 0.0 -0.0 1.0
outer loop
vertex -9.78222846985 3.78050851822 -228.854003906
vertex -6.7295498848 4.04153203964 -228.854003906
vertex -9.78733539581 3.83024716377 -228.854003906
endloop
endfacet
facet normal 0.0 0.0 1.0
outer loop
vertex -6.7295498848 4.04153203964 -228.854003906
vertex -6.73296165466 4.09141540527 -228.854003906
vertex -9.78733539581 3.83024716377 -228.854003906
endloop
endfacet
facet normal 0.0 -0.0 1.0
outer loop
vertex -6.7295498848 4.04153203964 -228.854003906
vertex -3.66975951195 4.19857358932 -228.854003906
vertex -6.73296165466 4.09141540527 -228.854003906
endloop
endfacet
facet normal 0.0 0.0 1.0
outer loop
vertex -3.66975951195 4.19857358932 -228.854003906
vertex -3.67147254944 4.24854421616 -228.854003906
vertex -6.73296165466 4.09141540527 -228.854003906
endloop
endfacet
facet normal 0.0 -0.0 1.0
outer loop
vertex -3.66975951195 4.19857358932 -228.854003906
vertex -0.606397926807 4.25145196915 -228.854003906
vertex -3.67147254944 4.24854421616 -228.854003906
endloop
endfacet
facet normal 0.0 0.0 1.0
outer loop
vertex -0.606397926807 4.25145196915 -228.854003906
vertex -0.606410384178 4.30145215988 -228.854003906
vertex -3.67147254944 4.24854421616 -228.854003906
endloop
endfacet
