solid 
facet normal -0.12035754323 -0.992730617523 0.0
outer loop
vertex -12.9499378204 -3.4489531517 -2.72200012207
vertex -9.90670394897 -3.81791138649 -2.72200012207
vertex -9.90670394897 -3.81791138649 0.848999977112
endloop
endfacet
facet normal -0.12035754323 -0.992730617523 0.0
outer loop
vertex -12.9499378204 -3.4489531517 -2.72200012207
vertex -9.90670394897 -3.81791138649 0.848999977112
vertex -12.9499378204 -3.4489531517 0.848999857903
endloop
endfacet
facet normal -0.154053479433 -0.988062500954 0.0
outer loop
vertex -15.9788618088 -2.97669935226 -2.72200012207
vertex -12.9499378204 -3.4489531517 0.848999857903
vertex -15.9788618088 -2.97669935226 0.848999798298
endloop
endfacet
facet normal -0.154053479433 -0.988062500954 0.0
outer loop
vertex -15.9788618088 -2.97669935226 -2.72200012207
vertex -12.9499378204 -3.4489531517 -2.72200012207
vertex -12.9499378204 -3.4489531517 0.848999857903
endloop
endfacet
facet normal -0.187571272254 -0.982250988483 0.0
outer loop
vertex -18.9899711609 -2.40169596672 -2.72200036049
vertex -15.9788618088 -2.97669935226 0.848999798298
vertex -18.9899711609 -2.40169596672 0.848999679089
endloop
endfacet
facet normal -0.187571272254 -0.982250988483 0.0
outer loop
vertex -18.9899711609 -2.40169596672 -2.72200036049
vertex -15.9788618088 -2.97669935226 -2.72200012207
vertex -15.9788618088 -2.97669935226 0.848999798298
endloop
endfacet
facet normal -0.978920996189 0.204239502549 0.0
outer loop
vertex -18.9899711609 -2.40169596672 -2.72200036049
vertex -18.9797592163 -2.35275006294 0.848999679089
vertex -18.9797592163 -2.35275006294 -2.72200036049
endloop
endfacet
facet normal -0.978920996189 0.204239502549 0.0
outer loop
vertex -18.9899711609 -2.40169596672 0.848999679089
vertex -18.9797592163 -2.35275006294 0.848999679089
vertex -18.9899711609 -2.40169596672 -2.72200036049
endloop
endfacet
facet normal 0.120357491076 0.992730617523 0.0
outer loop
vertex -9.90153121948 -3.76817965508 0.848999977112
vertex -9.90153121948 -3.76817965508 -2.72200012207
vertex -12.9430770874 -3.39942622185 0.848999857903
endloop
endfacet
facet normal 0.154053553939 0.988062500954 0.0
outer loop
vertex -12.9430770874 -3.39942622185 0.848999857903
vertex -12.9430770874 -3.39942622185 -2.72200012207
vertex -15.9703207016 -2.92743420601 0.848999798298
endloop
endfacet
facet normal 0.120357491076 0.992730617523 0.0
outer loop
vertex -9.90153121948 -3.76817965508 -2.72200012207
vertex -12.9430770874 -3.39942622185 -2.72200012207
vertex -12.9430770874 -3.39942622185 0.848999857903
endloop
endfacet
facet normal 0.187571227551 0.982250988483 0.0
outer loop
vertex -15.9703207016 -2.92743420601 0.848999798298
vertex -15.9703207016 -2.92743420601 -2.72200012207
vertex -18.9797592163 -2.35275006294 0.848999679089
endloop
endfacet
facet normal 0.154053553939 0.988062500954 0.0
outer loop
vertex -12.9430770874 -3.39942622185 -2.72200012207
vertex -15.9703207016 -2.92743420601 -2.72200012207
vertex -15.9703207016 -2.92743420601 0.848999798298
endloop
endfacet
facet normal 0.187571242452 0.982250988483 0.0
outer loop
vertex -15.9703207016 -2.92743420601 -2.72200012207
vertex -18.9797592163 -2.35275006294 -2.72200036049
vertex -18.9797592163 -2.35275006294 0.848999679089
endloop
endfacet
facet normal 0.994634270668 -0.103454552591 0.0
outer loop
vertex -9.90153121948 -3.76817965508 -2.72200012207
vertex -9.90153121948 -3.76817965508 0.848999977112
vertex -9.90670394897 -3.81791138649 -2.72200012207
endloop
endfacet
facet normal 0.994634270668 -0.103454552591 0.0
outer loop
vertex -9.90153121948 -3.76817965508 0.848999977112
vertex -9.90670394897 -3.81791138649 0.848999977112
vertex -9.90670394897 -3.81791138649 -2.72200012207
endloop
endfacet
facet normal -3.83424065831e-08 6.64742971779e-09 1.0
outer loop
vertex -15.9788618088 -2.97669935226 0.848999798298
vertex -15.9703207016 -2.92743420601 0.848999798298
vertex -18.9797592163 -2.35275006294 0.848999679089
endloop
endfacet
facet normal -3.80729545668e-08 7.94344057198e-09 1.0
outer loop
vertex -15.9788618088 -2.97669935226 0.848999798298
vertex -18.9797592163 -2.35275006294 0.848999679089
vertex -18.9899711609 -2.40169596672 0.848999679089
endloop
endfacet
facet normal -1.92731448578e-08 2.66981836639e-09 1.0
outer loop
vertex -12.9499378204 -3.4489531517 0.848999857903
vertex -12.9430770874 -3.39942622185 0.848999857903
vertex -15.9703207016 -2.92743420601 0.848999798298
endloop
endfacet
facet normal -1.91605646904e-08 3.32187055641e-09 1.0
outer loop
vertex -12.9499378204 -3.4489531517 0.848999857903
vertex -15.9703207016 -2.92743420601 0.848999798298
vertex -15.9788618088 -2.97669935226 0.848999798298
endloop
endfacet
facet normal -3.87055614226e-08 4.02586852744e-09 1.0
outer loop
vertex -9.90670394897 -3.81791138649 0.848999977112
vertex -9.90153121948 -3.76817965508 0.848999977112
vertex -12.9430770874 -3.39942622185 0.848999857903
endloop
endfacet
facet normal -3.85249094847e-08 5.33667465774e-09 1.0
outer loop
vertex -9.90670394897 -3.81791138649 0.848999977112
vertex -12.9430770874 -3.39942622185 0.848999857903
vertex -12.9499378204 -3.4489531517 0.848999857903
endloop
endfacet
facet normal 7.61881580047e-08 -1.58956954266e-08 -1.0
outer loop
vertex -18.9797592163 -2.35275006294 -2.72200036049
vertex -15.9703207016 -2.92743420601 -2.72200012207
vertex -18.9899711609 -2.40169596672 -2.72200036049
endloop
endfacet
facet normal 7.66422587617e-08 -1.32874822256e-08 -1.0
outer loop
vertex -15.9703207016 -2.92743420601 -2.72200012207
vertex -15.9788618088 -2.97669935226 -2.72200012207
vertex -18.9899711609 -2.40169596672 -2.72200036049
endloop
endfacet
facet normal 0.0 -0.0 -1.0
outer loop
vertex -15.9703207016 -2.92743420601 -2.72200012207
vertex -12.9430770874 -3.39942622185 -2.72200012207
vertex -15.9788618088 -2.97669935226 -2.72200012207
endloop
endfacet
facet normal -0.0 0.0 -1.0
outer loop
vertex -12.9430770874 -3.39942622185 -2.72200012207
vertex -12.9499378204 -3.4489531517 -2.72200012207
vertex -15.9788618088 -2.97669935226 -2.72200012207
endloop
endfacet
facet normal 0.0 -0.0 -1.0
outer loop
vertex -12.9430770874 -3.39942622185 -2.72200012207
vertex -9.90153121948 -3.76817965508 -2.72200012207
vertex -12.9499378204 -3.4489531517 -2.72200012207
endloop
endfacet
facet normal -0.0 0.0 -1.0
outer loop
vertex -9.90153121948 -3.76817965508 -2.72200012207
vertex -9.90670394897 -3.81791138649 -2.72200012207
vertex -12.9499378204 -3.4489531517 -2.72200012207
endloop
endfacet
