solid 
facet normal -0.120357617736 -0.992730617523 0.0
outer loop
vertex -12.9499444962 -3.4489531517 -35.2210006714
vertex -9.90671062469 -3.81791162491 -35.2210006714
vertex -9.90671062469 -3.81791162491 -31.6500015259
endloop
endfacet
facet normal -0.120357617736 -0.992730617523 0.0
outer loop
vertex -12.9499444962 -3.4489531517 -35.2210006714
vertex -9.90671062469 -3.81791162491 -31.6500015259
vertex -12.9499444962 -3.4489531517 -31.6500015259
endloop
endfacet
facet normal -0.154053583741 -0.988062500954 -1.07109912051e-07
outer loop
vertex -15.9788684845 -2.97669863701 -35.2210006714
vertex -12.9499444962 -3.4489531517 -31.6500015259
vertex -15.9788694382 -2.97669887543 -31.6500015259
endloop
endfacet
facet normal -0.154053688049 -0.988062441349 0.0
outer loop
vertex -15.9788684845 -2.97669863701 -35.2210006714
vertex -12.9499444962 -3.4489531517 -35.2210006714
vertex -12.9499444962 -3.4489531517 -31.6500015259
endloop
endfacet
facet normal -0.18757148087 -0.982250988483 -6.55802168126e-08
outer loop
vertex -18.9899768829 -2.40169501305 -35.2210006714
vertex -15.9788694382 -2.97669887543 -31.6500015259
vertex -18.9899768829 -2.40169525146 -31.6500015259
endloop
endfacet
facet normal -0.187571406364 -0.982250988483 -1.08897133089e-07
outer loop
vertex -18.9899768829 -2.40169501305 -35.2210006714
vertex -15.9788684845 -2.97669863701 -35.2210006714
vertex -15.9788694382 -2.97669887543 -31.6500015259
endloop
endfacet
facet normal -0.978920996189 0.204239502549 1.36921292082e-08
outer loop
vertex -18.9899768829 -2.40169501305 -35.2210006714
vertex -18.9797649384 -2.35274934769 -31.6500015259
vertex -18.9797649384 -2.35274910927 -35.2210006714
endloop
endfacet
facet normal -0.978920996189 0.204239502549 1.36360975844e-08
outer loop
vertex -18.9899768829 -2.40169525146 -31.6500015259
vertex -18.9797649384 -2.35274934769 -31.6500015259
vertex -18.9899768829 -2.40169501305 -35.2210006714
endloop
endfacet
facet normal 0.120357565582 0.992730617523 6.53745431123e-08
outer loop
vertex -9.9015378952 -3.76817989349 -31.6500015259
vertex -12.9430837631 -3.39942598343 -35.2210006714
vertex -12.9430837631 -3.39942622185 -31.6500015259
endloop
endfacet
facet normal 0.120357647538 0.992730617523 -0.0
outer loop
vertex -9.9015378952 -3.76817989349 -35.2210006714
vertex -12.9430837631 -3.39942598343 -35.2210006714
vertex -9.9015378952 -3.76817989349 -31.6500015259
endloop
endfacet
facet normal 0.154053628445 0.988062500954 6.53745431123e-08
outer loop
vertex -12.9430837631 -3.39942622185 -31.6500015259
vertex -15.9703273773 -2.92743372917 -35.2210006714
vertex -15.9703273773 -2.92743396759 -31.6500015259
endloop
endfacet
facet normal 0.154053628445 0.988062500954 6.59682228843e-08
outer loop
vertex -12.9430837631 -3.39942598343 -35.2210006714
vertex -15.9703273773 -2.92743372917 -35.2210006714
vertex -12.9430837631 -3.39942622185 -31.6500015259
endloop
endfacet
facet normal 0.187571421266 0.982250988483 6.53745502177e-08
outer loop
vertex -15.9703273773 -2.92743396759 -31.6500015259
vertex -18.9797649384 -2.35274910927 -35.2210006714
vertex -18.9797649384 -2.35274934769 -31.6500015259
endloop
endfacet
facet normal 0.187571421266 0.982250988483 6.55802097072e-08
outer loop
vertex -15.9703273773 -2.92743372917 -35.2210006714
vertex -18.9797649384 -2.35274910927 -35.2210006714
vertex -15.9703273773 -2.92743396759 -31.6500015259
endloop
endfacet
facet normal 0.994634151459 -0.10345454514 0.0
outer loop
vertex -9.9015378952 -3.76817989349 -35.2210006714
vertex -9.90671062469 -3.81791162491 -31.6500015259
vertex -9.90671062469 -3.81791162491 -35.2210006714
endloop
endfacet
facet normal 0.994634151459 -0.10345454514 0.0
outer loop
vertex -9.9015378952 -3.76817989349 -31.6500015259
vertex -9.90671062469 -3.81791162491 -31.6500015259
vertex -9.9015378952 -3.76817989349 -35.2210006714
endloop
endfacet
facet normal 0.0 0.0 1.0
outer loop
vertex -15.9703273773 -2.92743396759 -31.6500015259
vertex -18.9797649384 -2.35274934769 -31.6500015259
vertex -18.9899768829 -2.40169525146 -31.6500015259
endloop
endfacet
facet normal 0.0 -0.0 1.0
outer loop
vertex -15.9788694382 -2.97669887543 -31.6500015259
vertex -15.9703273773 -2.92743396759 -31.6500015259
vertex -18.9899768829 -2.40169525146 -31.6500015259
endloop
endfacet
facet normal 0.0 0.0 1.0
outer loop
vertex -12.9430837631 -3.39942622185 -31.6500015259
vertex -15.9703273773 -2.92743396759 -31.6500015259
vertex -15.9788694382 -2.97669887543 -31.6500015259
endloop
endfacet
facet normal 0.0 -0.0 1.0
outer loop
vertex -12.9499444962 -3.4489531517 -31.6500015259
vertex -12.9430837631 -3.39942622185 -31.6500015259
vertex -15.9788694382 -2.97669887543 -31.6500015259
endloop
endfacet
facet normal 0.0 0.0 1.0
outer loop
vertex -9.9015378952 -3.76817989349 -31.6500015259
vertex -12.9430837631 -3.39942622185 -31.6500015259
vertex -12.9499444962 -3.4489531517 -31.6500015259
endloop
endfacet
facet normal 0.0 -0.0 1.0
outer loop
vertex -9.90671062469 -3.81791162491 -31.6500015259
vertex -9.9015378952 -3.76817989349 -31.6500015259
vertex -12.9499444962 -3.4489531517 -31.6500015259
endloop
endfacet
facet normal 0.0 -0.0 -1.0
outer loop
vertex -18.9797649384 -2.35274910927 -35.2210006714
vertex -15.9703273773 -2.92743372917 -35.2210006714
vertex -18.9899768829 -2.40169501305 -35.2210006714
endloop
endfacet
facet normal -0.0 0.0 -1.0
outer loop
vertex -15.9703273773 -2.92743372917 -35.2210006714
vertex -15.9788684845 -2.97669863701 -35.2210006714
vertex -18.9899768829 -2.40169501305 -35.2210006714
endloop
endfacet
facet normal 0.0 -0.0 -1.0
outer loop
vertex -15.9703273773 -2.92743372917 -35.2210006714
vertex -12.9430837631 -3.39942598343 -35.2210006714
vertex -15.9788684845 -2.97669863701 -35.2210006714
endloop
endfacet
facet normal -0.0 0.0 -1.0
outer loop
vertex -12.9430837631 -3.39942598343 -35.2210006714
vertex -12.9499444962 -3.4489531517 -35.2210006714
vertex -15.9788684845 -2.97669863701 -35.2210006714
endloop
endfacet
facet normal 0.0 -0.0 -1.0
outer loop
vertex -12.9430837631 -3.39942598343 -35.2210006714
vertex -9.9015378952 -3.76817989349 -35.2210006714
vertex -12.9499444962 -3.4489531517 -35.2210006714
endloop
endfacet
facet normal -0.0 0.0 -1.0
outer loop
vertex -9.9015378952 -3.76817989349 -35.2210006714
vertex -9.90671062469 -3.81791162491 -35.2210006714
vertex -12.9499444962 -3.4489531517 -35.2210006714
endloop
endfacet
