solid 
facet normal 0.120357684791 -0.992730557919 0.0
outer loop
vertex 9.90671920776 -3.81791067123 -60.5580024719
vertex 9.90671920776 -3.81791067123 -64.1290054321
vertex 12.9499530792 -3.44895195961 -64.1290054321
endloop
endfacet
facet normal 0.15405370295 -0.988062441349 0.0
outer loop
vertex 12.9499530792 -3.44895195961 -60.5580024719
vertex 12.9499530792 -3.44895195961 -64.1290054321
vertex 15.9788770676 -2.97669744492 -64.1290054321
endloop
endfacet
facet normal 0.120357684791 -0.992730557919 0.0
outer loop
vertex 12.9499530792 -3.44895195961 -60.5580024719
vertex 9.90671920776 -3.81791067123 -60.5580024719
vertex 12.9499530792 -3.44895195961 -64.1290054321
endloop
endfacet
facet normal 0.187571421266 -0.982250928879 0.0
outer loop
vertex 15.9788770676 -2.97669744492 -60.5580024719
vertex 15.9788770676 -2.97669744492 -64.1290054321
vertex 18.9899864197 -2.40169358253 -64.1290054321
endloop
endfacet
facet normal 0.15405370295 -0.988062441349 0.0
outer loop
vertex 15.9788770676 -2.97669744492 -60.5580024719
vertex 12.9499530792 -3.44895195961 -60.5580024719
vertex 15.9788770676 -2.97669744492 -64.1290054321
endloop
endfacet
facet normal 0.187571421266 -0.982250928879 0.0
outer loop
vertex 18.9899864197 -2.40169358253 -60.5580024719
vertex 15.9788770676 -2.97669744492 -60.5580024719
vertex 18.9899864197 -2.40169358253 -64.1290054321
endloop
endfacet
facet normal 0.978920936584 0.204239487648 0.0
outer loop
vertex 18.9899864197 -2.40169358253 -60.5580024719
vertex 18.9899864197 -2.40169358253 -64.1290054321
vertex 18.9797744751 -2.35274767876 -64.1290054321
endloop
endfacet
facet normal 0.978920936584 0.204239487648 0.0
outer loop
vertex 18.9797744751 -2.35274767876 -60.5580024719
vertex 18.9899864197 -2.40169358253 -60.5580024719
vertex 18.9797744751 -2.35274767876 -64.1290054321
endloop
endfacet
facet normal -0.120357647538 0.992730617523 0.0
outer loop
vertex 9.90154647827 -3.76817893982 -64.1290054321
vertex 12.9430923462 -3.39942502975 -60.5580024719
vertex 12.9430923462 -3.39942502975 -64.1290054321
endloop
endfacet
facet normal -0.154053688049 0.988062441349 0.0
outer loop
vertex 12.9430923462 -3.39942502975 -64.1290054321
vertex 12.9430923462 -3.39942502975 -60.5580024719
vertex 15.9703359604 -2.92743253708 -64.1290054321
endloop
endfacet
facet normal -0.120357729495 0.992730617523 6.62798171902e-08
outer loop
vertex 9.90154647827 -3.76817917824 -60.5580024719
vertex 12.9430923462 -3.39942502975 -60.5580024719
vertex 9.90154647827 -3.76817893982 -64.1290054321
endloop
endfacet
facet normal -0.187571436167 0.982250928879 0.0
outer loop
vertex 15.9703359604 -2.92743253708 -64.1290054321
vertex 15.9703359604 -2.92743253708 -60.5580024719
vertex 18.9797744751 -2.35274767876 -64.1290054321
endloop
endfacet
facet normal -0.154053688049 0.988062441349 0.0
outer loop
vertex 12.9430923462 -3.39942502975 -60.5580024719
vertex 15.9703359604 -2.92743253708 -60.5580024719
vertex 15.9703359604 -2.92743253708 -64.1290054321
endloop
endfacet
facet normal -0.187571436167 0.982250928879 0.0
outer loop
vertex 15.9703359604 -2.92743253708 -60.5580024719
vertex 18.9797744751 -2.35274767876 -60.5580024719
vertex 18.9797744751 -2.35274767876 -64.1290054321
endloop
endfacet
facet normal -0.994634151459 -0.103455029428 -6.84606638046e-09
outer loop
vertex 9.90671920776 -3.81791067123 -60.5580024719
vertex 9.90154647827 -3.76817917824 -60.5580024719
vertex 9.90154647827 -3.76817893982 -64.1290054321
endloop
endfacet
facet normal -0.994634270668 -0.10345454514 -0.0
outer loop
vertex 9.90671920776 -3.81791067123 -60.5580024719
vertex 9.90154647827 -3.76817893982 -64.1290054321
vertex 9.90671920776 -3.81791067123 -64.1290054321
endloop
endfacet
facet normal 0.0 0.0 1.0
outer loop
vertex 18.9797744751 -2.35274767876 -60.5580024719
vertex 15.9703359604 -2.92743253708 -60.5580024719
vertex 18.9899864197 -2.40169358253 -60.5580024719
endloop
endfacet
facet normal -0.0 0.0 1.0
outer loop
vertex 15.9703359604 -2.92743253708 -60.5580024719
vertex 15.9788770676 -2.97669744492 -60.5580024719
vertex 18.9899864197 -2.40169358253 -60.5580024719
endloop
endfacet
facet normal 0.0 0.0 1.0
outer loop
vertex 15.9703359604 -2.92743253708 -60.5580024719
vertex 12.9430923462 -3.39942502975 -60.5580024719
vertex 15.9788770676 -2.97669744492 -60.5580024719
endloop
endfacet
facet normal -0.0 0.0 1.0
outer loop
vertex 12.9430923462 -3.39942502975 -60.5580024719
vertex 12.9499530792 -3.44895195961 -60.5580024719
vertex 15.9788770676 -2.97669744492 -60.5580024719
endloop
endfacet
facet normal 0.0 0.0 1.0
outer loop
vertex 12.9430923462 -3.39942502975 -60.5580024719
vertex 9.90154647827 -3.76817917824 -60.5580024719
vertex 12.9499530792 -3.44895195961 -60.5580024719
endloop
endfacet
facet normal -0.0 0.0 1.0
outer loop
vertex 9.90154647827 -3.76817917824 -60.5580024719
vertex 9.90671920776 -3.81791067123 -60.5580024719
vertex 12.9499530792 -3.44895195961 -60.5580024719
endloop
endfacet
facet normal 0.0 0.0 -1.0
outer loop
vertex 15.9703359604 -2.92743253708 -64.1290054321
vertex 18.9797744751 -2.35274767876 -64.1290054321
vertex 18.9899864197 -2.40169358253 -64.1290054321
endloop
endfacet
facet normal 0.0 0.0 -1.0
outer loop
vertex 15.9788770676 -2.97669744492 -64.1290054321
vertex 15.9703359604 -2.92743253708 -64.1290054321
vertex 18.9899864197 -2.40169358253 -64.1290054321
endloop
endfacet
facet normal 0.0 0.0 -1.0
outer loop
vertex 12.9430923462 -3.39942502975 -64.1290054321
vertex 15.9703359604 -2.92743253708 -64.1290054321
vertex 15.9788770676 -2.97669744492 -64.1290054321
endloop
endfacet
facet normal 0.0 0.0 -1.0
outer loop
vertex 12.9499530792 -3.44895195961 -64.1290054321
vertex 12.9430923462 -3.39942502975 -64.1290054321
vertex 15.9788770676 -2.97669744492 -64.1290054321
endloop
endfacet
facet normal 0.0 0.0 -1.0
outer loop
vertex 9.90154647827 -3.76817893982 -64.1290054321
vertex 12.9430923462 -3.39942502975 -64.1290054321
vertex 12.9499530792 -3.44895195961 -64.1290054321
endloop
endfacet
facet normal 0.0 0.0 -1.0
outer loop
vertex 9.90671920776 -3.81791067123 -64.1290054321
vertex 9.90154647827 -3.76817893982 -64.1290054321
vertex 12.9499530792 -3.44895195961 -64.1290054321
endloop
endfacet
