solid 
facet normal 0.0172588955611 0.999851047993 -0.0
outer loop
vertex 0.606410443783 4.30145215988 17.5750007629
vertex 0.606410443783 4.30145215988 21.1459999084
vertex 3.67147278786 4.24854469299 21.1459999084
endloop
endfacet
facet normal 0.0512569881976 0.998685479164 -0.0
outer loop
vertex 3.67147278786 4.24854469299 17.5750007629
vertex 3.67147278786 4.24854469299 21.1459999084
vertex 6.7329621315 4.09141540527 21.1459999084
endloop
endfacet
facet normal 0.0172588955611 0.999851047993 -0.0
outer loop
vertex 3.67147278786 4.24854469299 17.5750007629
vertex 0.606410443783 4.30145215988 17.5750007629
vertex 3.67147278786 4.24854469299 21.1459999084
endloop
endfacet
facet normal 0.0851954445243 0.996364235878 -0.0
outer loop
vertex 6.7329621315 4.09141540527 17.5750007629
vertex 6.7329621315 4.09141540527 21.1459999084
vertex 9.78733539581 3.83024716377 21.1459999084
endloop
endfacet
facet normal 0.0512569881976 0.998685479164 -0.0
outer loop
vertex 6.7329621315 4.09141540527 17.5750007629
vertex 3.67147278786 4.24854469299 17.5750007629
vertex 6.7329621315 4.09141540527 21.1459999084
endloop
endfacet
facet normal 0.0851953774691 0.996364295483 6.65224888508e-08
outer loop
vertex 9.78733539581 3.83024740219 17.5750007629
vertex 6.7329621315 4.09141540527 17.5750007629
vertex 9.78733539581 3.83024716377 21.1459999084
endloop
endfacet
facet normal 0.994770169258 -0.102138735354 -6.81931577873e-09
outer loop
vertex 9.78733539581 3.83024740219 17.5750007629
vertex 9.78733539581 3.83024716377 21.1459999084
vertex 9.78222846985 3.78050875664 21.1459999084
endloop
endfacet
facet normal 0.994770228863 -0.102138251066 0.0
outer loop
vertex 9.78222846985 3.78050875664 17.5750007629
vertex 9.78733539581 3.83024740219 17.5750007629
vertex 9.78222846985 3.78050875664 21.1459999084
endloop
endfacet
facet normal -0.0172589812428 -0.999851047993 -0.0
outer loop
vertex 0.606397926807 4.25145244598 21.1459999084
vertex 0.606397926807 4.25145244598 17.5750007629
vertex 3.66975951195 4.19857406616 21.1459999084
endloop
endfacet
facet normal -0.0172589812428 -0.999851047993 0.0
outer loop
vertex 0.606397926807 4.25145244598 17.5750007629
vertex 3.66975951195 4.19857406616 17.5750007629
vertex 3.66975951195 4.19857406616 21.1459999084
endloop
endfacet
facet normal -0.0512569732964 -0.998685538769 0.0
outer loop
vertex 3.66975951195 4.19857406616 21.1459999084
vertex 6.7295498848 4.04153203964 17.5750007629
vertex 6.7295498848 4.04153203964 21.1459999084
endloop
endfacet
facet normal -0.0851954370737 -0.996364295483 -0.0
outer loop
vertex 6.7295498848 4.04153203964 21.1459999084
vertex 6.7295498848 4.04153203964 17.5750007629
vertex 9.78222846985 3.78050875664 21.1459999084
endloop
endfacet
facet normal -0.0512569732964 -0.998685538769 0.0
outer loop
vertex 3.66975951195 4.19857406616 17.5750007629
vertex 6.7295498848 4.04153203964 17.5750007629
vertex 3.66975951195 4.19857406616 21.1459999084
endloop
endfacet
facet normal -0.0851954370737 -0.996364295483 0.0
outer loop
vertex 6.7295498848 4.04153203964 17.5750007629
vertex 9.78222846985 3.78050875664 17.5750007629
vertex 9.78222846985 3.78050875664 21.1459999084
endloop
endfacet
facet normal -1.0 0.000250340934144 0.0
outer loop
vertex 0.606397926807 4.25145244598 17.5750007629
vertex 0.606397926807 4.25145244598 21.1459999084
vertex 0.606410443783 4.30145215988 21.1459999084
endloop
endfacet
facet normal -1.0 0.000250340934144 0.0
outer loop
vertex 0.606410443783 4.30145215988 17.5750007629
vertex 0.606397926807 4.25145244598 17.5750007629
vertex 0.606410443783 4.30145215988 21.1459999084
endloop
endfacet
facet normal 0.0 0.0 -1.0
outer loop
vertex 6.7295498848 4.04153203964 17.5750007629
vertex 6.7329621315 4.09141540527 17.5750007629
vertex 9.78222846985 3.78050875664 17.5750007629
endloop
endfacet
facet normal 0.0 0.0 -1.0
outer loop
vertex 9.78222846985 3.78050875664 17.5750007629
vertex 6.7329621315 4.09141540527 17.5750007629
vertex 9.78733539581 3.83024740219 17.5750007629
endloop
endfacet
facet normal 0.0 0.0 -1.0
outer loop
vertex 3.66975951195 4.19857406616 17.5750007629
vertex 3.67147278786 4.24854469299 17.5750007629
vertex 6.7295498848 4.04153203964 17.5750007629
endloop
endfacet
facet normal 0.0 0.0 -1.0
outer loop
vertex 6.7295498848 4.04153203964 17.5750007629
vertex 3.67147278786 4.24854469299 17.5750007629
vertex 6.7329621315 4.09141540527 17.5750007629
endloop
endfacet
facet normal 0.0 0.0 -1.0
outer loop
vertex 0.606397926807 4.25145244598 17.5750007629
vertex 0.606410443783 4.30145215988 17.5750007629
vertex 3.66975951195 4.19857406616 17.5750007629
endloop
endfacet
facet normal 0.0 0.0 -1.0
outer loop
vertex 3.66975951195 4.19857406616 17.5750007629
vertex 0.606410443783 4.30145215988 17.5750007629
vertex 3.67147278786 4.24854469299 17.5750007629
endloop
endfacet
facet normal 0.0 0.0 1.0
outer loop
vertex 6.7295498848 4.04153203964 21.1459999084
vertex 9.78222846985 3.78050875664 21.1459999084
vertex 9.78733539581 3.83024716377 21.1459999084
endloop
endfacet
facet normal 0.0 0.0 1.0
outer loop
vertex 6.7329621315 4.09141540527 21.1459999084
vertex 6.7295498848 4.04153203964 21.1459999084
vertex 9.78733539581 3.83024716377 21.1459999084
endloop
endfacet
facet normal 0.0 0.0 1.0
outer loop
vertex 3.66975951195 4.19857406616 21.1459999084
vertex 6.7295498848 4.04153203964 21.1459999084
vertex 6.7329621315 4.09141540527 21.1459999084
endloop
endfacet
facet normal 0.0 0.0 1.0
outer loop
vertex 3.67147278786 4.24854469299 21.1459999084
vertex 3.66975951195 4.19857406616 21.1459999084
vertex 6.7329621315 4.09141540527 21.1459999084
endloop
endfacet
facet normal 0.0 0.0 1.0
outer loop
vertex 0.606397926807 4.25145244598 21.1459999084
vertex 3.66975951195 4.19857406616 21.1459999084
vertex 3.67147278786 4.24854469299 21.1459999084
endloop
endfacet
facet normal 0.0 0.0 1.0
outer loop
vertex 0.606410443783 4.30145215988 21.1459999084
vertex 0.606397926807 4.25145244598 21.1459999084
vertex 3.67147278786 4.24854469299 21.1459999084
endloop
endfacet
