solid 
facet normal 0.120357878506 0.992730557919 6.62798882445e-08
outer loop
vertex 9.90673160553 3.81790924072 -124.094993591
vertex 9.90673160553 3.8179090023 -120.523994446
vertex 12.9499664307 3.44894957542 -120.523994446
endloop
endfacet
facet normal 0.154053941369 0.988062441349 6.59682157789e-08
outer loop
vertex 12.9499664307 3.44894981384 -124.094993591
vertex 12.9499664307 3.44894957542 -120.523994446
vertex 15.978890419 2.97669434547 -120.523994446
endloop
endfacet
facet normal 0.120357878506 0.992730557919 6.62798882445e-08
outer loop
vertex 12.9499664307 3.44894981384 -124.094993591
vertex 9.90673160553 3.81790924072 -124.094993591
vertex 12.9499664307 3.44894957542 -120.523994446
endloop
endfacet
facet normal 0.187571763992 0.982250869274 6.55802097072e-08
outer loop
vertex 15.978890419 2.97669458389 -124.094993591
vertex 15.978890419 2.97669434547 -120.523994446
vertex 18.9899978638 2.40168976784 -120.523994446
endloop
endfacet
facet normal 0.154053941369 0.988062441349 6.59682157789e-08
outer loop
vertex 15.978890419 2.97669458389 -124.094993591
vertex 12.9499664307 3.44894981384 -124.094993591
vertex 15.978890419 2.97669434547 -120.523994446
endloop
endfacet
facet normal 0.187571659684 0.982250928879 1.65766323335e-07
outer loop
vertex 18.9899997711 2.40169000626 -124.094993591
vertex 15.978890419 2.97669458389 -124.094993591
vertex 18.9899978638 2.40168976784 -120.523994446
endloop
endfacet
facet normal 0.978920996189 -0.20423951745 5.09226993017e-07
outer loop
vertex 18.9899997711 2.40169000626 -124.094993591
vertex 18.9899978638 2.40168976784 -120.523994446
vertex 18.9797859192 2.35274386406 -120.523994446
endloop
endfacet
facet normal 0.97891330719 -0.204276055098 -1.36385374105e-08
outer loop
vertex 18.9797859192 2.35274410248 -124.094993591
vertex 18.9899997711 2.40169000626 -124.094993591
vertex 18.9797859192 2.35274386406 -120.523994446
endloop
endfacet
facet normal -0.120357863605 -0.992730498314 -6.53745360069e-08
outer loop
vertex 9.90155887604 3.76817727089 -120.523994446
vertex 12.943104744 3.39942288399 -124.094993591
vertex 12.943104744 3.39942264557 -120.523994446
endloop
endfacet
facet normal -0.120357863605 -0.992730498314 -6.62798811391e-08
outer loop
vertex 9.90155887604 3.76817750931 -124.094993591
vertex 12.943104744 3.39942288399 -124.094993591
vertex 9.90155887604 3.76817727089 -120.523994446
endloop
endfacet
facet normal -0.154053926468 -0.988062441349 -6.53745360069e-08
outer loop
vertex 12.943104744 3.39942264557 -120.523994446
vertex 15.9703483582 2.92742967606 -124.094993591
vertex 15.9703483582 2.92742943764 -120.523994446
endloop
endfacet
facet normal -0.154053926468 -0.988062441349 -6.59682157789e-08
outer loop
vertex 12.943104744 3.39942288399 -124.094993591
vertex 15.9703483582 2.92742967606 -124.094993591
vertex 12.943104744 3.39942264557 -120.523994446
endloop
endfacet
facet normal -0.18757173419 -0.982250869274 -6.53745431123e-08
outer loop
vertex 15.9703483582 2.92742943764 -120.523994446
vertex 18.9797859192 2.35274410248 -124.094993591
vertex 18.9797859192 2.35274386406 -120.523994446
endloop
endfacet
facet normal -0.18757173419 -0.982250869274 -6.55802026017e-08
outer loop
vertex 15.9703483582 2.92742967606 -124.094993591
vertex 18.9797859192 2.35274410248 -124.094993591
vertex 15.9703483582 2.92742943764 -120.523994446
endloop
endfacet
facet normal -0.994634151459 0.10345454514 6.9071663944e-09
outer loop
vertex 9.90155887604 3.76817750931 -124.094993591
vertex 9.90155887604 3.76817727089 -120.523994446
vertex 9.90673160553 3.8179090023 -120.523994446
endloop
endfacet
facet normal -0.994634151459 0.10345454514 6.9071663944e-09
outer loop
vertex 9.90673160553 3.81790924072 -124.094993591
vertex 9.90155887604 3.76817750931 -124.094993591
vertex 9.90673160553 3.8179090023 -120.523994446
endloop
endfacet
facet normal 0.0 0.0 -1.0
outer loop
vertex 15.9703483582 2.92742967606 -124.094993591
vertex 15.978890419 2.97669458389 -124.094993591
vertex 18.9797859192 2.35274410248 -124.094993591
endloop
endfacet
facet normal 0.0 0.0 -1.0
outer loop
vertex 18.9797859192 2.35274410248 -124.094993591
vertex 15.978890419 2.97669458389 -124.094993591
vertex 18.9899997711 2.40169000626 -124.094993591
endloop
endfacet
facet normal 0.0 0.0 -1.0
outer loop
vertex 12.943104744 3.39942288399 -124.094993591
vertex 12.9499664307 3.44894981384 -124.094993591
vertex 15.9703483582 2.92742967606 -124.094993591
endloop
endfacet
facet normal 0.0 0.0 -1.0
outer loop
vertex 15.9703483582 2.92742967606 -124.094993591
vertex 12.9499664307 3.44894981384 -124.094993591
vertex 15.978890419 2.97669458389 -124.094993591
endloop
endfacet
facet normal 0.0 0.0 -1.0
outer loop
vertex 9.90155887604 3.76817750931 -124.094993591
vertex 9.90673160553 3.81790924072 -124.094993591
vertex 12.943104744 3.39942288399 -124.094993591
endloop
endfacet
facet normal 0.0 0.0 -1.0
outer loop
vertex 12.943104744 3.39942288399 -124.094993591
vertex 9.90673160553 3.81790924072 -124.094993591
vertex 12.9499664307 3.44894981384 -124.094993591
endloop
endfacet
facet normal 0.0 0.0 1.0
outer loop
vertex 15.9703483582 2.92742943764 -120.523994446
vertex 18.9797859192 2.35274386406 -120.523994446
vertex 18.9899978638 2.40168976784 -120.523994446
endloop
endfacet
facet normal 0.0 0.0 1.0
outer loop
vertex 15.978890419 2.97669434547 -120.523994446
vertex 15.9703483582 2.92742943764 -120.523994446
vertex 18.9899978638 2.40168976784 -120.523994446
endloop
endfacet
facet normal 0.0 0.0 1.0
outer loop
vertex 12.943104744 3.39942264557 -120.523994446
vertex 15.9703483582 2.92742943764 -120.523994446
vertex 15.978890419 2.97669434547 -120.523994446
endloop
endfacet
facet normal 0.0 0.0 1.0
outer loop
vertex 12.9499664307 3.44894957542 -120.523994446
vertex 12.943104744 3.39942264557 -120.523994446
vertex 15.978890419 2.97669434547 -120.523994446
endloop
endfacet
facet normal 0.0 0.0 1.0
outer loop
vertex 9.90155887604 3.76817727089 -120.523994446
vertex 12.943104744 3.39942264557 -120.523994446
vertex 12.9499664307 3.44894957542 -120.523994446
endloop
endfacet
facet normal 0.0 0.0 1.0
outer loop
vertex 9.90673160553 3.8179090023 -120.523994446
vertex 9.90155887604 3.76817727089 -120.523994446
vertex 12.9499664307 3.44894957542 -120.523994446
endloop
endfacet
