solid 
facet normal 0.102248780429 -0.99475890398 0.0
outer loop
vertex 9.78735637665 -3.83024549484 -100.239006042
vertex 9.78735637665 -3.83024549484 -103.810005188
vertex 9.80725097656 -3.82820057869 -103.810005188
endloop
endfacet
facet normal 0.102461114526 -0.994736969471 0.0
outer loop
vertex 9.80725097656 -3.82820057869 -100.239006042
vertex 9.80725097656 -3.82820057869 -103.810005188
vertex 9.82714557648 -3.826151371 -103.810005188
endloop
endfacet
facet normal 0.102248780429 -0.99475890398 0.0
outer loop
vertex 9.80725097656 -3.82820057869 -100.239006042
vertex 9.78735637665 -3.83024549484 -100.239006042
vertex 9.80725097656 -3.82820057869 -103.810005188
endloop
endfacet
facet normal 0.102461114526 -0.994736969471 0.0
outer loop
vertex 9.82714557648 -3.826151371 -100.239006042
vertex 9.80725097656 -3.82820057869 -100.239006042
vertex 9.82714557648 -3.826151371 -103.810005188
endloop
endfacet
facet normal 0.10267342627 -0.994715094566 0.0
outer loop
vertex 9.84704017639 -3.82409787178 -100.239006042
vertex 9.82714557648 -3.826151371 -103.810005188
vertex 9.84704017639 -3.82409787178 -103.810005188
endloop
endfacet
facet normal 0.10267342627 -0.994715094566 0.0
outer loop
vertex 9.84704017639 -3.82409787178 -100.239006042
vertex 9.82714557648 -3.826151371 -100.239006042
vertex 9.82714557648 -3.826151371 -103.810005188
endloop
endfacet
facet normal 0.994703471661 0.102786749601 0.0
outer loop
vertex 9.84704017639 -3.82409787178 -100.239006042
vertex 9.84704017639 -3.82409787178 -103.810005188
vertex 9.8419008255 -3.77436256409 -103.810005188
endloop
endfacet
facet normal 0.994703471661 0.102786749601 0.0
outer loop
vertex 9.8419008255 -3.77436256409 -100.239006042
vertex 9.84704017639 -3.82409787178 -100.239006042
vertex 9.8419008255 -3.77436256409 -103.810005188
endloop
endfacet
facet normal -0.10223133862 0.99476069212 0.0
outer loop
vertex 9.78224945068 -3.78050684929 -103.810005188
vertex 9.78224945068 -3.78050684929 -100.239006042
vertex 9.80213356018 -3.77846336365 -103.810005188
endloop
endfacet
facet normal -0.10224314034 0.994759440422 -6.64599326683e-08
outer loop
vertex 9.78224945068 -3.78050684929 -100.239006042
vertex 9.80213356018 -3.77846312523 -100.239006042
vertex 9.80213356018 -3.77846336365 -103.810005188
endloop
endfacet
facet normal -0.102467373013 0.99473631382 0.0
outer loop
vertex 9.80213356018 -3.77846336365 -103.810005188
vertex 9.82201766968 -3.77641510963 -100.239006042
vertex 9.82201766968 -3.77641510963 -103.810005188
endloop
endfacet
facet normal -0.102455578744 0.994737565517 -6.64138752882e-08
outer loop
vertex 9.80213356018 -3.77846312523 -100.239006042
vertex 9.82201766968 -3.77641510963 -100.239006042
vertex 9.80213356018 -3.77846336365 -103.810005188
endloop
endfacet
facet normal -0.102684698999 0.994713962078 0.0
outer loop
vertex 9.82201766968 -3.77641510963 -103.810005188
vertex 9.8419008255 -3.77436256409 -100.239006042
vertex 9.8419008255 -3.77436256409 -103.810005188
endloop
endfacet
facet normal -0.102684698999 0.994713962078 0.0
outer loop
vertex 9.82201766968 -3.77641510963 -100.239006042
vertex 9.8419008255 -3.77436256409 -100.239006042
vertex 9.82201766968 -3.77641510963 -103.810005188
endloop
endfacet
facet normal -0.994770228863 -0.102138251066 -0.0
outer loop
vertex 9.78224945068 -3.78050684929 -100.239006042
vertex 9.78224945068 -3.78050684929 -103.810005188
vertex 9.78735637665 -3.83024549484 -103.810005188
endloop
endfacet
facet normal -0.994770228863 -0.102138251066 -0.0
outer loop
vertex 9.78735637665 -3.83024549484 -100.239006042
vertex 9.78224945068 -3.78050684929 -100.239006042
vertex 9.78735637665 -3.83024549484 -103.810005188
endloop
endfacet
facet normal -0.0 0.0 1.0
outer loop
vertex 9.82201766968 -3.77641510963 -100.239006042
vertex 9.84704017639 -3.82409787178 -100.239006042
vertex 9.8419008255 -3.77436256409 -100.239006042
endloop
endfacet
facet normal 0.0 0.0 1.0
outer loop
vertex 9.82201766968 -3.77641510963 -100.239006042
vertex 9.82714557648 -3.826151371 -100.239006042
vertex 9.84704017639 -3.82409787178 -100.239006042
endloop
endfacet
facet normal -0.0 0.0 1.0
outer loop
vertex 9.80213356018 -3.77846312523 -100.239006042
vertex 9.80725097656 -3.82820057869 -100.239006042
vertex 9.82201766968 -3.77641510963 -100.239006042
endloop
endfacet
facet normal 0.0 0.0 1.0
outer loop
vertex 9.82201766968 -3.77641510963 -100.239006042
vertex 9.80725097656 -3.82820057869 -100.239006042
vertex 9.82714557648 -3.826151371 -100.239006042
endloop
endfacet
facet normal -0.0 0.0 1.0
outer loop
vertex 9.78224945068 -3.78050684929 -100.239006042
vertex 9.78735637665 -3.83024549484 -100.239006042
vertex 9.80213356018 -3.77846312523 -100.239006042
endloop
endfacet
facet normal 0.0 0.0 1.0
outer loop
vertex 9.80213356018 -3.77846312523 -100.239006042
vertex 9.78735637665 -3.83024549484 -100.239006042
vertex 9.80725097656 -3.82820057869 -100.239006042
endloop
endfacet
facet normal 0.0 0.0 -1.0
outer loop
vertex 9.84704017639 -3.82409787178 -103.810005188
vertex 9.82201766968 -3.77641510963 -103.810005188
vertex 9.8419008255 -3.77436256409 -103.810005188
endloop
endfacet
facet normal 0.0 0.0 -1.0
outer loop
vertex 9.82714557648 -3.826151371 -103.810005188
vertex 9.82201766968 -3.77641510963 -103.810005188
vertex 9.84704017639 -3.82409787178 -103.810005188
endloop
endfacet
facet normal 0.0 0.0 -1.0
outer loop
vertex 9.80725097656 -3.82820057869 -103.810005188
vertex 9.80213356018 -3.77846336365 -103.810005188
vertex 9.82201766968 -3.77641510963 -103.810005188
endloop
endfacet
facet normal 0.0 0.0 -1.0
outer loop
vertex 9.80725097656 -3.82820057869 -103.810005188
vertex 9.82201766968 -3.77641510963 -103.810005188
vertex 9.82714557648 -3.826151371 -103.810005188
endloop
endfacet
facet normal 0.0 0.0 -1.0
outer loop
vertex 9.78735637665 -3.83024549484 -103.810005188
vertex 9.78224945068 -3.78050684929 -103.810005188
vertex 9.80213356018 -3.77846336365 -103.810005188
endloop
endfacet
facet normal 0.0 0.0 -1.0
outer loop
vertex 9.78735637665 -3.83024549484 -103.810005188
vertex 9.80213356018 -3.77846336365 -103.810005188
vertex 9.80725097656 -3.82820057869 -103.810005188
endloop
endfacet
