solid 
facet normal 0.102243922651 0.994759321213 -6.64153176899e-08
outer loop
vertex 9.78733539581 3.83024692535 3.15100002289
vertex 9.78733539581 3.83024716377 6.72200012207
vertex 9.8072309494 3.82820224762 6.72200012207
endloop
endfacet
facet normal 0.102461107075 0.994736969471 -6.64138255502e-08
outer loop
vertex 9.8072309494 3.8282020092 3.15100002289
vertex 9.8072309494 3.82820224762 6.72200012207
vertex 9.82712554932 3.82615303993 6.72200012207
endloop
endfacet
facet normal 0.102243930101 0.994759321213 -6.64153176899e-08
outer loop
vertex 9.8072309494 3.8282020092 3.15100002289
vertex 9.78733539581 3.83024692535 3.15100002289
vertex 9.8072309494 3.82820224762 6.72200012207
endloop
endfacet
facet normal 0.102461107075 0.994736969471 -6.64138255502e-08
outer loop
vertex 9.82712554932 3.82615280151 3.15100002289
vertex 9.8072309494 3.8282020092 3.15100002289
vertex 9.82712554932 3.82615303993 6.72200012207
endloop
endfacet
facet normal 0.102690093219 0.994713366032 2.74245017806e-08
outer loop
vertex 9.84702014923 3.82409930229 3.15100002289
vertex 9.82712554932 3.82615303993 6.72200012207
vertex 9.84701919556 3.82409930229 6.72200012207
endloop
endfacet
facet normal 0.10267341882 0.994715094566 -6.64219115265e-08
outer loop
vertex 9.84702014923 3.82409930229 3.15100002289
vertex 9.82712554932 3.82615280151 3.15100002289
vertex 9.82712554932 3.82615303993 6.72200012207
endloop
endfacet
facet normal 0.994701445103 -0.102805607021 2.6569037459e-07
outer loop
vertex 9.84187984467 3.7743639946 3.15100002289
vertex 9.84702014923 3.82409930229 3.15100002289
vertex 9.84701919556 3.82409930229 6.72200012207
endloop
endfacet
facet normal 0.994703352451 -0.102787211537 6.8626100358e-09
outer loop
vertex 9.84187984467 3.7743639946 3.15100002289
vertex 9.84701919556 3.82409930229 6.72200012207
vertex 9.84187984467 3.77436423302 6.72200012207
endloop
endfacet
facet normal -0.10224314779 -0.994759440422 3.91101870889e-08
outer loop
vertex 9.78222846985 3.78050851822 6.72200012207
vertex 9.78222942352 3.7805082798 3.15100002289
vertex 9.80211257935 3.77846479416 6.72200012207
endloop
endfacet
facet normal -0.10223133117 -0.99476057291 -2.72669478107e-08
outer loop
vertex 9.78222942352 3.7805082798 3.15100002289
vertex 9.80211353302 3.77846479416 3.15100002289
vertex 9.80211257935 3.77846479416 6.72200012207
endloop
endfacet
facet normal -0.102455578744 -0.994737565517 6.64074946144e-08
outer loop
vertex 9.80211257935 3.77846479416 6.72200012207
vertex 9.82199668884 3.77641654015 3.15100002289
vertex 9.82199668884 3.77641677856 6.72200012207
endloop
endfacet
facet normal -0.102472245693 -0.994735836983 -2.73663260941e-08
outer loop
vertex 9.80211353302 3.77846479416 3.15100002289
vertex 9.82199668884 3.77641654015 3.15100002289
vertex 9.80211257935 3.77846479416 6.72200012207
endloop
endfacet
facet normal -0.102684691548 -0.994713962078 6.6409100441e-08
outer loop
vertex 9.82199668884 3.77641677856 6.72200012207
vertex 9.84187984467 3.7743639946 3.15100002289
vertex 9.84187984467 3.77436423302 6.72200012207
endloop
endfacet
facet normal -0.102684691548 -0.994713962078 6.64122836724e-08
outer loop
vertex 9.82199668884 3.77641654015 3.15100002289
vertex 9.84187984467 3.7743639946 3.15100002289
vertex 9.82199668884 3.77641677856 6.72200012207
endloop
endfacet
facet normal -0.994770228863 0.102138236165 -2.72483447361e-07
outer loop
vertex 9.78222942352 3.7805082798 3.15100002289
vertex 9.78222846985 3.78050851822 6.72200012207
vertex 9.78733539581 3.83024716377 6.72200012207
endloop
endfacet
facet normal -0.994772136211 0.102119363844 -6.81802081459e-09
outer loop
vertex 9.78733539581 3.83024692535 3.15100002289
vertex 9.78222942352 3.7805082798 3.15100002289
vertex 9.78733539581 3.83024716377 6.72200012207
endloop
endfacet
facet normal 0.0 0.0 -1.0
outer loop
vertex 9.82199668884 3.77641654015 3.15100002289
vertex 9.84702014923 3.82409930229 3.15100002289
vertex 9.84187984467 3.7743639946 3.15100002289
endloop
endfacet
facet normal 0.0 0.0 -1.0
outer loop
vertex 9.82199668884 3.77641654015 3.15100002289
vertex 9.82712554932 3.82615280151 3.15100002289
vertex 9.84702014923 3.82409930229 3.15100002289
endloop
endfacet
facet normal 0.0 0.0 -1.0
outer loop
vertex 9.80211353302 3.77846479416 3.15100002289
vertex 9.8072309494 3.8282020092 3.15100002289
vertex 9.82199668884 3.77641654015 3.15100002289
endloop
endfacet
facet normal 0.0 0.0 -1.0
outer loop
vertex 9.82199668884 3.77641654015 3.15100002289
vertex 9.8072309494 3.8282020092 3.15100002289
vertex 9.82712554932 3.82615280151 3.15100002289
endloop
endfacet
facet normal 0.0 0.0 -1.0
outer loop
vertex 9.78222942352 3.7805082798 3.15100002289
vertex 9.78733539581 3.83024692535 3.15100002289
vertex 9.80211353302 3.77846479416 3.15100002289
endloop
endfacet
facet normal 0.0 0.0 -1.0
outer loop
vertex 9.80211353302 3.77846479416 3.15100002289
vertex 9.78733539581 3.83024692535 3.15100002289
vertex 9.8072309494 3.8282020092 3.15100002289
endloop
endfacet
facet normal 0.0 0.0 1.0
outer loop
vertex 9.84701919556 3.82409930229 6.72200012207
vertex 9.82199668884 3.77641677856 6.72200012207
vertex 9.84187984467 3.77436423302 6.72200012207
endloop
endfacet
facet normal 0.0 0.0 1.0
outer loop
vertex 9.82712554932 3.82615303993 6.72200012207
vertex 9.80211257935 3.77846479416 6.72200012207
vertex 9.82199668884 3.77641677856 6.72200012207
endloop
endfacet
facet normal 0.0 0.0 1.0
outer loop
vertex 9.82712554932 3.82615303993 6.72200012207
vertex 9.82199668884 3.77641677856 6.72200012207
vertex 9.84701919556 3.82409930229 6.72200012207
endloop
endfacet
facet normal 0.0 0.0 1.0
outer loop
vertex 9.8072309494 3.82820224762 6.72200012207
vertex 9.80211257935 3.77846479416 6.72200012207
vertex 9.82712554932 3.82615303993 6.72200012207
endloop
endfacet
facet normal 0.0 0.0 1.0
outer loop
vertex 9.78733539581 3.83024716377 6.72200012207
vertex 9.78222846985 3.78050851822 6.72200012207
vertex 9.80211257935 3.77846479416 6.72200012207
endloop
endfacet
facet normal 0.0 0.0 1.0
outer loop
vertex 9.78733539581 3.83024716377 6.72200012207
vertex 9.80211257935 3.77846479416 6.72200012207
vertex 9.8072309494 3.82820224762 6.72200012207
endloop
endfacet
