solid 
facet normal -0.102243922651 -0.994759321213 6.64153247953e-08
outer loop
vertex -9.78733539581 -3.83024740219 -9.96399974823
vertex -9.78733539581 -3.83024716377 -6.39300012589
vertex -9.8072309494 -3.82820224762 -6.39300012589
endloop
endfacet
facet normal -0.102248772979 -0.99475890398 3.91086452112e-08
outer loop
vertex -9.80722999573 -3.82820248604 -9.96399974823
vertex -9.78733539581 -3.83024740219 -9.96399974823
vertex -9.8072309494 -3.82820224762 -6.39300012589
endloop
endfacet
facet normal -0.102461099625 -0.994736969471 6.64138326556e-08
outer loop
vertex -9.82712554932 -3.82615327835 -9.96399974823
vertex -9.8072309494 -3.82820224762 -6.39300012589
vertex -9.82712554932 -3.82615303993 -6.39300012589
endloop
endfacet
facet normal -0.1026782915 -0.994714617729 6.64123405159e-08
outer loop
vertex -9.82712554932 -3.82615327835 -9.96399974823
vertex -9.82712554932 -3.82615303993 -6.39300012589
vertex -9.84701919556 -3.82409954071 -6.39300012589
endloop
endfacet
facet normal -0.102456241846 -0.994737446308 3.90167933517e-08
outer loop
vertex -9.82712554932 -3.82615327835 -9.96399974823
vertex -9.80722999573 -3.82820248604 -9.96399974823
vertex -9.8072309494 -3.82820224762 -6.39300012589
endloop
endfacet
facet normal -0.102690085769 -0.994713366032 0.0
outer loop
vertex -9.84701919556 -3.82409954071 -9.96399974823
vertex -9.82712554932 -3.82615327835 -9.96399974823
vertex -9.84701919556 -3.82409954071 -6.39300012589
endloop
endfacet
facet normal -0.994703352451 0.102787218988 0.0
outer loop
vertex -9.84701919556 -3.82409954071 -9.96399974823
vertex -9.84701919556 -3.82409954071 -6.39300012589
vertex -9.84187984467 -3.77436447144 -9.96399974823
endloop
endfacet
facet normal -0.994703471661 0.102786742151 -6.84602463608e-09
outer loop
vertex -9.84701919556 -3.82409954071 -6.39300012589
vertex -9.84187984467 -3.77436423302 -6.39300012589
vertex -9.84187984467 -3.77436447144 -9.96399974823
endloop
endfacet
facet normal 0.10223133862 0.99476069212 0.0
outer loop
vertex -9.78222846985 -3.78050851822 -6.39300012589
vertex -9.80211257935 -3.77846503258 -9.96399974823
vertex -9.80211257935 -3.77846503258 -6.39300012589
endloop
endfacet
facet normal 0.10224314034 0.994759440422 -6.64153319008e-08
outer loop
vertex -9.78222846985 -3.78050875664 -9.96399974823
vertex -9.80211257935 -3.77846503258 -9.96399974823
vertex -9.78222846985 -3.78050851822 -6.39300012589
endloop
endfacet
facet normal 0.102467387915 0.994736433029 -6.64074235601e-08
outer loop
vertex -9.80211257935 -3.77846503258 -6.39300012589
vertex -9.82199668884 -3.77641701698 -9.96399974823
vertex -9.82199668884 -3.77641677856 -6.39300012589
endloop
endfacet
facet normal 0.102684684098 0.994713962078 -6.64122907779e-08
outer loop
vertex -9.82199668884 -3.77641677856 -6.39300012589
vertex -9.82199668884 -3.77641701698 -9.96399974823
vertex -9.84187984467 -3.77436423302 -6.39300012589
endloop
endfacet
facet normal 0.102455578744 0.994737565517 -0.0
outer loop
vertex -9.80211257935 -3.77846503258 -9.96399974823
vertex -9.82199668884 -3.77641701698 -9.96399974823
vertex -9.80211257935 -3.77846503258 -6.39300012589
endloop
endfacet
facet normal 0.102684684098 0.994713962078 -6.64091075464e-08
outer loop
vertex -9.82199668884 -3.77641701698 -9.96399974823
vertex -9.84187984467 -3.77436447144 -9.96399974823
vertex -9.84187984467 -3.77436423302 -6.39300012589
endloop
endfacet
facet normal 0.994770228863 -0.102138243616 6.81928247204e-09
outer loop
vertex -9.78222846985 -3.78050875664 -9.96399974823
vertex -9.78222846985 -3.78050851822 -6.39300012589
vertex -9.78733539581 -3.83024740219 -9.96399974823
endloop
endfacet
facet normal 0.994770228863 -0.102138243616 6.84602463608e-09
outer loop
vertex -9.78222846985 -3.78050851822 -6.39300012589
vertex -9.78733539581 -3.83024716377 -6.39300012589
vertex -9.78733539581 -3.83024740219 -9.96399974823
endloop
endfacet
facet normal 0.0 0.0 1.0
outer loop
vertex -9.84701919556 -3.82409954071 -6.39300012589
vertex -9.82199668884 -3.77641677856 -6.39300012589
vertex -9.84187984467 -3.77436423302 -6.39300012589
endloop
endfacet
facet normal 0.0 -0.0 1.0
outer loop
vertex -9.82712554932 -3.82615303993 -6.39300012589
vertex -9.82199668884 -3.77641677856 -6.39300012589
vertex -9.84701919556 -3.82409954071 -6.39300012589
endloop
endfacet
facet normal 0.0 -0.0 1.0
outer loop
vertex -9.8072309494 -3.82820224762 -6.39300012589
vertex -9.80211257935 -3.77846503258 -6.39300012589
vertex -9.82199668884 -3.77641677856 -6.39300012589
endloop
endfacet
facet normal 0.0 0.0 1.0
outer loop
vertex -9.8072309494 -3.82820224762 -6.39300012589
vertex -9.82199668884 -3.77641677856 -6.39300012589
vertex -9.82712554932 -3.82615303993 -6.39300012589
endloop
endfacet
facet normal 0.0 -0.0 1.0
outer loop
vertex -9.78733539581 -3.83024716377 -6.39300012589
vertex -9.78222846985 -3.78050851822 -6.39300012589
vertex -9.80211257935 -3.77846503258 -6.39300012589
endloop
endfacet
facet normal 0.0 0.0 1.0
outer loop
vertex -9.78733539581 -3.83024716377 -6.39300012589
vertex -9.80211257935 -3.77846503258 -6.39300012589
vertex -9.8072309494 -3.82820224762 -6.39300012589
endloop
endfacet
facet normal -0.0 0.0 -1.0
outer loop
vertex -9.82199668884 -3.77641701698 -9.96399974823
vertex -9.84701919556 -3.82409954071 -9.96399974823
vertex -9.84187984467 -3.77436447144 -9.96399974823
endloop
endfacet
facet normal 0.0 0.0 -1.0
outer loop
vertex -9.82199668884 -3.77641701698 -9.96399974823
vertex -9.82712554932 -3.82615327835 -9.96399974823
vertex -9.84701919556 -3.82409954071 -9.96399974823
endloop
endfacet
facet normal -0.0 0.0 -1.0
outer loop
vertex -9.80211257935 -3.77846503258 -9.96399974823
vertex -9.80722999573 -3.82820248604 -9.96399974823
vertex -9.82199668884 -3.77641701698 -9.96399974823
endloop
endfacet
facet normal 0.0 -0.0 -1.0
outer loop
vertex -9.82199668884 -3.77641701698 -9.96399974823
vertex -9.80722999573 -3.82820248604 -9.96399974823
vertex -9.82712554932 -3.82615327835 -9.96399974823
endloop
endfacet
facet normal -0.0 0.0 -1.0
outer loop
vertex -9.78222846985 -3.78050875664 -9.96399974823
vertex -9.78733539581 -3.83024740219 -9.96399974823
vertex -9.80211257935 -3.77846503258 -9.96399974823
endloop
endfacet
facet normal 0.0 -0.0 -1.0
outer loop
vertex -9.80211257935 -3.77846503258 -9.96399974823
vertex -9.78733539581 -3.83024740219 -9.96399974823
vertex -9.80722999573 -3.82820248604 -9.96399974823
endloop
endfacet
