solid 
facet normal -0.102914206684 0.994690239429 -1.99232175646e-07
outer loop
vertex -9.84703350067 3.82409906387 50.0540008545
vertex -9.84703350067 3.82409834862 46.483001709
vertex -9.86692714691 3.82204008102 46.483001709
endloop
endfacet
facet normal -0.103114709258 0.994669497013 -2.65637368102e-07
outer loop
vertex -9.86692714691 3.8220410347 50.0540008545
vertex -9.86692714691 3.82204008102 46.483001709
vertex -9.88682079315 3.81997776031 46.483001709
endloop
endfacet
facet normal -0.102902412415 0.994691491127 -2.65643222974e-07
outer loop
vertex -9.86692714691 3.8220410347 50.0540008545
vertex -9.84703350067 3.82409906387 50.0540008545
vertex -9.86692714691 3.82204008102 46.483001709
endloop
endfacet
facet normal -0.103126503527 0.994668245316 -1.99227770281e-07
outer loop
vertex -9.88682079315 3.81997847557 50.0540008545
vertex -9.86692714691 3.8220410347 50.0540008545
vertex -9.88682079315 3.81997776031 46.483001709
endloop
endfacet
facet normal -0.103343687952 0.994645655155 -1.99223251229e-07
outer loop
vertex -9.90671348572 3.81791162491 50.0540008545
vertex -9.88682079315 3.81997776031 46.483001709
vertex -9.90671348572 3.81791090965 46.483001709
endloop
endfacet
facet normal -0.103343687952 0.994645655155 -1.99220067998e-07
outer loop
vertex -9.90671348572 3.81791162491 50.0540008545
vertex -9.88682079315 3.81997847557 50.0540008545
vertex -9.88682079315 3.81997776031 46.483001709
endloop
endfacet
facet normal -0.994634151459 -0.10345454514 2.07214991832e-08
outer loop
vertex -9.90671348572 3.81791162491 50.0540008545
vertex -9.90671348572 3.81791090965 46.483001709
vertex -9.90154075623 3.76817989349 50.0540008545
endloop
endfacet
facet normal -0.994634151459 -0.10345454514 2.07011243702e-08
outer loop
vertex -9.90671348572 3.81791090965 46.483001709
vertex -9.90154075623 3.76817917824 46.483001709
vertex -9.90154075623 3.76817989349 50.0540008545
endloop
endfacet
facet normal 0.102902010083 -0.994691550732 2.65643251396e-07
outer loop
vertex -9.84189414978 3.77436304092 46.483001709
vertex -9.84189414978 3.7743639946 50.0540008545
vertex -9.86177635193 3.77230620384 46.483001709
endloop
endfacet
facet normal 0.102913804352 -0.994690299034 1.99232189857e-07
outer loop
vertex -9.84189414978 3.7743639946 50.0540008545
vertex -9.86177635193 3.7723069191 50.0540008545
vertex -9.86177635193 3.77230620384 46.483001709
endloop
endfacet
facet normal 0.103126235306 -0.99466830492 1.99227784492e-07
outer loop
vertex -9.86177635193 3.77230620384 46.483001709
vertex -9.88165855408 3.77024555206 50.0540008545
vertex -9.88165855408 3.77024483681 46.483001709
endloop
endfacet
facet normal 0.103338636458 -0.994646310806 1.99223379127e-07
outer loop
vertex -9.88165855408 3.77024483681 46.483001709
vertex -9.88165855408 3.77024555206 50.0540008545
vertex -9.90154075623 3.76817917824 46.483001709
endloop
endfacet
facet normal 0.103126235306 -0.99466830492 1.99227784492e-07
outer loop
vertex -9.86177635193 3.7723069191 50.0540008545
vertex -9.88165855408 3.77024555206 50.0540008545
vertex -9.86177635193 3.77230620384 46.483001709
endloop
endfacet
facet normal 0.103338636458 -0.994646310806 1.99223379127e-07
outer loop
vertex -9.88165855408 3.77024555206 50.0540008545
vertex -9.90154075623 3.76817989349 50.0540008545
vertex -9.90154075623 3.76817917824 46.483001709
endloop
endfacet
facet normal 0.994703412056 0.102787233889 -2.05381756047e-08
outer loop
vertex -9.84189414978 3.7743639946 50.0540008545
vertex -9.84703350067 3.82409834862 46.483001709
vertex -9.84703350067 3.82409906387 50.0540008545
endloop
endfacet
facet normal 0.994703471661 0.102786749601 -2.74503211273e-08
outer loop
vertex -9.84189414978 3.77436304092 46.483001709
vertex -9.84703350067 3.82409834862 46.483001709
vertex -9.84189414978 3.7743639946 50.0540008545
endloop
endfacet
facet normal 0.0 0.0 -1.0
outer loop
vertex -9.90671348572 3.81791090965 46.483001709
vertex -9.88165855408 3.77024483681 46.483001709
vertex -9.90154075623 3.76817917824 46.483001709
endloop
endfacet
facet normal 0.0 0.0 -1.0
outer loop
vertex -9.88682079315 3.81997776031 46.483001709
vertex -9.86177635193 3.77230620384 46.483001709
vertex -9.88165855408 3.77024483681 46.483001709
endloop
endfacet
facet normal 0.0 -0.0 -1.0
outer loop
vertex -9.88682079315 3.81997776031 46.483001709
vertex -9.88165855408 3.77024483681 46.483001709
vertex -9.90671348572 3.81791090965 46.483001709
endloop
endfacet
facet normal 0.0 -0.0 -1.0
outer loop
vertex -9.86692714691 3.82204008102 46.483001709
vertex -9.86177635193 3.77230620384 46.483001709
vertex -9.88682079315 3.81997776031 46.483001709
endloop
endfacet
facet normal 0.0 -0.0 -1.0
outer loop
vertex -9.84703350067 3.82409834862 46.483001709
vertex -9.84189414978 3.77436304092 46.483001709
vertex -9.86177635193 3.77230620384 46.483001709
endloop
endfacet
facet normal 0.0 0.0 -1.0
outer loop
vertex -9.84703350067 3.82409834862 46.483001709
vertex -9.86177635193 3.77230620384 46.483001709
vertex -9.86692714691 3.82204008102 46.483001709
endloop
endfacet
facet normal 0.0 0.0 1.0
outer loop
vertex -9.88165855408 3.77024555206 50.0540008545
vertex -9.90671348572 3.81791162491 50.0540008545
vertex -9.90154075623 3.76817989349 50.0540008545
endloop
endfacet
facet normal 0.0 0.0 1.0
outer loop
vertex -9.88165855408 3.77024555206 50.0540008545
vertex -9.88682079315 3.81997847557 50.0540008545
vertex -9.90671348572 3.81791162491 50.0540008545
endloop
endfacet
facet normal 0.0 0.0 1.0
outer loop
vertex -9.86177635193 3.7723069191 50.0540008545
vertex -9.86692714691 3.8220410347 50.0540008545
vertex -9.88165855408 3.77024555206 50.0540008545
endloop
endfacet
facet normal 0.0 -0.0 1.0
outer loop
vertex -9.88165855408 3.77024555206 50.0540008545
vertex -9.86692714691 3.8220410347 50.0540008545
vertex -9.88682079315 3.81997847557 50.0540008545
endloop
endfacet
facet normal 0.0 0.0 1.0
outer loop
vertex -9.84189414978 3.7743639946 50.0540008545
vertex -9.84703350067 3.82409906387 50.0540008545
vertex -9.86177635193 3.7723069191 50.0540008545
endloop
endfacet
facet normal 0.0 -0.0 1.0
outer loop
vertex -9.86177635193 3.7723069191 50.0540008545
vertex -9.84703350067 3.82409906387 50.0540008545
vertex -9.86692714691 3.8220410347 50.0540008545
endloop
endfacet
