solid 
facet normal 0.1022439152 -0.994759321213 0.0
outer loop
vertex 9.80724620819 -3.82820129395 185.850997925
vertex 9.7873506546 -3.8302462101 185.850997925
vertex 9.7873506546 -3.8302462101 182.279998779
endloop
endfacet
facet normal 0.102232128382 -0.99476057291 6.64154171659e-08
outer loop
vertex 9.80724620819 -3.82820129395 185.850997925
vertex 9.7873506546 -3.8302462101 182.279998779
vertex 9.80724620819 -3.82820153236 182.279998779
endloop
endfacet
facet normal 0.102461107075 -0.994736969471 6.64138468665e-08
outer loop
vertex 9.80724620819 -3.82820129395 185.850997925
vertex 9.80724620819 -3.82820153236 182.279998779
vertex 9.82714080811 -3.82615232468 182.279998779
endloop
endfacet
facet normal 0.102461114526 -0.994736969471 6.64138468665e-08
outer loop
vertex 9.82714080811 -3.82615208626 185.850997925
vertex 9.80724620819 -3.82820129395 185.850997925
vertex 9.82714080811 -3.82615232468 182.279998779
endloop
endfacet
facet normal 0.10268522799 -0.994713962078 0.0
outer loop
vertex 9.84703540802 -3.82409858704 185.850997925
vertex 9.82714080811 -3.82615232468 182.279998779
vertex 9.84703540802 -3.82409858704 182.279998779
endloop
endfacet
facet normal 0.10267342627 -0.994715094566 6.64219328428e-08
outer loop
vertex 9.84703540802 -3.82409858704 185.850997925
vertex 9.82714080811 -3.82615208626 185.850997925
vertex 9.82714080811 -3.82615232468 182.279998779
endloop
endfacet
facet normal 0.994701445103 0.102805607021 0.0
outer loop
vertex 9.84189510345 -3.77436327934 185.850997925
vertex 9.84703540802 -3.82409858704 185.850997925
vertex 9.84703540802 -3.82409858704 182.279998779
endloop
endfacet
facet normal 0.994701445103 0.102806098759 -6.86387258142e-09
outer loop
vertex 9.84189510345 -3.77436327934 185.850997925
vertex 9.84703540802 -3.82409858704 182.279998779
vertex 9.84189510345 -3.77436351776 182.279998779
endloop
endfacet
facet normal -0.10224314034 0.994759440422 -6.64153390062e-08
outer loop
vertex 9.78224468231 -3.78050780296 182.279998779
vertex 9.78224468231 -3.78050756454 185.850997925
vertex 9.80212879181 -3.7784640789 182.279998779
endloop
endfacet
facet normal -0.10223133862 0.99476069212 0.0
outer loop
vertex 9.78224468231 -3.78050756454 185.850997925
vertex 9.80212879181 -3.7784640789 185.850997925
vertex 9.80212879181 -3.7784640789 182.279998779
endloop
endfacet
facet normal -0.102460451424 0.99473708868 -6.64106707404e-08
outer loop
vertex 9.80212879181 -3.7784640789 182.279998779
vertex 9.82201194763 -3.77641582489 185.850997925
vertex 9.82201194763 -3.77641606331 182.279998779
endloop
endfacet
facet normal -0.102472253144 0.994735836983 0.0
outer loop
vertex 9.80212879181 -3.7784640789 185.850997925
vertex 9.82201194763 -3.77641582489 185.850997925
vertex 9.80212879181 -3.7784640789 182.279998779
endloop
endfacet
facet normal -0.102684698999 0.994713962078 -6.64091217573e-08
outer loop
vertex 9.82201194763 -3.77641606331 182.279998779
vertex 9.84189510345 -3.77436327934 185.850997925
vertex 9.84189510345 -3.77436351776 182.279998779
endloop
endfacet
facet normal -0.102684698999 0.994713962078 -6.64123049887e-08
outer loop
vertex 9.82201194763 -3.77641582489 185.850997925
vertex 9.84189510345 -3.77436327934 185.850997925
vertex 9.82201194763 -3.77641606331 182.279998779
endloop
endfacet
facet normal -0.994772076607 -0.102119848132 6.81805545355e-09
outer loop
vertex 9.78224468231 -3.78050756454 185.850997925
vertex 9.78224468231 -3.78050780296 182.279998779
vertex 9.7873506546 -3.8302462101 182.279998779
endloop
endfacet
facet normal -0.994772195816 -0.102119371295 -0.0
outer loop
vertex 9.7873506546 -3.8302462101 185.850997925
vertex 9.78224468231 -3.78050756454 185.850997925
vertex 9.7873506546 -3.8302462101 182.279998779
endloop
endfacet
facet normal -0.0 0.0 1.0
outer loop
vertex 9.82201194763 -3.77641582489 185.850997925
vertex 9.84703540802 -3.82409858704 185.850997925
vertex 9.84189510345 -3.77436327934 185.850997925
endloop
endfacet
facet normal 0.0 0.0 1.0
outer loop
vertex 9.82201194763 -3.77641582489 185.850997925
vertex 9.82714080811 -3.82615208626 185.850997925
vertex 9.84703540802 -3.82409858704 185.850997925
endloop
endfacet
facet normal -0.0 0.0 1.0
outer loop
vertex 9.80212879181 -3.7784640789 185.850997925
vertex 9.80724620819 -3.82820129395 185.850997925
vertex 9.82201194763 -3.77641582489 185.850997925
endloop
endfacet
facet normal 0.0 0.0 1.0
outer loop
vertex 9.82201194763 -3.77641582489 185.850997925
vertex 9.80724620819 -3.82820129395 185.850997925
vertex 9.82714080811 -3.82615208626 185.850997925
endloop
endfacet
facet normal -0.0 0.0 1.0
outer loop
vertex 9.78224468231 -3.78050756454 185.850997925
vertex 9.7873506546 -3.8302462101 185.850997925
vertex 9.80212879181 -3.7784640789 185.850997925
endloop
endfacet
facet normal 0.0 0.0 1.0
outer loop
vertex 9.80212879181 -3.7784640789 185.850997925
vertex 9.7873506546 -3.8302462101 185.850997925
vertex 9.80724620819 -3.82820129395 185.850997925
endloop
endfacet
facet normal 0.0 0.0 -1.0
outer loop
vertex 9.84703540802 -3.82409858704 182.279998779
vertex 9.82201194763 -3.77641606331 182.279998779
vertex 9.84189510345 -3.77436351776 182.279998779
endloop
endfacet
facet normal 0.0 0.0 -1.0
outer loop
vertex 9.82714080811 -3.82615232468 182.279998779
vertex 9.80212879181 -3.7784640789 182.279998779
vertex 9.82201194763 -3.77641606331 182.279998779
endloop
endfacet
facet normal 0.0 0.0 -1.0
outer loop
vertex 9.82714080811 -3.82615232468 182.279998779
vertex 9.82201194763 -3.77641606331 182.279998779
vertex 9.84703540802 -3.82409858704 182.279998779
endloop
endfacet
facet normal 0.0 0.0 -1.0
outer loop
vertex 9.80724620819 -3.82820153236 182.279998779
vertex 9.80212879181 -3.7784640789 182.279998779
vertex 9.82714080811 -3.82615232468 182.279998779
endloop
endfacet
facet normal 0.0 0.0 -1.0
outer loop
vertex 9.7873506546 -3.8302462101 182.279998779
vertex 9.78224468231 -3.78050780296 182.279998779
vertex 9.80212879181 -3.7784640789 182.279998779
endloop
endfacet
facet normal 0.0 0.0 -1.0
outer loop
vertex 9.7873506546 -3.8302462101 182.279998779
vertex 9.80212879181 -3.7784640789 182.279998779
vertex 9.80724620819 -3.82820153236 182.279998779
endloop
endfacet
