solid 
facet normal 0.102909319103 0.994690716267 -1.99232275122e-07
outer loop
vertex 9.84704399109 3.82409715652 -156.593994141
vertex 9.84704399109 3.82409787178 -153.022994995
vertex 9.866938591 3.82203960419 -153.022994995
endloop
endfacet
facet normal 0.103119596839 0.994668900967 -1.32818598786e-07
outer loop
vertex 9.866938591 3.82203912735 -156.593994141
vertex 9.866938591 3.82203960419 -153.022994995
vertex 9.88683128357 3.81997728348 -153.022994995
endloop
endfacet
facet normal 0.102897532284 0.994691967964 -1.32821682541e-07
outer loop
vertex 9.866938591 3.82203912735 -156.593994141
vertex 9.84704399109 3.82409715652 -156.593994141
vertex 9.866938591 3.82203960419 -153.022994995
endloop
endfacet
facet normal 0.103131383657 0.994667708874 -1.99227656594e-07
outer loop
vertex 9.88683128357 3.81997656822 -156.593994141
vertex 9.866938591 3.82203912735 -156.593994141
vertex 9.88683128357 3.81997728348 -153.022994995
endloop
endfacet
facet normal 0.10333879292 0.994646251202 -1.99223364916e-07
outer loop
vertex 9.90672492981 3.81790971756 -156.593994141
vertex 9.88683128357 3.81997728348 -153.022994995
vertex 9.90672492981 3.81791043282 -153.022994995
endloop
endfacet
facet normal 0.10333879292 0.994646251202 -1.9921063199e-07
outer loop
vertex 9.90672492981 3.81790971756 -156.593994141
vertex 9.88683128357 3.81997656822 -156.593994141
vertex 9.88683128357 3.81997728348 -153.022994995
endloop
endfacet
facet normal 0.994634151459 -0.10345454514 2.07214991832e-08
outer loop
vertex 9.90672492981 3.81790971756 -156.593994141
vertex 9.90672492981 3.81791043282 -153.022994995
vertex 9.90155220032 3.7681787014 -153.022994995
endloop
endfacet
facet normal 0.994634151459 -0.10345454514 2.07214991832e-08
outer loop
vertex 9.90155220032 3.76817798615 -156.593994141
vertex 9.90672492981 3.81790971756 -156.593994141
vertex 9.90155220032 3.7681787014 -153.022994995
endloop
endfacet
facet normal -0.102897122502 -0.994692027569 1.99222981223e-07
outer loop
vertex 9.8419046402 3.77436256409 -153.022994995
vertex 9.86178779602 3.77230501175 -156.593994141
vertex 9.86178779602 3.77230572701 -153.022994995
endloop
endfacet
facet normal -0.102897122502 -0.994692027569 1.99232530917e-07
outer loop
vertex 9.8419046402 3.77436184883 -156.593994141
vertex 9.86178779602 3.77230501175 -156.593994141
vertex 9.8419046402 3.77436256409 -153.022994995
endloop
endfacet
facet normal -0.103126235306 -0.99466830492 1.99227784492e-07
outer loop
vertex 9.86178779602 3.77230572701 -153.022994995
vertex 9.88166999817 3.77024364471 -156.593994141
vertex 9.88166999817 3.77024435997 -153.022994995
endloop
endfacet
facet normal -0.103126235306 -0.99466830492 1.99227784492e-07
outer loop
vertex 9.86178779602 3.77230501175 -156.593994141
vertex 9.88166999817 3.77024364471 -156.593994141
vertex 9.86178779602 3.77230572701 -153.022994995
endloop
endfacet
facet normal -0.103338636458 -0.994646310806 1.99223379127e-07
outer loop
vertex 9.88166999817 3.77024435997 -153.022994995
vertex 9.90155220032 3.76817798615 -156.593994141
vertex 9.90155220032 3.7681787014 -153.022994995
endloop
endfacet
facet normal -0.103338636458 -0.994646310806 1.99223379127e-07
outer loop
vertex 9.88166999817 3.77024364471 -156.593994141
vertex 9.90155220032 3.76817798615 -156.593994141
vertex 9.88166999817 3.77024435997 -153.022994995
endloop
endfacet
facet normal -0.994703352451 0.10278672725 -2.05877377368e-08
outer loop
vertex 9.8419046402 3.77436184883 -156.593994141
vertex 9.8419046402 3.77436256409 -153.022994995
vertex 9.84704399109 3.82409787178 -153.022994995
endloop
endfacet
facet normal -0.994703471661 0.102786749601 -2.05877412895e-08
outer loop
vertex 9.84704399109 3.82409715652 -156.593994141
vertex 9.8419046402 3.77436184883 -156.593994141
vertex 9.84704399109 3.82409787178 -153.022994995
endloop
endfacet
facet normal 0.0 0.0 -1.0
outer loop
vertex 9.88166999817 3.77024364471 -156.593994141
vertex 9.90672492981 3.81790971756 -156.593994141
vertex 9.90155220032 3.76817798615 -156.593994141
endloop
endfacet
facet normal 0.0 0.0 -1.0
outer loop
vertex 9.86178779602 3.77230501175 -156.593994141
vertex 9.88683128357 3.81997656822 -156.593994141
vertex 9.88166999817 3.77024364471 -156.593994141
endloop
endfacet
facet normal 0.0 0.0 -1.0
outer loop
vertex 9.88166999817 3.77024364471 -156.593994141
vertex 9.88683128357 3.81997656822 -156.593994141
vertex 9.90672492981 3.81790971756 -156.593994141
endloop
endfacet
facet normal 0.0 0.0 -1.0
outer loop
vertex 9.8419046402 3.77436184883 -156.593994141
vertex 9.866938591 3.82203912735 -156.593994141
vertex 9.86178779602 3.77230501175 -156.593994141
endloop
endfacet
facet normal 0.0 0.0 -1.0
outer loop
vertex 9.86178779602 3.77230501175 -156.593994141
vertex 9.866938591 3.82203912735 -156.593994141
vertex 9.88683128357 3.81997656822 -156.593994141
endloop
endfacet
facet normal 0.0 0.0 -1.0
outer loop
vertex 9.8419046402 3.77436184883 -156.593994141
vertex 9.84704399109 3.82409715652 -156.593994141
vertex 9.866938591 3.82203912735 -156.593994141
endloop
endfacet
facet normal 0.0 0.0 1.0
outer loop
vertex 9.90672492981 3.81791043282 -153.022994995
vertex 9.88166999817 3.77024435997 -153.022994995
vertex 9.90155220032 3.7681787014 -153.022994995
endloop
endfacet
facet normal 0.0 0.0 1.0
outer loop
vertex 9.88683128357 3.81997728348 -153.022994995
vertex 9.86178779602 3.77230572701 -153.022994995
vertex 9.88166999817 3.77024435997 -153.022994995
endloop
endfacet
facet normal 0.0 0.0 1.0
outer loop
vertex 9.88683128357 3.81997728348 -153.022994995
vertex 9.88166999817 3.77024435997 -153.022994995
vertex 9.90672492981 3.81791043282 -153.022994995
endloop
endfacet
facet normal 0.0 0.0 1.0
outer loop
vertex 9.866938591 3.82203960419 -153.022994995
vertex 9.86178779602 3.77230572701 -153.022994995
vertex 9.88683128357 3.81997728348 -153.022994995
endloop
endfacet
facet normal 0.0 0.0 1.0
outer loop
vertex 9.84704399109 3.82409787178 -153.022994995
vertex 9.8419046402 3.77436256409 -153.022994995
vertex 9.86178779602 3.77230572701 -153.022994995
endloop
endfacet
facet normal 0.0 0.0 1.0
outer loop
vertex 9.84704399109 3.82409787178 -153.022994995
vertex 9.86178779602 3.77230572701 -153.022994995
vertex 9.866938591 3.82203960419 -153.022994995
endloop
endfacet
