solid 
facet normal -0.0125155383721 0.999921679497 0.0
outer loop
vertex -0.0814139693975 4.30005407333 -0.439999997616
vertex -0.0814139693975 4.30005407333 -0.5
vertex -3.34164738655 4.25924730301 -0.5
endloop
endfacet
facet normal -0.0486801192164 0.998814463615 0.0
outer loop
vertex -3.34164738655 4.25924730301 -0.439999997616
vertex -3.34164738655 4.25924730301 -0.5
vertex -6.59827041626 4.10052633286 -0.5
endloop
endfacet
facet normal -0.0125155383721 0.999921679497 0.0
outer loop
vertex -3.34164738655 4.25924730301 -0.439999997616
vertex -0.0814139693975 4.30005407333 -0.439999997616
vertex -3.34164738655 4.25924730301 -0.5
endloop
endfacet
facet normal -0.0486801192164 0.998814463615 0.0
outer loop
vertex -6.59827041626 4.10052633286 -0.439999997616
vertex -3.34164738655 4.25924730301 -0.439999997616
vertex -6.59827041626 4.10052633286 -0.5
endloop
endfacet
facet normal -0.0847809314728 0.996399641037 0.0
outer loop
vertex -9.84702014923 3.82409906387 -0.439999997616
vertex -6.59827041626 4.10052633286 -0.5
vertex -9.84702014923 3.82409906387 -0.5
endloop
endfacet
facet normal -0.0847809314728 0.996399641037 0.0
outer loop
vertex -9.84702014923 3.82409906387 -0.439999997616
vertex -6.59827041626 4.10052633286 -0.439999997616
vertex -6.59827041626 4.10052633286 -0.5
endloop
endfacet
facet normal -0.994703352451 -0.102787226439 0.0
outer loop
vertex -9.84702014923 3.82409906387 -0.439999997616
vertex -9.84188079834 3.7743639946 -0.5
vertex -9.84188079834 3.7743639946 -0.439999997616
endloop
endfacet
facet normal -0.994703352451 -0.102787226439 0.0
outer loop
vertex -9.84702014923 3.82409906387 -0.5
vertex -9.84188079834 3.7743639946 -0.5
vertex -9.84702014923 3.82409906387 -0.439999997616
endloop
endfacet
facet normal 0.0125156091526 -0.999921739101 0.0
outer loop
vertex -0.0816927552223 4.25005483627 -0.5
vertex -0.0816927552223 4.25005483627 -0.439999997616
vertex -3.34011721611 4.20927047729 -0.5
endloop
endfacet
facet normal 0.0125156091526 -0.999921739101 0.0
outer loop
vertex -0.0816927552223 4.25005483627 -0.439999997616
vertex -3.34011721611 4.20927047729 -0.439999997616
vertex -3.34011721611 4.20927047729 -0.5
endloop
endfacet
facet normal 0.0486800707877 -0.998814463615 0.0
outer loop
vertex -3.34011721611 4.20927047729 -0.5
vertex -6.59493350983 4.05063772202 -0.439999997616
vertex -6.59493350983 4.05063772202 -0.5
endloop
endfacet
facet normal 0.0486800707877 -0.998814463615 0.0
outer loop
vertex -3.34011721611 4.20927047729 -0.439999997616
vertex -6.59493350983 4.05063772202 -0.439999997616
vertex -3.34011721611 4.20927047729 -0.5
endloop
endfacet
facet normal 0.0847808793187 -0.996399641037 0.0
outer loop
vertex -6.59493350983 4.05063772202 -0.5
vertex -9.84188079834 3.7743639946 -0.439999997616
vertex -9.84188079834 3.7743639946 -0.5
endloop
endfacet
facet normal 0.0847808793187 -0.996399641037 0.0
outer loop
vertex -6.59493350983 4.05063772202 -0.439999997616
vertex -9.84188079834 3.7743639946 -0.439999997616
vertex -6.59493350983 4.05063772202 -0.5
endloop
endfacet
facet normal 0.999984383583 -0.00557571463287 0.0
outer loop
vertex -0.0816927552223 4.25005483627 -0.439999997616
vertex -0.0814139693975 4.30005407333 -0.5
vertex -0.0814139693975 4.30005407333 -0.439999997616
endloop
endfacet
facet normal 0.999984383583 -0.00557571463287 0.0
outer loop
vertex -0.0816927552223 4.25005483627 -0.5
vertex -0.0814139693975 4.30005407333 -0.5
vertex -0.0816927552223 4.25005483627 -0.439999997616
endloop
endfacet
facet normal 0.0 0.0 -1.0
outer loop
vertex -6.59493350983 4.05063772202 -0.5
vertex -9.84188079834 3.7743639946 -0.5
vertex -9.84702014923 3.82409906387 -0.5
endloop
endfacet
facet normal 0.0 -0.0 -1.0
outer loop
vertex -6.59827041626 4.10052633286 -0.5
vertex -6.59493350983 4.05063772202 -0.5
vertex -9.84702014923 3.82409906387 -0.5
endloop
endfacet
facet normal 0.0 0.0 -1.0
outer loop
vertex -3.34011721611 4.20927047729 -0.5
vertex -6.59493350983 4.05063772202 -0.5
vertex -6.59827041626 4.10052633286 -0.5
endloop
endfacet
facet normal 0.0 -0.0 -1.0
outer loop
vertex -3.34164738655 4.25924730301 -0.5
vertex -3.34011721611 4.20927047729 -0.5
vertex -6.59827041626 4.10052633286 -0.5
endloop
endfacet
facet normal -0.0 0.0 -1.0
outer loop
vertex -0.0816927552223 4.25005483627 -0.5
vertex -3.34011721611 4.20927047729 -0.5
vertex -3.34164738655 4.25924730301 -0.5
endloop
endfacet
facet normal 0.0 0.0 -1.0
outer loop
vertex -0.0814139693975 4.30005407333 -0.5
vertex -0.0816927552223 4.25005483627 -0.5
vertex -3.34164738655 4.25924730301 -0.5
endloop
endfacet
facet normal 0.0 0.0 1.0
outer loop
vertex -6.59493350983 4.05063772202 -0.439999997616
vertex -6.59827041626 4.10052633286 -0.439999997616
vertex -9.84188079834 3.7743639946 -0.439999997616
endloop
endfacet
facet normal 0.0 -0.0 1.0
outer loop
vertex -9.84188079834 3.7743639946 -0.439999997616
vertex -6.59827041626 4.10052633286 -0.439999997616
vertex -9.84702014923 3.82409906387 -0.439999997616
endloop
endfacet
facet normal 0.0 0.0 1.0
outer loop
vertex -3.34011721611 4.20927047729 -0.439999997616
vertex -3.34164738655 4.25924730301 -0.439999997616
vertex -6.59493350983 4.05063772202 -0.439999997616
endloop
endfacet
facet normal 0.0 -0.0 1.0
outer loop
vertex -6.59493350983 4.05063772202 -0.439999997616
vertex -3.34164738655 4.25924730301 -0.439999997616
vertex -6.59827041626 4.10052633286 -0.439999997616
endloop
endfacet
facet normal 0.0 -0.0 1.0
outer loop
vertex -0.0816927552223 4.25005483627 -0.439999997616
vertex -0.0814139693975 4.30005407333 -0.439999997616
vertex -3.34011721611 4.20927047729 -0.439999997616
endloop
endfacet
facet normal 0.0 -0.0 1.0
outer loop
vertex -3.34011721611 4.20927047729 -0.439999997616
vertex -0.0814139693975 4.30005407333 -0.439999997616
vertex -3.34164738655 4.25924730301 -0.439999997616
endloop
endfacet
