solid 
facet normal 0.0125156836584 0.999921679497 0.0
outer loop
vertex 3.34165263176 4.25924777985 21.1660003662
vertex 0.0814191997051 4.30005502701 21.1660003662
vertex 0.0814191997051 4.30005502701 21.2259998322
endloop
endfacet
facet normal 0.0125156836584 0.999921679497 -0.0
outer loop
vertex 3.34165263176 4.25924777985 21.1660003662
vertex 0.0814191997051 4.30005502701 21.2259998322
vertex 3.34165263176 4.25924777985 21.2259998322
endloop
endfacet
facet normal 0.0486802607775 0.998814404011 -0.0
outer loop
vertex 6.59827566147 4.10052633286 21.1660003662
vertex 3.34165263176 4.25924777985 21.2259998322
vertex 6.59827566147 4.10052633286 21.2259998322
endloop
endfacet
facet normal 0.0847808495164 0.996399641037 -0.0
outer loop
vertex 6.59827566147 4.10052633286 21.1660003662
vertex 6.59827566147 4.10052633286 21.2259998322
vertex 9.84702587128 3.82409930229 21.2259998322
endloop
endfacet
facet normal 0.0486802607775 0.998814404011 0.0
outer loop
vertex 6.59827566147 4.10052633286 21.1660003662
vertex 3.34165263176 4.25924777985 21.1660003662
vertex 3.34165263176 4.25924777985 21.2259998322
endloop
endfacet
facet normal 0.0847808495164 0.996399641037 -0.0
outer loop
vertex 9.84702587128 3.82409930229 21.1660003662
vertex 6.59827566147 4.10052633286 21.1660003662
vertex 9.84702587128 3.82409930229 21.2259998322
endloop
endfacet
facet normal 0.994701445103 -0.102805607021 0.0
outer loop
vertex 9.84702587128 3.82409930229 21.1660003662
vertex 9.84702587128 3.82409930229 21.2259998322
vertex 9.84188556671 3.7743639946 21.2259998322
endloop
endfacet
facet normal 0.994701445103 -0.102805607021 0.0
outer loop
vertex 9.84188556671 3.7743639946 21.1660003662
vertex 9.84702587128 3.82409930229 21.1660003662
vertex 9.84188556671 3.7743639946 21.2259998322
endloop
endfacet
facet normal -0.0125157563016 -0.999921739101 0.0
outer loop
vertex 0.0816979855299 4.25005578995 21.2259998322
vertex 3.34012246132 4.20927095413 21.1660003662
vertex 3.34012246132 4.20927095413 21.2259998322
endloop
endfacet
facet normal -0.048680216074 -0.998814404011 -0.0
outer loop
vertex 3.34012246132 4.20927095413 21.2259998322
vertex 3.34012246132 4.20927095413 21.1660003662
vertex 6.59493875504 4.05063772202 21.2259998322
endloop
endfacet
facet normal -0.0125157563016 -0.999921739101 0.0
outer loop
vertex 0.0816979855299 4.25005578995 21.1660003662
vertex 3.34012246132 4.20927095413 21.1660003662
vertex 0.0816979855299 4.25005578995 21.2259998322
endloop
endfacet
facet normal -0.0847808867693 -0.996399581432 -0.0
outer loop
vertex 6.59493875504 4.05063772202 21.2259998322
vertex 6.59493875504 4.05063772202 21.1660003662
vertex 9.84188556671 3.7743639946 21.2259998322
endloop
endfacet
facet normal -0.048680216074 -0.998814404011 0.0
outer loop
vertex 3.34012246132 4.20927095413 21.1660003662
vertex 6.59493875504 4.05063772202 21.1660003662
vertex 6.59493875504 4.05063772202 21.2259998322
endloop
endfacet
facet normal -0.0847808867693 -0.996399581432 0.0
outer loop
vertex 6.59493875504 4.05063772202 21.1660003662
vertex 9.84188556671 3.7743639946 21.1660003662
vertex 9.84188556671 3.7743639946 21.2259998322
endloop
endfacet
facet normal -0.999984502792 -0.00557571509853 0.0
outer loop
vertex 0.0816979855299 4.25005578995 21.1660003662
vertex 0.0816979855299 4.25005578995 21.2259998322
vertex 0.0814191997051 4.30005502701 21.2259998322
endloop
endfacet
facet normal -0.999984502792 -0.00557571509853 0.0
outer loop
vertex 0.0814191997051 4.30005502701 21.1660003662
vertex 0.0816979855299 4.25005578995 21.1660003662
vertex 0.0814191997051 4.30005502701 21.2259998322
endloop
endfacet
facet normal 0.0 0.0 -1.0
outer loop
vertex 9.84188556671 3.7743639946 21.1660003662
vertex 6.59493875504 4.05063772202 21.1660003662
vertex 9.84702587128 3.82409930229 21.1660003662
endloop
endfacet
facet normal 0.0 0.0 -1.0
outer loop
vertex 6.59493875504 4.05063772202 21.1660003662
vertex 6.59827566147 4.10052633286 21.1660003662
vertex 9.84702587128 3.82409930229 21.1660003662
endloop
endfacet
facet normal 0.0 0.0 -1.0
outer loop
vertex 6.59493875504 4.05063772202 21.1660003662
vertex 3.34012246132 4.20927095413 21.1660003662
vertex 6.59827566147 4.10052633286 21.1660003662
endloop
endfacet
facet normal 0.0 0.0 -1.0
outer loop
vertex 3.34012246132 4.20927095413 21.1660003662
vertex 3.34165263176 4.25924777985 21.1660003662
vertex 6.59827566147 4.10052633286 21.1660003662
endloop
endfacet
facet normal 0.0 0.0 -1.0
outer loop
vertex 3.34012246132 4.20927095413 21.1660003662
vertex 0.0816979855299 4.25005578995 21.1660003662
vertex 3.34165263176 4.25924777985 21.1660003662
endloop
endfacet
facet normal 0.0 0.0 -1.0
outer loop
vertex 0.0816979855299 4.25005578995 21.1660003662
vertex 0.0814191997051 4.30005502701 21.1660003662
vertex 3.34165263176 4.25924777985 21.1660003662
endloop
endfacet
facet normal 0.0 0.0 1.0
outer loop
vertex 6.59827566147 4.10052633286 21.2259998322
vertex 6.59493875504 4.05063772202 21.2259998322
vertex 9.84188556671 3.7743639946 21.2259998322
endloop
endfacet
facet normal 0.0 0.0 1.0
outer loop
vertex 6.59827566147 4.10052633286 21.2259998322
vertex 9.84188556671 3.7743639946 21.2259998322
vertex 9.84702587128 3.82409930229 21.2259998322
endloop
endfacet
facet normal 0.0 0.0 1.0
outer loop
vertex 3.34165263176 4.25924777985 21.2259998322
vertex 3.34012246132 4.20927095413 21.2259998322
vertex 6.59493875504 4.05063772202 21.2259998322
endloop
endfacet
facet normal 0.0 0.0 1.0
outer loop
vertex 3.34165263176 4.25924777985 21.2259998322
vertex 6.59493875504 4.05063772202 21.2259998322
vertex 6.59827566147 4.10052633286 21.2259998322
endloop
endfacet
facet normal 0.0 0.0 1.0
outer loop
vertex 0.0814191997051 4.30005502701 21.2259998322
vertex 0.0816979855299 4.25005578995 21.2259998322
vertex 3.34012246132 4.20927095413 21.2259998322
endloop
endfacet
facet normal 0.0 0.0 1.0
outer loop
vertex 0.0814191997051 4.30005502701 21.2259998322
vertex 3.34012246132 4.20927095413 21.2259998322
vertex 3.34165263176 4.25924777985 21.2259998322
endloop
endfacet
