solid 
facet normal 0.120770610869 -0.992680430412 0.0
outer loop
vertex 9.8470287323 -3.82409906387 -27.9990005493
vertex 9.8470287323 -3.82409906387 -28.0590000153
vertex 13.0836515427 -3.4303278923 -28.0590000153
endloop
endfacet
facet normal 0.156602323055 -0.987661719322 0.0
outer loop
vertex 13.0836515427 -3.4303278923 -27.9990005493
vertex 13.0836515427 -3.4303278923 -28.0590000153
vertex 16.3039112091 -2.91972780228 -28.0590019226
endloop
endfacet
facet normal 0.120770610869 -0.992680430412 0.0
outer loop
vertex 13.0836515427 -3.4303278923 -27.9990005493
vertex 9.8470287323 -3.82409906387 -27.9990005493
vertex 13.0836515427 -3.4303278923 -28.0590000153
endloop
endfacet
facet normal 0.192228928208 -0.981350123882 0.0
outer loop
vertex 16.3039112091 -2.91972780228 -27.9990005493
vertex 16.3039112091 -2.91972780228 -28.0590019226
vertex 19.5035934448 -2.29296731949 -28.0590019226
endloop
endfacet
facet normal 0.156602337956 -0.987661719322 0.0
outer loop
vertex 16.3039112091 -2.91972780228 -27.9990005493
vertex 13.0836515427 -3.4303278923 -27.9990005493
vertex 16.3039112091 -2.91972780228 -28.0590019226
endloop
endfacet
facet normal 0.192228928208 -0.981350123882 0.0
outer loop
vertex 19.5035934448 -2.29296731949 -27.9990005493
vertex 16.3039112091 -2.91972780228 -27.9990005493
vertex 19.5035934448 -2.29296731949 -28.0590019226
endloop
endfacet
facet normal 0.977709889412 0.209960564971 0.0
outer loop
vertex 19.4930953979 -2.24408173561 -27.9990005493
vertex 19.5035934448 -2.29296731949 -27.9990005493
vertex 19.5035934448 -2.29296731949 -28.0590019226
endloop
endfacet
facet normal 0.977709889412 0.209960564971 0.0
outer loop
vertex 19.4930953979 -2.24408173561 -27.9990005493
vertex 19.5035934448 -2.29296731949 -28.0590019226
vertex 19.4930953979 -2.24408173561 -28.0590019226
endloop
endfacet
facet normal -0.12077061832 0.992680490017 0.0
outer loop
vertex 9.84188842773 -3.7743639946 -28.0590000153
vertex 9.84188842773 -3.7743639946 -27.9990005493
vertex 13.076716423 -3.38081121445 -28.0590000153
endloop
endfacet
facet normal -0.156602367759 0.987661719322 0.0
outer loop
vertex 13.076716423 -3.38081121445 -28.0590000153
vertex 13.076716423 -3.38081121445 -27.9990005493
vertex 16.2951889038 -2.87049436569 -28.0590019226
endloop
endfacet
facet normal -0.12077061832 0.992680490017 0.0
outer loop
vertex 9.84188842773 -3.7743639946 -27.9990005493
vertex 13.076716423 -3.38081121445 -27.9990005493
vertex 13.076716423 -3.38081121445 -28.0590000153
endloop
endfacet
facet normal -0.156602367759 0.987661778927 0.0
outer loop
vertex 13.076716423 -3.38081121445 -27.9990005493
vertex 16.2951889038 -2.87049436569 -27.9990005493
vertex 16.2951889038 -2.87049436569 -28.0590019226
endloop
endfacet
facet normal -0.192228928208 0.981350123882 0.0
outer loop
vertex 16.2951889038 -2.87049436569 -28.0590019226
vertex 19.4930953979 -2.24408173561 -27.9990005493
vertex 19.4930953979 -2.24408173561 -28.0590019226
endloop
endfacet
facet normal -0.192228928208 0.981350123882 0.0
outer loop
vertex 16.2951889038 -2.87049436569 -27.9990005493
vertex 19.4930953979 -2.24408173561 -27.9990005493
vertex 16.2951889038 -2.87049436569 -28.0590019226
endloop
endfacet
facet normal -0.994701325893 -0.102806083858 -0.0
outer loop
vertex 9.84188842773 -3.7743639946 -27.9990005493
vertex 9.84188842773 -3.7743639946 -28.0590000153
vertex 9.8470287323 -3.82409906387 -28.0590000153
endloop
endfacet
facet normal -0.994701325893 -0.102806083858 -0.0
outer loop
vertex 9.8470287323 -3.82409906387 -27.9990005493
vertex 9.84188842773 -3.7743639946 -27.9990005493
vertex 9.8470287323 -3.82409906387 -28.0590000153
endloop
endfacet
facet normal -0.0 0.0 1.0
outer loop
vertex 16.2951889038 -2.87049436569 -27.9990005493
vertex 16.3039112091 -2.91972780228 -27.9990005493
vertex 19.4930953979 -2.24408173561 -27.9990005493
endloop
endfacet
facet normal 0.0 0.0 1.0
outer loop
vertex 19.4930953979 -2.24408173561 -27.9990005493
vertex 16.3039112091 -2.91972780228 -27.9990005493
vertex 19.5035934448 -2.29296731949 -27.9990005493
endloop
endfacet
facet normal -0.0 0.0 1.0
outer loop
vertex 13.076716423 -3.38081121445 -27.9990005493
vertex 13.0836515427 -3.4303278923 -27.9990005493
vertex 16.2951889038 -2.87049436569 -27.9990005493
endloop
endfacet
facet normal 0.0 0.0 1.0
outer loop
vertex 16.2951889038 -2.87049436569 -27.9990005493
vertex 13.0836515427 -3.4303278923 -27.9990005493
vertex 16.3039112091 -2.91972780228 -27.9990005493
endloop
endfacet
facet normal -0.0 0.0 1.0
outer loop
vertex 9.84188842773 -3.7743639946 -27.9990005493
vertex 9.8470287323 -3.82409906387 -27.9990005493
vertex 13.076716423 -3.38081121445 -27.9990005493
endloop
endfacet
facet normal 0.0 0.0 1.0
outer loop
vertex 13.076716423 -3.38081121445 -27.9990005493
vertex 9.8470287323 -3.82409906387 -27.9990005493
vertex 13.0836515427 -3.4303278923 -27.9990005493
endloop
endfacet
facet normal 0.0 0.0 -1.0
outer loop
vertex 16.3039112091 -2.91972780228 -28.0590019226
vertex 16.2951889038 -2.87049436569 -28.0590019226
vertex 19.4930953979 -2.24408173561 -28.0590019226
endloop
endfacet
facet normal 0.0 0.0 -1.0
outer loop
vertex 16.3039112091 -2.91972780228 -28.0590019226
vertex 19.4930953979 -2.24408173561 -28.0590019226
vertex 19.5035934448 -2.29296731949 -28.0590019226
endloop
endfacet
facet normal -5.79750860652e-07 -8.11977187709e-08 -1.0
outer loop
vertex 13.0836515427 -3.4303278923 -28.0590000153
vertex 13.076716423 -3.38081121445 -28.0590000153
vertex 16.2951889038 -2.87049436569 -28.0590019226
endloop
endfacet
facet normal -5.76113109219e-07 -1.02065477847e-07 -1.0
outer loop
vertex 13.0836515427 -3.4303278923 -28.0590000153
vertex 16.2951889038 -2.87049436569 -28.0590019226
vertex 16.3039112091 -2.91972780228 -28.0590019226
endloop
endfacet
facet normal 0.0 0.0 -1.0
outer loop
vertex 9.8470287323 -3.82409906387 -28.0590000153
vertex 9.84188842773 -3.7743639946 -28.0590000153
vertex 13.076716423 -3.38081121445 -28.0590000153
endloop
endfacet
facet normal 0.0 0.0 -1.0
outer loop
vertex 9.8470287323 -3.82409906387 -28.0590000153
vertex 13.076716423 -3.38081121445 -28.0590000153
vertex 13.0836515427 -3.4303278923 -28.0590000153
endloop
endfacet
