solid 
facet normal 0.0 0.0 1.0
outer loop
vertex 1.00055456161 4.36138391495 117.438064575
vertex 0.333339452744 4.31631660461 117.438064575
vertex 1.0 4.31138706207 117.438064575
endloop
endfacet
facet normal 0.0 0.0 1.0
outer loop
vertex 1.00055456161 4.36138391495 117.438064575
vertex 0.333524286747 4.36631584167 117.438064575
vertex 0.333339452744 4.31631660461 117.438064575
endloop
endfacet
facet normal 0.0 0.0 1.0
outer loop
vertex 0.333339452744 4.31631660461 117.438064575
vertex -0.333524227142 4.36631584167 117.438064575
vertex -0.333339363337 4.31631660461 117.438064575
endloop
endfacet
facet normal 0.0 0.0 1.0
outer loop
vertex 0.333524286747 4.36631584167 117.438064575
vertex -0.333524227142 4.36631584167 117.438064575
vertex 0.333339452744 4.31631660461 117.438064575
endloop
endfacet
facet normal 0.0 0.0 1.0
outer loop
vertex -0.333339363337 4.31631660461 117.438064575
vertex -1.00055456161 4.36138391495 117.438064575
vertex -0.999999940395 4.31138706207 117.438064575
endloop
endfacet
facet normal 0.0 0.0 1.0
outer loop
vertex -0.333524227142 4.36631584167 117.438064575
vertex -1.00055456161 4.36138391495 117.438064575
vertex -0.333339363337 4.31631660461 117.438064575
endloop
endfacet
facet normal -0.999938488007 -0.0110924402252 -0.0
outer loop
vertex -0.999999940395 4.31138706207 117.438064575
vertex -1.00055456161 4.36138391495 117.438064575
vertex -0.999999940395 4.31138706207 9.10806751251
endloop
endfacet
facet normal -0.999938488007 -0.0110924402252 0.0
outer loop
vertex -0.999999940395 4.31138706207 9.10806751251
vertex -1.00055456161 4.36138391495 117.438064575
vertex -1.00055456161 4.36138391495 9.10806751251
endloop
endfacet
facet normal -0.00739417970181 -0.999972641468 -0.0
outer loop
vertex 1.0 4.31138706207 117.438064575
vertex 0.333339452744 4.31631660461 117.438064575
vertex 1.0 4.31138706207 9.10806751251
endloop
endfacet
facet normal -0.00739417970181 -0.999972641468 0.0
outer loop
vertex 1.0 4.31138706207 9.10806751251
vertex 0.333339452744 4.31631660461 117.438064575
vertex 0.333339452744 4.31631660461 9.10806751251
endloop
endfacet
facet normal 0.0 -1.0 0.0
outer loop
vertex 0.333339452744 4.31631660461 9.10806751251
vertex -0.333339363337 4.31631660461 117.438064575
vertex -0.333339363337 4.31631660461 9.10806751251
endloop
endfacet
facet normal -0.0 -1.0 -0.0
outer loop
vertex 0.333339452744 4.31631660461 117.438064575
vertex -0.333339363337 4.31631660461 117.438064575
vertex 0.333339452744 4.31631660461 9.10806751251
endloop
endfacet
facet normal 0.00739417970181 -0.999972641468 0.0
outer loop
vertex -0.333339363337 4.31631660461 9.10806751251
vertex -0.999999940395 4.31138706207 117.438064575
vertex -0.999999940395 4.31138706207 9.10806751251
endloop
endfacet
facet normal 0.00739417970181 -0.999972641468 0.0
outer loop
vertex -0.333339363337 4.31631660461 117.438064575
vertex -0.999999940395 4.31138706207 117.438064575
vertex -0.333339363337 4.31631660461 9.10806751251
endloop
endfacet
facet normal 0.999938547611 -0.0110912490636 0.0
outer loop
vertex 1.00055456161 4.36138391495 117.438064575
vertex 1.0 4.31138706207 117.438064575
vertex 1.00055456161 4.36138391495 9.10806751251
endloop
endfacet
facet normal 0.999938547611 -0.0110912490636 0.0
outer loop
vertex 1.00055456161 4.36138391495 9.10806751251
vertex 1.0 4.31138706207 117.438064575
vertex 1.0 4.31138706207 9.10806751251
endloop
endfacet
facet normal 0.0073936553672 0.999972641468 0.0
outer loop
vertex 0.333524286747 4.36631584167 117.438064575
vertex 1.00055456161 4.36138391495 117.438064575
vertex 1.00055456161 4.36138391495 9.10806751251
endloop
endfacet
facet normal 0.0073936553672 0.999972641468 0.0
outer loop
vertex 0.333524286747 4.36631584167 117.438064575
vertex 1.00055456161 4.36138391495 9.10806751251
vertex 0.333524286747 4.36631584167 9.10806751251
endloop
endfacet
facet normal 0.0 1.0 0.0
outer loop
vertex -0.333524227142 4.36631584167 117.438064575
vertex 0.333524286747 4.36631584167 9.10806751251
vertex -0.333524227142 4.36631584167 9.10806751251
endloop
endfacet
facet normal -0.0 1.0 0.0
outer loop
vertex -0.333524227142 4.36631584167 117.438064575
vertex 0.333524286747 4.36631584167 117.438064575
vertex 0.333524286747 4.36631584167 9.10806751251
endloop
endfacet
facet normal -0.00739365443587 0.999972641468 0.0
outer loop
vertex -1.00055456161 4.36138391495 117.438064575
vertex -0.333524227142 4.36631584167 9.10806751251
vertex -1.00055456161 4.36138391495 9.10806751251
endloop
endfacet
facet normal -0.00739365443587 0.999972641468 0.0
outer loop
vertex -1.00055456161 4.36138391495 117.438064575
vertex -0.333524227142 4.36631584167 117.438064575
vertex -0.333524227142 4.36631584167 9.10806751251
endloop
endfacet
facet normal 0.0 0.0 -1.0
outer loop
vertex -1.00055456161 4.36138391495 9.10806751251
vertex -0.333339363337 4.31631660461 9.10806751251
vertex -0.999999940395 4.31138706207 9.10806751251
endloop
endfacet
facet normal 0.0 0.0 -1.0
outer loop
vertex -1.00055456161 4.36138391495 9.10806751251
vertex -0.333524227142 4.36631584167 9.10806751251
vertex -0.333339363337 4.31631660461 9.10806751251
endloop
endfacet
facet normal 0.0 0.0 -1.0
outer loop
vertex -0.333524227142 4.36631584167 9.10806751251
vertex 0.333339452744 4.31631660461 9.10806751251
vertex -0.333339363337 4.31631660461 9.10806751251
endloop
endfacet
facet normal 0.0 0.0 -1.0
outer loop
vertex -0.333524227142 4.36631584167 9.10806751251
vertex 0.333524286747 4.36631584167 9.10806751251
vertex 0.333339452744 4.31631660461 9.10806751251
endloop
endfacet
facet normal 0.0 0.0 -1.0
outer loop
vertex 0.333339452744 4.31631660461 9.10806751251
vertex 1.00055456161 4.36138391495 9.10806751251
vertex 1.0 4.31138706207 9.10806751251
endloop
endfacet
facet normal 0.0 -0.0 -1.0
outer loop
vertex 0.333524286747 4.36631584167 9.10806751251
vertex 1.00055456161 4.36138391495 9.10806751251
vertex 0.333339452744 4.31631660461 9.10806751251
endloop
endfacet
