solid 
facet normal -0.0 0.0 -1.0
outer loop
vertex -0.333339422941 -4.31631612778 136.561935425
vertex -1.00055456161 -4.36138391495 136.561935425
vertex -1.0 -4.31138706207 136.561935425
endloop
endfacet
facet normal 0.0 0.0 -1.0
outer loop
vertex -0.333524256945 -4.36631584167 136.561935425
vertex -1.00055456161 -4.36138391495 136.561935425
vertex -0.333339422941 -4.31631612778 136.561935425
endloop
endfacet
facet normal 0.0 0.0 -1.0
outer loop
vertex 0.333524256945 -4.36631584167 136.561935425
vertex -0.333339422941 -4.31631612778 136.561935425
vertex 0.333339422941 -4.31631612778 136.561935425
endloop
endfacet
facet normal 0.0 0.0 -1.0
outer loop
vertex 0.333524256945 -4.36631584167 136.561935425
vertex -0.333524256945 -4.36631584167 136.561935425
vertex -0.333339422941 -4.31631612778 136.561935425
endloop
endfacet
facet normal 0.0 0.0 -1.0
outer loop
vertex 1.00055456161 -4.36138391495 136.561935425
vertex 0.333339422941 -4.31631612778 136.561935425
vertex 1.0 -4.31138706207 136.561935425
endloop
endfacet
facet normal -0.0 0.0 -1.0
outer loop
vertex 1.00055456161 -4.36138391495 136.561935425
vertex 0.333524256945 -4.36631584167 136.561935425
vertex 0.333339422941 -4.31631612778 136.561935425
endloop
endfacet
facet normal 0.999938488007 0.011091247201 0.0
outer loop
vertex 1.00055456161 -4.36138391495 136.561935425
vertex 1.0 -4.31138706207 136.561935425
vertex 1.0 -4.31138706207 244.891937256
endloop
endfacet
facet normal 0.999938488007 0.011091247201 -0.0
outer loop
vertex 1.00055456161 -4.36138391495 136.561935425
vertex 1.0 -4.31138706207 244.891937256
vertex 1.00055456161 -4.36138391495 244.891937256
endloop
endfacet
facet normal 0.00739346444607 0.999972641468 -0.0
outer loop
vertex -1.0 -4.31138706207 136.561935425
vertex -1.0 -4.31138706207 244.891937256
vertex -0.333339422941 -4.31631612778 136.561935425
endloop
endfacet
facet normal 0.0 1.0 0.0
outer loop
vertex -0.333339422941 -4.31631612778 136.561935425
vertex -0.333339422941 -4.31631612778 244.891937256
vertex 0.333339422941 -4.31631612778 136.561935425
endloop
endfacet
facet normal 0.00739346444607 0.999972641468 0.0
outer loop
vertex -1.0 -4.31138706207 244.891937256
vertex -0.333339422941 -4.31631612778 244.891937256
vertex -0.333339422941 -4.31631612778 136.561935425
endloop
endfacet
facet normal -0.00739346444607 0.999972641468 0.0
outer loop
vertex 0.333339422941 -4.31631612778 136.561935425
vertex 0.333339422941 -4.31631612778 244.891937256
vertex 1.0 -4.31138706207 136.561935425
endloop
endfacet
facet normal -0.0 1.0 0.0
outer loop
vertex -0.333339422941 -4.31631612778 244.891937256
vertex 0.333339422941 -4.31631612778 244.891937256
vertex 0.333339422941 -4.31631612778 136.561935425
endloop
endfacet
facet normal -0.00739346444607 0.999972641468 0.0
outer loop
vertex 0.333339422941 -4.31631612778 244.891937256
vertex 1.0 -4.31138706207 244.891937256
vertex 1.0 -4.31138706207 136.561935425
endloop
endfacet
facet normal -0.999938488007 0.011091247201 0.0
outer loop
vertex -1.0 -4.31138706207 136.561935425
vertex -1.00055456161 -4.36138391495 136.561935425
vertex -1.00055456161 -4.36138391495 244.891937256
endloop
endfacet
facet normal -0.999938488007 0.011091247201 0.0
outer loop
vertex -1.0 -4.31138706207 136.561935425
vertex -1.00055456161 -4.36138391495 244.891937256
vertex -1.0 -4.31138706207 244.891937256
endloop
endfacet
facet normal -0.00739365443587 -0.999972641468 -0.0
outer loop
vertex -1.00055456161 -4.36138391495 244.891937256
vertex -1.00055456161 -4.36138391495 136.561935425
vertex -0.333524256945 -4.36631584167 136.561935425
endloop
endfacet
facet normal 0.0 -1.0 0.0
outer loop
vertex -0.333524256945 -4.36631584167 244.891937256
vertex -0.333524256945 -4.36631584167 136.561935425
vertex 0.333524256945 -4.36631584167 136.561935425
endloop
endfacet
facet normal -0.00739365443587 -0.999972641468 -0.0
outer loop
vertex -0.333524256945 -4.36631584167 244.891937256
vertex -1.00055456161 -4.36138391495 244.891937256
vertex -0.333524256945 -4.36631584167 136.561935425
endloop
endfacet
facet normal -0.0 -1.0 -0.0
outer loop
vertex 0.333524256945 -4.36631584167 244.891937256
vertex -0.333524256945 -4.36631584167 244.891937256
vertex 0.333524256945 -4.36631584167 136.561935425
endloop
endfacet
facet normal 0.00739365443587 -0.999972641468 0.0
outer loop
vertex 1.00055456161 -4.36138391495 244.891937256
vertex 0.333524256945 -4.36631584167 136.561935425
vertex 1.00055456161 -4.36138391495 136.561935425
endloop
endfacet
facet normal 0.00739365443587 -0.999972641468 0.0
outer loop
vertex 1.00055456161 -4.36138391495 244.891937256
vertex 0.333524256945 -4.36631584167 244.891937256
vertex 0.333524256945 -4.36631584167 136.561935425
endloop
endfacet
facet normal -0.0 0.0 1.0
outer loop
vertex 0.333339422941 -4.31631612778 244.891937256
vertex 1.00055456161 -4.36138391495 244.891937256
vertex 1.0 -4.31138706207 244.891937256
endloop
endfacet
facet normal 0.0 -0.0 1.0
outer loop
vertex 0.333524256945 -4.36631584167 244.891937256
vertex 1.00055456161 -4.36138391495 244.891937256
vertex 0.333339422941 -4.31631612778 244.891937256
endloop
endfacet
facet normal -0.0 0.0 1.0
outer loop
vertex -0.333339422941 -4.31631612778 244.891937256
vertex 0.333524256945 -4.36631584167 244.891937256
vertex 0.333339422941 -4.31631612778 244.891937256
endloop
endfacet
facet normal 0.0 0.0 1.0
outer loop
vertex -0.333524256945 -4.36631584167 244.891937256
vertex 0.333524256945 -4.36631584167 244.891937256
vertex -0.333339422941 -4.31631612778 244.891937256
endloop
endfacet
facet normal 0.0 0.0 1.0
outer loop
vertex -1.00055456161 -4.36138391495 244.891937256
vertex -0.333339422941 -4.31631612778 244.891937256
vertex -1.0 -4.31138706207 244.891937256
endloop
endfacet
facet normal -0.0 0.0 1.0
outer loop
vertex -1.00055456161 -4.36138391495 244.891937256
vertex -0.333524256945 -4.36631584167 244.891937256
vertex -0.333339422941 -4.31631612778 244.891937256
endloop
endfacet
