solid 
facet normal 0.00497377896681 0.999987661839 -6.54606507888e-11
outer loop
vertex -0.189771741629 4.30059480667 111.481002808
vertex -0.081439755857 4.30005598068 111.481002808
vertex -0.0814398005605 4.30005598068 107.88999939
endloop
endfacet
facet normal 0.0049781803973 0.999987602234 1.32722988155e-07
outer loop
vertex -0.189771741629 4.30059480667 111.481002808
vertex -0.0814398005605 4.30005598068 107.88999939
vertex -0.189771786332 4.30059528351 107.88999939
endloop
endfacet
facet normal 0.00377214886248 0.999992847443 1.32723044999e-07
outer loop
vertex -0.298104286194 4.30100345612 111.481002808
vertex -0.189771786332 4.30059528351 107.88999939
vertex -0.298104345798 4.30100393295 107.88999939
endloop
endfacet
facet normal 0.00377214956097 0.999992847443 1.32735507918e-07
outer loop
vertex -0.298104286194 4.30100345612 111.481002808
vertex -0.189771741629 4.30059480667 111.481002808
vertex -0.189771786332 4.30059528351 107.88999939
endloop
endfacet
facet normal 0.00256611779332 0.999996721745 -2.12966293905e-11
outer loop
vertex -0.406437277794 4.30128192902 111.481002808
vertex -0.298104345798 4.30100393295 107.88999939
vertex -0.406437307596 4.30128192902 107.88999939
endloop
endfacet
facet normal 0.00257051875815 0.999996721745 1.32744816028e-07
outer loop
vertex -0.406437277794 4.30128192902 111.481002808
vertex -0.298104286194 4.30100345612 111.481002808
vertex -0.298104345798 4.30100393295 107.88999939
endloop
endfacet
facet normal -0.999998033047 0.00196874863468 8.29970048244e-09
outer loop
vertex -0.406437277794 4.30128192902 111.481002808
vertex -0.406535744667 4.25128221512 107.88999939
vertex -0.406535714865 4.25128221512 111.481002808
endloop
endfacet
facet normal -0.999998033047 0.00196874863468 8.29914625911e-09
outer loop
vertex -0.406437307596 4.30128192902 107.88999939
vertex -0.406535744667 4.25128221512 107.88999939
vertex -0.406437277794 4.30128192902 111.481002808
endloop
endfacet
facet normal -0.00497653987259 -0.999987661839 6.19516729583e-11
outer loop
vertex -0.0817185640335 4.25005674362 107.88999939
vertex -0.08171851933 4.25005674362 111.481002808
vertex -0.189990445971 4.25059556961 107.88999939
endloop
endfacet
facet normal -0.00497653987259 -0.999987661839 5.61402764554e-11
outer loop
vertex -0.08171851933 4.25005674362 111.481002808
vertex -0.189990401268 4.25059556961 111.481002808
vertex -0.189990445971 4.25059556961 107.88999939
endloop
endfacet
facet normal -0.0037698391825 -0.999992966652 5.61402799248e-11
outer loop
vertex -0.189990445971 4.25059556961 107.88999939
vertex -0.298262834549 4.25100374222 111.481002808
vertex -0.298262894154 4.25100374222 107.88999939
endloop
endfacet
facet normal -0.00376983964816 -0.999992847443 4.69297690986e-11
outer loop
vertex -0.189990401268 4.25059556961 111.481002808
vertex -0.298262834549 4.25100374222 111.481002808
vertex -0.189990445971 4.25059556961 107.88999939
endloop
endfacet
facet normal -0.00257194647565 -0.999996721745 2.3391783302e-11
outer loop
vertex -0.298262894154 4.25100374222 107.88999939
vertex -0.406535714865 4.25128221512 111.481002808
vertex -0.406535744667 4.25128221512 107.88999939
endloop
endfacet
facet normal -0.00257194577716 -0.999996721745 4.2689993901e-11
outer loop
vertex -0.298262834549 4.25100374222 111.481002808
vertex -0.406535714865 4.25128221512 111.481002808
vertex -0.298262894154 4.25100374222 107.88999939
endloop
endfacet
facet normal 0.999984502792 -0.00557526806369 -1.24457022466e-08
outer loop
vertex -0.08171851933 4.25005674362 111.481002808
vertex -0.0814398005605 4.30005598068 107.88999939
vertex -0.081439755857 4.30005598068 111.481002808
endloop
endfacet
facet normal 0.999984502792 -0.00557526806369 -1.24485515229e-08
outer loop
vertex -0.0817185640335 4.25005674362 107.88999939
vertex -0.0814398005605 4.30005598068 107.88999939
vertex -0.08171851933 4.25005674362 111.481002808
endloop
endfacet
facet normal 0.0 0.0 -1.0
outer loop
vertex -0.298262894154 4.25100374222 107.88999939
vertex -0.406535744667 4.25128221512 107.88999939
vertex -0.406437307596 4.30128192902 107.88999939
endloop
endfacet
facet normal -0.0 0.0 -1.0
outer loop
vertex -0.298104345798 4.30100393295 107.88999939
vertex -0.298262894154 4.25100374222 107.88999939
vertex -0.406437307596 4.30128192902 107.88999939
endloop
endfacet
facet normal 0.0 0.0 -1.0
outer loop
vertex -0.189990445971 4.25059556961 107.88999939
vertex -0.298262894154 4.25100374222 107.88999939
vertex -0.298104345798 4.30100393295 107.88999939
endloop
endfacet
facet normal -0.0 0.0 -1.0
outer loop
vertex -0.189771786332 4.30059528351 107.88999939
vertex -0.189990445971 4.25059556961 107.88999939
vertex -0.298104345798 4.30100393295 107.88999939
endloop
endfacet
facet normal 0.0 0.0 -1.0
outer loop
vertex -0.0817185640335 4.25005674362 107.88999939
vertex -0.189990445971 4.25059556961 107.88999939
vertex -0.189771786332 4.30059528351 107.88999939
endloop
endfacet
facet normal -0.0 0.0 -1.0
outer loop
vertex -0.0814398005605 4.30005598068 107.88999939
vertex -0.0817185640335 4.25005674362 107.88999939
vertex -0.189771786332 4.30059528351 107.88999939
endloop
endfacet
facet normal -0.0 0.0 1.0
outer loop
vertex -0.406535714865 4.25128221512 111.481002808
vertex -0.298262834549 4.25100374222 111.481002808
vertex -0.406437277794 4.30128192902 111.481002808
endloop
endfacet
facet normal 0.0 -0.0 1.0
outer loop
vertex -0.298262834549 4.25100374222 111.481002808
vertex -0.298104286194 4.30100345612 111.481002808
vertex -0.406437277794 4.30128192902 111.481002808
endloop
endfacet
facet normal -0.0 0.0 1.0
outer loop
vertex -0.298262834549 4.25100374222 111.481002808
vertex -0.189990401268 4.25059556961 111.481002808
vertex -0.298104286194 4.30100345612 111.481002808
endloop
endfacet
facet normal 0.0 -0.0 1.0
outer loop
vertex -0.189990401268 4.25059556961 111.481002808
vertex -0.189771741629 4.30059480667 111.481002808
vertex -0.298104286194 4.30100345612 111.481002808
endloop
endfacet
facet normal -0.0 0.0 1.0
outer loop
vertex -0.189990401268 4.25059556961 111.481002808
vertex -0.08171851933 4.25005674362 111.481002808
vertex -0.189771741629 4.30059480667 111.481002808
endloop
endfacet
facet normal 0.0 -0.0 1.0
outer loop
vertex -0.08171851933 4.25005674362 111.481002808
vertex -0.081439755857 4.30005598068 111.481002808
vertex -0.189771741629 4.30059480667 111.481002808
endloop
endfacet
