solid 
facet normal 0.00497377850115 -0.999987602234 -1.32785103801e-07
outer loop
vertex -0.0814129933715 -4.30005455017 -9.98399925232
vertex -0.0814129933715 -4.30005502701 -6.39299964905
vertex -0.189744979143 -4.300593853 -6.39299964905
endloop
endfacet
facet normal 0.00377214932814 -0.999992847443 0.0
outer loop
vertex -0.189744979143 -4.300593853 -9.98399925232
vertex -0.189744979143 -4.300593853 -6.39299964905
vertex -0.298077523708 -4.30100250244 -6.39299964905
endloop
endfacet
facet normal 0.0049781803973 -0.999987602234 0.0
outer loop
vertex -0.189744979143 -4.300593853 -9.98399925232
vertex -0.0814129933715 -4.30005455017 -9.98399925232
vertex -0.189744979143 -4.300593853 -6.39299964905
endloop
endfacet
facet normal 0.00257051875815 -0.999996721745 0.0
outer loop
vertex -0.298077523708 -4.30100250244 -9.98399925232
vertex -0.298077523708 -4.30100250244 -6.39299964905
vertex -0.406410515308 -4.30128097534 -6.39299964905
endloop
endfacet
facet normal 0.00377214932814 -0.999992847443 0.0
outer loop
vertex -0.298077523708 -4.30100250244 -9.98399925232
vertex -0.189744979143 -4.300593853 -9.98399925232
vertex -0.298077523708 -4.30100250244 -6.39299964905
endloop
endfacet
facet normal 0.00257051875815 -0.999996721745 0.0
outer loop
vertex -0.406410515308 -4.30128097534 -9.98399925232
vertex -0.298077523708 -4.30100250244 -9.98399925232
vertex -0.406410515308 -4.30128097534 -6.39299964905
endloop
endfacet
facet normal -0.999998092651 -0.00196873000823 0.0
outer loop
vertex -0.406410515308 -4.30128097534 -9.98399925232
vertex -0.406508952379 -4.25128078461 -6.39299964905
vertex -0.406508952379 -4.25128078461 -9.98399925232
endloop
endfacet
facet normal -0.999998092651 -0.00196873000823 -0.0
outer loop
vertex -0.406410515308 -4.30128097534 -6.39299964905
vertex -0.406508952379 -4.25128078461 -6.39299964905
vertex -0.406410515308 -4.30128097534 -9.98399925232
endloop
endfacet
facet normal -0.00497213611379 0.999987661839 0.0
outer loop
vertex -0.0816917791963 -4.25005578995 -6.39299964905
vertex -0.189963653684 -4.2505941391 -9.98399925232
vertex -0.189963653684 -4.2505941391 -6.39299964905
endloop
endfacet
facet normal -0.00497654033825 0.999987661839 1.32785103801e-07
outer loop
vertex -0.0816917791963 -4.25005531311 -9.98399925232
vertex -0.189963653684 -4.2505941391 -9.98399925232
vertex -0.0816917791963 -4.25005578995 -6.39299964905
endloop
endfacet
facet normal -0.00377424294129 0.999992847443 0.0
outer loop
vertex -0.189963653684 -4.2505941391 -6.39299964905
vertex -0.298236101866 -4.25100278854 -9.98399925232
vertex -0.298236101866 -4.25100278854 -6.39299964905
endloop
endfacet
facet normal -0.00256754248403 0.999996721745 0.0
outer loop
vertex -0.298236101866 -4.25100278854 -6.39299964905
vertex -0.298236101866 -4.25100278854 -9.98399925232
vertex -0.406508952379 -4.25128078461 -6.39299964905
endloop
endfacet
facet normal -0.00377424294129 0.999992847443 0.0
outer loop
vertex -0.189963653684 -4.2505941391 -9.98399925232
vertex -0.298236101866 -4.25100278854 -9.98399925232
vertex -0.189963653684 -4.2505941391 -6.39299964905
endloop
endfacet
facet normal -0.00256754248403 0.999996721745 0.0
outer loop
vertex -0.298236101866 -4.25100278854 -9.98399925232
vertex -0.406508952379 -4.25128078461 -9.98399925232
vertex -0.406508952379 -4.25128078461 -6.39299964905
endloop
endfacet
facet normal 0.999984502792 0.00557571509853 7.4038108977e-10
outer loop
vertex -0.0816917791963 -4.25005531311 -9.98399925232
vertex -0.0816917791963 -4.25005578995 -6.39299964905
vertex -0.0814129933715 -4.30005455017 -9.98399925232
endloop
endfacet
facet normal 0.999984502792 0.00557571509853 7.39550032325e-10
outer loop
vertex -0.0816917791963 -4.25005578995 -6.39299964905
vertex -0.0814129933715 -4.30005502701 -6.39299964905
vertex -0.0814129933715 -4.30005455017 -9.98399925232
endloop
endfacet
facet normal 0.0 0.0 1.0
outer loop
vertex -0.298236101866 -4.25100278854 -6.39299964905
vertex -0.406508952379 -4.25128078461 -6.39299964905
vertex -0.406410515308 -4.30128097534 -6.39299964905
endloop
endfacet
facet normal 0.0 0.0 1.0
outer loop
vertex -0.298077523708 -4.30100250244 -6.39299964905
vertex -0.298236101866 -4.25100278854 -6.39299964905
vertex -0.406410515308 -4.30128097534 -6.39299964905
endloop
endfacet
facet normal 0.0 0.0 1.0
outer loop
vertex -0.189744979143 -4.300593853 -6.39299964905
vertex -0.189963653684 -4.2505941391 -6.39299964905
vertex -0.298236101866 -4.25100278854 -6.39299964905
endloop
endfacet
facet normal 0.0 0.0 1.0
outer loop
vertex -0.189744979143 -4.300593853 -6.39299964905
vertex -0.298236101866 -4.25100278854 -6.39299964905
vertex -0.298077523708 -4.30100250244 -6.39299964905
endloop
endfacet
facet normal 0.0 0.0 1.0
outer loop
vertex -0.0814129933715 -4.30005502701 -6.39299964905
vertex -0.0816917791963 -4.25005578995 -6.39299964905
vertex -0.189963653684 -4.2505941391 -6.39299964905
endloop
endfacet
facet normal 0.0 0.0 1.0
outer loop
vertex -0.0814129933715 -4.30005502701 -6.39299964905
vertex -0.189963653684 -4.2505941391 -6.39299964905
vertex -0.189744979143 -4.300593853 -6.39299964905
endloop
endfacet
facet normal 0.0 0.0 -1.0
outer loop
vertex -0.406508952379 -4.25128078461 -9.98399925232
vertex -0.298236101866 -4.25100278854 -9.98399925232
vertex -0.406410515308 -4.30128097534 -9.98399925232
endloop
endfacet
facet normal 0.0 -0.0 -1.0
outer loop
vertex -0.298236101866 -4.25100278854 -9.98399925232
vertex -0.298077523708 -4.30100250244 -9.98399925232
vertex -0.406410515308 -4.30128097534 -9.98399925232
endloop
endfacet
facet normal 0.0 -0.0 -1.0
outer loop
vertex -0.189963653684 -4.2505941391 -9.98399925232
vertex -0.189744979143 -4.300593853 -9.98399925232
vertex -0.298236101866 -4.25100278854 -9.98399925232
endloop
endfacet
facet normal 0.0 0.0 -1.0
outer loop
vertex -0.298236101866 -4.25100278854 -9.98399925232
vertex -0.189744979143 -4.300593853 -9.98399925232
vertex -0.298077523708 -4.30100250244 -9.98399925232
endloop
endfacet
facet normal 0.0 -0.0 -1.0
outer loop
vertex -0.0816917791963 -4.25005531311 -9.98399925232
vertex -0.0814129933715 -4.30005455017 -9.98399925232
vertex -0.189963653684 -4.2505941391 -9.98399925232
endloop
endfacet
facet normal 0.0 0.0 -1.0
outer loop
vertex -0.189963653684 -4.2505941391 -9.98399925232
vertex -0.0814129933715 -4.30005455017 -9.98399925232
vertex -0.189744979143 -4.300593853 -9.98399925232
endloop
endfacet
