solid 
facet normal -0.00497377943248 0.999987661839 1.32726441393e-07
outer loop
vertex 0.189771533012 4.30059480667 -131.276992798
vertex 0.0814395546913 4.30005598068 -131.276992798
vertex 0.0814395099878 4.30005550385 -127.685997009
endloop
endfacet
facet normal -0.00497817993164 0.999987602234 -4.13148126821e-11
outer loop
vertex 0.189771533012 4.30059480667 -131.276992798
vertex 0.0814395099878 4.30005550385 -127.685997009
vertex 0.18977150321 4.30059480667 -127.685997009
endloop
endfacet
facet normal -0.00377214909531 0.999992847443 -6.26114923796e-11
outer loop
vertex 0.29810410738 4.30100345612 -131.276992798
vertex 0.18977150321 4.30059480667 -127.685997009
vertex 0.298104047775 4.30100345612 -127.685997009
endloop
endfacet
facet normal -0.00377214839682 0.999992847443 -2.80546193915e-11
outer loop
vertex 0.29810410738 4.30100345612 -131.276992798
vertex 0.189771533012 4.30059480667 -131.276992798
vertex 0.18977150321 4.30059480667 -127.685997009
endloop
endfacet
facet normal -0.00256611779332 0.999996721745 1.3274384969e-07
outer loop
vertex 0.406437069178 4.30128192902 -131.276992798
vertex 0.298104047775 4.30100345612 -127.685997009
vertex 0.406437009573 4.30128145218 -127.685997009
endloop
endfacet
facet normal -0.00257051945664 0.999996721745 -4.20819386282e-11
outer loop
vertex 0.406437069178 4.30128192902 -131.276992798
vertex 0.29810410738 4.30100345612 -131.276992798
vertex 0.298104047775 4.30100345612 -127.685997009
endloop
endfacet
facet normal 0.999998033047 0.00196873024106 1.68601452799e-08
outer loop
vertex 0.406535506248 4.25128173828 -131.276992798
vertex 0.406437069178 4.30128192902 -131.276992798
vertex 0.406437009573 4.30128145218 -127.685997009
endloop
endfacet
facet normal 0.999998033047 0.00196934491396 8.29916402267e-09
outer loop
vertex 0.406535506248 4.25128173828 -131.276992798
vertex 0.406437009573 4.30128145218 -127.685997009
vertex 0.406535476446 4.25128173828 -127.685997009
endloop
endfacet
facet normal 0.00497654033825 -0.999987661839 -1.32723300794e-07
outer loop
vertex 0.0817182734609 4.25005626678 -127.685997009
vertex 0.0817183181643 4.25005674362 -131.276992798
vertex 0.189990147948 4.25059509277 -127.685997009
endloop
endfacet
facet normal 0.00497213611379 -0.999987661839 5.61404013555e-11
outer loop
vertex 0.0817183181643 4.25005674362 -131.276992798
vertex 0.189990192652 4.25059509277 -131.276992798
vertex 0.189990147948 4.25059509277 -127.685997009
endloop
endfacet
facet normal 0.00376983894967 -0.999992847443 -1.32725247681e-07
outer loop
vertex 0.189990147948 4.25059509277 -127.685997009
vertex 0.298262655735 4.25100374222 -131.276992798
vertex 0.29826259613 4.25100326538 -127.685997009
endloop
endfacet
facet normal 0.00377424247563 -0.999992847443 4.69846800355e-11
outer loop
vertex 0.189990192652 4.25059509277 -131.276992798
vertex 0.298262655735 4.25100374222 -131.276992798
vertex 0.189990147948 4.25059509277 -127.685997009
endloop
endfacet
facet normal 0.00257194600999 -0.999996721745 2.33918284048e-11
outer loop
vertex 0.29826259613 4.25100326538 -127.685997009
vertex 0.406535506248 4.25128173828 -131.276992798
vertex 0.406535476446 4.25128173828 -127.685997009
endloop
endfacet
facet normal 0.00256754248403 -0.999996721745 -1.32743835479e-07
outer loop
vertex 0.298262655735 4.25100374222 -131.276992798
vertex 0.406535506248 4.25128173828 -131.276992798
vertex 0.29826259613 4.25100326538 -127.685997009
endloop
endfacet
facet normal -0.999984502792 -0.00557526806369 -1.31888997501e-08
outer loop
vertex 0.0817183181643 4.25005674362 -131.276992798
vertex 0.0817182734609 4.25005626678 -127.685997009
vertex 0.0814395099878 4.30005550385 -127.685997009
endloop
endfacet
facet normal -0.999984502792 -0.00557526806369 -1.31888997501e-08
outer loop
vertex 0.0814395546913 4.30005598068 -131.276992798
vertex 0.0817183181643 4.25005674362 -131.276992798
vertex 0.0814395099878 4.30005550385 -127.685997009
endloop
endfacet
facet normal -0.0 0.0 -1.0
outer loop
vertex 0.406535506248 4.25128173828 -131.276992798
vertex 0.298262655735 4.25100374222 -131.276992798
vertex 0.406437069178 4.30128192902 -131.276992798
endloop
endfacet
facet normal 0.0 0.0 -1.0
outer loop
vertex 0.298262655735 4.25100374222 -131.276992798
vertex 0.29810410738 4.30100345612 -131.276992798
vertex 0.406437069178 4.30128192902 -131.276992798
endloop
endfacet
facet normal 0.0 0.0 -1.0
outer loop
vertex 0.189990192652 4.25059509277 -131.276992798
vertex 0.189771533012 4.30059480667 -131.276992798
vertex 0.298262655735 4.25100374222 -131.276992798
endloop
endfacet
facet normal 0.0 0.0 -1.0
outer loop
vertex 0.298262655735 4.25100374222 -131.276992798
vertex 0.189771533012 4.30059480667 -131.276992798
vertex 0.29810410738 4.30100345612 -131.276992798
endloop
endfacet
facet normal 0.0 0.0 -1.0
outer loop
vertex 0.0817183181643 4.25005674362 -131.276992798
vertex 0.0814395546913 4.30005598068 -131.276992798
vertex 0.189990192652 4.25059509277 -131.276992798
endloop
endfacet
facet normal 0.0 0.0 -1.0
outer loop
vertex 0.189990192652 4.25059509277 -131.276992798
vertex 0.0814395546913 4.30005598068 -131.276992798
vertex 0.189771533012 4.30059480667 -131.276992798
endloop
endfacet
facet normal 0.0 0.0 1.0
outer loop
vertex 0.29826259613 4.25100326538 -127.685997009
vertex 0.406535476446 4.25128173828 -127.685997009
vertex 0.406437009573 4.30128145218 -127.685997009
endloop
endfacet
facet normal -0.0 0.0 1.0
outer loop
vertex 0.298104047775 4.30100345612 -127.685997009
vertex 0.29826259613 4.25100326538 -127.685997009
vertex 0.406437009573 4.30128145218 -127.685997009
endloop
endfacet
facet normal 0.0 0.0 1.0
outer loop
vertex 0.18977150321 4.30059480667 -127.685997009
vertex 0.189990147948 4.25059509277 -127.685997009
vertex 0.29826259613 4.25100326538 -127.685997009
endloop
endfacet
facet normal -0.0 0.0 1.0
outer loop
vertex 0.18977150321 4.30059480667 -127.685997009
vertex 0.29826259613 4.25100326538 -127.685997009
vertex 0.298104047775 4.30100345612 -127.685997009
endloop
endfacet
facet normal 0.0 0.0 1.0
outer loop
vertex 0.0814395099878 4.30005550385 -127.685997009
vertex 0.0817182734609 4.25005626678 -127.685997009
vertex 0.189990147948 4.25059509277 -127.685997009
endloop
endfacet
facet normal -0.0 0.0 1.0
outer loop
vertex 0.0814395099878 4.30005550385 -127.685997009
vertex 0.189990147948 4.25059509277 -127.685997009
vertex 0.18977150321 4.30059480667 -127.685997009
endloop
endfacet
