solid 
facet normal -0.00497377850115 0.999987661839 0.0
outer loop
vertex 0.189745023847 4.300593853 10.392999649
vertex 0.0814130306244 4.30005502701 10.392999649
vertex 0.0814130306244 4.30005502701 13.9839992523
endloop
endfacet
facet normal -0.00497377850115 0.999987661839 0.0
outer loop
vertex 0.189745023847 4.300593853 10.392999649
vertex 0.0814130306244 4.30005502701 13.9839992523
vertex 0.189745023847 4.300593853 13.9839992523
endloop
endfacet
facet normal -0.00377214886248 0.999992847443 0.0
outer loop
vertex 0.298077583313 4.30100250244 10.392999649
vertex 0.189745023847 4.300593853 13.9839992523
vertex 0.298077583313 4.30100250244 13.9839992523
endloop
endfacet
facet normal -0.00377214886248 0.999992847443 0.0
outer loop
vertex 0.298077583313 4.30100250244 10.392999649
vertex 0.189745023847 4.300593853 10.392999649
vertex 0.189745023847 4.300593853 13.9839992523
endloop
endfacet
facet normal -0.00257051945664 0.999996721745 0.0
outer loop
vertex 0.406410545111 4.30128097534 10.392999649
vertex 0.298077583313 4.30100250244 13.9839992523
vertex 0.406410545111 4.30128097534 13.9839992523
endloop
endfacet
facet normal -0.00257051945664 0.999996721745 0.0
outer loop
vertex 0.406410545111 4.30128097534 10.392999649
vertex 0.298077583313 4.30100250244 10.392999649
vertex 0.298077583313 4.30100250244 13.9839992523
endloop
endfacet
facet normal 0.999998092651 0.00196934514679 0.0
outer loop
vertex 0.406509011984 4.25128126144 10.392999649
vertex 0.406410545111 4.30128097534 10.392999649
vertex 0.406410545111 4.30128097534 13.9839992523
endloop
endfacet
facet normal 0.999998092651 0.00196934514679 -0.0
outer loop
vertex 0.406509011984 4.25128126144 10.392999649
vertex 0.406410545111 4.30128097534 13.9839992523
vertex 0.406509011984 4.25128126144 13.9839992523
endloop
endfacet
facet normal 0.00497213564813 -0.999987602234 -1.03161515788e-11
outer loop
vertex 0.0816918164492 4.25005578995 13.9839992523
vertex 0.0816918089986 4.25005578995 10.392999649
vertex 0.189963698387 4.2505941391 13.9839992523
endloop
endfacet
facet normal 0.00497213564813 -0.999987661839 0.0
outer loop
vertex 0.0816918089986 4.25005578995 10.392999649
vertex 0.189963698387 4.2505941391 10.392999649
vertex 0.189963698387 4.2505941391 13.9839992523
endloop
endfacet
facet normal 0.00377424363978 -0.999992847443 0.0
outer loop
vertex 0.189963698387 4.2505941391 13.9839992523
vertex 0.298236131668 4.25100278854 10.392999649
vertex 0.298236131668 4.25100278854 13.9839992523
endloop
endfacet
facet normal 0.00377424363978 -0.999992847443 0.0
outer loop
vertex 0.189963698387 4.2505941391 10.392999649
vertex 0.298236131668 4.25100278854 10.392999649
vertex 0.189963698387 4.2505941391 13.9839992523
endloop
endfacet
facet normal 0.00257194600999 -0.999996721745 0.0
outer loop
vertex 0.298236131668 4.25100278854 13.9839992523
vertex 0.406509011984 4.25128126144 10.392999649
vertex 0.406509011984 4.25128126144 13.9839992523
endloop
endfacet
facet normal 0.00257194600999 -0.999996721745 0.0
outer loop
vertex 0.298236131668 4.25100278854 10.392999649
vertex 0.406509011984 4.25128126144 10.392999649
vertex 0.298236131668 4.25100278854 13.9839992523
endloop
endfacet
facet normal -0.999984502792 -0.00557571556419 2.0747608076e-09
outer loop
vertex 0.0816918089986 4.25005578995 10.392999649
vertex 0.0816918164492 4.25005578995 13.9839992523
vertex 0.0814130306244 4.30005502701 13.9839992523
endloop
endfacet
facet normal -0.999984502792 -0.00557556655258 0.0
outer loop
vertex 0.0814130306244 4.30005502701 10.392999649
vertex 0.0816918089986 4.25005578995 10.392999649
vertex 0.0814130306244 4.30005502701 13.9839992523
endloop
endfacet
facet normal -0.0 0.0 -1.0
outer loop
vertex 0.406509011984 4.25128126144 10.392999649
vertex 0.298236131668 4.25100278854 10.392999649
vertex 0.406410545111 4.30128097534 10.392999649
endloop
endfacet
facet normal 0.0 0.0 -1.0
outer loop
vertex 0.298236131668 4.25100278854 10.392999649
vertex 0.298077583313 4.30100250244 10.392999649
vertex 0.406410545111 4.30128097534 10.392999649
endloop
endfacet
facet normal 0.0 0.0 -1.0
outer loop
vertex 0.189963698387 4.2505941391 10.392999649
vertex 0.189745023847 4.300593853 10.392999649
vertex 0.298236131668 4.25100278854 10.392999649
endloop
endfacet
facet normal 0.0 0.0 -1.0
outer loop
vertex 0.298236131668 4.25100278854 10.392999649
vertex 0.189745023847 4.300593853 10.392999649
vertex 0.298077583313 4.30100250244 10.392999649
endloop
endfacet
facet normal 0.0 0.0 -1.0
outer loop
vertex 0.0816918089986 4.25005578995 10.392999649
vertex 0.0814130306244 4.30005502701 10.392999649
vertex 0.189963698387 4.2505941391 10.392999649
endloop
endfacet
facet normal 0.0 0.0 -1.0
outer loop
vertex 0.189963698387 4.2505941391 10.392999649
vertex 0.0814130306244 4.30005502701 10.392999649
vertex 0.189745023847 4.300593853 10.392999649
endloop
endfacet
facet normal 0.0 0.0 1.0
outer loop
vertex 0.298236131668 4.25100278854 13.9839992523
vertex 0.406509011984 4.25128126144 13.9839992523
vertex 0.406410545111 4.30128097534 13.9839992523
endloop
endfacet
facet normal -0.0 0.0 1.0
outer loop
vertex 0.298077583313 4.30100250244 13.9839992523
vertex 0.298236131668 4.25100278854 13.9839992523
vertex 0.406410545111 4.30128097534 13.9839992523
endloop
endfacet
facet normal 0.0 0.0 1.0
outer loop
vertex 0.189745023847 4.300593853 13.9839992523
vertex 0.189963698387 4.2505941391 13.9839992523
vertex 0.298236131668 4.25100278854 13.9839992523
endloop
endfacet
facet normal -0.0 0.0 1.0
outer loop
vertex 0.189745023847 4.300593853 13.9839992523
vertex 0.298236131668 4.25100278854 13.9839992523
vertex 0.298077583313 4.30100250244 13.9839992523
endloop
endfacet
facet normal 0.0 0.0 1.0
outer loop
vertex 0.0814130306244 4.30005502701 13.9839992523
vertex 0.0816918164492 4.25005578995 13.9839992523
vertex 0.189963698387 4.2505941391 13.9839992523
endloop
endfacet
facet normal -0.0 0.0 1.0
outer loop
vertex 0.0814130306244 4.30005502701 13.9839992523
vertex 0.189963698387 4.2505941391 13.9839992523
vertex 0.189745023847 4.300593853 13.9839992523
endloop
endfacet
