solid 
facet normal 0.00497377896681 -0.999987661839 -1.32723613433e-07
outer loop
vertex -0.0814395099878 -4.30005550385 131.686004639
vertex -0.0814395546913 -4.30005598068 135.276992798
vertex -0.189771533012 -4.30059480667 135.276992798
endloop
endfacet
facet normal 0.00377214839682 -0.999992847443 3.13058086399e-11
outer loop
vertex -0.18977150321 -4.30059480667 131.686004639
vertex -0.189771533012 -4.30059480667 135.276992798
vertex -0.29810410738 -4.30100345612 135.276992798
endloop
endfacet
facet normal 0.00497817993164 -0.999987602234 4.13149028877e-11
outer loop
vertex -0.18977150321 -4.30059480667 131.686004639
vertex -0.0814395099878 -4.30005550385 131.686004639
vertex -0.189771533012 -4.30059480667 135.276992798
endloop
endfacet
facet normal 0.00257051968947 -0.999996721745 4.26665022757e-11
outer loop
vertex -0.298104047775 -4.30100345612 131.686004639
vertex -0.29810410738 -4.30100345612 135.276992798
vertex -0.406437069178 -4.30128192902 135.276992798
endloop
endfacet
facet normal 0.00377214909531 -0.999992847443 6.26116311575e-11
outer loop
vertex -0.298104047775 -4.30100345612 131.686004639
vertex -0.18977150321 -4.30059480667 131.686004639
vertex -0.29810410738 -4.30100345612 135.276992798
endloop
endfacet
facet normal 0.00256611802615 -0.999996721745 -1.32744133907e-07
outer loop
vertex -0.406437009573 -4.30128145218 131.686004639
vertex -0.298104047775 -4.30100345612 131.686004639
vertex -0.406437069178 -4.30128192902 135.276992798
endloop
endfacet
facet normal -0.999998033047 -0.00196934491396 -8.29973600958e-09
outer loop
vertex -0.406437009573 -4.30128145218 131.686004639
vertex -0.406535506248 -4.25128173828 135.276992798
vertex -0.406535476446 -4.25128173828 131.686004639
endloop
endfacet
facet normal -0.999998033047 -0.00196873000823 -1.68597846795e-08
outer loop
vertex -0.406437069178 -4.30128192902 135.276992798
vertex -0.406535506248 -4.25128173828 135.276992798
vertex -0.406437009573 -4.30128145218 131.686004639
endloop
endfacet
facet normal -0.00497213611379 0.999987602234 -5.61405158472e-11
outer loop
vertex -0.0817183181643 -4.25005674362 135.276992798
vertex -0.189990147948 -4.25059509277 131.686004639
vertex -0.189990192652 -4.25059509277 135.276992798
endloop
endfacet
facet normal -0.00497653987259 0.999987602234 1.327235708e-07
outer loop
vertex -0.0817182734609 -4.25005626678 131.686004639
vertex -0.189990147948 -4.25059509277 131.686004639
vertex -0.0817183181643 -4.25005674362 135.276992798
endloop
endfacet
facet normal -0.00377424247563 0.999992847443 1.32725517688e-07
outer loop
vertex -0.189990192652 -4.25059509277 135.276992798
vertex -0.29826259613 -4.25100326538 131.686004639
vertex -0.298262655735 -4.25100374222 135.276992798
endloop
endfacet
facet normal -0.00256754248403 0.999996721745 1.32744119696e-07
outer loop
vertex -0.298262655735 -4.25100374222 135.276992798
vertex -0.29826259613 -4.25100326538 131.686004639
vertex -0.406535506248 -4.25128173828 135.276992798
endloop
endfacet
facet normal -0.00376983871683 0.999992847443 -4.69299599182e-11
outer loop
vertex -0.189990147948 -4.25059509277 131.686004639
vertex -0.29826259613 -4.25100326538 131.686004639
vertex -0.189990192652 -4.25059509277 135.276992798
endloop
endfacet
facet normal -0.00257194600999 0.999996721745 -2.33918769771e-11
outer loop
vertex -0.29826259613 -4.25100326538 131.686004639
vertex -0.406535476446 -4.25128173828 131.686004639
vertex -0.406535506248 -4.25128173828 135.276992798
endloop
endfacet
facet normal 0.999984383583 0.00557526759803 1.31889272836e-08
outer loop
vertex -0.0817182734609 -4.25005626678 131.686004639
vertex -0.0817183181643 -4.25005674362 135.276992798
vertex -0.0814395099878 -4.30005550385 131.686004639
endloop
endfacet
facet normal 0.999984383583 0.00557526759803 1.31903714617e-08
outer loop
vertex -0.0817183181643 -4.25005674362 135.276992798
vertex -0.0814395546913 -4.30005598068 135.276992798
vertex -0.0814395099878 -4.30005550385 131.686004639
endloop
endfacet
facet normal 0.0 0.0 1.0
outer loop
vertex -0.298262655735 -4.25100374222 135.276992798
vertex -0.406535506248 -4.25128173828 135.276992798
vertex -0.406437069178 -4.30128192902 135.276992798
endloop
endfacet
facet normal 0.0 0.0 1.0
outer loop
vertex -0.29810410738 -4.30100345612 135.276992798
vertex -0.298262655735 -4.25100374222 135.276992798
vertex -0.406437069178 -4.30128192902 135.276992798
endloop
endfacet
facet normal 0.0 0.0 1.0
outer loop
vertex -0.189771533012 -4.30059480667 135.276992798
vertex -0.189990192652 -4.25059509277 135.276992798
vertex -0.298262655735 -4.25100374222 135.276992798
endloop
endfacet
facet normal 0.0 0.0 1.0
outer loop
vertex -0.189771533012 -4.30059480667 135.276992798
vertex -0.298262655735 -4.25100374222 135.276992798
vertex -0.29810410738 -4.30100345612 135.276992798
endloop
endfacet
facet normal 0.0 0.0 1.0
outer loop
vertex -0.0814395546913 -4.30005598068 135.276992798
vertex -0.0817183181643 -4.25005674362 135.276992798
vertex -0.189990192652 -4.25059509277 135.276992798
endloop
endfacet
facet normal 0.0 0.0 1.0
outer loop
vertex -0.0814395546913 -4.30005598068 135.276992798
vertex -0.189990192652 -4.25059509277 135.276992798
vertex -0.189771533012 -4.30059480667 135.276992798
endloop
endfacet
facet normal 0.0 0.0 -1.0
outer loop
vertex -0.406535476446 -4.25128173828 131.686004639
vertex -0.29826259613 -4.25100326538 131.686004639
vertex -0.406437009573 -4.30128145218 131.686004639
endloop
endfacet
facet normal 0.0 -0.0 -1.0
outer loop
vertex -0.29826259613 -4.25100326538 131.686004639
vertex -0.298104047775 -4.30100345612 131.686004639
vertex -0.406437009573 -4.30128145218 131.686004639
endloop
endfacet
facet normal 0.0 -0.0 -1.0
outer loop
vertex -0.189990147948 -4.25059509277 131.686004639
vertex -0.18977150321 -4.30059480667 131.686004639
vertex -0.29826259613 -4.25100326538 131.686004639
endloop
endfacet
facet normal 0.0 0.0 -1.0
outer loop
vertex -0.29826259613 -4.25100326538 131.686004639
vertex -0.18977150321 -4.30059480667 131.686004639
vertex -0.298104047775 -4.30100345612 131.686004639
endloop
endfacet
facet normal 0.0 -0.0 -1.0
outer loop
vertex -0.0817182734609 -4.25005626678 131.686004639
vertex -0.0814395099878 -4.30005550385 131.686004639
vertex -0.189990147948 -4.25059509277 131.686004639
endloop
endfacet
facet normal 0.0 0.0 -1.0
outer loop
vertex -0.189990147948 -4.25059509277 131.686004639
vertex -0.0814395099878 -4.30005550385 131.686004639
vertex -0.18977150321 -4.30059480667 131.686004639
endloop
endfacet
