solid 
facet normal 0.207008823752 0.978339016438 6.49551594734e-08
outer loop
vertex 19.1857204437 2.36062717438 -192.684005737
vertex 19.1857204437 2.36062693596 -189.093002319
vertex 19.2917079926 2.33820080757 -189.093002319
endloop
endfacet
facet normal 0.207010924816 0.978338599205 -0.0
outer loop
vertex 19.2917079926 2.33820080757 -192.684005737
vertex 19.1857204437 2.36062717438 -192.684005737
vertex 19.2917079926 2.33820080757 -189.093002319
endloop
endfacet
facet normal 0.208189144731 0.978088617325 -0.0
outer loop
vertex 19.3976669312 2.31564712524 -192.684005737
vertex 19.2917079926 2.33820080757 -189.093002319
vertex 19.3976669312 2.31564712524 -189.093002319
endloop
endfacet
facet normal 0.208189144731 0.978088617325 0.0
outer loop
vertex 19.3976669312 2.31564712524 -192.684005737
vertex 19.2917079926 2.33820080757 -192.684005737
vertex 19.2917079926 2.33820080757 -189.093002319
endloop
endfacet
facet normal 0.209363460541 0.977837920189 -0.0
outer loop
vertex 19.5035991669 2.2929661274 -192.684005737
vertex 19.3976669312 2.31564712524 -189.093002319
vertex 19.5035991669 2.2929661274 -189.093002319
endloop
endfacet
facet normal 0.209363460541 0.977837920189 0.0
outer loop
vertex 19.5035991669 2.2929661274 -192.684005737
vertex 19.3976669312 2.31564712524 -192.684005737
vertex 19.3976669312 2.31564712524 -189.093002319
endloop
endfacet
facet normal 0.977709889412 -0.20996055007 0.0
outer loop
vertex 19.5035991669 2.2929661274 -192.684005737
vertex 19.5035991669 2.2929661274 -189.093002319
vertex 19.49310112 2.24408054352 -189.093002319
endloop
endfacet
facet normal 0.977709889412 -0.20996055007 0.0
outer loop
vertex 19.49310112 2.24408054352 -192.684005737
vertex 19.5035991669 2.2929661274 -192.684005737
vertex 19.49310112 2.24408054352 -189.093002319
endloop
endfacet
facet normal -0.20700982213 -0.978338897228 -6.52721041661e-08
outer loop
vertex 19.1753997803 2.31170368195 -189.093002319
vertex 19.2813282013 2.28929018974 -192.684005737
vertex 19.2813282013 2.28928995132 -189.093002319
endloop
endfacet
facet normal -0.208188667893 -0.978088617325 -6.49385398788e-08
outer loop
vertex 19.2813282013 2.28928995132 -189.093002319
vertex 19.2813282013 2.28929018974 -192.684005737
vertex 19.3872280121 2.26674890518 -189.093002319
endloop
endfacet
facet normal -0.20700982213 -0.978338897228 -6.49551523679e-08
outer loop
vertex 19.1753997803 2.31170392036 -192.684005737
vertex 19.2813282013 2.28929018974 -192.684005737
vertex 19.1753997803 2.31170368195 -189.093002319
endloop
endfacet
facet normal -0.208190798759 -0.978088259697 0.0
outer loop
vertex 19.2813282013 2.28929018974 -192.684005737
vertex 19.3872280121 2.26674890518 -192.684005737
vertex 19.3872280121 2.26674890518 -189.093002319
endloop
endfacet
facet normal -0.209363669157 -0.977837860584 0.0
outer loop
vertex 19.3872280121 2.26674890518 -189.093002319
vertex 19.49310112 2.24408054352 -192.684005737
vertex 19.49310112 2.24408054352 -189.093002319
endloop
endfacet
facet normal -0.209363669157 -0.977837860584 0.0
outer loop
vertex 19.3872280121 2.26674890518 -192.684005737
vertex 19.49310112 2.24408054352 -192.684005737
vertex 19.3872280121 2.26674890518 -189.093002319
endloop
endfacet
facet normal -0.978464901447 0.206413239241 1.36158115893e-08
outer loop
vertex 19.1857204437 2.36062717438 -192.684005737
vertex 19.1753997803 2.31170392036 -192.684005737
vertex 19.1753997803 2.31170368195 -189.093002319
endloop
endfacet
facet normal -0.978464901447 0.206413239241 1.37044562365e-08
outer loop
vertex 19.1857204437 2.36062717438 -192.684005737
vertex 19.1753997803 2.31170368195 -189.093002319
vertex 19.1857204437 2.36062693596 -189.093002319
endloop
endfacet
facet normal 0.0 0.0 -1.0
outer loop
vertex 19.49310112 2.24408054352 -192.684005737
vertex 19.3872280121 2.26674890518 -192.684005737
vertex 19.5035991669 2.2929661274 -192.684005737
endloop
endfacet
facet normal 0.0 0.0 -1.0
outer loop
vertex 19.3872280121 2.26674890518 -192.684005737
vertex 19.3976669312 2.31564712524 -192.684005737
vertex 19.5035991669 2.2929661274 -192.684005737
endloop
endfacet
facet normal 0.0 0.0 -1.0
outer loop
vertex 19.2813282013 2.28929018974 -192.684005737
vertex 19.2917079926 2.33820080757 -192.684005737
vertex 19.3872280121 2.26674890518 -192.684005737
endloop
endfacet
facet normal 0.0 0.0 -1.0
outer loop
vertex 19.3872280121 2.26674890518 -192.684005737
vertex 19.2917079926 2.33820080757 -192.684005737
vertex 19.3976669312 2.31564712524 -192.684005737
endloop
endfacet
facet normal 0.0 0.0 -1.0
outer loop
vertex 19.1753997803 2.31170392036 -192.684005737
vertex 19.1857204437 2.36062717438 -192.684005737
vertex 19.2813282013 2.28929018974 -192.684005737
endloop
endfacet
facet normal 0.0 0.0 -1.0
outer loop
vertex 19.2813282013 2.28929018974 -192.684005737
vertex 19.1857204437 2.36062717438 -192.684005737
vertex 19.2917079926 2.33820080757 -192.684005737
endloop
endfacet
facet normal 0.0 0.0 1.0
outer loop
vertex 19.3976669312 2.31564712524 -189.093002319
vertex 19.3872280121 2.26674890518 -189.093002319
vertex 19.49310112 2.24408054352 -189.093002319
endloop
endfacet
facet normal 0.0 0.0 1.0
outer loop
vertex 19.3976669312 2.31564712524 -189.093002319
vertex 19.49310112 2.24408054352 -189.093002319
vertex 19.5035991669 2.2929661274 -189.093002319
endloop
endfacet
facet normal 0.0 0.0 1.0
outer loop
vertex 19.2917079926 2.33820080757 -189.093002319
vertex 19.2813282013 2.28928995132 -189.093002319
vertex 19.3872280121 2.26674890518 -189.093002319
endloop
endfacet
facet normal 0.0 0.0 1.0
outer loop
vertex 19.2917079926 2.33820080757 -189.093002319
vertex 19.3872280121 2.26674890518 -189.093002319
vertex 19.3976669312 2.31564712524 -189.093002319
endloop
endfacet
facet normal 0.0 0.0 1.0
outer loop
vertex 19.1857204437 2.36062693596 -189.093002319
vertex 19.1753997803 2.31170368195 -189.093002319
vertex 19.2813282013 2.28928995132 -189.093002319
endloop
endfacet
facet normal 0.0 0.0 1.0
outer loop
vertex 19.1857204437 2.36062693596 -189.093002319
vertex 19.2813282013 2.28928995132 -189.093002319
vertex 19.2917079926 2.33820080757 -189.093002319
endloop
endfacet
