solid 
facet normal -0.00497377943248 0.999987661839 0.0
outer loop
vertex 0.189744994044 4.300593853 17.5749988556
vertex 0.0814130157232 4.30005502701 17.5749988556
vertex 0.0814130157232 4.30005502701 21.1660003662
endloop
endfacet
facet normal -0.00497377943248 0.999987661839 0.0
outer loop
vertex 0.189744994044 4.300593853 17.5749988556
vertex 0.0814130157232 4.30005502701 21.1660003662
vertex 0.189744994044 4.300593853 21.1660003662
endloop
endfacet
facet normal -0.00377214886248 0.999992847443 0.0
outer loop
vertex 0.298077553511 4.30100250244 17.5749988556
vertex 0.189744994044 4.300593853 21.1660003662
vertex 0.298077553511 4.30100250244 21.1660003662
endloop
endfacet
facet normal -0.00377214886248 0.999992847443 0.0
outer loop
vertex 0.298077553511 4.30100250244 17.5749988556
vertex 0.189744994044 4.300593853 17.5749988556
vertex 0.189744994044 4.300593853 21.1660003662
endloop
endfacet
facet normal -0.00257051922381 0.999996721745 0.0
outer loop
vertex 0.406410515308 4.30128097534 17.5749988556
vertex 0.298077553511 4.30100250244 21.1660003662
vertex 0.406410515308 4.30128097534 21.1660003662
endloop
endfacet
facet normal -0.00257051922381 0.999996721745 0.0
outer loop
vertex 0.406410515308 4.30128097534 17.5749988556
vertex 0.298077553511 4.30100250244 17.5749988556
vertex 0.298077553511 4.30100250244 21.1660003662
endloop
endfacet
facet normal 0.999998092651 0.00196934491396 0.0
outer loop
vertex 0.406508982182 4.25128126144 17.5749988556
vertex 0.406410515308 4.30128097534 17.5749988556
vertex 0.406410515308 4.30128097534 21.1660003662
endloop
endfacet
facet normal 0.999998092651 0.00196934491396 -0.0
outer loop
vertex 0.406508982182 4.25128126144 17.5749988556
vertex 0.406410515308 4.30128097534 21.1660003662
vertex 0.406508982182 4.25128126144 21.1660003662
endloop
endfacet
facet normal 0.00497213611379 -0.999987661839 0.0
outer loop
vertex 0.0816917940974 4.25005578995 21.1660003662
vertex 0.0816917940974 4.25005578995 17.5749988556
vertex 0.189963668585 4.2505941391 21.1660003662
endloop
endfacet
facet normal 0.00497213611379 -0.999987661839 0.0
outer loop
vertex 0.0816917940974 4.25005578995 17.5749988556
vertex 0.189963668585 4.2505941391 17.5749988556
vertex 0.189963668585 4.2505941391 21.1660003662
endloop
endfacet
facet normal 0.00377424247563 -0.999992847443 0.0
outer loop
vertex 0.189963668585 4.2505941391 21.1660003662
vertex 0.298236131668 4.25100278854 17.5749988556
vertex 0.298236131668 4.25100278854 21.1660003662
endloop
endfacet
facet normal 0.00377424247563 -0.999992847443 0.0
outer loop
vertex 0.189963668585 4.2505941391 17.5749988556
vertex 0.298236131668 4.25100278854 17.5749988556
vertex 0.189963668585 4.2505941391 21.1660003662
endloop
endfacet
facet normal 0.00257194624282 -0.999996721745 0.0
outer loop
vertex 0.298236131668 4.25100278854 21.1660003662
vertex 0.406508982182 4.25128126144 17.5749988556
vertex 0.406508982182 4.25128126144 21.1660003662
endloop
endfacet
facet normal 0.00257194624282 -0.999996721745 0.0
outer loop
vertex 0.298236131668 4.25100278854 17.5749988556
vertex 0.406508982182 4.25128126144 17.5749988556
vertex 0.298236131668 4.25100278854 21.1660003662
endloop
endfacet
facet normal -0.999984502792 -0.00557556562126 0.0
outer loop
vertex 0.0816917940974 4.25005578995 17.5749988556
vertex 0.0816917940974 4.25005578995 21.1660003662
vertex 0.0814130157232 4.30005502701 21.1660003662
endloop
endfacet
facet normal -0.999984502792 -0.00557556562126 0.0
outer loop
vertex 0.0814130157232 4.30005502701 17.5749988556
vertex 0.0816917940974 4.25005578995 17.5749988556
vertex 0.0814130157232 4.30005502701 21.1660003662
endloop
endfacet
facet normal -0.0 0.0 -1.0
outer loop
vertex 0.406508982182 4.25128126144 17.5749988556
vertex 0.298236131668 4.25100278854 17.5749988556
vertex 0.406410515308 4.30128097534 17.5749988556
endloop
endfacet
facet normal 0.0 0.0 -1.0
outer loop
vertex 0.298236131668 4.25100278854 17.5749988556
vertex 0.298077553511 4.30100250244 17.5749988556
vertex 0.406410515308 4.30128097534 17.5749988556
endloop
endfacet
facet normal 0.0 0.0 -1.0
outer loop
vertex 0.189963668585 4.2505941391 17.5749988556
vertex 0.189744994044 4.300593853 17.5749988556
vertex 0.298236131668 4.25100278854 17.5749988556
endloop
endfacet
facet normal 0.0 0.0 -1.0
outer loop
vertex 0.298236131668 4.25100278854 17.5749988556
vertex 0.189744994044 4.300593853 17.5749988556
vertex 0.298077553511 4.30100250244 17.5749988556
endloop
endfacet
facet normal 0.0 0.0 -1.0
outer loop
vertex 0.0816917940974 4.25005578995 17.5749988556
vertex 0.0814130157232 4.30005502701 17.5749988556
vertex 0.189963668585 4.2505941391 17.5749988556
endloop
endfacet
facet normal 0.0 0.0 -1.0
outer loop
vertex 0.189963668585 4.2505941391 17.5749988556
vertex 0.0814130157232 4.30005502701 17.5749988556
vertex 0.189744994044 4.300593853 17.5749988556
endloop
endfacet
facet normal 0.0 0.0 1.0
outer loop
vertex 0.298236131668 4.25100278854 21.1660003662
vertex 0.406508982182 4.25128126144 21.1660003662
vertex 0.406410515308 4.30128097534 21.1660003662
endloop
endfacet
facet normal -0.0 0.0 1.0
outer loop
vertex 0.298077553511 4.30100250244 21.1660003662
vertex 0.298236131668 4.25100278854 21.1660003662
vertex 0.406410515308 4.30128097534 21.1660003662
endloop
endfacet
facet normal 0.0 0.0 1.0
outer loop
vertex 0.189744994044 4.300593853 21.1660003662
vertex 0.189963668585 4.2505941391 21.1660003662
vertex 0.298236131668 4.25100278854 21.1660003662
endloop
endfacet
facet normal -0.0 0.0 1.0
outer loop
vertex 0.189744994044 4.300593853 21.1660003662
vertex 0.298236131668 4.25100278854 21.1660003662
vertex 0.298077553511 4.30100250244 21.1660003662
endloop
endfacet
facet normal 0.0 0.0 1.0
outer loop
vertex 0.0814130157232 4.30005502701 21.1660003662
vertex 0.0816917940974 4.25005578995 21.1660003662
vertex 0.189963668585 4.2505941391 21.1660003662
endloop
endfacet
facet normal -0.0 0.0 1.0
outer loop
vertex 0.0814130157232 4.30005502701 21.1660003662
vertex 0.189963668585 4.2505941391 21.1660003662
vertex 0.189744994044 4.300593853 21.1660003662
endloop
endfacet
