solid 
facet normal -0.0173700433224 0.999849140644 0.0
outer loop
vertex -0.606410324574 4.30145263672 17.5749988556
vertex -0.606410324574 4.30145263672 17.5550003052
vertex -3.69146060944 4.24785709381 17.5550003052
endloop
endfacet
facet normal -0.0515893287957 0.998668372631 0.0
outer loop
vertex -3.69146060944 4.24785709381 17.5749988556
vertex -3.69146060944 4.24785709381 17.5550003052
vertex -6.7728676796 4.08867740631 17.5550003052
endloop
endfacet
facet normal -0.0173700433224 0.999849140644 0.0
outer loop
vertex -3.69146060944 4.24785709381 17.5749988556
vertex -0.606410324574 4.30145263672 17.5749988556
vertex -3.69146060944 4.24785709381 17.5550003052
endloop
endfacet
facet normal -0.0515893287957 0.998668372631 0.0
outer loop
vertex -6.7728676796 4.08867740631 17.5749988556
vertex -3.69146060944 4.24785709381 17.5749988556
vertex -6.7728676796 4.08867740631 17.5550003052
endloop
endfacet
facet normal -0.0857482627034 0.996316850185 0.0
outer loop
vertex -9.84701919556 3.82409977913 17.5749988556
vertex -6.7728676796 4.08867740631 17.5550003052
vertex -9.84701919556 3.82409977913 17.5550003052
endloop
endfacet
facet normal -0.0857482627034 0.996316850185 0.0
outer loop
vertex -9.84701919556 3.82409977913 17.5749988556
vertex -6.7728676796 4.08867740631 17.5749988556
vertex -6.7728676796 4.08867740631 17.5550003052
endloop
endfacet
facet normal -0.994703412056 -0.102787218988 0.0
outer loop
vertex -9.84701919556 3.82409977913 17.5749988556
vertex -9.84187984467 3.77436470985 17.5550003052
vertex -9.84187984467 3.77436470985 17.5749988556
endloop
endfacet
facet normal -0.994703412056 -0.102787218988 0.0
outer loop
vertex -9.84701919556 3.82409977913 17.5550003052
vertex -9.84187984467 3.77436470985 17.5550003052
vertex -9.84701919556 3.82409977913 17.5749988556
endloop
endfacet
facet normal 0.0173699446023 -0.999849081039 0.0
outer loop
vertex -0.606397807598 4.25145244598 17.5550003052
vertex -3.68973636627 4.19788694382 17.5749988556
vertex -3.68973636627 4.19788694382 17.5550003052
endloop
endfacet
facet normal 0.051589358598 -0.998668372631 0.0
outer loop
vertex -3.68973636627 4.19788694382 17.5550003052
vertex -3.68973636627 4.19788694382 17.5749988556
vertex -6.76943397522 4.03879547119 17.5550003052
endloop
endfacet
facet normal 0.0173699446023 -0.999849081039 0.0
outer loop
vertex -0.606397807598 4.25145244598 17.5749988556
vertex -3.68973636627 4.19788694382 17.5749988556
vertex -0.606397807598 4.25145244598 17.5550003052
endloop
endfacet
facet normal 0.0857482403517 -0.996316850185 0.0
outer loop
vertex -6.76943397522 4.03879547119 17.5550003052
vertex -6.76943397522 4.03879547119 17.5749988556
vertex -9.84187984467 3.77436470985 17.5550003052
endloop
endfacet
facet normal 0.051589358598 -0.998668372631 0.0
outer loop
vertex -3.68973636627 4.19788694382 17.5749988556
vertex -6.76943397522 4.03879547119 17.5749988556
vertex -6.76943397522 4.03879547119 17.5550003052
endloop
endfacet
facet normal 0.0857482403517 -0.996316850185 0.0
outer loop
vertex -6.76943397522 4.03879547119 17.5749988556
vertex -9.84187984467 3.77436470985 17.5749988556
vertex -9.84187984467 3.77436470985 17.5550003052
endloop
endfacet
facet normal 0.999999880791 0.000250338518526 0.0
outer loop
vertex -0.606397807598 4.25145244598 17.5749988556
vertex -0.606410324574 4.30145263672 17.5550003052
vertex -0.606410324574 4.30145263672 17.5749988556
endloop
endfacet
facet normal 0.999999880791 0.000250338518526 -0.0
outer loop
vertex -0.606397807598 4.25145244598 17.5550003052
vertex -0.606410324574 4.30145263672 17.5550003052
vertex -0.606397807598 4.25145244598 17.5749988556
endloop
endfacet
facet normal 0.0 0.0 -1.0
outer loop
vertex -6.76943397522 4.03879547119 17.5550003052
vertex -9.84187984467 3.77436470985 17.5550003052
vertex -9.84701919556 3.82409977913 17.5550003052
endloop
endfacet
facet normal 0.0 -0.0 -1.0
outer loop
vertex -6.7728676796 4.08867740631 17.5550003052
vertex -6.76943397522 4.03879547119 17.5550003052
vertex -9.84701919556 3.82409977913 17.5550003052
endloop
endfacet
facet normal 0.0 0.0 -1.0
outer loop
vertex -3.68973636627 4.19788694382 17.5550003052
vertex -6.76943397522 4.03879547119 17.5550003052
vertex -6.7728676796 4.08867740631 17.5550003052
endloop
endfacet
facet normal 0.0 -0.0 -1.0
outer loop
vertex -3.69146060944 4.24785709381 17.5550003052
vertex -3.68973636627 4.19788694382 17.5550003052
vertex -6.7728676796 4.08867740631 17.5550003052
endloop
endfacet
facet normal 0.0 -0.0 -1.0
outer loop
vertex -0.606410324574 4.30145263672 17.5550003052
vertex -0.606397807598 4.25145244598 17.5550003052
vertex -3.68973636627 4.19788694382 17.5550003052
endloop
endfacet
facet normal 0.0 0.0 -1.0
outer loop
vertex -0.606410324574 4.30145263672 17.5550003052
vertex -3.68973636627 4.19788694382 17.5550003052
vertex -3.69146060944 4.24785709381 17.5550003052
endloop
endfacet
facet normal 0.0 -0.0 1.0
outer loop
vertex -9.84187984467 3.77436470985 17.5749988556
vertex -6.76943397522 4.03879547119 17.5749988556
vertex -9.84701919556 3.82409977913 17.5749988556
endloop
endfacet
facet normal 0.0 0.0 1.0
outer loop
vertex -6.76943397522 4.03879547119 17.5749988556
vertex -6.7728676796 4.08867740631 17.5749988556
vertex -9.84701919556 3.82409977913 17.5749988556
endloop
endfacet
facet normal 0.0 -0.0 1.0
outer loop
vertex -6.76943397522 4.03879547119 17.5749988556
vertex -3.68973636627 4.19788694382 17.5749988556
vertex -6.7728676796 4.08867740631 17.5749988556
endloop
endfacet
facet normal 0.0 0.0 1.0
outer loop
vertex -3.68973636627 4.19788694382 17.5749988556
vertex -3.69146060944 4.24785709381 17.5749988556
vertex -6.7728676796 4.08867740631 17.5749988556
endloop
endfacet
facet normal 0.0 -0.0 1.0
outer loop
vertex -3.68973636627 4.19788694382 17.5749988556
vertex -0.606397807598 4.25145244598 17.5749988556
vertex -3.69146060944 4.24785709381 17.5749988556
endloop
endfacet
facet normal 0.0 0.0 1.0
outer loop
vertex -0.606397807598 4.25145244598 17.5749988556
vertex -0.606410324574 4.30145263672 17.5749988556
vertex -3.69146060944 4.24785709381 17.5749988556
endloop
endfacet
