solid 
facet normal -0.0173700433224 -0.999849140644 0.0
outer loop
vertex -3.69146084785 -4.24785661697 -6.33299970627
vertex -0.606410503387 -4.30145215988 -6.33299970627
vertex -0.606410503387 -4.30145215988 -6.31299972534
endloop
endfacet
facet normal -0.0173700433224 -0.999849140644 0.0
outer loop
vertex -3.69146084785 -4.24785661697 -6.33299970627
vertex -0.606410503387 -4.30145215988 -6.31299972534
vertex -3.69146084785 -4.24785661697 -6.31299972534
endloop
endfacet
facet normal -0.0515893213451 -0.998668372631 0.0
outer loop
vertex -6.77286815643 -4.08867692947 -6.33299970627
vertex -3.69146084785 -4.24785661697 -6.31299972534
vertex -6.77286815643 -4.08867692947 -6.31299972534
endloop
endfacet
facet normal -0.0515893213451 -0.998668372631 0.0
outer loop
vertex -6.77286815643 -4.08867692947 -6.33299970627
vertex -3.69146084785 -4.24785661697 -6.33299970627
vertex -3.69146084785 -4.24785661697 -6.31299972534
endloop
endfacet
facet normal -0.085748270154 -0.996316790581 0.0
outer loop
vertex -9.84701919556 -3.82409930229 -6.33299970627
vertex -6.77286815643 -4.08867692947 -6.31299972534
vertex -9.84701919556 -3.82409930229 -6.31299972534
endloop
endfacet
facet normal -0.085748270154 -0.996316790581 0.0
outer loop
vertex -9.84701919556 -3.82409930229 -6.33299970627
vertex -6.77286815643 -4.08867692947 -6.33299970627
vertex -6.77286815643 -4.08867692947 -6.31299972534
endloop
endfacet
facet normal -0.994703292847 0.102787218988 0.0
outer loop
vertex -9.84701919556 -3.82409930229 -6.33299970627
vertex -9.84187984467 -3.77436423302 -6.31299972534
vertex -9.84187984467 -3.77436423302 -6.33299970627
endloop
endfacet
facet normal -0.994703292847 0.102787218988 0.0
outer loop
vertex -9.84701919556 -3.82409930229 -6.31299972534
vertex -9.84187984467 -3.77436423302 -6.31299972534
vertex -9.84701919556 -3.82409930229 -6.33299970627
endloop
endfacet
facet normal 0.0173699446023 0.999849200249 0.0
outer loop
vertex -0.606397986412 -4.25145196915 -6.31299972534
vertex -3.68973660469 -4.19788646698 -6.33299970627
vertex -3.68973660469 -4.19788646698 -6.31299972534
endloop
endfacet
facet normal 0.0173699446023 0.999849200249 -0.0
outer loop
vertex -0.606397986412 -4.25145196915 -6.33299970627
vertex -3.68973660469 -4.19788646698 -6.33299970627
vertex -0.606397986412 -4.25145196915 -6.31299972534
endloop
endfacet
facet normal 0.0515893623233 0.998668372631 0.0
outer loop
vertex -3.68973660469 -4.19788646698 -6.31299972534
vertex -6.76943397522 -4.03879499435 -6.33299970627
vertex -6.76943397522 -4.03879499435 -6.31299972534
endloop
endfacet
facet normal 0.0857482403517 0.996316790581 0.0
outer loop
vertex -6.76943397522 -4.03879499435 -6.31299972534
vertex -6.76943397522 -4.03879499435 -6.33299970627
vertex -9.84187984467 -3.77436423302 -6.31299972534
endloop
endfacet
facet normal 0.0515893623233 0.998668372631 -0.0
outer loop
vertex -3.68973660469 -4.19788646698 -6.33299970627
vertex -6.76943397522 -4.03879499435 -6.33299970627
vertex -3.68973660469 -4.19788646698 -6.31299972534
endloop
endfacet
facet normal 0.0857482403517 0.996316790581 0.0
outer loop
vertex -6.76943397522 -4.03879499435 -6.33299970627
vertex -9.84187984467 -3.77436423302 -6.33299970627
vertex -9.84187984467 -3.77436423302 -6.31299972534
endloop
endfacet
facet normal 1.0 -0.00025033854763 0.0
outer loop
vertex -0.606397986412 -4.25145196915 -6.31299972534
vertex -0.606410503387 -4.30145215988 -6.33299970627
vertex -0.606397986412 -4.25145196915 -6.33299970627
endloop
endfacet
facet normal 1.0 -0.00025033854763 0.0
outer loop
vertex -0.606397986412 -4.25145196915 -6.31299972534
vertex -0.606410503387 -4.30145215988 -6.31299972534
vertex -0.606410503387 -4.30145215988 -6.33299970627
endloop
endfacet
facet normal 0.0 0.0 1.0
outer loop
vertex -6.76943397522 -4.03879499435 -6.31299972534
vertex -9.84187984467 -3.77436423302 -6.31299972534
vertex -9.84701919556 -3.82409930229 -6.31299972534
endloop
endfacet
facet normal 0.0 -0.0 1.0
outer loop
vertex -6.77286815643 -4.08867692947 -6.31299972534
vertex -6.76943397522 -4.03879499435 -6.31299972534
vertex -9.84701919556 -3.82409930229 -6.31299972534
endloop
endfacet
facet normal 0.0 0.0 1.0
outer loop
vertex -3.68973660469 -4.19788646698 -6.31299972534
vertex -6.76943397522 -4.03879499435 -6.31299972534
vertex -6.77286815643 -4.08867692947 -6.31299972534
endloop
endfacet
facet normal 0.0 -0.0 1.0
outer loop
vertex -3.69146084785 -4.24785661697 -6.31299972534
vertex -3.68973660469 -4.19788646698 -6.31299972534
vertex -6.77286815643 -4.08867692947 -6.31299972534
endloop
endfacet
facet normal 0.0 0.0 1.0
outer loop
vertex -0.606397986412 -4.25145196915 -6.31299972534
vertex -3.68973660469 -4.19788646698 -6.31299972534
vertex -3.69146084785 -4.24785661697 -6.31299972534
endloop
endfacet
facet normal 0.0 -0.0 1.0
outer loop
vertex -0.606410503387 -4.30145215988 -6.31299972534
vertex -0.606397986412 -4.25145196915 -6.31299972534
vertex -3.69146084785 -4.24785661697 -6.31299972534
endloop
endfacet
facet normal -0.0 0.0 -1.0
outer loop
vertex -6.76943397522 -4.03879499435 -6.33299970627
vertex -6.77286815643 -4.08867692947 -6.33299970627
vertex -9.84187984467 -3.77436423302 -6.33299970627
endloop
endfacet
facet normal 0.0 -0.0 -1.0
outer loop
vertex -9.84187984467 -3.77436423302 -6.33299970627
vertex -6.77286815643 -4.08867692947 -6.33299970627
vertex -9.84701919556 -3.82409930229 -6.33299970627
endloop
endfacet
facet normal -0.0 0.0 -1.0
outer loop
vertex -3.68973660469 -4.19788646698 -6.33299970627
vertex -3.69146084785 -4.24785661697 -6.33299970627
vertex -6.76943397522 -4.03879499435 -6.33299970627
endloop
endfacet
facet normal 0.0 -0.0 -1.0
outer loop
vertex -6.76943397522 -4.03879499435 -6.33299970627
vertex -3.69146084785 -4.24785661697 -6.33299970627
vertex -6.77286815643 -4.08867692947 -6.33299970627
endloop
endfacet
facet normal -0.0 0.0 -1.0
outer loop
vertex -0.606397986412 -4.25145196915 -6.33299970627
vertex -0.606410503387 -4.30145215988 -6.33299970627
vertex -3.68973660469 -4.19788646698 -6.33299970627
endloop
endfacet
facet normal 0.0 -0.0 -1.0
outer loop
vertex -3.68973660469 -4.19788646698 -6.33299970627
vertex -0.606410503387 -4.30145215988 -6.33299970627
vertex -3.69146084785 -4.24785661697 -6.33299970627
endloop
endfacet
