solid 
facet normal 0.0173703506589 -0.999849140644 0.0
outer loop
vertex 3.69148755074 -4.24785661697 135.356994629
vertex 0.606437027454 -4.30145311356 135.356994629
vertex 0.606437027454 -4.30145311356 135.336990356
endloop
endfacet
facet normal 0.0173703506589 -0.999849140644 0.0
outer loop
vertex 3.69148755074 -4.24785661697 135.356994629
vertex 0.606437027454 -4.30145311356 135.336990356
vertex 3.69148755074 -4.24785661697 135.336990356
endloop
endfacet
facet normal 0.0515896379948 -0.998668313026 0.0
outer loop
vertex 3.69148755074 -4.24785661697 135.356994629
vertex 3.69148755074 -4.24785661697 135.336990356
vertex 6.77289438248 -4.0886759758 135.336990356
endloop
endfacet
facet normal 0.085748642683 -0.996316790581 0.0
outer loop
vertex 6.77289438248 -4.0886759758 135.356994629
vertex 6.77289438248 -4.0886759758 135.336990356
vertex 9.84704589844 -3.82409715652 135.336990356
endloop
endfacet
facet normal 0.0515896379948 -0.998668313026 0.0
outer loop
vertex 6.77289438248 -4.0886759758 135.356994629
vertex 3.69148755074 -4.24785661697 135.356994629
vertex 6.77289438248 -4.0886759758 135.336990356
endloop
endfacet
facet normal 0.085748642683 -0.996316790581 0.0
outer loop
vertex 9.84704589844 -3.82409715652 135.356994629
vertex 6.77289438248 -4.0886759758 135.356994629
vertex 9.84704589844 -3.82409715652 135.336990356
endloop
endfacet
facet normal 0.994703412056 0.1027867347 0.0
outer loop
vertex 9.84190654755 -3.77436184883 135.336990356
vertex 9.84704589844 -3.82409715652 135.356994629
vertex 9.84704589844 -3.82409715652 135.336990356
endloop
endfacet
facet normal 0.994703412056 0.1027867347 0.0
outer loop
vertex 9.84190654755 -3.77436184883 135.356994629
vertex 9.84704589844 -3.82409715652 135.356994629
vertex 9.84190654755 -3.77436184883 135.336990356
endloop
endfacet
facet normal -0.0173702538013 0.999849140644 0.0
outer loop
vertex 0.606424510479 -4.25145292282 135.336990356
vertex 0.606424510479 -4.25145292282 135.356994629
vertex 3.68976306915 -4.19788646698 135.336990356
endloop
endfacet
facet normal -0.0173702538013 0.999849140644 0.0
outer loop
vertex 0.606424510479 -4.25145292282 135.356994629
vertex 3.68976306915 -4.19788646698 135.356994629
vertex 3.68976306915 -4.19788646698 135.336990356
endloop
endfacet
facet normal -0.0515896677971 0.998668372631 0.0
outer loop
vertex 3.68976306915 -4.19788646698 135.336990356
vertex 6.7694606781 -4.03879404068 135.356994629
vertex 6.7694606781 -4.03879404068 135.336990356
endloop
endfacet
facet normal -0.0515896677971 0.998668372631 0.0
outer loop
vertex 3.68976306915 -4.19788646698 135.356994629
vertex 6.7694606781 -4.03879404068 135.356994629
vertex 3.68976306915 -4.19788646698 135.336990356
endloop
endfacet
facet normal -0.0857486948371 0.996316790581 0.0
outer loop
vertex 6.7694606781 -4.03879404068 135.336990356
vertex 9.84190654755 -3.77436184883 135.356994629
vertex 9.84190654755 -3.77436184883 135.336990356
endloop
endfacet
facet normal -0.0857486948371 0.996316790581 0.0
outer loop
vertex 6.7694606781 -4.03879404068 135.356994629
vertex 9.84190654755 -3.77436184883 135.356994629
vertex 6.7694606781 -4.03879404068 135.336990356
endloop
endfacet
facet normal -0.999999880791 -0.00025033854763 0.0
outer loop
vertex 0.606437027454 -4.30145311356 135.336990356
vertex 0.606424510479 -4.25145292282 135.356994629
vertex 0.606424510479 -4.25145292282 135.336990356
endloop
endfacet
facet normal -0.999999880791 -0.00025033854763 -0.0
outer loop
vertex 0.606437027454 -4.30145311356 135.356994629
vertex 0.606424510479 -4.25145292282 135.356994629
vertex 0.606437027454 -4.30145311356 135.336990356
endloop
endfacet
facet normal 0.0 0.0 1.0
outer loop
vertex 9.84190654755 -3.77436184883 135.356994629
vertex 6.7694606781 -4.03879404068 135.356994629
vertex 9.84704589844 -3.82409715652 135.356994629
endloop
endfacet
facet normal -0.0 0.0 1.0
outer loop
vertex 6.7694606781 -4.03879404068 135.356994629
vertex 6.77289438248 -4.0886759758 135.356994629
vertex 9.84704589844 -3.82409715652 135.356994629
endloop
endfacet
facet normal 0.0 0.0 1.0
outer loop
vertex 6.7694606781 -4.03879404068 135.356994629
vertex 3.68976306915 -4.19788646698 135.356994629
vertex 6.77289438248 -4.0886759758 135.356994629
endloop
endfacet
facet normal -0.0 0.0 1.0
outer loop
vertex 3.68976306915 -4.19788646698 135.356994629
vertex 3.69148755074 -4.24785661697 135.356994629
vertex 6.77289438248 -4.0886759758 135.356994629
endloop
endfacet
facet normal 0.0 0.0 1.0
outer loop
vertex 3.68976306915 -4.19788646698 135.356994629
vertex 0.606424510479 -4.25145292282 135.356994629
vertex 3.69148755074 -4.24785661697 135.356994629
endloop
endfacet
facet normal -0.0 0.0 1.0
outer loop
vertex 0.606424510479 -4.25145292282 135.356994629
vertex 0.606437027454 -4.30145311356 135.356994629
vertex 3.69148755074 -4.24785661697 135.356994629
endloop
endfacet
facet normal 0.0 0.0 -1.0
outer loop
vertex 6.77289438248 -4.0886759758 135.336990356
vertex 6.7694606781 -4.03879404068 135.336990356
vertex 9.84190654755 -3.77436184883 135.336990356
endloop
endfacet
facet normal 0.0 0.0 -1.0
outer loop
vertex 6.77289438248 -4.0886759758 135.336990356
vertex 9.84190654755 -3.77436184883 135.336990356
vertex 9.84704589844 -3.82409715652 135.336990356
endloop
endfacet
facet normal 0.0 0.0 -1.0
outer loop
vertex 3.69148755074 -4.24785661697 135.336990356
vertex 3.68976306915 -4.19788646698 135.336990356
vertex 6.7694606781 -4.03879404068 135.336990356
endloop
endfacet
facet normal 0.0 0.0 -1.0
outer loop
vertex 3.69148755074 -4.24785661697 135.336990356
vertex 6.7694606781 -4.03879404068 135.336990356
vertex 6.77289438248 -4.0886759758 135.336990356
endloop
endfacet
facet normal 0.0 0.0 -1.0
outer loop
vertex 0.606437027454 -4.30145311356 135.336990356
vertex 0.606424510479 -4.25145292282 135.336990356
vertex 3.68976306915 -4.19788646698 135.336990356
endloop
endfacet
facet normal 0.0 0.0 -1.0
outer loop
vertex 0.606437027454 -4.30145311356 135.336990356
vertex 3.68976306915 -4.19788646698 135.336990356
vertex 3.69148755074 -4.24785661697 135.336990356
endloop
endfacet
