solid 
facet normal -0.119807049632 0.992797195911 0.0
outer loop
vertex -12.9103431702 3.45443034172 125.905006409
vertex -9.84705162048 3.82409691811 125.905006409
vertex -9.84705162048 3.82409691811 125.885002136
endloop
endfacet
facet normal -0.119807049632 0.992797195911 0.0
outer loop
vertex -12.9103431702 3.45443034172 125.905006409
vertex -9.84705162048 3.82409691811 125.885002136
vertex -12.9103431702 3.45443034172 125.885002136
endloop
endfacet
facet normal -0.153724968433 0.988113641739 0.0
outer loop
vertex -15.9591836929 2.9801094532 125.905006409
vertex -12.9103431702 3.45443034172 125.885002136
vertex -15.9591836929 2.9801094532 125.885002136
endloop
endfacet
facet normal -0.187462687492 0.9822717309 0.0
outer loop
vertex -15.9591836929 2.9801094532 125.905006409
vertex -15.9591836929 2.9801094532 125.885002136
vertex -18.9899978638 2.40169048309 125.885002136
endloop
endfacet
facet normal -0.153724968433 0.988113641739 0.0
outer loop
vertex -15.9591836929 2.9801094532 125.905006409
vertex -12.9103431702 3.45443034172 125.905006409
vertex -12.9103431702 3.45443034172 125.885002136
endloop
endfacet
facet normal -0.187462687492 0.9822717309 0.0
outer loop
vertex -18.9899978638 2.40169048309 125.905006409
vertex -15.9591836929 2.9801094532 125.905006409
vertex -18.9899978638 2.40169048309 125.885002136
endloop
endfacet
facet normal -0.978920936584 -0.204239472747 0.0
outer loop
vertex -18.9899978638 2.40169048309 125.905006409
vertex -18.9797859192 2.35274457932 125.885002136
vertex -18.9797859192 2.35274457932 125.905006409
endloop
endfacet
facet normal -0.978920936584 -0.204239472747 0.0
outer loop
vertex -18.9899978638 2.40169048309 125.885002136
vertex -18.9797859192 2.35274457932 125.885002136
vertex -18.9899978638 2.40169048309 125.905006409
endloop
endfacet
facet normal 0.119807034731 -0.992797195911 0.0
outer loop
vertex -9.84191226959 3.77436161041 125.885002136
vertex -12.903503418 3.40490031242 125.905006409
vertex -12.903503418 3.40490031242 125.885002136
endloop
endfacet
facet normal 0.153724983335 -0.988113701344 0.0
outer loop
vertex -12.903503418 3.40490031242 125.885002136
vertex -12.903503418 3.40490031242 125.905006409
vertex -15.9506521225 2.93084263802 125.885002136
endloop
endfacet
facet normal 0.119807034731 -0.992797195911 0.0
outer loop
vertex -9.84191226959 3.77436161041 125.905006409
vertex -12.903503418 3.40490031242 125.905006409
vertex -9.84191226959 3.77436161041 125.885002136
endloop
endfacet
facet normal 0.187462627888 -0.982271790504 0.0
outer loop
vertex -15.9506521225 2.93084263802 125.885002136
vertex -15.9506521225 2.93084263802 125.905006409
vertex -18.9797859192 2.35274457932 125.885002136
endloop
endfacet
facet normal 0.153724983335 -0.988113701344 0.0
outer loop
vertex -12.903503418 3.40490031242 125.905006409
vertex -15.9506521225 2.93084263802 125.905006409
vertex -15.9506521225 2.93084263802 125.885002136
endloop
endfacet
facet normal 0.187462627888 -0.982271790504 0.0
outer loop
vertex -15.9506521225 2.93084263802 125.905006409
vertex -18.9797859192 2.35274457932 125.905006409
vertex -18.9797859192 2.35274457932 125.885002136
endloop
endfacet
facet normal 0.994703412056 0.1027867347 -0.0
outer loop
vertex -9.84191226959 3.77436161041 125.885002136
vertex -9.84705162048 3.82409691811 125.905006409
vertex -9.84191226959 3.77436161041 125.905006409
endloop
endfacet
facet normal 0.994703412056 0.1027867347 0.0
outer loop
vertex -9.84191226959 3.77436161041 125.885002136
vertex -9.84705162048 3.82409691811 125.885002136
vertex -9.84705162048 3.82409691811 125.905006409
endloop
endfacet
facet normal 0.0 -0.0 -1.0
outer loop
vertex -15.9591836929 2.9801094532 125.885002136
vertex -15.9506521225 2.93084263802 125.885002136
vertex -18.9797859192 2.35274457932 125.885002136
endloop
endfacet
facet normal 0.0 0.0 -1.0
outer loop
vertex -15.9591836929 2.9801094532 125.885002136
vertex -18.9797859192 2.35274457932 125.885002136
vertex -18.9899978638 2.40169048309 125.885002136
endloop
endfacet
facet normal 0.0 -0.0 -1.0
outer loop
vertex -12.9103431702 3.45443034172 125.885002136
vertex -12.903503418 3.40490031242 125.885002136
vertex -15.9506521225 2.93084263802 125.885002136
endloop
endfacet
facet normal 0.0 0.0 -1.0
outer loop
vertex -12.9103431702 3.45443034172 125.885002136
vertex -15.9506521225 2.93084263802 125.885002136
vertex -15.9591836929 2.9801094532 125.885002136
endloop
endfacet
facet normal 0.0 -0.0 -1.0
outer loop
vertex -9.84705162048 3.82409691811 125.885002136
vertex -9.84191226959 3.77436161041 125.885002136
vertex -12.903503418 3.40490031242 125.885002136
endloop
endfacet
facet normal 0.0 0.0 -1.0
outer loop
vertex -9.84705162048 3.82409691811 125.885002136
vertex -12.903503418 3.40490031242 125.885002136
vertex -12.9103431702 3.45443034172 125.885002136
endloop
endfacet
facet normal 0.0 0.0 1.0
outer loop
vertex -15.9506521225 2.93084263802 125.905006409
vertex -15.9591836929 2.9801094532 125.905006409
vertex -18.9797859192 2.35274457932 125.905006409
endloop
endfacet
facet normal 0.0 -0.0 1.0
outer loop
vertex -18.9797859192 2.35274457932 125.905006409
vertex -15.9591836929 2.9801094532 125.905006409
vertex -18.9899978638 2.40169048309 125.905006409
endloop
endfacet
facet normal 0.0 0.0 1.0
outer loop
vertex -12.903503418 3.40490031242 125.905006409
vertex -12.9103431702 3.45443034172 125.905006409
vertex -15.9506521225 2.93084263802 125.905006409
endloop
endfacet
facet normal 0.0 -0.0 1.0
outer loop
vertex -15.9506521225 2.93084263802 125.905006409
vertex -12.9103431702 3.45443034172 125.905006409
vertex -15.9591836929 2.9801094532 125.905006409
endloop
endfacet
facet normal 0.0 -0.0 1.0
outer loop
vertex -12.903503418 3.40490031242 125.905006409
vertex -9.84191226959 3.77436161041 125.905006409
vertex -12.9103431702 3.45443034172 125.905006409
endloop
endfacet
facet normal 0.0 0.0 1.0
outer loop
vertex -9.84191226959 3.77436161041 125.905006409
vertex -9.84705162048 3.82409691811 125.905006409
vertex -12.9103431702 3.45443034172 125.905006409
endloop
endfacet
