solid 
facet normal -0.0173700433224 -0.999849140644 0.0
outer loop
vertex -3.69146585464 -4.24785757065 -31.6499996185
vertex -0.606415450573 -4.30145311356 -31.6499996185
vertex -0.606415450573 -4.30145311356 -31.6300010681
endloop
endfacet
facet normal -0.0173700433224 -0.999849140644 0.0
outer loop
vertex -3.69146585464 -4.24785757065 -31.6499996185
vertex -0.606415450573 -4.30145311356 -31.6300010681
vertex -3.69146585464 -4.24785757065 -31.6300010681
endloop
endfacet
facet normal -0.0515894852579 -0.998668372631 0.0
outer loop
vertex -6.7728729248 -4.08867740631 -31.6499996185
vertex -3.69146585464 -4.24785757065 -31.6300010681
vertex -6.7728729248 -4.08867740631 -31.6300010681
endloop
endfacet
facet normal -0.0515894852579 -0.998668372631 0.0
outer loop
vertex -6.7728729248 -4.08867740631 -31.6499996185
vertex -3.69146585464 -4.24785757065 -31.6499996185
vertex -3.69146585464 -4.24785757065 -31.6300010681
endloop
endfacet
facet normal -0.0857483223081 -0.996316850185 0.0
outer loop
vertex -9.8470249176 -3.82409954071 -31.6499996185
vertex -6.7728729248 -4.08867740631 -31.6300010681
vertex -9.8470249176 -3.82409954071 -31.6300010681
endloop
endfacet
facet normal -0.0857483223081 -0.996316850185 0.0
outer loop
vertex -9.8470249176 -3.82409954071 -31.6499996185
vertex -6.7728729248 -4.08867740631 -31.6499996185
vertex -6.7728729248 -4.08867740631 -31.6300010681
endloop
endfacet
facet normal -0.994701445103 0.102806091309 0.0
outer loop
vertex -9.8470249176 -3.82409954071 -31.6499996185
vertex -9.84188461304 -3.77436447144 -31.6300010681
vertex -9.84188461304 -3.77436447144 -31.6499996185
endloop
endfacet
facet normal -0.994701445103 0.102806091309 0.0
outer loop
vertex -9.8470249176 -3.82409954071 -31.6300010681
vertex -9.84188461304 -3.77436447144 -31.6300010681
vertex -9.8470249176 -3.82409954071 -31.6499996185
endloop
endfacet
facet normal 0.0173700973392 0.999849081039 0.0
outer loop
vertex -0.606402933598 -4.25145292282 -31.6300010681
vertex -3.68974161148 -4.19788694382 -31.6499996185
vertex -3.68974161148 -4.19788694382 -31.6300010681
endloop
endfacet
facet normal 0.0173700973392 0.999849081039 -0.0
outer loop
vertex -0.606402933598 -4.25145292282 -31.6499996185
vertex -3.68974161148 -4.19788694382 -31.6499996185
vertex -0.606402933598 -4.25145292282 -31.6300010681
endloop
endfacet
facet normal 0.051589358598 0.998668372631 0.0
outer loop
vertex -3.68974161148 -4.19788694382 -31.6300010681
vertex -6.76943922043 -4.03879547119 -31.6499996185
vertex -6.76943922043 -4.03879547119 -31.6300010681
endloop
endfacet
facet normal 0.0857483297586 0.996316850185 0.0
outer loop
vertex -6.76943922043 -4.03879547119 -31.6300010681
vertex -6.76943922043 -4.03879547119 -31.6499996185
vertex -9.84188461304 -3.77436447144 -31.6300010681
endloop
endfacet
facet normal 0.051589358598 0.998668372631 -0.0
outer loop
vertex -3.68974161148 -4.19788694382 -31.6499996185
vertex -6.76943922043 -4.03879547119 -31.6499996185
vertex -3.68974161148 -4.19788694382 -31.6300010681
endloop
endfacet
facet normal 0.0857483297586 0.996316850185 0.0
outer loop
vertex -6.76943922043 -4.03879547119 -31.6499996185
vertex -9.84188461304 -3.77436447144 -31.6499996185
vertex -9.84188461304 -3.77436447144 -31.6300010681
endloop
endfacet
facet normal 0.999999880791 -0.000250338518526 0.0
outer loop
vertex -0.606402933598 -4.25145292282 -31.6499996185
vertex -0.606415450573 -4.30145311356 -31.6300010681
vertex -0.606415450573 -4.30145311356 -31.6499996185
endloop
endfacet
facet normal 0.999999880791 -0.000250338518526 0.0
outer loop
vertex -0.606402933598 -4.25145292282 -31.6300010681
vertex -0.606415450573 -4.30145311356 -31.6300010681
vertex -0.606402933598 -4.25145292282 -31.6499996185
endloop
endfacet
facet normal 0.0 0.0 1.0
outer loop
vertex -6.76943922043 -4.03879547119 -31.6300010681
vertex -9.84188461304 -3.77436447144 -31.6300010681
vertex -9.8470249176 -3.82409954071 -31.6300010681
endloop
endfacet
facet normal 0.0 -0.0 1.0
outer loop
vertex -6.7728729248 -4.08867740631 -31.6300010681
vertex -6.76943922043 -4.03879547119 -31.6300010681
vertex -9.8470249176 -3.82409954071 -31.6300010681
endloop
endfacet
facet normal 0.0 0.0 1.0
outer loop
vertex -3.68974161148 -4.19788694382 -31.6300010681
vertex -6.76943922043 -4.03879547119 -31.6300010681
vertex -6.7728729248 -4.08867740631 -31.6300010681
endloop
endfacet
facet normal 0.0 -0.0 1.0
outer loop
vertex -3.69146585464 -4.24785757065 -31.6300010681
vertex -3.68974161148 -4.19788694382 -31.6300010681
vertex -6.7728729248 -4.08867740631 -31.6300010681
endloop
endfacet
facet normal 0.0 -0.0 1.0
outer loop
vertex -0.606415450573 -4.30145311356 -31.6300010681
vertex -0.606402933598 -4.25145292282 -31.6300010681
vertex -3.68974161148 -4.19788694382 -31.6300010681
endloop
endfacet
facet normal 0.0 0.0 1.0
outer loop
vertex -0.606415450573 -4.30145311356 -31.6300010681
vertex -3.68974161148 -4.19788694382 -31.6300010681
vertex -3.69146585464 -4.24785757065 -31.6300010681
endloop
endfacet
facet normal 0.0 -0.0 -1.0
outer loop
vertex -9.84188461304 -3.77436447144 -31.6499996185
vertex -6.76943922043 -4.03879547119 -31.6499996185
vertex -9.8470249176 -3.82409954071 -31.6499996185
endloop
endfacet
facet normal -0.0 0.0 -1.0
outer loop
vertex -6.76943922043 -4.03879547119 -31.6499996185
vertex -6.7728729248 -4.08867740631 -31.6499996185
vertex -9.8470249176 -3.82409954071 -31.6499996185
endloop
endfacet
facet normal 0.0 -0.0 -1.0
outer loop
vertex -6.76943922043 -4.03879547119 -31.6499996185
vertex -3.68974161148 -4.19788694382 -31.6499996185
vertex -6.7728729248 -4.08867740631 -31.6499996185
endloop
endfacet
facet normal -0.0 0.0 -1.0
outer loop
vertex -3.68974161148 -4.19788694382 -31.6499996185
vertex -3.69146585464 -4.24785757065 -31.6499996185
vertex -6.7728729248 -4.08867740631 -31.6499996185
endloop
endfacet
facet normal 0.0 -0.0 -1.0
outer loop
vertex -3.68974161148 -4.19788694382 -31.6499996185
vertex -0.606402933598 -4.25145292282 -31.6499996185
vertex -3.69146585464 -4.24785757065 -31.6499996185
endloop
endfacet
facet normal -0.0 0.0 -1.0
outer loop
vertex -0.606402933598 -4.25145292282 -31.6499996185
vertex -0.606415450573 -4.30145311356 -31.6499996185
vertex -3.69146585464 -4.24785757065 -31.6499996185
endloop
endfacet
