solid 
facet normal -0.0173700451851 0.999849200249 0.0
outer loop
vertex -0.606420278549 4.30145311356 64.4980010986
vertex -0.606420278549 4.30145311356 64.4780044556
vertex -3.69147062302 4.24785757065 64.4780044556
endloop
endfacet
facet normal -0.0515894815326 0.998668372631 0.0
outer loop
vertex -3.69147062302 4.24785757065 64.4980010986
vertex -3.69147062302 4.24785757065 64.4780044556
vertex -6.77287769318 4.08867740631 64.4780044556
endloop
endfacet
facet normal -0.0173700451851 0.999849200249 0.0
outer loop
vertex -3.69147062302 4.24785757065 64.4980010986
vertex -0.606420278549 4.30145311356 64.4980010986
vertex -3.69147062302 4.24785757065 64.4780044556
endloop
endfacet
facet normal -0.0515894815326 0.998668372631 0.0
outer loop
vertex -6.77287769318 4.08867740631 64.4980010986
vertex -3.69147062302 4.24785757065 64.4980010986
vertex -6.77287769318 4.08867740631 64.4780044556
endloop
endfacet
facet normal -0.0857484042645 0.996316850185 0.0
outer loop
vertex -9.84702968597 3.82409930229 64.4980010986
vertex -6.77287769318 4.08867740631 64.4780044556
vertex -9.84702968597 3.82409930229 64.4780044556
endloop
endfacet
facet normal -0.0857484042645 0.996316850185 0.0
outer loop
vertex -9.84702968597 3.82409930229 64.4980010986
vertex -6.77287769318 4.08867740631 64.4980010986
vertex -6.77287769318 4.08867740631 64.4780044556
endloop
endfacet
facet normal -0.994701385498 -0.102806091309 0.0
outer loop
vertex -9.84702968597 3.82409930229 64.4980010986
vertex -9.84188938141 3.77436423302 64.4780044556
vertex -9.84188938141 3.77436423302 64.4980010986
endloop
endfacet
facet normal -0.994701385498 -0.102806091309 0.0
outer loop
vertex -9.84702968597 3.82409930229 64.4780044556
vertex -9.84188938141 3.77436423302 64.4780044556
vertex -9.84702968597 3.82409930229 64.4980010986
endloop
endfacet
facet normal 0.0173699446023 -0.999849140644 0.0
outer loop
vertex -0.606407761574 4.25145292282 64.4780044556
vertex -3.68974637985 4.19788742065 64.4980010986
vertex -3.68974637985 4.19788742065 64.4780044556
endloop
endfacet
facet normal 0.0515895150602 -0.998668372631 0.0
outer loop
vertex -3.68974637985 4.19788742065 64.4780044556
vertex -3.68974637985 4.19788742065 64.4980010986
vertex -6.7694439888 4.03879547119 64.4780044556
endloop
endfacet
facet normal 0.0173699446023 -0.999849140644 0.0
outer loop
vertex -0.606407761574 4.25145292282 64.4980010986
vertex -3.68974637985 4.19788742065 64.4980010986
vertex -0.606407761574 4.25145292282 64.4780044556
endloop
endfacet
facet normal 0.0857484042645 -0.996316790581 0.0
outer loop
vertex -6.7694439888 4.03879547119 64.4780044556
vertex -6.7694439888 4.03879547119 64.4980010986
vertex -9.84188938141 3.77436423302 64.4780044556
endloop
endfacet
facet normal 0.0515895150602 -0.998668372631 0.0
outer loop
vertex -3.68974637985 4.19788742065 64.4980010986
vertex -6.7694439888 4.03879547119 64.4980010986
vertex -6.7694439888 4.03879547119 64.4780044556
endloop
endfacet
facet normal 0.0857484042645 -0.996316790581 0.0
outer loop
vertex -6.7694439888 4.03879547119 64.4980010986
vertex -9.84188938141 3.77436423302 64.4980010986
vertex -9.84188938141 3.77436423302 64.4780044556
endloop
endfacet
facet normal 1.0 0.00025033854763 -0.0
outer loop
vertex -0.606407761574 4.25145292282 64.4780044556
vertex -0.606420278549 4.30145311356 64.4980010986
vertex -0.606407761574 4.25145292282 64.4980010986
endloop
endfacet
facet normal 1.0 0.00025033854763 0.0
outer loop
vertex -0.606407761574 4.25145292282 64.4780044556
vertex -0.606420278549 4.30145311356 64.4780044556
vertex -0.606420278549 4.30145311356 64.4980010986
endloop
endfacet
facet normal 0.0 -0.0 -1.0
outer loop
vertex -6.77287769318 4.08867740631 64.4780044556
vertex -6.7694439888 4.03879547119 64.4780044556
vertex -9.84188938141 3.77436423302 64.4780044556
endloop
endfacet
facet normal 0.0 0.0 -1.0
outer loop
vertex -6.77287769318 4.08867740631 64.4780044556
vertex -9.84188938141 3.77436423302 64.4780044556
vertex -9.84702968597 3.82409930229 64.4780044556
endloop
endfacet
facet normal 0.0 -0.0 -1.0
outer loop
vertex -3.69147062302 4.24785757065 64.4780044556
vertex -3.68974637985 4.19788742065 64.4780044556
vertex -6.7694439888 4.03879547119 64.4780044556
endloop
endfacet
facet normal 0.0 0.0 -1.0
outer loop
vertex -3.69147062302 4.24785757065 64.4780044556
vertex -6.7694439888 4.03879547119 64.4780044556
vertex -6.77287769318 4.08867740631 64.4780044556
endloop
endfacet
facet normal 0.0 -0.0 -1.0
outer loop
vertex -0.606420278549 4.30145311356 64.4780044556
vertex -0.606407761574 4.25145292282 64.4780044556
vertex -3.68974637985 4.19788742065 64.4780044556
endloop
endfacet
facet normal 0.0 0.0 -1.0
outer loop
vertex -0.606420278549 4.30145311356 64.4780044556
vertex -3.68974637985 4.19788742065 64.4780044556
vertex -3.69147062302 4.24785757065 64.4780044556
endloop
endfacet
facet normal 0.0 -0.0 1.0
outer loop
vertex -9.84188938141 3.77436423302 64.4980010986
vertex -6.7694439888 4.03879547119 64.4980010986
vertex -9.84702968597 3.82409930229 64.4980010986
endloop
endfacet
facet normal 0.0 0.0 1.0
outer loop
vertex -6.7694439888 4.03879547119 64.4980010986
vertex -6.77287769318 4.08867740631 64.4980010986
vertex -9.84702968597 3.82409930229 64.4980010986
endloop
endfacet
facet normal 0.0 -0.0 1.0
outer loop
vertex -6.7694439888 4.03879547119 64.4980010986
vertex -3.68974637985 4.19788742065 64.4980010986
vertex -6.77287769318 4.08867740631 64.4980010986
endloop
endfacet
facet normal 0.0 0.0 1.0
outer loop
vertex -3.68974637985 4.19788742065 64.4980010986
vertex -3.69147062302 4.24785757065 64.4980010986
vertex -6.77287769318 4.08867740631 64.4980010986
endloop
endfacet
facet normal 0.0 -0.0 1.0
outer loop
vertex -3.68974637985 4.19788742065 64.4980010986
vertex -0.606407761574 4.25145292282 64.4980010986
vertex -3.69147062302 4.24785757065 64.4980010986
endloop
endfacet
facet normal 0.0 0.0 1.0
outer loop
vertex -0.606407761574 4.25145292282 64.4980010986
vertex -0.606420278549 4.30145311356 64.4980010986
vertex -3.69147062302 4.24785757065 64.4980010986
endloop
endfacet
