solid 
facet normal 0.0173703525215 0.999849200249 0.0
outer loop
vertex 3.69148755074 4.24785709381 111.461006165
vertex 0.606437206268 4.30145359039 111.461006165
vertex 0.606437206268 4.30145359039 111.481002808
endloop
endfacet
facet normal 0.0173703525215 0.999849200249 -0.0
outer loop
vertex 3.69148755074 4.24785709381 111.461006165
vertex 0.606437206268 4.30145359039 111.481002808
vertex 3.69148755074 4.24785709381 111.481002808
endloop
endfacet
facet normal 0.0515896342695 0.998668372631 -0.0
outer loop
vertex 6.77289485931 4.08867645264 111.461006165
vertex 3.69148755074 4.24785709381 111.481002808
vertex 6.77289485931 4.08867645264 111.481002808
endloop
endfacet
facet normal 0.0857486501336 0.996316790581 -0.0
outer loop
vertex 6.77289485931 4.08867645264 111.461006165
vertex 6.77289485931 4.08867645264 111.481002808
vertex 9.84704589844 3.82409763336 111.481002808
endloop
endfacet
facet normal 0.0515896342695 0.998668372631 0.0
outer loop
vertex 6.77289485931 4.08867645264 111.461006165
vertex 3.69148755074 4.24785709381 111.461006165
vertex 3.69148755074 4.24785709381 111.481002808
endloop
endfacet
facet normal 0.0857486501336 0.996316790581 -0.0
outer loop
vertex 9.84704589844 3.82409763336 111.461006165
vertex 6.77289485931 4.08867645264 111.461006165
vertex 9.84704589844 3.82409763336 111.481002808
endloop
endfacet
facet normal 0.994703412056 -0.10278672725 0.0
outer loop
vertex 9.84190654755 3.77436232567 111.481002808
vertex 9.84704589844 3.82409763336 111.461006165
vertex 9.84704589844 3.82409763336 111.481002808
endloop
endfacet
facet normal 0.994703412056 -0.10278672725 0.0
outer loop
vertex 9.84190654755 3.77436232567 111.461006165
vertex 9.84704589844 3.82409763336 111.461006165
vertex 9.84190654755 3.77436232567 111.481002808
endloop
endfacet
facet normal -0.0173702538013 -0.999849140644 -0.0
outer loop
vertex 0.606424629688 4.25145339966 111.481002808
vertex 0.606424629688 4.25145339966 111.461006165
vertex 3.68976330757 4.19788694382 111.481002808
endloop
endfacet
facet normal -0.0173702538013 -0.999849140644 0.0
outer loop
vertex 0.606424629688 4.25145339966 111.461006165
vertex 3.68976330757 4.19788694382 111.461006165
vertex 3.68976330757 4.19788694382 111.481002808
endloop
endfacet
facet normal -0.0515896715224 -0.998668372631 0.0
outer loop
vertex 3.68976330757 4.19788694382 111.481002808
vertex 6.7694606781 4.03879451752 111.461006165
vertex 6.7694606781 4.03879451752 111.481002808
endloop
endfacet
facet normal -0.0515896715224 -0.998668372631 0.0
outer loop
vertex 3.68976330757 4.19788694382 111.461006165
vertex 6.7694606781 4.03879451752 111.461006165
vertex 3.68976330757 4.19788694382 111.481002808
endloop
endfacet
facet normal -0.0857486948371 -0.996316790581 0.0
outer loop
vertex 6.7694606781 4.03879451752 111.481002808
vertex 9.84190654755 3.77436232567 111.461006165
vertex 9.84190654755 3.77436232567 111.481002808
endloop
endfacet
facet normal -0.0857486948371 -0.996316790581 0.0
outer loop
vertex 6.7694606781 4.03879451752 111.461006165
vertex 9.84190654755 3.77436232567 111.461006165
vertex 6.7694606781 4.03879451752 111.481002808
endloop
endfacet
facet normal -1.0 0.000251530640526 0.0
outer loop
vertex 0.606437206268 4.30145359039 111.461006165
vertex 0.606424629688 4.25145339966 111.461006165
vertex 0.606424629688 4.25145339966 111.481002808
endloop
endfacet
facet normal -1.0 0.000251530640526 0.0
outer loop
vertex 0.606437206268 4.30145359039 111.461006165
vertex 0.606424629688 4.25145339966 111.481002808
vertex 0.606437206268 4.30145359039 111.481002808
endloop
endfacet
facet normal 0.0 0.0 -1.0
outer loop
vertex 9.84190654755 3.77436232567 111.461006165
vertex 6.7694606781 4.03879451752 111.461006165
vertex 9.84704589844 3.82409763336 111.461006165
endloop
endfacet
facet normal 0.0 0.0 -1.0
outer loop
vertex 6.7694606781 4.03879451752 111.461006165
vertex 6.77289485931 4.08867645264 111.461006165
vertex 9.84704589844 3.82409763336 111.461006165
endloop
endfacet
facet normal 0.0 0.0 -1.0
outer loop
vertex 6.7694606781 4.03879451752 111.461006165
vertex 3.68976330757 4.19788694382 111.461006165
vertex 6.77289485931 4.08867645264 111.461006165
endloop
endfacet
facet normal 0.0 0.0 -1.0
outer loop
vertex 3.68976330757 4.19788694382 111.461006165
vertex 3.69148755074 4.24785709381 111.461006165
vertex 6.77289485931 4.08867645264 111.461006165
endloop
endfacet
facet normal 0.0 0.0 -1.0
outer loop
vertex 3.68976330757 4.19788694382 111.461006165
vertex 0.606424629688 4.25145339966 111.461006165
vertex 3.69148755074 4.24785709381 111.461006165
endloop
endfacet
facet normal 0.0 0.0 -1.0
outer loop
vertex 0.606424629688 4.25145339966 111.461006165
vertex 0.606437206268 4.30145359039 111.461006165
vertex 3.69148755074 4.24785709381 111.461006165
endloop
endfacet
facet normal 0.0 0.0 1.0
outer loop
vertex 6.77289485931 4.08867645264 111.481002808
vertex 6.7694606781 4.03879451752 111.481002808
vertex 9.84190654755 3.77436232567 111.481002808
endloop
endfacet
facet normal 0.0 0.0 1.0
outer loop
vertex 6.77289485931 4.08867645264 111.481002808
vertex 9.84190654755 3.77436232567 111.481002808
vertex 9.84704589844 3.82409763336 111.481002808
endloop
endfacet
facet normal 0.0 0.0 1.0
outer loop
vertex 3.69148755074 4.24785709381 111.481002808
vertex 3.68976330757 4.19788694382 111.481002808
vertex 6.7694606781 4.03879451752 111.481002808
endloop
endfacet
facet normal 0.0 0.0 1.0
outer loop
vertex 3.69148755074 4.24785709381 111.481002808
vertex 6.7694606781 4.03879451752 111.481002808
vertex 6.77289485931 4.08867645264 111.481002808
endloop
endfacet
facet normal 0.0 0.0 1.0
outer loop
vertex 0.606437206268 4.30145359039 111.481002808
vertex 0.606424629688 4.25145339966 111.481002808
vertex 3.68976330757 4.19788694382 111.481002808
endloop
endfacet
facet normal 0.0 0.0 1.0
outer loop
vertex 0.606437206268 4.30145359039 111.481002808
vertex 3.68976330757 4.19788694382 111.481002808
vertex 3.69148755074 4.24785709381 111.481002808
endloop
endfacet
