solid 
facet normal 0.204613447189 -0.9788428545 0.0
outer loop
vertex 18.9899787903 -2.40169525146 -35.2410011292
vertex 18.9899787903 -2.40169525146 -38.8320007324
vertex 19.0552349091 -2.38805437088 -38.8320007324
endloop
endfacet
facet normal 0.205343365669 -0.978689968586 0.0
outer loop
vertex 19.0552349091 -2.38805437088 -35.2410011292
vertex 19.0552349091 -2.38805437088 -38.8320007324
vertex 19.1204795837 -2.37436509132 -38.8320007324
endloop
endfacet
facet normal 0.204613447189 -0.9788428545 0.0
outer loop
vertex 19.0552349091 -2.38805437088 -35.2410011292
vertex 18.9899787903 -2.40169525146 -35.2410011292
vertex 19.0552349091 -2.38805437088 -38.8320007324
endloop
endfacet
facet normal 0.205339938402 -0.978690683842 -6.49785789619e-08
outer loop
vertex 19.1204795837 -2.37436532974 -35.2410011292
vertex 19.0552349091 -2.38805437088 -35.2410011292
vertex 19.1204795837 -2.37436509132 -38.8320007324
endloop
endfacet
facet normal 0.206058248878 -0.978539764881 -6.49685532039e-08
outer loop
vertex 19.185716629 -2.36062788963 -35.2410011292
vertex 19.1204795837 -2.37436509132 -38.8320007324
vertex 19.185716629 -2.36062765121 -38.8320007324
endloop
endfacet
facet normal 0.206058248878 -0.978539764881 -6.49172662293e-08
outer loop
vertex 19.185716629 -2.36062788963 -35.2410011292
vertex 19.1204795837 -2.37436532974 -35.2410011292
vertex 19.1204795837 -2.37436509132 -38.8320007324
endloop
endfacet
facet normal 0.978464901447 0.206413239241 1.36158266884e-08
outer loop
vertex 19.1753959656 -2.31170463562 -35.2410011292
vertex 19.185716629 -2.36062788963 -35.2410011292
vertex 19.185716629 -2.36062765121 -38.8320007324
endloop
endfacet
facet normal 0.978464722633 0.206414192915 0.0
outer loop
vertex 19.1753959656 -2.31170463562 -35.2410011292
vertex 19.185716629 -2.36062765121 -38.8320007324
vertex 19.1753959656 -2.31170463562 -38.8320007324
endloop
endfacet
facet normal -0.204612657428 0.978843033314 0.0
outer loop
vertex 18.9797649384 -2.35274934769 -38.8320007324
vertex 19.0449848175 -2.3391160965 -35.2410011292
vertex 19.0449848175 -2.3391160965 -38.8320007324
endloop
endfacet
facet normal -0.205337241292 0.978691279888 0.0
outer loop
vertex 19.0449848175 -2.3391160965 -38.8320007324
vertex 19.0449848175 -2.3391160965 -35.2410011292
vertex 19.1101951599 -2.32543444633 -38.8320007324
endloop
endfacet
facet normal -0.204612657428 0.978843033314 0.0
outer loop
vertex 18.9797649384 -2.35274934769 -35.2410011292
vertex 19.0449848175 -2.3391160965 -35.2410011292
vertex 18.9797649384 -2.35274934769 -38.8320007324
endloop
endfacet
facet normal -0.205337241292 0.978691279888 0.0
outer loop
vertex 19.0449848175 -2.3391160965 -35.2410011292
vertex 19.1101951599 -2.32543444633 -35.2410011292
vertex 19.1101951599 -2.32543444633 -38.8320007324
endloop
endfacet
facet normal -0.206058263779 0.978539705276 0.0
outer loop
vertex 19.1101951599 -2.32543444633 -38.8320007324
vertex 19.1753959656 -2.31170463562 -35.2410011292
vertex 19.1753959656 -2.31170463562 -38.8320007324
endloop
endfacet
facet normal -0.206058263779 0.978539705276 0.0
outer loop
vertex 19.1101951599 -2.32543444633 -35.2410011292
vertex 19.1753959656 -2.31170463562 -35.2410011292
vertex 19.1101951599 -2.32543444633 -38.8320007324
endloop
endfacet
facet normal -0.97891330719 -0.204276040196 0.0
outer loop
vertex 18.9899787903 -2.40169525146 -35.2410011292
vertex 18.9797649384 -2.35274934769 -35.2410011292
vertex 18.9797649384 -2.35274934769 -38.8320007324
endloop
endfacet
facet normal -0.97891330719 -0.204276040196 -0.0
outer loop
vertex 18.9899787903 -2.40169525146 -35.2410011292
vertex 18.9797649384 -2.35274934769 -38.8320007324
vertex 18.9899787903 -2.40169525146 -38.8320007324
endloop
endfacet
facet normal 0.0 0.0 1.0
outer loop
vertex 19.1753959656 -2.31170463562 -35.2410011292
vertex 19.1101951599 -2.32543444633 -35.2410011292
vertex 19.185716629 -2.36062788963 -35.2410011292
endloop
endfacet
facet normal 0.0 0.0 1.0
outer loop
vertex 19.1101951599 -2.32543444633 -35.2410011292
vertex 19.1204795837 -2.37436532974 -35.2410011292
vertex 19.185716629 -2.36062788963 -35.2410011292
endloop
endfacet
facet normal 0.0 0.0 1.0
outer loop
vertex 19.1101951599 -2.32543444633 -35.2410011292
vertex 19.0449848175 -2.3391160965 -35.2410011292
vertex 19.1204795837 -2.37436532974 -35.2410011292
endloop
endfacet
facet normal 0.0 0.0 1.0
outer loop
vertex 19.0449848175 -2.3391160965 -35.2410011292
vertex 19.0552349091 -2.38805437088 -35.2410011292
vertex 19.1204795837 -2.37436532974 -35.2410011292
endloop
endfacet
facet normal 0.0 0.0 1.0
outer loop
vertex 19.0449848175 -2.3391160965 -35.2410011292
vertex 18.9797649384 -2.35274934769 -35.2410011292
vertex 19.0552349091 -2.38805437088 -35.2410011292
endloop
endfacet
facet normal 0.0 0.0 1.0
outer loop
vertex 18.9797649384 -2.35274934769 -35.2410011292
vertex 18.9899787903 -2.40169525146 -35.2410011292
vertex 19.0552349091 -2.38805437088 -35.2410011292
endloop
endfacet
facet normal 0.0 0.0 -1.0
outer loop
vertex 19.1101951599 -2.32543444633 -38.8320007324
vertex 19.1753959656 -2.31170463562 -38.8320007324
vertex 19.185716629 -2.36062765121 -38.8320007324
endloop
endfacet
facet normal 0.0 0.0 -1.0
outer loop
vertex 19.1204795837 -2.37436509132 -38.8320007324
vertex 19.1101951599 -2.32543444633 -38.8320007324
vertex 19.185716629 -2.36062765121 -38.8320007324
endloop
endfacet
facet normal 0.0 0.0 -1.0
outer loop
vertex 19.0449848175 -2.3391160965 -38.8320007324
vertex 19.1101951599 -2.32543444633 -38.8320007324
vertex 19.1204795837 -2.37436509132 -38.8320007324
endloop
endfacet
facet normal 0.0 0.0 -1.0
outer loop
vertex 19.0552349091 -2.38805437088 -38.8320007324
vertex 19.0449848175 -2.3391160965 -38.8320007324
vertex 19.1204795837 -2.37436509132 -38.8320007324
endloop
endfacet
facet normal 0.0 0.0 -1.0
outer loop
vertex 18.9899787903 -2.40169525146 -38.8320007324
vertex 18.9797649384 -2.35274934769 -38.8320007324
vertex 19.0449848175 -2.3391160965 -38.8320007324
endloop
endfacet
facet normal 0.0 0.0 -1.0
outer loop
vertex 18.9899787903 -2.40169525146 -38.8320007324
vertex 19.0449848175 -2.3391160965 -38.8320007324
vertex 19.0552349091 -2.38805437088 -38.8320007324
endloop
endfacet
