solid 
facet normal -0.00160217308439 -0.999998748302 1.3296695342e-11
outer loop
vertex 0.406425982714 -4.30128145218 175.018005371
vertex 0.406425952911 -4.30128145218 171.427001953
vertex 0.473092526197 -4.3013882637 171.427001953
endloop
endfacet
facet normal -0.000858307001181 -0.999999642372 7.12322952359e-12
outer loop
vertex 0.473092556 -4.3013882637 175.018005371
vertex 0.473092526197 -4.3013882637 171.427001953
vertex 0.539759159088 -4.30144548416 171.427001953
endloop
endfacet
facet normal -0.00160217308439 -0.999998748302 1.3296695342e-11
outer loop
vertex 0.473092556 -4.3013882637 175.018005371
vertex 0.406425982714 -4.30128145218 175.018005371
vertex 0.473092526197 -4.3013882637 171.427001953
endloop
endfacet
facet normal -0.000121593482618 -1.0 2.01824819877e-12
outer loop
vertex 0.539759218693 -4.30144548416 175.018005371
vertex 0.539759159088 -4.30144548416 171.427001953
vertex 0.606425821781 -4.30145359039 171.427001953
endloop
endfacet
facet normal -0.000858306651935 -0.999999642372 1.42464529757e-11
outer loop
vertex 0.539759218693 -4.30144548416 175.018005371
vertex 0.473092556 -4.3013882637 175.018005371
vertex 0.539759159088 -4.30144548416 171.427001953
endloop
endfacet
facet normal -0.000121593482618 -1.0 2.01824819877e-12
outer loop
vertex 0.606425881386 -4.30145359039 175.018005371
vertex 0.539759218693 -4.30144548416 175.018005371
vertex 0.606425821781 -4.30145359039 171.427001953
endloop
endfacet
facet normal 0.999999940395 0.000250338518526 -1.65983244926e-08
outer loop
vertex 0.60641336441 -4.25145339966 175.018005371
vertex 0.606425881386 -4.30145359039 175.018005371
vertex 0.606425821781 -4.30145359039 171.427001953
endloop
endfacet
facet normal 0.999999940395 0.000250338518526 -1.65983244926e-08
outer loop
vertex 0.60641336441 -4.25145339966 175.018005371
vertex 0.606425821781 -4.30145359039 171.427001953
vertex 0.606413304806 -4.25145339966 171.427001953
endloop
endfacet
facet normal 0.00159590516705 0.999998748302 0.0
outer loop
vertex 0.406524389982 -4.25128173828 171.427001953
vertex 0.473154008389 -4.25138807297 175.018005371
vertex 0.473154008389 -4.25138807297 171.427001953
endloop
endfacet
facet normal 0.00159590574913 0.999998688698 -1.32446822607e-11
outer loop
vertex 0.406524419785 -4.25128173828 175.018005371
vertex 0.473154008389 -4.25138807297 175.018005371
vertex 0.406524389982 -4.25128173828 171.427001953
endloop
endfacet
facet normal 0.000858783430886 0.999999642372 1.3278608435e-07
outer loop
vertex 0.473154008389 -4.25138807297 171.427001953
vertex 0.539783656597 -4.25144577026 175.018005371
vertex 0.539783656597 -4.25144529343 171.427001953
endloop
endfacet
facet normal 0.00086593994638 0.999999642372 0.0
outer loop
vertex 0.473154008389 -4.25138807297 175.018005371
vertex 0.539783656597 -4.25144577026 175.018005371
vertex 0.473154008389 -4.25138807297 171.427001953
endloop
endfacet
facet normal 0.000121661032608 1.0 -1.9005829896e-12
outer loop
vertex 0.539783656597 -4.25144529343 171.427001953
vertex 0.60641336441 -4.25145339966 175.018005371
vertex 0.606413304806 -4.25145339966 171.427001953
endloop
endfacet
facet normal 0.000114504393423 1.0 1.32786610152e-07
outer loop
vertex 0.539783656597 -4.25144577026 175.018005371
vertex 0.60641336441 -4.25145339966 175.018005371
vertex 0.539783656597 -4.25144529343 171.427001953
endloop
endfacet
facet normal -0.999998033047 0.00196874863468 8.29716739759e-09
outer loop
vertex 0.406425982714 -4.30128145218 175.018005371
vertex 0.406524419785 -4.25128173828 175.018005371
vertex 0.406524389982 -4.25128173828 171.427001953
endloop
endfacet
facet normal -0.999998033047 0.00196874863468 8.29914625911e-09
outer loop
vertex 0.406425982714 -4.30128145218 175.018005371
vertex 0.406524389982 -4.25128173828 171.427001953
vertex 0.406425952911 -4.30128145218 171.427001953
endloop
endfacet
facet normal 0.0 0.0 1.0
outer loop
vertex 0.60641336441 -4.25145339966 175.018005371
vertex 0.539783656597 -4.25144577026 175.018005371
vertex 0.606425881386 -4.30145359039 175.018005371
endloop
endfacet
facet normal 0.0 0.0 1.0
outer loop
vertex 0.539783656597 -4.25144577026 175.018005371
vertex 0.539759218693 -4.30144548416 175.018005371
vertex 0.606425881386 -4.30145359039 175.018005371
endloop
endfacet
facet normal 0.0 0.0 1.0
outer loop
vertex 0.473154008389 -4.25138807297 175.018005371
vertex 0.473092556 -4.3013882637 175.018005371
vertex 0.539783656597 -4.25144577026 175.018005371
endloop
endfacet
facet normal 0.0 0.0 1.0
outer loop
vertex 0.539783656597 -4.25144577026 175.018005371
vertex 0.473092556 -4.3013882637 175.018005371
vertex 0.539759218693 -4.30144548416 175.018005371
endloop
endfacet
facet normal 0.0 0.0 1.0
outer loop
vertex 0.473154008389 -4.25138807297 175.018005371
vertex 0.406524419785 -4.25128173828 175.018005371
vertex 0.473092556 -4.3013882637 175.018005371
endloop
endfacet
facet normal 0.0 0.0 1.0
outer loop
vertex 0.406524419785 -4.25128173828 175.018005371
vertex 0.406425982714 -4.30128145218 175.018005371
vertex 0.473092556 -4.3013882637 175.018005371
endloop
endfacet
facet normal 0.0 0.0 -1.0
outer loop
vertex 0.539759159088 -4.30144548416 171.427001953
vertex 0.539783656597 -4.25144529343 171.427001953
vertex 0.606413304806 -4.25145339966 171.427001953
endloop
endfacet
facet normal 0.0 0.0 -1.0
outer loop
vertex 0.539759159088 -4.30144548416 171.427001953
vertex 0.606413304806 -4.25145339966 171.427001953
vertex 0.606425821781 -4.30145359039 171.427001953
endloop
endfacet
facet normal 0.0 0.0 -1.0
outer loop
vertex 0.473154008389 -4.25138807297 171.427001953
vertex 0.539783656597 -4.25144529343 171.427001953
vertex 0.539759159088 -4.30144548416 171.427001953
endloop
endfacet
facet normal 0.0 0.0 -1.0
outer loop
vertex 0.473092526197 -4.3013882637 171.427001953
vertex 0.473154008389 -4.25138807297 171.427001953
vertex 0.539759159088 -4.30144548416 171.427001953
endloop
endfacet
facet normal 0.0 0.0 -1.0
outer loop
vertex 0.406524389982 -4.25128173828 171.427001953
vertex 0.473154008389 -4.25138807297 171.427001953
vertex 0.473092526197 -4.3013882637 171.427001953
endloop
endfacet
facet normal 0.0 0.0 -1.0
outer loop
vertex 0.406425952911 -4.30128145218 171.427001953
vertex 0.406524389982 -4.25128173828 171.427001953
vertex 0.473092526197 -4.3013882637 171.427001953
endloop
endfacet
