solid 
facet normal -0.204613447189 -0.978842914104 -6.51614726621e-08
outer loop
vertex -19.0552501678 -2.38805103302 153.351989746
vertex -18.9899940491 -2.4016919136 153.351989746
vertex -18.9899940491 -2.40169215202 156.942993164
endloop
endfacet
facet normal -0.204613447189 -0.978842914104 -6.49886118254e-08
outer loop
vertex -19.0552501678 -2.38805103302 153.351989746
vertex -18.9899940491 -2.40169215202 156.942993164
vertex -19.0552501678 -2.38805127144 156.942993164
endloop
endfacet
facet normal -0.205343365669 -0.978689968586 0.0
outer loop
vertex -19.1204948425 -2.37436199188 153.351989746
vertex -19.0552501678 -2.38805127144 156.942993164
vertex -19.1204948425 -2.37436199188 156.942993164
endloop
endfacet
facet normal -0.205339923501 -0.978690683842 -6.51627658499e-08
outer loop
vertex -19.1204948425 -2.37436199188 153.351989746
vertex -19.0552501678 -2.38805103302 153.351989746
vertex -19.0552501678 -2.38805127144 156.942993164
endloop
endfacet
facet normal -0.206058233976 -0.978539705276 0.0
outer loop
vertex -19.1857318878 -2.36062455177 153.351989746
vertex -19.1204948425 -2.37436199188 156.942993164
vertex -19.1857318878 -2.36062455177 156.942993164
endloop
endfacet
facet normal -0.206058233976 -0.978539705276 0.0
outer loop
vertex -19.1857318878 -2.36062455177 153.351989746
vertex -19.1204948425 -2.37436199188 153.351989746
vertex -19.1204948425 -2.37436199188 156.942993164
endloop
endfacet
facet normal -0.978457212448 0.206449747086 0.0
outer loop
vertex -19.1857318878 -2.36062455177 153.351989746
vertex -19.1857318878 -2.36062455177 156.942993164
vertex -19.175409317 -2.31170129776 153.351989746
endloop
endfacet
facet normal -0.978457033634 0.20645070076 1.36157680686e-08
outer loop
vertex -19.1857318878 -2.36062455177 156.942993164
vertex -19.175409317 -2.31170153618 156.942993164
vertex -19.175409317 -2.31170129776 153.351989746
endloop
endfacet
facet normal 0.204612642527 0.978843033314 6.49886189308e-08
outer loop
vertex -18.9797801971 -2.35274624825 156.942993164
vertex -18.9797801971 -2.35274600983 153.351989746
vertex -19.0450000763 -2.33911299706 156.942993164
endloop
endfacet
facet normal 0.204612642527 0.978843033314 6.49544134035e-08
outer loop
vertex -18.9797801971 -2.35274600983 153.351989746
vertex -19.0450000763 -2.33911275864 153.351989746
vertex -19.0450000763 -2.33911299706 156.942993164
endloop
endfacet
facet normal 0.205337256193 0.978691339493 6.49538449693e-08
outer loop
vertex -19.0450000763 -2.33911299706 156.942993164
vertex -19.1102104187 -2.32543110847 153.351989746
vertex -19.1102104187 -2.32543134689 156.942993164
endloop
endfacet
facet normal 0.205337256193 0.978691339493 6.49785505402e-08
outer loop
vertex -19.0450000763 -2.33911275864 153.351989746
vertex -19.1102104187 -2.32543110847 153.351989746
vertex -19.0450000763 -2.33911299706 156.942993164
endloop
endfacet
facet normal 0.206064030528 0.978538513184 6.49550955245e-08
outer loop
vertex -19.1102104187 -2.32543134689 156.942993164
vertex -19.175409317 -2.31170129776 153.351989746
vertex -19.175409317 -2.31170153618 156.942993164
endloop
endfacet
facet normal 0.206064030528 0.978538513184 6.496840399e-08
outer loop
vertex -19.1102104187 -2.32543110847 153.351989746
vertex -19.175409317 -2.31170129776 153.351989746
vertex -19.1102104187 -2.32543134689 156.942993164
endloop
endfacet
facet normal 0.978913366795 -0.204276069999 -1.36157485287e-08
outer loop
vertex -18.9797801971 -2.35274600983 153.351989746
vertex -18.9899940491 -2.40169215202 156.942993164
vertex -18.9899940491 -2.4016919136 153.351989746
endloop
endfacet
facet normal 0.978913366795 -0.204276069999 -1.35625617403e-08
outer loop
vertex -18.9797801971 -2.35274624825 156.942993164
vertex -18.9899940491 -2.40169215202 156.942993164
vertex -18.9797801971 -2.35274600983 153.351989746
endloop
endfacet
facet normal 0.0 -0.0 1.0
outer loop
vertex -19.1204948425 -2.37436199188 156.942993164
vertex -19.1102104187 -2.32543134689 156.942993164
vertex -19.175409317 -2.31170153618 156.942993164
endloop
endfacet
facet normal 0.0 0.0 1.0
outer loop
vertex -19.1204948425 -2.37436199188 156.942993164
vertex -19.175409317 -2.31170153618 156.942993164
vertex -19.1857318878 -2.36062455177 156.942993164
endloop
endfacet
facet normal 0.0 -0.0 1.0
outer loop
vertex -19.0552501678 -2.38805127144 156.942993164
vertex -19.0450000763 -2.33911299706 156.942993164
vertex -19.1102104187 -2.32543134689 156.942993164
endloop
endfacet
facet normal 0.0 0.0 1.0
outer loop
vertex -19.0552501678 -2.38805127144 156.942993164
vertex -19.1102104187 -2.32543134689 156.942993164
vertex -19.1204948425 -2.37436199188 156.942993164
endloop
endfacet
facet normal 0.0 -0.0 1.0
outer loop
vertex -18.9899940491 -2.40169215202 156.942993164
vertex -18.9797801971 -2.35274624825 156.942993164
vertex -19.0450000763 -2.33911299706 156.942993164
endloop
endfacet
facet normal 0.0 0.0 1.0
outer loop
vertex -18.9899940491 -2.40169215202 156.942993164
vertex -19.0450000763 -2.33911299706 156.942993164
vertex -19.0552501678 -2.38805127144 156.942993164
endloop
endfacet
facet normal -0.0 0.0 -1.0
outer loop
vertex -19.1102104187 -2.32543110847 153.351989746
vertex -19.1204948425 -2.37436199188 153.351989746
vertex -19.175409317 -2.31170129776 153.351989746
endloop
endfacet
facet normal 0.0 -0.0 -1.0
outer loop
vertex -19.175409317 -2.31170129776 153.351989746
vertex -19.1204948425 -2.37436199188 153.351989746
vertex -19.1857318878 -2.36062455177 153.351989746
endloop
endfacet
facet normal -0.0 0.0 -1.0
outer loop
vertex -19.0450000763 -2.33911275864 153.351989746
vertex -19.0552501678 -2.38805103302 153.351989746
vertex -19.1102104187 -2.32543110847 153.351989746
endloop
endfacet
facet normal 0.0 -0.0 -1.0
outer loop
vertex -19.1102104187 -2.32543110847 153.351989746
vertex -19.0552501678 -2.38805103302 153.351989746
vertex -19.1204948425 -2.37436199188 153.351989746
endloop
endfacet
facet normal -0.0 0.0 -1.0
outer loop
vertex -18.9797801971 -2.35274600983 153.351989746
vertex -18.9899940491 -2.4016919136 153.351989746
vertex -19.0450000763 -2.33911275864 153.351989746
endloop
endfacet
facet normal 0.0 -0.0 -1.0
outer loop
vertex -19.0450000763 -2.33911275864 153.351989746
vertex -18.9899940491 -2.4016919136 153.351989746
vertex -19.0552501678 -2.38805103302 153.351989746
endloop
endfacet
