solid 
facet normal -0.00159502052702 0.999998748302 1.32773337214e-07
outer loop
vertex 0.473087161779 4.3013882637 53.7250022888
vertex 0.406420588493 4.30128192902 53.7250022888
vertex 0.406420558691 4.30128145218 57.3160018921
endloop
endfacet
facet normal -0.00160217308439 0.999998748302 -1.32967092198e-11
outer loop
vertex 0.473087161779 4.3013882637 53.7250022888
vertex 0.406420558691 4.30128145218 57.3160018921
vertex 0.473087131977 4.3013882637 57.3160018921
endloop
endfacet
facet normal -0.000858306651935 0.999999642372 0.0
outer loop
vertex 0.53975379467 4.30144548416 53.7250022888
vertex 0.473087131977 4.3013882637 57.3160018921
vertex 0.53975379467 4.30144548416 57.3160018921
endloop
endfacet
facet normal -0.000121593482618 1.0 0.0
outer loop
vertex 0.53975379467 4.30144548416 53.7250022888
vertex 0.53975379467 4.30144548416 57.3160018921
vertex 0.606420457363 4.30145359039 57.3160018921
endloop
endfacet
facet normal -0.000858307001181 0.999999642372 -6.64835460989e-12
outer loop
vertex 0.53975379467 4.30144548416 53.7250022888
vertex 0.473087161779 4.3013882637 53.7250022888
vertex 0.473087131977 4.3013882637 57.3160018921
endloop
endfacet
facet normal -0.000121593482618 1.0 0.0
outer loop
vertex 0.606420457363 4.30145359039 53.7250022888
vertex 0.53975379467 4.30144548416 53.7250022888
vertex 0.606420457363 4.30145359039 57.3160018921
endloop
endfacet
facet normal 1.0 -0.00025033854763 0.0
outer loop
vertex 0.606407940388 4.25145339966 53.7250022888
vertex 0.606420457363 4.30145359039 53.7250022888
vertex 0.606420457363 4.30145359039 57.3160018921
endloop
endfacet
facet normal 1.0 -0.00025033854763 0.0
outer loop
vertex 0.606407940388 4.25145339966 53.7250022888
vertex 0.606420457363 4.30145359039 57.3160018921
vertex 0.606407940388 4.25145339966 57.3160018921
endloop
endfacet
facet normal 0.00159590586554 -0.999998748302 -1.32786226459e-07
outer loop
vertex 0.406519025564 4.25128173828 57.3160018921
vertex 0.473148614168 4.2513885498 53.7250022888
vertex 0.473148614168 4.25138807297 57.3160018921
endloop
endfacet
facet normal 0.00160306238104 -0.999998748302 0.0
outer loop
vertex 0.406519025564 4.25128173828 53.7250022888
vertex 0.473148614168 4.2513885498 53.7250022888
vertex 0.406519025564 4.25128173828 57.3160018921
endloop
endfacet
facet normal 0.000858783838339 -0.999999642372 -1.32771077688e-07
outer loop
vertex 0.473148614168 4.25138807297 57.3160018921
vertex 0.539778292179 4.25144577026 53.7250022888
vertex 0.539778232574 4.25144529343 57.3160018921
endloop
endfacet
facet normal 0.00085878308164 -0.999999642372 -1.32786695417e-07
outer loop
vertex 0.473148614168 4.2513885498 53.7250022888
vertex 0.539778292179 4.25144577026 53.7250022888
vertex 0.473148614168 4.25138807297 57.3160018921
endloop
endfacet
facet normal 0.000121660916193 -1.0 0.0
outer loop
vertex 0.539778232574 4.25144529343 57.3160018921
vertex 0.606407940388 4.25145339966 53.7250022888
vertex 0.606407940388 4.25145339966 57.3160018921
endloop
endfacet
facet normal 0.000114504502562 -1.0 -1.32784848006e-07
outer loop
vertex 0.539778292179 4.25144577026 53.7250022888
vertex 0.606407940388 4.25145339966 53.7250022888
vertex 0.539778232574 4.25144529343 57.3160018921
endloop
endfacet
facet normal -0.999998092651 -0.00196873000823 0.0
outer loop
vertex 0.406420588493 4.30128192902 53.7250022888
vertex 0.406519025564 4.25128173828 53.7250022888
vertex 0.406519025564 4.25128173828 57.3160018921
endloop
endfacet
facet normal -0.999998092651 -0.00196934491396 -8.56065884847e-09
outer loop
vertex 0.406420588493 4.30128192902 53.7250022888
vertex 0.406519025564 4.25128173828 57.3160018921
vertex 0.406420558691 4.30128145218 57.3160018921
endloop
endfacet
facet normal -0.0 0.0 -1.0
outer loop
vertex 0.606407940388 4.25145339966 53.7250022888
vertex 0.539778292179 4.25144577026 53.7250022888
vertex 0.606420457363 4.30145359039 53.7250022888
endloop
endfacet
facet normal 0.0 0.0 -1.0
outer loop
vertex 0.539778292179 4.25144577026 53.7250022888
vertex 0.53975379467 4.30144548416 53.7250022888
vertex 0.606420457363 4.30145359039 53.7250022888
endloop
endfacet
facet normal 0.0 0.0 -1.0
outer loop
vertex 0.473148614168 4.2513885498 53.7250022888
vertex 0.473087161779 4.3013882637 53.7250022888
vertex 0.539778292179 4.25144577026 53.7250022888
endloop
endfacet
facet normal 0.0 0.0 -1.0
outer loop
vertex 0.539778292179 4.25144577026 53.7250022888
vertex 0.473087161779 4.3013882637 53.7250022888
vertex 0.53975379467 4.30144548416 53.7250022888
endloop
endfacet
facet normal -0.0 0.0 -1.0
outer loop
vertex 0.473148614168 4.2513885498 53.7250022888
vertex 0.406519025564 4.25128173828 53.7250022888
vertex 0.473087161779 4.3013882637 53.7250022888
endloop
endfacet
facet normal 0.0 0.0 -1.0
outer loop
vertex 0.406519025564 4.25128173828 53.7250022888
vertex 0.406420588493 4.30128192902 53.7250022888
vertex 0.473087161779 4.3013882637 53.7250022888
endloop
endfacet
facet normal 0.0 0.0 1.0
outer loop
vertex 0.539778232574 4.25144529343 57.3160018921
vertex 0.606407940388 4.25145339966 57.3160018921
vertex 0.606420457363 4.30145359039 57.3160018921
endloop
endfacet
facet normal -0.0 0.0 1.0
outer loop
vertex 0.53975379467 4.30144548416 57.3160018921
vertex 0.539778232574 4.25144529343 57.3160018921
vertex 0.606420457363 4.30145359039 57.3160018921
endloop
endfacet
facet normal 0.0 0.0 1.0
outer loop
vertex 0.473087131977 4.3013882637 57.3160018921
vertex 0.473148614168 4.25138807297 57.3160018921
vertex 0.539778232574 4.25144529343 57.3160018921
endloop
endfacet
facet normal -0.0 0.0 1.0
outer loop
vertex 0.473087131977 4.3013882637 57.3160018921
vertex 0.539778232574 4.25144529343 57.3160018921
vertex 0.53975379467 4.30144548416 57.3160018921
endloop
endfacet
facet normal 0.0 0.0 1.0
outer loop
vertex 0.406420558691 4.30128145218 57.3160018921
vertex 0.406519025564 4.25128173828 57.3160018921
vertex 0.473148614168 4.25138807297 57.3160018921
endloop
endfacet
facet normal -0.0 0.0 1.0
outer loop
vertex 0.406420558691 4.30128145218 57.3160018921
vertex 0.473148614168 4.25138807297 57.3160018921
vertex 0.473087131977 4.3013882637 57.3160018921
endloop
endfacet
