solid 
facet normal 0.204616874456 0.978842139244 6.51614229241e-08
outer loop
vertex 19.0552539825 2.38805031776 107.88999939
vertex 18.9899978638 2.40169143677 107.88999939
vertex 18.9899978638 2.40169119835 111.481002808
endloop
endfacet
facet normal 0.204613447189 0.978842914104 -0.0
outer loop
vertex 19.0552539825 2.38805031776 107.88999939
vertex 18.9899978638 2.40169119835 111.481002808
vertex 19.0552539825 2.38805031776 111.481002808
endloop
endfacet
facet normal 0.205343365669 0.978689968586 6.49784652751e-08
outer loop
vertex 19.1204986572 2.37436127663 107.88999939
vertex 19.0552539825 2.38805031776 111.481002808
vertex 19.1204986572 2.37436103821 111.481002808
endloop
endfacet
facet normal 0.205339923501 0.978690683842 0.0
outer loop
vertex 19.1204986572 2.37436127663 107.88999939
vertex 19.0552539825 2.38805031776 107.88999939
vertex 19.0552539825 2.38805031776 111.481002808
endloop
endfacet
facet normal 0.206058233976 0.978539705276 6.49684821497e-08
outer loop
vertex 19.1857357025 2.36062383652 107.88999939
vertex 19.1204986572 2.37436103821 111.481002808
vertex 19.1857357025 2.3606235981 111.481002808
endloop
endfacet
facet normal 0.206058233976 0.978539705276 6.4917195175e-08
outer loop
vertex 19.1857357025 2.36062383652 107.88999939
vertex 19.1204986572 2.37436127663 107.88999939
vertex 19.1204986572 2.37436103821 111.481002808
endloop
endfacet
facet normal 0.978464901447 -0.206413239241 -1.36158115893e-08
outer loop
vertex 19.1754150391 2.3117005825 107.88999939
vertex 19.1857357025 2.36062383652 107.88999939
vertex 19.1857357025 2.3606235981 111.481002808
endloop
endfacet
facet normal 0.978457033634 -0.206450730562 5.19703917234e-07
outer loop
vertex 19.1754150391 2.3117005825 107.88999939
vertex 19.1857357025 2.3606235981 111.481002808
vertex 19.1754131317 2.3117005825 111.481002808
endloop
endfacet
facet normal -0.204616069794 -0.978842318058 -0.0
outer loop
vertex 18.9797840118 2.35274529457 111.481002808
vertex 18.9797840118 2.35274529457 107.88999939
vertex 19.045003891 2.33911180496 111.481002808
endloop
endfacet
facet normal -0.204612642527 -0.978843033314 -6.49544134035e-08
outer loop
vertex 18.9797840118 2.35274529457 107.88999939
vertex 19.045003891 2.33911204338 107.88999939
vertex 19.045003891 2.33911180496 111.481002808
endloop
endfacet
facet normal -0.205333814025 -0.978691995144 0.0
outer loop
vertex 19.045003891 2.33911180496 111.481002808
vertex 19.1102142334 2.32543039322 107.88999939
vertex 19.1102142334 2.32543039322 111.481002808
endloop
endfacet
facet normal -0.205337256193 -0.978691339493 -6.49785505402e-08
outer loop
vertex 19.045003891 2.33911204338 107.88999939
vertex 19.1102142334 2.32543039322 107.88999939
vertex 19.045003891 2.33911180496 111.481002808
endloop
endfacet
facet normal -0.206064030528 -0.978538513184 -1.09474882493e-07
outer loop
vertex 19.1102142334 2.32543039322 111.481002808
vertex 19.1754150391 2.3117005825 107.88999939
vertex 19.1754131317 2.3117005825 111.481002808
endloop
endfacet
facet normal -0.206058263779 -0.978539764881 0.0
outer loop
vertex 19.1102142334 2.32543039322 107.88999939
vertex 19.1754150391 2.3117005825 107.88999939
vertex 19.1102142334 2.32543039322 111.481002808
endloop
endfacet
facet normal -0.978913366795 0.204276069999 0.0
outer loop
vertex 18.9797840118 2.35274529457 107.88999939
vertex 18.9797840118 2.35274529457 111.481002808
vertex 18.9899978638 2.40169119835 111.481002808
endloop
endfacet
facet normal -0.978913545609 0.204275101423 1.35624977915e-08
outer loop
vertex 18.9899978638 2.40169143677 107.88999939
vertex 18.9797840118 2.35274529457 107.88999939
vertex 18.9899978638 2.40169119835 111.481002808
endloop
endfacet
facet normal 0.0 0.0 -1.0
outer loop
vertex 19.1754150391 2.3117005825 107.88999939
vertex 19.1102142334 2.32543039322 107.88999939
vertex 19.1857357025 2.36062383652 107.88999939
endloop
endfacet
facet normal 0.0 0.0 -1.0
outer loop
vertex 19.1102142334 2.32543039322 107.88999939
vertex 19.1204986572 2.37436127663 107.88999939
vertex 19.1857357025 2.36062383652 107.88999939
endloop
endfacet
facet normal 0.0 0.0 -1.0
outer loop
vertex 19.045003891 2.33911204338 107.88999939
vertex 19.0552539825 2.38805031776 107.88999939
vertex 19.1102142334 2.32543039322 107.88999939
endloop
endfacet
facet normal 0.0 0.0 -1.0
outer loop
vertex 19.1102142334 2.32543039322 107.88999939
vertex 19.0552539825 2.38805031776 107.88999939
vertex 19.1204986572 2.37436127663 107.88999939
endloop
endfacet
facet normal 0.0 0.0 -1.0
outer loop
vertex 18.9797840118 2.35274529457 107.88999939
vertex 18.9899978638 2.40169143677 107.88999939
vertex 19.045003891 2.33911204338 107.88999939
endloop
endfacet
facet normal 0.0 0.0 -1.0
outer loop
vertex 19.045003891 2.33911204338 107.88999939
vertex 18.9899978638 2.40169143677 107.88999939
vertex 19.0552539825 2.38805031776 107.88999939
endloop
endfacet
facet normal -0.0 0.0 1.0
outer loop
vertex 19.1102142334 2.32543039322 111.481002808
vertex 19.1754131317 2.3117005825 111.481002808
vertex 19.1857357025 2.3606235981 111.481002808
endloop
endfacet
facet normal 0.0 0.0 1.0
outer loop
vertex 19.1204986572 2.37436103821 111.481002808
vertex 19.1102142334 2.32543039322 111.481002808
vertex 19.1857357025 2.3606235981 111.481002808
endloop
endfacet
facet normal 0.0 0.0 1.0
outer loop
vertex 19.0552539825 2.38805031776 111.481002808
vertex 19.045003891 2.33911180496 111.481002808
vertex 19.1102142334 2.32543039322 111.481002808
endloop
endfacet
facet normal 0.0 0.0 1.0
outer loop
vertex 19.0552539825 2.38805031776 111.481002808
vertex 19.1102142334 2.32543039322 111.481002808
vertex 19.1204986572 2.37436103821 111.481002808
endloop
endfacet
facet normal 0.0 0.0 1.0
outer loop
vertex 18.9899978638 2.40169119835 111.481002808
vertex 18.9797840118 2.35274529457 111.481002808
vertex 19.045003891 2.33911180496 111.481002808
endloop
endfacet
facet normal 0.0 0.0 1.0
outer loop
vertex 18.9899978638 2.40169119835 111.481002808
vertex 19.045003891 2.33911180496 111.481002808
vertex 19.0552539825 2.38805031776 111.481002808
endloop
endfacet
