solid 
facet normal 0.204613447189 -0.9788428545 0.0
outer loop
vertex 19.0552425385 -2.38805294037 -60.5580024719
vertex 18.9899864197 -2.40169382095 -60.5580024719
vertex 18.9899864197 -2.40169382095 -64.1490020752
endloop
endfacet
facet normal 0.204613447189 -0.9788428545 0.0
outer loop
vertex 19.0552425385 -2.38805294037 -60.5580024719
vertex 18.9899864197 -2.40169382095 -64.1490020752
vertex 19.0552425385 -2.38805294037 -64.1490020752
endloop
endfacet
facet normal 0.205337613821 -0.978691160679 0.0
outer loop
vertex 19.1204891205 -2.37436366081 -60.5580024719
vertex 19.0552425385 -2.38805294037 -64.1490020752
vertex 19.1204891205 -2.37436366081 -64.1490020752
endloop
endfacet
facet normal 0.205337613821 -0.978691160679 0.0
outer loop
vertex 19.1204891205 -2.37436366081 -60.5580024719
vertex 19.0552425385 -2.38805294037 -60.5580024719
vertex 19.0552425385 -2.38805294037 -64.1490020752
endloop
endfacet
facet normal 0.206064015627 -0.978538513184 0.0
outer loop
vertex 19.1857242584 -2.3606262207 -60.5580024719
vertex 19.1204891205 -2.37436366081 -64.1490020752
vertex 19.1857242584 -2.3606262207 -64.1490020752
endloop
endfacet
facet normal 0.206064015627 -0.978538513184 0.0
outer loop
vertex 19.1857242584 -2.3606262207 -60.5580024719
vertex 19.1204891205 -2.37436366081 -60.5580024719
vertex 19.1204891205 -2.37436366081 -64.1490020752
endloop
endfacet
facet normal 0.978464722633 0.206414192915 0.0
outer loop
vertex 19.175403595 -2.31170320511 -60.5580024719
vertex 19.1857242584 -2.3606262207 -60.5580024719
vertex 19.1857242584 -2.3606262207 -64.1490020752
endloop
endfacet
facet normal 0.978464722633 0.206414192915 0.0
outer loop
vertex 19.175403595 -2.31170320511 -60.5580024719
vertex 19.1857242584 -2.3606262207 -64.1490020752
vertex 19.175403595 -2.31170320511 -64.1490020752
endloop
endfacet
facet normal -0.204616069794 0.978842258453 0.0
outer loop
vertex 18.9797744751 -2.35274791718 -64.1490020752
vertex 18.9797744751 -2.35274791718 -60.5580024719
vertex 19.0449943542 -2.33911442757 -64.1490020752
endloop
endfacet
facet normal -0.204612657428 0.978843033314 6.49544773523e-08
outer loop
vertex 18.9797744751 -2.35274791718 -60.5580024719
vertex 19.0449943542 -2.33911466599 -60.5580024719
vertex 19.0449943542 -2.33911442757 -64.1490020752
endloop
endfacet
facet normal -0.205339565873 0.978690803051 0.0
outer loop
vertex 19.0449943542 -2.33911442757 -64.1490020752
vertex 19.1102027893 -2.32543301582 -60.5580024719
vertex 19.1102027893 -2.32543301582 -64.1490020752
endloop
endfacet
facet normal -0.20534299314 0.978690087795 6.49785363294e-08
outer loop
vertex 19.0449943542 -2.33911466599 -60.5580024719
vertex 19.1102027893 -2.32543301582 -60.5580024719
vertex 19.0449943542 -2.33911442757 -64.1490020752
endloop
endfacet
facet normal -0.206058263779 0.978539705276 0.0
outer loop
vertex 19.1102027893 -2.32543301582 -64.1490020752
vertex 19.175403595 -2.31170320511 -60.5580024719
vertex 19.175403595 -2.31170320511 -64.1490020752
endloop
endfacet
facet normal -0.206058263779 0.978539705276 0.0
outer loop
vertex 19.1102027893 -2.32543301582 -60.5580024719
vertex 19.175403595 -2.31170320511 -60.5580024719
vertex 19.1102027893 -2.32543301582 -64.1490020752
endloop
endfacet
facet normal -0.978920936584 -0.204239472747 -0.0
outer loop
vertex 18.9797744751 -2.35274791718 -60.5580024719
vertex 18.9797744751 -2.35274791718 -64.1490020752
vertex 18.9899864197 -2.40169382095 -64.1490020752
endloop
endfacet
facet normal -0.978920936584 -0.204239472747 -0.0
outer loop
vertex 18.9899864197 -2.40169382095 -60.5580024719
vertex 18.9797744751 -2.35274791718 -60.5580024719
vertex 18.9899864197 -2.40169382095 -64.1490020752
endloop
endfacet
facet normal 0.0 0.0 1.0
outer loop
vertex 19.175403595 -2.31170320511 -60.5580024719
vertex 19.1102027893 -2.32543301582 -60.5580024719
vertex 19.1857242584 -2.3606262207 -60.5580024719
endloop
endfacet
facet normal 0.0 0.0 1.0
outer loop
vertex 19.1102027893 -2.32543301582 -60.5580024719
vertex 19.1204891205 -2.37436366081 -60.5580024719
vertex 19.1857242584 -2.3606262207 -60.5580024719
endloop
endfacet
facet normal -0.0 0.0 1.0
outer loop
vertex 19.0449943542 -2.33911466599 -60.5580024719
vertex 19.0552425385 -2.38805294037 -60.5580024719
vertex 19.1102027893 -2.32543301582 -60.5580024719
endloop
endfacet
facet normal 0.0 0.0 1.0
outer loop
vertex 19.1102027893 -2.32543301582 -60.5580024719
vertex 19.0552425385 -2.38805294037 -60.5580024719
vertex 19.1204891205 -2.37436366081 -60.5580024719
endloop
endfacet
facet normal -0.0 0.0 1.0
outer loop
vertex 18.9797744751 -2.35274791718 -60.5580024719
vertex 18.9899864197 -2.40169382095 -60.5580024719
vertex 19.0449943542 -2.33911466599 -60.5580024719
endloop
endfacet
facet normal 0.0 0.0 1.0
outer loop
vertex 19.0449943542 -2.33911466599 -60.5580024719
vertex 18.9899864197 -2.40169382095 -60.5580024719
vertex 19.0552425385 -2.38805294037 -60.5580024719
endloop
endfacet
facet normal 0.0 0.0 -1.0
outer loop
vertex 19.1102027893 -2.32543301582 -64.1490020752
vertex 19.175403595 -2.31170320511 -64.1490020752
vertex 19.1857242584 -2.3606262207 -64.1490020752
endloop
endfacet
facet normal 0.0 0.0 -1.0
outer loop
vertex 19.1204891205 -2.37436366081 -64.1490020752
vertex 19.1102027893 -2.32543301582 -64.1490020752
vertex 19.1857242584 -2.3606262207 -64.1490020752
endloop
endfacet
facet normal 0.0 0.0 -1.0
outer loop
vertex 19.0552425385 -2.38805294037 -64.1490020752
vertex 19.0449943542 -2.33911442757 -64.1490020752
vertex 19.1102027893 -2.32543301582 -64.1490020752
endloop
endfacet
facet normal 0.0 0.0 -1.0
outer loop
vertex 19.0552425385 -2.38805294037 -64.1490020752
vertex 19.1102027893 -2.32543301582 -64.1490020752
vertex 19.1204891205 -2.37436366081 -64.1490020752
endloop
endfacet
facet normal 0.0 0.0 -1.0
outer loop
vertex 18.9899864197 -2.40169382095 -64.1490020752
vertex 18.9797744751 -2.35274791718 -64.1490020752
vertex 19.0449943542 -2.33911442757 -64.1490020752
endloop
endfacet
facet normal 0.0 0.0 -1.0
outer loop
vertex 18.9899864197 -2.40169382095 -64.1490020752
vertex 19.0449943542 -2.33911442757 -64.1490020752
vertex 19.0552425385 -2.38805294037 -64.1490020752
endloop
endfacet
