solid 
facet normal 0.00159502052702 -0.999998748302 1.32967092198e-11
outer loop
vertex -0.473087280989 -4.30138778687 -46.0740013123
vertex -0.406420707703 -4.30128145218 -46.0740013123
vertex -0.406420737505 -4.30128145218 -42.483001709
endloop
endfacet
facet normal 0.00159502052702 -0.999998748302 1.32373495845e-11
outer loop
vertex -0.473087280989 -4.30138778687 -46.0740013123
vertex -0.406420737505 -4.30128145218 -42.483001709
vertex -0.473087310791 -4.30138778687 -42.483001709
endloop
endfacet
facet normal 0.000858306651935 -0.999999642372 1.42464685882e-11
outer loop
vertex -0.539753913879 -4.30144500732 -46.0740013123
vertex -0.473087310791 -4.30138778687 -42.483001709
vertex -0.539753973484 -4.30144500732 -42.483001709
endloop
endfacet
facet normal 0.000858307001181 -0.999999642372 7.5981200498e-12
outer loop
vertex -0.539753913879 -4.30144500732 -46.0740013123
vertex -0.473087280989 -4.30138778687 -46.0740013123
vertex -0.473087310791 -4.30138778687 -42.483001709
endloop
endfacet
facet normal 0.000121593482618 -1.0 2.01825036718e-12
outer loop
vertex -0.606420576572 -4.30145311356 -46.0740013123
vertex -0.539753973484 -4.30144500732 -42.483001709
vertex -0.606420636177 -4.30145311356 -42.483001709
endloop
endfacet
facet normal 0.000121593482618 -1.0 1.89952979561e-12
outer loop
vertex -0.606420576572 -4.30145311356 -46.0740013123
vertex -0.539753913879 -4.30144500732 -46.0740013123
vertex -0.539753973484 -4.30144500732 -42.483001709
endloop
endfacet
facet normal -1.0 0.00025033854763 -1.65651012907e-08
outer loop
vertex -0.606420576572 -4.30145311356 -46.0740013123
vertex -0.606408119202 -4.25145339966 -42.483001709
vertex -0.606408059597 -4.25145292282 -46.0740013123
endloop
endfacet
facet normal -0.999999940395 0.000250340934144 -1.65983422562e-08
outer loop
vertex -0.606420636177 -4.30145311356 -42.483001709
vertex -0.606408119202 -4.25145339966 -42.483001709
vertex -0.606420576572 -4.30145311356 -46.0740013123
endloop
endfacet
facet normal -0.00160306238104 0.999998748302 0.0
outer loop
vertex -0.406519174576 -4.25128126144 -42.483001709
vertex -0.47314876318 -4.25138807297 -46.0740013123
vertex -0.47314876318 -4.25138807297 -42.483001709
endloop
endfacet
facet normal -0.00160306238104 0.999998748302 0.0
outer loop
vertex -0.406519174576 -4.25128126144 -46.0740013123
vertex -0.47314876318 -4.25138807297 -46.0740013123
vertex -0.406519174576 -4.25128126144 -42.483001709
endloop
endfacet
facet normal -0.000858783430886 0.999999642372 0.0
outer loop
vertex -0.47314876318 -4.25138807297 -42.483001709
vertex -0.539778411388 -4.25144529343 -46.0740013123
vertex -0.539778411388 -4.25144529343 -42.483001709
endloop
endfacet
facet normal -0.000858783430886 0.999999642372 0.0
outer loop
vertex -0.47314876318 -4.25138807297 -46.0740013123
vertex -0.539778411388 -4.25144529343 -46.0740013123
vertex -0.47314876318 -4.25138807297 -42.483001709
endloop
endfacet
facet normal -0.000121660916193 1.0 1.32784720108e-07
outer loop
vertex -0.539778411388 -4.25144529343 -42.483001709
vertex -0.606408059597 -4.25145292282 -46.0740013123
vertex -0.606408119202 -4.25145339966 -42.483001709
endloop
endfacet
facet normal -0.000114504502562 1.0 0.0
outer loop
vertex -0.539778411388 -4.25144529343 -46.0740013123
vertex -0.606408059597 -4.25145292282 -46.0740013123
vertex -0.539778411388 -4.25144529343 -42.483001709
endloop
endfacet
facet normal 0.999998092651 0.00196932628751 8.29709811967e-09
outer loop
vertex -0.406519174576 -4.25128126144 -46.0740013123
vertex -0.406420737505 -4.30128145218 -42.483001709
vertex -0.406420707703 -4.30128145218 -46.0740013123
endloop
endfacet
facet normal 0.999998092651 0.00196873000823 0.0
outer loop
vertex -0.406519174576 -4.25128126144 -42.483001709
vertex -0.406420737505 -4.30128145218 -42.483001709
vertex -0.406519174576 -4.25128126144 -46.0740013123
endloop
endfacet
facet normal 0.0 0.0 1.0
outer loop
vertex -0.539778411388 -4.25144529343 -42.483001709
vertex -0.606408119202 -4.25145339966 -42.483001709
vertex -0.606420636177 -4.30145311356 -42.483001709
endloop
endfacet
facet normal 0.0 0.0 1.0
outer loop
vertex -0.539753973484 -4.30144500732 -42.483001709
vertex -0.539778411388 -4.25144529343 -42.483001709
vertex -0.606420636177 -4.30145311356 -42.483001709
endloop
endfacet
facet normal 0.0 0.0 1.0
outer loop
vertex -0.473087310791 -4.30138778687 -42.483001709
vertex -0.47314876318 -4.25138807297 -42.483001709
vertex -0.539778411388 -4.25144529343 -42.483001709
endloop
endfacet
facet normal 0.0 0.0 1.0
outer loop
vertex -0.473087310791 -4.30138778687 -42.483001709
vertex -0.539778411388 -4.25144529343 -42.483001709
vertex -0.539753973484 -4.30144500732 -42.483001709
endloop
endfacet
facet normal 0.0 0.0 1.0
outer loop
vertex -0.406420737505 -4.30128145218 -42.483001709
vertex -0.406519174576 -4.25128126144 -42.483001709
vertex -0.47314876318 -4.25138807297 -42.483001709
endloop
endfacet
facet normal 0.0 0.0 1.0
outer loop
vertex -0.406420737505 -4.30128145218 -42.483001709
vertex -0.47314876318 -4.25138807297 -42.483001709
vertex -0.473087310791 -4.30138778687 -42.483001709
endloop
endfacet
facet normal 0.0 -0.0 -1.0
outer loop
vertex -0.606408059597 -4.25145292282 -46.0740013123
vertex -0.539778411388 -4.25144529343 -46.0740013123
vertex -0.606420576572 -4.30145311356 -46.0740013123
endloop
endfacet
facet normal 0.0 -0.0 -1.0
outer loop
vertex -0.539778411388 -4.25144529343 -46.0740013123
vertex -0.539753913879 -4.30144500732 -46.0740013123
vertex -0.606420576572 -4.30145311356 -46.0740013123
endloop
endfacet
facet normal 0.0 -0.0 -1.0
outer loop
vertex -0.47314876318 -4.25138807297 -46.0740013123
vertex -0.473087280989 -4.30138778687 -46.0740013123
vertex -0.539778411388 -4.25144529343 -46.0740013123
endloop
endfacet
facet normal 0.0 0.0 -1.0
outer loop
vertex -0.539778411388 -4.25144529343 -46.0740013123
vertex -0.473087280989 -4.30138778687 -46.0740013123
vertex -0.539753913879 -4.30144500732 -46.0740013123
endloop
endfacet
facet normal 0.0 -0.0 -1.0
outer loop
vertex -0.406519174576 -4.25128126144 -46.0740013123
vertex -0.406420707703 -4.30128145218 -46.0740013123
vertex -0.47314876318 -4.25138807297 -46.0740013123
endloop
endfacet
facet normal 0.0 0.0 -1.0
outer loop
vertex -0.47314876318 -4.25138807297 -46.0740013123
vertex -0.406420707703 -4.30128145218 -46.0740013123
vertex -0.473087280989 -4.30138778687 -46.0740013123
endloop
endfacet
