solid 
facet normal -0.00159502052702 0.999998748302 0.0
outer loop
vertex 0.406410515308 4.30128097534 17.5749988556
vertex 0.406410515308 4.30128097534 21.1660003662
vertex 0.473077088594 4.30138731003 21.1660003662
endloop
endfacet
facet normal -0.000858307001181 0.999999701977 0.0
outer loop
vertex 0.473077088594 4.30138731003 17.5749988556
vertex 0.473077088594 4.30138731003 21.1660003662
vertex 0.539743721485 4.30144453049 21.1660003662
endloop
endfacet
facet normal -0.00159502052702 0.999998748302 0.0
outer loop
vertex 0.473077088594 4.30138731003 17.5749988556
vertex 0.406410515308 4.30128097534 17.5749988556
vertex 0.473077088594 4.30138731003 21.1660003662
endloop
endfacet
facet normal -0.000121593482618 1.0 0.0
outer loop
vertex 0.539743721485 4.30144453049 17.5749988556
vertex 0.539743721485 4.30144453049 21.1660003662
vertex 0.606410384178 4.30145263672 21.1660003662
endloop
endfacet
facet normal -0.000858307001181 0.999999701977 0.0
outer loop
vertex 0.539743721485 4.30144453049 17.5749988556
vertex 0.473077088594 4.30138731003 17.5749988556
vertex 0.539743721485 4.30144453049 21.1660003662
endloop
endfacet
facet normal -0.000121593482618 1.0 0.0
outer loop
vertex 0.606410384178 4.30145263672 17.5749988556
vertex 0.539743721485 4.30144453049 17.5749988556
vertex 0.606410384178 4.30145263672 21.1660003662
endloop
endfacet
facet normal 1.0 -0.000249148812145 0.0
outer loop
vertex 0.606397926807 4.25145292282 17.5749988556
vertex 0.606410384178 4.30145263672 17.5749988556
vertex 0.606410384178 4.30145263672 21.1660003662
endloop
endfacet
facet normal 1.0 -0.000249148812145 0.0
outer loop
vertex 0.606397926807 4.25145292282 17.5749988556
vertex 0.606410384178 4.30145263672 21.1660003662
vertex 0.606397926807 4.25145292282 21.1660003662
endloop
endfacet
facet normal 0.00160306249745 -0.999998748302 0.0
outer loop
vertex 0.406508982182 4.25128078461 21.1660003662
vertex 0.473138570786 4.25138759613 17.5749988556
vertex 0.473138570786 4.25138759613 21.1660003662
endloop
endfacet
facet normal 0.00160306249745 -0.999998748302 0.0
outer loop
vertex 0.406508982182 4.25128078461 17.5749988556
vertex 0.473138570786 4.25138759613 17.5749988556
vertex 0.406508982182 4.25128078461 21.1660003662
endloop
endfacet
facet normal 0.000858783372678 -0.999999642372 0.0
outer loop
vertex 0.473138570786 4.25138759613 21.1660003662
vertex 0.539768218994 4.25144481659 17.5749988556
vertex 0.539768218994 4.25144481659 21.1660003662
endloop
endfacet
facet normal 0.000858783372678 -0.999999642372 0.0
outer loop
vertex 0.473138570786 4.25138759613 17.5749988556
vertex 0.539768218994 4.25144481659 17.5749988556
vertex 0.473138570786 4.25138759613 21.1660003662
endloop
endfacet
facet normal 0.000121660923469 -1.0 0.0
outer loop
vertex 0.539768218994 4.25144481659 21.1660003662
vertex 0.606397926807 4.25145292282 17.5749988556
vertex 0.606397926807 4.25145292282 21.1660003662
endloop
endfacet
facet normal 0.000121660923469 -1.0 0.0
outer loop
vertex 0.539768218994 4.25144481659 17.5749988556
vertex 0.606397926807 4.25145292282 17.5749988556
vertex 0.539768218994 4.25144481659 21.1660003662
endloop
endfacet
facet normal -0.999998033047 -0.00196932605468 0.0
outer loop
vertex 0.406410515308 4.30128097534 17.5749988556
vertex 0.406508982182 4.25128078461 17.5749988556
vertex 0.406508982182 4.25128078461 21.1660003662
endloop
endfacet
facet normal -0.999998033047 -0.00196932605468 0.0
outer loop
vertex 0.406410515308 4.30128097534 17.5749988556
vertex 0.406508982182 4.25128078461 21.1660003662
vertex 0.406410515308 4.30128097534 21.1660003662
endloop
endfacet
facet normal -0.0 0.0 -1.0
outer loop
vertex 0.606397926807 4.25145292282 17.5749988556
vertex 0.539768218994 4.25144481659 17.5749988556
vertex 0.606410384178 4.30145263672 17.5749988556
endloop
endfacet
facet normal 0.0 0.0 -1.0
outer loop
vertex 0.539768218994 4.25144481659 17.5749988556
vertex 0.539743721485 4.30144453049 17.5749988556
vertex 0.606410384178 4.30145263672 17.5749988556
endloop
endfacet
facet normal 0.0 0.0 -1.0
outer loop
vertex 0.473138570786 4.25138759613 17.5749988556
vertex 0.473077088594 4.30138731003 17.5749988556
vertex 0.539768218994 4.25144481659 17.5749988556
endloop
endfacet
facet normal 0.0 0.0 -1.0
outer loop
vertex 0.539768218994 4.25144481659 17.5749988556
vertex 0.473077088594 4.30138731003 17.5749988556
vertex 0.539743721485 4.30144453049 17.5749988556
endloop
endfacet
facet normal -0.0 0.0 -1.0
outer loop
vertex 0.473138570786 4.25138759613 17.5749988556
vertex 0.406508982182 4.25128078461 17.5749988556
vertex 0.473077088594 4.30138731003 17.5749988556
endloop
endfacet
facet normal 0.0 0.0 -1.0
outer loop
vertex 0.406508982182 4.25128078461 17.5749988556
vertex 0.406410515308 4.30128097534 17.5749988556
vertex 0.473077088594 4.30138731003 17.5749988556
endloop
endfacet
facet normal 0.0 0.0 1.0
outer loop
vertex 0.539768218994 4.25144481659 21.1660003662
vertex 0.606397926807 4.25145292282 21.1660003662
vertex 0.606410384178 4.30145263672 21.1660003662
endloop
endfacet
facet normal -0.0 0.0 1.0
outer loop
vertex 0.539743721485 4.30144453049 21.1660003662
vertex 0.539768218994 4.25144481659 21.1660003662
vertex 0.606410384178 4.30145263672 21.1660003662
endloop
endfacet
facet normal 0.0 0.0 1.0
outer loop
vertex 0.473138570786 4.25138759613 21.1660003662
vertex 0.539768218994 4.25144481659 21.1660003662
vertex 0.539743721485 4.30144453049 21.1660003662
endloop
endfacet
facet normal -0.0 0.0 1.0
outer loop
vertex 0.473077088594 4.30138731003 21.1660003662
vertex 0.473138570786 4.25138759613 21.1660003662
vertex 0.539743721485 4.30144453049 21.1660003662
endloop
endfacet
facet normal 0.0 0.0 1.0
outer loop
vertex 0.406410515308 4.30128097534 21.1660003662
vertex 0.406508982182 4.25128078461 21.1660003662
vertex 0.473138570786 4.25138759613 21.1660003662
endloop
endfacet
facet normal -0.0 0.0 1.0
outer loop
vertex 0.406410515308 4.30128097534 21.1660003662
vertex 0.473138570786 4.25138759613 21.1660003662
vertex 0.473077088594 4.30138731003 21.1660003662
endloop
endfacet
