solid 
facet normal 0.00160217308439 0.999998748302 1.32786638574e-07
outer loop
vertex -0.473087072372 4.3013882637 57.3160018921
vertex -0.406420499086 4.30128145218 57.3160018921
vertex -0.406420499086 4.30128192902 53.7250022888
endloop
endfacet
facet normal 0.00159502052702 0.999998748302 0.0
outer loop
vertex -0.473087072372 4.3013882637 57.3160018921
vertex -0.406420499086 4.30128192902 53.7250022888
vertex -0.473087072372 4.3013882637 53.7250022888
endloop
endfacet
facet normal 0.000858306651935 0.999999642372 0.0
outer loop
vertex -0.539753735065 4.30144548416 57.3160018921
vertex -0.473087072372 4.3013882637 53.7250022888
vertex -0.539753735065 4.30144548416 53.7250022888
endloop
endfacet
facet normal 0.000858306651935 0.999999642372 0.0
outer loop
vertex -0.539753735065 4.30144548416 57.3160018921
vertex -0.473087072372 4.3013882637 57.3160018921
vertex -0.473087072372 4.3013882637 53.7250022888
endloop
endfacet
facet normal 0.000121593482618 1.0 0.0
outer loop
vertex -0.606420397758 4.30145359039 57.3160018921
vertex -0.539753735065 4.30144548416 53.7250022888
vertex -0.606420397758 4.30145359039 53.7250022888
endloop
endfacet
facet normal 0.000121593482618 1.0 0.0
outer loop
vertex -0.606420397758 4.30145359039 57.3160018921
vertex -0.539753735065 4.30144548416 57.3160018921
vertex -0.539753735065 4.30144548416 53.7250022888
endloop
endfacet
facet normal -1.0 -0.00025033854763 0.0
outer loop
vertex -0.606420397758 4.30145359039 57.3160018921
vertex -0.606407880783 4.25145339966 53.7250022888
vertex -0.606407880783 4.25145339966 57.3160018921
endloop
endfacet
facet normal -1.0 -0.00025033854763 0.0
outer loop
vertex -0.606420397758 4.30145359039 53.7250022888
vertex -0.606407880783 4.25145339966 53.7250022888
vertex -0.606420397758 4.30145359039 57.3160018921
endloop
endfacet
facet normal -0.00160306238104 -0.999998748302 1.33040904682e-11
outer loop
vertex -0.40651896596 4.25128173828 53.7250022888
vertex -0.406518936157 4.25128173828 57.3160018921
vertex -0.473148554564 4.2513885498 53.7250022888
endloop
endfacet
facet normal -0.00085878308164 -0.999999642372 -1.32779575779e-07
outer loop
vertex -0.473148554564 4.2513885498 53.7250022888
vertex -0.473148524761 4.25138807297 57.3160018921
vertex -0.539778232574 4.25144577026 53.7250022888
endloop
endfacet
facet normal -0.00159590586554 -0.999998748302 -1.32772925099e-07
outer loop
vertex -0.406518936157 4.25128173828 57.3160018921
vertex -0.473148524761 4.25138807297 57.3160018921
vertex -0.473148554564 4.2513885498 53.7250022888
endloop
endfacet
facet normal -0.000114504502562 -1.0 -1.32784848006e-07
outer loop
vertex -0.539778232574 4.25144577026 53.7250022888
vertex -0.53977817297 4.25144529343 57.3160018921
vertex -0.606407880783 4.25145339966 53.7250022888
endloop
endfacet
facet normal -0.000858783430886 -0.999999642372 -1.32771972972e-07
outer loop
vertex -0.473148524761 4.25138807297 57.3160018921
vertex -0.53977817297 4.25144529343 57.3160018921
vertex -0.539778232574 4.25144577026 53.7250022888
endloop
endfacet
facet normal -0.000121660916193 -1.0 0.0
outer loop
vertex -0.53977817297 4.25144529343 57.3160018921
vertex -0.606407880783 4.25145339966 57.3160018921
vertex -0.606407880783 4.25145339966 53.7250022888
endloop
endfacet
facet normal 0.999998092651 -0.00196874886751 -2.63402466505e-10
outer loop
vertex -0.406518936157 4.25128173828 57.3160018921
vertex -0.406420499086 4.30128192902 53.7250022888
vertex -0.406420499086 4.30128145218 57.3160018921
endloop
endfacet
facet normal 0.999998092651 -0.00196932628751 -8.29915602907e-09
outer loop
vertex -0.40651896596 4.25128173828 53.7250022888
vertex -0.406420499086 4.30128192902 53.7250022888
vertex -0.406518936157 4.25128173828 57.3160018921
endloop
endfacet
facet normal 0.0 0.0 -1.0
outer loop
vertex -0.539778232574 4.25144577026 53.7250022888
vertex -0.606407880783 4.25145339966 53.7250022888
vertex -0.606420397758 4.30145359039 53.7250022888
endloop
endfacet
facet normal -0.0 0.0 -1.0
outer loop
vertex -0.539753735065 4.30144548416 53.7250022888
vertex -0.539778232574 4.25144577026 53.7250022888
vertex -0.606420397758 4.30145359039 53.7250022888
endloop
endfacet
facet normal 0.0 0.0 -1.0
outer loop
vertex -0.473087072372 4.3013882637 53.7250022888
vertex -0.473148554564 4.2513885498 53.7250022888
vertex -0.539778232574 4.25144577026 53.7250022888
endloop
endfacet
facet normal -0.0 0.0 -1.0
outer loop
vertex -0.473087072372 4.3013882637 53.7250022888
vertex -0.539778232574 4.25144577026 53.7250022888
vertex -0.539753735065 4.30144548416 53.7250022888
endloop
endfacet
facet normal 0.0 0.0 -1.0
outer loop
vertex -0.406420499086 4.30128192902 53.7250022888
vertex -0.40651896596 4.25128173828 53.7250022888
vertex -0.473148554564 4.2513885498 53.7250022888
endloop
endfacet
facet normal -0.0 0.0 -1.0
outer loop
vertex -0.406420499086 4.30128192902 53.7250022888
vertex -0.473148554564 4.2513885498 53.7250022888
vertex -0.473087072372 4.3013882637 53.7250022888
endloop
endfacet
facet normal -0.0 -0.0 1.0
outer loop
vertex -0.606407880783 4.25145339966 57.3160018921
vertex -0.53977817297 4.25144529343 57.3160018921
vertex -0.606420397758 4.30145359039 57.3160018921
endloop
endfacet
facet normal 0.0 -0.0 1.0
outer loop
vertex -0.53977817297 4.25144529343 57.3160018921
vertex -0.539753735065 4.30144548416 57.3160018921
vertex -0.606420397758 4.30145359039 57.3160018921
endloop
endfacet
facet normal 0.0 -0.0 1.0
outer loop
vertex -0.473148524761 4.25138807297 57.3160018921
vertex -0.473087072372 4.3013882637 57.3160018921
vertex -0.53977817297 4.25144529343 57.3160018921
endloop
endfacet
facet normal 0.0 0.0 1.0
outer loop
vertex -0.53977817297 4.25144529343 57.3160018921
vertex -0.473087072372 4.3013882637 57.3160018921
vertex -0.539753735065 4.30144548416 57.3160018921
endloop
endfacet
facet normal -0.0 0.0 1.0
outer loop
vertex -0.473148524761 4.25138807297 57.3160018921
vertex -0.406518936157 4.25128173828 57.3160018921
vertex -0.473087072372 4.3013882637 57.3160018921
endloop
endfacet
facet normal 0.0 -0.0 1.0
outer loop
vertex -0.406518936157 4.25128173828 57.3160018921
vertex -0.406420499086 4.30128145218 57.3160018921
vertex -0.473087072372 4.3013882637 57.3160018921
endloop
endfacet
