solid 
facet normal 0.00160217308439 -0.999998748302 0.0
outer loop
vertex -0.473092734814 -4.3013882637 -71.3310012817
vertex -0.406426161528 -4.30128145218 -71.3310012817
vertex -0.406426161528 -4.30128145218 -67.7399978638
endloop
endfacet
facet normal 0.0016021723859 -0.999998748302 1.32966892705e-11
outer loop
vertex -0.473092734814 -4.3013882637 -71.3310012817
vertex -0.406426161528 -4.30128145218 -67.7399978638
vertex -0.473092764616 -4.3013882637 -67.7399978638
endloop
endfacet
facet normal 0.000858307001181 -0.999999642372 0.0
outer loop
vertex -0.539759397507 -4.30144548416 -71.3310012817
vertex -0.473092764616 -4.3013882637 -67.7399978638
vertex -0.539759397507 -4.30144548416 -67.7399978638
endloop
endfacet
facet normal 0.000858306651935 -0.999999642372 6.64834463524e-12
outer loop
vertex -0.539759397507 -4.30144548416 -71.3310012817
vertex -0.473092734814 -4.3013882637 -71.3310012817
vertex -0.473092764616 -4.3013882637 -67.7399978638
endloop
endfacet
facet normal 0.000121593482618 -1.0 -1.32786610152e-07
outer loop
vertex -0.6064260602 -4.30145311356 -71.3310012817
vertex -0.539759397507 -4.30144548416 -67.7399978638
vertex -0.6064260602 -4.30145359039 -67.7399978638
endloop
endfacet
facet normal 0.000114440925245 -1.0 0.0
outer loop
vertex -0.6064260602 -4.30145311356 -71.3310012817
vertex -0.539759397507 -4.30144548416 -71.3310012817
vertex -0.539759397507 -4.30144548416 -67.7399978638
endloop
endfacet
facet normal -0.999999940395 0.000250340934144 0.0
outer loop
vertex -0.6064260602 -4.30145311356 -71.3310012817
vertex -0.606413543224 -4.25145339966 -67.7399978638
vertex -0.606413543224 -4.25145339966 -71.3310012817
endloop
endfacet
facet normal -0.999999940395 0.000250338518526 3.32416039139e-11
outer loop
vertex -0.6064260602 -4.30145359039 -67.7399978638
vertex -0.606413543224 -4.25145339966 -67.7399978638
vertex -0.6064260602 -4.30145311356 -71.3310012817
endloop
endfacet
facet normal -0.00159590574913 0.999998688698 -1.3304075723e-11
outer loop
vertex -0.406524628401 -4.25128173828 -67.7399978638
vertex -0.473154187202 -4.25138807297 -71.3310012817
vertex -0.473154217005 -4.25138807297 -67.7399978638
endloop
endfacet
facet normal -0.00159590574913 0.999998688698 -1.32446822607e-11
outer loop
vertex -0.406524598598 -4.25128173828 -71.3310012817
vertex -0.473154187202 -4.25138807297 -71.3310012817
vertex -0.406524628401 -4.25128173828 -67.7399978638
endloop
endfacet
facet normal -0.000858783023432 0.999999642372 -1.52046517737e-11
outer loop
vertex -0.473154217005 -4.25138807297 -67.7399978638
vertex -0.539783835411 -4.25144529343 -71.3310012817
vertex -0.539783895016 -4.25144529343 -67.7399978638
endloop
endfacet
facet normal -0.000858783430886 0.999999642372 -7.12718382576e-12
outer loop
vertex -0.473154187202 -4.25138807297 -71.3310012817
vertex -0.539783835411 -4.25144529343 -71.3310012817
vertex -0.473154217005 -4.25138807297 -67.7399978638
endloop
endfacet
facet normal -0.000121661032608 1.0 0.0
outer loop
vertex -0.539783895016 -4.25144529343 -67.7399978638
vertex -0.606413543224 -4.25145339966 -71.3310012817
vertex -0.606413543224 -4.25145339966 -67.7399978638
endloop
endfacet
facet normal -0.000121660916193 1.0 -2.0193675291e-12
outer loop
vertex -0.539783835411 -4.25144529343 -71.3310012817
vertex -0.606413543224 -4.25145339966 -71.3310012817
vertex -0.539783895016 -4.25144529343 -67.7399978638
endloop
endfacet
facet normal 0.999998033047 0.00196874863468 0.0
outer loop
vertex -0.406524598598 -4.25128173828 -71.3310012817
vertex -0.406426161528 -4.30128145218 -67.7399978638
vertex -0.406426161528 -4.30128145218 -71.3310012817
endloop
endfacet
facet normal 0.999998033047 0.00196934491396 8.29914625911e-09
outer loop
vertex -0.406524628401 -4.25128173828 -67.7399978638
vertex -0.406426161528 -4.30128145218 -67.7399978638
vertex -0.406524598598 -4.25128173828 -71.3310012817
endloop
endfacet
facet normal 0.0 0.0 1.0
outer loop
vertex -0.539783895016 -4.25144529343 -67.7399978638
vertex -0.606413543224 -4.25145339966 -67.7399978638
vertex -0.6064260602 -4.30145359039 -67.7399978638
endloop
endfacet
facet normal 0.0 0.0 1.0
outer loop
vertex -0.539759397507 -4.30144548416 -67.7399978638
vertex -0.539783895016 -4.25144529343 -67.7399978638
vertex -0.6064260602 -4.30145359039 -67.7399978638
endloop
endfacet
facet normal 0.0 0.0 1.0
outer loop
vertex -0.473092764616 -4.3013882637 -67.7399978638
vertex -0.473154217005 -4.25138807297 -67.7399978638
vertex -0.539783895016 -4.25144529343 -67.7399978638
endloop
endfacet
facet normal 0.0 0.0 1.0
outer loop
vertex -0.473092764616 -4.3013882637 -67.7399978638
vertex -0.539783895016 -4.25144529343 -67.7399978638
vertex -0.539759397507 -4.30144548416 -67.7399978638
endloop
endfacet
facet normal 0.0 0.0 1.0
outer loop
vertex -0.406426161528 -4.30128145218 -67.7399978638
vertex -0.406524628401 -4.25128173828 -67.7399978638
vertex -0.473154217005 -4.25138807297 -67.7399978638
endloop
endfacet
facet normal 0.0 0.0 1.0
outer loop
vertex -0.406426161528 -4.30128145218 -67.7399978638
vertex -0.473154217005 -4.25138807297 -67.7399978638
vertex -0.473092764616 -4.3013882637 -67.7399978638
endloop
endfacet
facet normal 0.0 -0.0 -1.0
outer loop
vertex -0.606413543224 -4.25145339966 -71.3310012817
vertex -0.539783835411 -4.25144529343 -71.3310012817
vertex -0.6064260602 -4.30145311356 -71.3310012817
endloop
endfacet
facet normal 0.0 -0.0 -1.0
outer loop
vertex -0.539783835411 -4.25144529343 -71.3310012817
vertex -0.539759397507 -4.30144548416 -71.3310012817
vertex -0.6064260602 -4.30145311356 -71.3310012817
endloop
endfacet
facet normal 0.0 -0.0 -1.0
outer loop
vertex -0.473154187202 -4.25138807297 -71.3310012817
vertex -0.473092734814 -4.3013882637 -71.3310012817
vertex -0.539783835411 -4.25144529343 -71.3310012817
endloop
endfacet
facet normal 0.0 0.0 -1.0
outer loop
vertex -0.539783835411 -4.25144529343 -71.3310012817
vertex -0.473092734814 -4.3013882637 -71.3310012817
vertex -0.539759397507 -4.30144548416 -71.3310012817
endloop
endfacet
facet normal 0.0 -0.0 -1.0
outer loop
vertex -0.406524598598 -4.25128173828 -71.3310012817
vertex -0.406426161528 -4.30128145218 -71.3310012817
vertex -0.473154187202 -4.25138807297 -71.3310012817
endloop
endfacet
facet normal 0.0 0.0 -1.0
outer loop
vertex -0.473154187202 -4.25138807297 -71.3310012817
vertex -0.406426161528 -4.30128145218 -71.3310012817
vertex -0.473092734814 -4.3013882637 -71.3310012817
endloop
endfacet
