solid 
facet normal -0.00160217308439 0.999998748302 -1.3296695342e-11
outer loop
vertex 0.473092794418 4.3013882637 71.7399978638
vertex 0.406426221132 4.30128145218 71.7399978638
vertex 0.40642619133 4.30128145218 75.3310012817
endloop
endfacet
facet normal -0.00160217308439 0.999998748302 -1.3296695342e-11
outer loop
vertex 0.473092794418 4.3013882637 71.7399978638
vertex 0.40642619133 4.30128145218 75.3310012817
vertex 0.473092764616 4.3013882637 75.3310012817
endloop
endfacet
facet normal -0.000858306942973 0.999999642372 -1.42464581798e-11
outer loop
vertex 0.539759457111 4.30144548416 71.7399978638
vertex 0.473092764616 4.3013882637 75.3310012817
vertex 0.539759397507 4.30144548416 75.3310012817
endloop
endfacet
facet normal -0.000858306651935 0.999999642372 -6.64834463524e-12
outer loop
vertex 0.539759457111 4.30144548416 71.7399978638
vertex 0.473092794418 4.3013882637 71.7399978638
vertex 0.473092764616 4.3013882637 75.3310012817
endloop
endfacet
facet normal -0.000121593475342 1.0 -2.01824819877e-12
outer loop
vertex 0.606426119804 4.30145359039 71.7399978638
vertex 0.539759397507 4.30144548416 75.3310012817
vertex 0.6064260602 4.30145359039 75.3310012817
endloop
endfacet
facet normal -0.000121593482618 1.0 -2.13696877034e-12
outer loop
vertex 0.606426119804 4.30145359039 71.7399978638
vertex 0.539759457111 4.30144548416 71.7399978638
vertex 0.539759397507 4.30144548416 75.3310012817
endloop
endfacet
facet normal 0.999999940395 -0.000250338518526 1.65983244926e-08
outer loop
vertex 0.606413602829 4.25145339966 71.7399978638
vertex 0.606426119804 4.30145359039 71.7399978638
vertex 0.6064260602 4.30145359039 75.3310012817
endloop
endfacet
facet normal 0.999999940395 -0.000250338518526 1.65983244926e-08
outer loop
vertex 0.606413602829 4.25145339966 71.7399978638
vertex 0.6064260602 4.30145359039 75.3310012817
vertex 0.606413543224 4.25145339966 75.3310012817
endloop
endfacet
facet normal 0.00159590574913 -0.999998688698 -1.32772768779e-07
outer loop
vertex 0.406524628401 4.25128173828 75.3310012817
vertex 0.473154246807 4.2513885498 71.7399978638
vertex 0.473154217005 4.25138807297 75.3310012817
endloop
endfacet
facet normal 0.00160306238104 -0.999998688698 1.3304075723e-11
outer loop
vertex 0.406524658203 4.25128173828 71.7399978638
vertex 0.473154246807 4.2513885498 71.7399978638
vertex 0.406524628401 4.25128173828 75.3310012817
endloop
endfacet
facet normal 0.000858783023432 -0.999999642372 -1.32786013296e-07
outer loop
vertex 0.473154217005 4.25138807297 75.3310012817
vertex 0.539783895016 4.25144577026 71.7399978638
vertex 0.539783895016 4.25144529343 75.3310012817
endloop
endfacet
facet normal 0.000858783430886 -0.999999642372 -1.3277943367e-07
outer loop
vertex 0.473154246807 4.2513885498 71.7399978638
vertex 0.539783895016 4.25144577026 71.7399978638
vertex 0.473154217005 4.25138807297 75.3310012817
endloop
endfacet
facet normal 0.000121661032608 -1.0 1.9005829896e-12
outer loop
vertex 0.539783895016 4.25144529343 75.3310012817
vertex 0.606413602829 4.25145339966 71.7399978638
vertex 0.606413543224 4.25145339966 75.3310012817
endloop
endfacet
facet normal 0.000114504393423 -1.0 -1.32786610152e-07
outer loop
vertex 0.539783895016 4.25144577026 71.7399978638
vertex 0.606413602829 4.25145339966 71.7399978638
vertex 0.539783895016 4.25144529343 75.3310012817
endloop
endfacet
facet normal -0.999998033047 -0.00196874863468 -8.29716739759e-09
outer loop
vertex 0.406426221132 4.30128145218 71.7399978638
vertex 0.406524658203 4.25128173828 71.7399978638
vertex 0.406524628401 4.25128173828 75.3310012817
endloop
endfacet
facet normal -0.999998033047 -0.00196874863468 -8.29914625911e-09
outer loop
vertex 0.406426221132 4.30128145218 71.7399978638
vertex 0.406524628401 4.25128173828 75.3310012817
vertex 0.40642619133 4.30128145218 75.3310012817
endloop
endfacet
facet normal -0.0 0.0 -1.0
outer loop
vertex 0.606413602829 4.25145339966 71.7399978638
vertex 0.539783895016 4.25144577026 71.7399978638
vertex 0.606426119804 4.30145359039 71.7399978638
endloop
endfacet
facet normal 0.0 0.0 -1.0
outer loop
vertex 0.539783895016 4.25144577026 71.7399978638
vertex 0.539759457111 4.30144548416 71.7399978638
vertex 0.606426119804 4.30145359039 71.7399978638
endloop
endfacet
facet normal 0.0 0.0 -1.0
outer loop
vertex 0.473154246807 4.2513885498 71.7399978638
vertex 0.473092794418 4.3013882637 71.7399978638
vertex 0.539783895016 4.25144577026 71.7399978638
endloop
endfacet
facet normal 0.0 0.0 -1.0
outer loop
vertex 0.539783895016 4.25144577026 71.7399978638
vertex 0.473092794418 4.3013882637 71.7399978638
vertex 0.539759457111 4.30144548416 71.7399978638
endloop
endfacet
facet normal 0.0 0.0 -1.0
outer loop
vertex 0.406524658203 4.25128173828 71.7399978638
vertex 0.406426221132 4.30128145218 71.7399978638
vertex 0.473154246807 4.2513885498 71.7399978638
endloop
endfacet
facet normal 0.0 0.0 -1.0
outer loop
vertex 0.473154246807 4.2513885498 71.7399978638
vertex 0.406426221132 4.30128145218 71.7399978638
vertex 0.473092794418 4.3013882637 71.7399978638
endloop
endfacet
facet normal 0.0 0.0 1.0
outer loop
vertex 0.539783895016 4.25144529343 75.3310012817
vertex 0.606413543224 4.25145339966 75.3310012817
vertex 0.6064260602 4.30145359039 75.3310012817
endloop
endfacet
facet normal -0.0 0.0 1.0
outer loop
vertex 0.539759397507 4.30144548416 75.3310012817
vertex 0.539783895016 4.25144529343 75.3310012817
vertex 0.6064260602 4.30145359039 75.3310012817
endloop
endfacet
facet normal 0.0 0.0 1.0
outer loop
vertex 0.473092764616 4.3013882637 75.3310012817
vertex 0.473154217005 4.25138807297 75.3310012817
vertex 0.539783895016 4.25144529343 75.3310012817
endloop
endfacet
facet normal -0.0 0.0 1.0
outer loop
vertex 0.473092764616 4.3013882637 75.3310012817
vertex 0.539783895016 4.25144529343 75.3310012817
vertex 0.539759397507 4.30144548416 75.3310012817
endloop
endfacet
facet normal 0.0 0.0 1.0
outer loop
vertex 0.40642619133 4.30128145218 75.3310012817
vertex 0.406524628401 4.25128173828 75.3310012817
vertex 0.473154217005 4.25138807297 75.3310012817
endloop
endfacet
facet normal -0.0 0.0 1.0
outer loop
vertex 0.40642619133 4.30128145218 75.3310012817
vertex 0.473154217005 4.25138807297 75.3310012817
vertex 0.473092764616 4.3013882637 75.3310012817
endloop
endfacet
