solid 
facet normal 0.00159502052702 -0.999998748302 1.32967239649e-11
outer loop
vertex -0.473103553057 -4.30138778687 -121.904998779
vertex -0.406436979771 -4.30128145218 -121.904998779
vertex -0.406437009573 -4.30128145218 -118.314002991
endloop
endfacet
facet normal 0.00160217308439 -0.999998748302 -1.32773422479e-07
outer loop
vertex -0.473103553057 -4.30138778687 -121.904998779
vertex -0.406437009573 -4.30128145218 -118.314002991
vertex -0.473103582859 -4.3013882637 -118.314002991
endloop
endfacet
facet normal 0.000858306651935 -0.999999642372 -1.32772598249e-07
outer loop
vertex -0.539770185947 -4.30144500732 -121.904998779
vertex -0.473103582859 -4.3013882637 -118.314002991
vertex -0.539770245552 -4.30144548416 -118.314002991
endloop
endfacet
facet normal 0.000858307001181 -0.999999642372 -1.32780130002e-07
outer loop
vertex -0.539770185947 -4.30144500732 -121.904998779
vertex -0.473103553057 -4.30138778687 -121.904998779
vertex -0.473103582859 -4.3013882637 -118.314002991
endloop
endfacet
facet normal 0.000121593482618 -1.0 -1.32784876428e-07
outer loop
vertex -0.60643684864 -4.30145311356 -121.904998779
vertex -0.539770245552 -4.30144548416 -118.314002991
vertex -0.606436908245 -4.30145359039 -118.314002991
endloop
endfacet
facet normal 0.000121593482618 -1.0 -1.32784876428e-07
outer loop
vertex -0.60643684864 -4.30145311356 -121.904998779
vertex -0.539770185947 -4.30144500732 -121.904998779
vertex -0.539770245552 -4.30144548416 -118.314002991
endloop
endfacet
facet normal -0.999999940395 0.000250340934144 -1.65985181155e-08
outer loop
vertex -0.60643684864 -4.30145311356 -121.904998779
vertex -0.60642439127 -4.25145339966 -118.314002991
vertex -0.606424331665 -4.25145339966 -121.904998779
endloop
endfacet
facet normal -0.999999940395 0.00025033854763 -1.65651190542e-08
outer loop
vertex -0.606436908245 -4.30145359039 -118.314002991
vertex -0.60642439127 -4.25145339966 -118.314002991
vertex -0.60643684864 -4.30145311356 -121.904998779
endloop
endfacet
facet normal -0.00159590586554 0.999998748302 1.32773479322e-07
outer loop
vertex -0.406535446644 -4.25128173828 -118.314002991
vertex -0.406535416842 -4.25128126144 -121.904998779
vertex -0.473165035248 -4.25138807297 -118.314002991
endloop
endfacet
facet normal -0.000858783430886 0.999999642372 -7.12719900459e-12
outer loop
vertex -0.473165035248 -4.25138807297 -118.314002991
vertex -0.473165005445 -4.25138807297 -121.904998779
vertex -0.539794683456 -4.25144529343 -118.314002991
endloop
endfacet
facet normal -0.00160306238104 0.999998748302 -1.3304104346e-11
outer loop
vertex -0.406535416842 -4.25128126144 -121.904998779
vertex -0.473165005445 -4.25138807297 -121.904998779
vertex -0.473165035248 -4.25138807297 -118.314002991
endloop
endfacet
facet normal -0.000121660916193 1.0 0.0
outer loop
vertex -0.539794683456 -4.25144529343 -118.314002991
vertex -0.539794683456 -4.25144529343 -121.904998779
vertex -0.60642439127 -4.25145339966 -118.314002991
endloop
endfacet
facet normal -0.00085878308164 0.999999642372 0.0
outer loop
vertex -0.473165005445 -4.25138807297 -121.904998779
vertex -0.539794683456 -4.25144529343 -121.904998779
vertex -0.539794683456 -4.25144529343 -118.314002991
endloop
endfacet
facet normal -0.000121661032608 1.0 -1.90058710957e-12
outer loop
vertex -0.539794683456 -4.25144529343 -121.904998779
vertex -0.606424331665 -4.25145339966 -121.904998779
vertex -0.60642439127 -4.25145339966 -118.314002991
endloop
endfacet
facet normal 0.999998033047 0.00196873024106 8.29963919813e-09
outer loop
vertex -0.406535416842 -4.25128126144 -121.904998779
vertex -0.406437009573 -4.30128145218 -118.314002991
vertex -0.406436979771 -4.30128145218 -121.904998779
endloop
endfacet
facet normal 0.999998033047 0.00196874886751 8.56058868237e-09
outer loop
vertex -0.406535446644 -4.25128173828 -118.314002991
vertex -0.406437009573 -4.30128145218 -118.314002991
vertex -0.406535416842 -4.25128126144 -121.904998779
endloop
endfacet
facet normal 0.0 0.0 1.0
outer loop
vertex -0.539794683456 -4.25144529343 -118.314002991
vertex -0.60642439127 -4.25145339966 -118.314002991
vertex -0.606436908245 -4.30145359039 -118.314002991
endloop
endfacet
facet normal 0.0 0.0 1.0
outer loop
vertex -0.539770245552 -4.30144548416 -118.314002991
vertex -0.539794683456 -4.25144529343 -118.314002991
vertex -0.606436908245 -4.30145359039 -118.314002991
endloop
endfacet
facet normal 0.0 0.0 1.0
outer loop
vertex -0.473103582859 -4.3013882637 -118.314002991
vertex -0.473165035248 -4.25138807297 -118.314002991
vertex -0.539794683456 -4.25144529343 -118.314002991
endloop
endfacet
facet normal 0.0 0.0 1.0
outer loop
vertex -0.473103582859 -4.3013882637 -118.314002991
vertex -0.539794683456 -4.25144529343 -118.314002991
vertex -0.539770245552 -4.30144548416 -118.314002991
endloop
endfacet
facet normal 0.0 0.0 1.0
outer loop
vertex -0.406437009573 -4.30128145218 -118.314002991
vertex -0.406535446644 -4.25128173828 -118.314002991
vertex -0.473165035248 -4.25138807297 -118.314002991
endloop
endfacet
facet normal 0.0 0.0 1.0
outer loop
vertex -0.406437009573 -4.30128145218 -118.314002991
vertex -0.473165035248 -4.25138807297 -118.314002991
vertex -0.473103582859 -4.3013882637 -118.314002991
endloop
endfacet
facet normal 0.0 -0.0 -1.0
outer loop
vertex -0.539794683456 -4.25144529343 -121.904998779
vertex -0.539770185947 -4.30144500732 -121.904998779
vertex -0.606424331665 -4.25145339966 -121.904998779
endloop
endfacet
facet normal 0.0 -0.0 -1.0
outer loop
vertex -0.606424331665 -4.25145339966 -121.904998779
vertex -0.539770185947 -4.30144500732 -121.904998779
vertex -0.60643684864 -4.30145311356 -121.904998779
endloop
endfacet
facet normal 0.0 0.0 -1.0
outer loop
vertex -0.539794683456 -4.25144529343 -121.904998779
vertex -0.473165005445 -4.25138807297 -121.904998779
vertex -0.539770185947 -4.30144500732 -121.904998779
endloop
endfacet
facet normal 0.0 -0.0 -1.0
outer loop
vertex -0.473165005445 -4.25138807297 -121.904998779
vertex -0.473103553057 -4.30138778687 -121.904998779
vertex -0.539770185947 -4.30144500732 -121.904998779
endloop
endfacet
facet normal 0.0 0.0 -1.0
outer loop
vertex -0.473165005445 -4.25138807297 -121.904998779
vertex -0.406535416842 -4.25128126144 -121.904998779
vertex -0.473103553057 -4.30138778687 -121.904998779
endloop
endfacet
facet normal 0.0 -0.0 -1.0
outer loop
vertex -0.406535416842 -4.25128126144 -121.904998779
vertex -0.406436979771 -4.30128145218 -121.904998779
vertex -0.473103553057 -4.30138778687 -121.904998779
endloop
endfacet
