solid b'MESH-MESH-MESH-MESH-MESH-MESH-MESH-MESH-MESH-MESH-MESH-MESH-MESH-MESH-MESH-MESH'
facet normal -196.000000 0.000000 0.000000
  outer loop
    vertex -19.033001 39.164001 -5.000000
    vertex -19.033001 -0.036000 -5.000000
    vertex -19.033001 39.164001 0.000000
  endloop
endfacet
facet normal -196.000000 0.000000 0.000000
  outer loop
    vertex -19.033001 -0.036000 -5.000000
    vertex -19.033001 -0.036000 0.000000
    vertex -19.033001 39.164001 0.000000
  endloop
endfacet
facet normal 196.000000 0.000000 0.000000
  outer loop
    vertex 524.067017 -0.036000 -5.000000
    vertex 524.067017 39.164001 -5.000000
    vertex 524.067017 39.164001 0.000000
  endloop
endfacet
facet normal 196.000000 -0.000000 0.000000
  outer loop
    vertex 524.067017 -0.036000 0.000000
    vertex 524.067017 -0.036000 -5.000000
    vertex 524.067017 39.164001 0.000000
  endloop
endfacet
facet normal 0.000000 -2715.500244 0.000000
  outer loop
    vertex 524.067017 -0.036000 -5.000000
    vertex 524.067017 -0.036000 0.000000
    vertex -19.033001 -0.036000 -5.000000
  endloop
endfacet
facet normal 0.000000 -2715.500244 0.000000
  outer loop
    vertex -19.033001 -0.036000 -5.000000
    vertex 524.067017 -0.036000 0.000000
    vertex -19.033001 -0.036000 0.000000
  endloop
endfacet
facet normal 0.000000 2715.500244 0.000000
  outer loop
    vertex 524.067017 39.164001 0.000000
    vertex 524.067017 39.164001 -5.000000
    vertex -19.033001 39.164001 -5.000000
  endloop
endfacet
facet normal 0.000000 2715.500244 0.000000
  outer loop
    vertex 524.067017 39.164001 0.000000
    vertex -19.033001 39.164001 -5.000000
    vertex -19.033001 39.164001 0.000000
  endloop
endfacet
facet normal 0.000000 0.000000 -21289.521484
  outer loop
    vertex -19.033001 39.164001 -5.000000
    vertex 524.067017 39.164001 -5.000000
    vertex -19.033001 -0.036000 -5.000000
  endloop
endfacet
facet normal 0.000000 0.000000 -21289.521484
  outer loop
    vertex -19.033001 -0.036000 -5.000000
    vertex 524.067017 39.164001 -5.000000
    vertex 524.067017 -0.036000 -5.000000
  endloop
endfacet
facet normal 0.000000 0.000000 21289.521484
  outer loop
    vertex 524.067017 39.164001 0.000000
    vertex -19.033001 39.164001 0.000000
    vertex -19.033001 -0.036000 0.000000
  endloop
endfacet
facet normal 0.000000 0.000000 21289.521484
  outer loop
    vertex 524.067017 39.164001 0.000000
    vertex -19.033001 -0.036000 0.000000
    vertex 524.067017 -0.036000 0.000000
  endloop
endfacet
endsolid b'MESH-MESH-MESH-MESH-MESH-MESH-MESH-MESH-MESH-MESH-MESH-MESH-MESH-MESH-MESH-MESH'
