solid 
facet normal 0.0 0.0 -1.0
outer loop
vertex 0.333339422941 4.24938392639 -430.751831055
vertex 1.00055456161 4.29445123672 -430.751831055
vertex 1.0 4.24445438385 -430.751831055
endloop
endfacet
facet normal 0.0 -0.0 -1.0
outer loop
vertex 0.333524256945 4.29938364029 -430.751831055
vertex 1.00055456161 4.29445123672 -430.751831055
vertex 0.333339422941 4.24938392639 -430.751831055
endloop
endfacet
facet normal 0.0 0.0 -1.0
outer loop
vertex -0.333524256945 4.29938364029 -430.751831055
vertex 0.333339422941 4.24938392639 -430.751831055
vertex -0.333339422941 4.24938392639 -430.751831055
endloop
endfacet
facet normal 0.0 0.0 -1.0
outer loop
vertex -0.333524256945 4.29938364029 -430.751831055
vertex 0.333524256945 4.29938364029 -430.751831055
vertex 0.333339422941 4.24938392639 -430.751831055
endloop
endfacet
facet normal 0.0 0.0 -1.0
outer loop
vertex -1.00055456161 4.29445123672 -430.751831055
vertex -0.333339422941 4.24938392639 -430.751831055
vertex -1.0 4.24445438385 -430.751831055
endloop
endfacet
facet normal 0.0 0.0 -1.0
outer loop
vertex -1.00055456161 4.29445123672 -430.751831055
vertex -0.333524256945 4.29938364029 -430.751831055
vertex -0.333339422941 4.24938392639 -430.751831055
endloop
endfacet
facet normal -0.999938488007 -0.0110912481323 0.0
outer loop
vertex -1.00055456161 4.29445123672 -430.751831055
vertex -1.0 4.24445438385 -430.751831055
vertex -1.0 4.24445438385 -322.421813965
endloop
endfacet
facet normal -0.999938488007 -0.0110912481323 0.0
outer loop
vertex -1.00055456161 4.29445123672 -430.751831055
vertex -1.0 4.24445438385 -322.421813965
vertex -1.00055456161 4.29445123672 -322.421813965
endloop
endfacet
facet normal -0.00739418016747 -0.999972641468 0.0
outer loop
vertex 1.0 4.24445438385 -430.751831055
vertex 1.0 4.24445438385 -322.421813965
vertex 0.333339422941 4.24938392639 -430.751831055
endloop
endfacet
facet normal 0.0 -1.0 0.0
outer loop
vertex 0.333339422941 4.24938392639 -430.751831055
vertex 0.333339422941 4.24938392639 -322.421813965
vertex -0.333339422941 4.24938392639 -430.751831055
endloop
endfacet
facet normal -0.00739418016747 -0.999972641468 0.0
outer loop
vertex 1.0 4.24445438385 -322.421813965
vertex 0.333339422941 4.24938392639 -322.421813965
vertex 0.333339422941 4.24938392639 -430.751831055
endloop
endfacet
facet normal 0.00739418016747 -0.999972641468 0.0
outer loop
vertex -0.333339422941 4.24938392639 -430.751831055
vertex -0.333339422941 4.24938392639 -322.421813965
vertex -1.0 4.24445438385 -430.751831055
endloop
endfacet
facet normal -0.0 -1.0 0.0
outer loop
vertex 0.333339422941 4.24938392639 -322.421813965
vertex -0.333339422941 4.24938392639 -322.421813965
vertex -0.333339422941 4.24938392639 -430.751831055
endloop
endfacet
facet normal 0.00739418016747 -0.999972641468 0.0
outer loop
vertex -0.333339422941 4.24938392639 -322.421813965
vertex -1.0 4.24445438385 -322.421813965
vertex -1.0 4.24445438385 -430.751831055
endloop
endfacet
facet normal 0.999938488007 -0.0110912481323 0.0
outer loop
vertex 1.0 4.24445438385 -430.751831055
vertex 1.00055456161 4.29445123672 -430.751831055
vertex 1.00055456161 4.29445123672 -322.421813965
endloop
endfacet
facet normal 0.999938488007 -0.0110912481323 0.0
outer loop
vertex 1.0 4.24445438385 -430.751831055
vertex 1.00055456161 4.29445123672 -322.421813965
vertex 1.0 4.24445438385 -322.421813965
endloop
endfacet
facet normal 0.00739436969161 0.999972641468 0.0
outer loop
vertex 1.00055456161 4.29445123672 -322.421813965
vertex 1.00055456161 4.29445123672 -430.751831055
vertex 0.333524256945 4.29938364029 -430.751831055
endloop
endfacet
facet normal 0.0 1.0 0.0
outer loop
vertex 0.333524256945 4.29938364029 -322.421813965
vertex 0.333524256945 4.29938364029 -430.751831055
vertex -0.333524256945 4.29938364029 -430.751831055
endloop
endfacet
facet normal 0.00739436969161 0.999972641468 0.0
outer loop
vertex 0.333524256945 4.29938364029 -322.421813965
vertex 1.00055456161 4.29445123672 -322.421813965
vertex 0.333524256945 4.29938364029 -430.751831055
endloop
endfacet
facet normal -0.0 1.0 0.0
outer loop
vertex -0.333524256945 4.29938364029 -322.421813965
vertex 0.333524256945 4.29938364029 -322.421813965
vertex -0.333524256945 4.29938364029 -430.751831055
endloop
endfacet
facet normal -0.00739436969161 0.999972641468 0.0
outer loop
vertex -1.00055456161 4.29445123672 -322.421813965
vertex -0.333524256945 4.29938364029 -430.751831055
vertex -1.00055456161 4.29445123672 -430.751831055
endloop
endfacet
facet normal -0.00739436969161 0.999972641468 0.0
outer loop
vertex -1.00055456161 4.29445123672 -322.421813965
vertex -0.333524256945 4.29938364029 -322.421813965
vertex -0.333524256945 4.29938364029 -430.751831055
endloop
endfacet
facet normal 0.0 0.0 1.0
outer loop
vertex -0.333339422941 4.24938392639 -322.421813965
vertex -1.00055456161 4.29445123672 -322.421813965
vertex -1.0 4.24445438385 -322.421813965
endloop
endfacet
facet normal 0.0 0.0 1.0
outer loop
vertex -0.333524256945 4.29938364029 -322.421813965
vertex -1.00055456161 4.29445123672 -322.421813965
vertex -0.333339422941 4.24938392639 -322.421813965
endloop
endfacet
facet normal 0.0 0.0 1.0
outer loop
vertex 0.333339422941 4.24938392639 -322.421813965
vertex -0.333524256945 4.29938364029 -322.421813965
vertex -0.333339422941 4.24938392639 -322.421813965
endloop
endfacet
facet normal 0.0 0.0 1.0
outer loop
vertex 0.333524256945 4.29938364029 -322.421813965
vertex -0.333524256945 4.29938364029 -322.421813965
vertex 0.333339422941 4.24938392639 -322.421813965
endloop
endfacet
facet normal 0.0 0.0 1.0
outer loop
vertex 1.00055456161 4.29445123672 -322.421813965
vertex 0.333339422941 4.24938392639 -322.421813965
vertex 1.0 4.24445438385 -322.421813965
endloop
endfacet
facet normal 0.0 0.0 1.0
outer loop
vertex 1.00055456161 4.29445123672 -322.421813965
vertex 0.333524256945 4.29938364029 -322.421813965
vertex 0.333339422941 4.24938392639 -322.421813965
endloop
endfacet
