solid 
facet normal 0.0190043058246 0.999819397926 0.0
outer loop
vertex 3.64286446571 4.29232883453 -210.206878662
vertex 0.577899336815 4.35058689117 -210.206878662
vertex 0.577899336815 4.35058689117 -206.635879517
endloop
endfacet
facet normal 0.0190043058246 0.999819397926 -0.0
outer loop
vertex 3.64286446571 4.29232883453 -210.206878662
vertex 0.577899336815 4.35058689117 -206.635879517
vertex 3.64286446571 4.29232883453 -206.635879517
endloop
endfacet
facet normal 0.0530000664294 0.998594462872 -1.33342780373e-07
outer loop
vertex 6.70407485962 4.12985563278 -210.206878662
vertex 3.64286446571 4.29232883453 -206.635879517
vertex 6.70407485962 4.12985610962 -206.635879517
endloop
endfacet
facet normal 0.0530002266169 0.998594462872 0.0
outer loop
vertex 6.70407485962 4.12985563278 -210.206878662
vertex 3.64286446571 4.29232883453 -210.206878662
vertex 3.64286446571 4.29232883453 -206.635879517
endloop
endfacet
facet normal 0.0869346261024 0.996214032173 -0.0
outer loop
vertex 9.75798797607 3.86335635185 -210.206878662
vertex 6.70407485962 4.12985610962 -206.635879517
vertex 9.75798797607 3.86335635185 -206.635879517
endloop
endfacet
facet normal 0.0869344696403 0.996214032173 -1.306765256e-07
outer loop
vertex 9.75798797607 3.86335635185 -210.206878662
vertex 6.70407485962 4.12985563278 -210.206878662
vertex 6.70407485962 4.12985610962 -206.635879517
endloop
endfacet
facet normal 0.994590461254 -0.103874079883 0.0
outer loop
vertex 9.75798797607 3.86335635185 -210.206878662
vertex 9.75798797607 3.86335635185 -206.635879517
vertex 9.75279426575 3.8136267662 -210.206878662
endloop
endfacet
facet normal 0.994590461254 -0.103874079883 0.0
outer loop
vertex 9.75798797607 3.86335635185 -206.635879517
vertex 9.75279426575 3.8136267662 -206.635879517
vertex 9.75279426575 3.8136267662 -210.206878662
endloop
endfacet
facet normal -0.019004272297 -0.999819397926 1.33473022856e-07
outer loop
vertex 0.57779955864 4.30058717728 -206.635879517
vertex 3.64106416702 4.24236106873 -210.206878662
vertex 3.64106416702 4.24236154556 -206.635879517
endloop
endfacet
facet normal -0.0530002452433 -0.998594522476 1.33342794584e-07
outer loop
vertex 3.64106416702 4.24236154556 -206.635879517
vertex 3.64106416702 4.24236106873 -210.206878662
vertex 6.70057582855 4.07997846603 -206.635879517
endloop
endfacet
facet normal -0.0190044287592 -0.999819397926 3.1720875926e-10
outer loop
vertex 0.577799499035 4.30058717728 -210.206878662
vertex 3.64106416702 4.24236106873 -210.206878662
vertex 0.57779955864 4.30058717728 -206.635879517
endloop
endfacet
facet normal -0.0530000887811 -0.998594522476 0.0
outer loop
vertex 3.64106416702 4.24236106873 -210.206878662
vertex 6.70057582855 4.07997846603 -210.206878662
vertex 6.70057582855 4.07997846603 -206.635879517
endloop
endfacet
facet normal -0.0869345739484 -0.996214032173 0.0
outer loop
vertex 6.70057582855 4.07997846603 -206.635879517
vertex 9.75279426575 3.8136267662 -210.206878662
vertex 9.75279426575 3.8136267662 -206.635879517
endloop
endfacet
facet normal -0.0869345739484 -0.996214032173 0.0
outer loop
vertex 6.70057582855 4.07997846603 -210.206878662
vertex 9.75279426575 3.8136267662 -210.206878662
vertex 6.70057582855 4.07997846603 -206.635879517
endloop
endfacet
facet normal -0.999998092651 0.00199676305056 1.6691275917e-08
outer loop
vertex 0.577799499035 4.30058717728 -210.206878662
vertex 0.57779955864 4.30058717728 -206.635879517
vertex 0.577899336815 4.35058689117 -210.206878662
endloop
endfacet
facet normal -0.999998092651 0.00199557119049 0.0
outer loop
vertex 0.57779955864 4.30058717728 -206.635879517
vertex 0.577899336815 4.35058689117 -206.635879517
vertex 0.577899336815 4.35058689117 -210.206878662
endloop
endfacet
facet normal 0.0 0.0 1.0
outer loop
vertex 6.70407485962 4.12985610962 -206.635879517
vertex 6.70057582855 4.07997846603 -206.635879517
vertex 9.75279426575 3.8136267662 -206.635879517
endloop
endfacet
facet normal 0.0 0.0 1.0
outer loop
vertex 6.70407485962 4.12985610962 -206.635879517
vertex 9.75279426575 3.8136267662 -206.635879517
vertex 9.75798797607 3.86335635185 -206.635879517
endloop
endfacet
facet normal 0.0 0.0 1.0
outer loop
vertex 3.64286446571 4.29232883453 -206.635879517
vertex 3.64106416702 4.24236154556 -206.635879517
vertex 6.70057582855 4.07997846603 -206.635879517
endloop
endfacet
facet normal 0.0 0.0 1.0
outer loop
vertex 3.64286446571 4.29232883453 -206.635879517
vertex 6.70057582855 4.07997846603 -206.635879517
vertex 6.70407485962 4.12985610962 -206.635879517
endloop
endfacet
facet normal 0.0 0.0 1.0
outer loop
vertex 0.577899336815 4.35058689117 -206.635879517
vertex 0.57779955864 4.30058717728 -206.635879517
vertex 3.64106416702 4.24236154556 -206.635879517
endloop
endfacet
facet normal 0.0 0.0 1.0
outer loop
vertex 0.577899336815 4.35058689117 -206.635879517
vertex 3.64106416702 4.24236154556 -206.635879517
vertex 3.64286446571 4.29232883453 -206.635879517
endloop
endfacet
facet normal 0.0 0.0 -1.0
outer loop
vertex 9.75279426575 3.8136267662 -210.206878662
vertex 6.70057582855 4.07997846603 -210.206878662
vertex 9.75798797607 3.86335635185 -210.206878662
endloop
endfacet
facet normal 0.0 0.0 -1.0
outer loop
vertex 6.70057582855 4.07997846603 -210.206878662
vertex 6.70407485962 4.12985563278 -210.206878662
vertex 9.75798797607 3.86335635185 -210.206878662
endloop
endfacet
facet normal 0.0 0.0 -1.0
outer loop
vertex 6.70057582855 4.07997846603 -210.206878662
vertex 3.64106416702 4.24236106873 -210.206878662
vertex 6.70407485962 4.12985563278 -210.206878662
endloop
endfacet
facet normal 0.0 0.0 -1.0
outer loop
vertex 3.64106416702 4.24236106873 -210.206878662
vertex 3.64286446571 4.29232883453 -210.206878662
vertex 6.70407485962 4.12985563278 -210.206878662
endloop
endfacet
facet normal 0.0 0.0 -1.0
outer loop
vertex 3.64106416702 4.24236106873 -210.206878662
vertex 0.577799499035 4.30058717728 -210.206878662
vertex 3.64286446571 4.29232883453 -210.206878662
endloop
endfacet
facet normal 0.0 0.0 -1.0
outer loop
vertex 0.577799499035 4.30058717728 -210.206878662
vertex 0.577899336815 4.35058689117 -210.206878662
vertex 3.64286446571 4.29232883453 -210.206878662
endloop
endfacet
