solid 
facet normal -0.122090227902 -0.992519021034 0.0
outer loop
vertex -9.8773355484 -3.85081243515 -320.701904297
vertex -9.8773355484 -3.85081243515 -317.13092041
vertex -12.919921875 -3.47654247284 -317.13092041
endloop
endfacet
facet normal -0.155778110027 -0.98779207468 0.0
outer loop
vertex -12.919921875 -3.47654247284 -320.701904297
vertex -12.919921875 -3.47654247284 -317.13092041
vertex -15.9480171204 -2.99900174141 -317.13092041
endloop
endfacet
facet normal -0.122090227902 -0.992519021034 0.0
outer loop
vertex -12.919921875 -3.47654247284 -320.701904297
vertex -9.8773355484 -3.85081243515 -320.701904297
vertex -12.919921875 -3.47654247284 -317.13092041
endloop
endfacet
facet normal -0.189285680652 -0.981922030449 0.0
outer loop
vertex -15.9480171204 -2.99900174141 -320.701904297
vertex -15.9480171204 -2.99900174141 -317.13092041
vertex -18.9581165314 -2.41874313354 -317.13092041
endloop
endfacet
facet normal -0.155778110027 -0.98779207468 0.0
outer loop
vertex -15.9480171204 -2.99900174141 -320.701904297
vertex -12.919921875 -3.47654247284 -320.701904297
vertex -15.9480171204 -2.99900174141 -317.13092041
endloop
endfacet
facet normal -0.189285740256 -0.981922030449 -6.55585310483e-08
outer loop
vertex -18.9581165314 -2.41874289513 -320.701904297
vertex -15.9480171204 -2.99900174141 -320.701904297
vertex -18.9581165314 -2.41874313354 -317.13092041
endloop
endfacet
facet normal -0.978561341763 0.205955684185 1.36921585181e-08
outer loop
vertex -18.9581165314 -2.41874289513 -320.701904297
vertex -18.9478187561 -2.36981511116 -317.13092041
vertex -18.9478187561 -2.36981487274 -320.701904297
endloop
endfacet
facet normal -0.978561341763 0.205955684185 1.37507374376e-08
outer loop
vertex -18.9581165314 -2.41874313354 -317.13092041
vertex -18.9478187561 -2.36981511116 -317.13092041
vertex -18.9581165314 -2.41874289513 -320.701904297
endloop
endfacet
facet normal 0.122090220451 0.992519021034 9.80622019142e-08
outer loop
vertex -9.87207603455 -3.80109000206 -317.13092041
vertex -12.9129734039 -3.42702746391 -320.701904297
vertex -12.9129743576 -3.42702770233 -317.13092041
endloop
endfacet
facet normal 0.155778154731 0.98779207468 1.07552878603e-07
outer loop
vertex -12.9129743576 -3.42702770233 -317.13092041
vertex -12.9129734039 -3.42702746391 -320.701904297
vertex -15.9393892288 -2.94975185394 -317.13092041
endloop
endfacet
facet normal 0.122090250254 0.99251896143 6.62660397666e-08
outer loop
vertex -9.87207603455 -3.80108976364 -320.701904297
vertex -12.9129734039 -3.42702746391 -320.701904297
vertex -9.87207603455 -3.80109000206 -317.13092041
endloop
endfacet
facet normal 0.189285695553 0.981922030449 6.55585310483e-08
outer loop
vertex -15.9393892288 -2.94975185394 -317.13092041
vertex -15.9393892288 -2.94975161552 -320.701904297
vertex -18.9478187561 -2.36981511116 -317.13092041
endloop
endfacet
facet normal 0.155778095126 0.98779207468 7.62706022783e-08
outer loop
vertex -12.9129734039 -3.42702746391 -320.701904297
vertex -15.9393892288 -2.94975161552 -320.701904297
vertex -15.9393892288 -2.94975185394 -317.13092041
endloop
endfacet
facet normal 0.189285695553 0.981922030449 6.53748344348e-08
outer loop
vertex -15.9393892288 -2.94975161552 -320.701904297
vertex -18.9478187561 -2.36981487274 -320.701904297
vertex -18.9478187561 -2.36981511116 -317.13092041
endloop
endfacet
facet normal 0.994452118874 -0.105190142989 -7.02307412226e-09
outer loop
vertex -9.87207603455 -3.80108976364 -320.701904297
vertex -9.87207603455 -3.80109000206 -317.13092041
vertex -9.8773355484 -3.85081243515 -320.701904297
endloop
endfacet
facet normal 0.994451999664 -0.105190634727 0.0
outer loop
vertex -9.87207603455 -3.80109000206 -317.13092041
vertex -9.8773355484 -3.85081243515 -317.13092041
vertex -9.8773355484 -3.85081243515 -320.701904297
endloop
endfacet
facet normal 0.0 -0.0 1.0
outer loop
vertex -15.9480171204 -2.99900174141 -317.13092041
vertex -15.9393892288 -2.94975185394 -317.13092041
vertex -18.9478187561 -2.36981511116 -317.13092041
endloop
endfacet
facet normal 0.0 0.0 1.0
outer loop
vertex -15.9480171204 -2.99900174141 -317.13092041
vertex -18.9478187561 -2.36981511116 -317.13092041
vertex -18.9581165314 -2.41874313354 -317.13092041
endloop
endfacet
facet normal 0.0 -0.0 1.0
outer loop
vertex -12.919921875 -3.47654247284 -317.13092041
vertex -12.9129743576 -3.42702770233 -317.13092041
vertex -15.9393892288 -2.94975185394 -317.13092041
endloop
endfacet
facet normal 0.0 0.0 1.0
outer loop
vertex -12.919921875 -3.47654247284 -317.13092041
vertex -15.9393892288 -2.94975185394 -317.13092041
vertex -15.9480171204 -2.99900174141 -317.13092041
endloop
endfacet
facet normal 0.0 -0.0 1.0
outer loop
vertex -9.8773355484 -3.85081243515 -317.13092041
vertex -9.87207603455 -3.80109000206 -317.13092041
vertex -12.9129743576 -3.42702770233 -317.13092041
endloop
endfacet
facet normal 0.0 0.0 1.0
outer loop
vertex -9.8773355484 -3.85081243515 -317.13092041
vertex -12.9129743576 -3.42702770233 -317.13092041
vertex -12.919921875 -3.47654247284 -317.13092041
endloop
endfacet
facet normal -0.0 0.0 -1.0
outer loop
vertex -15.9393892288 -2.94975161552 -320.701904297
vertex -15.9480171204 -2.99900174141 -320.701904297
vertex -18.9478187561 -2.36981487274 -320.701904297
endloop
endfacet
facet normal 0.0 -0.0 -1.0
outer loop
vertex -18.9478187561 -2.36981487274 -320.701904297
vertex -15.9480171204 -2.99900174141 -320.701904297
vertex -18.9581165314 -2.41874289513 -320.701904297
endloop
endfacet
facet normal -0.0 0.0 -1.0
outer loop
vertex -12.9129734039 -3.42702746391 -320.701904297
vertex -12.919921875 -3.47654247284 -320.701904297
vertex -15.9393892288 -2.94975161552 -320.701904297
endloop
endfacet
facet normal 0.0 -0.0 -1.0
outer loop
vertex -15.9393892288 -2.94975161552 -320.701904297
vertex -12.919921875 -3.47654247284 -320.701904297
vertex -15.9480171204 -2.99900174141 -320.701904297
endloop
endfacet
facet normal -0.0 0.0 -1.0
outer loop
vertex -9.87207603455 -3.80108976364 -320.701904297
vertex -9.8773355484 -3.85081243515 -320.701904297
vertex -12.9129734039 -3.42702746391 -320.701904297
endloop
endfacet
facet normal 0.0 -0.0 -1.0
outer loop
vertex -12.9129734039 -3.42702746391 -320.701904297
vertex -9.8773355484 -3.85081243515 -320.701904297
vertex -12.919921875 -3.47654247284 -320.701904297
endloop
endfacet
