solid 
facet normal -0.0190039947629 -0.999819397926 0.0
outer loop
vertex -0.577878475189 -4.3505859375 124.045783997
vertex -0.577878475189 -4.3505859375 127.616783142
vertex -3.6428437233 -4.29232883453 127.616783142
endloop
endfacet
facet normal -0.0529999248683 -0.998594522476 0.0
outer loop
vertex -3.6428437233 -4.29232883453 124.045783997
vertex -3.6428437233 -4.29232883453 127.616783142
vertex -6.70405387878 -4.12985658646 127.616783142
endloop
endfacet
facet normal -0.0190039947629 -0.999819397926 0.0
outer loop
vertex -3.6428437233 -4.29232883453 124.045783997
vertex -0.577878475189 -4.3505859375 124.045783997
vertex -3.6428437233 -4.29232883453 127.616783142
endloop
endfacet
facet normal -0.0869343131781 -0.996214032173 0.0
outer loop
vertex -6.70405387878 -4.12985658646 124.045783997
vertex -6.70405387878 -4.12985658646 127.616783142
vertex -9.75796699524 -3.86335778236 127.616783142
endloop
endfacet
facet normal -0.0529999248683 -0.998594522476 0.0
outer loop
vertex -6.70405387878 -4.12985658646 124.045783997
vertex -3.6428437233 -4.29232883453 124.045783997
vertex -6.70405387878 -4.12985658646 127.616783142
endloop
endfacet
facet normal -0.0869343131781 -0.996214032173 0.0
outer loop
vertex -9.75796699524 -3.86335778236 124.045783997
vertex -6.70405387878 -4.12985658646 124.045783997
vertex -9.75796699524 -3.86335778236 127.616783142
endloop
endfacet
facet normal -0.994590461254 0.103874079883 0.0
outer loop
vertex -9.75796699524 -3.86335778236 124.045783997
vertex -9.75796699524 -3.86335778236 127.616783142
vertex -9.75277328491 -3.81362819672 127.616783142
endloop
endfacet
facet normal -0.994590461254 0.103874079883 0.0
outer loop
vertex -9.75277328491 -3.81362819672 124.045783997
vertex -9.75796699524 -3.86335778236 124.045783997
vertex -9.75277328491 -3.81362819672 127.616783142
endloop
endfacet
facet normal 0.0190041158348 0.999819397926 0.0
outer loop
vertex -0.577778697014 -4.3005862236 127.616783142
vertex -0.577778697014 -4.3005862236 124.045783997
vertex -3.64104342461 -4.24236106873 127.616783142
endloop
endfacet
facet normal 0.0190041158348 0.999819397926 0.0
outer loop
vertex -0.577778697014 -4.3005862236 124.045783997
vertex -3.64104342461 -4.24236106873 124.045783997
vertex -3.64104342461 -4.24236106873 127.616783142
endloop
endfacet
facet normal 0.0529999248683 0.998594522476 -1.33473022856e-07
outer loop
vertex -3.64104342461 -4.24236106873 127.616783142
vertex -6.70055532455 -4.07997941971 124.045783997
vertex -6.70055532455 -4.07997894287 127.616783142
endloop
endfacet
facet normal 0.0869342759252 0.996214032173 -1.33024926185e-07
outer loop
vertex -6.70055532455 -4.07997894287 127.616783142
vertex -6.70055532455 -4.07997941971 124.045783997
vertex -9.75277328491 -3.81362819672 127.616783142
endloop
endfacet
facet normal 0.0529997721314 0.998594522476 -0.0
outer loop
vertex -3.64104342461 -4.24236106873 124.045783997
vertex -6.70055532455 -4.07997941971 124.045783997
vertex -3.64104342461 -4.24236106873 127.616783142
endloop
endfacet
facet normal 0.0869344323874 0.996214032173 0.0
outer loop
vertex -6.70055532455 -4.07997941971 124.045783997
vertex -9.75277328491 -3.81362819672 124.045783997
vertex -9.75277328491 -3.81362819672 127.616783142
endloop
endfacet
facet normal 0.999998092651 -0.00199557119049 0.0
outer loop
vertex -0.577778697014 -4.3005862236 124.045783997
vertex -0.577778697014 -4.3005862236 127.616783142
vertex -0.577878475189 -4.3505859375 127.616783142
endloop
endfacet
facet normal 0.999998092651 -0.00199557119049 0.0
outer loop
vertex -0.577878475189 -4.3505859375 124.045783997
vertex -0.577778697014 -4.3005862236 124.045783997
vertex -0.577878475189 -4.3505859375 127.616783142
endloop
endfacet
facet normal -0.0 0.0 -1.0
outer loop
vertex -6.70055532455 -4.07997941971 124.045783997
vertex -6.70405387878 -4.12985658646 124.045783997
vertex -9.75277328491 -3.81362819672 124.045783997
endloop
endfacet
facet normal 0.0 -0.0 -1.0
outer loop
vertex -9.75277328491 -3.81362819672 124.045783997
vertex -6.70405387878 -4.12985658646 124.045783997
vertex -9.75796699524 -3.86335778236 124.045783997
endloop
endfacet
facet normal -0.0 0.0 -1.0
outer loop
vertex -3.64104342461 -4.24236106873 124.045783997
vertex -3.6428437233 -4.29232883453 124.045783997
vertex -6.70055532455 -4.07997941971 124.045783997
endloop
endfacet
facet normal 0.0 -0.0 -1.0
outer loop
vertex -6.70055532455 -4.07997941971 124.045783997
vertex -3.6428437233 -4.29232883453 124.045783997
vertex -6.70405387878 -4.12985658646 124.045783997
endloop
endfacet
facet normal -0.0 0.0 -1.0
outer loop
vertex -0.577778697014 -4.3005862236 124.045783997
vertex -0.577878475189 -4.3505859375 124.045783997
vertex -3.64104342461 -4.24236106873 124.045783997
endloop
endfacet
facet normal 0.0 -0.0 -1.0
outer loop
vertex -3.64104342461 -4.24236106873 124.045783997
vertex -0.577878475189 -4.3505859375 124.045783997
vertex -3.6428437233 -4.29232883453 124.045783997
endloop
endfacet
facet normal 0.0 0.0 1.0
outer loop
vertex -6.70055532455 -4.07997894287 127.616783142
vertex -9.75277328491 -3.81362819672 127.616783142
vertex -9.75796699524 -3.86335778236 127.616783142
endloop
endfacet
facet normal 0.0 -0.0 1.0
outer loop
vertex -6.70405387878 -4.12985658646 127.616783142
vertex -6.70055532455 -4.07997894287 127.616783142
vertex -9.75796699524 -3.86335778236 127.616783142
endloop
endfacet
facet normal 0.0 0.0 1.0
outer loop
vertex -3.64104342461 -4.24236106873 127.616783142
vertex -6.70055532455 -4.07997894287 127.616783142
vertex -6.70405387878 -4.12985658646 127.616783142
endloop
endfacet
facet normal 0.0 -0.0 1.0
outer loop
vertex -3.6428437233 -4.29232883453 127.616783142
vertex -3.64104342461 -4.24236106873 127.616783142
vertex -6.70405387878 -4.12985658646 127.616783142
endloop
endfacet
facet normal 0.0 0.0 1.0
outer loop
vertex -0.577778697014 -4.3005862236 127.616783142
vertex -3.64104342461 -4.24236106873 127.616783142
vertex -3.6428437233 -4.29232883453 127.616783142
endloop
endfacet
facet normal 0.0 -0.0 1.0
outer loop
vertex -0.577878475189 -4.3505859375 127.616783142
vertex -0.577778697014 -4.3005862236 127.616783142
vertex -3.6428437233 -4.29232883453 127.616783142
endloop
endfacet
