solid 
facet normal -0.0190043058246 0.999819397926 0.0
outer loop
vertex -3.64286446571 4.29232883453 316.627990723
vertex -0.577899336815 4.35058689117 316.627990723
vertex -0.577899336815 4.35058689117 313.057006836
endloop
endfacet
facet normal -0.0190043058246 0.999819397926 0.0
outer loop
vertex -3.64286446571 4.29232883453 316.627990723
vertex -0.577899336815 4.35058689117 313.057006836
vertex -3.64286446571 4.29232883453 313.057006836
endloop
endfacet
facet normal -0.0530000701547 0.998594522476 1.33343363018e-07
outer loop
vertex -6.70407485962 4.12985563278 316.627990723
vertex -3.64286446571 4.29232883453 313.057006836
vertex -6.70407485962 4.12985610962 313.057006836
endloop
endfacet
facet normal -0.0530002266169 0.998594522476 0.0
outer loop
vertex -6.70407485962 4.12985563278 316.627990723
vertex -3.64286446571 4.29232883453 316.627990723
vertex -3.64286446571 4.29232883453 313.057006836
endloop
endfacet
facet normal -0.0869346261024 0.996214032173 0.0
outer loop
vertex -9.75798797607 3.86335635185 316.627990723
vertex -6.70407485962 4.12985610962 313.057006836
vertex -9.75798797607 3.86335635185 313.057006836
endloop
endfacet
facet normal -0.0869344696403 0.996214032173 1.30677079824e-07
outer loop
vertex -9.75798797607 3.86335635185 316.627990723
vertex -6.70407485962 4.12985563278 316.627990723
vertex -6.70407485962 4.12985610962 313.057006836
endloop
endfacet
facet normal -0.994590401649 -0.103874072433 -0.0
outer loop
vertex -9.75798797607 3.86335635185 316.627990723
vertex -9.75798797607 3.86335635185 313.057006836
vertex -9.75279426575 3.8136267662 316.627990723
endloop
endfacet
facet normal -0.994590401649 -0.103874072433 0.0
outer loop
vertex -9.75798797607 3.86335635185 313.057006836
vertex -9.75279426575 3.8136267662 313.057006836
vertex -9.75279426575 3.8136267662 316.627990723
endloop
endfacet
facet normal 0.019004272297 -0.999819397926 -1.33473591291e-07
outer loop
vertex -0.57779955864 4.30058717728 313.057006836
vertex -3.64106416702 4.24236106873 316.627990723
vertex -3.64106416702 4.24236154556 313.057006836
endloop
endfacet
facet normal 0.053000241518 -0.998594522476 -1.33343363018e-07
outer loop
vertex -3.64106416702 4.24236154556 313.057006836
vertex -3.64106416702 4.24236106873 316.627990723
vertex -6.70057582855 4.07997846603 313.057006836
endloop
endfacet
facet normal 0.0190044287592 -0.999819397926 -3.17210119283e-10
outer loop
vertex -0.577799499035 4.30058717728 316.627990723
vertex -3.64106416702 4.24236106873 316.627990723
vertex -0.57779955864 4.30058717728 313.057006836
endloop
endfacet
facet normal 0.0530000850558 -0.998594522476 0.0
outer loop
vertex -3.64106416702 4.24236106873 316.627990723
vertex -6.70057582855 4.07997846603 316.627990723
vertex -6.70057582855 4.07997846603 313.057006836
endloop
endfacet
facet normal 0.0869345664978 -0.996214032173 0.0
outer loop
vertex -6.70057582855 4.07997846603 313.057006836
vertex -9.75279426575 3.8136267662 316.627990723
vertex -9.75279426575 3.8136267662 313.057006836
endloop
endfacet
facet normal 0.0869345664978 -0.996214032173 0.0
outer loop
vertex -6.70057582855 4.07997846603 316.627990723
vertex -9.75279426575 3.8136267662 316.627990723
vertex -6.70057582855 4.07997846603 313.057006836
endloop
endfacet
facet normal 0.999997973442 0.00199676305056 -1.66913451949e-08
outer loop
vertex -0.577799499035 4.30058717728 316.627990723
vertex -0.57779955864 4.30058717728 313.057006836
vertex -0.577899336815 4.35058689117 316.627990723
endloop
endfacet
facet normal 0.999997973442 0.00199557095766 0.0
outer loop
vertex -0.57779955864 4.30058717728 313.057006836
vertex -0.577899336815 4.35058689117 313.057006836
vertex -0.577899336815 4.35058689117 316.627990723
endloop
endfacet
facet normal 0.0 -0.0 -1.0
outer loop
vertex -6.70407485962 4.12985610962 313.057006836
vertex -6.70057582855 4.07997846603 313.057006836
vertex -9.75279426575 3.8136267662 313.057006836
endloop
endfacet
facet normal 0.0 0.0 -1.0
outer loop
vertex -6.70407485962 4.12985610962 313.057006836
vertex -9.75279426575 3.8136267662 313.057006836
vertex -9.75798797607 3.86335635185 313.057006836
endloop
endfacet
facet normal 0.0 -0.0 -1.0
outer loop
vertex -3.64286446571 4.29232883453 313.057006836
vertex -3.64106416702 4.24236154556 313.057006836
vertex -6.70057582855 4.07997846603 313.057006836
endloop
endfacet
facet normal 0.0 0.0 -1.0
outer loop
vertex -3.64286446571 4.29232883453 313.057006836
vertex -6.70057582855 4.07997846603 313.057006836
vertex -6.70407485962 4.12985610962 313.057006836
endloop
endfacet
facet normal 0.0 -0.0 -1.0
outer loop
vertex -0.577899336815 4.35058689117 313.057006836
vertex -0.57779955864 4.30058717728 313.057006836
vertex -3.64106416702 4.24236154556 313.057006836
endloop
endfacet
facet normal 0.0 0.0 -1.0
outer loop
vertex -0.577899336815 4.35058689117 313.057006836
vertex -3.64106416702 4.24236154556 313.057006836
vertex -3.64286446571 4.29232883453 313.057006836
endloop
endfacet
facet normal 0.0 -0.0 1.0
outer loop
vertex -9.75279426575 3.8136267662 316.627990723
vertex -6.70057582855 4.07997846603 316.627990723
vertex -9.75798797607 3.86335635185 316.627990723
endloop
endfacet
facet normal 0.0 0.0 1.0
outer loop
vertex -6.70057582855 4.07997846603 316.627990723
vertex -6.70407485962 4.12985563278 316.627990723
vertex -9.75798797607 3.86335635185 316.627990723
endloop
endfacet
facet normal 0.0 -0.0 1.0
outer loop
vertex -6.70057582855 4.07997846603 316.627990723
vertex -3.64106416702 4.24236106873 316.627990723
vertex -6.70407485962 4.12985563278 316.627990723
endloop
endfacet
facet normal 0.0 0.0 1.0
outer loop
vertex -3.64106416702 4.24236106873 316.627990723
vertex -3.64286446571 4.29232883453 316.627990723
vertex -6.70407485962 4.12985563278 316.627990723
endloop
endfacet
facet normal 0.0 -0.0 1.0
outer loop
vertex -3.64106416702 4.24236106873 316.627990723
vertex -0.577799499035 4.30058717728 316.627990723
vertex -3.64286446571 4.29232883453 316.627990723
endloop
endfacet
facet normal 0.0 0.0 1.0
outer loop
vertex -0.577799499035 4.30058717728 316.627990723
vertex -0.577899336815 4.35058689117 316.627990723
vertex -3.64286446571 4.29232883453 316.627990723
endloop
endfacet
