solid 
facet normal -0.0190039947629 -0.999819397926 0.0
outer loop
vertex -3.6428437233 -4.2923283577 116.803787231
vertex -0.577878594398 -4.35058546066 116.803787231
vertex -0.577878594398 -4.35058546066 120.374786377
endloop
endfacet
facet normal -0.0190039947629 -0.999819397926 0.0
outer loop
vertex -3.6428437233 -4.2923283577 116.803787231
vertex -0.577878594398 -4.35058546066 120.374786377
vertex -3.6428437233 -4.2923283577 120.374786377
endloop
endfacet
facet normal -0.0529999136925 -0.998594522476 0.0
outer loop
vertex -6.70405435562 -4.12985610962 116.803787231
vertex -3.6428437233 -4.2923283577 120.374786377
vertex -6.70405435562 -4.12985610962 120.374786377
endloop
endfacet
facet normal -0.0529999136925 -0.998594522476 0.0
outer loop
vertex -6.70405435562 -4.12985610962 116.803787231
vertex -3.6428437233 -4.2923283577 116.803787231
vertex -3.6428437233 -4.2923283577 120.374786377
endloop
endfacet
facet normal -0.0869342535734 -0.996214032173 0.0
outer loop
vertex -9.75796699524 -3.86335754395 116.803787231
vertex -6.70405435562 -4.12985610962 120.374786377
vertex -9.75796699524 -3.86335754395 120.374786377
endloop
endfacet
facet normal -0.0869342535734 -0.996214032173 0.0
outer loop
vertex -9.75796699524 -3.86335754395 116.803787231
vertex -6.70405435562 -4.12985610962 116.803787231
vertex -6.70405435562 -4.12985610962 120.374786377
endloop
endfacet
facet normal -0.994590461254 0.103874079883 0.0
outer loop
vertex -9.75277328491 -3.8136279583 116.803787231
vertex -9.75796699524 -3.86335754395 116.803787231
vertex -9.75796699524 -3.86335754395 120.374786377
endloop
endfacet
facet normal -0.994590461254 0.103874079883 0.0
outer loop
vertex -9.75277328491 -3.8136279583 116.803787231
vertex -9.75796699524 -3.86335754395 120.374786377
vertex -9.75277328491 -3.8136279583 120.374786377
endloop
endfacet
facet normal 0.0190041176975 0.999819397926 0.0
outer loop
vertex -0.577778816223 -4.30058574677 120.374786377
vertex -3.64104342461 -4.24236059189 116.803787231
vertex -3.64104342461 -4.24236059189 120.374786377
endloop
endfacet
facet normal 0.0190041176975 0.999819397926 -0.0
outer loop
vertex -0.577778816223 -4.30058574677 116.803787231
vertex -3.64104342461 -4.24236059189 116.803787231
vertex -0.577778816223 -4.30058574677 120.374786377
endloop
endfacet
facet normal 0.0529997721314 0.998594522476 0.0
outer loop
vertex -3.64104342461 -4.24236059189 120.374786377
vertex -6.70055532455 -4.07997894287 116.803787231
vertex -6.70055532455 -4.07997894287 120.374786377
endloop
endfacet
facet normal 0.0869343578815 0.996214032173 0.0
outer loop
vertex -6.70055532455 -4.07997894287 120.374786377
vertex -6.70055532455 -4.07997894287 116.803787231
vertex -9.75277328491 -3.8136279583 120.374786377
endloop
endfacet
facet normal 0.0529997721314 0.998594522476 -0.0
outer loop
vertex -3.64104342461 -4.24236059189 116.803787231
vertex -6.70055532455 -4.07997894287 116.803787231
vertex -3.64104342461 -4.24236059189 120.374786377
endloop
endfacet
facet normal 0.0869343578815 0.996214032173 0.0
outer loop
vertex -6.70055532455 -4.07997894287 116.803787231
vertex -9.75277328491 -3.8136279583 116.803787231
vertex -9.75277328491 -3.8136279583 120.374786377
endloop
endfacet
facet normal 0.999998092651 -0.00199557119049 0.0
outer loop
vertex -0.577878594398 -4.35058546066 116.803787231
vertex -0.577778816223 -4.30058574677 116.803787231
vertex -0.577778816223 -4.30058574677 120.374786377
endloop
endfacet
facet normal 0.999998092651 -0.00199557119049 0.0
outer loop
vertex -0.577878594398 -4.35058546066 116.803787231
vertex -0.577778816223 -4.30058574677 120.374786377
vertex -0.577878594398 -4.35058546066 120.374786377
endloop
endfacet
facet normal 0.0 -0.0 -1.0
outer loop
vertex -9.75277328491 -3.8136279583 116.803787231
vertex -6.70055532455 -4.07997894287 116.803787231
vertex -9.75796699524 -3.86335754395 116.803787231
endloop
endfacet
facet normal -0.0 0.0 -1.0
outer loop
vertex -6.70055532455 -4.07997894287 116.803787231
vertex -6.70405435562 -4.12985610962 116.803787231
vertex -9.75796699524 -3.86335754395 116.803787231
endloop
endfacet
facet normal 0.0 -0.0 -1.0
outer loop
vertex -6.70055532455 -4.07997894287 116.803787231
vertex -3.64104342461 -4.24236059189 116.803787231
vertex -6.70405435562 -4.12985610962 116.803787231
endloop
endfacet
facet normal -0.0 0.0 -1.0
outer loop
vertex -3.64104342461 -4.24236059189 116.803787231
vertex -3.6428437233 -4.2923283577 116.803787231
vertex -6.70405435562 -4.12985610962 116.803787231
endloop
endfacet
facet normal 0.0 -0.0 -1.0
outer loop
vertex -3.64104342461 -4.24236059189 116.803787231
vertex -0.577778816223 -4.30058574677 116.803787231
vertex -3.6428437233 -4.2923283577 116.803787231
endloop
endfacet
facet normal -0.0 0.0 -1.0
outer loop
vertex -0.577778816223 -4.30058574677 116.803787231
vertex -0.577878594398 -4.35058546066 116.803787231
vertex -3.6428437233 -4.2923283577 116.803787231
endloop
endfacet
facet normal 0.0 0.0 1.0
outer loop
vertex -6.70055532455 -4.07997894287 120.374786377
vertex -9.75277328491 -3.8136279583 120.374786377
vertex -9.75796699524 -3.86335754395 120.374786377
endloop
endfacet
facet normal 0.0 -0.0 1.0
outer loop
vertex -6.70405435562 -4.12985610962 120.374786377
vertex -6.70055532455 -4.07997894287 120.374786377
vertex -9.75796699524 -3.86335754395 120.374786377
endloop
endfacet
facet normal 0.0 0.0 1.0
outer loop
vertex -3.64104342461 -4.24236059189 120.374786377
vertex -6.70055532455 -4.07997894287 120.374786377
vertex -6.70405435562 -4.12985610962 120.374786377
endloop
endfacet
facet normal 0.0 -0.0 1.0
outer loop
vertex -3.6428437233 -4.2923283577 120.374786377
vertex -3.64104342461 -4.24236059189 120.374786377
vertex -6.70405435562 -4.12985610962 120.374786377
endloop
endfacet
facet normal 0.0 0.0 1.0
outer loop
vertex -0.577778816223 -4.30058574677 120.374786377
vertex -3.64104342461 -4.24236059189 120.374786377
vertex -3.6428437233 -4.2923283577 120.374786377
endloop
endfacet
facet normal 0.0 -0.0 1.0
outer loop
vertex -0.577878594398 -4.35058546066 120.374786377
vertex -0.577778816223 -4.30058574677 120.374786377
vertex -3.6428437233 -4.2923283577 120.374786377
endloop
endfacet
