solid 
facet normal 0.0190039947629 0.999819397926 -0.0
outer loop
vertex 0.577878415585 4.3505859375 229.98399353
vertex 0.577878415585 4.3505859375 233.554992676
vertex 3.6428437233 4.29232883453 233.554992676
endloop
endfacet
facet normal 0.0529999248683 0.998594522476 -0.0
outer loop
vertex 3.6428437233 4.29232883453 229.98399353
vertex 3.6428437233 4.29232883453 233.554992676
vertex 6.70405387878 4.12985658646 233.554992676
endloop
endfacet
facet normal 0.0190039947629 0.999819397926 -0.0
outer loop
vertex 3.6428437233 4.29232883453 229.98399353
vertex 0.577878415585 4.3505859375 229.98399353
vertex 3.6428437233 4.29232883453 233.554992676
endloop
endfacet
facet normal 0.0529999248683 0.998594522476 -0.0
outer loop
vertex 6.70405387878 4.12985658646 229.98399353
vertex 3.6428437233 4.29232883453 229.98399353
vertex 6.70405387878 4.12985658646 233.554992676
endloop
endfacet
facet normal 0.0869343131781 0.996214032173 -0.0
outer loop
vertex 9.75796699524 3.86335778236 229.98399353
vertex 6.70405387878 4.12985658646 233.554992676
vertex 9.75796699524 3.86335778236 233.554992676
endloop
endfacet
facet normal 0.0869343131781 0.996214032173 0.0
outer loop
vertex 9.75796699524 3.86335778236 229.98399353
vertex 6.70405387878 4.12985658646 229.98399353
vertex 6.70405387878 4.12985658646 233.554992676
endloop
endfacet
facet normal 0.994590461254 -0.103874079883 0.0
outer loop
vertex 9.75796699524 3.86335778236 229.98399353
vertex 9.75796699524 3.86335778236 233.554992676
vertex 9.75277328491 3.81362819672 233.554992676
endloop
endfacet
facet normal 0.994590461254 -0.103874079883 0.0
outer loop
vertex 9.75277328491 3.81362819672 229.98399353
vertex 9.75796699524 3.86335778236 229.98399353
vertex 9.75277328491 3.81362819672 233.554992676
endloop
endfacet
facet normal -0.0190041158348 -0.999819397926 3.17203541211e-10
outer loop
vertex 0.577778697014 4.3005862236 233.554992676
vertex 0.577778637409 4.3005862236 229.98399353
vertex 3.64104342461 4.24236106873 233.554992676
endloop
endfacet
facet normal -0.0190041176975 -0.999819397926 1.36196953715e-09
outer loop
vertex 0.577778637409 4.3005862236 229.98399353
vertex 3.64104318619 4.24236106873 229.98399353
vertex 3.64104342461 4.24236106873 233.554992676
endloop
endfacet
facet normal -0.0529999248683 -0.998594522476 0.0
outer loop
vertex 3.64104342461 4.24236106873 233.554992676
vertex 6.70055532455 4.07997894287 229.98399353
vertex 6.70055532455 4.07997894287 233.554992676
endloop
endfacet
facet normal -0.0869342759252 -0.996214032173 -0.0
outer loop
vertex 6.70055532455 4.07997894287 233.554992676
vertex 6.70055532455 4.07997894287 229.98399353
vertex 9.75277328491 3.81362819672 233.554992676
endloop
endfacet
facet normal -0.0529999211431 -0.998594522476 3.53855189594e-09
outer loop
vertex 3.64104318619 4.24236106873 229.98399353
vertex 6.70055532455 4.07997894287 229.98399353
vertex 3.64104342461 4.24236106873 233.554992676
endloop
endfacet
facet normal -0.0869342759252 -0.996214032173 0.0
outer loop
vertex 6.70055532455 4.07997894287 229.98399353
vertex 9.75277328491 3.81362819672 229.98399353
vertex 9.75277328491 3.81362819672 233.554992676
endloop
endfacet
facet normal -0.999998092651 0.0019943790976 1.6691275917e-08
outer loop
vertex 0.577778637409 4.3005862236 229.98399353
vertex 0.577778697014 4.3005862236 233.554992676
vertex 0.577878415585 4.3505859375 233.554992676
endloop
endfacet
facet normal -0.999998092651 0.00199557119049 0.0
outer loop
vertex 0.577878415585 4.3505859375 229.98399353
vertex 0.577778637409 4.3005862236 229.98399353
vertex 0.577878415585 4.3505859375 233.554992676
endloop
endfacet
facet normal 0.0 0.0 -1.0
outer loop
vertex 6.70055532455 4.07997894287 229.98399353
vertex 6.70405387878 4.12985658646 229.98399353
vertex 9.75277328491 3.81362819672 229.98399353
endloop
endfacet
facet normal 0.0 0.0 -1.0
outer loop
vertex 9.75277328491 3.81362819672 229.98399353
vertex 6.70405387878 4.12985658646 229.98399353
vertex 9.75796699524 3.86335778236 229.98399353
endloop
endfacet
facet normal 0.0 0.0 -1.0
outer loop
vertex 3.64104318619 4.24236106873 229.98399353
vertex 3.6428437233 4.29232883453 229.98399353
vertex 6.70055532455 4.07997894287 229.98399353
endloop
endfacet
facet normal 0.0 0.0 -1.0
outer loop
vertex 6.70055532455 4.07997894287 229.98399353
vertex 3.6428437233 4.29232883453 229.98399353
vertex 6.70405387878 4.12985658646 229.98399353
endloop
endfacet
facet normal 0.0 0.0 -1.0
outer loop
vertex 0.577778637409 4.3005862236 229.98399353
vertex 0.577878415585 4.3505859375 229.98399353
vertex 3.64104318619 4.24236106873 229.98399353
endloop
endfacet
facet normal 0.0 0.0 -1.0
outer loop
vertex 3.64104318619 4.24236106873 229.98399353
vertex 0.577878415585 4.3505859375 229.98399353
vertex 3.6428437233 4.29232883453 229.98399353
endloop
endfacet
facet normal 0.0 0.0 1.0
outer loop
vertex 6.70055532455 4.07997894287 233.554992676
vertex 9.75277328491 3.81362819672 233.554992676
vertex 9.75796699524 3.86335778236 233.554992676
endloop
endfacet
facet normal 0.0 0.0 1.0
outer loop
vertex 6.70405387878 4.12985658646 233.554992676
vertex 6.70055532455 4.07997894287 233.554992676
vertex 9.75796699524 3.86335778236 233.554992676
endloop
endfacet
facet normal 0.0 0.0 1.0
outer loop
vertex 3.64104342461 4.24236106873 233.554992676
vertex 6.70055532455 4.07997894287 233.554992676
vertex 6.70405387878 4.12985658646 233.554992676
endloop
endfacet
facet normal 0.0 0.0 1.0
outer loop
vertex 3.6428437233 4.29232883453 233.554992676
vertex 3.64104342461 4.24236106873 233.554992676
vertex 6.70405387878 4.12985658646 233.554992676
endloop
endfacet
facet normal 0.0 0.0 1.0
outer loop
vertex 0.577778697014 4.3005862236 233.554992676
vertex 3.64104342461 4.24236106873 233.554992676
vertex 3.6428437233 4.29232883453 233.554992676
endloop
endfacet
facet normal 0.0 0.0 1.0
outer loop
vertex 0.577878415585 4.3505859375 233.554992676
vertex 0.577778697014 4.3005862236 233.554992676
vertex 3.6428437233 4.29232883453 233.554992676
endloop
endfacet
