solid 
facet normal -0.0190041493624 0.999819397926 0.0
outer loop
vertex -0.577883303165 4.35058641434 -360.127563477
vertex -0.577883303165 4.35058641434 -363.698577881
vertex -3.64284849167 4.29232883453 -363.698577881
endloop
endfacet
facet normal -0.0529999211431 0.998594522476 0.0
outer loop
vertex -3.64284849167 4.29232883453 -360.127563477
vertex -3.64284849167 4.29232883453 -363.698577881
vertex -6.70405864716 4.12985658646 -363.698577881
endloop
endfacet
facet normal -0.0190041493624 0.999819397926 0.0
outer loop
vertex -3.64284849167 4.29232883453 -360.127563477
vertex -0.577883303165 4.35058641434 -360.127563477
vertex -3.64284849167 4.29232883453 -363.698577881
endloop
endfacet
facet normal -0.0529999211431 0.998594522476 0.0
outer loop
vertex -6.70405864716 4.12985658646 -360.127563477
vertex -3.64284849167 4.29232883453 -360.127563477
vertex -6.70405864716 4.12985658646 -363.698577881
endloop
endfacet
facet normal -0.0869343876839 0.996214032173 -6.65121717702e-08
outer loop
vertex -9.75797176361 3.86335778236 -360.127563477
vertex -6.70405864716 4.12985658646 -363.698577881
vertex -9.75797176361 3.86335754395 -363.698577881
endloop
endfacet
facet normal -0.0869343131781 0.996214032173 0.0
outer loop
vertex -9.75797176361 3.86335778236 -360.127563477
vertex -6.70405864716 4.12985658646 -360.127563477
vertex -6.70405864716 4.12985658646 -363.698577881
endloop
endfacet
facet normal -0.994590342045 -0.10387455672 6.93517954176e-09
outer loop
vertex -9.75797176361 3.86335778236 -360.127563477
vertex -9.75797176361 3.86335754395 -363.698577881
vertex -9.75277805328 3.81362819672 -363.698577881
endloop
endfacet
facet normal -0.994590461254 -0.103874072433 -0.0
outer loop
vertex -9.75277805328 3.81362819672 -360.127563477
vertex -9.75797176361 3.86335778236 -360.127563477
vertex -9.75277805328 3.81362819672 -363.698577881
endloop
endfacet
facet normal 0.019004272297 -0.999819397926 3.17204817968e-10
outer loop
vertex -0.57778352499 4.30058670044 -363.698577881
vertex -0.577783584595 4.30058670044 -360.127563477
vertex -3.64104819298 4.24236106873 -363.698577881
endloop
endfacet
facet normal 0.0190041158348 -0.999819397926 1.33472454422e-07
outer loop
vertex -0.577783584595 4.30058670044 -360.127563477
vertex -3.64104819298 4.24236154556 -360.127563477
vertex -3.64104819298 4.24236106873 -363.698577881
endloop
endfacet
facet normal 0.0529997684062 -0.998594522476 0.0
outer loop
vertex -3.64104819298 4.24236106873 -363.698577881
vertex -6.70056009293 4.07997941971 -360.127563477
vertex -6.70056009293 4.07997941971 -363.698577881
endloop
endfacet
facet normal 0.0869344323874 -0.996214032173 0.0
outer loop
vertex -6.70056009293 4.07997941971 -363.698577881
vertex -6.70056009293 4.07997941971 -360.127563477
vertex -9.75277805328 3.81362819672 -363.698577881
endloop
endfacet
facet normal 0.0529999285936 -0.998594522476 1.3334222615e-07
outer loop
vertex -3.64104819298 4.24236154556 -360.127563477
vertex -6.70056009293 4.07997941971 -360.127563477
vertex -3.64104819298 4.24236106873 -363.698577881
endloop
endfacet
facet normal 0.0869344323874 -0.996214032173 0.0
outer loop
vertex -6.70056009293 4.07997941971 -360.127563477
vertex -9.75277805328 3.81362819672 -360.127563477
vertex -9.75277805328 3.81362819672 -363.698577881
endloop
endfacet
facet normal 0.999997973442 0.00199557095766 1.66912030863e-08
outer loop
vertex -0.577783584595 4.30058670044 -360.127563477
vertex -0.57778352499 4.30058670044 -363.698577881
vertex -0.577883303165 4.35058641434 -363.698577881
endloop
endfacet
facet normal 0.999997973442 0.00199437886477 0.0
outer loop
vertex -0.577883303165 4.35058641434 -360.127563477
vertex -0.577783584595 4.30058670044 -360.127563477
vertex -0.577883303165 4.35058641434 -363.698577881
endloop
endfacet
facet normal 0.0 0.0 1.0
outer loop
vertex -6.70056009293 4.07997941971 -360.127563477
vertex -6.70405864716 4.12985658646 -360.127563477
vertex -9.75277805328 3.81362819672 -360.127563477
endloop
endfacet
facet normal 0.0 -0.0 1.0
outer loop
vertex -9.75277805328 3.81362819672 -360.127563477
vertex -6.70405864716 4.12985658646 -360.127563477
vertex -9.75797176361 3.86335778236 -360.127563477
endloop
endfacet
facet normal 0.0 0.0 1.0
outer loop
vertex -3.64104819298 4.24236154556 -360.127563477
vertex -3.64284849167 4.29232883453 -360.127563477
vertex -6.70056009293 4.07997941971 -360.127563477
endloop
endfacet
facet normal 0.0 -0.0 1.0
outer loop
vertex -6.70056009293 4.07997941971 -360.127563477
vertex -3.64284849167 4.29232883453 -360.127563477
vertex -6.70405864716 4.12985658646 -360.127563477
endloop
endfacet
facet normal 0.0 0.0 1.0
outer loop
vertex -0.577783584595 4.30058670044 -360.127563477
vertex -0.577883303165 4.35058641434 -360.127563477
vertex -3.64104819298 4.24236154556 -360.127563477
endloop
endfacet
facet normal 0.0 -0.0 1.0
outer loop
vertex -3.64104819298 4.24236154556 -360.127563477
vertex -0.577883303165 4.35058641434 -360.127563477
vertex -3.64284849167 4.29232883453 -360.127563477
endloop
endfacet
facet normal 0.0 0.0 -1.0
outer loop
vertex -6.70056009293 4.07997941971 -363.698577881
vertex -9.75277805328 3.81362819672 -363.698577881
vertex -9.75797176361 3.86335754395 -363.698577881
endloop
endfacet
facet normal 0.0 -0.0 -1.0
outer loop
vertex -6.70405864716 4.12985658646 -363.698577881
vertex -6.70056009293 4.07997941971 -363.698577881
vertex -9.75797176361 3.86335754395 -363.698577881
endloop
endfacet
facet normal 0.0 0.0 -1.0
outer loop
vertex -3.64104819298 4.24236106873 -363.698577881
vertex -6.70056009293 4.07997941971 -363.698577881
vertex -6.70405864716 4.12985658646 -363.698577881
endloop
endfacet
facet normal 0.0 -0.0 -1.0
outer loop
vertex -3.64284849167 4.29232883453 -363.698577881
vertex -3.64104819298 4.24236106873 -363.698577881
vertex -6.70405864716 4.12985658646 -363.698577881
endloop
endfacet
facet normal 0.0 0.0 -1.0
outer loop
vertex -0.57778352499 4.30058670044 -363.698577881
vertex -3.64104819298 4.24236106873 -363.698577881
vertex -3.64284849167 4.29232883453 -363.698577881
endloop
endfacet
facet normal 0.0 -0.0 -1.0
outer loop
vertex -0.577883303165 4.35058641434 -363.698577881
vertex -0.57778352499 4.30058670044 -363.698577881
vertex -3.64284849167 4.29232883453 -363.698577881
endloop
endfacet
