solid 
facet normal -0.122090190649 -0.99251896143 -3.26054490074e-08
outer loop
vertex -9.87732982635 -3.85081315041 -88.2111282349
vertex -9.87733078003 -3.85081315041 -84.64012146
vertex -12.919916153 -3.47654342651 -84.64012146
endloop
endfacet
facet normal -0.15577802062 -0.98779207468 -6.59500187794e-08
outer loop
vertex -12.919916153 -3.4765431881 -88.2111282349
vertex -12.919916153 -3.47654342651 -84.64012146
vertex -15.9480113983 -2.9990029335 -84.64012146
endloop
endfacet
facet normal -0.122090220451 -0.99251896143 -6.62656134409e-08
outer loop
vertex -12.919916153 -3.4765431881 -88.2111282349
vertex -9.87732982635 -3.85081315041 -88.2111282349
vertex -12.919916153 -3.47654342651 -84.64012146
endloop
endfacet
facet normal -0.189285561442 -0.981922090054 0.0
outer loop
vertex -15.9480113983 -2.9990029335 -88.2111282349
vertex -15.9480113983 -2.9990029335 -84.64012146
vertex -18.9581127167 -2.41874432564 -84.64012146
endloop
endfacet
facet normal -0.155777961016 -0.987792134285 0.0
outer loop
vertex -15.9480113983 -2.9990029335 -88.2111282349
vertex -12.919916153 -3.4765431881 -88.2111282349
vertex -15.9480113983 -2.9990029335 -84.64012146
endloop
endfacet
facet normal -0.189285561442 -0.981922090054 0.0
outer loop
vertex -18.9581127167 -2.41874432564 -88.2111282349
vertex -15.9480113983 -2.9990029335 -88.2111282349
vertex -18.9581127167 -2.41874432564 -84.64012146
endloop
endfacet
facet normal -0.978553593159 0.205992221832 0.0
outer loop
vertex -18.9581127167 -2.41874432564 -88.2111282349
vertex -18.9478130341 -2.36981630325 -84.64012146
vertex -18.9478130341 -2.36981630325 -88.2111282349
endloop
endfacet
facet normal -0.978553593159 0.205992221832 0.0
outer loop
vertex -18.9581127167 -2.41874432564 -84.64012146
vertex -18.9478130341 -2.36981630325 -84.64012146
vertex -18.9581127167 -2.41874432564 -88.2111282349
endloop
endfacet
facet normal 0.122090175748 0.99251896143 0.0
outer loop
vertex -9.87207126617 -3.8010904789 -84.64012146
vertex -12.9129686356 -3.42702841759 -88.2111282349
vertex -12.9129686356 -3.42702841759 -84.64012146
endloop
endfacet
facet normal 0.155777990818 0.98779207468 0.0
outer loop
vertex -12.9129686356 -3.42702841759 -84.64012146
vertex -12.9129686356 -3.42702841759 -88.2111282349
vertex -15.9393835068 -2.94975304604 -84.64012146
endloop
endfacet
facet normal 0.122090131044 0.992519021034 3.26054347966e-08
outer loop
vertex -9.8720703125 -3.8010904789 -88.2111282349
vertex -12.9129686356 -3.42702841759 -88.2111282349
vertex -9.87207126617 -3.8010904789 -84.64012146
endloop
endfacet
facet normal 0.189285710454 0.981922030449 6.55581118281e-08
outer loop
vertex -15.9393835068 -2.94975304604 -84.64012146
vertex -15.9393835068 -2.94975280762 -88.2111282349
vertex -18.9478130341 -2.36981630325 -84.64012146
endloop
endfacet
facet normal 0.155778065324 0.98779207468 6.53744010037e-08
outer loop
vertex -12.9129686356 -3.42702841759 -88.2111282349
vertex -15.9393835068 -2.94975280762 -88.2111282349
vertex -15.9393835068 -2.94975304604 -84.64012146
endloop
endfacet
facet normal 0.189285621047 0.981922030449 0.0
outer loop
vertex -15.9393835068 -2.94975280762 -88.2111282349
vertex -18.9478130341 -2.36981630325 -88.2111282349
vertex -18.9478130341 -2.36981630325 -84.64012146
endloop
endfacet
facet normal 0.994452178478 -0.105190135539 2.65578734115e-07
outer loop
vertex -9.8720703125 -3.8010904789 -88.2111282349
vertex -9.87207126617 -3.8010904789 -84.64012146
vertex -9.87732982635 -3.85081315041 -88.2111282349
endloop
endfacet
facet normal 0.994452178478 -0.105190135539 2.65527802412e-07
outer loop
vertex -9.87207126617 -3.8010904789 -84.64012146
vertex -9.87733078003 -3.85081315041 -84.64012146
vertex -9.87732982635 -3.85081315041 -88.2111282349
endloop
endfacet
facet normal 0.0 -0.0 1.0
outer loop
vertex -15.9480113983 -2.9990029335 -84.64012146
vertex -15.9393835068 -2.94975304604 -84.64012146
vertex -18.9478130341 -2.36981630325 -84.64012146
endloop
endfacet
facet normal 0.0 0.0 1.0
outer loop
vertex -15.9480113983 -2.9990029335 -84.64012146
vertex -18.9478130341 -2.36981630325 -84.64012146
vertex -18.9581127167 -2.41874432564 -84.64012146
endloop
endfacet
facet normal 0.0 -0.0 1.0
outer loop
vertex -12.919916153 -3.47654342651 -84.64012146
vertex -12.9129686356 -3.42702841759 -84.64012146
vertex -15.9393835068 -2.94975304604 -84.64012146
endloop
endfacet
facet normal 0.0 0.0 1.0
outer loop
vertex -12.919916153 -3.47654342651 -84.64012146
vertex -15.9393835068 -2.94975304604 -84.64012146
vertex -15.9480113983 -2.9990029335 -84.64012146
endloop
endfacet
facet normal 0.0 -0.0 1.0
outer loop
vertex -9.87733078003 -3.85081315041 -84.64012146
vertex -9.87207126617 -3.8010904789 -84.64012146
vertex -12.9129686356 -3.42702841759 -84.64012146
endloop
endfacet
facet normal 0.0 0.0 1.0
outer loop
vertex -9.87733078003 -3.85081315041 -84.64012146
vertex -12.9129686356 -3.42702841759 -84.64012146
vertex -12.919916153 -3.47654342651 -84.64012146
endloop
endfacet
facet normal -0.0 0.0 -1.0
outer loop
vertex -15.9393835068 -2.94975280762 -88.2111282349
vertex -15.9480113983 -2.9990029335 -88.2111282349
vertex -18.9478130341 -2.36981630325 -88.2111282349
endloop
endfacet
facet normal 0.0 -0.0 -1.0
outer loop
vertex -18.9478130341 -2.36981630325 -88.2111282349
vertex -15.9480113983 -2.9990029335 -88.2111282349
vertex -18.9581127167 -2.41874432564 -88.2111282349
endloop
endfacet
facet normal -0.0 0.0 -1.0
outer loop
vertex -12.9129686356 -3.42702841759 -88.2111282349
vertex -12.919916153 -3.4765431881 -88.2111282349
vertex -15.9393835068 -2.94975280762 -88.2111282349
endloop
endfacet
facet normal 0.0 -0.0 -1.0
outer loop
vertex -15.9393835068 -2.94975280762 -88.2111282349
vertex -12.919916153 -3.4765431881 -88.2111282349
vertex -15.9480113983 -2.9990029335 -88.2111282349
endloop
endfacet
facet normal -0.0 0.0 -1.0
outer loop
vertex -9.8720703125 -3.8010904789 -88.2111282349
vertex -9.87732982635 -3.85081315041 -88.2111282349
vertex -12.9129686356 -3.42702841759 -88.2111282349
endloop
endfacet
facet normal 0.0 -0.0 -1.0
outer loop
vertex -12.9129686356 -3.42702841759 -88.2111282349
vertex -9.87732982635 -3.85081315041 -88.2111282349
vertex -12.919916153 -3.4765431881 -88.2111282349
endloop
endfacet
