solid 
facet normal -0.0190041512251 -0.999819397926 1.33822979365e-07
outer loop
vertex -0.577893674374 -4.35058689117 407.050567627
vertex -0.577893614769 -4.35058641434 410.621582031
vertex -3.64285874367 -4.29232883453 410.621582031
endloop
endfacet
facet normal -0.0530000701547 -0.998594462872 3.53854678892e-09
outer loop
vertex -3.64285898209 -4.29232883453 407.050567627
vertex -3.64285874367 -4.29232883453 410.621582031
vertex -6.70406913757 -4.12985610962 410.621582031
endloop
endfacet
facet normal -0.0190043058246 -0.999819397926 1.2688213813e-09
outer loop
vertex -3.64285898209 -4.29232883453 407.050567627
vertex -0.577893674374 -4.35058689117 407.050567627
vertex -3.64285874367 -4.29232883453 410.621582031
endloop
endfacet
facet normal -0.0869345441461 -0.996213972569 0.0
outer loop
vertex -6.70406913757 -4.12985610962 407.050567627
vertex -6.70406913757 -4.12985610962 410.621582031
vertex -9.75798225403 -3.86335659027 410.621582031
endloop
endfacet
facet normal -0.0530000776052 -0.998594522476 0.0
outer loop
vertex -6.70406913757 -4.12985610962 407.050567627
vertex -3.64285898209 -4.29232883453 407.050567627
vertex -6.70406913757 -4.12985610962 410.621582031
endloop
endfacet
facet normal -0.0869344696403 -0.996214032173 6.65121717702e-08
outer loop
vertex -9.75798225403 -3.86335682869 407.050567627
vertex -6.70406913757 -4.12985610962 407.050567627
vertex -9.75798225403 -3.86335659027 410.621582031
endloop
endfacet
facet normal -0.994590342045 0.10387455672 -6.93517954176e-09
outer loop
vertex -9.75798225403 -3.86335682869 407.050567627
vertex -9.75798225403 -3.86335659027 410.621582031
vertex -9.7527885437 -3.81362724304 410.621582031
endloop
endfacet
facet normal -0.994590461254 0.103874072433 0.0
outer loop
vertex -9.7527885437 -3.81362724304 407.050567627
vertex -9.75798225403 -3.86335682869 407.050567627
vertex -9.7527885437 -3.81362724304 410.621582031
endloop
endfacet
facet normal 0.019004272297 0.999819397926 -3.17204817968e-10
outer loop
vertex -0.577793836594 -4.30058670044 410.621582031
vertex -0.577793896198 -4.30058670044 407.050567627
vertex -3.64105844498 -4.24236106873 410.621582031
endloop
endfacet
facet normal 0.019004272297 0.999819397926 0.0
outer loop
vertex -0.577793896198 -4.30058670044 407.050567627
vertex -3.64105844498 -4.24236106873 407.050567627
vertex -3.64105844498 -4.24236106873 410.621582031
endloop
endfacet
facet normal 0.0530000887811 0.998594522476 -1.33472454422e-07
outer loop
vertex -3.64105844498 -4.24236106873 410.621582031
vertex -6.70057010651 -4.07997894287 407.050567627
vertex -6.70057010651 -4.07997846603 410.621582031
endloop
endfacet
facet normal 0.0869344174862 0.996214032173 -1.3302434354e-07
outer loop
vertex -6.70057010651 -4.07997846603 410.621582031
vertex -6.70057010651 -4.07997894287 407.050567627
vertex -9.7527885437 -3.81362724304 410.621582031
endloop
endfacet
facet normal 0.0529999323189 0.998594522476 -0.0
outer loop
vertex -3.64105844498 -4.24236106873 407.050567627
vertex -6.70057010651 -4.07997894287 407.050567627
vertex -3.64105844498 -4.24236106873 410.621582031
endloop
endfacet
facet normal 0.0869345739484 0.996214032173 0.0
outer loop
vertex -6.70057010651 -4.07997894287 407.050567627
vertex -9.7527885437 -3.81362724304 407.050567627
vertex -9.7527885437 -3.81362724304 410.621582031
endloop
endfacet
facet normal 0.999997973442 -0.00199557095766 -1.66912030863e-08
outer loop
vertex -0.577793896198 -4.30058670044 407.050567627
vertex -0.577793836594 -4.30058670044 410.621582031
vertex -0.577893614769 -4.35058641434 410.621582031
endloop
endfacet
facet normal 0.999997973442 -0.00199555186555 -1.64247371259e-08
outer loop
vertex -0.577893674374 -4.35058689117 407.050567627
vertex -0.577793896198 -4.30058670044 407.050567627
vertex -0.577893614769 -4.35058641434 410.621582031
endloop
endfacet
facet normal -0.0 0.0 -1.0
outer loop
vertex -6.70057010651 -4.07997894287 407.050567627
vertex -6.70406913757 -4.12985610962 407.050567627
vertex -9.7527885437 -3.81362724304 407.050567627
endloop
endfacet
facet normal 0.0 -0.0 -1.0
outer loop
vertex -9.7527885437 -3.81362724304 407.050567627
vertex -6.70406913757 -4.12985610962 407.050567627
vertex -9.75798225403 -3.86335682869 407.050567627
endloop
endfacet
facet normal -0.0 0.0 -1.0
outer loop
vertex -3.64105844498 -4.24236106873 407.050567627
vertex -3.64285898209 -4.29232883453 407.050567627
vertex -6.70057010651 -4.07997894287 407.050567627
endloop
endfacet
facet normal 0.0 -0.0 -1.0
outer loop
vertex -6.70057010651 -4.07997894287 407.050567627
vertex -3.64285898209 -4.29232883453 407.050567627
vertex -6.70406913757 -4.12985610962 407.050567627
endloop
endfacet
facet normal -0.0 0.0 -1.0
outer loop
vertex -0.577793896198 -4.30058670044 407.050567627
vertex -0.577893674374 -4.35058689117 407.050567627
vertex -3.64105844498 -4.24236106873 407.050567627
endloop
endfacet
facet normal 0.0 -0.0 -1.0
outer loop
vertex -3.64105844498 -4.24236106873 407.050567627
vertex -0.577893674374 -4.35058689117 407.050567627
vertex -3.64285898209 -4.29232883453 407.050567627
endloop
endfacet
facet normal 0.0 0.0 1.0
outer loop
vertex -6.70057010651 -4.07997846603 410.621582031
vertex -9.7527885437 -3.81362724304 410.621582031
vertex -9.75798225403 -3.86335659027 410.621582031
endloop
endfacet
facet normal 0.0 -0.0 1.0
outer loop
vertex -6.70406913757 -4.12985610962 410.621582031
vertex -6.70057010651 -4.07997846603 410.621582031
vertex -9.75798225403 -3.86335659027 410.621582031
endloop
endfacet
facet normal 0.0 0.0 1.0
outer loop
vertex -3.64105844498 -4.24236106873 410.621582031
vertex -6.70057010651 -4.07997846603 410.621582031
vertex -6.70406913757 -4.12985610962 410.621582031
endloop
endfacet
facet normal 0.0 -0.0 1.0
outer loop
vertex -3.64285874367 -4.29232883453 410.621582031
vertex -3.64105844498 -4.24236106873 410.621582031
vertex -6.70406913757 -4.12985610962 410.621582031
endloop
endfacet
facet normal 0.0 0.0 1.0
outer loop
vertex -0.577793836594 -4.30058670044 410.621582031
vertex -3.64105844498 -4.24236106873 410.621582031
vertex -3.64285874367 -4.29232883453 410.621582031
endloop
endfacet
facet normal 0.0 -0.0 1.0
outer loop
vertex -0.577893614769 -4.35058641434 410.621582031
vertex -0.577793836594 -4.30058670044 410.621582031
vertex -3.64285874367 -4.29232883453 410.621582031
endloop
endfacet
