solid 
facet normal 0.0190039947629 -0.999819397926 0.0
outer loop
vertex 0.577878415585 -4.3505859375 -26.8241214752
vertex 0.577878415585 -4.3505859375 -30.3951225281
vertex 3.6428437233 -4.29232883453 -30.3951225281
endloop
endfacet
facet normal 0.0529999248683 -0.998594522476 0.0
outer loop
vertex 3.6428437233 -4.29232883453 -26.8241214752
vertex 3.6428437233 -4.29232883453 -30.3951225281
vertex 6.70405387878 -4.12985658646 -30.3951225281
endloop
endfacet
facet normal 0.0190039947629 -0.999819397926 0.0
outer loop
vertex 3.6428437233 -4.29232883453 -26.8241214752
vertex 0.577878415585 -4.3505859375 -26.8241214752
vertex 3.6428437233 -4.29232883453 -30.3951225281
endloop
endfacet
facet normal 0.0869343131781 -0.996214032173 0.0
outer loop
vertex 6.70405387878 -4.12985658646 -26.8241214752
vertex 6.70405387878 -4.12985658646 -30.3951225281
vertex 9.75796699524 -3.86335778236 -30.3951225281
endloop
endfacet
facet normal 0.0529999248683 -0.998594522476 0.0
outer loop
vertex 6.70405387878 -4.12985658646 -26.8241214752
vertex 3.6428437233 -4.29232883453 -26.8241214752
vertex 6.70405387878 -4.12985658646 -30.3951225281
endloop
endfacet
facet normal 0.0869343131781 -0.996214032173 0.0
outer loop
vertex 9.75796699524 -3.86335778236 -26.8241214752
vertex 6.70405387878 -4.12985658646 -26.8241214752
vertex 9.75796699524 -3.86335778236 -30.3951225281
endloop
endfacet
facet normal 0.994590461254 0.103874072433 0.0
outer loop
vertex 9.75796699524 -3.86335778236 -26.8241214752
vertex 9.75796699524 -3.86335778236 -30.3951225281
vertex 9.75277328491 -3.81362819672 -30.3951225281
endloop
endfacet
facet normal 0.994590461254 0.103874072433 0.0
outer loop
vertex 9.75277328491 -3.81362819672 -26.8241214752
vertex 9.75796699524 -3.86335778236 -26.8241214752
vertex 9.75277328491 -3.81362819672 -30.3951225281
endloop
endfacet
facet normal -0.0190041176975 0.999819397926 0.0
outer loop
vertex 0.577778637409 -4.3005862236 -30.3951225281
vertex 0.577778637409 -4.3005862236 -26.8241214752
vertex 3.64104318619 -4.24236106873 -30.3951225281
endloop
endfacet
facet normal -0.0190041176975 0.999819397926 0.0
outer loop
vertex 0.577778637409 -4.3005862236 -26.8241214752
vertex 3.64104318619 -4.24236106873 -26.8241214752
vertex 3.64104318619 -4.24236106873 -30.3951225281
endloop
endfacet
facet normal -0.0529999248683 0.998594522476 0.0
outer loop
vertex 3.64104318619 -4.24236106873 -30.3951225281
vertex 6.70055532455 -4.07997894287 -26.8241214752
vertex 6.70055532455 -4.07997894287 -30.3951225281
endloop
endfacet
facet normal -0.0869342759252 0.996214032173 0.0
outer loop
vertex 6.70055532455 -4.07997894287 -30.3951225281
vertex 6.70055532455 -4.07997894287 -26.8241214752
vertex 9.75277328491 -3.81362819672 -30.3951225281
endloop
endfacet
facet normal -0.0529999248683 0.998594522476 0.0
outer loop
vertex 3.64104318619 -4.24236106873 -26.8241214752
vertex 6.70055532455 -4.07997894287 -26.8241214752
vertex 3.64104318619 -4.24236106873 -30.3951225281
endloop
endfacet
facet normal -0.0869342759252 0.996214032173 0.0
outer loop
vertex 6.70055532455 -4.07997894287 -26.8241214752
vertex 9.75277328491 -3.81362819672 -26.8241214752
vertex 9.75277328491 -3.81362819672 -30.3951225281
endloop
endfacet
facet normal -0.999998092651 -0.00199557119049 -0.0
outer loop
vertex 0.577778637409 -4.3005862236 -26.8241214752
vertex 0.577778637409 -4.3005862236 -30.3951225281
vertex 0.577878415585 -4.3505859375 -30.3951225281
endloop
endfacet
facet normal -0.999998092651 -0.00199557119049 -0.0
outer loop
vertex 0.577878415585 -4.3505859375 -26.8241214752
vertex 0.577778637409 -4.3005862236 -26.8241214752
vertex 0.577878415585 -4.3505859375 -30.3951225281
endloop
endfacet
facet normal -0.0 0.0 1.0
outer loop
vertex 6.70055532455 -4.07997894287 -26.8241214752
vertex 6.70405387878 -4.12985658646 -26.8241214752
vertex 9.75277328491 -3.81362819672 -26.8241214752
endloop
endfacet
facet normal 0.0 0.0 1.0
outer loop
vertex 9.75277328491 -3.81362819672 -26.8241214752
vertex 6.70405387878 -4.12985658646 -26.8241214752
vertex 9.75796699524 -3.86335778236 -26.8241214752
endloop
endfacet
facet normal -0.0 0.0 1.0
outer loop
vertex 3.64104318619 -4.24236106873 -26.8241214752
vertex 3.6428437233 -4.29232883453 -26.8241214752
vertex 6.70055532455 -4.07997894287 -26.8241214752
endloop
endfacet
facet normal 0.0 0.0 1.0
outer loop
vertex 6.70055532455 -4.07997894287 -26.8241214752
vertex 3.6428437233 -4.29232883453 -26.8241214752
vertex 6.70405387878 -4.12985658646 -26.8241214752
endloop
endfacet
facet normal -0.0 0.0 1.0
outer loop
vertex 0.577778637409 -4.3005862236 -26.8241214752
vertex 0.577878415585 -4.3505859375 -26.8241214752
vertex 3.64104318619 -4.24236106873 -26.8241214752
endloop
endfacet
facet normal 0.0 0.0 1.0
outer loop
vertex 3.64104318619 -4.24236106873 -26.8241214752
vertex 0.577878415585 -4.3505859375 -26.8241214752
vertex 3.6428437233 -4.29232883453 -26.8241214752
endloop
endfacet
facet normal 0.0 0.0 -1.0
outer loop
vertex 6.70055532455 -4.07997894287 -30.3951225281
vertex 9.75277328491 -3.81362819672 -30.3951225281
vertex 9.75796699524 -3.86335778236 -30.3951225281
endloop
endfacet
facet normal 0.0 0.0 -1.0
outer loop
vertex 6.70405387878 -4.12985658646 -30.3951225281
vertex 6.70055532455 -4.07997894287 -30.3951225281
vertex 9.75796699524 -3.86335778236 -30.3951225281
endloop
endfacet
facet normal 0.0 0.0 -1.0
outer loop
vertex 3.64104318619 -4.24236106873 -30.3951225281
vertex 6.70055532455 -4.07997894287 -30.3951225281
vertex 6.70405387878 -4.12985658646 -30.3951225281
endloop
endfacet
facet normal 0.0 0.0 -1.0
outer loop
vertex 3.6428437233 -4.29232883453 -30.3951225281
vertex 3.64104318619 -4.24236106873 -30.3951225281
vertex 6.70405387878 -4.12985658646 -30.3951225281
endloop
endfacet
facet normal 0.0 0.0 -1.0
outer loop
vertex 0.577778637409 -4.3005862236 -30.3951225281
vertex 3.64104318619 -4.24236106873 -30.3951225281
vertex 3.6428437233 -4.29232883453 -30.3951225281
endloop
endfacet
facet normal 0.0 0.0 -1.0
outer loop
vertex 0.577878415585 -4.3505859375 -30.3951225281
vertex 0.577778637409 -4.3005862236 -30.3951225281
vertex 3.6428437233 -4.29232883453 -30.3951225281
endloop
endfacet
