solid 
facet normal 0.0190043058246 0.999819397926 0.0
outer loop
vertex 3.64286470413 4.29232883453 -199.37387085
vertex 0.577899575233 4.35058689117 -199.37387085
vertex 0.577899575233 4.35058689117 -195.802871704
endloop
endfacet
facet normal 0.0190043058246 0.999819397926 -0.0
outer loop
vertex 3.64286470413 4.29232883453 -199.37387085
vertex 0.577899575233 4.35058689117 -195.802871704
vertex 3.64286470413 4.29232883453 -195.802871704
endloop
endfacet
facet normal 0.0530000776052 0.998594522476 -0.0
outer loop
vertex 6.70407485962 4.12985610962 -199.37387085
vertex 3.64286470413 4.29232883453 -195.802871704
vertex 6.70407485962 4.12985610962 -195.802871704
endloop
endfacet
facet normal 0.0530000776052 0.998594522476 0.0
outer loop
vertex 6.70407485962 4.12985610962 -199.37387085
vertex 3.64286470413 4.29232883453 -199.37387085
vertex 3.64286470413 4.29232883453 -195.802871704
endloop
endfacet
facet normal 0.0869346261024 0.996214032173 -0.0
outer loop
vertex 9.75798797607 3.86335635185 -199.37387085
vertex 6.70407485962 4.12985610962 -195.802871704
vertex 9.75798797607 3.86335635185 -195.802871704
endloop
endfacet
facet normal 0.0869346261024 0.996214032173 0.0
outer loop
vertex 9.75798797607 3.86335635185 -199.37387085
vertex 6.70407485962 4.12985610962 -199.37387085
vertex 6.70407485962 4.12985610962 -195.802871704
endloop
endfacet
facet normal 0.994590461254 -0.103874079883 0.0
outer loop
vertex 9.75798797607 3.86335635185 -199.37387085
vertex 9.75798797607 3.86335635185 -195.802871704
vertex 9.75279426575 3.8136267662 -199.37387085
endloop
endfacet
facet normal 0.994590461254 -0.103874079883 0.0
outer loop
vertex 9.75798797607 3.86335635185 -195.802871704
vertex 9.75279426575 3.8136267662 -195.802871704
vertex 9.75279426575 3.8136267662 -199.37387085
endloop
endfacet
facet normal -0.019004272297 -0.999819397926 -0.0
outer loop
vertex 0.577799797058 4.30058717728 -195.802871704
vertex 0.577799797058 4.30058717728 -199.37387085
vertex 3.64106440544 4.24236154556 -195.802871704
endloop
endfacet
facet normal -0.0190044287592 -0.999819397926 1.33473022856e-07
outer loop
vertex 0.577799797058 4.30058717728 -199.37387085
vertex 3.64106440544 4.24236106873 -199.37387085
vertex 3.64106440544 4.24236154556 -195.802871704
endloop
endfacet
facet normal -0.053000241518 -0.998594522476 0.0
outer loop
vertex 3.64106440544 4.24236154556 -195.802871704
vertex 6.70057630539 4.07997846603 -199.37387085
vertex 6.70057630539 4.07997846603 -195.802871704
endloop
endfacet
facet normal -0.0530000813305 -0.998594522476 1.33342794584e-07
outer loop
vertex 3.64106440544 4.24236106873 -199.37387085
vertex 6.70057630539 4.07997846603 -199.37387085
vertex 3.64106440544 4.24236154556 -195.802871704
endloop
endfacet
facet normal -0.0869345888495 -0.996214032173 0.0
outer loop
vertex 6.70057630539 4.07997846603 -195.802871704
vertex 9.75279426575 3.8136267662 -199.37387085
vertex 9.75279426575 3.8136267662 -195.802871704
endloop
endfacet
facet normal -0.0869345888495 -0.996214032173 0.0
outer loop
vertex 6.70057630539 4.07997846603 -199.37387085
vertex 9.75279426575 3.8136267662 -199.37387085
vertex 6.70057630539 4.07997846603 -195.802871704
endloop
endfacet
facet normal -0.999998092651 0.00199557119049 0.0
outer loop
vertex 0.577799797058 4.30058717728 -199.37387085
vertex 0.577899575233 4.35058689117 -195.802871704
vertex 0.577899575233 4.35058689117 -199.37387085
endloop
endfacet
facet normal -0.999998092651 0.00199557119049 0.0
outer loop
vertex 0.577799797058 4.30058717728 -195.802871704
vertex 0.577899575233 4.35058689117 -195.802871704
vertex 0.577799797058 4.30058717728 -199.37387085
endloop
endfacet
facet normal 0.0 0.0 1.0
outer loop
vertex 6.70057630539 4.07997846603 -195.802871704
vertex 9.75279426575 3.8136267662 -195.802871704
vertex 9.75798797607 3.86335635185 -195.802871704
endloop
endfacet
facet normal 0.0 0.0 1.0
outer loop
vertex 6.70407485962 4.12985610962 -195.802871704
vertex 6.70057630539 4.07997846603 -195.802871704
vertex 9.75798797607 3.86335635185 -195.802871704
endloop
endfacet
facet normal 0.0 0.0 1.0
outer loop
vertex 3.64106440544 4.24236154556 -195.802871704
vertex 6.70057630539 4.07997846603 -195.802871704
vertex 6.70407485962 4.12985610962 -195.802871704
endloop
endfacet
facet normal 0.0 0.0 1.0
outer loop
vertex 3.64286470413 4.29232883453 -195.802871704
vertex 3.64106440544 4.24236154556 -195.802871704
vertex 6.70407485962 4.12985610962 -195.802871704
endloop
endfacet
facet normal 0.0 0.0 1.0
outer loop
vertex 0.577899575233 4.35058689117 -195.802871704
vertex 0.577799797058 4.30058717728 -195.802871704
vertex 3.64106440544 4.24236154556 -195.802871704
endloop
endfacet
facet normal 0.0 0.0 1.0
outer loop
vertex 0.577899575233 4.35058689117 -195.802871704
vertex 3.64106440544 4.24236154556 -195.802871704
vertex 3.64286470413 4.29232883453 -195.802871704
endloop
endfacet
facet normal 0.0 0.0 -1.0
outer loop
vertex 9.75279426575 3.8136267662 -199.37387085
vertex 6.70057630539 4.07997846603 -199.37387085
vertex 9.75798797607 3.86335635185 -199.37387085
endloop
endfacet
facet normal 0.0 0.0 -1.0
outer loop
vertex 6.70057630539 4.07997846603 -199.37387085
vertex 6.70407485962 4.12985610962 -199.37387085
vertex 9.75798797607 3.86335635185 -199.37387085
endloop
endfacet
facet normal 0.0 0.0 -1.0
outer loop
vertex 6.70057630539 4.07997846603 -199.37387085
vertex 3.64106440544 4.24236106873 -199.37387085
vertex 6.70407485962 4.12985610962 -199.37387085
endloop
endfacet
facet normal 0.0 0.0 -1.0
outer loop
vertex 3.64106440544 4.24236106873 -199.37387085
vertex 3.64286470413 4.29232883453 -199.37387085
vertex 6.70407485962 4.12985610962 -199.37387085
endloop
endfacet
facet normal 0.0 0.0 -1.0
outer loop
vertex 0.577799797058 4.30058717728 -199.37387085
vertex 0.577899575233 4.35058689117 -199.37387085
vertex 3.64106440544 4.24236106873 -199.37387085
endloop
endfacet
facet normal 0.0 0.0 -1.0
outer loop
vertex 3.64106440544 4.24236106873 -199.37387085
vertex 0.577899575233 4.35058689117 -199.37387085
vertex 3.64286470413 4.29232883453 -199.37387085
endloop
endfacet
