solid 
facet normal 0.0190041512251 -0.999819397926 1.33399538527e-07
outer loop
vertex 3.64285373688 -4.29232883453 388.955566406
vertex 0.577888607979 -4.35058641434 388.955566406
vertex 0.577888607979 -4.35058689117 385.38458252
endloop
endfacet
facet normal 0.0190043058246 -0.999819397926 0.0
outer loop
vertex 3.64285373688 -4.29232883453 388.955566406
vertex 0.577888607979 -4.35058689117 385.38458252
vertex 3.64285373688 -4.29232883453 385.38458252
endloop
endfacet
facet normal 0.0529999211431 -0.998594522476 0.0
outer loop
vertex 6.70406389236 -4.12985658646 388.955566406
vertex 3.64285373688 -4.29232883453 385.38458252
vertex 6.70406389236 -4.12985658646 385.38458252
endloop
endfacet
facet normal 0.0529999211431 -0.998594522476 0.0
outer loop
vertex 6.70406389236 -4.12985658646 388.955566406
vertex 3.64285373688 -4.29232883453 388.955566406
vertex 3.64285373688 -4.29232883453 385.38458252
endloop
endfacet
facet normal 0.0869344845414 -0.996214032173 0.0
outer loop
vertex 9.75797653198 -3.86335730553 388.955566406
vertex 6.70406389236 -4.12985658646 385.38458252
vertex 9.75797653198 -3.86335730553 385.38458252
endloop
endfacet
facet normal 0.0869344845414 -0.996214032173 0.0
outer loop
vertex 9.75797653198 -3.86335730553 388.955566406
vertex 6.70406389236 -4.12985658646 388.955566406
vertex 6.70406389236 -4.12985658646 385.38458252
endloop
endfacet
facet normal 0.994592428207 0.103855207562 0.0
outer loop
vertex 9.75797653198 -3.86335730553 388.955566406
vertex 9.75797653198 -3.86335730553 385.38458252
vertex 9.75278377533 -3.81362771988 388.955566406
endloop
endfacet
facet normal 0.994592428207 0.103855207562 0.0
outer loop
vertex 9.75797653198 -3.86335730553 385.38458252
vertex 9.75278377533 -3.81362771988 385.38458252
vertex 9.75278377533 -3.81362771988 388.955566406
endloop
endfacet
facet normal -0.0190041176975 0.999819397926 -1.33473591291e-07
outer loop
vertex 0.577788829803 -4.30058670044 385.38458252
vertex 3.64105343819 -4.24236106873 388.955566406
vertex 3.64105343819 -4.24236154556 385.38458252
endloop
endfacet
facet normal -0.0530000813305 0.998594522476 -1.33343363018e-07
outer loop
vertex 3.64105343819 -4.24236154556 385.38458252
vertex 3.64105343819 -4.24236106873 388.955566406
vertex 6.70056533813 -4.07997894287 385.38458252
endloop
endfacet
facet normal -0.019004272297 0.999819397926 0.0
outer loop
vertex 0.577788829803 -4.30058670044 388.955566406
vertex 3.64105343819 -4.24236106873 388.955566406
vertex 0.577788829803 -4.30058670044 385.38458252
endloop
endfacet
facet normal -0.0529999285936 0.998594522476 0.0
outer loop
vertex 3.64105343819 -4.24236106873 388.955566406
vertex 6.70056533813 -4.07997894287 388.955566406
vertex 6.70056533813 -4.07997894287 385.38458252
endloop
endfacet
facet normal -0.0869344174862 0.996214032173 0.0
outer loop
vertex 6.70056533813 -4.07997894287 385.38458252
vertex 9.75278377533 -3.81362771988 388.955566406
vertex 9.75278377533 -3.81362771988 385.38458252
endloop
endfacet
facet normal -0.0869344174862 0.996214032173 0.0
outer loop
vertex 6.70056533813 -4.07997894287 388.955566406
vertex 9.75278377533 -3.81362771988 388.955566406
vertex 6.70056533813 -4.07997894287 385.38458252
endloop
endfacet
facet normal -0.999997973442 -0.00199557095766 -0.0
outer loop
vertex 0.577788829803 -4.30058670044 388.955566406
vertex 0.577788829803 -4.30058670044 385.38458252
vertex 0.577888607979 -4.35058641434 388.955566406
endloop
endfacet
facet normal -0.999998092651 -0.00199555209838 2.64876315326e-10
outer loop
vertex 0.577788829803 -4.30058670044 385.38458252
vertex 0.577888607979 -4.35058689117 385.38458252
vertex 0.577888607979 -4.35058641434 388.955566406
endloop
endfacet
facet normal 0.0 0.0 -1.0
outer loop
vertex 6.70406389236 -4.12985658646 385.38458252
vertex 6.70056533813 -4.07997894287 385.38458252
vertex 9.75278377533 -3.81362771988 385.38458252
endloop
endfacet
facet normal 0.0 0.0 -1.0
outer loop
vertex 6.70406389236 -4.12985658646 385.38458252
vertex 9.75278377533 -3.81362771988 385.38458252
vertex 9.75797653198 -3.86335730553 385.38458252
endloop
endfacet
facet normal 0.0 0.0 -1.0
outer loop
vertex 3.64285373688 -4.29232883453 385.38458252
vertex 3.64105343819 -4.24236154556 385.38458252
vertex 6.70056533813 -4.07997894287 385.38458252
endloop
endfacet
facet normal 0.0 0.0 -1.0
outer loop
vertex 3.64285373688 -4.29232883453 385.38458252
vertex 6.70056533813 -4.07997894287 385.38458252
vertex 6.70406389236 -4.12985658646 385.38458252
endloop
endfacet
facet normal 0.0 0.0 -1.0
outer loop
vertex 0.577888607979 -4.35058689117 385.38458252
vertex 0.577788829803 -4.30058670044 385.38458252
vertex 3.64105343819 -4.24236154556 385.38458252
endloop
endfacet
facet normal 0.0 0.0 -1.0
outer loop
vertex 0.577888607979 -4.35058689117 385.38458252
vertex 3.64105343819 -4.24236154556 385.38458252
vertex 3.64285373688 -4.29232883453 385.38458252
endloop
endfacet
facet normal 0.0 0.0 1.0
outer loop
vertex 9.75278377533 -3.81362771988 388.955566406
vertex 6.70056533813 -4.07997894287 388.955566406
vertex 9.75797653198 -3.86335730553 388.955566406
endloop
endfacet
facet normal -0.0 0.0 1.0
outer loop
vertex 6.70056533813 -4.07997894287 388.955566406
vertex 6.70406389236 -4.12985658646 388.955566406
vertex 9.75797653198 -3.86335730553 388.955566406
endloop
endfacet
facet normal 0.0 0.0 1.0
outer loop
vertex 6.70056533813 -4.07997894287 388.955566406
vertex 3.64105343819 -4.24236106873 388.955566406
vertex 6.70406389236 -4.12985658646 388.955566406
endloop
endfacet
facet normal -0.0 0.0 1.0
outer loop
vertex 3.64105343819 -4.24236106873 388.955566406
vertex 3.64285373688 -4.29232883453 388.955566406
vertex 6.70406389236 -4.12985658646 388.955566406
endloop
endfacet
facet normal 0.0 0.0 1.0
outer loop
vertex 3.64105343819 -4.24236106873 388.955566406
vertex 0.577788829803 -4.30058670044 388.955566406
vertex 3.64285373688 -4.29232883453 388.955566406
endloop
endfacet
facet normal -0.0 0.0 1.0
outer loop
vertex 0.577788829803 -4.30058670044 388.955566406
vertex 0.577888607979 -4.35058641434 388.955566406
vertex 3.64285373688 -4.29232883453 388.955566406
endloop
endfacet
