solid 
facet normal -0.122089967132 0.992519021034 0.0
outer loop
vertex -12.9198989868 3.47654461861 4.23230457306
vertex -9.87731361389 3.85081362724 4.23230409622
vertex -9.87731361389 3.85081362724 0.661304295063
endloop
endfacet
facet normal -0.122089967132 0.992519021034 0.0
outer loop
vertex -12.9198989868 3.47654461861 4.23230457306
vertex -9.87731361389 3.85081362724 0.661304295063
vertex -12.9198989868 3.47654461861 0.661304354668
endloop
endfacet
facet normal -0.155777797103 0.987792134285 0.0
outer loop
vertex -15.9479942322 2.99900484085 4.23230457306
vertex -12.9198989868 3.47654461861 0.661304354668
vertex -15.9479942322 2.99900484085 0.661304473877
endloop
endfacet
facet normal -0.155777797103 0.987792134285 0.0
outer loop
vertex -15.9479942322 2.99900484085 4.23230457306
vertex -12.9198989868 3.47654461861 4.23230457306
vertex -12.9198989868 3.47654461861 0.661304354668
endloop
endfacet
facet normal -0.189285337925 0.981922149658 0.0
outer loop
vertex -18.9580955505 2.41874694824 4.23230457306
vertex -15.9479942322 2.99900484085 0.661304473877
vertex -18.9580955505 2.41874694824 0.661304593086
endloop
endfacet
facet normal -0.189285337925 0.981922149658 0.0
outer loop
vertex -18.9580955505 2.41874694824 4.23230457306
vertex -15.9479942322 2.99900484085 4.23230457306
vertex -15.9479942322 2.99900484085 0.661304473877
endloop
endfacet
facet normal -0.978561341763 -0.205955699086 -0.0
outer loop
vertex -18.9580955505 2.41874694824 4.23230457306
vertex -18.9580955505 2.41874694824 0.661304593086
vertex -18.9477977753 2.36981892586 4.23230457306
endloop
endfacet
facet normal -0.978561341763 -0.205955699086 0.0
outer loop
vertex -18.9580955505 2.41874694824 0.661304593086
vertex -18.9477977753 2.36981892586 0.661304593086
vertex -18.9477977753 2.36981892586 4.23230457306
endloop
endfacet
facet normal 0.12208995223 -0.992519080639 0.0
outer loop
vertex -9.87205410004 3.80109095573 0.661304295063
vertex -9.87205410004 3.80109095573 4.23230409622
vertex -12.9129514694 3.42702960968 0.661304354668
endloop
endfacet
facet normal 0.122089937329 -0.992519080639 0.0
outer loop
vertex -9.87205410004 3.80109095573 4.23230409622
vertex -12.9129514694 3.42702960968 4.23230457306
vertex -12.9129514694 3.42702960968 0.661304354668
endloop
endfacet
facet normal 0.155777722597 -0.987792134285 -4.35830074252e-08
outer loop
vertex -12.9129514694 3.42702960968 0.661304354668
vertex -15.9393663406 2.94975495338 4.23230457306
vertex -15.9393672943 2.94975495338 0.661304473877
endloop
endfacet
facet normal 0.155777767301 -0.987792134285 0.0
outer loop
vertex -12.9129514694 3.42702960968 4.23230457306
vertex -15.9393663406 2.94975495338 4.23230457306
vertex -12.9129514694 3.42702960968 0.661304354668
endloop
endfacet
facet normal 0.189285412431 -0.981922090054 0.0
outer loop
vertex -15.9393672943 2.94975495338 0.661304473877
vertex -18.9477977753 2.36981892586 4.23230457306
vertex -18.9477977753 2.36981892586 0.661304593086
endloop
endfacet
facet normal 0.189285367727 -0.981922090054 -5.05507102844e-08
outer loop
vertex -15.9393663406 2.94975495338 4.23230457306
vertex -18.9477977753 2.36981892586 4.23230457306
vertex -15.9393672943 2.94975495338 0.661304473877
endloop
endfacet
facet normal 0.994452178478 0.105190142989 0.0
outer loop
vertex -9.87205410004 3.80109095573 4.23230409622
vertex -9.87731361389 3.85081362724 0.661304295063
vertex -9.87731361389 3.85081362724 4.23230409622
endloop
endfacet
facet normal 0.994452178478 0.105190142989 -0.0
outer loop
vertex -9.87205410004 3.80109095573 0.661304295063
vertex -9.87731361389 3.85081362724 0.661304295063
vertex -9.87205410004 3.80109095573 4.23230409622
endloop
endfacet
facet normal -3.80801061795e-08 -8.01463784228e-09 -1.0
outer loop
vertex -15.9393672943 2.94975495338 0.661304473877
vertex -18.9477977753 2.36981892586 0.661304593086
vertex -18.9580955505 2.41874694824 0.661304593086
endloop
endfacet
facet normal -3.83094871381e-08 -6.71054456447e-09 -1.0
outer loop
vertex -15.9479942322 2.99900484085 0.661304473877
vertex -15.9393672943 2.94975495338 0.661304473877
vertex -18.9580955505 2.41874694824 0.661304593086
endloop
endfacet
facet normal -3.83307288132e-08 -6.71426514387e-09 -1.0
outer loop
vertex -12.9129514694 3.42702960968 0.661304354668
vertex -15.9393672943 2.94975495338 0.661304473877
vertex -15.9479942322 2.99900484085 0.661304473877
endloop
endfacet
facet normal -3.85154947935e-08 -5.40416067452e-09 -1.0
outer loop
vertex -12.9198989868 3.47654461861 0.661304354668
vertex -12.9129514694 3.42702960968 0.661304354668
vertex -15.9479942322 2.99900484085 0.661304473877
endloop
endfacet
facet normal -1.92684446176e-08 -2.70358135879e-09 -1.0
outer loop
vertex -9.87205410004 3.80109095573 0.661304295063
vertex -12.9129514694 3.42702960968 0.661304354668
vertex -12.9198989868 3.47654461861 0.661304354668
endloop
endfacet
facet normal -1.93385059077e-08 -2.04556860339e-09 -1.0
outer loop
vertex -9.87731361389 3.85081362724 0.661304295063
vertex -9.87205410004 3.80109095573 0.661304295063
vertex -12.9198989868 3.47654461861 0.661304354668
endloop
endfacet
facet normal 0.0 -0.0 1.0
outer loop
vertex -18.9477977753 2.36981892586 4.23230457306
vertex -15.9393663406 2.94975495338 4.23230457306
vertex -18.9580955505 2.41874694824 4.23230457306
endloop
endfacet
facet normal 0.0 0.0 1.0
outer loop
vertex -15.9393663406 2.94975495338 4.23230457306
vertex -15.9479942322 2.99900484085 4.23230457306
vertex -18.9580955505 2.41874694824 4.23230457306
endloop
endfacet
facet normal 0.0 -0.0 1.0
outer loop
vertex -15.9393663406 2.94975495338 4.23230457306
vertex -12.9129514694 3.42702960968 4.23230457306
vertex -15.9479942322 2.99900484085 4.23230457306
endloop
endfacet
facet normal 0.0 0.0 1.0
outer loop
vertex -12.9129514694 3.42702960968 4.23230457306
vertex -12.9198989868 3.47654461861 4.23230457306
vertex -15.9479942322 2.99900484085 4.23230457306
endloop
endfacet
facet normal 1.54147500098e-07 2.16286419885e-08 1.0
outer loop
vertex -12.9129514694 3.42702960968 4.23230457306
vertex -9.87205410004 3.80109095573 4.23230409622
vertex -12.9198989868 3.47654461861 4.23230457306
endloop
endfacet
facet normal 1.54708047262e-07 1.63645488271e-08 1.0
outer loop
vertex -9.87205410004 3.80109095573 4.23230409622
vertex -9.87731361389 3.85081362724 4.23230409622
vertex -12.9198989868 3.47654461861 4.23230457306
endloop
endfacet
