solid 
facet normal -0.0190041493624 -0.999819397926 0.0
outer loop
vertex -0.57788336277 -4.35058641434 356.536560059
vertex -0.57788336277 -4.35058641434 360.107574463
vertex -3.64284849167 -4.29232883453 360.107574463
endloop
endfacet
facet normal -0.0529999211431 -0.998594522476 0.0
outer loop
vertex -3.64284849167 -4.29232883453 356.536560059
vertex -3.64284849167 -4.29232883453 360.107574463
vertex -6.70405864716 -4.12985658646 360.107574463
endloop
endfacet
facet normal -0.0190041493624 -0.999819397926 0.0
outer loop
vertex -3.64284849167 -4.29232883453 356.536560059
vertex -0.57788336277 -4.35058641434 356.536560059
vertex -3.64284849167 -4.29232883453 360.107574463
endloop
endfacet
facet normal -0.0869343131781 -0.996214032173 0.0
outer loop
vertex -6.70405864716 -4.12985658646 356.536560059
vertex -6.70405864716 -4.12985658646 360.107574463
vertex -9.75797176361 -3.86335778236 360.107574463
endloop
endfacet
facet normal -0.0529999211431 -0.998594522476 0.0
outer loop
vertex -6.70405864716 -4.12985658646 356.536560059
vertex -3.64284849167 -4.29232883453 356.536560059
vertex -6.70405864716 -4.12985658646 360.107574463
endloop
endfacet
facet normal -0.0869343131781 -0.996214032173 0.0
outer loop
vertex -9.75797176361 -3.86335778236 356.536560059
vertex -6.70405864716 -4.12985658646 356.536560059
vertex -9.75797176361 -3.86335778236 360.107574463
endloop
endfacet
facet normal -0.994590461254 0.103874072433 0.0
outer loop
vertex -9.75797176361 -3.86335778236 356.536560059
vertex -9.75797176361 -3.86335778236 360.107574463
vertex -9.75277805328 -3.81362819672 360.107574463
endloop
endfacet
facet normal -0.994590461254 0.103874072433 0.0
outer loop
vertex -9.75277805328 -3.81362819672 356.536560059
vertex -9.75797176361 -3.86335778236 356.536560059
vertex -9.75277805328 -3.81362819672 360.107574463
endloop
endfacet
facet normal 0.0190041158348 0.999819397926 0.0
outer loop
vertex -0.577783584595 -4.30058670044 360.107574463
vertex -0.577783584595 -4.30058670044 356.536560059
vertex -3.64104819298 -4.24236154556 360.107574463
endloop
endfacet
facet normal 0.0190041158348 0.999819397926 0.0
outer loop
vertex -0.577783584595 -4.30058670044 356.536560059
vertex -3.64104819298 -4.24236154556 356.536560059
vertex -3.64104819298 -4.24236154556 360.107574463
endloop
endfacet
facet normal 0.0529999285936 0.998594522476 0.0
outer loop
vertex -3.64104819298 -4.24236154556 360.107574463
vertex -6.70056009293 -4.07997941971 356.536560059
vertex -6.70056009293 -4.07997941971 360.107574463
endloop
endfacet
facet normal 0.0869344323874 0.996214032173 0.0
outer loop
vertex -6.70056009293 -4.07997941971 360.107574463
vertex -6.70056009293 -4.07997941971 356.536560059
vertex -9.75277805328 -3.81362819672 360.107574463
endloop
endfacet
facet normal 0.0529999285936 0.998594522476 -0.0
outer loop
vertex -3.64104819298 -4.24236154556 356.536560059
vertex -6.70056009293 -4.07997941971 356.536560059
vertex -3.64104819298 -4.24236154556 360.107574463
endloop
endfacet
facet normal 0.0869344323874 0.996214032173 0.0
outer loop
vertex -6.70056009293 -4.07997941971 356.536560059
vertex -9.75277805328 -3.81362819672 356.536560059
vertex -9.75277805328 -3.81362819672 360.107574463
endloop
endfacet
facet normal 0.999997973442 -0.00199557095766 0.0
outer loop
vertex -0.577783584595 -4.30058670044 356.536560059
vertex -0.577783584595 -4.30058670044 360.107574463
vertex -0.57788336277 -4.35058641434 360.107574463
endloop
endfacet
facet normal 0.999997973442 -0.00199557095766 0.0
outer loop
vertex -0.57788336277 -4.35058641434 356.536560059
vertex -0.577783584595 -4.30058670044 356.536560059
vertex -0.57788336277 -4.35058641434 360.107574463
endloop
endfacet
facet normal -0.0 0.0 -1.0
outer loop
vertex -6.70056009293 -4.07997941971 356.536560059
vertex -6.70405864716 -4.12985658646 356.536560059
vertex -9.75277805328 -3.81362819672 356.536560059
endloop
endfacet
facet normal 0.0 -0.0 -1.0
outer loop
vertex -9.75277805328 -3.81362819672 356.536560059
vertex -6.70405864716 -4.12985658646 356.536560059
vertex -9.75797176361 -3.86335778236 356.536560059
endloop
endfacet
facet normal -0.0 0.0 -1.0
outer loop
vertex -3.64104819298 -4.24236154556 356.536560059
vertex -3.64284849167 -4.29232883453 356.536560059
vertex -6.70056009293 -4.07997941971 356.536560059
endloop
endfacet
facet normal 0.0 -0.0 -1.0
outer loop
vertex -6.70056009293 -4.07997941971 356.536560059
vertex -3.64284849167 -4.29232883453 356.536560059
vertex -6.70405864716 -4.12985658646 356.536560059
endloop
endfacet
facet normal -0.0 0.0 -1.0
outer loop
vertex -0.577783584595 -4.30058670044 356.536560059
vertex -0.57788336277 -4.35058641434 356.536560059
vertex -3.64104819298 -4.24236154556 356.536560059
endloop
endfacet
facet normal 0.0 -0.0 -1.0
outer loop
vertex -3.64104819298 -4.24236154556 356.536560059
vertex -0.57788336277 -4.35058641434 356.536560059
vertex -3.64284849167 -4.29232883453 356.536560059
endloop
endfacet
facet normal 0.0 0.0 1.0
outer loop
vertex -6.70056009293 -4.07997941971 360.107574463
vertex -9.75277805328 -3.81362819672 360.107574463
vertex -9.75797176361 -3.86335778236 360.107574463
endloop
endfacet
facet normal 0.0 -0.0 1.0
outer loop
vertex -6.70405864716 -4.12985658646 360.107574463
vertex -6.70056009293 -4.07997941971 360.107574463
vertex -9.75797176361 -3.86335778236 360.107574463
endloop
endfacet
facet normal 0.0 0.0 1.0
outer loop
vertex -3.64104819298 -4.24236154556 360.107574463
vertex -6.70056009293 -4.07997941971 360.107574463
vertex -6.70405864716 -4.12985658646 360.107574463
endloop
endfacet
facet normal 0.0 -0.0 1.0
outer loop
vertex -3.64284849167 -4.29232883453 360.107574463
vertex -3.64104819298 -4.24236154556 360.107574463
vertex -6.70405864716 -4.12985658646 360.107574463
endloop
endfacet
facet normal 0.0 0.0 1.0
outer loop
vertex -0.577783584595 -4.30058670044 360.107574463
vertex -3.64104819298 -4.24236154556 360.107574463
vertex -3.64284849167 -4.29232883453 360.107574463
endloop
endfacet
facet normal 0.0 -0.0 1.0
outer loop
vertex -0.57788336277 -4.35058641434 360.107574463
vertex -0.577783584595 -4.30058670044 360.107574463
vertex -3.64284849167 -4.29232883453 360.107574463
endloop
endfacet
