solid 
facet normal 0.0190043058246 0.999819397926 -1.33399538527e-07
outer loop
vertex 3.64286446571 4.2923283577 -432.287567139
vertex 0.577899217606 4.35058641434 -432.287567139
vertex 0.57789927721 4.35058689117 -428.716583252
endloop
endfacet
facet normal 0.0190043058246 0.999819397926 -1.33506915745e-07
outer loop
vertex 3.64286446571 4.2923283577 -432.287567139
vertex 0.57789927721 4.35058689117 -428.716583252
vertex 3.64286446571 4.29232883453 -428.716583252
endloop
endfacet
facet normal 0.0530002266169 0.998594522476 -0.0
outer loop
vertex 6.70407485962 4.12985563278 -432.287567139
vertex 3.64286446571 4.29232883453 -428.716583252
vertex 6.70407485962 4.12985563278 -428.716583252
endloop
endfacet
facet normal 0.05300007388 0.998594522476 -1.33399538527e-07
outer loop
vertex 6.70407485962 4.12985563278 -432.287567139
vertex 3.64286446571 4.2923283577 -432.287567139
vertex 3.64286446571 4.29232883453 -428.716583252
endloop
endfacet
facet normal 0.0869345515966 0.996214032173 -6.65127402044e-08
outer loop
vertex 9.75798797607 3.86335587502 -432.287567139
vertex 6.70407485962 4.12985563278 -428.716583252
vertex 9.75798797607 3.86335611343 -428.716583252
endloop
endfacet
facet normal 0.0869346261024 0.996214032173 0.0
outer loop
vertex 9.75798797607 3.86335587502 -432.287567139
vertex 6.70407485962 4.12985563278 -432.287567139
vertex 6.70407485962 4.12985563278 -428.716583252
endloop
endfacet
facet normal 0.994590401649 -0.103874072433 6.93520618711e-09
outer loop
vertex 9.75798797607 3.86335587502 -432.287567139
vertex 9.75798797607 3.86335611343 -428.716583252
vertex 9.75279426575 3.81362628937 -432.287567139
endloop
endfacet
facet normal 0.994590401649 -0.103874072433 6.8460646041e-09
outer loop
vertex 9.75798797607 3.86335611343 -428.716583252
vertex 9.75279426575 3.81362652779 -428.716583252
vertex 9.75279426575 3.81362628937 -432.287567139
endloop
endfacet
facet normal -0.019004272297 -0.999819397926 0.0
outer loop
vertex 0.577799499035 4.30058670044 -428.716583252
vertex 3.64106416702 4.24236106873 -432.287567139
vertex 3.64106416702 4.24236106873 -428.716583252
endloop
endfacet
facet normal -0.0530000850558 -0.998594522476 -0.0
outer loop
vertex 3.64106416702 4.24236106873 -428.716583252
vertex 3.64106416702 4.24236106873 -432.287567139
vertex 6.70057582855 4.07997846603 -428.716583252
endloop
endfacet
facet normal -0.0190042704344 -0.999819397926 3.17207482503e-10
outer loop
vertex 0.57779943943 4.30058670044 -432.287567139
vertex 3.64106416702 4.24236106873 -432.287567139
vertex 0.577799499035 4.30058670044 -428.716583252
endloop
endfacet
facet normal -0.053000241518 -0.998594522476 1.33473605501e-07
outer loop
vertex 3.64106416702 4.24236106873 -432.287567139
vertex 6.70057582855 4.0799779892 -432.287567139
vertex 6.70057582855 4.07997846603 -428.716583252
endloop
endfacet
facet normal -0.0869346484542 -0.996214032173 6.5374820224e-08
outer loop
vertex 6.70057582855 4.07997846603 -428.716583252
vertex 9.75279426575 3.81362628937 -432.287567139
vertex 9.75279426575 3.81362652779 -428.716583252
endloop
endfacet
facet normal -0.0869345664978 -0.996214032173 1.33025480409e-07
outer loop
vertex 6.70057582855 4.0799779892 -432.287567139
vertex 9.75279426575 3.81362628937 -432.287567139
vertex 6.70057582855 4.07997846603 -428.716583252
endloop
endfacet
facet normal -0.999997973442 0.00199557095766 1.66913451949e-08
outer loop
vertex 0.57779943943 4.30058670044 -432.287567139
vertex 0.577799499035 4.30058670044 -428.716583252
vertex 0.577899217606 4.35058641434 -432.287567139
endloop
endfacet
facet normal -0.999998092651 0.00199555209838 1.64248792345e-08
outer loop
vertex 0.577799499035 4.30058670044 -428.716583252
vertex 0.57789927721 4.35058689117 -428.716583252
vertex 0.577899217606 4.35058641434 -432.287567139
endloop
endfacet
facet normal 0.0 0.0 1.0
outer loop
vertex 6.70407485962 4.12985563278 -428.716583252
vertex 6.70057582855 4.07997846603 -428.716583252
vertex 9.75279426575 3.81362652779 -428.716583252
endloop
endfacet
facet normal 0.0 0.0 1.0
outer loop
vertex 6.70407485962 4.12985563278 -428.716583252
vertex 9.75279426575 3.81362652779 -428.716583252
vertex 9.75798797607 3.86335611343 -428.716583252
endloop
endfacet
facet normal 0.0 0.0 1.0
outer loop
vertex 3.64286446571 4.29232883453 -428.716583252
vertex 3.64106416702 4.24236106873 -428.716583252
vertex 6.70057582855 4.07997846603 -428.716583252
endloop
endfacet
facet normal 0.0 0.0 1.0
outer loop
vertex 3.64286446571 4.29232883453 -428.716583252
vertex 6.70057582855 4.07997846603 -428.716583252
vertex 6.70407485962 4.12985563278 -428.716583252
endloop
endfacet
facet normal 0.0 0.0 1.0
outer loop
vertex 0.57789927721 4.35058689117 -428.716583252
vertex 0.577799499035 4.30058670044 -428.716583252
vertex 3.64106416702 4.24236106873 -428.716583252
endloop
endfacet
facet normal 0.0 0.0 1.0
outer loop
vertex 0.57789927721 4.35058689117 -428.716583252
vertex 3.64106416702 4.24236106873 -428.716583252
vertex 3.64286446571 4.29232883453 -428.716583252
endloop
endfacet
facet normal 0.0 0.0 -1.0
outer loop
vertex 9.75279426575 3.81362628937 -432.287567139
vertex 6.70057582855 4.0799779892 -432.287567139
vertex 9.75798797607 3.86335587502 -432.287567139
endloop
endfacet
facet normal 0.0 0.0 -1.0
outer loop
vertex 6.70057582855 4.0799779892 -432.287567139
vertex 6.70407485962 4.12985563278 -432.287567139
vertex 9.75798797607 3.86335587502 -432.287567139
endloop
endfacet
facet normal 0.0 0.0 -1.0
outer loop
vertex 6.70057582855 4.0799779892 -432.287567139
vertex 3.64106416702 4.24236106873 -432.287567139
vertex 6.70407485962 4.12985563278 -432.287567139
endloop
endfacet
facet normal 0.0 0.0 -1.0
outer loop
vertex 3.64106416702 4.24236106873 -432.287567139
vertex 3.64286446571 4.2923283577 -432.287567139
vertex 6.70407485962 4.12985563278 -432.287567139
endloop
endfacet
facet normal 0.0 0.0 -1.0
outer loop
vertex 3.64106416702 4.24236106873 -432.287567139
vertex 0.57779943943 4.30058670044 -432.287567139
vertex 3.64286446571 4.2923283577 -432.287567139
endloop
endfacet
facet normal 0.0 0.0 -1.0
outer loop
vertex 0.57779943943 4.30058670044 -432.287567139
vertex 0.577899217606 4.35058641434 -432.287567139
vertex 3.64286446571 4.2923283577 -432.287567139
endloop
endfacet
