solid 
facet normal 0.10463886708 -0.994510293007 -2.65633048002e-07
outer loop
vertex 9.83753681183 -3.8550131321 134.798782349
vertex 9.81764602661 -3.85710597038 134.798782349
vertex 9.81764602661 -3.85710501671 131.227783203
endloop
endfacet
facet normal 0.104627080262 -0.994511544704 -1.99196378503e-07
outer loop
vertex 9.83753681183 -3.8550131321 134.798782349
vertex 9.81764602661 -3.85710501671 131.227783203
vertex 9.83753681183 -3.85501241684 131.227783203
endloop
endfacet
facet normal 0.104872815311 -0.994485676289 -2.93595689982e-07
outer loop
vertex 9.85742664337 -3.85291600227 134.798782349
vertex 9.83753681183 -3.85501241684 131.227783203
vertex 9.8574256897 -3.8529150486 131.227783203
endloop
endfacet
facet normal 0.104856051505 -0.994487404823 -1.9916606675e-07
outer loop
vertex 9.85742664337 -3.85291600227 134.798782349
vertex 9.83753681183 -3.8550131321 134.798782349
vertex 9.83753681183 -3.85501241684 131.227783203
endloop
endfacet
facet normal 0.105068258941 -0.994464993477 -1.99187056182e-07
outer loop
vertex 9.87731552124 -3.8508143425 134.798782349
vertex 9.8574256897 -3.8529150486 131.227783203
vertex 9.87731552124 -3.85081362724 131.227783203
endloop
endfacet
facet normal 0.105085022748 -0.994463205338 -2.93611321922e-07
outer loop
vertex 9.87731552124 -3.8508143425 134.798782349
vertex 9.85742664337 -3.85291600227 134.798782349
vertex 9.8574256897 -3.8529150486 131.227783203
endloop
endfacet
facet normal 0.994452178478 0.105190142989 2.10691322167e-08
outer loop
vertex 9.87731552124 -3.8508143425 134.798782349
vertex 9.87731552124 -3.85081362724 131.227783203
vertex 9.87205600739 -3.80109167099 134.798782349
endloop
endfacet
facet normal 0.994452178478 0.105190142989 2.10271089429e-08
outer loop
vertex 9.87731552124 -3.85081362724 131.227783203
vertex 9.87205600739 -3.80109095573 131.227783203
vertex 9.87205600739 -3.80109167099 134.798782349
endloop
endfacet
facet normal -0.104639463127 0.994510233402 1.99196122708e-07
outer loop
vertex 9.81241989136 -3.80737900734 131.227783203
vertex 9.81241989136 -3.8073797226 134.798782349
vertex 9.83229923248 -3.80528736115 131.227783203
endloop
endfacet
facet normal -0.104639463127 0.994510233402 1.99173825877e-07
outer loop
vertex 9.81241989136 -3.8073797226 134.798782349
vertex 9.83229923248 -3.8052880764 134.798782349
vertex 9.83229923248 -3.80528736115 131.227783203
endloop
endfacet
facet normal -0.104856774211 0.994487345219 1.99178785465e-07
outer loop
vertex 9.83229923248 -3.80528736115 131.227783203
vertex 9.85217761993 -3.80319213867 134.798782349
vertex 9.85217761993 -3.80319142342 131.227783203
endloop
endfacet
facet normal -0.105080895126 0.994463682175 1.99186786176e-07
outer loop
vertex 9.85217761993 -3.80319142342 131.227783203
vertex 9.85217761993 -3.80319213867 134.798782349
vertex 9.87205600739 -3.80109095573 131.227783203
endloop
endfacet
facet normal -0.104856774211 0.994487345219 1.99191532602e-07
outer loop
vertex 9.83229923248 -3.8052880764 134.798782349
vertex 9.85217761993 -3.80319213867 134.798782349
vertex 9.83229923248 -3.80528736115 131.227783203
endloop
endfacet
facet normal -0.105080895126 0.994463682175 1.9917405325e-07
outer loop
vertex 9.85217761993 -3.80319213867 134.798782349
vertex 9.87205600739 -3.80109167099 134.798782349
vertex 9.87205600739 -3.80109095573 131.227783203
endloop
endfacet
facet normal -0.994522511959 -0.104522451758 -2.80361120986e-08
outer loop
vertex 9.81241989136 -3.8073797226 134.798782349
vertex 9.81764602661 -3.85710501671 131.227783203
vertex 9.81764602661 -3.85710597038 134.798782349
endloop
endfacet
facet normal -0.994522511959 -0.104522950947 -2.09354951153e-08
outer loop
vertex 9.81241989136 -3.80737900734 131.227783203
vertex 9.81764602661 -3.85710501671 131.227783203
vertex 9.81241989136 -3.8073797226 134.798782349
endloop
endfacet
facet normal 0.0 0.0 -1.0
outer loop
vertex 9.87731552124 -3.85081362724 131.227783203
vertex 9.85217761993 -3.80319142342 131.227783203
vertex 9.87205600739 -3.80109095573 131.227783203
endloop
endfacet
facet normal 0.0 0.0 -1.0
outer loop
vertex 9.8574256897 -3.8529150486 131.227783203
vertex 9.83229923248 -3.80528736115 131.227783203
vertex 9.85217761993 -3.80319142342 131.227783203
endloop
endfacet
facet normal 0.0 0.0 -1.0
outer loop
vertex 9.8574256897 -3.8529150486 131.227783203
vertex 9.85217761993 -3.80319142342 131.227783203
vertex 9.87731552124 -3.85081362724 131.227783203
endloop
endfacet
facet normal 0.0 0.0 -1.0
outer loop
vertex 9.83753681183 -3.85501241684 131.227783203
vertex 9.83229923248 -3.80528736115 131.227783203
vertex 9.8574256897 -3.8529150486 131.227783203
endloop
endfacet
facet normal 0.0 0.0 -1.0
outer loop
vertex 9.81764602661 -3.85710501671 131.227783203
vertex 9.81241989136 -3.80737900734 131.227783203
vertex 9.83229923248 -3.80528736115 131.227783203
endloop
endfacet
facet normal 0.0 0.0 -1.0
outer loop
vertex 9.81764602661 -3.85710501671 131.227783203
vertex 9.83229923248 -3.80528736115 131.227783203
vertex 9.83753681183 -3.85501241684 131.227783203
endloop
endfacet
facet normal -0.0 0.0 1.0
outer loop
vertex 9.85217761993 -3.80319213867 134.798782349
vertex 9.87731552124 -3.8508143425 134.798782349
vertex 9.87205600739 -3.80109167099 134.798782349
endloop
endfacet
facet normal 0.0 0.0 1.0
outer loop
vertex 9.85217761993 -3.80319213867 134.798782349
vertex 9.85742664337 -3.85291600227 134.798782349
vertex 9.87731552124 -3.8508143425 134.798782349
endloop
endfacet
facet normal -0.0 0.0 1.0
outer loop
vertex 9.83229923248 -3.8052880764 134.798782349
vertex 9.83753681183 -3.8550131321 134.798782349
vertex 9.85217761993 -3.80319213867 134.798782349
endloop
endfacet
facet normal 0.0 0.0 1.0
outer loop
vertex 9.85217761993 -3.80319213867 134.798782349
vertex 9.83753681183 -3.8550131321 134.798782349
vertex 9.85742664337 -3.85291600227 134.798782349
endloop
endfacet
facet normal -0.0 0.0 1.0
outer loop
vertex 9.81241989136 -3.8073797226 134.798782349
vertex 9.81764602661 -3.85710597038 134.798782349
vertex 9.83229923248 -3.8052880764 134.798782349
endloop
endfacet
facet normal 0.0 0.0 1.0
outer loop
vertex 9.83229923248 -3.8052880764 134.798782349
vertex 9.81764602661 -3.85710597038 134.798782349
vertex 9.83753681183 -3.8550131321 134.798782349
endloop
endfacet
