solid 
facet normal -0.103985413909 -0.994578838348 0.0
outer loop
vertex -9.77787971497 -3.86127662659 414.292572021
vertex -9.75798797607 -3.86335635185 414.292572021
vertex -9.75798797607 -3.86335635185 417.863586426
endloop
endfacet
facet normal -0.10397362709 -0.994580090046 -6.6403082144e-08
outer loop
vertex -9.77787971497 -3.86127662659 414.292572021
vertex -9.75798797607 -3.86335635185 417.863586426
vertex -9.77787971497 -3.86127686501 417.863586426
endloop
endfacet
facet normal -0.104202598333 -0.994556069374 -6.64014763174e-08
outer loop
vertex -9.77787971497 -3.86127662659 414.292572021
vertex -9.77787971497 -3.86127686501 417.863586426
vertex -9.79777050018 -3.85919284821 417.863586426
endloop
endfacet
facet normal -0.104190811515 -0.994557321072 0.0
outer loop
vertex -9.79777050018 -3.85919284821 414.292572021
vertex -9.77787971497 -3.86127662659 414.292572021
vertex -9.79777050018 -3.85919284821 417.863586426
endloop
endfacet
facet normal -0.104414850473 -0.994533836842 0.0
outer loop
vertex -9.8176612854 -3.85710453987 414.292572021
vertex -9.79777050018 -3.85919284821 417.863586426
vertex -9.8176612854 -3.85710453987 417.863586426
endloop
endfacet
facet normal -0.104414850473 -0.994533836842 0.0
outer loop
vertex -9.8176612854 -3.85710453987 414.292572021
vertex -9.79777050018 -3.85919284821 414.292572021
vertex -9.79777050018 -3.85919284821 417.863586426
endloop
endfacet
facet normal -0.994522511959 0.104522451758 0.0
outer loop
vertex -9.81243515015 -3.80737829208 414.292572021
vertex -9.8176612854 -3.85710453987 414.292572021
vertex -9.8176612854 -3.85710453987 417.863586426
endloop
endfacet
facet normal -0.994522511959 0.104522451758 0.0
outer loop
vertex -9.81243515015 -3.80737829208 414.292572021
vertex -9.8176612854 -3.85710453987 417.863586426
vertex -9.81243515015 -3.80737829208 417.863586426
endloop
endfacet
facet normal 0.103973828256 0.994579970837 0.0
outer loop
vertex -9.75279426575 -3.8136267662 417.863586426
vertex -9.75279426575 -3.8136267662 414.292572021
vertex -9.77267456055 -3.81154847145 417.863586426
endloop
endfacet
facet normal 0.103980697691 0.994579315186 3.86307839051e-08
outer loop
vertex -9.75279426575 -3.8136267662 414.292572021
vertex -9.77267551422 -3.81154823303 414.292572021
vertex -9.77267456055 -3.81154847145 417.863586426
endloop
endfacet
facet normal 0.104198001325 0.994556546211 0.0
outer loop
vertex -9.77267456055 -3.81154847145 417.863586426
vertex -9.79255485535 -3.80946564674 414.292572021
vertex -9.79255485535 -3.80946564674 417.863586426
endloop
endfacet
facet normal 0.104191146791 0.994557321072 3.85762959354e-08
outer loop
vertex -9.77267551422 -3.81154823303 414.292572021
vertex -9.79255485535 -3.80946564674 414.292572021
vertex -9.77267456055 -3.81154847145 417.863586426
endloop
endfacet
facet normal 0.104422152042 0.994533061981 0.0
outer loop
vertex -9.79255485535 -3.80946564674 417.863586426
vertex -9.81243515015 -3.80737829208 414.292572021
vertex -9.81243515015 -3.80737829208 417.863586426
endloop
endfacet
facet normal 0.104422152042 0.994533061981 -0.0
outer loop
vertex -9.79255485535 -3.80946564674 414.292572021
vertex -9.81243515015 -3.80737829208 414.292572021
vertex -9.79255485535 -3.80946564674 417.863586426
endloop
endfacet
facet normal 0.994590461254 -0.103874072433 0.0
outer loop
vertex -9.75279426575 -3.8136267662 414.292572021
vertex -9.75279426575 -3.8136267662 417.863586426
vertex -9.75798797607 -3.86335635185 417.863586426
endloop
endfacet
facet normal 0.994590461254 -0.103874072433 0.0
outer loop
vertex -9.75798797607 -3.86335635185 414.292572021
vertex -9.75279426575 -3.8136267662 414.292572021
vertex -9.75798797607 -3.86335635185 417.863586426
endloop
endfacet
facet normal -0.0 0.0 -1.0
outer loop
vertex -9.79255485535 -3.80946564674 414.292572021
vertex -9.8176612854 -3.85710453987 414.292572021
vertex -9.81243515015 -3.80737829208 414.292572021
endloop
endfacet
facet normal 0.0 0.0 -1.0
outer loop
vertex -9.79255485535 -3.80946564674 414.292572021
vertex -9.79777050018 -3.85919284821 414.292572021
vertex -9.8176612854 -3.85710453987 414.292572021
endloop
endfacet
facet normal -0.0 0.0 -1.0
outer loop
vertex -9.77267551422 -3.81154823303 414.292572021
vertex -9.77787971497 -3.86127662659 414.292572021
vertex -9.79255485535 -3.80946564674 414.292572021
endloop
endfacet
facet normal 0.0 -0.0 -1.0
outer loop
vertex -9.79255485535 -3.80946564674 414.292572021
vertex -9.77787971497 -3.86127662659 414.292572021
vertex -9.79777050018 -3.85919284821 414.292572021
endloop
endfacet
facet normal -0.0 0.0 -1.0
outer loop
vertex -9.75279426575 -3.8136267662 414.292572021
vertex -9.75798797607 -3.86335635185 414.292572021
vertex -9.77267551422 -3.81154823303 414.292572021
endloop
endfacet
facet normal 0.0 -0.0 -1.0
outer loop
vertex -9.77267551422 -3.81154823303 414.292572021
vertex -9.75798797607 -3.86335635185 414.292572021
vertex -9.77787971497 -3.86127662659 414.292572021
endloop
endfacet
facet normal 0.0 0.0 1.0
outer loop
vertex -9.8176612854 -3.85710453987 417.863586426
vertex -9.79255485535 -3.80946564674 417.863586426
vertex -9.81243515015 -3.80737829208 417.863586426
endloop
endfacet
facet normal 0.0 0.0 1.0
outer loop
vertex -9.79777050018 -3.85919284821 417.863586426
vertex -9.77267456055 -3.81154847145 417.863586426
vertex -9.79255485535 -3.80946564674 417.863586426
endloop
endfacet
facet normal 0.0 -0.0 1.0
outer loop
vertex -9.79777050018 -3.85919284821 417.863586426
vertex -9.79255485535 -3.80946564674 417.863586426
vertex -9.8176612854 -3.85710453987 417.863586426
endloop
endfacet
facet normal 0.0 -0.0 1.0
outer loop
vertex -9.77787971497 -3.86127686501 417.863586426
vertex -9.77267456055 -3.81154847145 417.863586426
vertex -9.79777050018 -3.85919284821 417.863586426
endloop
endfacet
facet normal 0.0 -0.0 1.0
outer loop
vertex -9.75798797607 -3.86335635185 417.863586426
vertex -9.75279426575 -3.8136267662 417.863586426
vertex -9.77267456055 -3.81154847145 417.863586426
endloop
endfacet
facet normal 0.0 0.0 1.0
outer loop
vertex -9.75798797607 -3.86335635185 417.863586426
vertex -9.77267456055 -3.81154847145 417.863586426
vertex -9.77787971497 -3.86127686501 417.863586426
endloop
endfacet
