solid 
facet normal -0.103978559375 0.994579553604 3.86635434779e-08
outer loop
vertex -9.77786827087 3.86127781868 -381.793579102
vertex -9.75797748566 3.86335730553 -381.793579102
vertex -9.75797653198 3.86335754395 -385.364562988
endloop
endfacet
facet normal -0.10397362709 0.994580030441 6.64036505782e-08
outer loop
vertex -9.77786827087 3.86127781868 -381.793579102
vertex -9.75797653198 3.86335754395 -385.364562988
vertex -9.77786827087 3.8612780571 -385.364562988
endloop
endfacet
facet normal -0.104197666049 0.994556605816 0.0
outer loop
vertex -9.79776000977 3.8591940403 -381.793579102
vertex -9.77786827087 3.8612780571 -385.364562988
vertex -9.79776000977 3.8591940403 -385.364562988
endloop
endfacet
facet normal -0.10418587178 0.994557857513 6.6421272038e-08
outer loop
vertex -9.79776000977 3.8591940403 -381.793579102
vertex -9.77786827087 3.86127781868 -381.793579102
vertex -9.77786827087 3.8612780571 -385.364562988
endloop
endfacet
facet normal -0.104414850473 0.994533836842 6.64005668227e-08
outer loop
vertex -9.81765079498 3.85710549355 -381.793579102
vertex -9.79776000977 3.8591940403 -385.364562988
vertex -9.81765079498 3.85710573196 -385.364562988
endloop
endfacet
facet normal -0.104426637292 0.994532585144 0.0
outer loop
vertex -9.81765079498 3.85710549355 -381.793579102
vertex -9.79776000977 3.8591940403 -381.793579102
vertex -9.79776000977 3.8591940403 -385.364562988
endloop
endfacet
facet normal -0.99452060461 -0.104541324079 -6.97975499619e-09
outer loop
vertex -9.81765079498 3.85710549355 -381.793579102
vertex -9.81765079498 3.85710573196 -385.364562988
vertex -9.81242370605 3.80737948418 -385.364562988
endloop
endfacet
facet normal -0.994520485401 -0.104541808367 -0.0
outer loop
vertex -9.81242370605 3.80737948418 -381.793579102
vertex -9.81765079498 3.85710549355 -381.793579102
vertex -9.81242370605 3.80737948418 -385.364562988
endloop
endfacet
facet normal 0.103985637426 -0.994578778744 0.0
outer loop
vertex -9.75278377533 3.8136279583 -385.364562988
vertex -9.75278377533 3.8136279583 -381.793579102
vertex -9.77266407013 3.81154942513 -385.364562988
endloop
endfacet
facet normal 0.103985637426 -0.994578778744 0.0
outer loop
vertex -9.75278377533 3.8136279583 -381.793579102
vertex -9.77266407013 3.81154942513 -381.793579102
vertex -9.77266407013 3.81154942513 -385.364562988
endloop
endfacet
facet normal 0.104186214507 -0.994557857513 -6.64085391122e-08
outer loop
vertex -9.77266407013 3.81154942513 -385.364562988
vertex -9.79254436493 3.80946660042 -381.793579102
vertex -9.79254436493 3.80946683884 -385.364562988
endloop
endfacet
facet normal 0.104198008776 -0.994556605816 0.0
outer loop
vertex -9.77266407013 3.81154942513 -381.793579102
vertex -9.79254436493 3.80946660042 -381.793579102
vertex -9.77266407013 3.81154942513 -385.364562988
endloop
endfacet
facet normal 0.104427114129 -0.994532525539 0.0
outer loop
vertex -9.79254436493 3.80946683884 -385.364562988
vertex -9.81242370605 3.80737948418 -381.793579102
vertex -9.81242370605 3.80737948418 -385.364562988
endloop
endfacet
facet normal 0.10441531986 -0.994533777237 -6.64005668227e-08
outer loop
vertex -9.79254436493 3.80946660042 -381.793579102
vertex -9.81242370605 3.80737948418 -381.793579102
vertex -9.79254436493 3.80946683884 -385.364562988
endloop
endfacet
facet normal 0.994592428207 0.103855207562 0.0
outer loop
vertex -9.75278377533 3.8136279583 -381.793579102
vertex -9.75278377533 3.8136279583 -385.364562988
vertex -9.75797653198 3.86335754395 -385.364562988
endloop
endfacet
facet normal 0.994590401649 0.103874564171 2.7255259738e-07
outer loop
vertex -9.75797748566 3.86335730553 -381.793579102
vertex -9.75278377533 3.8136279583 -381.793579102
vertex -9.75797653198 3.86335754395 -385.364562988
endloop
endfacet
facet normal 0.0 0.0 1.0
outer loop
vertex -9.79254436493 3.80946660042 -381.793579102
vertex -9.81765079498 3.85710549355 -381.793579102
vertex -9.81242370605 3.80737948418 -381.793579102
endloop
endfacet
facet normal 0.0 0.0 1.0
outer loop
vertex -9.77266407013 3.81154942513 -381.793579102
vertex -9.79776000977 3.8591940403 -381.793579102
vertex -9.79254436493 3.80946660042 -381.793579102
endloop
endfacet
facet normal 0.0 0.0 1.0
outer loop
vertex -9.79254436493 3.80946660042 -381.793579102
vertex -9.79776000977 3.8591940403 -381.793579102
vertex -9.81765079498 3.85710549355 -381.793579102
endloop
endfacet
facet normal 0.0 0.0 1.0
outer loop
vertex -9.77266407013 3.81154942513 -381.793579102
vertex -9.77786827087 3.86127781868 -381.793579102
vertex -9.79776000977 3.8591940403 -381.793579102
endloop
endfacet
facet normal 0.0 0.0 1.0
outer loop
vertex -9.75278377533 3.8136279583 -381.793579102
vertex -9.75797748566 3.86335730553 -381.793579102
vertex -9.77266407013 3.81154942513 -381.793579102
endloop
endfacet
facet normal 0.0 -0.0 1.0
outer loop
vertex -9.77266407013 3.81154942513 -381.793579102
vertex -9.75797748566 3.86335730553 -381.793579102
vertex -9.77786827087 3.86127781868 -381.793579102
endloop
endfacet
facet normal 0.0 0.0 -1.0
outer loop
vertex -9.81765079498 3.85710573196 -385.364562988
vertex -9.79254436493 3.80946683884 -385.364562988
vertex -9.81242370605 3.80737948418 -385.364562988
endloop
endfacet
facet normal 0.0 -0.0 -1.0
outer loop
vertex -9.79776000977 3.8591940403 -385.364562988
vertex -9.79254436493 3.80946683884 -385.364562988
vertex -9.81765079498 3.85710573196 -385.364562988
endloop
endfacet
facet normal 0.0 -0.0 -1.0
outer loop
vertex -9.77786827087 3.8612780571 -385.364562988
vertex -9.77266407013 3.81154942513 -385.364562988
vertex -9.79254436493 3.80946683884 -385.364562988
endloop
endfacet
facet normal 0.0 0.0 -1.0
outer loop
vertex -9.77786827087 3.8612780571 -385.364562988
vertex -9.79254436493 3.80946683884 -385.364562988
vertex -9.79776000977 3.8591940403 -385.364562988
endloop
endfacet
facet normal 0.0 -0.0 -1.0
outer loop
vertex -9.75797653198 3.86335754395 -385.364562988
vertex -9.75278377533 3.8136279583 -385.364562988
vertex -9.77266407013 3.81154942513 -385.364562988
endloop
endfacet
facet normal 0.0 0.0 -1.0
outer loop
vertex -9.75797653198 3.86335754395 -385.364562988
vertex -9.77266407013 3.81154942513 -385.364562988
vertex -9.77786827087 3.8612780571 -385.364562988
endloop
endfacet
