solid 
facet normal -0.10397362709 -0.994580030441 0.0
outer loop
vertex -9.77787399292 -3.86127734184 -306.217895508
vertex -9.75798225403 -3.86335682869 -306.217895508
vertex -9.75798225403 -3.86335682869 -302.646911621
endloop
endfacet
facet normal -0.10397362709 -0.994580030441 0.0
outer loop
vertex -9.77787399292 -3.86127734184 -306.217895508
vertex -9.75798225403 -3.86335682869 -302.646911621
vertex -9.77787399292 -3.86127734184 -302.646911621
endloop
endfacet
facet normal -0.104202598333 -0.994556009769 0.0
outer loop
vertex -9.79776477814 -3.85919332504 -306.217895508
vertex -9.77787399292 -3.86127734184 -302.646911621
vertex -9.79776477814 -3.85919332504 -302.646911621
endloop
endfacet
facet normal -0.104414850473 -0.994533836842 0.0
outer loop
vertex -9.79776477814 -3.85919332504 -306.217895508
vertex -9.79776477814 -3.85919332504 -302.646911621
vertex -9.81765556335 -3.85710501671 -302.646911621
endloop
endfacet
facet normal -0.104202598333 -0.994556009769 0.0
outer loop
vertex -9.79776477814 -3.85919332504 -306.217895508
vertex -9.77787399292 -3.86127734184 -306.217895508
vertex -9.77787399292 -3.86127734184 -302.646911621
endloop
endfacet
facet normal -0.104414850473 -0.994533836842 0.0
outer loop
vertex -9.81765556335 -3.85710501671 -306.217895508
vertex -9.79776477814 -3.85919332504 -306.217895508
vertex -9.81765556335 -3.85710501671 -302.646911621
endloop
endfacet
facet normal -0.994520485401 0.104541808367 0.0
outer loop
vertex -9.81765556335 -3.85710501671 -306.217895508
vertex -9.81765556335 -3.85710501671 -302.646911621
vertex -9.81242847443 -3.80737900734 -306.217895508
endloop
endfacet
facet normal -0.994522511959 0.104522451758 -2.72538244417e-07
outer loop
vertex -9.81765556335 -3.85710501671 -302.646911621
vertex -9.8124294281 -3.80737876892 -302.646911621
vertex -9.81242847443 -3.80737900734 -306.217895508
endloop
endfacet
facet normal 0.103973835707 0.994580030441 0.0
outer loop
vertex -9.7527885437 -3.81362724304 -302.646911621
vertex -9.7726688385 -3.81154894829 -306.217895508
vertex -9.7726688385 -3.81154894829 -302.646911621
endloop
endfacet
facet normal 0.103973835707 0.994580030441 -0.0
outer loop
vertex -9.7527885437 -3.81362724304 -306.217895508
vertex -9.7726688385 -3.81154894829 -306.217895508
vertex -9.7527885437 -3.81362724304 -302.646911621
endloop
endfacet
facet normal 0.104198008776 0.994556605816 0.0
outer loop
vertex -9.7726688385 -3.81154894829 -302.646911621
vertex -9.7925491333 -3.80946612358 -306.217895508
vertex -9.7925491333 -3.80946612358 -302.646911621
endloop
endfacet
facet normal 0.104422166944 0.994533121586 0.0
outer loop
vertex -9.7925491333 -3.80946612358 -302.646911621
vertex -9.7925491333 -3.80946612358 -306.217895508
vertex -9.8124294281 -3.80737876892 -302.646911621
endloop
endfacet
facet normal 0.104198008776 0.994556605816 -0.0
outer loop
vertex -9.7726688385 -3.81154894829 -306.217895508
vertex -9.7925491333 -3.80946612358 -306.217895508
vertex -9.7726688385 -3.81154894829 -302.646911621
endloop
endfacet
facet normal 0.10441531986 0.994533777237 -3.84801523978e-08
outer loop
vertex -9.7925491333 -3.80946612358 -306.217895508
vertex -9.81242847443 -3.80737900734 -306.217895508
vertex -9.8124294281 -3.80737876892 -302.646911621
endloop
endfacet
facet normal 0.994590401649 -0.103874072433 0.0
outer loop
vertex -9.7527885437 -3.81362724304 -306.217895508
vertex -9.7527885437 -3.81362724304 -302.646911621
vertex -9.75798225403 -3.86335682869 -306.217895508
endloop
endfacet
facet normal 0.994590401649 -0.103874072433 0.0
outer loop
vertex -9.7527885437 -3.81362724304 -302.646911621
vertex -9.75798225403 -3.86335682869 -302.646911621
vertex -9.75798225403 -3.86335682869 -306.217895508
endloop
endfacet
facet normal 0.0 0.0 1.0
outer loop
vertex -9.81765556335 -3.85710501671 -302.646911621
vertex -9.7925491333 -3.80946612358 -302.646911621
vertex -9.8124294281 -3.80737876892 -302.646911621
endloop
endfacet
facet normal 0.0 -0.0 1.0
outer loop
vertex -9.79776477814 -3.85919332504 -302.646911621
vertex -9.7925491333 -3.80946612358 -302.646911621
vertex -9.81765556335 -3.85710501671 -302.646911621
endloop
endfacet
facet normal 0.0 -0.0 1.0
outer loop
vertex -9.77787399292 -3.86127734184 -302.646911621
vertex -9.7726688385 -3.81154894829 -302.646911621
vertex -9.7925491333 -3.80946612358 -302.646911621
endloop
endfacet
facet normal 0.0 0.0 1.0
outer loop
vertex -9.77787399292 -3.86127734184 -302.646911621
vertex -9.7925491333 -3.80946612358 -302.646911621
vertex -9.79776477814 -3.85919332504 -302.646911621
endloop
endfacet
facet normal 0.0 -0.0 1.0
outer loop
vertex -9.75798225403 -3.86335682869 -302.646911621
vertex -9.7527885437 -3.81362724304 -302.646911621
vertex -9.7726688385 -3.81154894829 -302.646911621
endloop
endfacet
facet normal 0.0 0.0 1.0
outer loop
vertex -9.75798225403 -3.86335682869 -302.646911621
vertex -9.7726688385 -3.81154894829 -302.646911621
vertex -9.77787399292 -3.86127734184 -302.646911621
endloop
endfacet
facet normal -0.0 0.0 -1.0
outer loop
vertex -9.7925491333 -3.80946612358 -306.217895508
vertex -9.81765556335 -3.85710501671 -306.217895508
vertex -9.81242847443 -3.80737900734 -306.217895508
endloop
endfacet
facet normal 0.0 0.0 -1.0
outer loop
vertex -9.7925491333 -3.80946612358 -306.217895508
vertex -9.79776477814 -3.85919332504 -306.217895508
vertex -9.81765556335 -3.85710501671 -306.217895508
endloop
endfacet
facet normal -0.0 0.0 -1.0
outer loop
vertex -9.7726688385 -3.81154894829 -306.217895508
vertex -9.77787399292 -3.86127734184 -306.217895508
vertex -9.7925491333 -3.80946612358 -306.217895508
endloop
endfacet
facet normal 0.0 -0.0 -1.0
outer loop
vertex -9.7925491333 -3.80946612358 -306.217895508
vertex -9.77787399292 -3.86127734184 -306.217895508
vertex -9.79776477814 -3.85919332504 -306.217895508
endloop
endfacet
facet normal -0.0 0.0 -1.0
outer loop
vertex -9.7527885437 -3.81362724304 -306.217895508
vertex -9.75798225403 -3.86335682869 -306.217895508
vertex -9.7726688385 -3.81154894829 -306.217895508
endloop
endfacet
facet normal 0.0 -0.0 -1.0
outer loop
vertex -9.7726688385 -3.81154894829 -306.217895508
vertex -9.75798225403 -3.86335682869 -306.217895508
vertex -9.77787399292 -3.86127734184 -306.217895508
endloop
endfacet
