solid 
facet normal -0.104632042348 0.994511067867 1.32797524088e-07
outer loop
vertex -9.81766700745 3.8571035862 -210.226882935
vertex -9.81766700745 3.85710406303 -213.79788208
vertex -9.83755683899 3.85501146317 -213.79788208
endloop
endfacet
facet normal -0.104867845774 0.994486153126 1.99191291017e-07
outer loop
vertex -9.83755683899 3.85501074791 -210.226882935
vertex -9.83755683899 3.85501146317 -213.79788208
vertex -9.85744667053 3.85291409492 -213.79788208
endloop
endfacet
facet normal -0.104643821716 0.99450969696 1.99196009021e-07
outer loop
vertex -9.83755683899 3.85501074791 -210.226882935
vertex -9.81766700745 3.8571035862 -210.226882935
vertex -9.83755683899 3.85501146317 -213.79788208
endloop
endfacet
facet normal -0.10507325083 0.99446451664 1.32791299734e-07
outer loop
vertex -9.85744667053 3.85291361809 -210.226882935
vertex -9.85744667053 3.85291409492 -213.79788208
vertex -9.8773355484 3.85081267357 -213.79788208
endloop
endfacet
facet normal -0.104856051505 0.994487404823 1.32794355068e-07
outer loop
vertex -9.85744667053 3.85291361809 -210.226882935
vertex -9.83755683899 3.85501074791 -210.226882935
vertex -9.85744667053 3.85291409492 -213.79788208
endloop
endfacet
facet normal -0.105085022748 0.994463205338 1.991866867e-07
outer loop
vertex -9.8773355484 3.85081195831 -210.226882935
vertex -9.85744667053 3.85291361809 -210.226882935
vertex -9.8773355484 3.85081267357 -213.79788208
endloop
endfacet
facet normal -0.994452178478 -0.105190142989 -2.11901092229e-08
outer loop
vertex -9.87207603455 3.8010892868 -210.226882935
vertex -9.8773355484 3.85081195831 -210.226882935
vertex -9.8773355484 3.85081267357 -213.79788208
endloop
endfacet
facet normal -0.994452178478 -0.105190135539 -2.10691304403e-08
outer loop
vertex -9.87207603455 3.8010892868 -210.226882935
vertex -9.8773355484 3.85081267357 -213.79788208
vertex -9.87207603455 3.80109000206 -213.79788208
endloop
endfacet
facet normal 0.104639463127 -0.994510233402 -1.99196122708e-07
outer loop
vertex -9.81243991852 3.80737805367 -213.79788208
vertex -9.81243991852 3.80737733841 -210.226882935
vertex -9.83231925964 3.80528640747 -213.79788208
endloop
endfacet
facet normal 0.104851797223 -0.994487822056 -1.99191632078e-07
outer loop
vertex -9.83231925964 3.80528640747 -213.79788208
vertex -9.83231925964 3.80528569221 -210.226882935
vertex -9.85219860077 3.80319046974 -213.79788208
endloop
endfacet
facet normal 0.104639463127 -0.994510233402 -1.99173825877e-07
outer loop
vertex -9.81243991852 3.80737733841 -210.226882935
vertex -9.83231925964 3.80528569221 -210.226882935
vertex -9.83231925964 3.80528640747 -213.79788208
endloop
endfacet
facet normal 0.104851797223 -0.994487822056 -1.99220295372e-07
outer loop
vertex -9.83231925964 3.80528569221 -210.226882935
vertex -9.85219860077 3.80318975449 -210.226882935
vertex -9.85219860077 3.80319046974 -213.79788208
endloop
endfacet
facet normal 0.105085879564 -0.994463145733 -1.99183489258e-07
outer loop
vertex -9.85219860077 3.80319046974 -213.79788208
vertex -9.87207603455 3.8010892868 -210.226882935
vertex -9.87207603455 3.80109000206 -213.79788208
endloop
endfacet
facet normal 0.105085879564 -0.994463145733 -1.99186672489e-07
outer loop
vertex -9.85219860077 3.80318975449 -210.226882935
vertex -9.87207603455 3.8010892868 -210.226882935
vertex -9.85219860077 3.80319046974 -213.79788208
endloop
endfacet
facet normal 0.99452060461 0.104541324079 2.08640429378e-08
outer loop
vertex -9.81766700745 3.8571035862 -210.226882935
vertex -9.81243991852 3.80737733841 -210.226882935
vertex -9.81243991852 3.80737805367 -213.79788208
endloop
endfacet
facet normal 0.994520485401 0.104541815817 1.39595162096e-08
outer loop
vertex -9.81766700745 3.8571035862 -210.226882935
vertex -9.81243991852 3.80737805367 -213.79788208
vertex -9.81766700745 3.85710406303 -213.79788208
endloop
endfacet
facet normal 0.0 0.0 1.0
outer loop
vertex -9.85219860077 3.80318975449 -210.226882935
vertex -9.8773355484 3.85081195831 -210.226882935
vertex -9.87207603455 3.8010892868 -210.226882935
endloop
endfacet
facet normal 0.0 0.0 1.0
outer loop
vertex -9.85219860077 3.80318975449 -210.226882935
vertex -9.85744667053 3.85291361809 -210.226882935
vertex -9.8773355484 3.85081195831 -210.226882935
endloop
endfacet
facet normal 0.0 0.0 1.0
outer loop
vertex -9.83231925964 3.80528569221 -210.226882935
vertex -9.83755683899 3.85501074791 -210.226882935
vertex -9.85219860077 3.80318975449 -210.226882935
endloop
endfacet
facet normal 0.0 -0.0 1.0
outer loop
vertex -9.85219860077 3.80318975449 -210.226882935
vertex -9.83755683899 3.85501074791 -210.226882935
vertex -9.85744667053 3.85291361809 -210.226882935
endloop
endfacet
facet normal 0.0 0.0 1.0
outer loop
vertex -9.81243991852 3.80737733841 -210.226882935
vertex -9.81766700745 3.8571035862 -210.226882935
vertex -9.83231925964 3.80528569221 -210.226882935
endloop
endfacet
facet normal 0.0 -0.0 1.0
outer loop
vertex -9.83231925964 3.80528569221 -210.226882935
vertex -9.81766700745 3.8571035862 -210.226882935
vertex -9.83755683899 3.85501074791 -210.226882935
endloop
endfacet
facet normal 0.0 0.0 -1.0
outer loop
vertex -9.8773355484 3.85081267357 -213.79788208
vertex -9.85219860077 3.80319046974 -213.79788208
vertex -9.87207603455 3.80109000206 -213.79788208
endloop
endfacet
facet normal 0.0 0.0 -1.0
outer loop
vertex -9.85744667053 3.85291409492 -213.79788208
vertex -9.83231925964 3.80528640747 -213.79788208
vertex -9.85219860077 3.80319046974 -213.79788208
endloop
endfacet
facet normal 0.0 -0.0 -1.0
outer loop
vertex -9.85744667053 3.85291409492 -213.79788208
vertex -9.85219860077 3.80319046974 -213.79788208
vertex -9.8773355484 3.85081267357 -213.79788208
endloop
endfacet
facet normal 0.0 -0.0 -1.0
outer loop
vertex -9.83755683899 3.85501146317 -213.79788208
vertex -9.83231925964 3.80528640747 -213.79788208
vertex -9.85744667053 3.85291409492 -213.79788208
endloop
endfacet
facet normal 0.0 -0.0 -1.0
outer loop
vertex -9.81766700745 3.85710406303 -213.79788208
vertex -9.81243991852 3.80737805367 -213.79788208
vertex -9.83231925964 3.80528640747 -213.79788208
endloop
endfacet
facet normal 0.0 0.0 -1.0
outer loop
vertex -9.81766700745 3.85710406303 -213.79788208
vertex -9.83231925964 3.80528640747 -213.79788208
vertex -9.83755683899 3.85501146317 -213.79788208
endloop
endfacet
