solid 
facet normal -0.10463886708 -0.994510293007 -2.65582087877e-07
outer loop
vertex -9.83753967285 -3.85501194 142.060791016
vertex -9.81764888763 -3.85710477829 142.060791016
vertex -9.81764888763 -3.85710573196 145.631790161
endloop
endfacet
facet normal -0.10463886708 -0.994510293007 -2.65594849225e-07
outer loop
vertex -9.83753967285 -3.85501194 142.060791016
vertex -9.81764888763 -3.85710573196 145.631790161
vertex -9.83753967285 -3.85501289368 145.631790161
endloop
endfacet
facet normal -0.104856058955 -0.994487404823 -2.65588710135e-07
outer loop
vertex -9.85742950439 -3.85291481018 142.060791016
vertex -9.83753967285 -3.85501289368 145.631790161
vertex -9.85742950439 -3.85291576385 145.631790161
endloop
endfacet
facet normal -0.104856051505 -0.994487404823 -2.65588710135e-07
outer loop
vertex -9.85742950439 -3.85291481018 142.060791016
vertex -9.83753967285 -3.85501194 142.060791016
vertex -9.83753967285 -3.85501289368 145.631790161
endloop
endfacet
facet normal -0.105085022748 -0.994463205338 -2.65582258407e-07
outer loop
vertex -9.87731838226 -3.85081315041 142.060791016
vertex -9.85742950439 -3.85291576385 145.631790161
vertex -9.87731838226 -3.85081410408 145.631790161
endloop
endfacet
facet normal -0.105085022748 -0.994463205338 -2.6554405963e-07
outer loop
vertex -9.87731838226 -3.85081315041 142.060791016
vertex -9.85742950439 -3.85291481018 142.060791016
vertex -9.85742950439 -3.85291576385 145.631790161
endloop
endfacet
facet normal -0.994452178478 0.105190135539 2.80921739204e-08
outer loop
vertex -9.87731838226 -3.85081315041 142.060791016
vertex -9.87731838226 -3.85081410408 145.631790161
vertex -9.87205886841 -3.80109143257 145.631790161
endloop
endfacet
facet normal -0.994452118874 0.105190642178 2.1069233469e-08
outer loop
vertex -9.87205886841 -3.80109071732 142.060791016
vertex -9.87731838226 -3.85081315041 142.060791016
vertex -9.87205886841 -3.80109143257 145.631790161
endloop
endfacet
facet normal 0.104639463127 0.994510233402 1.99173825877e-07
outer loop
vertex -9.81242275238 -3.80737948418 145.631790161
vertex -9.83230209351 -3.80528712273 142.060791016
vertex -9.83230209351 -3.80528783798 145.631790161
endloop
endfacet
facet normal 0.104856774211 0.994487345219 1.99191532602e-07
outer loop
vertex -9.83230209351 -3.80528783798 145.631790161
vertex -9.83230209351 -3.80528712273 142.060791016
vertex -9.85218048096 -3.80319190025 145.631790161
endloop
endfacet
facet normal 0.104639463127 0.994510233402 1.99196122708e-07
outer loop
vertex -9.81242275238 -3.80737876892 142.060791016
vertex -9.83230209351 -3.80528712273 142.060791016
vertex -9.81242275238 -3.80737948418 145.631790161
endloop
endfacet
facet normal 0.104856774211 0.994487345219 1.99178785465e-07
outer loop
vertex -9.83230209351 -3.80528712273 142.060791016
vertex -9.85218048096 -3.803191185 142.060791016
vertex -9.85218048096 -3.80319190025 145.631790161
endloop
endfacet
facet normal 0.105080895126 0.994463682175 1.9917405325e-07
outer loop
vertex -9.85218048096 -3.80319190025 145.631790161
vertex -9.87205886841 -3.80109071732 142.060791016
vertex -9.87205886841 -3.80109143257 145.631790161
endloop
endfacet
facet normal 0.105080895126 0.994463682175 1.99186786176e-07
outer loop
vertex -9.85218048096 -3.803191185 142.060791016
vertex -9.87205886841 -3.80109071732 142.060791016
vertex -9.85218048096 -3.80319190025 145.631790161
endloop
endfacet
facet normal 0.994522571564 -0.104522451758 -2.09353956393e-08
outer loop
vertex -9.81242275238 -3.80737876892 142.060791016
vertex -9.81242275238 -3.80737948418 145.631790161
vertex -9.81764888763 -3.85710573196 145.631790161
endloop
endfacet
facet normal 0.994522511959 -0.104522950947 -2.79139946713e-08
outer loop
vertex -9.81764888763 -3.85710477829 142.060791016
vertex -9.81242275238 -3.80737876892 142.060791016
vertex -9.81764888763 -3.85710573196 145.631790161
endloop
endfacet
facet normal -0.0 0.0 -1.0
outer loop
vertex -9.85218048096 -3.803191185 142.060791016
vertex -9.87731838226 -3.85081315041 142.060791016
vertex -9.87205886841 -3.80109071732 142.060791016
endloop
endfacet
facet normal -0.0 0.0 -1.0
outer loop
vertex -9.83230209351 -3.80528712273 142.060791016
vertex -9.85742950439 -3.85291481018 142.060791016
vertex -9.85218048096 -3.803191185 142.060791016
endloop
endfacet
facet normal 0.0 0.0 -1.0
outer loop
vertex -9.85218048096 -3.803191185 142.060791016
vertex -9.85742950439 -3.85291481018 142.060791016
vertex -9.87731838226 -3.85081315041 142.060791016
endloop
endfacet
facet normal -0.0 0.0 -1.0
outer loop
vertex -9.81242275238 -3.80737876892 142.060791016
vertex -9.83753967285 -3.85501194 142.060791016
vertex -9.83230209351 -3.80528712273 142.060791016
endloop
endfacet
facet normal 0.0 0.0 -1.0
outer loop
vertex -9.83230209351 -3.80528712273 142.060791016
vertex -9.83753967285 -3.85501194 142.060791016
vertex -9.85742950439 -3.85291481018 142.060791016
endloop
endfacet
facet normal 0.0 0.0 -1.0
outer loop
vertex -9.81242275238 -3.80737876892 142.060791016
vertex -9.81764888763 -3.85710477829 142.060791016
vertex -9.83753967285 -3.85501194 142.060791016
endloop
endfacet
facet normal 0.0 0.0 1.0
outer loop
vertex -9.87731838226 -3.85081410408 145.631790161
vertex -9.85218048096 -3.80319190025 145.631790161
vertex -9.87205886841 -3.80109143257 145.631790161
endloop
endfacet
facet normal 0.0 0.0 1.0
outer loop
vertex -9.85742950439 -3.85291576385 145.631790161
vertex -9.83230209351 -3.80528783798 145.631790161
vertex -9.85218048096 -3.80319190025 145.631790161
endloop
endfacet
facet normal 0.0 -0.0 1.0
outer loop
vertex -9.85742950439 -3.85291576385 145.631790161
vertex -9.85218048096 -3.80319190025 145.631790161
vertex -9.87731838226 -3.85081410408 145.631790161
endloop
endfacet
facet normal 0.0 -0.0 1.0
outer loop
vertex -9.83753967285 -3.85501289368 145.631790161
vertex -9.83230209351 -3.80528783798 145.631790161
vertex -9.85742950439 -3.85291576385 145.631790161
endloop
endfacet
facet normal 0.0 -0.0 1.0
outer loop
vertex -9.81764888763 -3.85710573196 145.631790161
vertex -9.81242275238 -3.80737948418 145.631790161
vertex -9.83230209351 -3.80528783798 145.631790161
endloop
endfacet
facet normal 0.0 0.0 1.0
outer loop
vertex -9.81764888763 -3.85710573196 145.631790161
vertex -9.83230209351 -3.80528783798 145.631790161
vertex -9.83753967285 -3.85501289368 145.631790161
endloop
endfacet
