solid 
facet normal -0.10397361964 -0.994580030441 0.0
outer loop
vertex -9.77786922455 -3.86127781868 -55.7121238708
vertex -9.75797748566 -3.86335730553 -55.7121238708
vertex -9.75797748566 -3.86335730553 -52.1411247253
endloop
endfacet
facet normal -0.10397361964 -0.994580030441 0.0
outer loop
vertex -9.77786922455 -3.86127781868 -55.7121238708
vertex -9.75797748566 -3.86335730553 -52.1411247253
vertex -9.77786922455 -3.86127781868 -52.1411247253
endloop
endfacet
facet normal -0.104202598333 -0.994556009769 0.0
outer loop
vertex -9.79776000977 -3.85919380188 -55.7121238708
vertex -9.77786922455 -3.86127781868 -52.1411247253
vertex -9.79776000977 -3.85919380188 -52.1411247253
endloop
endfacet
facet normal -0.104202598333 -0.994556009769 0.0
outer loop
vertex -9.79776000977 -3.85919380188 -55.7121238708
vertex -9.77786922455 -3.86127781868 -55.7121238708
vertex -9.77786922455 -3.86127781868 -52.1411247253
endloop
endfacet
facet normal -0.104414843023 -0.994533836842 0.0
outer loop
vertex -9.81765079498 -3.85710549355 -55.7121238708
vertex -9.79776000977 -3.85919380188 -52.1411247253
vertex -9.81765079498 -3.85710549355 -52.1411247253
endloop
endfacet
facet normal -0.104414843023 -0.994533836842 0.0
outer loop
vertex -9.81765079498 -3.85710549355 -55.7121238708
vertex -9.79776000977 -3.85919380188 -55.7121238708
vertex -9.79776000977 -3.85919380188 -52.1411247253
endloop
endfacet
facet normal -0.994520485401 0.104541815817 -2.65528797172e-07
outer loop
vertex -9.81765079498 -3.85710549355 -55.7121238708
vertex -9.81242465973 -3.80737948418 -52.1411247253
vertex -9.81242370605 -3.80737948418 -55.7121238708
endloop
endfacet
facet normal -0.994522511959 0.104522950947 0.0
outer loop
vertex -9.81765079498 -3.85710549355 -52.1411247253
vertex -9.81242465973 -3.80737948418 -52.1411247253
vertex -9.81765079498 -3.85710549355 -55.7121238708
endloop
endfacet
facet normal 0.103973843157 0.994580090046 0.0
outer loop
vertex -9.75278377533 -3.81362771988 -52.1411247253
vertex -9.77266407013 -3.81154942513 -55.7121238708
vertex -9.77266407013 -3.81154942513 -52.1411247253
endloop
endfacet
facet normal 0.103985629976 0.994578719139 -6.6403281096e-08
outer loop
vertex -9.75278377533 -3.8136279583 -55.7121238708
vertex -9.77266407013 -3.81154942513 -55.7121238708
vertex -9.75278377533 -3.81362771988 -52.1411247253
endloop
endfacet
facet normal 0.104197993875 0.994556486607 0.0
outer loop
vertex -9.77266407013 -3.81154942513 -52.1411247253
vertex -9.79254436493 -3.80946660042 -55.7121238708
vertex -9.79254436493 -3.80946660042 -52.1411247253
endloop
endfacet
facet normal 0.104197993875 0.994556486607 -0.0
outer loop
vertex -9.77266407013 -3.81154942513 -55.7121238708
vertex -9.79254436493 -3.80946660042 -55.7121238708
vertex -9.77266407013 -3.81154942513 -52.1411247253
endloop
endfacet
facet normal 0.104410357773 0.994534313679 2.78775562634e-08
outer loop
vertex -9.79254436493 -3.80946660042 -52.1411247253
vertex -9.81242370605 -3.80737948418 -55.7121238708
vertex -9.81242465973 -3.80737948418 -52.1411247253
endloop
endfacet
facet normal 0.10441531986 0.994533836842 -0.0
outer loop
vertex -9.79254436493 -3.80946660042 -55.7121238708
vertex -9.81242370605 -3.80737948418 -55.7121238708
vertex -9.79254436493 -3.80946660042 -52.1411247253
endloop
endfacet
facet normal 0.994590401649 -0.103874571621 6.93520929573e-09
outer loop
vertex -9.75278377533 -3.8136279583 -55.7121238708
vertex -9.75278377533 -3.81362771988 -52.1411247253
vertex -9.75797748566 -3.86335730553 -55.7121238708
endloop
endfacet
facet normal 0.994590461254 -0.103874079883 0.0
outer loop
vertex -9.75278377533 -3.81362771988 -52.1411247253
vertex -9.75797748566 -3.86335730553 -52.1411247253
vertex -9.75797748566 -3.86335730553 -55.7121238708
endloop
endfacet
facet normal 0.0 -0.0 1.0
outer loop
vertex -9.79776000977 -3.85919380188 -52.1411247253
vertex -9.79254436493 -3.80946660042 -52.1411247253
vertex -9.81242465973 -3.80737948418 -52.1411247253
endloop
endfacet
facet normal 0.0 0.0 1.0
outer loop
vertex -9.79776000977 -3.85919380188 -52.1411247253
vertex -9.81242465973 -3.80737948418 -52.1411247253
vertex -9.81765079498 -3.85710549355 -52.1411247253
endloop
endfacet
facet normal 0.0 -0.0 1.0
outer loop
vertex -9.77786922455 -3.86127781868 -52.1411247253
vertex -9.77266407013 -3.81154942513 -52.1411247253
vertex -9.79254436493 -3.80946660042 -52.1411247253
endloop
endfacet
facet normal 0.0 0.0 1.0
outer loop
vertex -9.77786922455 -3.86127781868 -52.1411247253
vertex -9.79254436493 -3.80946660042 -52.1411247253
vertex -9.79776000977 -3.85919380188 -52.1411247253
endloop
endfacet
facet normal 0.0 -0.0 1.0
outer loop
vertex -9.75797748566 -3.86335730553 -52.1411247253
vertex -9.75278377533 -3.81362771988 -52.1411247253
vertex -9.77266407013 -3.81154942513 -52.1411247253
endloop
endfacet
facet normal 0.0 0.0 1.0
outer loop
vertex -9.75797748566 -3.86335730553 -52.1411247253
vertex -9.77266407013 -3.81154942513 -52.1411247253
vertex -9.77786922455 -3.86127781868 -52.1411247253
endloop
endfacet
facet normal -0.0 0.0 -1.0
outer loop
vertex -9.79254436493 -3.80946660042 -55.7121238708
vertex -9.81765079498 -3.85710549355 -55.7121238708
vertex -9.81242370605 -3.80737948418 -55.7121238708
endloop
endfacet
facet normal -0.0 0.0 -1.0
outer loop
vertex -9.77266407013 -3.81154942513 -55.7121238708
vertex -9.79776000977 -3.85919380188 -55.7121238708
vertex -9.79254436493 -3.80946660042 -55.7121238708
endloop
endfacet
facet normal 0.0 0.0 -1.0
outer loop
vertex -9.79254436493 -3.80946660042 -55.7121238708
vertex -9.79776000977 -3.85919380188 -55.7121238708
vertex -9.81765079498 -3.85710549355 -55.7121238708
endloop
endfacet
facet normal -0.0 0.0 -1.0
outer loop
vertex -9.75278377533 -3.8136279583 -55.7121238708
vertex -9.77786922455 -3.86127781868 -55.7121238708
vertex -9.77266407013 -3.81154942513 -55.7121238708
endloop
endfacet
facet normal 0.0 0.0 -1.0
outer loop
vertex -9.77266407013 -3.81154942513 -55.7121238708
vertex -9.77786922455 -3.86127781868 -55.7121238708
vertex -9.79776000977 -3.85919380188 -55.7121238708
endloop
endfacet
facet normal 0.0 0.0 -1.0
outer loop
vertex -9.75278377533 -3.8136279583 -55.7121238708
vertex -9.75797748566 -3.86335730553 -55.7121238708
vertex -9.77786922455 -3.86127781868 -55.7121238708
endloop
endfacet
