solid 
facet normal 0.104638874531 -0.994510293007 1.99196023232e-07
outer loop
vertex 9.81764888763 -3.85710477829 -30.4751224518
vertex 9.81764888763 -3.85710549355 -34.0461235046
vertex 9.83753967285 -3.85501265526 -34.0461235046
endloop
endfacet
facet normal 0.104856051505 -0.994487404823 1.99191433126e-07
outer loop
vertex 9.83753967285 -3.85501194 -30.4751224518
vertex 9.83753967285 -3.85501265526 -34.0461235046
vertex 9.85742950439 -3.85291552544 -34.0461235046
endloop
endfacet
facet normal 0.104638874531 -0.994510293007 1.99196023232e-07
outer loop
vertex 9.83753967285 -3.85501194 -30.4751224518
vertex 9.81764888763 -3.85710477829 -30.4751224518
vertex 9.83753967285 -3.85501265526 -34.0461235046
endloop
endfacet
facet normal 0.104856051505 -0.994487404823 1.99191433126e-07
outer loop
vertex 9.85742950439 -3.85291481018 -30.4751224518
vertex 9.83753967285 -3.85501194 -30.4751224518
vertex 9.85742950439 -3.85291552544 -34.0461235046
endloop
endfacet
facet normal 0.105085037649 -0.994463264942 1.99186601435e-07
outer loop
vertex 9.87731838226 -3.85081315041 -30.4751224518
vertex 9.85742950439 -3.85291552544 -34.0461235046
vertex 9.87731838226 -3.85081386566 -34.0461235046
endloop
endfacet
facet normal 0.105085037649 -0.994463264942 1.99170685278e-07
outer loop
vertex 9.87731838226 -3.85081315041 -30.4751224518
vertex 9.85742950439 -3.85291481018 -30.4751224518
vertex 9.85742950439 -3.85291552544 -34.0461235046
endloop
endfacet
facet normal 0.994452178478 0.105190135539 -2.11900967884e-08
outer loop
vertex 9.87205886841 -3.8010904789 -30.4751224518
vertex 9.87731838226 -3.85081315041 -30.4751224518
vertex 9.87731838226 -3.85081386566 -34.0461235046
endloop
endfacet
facet normal 0.994452059269 0.105190634727 -2.80922929363e-08
outer loop
vertex 9.87205886841 -3.8010904789 -30.4751224518
vertex 9.87731838226 -3.85081386566 -34.0461235046
vertex 9.87205886841 -3.80109143257 -34.0461235046
endloop
endfacet
facet normal -0.104639470577 0.994510233402 -2.65594678694e-07
outer loop
vertex 9.81242275238 -3.80737948418 -34.0461235046
vertex 9.81242275238 -3.8073785305 -30.4751224518
vertex 9.83230209351 -3.80528783798 -34.0461235046
endloop
endfacet
facet normal -0.104868561029 0.994486033916 -2.65588198545e-07
outer loop
vertex 9.83230209351 -3.80528783798 -34.0461235046
vertex 9.83230209351 -3.80528688431 -30.4751224518
vertex 9.85218048096 -3.80319166183 -34.0461235046
endloop
endfacet
facet normal -0.104639470577 0.994510233402 -2.65581945769e-07
outer loop
vertex 9.81242275238 -3.8073785305 -30.4751224518
vertex 9.83230209351 -3.80528688431 -30.4751224518
vertex 9.83230209351 -3.80528783798 -34.0461235046
endloop
endfacet
facet normal -0.104856774211 0.994487345219 -1.99178685989e-07
outer loop
vertex 9.83230209351 -3.80528688431 -30.4751224518
vertex 9.85218048096 -3.80319094658 -30.4751224518
vertex 9.85218048096 -3.80319166183 -34.0461235046
endloop
endfacet
facet normal -0.105069108307 0.994464933872 -2.65582571046e-07
outer loop
vertex 9.85218048096 -3.80319166183 -34.0461235046
vertex 9.87205886841 -3.8010904789 -30.4751224518
vertex 9.87205886841 -3.80109143257 -34.0461235046
endloop
endfacet
facet normal -0.105080902576 0.994463682175 -1.991866867e-07
outer loop
vertex 9.85218048096 -3.80319094658 -30.4751224518
vertex 9.87205886841 -3.8010904789 -30.4751224518
vertex 9.85218048096 -3.80319166183 -34.0461235046
endloop
endfacet
facet normal -0.994522511959 -0.104522444308 2.80360961114e-08
outer loop
vertex 9.81764888763 -3.85710477829 -30.4751224518
vertex 9.81242275238 -3.8073785305 -30.4751224518
vertex 9.81242275238 -3.80737948418 -34.0461235046
endloop
endfacet
facet normal -0.994522511959 -0.104522950947 2.09354862335e-08
outer loop
vertex 9.81764888763 -3.85710477829 -30.4751224518
vertex 9.81242275238 -3.80737948418 -34.0461235046
vertex 9.81764888763 -3.85710549355 -34.0461235046
endloop
endfacet
facet normal -0.0 0.0 1.0
outer loop
vertex 9.85218048096 -3.80319094658 -30.4751224518
vertex 9.87731838226 -3.85081315041 -30.4751224518
vertex 9.87205886841 -3.8010904789 -30.4751224518
endloop
endfacet
facet normal -0.0 0.0 1.0
outer loop
vertex 9.83230209351 -3.80528688431 -30.4751224518
vertex 9.85742950439 -3.85291481018 -30.4751224518
vertex 9.85218048096 -3.80319094658 -30.4751224518
endloop
endfacet
facet normal 0.0 0.0 1.0
outer loop
vertex 9.85218048096 -3.80319094658 -30.4751224518
vertex 9.85742950439 -3.85291481018 -30.4751224518
vertex 9.87731838226 -3.85081315041 -30.4751224518
endloop
endfacet
facet normal -0.0 0.0 1.0
outer loop
vertex 9.81242275238 -3.8073785305 -30.4751224518
vertex 9.83753967285 -3.85501194 -30.4751224518
vertex 9.83230209351 -3.80528688431 -30.4751224518
endloop
endfacet
facet normal 0.0 0.0 1.0
outer loop
vertex 9.83230209351 -3.80528688431 -30.4751224518
vertex 9.83753967285 -3.85501194 -30.4751224518
vertex 9.85742950439 -3.85291481018 -30.4751224518
endloop
endfacet
facet normal 0.0 0.0 1.0
outer loop
vertex 9.81242275238 -3.8073785305 -30.4751224518
vertex 9.81764888763 -3.85710477829 -30.4751224518
vertex 9.83753967285 -3.85501194 -30.4751224518
endloop
endfacet
facet normal 0.0 0.0 -1.0
outer loop
vertex 9.87731838226 -3.85081386566 -34.0461235046
vertex 9.85218048096 -3.80319166183 -34.0461235046
vertex 9.87205886841 -3.80109143257 -34.0461235046
endloop
endfacet
facet normal 0.0 0.0 -1.0
outer loop
vertex 9.85742950439 -3.85291552544 -34.0461235046
vertex 9.83230209351 -3.80528783798 -34.0461235046
vertex 9.85218048096 -3.80319166183 -34.0461235046
endloop
endfacet
facet normal 0.0 0.0 -1.0
outer loop
vertex 9.85742950439 -3.85291552544 -34.0461235046
vertex 9.85218048096 -3.80319166183 -34.0461235046
vertex 9.87731838226 -3.85081386566 -34.0461235046
endloop
endfacet
facet normal 0.0 0.0 -1.0
outer loop
vertex 9.83753967285 -3.85501265526 -34.0461235046
vertex 9.83230209351 -3.80528783798 -34.0461235046
vertex 9.85742950439 -3.85291552544 -34.0461235046
endloop
endfacet
facet normal 0.0 0.0 -1.0
outer loop
vertex 9.81764888763 -3.85710549355 -34.0461235046
vertex 9.81242275238 -3.80737948418 -34.0461235046
vertex 9.83230209351 -3.80528783798 -34.0461235046
endloop
endfacet
facet normal 0.0 0.0 -1.0
outer loop
vertex 9.81764888763 -3.85710549355 -34.0461235046
vertex 9.83230209351 -3.80528783798 -34.0461235046
vertex 9.83753967285 -3.85501265526 -34.0461235046
endloop
endfacet
