solid 
facet normal -0.10397362709 -0.994580030441 0.0
outer loop
vertex -9.77787971497 -3.86127662659 -317.05090332
vertex -9.75798797607 -3.86335611343 -317.05090332
vertex -9.75798797607 -3.86335611343 -313.479919434
endloop
endfacet
facet normal -0.10397362709 -0.994580030441 0.0
outer loop
vertex -9.77787971497 -3.86127662659 -317.05090332
vertex -9.75798797607 -3.86335611343 -313.479919434
vertex -9.77787971497 -3.86127662659 -313.479919434
endloop
endfacet
facet normal -0.104202598333 -0.994556009769 0.0
outer loop
vertex -9.79777050018 -3.85919260979 -317.05090332
vertex -9.77787971497 -3.86127662659 -313.479919434
vertex -9.79777050018 -3.85919260979 -313.479919434
endloop
endfacet
facet normal -0.104414850473 -0.994533836842 0.0
outer loop
vertex -9.79777050018 -3.85919260979 -317.05090332
vertex -9.79777050018 -3.85919260979 -313.479919434
vertex -9.8176612854 -3.85710430145 -313.479919434
endloop
endfacet
facet normal -0.104202598333 -0.994556009769 0.0
outer loop
vertex -9.79777050018 -3.85919260979 -317.05090332
vertex -9.77787971497 -3.86127662659 -317.05090332
vertex -9.77787971497 -3.86127662659 -313.479919434
endloop
endfacet
facet normal -0.104414850473 -0.994533836842 0.0
outer loop
vertex -9.8176612854 -3.85710430145 -317.05090332
vertex -9.79777050018 -3.85919260979 -317.05090332
vertex -9.8176612854 -3.85710430145 -313.479919434
endloop
endfacet
facet normal -0.994522452354 0.104522950947 0.0
outer loop
vertex -9.8176612854 -3.85710430145 -317.05090332
vertex -9.81243515015 -3.80737829208 -313.479919434
vertex -9.81243515015 -3.80737829208 -317.05090332
endloop
endfacet
facet normal -0.994522452354 0.104522950947 0.0
outer loop
vertex -9.8176612854 -3.85710430145 -313.479919434
vertex -9.81243515015 -3.80737829208 -313.479919434
vertex -9.8176612854 -3.85710430145 -317.05090332
endloop
endfacet
facet normal 0.103968888521 0.994580507278 2.77757017386e-08
outer loop
vertex -9.75279426575 -3.81362652779 -313.479919434
vertex -9.77267456055 -3.81154823303 -317.05090332
vertex -9.77267551422 -3.81154823303 -313.479919434
endloop
endfacet
facet normal 0.103973835707 0.994580030441 -0.0
outer loop
vertex -9.75279426575 -3.81362652779 -317.05090332
vertex -9.77267456055 -3.81154823303 -317.05090332
vertex -9.75279426575 -3.81362652779 -313.479919434
endloop
endfacet
facet normal 0.104202948511 0.994556009769 0.0
outer loop
vertex -9.77267551422 -3.81154823303 -313.479919434
vertex -9.79255485535 -3.80946540833 -317.05090332
vertex -9.79255485535 -3.80946540833 -313.479919434
endloop
endfacet
facet normal 0.104410357773 0.994534254074 0.0
outer loop
vertex -9.79255485535 -3.80946540833 -313.479919434
vertex -9.79255485535 -3.80946540833 -317.05090332
vertex -9.81243515015 -3.80737829208 -313.479919434
endloop
endfacet
facet normal 0.104198008776 0.994556605816 2.78273351029e-08
outer loop
vertex -9.77267456055 -3.81154823303 -317.05090332
vertex -9.79255485535 -3.80946540833 -317.05090332
vertex -9.77267551422 -3.81154823303 -313.479919434
endloop
endfacet
facet normal 0.104410357773 0.994534254074 0.0
outer loop
vertex -9.79255485535 -3.80946540833 -317.05090332
vertex -9.81243515015 -3.80737829208 -317.05090332
vertex -9.81243515015 -3.80737829208 -313.479919434
endloop
endfacet
facet normal 0.994590401649 -0.103874072433 0.0
outer loop
vertex -9.75279426575 -3.81362652779 -317.05090332
vertex -9.75279426575 -3.81362652779 -313.479919434
vertex -9.75798797607 -3.86335611343 -317.05090332
endloop
endfacet
facet normal 0.994590401649 -0.103874072433 0.0
outer loop
vertex -9.75279426575 -3.81362652779 -313.479919434
vertex -9.75798797607 -3.86335611343 -313.479919434
vertex -9.75798797607 -3.86335611343 -317.05090332
endloop
endfacet
facet normal 0.0 0.0 1.0
outer loop
vertex -9.8176612854 -3.85710430145 -313.479919434
vertex -9.79255485535 -3.80946540833 -313.479919434
vertex -9.81243515015 -3.80737829208 -313.479919434
endloop
endfacet
facet normal 0.0 -0.0 1.0
outer loop
vertex -9.79777050018 -3.85919260979 -313.479919434
vertex -9.79255485535 -3.80946540833 -313.479919434
vertex -9.8176612854 -3.85710430145 -313.479919434
endloop
endfacet
facet normal 0.0 -0.0 1.0
outer loop
vertex -9.77787971497 -3.86127662659 -313.479919434
vertex -9.77267551422 -3.81154823303 -313.479919434
vertex -9.79255485535 -3.80946540833 -313.479919434
endloop
endfacet
facet normal 0.0 0.0 1.0
outer loop
vertex -9.77787971497 -3.86127662659 -313.479919434
vertex -9.79255485535 -3.80946540833 -313.479919434
vertex -9.79777050018 -3.85919260979 -313.479919434
endloop
endfacet
facet normal 0.0 -0.0 1.0
outer loop
vertex -9.75798797607 -3.86335611343 -313.479919434
vertex -9.75279426575 -3.81362652779 -313.479919434
vertex -9.77267551422 -3.81154823303 -313.479919434
endloop
endfacet
facet normal 0.0 0.0 1.0
outer loop
vertex -9.75798797607 -3.86335611343 -313.479919434
vertex -9.77267551422 -3.81154823303 -313.479919434
vertex -9.77787971497 -3.86127662659 -313.479919434
endloop
endfacet
facet normal -0.0 0.0 -1.0
outer loop
vertex -9.79255485535 -3.80946540833 -317.05090332
vertex -9.8176612854 -3.85710430145 -317.05090332
vertex -9.81243515015 -3.80737829208 -317.05090332
endloop
endfacet
facet normal -0.0 0.0 -1.0
outer loop
vertex -9.77267456055 -3.81154823303 -317.05090332
vertex -9.79777050018 -3.85919260979 -317.05090332
vertex -9.79255485535 -3.80946540833 -317.05090332
endloop
endfacet
facet normal 0.0 0.0 -1.0
outer loop
vertex -9.79255485535 -3.80946540833 -317.05090332
vertex -9.79777050018 -3.85919260979 -317.05090332
vertex -9.8176612854 -3.85710430145 -317.05090332
endloop
endfacet
facet normal -0.0 0.0 -1.0
outer loop
vertex -9.75279426575 -3.81362652779 -317.05090332
vertex -9.77787971497 -3.86127662659 -317.05090332
vertex -9.77267456055 -3.81154823303 -317.05090332
endloop
endfacet
facet normal 0.0 0.0 -1.0
outer loop
vertex -9.77267456055 -3.81154823303 -317.05090332
vertex -9.77787971497 -3.86127662659 -317.05090332
vertex -9.79777050018 -3.85919260979 -317.05090332
endloop
endfacet
facet normal 0.0 0.0 -1.0
outer loop
vertex -9.75279426575 -3.81362652779 -317.05090332
vertex -9.75798797607 -3.86335611343 -317.05090332
vertex -9.77787971497 -3.86127662659 -317.05090332
endloop
endfacet
