solid 
facet normal 0.104632042348 0.994511067867 1.99220892227e-07
outer loop
vertex 9.83754444122 3.85501265526 -374.531585693
vertex 9.81765460968 3.85710525513 -374.531585693
vertex 9.81765460968 3.85710453987 -370.960571289
endloop
endfacet
facet normal 0.104643821716 0.994509756565 2.65593541826e-07
outer loop
vertex 9.83754444122 3.85501265526 -374.531585693
vertex 9.81765460968 3.85710453987 -370.960571289
vertex 9.83754444122 3.85501170158 -370.960571289
endloop
endfacet
facet normal 0.104856051505 0.994487404823 1.99190694161e-07
outer loop
vertex 9.85743427277 3.85291528702 -374.531585693
vertex 9.83754444122 3.85501170158 -370.960571289
vertex 9.85743427277 3.85291457176 -370.960571289
endloop
endfacet
facet normal 0.104867838323 0.99448621273 2.65587260628e-07
outer loop
vertex 9.85743427277 3.85291528702 -374.531585693
vertex 9.83754444122 3.85501265526 -374.531585693
vertex 9.83754444122 3.85501170158 -370.960571289
endloop
endfacet
facet normal 0.105085022748 0.994463205338 2.65581121539e-07
outer loop
vertex 9.87732315063 3.85081386566 -374.531585693
vertex 9.85743427277 3.85291457176 -370.960571289
vertex 9.87732315063 3.85081291199 -370.960571289
endloop
endfacet
facet normal 0.105073235929 0.994464457035 1.99170159476e-07
outer loop
vertex 9.87732315063 3.85081386566 -374.531585693
vertex 9.85743427277 3.85291528702 -374.531585693
vertex 9.85743427277 3.85291457176 -370.960571289
endloop
endfacet
facet normal 0.994452178478 -0.105190142989 -2.80920566809e-08
outer loop
vertex 9.87732315063 3.85081386566 -374.531585693
vertex 9.87732315063 3.85081291199 -370.960571289
vertex 9.87206363678 3.80109119415 -374.531585693
endloop
endfacet
facet normal 0.994452059269 -0.105190634727 -2.10271178247e-08
outer loop
vertex 9.87732315063 3.85081291199 -370.960571289
vertex 9.87206363678 3.8010904789 -370.960571289
vertex 9.87206363678 3.80109119415 -374.531585693
endloop
endfacet
facet normal -0.104639455676 -0.994510173798 -1.99195241635e-07
outer loop
vertex 9.81242752075 3.8073785305 -370.960571289
vertex 9.81242752075 3.80737924576 -374.531585693
vertex 9.83230686188 3.80528688431 -370.960571289
endloop
endfacet
facet normal -0.104639455676 -0.994510173798 -1.99172944804e-07
outer loop
vertex 9.81242752075 3.80737924576 -374.531585693
vertex 9.83230686188 3.80528759956 -374.531585693
vertex 9.83230686188 3.80528688431 -370.960571289
endloop
endfacet
facet normal -0.104863591492 -0.994486629963 -2.65625601514e-07
outer loop
vertex 9.83230686188 3.80528688431 -370.960571289
vertex 9.852186203 3.80319166183 -374.531585693
vertex 9.852186203 3.80319070816 -370.960571289
endloop
endfacet
facet normal -0.105074085295 -0.99446439743 -2.65581434178e-07
outer loop
vertex 9.852186203 3.80319070816 -370.960571289
vertex 9.852186203 3.80319166183 -374.531585693
vertex 9.87206363678 3.8010904789 -370.960571289
endloop
endfacet
facet normal -0.104851789773 -0.99448788166 -1.99190779426e-07
outer loop
vertex 9.83230686188 3.80528759956 -374.531585693
vertex 9.852186203 3.80319166183 -374.531585693
vertex 9.83230686188 3.80528688431 -370.960571289
endloop
endfacet
facet normal -0.105085879564 -0.994463145733 -1.99182636607e-07
outer loop
vertex 9.852186203 3.80319166183 -374.531585693
vertex 9.87206363678 3.80109119415 -374.531585693
vertex 9.87206363678 3.8010904789 -370.960571289
endloop
endfacet
facet normal -0.994520545006 0.104541815817 2.08640518196e-08
outer loop
vertex 9.81242752075 3.80737924576 -374.531585693
vertex 9.81765460968 3.85710453987 -370.960571289
vertex 9.81765460968 3.85710525513 -374.531585693
endloop
endfacet
facet normal -0.994520545006 0.104541815817 2.09391846084e-08
outer loop
vertex 9.81242752075 3.8073785305 -370.960571289
vertex 9.81765460968 3.85710453987 -370.960571289
vertex 9.81242752075 3.80737924576 -374.531585693
endloop
endfacet
facet normal 0.0 0.0 1.0
outer loop
vertex 9.87732315063 3.85081291199 -370.960571289
vertex 9.852186203 3.80319070816 -370.960571289
vertex 9.87206363678 3.8010904789 -370.960571289
endloop
endfacet
facet normal 0.0 0.0 1.0
outer loop
vertex 9.85743427277 3.85291457176 -370.960571289
vertex 9.83230686188 3.80528688431 -370.960571289
vertex 9.852186203 3.80319070816 -370.960571289
endloop
endfacet
facet normal 0.0 0.0 1.0
outer loop
vertex 9.85743427277 3.85291457176 -370.960571289
vertex 9.852186203 3.80319070816 -370.960571289
vertex 9.87732315063 3.85081291199 -370.960571289
endloop
endfacet
facet normal 0.0 0.0 1.0
outer loop
vertex 9.83754444122 3.85501170158 -370.960571289
vertex 9.83230686188 3.80528688431 -370.960571289
vertex 9.85743427277 3.85291457176 -370.960571289
endloop
endfacet
facet normal 0.0 0.0 1.0
outer loop
vertex 9.81765460968 3.85710453987 -370.960571289
vertex 9.81242752075 3.8073785305 -370.960571289
vertex 9.83230686188 3.80528688431 -370.960571289
endloop
endfacet
facet normal 0.0 0.0 1.0
outer loop
vertex 9.81765460968 3.85710453987 -370.960571289
vertex 9.83230686188 3.80528688431 -370.960571289
vertex 9.83754444122 3.85501170158 -370.960571289
endloop
endfacet
facet normal 0.0 0.0 -1.0
outer loop
vertex 9.852186203 3.80319166183 -374.531585693
vertex 9.87732315063 3.85081386566 -374.531585693
vertex 9.87206363678 3.80109119415 -374.531585693
endloop
endfacet
facet normal 0.0 0.0 -1.0
outer loop
vertex 9.852186203 3.80319166183 -374.531585693
vertex 9.85743427277 3.85291528702 -374.531585693
vertex 9.87732315063 3.85081386566 -374.531585693
endloop
endfacet
facet normal 0.0 0.0 -1.0
outer loop
vertex 9.83230686188 3.80528759956 -374.531585693
vertex 9.83754444122 3.85501265526 -374.531585693
vertex 9.852186203 3.80319166183 -374.531585693
endloop
endfacet
facet normal 0.0 0.0 -1.0
outer loop
vertex 9.852186203 3.80319166183 -374.531585693
vertex 9.83754444122 3.85501265526 -374.531585693
vertex 9.85743427277 3.85291528702 -374.531585693
endloop
endfacet
facet normal 0.0 0.0 -1.0
outer loop
vertex 9.81242752075 3.80737924576 -374.531585693
vertex 9.81765460968 3.85710525513 -374.531585693
vertex 9.83230686188 3.80528759956 -374.531585693
endloop
endfacet
facet normal 0.0 0.0 -1.0
outer loop
vertex 9.83230686188 3.80528759956 -374.531585693
vertex 9.81765460968 3.85710525513 -374.531585693
vertex 9.83754444122 3.85501265526 -374.531585693
endloop
endfacet
