solid 
facet normal 0.10397361964 -0.994580090046 0.0
outer loop
vertex 9.75798225403 -3.86335682869 -80.9891204834
vertex 9.75798225403 -3.86335682869 -84.5601272583
vertex 9.77787399292 -3.86127734184 -84.5601272583
endloop
endfacet
facet normal 0.10397361964 -0.994580090046 0.0
outer loop
vertex 9.77787399292 -3.86127734184 -80.9891204834
vertex 9.75798225403 -3.86335682869 -80.9891204834
vertex 9.77787399292 -3.86127734184 -84.5601272583
endloop
endfacet
facet normal 0.104202590883 -0.994556069374 0.0
outer loop
vertex 9.79776477814 -3.85919332504 -80.9891204834
vertex 9.77787399292 -3.86127734184 -84.5601272583
vertex 9.79776477814 -3.85919332504 -84.5601272583
endloop
endfacet
facet normal 0.104202590883 -0.994556069374 0.0
outer loop
vertex 9.79776477814 -3.85919332504 -80.9891204834
vertex 9.77787399292 -3.86127734184 -80.9891204834
vertex 9.77787399292 -3.86127734184 -84.5601272583
endloop
endfacet
facet normal 0.104414843023 -0.994533836842 0.0
outer loop
vertex 9.81765556335 -3.85710501671 -80.9891204834
vertex 9.79776477814 -3.85919332504 -84.5601272583
vertex 9.81765556335 -3.85710501671 -84.5601272583
endloop
endfacet
facet normal 0.104414843023 -0.994533836842 0.0
outer loop
vertex 9.81765556335 -3.85710501671 -80.9891204834
vertex 9.79776477814 -3.85919332504 -80.9891204834
vertex 9.79776477814 -3.85919332504 -84.5601272583
endloop
endfacet
facet normal 0.994522511959 0.104522444308 0.0
outer loop
vertex 9.8124294281 -3.80737876892 -80.9891204834
vertex 9.81765556335 -3.85710501671 -80.9891204834
vertex 9.81765556335 -3.85710501671 -84.5601272583
endloop
endfacet
facet normal 0.994522511959 0.104522444308 0.0
outer loop
vertex 9.8124294281 -3.80737876892 -80.9891204834
vertex 9.81765556335 -3.85710501671 -84.5601272583
vertex 9.8124294281 -3.80737876892 -84.5601272583
endloop
endfacet
facet normal -0.103968895972 0.994580566883 0.0
outer loop
vertex 9.7527885437 -3.81362724304 -84.5601272583
vertex 9.7527885437 -3.81362724304 -80.9891204834
vertex 9.77266979218 -3.81154894829 -84.5601272583
endloop
endfacet
facet normal -0.103980690241 0.994579315186 -6.6406357746e-08
outer loop
vertex 9.7527885437 -3.81362724304 -80.9891204834
vertex 9.77266979218 -3.81154870987 -80.9891204834
vertex 9.77266979218 -3.81154894829 -84.5601272583
endloop
endfacet
facet normal -0.104202948511 0.994556069374 0.0
outer loop
vertex 9.77266979218 -3.81154894829 -84.5601272583
vertex 9.7925491333 -3.80946612358 -80.9891204834
vertex 9.7925491333 -3.80946612358 -84.5601272583
endloop
endfacet
facet normal -0.104191154242 0.994557321072 -6.64017107965e-08
outer loop
vertex 9.77266979218 -3.81154870987 -80.9891204834
vertex 9.7925491333 -3.80946612358 -80.9891204834
vertex 9.77266979218 -3.81154894829 -84.5601272583
endloop
endfacet
facet normal -0.104422144592 0.994533061981 0.0
outer loop
vertex 9.7925491333 -3.80946612358 -84.5601272583
vertex 9.8124294281 -3.80737876892 -80.9891204834
vertex 9.8124294281 -3.80737876892 -84.5601272583
endloop
endfacet
facet normal -0.104422144592 0.994533061981 0.0
outer loop
vertex 9.7925491333 -3.80946612358 -80.9891204834
vertex 9.8124294281 -3.80737876892 -80.9891204834
vertex 9.7925491333 -3.80946612358 -84.5601272583
endloop
endfacet
facet normal -0.994590461254 -0.103874072433 -0.0
outer loop
vertex 9.7527885437 -3.81362724304 -80.9891204834
vertex 9.7527885437 -3.81362724304 -84.5601272583
vertex 9.75798225403 -3.86335682869 -84.5601272583
endloop
endfacet
facet normal -0.994590461254 -0.103874072433 -0.0
outer loop
vertex 9.75798225403 -3.86335682869 -80.9891204834
vertex 9.7527885437 -3.81362724304 -80.9891204834
vertex 9.75798225403 -3.86335682869 -84.5601272583
endloop
endfacet
facet normal -0.0 0.0 1.0
outer loop
vertex 9.7925491333 -3.80946612358 -80.9891204834
vertex 9.81765556335 -3.85710501671 -80.9891204834
vertex 9.8124294281 -3.80737876892 -80.9891204834
endloop
endfacet
facet normal 0.0 0.0 1.0
outer loop
vertex 9.7925491333 -3.80946612358 -80.9891204834
vertex 9.79776477814 -3.85919332504 -80.9891204834
vertex 9.81765556335 -3.85710501671 -80.9891204834
endloop
endfacet
facet normal -0.0 0.0 1.0
outer loop
vertex 9.77266979218 -3.81154870987 -80.9891204834
vertex 9.77787399292 -3.86127734184 -80.9891204834
vertex 9.7925491333 -3.80946612358 -80.9891204834
endloop
endfacet
facet normal 0.0 0.0 1.0
outer loop
vertex 9.7925491333 -3.80946612358 -80.9891204834
vertex 9.77787399292 -3.86127734184 -80.9891204834
vertex 9.79776477814 -3.85919332504 -80.9891204834
endloop
endfacet
facet normal -0.0 0.0 1.0
outer loop
vertex 9.7527885437 -3.81362724304 -80.9891204834
vertex 9.75798225403 -3.86335682869 -80.9891204834
vertex 9.77266979218 -3.81154870987 -80.9891204834
endloop
endfacet
facet normal 0.0 0.0 1.0
outer loop
vertex 9.77266979218 -3.81154870987 -80.9891204834
vertex 9.75798225403 -3.86335682869 -80.9891204834
vertex 9.77787399292 -3.86127734184 -80.9891204834
endloop
endfacet
facet normal 0.0 0.0 -1.0
outer loop
vertex 9.81765556335 -3.85710501671 -84.5601272583
vertex 9.7925491333 -3.80946612358 -84.5601272583
vertex 9.8124294281 -3.80737876892 -84.5601272583
endloop
endfacet
facet normal 0.0 0.0 -1.0
outer loop
vertex 9.79776477814 -3.85919332504 -84.5601272583
vertex 9.77266979218 -3.81154894829 -84.5601272583
vertex 9.7925491333 -3.80946612358 -84.5601272583
endloop
endfacet
facet normal 0.0 0.0 -1.0
outer loop
vertex 9.79776477814 -3.85919332504 -84.5601272583
vertex 9.7925491333 -3.80946612358 -84.5601272583
vertex 9.81765556335 -3.85710501671 -84.5601272583
endloop
endfacet
facet normal 0.0 0.0 -1.0
outer loop
vertex 9.77787399292 -3.86127734184 -84.5601272583
vertex 9.77266979218 -3.81154894829 -84.5601272583
vertex 9.79776477814 -3.85919332504 -84.5601272583
endloop
endfacet
facet normal 0.0 0.0 -1.0
outer loop
vertex 9.75798225403 -3.86335682869 -84.5601272583
vertex 9.7527885437 -3.81362724304 -84.5601272583
vertex 9.77266979218 -3.81154894829 -84.5601272583
endloop
endfacet
facet normal 0.0 0.0 -1.0
outer loop
vertex 9.75798225403 -3.86335682869 -84.5601272583
vertex 9.77266979218 -3.81154894829 -84.5601272583
vertex 9.77787399292 -3.86127734184 -84.5601272583
endloop
endfacet
