solid 
facet normal 0.103978559375 0.994579613209 -3.86633800531e-08
outer loop
vertex 9.77786827087 3.86127781868 58.4173049927
vertex 9.75797748566 3.86335730553 58.4173049927
vertex 9.75797653198 3.86335754395 61.9883041382
endloop
endfacet
facet normal 0.10397362709 0.994580030441 -6.64033663611e-08
outer loop
vertex 9.77786827087 3.86127781868 58.4173049927
vertex 9.75797653198 3.86335754395 61.9883041382
vertex 9.77786827087 3.8612780571 61.9883041382
endloop
endfacet
facet normal 0.104197666049 0.994556605816 -0.0
outer loop
vertex 9.79776000977 3.8591940403 58.4173049927
vertex 9.77786827087 3.8612780571 61.9883041382
vertex 9.79776000977 3.8591940403 61.9883041382
endloop
endfacet
facet normal 0.10418587923 0.994557857513 -6.64209878209e-08
outer loop
vertex 9.79776000977 3.8591940403 58.4173049927
vertex 9.77786827087 3.86127781868 58.4173049927
vertex 9.77786827087 3.8612780571 61.9883041382
endloop
endfacet
facet normal 0.104414850473 0.994533836842 -6.64002826056e-08
outer loop
vertex 9.81765079498 3.85710549355 58.4173049927
vertex 9.79776000977 3.8591940403 61.9883041382
vertex 9.81765079498 3.85710573196 61.9883041382
endloop
endfacet
facet normal 0.104426637292 0.994532585144 0.0
outer loop
vertex 9.81765079498 3.85710549355 58.4173049927
vertex 9.79776000977 3.8591940403 58.4173049927
vertex 9.79776000977 3.8591940403 61.9883041382
endloop
endfacet
facet normal 0.99452060461 -0.104541324079 6.97972568631e-09
outer loop
vertex 9.81765079498 3.85710549355 58.4173049927
vertex 9.81765079498 3.85710573196 61.9883041382
vertex 9.81242370605 3.80737948418 61.9883041382
endloop
endfacet
facet normal 0.994520485401 -0.104541815817 0.0
outer loop
vertex 9.81242370605 3.80737948418 58.4173049927
vertex 9.81765079498 3.85710549355 58.4173049927
vertex 9.81242370605 3.80737948418 61.9883041382
endloop
endfacet
facet normal -0.103985629976 -0.994578719139 -0.0
outer loop
vertex 9.75278377533 3.8136279583 61.9883041382
vertex 9.75278377533 3.8136279583 58.4173049927
vertex 9.77266407013 3.81154942513 61.9883041382
endloop
endfacet
facet normal -0.103985629976 -0.994578719139 0.0
outer loop
vertex 9.75278377533 3.8136279583 58.4173049927
vertex 9.77266407013 3.81154942513 58.4173049927
vertex 9.77266407013 3.81154942513 61.9883041382
endloop
endfacet
facet normal -0.104186214507 -0.994557857513 6.64082548951e-08
outer loop
vertex 9.77266407013 3.81154942513 61.9883041382
vertex 9.79254436493 3.80946660042 58.4173049927
vertex 9.79254436493 3.80946683884 61.9883041382
endloop
endfacet
facet normal -0.104197993875 -0.994556486607 0.0
outer loop
vertex 9.77266407013 3.81154942513 58.4173049927
vertex 9.79254436493 3.80946660042 58.4173049927
vertex 9.77266407013 3.81154942513 61.9883041382
endloop
endfacet
facet normal -0.104427114129 -0.994532585144 0.0
outer loop
vertex 9.79254436493 3.80946683884 61.9883041382
vertex 9.81242370605 3.80737948418 58.4173049927
vertex 9.81242370605 3.80737948418 61.9883041382
endloop
endfacet
facet normal -0.10441531986 -0.994533836842 6.64002826056e-08
outer loop
vertex 9.79254436493 3.80946660042 58.4173049927
vertex 9.81242370605 3.80737948418 58.4173049927
vertex 9.79254436493 3.80946683884 61.9883041382
endloop
endfacet
facet normal -0.994592428207 0.103855207562 0.0
outer loop
vertex 9.75278377533 3.8136279583 58.4173049927
vertex 9.75278377533 3.8136279583 61.9883041382
vertex 9.75797653198 3.86335754395 61.9883041382
endloop
endfacet
facet normal -0.994590401649 0.103874571621 -2.7255143209e-07
outer loop
vertex 9.75797748566 3.86335730553 58.4173049927
vertex 9.75278377533 3.8136279583 58.4173049927
vertex 9.75797653198 3.86335754395 61.9883041382
endloop
endfacet
facet normal 0.0 0.0 -1.0
outer loop
vertex 9.79254436493 3.80946660042 58.4173049927
vertex 9.81765079498 3.85710549355 58.4173049927
vertex 9.81242370605 3.80737948418 58.4173049927
endloop
endfacet
facet normal 0.0 0.0 -1.0
outer loop
vertex 9.77266407013 3.81154942513 58.4173049927
vertex 9.79776000977 3.8591940403 58.4173049927
vertex 9.79254436493 3.80946660042 58.4173049927
endloop
endfacet
facet normal 0.0 0.0 -1.0
outer loop
vertex 9.79254436493 3.80946660042 58.4173049927
vertex 9.79776000977 3.8591940403 58.4173049927
vertex 9.81765079498 3.85710549355 58.4173049927
endloop
endfacet
facet normal 0.0 0.0 -1.0
outer loop
vertex 9.77266407013 3.81154942513 58.4173049927
vertex 9.77786827087 3.86127781868 58.4173049927
vertex 9.79776000977 3.8591940403 58.4173049927
endloop
endfacet
facet normal 0.0 0.0 -1.0
outer loop
vertex 9.75278377533 3.8136279583 58.4173049927
vertex 9.75797748566 3.86335730553 58.4173049927
vertex 9.77266407013 3.81154942513 58.4173049927
endloop
endfacet
facet normal 0.0 0.0 -1.0
outer loop
vertex 9.77266407013 3.81154942513 58.4173049927
vertex 9.75797748566 3.86335730553 58.4173049927
vertex 9.77786827087 3.86127781868 58.4173049927
endloop
endfacet
facet normal 0.0 0.0 1.0
outer loop
vertex 9.81765079498 3.85710573196 61.9883041382
vertex 9.79254436493 3.80946683884 61.9883041382
vertex 9.81242370605 3.80737948418 61.9883041382
endloop
endfacet
facet normal 0.0 0.0 1.0
outer loop
vertex 9.79776000977 3.8591940403 61.9883041382
vertex 9.79254436493 3.80946683884 61.9883041382
vertex 9.81765079498 3.85710573196 61.9883041382
endloop
endfacet
facet normal 0.0 0.0 1.0
outer loop
vertex 9.77786827087 3.8612780571 61.9883041382
vertex 9.77266407013 3.81154942513 61.9883041382
vertex 9.79254436493 3.80946683884 61.9883041382
endloop
endfacet
facet normal 0.0 0.0 1.0
outer loop
vertex 9.77786827087 3.8612780571 61.9883041382
vertex 9.79254436493 3.80946683884 61.9883041382
vertex 9.79776000977 3.8591940403 61.9883041382
endloop
endfacet
facet normal 0.0 0.0 1.0
outer loop
vertex 9.75797653198 3.86335754395 61.9883041382
vertex 9.75278377533 3.8136279583 61.9883041382
vertex 9.77266407013 3.81154942513 61.9883041382
endloop
endfacet
facet normal 0.0 0.0 1.0
outer loop
vertex 9.75797653198 3.86335754395 61.9883041382
vertex 9.77266407013 3.81154942513 61.9883041382
vertex 9.77786827087 3.8612780571 61.9883041382
endloop
endfacet
