solid 
facet normal -0.10397362709 0.994580030441 0.0
outer loop
vertex -9.77787399292 3.86127734184 -392.626586914
vertex -9.75798225403 3.86335682869 -392.626586914
vertex -9.75798225403 3.86335682869 -396.197570801
endloop
endfacet
facet normal -0.10397362709 0.994580030441 0.0
outer loop
vertex -9.77787399292 3.86127734184 -392.626586914
vertex -9.75798225403 3.86335682869 -396.197570801
vertex -9.77787399292 3.86127734184 -396.197570801
endloop
endfacet
facet normal -0.104202598333 0.994556009769 0.0
outer loop
vertex -9.77787399292 3.86127734184 -392.626586914
vertex -9.77787399292 3.86127734184 -396.197570801
vertex -9.79776477814 3.85919332504 -396.197570801
endloop
endfacet
facet normal -0.104202598333 0.994556009769 0.0
outer loop
vertex -9.79776477814 3.85919332504 -392.626586914
vertex -9.77787399292 3.86127734184 -392.626586914
vertex -9.79776477814 3.85919332504 -396.197570801
endloop
endfacet
facet normal -0.104414850473 0.994533836842 0.0
outer loop
vertex -9.81765556335 3.85710501671 -392.626586914
vertex -9.79776477814 3.85919332504 -396.197570801
vertex -9.81765556335 3.85710501671 -396.197570801
endloop
endfacet
facet normal -0.104414850473 0.994533836842 0.0
outer loop
vertex -9.81765556335 3.85710501671 -392.626586914
vertex -9.79776477814 3.85919332504 -392.626586914
vertex -9.79776477814 3.85919332504 -396.197570801
endloop
endfacet
facet normal -0.994522452354 -0.104522950947 0.0
outer loop
vertex -9.8124294281 3.80737900734 -392.626586914
vertex -9.81765556335 3.85710501671 -392.626586914
vertex -9.81765556335 3.85710501671 -396.197570801
endloop
endfacet
facet normal -0.994522452354 -0.104522950947 -0.0
outer loop
vertex -9.8124294281 3.80737900734 -392.626586914
vertex -9.81765556335 3.85710501671 -396.197570801
vertex -9.8124294281 3.80737900734 -396.197570801
endloop
endfacet
facet normal 0.103968888521 -0.994580507278 0.0
outer loop
vertex -9.7527885437 3.81362724304 -396.197570801
vertex -9.7527885437 3.81362724304 -392.626586914
vertex -9.77266979218 3.81154894829 -396.197570801
endloop
endfacet
facet normal 0.103968888521 -0.994580507278 0.0
outer loop
vertex -9.7527885437 3.81362724304 -392.626586914
vertex -9.77266979218 3.81154894829 -392.626586914
vertex -9.77266979218 3.81154894829 -396.197570801
endloop
endfacet
facet normal 0.104202948511 -0.994556009769 2.78286531596e-08
outer loop
vertex -9.77266979218 3.81154894829 -396.197570801
vertex -9.79255008698 3.80946612358 -392.626586914
vertex -9.7925491333 3.80946612358 -396.197570801
endloop
endfacet
facet normal 0.104198008776 -0.994556605816 0.0
outer loop
vertex -9.77266979218 3.81154894829 -392.626586914
vertex -9.79255008698 3.80946612358 -392.626586914
vertex -9.77266979218 3.81154894829 -396.197570801
endloop
endfacet
facet normal 0.104410357773 -0.994534254074 0.0
outer loop
vertex -9.7925491333 3.80946612358 -396.197570801
vertex -9.8124294281 3.80737900734 -392.626586914
vertex -9.8124294281 3.80737900734 -396.197570801
endloop
endfacet
facet normal 0.10441531986 -0.994533777237 2.78853704572e-08
outer loop
vertex -9.79255008698 3.80946612358 -392.626586914
vertex -9.8124294281 3.80737900734 -392.626586914
vertex -9.7925491333 3.80946612358 -396.197570801
endloop
endfacet
facet normal 0.994590401649 0.103874072433 0.0
outer loop
vertex -9.7527885437 3.81362724304 -392.626586914
vertex -9.7527885437 3.81362724304 -396.197570801
vertex -9.75798225403 3.86335682869 -396.197570801
endloop
endfacet
facet normal 0.994590401649 0.103874072433 0.0
outer loop
vertex -9.75798225403 3.86335682869 -392.626586914
vertex -9.7527885437 3.81362724304 -392.626586914
vertex -9.75798225403 3.86335682869 -396.197570801
endloop
endfacet
facet normal 0.0 0.0 1.0
outer loop
vertex -9.79255008698 3.80946612358 -392.626586914
vertex -9.81765556335 3.85710501671 -392.626586914
vertex -9.8124294281 3.80737900734 -392.626586914
endloop
endfacet
facet normal 0.0 0.0 1.0
outer loop
vertex -9.79255008698 3.80946612358 -392.626586914
vertex -9.79776477814 3.85919332504 -392.626586914
vertex -9.81765556335 3.85710501671 -392.626586914
endloop
endfacet
facet normal 0.0 0.0 1.0
outer loop
vertex -9.77266979218 3.81154894829 -392.626586914
vertex -9.77787399292 3.86127734184 -392.626586914
vertex -9.79255008698 3.80946612358 -392.626586914
endloop
endfacet
facet normal 0.0 -0.0 1.0
outer loop
vertex -9.79255008698 3.80946612358 -392.626586914
vertex -9.77787399292 3.86127734184 -392.626586914
vertex -9.79776477814 3.85919332504 -392.626586914
endloop
endfacet
facet normal 0.0 0.0 1.0
outer loop
vertex -9.7527885437 3.81362724304 -392.626586914
vertex -9.75798225403 3.86335682869 -392.626586914
vertex -9.77266979218 3.81154894829 -392.626586914
endloop
endfacet
facet normal 0.0 -0.0 1.0
outer loop
vertex -9.77266979218 3.81154894829 -392.626586914
vertex -9.75798225403 3.86335682869 -392.626586914
vertex -9.77787399292 3.86127734184 -392.626586914
endloop
endfacet
facet normal 0.0 0.0 -1.0
outer loop
vertex -9.81765556335 3.85710501671 -396.197570801
vertex -9.7925491333 3.80946612358 -396.197570801
vertex -9.8124294281 3.80737900734 -396.197570801
endloop
endfacet
facet normal 0.0 0.0 -1.0
outer loop
vertex -9.79776477814 3.85919332504 -396.197570801
vertex -9.77266979218 3.81154894829 -396.197570801
vertex -9.7925491333 3.80946612358 -396.197570801
endloop
endfacet
facet normal 0.0 -0.0 -1.0
outer loop
vertex -9.79776477814 3.85919332504 -396.197570801
vertex -9.7925491333 3.80946612358 -396.197570801
vertex -9.81765556335 3.85710501671 -396.197570801
endloop
endfacet
facet normal 0.0 -0.0 -1.0
outer loop
vertex -9.77787399292 3.86127734184 -396.197570801
vertex -9.77266979218 3.81154894829 -396.197570801
vertex -9.79776477814 3.85919332504 -396.197570801
endloop
endfacet
facet normal 0.0 -0.0 -1.0
outer loop
vertex -9.75798225403 3.86335682869 -396.197570801
vertex -9.7527885437 3.81362724304 -396.197570801
vertex -9.77266979218 3.81154894829 -396.197570801
endloop
endfacet
facet normal 0.0 0.0 -1.0
outer loop
vertex -9.75798225403 3.86335682869 -396.197570801
vertex -9.77266979218 3.81154894829 -396.197570801
vertex -9.77787399292 3.86127734184 -396.197570801
endloop
endfacet
