solid 
facet normal -0.104643814266 0.99450969696 -2.65594593429e-07
outer loop
vertex -9.83753585815 3.8550131321 18.6563053131
vertex -9.81764602661 3.85710597038 18.6563053131
vertex -9.81764602661 3.85710501671 15.0853052139
endloop
endfacet
facet normal -0.104643814266 0.99450969696 -2.65594593429e-07
outer loop
vertex -9.83753585815 3.8550131321 18.6563053131
vertex -9.81764602661 3.85710501671 15.0853052139
vertex -9.83753585815 3.85501217842 15.0853052139
endloop
endfacet
facet normal -0.104856044054 0.994487404823 -2.65588653292e-07
outer loop
vertex -9.8574256897 3.85291600227 18.6563053131
vertex -9.83753585815 3.85501217842 15.0853052139
vertex -9.8574256897 3.8529150486 15.0853052139
endloop
endfacet
facet normal -0.104856051505 0.994487404823 -2.65588653292e-07
outer loop
vertex -9.8574256897 3.85291600227 18.6563053131
vertex -9.83753585815 3.8550131321 18.6563053131
vertex -9.83753585815 3.85501217842 15.0853052139
endloop
endfacet
facet normal -0.10508004576 0.994463741779 -2.65582315251e-07
outer loop
vertex -9.87731552124 3.8508143425 18.6563053131
vertex -9.8574256897 3.8529150486 15.0853052139
vertex -9.87731552124 3.85081338882 15.0853052139
endloop
endfacet
facet normal -0.10508004576 0.994463741779 -2.65582315251e-07
outer loop
vertex -9.87731552124 3.8508143425 18.6563053131
vertex -9.8574256897 3.85291600227 18.6563053131
vertex -9.8574256897 3.8529150486 15.0853052139
endloop
endfacet
facet normal -0.994452178478 -0.10519015044 2.11901038938e-08
outer loop
vertex -9.87731552124 3.8508143425 18.6563053131
vertex -9.87205600739 3.80109095573 15.0853052139
vertex -9.87205600739 3.80109167099 18.6563053131
endloop
endfacet
facet normal -0.994452118874 -0.105190649629 2.80923035945e-08
outer loop
vertex -9.87731552124 3.85081338882 15.0853052139
vertex -9.87205600739 3.80109095573 15.0853052139
vertex -9.87731552124 3.8508143425 18.6563053131
endloop
endfacet
facet normal 0.104644417763 -0.99450969696 2.27113702067e-07
outer loop
vertex -9.81241989136 3.80737900734 15.0853052139
vertex -9.83229923248 3.8052880764 18.6563053131
vertex -9.83229827881 3.80528736115 15.0853052139
endloop
endfacet
facet normal 0.104639463127 -0.994510233402 1.99196051653e-07
outer loop
vertex -9.81241989136 3.8073797226 18.6563053131
vertex -9.83229923248 3.8052880764 18.6563053131
vertex -9.81241989136 3.80737900734 15.0853052139
endloop
endfacet
facet normal 0.104851789773 -0.994487822056 1.99220238528e-07
outer loop
vertex -9.83229827881 3.80528736115 15.0853052139
vertex -9.85217761993 3.80319213867 18.6563053131
vertex -9.85217761993 3.80319142342 15.0853052139
endloop
endfacet
facet normal 0.105080895126 -0.994463682175 1.99186729333e-07
outer loop
vertex -9.85217761993 3.80319142342 15.0853052139
vertex -9.85217761993 3.80319213867 18.6563053131
vertex -9.87205600739 3.80109095573 15.0853052139
endloop
endfacet
facet normal 0.10485676676 -0.994487345219 2.27194604463e-07
outer loop
vertex -9.83229923248 3.8052880764 18.6563053131
vertex -9.85217761993 3.80319213867 18.6563053131
vertex -9.83229827881 3.80528736115 15.0853052139
endloop
endfacet
facet normal 0.105080895126 -0.994463682175 1.99173982196e-07
outer loop
vertex -9.85217761993 3.80319213867 18.6563053131
vertex -9.87205600739 3.80109167099 18.6563053131
vertex -9.87205600739 3.80109095573 15.0853052139
endloop
endfacet
facet normal 0.994522571564 0.104522459209 -2.80361067695e-08
outer loop
vertex -9.81241989136 3.8073797226 18.6563053131
vertex -9.81764602661 3.85710501671 15.0853052139
vertex -9.81764602661 3.85710597038 18.6563053131
endloop
endfacet
facet normal 0.994522511959 0.104522943497 -2.09354897862e-08
outer loop
vertex -9.81241989136 3.80737900734 15.0853052139
vertex -9.81764602661 3.85710501671 15.0853052139
vertex -9.81241989136 3.8073797226 18.6563053131
endloop
endfacet
facet normal 0.0 0.0 -1.0
outer loop
vertex -9.87731552124 3.85081338882 15.0853052139
vertex -9.85217761993 3.80319142342 15.0853052139
vertex -9.87205600739 3.80109095573 15.0853052139
endloop
endfacet
facet normal 0.0 -0.0 -1.0
outer loop
vertex -9.8574256897 3.8529150486 15.0853052139
vertex -9.85217761993 3.80319142342 15.0853052139
vertex -9.87731552124 3.85081338882 15.0853052139
endloop
endfacet
facet normal 0.0 0.0 -1.0
outer loop
vertex -9.83753585815 3.85501217842 15.0853052139
vertex -9.81241989136 3.80737900734 15.0853052139
vertex -9.83229827881 3.80528736115 15.0853052139
endloop
endfacet
facet normal 0.0 -0.0 -1.0
outer loop
vertex -9.83753585815 3.85501217842 15.0853052139
vertex -9.83229827881 3.80528736115 15.0853052139
vertex -9.85217761993 3.80319142342 15.0853052139
endloop
endfacet
facet normal 0.0 0.0 -1.0
outer loop
vertex -9.83753585815 3.85501217842 15.0853052139
vertex -9.85217761993 3.80319142342 15.0853052139
vertex -9.8574256897 3.8529150486 15.0853052139
endloop
endfacet
facet normal 0.0 -0.0 -1.0
outer loop
vertex -9.81764602661 3.85710501671 15.0853052139
vertex -9.81241989136 3.80737900734 15.0853052139
vertex -9.83753585815 3.85501217842 15.0853052139
endloop
endfacet
facet normal 0.0 0.0 1.0
outer loop
vertex -9.85217761993 3.80319213867 18.6563053131
vertex -9.87731552124 3.8508143425 18.6563053131
vertex -9.87205600739 3.80109167099 18.6563053131
endloop
endfacet
facet normal 0.0 0.0 1.0
outer loop
vertex -9.83229923248 3.8052880764 18.6563053131
vertex -9.8574256897 3.85291600227 18.6563053131
vertex -9.85217761993 3.80319213867 18.6563053131
endloop
endfacet
facet normal 0.0 0.0 1.0
outer loop
vertex -9.85217761993 3.80319213867 18.6563053131
vertex -9.8574256897 3.85291600227 18.6563053131
vertex -9.87731552124 3.8508143425 18.6563053131
endloop
endfacet
facet normal 0.0 0.0 1.0
outer loop
vertex -9.81241989136 3.8073797226 18.6563053131
vertex -9.83753585815 3.8550131321 18.6563053131
vertex -9.83229923248 3.8052880764 18.6563053131
endloop
endfacet
facet normal 0.0 0.0 1.0
outer loop
vertex -9.83229923248 3.8052880764 18.6563053131
vertex -9.83753585815 3.8550131321 18.6563053131
vertex -9.8574256897 3.85291600227 18.6563053131
endloop
endfacet
facet normal 0.0 0.0 1.0
outer loop
vertex -9.81241989136 3.8073797226 18.6563053131
vertex -9.81764602661 3.85710597038 18.6563053131
vertex -9.83753585815 3.8550131321 18.6563053131
endloop
endfacet
