solid 
facet normal -0.10397361964 -0.994580090046 0.0
outer loop
vertex -9.77787399292 -3.86127734184 -95.3931274414
vertex -9.75798225403 -3.86335682869 -95.3931274414
vertex -9.75798225403 -3.86335682869 -91.8221206665
endloop
endfacet
facet normal -0.10397361964 -0.994580090046 0.0
outer loop
vertex -9.77787399292 -3.86127734184 -95.3931274414
vertex -9.75798225403 -3.86335682869 -91.8221206665
vertex -9.77787399292 -3.86127734184 -91.8221206665
endloop
endfacet
facet normal -0.104202590883 -0.994556069374 0.0
outer loop
vertex -9.79776477814 -3.85919332504 -95.3931274414
vertex -9.77787399292 -3.86127734184 -91.8221206665
vertex -9.79776477814 -3.85919332504 -91.8221206665
endloop
endfacet
facet normal -0.104414843023 -0.994533836842 0.0
outer loop
vertex -9.79776477814 -3.85919332504 -95.3931274414
vertex -9.79776477814 -3.85919332504 -91.8221206665
vertex -9.81765556335 -3.85710501671 -91.8221206665
endloop
endfacet
facet normal -0.104202590883 -0.994556069374 0.0
outer loop
vertex -9.79776477814 -3.85919332504 -95.3931274414
vertex -9.77787399292 -3.86127734184 -95.3931274414
vertex -9.77787399292 -3.86127734184 -91.8221206665
endloop
endfacet
facet normal -0.104414843023 -0.994533836842 0.0
outer loop
vertex -9.81765556335 -3.85710501671 -95.3931274414
vertex -9.79776477814 -3.85919332504 -95.3931274414
vertex -9.81765556335 -3.85710501671 -91.8221206665
endloop
endfacet
facet normal -0.994520485401 0.104541808367 0.0
outer loop
vertex -9.81765556335 -3.85710501671 -95.3931274414
vertex -9.81765556335 -3.85710501671 -91.8221206665
vertex -9.81242847443 -3.80737900734 -95.3931274414
endloop
endfacet
facet normal -0.994522511959 0.104522444308 -2.72536510693e-07
outer loop
vertex -9.81765556335 -3.85710501671 -91.8221206665
vertex -9.8124294281 -3.80737876892 -91.8221206665
vertex -9.81242847443 -3.80737900734 -95.3931274414
endloop
endfacet
facet normal 0.103973835707 0.994580090046 0.0
outer loop
vertex -9.7527885437 -3.81362724304 -91.8221206665
vertex -9.7726688385 -3.81154894829 -95.3931274414
vertex -9.7726688385 -3.81154894829 -91.8221206665
endloop
endfacet
facet normal 0.103973835707 0.994580090046 -0.0
outer loop
vertex -9.7527885437 -3.81362724304 -95.3931274414
vertex -9.7726688385 -3.81154894829 -95.3931274414
vertex -9.7527885437 -3.81362724304 -91.8221206665
endloop
endfacet
facet normal 0.104198001325 0.994556605816 0.0
outer loop
vertex -9.7726688385 -3.81154894829 -91.8221206665
vertex -9.7925491333 -3.80946612358 -95.3931274414
vertex -9.7925491333 -3.80946612358 -91.8221206665
endloop
endfacet
facet normal 0.104422144592 0.994533061981 0.0
outer loop
vertex -9.7925491333 -3.80946612358 -91.8221206665
vertex -9.7925491333 -3.80946612358 -95.3931274414
vertex -9.8124294281 -3.80737876892 -91.8221206665
endloop
endfacet
facet normal 0.104198001325 0.994556605816 -0.0
outer loop
vertex -9.7726688385 -3.81154894829 -95.3931274414
vertex -9.7925491333 -3.80946612358 -95.3931274414
vertex -9.7726688385 -3.81154894829 -91.8221206665
endloop
endfacet
facet normal 0.104415312409 0.994533717632 -3.84799037079e-08
outer loop
vertex -9.7925491333 -3.80946612358 -95.3931274414
vertex -9.81242847443 -3.80737900734 -95.3931274414
vertex -9.8124294281 -3.80737876892 -91.8221206665
endloop
endfacet
facet normal 0.994590461254 -0.103874072433 0.0
outer loop
vertex -9.7527885437 -3.81362724304 -95.3931274414
vertex -9.7527885437 -3.81362724304 -91.8221206665
vertex -9.75798225403 -3.86335682869 -95.3931274414
endloop
endfacet
facet normal 0.994590461254 -0.103874072433 0.0
outer loop
vertex -9.7527885437 -3.81362724304 -91.8221206665
vertex -9.75798225403 -3.86335682869 -91.8221206665
vertex -9.75798225403 -3.86335682869 -95.3931274414
endloop
endfacet
facet normal 0.0 0.0 1.0
outer loop
vertex -9.81765556335 -3.85710501671 -91.8221206665
vertex -9.7925491333 -3.80946612358 -91.8221206665
vertex -9.8124294281 -3.80737876892 -91.8221206665
endloop
endfacet
facet normal 0.0 -0.0 1.0
outer loop
vertex -9.79776477814 -3.85919332504 -91.8221206665
vertex -9.7925491333 -3.80946612358 -91.8221206665
vertex -9.81765556335 -3.85710501671 -91.8221206665
endloop
endfacet
facet normal 0.0 -0.0 1.0
outer loop
vertex -9.77787399292 -3.86127734184 -91.8221206665
vertex -9.7726688385 -3.81154894829 -91.8221206665
vertex -9.7925491333 -3.80946612358 -91.8221206665
endloop
endfacet
facet normal 0.0 0.0 1.0
outer loop
vertex -9.77787399292 -3.86127734184 -91.8221206665
vertex -9.7925491333 -3.80946612358 -91.8221206665
vertex -9.79776477814 -3.85919332504 -91.8221206665
endloop
endfacet
facet normal 0.0 -0.0 1.0
outer loop
vertex -9.75798225403 -3.86335682869 -91.8221206665
vertex -9.7527885437 -3.81362724304 -91.8221206665
vertex -9.7726688385 -3.81154894829 -91.8221206665
endloop
endfacet
facet normal 0.0 0.0 1.0
outer loop
vertex -9.75798225403 -3.86335682869 -91.8221206665
vertex -9.7726688385 -3.81154894829 -91.8221206665
vertex -9.77787399292 -3.86127734184 -91.8221206665
endloop
endfacet
facet normal -0.0 0.0 -1.0
outer loop
vertex -9.7925491333 -3.80946612358 -95.3931274414
vertex -9.81765556335 -3.85710501671 -95.3931274414
vertex -9.81242847443 -3.80737900734 -95.3931274414
endloop
endfacet
facet normal 0.0 0.0 -1.0
outer loop
vertex -9.7925491333 -3.80946612358 -95.3931274414
vertex -9.79776477814 -3.85919332504 -95.3931274414
vertex -9.81765556335 -3.85710501671 -95.3931274414
endloop
endfacet
facet normal -0.0 0.0 -1.0
outer loop
vertex -9.7726688385 -3.81154894829 -95.3931274414
vertex -9.77787399292 -3.86127734184 -95.3931274414
vertex -9.7925491333 -3.80946612358 -95.3931274414
endloop
endfacet
facet normal 0.0 -0.0 -1.0
outer loop
vertex -9.7925491333 -3.80946612358 -95.3931274414
vertex -9.77787399292 -3.86127734184 -95.3931274414
vertex -9.79776477814 -3.85919332504 -95.3931274414
endloop
endfacet
facet normal -0.0 0.0 -1.0
outer loop
vertex -9.7527885437 -3.81362724304 -95.3931274414
vertex -9.75798225403 -3.86335682869 -95.3931274414
vertex -9.7726688385 -3.81154894829 -95.3931274414
endloop
endfacet
facet normal 0.0 -0.0 -1.0
outer loop
vertex -9.7726688385 -3.81154894829 -95.3931274414
vertex -9.75798225403 -3.86335682869 -95.3931274414
vertex -9.77787399292 -3.86127734184 -95.3931274414
endloop
endfacet
