solid 
facet normal 0.10463886708 -0.994510293007 -2.65631911134e-07
outer loop
vertex 9.83753967285 -3.85501289368 356.456573486
vertex 9.81764888763 -3.85710573196 356.456573486
vertex 9.81764888763 -3.85710477829 352.885559082
endloop
endfacet
facet normal 0.10463885963 -0.994510293007 -2.65593712356e-07
outer loop
vertex 9.83753967285 -3.85501289368 356.456573486
vertex 9.81764888763 -3.85710477829 352.885559082
vertex 9.83753967285 -3.85501194 352.885559082
endloop
endfacet
facet normal 0.104856051505 -0.994487404823 -2.65587573267e-07
outer loop
vertex 9.85742950439 -3.85291576385 356.456573486
vertex 9.83753967285 -3.85501194 352.885559082
vertex 9.85742950439 -3.85291481018 352.885559082
endloop
endfacet
facet normal 0.105085022748 -0.994463205338 -2.65581121539e-07
outer loop
vertex 9.85742950439 -3.85291576385 356.456573486
vertex 9.85742950439 -3.85291481018 352.885559082
vertex 9.87731838226 -3.85081315041 352.885559082
endloop
endfacet
facet normal 0.104856051505 -0.994487404823 -2.65587573267e-07
outer loop
vertex 9.85742950439 -3.85291576385 356.456573486
vertex 9.83753967285 -3.85501289368 356.456573486
vertex 9.83753967285 -3.85501194 352.885559082
endloop
endfacet
facet normal 0.105085022748 -0.994463205338 -2.65581121539e-07
outer loop
vertex 9.87731838226 -3.85081410408 356.456573486
vertex 9.85742950439 -3.85291576385 356.456573486
vertex 9.87731838226 -3.85081315041 352.885559082
endloop
endfacet
facet normal 0.994452178478 0.105190142989 2.80920566809e-08
outer loop
vertex 9.87731838226 -3.85081410408 356.456573486
vertex 9.87731838226 -3.85081315041 352.885559082
vertex 9.87205886841 -3.80109143257 356.456573486
endloop
endfacet
facet normal 0.994452059269 0.105190634727 2.10271178247e-08
outer loop
vertex 9.87731838226 -3.85081315041 352.885559082
vertex 9.87205886841 -3.80109071732 352.885559082
vertex 9.87205886841 -3.80109143257 356.456573486
endloop
endfacet
facet normal -0.104639455676 0.994510173798 1.99195241635e-07
outer loop
vertex 9.81242275238 -3.80737876892 352.885559082
vertex 9.81242275238 -3.80737948418 356.456573486
vertex 9.83230209351 -3.80528712273 352.885559082
endloop
endfacet
facet normal -0.104639455676 0.994510173798 1.99172944804e-07
outer loop
vertex 9.81242275238 -3.80737948418 356.456573486
vertex 9.83230209351 -3.80528783798 356.456573486
vertex 9.83230209351 -3.80528712273 352.885559082
endloop
endfacet
facet normal -0.104856774211 0.994487404823 1.99177932814e-07
outer loop
vertex 9.83230209351 -3.80528712273 352.885559082
vertex 9.85218048096 -3.80319190025 356.456573486
vertex 9.85218048096 -3.803191185 352.885559082
endloop
endfacet
facet normal -0.105080902576 0.994463741779 1.99185933525e-07
outer loop
vertex 9.85218048096 -3.803191185 352.885559082
vertex 9.85218048096 -3.80319190025 356.456573486
vertex 9.87205886841 -3.80109071732 352.885559082
endloop
endfacet
facet normal -0.104856774211 0.994487404823 1.9919067995e-07
outer loop
vertex 9.83230209351 -3.80528783798 356.456573486
vertex 9.85218048096 -3.80319190025 356.456573486
vertex 9.83230209351 -3.80528712273 352.885559082
endloop
endfacet
facet normal -0.105080902576 0.994463741779 1.99173200599e-07
outer loop
vertex 9.85218048096 -3.80319190025 356.456573486
vertex 9.87205886841 -3.80109143257 356.456573486
vertex 9.87205886841 -3.80109071732 352.885559082
endloop
endfacet
facet normal -0.994522511959 -0.104522451758 -2.09353068215e-08
outer loop
vertex 9.81242275238 -3.80737948418 356.456573486
vertex 9.81242275238 -3.80737876892 352.885559082
vertex 9.81764888763 -3.85710573196 356.456573486
endloop
endfacet
facet normal -0.994522511959 -0.104522943497 -2.78731260295e-08
outer loop
vertex 9.81242275238 -3.80737876892 352.885559082
vertex 9.81764888763 -3.85710477829 352.885559082
vertex 9.81764888763 -3.85710573196 356.456573486
endloop
endfacet
facet normal 0.0 0.0 -1.0
outer loop
vertex 9.87731838226 -3.85081315041 352.885559082
vertex 9.85218048096 -3.803191185 352.885559082
vertex 9.87205886841 -3.80109071732 352.885559082
endloop
endfacet
facet normal 0.0 0.0 -1.0
outer loop
vertex 9.85742950439 -3.85291481018 352.885559082
vertex 9.83230209351 -3.80528712273 352.885559082
vertex 9.85218048096 -3.803191185 352.885559082
endloop
endfacet
facet normal 0.0 0.0 -1.0
outer loop
vertex 9.85742950439 -3.85291481018 352.885559082
vertex 9.85218048096 -3.803191185 352.885559082
vertex 9.87731838226 -3.85081315041 352.885559082
endloop
endfacet
facet normal 0.0 0.0 -1.0
outer loop
vertex 9.83753967285 -3.85501194 352.885559082
vertex 9.83230209351 -3.80528712273 352.885559082
vertex 9.85742950439 -3.85291481018 352.885559082
endloop
endfacet
facet normal 0.0 0.0 -1.0
outer loop
vertex 9.81764888763 -3.85710477829 352.885559082
vertex 9.81242275238 -3.80737876892 352.885559082
vertex 9.83230209351 -3.80528712273 352.885559082
endloop
endfacet
facet normal 0.0 0.0 -1.0
outer loop
vertex 9.81764888763 -3.85710477829 352.885559082
vertex 9.83230209351 -3.80528712273 352.885559082
vertex 9.83753967285 -3.85501194 352.885559082
endloop
endfacet
facet normal -0.0 0.0 1.0
outer loop
vertex 9.85218048096 -3.80319190025 356.456573486
vertex 9.87731838226 -3.85081410408 356.456573486
vertex 9.87205886841 -3.80109143257 356.456573486
endloop
endfacet
facet normal -0.0 0.0 1.0
outer loop
vertex 9.83230209351 -3.80528783798 356.456573486
vertex 9.85742950439 -3.85291576385 356.456573486
vertex 9.85218048096 -3.80319190025 356.456573486
endloop
endfacet
facet normal 0.0 0.0 1.0
outer loop
vertex 9.85218048096 -3.80319190025 356.456573486
vertex 9.85742950439 -3.85291576385 356.456573486
vertex 9.87731838226 -3.85081410408 356.456573486
endloop
endfacet
facet normal -0.0 0.0 1.0
outer loop
vertex 9.81242275238 -3.80737948418 356.456573486
vertex 9.83753967285 -3.85501289368 356.456573486
vertex 9.83230209351 -3.80528783798 356.456573486
endloop
endfacet
facet normal 0.0 0.0 1.0
outer loop
vertex 9.83230209351 -3.80528783798 356.456573486
vertex 9.83753967285 -3.85501289368 356.456573486
vertex 9.85742950439 -3.85291576385 356.456573486
endloop
endfacet
facet normal 0.0 0.0 1.0
outer loop
vertex 9.81242275238 -3.80737948418 356.456573486
vertex 9.81764888763 -3.85710573196 356.456573486
vertex 9.83753967285 -3.85501289368 356.456573486
endloop
endfacet
