solid 
facet normal 0.104643829167 0.99450981617 -1.99222355945e-07
outer loop
vertex 9.83754444122 3.85501170158 266.074005127
vertex 9.81765460968 3.85710453987 266.074005127
vertex 9.81765460968 3.85710525513 269.644989014
endloop
endfacet
facet normal 0.104632042348 0.994511008263 -2.65596185045e-07
outer loop
vertex 9.83754444122 3.85501170158 266.074005127
vertex 9.81765460968 3.85710525513 269.644989014
vertex 9.83754444122 3.85501265526 269.644989014
endloop
endfacet
facet normal 0.104867838323 0.994486153126 -1.99192143668e-07
outer loop
vertex 9.85743427277 3.85291457176 266.074005127
vertex 9.83754444122 3.85501265526 269.644989014
vertex 9.85743427277 3.85291528702 269.644989014
endloop
endfacet
facet normal 0.104856051505 0.994487404823 -2.65589847004e-07
outer loop
vertex 9.85743427277 3.85291457176 266.074005127
vertex 9.83754444122 3.85501170158 266.074005127
vertex 9.83754444122 3.85501265526 269.644989014
endloop
endfacet
facet normal 0.105068273842 0.994465053082 -2.65583906867e-07
outer loop
vertex 9.87732410431 3.85081291199 266.074005127
vertex 9.85743427277 3.85291528702 269.644989014
vertex 9.87732410431 3.85081386566 269.644989014
endloop
endfacet
facet normal 0.10508004576 0.994463741779 -1.9921311889e-07
outer loop
vertex 9.87732410431 3.85081291199 266.074005127
vertex 9.85743427277 3.85291457176 266.074005127
vertex 9.85743427277 3.85291528702 269.644989014
endloop
endfacet
facet normal 0.994452118874 -0.105190135539 2.80922929363e-08
outer loop
vertex 9.87732410431 3.85081291199 266.074005127
vertex 9.87732410431 3.85081386566 269.644989014
vertex 9.87206459045 3.80109119415 269.644989014
endloop
endfacet
facet normal 0.994451999664 -0.105190634727 2.10693205105e-08
outer loop
vertex 9.87206459045 3.8010904789 266.074005127
vertex 9.87732410431 3.85081291199 266.074005127
vertex 9.87206459045 3.80109119415 269.644989014
endloop
endfacet
facet normal -0.104644425213 -0.994509637356 1.99184114535e-07
outer loop
vertex 9.81242847443 3.80737924576 269.644989014
vertex 9.83230686188 3.80528688431 266.074005127
vertex 9.83230686188 3.80528759956 269.644989014
endloop
endfacet
facet normal -0.104851804674 -0.994487941265 1.9919249894e-07
outer loop
vertex 9.83230686188 3.80528759956 269.644989014
vertex 9.83230686188 3.80528688431 266.074005127
vertex 9.852186203 3.80319166183 269.644989014
endloop
endfacet
facet normal -0.104644425213 -0.994509637356 1.99196861672e-07
outer loop
vertex 9.81242847443 3.8073785305 266.074005127
vertex 9.83230686188 3.80528688431 266.074005127
vertex 9.81242847443 3.80737924576 269.644989014
endloop
endfacet
facet normal -0.104851804674 -0.994487941265 1.99221176445e-07
outer loop
vertex 9.83230686188 3.80528688431 266.074005127
vertex 9.852186203 3.80319094658 266.074005127
vertex 9.852186203 3.80319166183 269.644989014
endloop
endfacet
facet normal -0.105080895126 -0.994463682175 1.99174905902e-07
outer loop
vertex 9.852186203 3.80319166183 269.644989014
vertex 9.87206459045 3.8010904789 266.074005127
vertex 9.87206459045 3.80109119415 269.644989014
endloop
endfacet
facet normal -0.105080895126 -0.994463682175 1.99187638827e-07
outer loop
vertex 9.852186203 3.80319094658 266.074005127
vertex 9.87206459045 3.8010904789 266.074005127
vertex 9.852186203 3.80319166183 269.644989014
endloop
endfacet
facet normal -0.994522452354 0.104522936046 -2.09355839331e-08
outer loop
vertex 9.81242847443 3.8073785305 266.074005127
vertex 9.81242847443 3.80737924576 269.644989014
vertex 9.81765460968 3.85710525513 269.644989014
endloop
endfacet
facet normal -0.994522452354 0.104522950947 -2.09355857095e-08
outer loop
vertex 9.81765460968 3.85710453987 266.074005127
vertex 9.81242847443 3.8073785305 266.074005127
vertex 9.81765460968 3.85710525513 269.644989014
endloop
endfacet
facet normal 0.0 0.0 -1.0
outer loop
vertex 9.852186203 3.80319094658 266.074005127
vertex 9.87732410431 3.85081291199 266.074005127
vertex 9.87206459045 3.8010904789 266.074005127
endloop
endfacet
facet normal 0.0 0.0 -1.0
outer loop
vertex 9.83230686188 3.80528688431 266.074005127
vertex 9.85743427277 3.85291457176 266.074005127
vertex 9.852186203 3.80319094658 266.074005127
endloop
endfacet
facet normal 0.0 0.0 -1.0
outer loop
vertex 9.852186203 3.80319094658 266.074005127
vertex 9.85743427277 3.85291457176 266.074005127
vertex 9.87732410431 3.85081291199 266.074005127
endloop
endfacet
facet normal 0.0 0.0 -1.0
outer loop
vertex 9.81242847443 3.8073785305 266.074005127
vertex 9.83754444122 3.85501170158 266.074005127
vertex 9.83230686188 3.80528688431 266.074005127
endloop
endfacet
facet normal 0.0 0.0 -1.0
outer loop
vertex 9.83230686188 3.80528688431 266.074005127
vertex 9.83754444122 3.85501170158 266.074005127
vertex 9.85743427277 3.85291457176 266.074005127
endloop
endfacet
facet normal 0.0 0.0 -1.0
outer loop
vertex 9.81242847443 3.8073785305 266.074005127
vertex 9.81765460968 3.85710453987 266.074005127
vertex 9.83754444122 3.85501170158 266.074005127
endloop
endfacet
facet normal 0.0 0.0 1.0
outer loop
vertex 9.87732410431 3.85081386566 269.644989014
vertex 9.852186203 3.80319166183 269.644989014
vertex 9.87206459045 3.80109119415 269.644989014
endloop
endfacet
facet normal 0.0 0.0 1.0
outer loop
vertex 9.85743427277 3.85291528702 269.644989014
vertex 9.83230686188 3.80528759956 269.644989014
vertex 9.852186203 3.80319166183 269.644989014
endloop
endfacet
facet normal 0.0 0.0 1.0
outer loop
vertex 9.85743427277 3.85291528702 269.644989014
vertex 9.852186203 3.80319166183 269.644989014
vertex 9.87732410431 3.85081386566 269.644989014
endloop
endfacet
facet normal 0.0 0.0 1.0
outer loop
vertex 9.83754444122 3.85501265526 269.644989014
vertex 9.83230686188 3.80528759956 269.644989014
vertex 9.85743427277 3.85291528702 269.644989014
endloop
endfacet
facet normal 0.0 0.0 1.0
outer loop
vertex 9.81765460968 3.85710525513 269.644989014
vertex 9.81242847443 3.80737924576 269.644989014
vertex 9.83230686188 3.80528759956 269.644989014
endloop
endfacet
facet normal 0.0 0.0 1.0
outer loop
vertex 9.81765460968 3.85710525513 269.644989014
vertex 9.83230686188 3.80528759956 269.644989014
vertex 9.83754444122 3.85501265526 269.644989014
endloop
endfacet
