solid 
facet normal -0.104627080262 -0.9945114851 -2.65583565806e-07
outer loop
vertex -9.83753681183 -3.85501241684 342.052581787
vertex -9.81764602661 -3.85710501671 342.052581787
vertex -9.81764602661 -3.85710597038 345.623565674
endloop
endfacet
facet normal -0.10463886708 -0.994510233402 -1.99196975359e-07
outer loop
vertex -9.83753681183 -3.85501241684 342.052581787
vertex -9.81764602661 -3.85710597038 345.623565674
vertex -9.83753681183 -3.8550131321 345.623565674
endloop
endfacet
facet normal -0.104856051505 -0.994487404823 -2.93592933076e-07
outer loop
vertex -9.8574256897 -3.8529150486 342.052581787
vertex -9.83753681183 -3.8550131321 345.623565674
vertex -9.85742664337 -3.85291600227 345.623565674
endloop
endfacet
facet normal -0.105085037649 -0.994463264942 -2.93647644867e-07
outer loop
vertex -9.8574256897 -3.8529150486 342.052581787
vertex -9.85742664337 -3.85291600227 345.623565674
vertex -9.87731552124 -3.8508143425 345.623565674
endloop
endfacet
facet normal -0.104872822762 -0.994485676289 -1.99176128035e-07
outer loop
vertex -9.8574256897 -3.8529150486 342.052581787
vertex -9.83753681183 -3.85501241684 342.052581787
vertex -9.83753681183 -3.8550131321 345.623565674
endloop
endfacet
facet normal -0.105068273842 -0.994465053082 -1.99187923045e-07
outer loop
vertex -9.87731552124 -3.85081362724 342.052581787
vertex -9.8574256897 -3.8529150486 342.052581787
vertex -9.87731552124 -3.8508143425 345.623565674
endloop
endfacet
facet normal -0.994452118874 0.105190142989 2.10692228109e-08
outer loop
vertex -9.87731552124 -3.85081362724 342.052581787
vertex -9.87731552124 -3.8508143425 345.623565674
vertex -9.87205600739 -3.80109167099 345.623565674
endloop
endfacet
facet normal -0.994452118874 0.105190142989 2.10692228109e-08
outer loop
vertex -9.87205600739 -3.80109095573 342.052581787
vertex -9.87731552124 -3.85081362724 342.052581787
vertex -9.87205600739 -3.80109167099 345.623565674
endloop
endfacet
facet normal 0.104639470577 0.994510233402 1.99174678528e-07
outer loop
vertex -9.81241989136 -3.8073797226 345.623565674
vertex -9.83229923248 -3.80528736115 342.052581787
vertex -9.83229923248 -3.8052880764 345.623565674
endloop
endfacet
facet normal 0.104639470577 0.994510233402 1.99196975359e-07
outer loop
vertex -9.81241989136 -3.80737900734 342.052581787
vertex -9.83229923248 -3.80528736115 342.052581787
vertex -9.81241989136 -3.8073797226 345.623565674
endloop
endfacet
facet normal 0.104856774211 0.994487345219 1.99230612452e-07
outer loop
vertex -9.83229923248 -3.8052880764 345.623565674
vertex -9.85217761993 -3.80319142342 342.052581787
vertex -9.85217761993 -3.80319213867 345.623565674
endloop
endfacet
facet normal 0.105080895126 0.994463682175 1.99187638827e-07
outer loop
vertex -9.85217761993 -3.80319213867 345.623565674
vertex -9.85217761993 -3.80319142342 342.052581787
vertex -9.87205600739 -3.80109167099 345.623565674
endloop
endfacet
facet normal 0.104856774211 0.994487345219 1.99192385253e-07
outer loop
vertex -9.83229923248 -3.80528736115 342.052581787
vertex -9.85217761993 -3.80319142342 342.052581787
vertex -9.83229923248 -3.8052880764 345.623565674
endloop
endfacet
facet normal 0.105080895126 0.994463682175 1.99225866027e-07
outer loop
vertex -9.85217761993 -3.80319142342 342.052581787
vertex -9.87205600739 -3.80109095573 342.052581787
vertex -9.87205600739 -3.80109167099 345.623565674
endloop
endfacet
facet normal 0.994522452354 -0.104522950947 -2.10272741441e-08
outer loop
vertex -9.81764602661 -3.85710501671 342.052581787
vertex -9.81241989136 -3.80737900734 342.052581787
vertex -9.81241989136 -3.8073797226 345.623565674
endloop
endfacet
facet normal 0.994522511959 -0.104522444308 -2.79139786841e-08
outer loop
vertex -9.81764602661 -3.85710501671 342.052581787
vertex -9.81241989136 -3.8073797226 345.623565674
vertex -9.81764602661 -3.85710597038 345.623565674
endloop
endfacet
facet normal -0.0 0.0 -1.0
outer loop
vertex -9.85217761993 -3.80319142342 342.052581787
vertex -9.87731552124 -3.85081362724 342.052581787
vertex -9.87205600739 -3.80109095573 342.052581787
endloop
endfacet
facet normal -0.0 0.0 -1.0
outer loop
vertex -9.83229923248 -3.80528736115 342.052581787
vertex -9.8574256897 -3.8529150486 342.052581787
vertex -9.85217761993 -3.80319142342 342.052581787
endloop
endfacet
facet normal 0.0 0.0 -1.0
outer loop
vertex -9.85217761993 -3.80319142342 342.052581787
vertex -9.8574256897 -3.8529150486 342.052581787
vertex -9.87731552124 -3.85081362724 342.052581787
endloop
endfacet
facet normal -0.0 0.0 -1.0
outer loop
vertex -9.81241989136 -3.80737900734 342.052581787
vertex -9.83753681183 -3.85501241684 342.052581787
vertex -9.83229923248 -3.80528736115 342.052581787
endloop
endfacet
facet normal 0.0 0.0 -1.0
outer loop
vertex -9.83229923248 -3.80528736115 342.052581787
vertex -9.83753681183 -3.85501241684 342.052581787
vertex -9.8574256897 -3.8529150486 342.052581787
endloop
endfacet
facet normal 0.0 0.0 -1.0
outer loop
vertex -9.81241989136 -3.80737900734 342.052581787
vertex -9.81764602661 -3.85710501671 342.052581787
vertex -9.83753681183 -3.85501241684 342.052581787
endloop
endfacet
facet normal 0.0 0.0 1.0
outer loop
vertex -9.87731552124 -3.8508143425 345.623565674
vertex -9.85217761993 -3.80319213867 345.623565674
vertex -9.87205600739 -3.80109167099 345.623565674
endloop
endfacet
facet normal 0.0 -0.0 1.0
outer loop
vertex -9.85742664337 -3.85291600227 345.623565674
vertex -9.85217761993 -3.80319213867 345.623565674
vertex -9.87731552124 -3.8508143425 345.623565674
endloop
endfacet
facet normal 0.0 -0.0 1.0
outer loop
vertex -9.83753681183 -3.8550131321 345.623565674
vertex -9.83229923248 -3.8052880764 345.623565674
vertex -9.85217761993 -3.80319213867 345.623565674
endloop
endfacet
facet normal 0.0 0.0 1.0
outer loop
vertex -9.83753681183 -3.8550131321 345.623565674
vertex -9.85217761993 -3.80319213867 345.623565674
vertex -9.85742664337 -3.85291600227 345.623565674
endloop
endfacet
facet normal 0.0 -0.0 1.0
outer loop
vertex -9.81764602661 -3.85710597038 345.623565674
vertex -9.81241989136 -3.8073797226 345.623565674
vertex -9.83229923248 -3.8052880764 345.623565674
endloop
endfacet
facet normal 0.0 0.0 1.0
outer loop
vertex -9.81764602661 -3.85710597038 345.623565674
vertex -9.83229923248 -3.8052880764 345.623565674
vertex -9.83753681183 -3.8550131321 345.623565674
endloop
endfacet
