solid 
facet normal -0.104643821716 0.99450969696 -1.99221474873e-07
outer loop
vertex -9.83754062653 3.85501289368 251.630004883
vertex -9.81765079498 3.85710573196 251.630004883
vertex -9.81765079498 3.85710501671 248.059005737
endloop
endfacet
facet normal -0.104643821716 0.99450969696 -1.99196009021e-07
outer loop
vertex -9.83754062653 3.85501289368 251.630004883
vertex -9.81765079498 3.85710501671 248.059005737
vertex -9.83754062653 3.85501217842 248.059005737
endloop
endfacet
facet normal -0.104856051505 0.994487404823 -1.99191546812e-07
outer loop
vertex -9.83754062653 3.85501289368 251.630004883
vertex -9.83754062653 3.85501217842 248.059005737
vertex -9.85743045807 3.8529150486 248.059005737
endloop
endfacet
facet normal -0.10508004576 0.994463741779 -1.99186800387e-07
outer loop
vertex -9.85743045807 3.85291576385 251.630004883
vertex -9.85743045807 3.8529150486 248.059005737
vertex -9.87732028961 3.85081338882 248.059005737
endloop
endfacet
facet normal -0.104856051505 0.994487404823 -1.99191546812e-07
outer loop
vertex -9.85743045807 3.85291576385 251.630004883
vertex -9.83754062653 3.85501289368 251.630004883
vertex -9.85743045807 3.8529150486 248.059005737
endloop
endfacet
facet normal -0.10508004576 0.994463741779 -1.99186800387e-07
outer loop
vertex -9.87732028961 3.85081410408 251.630004883
vertex -9.85743045807 3.85291576385 251.630004883
vertex -9.87732028961 3.85081338882 248.059005737
endloop
endfacet
facet normal -0.994452178478 -0.105190142989 2.11901092229e-08
outer loop
vertex -9.87732028961 3.85081410408 251.630004883
vertex -9.87206077576 3.80109071732 248.059005737
vertex -9.87206077576 3.80109143257 251.630004883
endloop
endfacet
facet normal -0.994452178478 -0.105190142989 2.10691322167e-08
outer loop
vertex -9.87732028961 3.85081338882 248.059005737
vertex -9.87206077576 3.80109071732 248.059005737
vertex -9.87732028961 3.85081410408 251.630004883
endloop
endfacet
facet normal 0.104644425213 -0.99450969696 2.93525175721e-07
outer loop
vertex -9.81242465973 3.80737876892 248.059005737
vertex -9.83230400085 3.8052880764 251.630004883
vertex -9.83230304718 3.80528712273 248.059005737
endloop
endfacet
facet normal 0.104851797223 -0.994487822056 2.93590659339e-07
outer loop
vertex -9.83230304718 3.80528712273 248.059005737
vertex -9.83230400085 3.8052880764 251.630004883
vertex -9.85218238831 3.803191185 248.059005737
endloop
endfacet
facet normal 0.104639463127 -0.994510233402 2.65594820803e-07
outer loop
vertex -9.81242465973 3.8073797226 251.630004883
vertex -9.83230400085 3.8052880764 251.630004883
vertex -9.81242465973 3.80737876892 248.059005737
endloop
endfacet
facet normal 0.105080895126 -0.994463682175 1.99186786176e-07
outer loop
vertex -9.85218238831 3.803191185 248.059005737
vertex -9.85218238831 3.80319190025 251.630004883
vertex -9.87206077576 3.80109071732 248.059005737
endloop
endfacet
facet normal 0.10486856848 -0.994486093521 1.9917854388e-07
outer loop
vertex -9.83230400085 3.8052880764 251.630004883
vertex -9.85218238831 3.80319190025 251.630004883
vertex -9.85218238831 3.803191185 248.059005737
endloop
endfacet
facet normal 0.105080895126 -0.994463682175 1.9917405325e-07
outer loop
vertex -9.85218238831 3.80319190025 251.630004883
vertex -9.87206077576 3.80109143257 251.630004883
vertex -9.87206077576 3.80109071732 248.059005737
endloop
endfacet
facet normal 0.994522511959 0.104522950947 -2.79139946713e-08
outer loop
vertex -9.81242465973 3.8073797226 251.630004883
vertex -9.81242465973 3.80737876892 248.059005737
vertex -9.81765079498 3.85710573196 251.630004883
endloop
endfacet
facet normal 0.994522511959 0.104522451758 -2.0864083794e-08
outer loop
vertex -9.81242465973 3.80737876892 248.059005737
vertex -9.81765079498 3.85710501671 248.059005737
vertex -9.81765079498 3.85710573196 251.630004883
endloop
endfacet
facet normal 0.0 0.0 -1.0
outer loop
vertex -9.87732028961 3.85081338882 248.059005737
vertex -9.85218238831 3.803191185 248.059005737
vertex -9.87206077576 3.80109071732 248.059005737
endloop
endfacet
facet normal 0.0 -0.0 -1.0
outer loop
vertex -9.85743045807 3.8529150486 248.059005737
vertex -9.85218238831 3.803191185 248.059005737
vertex -9.87732028961 3.85081338882 248.059005737
endloop
endfacet
facet normal 0.0 -0.0 -1.0
outer loop
vertex -9.83754062653 3.85501217842 248.059005737
vertex -9.83230304718 3.80528712273 248.059005737
vertex -9.85218238831 3.803191185 248.059005737
endloop
endfacet
facet normal 0.0 0.0 -1.0
outer loop
vertex -9.83754062653 3.85501217842 248.059005737
vertex -9.85218238831 3.803191185 248.059005737
vertex -9.85743045807 3.8529150486 248.059005737
endloop
endfacet
facet normal 0.0 -0.0 -1.0
outer loop
vertex -9.81765079498 3.85710501671 248.059005737
vertex -9.81242465973 3.80737876892 248.059005737
vertex -9.83230304718 3.80528712273 248.059005737
endloop
endfacet
facet normal 0.0 0.0 -1.0
outer loop
vertex -9.81765079498 3.85710501671 248.059005737
vertex -9.83230304718 3.80528712273 248.059005737
vertex -9.83754062653 3.85501217842 248.059005737
endloop
endfacet
facet normal 0.0 0.0 1.0
outer loop
vertex -9.85218238831 3.80319190025 251.630004883
vertex -9.87732028961 3.85081410408 251.630004883
vertex -9.87206077576 3.80109143257 251.630004883
endloop
endfacet
facet normal 0.0 0.0 1.0
outer loop
vertex -9.83230400085 3.8052880764 251.630004883
vertex -9.85743045807 3.85291576385 251.630004883
vertex -9.85218238831 3.80319190025 251.630004883
endloop
endfacet
facet normal 0.0 0.0 1.0
outer loop
vertex -9.85218238831 3.80319190025 251.630004883
vertex -9.85743045807 3.85291576385 251.630004883
vertex -9.87732028961 3.85081410408 251.630004883
endloop
endfacet
facet normal 0.0 0.0 1.0
outer loop
vertex -9.81242465973 3.8073797226 251.630004883
vertex -9.83754062653 3.85501289368 251.630004883
vertex -9.83230400085 3.8052880764 251.630004883
endloop
endfacet
facet normal 0.0 0.0 1.0
outer loop
vertex -9.83230400085 3.8052880764 251.630004883
vertex -9.83754062653 3.85501289368 251.630004883
vertex -9.85743045807 3.85291576385 251.630004883
endloop
endfacet
facet normal 0.0 0.0 1.0
outer loop
vertex -9.81242465973 3.8073797226 251.630004883
vertex -9.81765079498 3.85710573196 251.630004883
vertex -9.83754062653 3.85501289368 251.630004883
endloop
endfacet
