solid 
facet normal 0.0142611423507 0.999898254871 8.85371720383e-10
outer loop
vertex 0.052901122719 4.35010576248 98.0983047485
vertex 0.0529011189938 4.35010576248 98.1583099365
vertex 3.31305837631 4.30360746384 98.1583099365
endloop
endfacet
facet normal 0.0504235327244 0.998727917671 -0.0
outer loop
vertex 3.31305837631 4.30360746384 98.0983047485
vertex 3.31305837631 4.30360746384 98.1583099365
vertex 6.56939935684 4.13920211792 98.1583099365
endloop
endfacet
facet normal 0.0142611423507 0.999898254871 -0.0
outer loop
vertex 3.31305837631 4.30360746384 98.0983047485
vertex 0.052901122719 4.35010576248 98.0983047485
vertex 3.31305837631 4.30360746384 98.1583099365
endloop
endfacet
facet normal 0.0504235327244 0.998727917671 -0.0
outer loop
vertex 6.56939935684 4.13920211792 98.0983047485
vertex 3.31305837631 4.30360746384 98.0983047485
vertex 6.56939935684 4.13920211792 98.1583099365
endloop
endfacet
facet normal 0.0865200161934 0.996250152588 -0.0
outer loop
vertex 9.81766223907 3.85710453987 98.0983047485
vertex 6.56939935684 4.13920211792 98.1583099365
vertex 9.81766223907 3.85710453987 98.1583099365
endloop
endfacet
facet normal 0.0865200161934 0.996250152588 0.0
outer loop
vertex 9.81766223907 3.85710453987 98.0983047485
vertex 6.56939935684 4.13920211792 98.0983047485
vertex 6.56939935684 4.13920211792 98.1583099365
endloop
endfacet
facet normal 0.994520545006 -0.104541316628 0.0
outer loop
vertex 9.81766223907 3.85710453987 98.0983047485
vertex 9.81766223907 3.85710453987 98.1583099365
vertex 9.81243515015 3.80737829208 98.1583099365
endloop
endfacet
facet normal 0.994520545006 -0.104541316628 0.0
outer loop
vertex 9.81243515015 3.80737829208 98.0983047485
vertex 9.81766223907 3.85710453987 98.0983047485
vertex 9.81243515015 3.80737829208 98.1583099365
endloop
endfacet
facet normal -0.0142611600459 -0.999898314476 -0.0
outer loop
vertex 0.0530926287174 4.30010604858 98.1583099365
vertex 0.0530926287174 4.30010604858 98.0983047485
vertex 3.31144094467 4.25363349915 98.1583099365
endloop
endfacet
facet normal -0.0142611600459 -0.999898314476 0.0
outer loop
vertex 0.0530926287174 4.30010604858 98.0983047485
vertex 3.31144094467 4.25363349915 98.0983047485
vertex 3.31144094467 4.25363349915 98.1583099365
endloop
endfacet
facet normal -0.0504235737026 -0.998727917671 0.0
outer loop
vertex 3.31144094467 4.25363349915 98.1583099365
vertex 6.56597518921 4.08931922913 98.0983047485
vertex 6.56597518921 4.08931922913 98.1583099365
endloop
endfacet
facet normal -0.0865199863911 -0.996250033379 -0.0
outer loop
vertex 6.56597518921 4.08931922913 98.1583099365
vertex 6.56597518921 4.08931922913 98.0983047485
vertex 9.81243515015 3.80737829208 98.1583099365
endloop
endfacet
facet normal -0.0504235737026 -0.998727917671 0.0
outer loop
vertex 3.31144094467 4.25363349915 98.0983047485
vertex 6.56597518921 4.08931922913 98.0983047485
vertex 3.31144094467 4.25363349915 98.1583099365
endloop
endfacet
facet normal -0.0865199863911 -0.996250033379 0.0
outer loop
vertex 6.56597518921 4.08931922913 98.0983047485
vertex 9.81243515015 3.80737829208 98.0983047485
vertex 9.81243515015 3.80737829208 98.1583099365
endloop
endfacet
facet normal -0.999992728233 -0.00383011414669 0.0
outer loop
vertex 0.052901122719 4.35010576248 98.0983047485
vertex 0.0530926287174 4.30010604858 98.0983047485
vertex 0.0530926287174 4.30010604858 98.1583099365
endloop
endfacet
facet normal -0.999992728233 -0.0038301886525 -6.20823499276e-08
outer loop
vertex 0.052901122719 4.35010576248 98.0983047485
vertex 0.0530926287174 4.30010604858 98.1583099365
vertex 0.0529011189938 4.35010576248 98.1583099365
endloop
endfacet
facet normal 0.0 0.0 -1.0
outer loop
vertex 6.56597518921 4.08931922913 98.0983047485
vertex 6.56939935684 4.13920211792 98.0983047485
vertex 9.81243515015 3.80737829208 98.0983047485
endloop
endfacet
facet normal 0.0 0.0 -1.0
outer loop
vertex 9.81243515015 3.80737829208 98.0983047485
vertex 6.56939935684 4.13920211792 98.0983047485
vertex 9.81766223907 3.85710453987 98.0983047485
endloop
endfacet
facet normal 0.0 0.0 -1.0
outer loop
vertex 3.31144094467 4.25363349915 98.0983047485
vertex 3.31305837631 4.30360746384 98.0983047485
vertex 6.56597518921 4.08931922913 98.0983047485
endloop
endfacet
facet normal 0.0 0.0 -1.0
outer loop
vertex 6.56597518921 4.08931922913 98.0983047485
vertex 3.31305837631 4.30360746384 98.0983047485
vertex 6.56939935684 4.13920211792 98.0983047485
endloop
endfacet
facet normal 0.0 0.0 -1.0
outer loop
vertex 0.0530926287174 4.30010604858 98.0983047485
vertex 0.052901122719 4.35010576248 98.0983047485
vertex 3.31144094467 4.25363349915 98.0983047485
endloop
endfacet
facet normal 0.0 0.0 -1.0
outer loop
vertex 3.31144094467 4.25363349915 98.0983047485
vertex 0.052901122719 4.35010576248 98.0983047485
vertex 3.31305837631 4.30360746384 98.0983047485
endloop
endfacet
facet normal 0.0 0.0 1.0
outer loop
vertex 6.56597518921 4.08931922913 98.1583099365
vertex 9.81243515015 3.80737829208 98.1583099365
vertex 9.81766223907 3.85710453987 98.1583099365
endloop
endfacet
facet normal 0.0 0.0 1.0
outer loop
vertex 6.56939935684 4.13920211792 98.1583099365
vertex 6.56597518921 4.08931922913 98.1583099365
vertex 9.81766223907 3.85710453987 98.1583099365
endloop
endfacet
facet normal 0.0 0.0 1.0
outer loop
vertex 3.31144094467 4.25363349915 98.1583099365
vertex 6.56597518921 4.08931922913 98.1583099365
vertex 6.56939935684 4.13920211792 98.1583099365
endloop
endfacet
facet normal 0.0 0.0 1.0
outer loop
vertex 3.31305837631 4.30360746384 98.1583099365
vertex 3.31144094467 4.25363349915 98.1583099365
vertex 6.56939935684 4.13920211792 98.1583099365
endloop
endfacet
facet normal -0.0 0.0 1.0
outer loop
vertex 0.0530926287174 4.30010604858 98.1583099365
vertex 3.31144094467 4.25363349915 98.1583099365
vertex 3.31305837631 4.30360746384 98.1583099365
endloop
endfacet
facet normal 0.0 0.0 1.0
outer loop
vertex 0.0529011189938 4.35010576248 98.1583099365
vertex 0.0530926287174 4.30010604858 98.1583099365
vertex 3.31305837631 4.30360746384 98.1583099365
endloop
endfacet
