solid 
facet normal -0.12250302732 0.992468118668 0.0
outer loop
vertex -9.81764888763 3.85710573196 -141.577880859
vertex -9.81764888763 3.85710573196 -141.637878418
vertex -13.0535802841 3.45768594742 -141.637878418
endloop
endfacet
facet normal -0.158325940371 0.987386882305 0.0
outer loop
vertex -13.0535802841 3.45768594742 -141.577880859
vertex -13.0535802841 3.45768594742 -141.637878418
vertex -16.2729434967 2.94146609306 -141.637878418
endloop
endfacet
facet normal -0.12250302732 0.992468118668 0.0
outer loop
vertex -13.0535802841 3.45768594742 -141.577880859
vertex -9.81764888763 3.85710573196 -141.577880859
vertex -13.0535802841 3.45768594742 -141.637878418
endloop
endfacet
facet normal -0.193941324949 0.981013178825 0.0
outer loop
vertex -16.2729434967 2.94146609306 -141.577880859
vertex -16.2729434967 2.94146609306 -141.637878418
vertex -19.4715270996 2.30912232399 -141.637878418
endloop
endfacet
facet normal -0.158325940371 0.987386882305 0.0
outer loop
vertex -16.2729434967 2.94146609306 -141.577880859
vertex -13.0535802841 3.45768594742 -141.577880859
vertex -16.2729434967 2.94146609306 -141.637878418
endloop
endfacet
facet normal -0.193941324949 0.981013178825 0.0
outer loop
vertex -19.4715270996 2.30912232399 -141.577880859
vertex -16.2729434967 2.94146609306 -141.577880859
vertex -19.4715270996 2.30912232399 -141.637878418
endloop
endfacet
facet normal -0.977339804173 -0.211676523089 0.0
outer loop
vertex -19.460943222 2.26025509834 -141.577880859
vertex -19.4715270996 2.30912232399 -141.577880859
vertex -19.4715270996 2.30912232399 -141.637878418
endloop
endfacet
facet normal -0.977339804173 -0.211676523089 -0.0
outer loop
vertex -19.460943222 2.26025509834 -141.577880859
vertex -19.4715270996 2.30912232399 -141.637878418
vertex -19.460943222 2.26025509834 -141.637878418
endloop
endfacet
facet normal 0.122503012419 -0.992468118668 0.0
outer loop
vertex -9.81242275238 3.80737948418 -141.637878418
vertex -9.81242275238 3.80737948418 -141.577880859
vertex -13.0465583801 3.40818142891 -141.637878418
endloop
endfacet
facet normal 0.158325895667 -0.987386882305 0.0
outer loop
vertex -13.0465583801 3.40818142891 -141.637878418
vertex -13.0465583801 3.40818142891 -141.577880859
vertex -16.2641353607 2.89224815369 -141.637878418
endloop
endfacet
facet normal 0.122503012419 -0.992468118668 0.0
outer loop
vertex -9.81242275238 3.80737948418 -141.577880859
vertex -13.0465583801 3.40818142891 -141.577880859
vertex -13.0465583801 3.40818142891 -141.637878418
endloop
endfacet
facet normal 0.158325895667 -0.987386882305 0.0
outer loop
vertex -13.0465583801 3.40818142891 -141.577880859
vertex -16.2641353607 2.89224815369 -141.577880859
vertex -16.2641353607 2.89224815369 -141.637878418
endloop
endfacet
facet normal 0.193941414356 -0.981013119221 0.0
outer loop
vertex -16.2641353607 2.89224815369 -141.637878418
vertex -19.460943222 2.26025509834 -141.577880859
vertex -19.460943222 2.26025509834 -141.637878418
endloop
endfacet
facet normal 0.193941414356 -0.981013119221 0.0
outer loop
vertex -16.2641353607 2.89224815369 -141.577880859
vertex -19.460943222 2.26025509834 -141.577880859
vertex -16.2641353607 2.89224815369 -141.637878418
endloop
endfacet
facet normal 0.994522511959 0.104522451758 0.0
outer loop
vertex -9.81242275238 3.80737948418 -141.577880859
vertex -9.81242275238 3.80737948418 -141.637878418
vertex -9.81764888763 3.85710573196 -141.637878418
endloop
endfacet
facet normal 0.994522511959 0.104522451758 0.0
outer loop
vertex -9.81764888763 3.85710573196 -141.577880859
vertex -9.81242275238 3.80737948418 -141.577880859
vertex -9.81764888763 3.85710573196 -141.637878418
endloop
endfacet
facet normal 0.0 0.0 1.0
outer loop
vertex -16.2641353607 2.89224815369 -141.577880859
vertex -16.2729434967 2.94146609306 -141.577880859
vertex -19.460943222 2.26025509834 -141.577880859
endloop
endfacet
facet normal 0.0 -0.0 1.0
outer loop
vertex -19.460943222 2.26025509834 -141.577880859
vertex -16.2729434967 2.94146609306 -141.577880859
vertex -19.4715270996 2.30912232399 -141.577880859
endloop
endfacet
facet normal 0.0 0.0 1.0
outer loop
vertex -13.0465583801 3.40818142891 -141.577880859
vertex -13.0535802841 3.45768594742 -141.577880859
vertex -16.2641353607 2.89224815369 -141.577880859
endloop
endfacet
facet normal 0.0 -0.0 1.0
outer loop
vertex -16.2641353607 2.89224815369 -141.577880859
vertex -13.0535802841 3.45768594742 -141.577880859
vertex -16.2729434967 2.94146609306 -141.577880859
endloop
endfacet
facet normal 0.0 0.0 1.0
outer loop
vertex -9.81242275238 3.80737948418 -141.577880859
vertex -9.81764888763 3.85710573196 -141.577880859
vertex -13.0465583801 3.40818142891 -141.577880859
endloop
endfacet
facet normal 0.0 -0.0 1.0
outer loop
vertex -13.0465583801 3.40818142891 -141.577880859
vertex -9.81764888763 3.85710573196 -141.577880859
vertex -13.0535802841 3.45768594742 -141.577880859
endloop
endfacet
facet normal 0.0 -0.0 -1.0
outer loop
vertex -16.2729434967 2.94146609306 -141.637878418
vertex -16.2641353607 2.89224815369 -141.637878418
vertex -19.460943222 2.26025509834 -141.637878418
endloop
endfacet
facet normal 0.0 0.0 -1.0
outer loop
vertex -16.2729434967 2.94146609306 -141.637878418
vertex -19.460943222 2.26025509834 -141.637878418
vertex -19.4715270996 2.30912232399 -141.637878418
endloop
endfacet
facet normal 0.0 -0.0 -1.0
outer loop
vertex -13.0535802841 3.45768594742 -141.637878418
vertex -13.0465583801 3.40818142891 -141.637878418
vertex -16.2641353607 2.89224815369 -141.637878418
endloop
endfacet
facet normal 0.0 0.0 -1.0
outer loop
vertex -13.0535802841 3.45768594742 -141.637878418
vertex -16.2641353607 2.89224815369 -141.637878418
vertex -16.2729434967 2.94146609306 -141.637878418
endloop
endfacet
facet normal 0.0 -0.0 -1.0
outer loop
vertex -9.81764888763 3.85710573196 -141.637878418
vertex -9.81242275238 3.80737948418 -141.637878418
vertex -13.0465583801 3.40818142891 -141.637878418
endloop
endfacet
facet normal 0.0 0.0 -1.0
outer loop
vertex -9.81764888763 3.85710573196 -141.637878418
vertex -13.0465583801 3.40818142891 -141.637878418
vertex -13.0535802841 3.45768594742 -141.637878418
endloop
endfacet
