solid 
facet normal -0.122503109276 0.992468178272 0.0
outer loop
vertex -13.0535888672 3.45768475533 65.6593093872
vertex -9.8176574707 3.85710477829 65.6593093872
vertex -9.8176574707 3.85710477829 65.5993041992
endloop
endfacet
facet normal -0.122503109276 0.992468178272 0.0
outer loop
vertex -13.0535888672 3.45768475533 65.6593093872
vertex -9.8176574707 3.85710477829 65.5993041992
vertex -13.0535888672 3.45768475533 65.5993041992
endloop
endfacet
facet normal -0.158325895667 0.987386882305 0.0
outer loop
vertex -16.2729530334 2.94146490097 65.6593093872
vertex -13.0535888672 3.45768475533 65.5993041992
vertex -16.2729530334 2.94146490097 65.5993041992
endloop
endfacet
facet normal -0.158325895667 0.987386882305 0.0
outer loop
vertex -16.2729530334 2.94146490097 65.6593093872
vertex -13.0535888672 3.45768475533 65.6593093872
vertex -13.0535888672 3.45768475533 65.5993041992
endloop
endfacet
facet normal -0.193941578269 0.981013059616 0.0
outer loop
vertex -19.471534729 2.30912065506 65.6593093872
vertex -16.2729530334 2.94146490097 65.5993041992
vertex -19.471534729 2.30912065506 65.5993041992
endloop
endfacet
facet normal -0.193941578269 0.981013059616 0.0
outer loop
vertex -19.471534729 2.30912065506 65.6593093872
vertex -16.2729530334 2.94146490097 65.6593093872
vertex -16.2729530334 2.94146490097 65.5993041992
endloop
endfacet
facet normal -0.977347671986 -0.21164008975 0.0
outer loop
vertex -19.471534729 2.30912065506 65.6593093872
vertex -19.4609527588 2.26025342941 65.5993041992
vertex -19.4609527588 2.26025342941 65.6593093872
endloop
endfacet
facet normal -0.977347671986 -0.21164008975 0.0
outer loop
vertex -19.471534729 2.30912065506 65.5993041992
vertex -19.4609527588 2.26025342941 65.5993041992
vertex -19.471534729 2.30912065506 65.6593093872
endloop
endfacet
facet normal 0.12250316143 -0.992468178272 0.0
outer loop
vertex -9.81243133545 3.80737876892 65.5993041992
vertex -9.81243133545 3.80737876892 65.6593093872
vertex -13.0465669632 3.40818023682 65.5993041992
endloop
endfacet
facet normal 0.158325925469 -0.987386882305 0.0
outer loop
vertex -13.0465669632 3.40818023682 65.5993041992
vertex -13.0465669632 3.40818023682 65.6593093872
vertex -16.2641448975 2.89224672318 65.5993041992
endloop
endfacet
facet normal 0.12250316143 -0.992468178272 0.0
outer loop
vertex -9.81243133545 3.80737876892 65.6593093872
vertex -13.0465669632 3.40818023682 65.6593093872
vertex -13.0465669632 3.40818023682 65.5993041992
endloop
endfacet
facet normal 0.193941503763 -0.981013119221 0.0
outer loop
vertex -16.2641448975 2.89224672318 65.5993041992
vertex -16.2641448975 2.89224672318 65.6593093872
vertex -19.4609527588 2.26025342941 65.5993041992
endloop
endfacet
facet normal 0.158325925469 -0.987386882305 0.0
outer loop
vertex -13.0465669632 3.40818023682 65.6593093872
vertex -16.2641448975 2.89224672318 65.6593093872
vertex -16.2641448975 2.89224672318 65.5993041992
endloop
endfacet
facet normal 0.193941503763 -0.981013119221 0.0
outer loop
vertex -16.2641448975 2.89224672318 65.6593093872
vertex -19.4609527588 2.26025342941 65.6593093872
vertex -19.4609527588 2.26025342941 65.5993041992
endloop
endfacet
facet normal 0.994522511959 0.104522950947 0.0
outer loop
vertex -9.81243133545 3.80737876892 65.6593093872
vertex -9.8176574707 3.85710477829 65.5993041992
vertex -9.8176574707 3.85710477829 65.6593093872
endloop
endfacet
facet normal 0.994522511959 0.104522950947 -0.0
outer loop
vertex -9.81243133545 3.80737876892 65.5993041992
vertex -9.8176574707 3.85710477829 65.5993041992
vertex -9.81243133545 3.80737876892 65.6593093872
endloop
endfacet
facet normal 0.0 -0.0 -1.0
outer loop
vertex -16.2729530334 2.94146490097 65.5993041992
vertex -16.2641448975 2.89224672318 65.5993041992
vertex -19.4609527588 2.26025342941 65.5993041992
endloop
endfacet
facet normal 0.0 0.0 -1.0
outer loop
vertex -16.2729530334 2.94146490097 65.5993041992
vertex -19.4609527588 2.26025342941 65.5993041992
vertex -19.471534729 2.30912065506 65.5993041992
endloop
endfacet
facet normal 0.0 -0.0 -1.0
outer loop
vertex -13.0535888672 3.45768475533 65.5993041992
vertex -13.0465669632 3.40818023682 65.5993041992
vertex -16.2641448975 2.89224672318 65.5993041992
endloop
endfacet
facet normal 0.0 0.0 -1.0
outer loop
vertex -13.0535888672 3.45768475533 65.5993041992
vertex -16.2641448975 2.89224672318 65.5993041992
vertex -16.2729530334 2.94146490097 65.5993041992
endloop
endfacet
facet normal 0.0 -0.0 -1.0
outer loop
vertex -9.8176574707 3.85710477829 65.5993041992
vertex -9.81243133545 3.80737876892 65.5993041992
vertex -13.0465669632 3.40818023682 65.5993041992
endloop
endfacet
facet normal 0.0 0.0 -1.0
outer loop
vertex -9.8176574707 3.85710477829 65.5993041992
vertex -13.0465669632 3.40818023682 65.5993041992
vertex -13.0535888672 3.45768475533 65.5993041992
endloop
endfacet
facet normal 0.0 -0.0 1.0
outer loop
vertex -19.4609527588 2.26025342941 65.6593093872
vertex -16.2641448975 2.89224672318 65.6593093872
vertex -19.471534729 2.30912065506 65.6593093872
endloop
endfacet
facet normal 0.0 0.0 1.0
outer loop
vertex -16.2641448975 2.89224672318 65.6593093872
vertex -16.2729530334 2.94146490097 65.6593093872
vertex -19.471534729 2.30912065506 65.6593093872
endloop
endfacet
facet normal 0.0 -0.0 1.0
outer loop
vertex -16.2641448975 2.89224672318 65.6593093872
vertex -13.0465669632 3.40818023682 65.6593093872
vertex -16.2729530334 2.94146490097 65.6593093872
endloop
endfacet
facet normal 0.0 0.0 1.0
outer loop
vertex -13.0465669632 3.40818023682 65.6593093872
vertex -13.0535888672 3.45768475533 65.6593093872
vertex -16.2729530334 2.94146490097 65.6593093872
endloop
endfacet
facet normal 0.0 -0.0 1.0
outer loop
vertex -13.0465669632 3.40818023682 65.6593093872
vertex -9.81243133545 3.80737876892 65.6593093872
vertex -13.0535888672 3.45768475533 65.6593093872
endloop
endfacet
facet normal 0.0 0.0 1.0
outer loop
vertex -9.81243133545 3.80737876892 65.6593093872
vertex -9.8176574707 3.85710477829 65.6593093872
vertex -13.0535888672 3.45768475533 65.6593093872
endloop
endfacet
