solid 
facet normal -0.122502952814 0.992468118668 0.0
outer loop
vertex -13.0535755157 3.45768618584 11.494304657
vertex -9.81764411926 3.85710573196 11.494304657
vertex -9.81764411926 3.85710573196 11.4343042374
endloop
endfacet
facet normal -0.122502952814 0.992468118668 0.0
outer loop
vertex -13.0535755157 3.45768618584 11.494304657
vertex -9.81764411926 3.85710573196 11.4343042374
vertex -13.0535755157 3.45768618584 11.4343042374
endloop
endfacet
facet normal -0.158325821161 0.987386882305 0.0
outer loop
vertex -16.272939682 2.9414665699 11.494304657
vertex -13.0535755157 3.45768618584 11.4343042374
vertex -16.272939682 2.9414665699 11.434305191
endloop
endfacet
facet normal -0.158325821161 0.987386882305 0.0
outer loop
vertex -16.272939682 2.9414665699 11.494304657
vertex -13.0535755157 3.45768618584 11.494304657
vertex -13.0535755157 3.45768618584 11.4343042374
endloop
endfacet
facet normal -0.193941444159 0.981013059616 0.0
outer loop
vertex -19.4715213776 2.30912280083 11.494304657
vertex -16.272939682 2.9414665699 11.434305191
vertex -19.4715213776 2.30912280083 11.434305191
endloop
endfacet
facet normal -0.193941444159 0.981013059616 0.0
outer loop
vertex -19.4715213776 2.30912280083 11.494304657
vertex -16.272939682 2.9414665699 11.494304657
vertex -16.272939682 2.9414665699 11.434305191
endloop
endfacet
facet normal -0.97734773159 -0.211640104651 0.0
outer loop
vertex -19.4715213776 2.30912280083 11.494304657
vertex -19.4609394073 2.26025557518 11.434305191
vertex -19.4609394073 2.26025557518 11.494304657
endloop
endfacet
facet normal -0.97734773159 -0.211640104651 0.0
outer loop
vertex -19.4715213776 2.30912280083 11.434305191
vertex -19.4609394073 2.26025557518 11.434305191
vertex -19.4715213776 2.30912280083 11.494304657
endloop
endfacet
facet normal 0.122502945364 -0.992468178272 0.0
outer loop
vertex -9.81241798401 3.80737948418 11.4343042374
vertex -13.0465536118 3.40818166733 11.494304657
vertex -13.0465536118 3.40818166733 11.4343042374
endloop
endfacet
facet normal 0.122502945364 -0.992468178272 0.0
outer loop
vertex -9.81241798401 3.80737948418 11.494304657
vertex -13.0465536118 3.40818166733 11.494304657
vertex -9.81241798401 3.80737948418 11.4343042374
endloop
endfacet
facet normal 0.158325776458 -0.98738694191 0.0
outer loop
vertex -13.0465536118 3.40818166733 11.4343042374
vertex -16.264131546 2.89224863052 11.494304657
vertex -16.264131546 2.89224863052 11.434305191
endloop
endfacet
facet normal 0.193941429257 -0.981013119221 0.0
outer loop
vertex -16.264131546 2.89224863052 11.434305191
vertex -16.264131546 2.89224863052 11.494304657
vertex -19.4609394073 2.26025557518 11.434305191
endloop
endfacet
facet normal 0.158325776458 -0.987386882305 0.0
outer loop
vertex -13.0465536118 3.40818166733 11.494304657
vertex -16.264131546 2.89224863052 11.494304657
vertex -13.0465536118 3.40818166733 11.4343042374
endloop
endfacet
facet normal 0.193941429257 -0.981013119221 0.0
outer loop
vertex -16.264131546 2.89224863052 11.494304657
vertex -19.4609394073 2.26025557518 11.494304657
vertex -19.4609394073 2.26025557518 11.434305191
endloop
endfacet
facet normal 0.994522571564 0.104522459209 0.0
outer loop
vertex -9.81241798401 3.80737948418 11.494304657
vertex -9.81241798401 3.80737948418 11.4343042374
vertex -9.81764411926 3.85710573196 11.494304657
endloop
endfacet
facet normal 0.994522571564 0.104522459209 0.0
outer loop
vertex -9.81241798401 3.80737948418 11.4343042374
vertex -9.81764411926 3.85710573196 11.4343042374
vertex -9.81764411926 3.85710573196 11.494304657
endloop
endfacet
facet normal 0.0 -0.0 -1.0
outer loop
vertex -16.272939682 2.9414665699 11.434305191
vertex -16.264131546 2.89224863052 11.434305191
vertex -19.4609394073 2.26025557518 11.434305191
endloop
endfacet
facet normal 0.0 0.0 -1.0
outer loop
vertex -16.272939682 2.9414665699 11.434305191
vertex -19.4609394073 2.26025557518 11.434305191
vertex -19.4715213776 2.30912280083 11.434305191
endloop
endfacet
facet normal -2.89803693931e-07 -4.11068263872e-08 -1.0
outer loop
vertex -13.0535755157 3.45768618584 11.4343042374
vertex -13.0465536118 3.40818166733 11.4343042374
vertex -16.264131546 2.89224863052 11.434305191
endloop
endfacet
facet normal -2.87966940959e-07 -5.15351104013e-08 -1.0
outer loop
vertex -13.0535755157 3.45768618584 11.4343042374
vertex -16.264131546 2.89224863052 11.434305191
vertex -16.272939682 2.9414665699 11.434305191
endloop
endfacet
facet normal 0.0 -0.0 -1.0
outer loop
vertex -9.81764411926 3.85710573196 11.4343042374
vertex -9.81241798401 3.80737948418 11.4343042374
vertex -13.0465536118 3.40818166733 11.4343042374
endloop
endfacet
facet normal 0.0 0.0 -1.0
outer loop
vertex -9.81764411926 3.85710573196 11.4343042374
vertex -13.0465536118 3.40818166733 11.4343042374
vertex -13.0535755157 3.45768618584 11.4343042374
endloop
endfacet
facet normal 0.0 0.0 1.0
outer loop
vertex -16.264131546 2.89224863052 11.494304657
vertex -16.272939682 2.9414665699 11.494304657
vertex -19.4609394073 2.26025557518 11.494304657
endloop
endfacet
facet normal 0.0 -0.0 1.0
outer loop
vertex -19.4609394073 2.26025557518 11.494304657
vertex -16.272939682 2.9414665699 11.494304657
vertex -19.4715213776 2.30912280083 11.494304657
endloop
endfacet
facet normal 0.0 0.0 1.0
outer loop
vertex -13.0465536118 3.40818166733 11.494304657
vertex -13.0535755157 3.45768618584 11.494304657
vertex -16.264131546 2.89224863052 11.494304657
endloop
endfacet
facet normal 0.0 -0.0 1.0
outer loop
vertex -16.264131546 2.89224863052 11.494304657
vertex -13.0535755157 3.45768618584 11.494304657
vertex -16.272939682 2.9414665699 11.494304657
endloop
endfacet
facet normal 0.0 0.0 1.0
outer loop
vertex -9.81241798401 3.80737948418 11.494304657
vertex -9.81764411926 3.85710573196 11.494304657
vertex -13.0465536118 3.40818166733 11.494304657
endloop
endfacet
facet normal 0.0 -0.0 1.0
outer loop
vertex -13.0465536118 3.40818166733 11.494304657
vertex -9.81764411926 3.85710573196 11.494304657
vertex -13.0535755157 3.45768618584 11.494304657
endloop
endfacet
