solid 
facet normal 0.122503101826 -0.992468118668 -3.94387416236e-06
outer loop
vertex 9.81765937805 -3.85710501671 -295.404907227
vertex 9.81765937805 -3.85710477829 -295.464904785
vertex 13.0535907745 -3.45768475533 -295.464904785
endloop
endfacet
facet normal 0.158325970173 -0.987386882305 0.0
outer loop
vertex 13.0535907745 -3.45768475533 -295.404907227
vertex 13.0535907745 -3.45768475533 -295.464904785
vertex 16.2729549408 -2.94146466255 -295.464904785
endloop
endfacet
facet normal 0.122503176332 -0.992468118668 0.0
outer loop
vertex 13.0535907745 -3.45768475533 -295.404907227
vertex 9.81765937805 -3.85710501671 -295.404907227
vertex 13.0535907745 -3.45768475533 -295.464904785
endloop
endfacet
facet normal 0.193941637874 -0.981013059616 0.0
outer loop
vertex 16.2729549408 -2.94146466255 -295.404907227
vertex 16.2729549408 -2.94146466255 -295.464904785
vertex 19.4715366364 -2.30912017822 -295.464904785
endloop
endfacet
facet normal 0.158325970173 -0.987386882305 0.0
outer loop
vertex 16.2729549408 -2.94146466255 -295.404907227
vertex 13.0535907745 -3.45768475533 -295.404907227
vertex 16.2729549408 -2.94146466255 -295.464904785
endloop
endfacet
facet normal 0.193941637874 -0.981013059616 0.0
outer loop
vertex 19.4715366364 -2.30912017822 -295.404907227
vertex 16.2729549408 -2.94146466255 -295.404907227
vertex 19.4715366364 -2.30912017822 -295.464904785
endloop
endfacet
facet normal 0.977347671986 0.21164008975 0.0
outer loop
vertex 19.4609546661 -2.26025295258 -295.404907227
vertex 19.4715366364 -2.30912017822 -295.404907227
vertex 19.4715366364 -2.30912017822 -295.464904785
endloop
endfacet
facet normal 0.977347671986 0.21164008975 0.0
outer loop
vertex 19.4609546661 -2.26025295258 -295.404907227
vertex 19.4715366364 -2.30912017822 -295.464904785
vertex 19.4609546661 -2.26025295258 -295.464904785
endloop
endfacet
facet normal -0.12250316143 0.992468118668 0.0
outer loop
vertex 9.8124332428 -3.80737876892 -295.464904785
vertex 9.8124332428 -3.80737876892 -295.404907227
vertex 13.0465688705 -3.40818023682 -295.464904785
endloop
endfacet
facet normal -0.158325985074 0.987386882305 0.0
outer loop
vertex 13.0465688705 -3.40818023682 -295.464904785
vertex 13.0465688705 -3.40818023682 -295.404907227
vertex 16.2641468048 -2.89224648476 -295.464904785
endloop
endfacet
facet normal -0.12250316143 0.992468118668 0.0
outer loop
vertex 9.8124332428 -3.80737876892 -295.404907227
vertex 13.0465688705 -3.40818023682 -295.404907227
vertex 13.0465688705 -3.40818023682 -295.464904785
endloop
endfacet
facet normal -0.158325985074 0.987386882305 0.0
outer loop
vertex 13.0465688705 -3.40818023682 -295.404907227
vertex 16.2641468048 -2.89224648476 -295.404907227
vertex 16.2641468048 -2.89224648476 -295.464904785
endloop
endfacet
facet normal -0.193941563368 0.981013119221 0.0
outer loop
vertex 16.2641468048 -2.89224648476 -295.464904785
vertex 19.4609546661 -2.26025295258 -295.404907227
vertex 19.4609546661 -2.26025295258 -295.464904785
endloop
endfacet
facet normal -0.193941563368 0.981013119221 0.0
outer loop
vertex 16.2641468048 -2.89224648476 -295.404907227
vertex 19.4609546661 -2.26025295258 -295.404907227
vertex 16.2641468048 -2.89224648476 -295.464904785
endloop
endfacet
facet normal -0.994522452354 -0.104522936046 -0.0
outer loop
vertex 9.8124332428 -3.80737876892 -295.404907227
vertex 9.8124332428 -3.80737876892 -295.464904785
vertex 9.81765937805 -3.85710477829 -295.464904785
endloop
endfacet
facet normal -0.994522511959 -0.104522451758 -4.15351792071e-07
outer loop
vertex 9.81765937805 -3.85710501671 -295.404907227
vertex 9.8124332428 -3.80737876892 -295.404907227
vertex 9.81765937805 -3.85710477829 -295.464904785
endloop
endfacet
facet normal -0.0 0.0 1.0
outer loop
vertex 16.2641468048 -2.89224648476 -295.404907227
vertex 16.2729549408 -2.94146466255 -295.404907227
vertex 19.4609546661 -2.26025295258 -295.404907227
endloop
endfacet
facet normal 0.0 0.0 1.0
outer loop
vertex 19.4609546661 -2.26025295258 -295.404907227
vertex 16.2729549408 -2.94146466255 -295.404907227
vertex 19.4715366364 -2.30912017822 -295.404907227
endloop
endfacet
facet normal -0.0 0.0 1.0
outer loop
vertex 13.0465688705 -3.40818023682 -295.404907227
vertex 13.0535907745 -3.45768475533 -295.404907227
vertex 16.2641468048 -2.89224648476 -295.404907227
endloop
endfacet
facet normal 0.0 0.0 1.0
outer loop
vertex 16.2641468048 -2.89224648476 -295.404907227
vertex 13.0535907745 -3.45768475533 -295.404907227
vertex 16.2729549408 -2.94146466255 -295.404907227
endloop
endfacet
facet normal -0.0 0.0 1.0
outer loop
vertex 9.8124332428 -3.80737876892 -295.404907227
vertex 9.81765937805 -3.85710501671 -295.404907227
vertex 13.0465688705 -3.40818023682 -295.404907227
endloop
endfacet
facet normal 0.0 0.0 1.0
outer loop
vertex 13.0465688705 -3.40818023682 -295.404907227
vertex 9.81765937805 -3.85710501671 -295.404907227
vertex 13.0535907745 -3.45768475533 -295.404907227
endloop
endfacet
facet normal 0.0 0.0 -1.0
outer loop
vertex 16.2729549408 -2.94146466255 -295.464904785
vertex 16.2641468048 -2.89224648476 -295.464904785
vertex 19.4609546661 -2.26025295258 -295.464904785
endloop
endfacet
facet normal 0.0 0.0 -1.0
outer loop
vertex 16.2729549408 -2.94146466255 -295.464904785
vertex 19.4609546661 -2.26025295258 -295.464904785
vertex 19.4715366364 -2.30912017822 -295.464904785
endloop
endfacet
facet normal 0.0 0.0 -1.0
outer loop
vertex 13.0535907745 -3.45768475533 -295.464904785
vertex 13.0465688705 -3.40818023682 -295.464904785
vertex 16.2641468048 -2.89224648476 -295.464904785
endloop
endfacet
facet normal 0.0 0.0 -1.0
outer loop
vertex 13.0535907745 -3.45768475533 -295.464904785
vertex 16.2641468048 -2.89224648476 -295.464904785
vertex 16.2729549408 -2.94146466255 -295.464904785
endloop
endfacet
facet normal 0.0 0.0 -1.0
outer loop
vertex 9.81765937805 -3.85710477829 -295.464904785
vertex 9.8124332428 -3.80737876892 -295.464904785
vertex 13.0465688705 -3.40818023682 -295.464904785
endloop
endfacet
facet normal 0.0 0.0 -1.0
outer loop
vertex 9.81765937805 -3.85710477829 -295.464904785
vertex 13.0465688705 -3.40818023682 -295.464904785
vertex 13.0535907745 -3.45768475533 -295.464904785
endloop
endfacet
