solid 
facet normal 0.0142607046291 0.999898314476 -0.0
outer loop
vertex 0.0528803803027 4.35010385513 -324.037567139
vertex 0.0528803803027 4.35010385513 -323.97756958
vertex 3.3130376339 4.303606987 -323.97756958
endloop
endfacet
facet normal 0.0504233799875 0.998727917671 -0.0
outer loop
vertex 3.3130376339 4.303606987 -324.037567139
vertex 3.3130376339 4.303606987 -323.97756958
vertex 6.56937885284 4.13920211792 -323.97756958
endloop
endfacet
facet normal 0.0142607046291 0.999898314476 -0.0
outer loop
vertex 3.3130376339 4.303606987 -324.037567139
vertex 0.0528803803027 4.35010385513 -324.037567139
vertex 3.3130376339 4.303606987 -323.97756958
endloop
endfacet
facet normal 0.0504233799875 0.998727917671 -0.0
outer loop
vertex 6.56937885284 4.13920211792 -324.037567139
vertex 3.3130376339 4.303606987 -324.037567139
vertex 6.56937885284 4.13920211792 -323.97756958
endloop
endfacet
facet normal 0.0865197330713 0.996250152588 -0.0
outer loop
vertex 9.81764125824 3.85710549355 -324.037567139
vertex 6.56937885284 4.13920211792 -323.97756958
vertex 9.81764125824 3.85710549355 -323.97756958
endloop
endfacet
facet normal 0.0865197330713 0.996250152588 0.0
outer loop
vertex 9.81764125824 3.85710549355 -324.037567139
vertex 6.56937885284 4.13920211792 -324.037567139
vertex 6.56937885284 4.13920211792 -323.97756958
endloop
endfacet
facet normal 0.994522452354 -0.104522936046 0.0
outer loop
vertex 9.81764125824 3.85710549355 -324.037567139
vertex 9.81241512299 3.80737948418 -323.97756958
vertex 9.81241512299 3.80737948418 -324.037567139
endloop
endfacet
facet normal 0.994522452354 -0.104522936046 0.0
outer loop
vertex 9.81764125824 3.85710549355 -323.97756958
vertex 9.81241512299 3.80737948418 -323.97756958
vertex 9.81764125824 3.85710549355 -324.037567139
endloop
endfacet
facet normal -0.0142608676106 -0.999898314476 -0.0
outer loop
vertex 0.0530719012022 4.30010461807 -323.97756958
vertex 0.0530719012022 4.30010461807 -324.037567139
vertex 3.31142020226 4.25363302231 -323.97756958
endloop
endfacet
facet normal -0.0142608676106 -0.999898314476 0.0
outer loop
vertex 0.0530719012022 4.30010461807 -324.037567139
vertex 3.31142020226 4.25363302231 -324.037567139
vertex 3.31142020226 4.25363302231 -323.97756958
endloop
endfacet
facet normal -0.0504232831299 -0.998727977276 0.0
outer loop
vertex 3.31142020226 4.25363302231 -323.97756958
vertex 6.56595468521 4.08931970596 -324.037567139
vertex 6.56595468521 4.08931970596 -323.97756958
endloop
endfacet
facet normal -0.0504232831299 -0.998727977276 0.0
outer loop
vertex 3.31142020226 4.25363302231 -324.037567139
vertex 6.56595468521 4.08931970596 -324.037567139
vertex 3.31142020226 4.25363302231 -323.97756958
endloop
endfacet
facet normal -0.0865197628736 -0.996250092983 0.0
outer loop
vertex 6.56595468521 4.08931970596 -323.97756958
vertex 9.81241512299 3.80737948418 -324.037567139
vertex 9.81241512299 3.80737948418 -323.97756958
endloop
endfacet
facet normal -0.0865197628736 -0.996250092983 0.0
outer loop
vertex 6.56595468521 4.08931970596 -324.037567139
vertex 9.81241512299 3.80737948418 -324.037567139
vertex 6.56595468521 4.08931970596 -323.97756958
endloop
endfacet
facet normal -0.999992728233 -0.0038304484915 0.0
outer loop
vertex 0.0530719012022 4.30010461807 -324.037567139
vertex 0.0528803803027 4.35010385513 -323.97756958
vertex 0.0528803803027 4.35010385513 -324.037567139
endloop
endfacet
facet normal -0.999992728233 -0.0038304484915 -0.0
outer loop
vertex 0.0530719012022 4.30010461807 -323.97756958
vertex 0.0528803803027 4.35010385513 -323.97756958
vertex 0.0530719012022 4.30010461807 -324.037567139
endloop
endfacet
facet normal 0.0 0.0 1.0
outer loop
vertex 6.56595468521 4.08931970596 -323.97756958
vertex 9.81241512299 3.80737948418 -323.97756958
vertex 9.81764125824 3.85710549355 -323.97756958
endloop
endfacet
facet normal 0.0 0.0 1.0
outer loop
vertex 6.56937885284 4.13920211792 -323.97756958
vertex 6.56595468521 4.08931970596 -323.97756958
vertex 9.81764125824 3.85710549355 -323.97756958
endloop
endfacet
facet normal 0.0 0.0 1.0
outer loop
vertex 3.31142020226 4.25363302231 -323.97756958
vertex 6.56595468521 4.08931970596 -323.97756958
vertex 6.56937885284 4.13920211792 -323.97756958
endloop
endfacet
facet normal 0.0 0.0 1.0
outer loop
vertex 3.3130376339 4.303606987 -323.97756958
vertex 3.31142020226 4.25363302231 -323.97756958
vertex 6.56937885284 4.13920211792 -323.97756958
endloop
endfacet
facet normal -0.0 0.0 1.0
outer loop
vertex 0.0530719012022 4.30010461807 -323.97756958
vertex 3.31142020226 4.25363302231 -323.97756958
vertex 3.3130376339 4.303606987 -323.97756958
endloop
endfacet
facet normal 0.0 0.0 1.0
outer loop
vertex 0.0528803803027 4.35010385513 -323.97756958
vertex 0.0530719012022 4.30010461807 -323.97756958
vertex 3.3130376339 4.303606987 -323.97756958
endloop
endfacet
facet normal 0.0 0.0 -1.0
outer loop
vertex 6.56595468521 4.08931970596 -324.037567139
vertex 6.56937885284 4.13920211792 -324.037567139
vertex 9.81241512299 3.80737948418 -324.037567139
endloop
endfacet
facet normal 0.0 0.0 -1.0
outer loop
vertex 9.81241512299 3.80737948418 -324.037567139
vertex 6.56937885284 4.13920211792 -324.037567139
vertex 9.81764125824 3.85710549355 -324.037567139
endloop
endfacet
facet normal 0.0 0.0 -1.0
outer loop
vertex 3.31142020226 4.25363302231 -324.037567139
vertex 3.3130376339 4.303606987 -324.037567139
vertex 6.56595468521 4.08931970596 -324.037567139
endloop
endfacet
facet normal 0.0 0.0 -1.0
outer loop
vertex 6.56595468521 4.08931970596 -324.037567139
vertex 3.3130376339 4.303606987 -324.037567139
vertex 6.56937885284 4.13920211792 -324.037567139
endloop
endfacet
facet normal 0.0 0.0 -1.0
outer loop
vertex 0.0530719012022 4.30010461807 -324.037567139
vertex 0.0528803803027 4.35010385513 -324.037567139
vertex 3.31142020226 4.25363302231 -324.037567139
endloop
endfacet
facet normal 0.0 0.0 -1.0
outer loop
vertex 3.31142020226 4.25363302231 -324.037567139
vertex 0.0528803803027 4.35010385513 -324.037567139
vertex 3.3130376339 4.303606987 -324.037567139
endloop
endfacet
