solid 
facet normal -0.0 0.0 -1.0
outer loop
vertex -0.333339422941 -4.36631631851 -115.687187195
vertex -1.00055456161 -4.41138362885 -115.687187195
vertex -1.0 -4.36138677597 -115.687187195
endloop
endfacet
facet normal 0.0 0.0 -1.0
outer loop
vertex -0.333524256945 -4.41631603241 -115.687187195
vertex -1.00055456161 -4.41138362885 -115.687187195
vertex -0.333339422941 -4.36631631851 -115.687187195
endloop
endfacet
facet normal 0.0 0.0 -1.0
outer loop
vertex 0.333524256945 -4.41631603241 -115.687187195
vertex -0.333339422941 -4.36631631851 -115.687187195
vertex 0.333339422941 -4.36631631851 -115.687187195
endloop
endfacet
facet normal 0.0 0.0 -1.0
outer loop
vertex 0.333524256945 -4.41631603241 -115.687187195
vertex -0.333524256945 -4.41631603241 -115.687187195
vertex -0.333339422941 -4.36631631851 -115.687187195
endloop
endfacet
facet normal 0.0 0.0 -1.0
outer loop
vertex 1.00055456161 -4.41138362885 -115.687187195
vertex 0.333339422941 -4.36631631851 -115.687187195
vertex 1.0 -4.36138677597 -115.687187195
endloop
endfacet
facet normal -0.0 0.0 -1.0
outer loop
vertex 1.00055456161 -4.41138362885 -115.687187195
vertex 0.333524256945 -4.41631603241 -115.687187195
vertex 0.333339422941 -4.36631631851 -115.687187195
endloop
endfacet
facet normal 0.999938547611 0.0110912490636 0.0
outer loop
vertex 1.00055456161 -4.41138362885 -115.687187195
vertex 1.0 -4.36138677597 -115.687187195
vertex 1.0 -4.36138677597 -7.3571896553
endloop
endfacet
facet normal 0.999938547611 0.0110912490636 -0.0
outer loop
vertex 1.00055456161 -4.41138362885 -115.687187195
vertex 1.0 -4.36138677597 -7.3571896553
vertex 1.00055456161 -4.41138362885 -7.3571896553
endloop
endfacet
facet normal 0.00739417970181 0.999972641468 -0.0
outer loop
vertex -1.0 -4.36138677597 -115.687187195
vertex -1.0 -4.36138677597 -7.3571896553
vertex -0.333339422941 -4.36631631851 -115.687187195
endloop
endfacet
facet normal 0.0 1.0 0.0
outer loop
vertex -0.333339422941 -4.36631631851 -115.687187195
vertex -0.333339422941 -4.36631631851 -7.3571896553
vertex 0.333339422941 -4.36631631851 -115.687187195
endloop
endfacet
facet normal 0.00739417970181 0.999972641468 0.0
outer loop
vertex -1.0 -4.36138677597 -7.3571896553
vertex -0.333339422941 -4.36631631851 -7.3571896553
vertex -0.333339422941 -4.36631631851 -115.687187195
endloop
endfacet
facet normal -0.0 1.0 0.0
outer loop
vertex -0.333339422941 -4.36631631851 -7.3571896553
vertex 0.333339422941 -4.36631631851 -7.3571896553
vertex 0.333339422941 -4.36631631851 -115.687187195
endloop
endfacet
facet normal -0.00739417970181 0.999972641468 0.0
outer loop
vertex 0.333339422941 -4.36631631851 -115.687187195
vertex 1.0 -4.36138677597 -7.3571896553
vertex 1.0 -4.36138677597 -115.687187195
endloop
endfacet
facet normal -0.00739417970181 0.999972641468 0.0
outer loop
vertex 0.333339422941 -4.36631631851 -7.3571896553
vertex 1.0 -4.36138677597 -7.3571896553
vertex 0.333339422941 -4.36631631851 -115.687187195
endloop
endfacet
facet normal -0.999938547611 0.0110912490636 0.0
outer loop
vertex -1.0 -4.36138677597 -115.687187195
vertex -1.00055456161 -4.41138362885 -115.687187195
vertex -1.00055456161 -4.41138362885 -7.3571896553
endloop
endfacet
facet normal -0.999938547611 0.0110912490636 0.0
outer loop
vertex -1.0 -4.36138677597 -115.687187195
vertex -1.00055456161 -4.41138362885 -7.3571896553
vertex -1.0 -4.36138677597 -7.3571896553
endloop
endfacet
facet normal 0.0 -1.0 0.0
outer loop
vertex -0.333524256945 -4.41631603241 -7.3571896553
vertex -0.333524256945 -4.41631603241 -115.687187195
vertex 0.333524256945 -4.41631603241 -115.687187195
endloop
endfacet
facet normal -0.00739436969161 -0.999972641468 -0.0
outer loop
vertex -0.333524256945 -4.41631603241 -7.3571896553
vertex -1.00055456161 -4.41138362885 -115.687187195
vertex -0.333524256945 -4.41631603241 -115.687187195
endloop
endfacet
facet normal -0.00739436969161 -0.999972641468 0.0
outer loop
vertex -0.333524256945 -4.41631603241 -7.3571896553
vertex -1.00055456161 -4.41138362885 -7.3571896553
vertex -1.00055456161 -4.41138362885 -115.687187195
endloop
endfacet
facet normal -0.0 -1.0 -0.0
outer loop
vertex 0.333524256945 -4.41631603241 -7.3571896553
vertex -0.333524256945 -4.41631603241 -7.3571896553
vertex 0.333524256945 -4.41631603241 -115.687187195
endloop
endfacet
facet normal 0.00739436969161 -0.999972641468 0.0
outer loop
vertex 1.00055456161 -4.41138362885 -7.3571896553
vertex 0.333524256945 -4.41631603241 -115.687187195
vertex 1.00055456161 -4.41138362885 -115.687187195
endloop
endfacet
facet normal 0.00739436969161 -0.999972641468 0.0
outer loop
vertex 1.00055456161 -4.41138362885 -7.3571896553
vertex 0.333524256945 -4.41631603241 -7.3571896553
vertex 0.333524256945 -4.41631603241 -115.687187195
endloop
endfacet
facet normal -0.0 0.0 1.0
outer loop
vertex 0.333339422941 -4.36631631851 -7.3571896553
vertex 1.00055456161 -4.41138362885 -7.3571896553
vertex 1.0 -4.36138677597 -7.3571896553
endloop
endfacet
facet normal 0.0 -0.0 1.0
outer loop
vertex 0.333524256945 -4.41631603241 -7.3571896553
vertex 1.00055456161 -4.41138362885 -7.3571896553
vertex 0.333339422941 -4.36631631851 -7.3571896553
endloop
endfacet
facet normal -0.0 0.0 1.0
outer loop
vertex -0.333339422941 -4.36631631851 -7.3571896553
vertex 0.333524256945 -4.41631603241 -7.3571896553
vertex 0.333339422941 -4.36631631851 -7.3571896553
endloop
endfacet
facet normal 0.0 0.0 1.0
outer loop
vertex -0.333524256945 -4.41631603241 -7.3571896553
vertex 0.333524256945 -4.41631603241 -7.3571896553
vertex -0.333339422941 -4.36631631851 -7.3571896553
endloop
endfacet
facet normal 0.0 0.0 1.0
outer loop
vertex -1.00055456161 -4.41138362885 -7.3571896553
vertex -0.333339422941 -4.36631631851 -7.3571896553
vertex -1.0 -4.36138677597 -7.3571896553
endloop
endfacet
facet normal -0.0 0.0 1.0
outer loop
vertex -1.00055456161 -4.41138362885 -7.3571896553
vertex -0.333524256945 -4.41631603241 -7.3571896553
vertex -0.333339422941 -4.36631631851 -7.3571896553
endloop
endfacet
