solid 
facet normal -0.0032307554502 -0.999994814396 3.74061649711e-11
outer loop
vertex 0.161233246326 -4.35045576096 -99.064125061
vertex 0.0529004856944 -4.35010576248 -99.064125061
vertex 0.0529004521668 -4.35010576248 -102.65512085
endloop
endfacet
facet normal -0.0032307554502 -0.999994814396 2.68126215675e-11
outer loop
vertex 0.161233246326 -4.35045576096 -99.064125061
vertex 0.0529004521668 -4.35010576248 -102.65512085
vertex 0.161233216524 -4.35045576096 -102.65512085
endloop
endfacet
facet normal -0.00202472391538 -0.999997913837 1.6803549871e-11
outer loop
vertex 0.269566357136 -4.35067510605 -99.064125061
vertex 0.161233216524 -4.35045576096 -102.65512085
vertex 0.269566327333 -4.35067510605 -102.65512085
endloop
endfacet
facet normal -0.00202472391538 -0.999997913837 1.87030807508e-11
outer loop
vertex 0.269566357136 -4.35067510605 -99.064125061
vertex 0.161233246326 -4.35045576096 -99.064125061
vertex 0.161233216524 -4.35045576096 -102.65512085
endloop
endfacet
facet normal -0.000823094334919 -0.999999701977 -1.32780016315e-07
outer loop
vertex 0.377899646759 -4.35076475143 -99.064125061
vertex 0.269566327333 -4.35067510605 -102.65512085
vertex 0.377899616957 -4.3507642746 -102.65512085
endloop
endfacet
facet normal -0.00082749594003 -0.999999701977 7.01365614891e-12
outer loop
vertex 0.377899646759 -4.35076475143 -99.064125061
vertex 0.269566357136 -4.35067510605 -99.064125061
vertex 0.269566327333 -4.35067510605 -102.65512085
endloop
endfacet
facet normal 1.0 -0.000223516573897 -8.32878210844e-09
outer loop
vertex 0.37791082263 -4.3007645607 -99.064125061
vertex 0.377899646759 -4.35076475143 -99.064125061
vertex 0.377899616957 -4.3507642746 -102.65512085
endloop
endfacet
facet normal 1.0 -0.000223518698476 -8.29918089806e-09
outer loop
vertex 0.37791082263 -4.3007645607 -99.064125061
vertex 0.377899616957 -4.3507642746 -102.65512085
vertex 0.377910792828 -4.3007645607 -102.65512085
endloop
endfacet
facet normal 0.00322814518586 0.999994814396 1.3275332833e-07
outer loop
vertex 0.0530919544399 -4.30010604858 -102.65512085
vertex 0.161364644766 -4.30045604706 -99.064125061
vertex 0.161364600062 -4.30045557022 -102.65512085
endloop
endfacet
facet normal 0.00322814495303 0.999994814396 1.32756071025e-07
outer loop
vertex 0.0530919879675 -4.30010652542 -99.064125061
vertex 0.161364644766 -4.30045604706 -99.064125061
vertex 0.0530919544399 -4.30010604858 -102.65512085
endloop
endfacet
facet normal 0.00203025178052 0.999997913837 -1.40350960021e-11
outer loop
vertex 0.161364600062 -4.30045557022 -102.65512085
vertex 0.269637644291 -4.30067539215 -99.064125061
vertex 0.269637614489 -4.30067539215 -102.65512085
endloop
endfacet
facet normal 0.00202584802173 0.999997913837 1.32761385885e-07
outer loop
vertex 0.161364644766 -4.30045604706 -99.064125061
vertex 0.269637644291 -4.30067539215 -99.064125061
vertex 0.161364600062 -4.30045557022 -102.65512085
endloop
endfacet
facet normal 0.000823551381472 0.999999701977 -7.01755016944e-12
outer loop
vertex 0.269637614489 -4.30067539215 -102.65512085
vertex 0.37791082263 -4.3007645607 -99.064125061
vertex 0.377910792828 -4.3007645607 -102.65512085
endloop
endfacet
facet normal 0.000823551381472 0.999999701977 -6.83480138805e-12
outer loop
vertex 0.269637644291 -4.30067539215 -99.064125061
vertex 0.37791082263 -4.3007645607 -99.064125061
vertex 0.269637614489 -4.30067539215 -102.65512085
endloop
endfacet
facet normal -0.999992609024 0.00383007549681 9.84724923825e-09
outer loop
vertex 0.0529004856944 -4.35010576248 -99.064125061
vertex 0.0530919879675 -4.30010652542 -99.064125061
vertex 0.0530919544399 -4.30010604858 -102.65512085
endloop
endfacet
facet normal -0.999992609024 0.0038300389424 9.33650934343e-09
outer loop
vertex 0.0529004856944 -4.35010576248 -99.064125061
vertex 0.0530919544399 -4.30010604858 -102.65512085
vertex 0.0529004521668 -4.35010576248 -102.65512085
endloop
endfacet
facet normal 0.0 0.0 1.0
outer loop
vertex 0.37791082263 -4.3007645607 -99.064125061
vertex 0.269637644291 -4.30067539215 -99.064125061
vertex 0.377899646759 -4.35076475143 -99.064125061
endloop
endfacet
facet normal 0.0 0.0 1.0
outer loop
vertex 0.269637644291 -4.30067539215 -99.064125061
vertex 0.269566357136 -4.35067510605 -99.064125061
vertex 0.377899646759 -4.35076475143 -99.064125061
endloop
endfacet
facet normal 0.0 0.0 1.0
outer loop
vertex 0.269637644291 -4.30067539215 -99.064125061
vertex 0.161364644766 -4.30045604706 -99.064125061
vertex 0.269566357136 -4.35067510605 -99.064125061
endloop
endfacet
facet normal 0.0 0.0 1.0
outer loop
vertex 0.161364644766 -4.30045604706 -99.064125061
vertex 0.161233246326 -4.35045576096 -99.064125061
vertex 0.269566357136 -4.35067510605 -99.064125061
endloop
endfacet
facet normal 0.0 0.0 1.0
outer loop
vertex 0.161364644766 -4.30045604706 -99.064125061
vertex 0.0530919879675 -4.30010652542 -99.064125061
vertex 0.161233246326 -4.35045576096 -99.064125061
endloop
endfacet
facet normal 0.0 0.0 1.0
outer loop
vertex 0.0530919879675 -4.30010652542 -99.064125061
vertex 0.0529004856944 -4.35010576248 -99.064125061
vertex 0.161233246326 -4.35045576096 -99.064125061
endloop
endfacet
facet normal 0.0 0.0 -1.0
outer loop
vertex 0.269637614489 -4.30067539215 -102.65512085
vertex 0.377910792828 -4.3007645607 -102.65512085
vertex 0.377899616957 -4.3507642746 -102.65512085
endloop
endfacet
facet normal 0.0 0.0 -1.0
outer loop
vertex 0.269566327333 -4.35067510605 -102.65512085
vertex 0.269637614489 -4.30067539215 -102.65512085
vertex 0.377899616957 -4.3507642746 -102.65512085
endloop
endfacet
facet normal 0.0 0.0 -1.0
outer loop
vertex 0.161364600062 -4.30045557022 -102.65512085
vertex 0.269637614489 -4.30067539215 -102.65512085
vertex 0.269566327333 -4.35067510605 -102.65512085
endloop
endfacet
facet normal 0.0 0.0 -1.0
outer loop
vertex 0.161233216524 -4.35045576096 -102.65512085
vertex 0.161364600062 -4.30045557022 -102.65512085
vertex 0.269566327333 -4.35067510605 -102.65512085
endloop
endfacet
facet normal 0.0 0.0 -1.0
outer loop
vertex 0.0529004521668 -4.35010576248 -102.65512085
vertex 0.0530919544399 -4.30010604858 -102.65512085
vertex 0.161364600062 -4.30045557022 -102.65512085
endloop
endfacet
facet normal 0.0 0.0 -1.0
outer loop
vertex 0.0529004521668 -4.35010576248 -102.65512085
vertex 0.161364600062 -4.30045557022 -102.65512085
vertex 0.161233216524 -4.35045576096 -102.65512085
endloop
endfacet
