solid 
facet normal -0.0032307554502 0.999994814396 -1.87030634036e-11
outer loop
vertex 0.161222338676 4.35045576096 54.8263053894
vertex 0.0528895817697 4.35010576248 54.8263053894
vertex 0.0528895631433 4.35010576248 58.4173049927
endloop
endfacet
facet normal -0.00322635378689 0.999994814396 1.32772669303e-07
outer loop
vertex 0.161222338676 4.35045576096 54.8263053894
vertex 0.0528895631433 4.35010576248 58.4173049927
vertex 0.161222323775 4.35045528412 58.4173049927
endloop
endfacet
facet normal -0.00202912581153 0.999997913837 -1.68400640654e-11
outer loop
vertex 0.269555449486 4.35067510605 54.8263053894
vertex 0.161222323775 4.35045528412 58.4173049927
vertex 0.269555419683 4.35067510605 58.4173049927
endloop
endfacet
facet normal -0.00202472391538 0.999997913837 1.32777699946e-07
outer loop
vertex 0.269555449486 4.35067510605 54.8263053894
vertex 0.161222338676 4.35045576096 54.8263053894
vertex 0.161222323775 4.35045528412 58.4173049927
endloop
endfacet
facet normal -0.000823094276711 0.999999642372 -6.8310010426e-12
outer loop
vertex 0.377888739109 4.3507642746 54.8263053894
vertex 0.269555419683 4.35067510605 58.4173049927
vertex 0.377888709307 4.3507642746 58.4173049927
endloop
endfacet
facet normal -0.000823094276711 0.999999642372 -7.01364834266e-12
outer loop
vertex 0.377888739109 4.3507642746 54.8263053894
vertex 0.269555449486 4.35067510605 54.8263053894
vertex 0.269555419683 4.35067510605 58.4173049927
endloop
endfacet
facet normal 1.0 0.000223518713028 8.2990929684e-09
outer loop
vertex 0.37789991498 4.3007645607 54.8263053894
vertex 0.377888739109 4.3507642746 54.8263053894
vertex 0.377888709307 4.3507642746 58.4173049927
endloop
endfacet
facet normal 1.0 0.000224114744924 -0.0
outer loop
vertex 0.37789991498 4.3007645607 54.8263053894
vertex 0.377888709307 4.3507642746 58.4173049927
vertex 0.37789991498 4.3007645607 58.4173049927
endloop
endfacet
facet normal 0.00322814495303 -0.999994814396 1.67443316157e-11
outer loop
vertex 0.0530810728669 4.30010604858 58.4173049927
vertex 0.0530810914934 4.30010604858 54.8263053894
vertex 0.161353722215 4.30045557022 58.4173049927
endloop
endfacet
facet normal 0.0032281447202 -0.999994814396 2.8070167718e-11
outer loop
vertex 0.0530810914934 4.30010604858 54.8263053894
vertex 0.161353752017 4.30045557022 54.8263053894
vertex 0.161353722215 4.30045557022 58.4173049927
endloop
endfacet
facet normal 0.0020258477889 -0.999997913837 -1.3278591382e-07
outer loop
vertex 0.161353722215 4.30045557022 58.4173049927
vertex 0.269626736641 4.30067539215 54.8263053894
vertex 0.269626736641 4.30067491531 58.4173049927
endloop
endfacet
facet normal 0.00203025224619 -0.999997913837 1.68494124902e-11
outer loop
vertex 0.161353752017 4.30045557022 54.8263053894
vertex 0.269626736641 4.30067539215 54.8263053894
vertex 0.161353722215 4.30045557022 58.4173049927
endloop
endfacet
facet normal 0.000827955373097 -0.999999701977 0.0
outer loop
vertex 0.269626736641 4.30067491531 58.4173049927
vertex 0.37789991498 4.3007645607 54.8263053894
vertex 0.37789991498 4.3007645607 58.4173049927
endloop
endfacet
facet normal 0.000823551323265 -0.999999701977 -1.32786709628e-07
outer loop
vertex 0.269626736641 4.30067539215 54.8263053894
vertex 0.37789991498 4.3007645607 54.8263053894
vertex 0.269626736641 4.30067491531 58.4173049927
endloop
endfacet
facet normal -0.999992668629 -0.00383018841967 -5.18694465157e-09
outer loop
vertex 0.0530810914934 4.30010604858 54.8263053894
vertex 0.0530810728669 4.30010604858 58.4173049927
vertex 0.0528895631433 4.35010576248 58.4173049927
endloop
endfacet
facet normal -0.999992668629 -0.00383018841967 -5.18694465157e-09
outer loop
vertex 0.0528895817697 4.35010576248 54.8263053894
vertex 0.0530810914934 4.30010604858 54.8263053894
vertex 0.0528895631433 4.35010576248 58.4173049927
endloop
endfacet
facet normal -0.0 0.0 -1.0
outer loop
vertex 0.37789991498 4.3007645607 54.8263053894
vertex 0.269626736641 4.30067539215 54.8263053894
vertex 0.377888739109 4.3507642746 54.8263053894
endloop
endfacet
facet normal 0.0 0.0 -1.0
outer loop
vertex 0.269626736641 4.30067539215 54.8263053894
vertex 0.269555449486 4.35067510605 54.8263053894
vertex 0.377888739109 4.3507642746 54.8263053894
endloop
endfacet
facet normal -0.0 0.0 -1.0
outer loop
vertex 0.269626736641 4.30067539215 54.8263053894
vertex 0.161353752017 4.30045557022 54.8263053894
vertex 0.269555449486 4.35067510605 54.8263053894
endloop
endfacet
facet normal 0.0 0.0 -1.0
outer loop
vertex 0.161353752017 4.30045557022 54.8263053894
vertex 0.161222338676 4.35045576096 54.8263053894
vertex 0.269555449486 4.35067510605 54.8263053894
endloop
endfacet
facet normal 0.0 0.0 -1.0
outer loop
vertex 0.0530810914934 4.30010604858 54.8263053894
vertex 0.0528895817697 4.35010576248 54.8263053894
vertex 0.161353752017 4.30045557022 54.8263053894
endloop
endfacet
facet normal 0.0 0.0 -1.0
outer loop
vertex 0.161353752017 4.30045557022 54.8263053894
vertex 0.0528895817697 4.35010576248 54.8263053894
vertex 0.161222338676 4.35045576096 54.8263053894
endloop
endfacet
facet normal 0.0 0.0 1.0
outer loop
vertex 0.269626736641 4.30067491531 58.4173049927
vertex 0.37789991498 4.3007645607 58.4173049927
vertex 0.377888709307 4.3507642746 58.4173049927
endloop
endfacet
facet normal -0.0 0.0 1.0
outer loop
vertex 0.269555419683 4.35067510605 58.4173049927
vertex 0.269626736641 4.30067491531 58.4173049927
vertex 0.377888709307 4.3507642746 58.4173049927
endloop
endfacet
facet normal 0.0 0.0 1.0
outer loop
vertex 0.161353722215 4.30045557022 58.4173049927
vertex 0.269626736641 4.30067491531 58.4173049927
vertex 0.269555419683 4.35067510605 58.4173049927
endloop
endfacet
facet normal -0.0 0.0 1.0
outer loop
vertex 0.161222323775 4.35045528412 58.4173049927
vertex 0.161353722215 4.30045557022 58.4173049927
vertex 0.269555419683 4.35067510605 58.4173049927
endloop
endfacet
facet normal 0.0 0.0 1.0
outer loop
vertex 0.0528895631433 4.35010576248 58.4173049927
vertex 0.0530810728669 4.30010604858 58.4173049927
vertex 0.161353722215 4.30045557022 58.4173049927
endloop
endfacet
facet normal -0.0 0.0 1.0
outer loop
vertex 0.0528895631433 4.35010576248 58.4173049927
vertex 0.161353722215 4.30045557022 58.4173049927
vertex 0.161222323775 4.35045528412 58.4173049927
endloop
endfacet
