solid 
facet normal -0.208718001842 -0.977975845337 -6.46381934644e-08
outer loop
vertex -19.2597312927 -2.35472273827 -324.312896729
vertex -19.1537837982 -2.37733387947 -324.312896729
vertex -19.1537837982 -2.37733411789 -320.721923828
endloop
endfacet
facet normal -0.208718001842 -0.977975845337 -6.49315978762e-08
outer loop
vertex -19.2597312927 -2.35472273827 -324.312896729
vertex -19.1537837982 -2.37733411789 -320.721923828
vertex -19.2597312927 -2.35472297668 -320.721923828
endloop
endfacet
facet normal -0.209894314408 -0.977724134922 -6.49148859111e-08
outer loop
vertex -19.2597312927 -2.35472273827 -324.312896729
vertex -19.2597312927 -2.35472297668 -320.721923828
vertex -19.3656520844 -2.33198428154 -320.721923828
endloop
endfacet
facet normal -0.211069688201 -0.977470993996 -1.12109866279e-07
outer loop
vertex -19.365650177 -2.33198428154 -324.312896729
vertex -19.3656520844 -2.33198428154 -320.721923828
vertex -19.4715442657 -2.30911850929 -320.721923828
endloop
endfacet
facet normal -0.209895804524 -0.97772371769 -1.11486350818e-07
outer loop
vertex -19.365650177 -2.33198428154 -324.312896729
vertex -19.2597312927 -2.35472273827 -324.312896729
vertex -19.3656520844 -2.33198428154 -320.721923828
endloop
endfacet
facet normal -0.211068153381 -0.977471292019 -6.48981028917e-08
outer loop
vertex -19.4715442657 -2.30911827087 -324.312896729
vertex -19.365650177 -2.33198428154 -324.312896729
vertex -19.4715442657 -2.30911850929 -320.721923828
endloop
endfacet
facet normal -0.977339804173 0.211676523089 1.40540228344e-08
outer loop
vertex -19.4715442657 -2.30911827087 -324.312896729
vertex -19.4715442657 -2.30911850929 -320.721923828
vertex -19.4609603882 -2.26025104523 -324.312896729
endloop
endfacet
facet normal -0.977339804173 0.211676523089 1.39400508914e-08
outer loop
vertex -19.4715442657 -2.30911850929 -320.721923828
vertex -19.4609603882 -2.26025128365 -320.721923828
vertex -19.4609603882 -2.26025104523 -324.312896729
endloop
endfacet
facet normal 0.208717852831 0.977975845337 6.49315978762e-08
outer loop
vertex -19.1433773041 -2.32842898369 -320.721923828
vertex -19.1433773041 -2.32842874527 -324.312896729
vertex -19.2492656708 -2.30583047867 -320.721923828
endloop
endfacet
facet normal 0.208717852831 0.977975845337 6.46742890353e-08
outer loop
vertex -19.1433773041 -2.32842874527 -324.312896729
vertex -19.2492656708 -2.30583024025 -324.312896729
vertex -19.2492656708 -2.30583047867 -320.721923828
endloop
endfacet
facet normal 0.209894791245 0.977723956108 6.52727720762e-08
outer loop
vertex -19.2492656708 -2.30583047867 -320.721923828
vertex -19.3551273346 -2.28310418129 -324.312896729
vertex -19.3551273346 -2.28310441971 -320.721923828
endloop
endfacet
facet normal 0.211070850492 0.977470755577 6.48980673645e-08
outer loop
vertex -19.3551273346 -2.28310441971 -320.721923828
vertex -19.3551273346 -2.28310418129 -324.312896729
vertex -19.4609603882 -2.26025128365 -320.721923828
endloop
endfacet
facet normal 0.209894791245 0.977723956108 6.49148788057e-08
outer loop
vertex -19.2492656708 -2.30583024025 -324.312896729
vertex -19.3551273346 -2.28310418129 -324.312896729
vertex -19.2492656708 -2.30583047867 -320.721923828
endloop
endfacet
facet normal 0.211070850492 0.977470755577 6.52735110407e-08
outer loop
vertex -19.3551273346 -2.28310418129 -324.312896729
vertex -19.4609603882 -2.26025104523 -324.312896729
vertex -19.4609603882 -2.26025128365 -320.721923828
endloop
endfacet
facet normal 0.97810125351 -0.208129569888 -1.36159101771e-08
outer loop
vertex -19.1433773041 -2.32842874527 -324.312896729
vertex -19.1537837982 -2.37733411789 -320.721923828
vertex -19.1537837982 -2.37733387947 -324.312896729
endloop
endfacet
facet normal 0.97810125351 -0.208129569888 -1.38185276555e-08
outer loop
vertex -19.1433773041 -2.32842898369 -320.721923828
vertex -19.1537837982 -2.37733411789 -320.721923828
vertex -19.1433773041 -2.32842874527 -324.312896729
endloop
endfacet
facet normal 0.0 0.0 1.0
outer loop
vertex -19.3551273346 -2.28310441971 -320.721923828
vertex -19.4609603882 -2.26025128365 -320.721923828
vertex -19.4715442657 -2.30911850929 -320.721923828
endloop
endfacet
facet normal 0.0 -0.0 1.0
outer loop
vertex -19.3656520844 -2.33198428154 -320.721923828
vertex -19.3551273346 -2.28310441971 -320.721923828
vertex -19.4715442657 -2.30911850929 -320.721923828
endloop
endfacet
facet normal 0.0 -0.0 1.0
outer loop
vertex -19.2597312927 -2.35472297668 -320.721923828
vertex -19.2492656708 -2.30583047867 -320.721923828
vertex -19.3551273346 -2.28310441971 -320.721923828
endloop
endfacet
facet normal 0.0 0.0 1.0
outer loop
vertex -19.2597312927 -2.35472297668 -320.721923828
vertex -19.3551273346 -2.28310441971 -320.721923828
vertex -19.3656520844 -2.33198428154 -320.721923828
endloop
endfacet
facet normal 0.0 -0.0 1.0
outer loop
vertex -19.1537837982 -2.37733411789 -320.721923828
vertex -19.1433773041 -2.32842898369 -320.721923828
vertex -19.2492656708 -2.30583047867 -320.721923828
endloop
endfacet
facet normal 0.0 0.0 1.0
outer loop
vertex -19.1537837982 -2.37733411789 -320.721923828
vertex -19.2492656708 -2.30583047867 -320.721923828
vertex -19.2597312927 -2.35472297668 -320.721923828
endloop
endfacet
facet normal -0.0 0.0 -1.0
outer loop
vertex -19.3551273346 -2.28310418129 -324.312896729
vertex -19.365650177 -2.33198428154 -324.312896729
vertex -19.4609603882 -2.26025104523 -324.312896729
endloop
endfacet
facet normal 0.0 -0.0 -1.0
outer loop
vertex -19.4609603882 -2.26025104523 -324.312896729
vertex -19.365650177 -2.33198428154 -324.312896729
vertex -19.4715442657 -2.30911827087 -324.312896729
endloop
endfacet
facet normal -0.0 0.0 -1.0
outer loop
vertex -19.2492656708 -2.30583024025 -324.312896729
vertex -19.2597312927 -2.35472273827 -324.312896729
vertex -19.3551273346 -2.28310418129 -324.312896729
endloop
endfacet
facet normal 0.0 -0.0 -1.0
outer loop
vertex -19.3551273346 -2.28310418129 -324.312896729
vertex -19.2597312927 -2.35472273827 -324.312896729
vertex -19.365650177 -2.33198428154 -324.312896729
endloop
endfacet
facet normal -0.0 0.0 -1.0
outer loop
vertex -19.1433773041 -2.32842874527 -324.312896729
vertex -19.1537837982 -2.37733387947 -324.312896729
vertex -19.2492656708 -2.30583024025 -324.312896729
endloop
endfacet
facet normal 0.0 -0.0 -1.0
outer loop
vertex -19.2492656708 -2.30583024025 -324.312896729
vertex -19.1537837982 -2.37733387947 -324.312896729
vertex -19.2597312927 -2.35472273827 -324.312896729
endloop
endfacet
