solid 
facet normal -0.208720117807 -0.977975428104 0.0
outer loop
vertex -19.1537837982 -2.37733411789 421.534576416
vertex -19.1537837982 -2.37733411789 425.125579834
vertex -19.2597312927 -2.35472273827 425.125579834
endloop
endfacet
facet normal -0.209895804524 -0.977723777294 6.49143103715e-08
outer loop
vertex -19.2597312927 -2.35472297668 421.534576416
vertex -19.2597312927 -2.35472273827 425.125579834
vertex -19.365650177 -2.33198428154 425.125579834
endloop
endfacet
facet normal -0.208718016744 -0.977975845337 6.49310436529e-08
outer loop
vertex -19.2597312927 -2.35472297668 421.534576416
vertex -19.1537837982 -2.37733411789 421.534576416
vertex -19.2597312927 -2.35472273827 425.125579834
endloop
endfacet
facet normal -0.209892198443 -0.977724552155 1.76397861651e-07
outer loop
vertex -19.3656520844 -2.33198451996 421.534576416
vertex -19.2597312927 -2.35472297668 421.534576416
vertex -19.365650177 -2.33198428154 425.125579834
endloop
endfacet
facet normal -0.211066052318 -0.977471828461 0.0
outer loop
vertex -19.4715442657 -2.30911850929 421.534576416
vertex -19.365650177 -2.33198428154 425.125579834
vertex -19.4715442657 -2.30911850929 425.125579834
endloop
endfacet
facet normal -0.211071789265 -0.977470517159 1.77155968117e-07
outer loop
vertex -19.4715442657 -2.30911850929 421.534576416
vertex -19.3656520844 -2.33198451996 421.534576416
vertex -19.365650177 -2.33198428154 425.125579834
endloop
endfacet
facet normal -0.977339804173 0.211676537991 0.0
outer loop
vertex -19.4715442657 -2.30911850929 421.534576416
vertex -19.4715442657 -2.30911850929 425.125579834
vertex -19.4609603882 -2.26025128365 425.125579834
endloop
endfacet
facet normal -0.977339804173 0.211676537991 0.0
outer loop
vertex -19.4609603882 -2.26025128365 421.534576416
vertex -19.4715442657 -2.30911850929 421.534576416
vertex -19.4609603882 -2.26025128365 425.125579834
endloop
endfacet
facet normal 0.208719968796 0.977975428104 -6.46737134957e-08
outer loop
vertex -19.1433773041 -2.32842898369 425.125579834
vertex -19.2492656708 -2.30583047867 421.534576416
vertex -19.2492656708 -2.30583024025 425.125579834
endloop
endfacet
facet normal 0.209892690182 0.977724432945 -6.4914353004e-08
outer loop
vertex -19.2492656708 -2.30583024025 425.125579834
vertex -19.2492656708 -2.30583047867 421.534576416
vertex -19.3551273346 -2.28310441971 425.125579834
endloop
endfacet
facet normal 0.208719968796 0.977975428104 -6.49310223366e-08
outer loop
vertex -19.1433773041 -2.32842922211 421.534576416
vertex -19.2492656708 -2.30583047867 421.534576416
vertex -19.1433773041 -2.32842898369 425.125579834
endloop
endfacet
facet normal 0.209892690182 0.977724432945 -6.46734221732e-08
outer loop
vertex -19.2492656708 -2.30583047867 421.534576416
vertex -19.3551273346 -2.28310465813 421.534576416
vertex -19.3551273346 -2.28310441971 425.125579834
endloop
endfacet
facet normal 0.211070850492 0.977470815182 0.0
outer loop
vertex -19.3551273346 -2.28310441971 425.125579834
vertex -19.4609603882 -2.26025128365 421.534576416
vertex -19.4609603882 -2.26025128365 425.125579834
endloop
endfacet
facet normal 0.211072966456 0.977470338345 -6.48974847195e-08
outer loop
vertex -19.3551273346 -2.28310465813 421.534576416
vertex -19.4609603882 -2.26025128365 421.534576416
vertex -19.3551273346 -2.28310441971 425.125579834
endloop
endfacet
facet normal 0.978101015091 -0.208130553365 1.3940043786e-08
outer loop
vertex -19.1537837982 -2.37733411789 421.534576416
vertex -19.1433773041 -2.32842922211 421.534576416
vertex -19.1433773041 -2.32842898369 425.125579834
endloop
endfacet
facet normal 0.97810125351 -0.20812959969 0.0
outer loop
vertex -19.1537837982 -2.37733411789 421.534576416
vertex -19.1433773041 -2.32842898369 425.125579834
vertex -19.1537837982 -2.37733411789 425.125579834
endloop
endfacet
facet normal 0.0 -0.0 -1.0
outer loop
vertex -19.4609603882 -2.26025128365 421.534576416
vertex -19.3551273346 -2.28310465813 421.534576416
vertex -19.4715442657 -2.30911850929 421.534576416
endloop
endfacet
facet normal 0.0 0.0 -1.0
outer loop
vertex -19.3551273346 -2.28310465813 421.534576416
vertex -19.3656520844 -2.33198451996 421.534576416
vertex -19.4715442657 -2.30911850929 421.534576416
endloop
endfacet
facet normal 0.0 -0.0 -1.0
outer loop
vertex -19.3551273346 -2.28310465813 421.534576416
vertex -19.2492656708 -2.30583047867 421.534576416
vertex -19.3656520844 -2.33198451996 421.534576416
endloop
endfacet
facet normal 0.0 0.0 -1.0
outer loop
vertex -19.2492656708 -2.30583047867 421.534576416
vertex -19.2597312927 -2.35472297668 421.534576416
vertex -19.3656520844 -2.33198451996 421.534576416
endloop
endfacet
facet normal 0.0 -0.0 -1.0
outer loop
vertex -19.2492656708 -2.30583047867 421.534576416
vertex -19.1433773041 -2.32842922211 421.534576416
vertex -19.2597312927 -2.35472297668 421.534576416
endloop
endfacet
facet normal 0.0 0.0 -1.0
outer loop
vertex -19.1433773041 -2.32842922211 421.534576416
vertex -19.1537837982 -2.37733411789 421.534576416
vertex -19.2597312927 -2.35472297668 421.534576416
endloop
endfacet
facet normal 0.0 0.0 1.0
outer loop
vertex -19.3551273346 -2.28310441971 425.125579834
vertex -19.4609603882 -2.26025128365 425.125579834
vertex -19.4715442657 -2.30911850929 425.125579834
endloop
endfacet
facet normal 0.0 -0.0 1.0
outer loop
vertex -19.365650177 -2.33198428154 425.125579834
vertex -19.3551273346 -2.28310441971 425.125579834
vertex -19.4715442657 -2.30911850929 425.125579834
endloop
endfacet
facet normal 0.0 0.0 1.0
outer loop
vertex -19.2492656708 -2.30583024025 425.125579834
vertex -19.3551273346 -2.28310441971 425.125579834
vertex -19.365650177 -2.33198428154 425.125579834
endloop
endfacet
facet normal 0.0 -0.0 1.0
outer loop
vertex -19.2597312927 -2.35472273827 425.125579834
vertex -19.2492656708 -2.30583024025 425.125579834
vertex -19.365650177 -2.33198428154 425.125579834
endloop
endfacet
facet normal 0.0 -0.0 1.0
outer loop
vertex -19.1537837982 -2.37733411789 425.125579834
vertex -19.1433773041 -2.32842898369 425.125579834
vertex -19.2492656708 -2.30583024025 425.125579834
endloop
endfacet
facet normal 0.0 0.0 1.0
outer loop
vertex -19.1537837982 -2.37733411789 425.125579834
vertex -19.2492656708 -2.30583024025 425.125579834
vertex -19.2597312927 -2.35472273827 425.125579834
endloop
endfacet
