solid 
facet normal -0.00323075568303 0.999994814396 0.0
outer loop
vertex 0.161212131381 4.35045480728 226.393005371
vertex 0.0528793744743 4.35010480881 226.393005371
vertex 0.0528793744743 4.35010480881 229.98399353
endloop
endfacet
facet normal -0.00323075568303 0.999994814396 0.0
outer loop
vertex 0.161212131381 4.35045480728 226.393005371
vertex 0.0528793744743 4.35010480881 229.98399353
vertex 0.161212131381 4.35045480728 229.98399353
endloop
endfacet
facet normal -0.00202472414821 0.999997913837 0.0
outer loop
vertex 0.269545227289 4.35067415237 226.393005371
vertex 0.161212131381 4.35045480728 229.98399353
vertex 0.269545227289 4.35067415237 229.98399353
endloop
endfacet
facet normal -0.00202472414821 0.999997913837 0.0
outer loop
vertex 0.269545227289 4.35067415237 226.393005371
vertex 0.161212131381 4.35045480728 226.393005371
vertex 0.161212131381 4.35045480728 229.98399353
endloop
endfacet
facet normal -0.00082749594003 0.999999701977 0.0
outer loop
vertex 0.377878516912 4.35076379776 226.393005371
vertex 0.269545227289 4.35067415237 229.98399353
vertex 0.377878516912 4.35076379776 229.98399353
endloop
endfacet
facet normal -0.00082749594003 0.999999701977 0.0
outer loop
vertex 0.377878516912 4.35076379776 226.393005371
vertex 0.269545227289 4.35067415237 226.393005371
vertex 0.269545227289 4.35067415237 229.98399353
endloop
endfacet
facet normal 1.0 0.000224112605792 0.0
outer loop
vertex 0.377889722586 4.30076360703 226.393005371
vertex 0.377878516912 4.35076379776 226.393005371
vertex 0.377878516912 4.35076379776 229.98399353
endloop
endfacet
facet normal 1.0 0.000224112605792 -0.0
outer loop
vertex 0.377889722586 4.30076360703 226.393005371
vertex 0.377878516912 4.35076379776 229.98399353
vertex 0.377889722586 4.30076360703 229.98399353
endloop
endfacet
facet normal 0.0032281447202 -0.999994814396 0.0
outer loop
vertex 0.0530708879232 4.30010509491 229.98399353
vertex 0.0530708879232 4.30010509491 226.393005371
vertex 0.161343544722 4.30045461655 229.98399353
endloop
endfacet
facet normal 0.00323254894465 -0.999994814396 -1.32781664774e-07
outer loop
vertex 0.0530708879232 4.30010509491 226.393005371
vertex 0.161343544722 4.30045509338 226.393005371
vertex 0.161343544722 4.30045461655 229.98399353
endloop
endfacet
facet normal 0.00203025201336 -0.999997913837 0.0
outer loop
vertex 0.161343544722 4.30045461655 229.98399353
vertex 0.269616544247 4.30067443848 226.393005371
vertex 0.269616544247 4.30067443848 229.98399353
endloop
endfacet
facet normal 0.00202584802173 -0.999997913837 -1.32786894369e-07
outer loop
vertex 0.161343544722 4.30045509338 226.393005371
vertex 0.269616544247 4.30067443848 226.393005371
vertex 0.161343544722 4.30045461655 229.98399353
endloop
endfacet
facet normal 0.00082355120685 -0.999999642372 0.0
outer loop
vertex 0.269616544247 4.30067443848 229.98399353
vertex 0.377889722586 4.30076360703 226.393005371
vertex 0.377889722586 4.30076360703 229.98399353
endloop
endfacet
facet normal 0.00082355120685 -0.999999642372 0.0
outer loop
vertex 0.269616544247 4.30067443848 226.393005371
vertex 0.377889722586 4.30076360703 226.393005371
vertex 0.269616544247 4.30067443848 229.98399353
endloop
endfacet
facet normal -0.999992609024 -0.00383026245981 0.0
outer loop
vertex 0.0530708879232 4.30010509491 226.393005371
vertex 0.0530708879232 4.30010509491 229.98399353
vertex 0.0528793744743 4.35010480881 229.98399353
endloop
endfacet
facet normal -0.999992609024 -0.00383026245981 0.0
outer loop
vertex 0.0528793744743 4.35010480881 226.393005371
vertex 0.0530708879232 4.30010509491 226.393005371
vertex 0.0528793744743 4.35010480881 229.98399353
endloop
endfacet
facet normal -0.0 0.0 -1.0
outer loop
vertex 0.377889722586 4.30076360703 226.393005371
vertex 0.269616544247 4.30067443848 226.393005371
vertex 0.377878516912 4.35076379776 226.393005371
endloop
endfacet
facet normal 0.0 0.0 -1.0
outer loop
vertex 0.269616544247 4.30067443848 226.393005371
vertex 0.269545227289 4.35067415237 226.393005371
vertex 0.377878516912 4.35076379776 226.393005371
endloop
endfacet
facet normal -0.0 0.0 -1.0
outer loop
vertex 0.269616544247 4.30067443848 226.393005371
vertex 0.161343544722 4.30045509338 226.393005371
vertex 0.269545227289 4.35067415237 226.393005371
endloop
endfacet
facet normal 0.0 0.0 -1.0
outer loop
vertex 0.161343544722 4.30045509338 226.393005371
vertex 0.161212131381 4.35045480728 226.393005371
vertex 0.269545227289 4.35067415237 226.393005371
endloop
endfacet
facet normal 0.0 0.0 -1.0
outer loop
vertex 0.0530708879232 4.30010509491 226.393005371
vertex 0.0528793744743 4.35010480881 226.393005371
vertex 0.161343544722 4.30045509338 226.393005371
endloop
endfacet
facet normal 0.0 0.0 -1.0
outer loop
vertex 0.161343544722 4.30045509338 226.393005371
vertex 0.0528793744743 4.35010480881 226.393005371
vertex 0.161212131381 4.35045480728 226.393005371
endloop
endfacet
facet normal 0.0 0.0 1.0
outer loop
vertex 0.269616544247 4.30067443848 229.98399353
vertex 0.377889722586 4.30076360703 229.98399353
vertex 0.377878516912 4.35076379776 229.98399353
endloop
endfacet
facet normal -0.0 0.0 1.0
outer loop
vertex 0.269545227289 4.35067415237 229.98399353
vertex 0.269616544247 4.30067443848 229.98399353
vertex 0.377878516912 4.35076379776 229.98399353
endloop
endfacet
facet normal 0.0 0.0 1.0
outer loop
vertex 0.161343544722 4.30045461655 229.98399353
vertex 0.269616544247 4.30067443848 229.98399353
vertex 0.269545227289 4.35067415237 229.98399353
endloop
endfacet
facet normal -0.0 0.0 1.0
outer loop
vertex 0.161212131381 4.35045480728 229.98399353
vertex 0.161343544722 4.30045461655 229.98399353
vertex 0.269545227289 4.35067415237 229.98399353
endloop
endfacet
facet normal 0.0 0.0 1.0
outer loop
vertex 0.0528793744743 4.35010480881 229.98399353
vertex 0.0530708879232 4.30010509491 229.98399353
vertex 0.161343544722 4.30045461655 229.98399353
endloop
endfacet
facet normal -0.0 0.0 1.0
outer loop
vertex 0.0528793744743 4.35010480881 229.98399353
vertex 0.161343544722 4.30045461655 229.98399353
vertex 0.161212131381 4.35045480728 229.98399353
endloop
endfacet
