solid 
facet normal -0.208720117807 -0.9779753685 0.0
outer loop
vertex -19.2597160339 -2.35472607613 -52.0811233521
vertex -19.1537685394 -2.37733745575 -52.0811233521
vertex -19.1537685394 -2.37733745575 -48.4901237488
endloop
endfacet
facet normal -0.208718001842 -0.977975845337 -6.49311147072e-08
outer loop
vertex -19.2597160339 -2.35472607613 -52.0811233521
vertex -19.1537685394 -2.37733745575 -48.4901237488
vertex -19.2597160339 -2.35472631454 -48.4901237488
endloop
endfacet
facet normal -0.209895804524 -0.977723777294 -6.49143814258e-08
outer loop
vertex -19.3656349182 -2.3319876194 -52.0811233521
vertex -19.2597160339 -2.35472631454 -48.4901237488
vertex -19.3656349182 -2.33198785782 -48.4901237488
endloop
endfacet
facet normal -0.211068153381 -0.977471351624 -6.48976197226e-08
outer loop
vertex -19.3656349182 -2.3319876194 -52.0811233521
vertex -19.3656349182 -2.33198785782 -48.4901237488
vertex -19.471529007 -2.30912184715 -48.4901237488
endloop
endfacet
facet normal -0.209895804524 -0.977723777294 -6.46385061032e-08
outer loop
vertex -19.3656349182 -2.3319876194 -52.0811233521
vertex -19.2597160339 -2.35472607613 -52.0811233521
vertex -19.2597160339 -2.35472631454 -48.4901237488
endloop
endfacet
facet normal -0.211066067219 -0.977471828461 0.0
outer loop
vertex -19.471529007 -2.30912184715 -52.0811233521
vertex -19.3656349182 -2.3319876194 -52.0811233521
vertex -19.471529007 -2.30912184715 -48.4901237488
endloop
endfacet
facet normal -0.977339804173 0.211676537991 0.0
outer loop
vertex -19.471529007 -2.30912184715 -52.0811233521
vertex -19.471529007 -2.30912184715 -48.4901237488
vertex -19.4609451294 -2.26025462151 -52.0811233521
endloop
endfacet
facet normal -0.977339804173 0.211676537991 0.0
outer loop
vertex -19.471529007 -2.30912184715 -48.4901237488
vertex -19.4609451294 -2.26025462151 -48.4901237488
vertex -19.4609451294 -2.26025462151 -52.0811233521
endloop
endfacet
facet normal 0.208717852831 0.977975904942 6.46738058663e-08
outer loop
vertex -19.1433620453 -2.32843232155 -48.4901237488
vertex -19.249250412 -2.30583357811 -52.0811233521
vertex -19.249250412 -2.30583381653 -48.4901237488
endloop
endfacet
facet normal 0.209892705083 0.977724432945 6.49144240583e-08
outer loop
vertex -19.249250412 -2.30583381653 -48.4901237488
vertex -19.249250412 -2.30583357811 -52.0811233521
vertex -19.3551120758 -2.28310799599 -48.4901237488
endloop
endfacet
facet normal 0.208719983697 0.977975487709 -0.0
outer loop
vertex -19.1433620453 -2.32843232155 -52.0811233521
vertex -19.249250412 -2.30583357811 -52.0811233521
vertex -19.1433620453 -2.32843232155 -48.4901237488
endloop
endfacet
facet normal 0.211072936654 0.977470219135 6.48975486683e-08
outer loop
vertex -19.3551120758 -2.28310799599 -48.4901237488
vertex -19.3551120758 -2.28310775757 -52.0811233521
vertex -19.4609451294 -2.26025462151 -48.4901237488
endloop
endfacet
facet normal 0.209892705083 0.977724432945 6.4673486122e-08
outer loop
vertex -19.249250412 -2.30583357811 -52.0811233521
vertex -19.3551120758 -2.28310775757 -52.0811233521
vertex -19.3551120758 -2.28310799599 -48.4901237488
endloop
endfacet
facet normal 0.211070850492 0.977470755577 0.0
outer loop
vertex -19.3551120758 -2.28310775757 -52.0811233521
vertex -19.4609451294 -2.26025462151 -52.0811233521
vertex -19.4609451294 -2.26025462151 -48.4901237488
endloop
endfacet
facet normal 0.97810125351 -0.208129584789 0.0
outer loop
vertex -19.1433620453 -2.32843232155 -52.0811233521
vertex -19.1433620453 -2.32843232155 -48.4901237488
vertex -19.1537685394 -2.37733745575 -52.0811233521
endloop
endfacet
facet normal 0.97810125351 -0.208129584789 0.0
outer loop
vertex -19.1433620453 -2.32843232155 -48.4901237488
vertex -19.1537685394 -2.37733745575 -48.4901237488
vertex -19.1537685394 -2.37733745575 -52.0811233521
endloop
endfacet
facet normal 0.0 -0.0 1.0
outer loop
vertex -19.3656349182 -2.33198785782 -48.4901237488
vertex -19.3551120758 -2.28310799599 -48.4901237488
vertex -19.4609451294 -2.26025462151 -48.4901237488
endloop
endfacet
facet normal 0.0 0.0 1.0
outer loop
vertex -19.3656349182 -2.33198785782 -48.4901237488
vertex -19.4609451294 -2.26025462151 -48.4901237488
vertex -19.471529007 -2.30912184715 -48.4901237488
endloop
endfacet
facet normal 0.0 -0.0 1.0
outer loop
vertex -19.2597160339 -2.35472631454 -48.4901237488
vertex -19.249250412 -2.30583381653 -48.4901237488
vertex -19.3551120758 -2.28310799599 -48.4901237488
endloop
endfacet
facet normal 0.0 0.0 1.0
outer loop
vertex -19.2597160339 -2.35472631454 -48.4901237488
vertex -19.3551120758 -2.28310799599 -48.4901237488
vertex -19.3656349182 -2.33198785782 -48.4901237488
endloop
endfacet
facet normal 0.0 -0.0 1.0
outer loop
vertex -19.1537685394 -2.37733745575 -48.4901237488
vertex -19.1433620453 -2.32843232155 -48.4901237488
vertex -19.249250412 -2.30583381653 -48.4901237488
endloop
endfacet
facet normal 0.0 0.0 1.0
outer loop
vertex -19.1537685394 -2.37733745575 -48.4901237488
vertex -19.249250412 -2.30583381653 -48.4901237488
vertex -19.2597160339 -2.35472631454 -48.4901237488
endloop
endfacet
facet normal 0.0 -0.0 -1.0
outer loop
vertex -19.4609451294 -2.26025462151 -52.0811233521
vertex -19.3551120758 -2.28310775757 -52.0811233521
vertex -19.471529007 -2.30912184715 -52.0811233521
endloop
endfacet
facet normal 0.0 0.0 -1.0
outer loop
vertex -19.3551120758 -2.28310775757 -52.0811233521
vertex -19.3656349182 -2.3319876194 -52.0811233521
vertex -19.471529007 -2.30912184715 -52.0811233521
endloop
endfacet
facet normal 0.0 -0.0 -1.0
outer loop
vertex -19.3551120758 -2.28310775757 -52.0811233521
vertex -19.249250412 -2.30583357811 -52.0811233521
vertex -19.3656349182 -2.3319876194 -52.0811233521
endloop
endfacet
facet normal 0.0 0.0 -1.0
outer loop
vertex -19.249250412 -2.30583357811 -52.0811233521
vertex -19.2597160339 -2.35472607613 -52.0811233521
vertex -19.3656349182 -2.3319876194 -52.0811233521
endloop
endfacet
facet normal -0.0 0.0 -1.0
outer loop
vertex -19.1433620453 -2.32843232155 -52.0811233521
vertex -19.1537685394 -2.37733745575 -52.0811233521
vertex -19.249250412 -2.30583357811 -52.0811233521
endloop
endfacet
facet normal 0.0 -0.0 -1.0
outer loop
vertex -19.249250412 -2.30583357811 -52.0811233521
vertex -19.1537685394 -2.37733745575 -52.0811233521
vertex -19.2597160339 -2.35472607613 -52.0811233521
endloop
endfacet
