solid 
facet normal 0.00323075521737 0.999994814396 2.80545656151e-11
outer loop
vertex -0.16122764349 4.35045576096 -174.136871338
vertex -0.0528948828578 4.35010576248 -174.136871338
vertex -0.0528948567808 4.35010576248 -177.727874756
endloop
endfacet
facet normal 0.00323075568303 0.999994814396 2.6812567791e-11
outer loop
vertex -0.16122764349 4.35045576096 -174.136871338
vertex -0.0528948567808 4.35010576248 -177.727874756
vertex -0.161227613688 4.35045576096 -177.727874756
endloop
endfacet
facet normal 0.00202472391538 0.999997913837 1.68035134418e-11
outer loop
vertex -0.269560754299 4.35067510605 -174.136871338
vertex -0.161227613688 4.35045576096 -177.727874756
vertex -0.269560724497 4.35067510605 -177.727874756
endloop
endfacet
facet normal 0.00202472391538 0.999997913837 1.87030408522e-11
outer loop
vertex -0.269560754299 4.35067510605 -174.136871338
vertex -0.16122764349 4.35045576096 -174.136871338
vertex -0.161227613688 4.35045576096 -177.727874756
endloop
endfacet
facet normal 0.000823094334919 0.999999642372 -1.32779732098e-07
outer loop
vertex -0.377894043922 4.35076475143 -174.136871338
vertex -0.269560724497 4.35067510605 -177.727874756
vertex -0.37789401412 4.3507642746 -177.727874756
endloop
endfacet
facet normal 0.000827495881822 0.999999642372 7.0136405364e-12
outer loop
vertex -0.377894043922 4.35076475143 -174.136871338
vertex -0.269560754299 4.35067510605 -174.136871338
vertex -0.269560724497 4.35067510605 -177.727874756
endloop
endfacet
facet normal -1.0 0.000223516559345 -8.32876345669e-09
outer loop
vertex -0.377905219793 4.3007645607 -174.136871338
vertex -0.377894043922 4.35076475143 -174.136871338
vertex -0.37789401412 4.3507642746 -177.727874756
endloop
endfacet
facet normal -1.0 0.000223518683924 -8.2991631345e-09
outer loop
vertex -0.377905219793 4.3007645607 -174.136871338
vertex -0.37789401412 4.3507642746 -177.727874756
vertex -0.377905189991 4.3007645607 -177.727874756
endloop
endfacet
facet normal -0.00322814518586 -0.999994814396 1.32753044113e-07
outer loop
vertex -0.0530863627791 4.30010604858 -177.727874756
vertex -0.161359041929 4.30045604706 -174.136871338
vertex -0.161359012127 4.30045557022 -177.727874756
endloop
endfacet
facet normal -0.00323254871182 -0.999994814396 -2.34740178684e-11
outer loop
vertex -0.0530863888562 4.30010604858 -174.136871338
vertex -0.161359041929 4.30045604706 -174.136871338
vertex -0.0530863627791 4.30010604858 -177.727874756
endloop
endfacet
facet normal -0.00203025224619 -0.999997913837 -1.87134249069e-11
outer loop
vertex -0.161359012127 4.30045557022 -177.727874756
vertex -0.269632041454 4.30067539215 -174.136871338
vertex -0.269632011652 4.30067539215 -177.727874756
endloop
endfacet
facet normal -0.00202584802173 -0.999997913837 1.32769528705e-07
outer loop
vertex -0.161359041929 4.30045604706 -174.136871338
vertex -0.269632041454 4.30067539215 -174.136871338
vertex -0.161359012127 4.30045557022 -177.727874756
endloop
endfacet
facet normal -0.000823551323265 -0.999999701977 -7.01753499061e-12
outer loop
vertex -0.269632011652 4.30067539215 -177.727874756
vertex -0.377905219793 4.3007645607 -174.136871338
vertex -0.377905189991 4.3007645607 -177.727874756
endloop
endfacet
facet normal -0.000823551323265 -0.999999701977 -6.8347866429e-12
outer loop
vertex -0.269632041454 4.30067539215 -174.136871338
vertex -0.377905219793 4.3007645607 -174.136871338
vertex -0.269632011652 4.30067539215 -177.727874756
endloop
endfacet
facet normal 0.999992668629 -0.00383011414669 7.25871673879e-09
outer loop
vertex -0.0528948828578 4.35010576248 -174.136871338
vertex -0.0530863888562 4.30010604858 -174.136871338
vertex -0.0530863627791 4.30010604858 -177.727874756
endloop
endfacet
facet normal 0.999992668629 -0.00383011414669 7.26171434096e-09
outer loop
vertex -0.0528948828578 4.35010576248 -174.136871338
vertex -0.0530863627791 4.30010604858 -177.727874756
vertex -0.0528948567808 4.35010576248 -177.727874756
endloop
endfacet
facet normal -0.0 0.0 1.0
outer loop
vertex -0.377905219793 4.3007645607 -174.136871338
vertex -0.269632041454 4.30067539215 -174.136871338
vertex -0.377894043922 4.35076475143 -174.136871338
endloop
endfacet
facet normal 0.0 -0.0 1.0
outer loop
vertex -0.269632041454 4.30067539215 -174.136871338
vertex -0.269560754299 4.35067510605 -174.136871338
vertex -0.377894043922 4.35076475143 -174.136871338
endloop
endfacet
facet normal -0.0 0.0 1.0
outer loop
vertex -0.269632041454 4.30067539215 -174.136871338
vertex -0.161359041929 4.30045604706 -174.136871338
vertex -0.269560754299 4.35067510605 -174.136871338
endloop
endfacet
facet normal 0.0 -0.0 1.0
outer loop
vertex -0.161359041929 4.30045604706 -174.136871338
vertex -0.16122764349 4.35045576096 -174.136871338
vertex -0.269560754299 4.35067510605 -174.136871338
endloop
endfacet
facet normal -0.0 0.0 1.0
outer loop
vertex -0.161359041929 4.30045604706 -174.136871338
vertex -0.0530863888562 4.30010604858 -174.136871338
vertex -0.16122764349 4.35045576096 -174.136871338
endloop
endfacet
facet normal 0.0 -0.0 1.0
outer loop
vertex -0.0530863888562 4.30010604858 -174.136871338
vertex -0.0528948828578 4.35010576248 -174.136871338
vertex -0.16122764349 4.35045576096 -174.136871338
endloop
endfacet
facet normal 0.0 0.0 -1.0
outer loop
vertex -0.269632011652 4.30067539215 -177.727874756
vertex -0.377905189991 4.3007645607 -177.727874756
vertex -0.37789401412 4.3507642746 -177.727874756
endloop
endfacet
facet normal -0.0 0.0 -1.0
outer loop
vertex -0.269560724497 4.35067510605 -177.727874756
vertex -0.269632011652 4.30067539215 -177.727874756
vertex -0.37789401412 4.3507642746 -177.727874756
endloop
endfacet
facet normal 0.0 0.0 -1.0
outer loop
vertex -0.161359012127 4.30045557022 -177.727874756
vertex -0.269632011652 4.30067539215 -177.727874756
vertex -0.269560724497 4.35067510605 -177.727874756
endloop
endfacet
facet normal -0.0 0.0 -1.0
outer loop
vertex -0.161227613688 4.35045576096 -177.727874756
vertex -0.161359012127 4.30045557022 -177.727874756
vertex -0.269560724497 4.35067510605 -177.727874756
endloop
endfacet
facet normal 0.0 0.0 -1.0
outer loop
vertex -0.0530863627791 4.30010604858 -177.727874756
vertex -0.161359012127 4.30045557022 -177.727874756
vertex -0.161227613688 4.35045576096 -177.727874756
endloop
endfacet
facet normal -0.0 0.0 -1.0
outer loop
vertex -0.0528948567808 4.35010576248 -177.727874756
vertex -0.0530863627791 4.30010604858 -177.727874756
vertex -0.161227613688 4.35045576096 -177.727874756
endloop
endfacet
