solid 
facet normal -0.208720117807 -0.977975428104 0.0
outer loop
vertex -19.2597103119 -2.35472679138 -241.23991394
vertex -19.1537628174 -2.37733817101 -241.23991394
vertex -19.1537628174 -2.37733817101 -237.648910522
endloop
endfacet
facet normal -0.208718016744 -0.977975845337 -6.49310436529e-08
outer loop
vertex -19.2597103119 -2.35472679138 -241.23991394
vertex -19.1537628174 -2.37733817101 -237.648910522
vertex -19.2597103119 -2.3547270298 -237.648910522
endloop
endfacet
facet normal -0.209892198443 -0.977724552155 -6.49143672149e-08
outer loop
vertex -19.3656311035 -2.33198833466 -241.23991394
vertex -19.2597103119 -2.3547270298 -237.648910522
vertex -19.3656311035 -2.33198857307 -237.648910522
endloop
endfacet
facet normal -0.211071789265 -0.977470517159 -6.48974989303e-08
outer loop
vertex -19.3656311035 -2.33198833466 -241.23991394
vertex -19.3656311035 -2.33198857307 -237.648910522
vertex -19.4715232849 -2.30912256241 -237.648910522
endloop
endfacet
facet normal -0.209892198443 -0.977724552155 -6.46373266022e-08
outer loop
vertex -19.3656311035 -2.33198833466 -241.23991394
vertex -19.2597103119 -2.35472679138 -241.23991394
vertex -19.2597103119 -2.3547270298 -237.648910522
endloop
endfacet
facet normal -0.211069688201 -0.9774710536 0.0
outer loop
vertex -19.4715232849 -2.30912256241 -241.23991394
vertex -19.3656311035 -2.33198833466 -241.23991394
vertex -19.4715232849 -2.30912256241 -237.648910522
endloop
endfacet
facet normal -0.977347612381 0.211640074849 0.0
outer loop
vertex -19.4715232849 -2.30912256241 -241.23991394
vertex -19.4715232849 -2.30912256241 -237.648910522
vertex -19.4609413147 -2.26025533676 -241.23991394
endloop
endfacet
facet normal -0.977347612381 0.211640074849 0.0
outer loop
vertex -19.4715232849 -2.30912256241 -237.648910522
vertex -19.4609413147 -2.26025533676 -237.648910522
vertex -19.4609413147 -2.26025533676 -241.23991394
endloop
endfacet
facet normal 0.208717852831 0.977975904942 6.46737419174e-08
outer loop
vertex -19.1433563232 -2.3284330368 -237.648910522
vertex -19.2492446899 -2.30583429337 -241.23991394
vertex -19.2492446899 -2.30583453178 -237.648910522
endloop
endfacet
facet normal 0.209894776344 0.977723896503 6.49143174769e-08
outer loop
vertex -19.2492446899 -2.30583453178 -237.648910522
vertex -19.2492446899 -2.30583429337 -241.23991394
vertex -19.3551063538 -2.28310847282 -237.648910522
endloop
endfacet
facet normal 0.208719968796 0.977975428104 -0.0
outer loop
vertex -19.1433563232 -2.3284330368 -241.23991394
vertex -19.2492446899 -2.30583429337 -241.23991394
vertex -19.1433563232 -2.3284330368 -237.648910522
endloop
endfacet
facet normal 0.211067214608 0.977471590042 0.0
outer loop
vertex -19.3551063538 -2.28310847282 -237.648910522
vertex -19.3551063538 -2.28310847282 -241.23991394
vertex -19.4609413147 -2.26025533676 -237.648910522
endloop
endfacet
facet normal 0.209892690182 0.977724432945 0.0
outer loop
vertex -19.2492446899 -2.30583429337 -241.23991394
vertex -19.3551063538 -2.28310847282 -241.23991394
vertex -19.3551063538 -2.28310847282 -237.648910522
endloop
endfacet
facet normal 0.211067214608 0.977471590042 0.0
outer loop
vertex -19.3551063538 -2.28310847282 -241.23991394
vertex -19.4609413147 -2.26025533676 -241.23991394
vertex -19.4609413147 -2.26025533676 -237.648910522
endloop
endfacet
facet normal 0.97810125351 -0.20812959969 0.0
outer loop
vertex -19.1433563232 -2.3284330368 -241.23991394
vertex -19.1433563232 -2.3284330368 -237.648910522
vertex -19.1537628174 -2.37733817101 -241.23991394
endloop
endfacet
facet normal 0.97810125351 -0.20812959969 0.0
outer loop
vertex -19.1433563232 -2.3284330368 -237.648910522
vertex -19.1537628174 -2.37733817101 -237.648910522
vertex -19.1537628174 -2.37733817101 -241.23991394
endloop
endfacet
facet normal 0.0 -0.0 1.0
outer loop
vertex -19.3656311035 -2.33198857307 -237.648910522
vertex -19.3551063538 -2.28310847282 -237.648910522
vertex -19.4609413147 -2.26025533676 -237.648910522
endloop
endfacet
facet normal 0.0 0.0 1.0
outer loop
vertex -19.3656311035 -2.33198857307 -237.648910522
vertex -19.4609413147 -2.26025533676 -237.648910522
vertex -19.4715232849 -2.30912256241 -237.648910522
endloop
endfacet
facet normal 0.0 -0.0 1.0
outer loop
vertex -19.2597103119 -2.3547270298 -237.648910522
vertex -19.2492446899 -2.30583453178 -237.648910522
vertex -19.3551063538 -2.28310847282 -237.648910522
endloop
endfacet
facet normal 0.0 0.0 1.0
outer loop
vertex -19.2597103119 -2.3547270298 -237.648910522
vertex -19.3551063538 -2.28310847282 -237.648910522
vertex -19.3656311035 -2.33198857307 -237.648910522
endloop
endfacet
facet normal 0.0 -0.0 1.0
outer loop
vertex -19.1537628174 -2.37733817101 -237.648910522
vertex -19.1433563232 -2.3284330368 -237.648910522
vertex -19.2492446899 -2.30583453178 -237.648910522
endloop
endfacet
facet normal 0.0 0.0 1.0
outer loop
vertex -19.1537628174 -2.37733817101 -237.648910522
vertex -19.2492446899 -2.30583453178 -237.648910522
vertex -19.2597103119 -2.3547270298 -237.648910522
endloop
endfacet
facet normal 0.0 -0.0 -1.0
outer loop
vertex -19.4609413147 -2.26025533676 -241.23991394
vertex -19.3551063538 -2.28310847282 -241.23991394
vertex -19.4715232849 -2.30912256241 -241.23991394
endloop
endfacet
facet normal 0.0 0.0 -1.0
outer loop
vertex -19.3551063538 -2.28310847282 -241.23991394
vertex -19.3656311035 -2.33198833466 -241.23991394
vertex -19.4715232849 -2.30912256241 -241.23991394
endloop
endfacet
facet normal 0.0 -0.0 -1.0
outer loop
vertex -19.3551063538 -2.28310847282 -241.23991394
vertex -19.2492446899 -2.30583429337 -241.23991394
vertex -19.3656311035 -2.33198833466 -241.23991394
endloop
endfacet
facet normal 0.0 0.0 -1.0
outer loop
vertex -19.2492446899 -2.30583429337 -241.23991394
vertex -19.2597103119 -2.35472679138 -241.23991394
vertex -19.3656311035 -2.33198833466 -241.23991394
endloop
endfacet
facet normal -0.0 0.0 -1.0
outer loop
vertex -19.1433563232 -2.3284330368 -241.23991394
vertex -19.1537628174 -2.37733817101 -241.23991394
vertex -19.2492446899 -2.30583429337 -241.23991394
endloop
endfacet
facet normal 0.0 -0.0 -1.0
outer loop
vertex -19.2492446899 -2.30583429337 -241.23991394
vertex -19.1537628174 -2.37733817101 -241.23991394
vertex -19.2597103119 -2.35472679138 -241.23991394
endloop
endfacet
