solid 
facet normal 0.208718016744 -0.977975845337 0.0
outer loop
vertex 19.1537761688 -2.37733578682 181.80178833
vertex 19.1537761688 -2.37733578682 178.210784912
vertex 19.2597236633 -2.35472464561 178.210784912
endloop
endfacet
facet normal 0.209892198443 -0.977724552155 0.0
outer loop
vertex 19.2597236633 -2.35472464561 181.80178833
vertex 19.2597236633 -2.35472464561 178.210784912
vertex 19.365644455 -2.33198618889 178.210784912
endloop
endfacet
facet normal 0.208718016744 -0.977975845337 0.0
outer loop
vertex 19.2597236633 -2.35472464561 181.80178833
vertex 19.1537761688 -2.37733578682 181.80178833
vertex 19.2597236633 -2.35472464561 178.210784912
endloop
endfacet
facet normal 0.211069688201 -0.9774710536 0.0
outer loop
vertex 19.365644455 -2.33198618889 181.80178833
vertex 19.365644455 -2.33198618889 178.210784912
vertex 19.4715366364 -2.30912041664 178.210784912
endloop
endfacet
facet normal 0.209892198443 -0.977724552155 0.0
outer loop
vertex 19.365644455 -2.33198618889 181.80178833
vertex 19.2597236633 -2.35472464561 181.80178833
vertex 19.365644455 -2.33198618889 178.210784912
endloop
endfacet
facet normal 0.211071789265 -0.977470517159 6.48974989303e-08
outer loop
vertex 19.4715366364 -2.30912017822 181.80178833
vertex 19.365644455 -2.33198618889 181.80178833
vertex 19.4715366364 -2.30912041664 178.210784912
endloop
endfacet
facet normal 0.977347612381 0.211640074849 -1.3940043786e-08
outer loop
vertex 19.4715366364 -2.30912017822 181.80178833
vertex 19.4609546661 -2.26025319099 178.210784912
vertex 19.4609546661 -2.26025295258 181.80178833
endloop
endfacet
facet normal 0.977347612381 0.211640074849 -1.40514835323e-08
outer loop
vertex 19.4715366364 -2.30912041664 178.210784912
vertex 19.4609546661 -2.26025319099 178.210784912
vertex 19.4715366364 -2.30912017822 181.80178833
endloop
endfacet
facet normal -0.208719968796 0.977975428104 0.0
outer loop
vertex 19.1433696747 -2.32843089104 178.210784912
vertex 19.2492580414 -2.3058321476 181.80178833
vertex 19.2492580414 -2.3058321476 178.210784912
endloop
endfacet
facet normal -0.209892690182 0.977724432945 0.0
outer loop
vertex 19.2492580414 -2.3058321476 178.210784912
vertex 19.2492580414 -2.3058321476 181.80178833
vertex 19.3551197052 -2.28310632706 178.210784912
endloop
endfacet
facet normal -0.208717852831 0.977975904942 -6.49310507583e-08
outer loop
vertex 19.1433696747 -2.32843065262 181.80178833
vertex 19.2492580414 -2.3058321476 181.80178833
vertex 19.1433696747 -2.32843089104 178.210784912
endloop
endfacet
facet normal -0.211067214608 0.977471590042 0.0
outer loop
vertex 19.3551197052 -2.28310632706 178.210784912
vertex 19.3551197052 -2.28310632706 181.80178833
vertex 19.4609546661 -2.26025319099 178.210784912
endloop
endfacet
facet normal -0.209892690182 0.977724432945 0.0
outer loop
vertex 19.2492580414 -2.3058321476 181.80178833
vertex 19.3551197052 -2.28310632706 181.80178833
vertex 19.3551197052 -2.28310632706 178.210784912
endloop
endfacet
facet normal -0.211069315672 0.977471113205 -6.46729816367e-08
outer loop
vertex 19.3551197052 -2.28310632706 181.80178833
vertex 19.4609546661 -2.26025295258 181.80178833
vertex 19.4609546661 -2.26025319099 178.210784912
endloop
endfacet
facet normal -0.97810125351 -0.20812959969 1.38184113041e-08
outer loop
vertex 19.1433696747 -2.32843065262 181.80178833
vertex 19.1433696747 -2.32843089104 178.210784912
vertex 19.1537761688 -2.37733578682 181.80178833
endloop
endfacet
facet normal -0.978101015091 -0.208130553365 0.0
outer loop
vertex 19.1433696747 -2.32843089104 178.210784912
vertex 19.1537761688 -2.37733578682 178.210784912
vertex 19.1537761688 -2.37733578682 181.80178833
endloop
endfacet
facet normal 0.0 0.0 -1.0
outer loop
vertex 19.365644455 -2.33198618889 178.210784912
vertex 19.3551197052 -2.28310632706 178.210784912
vertex 19.4609546661 -2.26025319099 178.210784912
endloop
endfacet
facet normal 0.0 0.0 -1.0
outer loop
vertex 19.365644455 -2.33198618889 178.210784912
vertex 19.4609546661 -2.26025319099 178.210784912
vertex 19.4715366364 -2.30912041664 178.210784912
endloop
endfacet
facet normal 0.0 0.0 -1.0
outer loop
vertex 19.2597236633 -2.35472464561 178.210784912
vertex 19.2492580414 -2.3058321476 178.210784912
vertex 19.3551197052 -2.28310632706 178.210784912
endloop
endfacet
facet normal 0.0 0.0 -1.0
outer loop
vertex 19.2597236633 -2.35472464561 178.210784912
vertex 19.3551197052 -2.28310632706 178.210784912
vertex 19.365644455 -2.33198618889 178.210784912
endloop
endfacet
facet normal 0.0 0.0 -1.0
outer loop
vertex 19.1537761688 -2.37733578682 178.210784912
vertex 19.1433696747 -2.32843089104 178.210784912
vertex 19.2492580414 -2.3058321476 178.210784912
endloop
endfacet
facet normal 0.0 0.0 -1.0
outer loop
vertex 19.1537761688 -2.37733578682 178.210784912
vertex 19.2492580414 -2.3058321476 178.210784912
vertex 19.2597236633 -2.35472464561 178.210784912
endloop
endfacet
facet normal -0.0 0.0 1.0
outer loop
vertex 19.3551197052 -2.28310632706 181.80178833
vertex 19.365644455 -2.33198618889 181.80178833
vertex 19.4609546661 -2.26025295258 181.80178833
endloop
endfacet
facet normal 0.0 0.0 1.0
outer loop
vertex 19.4609546661 -2.26025295258 181.80178833
vertex 19.365644455 -2.33198618889 181.80178833
vertex 19.4715366364 -2.30912017822 181.80178833
endloop
endfacet
facet normal -0.0 0.0 1.0
outer loop
vertex 19.2492580414 -2.3058321476 181.80178833
vertex 19.2597236633 -2.35472464561 181.80178833
vertex 19.3551197052 -2.28310632706 181.80178833
endloop
endfacet
facet normal 0.0 0.0 1.0
outer loop
vertex 19.3551197052 -2.28310632706 181.80178833
vertex 19.2597236633 -2.35472464561 181.80178833
vertex 19.365644455 -2.33198618889 181.80178833
endloop
endfacet
facet normal -0.0 0.0 1.0
outer loop
vertex 19.1433696747 -2.32843065262 181.80178833
vertex 19.1537761688 -2.37733578682 181.80178833
vertex 19.2492580414 -2.3058321476 181.80178833
endloop
endfacet
facet normal 0.0 0.0 1.0
outer loop
vertex 19.2492580414 -2.3058321476 181.80178833
vertex 19.1537761688 -2.37733578682 181.80178833
vertex 19.2597236633 -2.35472464561 181.80178833
endloop
endfacet
