solid 
facet normal -0.208720088005 0.9779753685 0.0
outer loop
vertex -19.2597312927 2.35472273827 101.749305725
vertex -19.1537837982 2.37733411789 101.749305725
vertex -19.1537837982 2.37733411789 98.1583099365
endloop
endfacet
facet normal -0.208718001842 0.977975904942 6.49311857615e-08
outer loop
vertex -19.2597312927 2.35472273827 101.749305725
vertex -19.1537837982 2.37733411789 98.1583099365
vertex -19.2597312927 2.35472297668 98.1583099365
endloop
endfacet
facet normal -0.209892198443 0.977724552155 1.76398231133e-07
outer loop
vertex -19.365650177 2.33198428154 101.749305725
vertex -19.2597312927 2.35472297668 98.1583099365
vertex -19.3656520844 2.33198451996 98.1583099365
endloop
endfacet
facet normal -0.211071774364 0.977470517159 1.77007891011e-07
outer loop
vertex -19.365650177 2.33198428154 101.749305725
vertex -19.3656520844 2.33198451996 98.1583099365
vertex -19.4715442657 2.30911850929 98.1583099365
endloop
endfacet
facet normal -0.209895789623 0.97772371769 6.46385771574e-08
outer loop
vertex -19.365650177 2.33198428154 101.749305725
vertex -19.2597312927 2.35472273827 101.749305725
vertex -19.2597312927 2.35472297668 98.1583099365
endloop
endfacet
facet normal -0.211066052318 0.977471828461 0.0
outer loop
vertex -19.4715442657 2.30911850929 101.749305725
vertex -19.365650177 2.33198428154 101.749305725
vertex -19.4715442657 2.30911850929 98.1583099365
endloop
endfacet
facet normal -0.977339804173 -0.211676523089 -0.0
outer loop
vertex -19.4715442657 2.30911850929 101.749305725
vertex -19.4715442657 2.30911850929 98.1583099365
vertex -19.4609603882 2.26025128365 101.749305725
endloop
endfacet
facet normal -0.977339804173 -0.211676523089 0.0
outer loop
vertex -19.4715442657 2.30911850929 98.1583099365
vertex -19.4609603882 2.26025128365 98.1583099365
vertex -19.4609603882 2.26025128365 101.749305725
endloop
endfacet
facet normal 0.208719968796 -0.977975487709 -6.49311644452e-08
outer loop
vertex -19.1433773041 2.32842922211 98.1583099365
vertex -19.1433773041 2.32842898369 101.749305725
vertex -19.2492656708 2.30583047867 98.1583099365
endloop
endfacet
facet normal 0.208719968796 -0.977975487709 -6.46738484988e-08
outer loop
vertex -19.1433773041 2.32842898369 101.749305725
vertex -19.2492656708 2.30583024025 101.749305725
vertex -19.2492656708 2.30583047867 98.1583099365
endloop
endfacet
facet normal 0.209892675281 -0.977724373341 -6.46735500709e-08
outer loop
vertex -19.2492656708 2.30583047867 98.1583099365
vertex -19.3551273346 2.28310441971 101.749305725
vertex -19.3551273346 2.28310465813 98.1583099365
endloop
endfacet
facet normal 0.211072951555 -0.97747027874 -6.48976197226e-08
outer loop
vertex -19.3551273346 2.28310465813 98.1583099365
vertex -19.3551273346 2.28310441971 101.749305725
vertex -19.4609603882 2.26025128365 98.1583099365
endloop
endfacet
facet normal 0.209892675281 -0.977724373341 -6.49144880072e-08
outer loop
vertex -19.2492656708 2.30583024025 101.749305725
vertex -19.3551273346 2.28310441971 101.749305725
vertex -19.2492656708 2.30583047867 98.1583099365
endloop
endfacet
facet normal 0.211070865393 -0.977470815182 0.0
outer loop
vertex -19.3551273346 2.28310441971 101.749305725
vertex -19.4609603882 2.26025128365 101.749305725
vertex -19.4609603882 2.26025128365 98.1583099365
endloop
endfacet
facet normal 0.97810125351 0.208129569888 0.0
outer loop
vertex -19.1433773041 2.32842898369 101.749305725
vertex -19.1537837982 2.37733411789 98.1583099365
vertex -19.1537837982 2.37733411789 101.749305725
endloop
endfacet
facet normal 0.978101074696 0.208130538464 1.38185036747e-08
outer loop
vertex -19.1433773041 2.32842922211 98.1583099365
vertex -19.1537837982 2.37733411789 98.1583099365
vertex -19.1433773041 2.32842898369 101.749305725
endloop
endfacet
facet normal -0.0 0.0 -1.0
outer loop
vertex -19.3551273346 2.28310465813 98.1583099365
vertex -19.4609603882 2.26025128365 98.1583099365
vertex -19.4715442657 2.30911850929 98.1583099365
endloop
endfacet
facet normal 0.0 -0.0 -1.0
outer loop
vertex -19.3656520844 2.33198451996 98.1583099365
vertex -19.3551273346 2.28310465813 98.1583099365
vertex -19.4715442657 2.30911850929 98.1583099365
endloop
endfacet
facet normal -0.0 0.0 -1.0
outer loop
vertex -19.2492656708 2.30583047867 98.1583099365
vertex -19.3551273346 2.28310465813 98.1583099365
vertex -19.3656520844 2.33198451996 98.1583099365
endloop
endfacet
facet normal 0.0 -0.0 -1.0
outer loop
vertex -19.2597312927 2.35472297668 98.1583099365
vertex -19.2492656708 2.30583047867 98.1583099365
vertex -19.3656520844 2.33198451996 98.1583099365
endloop
endfacet
facet normal 0.0 -0.0 -1.0
outer loop
vertex -19.1537837982 2.37733411789 98.1583099365
vertex -19.1433773041 2.32842922211 98.1583099365
vertex -19.2492656708 2.30583047867 98.1583099365
endloop
endfacet
facet normal 0.0 0.0 -1.0
outer loop
vertex -19.1537837982 2.37733411789 98.1583099365
vertex -19.2492656708 2.30583047867 98.1583099365
vertex -19.2597312927 2.35472297668 98.1583099365
endloop
endfacet
facet normal 0.0 -0.0 1.0
outer loop
vertex -19.4609603882 2.26025128365 101.749305725
vertex -19.3551273346 2.28310441971 101.749305725
vertex -19.4715442657 2.30911850929 101.749305725
endloop
endfacet
facet normal 0.0 0.0 1.0
outer loop
vertex -19.3551273346 2.28310441971 101.749305725
vertex -19.365650177 2.33198428154 101.749305725
vertex -19.4715442657 2.30911850929 101.749305725
endloop
endfacet
facet normal 0.0 -0.0 1.0
outer loop
vertex -19.3551273346 2.28310441971 101.749305725
vertex -19.2492656708 2.30583024025 101.749305725
vertex -19.365650177 2.33198428154 101.749305725
endloop
endfacet
facet normal 0.0 0.0 1.0
outer loop
vertex -19.2492656708 2.30583024025 101.749305725
vertex -19.2597312927 2.35472273827 101.749305725
vertex -19.365650177 2.33198428154 101.749305725
endloop
endfacet
facet normal 0.0 -0.0 1.0
outer loop
vertex -19.2492656708 2.30583024025 101.749305725
vertex -19.1433773041 2.32842898369 101.749305725
vertex -19.2597312927 2.35472273827 101.749305725
endloop
endfacet
facet normal 0.0 0.0 1.0
outer loop
vertex -19.1433773041 2.32842898369 101.749305725
vertex -19.1537837982 2.37733411789 101.749305725
vertex -19.2597312927 2.35472273827 101.749305725
endloop
endfacet
