solid 
facet normal -0.208720117807 -0.977975428104 6.46376108193e-08
outer loop
vertex -19.2597084045 -2.3547270298 120.39478302
vertex -19.15376091 -2.37733840942 120.39478302
vertex -19.15376091 -2.37733817101 123.985786438
endloop
endfacet
facet normal -0.208718016744 -0.977975845337 0.0
outer loop
vertex -19.2597084045 -2.3547270298 120.39478302
vertex -19.15376091 -2.37733817101 123.985786438
vertex -19.2597084045 -2.3547270298 123.985786438
endloop
endfacet
facet normal -0.209892198443 -0.977724552155 0.0
outer loop
vertex -19.3656291962 -2.33198857307 120.39478302
vertex -19.2597084045 -2.3547270298 123.985786438
vertex -19.3656291962 -2.33198857307 123.985786438
endloop
endfacet
facet normal -0.211069688201 -0.9774710536 0.0
outer loop
vertex -19.3656291962 -2.33198857307 120.39478302
vertex -19.3656291962 -2.33198857307 123.985786438
vertex -19.4715213776 -2.30912280083 123.985786438
endloop
endfacet
facet normal -0.209892198443 -0.977724552155 0.0
outer loop
vertex -19.3656291962 -2.33198857307 120.39478302
vertex -19.2597084045 -2.3547270298 120.39478302
vertex -19.2597084045 -2.3547270298 123.985786438
endloop
endfacet
facet normal -0.211069688201 -0.9774710536 0.0
outer loop
vertex -19.4715213776 -2.30912280083 120.39478302
vertex -19.3656291962 -2.33198857307 120.39478302
vertex -19.4715213776 -2.30912280083 123.985786438
endloop
endfacet
facet normal -0.977347612381 0.211640074849 0.0
outer loop
vertex -19.4609394073 -2.26025557518 120.39478302
vertex -19.4715213776 -2.30912280083 120.39478302
vertex -19.4715213776 -2.30912280083 123.985786438
endloop
endfacet
facet normal -0.977347612381 0.211640074849 0.0
outer loop
vertex -19.4609394073 -2.26025557518 120.39478302
vertex -19.4715213776 -2.30912280083 123.985786438
vertex -19.4609394073 -2.26025557518 123.985786438
endloop
endfacet
facet normal 0.208716362715 0.977976202965 0.0
outer loop
vertex -19.1433544159 -2.32843327522 123.985786438
vertex -19.1433544159 -2.32843327522 120.39478302
vertex -19.2492446899 -2.30583453178 123.985786438
endloop
endfacet
facet normal 0.209896311164 0.977723658085 0.0
outer loop
vertex -19.2492446899 -2.30583453178 123.985786438
vertex -19.2492446899 -2.30583453178 120.39478302
vertex -19.3551044464 -2.28310871124 123.985786438
endloop
endfacet
facet normal 0.208716362715 0.977976202965 0.0
outer loop
vertex -19.1433544159 -2.32843327522 120.39478302
vertex -19.2492446899 -2.30583453178 120.39478302
vertex -19.2492446899 -2.30583453178 123.985786438
endloop
endfacet
facet normal 0.211067214608 0.977471590042 0.0
outer loop
vertex -19.3551044464 -2.28310871124 123.985786438
vertex -19.3551044464 -2.28310871124 120.39478302
vertex -19.4609394073 -2.26025557518 123.985786438
endloop
endfacet
facet normal 0.209896311164 0.977723658085 0.0
outer loop
vertex -19.2492446899 -2.30583453178 120.39478302
vertex -19.3551044464 -2.28310871124 120.39478302
vertex -19.3551044464 -2.28310871124 123.985786438
endloop
endfacet
facet normal 0.211067214608 0.977471590042 0.0
outer loop
vertex -19.3551044464 -2.28310871124 120.39478302
vertex -19.4609394073 -2.26025557518 120.39478302
vertex -19.4609394073 -2.26025557518 123.985786438
endloop
endfacet
facet normal 0.978101015091 -0.208130553365 0.0
outer loop
vertex -19.1433544159 -2.32843327522 120.39478302
vertex -19.1433544159 -2.32843327522 123.985786438
vertex -19.15376091 -2.37733817101 123.985786438
endloop
endfacet
facet normal 0.97810125351 -0.20812959969 1.38184113041e-08
outer loop
vertex -19.15376091 -2.37733840942 120.39478302
vertex -19.1433544159 -2.32843327522 120.39478302
vertex -19.15376091 -2.37733817101 123.985786438
endloop
endfacet
facet normal 0.0 -0.0 -1.0
outer loop
vertex -19.4609394073 -2.26025557518 120.39478302
vertex -19.3551044464 -2.28310871124 120.39478302
vertex -19.4715213776 -2.30912280083 120.39478302
endloop
endfacet
facet normal 0.0 0.0 -1.0
outer loop
vertex -19.3551044464 -2.28310871124 120.39478302
vertex -19.3656291962 -2.33198857307 120.39478302
vertex -19.4715213776 -2.30912280083 120.39478302
endloop
endfacet
facet normal 0.0 -0.0 -1.0
outer loop
vertex -19.3551044464 -2.28310871124 120.39478302
vertex -19.2492446899 -2.30583453178 120.39478302
vertex -19.3656291962 -2.33198857307 120.39478302
endloop
endfacet
facet normal 0.0 0.0 -1.0
outer loop
vertex -19.2492446899 -2.30583453178 120.39478302
vertex -19.2597084045 -2.3547270298 120.39478302
vertex -19.3656291962 -2.33198857307 120.39478302
endloop
endfacet
facet normal 0.0 -0.0 -1.0
outer loop
vertex -19.2492446899 -2.30583453178 120.39478302
vertex -19.1433544159 -2.32843327522 120.39478302
vertex -19.2597084045 -2.3547270298 120.39478302
endloop
endfacet
facet normal 0.0 0.0 -1.0
outer loop
vertex -19.1433544159 -2.32843327522 120.39478302
vertex -19.15376091 -2.37733840942 120.39478302
vertex -19.2597084045 -2.3547270298 120.39478302
endloop
endfacet
facet normal 0.0 0.0 1.0
outer loop
vertex -19.3551044464 -2.28310871124 123.985786438
vertex -19.4609394073 -2.26025557518 123.985786438
vertex -19.4715213776 -2.30912280083 123.985786438
endloop
endfacet
facet normal 0.0 -0.0 1.0
outer loop
vertex -19.3656291962 -2.33198857307 123.985786438
vertex -19.3551044464 -2.28310871124 123.985786438
vertex -19.4715213776 -2.30912280083 123.985786438
endloop
endfacet
facet normal 0.0 -0.0 1.0
outer loop
vertex -19.2597084045 -2.3547270298 123.985786438
vertex -19.2492446899 -2.30583453178 123.985786438
vertex -19.3551044464 -2.28310871124 123.985786438
endloop
endfacet
facet normal 0.0 0.0 1.0
outer loop
vertex -19.2597084045 -2.3547270298 123.985786438
vertex -19.3551044464 -2.28310871124 123.985786438
vertex -19.3656291962 -2.33198857307 123.985786438
endloop
endfacet
facet normal 0.0 -0.0 1.0
outer loop
vertex -19.15376091 -2.37733817101 123.985786438
vertex -19.1433544159 -2.32843327522 123.985786438
vertex -19.2492446899 -2.30583453178 123.985786438
endloop
endfacet
facet normal 0.0 0.0 1.0
outer loop
vertex -19.15376091 -2.37733817101 123.985786438
vertex -19.2492446899 -2.30583453178 123.985786438
vertex -19.2597084045 -2.3547270298 123.985786438
endloop
endfacet
