solid 
facet normal -0.00322635355406 -0.999994814396 -3.74062412989e-11
outer loop
vertex 0.161233171821 -4.35045528412 210.649780273
vertex 0.0529004074633 -4.35010576248 210.649780273
vertex 0.0529004409909 -4.35010576248 207.058792114
endloop
endfacet
facet normal -0.0032307554502 -0.999994814396 1.32759666371e-07
outer loop
vertex 0.161233171821 -4.35045528412 210.649780273
vertex 0.0529004409909 -4.35010576248 207.058792114
vertex 0.161233201623 -4.35045576096 207.058792114
endloop
endfacet
facet normal -0.00202472391538 -0.999997913837 -1.68035863002e-11
outer loop
vertex 0.269566267729 -4.35067510605 210.649780273
vertex 0.161233201623 -4.35045576096 207.058792114
vertex 0.269566297531 -4.35067510605 207.058792114
endloop
endfacet
facet normal -0.00202912581153 -0.999997913837 1.32768803951e-07
outer loop
vertex 0.269566267729 -4.35067510605 210.649780273
vertex 0.161233171821 -4.35045528412 210.649780273
vertex 0.161233201623 -4.35045576096 207.058792114
endloop
endfacet
facet normal -0.000823094334919 -0.999999701977 -6.83102316032e-12
outer loop
vertex 0.377899557352 -4.3507642746 210.649780273
vertex 0.269566297531 -4.35067510605 207.058792114
vertex 0.377899587154 -4.3507642746 207.058792114
endloop
endfacet
facet normal -0.000823094334919 -0.999999701977 -7.01367089406e-12
outer loop
vertex 0.377899557352 -4.3507642746 210.649780273
vertex 0.269566267729 -4.35067510605 210.649780273
vertex 0.269566297531 -4.35067510605 207.058792114
endloop
endfacet
facet normal 1.0 -0.000223518698476 8.29911872557e-09
outer loop
vertex 0.377899557352 -4.3507642746 210.649780273
vertex 0.377910763025 -4.3007645607 207.058792114
vertex 0.377910733223 -4.3007645607 210.649780273
endloop
endfacet
facet normal 1.0 -0.000223518698476 8.29919777345e-09
outer loop
vertex 0.377899587154 -4.3507642746 207.058792114
vertex 0.377910763025 -4.3007645607 207.058792114
vertex 0.377899557352 -4.3507642746 210.649780273
endloop
endfacet
facet normal 0.0032281447202 0.999994814396 2.80702561889e-11
outer loop
vertex 0.053091943264 -4.30010604858 207.058792114
vertex 0.16136457026 -4.30045557022 210.649780273
vertex 0.161364600062 -4.30045557022 207.058792114
endloop
endfacet
facet normal 0.0032281447202 0.999994814396 3.01398905833e-11
outer loop
vertex 0.0530919097364 -4.30010604858 210.649780273
vertex 0.16136457026 -4.30045557022 210.649780273
vertex 0.053091943264 -4.30010604858 207.058792114
endloop
endfacet
facet normal 0.00203025224619 0.999997913837 -1.32772328243e-07
outer loop
vertex 0.161364600062 -4.30045557022 207.058792114
vertex 0.269637554884 -4.30067491531 210.649780273
vertex 0.269637584686 -4.30067539215 207.058792114
endloop
endfacet
facet normal 0.00202584825456 0.999997913837 1.68129173778e-11
outer loop
vertex 0.16136457026 -4.30045557022 210.649780273
vertex 0.269637554884 -4.30067491531 210.649780273
vertex 0.161364600062 -4.30045557022 207.058792114
endloop
endfacet
facet normal 0.00082355120685 0.999999642372 7.01756404722e-12
outer loop
vertex 0.269637584686 -4.30067539215 207.058792114
vertex 0.377910733223 -4.3007645607 210.649780273
vertex 0.377910763025 -4.3007645607 207.058792114
endloop
endfacet
facet normal 0.000827955256682 0.999999642372 -1.32780243689e-07
outer loop
vertex 0.269637554884 -4.30067491531 210.649780273
vertex 0.377910733223 -4.3007645607 210.649780273
vertex 0.269637584686 -4.30067539215 207.058792114
endloop
endfacet
facet normal -0.999992609024 0.00383003917523 -9.34063493219e-09
outer loop
vertex 0.0530919097364 -4.30010604858 210.649780273
vertex 0.0529004409909 -4.35010576248 207.058792114
vertex 0.0529004074633 -4.35010576248 210.649780273
endloop
endfacet
facet normal -0.999992609024 0.00383003917523 -9.33652888335e-09
outer loop
vertex 0.053091943264 -4.30010604858 207.058792114
vertex 0.0529004409909 -4.35010576248 207.058792114
vertex 0.0530919097364 -4.30010604858 210.649780273
endloop
endfacet
facet normal 0.0 0.0 -1.0
outer loop
vertex 0.269637584686 -4.30067539215 207.058792114
vertex 0.377910763025 -4.3007645607 207.058792114
vertex 0.377899587154 -4.3507642746 207.058792114
endloop
endfacet
facet normal 0.0 0.0 -1.0
outer loop
vertex 0.269566297531 -4.35067510605 207.058792114
vertex 0.269637584686 -4.30067539215 207.058792114
vertex 0.377899587154 -4.3507642746 207.058792114
endloop
endfacet
facet normal 0.0 0.0 -1.0
outer loop
vertex 0.161364600062 -4.30045557022 207.058792114
vertex 0.269637584686 -4.30067539215 207.058792114
vertex 0.269566297531 -4.35067510605 207.058792114
endloop
endfacet
facet normal 0.0 0.0 -1.0
outer loop
vertex 0.161233201623 -4.35045576096 207.058792114
vertex 0.161364600062 -4.30045557022 207.058792114
vertex 0.269566297531 -4.35067510605 207.058792114
endloop
endfacet
facet normal 0.0 0.0 -1.0
outer loop
vertex 0.0529004409909 -4.35010576248 207.058792114
vertex 0.053091943264 -4.30010604858 207.058792114
vertex 0.161364600062 -4.30045557022 207.058792114
endloop
endfacet
facet normal 0.0 0.0 -1.0
outer loop
vertex 0.0529004409909 -4.35010576248 207.058792114
vertex 0.161364600062 -4.30045557022 207.058792114
vertex 0.161233201623 -4.35045576096 207.058792114
endloop
endfacet
facet normal 0.0 0.0 1.0
outer loop
vertex 0.377910733223 -4.3007645607 210.649780273
vertex 0.269637554884 -4.30067491531 210.649780273
vertex 0.377899557352 -4.3507642746 210.649780273
endloop
endfacet
facet normal 0.0 0.0 1.0
outer loop
vertex 0.269637554884 -4.30067491531 210.649780273
vertex 0.269566267729 -4.35067510605 210.649780273
vertex 0.377899557352 -4.3507642746 210.649780273
endloop
endfacet
facet normal 0.0 0.0 1.0
outer loop
vertex 0.269637554884 -4.30067491531 210.649780273
vertex 0.16136457026 -4.30045557022 210.649780273
vertex 0.269566267729 -4.35067510605 210.649780273
endloop
endfacet
facet normal 0.0 0.0 1.0
outer loop
vertex 0.16136457026 -4.30045557022 210.649780273
vertex 0.161233171821 -4.35045528412 210.649780273
vertex 0.269566267729 -4.35067510605 210.649780273
endloop
endfacet
facet normal 0.0 0.0 1.0
outer loop
vertex 0.16136457026 -4.30045557022 210.649780273
vertex 0.0530919097364 -4.30010604858 210.649780273
vertex 0.161233171821 -4.35045528412 210.649780273
endloop
endfacet
facet normal 0.0 0.0 1.0
outer loop
vertex 0.0530919097364 -4.30010604858 210.649780273
vertex 0.0529004074633 -4.35010576248 210.649780273
vertex 0.161233171821 -4.35045528412 210.649780273
endloop
endfacet
