solid 
facet normal 0.208717986941 -0.977975845337 0.0
outer loop
vertex 19.2597198486 -2.35472536087 170.968780518
vertex 19.1537723541 -2.37733650208 170.968780518
vertex 19.1537723541 -2.37733650208 167.377792358
endloop
endfacet
facet normal 0.208717986941 -0.977975845337 0.0
outer loop
vertex 19.2597198486 -2.35472536087 170.968780518
vertex 19.1537723541 -2.37733650208 167.377792358
vertex 19.2597198486 -2.35472536087 167.377792358
endloop
endfacet
facet normal 0.209892183542 -0.977724552155 0.0
outer loop
vertex 19.3656406403 -2.33198690414 170.968780518
vertex 19.2597198486 -2.35472536087 167.377792358
vertex 19.3656406403 -2.33198690414 167.377792358
endloop
endfacet
facet normal 0.211069688201 -0.977470993996 0.0
outer loop
vertex 19.3656406403 -2.33198690414 170.968780518
vertex 19.3656406403 -2.33198690414 167.377792358
vertex 19.4715328217 -2.3091211319 167.377792358
endloop
endfacet
facet normal 0.209892183542 -0.977724552155 0.0
outer loop
vertex 19.3656406403 -2.33198690414 170.968780518
vertex 19.2597198486 -2.35472536087 170.968780518
vertex 19.2597198486 -2.35472536087 167.377792358
endloop
endfacet
facet normal 0.211071789265 -0.977470576763 6.4897776042e-08
outer loop
vertex 19.4715328217 -2.30912089348 170.968780518
vertex 19.3656406403 -2.33198690414 170.968780518
vertex 19.4715328217 -2.3091211319 167.377792358
endloop
endfacet
facet normal 0.977347671986 0.21164008975 -1.40515439284e-08
outer loop
vertex 19.4715328217 -2.30912089348 170.968780518
vertex 19.4715328217 -2.3091211319 167.377792358
vertex 19.4609508514 -2.26025366783 170.968780518
endloop
endfacet
facet normal 0.977347671986 0.21164008975 -1.4264292858e-08
outer loop
vertex 19.4715328217 -2.3091211319 167.377792358
vertex 19.4609508514 -2.26025390625 167.377792358
vertex 19.4609508514 -2.26025366783 170.968780518
endloop
endfacet
facet normal -0.208716362715 0.977976202965 -6.49313491863e-08
outer loop
vertex 19.14336586 -2.32843160629 167.377792358
vertex 19.14336586 -2.32843136787 170.968780518
vertex 19.249256134 -2.30583286285 167.377792358
endloop
endfacet
facet normal -0.208714261651 0.977976620197 0.0
outer loop
vertex 19.14336586 -2.32843136787 170.968780518
vertex 19.249256134 -2.30583286285 170.968780518
vertex 19.249256134 -2.30583286285 167.377792358
endloop
endfacet
facet normal -0.209896311164 0.977723658085 -6.46748077315e-08
outer loop
vertex 19.249256134 -2.30583286285 167.377792358
vertex 19.3551158905 -2.28310680389 170.968780518
vertex 19.3551158905 -2.28310704231 167.377792358
endloop
endfacet
facet normal -0.211067214608 0.977471530437 -6.48978399909e-08
outer loop
vertex 19.3551158905 -2.28310704231 167.377792358
vertex 19.3551158905 -2.28310680389 170.968780518
vertex 19.4609508514 -2.26025390625 167.377792358
endloop
endfacet
facet normal -0.209898412228 0.977723181248 0.0
outer loop
vertex 19.249256134 -2.30583286285 170.968780518
vertex 19.3551158905 -2.28310680389 170.968780518
vertex 19.249256134 -2.30583286285 167.377792358
endloop
endfacet
facet normal -0.211067214608 0.977471530437 -6.52721041661e-08
outer loop
vertex 19.3551158905 -2.28310680389 170.968780518
vertex 19.4609508514 -2.26025366783 170.968780518
vertex 19.4609508514 -2.26025390625 167.377792358
endloop
endfacet
facet normal -0.978101193905 -0.208129569888 0.0
outer loop
vertex 19.14336586 -2.32843136787 170.968780518
vertex 19.1537723541 -2.37733650208 167.377792358
vertex 19.1537723541 -2.37733650208 170.968780518
endloop
endfacet
facet normal -0.978101074696 -0.208130553365 1.38185338727e-08
outer loop
vertex 19.14336586 -2.32843160629 167.377792358
vertex 19.1537723541 -2.37733650208 167.377792358
vertex 19.14336586 -2.32843136787 170.968780518
endloop
endfacet
facet normal 0.0 0.0 -1.0
outer loop
vertex 19.3551158905 -2.28310704231 167.377792358
vertex 19.4609508514 -2.26025390625 167.377792358
vertex 19.4715328217 -2.3091211319 167.377792358
endloop
endfacet
facet normal 0.0 0.0 -1.0
outer loop
vertex 19.3656406403 -2.33198690414 167.377792358
vertex 19.3551158905 -2.28310704231 167.377792358
vertex 19.4715328217 -2.3091211319 167.377792358
endloop
endfacet
facet normal 0.0 0.0 -1.0
outer loop
vertex 19.249256134 -2.30583286285 167.377792358
vertex 19.3551158905 -2.28310704231 167.377792358
vertex 19.3656406403 -2.33198690414 167.377792358
endloop
endfacet
facet normal 0.0 0.0 -1.0
outer loop
vertex 19.2597198486 -2.35472536087 167.377792358
vertex 19.249256134 -2.30583286285 167.377792358
vertex 19.3656406403 -2.33198690414 167.377792358
endloop
endfacet
facet normal 0.0 0.0 -1.0
outer loop
vertex 19.1537723541 -2.37733650208 167.377792358
vertex 19.14336586 -2.32843160629 167.377792358
vertex 19.249256134 -2.30583286285 167.377792358
endloop
endfacet
facet normal 0.0 0.0 -1.0
outer loop
vertex 19.1537723541 -2.37733650208 167.377792358
vertex 19.249256134 -2.30583286285 167.377792358
vertex 19.2597198486 -2.35472536087 167.377792358
endloop
endfacet
facet normal 0.0 0.0 1.0
outer loop
vertex 19.4609508514 -2.26025366783 170.968780518
vertex 19.3551158905 -2.28310680389 170.968780518
vertex 19.4715328217 -2.30912089348 170.968780518
endloop
endfacet
facet normal 0.0 0.0 1.0
outer loop
vertex 19.3551158905 -2.28310680389 170.968780518
vertex 19.3656406403 -2.33198690414 170.968780518
vertex 19.4715328217 -2.30912089348 170.968780518
endloop
endfacet
facet normal 0.0 0.0 1.0
outer loop
vertex 19.3551158905 -2.28310680389 170.968780518
vertex 19.249256134 -2.30583286285 170.968780518
vertex 19.3656406403 -2.33198690414 170.968780518
endloop
endfacet
facet normal 0.0 0.0 1.0
outer loop
vertex 19.249256134 -2.30583286285 170.968780518
vertex 19.2597198486 -2.35472536087 170.968780518
vertex 19.3656406403 -2.33198690414 170.968780518
endloop
endfacet
facet normal 0.0 0.0 1.0
outer loop
vertex 19.249256134 -2.30583286285 170.968780518
vertex 19.14336586 -2.32843136787 170.968780518
vertex 19.2597198486 -2.35472536087 170.968780518
endloop
endfacet
facet normal 0.0 0.0 1.0
outer loop
vertex 19.14336586 -2.32843136787 170.968780518
vertex 19.1537723541 -2.37733650208 170.968780518
vertex 19.2597198486 -2.35472536087 170.968780518
endloop
endfacet
