solid 
facet normal 0.00322635425255 0.999994814396 -9.35152216081e-12
outer loop
vertex -0.161222293973 4.35045528412 276.907012939
vertex -0.0528895370662 4.35010576248 276.907012939
vertex -0.0528895556927 4.35010576248 273.316009521
endloop
endfacet
facet normal 0.00322635355406 0.999994814396 -2.67760327799e-11
outer loop
vertex -0.161222293973 4.35045528412 276.907012939
vertex -0.0528895556927 4.35010576248 273.316009521
vertex -0.161222323775 4.35045528412 273.316009521
endloop
endfacet
facet normal 0.00202912581153 0.999997913837 -1.68400449835e-11
outer loop
vertex -0.269555389881 4.35067510605 276.907012939
vertex -0.161222323775 4.35045528412 273.316009521
vertex -0.269555419683 4.35067510605 273.316009521
endloop
endfacet
facet normal 0.00202912581153 0.999997913837 -1.87030425869e-11
outer loop
vertex -0.269555389881 4.35067510605 276.907012939
vertex -0.161222293973 4.35045528412 276.907012939
vertex -0.161222323775 4.35045528412 273.316009521
endloop
endfacet
facet normal 0.000823094334919 0.999999642372 -6.83099367002e-12
outer loop
vertex -0.377888679504 4.3507642746 276.907012939
vertex -0.269555419683 4.35067510605 273.316009521
vertex -0.377888709307 4.3507642746 273.316009521
endloop
endfacet
facet normal 0.000823094334919 0.999999642372 -7.0136405364e-12
outer loop
vertex -0.377888679504 4.3507642746 276.907012939
vertex -0.269555389881 4.35067510605 276.907012939
vertex -0.269555419683 4.35067510605 273.316009521
endloop
endfacet
facet normal -1.0 0.000224114744924 0.0
outer loop
vertex -0.377888679504 4.3507642746 276.907012939
vertex -0.377899885178 4.3007645607 273.316009521
vertex -0.377899885178 4.3007645607 276.907012939
endloop
endfacet
facet normal -1.0 0.000223518683924 8.2991631345e-09
outer loop
vertex -0.377888709307 4.3507642746 273.316009521
vertex -0.377899885178 4.3007645607 273.316009521
vertex -0.377888679504 4.3507642746 276.907012939
endloop
endfacet
facet normal -0.00322814495303 -0.999994814396 1.67443125337e-11
outer loop
vertex -0.0530810654163 4.30010604858 273.316009521
vertex -0.0530810467899 4.30010604858 276.907012939
vertex -0.161353722215 4.30045557022 273.316009521
endloop
endfacet
facet normal -0.00322814495303 -0.999994814396 9.35671245345e-12
outer loop
vertex -0.0530810467899 4.30010604858 276.907012939
vertex -0.161353707314 4.30045557022 276.907012939
vertex -0.161353722215 4.30045557022 273.316009521
endloop
endfacet
facet normal -0.00202584825456 -0.999997913837 0.0
outer loop
vertex -0.161353722215 4.30045557022 273.316009521
vertex -0.269626706839 4.30067491531 276.907012939
vertex -0.269626706839 4.30067491531 273.316009521
endloop
endfacet
facet normal -0.00202584802173 -0.999997913837 8.40642139233e-12
outer loop
vertex -0.161353707314 4.30045557022 276.907012939
vertex -0.269626706839 4.30067491531 276.907012939
vertex -0.161353722215 4.30045557022 273.316009521
endloop
endfacet
facet normal -0.000827955373097 -0.999999701977 0.0
outer loop
vertex -0.269626706839 4.30067491531 273.316009521
vertex -0.377899885178 4.3007645607 276.907012939
vertex -0.377899885178 4.3007645607 273.316009521
endloop
endfacet
facet normal -0.000827955373097 -0.999999701977 -0.0
outer loop
vertex -0.269626706839 4.30067491531 276.907012939
vertex -0.377899885178 4.3007645607 276.907012939
vertex -0.269626706839 4.30067491531 273.316009521
endloop
endfacet
facet normal 0.999992668629 -0.00383018818684 -5.18693887841e-09
outer loop
vertex -0.0530810467899 4.30010604858 276.907012939
vertex -0.0530810654163 4.30010604858 273.316009521
vertex -0.0528895370662 4.35010576248 276.907012939
endloop
endfacet
facet normal 0.999992668629 -0.00383018818684 -5.18696863239e-09
outer loop
vertex -0.0530810654163 4.30010604858 273.316009521
vertex -0.0528895556927 4.35010576248 273.316009521
vertex -0.0528895370662 4.35010576248 276.907012939
endloop
endfacet
facet normal 0.0 0.0 -1.0
outer loop
vertex -0.269626706839 4.30067491531 273.316009521
vertex -0.377899885178 4.3007645607 273.316009521
vertex -0.377888709307 4.3507642746 273.316009521
endloop
endfacet
facet normal -0.0 0.0 -1.0
outer loop
vertex -0.269555419683 4.35067510605 273.316009521
vertex -0.269626706839 4.30067491531 273.316009521
vertex -0.377888709307 4.3507642746 273.316009521
endloop
endfacet
facet normal 0.0 0.0 -1.0
outer loop
vertex -0.161353722215 4.30045557022 273.316009521
vertex -0.269626706839 4.30067491531 273.316009521
vertex -0.269555419683 4.35067510605 273.316009521
endloop
endfacet
facet normal -0.0 0.0 -1.0
outer loop
vertex -0.161222323775 4.35045528412 273.316009521
vertex -0.161353722215 4.30045557022 273.316009521
vertex -0.269555419683 4.35067510605 273.316009521
endloop
endfacet
facet normal 0.0 0.0 -1.0
outer loop
vertex -0.0528895556927 4.35010576248 273.316009521
vertex -0.0530810654163 4.30010604858 273.316009521
vertex -0.161353722215 4.30045557022 273.316009521
endloop
endfacet
facet normal -0.0 0.0 -1.0
outer loop
vertex -0.0528895556927 4.35010576248 273.316009521
vertex -0.161353722215 4.30045557022 273.316009521
vertex -0.161222323775 4.35045528412 273.316009521
endloop
endfacet
facet normal -0.0 0.0 1.0
outer loop
vertex -0.377899885178 4.3007645607 276.907012939
vertex -0.269626706839 4.30067491531 276.907012939
vertex -0.377888679504 4.3507642746 276.907012939
endloop
endfacet
facet normal 0.0 -0.0 1.0
outer loop
vertex -0.269626706839 4.30067491531 276.907012939
vertex -0.269555389881 4.35067510605 276.907012939
vertex -0.377888679504 4.3507642746 276.907012939
endloop
endfacet
facet normal 0.0 -0.0 1.0
outer loop
vertex -0.161353707314 4.30045557022 276.907012939
vertex -0.161222293973 4.35045528412 276.907012939
vertex -0.269626706839 4.30067491531 276.907012939
endloop
endfacet
facet normal 0.0 0.0 1.0
outer loop
vertex -0.269626706839 4.30067491531 276.907012939
vertex -0.161222293973 4.35045528412 276.907012939
vertex -0.269555389881 4.35067510605 276.907012939
endloop
endfacet
facet normal 0.0 -0.0 1.0
outer loop
vertex -0.0530810467899 4.30010604858 276.907012939
vertex -0.0528895370662 4.35010576248 276.907012939
vertex -0.161353707314 4.30045557022 276.907012939
endloop
endfacet
facet normal 0.0 0.0 1.0
outer loop
vertex -0.161353707314 4.30045557022 276.907012939
vertex -0.0528895370662 4.35010576248 276.907012939
vertex -0.161222293973 4.35045528412 276.907012939
endloop
endfacet
