solid 
facet normal 0.00323075521737 0.999994814396 0.0
outer loop
vertex -0.161212280393 4.35045433044 11.4343042374
vertex -0.05287951231 4.35010433197 11.4343042374
vertex -0.05287951231 4.35010433197 7.84330368042
endloop
endfacet
facet normal 0.00323075568303 0.999994814396 1.34062943039e-11
outer loop
vertex -0.161212280393 4.35045433044 11.4343042374
vertex -0.05287951231 4.35010433197 7.84330368042
vertex -0.161212265491 4.35045433044 7.84330368042
endloop
endfacet
facet normal 0.0020291255787 0.999997913837 0.0
outer loop
vertex -0.269545376301 4.35067415237 11.4343042374
vertex -0.161212265491 4.35045433044 7.84330368042
vertex -0.269545376301 4.35067415237 7.84330368042
endloop
endfacet
facet normal 0.00202912581153 0.999997913837 4.67576498353e-12
outer loop
vertex -0.269545376301 4.35067415237 11.4343042374
vertex -0.161212280393 4.35045433044 11.4343042374
vertex -0.161212265491 4.35045433044 7.84330368042
endloop
endfacet
facet normal 0.000823094334919 0.999999701977 0.0
outer loop
vertex -0.377878665924 4.35076332092 11.4343042374
vertex -0.269545376301 4.35067415237 7.84330368042
vertex -0.377878665924 4.35076332092 7.84330368042
endloop
endfacet
facet normal 0.000823094334919 0.999999701977 0.0
outer loop
vertex -0.377878665924 4.35076332092 11.4343042374
vertex -0.269545376301 4.35067415237 11.4343042374
vertex -0.269545376301 4.35067415237 7.84330368042
endloop
endfacet
facet normal -1.0 0.000224112605792 0.0
outer loop
vertex -0.377878665924 4.35076332092 11.4343042374
vertex -0.377889871597 4.30076313019 7.84330368042
vertex -0.377889871597 4.30076313019 11.4343042374
endloop
endfacet
facet normal -1.0 0.000224112605792 0.0
outer loop
vertex -0.377878665924 4.35076332092 7.84330368042
vertex -0.377889871597 4.30076313019 7.84330368042
vertex -0.377878665924 4.35076332092 11.4343042374
endloop
endfacet
facet normal -0.0032281447202 -0.999994814396 0.0
outer loop
vertex -0.053071025759 4.30010509491 7.84330368042
vertex -0.161343678832 4.30045461655 11.4343042374
vertex -0.161343678832 4.30045461655 7.84330368042
endloop
endfacet
facet normal -0.0032281447202 -0.999994814396 -0.0
outer loop
vertex -0.053071025759 4.30010509491 11.4343042374
vertex -0.161343678832 4.30045461655 11.4343042374
vertex -0.053071025759 4.30010509491 7.84330368042
endloop
endfacet
facet normal -0.00202584825456 -0.999997913837 0.0
outer loop
vertex -0.161343678832 4.30045461655 7.84330368042
vertex -0.269616663456 4.30067396164 11.4343042374
vertex -0.269616663456 4.30067396164 7.84330368042
endloop
endfacet
facet normal -0.00202584825456 -0.999997913837 -0.0
outer loop
vertex -0.161343678832 4.30045461655 11.4343042374
vertex -0.269616663456 4.30067396164 11.4343042374
vertex -0.161343678832 4.30045461655 7.84330368042
endloop
endfacet
facet normal -0.000823551090434 -0.999999701977 0.0
outer loop
vertex -0.269616663456 4.30067396164 7.84330368042
vertex -0.377889871597 4.30076313019 11.4343042374
vertex -0.377889871597 4.30076313019 7.84330368042
endloop
endfacet
facet normal -0.000823551090434 -0.999999701977 -0.0
outer loop
vertex -0.269616663456 4.30067396164 11.4343042374
vertex -0.377889871597 4.30076313019 11.4343042374
vertex -0.269616663456 4.30067396164 7.84330368042
endloop
endfacet
facet normal 0.999992609024 -0.00383029901423 0.0
outer loop
vertex -0.053071025759 4.30010509491 11.4343042374
vertex -0.05287951231 4.35010433197 7.84330368042
vertex -0.05287951231 4.35010433197 11.4343042374
endloop
endfacet
facet normal 0.999992609024 -0.00383029901423 0.0
outer loop
vertex -0.053071025759 4.30010509491 7.84330368042
vertex -0.05287951231 4.35010433197 7.84330368042
vertex -0.053071025759 4.30010509491 11.4343042374
endloop
endfacet
facet normal 0.0 0.0 -1.0
outer loop
vertex -0.269616663456 4.30067396164 7.84330368042
vertex -0.377889871597 4.30076313019 7.84330368042
vertex -0.377878665924 4.35076332092 7.84330368042
endloop
endfacet
facet normal -0.0 0.0 -1.0
outer loop
vertex -0.269545376301 4.35067415237 7.84330368042
vertex -0.269616663456 4.30067396164 7.84330368042
vertex -0.377878665924 4.35076332092 7.84330368042
endloop
endfacet
facet normal 0.0 0.0 -1.0
outer loop
vertex -0.161343678832 4.30045461655 7.84330368042
vertex -0.269616663456 4.30067396164 7.84330368042
vertex -0.269545376301 4.35067415237 7.84330368042
endloop
endfacet
facet normal -0.0 0.0 -1.0
outer loop
vertex -0.161212265491 4.35045433044 7.84330368042
vertex -0.161343678832 4.30045461655 7.84330368042
vertex -0.269545376301 4.35067415237 7.84330368042
endloop
endfacet
facet normal 0.0 0.0 -1.0
outer loop
vertex -0.05287951231 4.35010433197 7.84330368042
vertex -0.053071025759 4.30010509491 7.84330368042
vertex -0.161343678832 4.30045461655 7.84330368042
endloop
endfacet
facet normal -0.0 0.0 -1.0
outer loop
vertex -0.05287951231 4.35010433197 7.84330368042
vertex -0.161343678832 4.30045461655 7.84330368042
vertex -0.161212265491 4.35045433044 7.84330368042
endloop
endfacet
facet normal -0.0 0.0 1.0
outer loop
vertex -0.377889871597 4.30076313019 11.4343042374
vertex -0.269616663456 4.30067396164 11.4343042374
vertex -0.377878665924 4.35076332092 11.4343042374
endloop
endfacet
facet normal 0.0 -0.0 1.0
outer loop
vertex -0.269616663456 4.30067396164 11.4343042374
vertex -0.269545376301 4.35067415237 11.4343042374
vertex -0.377878665924 4.35076332092 11.4343042374
endloop
endfacet
facet normal -0.0 0.0 1.0
outer loop
vertex -0.269616663456 4.30067396164 11.4343042374
vertex -0.161343678832 4.30045461655 11.4343042374
vertex -0.269545376301 4.35067415237 11.4343042374
endloop
endfacet
facet normal 0.0 -0.0 1.0
outer loop
vertex -0.161343678832 4.30045461655 11.4343042374
vertex -0.161212280393 4.35045433044 11.4343042374
vertex -0.269545376301 4.35067415237 11.4343042374
endloop
endfacet
facet normal -0.0 0.0 1.0
outer loop
vertex -0.161343678832 4.30045461655 11.4343042374
vertex -0.053071025759 4.30010509491 11.4343042374
vertex -0.161212280393 4.35045433044 11.4343042374
endloop
endfacet
facet normal 0.0 -0.0 1.0
outer loop
vertex -0.053071025759 4.30010509491 11.4343042374
vertex -0.05287951231 4.35010433197 11.4343042374
vertex -0.161212280393 4.35045433044 11.4343042374
endloop
endfacet
