solid 
facet normal -0.00322635378689 0.999994814396 1.32773465111e-07
outer loop
vertex 0.161217182875 4.35045480728 244.408004761
vertex 0.0528844222426 4.35010528564 244.408004761
vertex 0.0528844147921 4.35010480881 247.99899292
endloop
endfacet
facet normal -0.00323075521737 0.999994814396 0.0
outer loop
vertex 0.161217182875 4.35045480728 244.408004761
vertex 0.0528844147921 4.35010480881 247.99899292
vertex 0.161217182875 4.35045480728 247.99899292
endloop
endfacet
facet normal -0.0020291255787 0.999997913837 0.0
outer loop
vertex 0.269550293684 4.35067462921 244.408004761
vertex 0.161217182875 4.35045480728 247.99899292
vertex 0.269550293684 4.35067462921 247.99899292
endloop
endfacet
facet normal -0.0020291255787 0.999997913837 0.0
outer loop
vertex 0.269550293684 4.35067462921 244.408004761
vertex 0.161217182875 4.35045480728 244.408004761
vertex 0.161217182875 4.35045480728 247.99899292
endloop
endfacet
facet normal -0.000823094334919 0.999999701977 0.0
outer loop
vertex 0.377883583307 4.35076379776 244.408004761
vertex 0.269550293684 4.35067462921 247.99899292
vertex 0.377883583307 4.35076379776 247.99899292
endloop
endfacet
facet normal -0.000823094334919 0.999999701977 0.0
outer loop
vertex 0.377883583307 4.35076379776 244.408004761
vertex 0.269550293684 4.35067462921 244.408004761
vertex 0.269550293684 4.35067462921 247.99899292
endloop
endfacet
facet normal 1.0 0.000223516573897 0.0
outer loop
vertex 0.377894759178 4.30076360703 244.408004761
vertex 0.377883583307 4.35076379776 244.408004761
vertex 0.377883583307 4.35076379776 247.99899292
endloop
endfacet
facet normal 1.0 0.000223516573897 -0.0
outer loop
vertex 0.377894759178 4.30076360703 244.408004761
vertex 0.377883583307 4.35076379776 247.99899292
vertex 0.377894759178 4.30076360703 247.99899292
endloop
endfacet
facet normal 0.0032281447202 -0.999994814396 9.35675235209e-12
outer loop
vertex 0.0530759245157 4.30010557175 247.99899292
vertex 0.161348596215 4.30045509338 244.408004761
vertex 0.161348581314 4.30045509338 247.99899292
endloop
endfacet
facet normal 0.0032281447202 -0.999994814396 1.00466301944e-11
outer loop
vertex 0.0530759356916 4.30010557175 244.408004761
vertex 0.161348596215 4.30045509338 244.408004761
vertex 0.0530759245157 4.30010557175 247.99899292
endloop
endfacet
facet normal 0.00202584802173 -0.999997913837 0.0
outer loop
vertex 0.161348581314 4.30045509338 247.99899292
vertex 0.269621580839 4.30067443848 244.408004761
vertex 0.269621580839 4.30067443848 247.99899292
endloop
endfacet
facet normal 0.00202584825456 -0.999997913837 8.40645868888e-12
outer loop
vertex 0.161348596215 4.30045509338 244.408004761
vertex 0.269621580839 4.30067443848 244.408004761
vertex 0.161348581314 4.30045509338 247.99899292
endloop
endfacet
facet normal 0.00082355120685 -0.999999642372 0.0
outer loop
vertex 0.269621580839 4.30067443848 247.99899292
vertex 0.377894759178 4.30076360703 244.408004761
vertex 0.377894759178 4.30076360703 247.99899292
endloop
endfacet
facet normal 0.00082355120685 -0.999999642372 0.0
outer loop
vertex 0.269621580839 4.30067443848 244.408004761
vertex 0.377894759178 4.30076360703 244.408004761
vertex 0.269621580839 4.30067443848 247.99899292
endloop
endfacet
facet normal -0.999992609024 -0.00383026245981 -3.110167901e-09
outer loop
vertex 0.0528844222426 4.35010528564 244.408004761
vertex 0.0530759356916 4.30010557175 244.408004761
vertex 0.0530759245157 4.30010557175 247.99899292
endloop
endfacet
facet normal -0.999992609024 -0.00383022474125 -2.58338883619e-09
outer loop
vertex 0.0528844222426 4.35010528564 244.408004761
vertex 0.0530759245157 4.30010557175 247.99899292
vertex 0.0528844147921 4.35010480881 247.99899292
endloop
endfacet
facet normal -0.0 0.0 -1.0
outer loop
vertex 0.377894759178 4.30076360703 244.408004761
vertex 0.269621580839 4.30067443848 244.408004761
vertex 0.377883583307 4.35076379776 244.408004761
endloop
endfacet
facet normal 0.0 0.0 -1.0
outer loop
vertex 0.269621580839 4.30067443848 244.408004761
vertex 0.269550293684 4.35067462921 244.408004761
vertex 0.377883583307 4.35076379776 244.408004761
endloop
endfacet
facet normal -0.0 0.0 -1.0
outer loop
vertex 0.269621580839 4.30067443848 244.408004761
vertex 0.161348596215 4.30045509338 244.408004761
vertex 0.269550293684 4.35067462921 244.408004761
endloop
endfacet
facet normal 0.0 0.0 -1.0
outer loop
vertex 0.161348596215 4.30045509338 244.408004761
vertex 0.161217182875 4.35045480728 244.408004761
vertex 0.269550293684 4.35067462921 244.408004761
endloop
endfacet
facet normal -0.0 0.0 -1.0
outer loop
vertex 0.161348596215 4.30045509338 244.408004761
vertex 0.0530759356916 4.30010557175 244.408004761
vertex 0.161217182875 4.35045480728 244.408004761
endloop
endfacet
facet normal 0.0 0.0 -1.0
outer loop
vertex 0.0530759356916 4.30010557175 244.408004761
vertex 0.0528844222426 4.35010528564 244.408004761
vertex 0.161217182875 4.35045480728 244.408004761
endloop
endfacet
facet normal 0.0 0.0 1.0
outer loop
vertex 0.269621580839 4.30067443848 247.99899292
vertex 0.377894759178 4.30076360703 247.99899292
vertex 0.377883583307 4.35076379776 247.99899292
endloop
endfacet
facet normal -0.0 0.0 1.0
outer loop
vertex 0.269550293684 4.35067462921 247.99899292
vertex 0.269621580839 4.30067443848 247.99899292
vertex 0.377883583307 4.35076379776 247.99899292
endloop
endfacet
facet normal 0.0 0.0 1.0
outer loop
vertex 0.161348581314 4.30045509338 247.99899292
vertex 0.269621580839 4.30067443848 247.99899292
vertex 0.269550293684 4.35067462921 247.99899292
endloop
endfacet
facet normal -0.0 0.0 1.0
outer loop
vertex 0.161217182875 4.35045480728 247.99899292
vertex 0.161348581314 4.30045509338 247.99899292
vertex 0.269550293684 4.35067462921 247.99899292
endloop
endfacet
facet normal 0.0 0.0 1.0
outer loop
vertex 0.0528844147921 4.35010480881 247.99899292
vertex 0.0530759245157 4.30010557175 247.99899292
vertex 0.161348581314 4.30045509338 247.99899292
endloop
endfacet
facet normal -0.0 0.0 1.0
outer loop
vertex 0.0528844147921 4.35010480881 247.99899292
vertex 0.161348581314 4.30045509338 247.99899292
vertex 0.161217182875 4.35045480728 247.99899292
endloop
endfacet
