solid 
facet normal -0.00322635355406 0.999994814396 0.0
outer loop
vertex 0.161217227578 4.35045480728 22.3273048401
vertex 0.0528844632208 4.35010528564 22.3273048401
vertex 0.052884452045 4.35010528564 25.9183044434
endloop
endfacet
facet normal -0.00322635378689 0.999994814396 -1.33880328698e-11
outer loop
vertex 0.161217227578 4.35045480728 22.3273048401
vertex 0.052884452045 4.35010528564 25.9183044434
vertex 0.161217212677 4.35045480728 25.9183044434
endloop
endfacet
facet normal -0.00202912534587 0.999997913837 0.0
outer loop
vertex 0.269550323486 4.35067462921 22.3273048401
vertex 0.161217212677 4.35045480728 25.9183044434
vertex 0.269550323486 4.35067462921 25.9183044434
endloop
endfacet
facet normal -0.00202912581153 0.999997913837 -4.67576585089e-12
outer loop
vertex 0.269550323486 4.35067462921 22.3273048401
vertex 0.161217227578 4.35045480728 22.3273048401
vertex 0.161217212677 4.35045480728 25.9183044434
endloop
endfacet
facet normal -0.000823094276711 0.999999642372 0.0
outer loop
vertex 0.37788361311 4.35076379776 22.3273048401
vertex 0.269550323486 4.35067462921 25.9183044434
vertex 0.37788361311 4.35076379776 25.9183044434
endloop
endfacet
facet normal -0.000823094276711 0.999999642372 0.0
outer loop
vertex 0.37788361311 4.35076379776 22.3273048401
vertex 0.269550323486 4.35067462921 22.3273048401
vertex 0.269550323486 4.35067462921 25.9183044434
endloop
endfacet
facet normal 1.0 0.000224114744924 0.0
outer loop
vertex 0.377894818783 4.30076408386 22.3273048401
vertex 0.37788361311 4.35076379776 22.3273048401
vertex 0.37788361311 4.35076379776 25.9183044434
endloop
endfacet
facet normal 1.0 0.000223516573897 8.32885227453e-09
outer loop
vertex 0.377894818783 4.30076408386 22.3273048401
vertex 0.37788361311 4.35076379776 25.9183044434
vertex 0.37789478898 4.30076360703 25.9183044434
endloop
endfacet
facet normal 0.00322814495303 -0.999994814396 1.87134474583e-11
outer loop
vertex 0.0530759654939 4.30010557175 25.9183044434
vertex 0.161348626018 4.30045509338 22.3273048401
vertex 0.161348611116 4.30045509338 25.9183044434
endloop
endfacet
facet normal 0.0032281447202 -0.999994814396 6.6977322126e-12
outer loop
vertex 0.0530759729445 4.30010557175 22.3273048401
vertex 0.161348626018 4.30045509338 22.3273048401
vertex 0.0530759654939 4.30010557175 25.9183044434
endloop
endfacet
facet normal 0.00202584802173 -0.999997913837 0.0
outer loop
vertex 0.161348611116 4.30045509338 25.9183044434
vertex 0.269621610641 4.30067443848 22.3273048401
vertex 0.269621610641 4.30067443848 25.9183044434
endloop
endfacet
facet normal 0.00202584825456 -0.999997913837 8.40643093331e-12
outer loop
vertex 0.161348626018 4.30045509338 22.3273048401
vertex 0.269621610641 4.30067443848 22.3273048401
vertex 0.161348611116 4.30045509338 25.9183044434
endloop
endfacet
facet normal 0.000823551323265 -0.999999701977 -1.32781266871e-07
outer loop
vertex 0.269621610641 4.30067443848 25.9183044434
vertex 0.377894818783 4.30076408386 22.3273048401
vertex 0.37789478898 4.30076360703 25.9183044434
endloop
endfacet
facet normal 0.000827955082059 -0.999999701977 0.0
outer loop
vertex 0.269621610641 4.30067443848 22.3273048401
vertex 0.377894818783 4.30076408386 22.3273048401
vertex 0.269621610641 4.30067443848 25.9183044434
endloop
endfacet
facet normal -0.999992668629 -0.00383018841967 -2.07175054889e-09
outer loop
vertex 0.0528844632208 4.35010528564 22.3273048401
vertex 0.0530759729445 4.30010557175 22.3273048401
vertex 0.0530759654939 4.30010557175 25.9183044434
endloop
endfacet
facet normal -0.999992668629 -0.00383026269265 -3.11216674653e-09
outer loop
vertex 0.0528844632208 4.35010528564 22.3273048401
vertex 0.0530759654939 4.30010557175 25.9183044434
vertex 0.052884452045 4.35010528564 25.9183044434
endloop
endfacet
facet normal -0.0 0.0 -1.0
outer loop
vertex 0.377894818783 4.30076408386 22.3273048401
vertex 0.269621610641 4.30067443848 22.3273048401
vertex 0.37788361311 4.35076379776 22.3273048401
endloop
endfacet
facet normal 0.0 0.0 -1.0
outer loop
vertex 0.269621610641 4.30067443848 22.3273048401
vertex 0.269550323486 4.35067462921 22.3273048401
vertex 0.37788361311 4.35076379776 22.3273048401
endloop
endfacet
facet normal -0.0 0.0 -1.0
outer loop
vertex 0.269621610641 4.30067443848 22.3273048401
vertex 0.161348626018 4.30045509338 22.3273048401
vertex 0.269550323486 4.35067462921 22.3273048401
endloop
endfacet
facet normal 0.0 0.0 -1.0
outer loop
vertex 0.161348626018 4.30045509338 22.3273048401
vertex 0.161217227578 4.35045480728 22.3273048401
vertex 0.269550323486 4.35067462921 22.3273048401
endloop
endfacet
facet normal -0.0 0.0 -1.0
outer loop
vertex 0.161348626018 4.30045509338 22.3273048401
vertex 0.0530759729445 4.30010557175 22.3273048401
vertex 0.161217227578 4.35045480728 22.3273048401
endloop
endfacet
facet normal 0.0 0.0 -1.0
outer loop
vertex 0.0530759729445 4.30010557175 22.3273048401
vertex 0.0528844632208 4.35010528564 22.3273048401
vertex 0.161217227578 4.35045480728 22.3273048401
endloop
endfacet
facet normal 0.0 0.0 1.0
outer loop
vertex 0.269621610641 4.30067443848 25.9183044434
vertex 0.37789478898 4.30076360703 25.9183044434
vertex 0.37788361311 4.35076379776 25.9183044434
endloop
endfacet
facet normal -0.0 0.0 1.0
outer loop
vertex 0.269550323486 4.35067462921 25.9183044434
vertex 0.269621610641 4.30067443848 25.9183044434
vertex 0.37788361311 4.35076379776 25.9183044434
endloop
endfacet
facet normal 0.0 0.0 1.0
outer loop
vertex 0.161348611116 4.30045509338 25.9183044434
vertex 0.269621610641 4.30067443848 25.9183044434
vertex 0.269550323486 4.35067462921 25.9183044434
endloop
endfacet
facet normal -0.0 0.0 1.0
outer loop
vertex 0.161217212677 4.35045480728 25.9183044434
vertex 0.161348611116 4.30045509338 25.9183044434
vertex 0.269550323486 4.35067462921 25.9183044434
endloop
endfacet
facet normal 0.0 0.0 1.0
outer loop
vertex 0.0530759654939 4.30010557175 25.9183044434
vertex 0.161348611116 4.30045509338 25.9183044434
vertex 0.161217212677 4.35045480728 25.9183044434
endloop
endfacet
facet normal -0.0 0.0 1.0
outer loop
vertex 0.052884452045 4.35010528564 25.9183044434
vertex 0.0530759654939 4.30010557175 25.9183044434
vertex 0.161217212677 4.35045480728 25.9183044434
endloop
endfacet
