solid 
facet normal 0.208717986941 -0.977975845337 0.0
outer loop
vertex 19.2597084045 -2.3547270298 -223.224914551
vertex 19.15376091 -2.37733817101 -223.224914551
vertex 19.15376091 -2.37733817101 -226.81590271
endloop
endfacet
facet normal 0.208717986941 -0.977975845337 0.0
outer loop
vertex 19.2597084045 -2.3547270298 -223.224914551
vertex 19.15376091 -2.37733817101 -226.81590271
vertex 19.2597084045 -2.3547270298 -226.81590271
endloop
endfacet
facet normal 0.209892183542 -0.977724552155 0.0
outer loop
vertex 19.3656291962 -2.33198857307 -223.224914551
vertex 19.2597084045 -2.3547270298 -226.81590271
vertex 19.3656291962 -2.33198857307 -226.81590271
endloop
endfacet
facet normal 0.211069688201 -0.977470993996 0.0
outer loop
vertex 19.3656291962 -2.33198857307 -223.224914551
vertex 19.3656291962 -2.33198857307 -226.81590271
vertex 19.4715213776 -2.30912280083 -226.81590271
endloop
endfacet
facet normal 0.209892183542 -0.977724552155 0.0
outer loop
vertex 19.3656291962 -2.33198857307 -223.224914551
vertex 19.2597084045 -2.3547270298 -223.224914551
vertex 19.2597084045 -2.3547270298 -226.81590271
endloop
endfacet
facet normal 0.211069688201 -0.977470993996 0.0
outer loop
vertex 19.4715213776 -2.30912280083 -223.224914551
vertex 19.3656291962 -2.33198857307 -223.224914551
vertex 19.4715213776 -2.30912280083 -226.81590271
endloop
endfacet
facet normal 0.977347671986 0.21164008975 0.0
outer loop
vertex 19.4609394073 -2.26025557518 -223.224914551
vertex 19.4715213776 -2.30912280083 -223.224914551
vertex 19.4715213776 -2.30912280083 -226.81590271
endloop
endfacet
facet normal 0.977347671986 0.21164008975 0.0
outer loop
vertex 19.4609394073 -2.26025557518 -223.224914551
vertex 19.4715213776 -2.30912280083 -226.81590271
vertex 19.4609394073 -2.26025557518 -226.81590271
endloop
endfacet
facet normal -0.208719968796 0.977975428104 0.0
outer loop
vertex 19.1433544159 -2.32843327522 -226.81590271
vertex 19.1433544159 -2.32843327522 -223.224914551
vertex 19.2492427826 -2.30583453178 -226.81590271
endloop
endfacet
facet normal -0.208716362715 0.977976202965 1.10782231388e-07
outer loop
vertex 19.1433544159 -2.32843327522 -223.224914551
vertex 19.2492446899 -2.30583453178 -223.224914551
vertex 19.2492427826 -2.30583453178 -226.81590271
endloop
endfacet
facet normal -0.209892690182 0.977724432945 0.0
outer loop
vertex 19.2492427826 -2.30583453178 -226.81590271
vertex 19.3551044464 -2.28310871124 -223.224914551
vertex 19.3551044464 -2.28310871124 -226.81590271
endloop
endfacet
facet normal -0.209896311164 0.977723658085 1.1148614476e-07
outer loop
vertex 19.2492446899 -2.30583453178 -223.224914551
vertex 19.3551044464 -2.28310871124 -223.224914551
vertex 19.2492427826 -2.30583453178 -226.81590271
endloop
endfacet
facet normal -0.211067214608 0.977471530437 0.0
outer loop
vertex 19.3551044464 -2.28310871124 -226.81590271
vertex 19.4609394073 -2.26025557518 -223.224914551
vertex 19.4609394073 -2.26025557518 -226.81590271
endloop
endfacet
facet normal -0.211067214608 0.977471530437 0.0
outer loop
vertex 19.3551044464 -2.28310871124 -223.224914551
vertex 19.4609394073 -2.26025557518 -223.224914551
vertex 19.3551044464 -2.28310871124 -226.81590271
endloop
endfacet
facet normal -0.978101074696 -0.208130553365 -0.0
outer loop
vertex 19.1433544159 -2.32843327522 -223.224914551
vertex 19.1433544159 -2.32843327522 -226.81590271
vertex 19.15376091 -2.37733817101 -226.81590271
endloop
endfacet
facet normal -0.978101074696 -0.208130553365 -0.0
outer loop
vertex 19.15376091 -2.37733817101 -223.224914551
vertex 19.1433544159 -2.32843327522 -223.224914551
vertex 19.15376091 -2.37733817101 -226.81590271
endloop
endfacet
facet normal 0.0 0.0 1.0
outer loop
vertex 19.4609394073 -2.26025557518 -223.224914551
vertex 19.3551044464 -2.28310871124 -223.224914551
vertex 19.4715213776 -2.30912280083 -223.224914551
endloop
endfacet
facet normal 0.0 0.0 1.0
outer loop
vertex 19.3551044464 -2.28310871124 -223.224914551
vertex 19.3656291962 -2.33198857307 -223.224914551
vertex 19.4715213776 -2.30912280083 -223.224914551
endloop
endfacet
facet normal -0.0 0.0 1.0
outer loop
vertex 19.2492446899 -2.30583453178 -223.224914551
vertex 19.2597084045 -2.3547270298 -223.224914551
vertex 19.3551044464 -2.28310871124 -223.224914551
endloop
endfacet
facet normal 0.0 0.0 1.0
outer loop
vertex 19.3551044464 -2.28310871124 -223.224914551
vertex 19.2597084045 -2.3547270298 -223.224914551
vertex 19.3656291962 -2.33198857307 -223.224914551
endloop
endfacet
facet normal -0.0 0.0 1.0
outer loop
vertex 19.1433544159 -2.32843327522 -223.224914551
vertex 19.15376091 -2.37733817101 -223.224914551
vertex 19.2492446899 -2.30583453178 -223.224914551
endloop
endfacet
facet normal 0.0 0.0 1.0
outer loop
vertex 19.2492446899 -2.30583453178 -223.224914551
vertex 19.15376091 -2.37733817101 -223.224914551
vertex 19.2597084045 -2.3547270298 -223.224914551
endloop
endfacet
facet normal 0.0 0.0 -1.0
outer loop
vertex 19.3551044464 -2.28310871124 -226.81590271
vertex 19.4609394073 -2.26025557518 -226.81590271
vertex 19.4715213776 -2.30912280083 -226.81590271
endloop
endfacet
facet normal 0.0 0.0 -1.0
outer loop
vertex 19.3656291962 -2.33198857307 -226.81590271
vertex 19.3551044464 -2.28310871124 -226.81590271
vertex 19.4715213776 -2.30912280083 -226.81590271
endloop
endfacet
facet normal 0.0 0.0 -1.0
outer loop
vertex 19.2597084045 -2.3547270298 -226.81590271
vertex 19.2492427826 -2.30583453178 -226.81590271
vertex 19.3551044464 -2.28310871124 -226.81590271
endloop
endfacet
facet normal 0.0 0.0 -1.0
outer loop
vertex 19.2597084045 -2.3547270298 -226.81590271
vertex 19.3551044464 -2.28310871124 -226.81590271
vertex 19.3656291962 -2.33198857307 -226.81590271
endloop
endfacet
facet normal 0.0 0.0 -1.0
outer loop
vertex 19.15376091 -2.37733817101 -226.81590271
vertex 19.1433544159 -2.32843327522 -226.81590271
vertex 19.2492427826 -2.30583453178 -226.81590271
endloop
endfacet
facet normal 0.0 0.0 -1.0
outer loop
vertex 19.15376091 -2.37733817101 -226.81590271
vertex 19.2492427826 -2.30583453178 -226.81590271
vertex 19.2597084045 -2.3547270298 -226.81590271
endloop
endfacet
