solid 
facet normal -0.00322635355406 -0.999994814396 0.0
outer loop
vertex 0.161217227578 -4.35045480728 -30.4751224518
vertex 0.0528844632208 -4.35010528564 -30.4751224518
vertex 0.052884452045 -4.35010528564 -34.0661239624
endloop
endfacet
facet normal -0.00322635401972 -0.999994814396 1.33880259309e-11
outer loop
vertex 0.161217227578 -4.35045480728 -30.4751224518
vertex 0.052884452045 -4.35010528564 -34.0661239624
vertex 0.161217212677 -4.35045480728 -34.0661239624
endloop
endfacet
facet normal -0.00202912534587 -0.999997913837 -0.0
outer loop
vertex 0.269550323486 -4.35067462921 -30.4751224518
vertex 0.161217212677 -4.35045480728 -34.0661239624
vertex 0.269550323486 -4.35067462921 -34.0661239624
endloop
endfacet
facet normal -0.0020291255787 -0.999997913837 4.67576324881e-12
outer loop
vertex 0.269550323486 -4.35067462921 -30.4751224518
vertex 0.161217227578 -4.35045480728 -30.4751224518
vertex 0.161217212677 -4.35045480728 -34.0661239624
endloop
endfacet
facet normal -0.000823094334919 -0.999999642372 -0.0
outer loop
vertex 0.37788361311 -4.35076379776 -30.4751224518
vertex 0.269550323486 -4.35067462921 -34.0661239624
vertex 0.37788361311 -4.35076379776 -34.0661239624
endloop
endfacet
facet normal -0.000823094334919 -0.999999642372 0.0
outer loop
vertex 0.37788361311 -4.35076379776 -30.4751224518
vertex 0.269550323486 -4.35067462921 -30.4751224518
vertex 0.269550323486 -4.35067462921 -34.0661239624
endloop
endfacet
facet normal 1.0 -0.000224114744924 0.0
outer loop
vertex 0.377894818783 -4.30076408386 -30.4751224518
vertex 0.37788361311 -4.35076379776 -30.4751224518
vertex 0.37788361311 -4.35076379776 -34.0661239624
endloop
endfacet
facet normal 1.0 -0.000223516559345 -8.32884694546e-09
outer loop
vertex 0.377894818783 -4.30076408386 -30.4751224518
vertex 0.37788361311 -4.35076379776 -34.0661239624
vertex 0.37789478898 -4.30076360703 -34.0661239624
endloop
endfacet
facet normal 0.00322814541869 0.999994814396 -1.87134387847e-11
outer loop
vertex 0.0530759654939 -4.30010557175 -34.0661239624
vertex 0.161348626018 -4.30045509338 -30.4751224518
vertex 0.161348611116 -4.30045509338 -34.0661239624
endloop
endfacet
facet normal 0.00322814495303 0.999994814396 -6.69772874315e-12
outer loop
vertex 0.0530759729445 -4.30010557175 -30.4751224518
vertex 0.161348626018 -4.30045509338 -30.4751224518
vertex 0.0530759654939 -4.30010557175 -34.0661239624
endloop
endfacet
facet normal 0.00202584802173 0.999997913837 0.0
outer loop
vertex 0.161348611116 -4.30045509338 -34.0661239624
vertex 0.269621610641 -4.30067443848 -30.4751224518
vertex 0.269621610641 -4.30067443848 -34.0661239624
endloop
endfacet
facet normal 0.00202584825456 0.999997913837 -8.4064265965e-12
outer loop
vertex 0.161348626018 -4.30045509338 -30.4751224518
vertex 0.269621610641 -4.30067443848 -30.4751224518
vertex 0.161348611116 -4.30045509338 -34.0661239624
endloop
endfacet
facet normal 0.000823551323265 0.999999701977 1.32781195816e-07
outer loop
vertex 0.269621610641 -4.30067443848 -34.0661239624
vertex 0.377894818783 -4.30076408386 -30.4751224518
vertex 0.37789478898 -4.30076360703 -34.0661239624
endloop
endfacet
facet normal 0.000827955082059 0.999999701977 0.0
outer loop
vertex 0.269621610641 -4.30067443848 -30.4751224518
vertex 0.377894818783 -4.30076408386 -30.4751224518
vertex 0.269621610641 -4.30067443848 -34.0661239624
endloop
endfacet
facet normal -0.999992668629 0.00383018818684 2.07174921663e-09
outer loop
vertex 0.0528844632208 -4.35010528564 -30.4751224518
vertex 0.0530759729445 -4.30010557175 -30.4751224518
vertex 0.0530759654939 -4.30010557175 -34.0661239624
endloop
endfacet
facet normal -0.999992668629 0.00383026292548 3.11216497018e-09
outer loop
vertex 0.0528844632208 -4.35010528564 -30.4751224518
vertex 0.0530759654939 -4.30010557175 -34.0661239624
vertex 0.052884452045 -4.35010528564 -34.0661239624
endloop
endfacet
facet normal 0.0 0.0 1.0
outer loop
vertex 0.377894818783 -4.30076408386 -30.4751224518
vertex 0.269621610641 -4.30067443848 -30.4751224518
vertex 0.37788361311 -4.35076379776 -30.4751224518
endloop
endfacet
facet normal 0.0 0.0 1.0
outer loop
vertex 0.269621610641 -4.30067443848 -30.4751224518
vertex 0.269550323486 -4.35067462921 -30.4751224518
vertex 0.37788361311 -4.35076379776 -30.4751224518
endloop
endfacet
facet normal 0.0 0.0 1.0
outer loop
vertex 0.269621610641 -4.30067443848 -30.4751224518
vertex 0.161348626018 -4.30045509338 -30.4751224518
vertex 0.269550323486 -4.35067462921 -30.4751224518
endloop
endfacet
facet normal 0.0 0.0 1.0
outer loop
vertex 0.161348626018 -4.30045509338 -30.4751224518
vertex 0.161217227578 -4.35045480728 -30.4751224518
vertex 0.269550323486 -4.35067462921 -30.4751224518
endloop
endfacet
facet normal 0.0 0.0 1.0
outer loop
vertex 0.161348626018 -4.30045509338 -30.4751224518
vertex 0.0530759729445 -4.30010557175 -30.4751224518
vertex 0.161217227578 -4.35045480728 -30.4751224518
endloop
endfacet
facet normal 0.0 0.0 1.0
outer loop
vertex 0.0530759729445 -4.30010557175 -30.4751224518
vertex 0.0528844632208 -4.35010528564 -30.4751224518
vertex 0.161217227578 -4.35045480728 -30.4751224518
endloop
endfacet
facet normal 0.0 0.0 -1.0
outer loop
vertex 0.269621610641 -4.30067443848 -34.0661239624
vertex 0.37789478898 -4.30076360703 -34.0661239624
vertex 0.37788361311 -4.35076379776 -34.0661239624
endloop
endfacet
facet normal 0.0 0.0 -1.0
outer loop
vertex 0.269550323486 -4.35067462921 -34.0661239624
vertex 0.269621610641 -4.30067443848 -34.0661239624
vertex 0.37788361311 -4.35076379776 -34.0661239624
endloop
endfacet
facet normal 0.0 0.0 -1.0
outer loop
vertex 0.161348611116 -4.30045509338 -34.0661239624
vertex 0.269621610641 -4.30067443848 -34.0661239624
vertex 0.269550323486 -4.35067462921 -34.0661239624
endloop
endfacet
facet normal 0.0 0.0 -1.0
outer loop
vertex 0.161217212677 -4.35045480728 -34.0661239624
vertex 0.161348611116 -4.30045509338 -34.0661239624
vertex 0.269550323486 -4.35067462921 -34.0661239624
endloop
endfacet
facet normal 0.0 0.0 -1.0
outer loop
vertex 0.0530759654939 -4.30010557175 -34.0661239624
vertex 0.161348611116 -4.30045509338 -34.0661239624
vertex 0.161217212677 -4.35045480728 -34.0661239624
endloop
endfacet
facet normal 0.0 0.0 -1.0
outer loop
vertex 0.052884452045 -4.35010528564 -34.0661239624
vertex 0.0530759654939 -4.30010557175 -34.0661239624
vertex 0.161217212677 -4.35045480728 -34.0661239624
endloop
endfacet
