solid 
facet normal 0.00323075568303 -0.999994814396 0.0
outer loop
vertex -0.161212265491 -4.35045433044 331.219573975
vertex -0.05287951231 -4.35010433197 331.219573975
vertex -0.05287951231 -4.35010433197 334.810577393
endloop
endfacet
facet normal 0.00323075498454 -0.999994814396 1.34062821608e-11
outer loop
vertex -0.161212265491 -4.35045433044 331.219573975
vertex -0.05287951231 -4.35010433197 334.810577393
vertex -0.161212280393 -4.35045433044 334.810577393
endloop
endfacet
facet normal 0.00202912581153 -0.999997913837 0.0
outer loop
vertex -0.269545376301 -4.35067415237 331.219573975
vertex -0.161212280393 -4.35045433044 334.810577393
vertex -0.269545376301 -4.35067415237 334.810577393
endloop
endfacet
facet normal 0.0020291255787 -0.999997913837 4.67576021304e-12
outer loop
vertex -0.269545376301 -4.35067415237 331.219573975
vertex -0.161212265491 -4.35045433044 331.219573975
vertex -0.161212280393 -4.35045433044 334.810577393
endloop
endfacet
facet normal 0.000823094334919 -0.999999642372 0.0
outer loop
vertex -0.377878665924 -4.35076332092 331.219573975
vertex -0.269545376301 -4.35067415237 334.810577393
vertex -0.377878665924 -4.35076332092 334.810577393
endloop
endfacet
facet normal 0.000823094334919 -0.999999642372 0.0
outer loop
vertex -0.377878665924 -4.35076332092 331.219573975
vertex -0.269545376301 -4.35067415237 331.219573975
vertex -0.269545376301 -4.35067415237 334.810577393
endloop
endfacet
facet normal -1.0 -0.000224112605792 0.0
outer loop
vertex -0.377889871597 -4.30076313019 331.219573975
vertex -0.377878665924 -4.35076332092 331.219573975
vertex -0.377878665924 -4.35076332092 334.810577393
endloop
endfacet
facet normal -1.0 -0.000224112605792 0.0
outer loop
vertex -0.377889871597 -4.30076313019 331.219573975
vertex -0.377878665924 -4.35076332092 334.810577393
vertex -0.377889871597 -4.30076313019 334.810577393
endloop
endfacet
facet normal -0.00322814495303 0.999994814396 0.0
outer loop
vertex -0.053071025759 -4.30010509491 334.810577393
vertex -0.161343678832 -4.30045461655 331.219573975
vertex -0.161343678832 -4.30045461655 334.810577393
endloop
endfacet
facet normal -0.00322814495303 0.999994814396 0.0
outer loop
vertex -0.053071025759 -4.30010509491 331.219573975
vertex -0.161343678832 -4.30045461655 331.219573975
vertex -0.053071025759 -4.30010509491 334.810577393
endloop
endfacet
facet normal -0.00202584825456 0.999997913837 0.0
outer loop
vertex -0.161343678832 -4.30045461655 334.810577393
vertex -0.269616663456 -4.30067396164 331.219573975
vertex -0.269616663456 -4.30067396164 334.810577393
endloop
endfacet
facet normal -0.00202584825456 0.999997913837 0.0
outer loop
vertex -0.161343678832 -4.30045461655 331.219573975
vertex -0.269616663456 -4.30067396164 331.219573975
vertex -0.161343678832 -4.30045461655 334.810577393
endloop
endfacet
facet normal -0.000823551090434 0.999999701977 0.0
outer loop
vertex -0.269616663456 -4.30067396164 334.810577393
vertex -0.377889871597 -4.30076313019 331.219573975
vertex -0.377889871597 -4.30076313019 334.810577393
endloop
endfacet
facet normal -0.000823551090434 0.999999701977 0.0
outer loop
vertex -0.269616663456 -4.30067396164 331.219573975
vertex -0.377889871597 -4.30076313019 331.219573975
vertex -0.269616663456 -4.30067396164 334.810577393
endloop
endfacet
facet normal 0.999992609024 0.00383029901423 0.0
outer loop
vertex -0.05287951231 -4.35010433197 331.219573975
vertex -0.053071025759 -4.30010509491 331.219573975
vertex -0.053071025759 -4.30010509491 334.810577393
endloop
endfacet
facet normal 0.999992609024 0.00383029901423 -0.0
outer loop
vertex -0.05287951231 -4.35010433197 331.219573975
vertex -0.053071025759 -4.30010509491 334.810577393
vertex -0.05287951231 -4.35010433197 334.810577393
endloop
endfacet
facet normal 0.0 0.0 -1.0
outer loop
vertex -0.377889871597 -4.30076313019 331.219573975
vertex -0.269616663456 -4.30067396164 331.219573975
vertex -0.377878665924 -4.35076332092 331.219573975
endloop
endfacet
facet normal 0.0 -0.0 -1.0
outer loop
vertex -0.269616663456 -4.30067396164 331.219573975
vertex -0.269545376301 -4.35067415237 331.219573975
vertex -0.377878665924 -4.35076332092 331.219573975
endloop
endfacet
facet normal 0.0 0.0 -1.0
outer loop
vertex -0.269616663456 -4.30067396164 331.219573975
vertex -0.161343678832 -4.30045461655 331.219573975
vertex -0.269545376301 -4.35067415237 331.219573975
endloop
endfacet
facet normal 0.0 -0.0 -1.0
outer loop
vertex -0.161343678832 -4.30045461655 331.219573975
vertex -0.161212265491 -4.35045433044 331.219573975
vertex -0.269545376301 -4.35067415237 331.219573975
endloop
endfacet
facet normal 0.0 0.0 -1.0
outer loop
vertex -0.161343678832 -4.30045461655 331.219573975
vertex -0.053071025759 -4.30010509491 331.219573975
vertex -0.161212265491 -4.35045433044 331.219573975
endloop
endfacet
facet normal 0.0 -0.0 -1.0
outer loop
vertex -0.053071025759 -4.30010509491 331.219573975
vertex -0.05287951231 -4.35010433197 331.219573975
vertex -0.161212265491 -4.35045433044 331.219573975
endloop
endfacet
facet normal 0.0 0.0 1.0
outer loop
vertex -0.269616663456 -4.30067396164 334.810577393
vertex -0.377889871597 -4.30076313019 334.810577393
vertex -0.377878665924 -4.35076332092 334.810577393
endloop
endfacet
facet normal 0.0 0.0 1.0
outer loop
vertex -0.269545376301 -4.35067415237 334.810577393
vertex -0.269616663456 -4.30067396164 334.810577393
vertex -0.377878665924 -4.35076332092 334.810577393
endloop
endfacet
facet normal 0.0 0.0 1.0
outer loop
vertex -0.161343678832 -4.30045461655 334.810577393
vertex -0.269616663456 -4.30067396164 334.810577393
vertex -0.269545376301 -4.35067415237 334.810577393
endloop
endfacet
facet normal 0.0 0.0 1.0
outer loop
vertex -0.161212280393 -4.35045433044 334.810577393
vertex -0.161343678832 -4.30045461655 334.810577393
vertex -0.269545376301 -4.35067415237 334.810577393
endloop
endfacet
facet normal 0.0 0.0 1.0
outer loop
vertex -0.05287951231 -4.35010433197 334.810577393
vertex -0.053071025759 -4.30010509491 334.810577393
vertex -0.161343678832 -4.30045461655 334.810577393
endloop
endfacet
facet normal 0.0 0.0 1.0
outer loop
vertex -0.05287951231 -4.35010433197 334.810577393
vertex -0.161343678832 -4.30045461655 334.810577393
vertex -0.161212280393 -4.35045433044 334.810577393
endloop
endfacet
