solid 
facet normal -0.208718001842 0.977975904942 0.0
outer loop
vertex -19.1537761688 2.37733578682 76.4323043823
vertex -19.1537761688 2.37733578682 72.8413085938
vertex -19.2597236633 2.35472464561 72.8413085938
endloop
endfacet
facet normal -0.209892198443 0.977724552155 0.0
outer loop
vertex -19.2597236633 2.35472464561 76.4323043823
vertex -19.2597236633 2.35472464561 72.8413085938
vertex -19.365644455 2.33198618889 72.8413085938
endloop
endfacet
facet normal -0.208718001842 0.977975904942 0.0
outer loop
vertex -19.2597236633 2.35472464561 76.4323043823
vertex -19.1537761688 2.37733578682 76.4323043823
vertex -19.2597236633 2.35472464561 72.8413085938
endloop
endfacet
facet normal -0.209894299507 0.977724134922 6.49144737963e-08
outer loop
vertex -19.365644455 2.33198595047 76.4323043823
vertex -19.2597236633 2.35472464561 76.4323043823
vertex -19.365644455 2.33198618889 72.8413085938
endloop
endfacet
facet normal -0.211071774364 0.977470517159 0.0
outer loop
vertex -19.4715366364 2.30912017822 76.4323043823
vertex -19.365644455 2.33198618889 72.8413085938
vertex -19.4715366364 2.30912017822 72.8413085938
endloop
endfacet
facet normal -0.2110696733 0.977470993996 6.52366622944e-08
outer loop
vertex -19.4715366364 2.30912017822 76.4323043823
vertex -19.365644455 2.33198595047 76.4323043823
vertex -19.365644455 2.33198618889 72.8413085938
endloop
endfacet
facet normal -0.97734773159 -0.21164008975 0.0
outer loop
vertex -19.4715366364 2.30912017822 76.4323043823
vertex -19.4609546661 2.26025295258 72.8413085938
vertex -19.4609546661 2.26025295258 76.4323043823
endloop
endfacet
facet normal -0.97734773159 -0.21164008975 0.0
outer loop
vertex -19.4715366364 2.30912017822 72.8413085938
vertex -19.4609546661 2.26025295258 72.8413085938
vertex -19.4715366364 2.30912017822 76.4323043823
endloop
endfacet
facet normal 0.208719968796 -0.977975487709 0.0
outer loop
vertex -19.1433696747 2.32843089104 72.8413085938
vertex -19.2492580414 2.3058321476 76.4323043823
vertex -19.2492580414 2.3058321476 72.8413085938
endloop
endfacet
facet normal 0.208717852831 -0.977975845337 -6.49311857615e-08
outer loop
vertex -19.1433696747 2.32843065262 76.4323043823
vertex -19.2492580414 2.3058321476 76.4323043823
vertex -19.1433696747 2.32843089104 72.8413085938
endloop
endfacet
facet normal 0.209892675281 -0.977724373341 -6.46735500709e-08
outer loop
vertex -19.2492580414 2.3058321476 72.8413085938
vertex -19.3551197052 2.28310608864 76.4323043823
vertex -19.3551197052 2.28310632706 72.8413085938
endloop
endfacet
facet normal 0.209894791245 -0.977723956108 0.0
outer loop
vertex -19.2492580414 2.3058321476 76.4323043823
vertex -19.3551197052 2.28310608864 76.4323043823
vertex -19.2492580414 2.3058321476 72.8413085938
endloop
endfacet
facet normal 0.211069315672 -0.9774710536 0.0
outer loop
vertex -19.3551197052 2.28310632706 72.8413085938
vertex -19.4609546661 2.26025295258 76.4323043823
vertex -19.4609546661 2.26025295258 72.8413085938
endloop
endfacet
facet normal 0.211067229509 -0.977471590042 -6.48977049877e-08
outer loop
vertex -19.3551197052 2.28310608864 76.4323043823
vertex -19.4609546661 2.26025295258 76.4323043823
vertex -19.3551197052 2.28310632706 72.8413085938
endloop
endfacet
facet normal 0.97810125351 0.208129569888 1.38184397258e-08
outer loop
vertex -19.1433696747 2.32843065262 76.4323043823
vertex -19.1433696747 2.32843089104 72.8413085938
vertex -19.1537761688 2.37733578682 76.4323043823
endloop
endfacet
facet normal 0.978101074696 0.208130538464 0.0
outer loop
vertex -19.1433696747 2.32843089104 72.8413085938
vertex -19.1537761688 2.37733578682 72.8413085938
vertex -19.1537761688 2.37733578682 76.4323043823
endloop
endfacet
facet normal -0.0 0.0 -1.0
outer loop
vertex -19.3551197052 2.28310632706 72.8413085938
vertex -19.4609546661 2.26025295258 72.8413085938
vertex -19.4715366364 2.30912017822 72.8413085938
endloop
endfacet
facet normal 0.0 -0.0 -1.0
outer loop
vertex -19.365644455 2.33198618889 72.8413085938
vertex -19.3551197052 2.28310632706 72.8413085938
vertex -19.4715366364 2.30912017822 72.8413085938
endloop
endfacet
facet normal -0.0 0.0 -1.0
outer loop
vertex -19.2492580414 2.3058321476 72.8413085938
vertex -19.3551197052 2.28310632706 72.8413085938
vertex -19.365644455 2.33198618889 72.8413085938
endloop
endfacet
facet normal 0.0 -0.0 -1.0
outer loop
vertex -19.2597236633 2.35472464561 72.8413085938
vertex -19.2492580414 2.3058321476 72.8413085938
vertex -19.365644455 2.33198618889 72.8413085938
endloop
endfacet
facet normal -0.0 0.0 -1.0
outer loop
vertex -19.1433696747 2.32843089104 72.8413085938
vertex -19.2492580414 2.3058321476 72.8413085938
vertex -19.2597236633 2.35472464561 72.8413085938
endloop
endfacet
facet normal 0.0 -0.0 -1.0
outer loop
vertex -19.1537761688 2.37733578682 72.8413085938
vertex -19.1433696747 2.32843089104 72.8413085938
vertex -19.2597236633 2.35472464561 72.8413085938
endloop
endfacet
facet normal 0.0 -0.0 1.0
outer loop
vertex -19.4609546661 2.26025295258 76.4323043823
vertex -19.3551197052 2.28310608864 76.4323043823
vertex -19.4715366364 2.30912017822 76.4323043823
endloop
endfacet
facet normal 0.0 0.0 1.0
outer loop
vertex -19.3551197052 2.28310608864 76.4323043823
vertex -19.365644455 2.33198595047 76.4323043823
vertex -19.4715366364 2.30912017822 76.4323043823
endloop
endfacet
facet normal 0.0 0.0 1.0
outer loop
vertex -19.2492580414 2.3058321476 76.4323043823
vertex -19.2597236633 2.35472464561 76.4323043823
vertex -19.3551197052 2.28310608864 76.4323043823
endloop
endfacet
facet normal 0.0 -0.0 1.0
outer loop
vertex -19.3551197052 2.28310608864 76.4323043823
vertex -19.2597236633 2.35472464561 76.4323043823
vertex -19.365644455 2.33198595047 76.4323043823
endloop
endfacet
facet normal 0.0 0.0 1.0
outer loop
vertex -19.1433696747 2.32843065262 76.4323043823
vertex -19.1537761688 2.37733578682 76.4323043823
vertex -19.2492580414 2.3058321476 76.4323043823
endloop
endfacet
facet normal 0.0 -0.0 1.0
outer loop
vertex -19.2492580414 2.3058321476 76.4323043823
vertex -19.1537761688 2.37733578682 76.4323043823
vertex -19.2597236633 2.35472464561 76.4323043823
endloop
endfacet
