solid 
facet normal -0.00322635425255 -0.999994814396 -1.87030443216e-11
outer loop
vertex 0.161227315664 -4.35045528412 199.81678772
vertex 0.0528945587575 -4.35010576248 199.81678772
vertex 0.0528945848346 -4.35010576248 196.225784302
endloop
endfacet
facet normal -0.00322635378689 -0.999994814396 -2.67760345146e-11
outer loop
vertex 0.161227315664 -4.35045528412 199.81678772
vertex 0.0528945848346 -4.35010576248 196.225784302
vertex 0.161227345467 -4.35045528412 196.225784302
endloop
endfacet
facet normal -0.0020291255787 -0.999997913837 -1.6840041514e-11
outer loop
vertex 0.269560426474 -4.35067510605 199.81678772
vertex 0.161227345467 -4.35045528412 196.225784302
vertex 0.269560456276 -4.35067510605 196.225784302
endloop
endfacet
facet normal -0.000823094334919 -0.999999642372 -6.83099367002e-12
outer loop
vertex 0.269560426474 -4.35067510605 199.81678772
vertex 0.269560456276 -4.35067510605 196.225784302
vertex 0.377893745899 -4.3507642746 196.225784302
endloop
endfacet
facet normal -0.0020291255787 -0.999997913837 -1.40272802054e-11
outer loop
vertex 0.269560426474 -4.35067510605 199.81678772
vertex 0.161227315664 -4.35045528412 199.81678772
vertex 0.161227345467 -4.35045528412 196.225784302
endloop
endfacet
facet normal -0.000823094334919 -0.999999642372 -6.83099367002e-12
outer loop
vertex 0.377893716097 -4.3507642746 199.81678772
vertex 0.269560426474 -4.35067510605 199.81678772
vertex 0.377893745899 -4.3507642746 196.225784302
endloop
endfacet
facet normal 1.0 -0.000223516559345 8.32876345669e-09
outer loop
vertex 0.377893716097 -4.3507642746 199.81678772
vertex 0.37790492177 -4.3007645607 196.225784302
vertex 0.377904891968 -4.30076408386 199.81678772
endloop
endfacet
facet normal 1.0 -0.000223518683924 8.2991631345e-09
outer loop
vertex 0.377893745899 -4.3507642746 196.225784302
vertex 0.37790492177 -4.3007645607 196.225784302
vertex 0.377893716097 -4.3507642746 199.81678772
endloop
endfacet
facet normal 0.00322814495303 0.999994814396 2.80701382277e-11
outer loop
vertex 0.0530860908329 -4.30010604858 196.225784302
vertex 0.161358714104 -4.30045557022 199.81678772
vertex 0.161358743906 -4.30045557022 196.225784302
endloop
endfacet
facet normal 0.00322814518586 0.999994814396 2.34420399758e-11
outer loop
vertex 0.0530860647559 -4.30010604858 199.81678772
vertex 0.161358714104 -4.30045557022 199.81678772
vertex 0.0530860908329 -4.30010604858 196.225784302
endloop
endfacet
facet normal 0.00202584802173 0.999997913837 1.87134249069e-11
outer loop
vertex 0.161358743906 -4.30045557022 196.225784302
vertex 0.269631713629 -4.30067491531 199.81678772
vertex 0.269631743431 -4.30067491531 196.225784302
endloop
endfacet
facet normal 0.000827955373097 0.999999701977 6.87133639918e-12
outer loop
vertex 0.269631743431 -4.30067491531 196.225784302
vertex 0.269631713629 -4.30067491531 199.81678772
vertex 0.37790492177 -4.3007645607 196.225784302
endloop
endfacet
facet normal 0.00202584802173 0.999997913837 1.68128427847e-11
outer loop
vertex 0.161358714104 -4.30045557022 199.81678772
vertex 0.269631713629 -4.30067491531 199.81678772
vertex 0.161358743906 -4.30045557022 196.225784302
endloop
endfacet
facet normal 0.000823551323265 0.999999701977 -1.32781124762e-07
outer loop
vertex 0.269631713629 -4.30067491531 199.81678772
vertex 0.377904891968 -4.30076408386 199.81678772
vertex 0.37790492177 -4.3007645607 196.225784302
endloop
endfacet
facet normal -0.999992668629 0.00383011414669 -7.26171434096e-09
outer loop
vertex 0.0530860647559 -4.30010604858 199.81678772
vertex 0.0530860908329 -4.30010604858 196.225784302
vertex 0.0528945587575 -4.35010576248 199.81678772
endloop
endfacet
facet normal -0.999992668629 0.00383011414669 -7.26378246441e-09
outer loop
vertex 0.0530860908329 -4.30010604858 196.225784302
vertex 0.0528945848346 -4.35010576248 196.225784302
vertex 0.0528945587575 -4.35010576248 199.81678772
endloop
endfacet
facet normal 0.0 0.0 -1.0
outer loop
vertex 0.269631743431 -4.30067491531 196.225784302
vertex 0.37790492177 -4.3007645607 196.225784302
vertex 0.377893745899 -4.3507642746 196.225784302
endloop
endfacet
facet normal 0.0 0.0 -1.0
outer loop
vertex 0.269560456276 -4.35067510605 196.225784302
vertex 0.269631743431 -4.30067491531 196.225784302
vertex 0.377893745899 -4.3507642746 196.225784302
endloop
endfacet
facet normal 0.0 0.0 -1.0
outer loop
vertex 0.161227345467 -4.35045528412 196.225784302
vertex 0.161358743906 -4.30045557022 196.225784302
vertex 0.269631743431 -4.30067491531 196.225784302
endloop
endfacet
facet normal 0.0 0.0 -1.0
outer loop
vertex 0.161227345467 -4.35045528412 196.225784302
vertex 0.269631743431 -4.30067491531 196.225784302
vertex 0.269560456276 -4.35067510605 196.225784302
endloop
endfacet
facet normal 0.0 0.0 -1.0
outer loop
vertex 0.0528945848346 -4.35010576248 196.225784302
vertex 0.0530860908329 -4.30010604858 196.225784302
vertex 0.161358743906 -4.30045557022 196.225784302
endloop
endfacet
facet normal 0.0 0.0 -1.0
outer loop
vertex 0.0528945848346 -4.35010576248 196.225784302
vertex 0.161358743906 -4.30045557022 196.225784302
vertex 0.161227345467 -4.35045528412 196.225784302
endloop
endfacet
facet normal 0.0 0.0 1.0
outer loop
vertex 0.377904891968 -4.30076408386 199.81678772
vertex 0.269631713629 -4.30067491531 199.81678772
vertex 0.377893716097 -4.3507642746 199.81678772
endloop
endfacet
facet normal 0.0 0.0 1.0
outer loop
vertex 0.269631713629 -4.30067491531 199.81678772
vertex 0.269560426474 -4.35067510605 199.81678772
vertex 0.377893716097 -4.3507642746 199.81678772
endloop
endfacet
facet normal 0.0 0.0 1.0
outer loop
vertex 0.161358714104 -4.30045557022 199.81678772
vertex 0.161227315664 -4.35045528412 199.81678772
vertex 0.269631713629 -4.30067491531 199.81678772
endloop
endfacet
facet normal 0.0 0.0 1.0
outer loop
vertex 0.269631713629 -4.30067491531 199.81678772
vertex 0.161227315664 -4.35045528412 199.81678772
vertex 0.269560426474 -4.35067510605 199.81678772
endloop
endfacet
facet normal 0.0 0.0 1.0
outer loop
vertex 0.0530860647559 -4.30010604858 199.81678772
vertex 0.0528945587575 -4.35010576248 199.81678772
vertex 0.161358714104 -4.30045557022 199.81678772
endloop
endfacet
facet normal 0.0 0.0 1.0
outer loop
vertex 0.161358714104 -4.30045557022 199.81678772
vertex 0.0528945587575 -4.35010576248 199.81678772
vertex 0.161227315664 -4.35045528412 199.81678772
endloop
endfacet
