solid 
facet normal 0.208717986941 -0.977975845337 0.0
outer loop
vertex 19.2597141266 -2.35472655296 -244.890914917
vertex 19.1537666321 -2.37733769417 -244.890914917
vertex 19.1537666321 -2.37733769417 -248.481903076
endloop
endfacet
facet normal 0.208717986941 -0.977975845337 0.0
outer loop
vertex 19.2597141266 -2.35472655296 -244.890914917
vertex 19.1537666321 -2.37733769417 -248.481903076
vertex 19.2597141266 -2.35472655296 -248.481903076
endloop
endfacet
facet normal 0.209895804524 -0.977723777294 -1.1148588186e-07
outer loop
vertex 19.3656349182 -2.33198809624 -244.890914917
vertex 19.2597141266 -2.35472655296 -248.481903076
vertex 19.3656330109 -2.33198809624 -248.481903076
endloop
endfacet
facet normal 0.211068153381 -0.977471351624 -1.12108565986e-07
outer loop
vertex 19.3656349182 -2.33198809624 -244.890914917
vertex 19.3656330109 -2.33198809624 -248.481903076
vertex 19.4715270996 -2.30912208557 -248.481903076
endloop
endfacet
facet normal 0.209892183542 -0.977724552155 0.0
outer loop
vertex 19.3656349182 -2.33198809624 -244.890914917
vertex 19.2597141266 -2.35472655296 -244.890914917
vertex 19.2597141266 -2.35472655296 -248.481903076
endloop
endfacet
facet normal 0.211071789265 -0.977470576763 0.0
outer loop
vertex 19.4715270996 -2.30912208557 -244.890914917
vertex 19.3656349182 -2.33198809624 -244.890914917
vertex 19.4715270996 -2.30912208557 -248.481903076
endloop
endfacet
facet normal 0.977339565754 0.211677506566 0.0
outer loop
vertex 19.460943222 -2.26025509834 -244.890914917
vertex 19.4715270996 -2.30912208557 -244.890914917
vertex 19.4715270996 -2.30912208557 -248.481903076
endloop
endfacet
facet normal 0.977339804173 0.211676537991 1.40539651028e-08
outer loop
vertex 19.460943222 -2.26025509834 -244.890914917
vertex 19.4715270996 -2.30912208557 -248.481903076
vertex 19.460943222 -2.26025485992 -248.481903076
endloop
endfacet
facet normal -0.208717852831 0.977975904942 0.0
outer loop
vertex 19.1433601379 -2.32843255997 -248.481903076
vertex 19.1433601379 -2.32843255997 -244.890914917
vertex 19.2492485046 -2.30583405495 -248.481903076
endloop
endfacet
facet normal -0.208717852831 0.977975904942 0.0
outer loop
vertex 19.1433601379 -2.32843255997 -244.890914917
vertex 19.2492485046 -2.30583405495 -244.890914917
vertex 19.2492485046 -2.30583405495 -248.481903076
endloop
endfacet
facet normal -0.209894791245 0.977723956108 6.46736637577e-08
outer loop
vertex 19.2492485046 -2.30583405495 -248.481903076
vertex 19.3551101685 -2.28310823441 -244.890914917
vertex 19.3551101685 -2.28310799599 -248.481903076
endloop
endfacet
facet normal -0.209892690182 0.977724432945 0.0
outer loop
vertex 19.2492485046 -2.30583405495 -244.890914917
vertex 19.3551101685 -2.28310823441 -244.890914917
vertex 19.2492485046 -2.30583405495 -248.481903076
endloop
endfacet
facet normal -0.211070865393 0.977470755577 6.5273233929e-08
outer loop
vertex 19.3551101685 -2.28310799599 -248.481903076
vertex 19.460943222 -2.26025509834 -244.890914917
vertex 19.460943222 -2.26025485992 -248.481903076
endloop
endfacet
facet normal -0.211070865393 0.977470755577 6.48977902529e-08
outer loop
vertex 19.3551101685 -2.28310823441 -244.890914917
vertex 19.460943222 -2.26025509834 -244.890914917
vertex 19.3551101685 -2.28310799599 -248.481903076
endloop
endfacet
facet normal -0.978101193905 -0.208129569888 -0.0
outer loop
vertex 19.1433601379 -2.32843255997 -244.890914917
vertex 19.1433601379 -2.32843255997 -248.481903076
vertex 19.1537666321 -2.37733769417 -248.481903076
endloop
endfacet
facet normal -0.978101193905 -0.208129569888 -0.0
outer loop
vertex 19.1537666321 -2.37733769417 -244.890914917
vertex 19.1433601379 -2.32843255997 -244.890914917
vertex 19.1537666321 -2.37733769417 -248.481903076
endloop
endfacet
facet normal 0.0 0.0 1.0
outer loop
vertex 19.460943222 -2.26025509834 -244.890914917
vertex 19.3551101685 -2.28310823441 -244.890914917
vertex 19.4715270996 -2.30912208557 -244.890914917
endloop
endfacet
facet normal 0.0 0.0 1.0
outer loop
vertex 19.3551101685 -2.28310823441 -244.890914917
vertex 19.3656349182 -2.33198809624 -244.890914917
vertex 19.4715270996 -2.30912208557 -244.890914917
endloop
endfacet
facet normal -0.0 0.0 1.0
outer loop
vertex 19.2492485046 -2.30583405495 -244.890914917
vertex 19.2597141266 -2.35472655296 -244.890914917
vertex 19.3551101685 -2.28310823441 -244.890914917
endloop
endfacet
facet normal 0.0 0.0 1.0
outer loop
vertex 19.3551101685 -2.28310823441 -244.890914917
vertex 19.2597141266 -2.35472655296 -244.890914917
vertex 19.3656349182 -2.33198809624 -244.890914917
endloop
endfacet
facet normal -0.0 0.0 1.0
outer loop
vertex 19.1433601379 -2.32843255997 -244.890914917
vertex 19.1537666321 -2.37733769417 -244.890914917
vertex 19.2492485046 -2.30583405495 -244.890914917
endloop
endfacet
facet normal 0.0 0.0 1.0
outer loop
vertex 19.2492485046 -2.30583405495 -244.890914917
vertex 19.1537666321 -2.37733769417 -244.890914917
vertex 19.2597141266 -2.35472655296 -244.890914917
endloop
endfacet
facet normal 0.0 0.0 -1.0
outer loop
vertex 19.3551101685 -2.28310799599 -248.481903076
vertex 19.460943222 -2.26025485992 -248.481903076
vertex 19.4715270996 -2.30912208557 -248.481903076
endloop
endfacet
facet normal 0.0 0.0 -1.0
outer loop
vertex 19.3656330109 -2.33198809624 -248.481903076
vertex 19.3551101685 -2.28310799599 -248.481903076
vertex 19.4715270996 -2.30912208557 -248.481903076
endloop
endfacet
facet normal 0.0 0.0 -1.0
outer loop
vertex 19.2597141266 -2.35472655296 -248.481903076
vertex 19.2492485046 -2.30583405495 -248.481903076
vertex 19.3551101685 -2.28310799599 -248.481903076
endloop
endfacet
facet normal 0.0 0.0 -1.0
outer loop
vertex 19.2597141266 -2.35472655296 -248.481903076
vertex 19.3551101685 -2.28310799599 -248.481903076
vertex 19.3656330109 -2.33198809624 -248.481903076
endloop
endfacet
facet normal 0.0 0.0 -1.0
outer loop
vertex 19.1537666321 -2.37733769417 -248.481903076
vertex 19.1433601379 -2.32843255997 -248.481903076
vertex 19.2492485046 -2.30583405495 -248.481903076
endloop
endfacet
facet normal 0.0 0.0 -1.0
outer loop
vertex 19.1537666321 -2.37733769417 -248.481903076
vertex 19.2492485046 -2.30583405495 -248.481903076
vertex 19.2597141266 -2.35472655296 -248.481903076
endloop
endfacet
