solid 
facet normal 0.00322635378689 0.999994814396 9.35152129344e-12
outer loop
vertex -0.161222323775 4.35045528412 -381.793579102
vertex -0.0528895556927 4.35010576248 -381.793579102
vertex -0.0528895370662 4.35010576248 -385.38458252
endloop
endfacet
facet normal 0.00322635425255 0.999994814396 2.67760379841e-11
outer loop
vertex -0.161222323775 4.35045528412 -381.793579102
vertex -0.0528895370662 4.35010576248 -385.38458252
vertex -0.161222293973 4.35045528412 -385.38458252
endloop
endfacet
facet normal 0.00202912604436 0.999997913837 1.68400467182e-11
outer loop
vertex -0.269555419683 4.35067510605 -381.793579102
vertex -0.161222293973 4.35045528412 -385.38458252
vertex -0.269555389881 4.35067510605 -385.38458252
endloop
endfacet
facet normal 0.000823094334919 0.999999642372 6.83099367002e-12
outer loop
vertex -0.269555419683 4.35067510605 -381.793579102
vertex -0.269555389881 4.35067510605 -385.38458252
vertex -0.377888679504 4.3507642746 -385.38458252
endloop
endfacet
facet normal 0.00202912581153 0.999997913837 1.40272828075e-11
outer loop
vertex -0.269555419683 4.35067510605 -381.793579102
vertex -0.161222323775 4.35045528412 -381.793579102
vertex -0.161222293973 4.35045528412 -385.38458252
endloop
endfacet
facet normal 0.000823094334919 0.999999642372 6.83099367002e-12
outer loop
vertex -0.377888709307 4.3507642746 -381.793579102
vertex -0.269555419683 4.35067510605 -381.793579102
vertex -0.377888679504 4.3507642746 -385.38458252
endloop
endfacet
facet normal -1.0 0.000223518683924 -8.29908408662e-09
outer loop
vertex -0.377899885178 4.3007645607 -381.793579102
vertex -0.377888709307 4.3507642746 -381.793579102
vertex -0.377888679504 4.3507642746 -385.38458252
endloop
endfacet
facet normal -1.0 0.000224114744924 0.0
outer loop
vertex -0.377899885178 4.3007645607 -381.793579102
vertex -0.377888679504 4.3507642746 -385.38458252
vertex -0.377899885178 4.3007645607 -385.38458252
endloop
endfacet
facet normal -0.00322814495303 -0.999994814396 -9.35671245345e-12
outer loop
vertex -0.0530810467899 4.30010604858 -385.38458252
vertex -0.161353722215 4.30045557022 -381.793579102
vertex -0.161353707314 4.30045557022 -385.38458252
endloop
endfacet
facet normal -0.00202584802173 -0.999997913837 -8.40642139233e-12
outer loop
vertex -0.161353707314 4.30045557022 -385.38458252
vertex -0.161353722215 4.30045557022 -381.793579102
vertex -0.269626706839 4.30067491531 -385.38458252
endloop
endfacet
facet normal -0.00322814495303 -0.999994814396 -1.67443125337e-11
outer loop
vertex -0.0530810654163 4.30010604858 -381.793579102
vertex -0.161353722215 4.30045557022 -381.793579102
vertex -0.0530810467899 4.30010604858 -385.38458252
endloop
endfacet
facet normal -0.000827955373097 -0.999999701977 0.0
outer loop
vertex -0.269626706839 4.30067491531 -385.38458252
vertex -0.269626706839 4.30067491531 -381.793579102
vertex -0.377899885178 4.3007645607 -385.38458252
endloop
endfacet
facet normal -0.00202584825456 -0.999997913837 0.0
outer loop
vertex -0.161353722215 4.30045557022 -381.793579102
vertex -0.269626706839 4.30067491531 -381.793579102
vertex -0.269626706839 4.30067491531 -385.38458252
endloop
endfacet
facet normal -0.000827955373097 -0.999999701977 0.0
outer loop
vertex -0.269626706839 4.30067491531 -381.793579102
vertex -0.377899885178 4.3007645607 -381.793579102
vertex -0.377899885178 4.3007645607 -385.38458252
endloop
endfacet
facet normal 0.999992668629 -0.0038301886525 5.18693887841e-09
outer loop
vertex -0.0530810654163 4.30010604858 -381.793579102
vertex -0.0530810467899 4.30010604858 -385.38458252
vertex -0.0528895370662 4.35010576248 -385.38458252
endloop
endfacet
facet normal 0.999992668629 -0.00383018818684 5.18693887841e-09
outer loop
vertex -0.0528895556927 4.35010576248 -381.793579102
vertex -0.0530810654163 4.30010604858 -381.793579102
vertex -0.0528895370662 4.35010576248 -385.38458252
endloop
endfacet
facet normal -0.0 0.0 1.0
outer loop
vertex -0.377899885178 4.3007645607 -381.793579102
vertex -0.269626706839 4.30067491531 -381.793579102
vertex -0.377888709307 4.3507642746 -381.793579102
endloop
endfacet
facet normal 0.0 -0.0 1.0
outer loop
vertex -0.269626706839 4.30067491531 -381.793579102
vertex -0.269555419683 4.35067510605 -381.793579102
vertex -0.377888709307 4.3507642746 -381.793579102
endloop
endfacet
facet normal -0.0 0.0 1.0
outer loop
vertex -0.269626706839 4.30067491531 -381.793579102
vertex -0.161353722215 4.30045557022 -381.793579102
vertex -0.269555419683 4.35067510605 -381.793579102
endloop
endfacet
facet normal 0.0 -0.0 1.0
outer loop
vertex -0.161353722215 4.30045557022 -381.793579102
vertex -0.161222323775 4.35045528412 -381.793579102
vertex -0.269555419683 4.35067510605 -381.793579102
endloop
endfacet
facet normal 0.0 -0.0 1.0
outer loop
vertex -0.0530810654163 4.30010604858 -381.793579102
vertex -0.0528895556927 4.35010576248 -381.793579102
vertex -0.161353722215 4.30045557022 -381.793579102
endloop
endfacet
facet normal 0.0 0.0 1.0
outer loop
vertex -0.161353722215 4.30045557022 -381.793579102
vertex -0.0528895556927 4.35010576248 -381.793579102
vertex -0.161222323775 4.35045528412 -381.793579102
endloop
endfacet
facet normal 0.0 0.0 -1.0
outer loop
vertex -0.269626706839 4.30067491531 -385.38458252
vertex -0.377899885178 4.3007645607 -385.38458252
vertex -0.377888679504 4.3507642746 -385.38458252
endloop
endfacet
facet normal -0.0 0.0 -1.0
outer loop
vertex -0.269555389881 4.35067510605 -385.38458252
vertex -0.269626706839 4.30067491531 -385.38458252
vertex -0.377888679504 4.3507642746 -385.38458252
endloop
endfacet
facet normal 0.0 0.0 -1.0
outer loop
vertex -0.161222293973 4.35045528412 -385.38458252
vertex -0.161353707314 4.30045557022 -385.38458252
vertex -0.269626706839 4.30067491531 -385.38458252
endloop
endfacet
facet normal -0.0 0.0 -1.0
outer loop
vertex -0.161222293973 4.35045528412 -385.38458252
vertex -0.269626706839 4.30067491531 -385.38458252
vertex -0.269555389881 4.35067510605 -385.38458252
endloop
endfacet
facet normal 0.0 0.0 -1.0
outer loop
vertex -0.0528895370662 4.35010576248 -385.38458252
vertex -0.0530810467899 4.30010604858 -385.38458252
vertex -0.161353707314 4.30045557022 -385.38458252
endloop
endfacet
facet normal -0.0 0.0 -1.0
outer loop
vertex -0.0528895370662 4.35010576248 -385.38458252
vertex -0.161353707314 4.30045557022 -385.38458252
vertex -0.161222293973 4.35045528412 -385.38458252
endloop
endfacet
