solid 
facet normal -0.0032307554502 -0.999994814396 9.35153170178e-12
outer loop
vertex 0.161217018962 -4.35045528412 -44.8991241455
vertex 0.0528842583299 -4.35010528564 -44.8991241455
vertex 0.052884247154 -4.35010528564 -48.4901237488
endloop
endfacet
facet normal -0.00323075568303 -0.999994814396 1.34062986407e-11
outer loop
vertex 0.161217018962 -4.35045528412 -44.8991241455
vertex 0.052884247154 -4.35010528564 -48.4901237488
vertex 0.161217004061 -4.35045528412 -48.4901237488
endloop
endfacet
facet normal -0.00202472391538 -0.999997913837 -0.0
outer loop
vertex 0.26955011487 -4.35067462921 -44.8991241455
vertex 0.161217004061 -4.35045528412 -48.4901237488
vertex 0.26955011487 -4.35067462921 -48.4901237488
endloop
endfacet
facet normal -0.000823094276711 -0.999999642372 -0.0
outer loop
vertex 0.26955011487 -4.35067462921 -44.8991241455
vertex 0.26955011487 -4.35067462921 -48.4901237488
vertex 0.377883404493 -4.35076379776 -48.4901237488
endloop
endfacet
facet normal -0.00202472414821 -0.999997913837 4.67576585089e-12
outer loop
vertex 0.26955011487 -4.35067462921 -44.8991241455
vertex 0.161217018962 -4.35045528412 -44.8991241455
vertex 0.161217004061 -4.35045528412 -48.4901237488
endloop
endfacet
facet normal -0.000827495881822 -0.999999642372 -1.32786695417e-07
outer loop
vertex 0.377883404493 -4.3507642746 -44.8991241455
vertex 0.26955011487 -4.35067462921 -44.8991241455
vertex 0.377883404493 -4.35076379776 -48.4901237488
endloop
endfacet
facet normal 1.0 -0.000224112605792 -2.97591846998e-11
outer loop
vertex 0.377894610167 -4.30076408386 -44.8991241455
vertex 0.377883404493 -4.3507642746 -44.8991241455
vertex 0.377883404493 -4.35076379776 -48.4901237488
endloop
endfacet
facet normal 1.0 -0.000223518713028 -8.29917201628e-09
outer loop
vertex 0.377894610167 -4.30076408386 -44.8991241455
vertex 0.377883404493 -4.35076379776 -48.4901237488
vertex 0.377894580364 -4.30076408386 -48.4901237488
endloop
endfacet
facet normal 0.0032281447202 0.999994814396 0.0
outer loop
vertex 0.053075760603 -4.30010557175 -48.4901237488
vertex 0.161348417401 -4.30045509338 -44.8991241455
vertex 0.161348417401 -4.30045509338 -48.4901237488
endloop
endfacet
facet normal 0.00203025224619 0.999997913837 -0.0
outer loop
vertex 0.161348417401 -4.30045509338 -48.4901237488
vertex 0.161348417401 -4.30045509338 -44.8991241455
vertex 0.269621402025 -4.30067491531 -48.4901237488
endloop
endfacet
facet normal 0.00322814495303 0.999994814396 -6.69773264628e-12
outer loop
vertex 0.0530757680535 -4.30010557175 -44.8991241455
vertex 0.161348417401 -4.30045509338 -44.8991241455
vertex 0.053075760603 -4.30010557175 -48.4901237488
endloop
endfacet
facet normal 0.000823551323265 0.999999701977 -6.83479401548e-12
outer loop
vertex 0.269621402025 -4.30067491531 -48.4901237488
vertex 0.269621431828 -4.30067491531 -44.8991241455
vertex 0.377894580364 -4.30076408386 -48.4901237488
endloop
endfacet
facet normal 0.00203025178052 0.999997913837 -1.87134422541e-11
outer loop
vertex 0.161348417401 -4.30045509338 -44.8991241455
vertex 0.269621431828 -4.30067491531 -44.8991241455
vertex 0.269621402025 -4.30067491531 -48.4901237488
endloop
endfacet
facet normal 0.000823551323265 0.999999701977 -7.01754279686e-12
outer loop
vertex 0.269621431828 -4.30067491531 -44.8991241455
vertex 0.377894610167 -4.30076408386 -44.8991241455
vertex 0.377894580364 -4.30076408386 -48.4901237488
endloop
endfacet
facet normal -0.999992668629 0.00383026269265 2.07477790504e-09
outer loop
vertex 0.0530757680535 -4.30010557175 -44.8991241455
vertex 0.053075760603 -4.30010557175 -48.4901237488
vertex 0.052884247154 -4.35010528564 -48.4901237488
endloop
endfacet
facet normal -0.999992668629 0.00383018841967 3.11216674653e-09
outer loop
vertex 0.0528842583299 -4.35010528564 -44.8991241455
vertex 0.0530757680535 -4.30010557175 -44.8991241455
vertex 0.052884247154 -4.35010528564 -48.4901237488
endloop
endfacet
facet normal 0.0 0.0 1.0
outer loop
vertex 0.377894610167 -4.30076408386 -44.8991241455
vertex 0.269621431828 -4.30067491531 -44.8991241455
vertex 0.377883404493 -4.3507642746 -44.8991241455
endloop
endfacet
facet normal 0.0 0.0 1.0
outer loop
vertex 0.269621431828 -4.30067491531 -44.8991241455
vertex 0.26955011487 -4.35067462921 -44.8991241455
vertex 0.377883404493 -4.3507642746 -44.8991241455
endloop
endfacet
facet normal 0.0 0.0 1.0
outer loop
vertex 0.269621431828 -4.30067491531 -44.8991241455
vertex 0.161348417401 -4.30045509338 -44.8991241455
vertex 0.26955011487 -4.35067462921 -44.8991241455
endloop
endfacet
facet normal 0.0 0.0 1.0
outer loop
vertex 0.161348417401 -4.30045509338 -44.8991241455
vertex 0.161217018962 -4.35045528412 -44.8991241455
vertex 0.26955011487 -4.35067462921 -44.8991241455
endloop
endfacet
facet normal 0.0 0.0 1.0
outer loop
vertex 0.0530757680535 -4.30010557175 -44.8991241455
vertex 0.0528842583299 -4.35010528564 -44.8991241455
vertex 0.161348417401 -4.30045509338 -44.8991241455
endloop
endfacet
facet normal 0.0 0.0 1.0
outer loop
vertex 0.161348417401 -4.30045509338 -44.8991241455
vertex 0.0528842583299 -4.35010528564 -44.8991241455
vertex 0.161217018962 -4.35045528412 -44.8991241455
endloop
endfacet
facet normal 0.0 0.0 -1.0
outer loop
vertex 0.269621402025 -4.30067491531 -48.4901237488
vertex 0.377894580364 -4.30076408386 -48.4901237488
vertex 0.377883404493 -4.35076379776 -48.4901237488
endloop
endfacet
facet normal 0.0 0.0 -1.0
outer loop
vertex 0.26955011487 -4.35067462921 -48.4901237488
vertex 0.269621402025 -4.30067491531 -48.4901237488
vertex 0.377883404493 -4.35076379776 -48.4901237488
endloop
endfacet
facet normal 0.0 0.0 -1.0
outer loop
vertex 0.161217004061 -4.35045528412 -48.4901237488
vertex 0.161348417401 -4.30045509338 -48.4901237488
vertex 0.269621402025 -4.30067491531 -48.4901237488
endloop
endfacet
facet normal 0.0 0.0 -1.0
outer loop
vertex 0.161217004061 -4.35045528412 -48.4901237488
vertex 0.269621402025 -4.30067491531 -48.4901237488
vertex 0.26955011487 -4.35067462921 -48.4901237488
endloop
endfacet
facet normal 0.0 0.0 -1.0
outer loop
vertex 0.052884247154 -4.35010528564 -48.4901237488
vertex 0.053075760603 -4.30010557175 -48.4901237488
vertex 0.161348417401 -4.30045509338 -48.4901237488
endloop
endfacet
facet normal 0.0 0.0 -1.0
outer loop
vertex 0.052884247154 -4.35010528564 -48.4901237488
vertex 0.161348417401 -4.30045509338 -48.4901237488
vertex 0.161217004061 -4.35045528412 -48.4901237488
endloop
endfacet
