solid 
facet normal -0.208718016744 0.977975845337 0.0
outer loop
vertex -19.2597293854 2.35472345352 -410.701568604
vertex -19.1537818909 2.37733459473 -410.701568604
vertex -19.1537818909 2.37733459473 -414.292572021
endloop
endfacet
facet normal -0.208718016744 0.977975845337 0.0
outer loop
vertex -19.2597293854 2.35472345352 -410.701568604
vertex -19.1537818909 2.37733459473 -414.292572021
vertex -19.2597293854 2.35472345352 -414.292572021
endloop
endfacet
facet normal -0.209894314408 0.977724075317 -6.49143316878e-08
outer loop
vertex -19.365650177 2.3319849968 -410.701568604
vertex -19.2597293854 2.35472345352 -414.292572021
vertex -19.365650177 2.33198475838 -414.292572021
endloop
endfacet
facet normal -0.211069688201 0.9774710536 -6.48975273521e-08
outer loop
vertex -19.365650177 2.3319849968 -410.701568604
vertex -19.365650177 2.33198475838 -414.292572021
vertex -19.4715423584 2.30911898613 -414.292572021
endloop
endfacet
facet normal -0.209892198443 0.977724552155 0.0
outer loop
vertex -19.365650177 2.3319849968 -410.701568604
vertex -19.2597293854 2.35472345352 -410.701568604
vertex -19.2597293854 2.35472345352 -414.292572021
endloop
endfacet
facet normal -0.211071789265 0.977470517159 0.0
outer loop
vertex -19.4715423584 2.30911898613 -410.701568604
vertex -19.365650177 2.3319849968 -410.701568604
vertex -19.4715423584 2.30911898613 -414.292572021
endloop
endfacet
facet normal -0.977347612381 -0.211640074849 0.0
outer loop
vertex -19.4609603882 2.26025176048 -410.701568604
vertex -19.4715423584 2.30911898613 -410.701568604
vertex -19.4715423584 2.30911898613 -414.292572021
endloop
endfacet
facet normal -0.977339804173 -0.211676537991 -5.19110528785e-07
outer loop
vertex -19.4609603882 2.26025176048 -410.701568604
vertex -19.4715423584 2.30911898613 -414.292572021
vertex -19.4609584808 2.26025176048 -414.292572021
endloop
endfacet
facet normal 0.208719968796 -0.977975428104 6.49310223366e-08
outer loop
vertex -19.1433753967 2.32842946053 -414.292572021
vertex -19.1433753967 2.32842969894 -410.701568604
vertex -19.2492637634 2.30583071709 -414.292572021
endloop
endfacet
facet normal 0.208719968796 -0.977975428104 6.52725447026e-08
outer loop
vertex -19.1433753967 2.32842969894 -410.701568604
vertex -19.2492637634 2.30583095551 -410.701568604
vertex -19.2492637634 2.30583071709 -414.292572021
endloop
endfacet
facet normal 0.209892690182 -0.977724432945 6.46734221732e-08
outer loop
vertex -19.2492637634 2.30583071709 -414.292572021
vertex -19.3551254272 2.28310513496 -410.701568604
vertex -19.3551254272 2.28310489655 -414.292572021
endloop
endfacet
facet normal 0.211070850492 -0.977470815182 6.48975202466e-08
outer loop
vertex -19.3551254272 2.28310489655 -414.292572021
vertex -19.3551254272 2.28310513496 -410.701568604
vertex -19.4609584808 2.26025176048 -414.292572021
endloop
endfacet
facet normal 0.209892690182 -0.977724432945 6.4914353004e-08
outer loop
vertex -19.2492637634 2.30583095551 -410.701568604
vertex -19.3551254272 2.28310513496 -410.701568604
vertex -19.2492637634 2.30583071709 -414.292572021
endloop
endfacet
facet normal 0.211069315672 -0.977471113205 1.11980064332e-07
outer loop
vertex -19.3551254272 2.28310513496 -410.701568604
vertex -19.4609603882 2.26025176048 -410.701568604
vertex -19.4609584808 2.26025176048 -414.292572021
endloop
endfacet
facet normal 0.97810125351 0.20812959969 -1.38184113041e-08
outer loop
vertex -19.1433753967 2.32842969894 -410.701568604
vertex -19.1433753967 2.32842946053 -414.292572021
vertex -19.1537818909 2.37733459473 -414.292572021
endloop
endfacet
facet normal 0.978101015091 0.208130553365 0.0
outer loop
vertex -19.1537818909 2.37733459473 -410.701568604
vertex -19.1433753967 2.32842969894 -410.701568604
vertex -19.1537818909 2.37733459473 -414.292572021
endloop
endfacet
facet normal 0.0 0.0 1.0
outer loop
vertex -19.3551254272 2.28310513496 -410.701568604
vertex -19.365650177 2.3319849968 -410.701568604
vertex -19.4609603882 2.26025176048 -410.701568604
endloop
endfacet
facet normal 0.0 -0.0 1.0
outer loop
vertex -19.4609603882 2.26025176048 -410.701568604
vertex -19.365650177 2.3319849968 -410.701568604
vertex -19.4715423584 2.30911898613 -410.701568604
endloop
endfacet
facet normal 0.0 0.0 1.0
outer loop
vertex -19.2492637634 2.30583095551 -410.701568604
vertex -19.2597293854 2.35472345352 -410.701568604
vertex -19.3551254272 2.28310513496 -410.701568604
endloop
endfacet
facet normal 0.0 -0.0 1.0
outer loop
vertex -19.3551254272 2.28310513496 -410.701568604
vertex -19.2597293854 2.35472345352 -410.701568604
vertex -19.365650177 2.3319849968 -410.701568604
endloop
endfacet
facet normal 0.0 0.0 1.0
outer loop
vertex -19.1433753967 2.32842969894 -410.701568604
vertex -19.1537818909 2.37733459473 -410.701568604
vertex -19.2492637634 2.30583095551 -410.701568604
endloop
endfacet
facet normal 0.0 -0.0 1.0
outer loop
vertex -19.2492637634 2.30583095551 -410.701568604
vertex -19.1537818909 2.37733459473 -410.701568604
vertex -19.2597293854 2.35472345352 -410.701568604
endloop
endfacet
facet normal -0.0 0.0 -1.0
outer loop
vertex -19.3551254272 2.28310489655 -414.292572021
vertex -19.4609584808 2.26025176048 -414.292572021
vertex -19.4715423584 2.30911898613 -414.292572021
endloop
endfacet
facet normal 0.0 -0.0 -1.0
outer loop
vertex -19.365650177 2.33198475838 -414.292572021
vertex -19.3551254272 2.28310489655 -414.292572021
vertex -19.4715423584 2.30911898613 -414.292572021
endloop
endfacet
facet normal 0.0 -0.0 -1.0
outer loop
vertex -19.2597293854 2.35472345352 -414.292572021
vertex -19.2492637634 2.30583071709 -414.292572021
vertex -19.3551254272 2.28310489655 -414.292572021
endloop
endfacet
facet normal 0.0 0.0 -1.0
outer loop
vertex -19.2597293854 2.35472345352 -414.292572021
vertex -19.3551254272 2.28310489655 -414.292572021
vertex -19.365650177 2.33198475838 -414.292572021
endloop
endfacet
facet normal 0.0 -0.0 -1.0
outer loop
vertex -19.1537818909 2.37733459473 -414.292572021
vertex -19.1433753967 2.32842946053 -414.292572021
vertex -19.2492637634 2.30583071709 -414.292572021
endloop
endfacet
facet normal 0.0 0.0 -1.0
outer loop
vertex -19.1537818909 2.37733459473 -414.292572021
vertex -19.2492637634 2.30583071709 -414.292572021
vertex -19.2597293854 2.35472345352 -414.292572021
endloop
endfacet
