solid 
facet normal 0.0191151127219 0.999817311764 -0.0
outer loop
vertex 0.577893555164 4.35058689117 83.6543045044
vertex 0.577893555164 4.35058689117 83.6743087769
vertex 3.66284584999 4.29160690308 83.6743087769
endloop
endfacet
facet normal 0.0533325448632 0.998576760292 -0.0
outer loop
vertex 3.66284584999 4.29160690308 83.6543045044
vertex 3.66284584999 4.29160690308 83.6743087769
vertex 6.74397039413 4.12704849243 83.6743087769
endloop
endfacet
facet normal 0.0191151127219 0.999817311764 -0.0
outer loop
vertex 3.66284584999 4.29160690308 83.6543045044
vertex 0.577893555164 4.35058689117 83.6543045044
vertex 3.66284584999 4.29160690308 83.6743087769
endloop
endfacet
facet normal 0.0533325448632 0.998576760292 -0.0
outer loop
vertex 6.74397039413 4.12704849243 83.6543045044
vertex 3.66284584999 4.29160690308 83.6543045044
vertex 6.74397039413 4.12704849243 83.6743087769
endloop
endfacet
facet normal 0.0874872133136 0.996165633202 -0.0
outer loop
vertex 9.81765556335 3.85710525513 83.6543045044
vertex 6.74397039413 4.12704849243 83.6743087769
vertex 9.81765556335 3.85710525513 83.6743087769
endloop
endfacet
facet normal 0.0874872133136 0.996165633202 0.0
outer loop
vertex 9.81765556335 3.85710525513 83.6543045044
vertex 6.74397039413 4.12704849243 83.6543045044
vertex 6.74397039413 4.12704849243 83.6743087769
endloop
endfacet
facet normal 0.99452060461 -0.104541324079 0.0
outer loop
vertex 9.81242847443 3.80737900734 83.6543045044
vertex 9.81765556335 3.85710525513 83.6543045044
vertex 9.81765556335 3.85710525513 83.6743087769
endloop
endfacet
facet normal 0.99452060461 -0.104541324079 0.0
outer loop
vertex 9.81242847443 3.80737900734 83.6543045044
vertex 9.81765556335 3.85710525513 83.6743087769
vertex 9.81242847443 3.80737900734 83.6743087769
endloop
endfacet
facet normal -0.0191152114421 -0.999817311764 -0.0
outer loop
vertex 0.577793776989 4.30058717728 83.6743087769
vertex 0.577793776989 4.30058717728 83.6543045044
vertex 3.66103434563 4.24163961411 83.6743087769
endloop
endfacet
facet normal -0.0191152114421 -0.999817311764 0.0
outer loop
vertex 0.577793776989 4.30058717728 83.6543045044
vertex 3.66103434563 4.24163961411 83.6543045044
vertex 3.66103434563 4.24163961411 83.6743087769
endloop
endfacet
facet normal -0.0533324629068 -0.998576819897 0.0
outer loop
vertex 3.66103434563 4.24163961411 83.6743087769
vertex 6.74044942856 4.0771727562 83.6543045044
vertex 6.74044942856 4.0771727562 83.6743087769
endloop
endfacet
facet normal -0.0533324629068 -0.998576819897 0.0
outer loop
vertex 3.66103434563 4.24163961411 83.6543045044
vertex 6.74044942856 4.0771727562 83.6543045044
vertex 3.66103434563 4.24163961411 83.6743087769
endloop
endfacet
facet normal -0.0874873399734 -0.996165692806 0.0
outer loop
vertex 6.74044942856 4.0771727562 83.6743087769
vertex 9.81242847443 3.80737900734 83.6543045044
vertex 9.81242847443 3.80737900734 83.6743087769
endloop
endfacet
facet normal -0.0874873399734 -0.996165692806 0.0
outer loop
vertex 6.74044942856 4.0771727562 83.6543045044
vertex 9.81242847443 3.80737900734 83.6543045044
vertex 6.74044942856 4.0771727562 83.6743087769
endloop
endfacet
facet normal -0.999998033047 0.00199557119049 0.0
outer loop
vertex 0.577893555164 4.35058689117 83.6743087769
vertex 0.577793776989 4.30058717728 83.6543045044
vertex 0.577793776989 4.30058717728 83.6743087769
endloop
endfacet
facet normal -0.999998033047 0.00199557119049 0.0
outer loop
vertex 0.577893555164 4.35058689117 83.6543045044
vertex 0.577793776989 4.30058717728 83.6543045044
vertex 0.577893555164 4.35058689117 83.6743087769
endloop
endfacet
facet normal 0.0 0.0 -1.0
outer loop
vertex 9.81242847443 3.80737900734 83.6543045044
vertex 6.74044942856 4.0771727562 83.6543045044
vertex 9.81765556335 3.85710525513 83.6543045044
endloop
endfacet
facet normal 0.0 0.0 -1.0
outer loop
vertex 6.74044942856 4.0771727562 83.6543045044
vertex 6.74397039413 4.12704849243 83.6543045044
vertex 9.81765556335 3.85710525513 83.6543045044
endloop
endfacet
facet normal 0.0 0.0 -1.0
outer loop
vertex 6.74044942856 4.0771727562 83.6543045044
vertex 3.66103434563 4.24163961411 83.6543045044
vertex 6.74397039413 4.12704849243 83.6543045044
endloop
endfacet
facet normal 0.0 0.0 -1.0
outer loop
vertex 3.66103434563 4.24163961411 83.6543045044
vertex 3.66284584999 4.29160690308 83.6543045044
vertex 6.74397039413 4.12704849243 83.6543045044
endloop
endfacet
facet normal 0.0 0.0 -1.0
outer loop
vertex 0.577793776989 4.30058717728 83.6543045044
vertex 0.577893555164 4.35058689117 83.6543045044
vertex 3.66103434563 4.24163961411 83.6543045044
endloop
endfacet
facet normal 0.0 0.0 -1.0
outer loop
vertex 3.66103434563 4.24163961411 83.6543045044
vertex 0.577893555164 4.35058689117 83.6543045044
vertex 3.66284584999 4.29160690308 83.6543045044
endloop
endfacet
facet normal 0.0 0.0 1.0
outer loop
vertex 6.74044942856 4.0771727562 83.6743087769
vertex 9.81242847443 3.80737900734 83.6743087769
vertex 9.81765556335 3.85710525513 83.6743087769
endloop
endfacet
facet normal 0.0 0.0 1.0
outer loop
vertex 6.74397039413 4.12704849243 83.6743087769
vertex 6.74044942856 4.0771727562 83.6743087769
vertex 9.81765556335 3.85710525513 83.6743087769
endloop
endfacet
facet normal 0.0 0.0 1.0
outer loop
vertex 3.66103434563 4.24163961411 83.6743087769
vertex 6.74044942856 4.0771727562 83.6743087769
vertex 6.74397039413 4.12704849243 83.6743087769
endloop
endfacet
facet normal 0.0 0.0 1.0
outer loop
vertex 3.66284584999 4.29160690308 83.6743087769
vertex 3.66103434563 4.24163961411 83.6743087769
vertex 6.74397039413 4.12704849243 83.6743087769
endloop
endfacet
facet normal 0.0 0.0 1.0
outer loop
vertex 0.577793776989 4.30058717728 83.6743087769
vertex 3.66103434563 4.24163961411 83.6743087769
vertex 3.66284584999 4.29160690308 83.6743087769
endloop
endfacet
facet normal 0.0 0.0 1.0
outer loop
vertex 0.577893555164 4.35058689117 83.6743087769
vertex 0.577793776989 4.30058717728 83.6743087769
vertex 3.66284584999 4.29160690308 83.6743087769
endloop
endfacet
