solid 
facet normal -0.0191152673215 -0.999817311764 0.0
outer loop
vertex -3.66285133362 -4.29160642624 -109.897125244
vertex -0.577899217606 -4.35058689117 -109.897125244
vertex -0.577899217606 -4.35058689117 -109.877120972
endloop
endfacet
facet normal -0.0191152673215 -0.999817311764 0.0
outer loop
vertex -3.66285133362 -4.29160642624 -109.897125244
vertex -0.577899217606 -4.35058689117 -109.877120972
vertex -3.66285133362 -4.29160642624 -109.877120972
endloop
endfacet
facet normal -0.0533325411379 -0.998576760292 0.0
outer loop
vertex -6.74397611618 -4.12704801559 -109.897125244
vertex -3.66285133362 -4.29160642624 -109.877120972
vertex -6.74397611618 -4.12704801559 -109.877120972
endloop
endfacet
facet normal -0.08748729527 -0.996165633202 0.0
outer loop
vertex -6.74397611618 -4.12704801559 -109.897125244
vertex -6.74397611618 -4.12704801559 -109.877120972
vertex -9.8176612854 -3.85710453987 -109.877120972
endloop
endfacet
facet normal -0.0533325411379 -0.998576760292 0.0
outer loop
vertex -6.74397611618 -4.12704801559 -109.897125244
vertex -3.66285133362 -4.29160642624 -109.897125244
vertex -3.66285133362 -4.29160642624 -109.877120972
endloop
endfacet
facet normal -0.08748729527 -0.996165633202 0.0
outer loop
vertex -9.8176612854 -3.85710453987 -109.897125244
vertex -6.74397611618 -4.12704801559 -109.897125244
vertex -9.8176612854 -3.85710453987 -109.877120972
endloop
endfacet
facet normal -0.994520545006 0.104541823268 0.0
outer loop
vertex -9.8176612854 -3.85710453987 -109.897125244
vertex -9.81243419647 -3.8073785305 -109.877120972
vertex -9.81243419647 -3.8073785305 -109.897125244
endloop
endfacet
facet normal -0.994520545006 0.104541823268 0.0
outer loop
vertex -9.8176612854 -3.85710453987 -109.877120972
vertex -9.81243419647 -3.8073785305 -109.877120972
vertex -9.8176612854 -3.85710453987 -109.897125244
endloop
endfacet
facet normal 0.0191152114421 0.999817311764 0.0
outer loop
vertex -0.57779943943 -4.30058717728 -109.877120972
vertex -3.66103982925 -4.24163961411 -109.897125244
vertex -3.66103982925 -4.24163961411 -109.877120972
endloop
endfacet
facet normal 0.0191152114421 0.999817311764 -0.0
outer loop
vertex -0.57779943943 -4.30058717728 -109.897125244
vertex -3.66103982925 -4.24163961411 -109.897125244
vertex -0.57779943943 -4.30058717728 -109.877120972
endloop
endfacet
facet normal 0.0533326081932 0.998576760292 0.0
outer loop
vertex -3.66103982925 -4.24163961411 -109.877120972
vertex -6.7404551506 -4.07717227936 -109.897125244
vertex -6.7404551506 -4.07717227936 -109.877120972
endloop
endfacet
facet normal 0.0874873399734 0.996165692806 0.0
outer loop
vertex -6.7404551506 -4.07717227936 -109.877120972
vertex -6.7404551506 -4.07717227936 -109.897125244
vertex -9.81243419647 -3.8073785305 -109.877120972
endloop
endfacet
facet normal 0.0533326081932 0.998576760292 -0.0
outer loop
vertex -3.66103982925 -4.24163961411 -109.897125244
vertex -6.7404551506 -4.07717227936 -109.897125244
vertex -3.66103982925 -4.24163961411 -109.877120972
endloop
endfacet
facet normal 0.0874873399734 0.996165692806 0.0
outer loop
vertex -6.7404551506 -4.07717227936 -109.897125244
vertex -9.81243419647 -3.8073785305 -109.897125244
vertex -9.81243419647 -3.8073785305 -109.877120972
endloop
endfacet
facet normal 0.999998033047 -0.00199557119049 0.0
outer loop
vertex -0.57779943943 -4.30058717728 -109.897125244
vertex -0.577899217606 -4.35058689117 -109.877120972
vertex -0.577899217606 -4.35058689117 -109.897125244
endloop
endfacet
facet normal 0.999998033047 -0.00199557119049 0.0
outer loop
vertex -0.57779943943 -4.30058717728 -109.877120972
vertex -0.577899217606 -4.35058689117 -109.877120972
vertex -0.57779943943 -4.30058717728 -109.897125244
endloop
endfacet
facet normal 0.0 0.0 1.0
outer loop
vertex -6.7404551506 -4.07717227936 -109.877120972
vertex -9.81243419647 -3.8073785305 -109.877120972
vertex -9.8176612854 -3.85710453987 -109.877120972
endloop
endfacet
facet normal 0.0 -0.0 1.0
outer loop
vertex -6.74397611618 -4.12704801559 -109.877120972
vertex -6.7404551506 -4.07717227936 -109.877120972
vertex -9.8176612854 -3.85710453987 -109.877120972
endloop
endfacet
facet normal 0.0 0.0 1.0
outer loop
vertex -3.66103982925 -4.24163961411 -109.877120972
vertex -6.7404551506 -4.07717227936 -109.877120972
vertex -6.74397611618 -4.12704801559 -109.877120972
endloop
endfacet
facet normal 0.0 -0.0 1.0
outer loop
vertex -3.66285133362 -4.29160642624 -109.877120972
vertex -3.66103982925 -4.24163961411 -109.877120972
vertex -6.74397611618 -4.12704801559 -109.877120972
endloop
endfacet
facet normal 0.0 -0.0 1.0
outer loop
vertex -0.577899217606 -4.35058689117 -109.877120972
vertex -0.57779943943 -4.30058717728 -109.877120972
vertex -3.66103982925 -4.24163961411 -109.877120972
endloop
endfacet
facet normal 0.0 0.0 1.0
outer loop
vertex -0.577899217606 -4.35058689117 -109.877120972
vertex -3.66103982925 -4.24163961411 -109.877120972
vertex -3.66285133362 -4.29160642624 -109.877120972
endloop
endfacet
facet normal 0.0 -0.0 -1.0
outer loop
vertex -9.81243419647 -3.8073785305 -109.897125244
vertex -6.7404551506 -4.07717227936 -109.897125244
vertex -9.8176612854 -3.85710453987 -109.897125244
endloop
endfacet
facet normal -0.0 0.0 -1.0
outer loop
vertex -6.7404551506 -4.07717227936 -109.897125244
vertex -6.74397611618 -4.12704801559 -109.897125244
vertex -9.8176612854 -3.85710453987 -109.897125244
endloop
endfacet
facet normal 0.0 -0.0 -1.0
outer loop
vertex -6.7404551506 -4.07717227936 -109.897125244
vertex -3.66103982925 -4.24163961411 -109.897125244
vertex -6.74397611618 -4.12704801559 -109.897125244
endloop
endfacet
facet normal -0.0 0.0 -1.0
outer loop
vertex -3.66103982925 -4.24163961411 -109.897125244
vertex -3.66285133362 -4.29160642624 -109.897125244
vertex -6.74397611618 -4.12704801559 -109.897125244
endloop
endfacet
facet normal 0.0 -0.0 -1.0
outer loop
vertex -3.66103982925 -4.24163961411 -109.897125244
vertex -0.57779943943 -4.30058717728 -109.897125244
vertex -3.66285133362 -4.29160642624 -109.897125244
endloop
endfacet
facet normal -0.0 0.0 -1.0
outer loop
vertex -0.57779943943 -4.30058717728 -109.897125244
vertex -0.577899217606 -4.35058689117 -109.897125244
vertex -3.66285133362 -4.29160642624 -109.897125244
endloop
endfacet
