solid 
facet normal -0.121539443731 -0.992586612701 0.0
outer loop
vertex -9.81765937805 -3.85710477829 -84.5801239014
vertex -9.81765937805 -3.85710477829 -84.5601272583
vertex -12.8803014755 -3.48209285736 -84.5601272583
endloop
endfacet
facet normal -0.155449107289 -0.987843871117 0.0
outer loop
vertex -12.8803014755 -3.48209285736 -84.5801239014
vertex -12.8803014755 -3.48209285736 -84.5601272583
vertex -15.9283094406 -3.00245213509 -84.5601272583
endloop
endfacet
facet normal -0.121539443731 -0.992586612701 0.0
outer loop
vertex -12.8803014755 -3.48209285736 -84.5801239014
vertex -9.81765937805 -3.85710477829 -84.5801239014
vertex -12.8803014755 -3.48209285736 -84.5601272583
endloop
endfacet
facet normal -0.155449107289 -0.987843871117 0.0
outer loop
vertex -15.9283094406 -3.00245213509 -84.5801239014
vertex -12.8803014755 -3.48209285736 -84.5801239014
vertex -15.9283094406 -3.00245213509 -84.5601272583
endloop
endfacet
facet normal -0.189176559448 -0.981943070889 0.0
outer loop
vertex -18.9581108093 -2.41874480247 -84.5801239014
vertex -15.9283094406 -3.00245213509 -84.5601272583
vertex -18.9581108093 -2.41874480247 -84.5601272583
endloop
endfacet
facet normal -0.189176559448 -0.981943070889 0.0
outer loop
vertex -18.9581108093 -2.41874480247 -84.5801239014
vertex -15.9283094406 -3.00245213509 -84.5801239014
vertex -15.9283094406 -3.00245213509 -84.5601272583
endloop
endfacet
facet normal -0.978561282158 0.205955699086 0.0
outer loop
vertex -18.9581108093 -2.41874480247 -84.5801239014
vertex -18.9478130341 -2.36981678009 -84.5601272583
vertex -18.9478130341 -2.36981678009 -84.5801239014
endloop
endfacet
facet normal -0.978561282158 0.205955699086 0.0
outer loop
vertex -18.9581108093 -2.41874480247 -84.5601272583
vertex -18.9478130341 -2.36981678009 -84.5601272583
vertex -18.9581108093 -2.41874480247 -84.5801239014
endloop
endfacet
facet normal 0.12153942883 0.992586612701 0.0
outer loop
vertex -9.8124332428 -3.80737876892 -84.5601272583
vertex -9.8124332428 -3.80737876892 -84.5801239014
vertex -12.8733758926 -3.43257498741 -84.5601272583
endloop
endfacet
facet normal 0.12153942883 0.992586612701 0.0
outer loop
vertex -9.8124332428 -3.80737876892 -84.5801239014
vertex -12.8733758926 -3.43257498741 -84.5801239014
vertex -12.8733758926 -3.43257498741 -84.5601272583
endloop
endfacet
facet normal 0.15544912219 0.987843930721 0.0
outer loop
vertex -12.8733758926 -3.43257498741 -84.5601272583
vertex -15.9196929932 -2.95320034027 -84.5801239014
vertex -15.9196929932 -2.95320034027 -84.5601272583
endloop
endfacet
facet normal 0.189176604152 0.981943070889 0.0
outer loop
vertex -15.9196929932 -2.95320034027 -84.5601272583
vertex -15.9196929932 -2.95320034027 -84.5801239014
vertex -18.9478130341 -2.36981678009 -84.5601272583
endloop
endfacet
facet normal 0.15544912219 0.987843930721 -0.0
outer loop
vertex -12.8733758926 -3.43257498741 -84.5801239014
vertex -15.9196929932 -2.95320034027 -84.5801239014
vertex -12.8733758926 -3.43257498741 -84.5601272583
endloop
endfacet
facet normal 0.189176604152 0.981943070889 0.0
outer loop
vertex -15.9196929932 -2.95320034027 -84.5801239014
vertex -18.9478130341 -2.36981678009 -84.5801239014
vertex -18.9478130341 -2.36981678009 -84.5601272583
endloop
endfacet
facet normal 0.994522452354 -0.104522943497 0.0
outer loop
vertex -9.8124332428 -3.80737876892 -84.5801239014
vertex -9.81765937805 -3.85710477829 -84.5601272583
vertex -9.81765937805 -3.85710477829 -84.5801239014
endloop
endfacet
facet normal 0.994522452354 -0.104522943497 0.0
outer loop
vertex -9.8124332428 -3.80737876892 -84.5601272583
vertex -9.81765937805 -3.85710477829 -84.5601272583
vertex -9.8124332428 -3.80737876892 -84.5801239014
endloop
endfacet
facet normal 0.0 0.0 1.0
outer loop
vertex -15.9196929932 -2.95320034027 -84.5601272583
vertex -18.9478130341 -2.36981678009 -84.5601272583
vertex -18.9581108093 -2.41874480247 -84.5601272583
endloop
endfacet
facet normal 0.0 -0.0 1.0
outer loop
vertex -15.9283094406 -3.00245213509 -84.5601272583
vertex -15.9196929932 -2.95320034027 -84.5601272583
vertex -18.9581108093 -2.41874480247 -84.5601272583
endloop
endfacet
facet normal 0.0 0.0 1.0
outer loop
vertex -12.8733758926 -3.43257498741 -84.5601272583
vertex -15.9196929932 -2.95320034027 -84.5601272583
vertex -15.9283094406 -3.00245213509 -84.5601272583
endloop
endfacet
facet normal 0.0 -0.0 1.0
outer loop
vertex -12.8803014755 -3.48209285736 -84.5601272583
vertex -12.8733758926 -3.43257498741 -84.5601272583
vertex -15.9283094406 -3.00245213509 -84.5601272583
endloop
endfacet
facet normal 0.0 0.0 1.0
outer loop
vertex -9.8124332428 -3.80737876892 -84.5601272583
vertex -12.8733758926 -3.43257498741 -84.5601272583
vertex -12.8803014755 -3.48209285736 -84.5601272583
endloop
endfacet
facet normal 0.0 -0.0 1.0
outer loop
vertex -9.81765937805 -3.85710477829 -84.5601272583
vertex -9.8124332428 -3.80737876892 -84.5601272583
vertex -12.8803014755 -3.48209285736 -84.5601272583
endloop
endfacet
facet normal -0.0 0.0 -1.0
outer loop
vertex -15.9196929932 -2.95320034027 -84.5801239014
vertex -15.9283094406 -3.00245213509 -84.5801239014
vertex -18.9478130341 -2.36981678009 -84.5801239014
endloop
endfacet
facet normal 0.0 -0.0 -1.0
outer loop
vertex -18.9478130341 -2.36981678009 -84.5801239014
vertex -15.9283094406 -3.00245213509 -84.5801239014
vertex -18.9581108093 -2.41874480247 -84.5801239014
endloop
endfacet
facet normal -0.0 0.0 -1.0
outer loop
vertex -12.8733758926 -3.43257498741 -84.5801239014
vertex -12.8803014755 -3.48209285736 -84.5801239014
vertex -15.9196929932 -2.95320034027 -84.5801239014
endloop
endfacet
facet normal 0.0 -0.0 -1.0
outer loop
vertex -15.9196929932 -2.95320034027 -84.5801239014
vertex -12.8803014755 -3.48209285736 -84.5801239014
vertex -15.9283094406 -3.00245213509 -84.5801239014
endloop
endfacet
facet normal -0.0 0.0 -1.0
outer loop
vertex -9.8124332428 -3.80737876892 -84.5801239014
vertex -9.81765937805 -3.85710477829 -84.5801239014
vertex -12.8733758926 -3.43257498741 -84.5801239014
endloop
endfacet
facet normal 0.0 -0.0 -1.0
outer loop
vertex -12.8733758926 -3.43257498741 -84.5801239014
vertex -9.81765937805 -3.85710477829 -84.5801239014
vertex -12.8803014755 -3.48209285736 -84.5801239014
endloop
endfacet
