solid 
facet normal -0.121539473534 0.992586612701 0.0
outer loop
vertex -12.8803024292 3.48209285736 -188.540878296
vertex -9.8176612854 3.85710477829 -188.540878296
vertex -9.8176612854 3.85710477829 -188.560882568
endloop
endfacet
facet normal -0.121539473534 0.992586612701 0.0
outer loop
vertex -12.8803024292 3.48209285736 -188.540878296
vertex -9.8176612854 3.85710477829 -188.560882568
vertex -12.8803024292 3.48209285736 -188.560882568
endloop
endfacet
facet normal -0.155449151993 0.987843871117 0.0
outer loop
vertex -12.8803024292 3.48209285736 -188.540878296
vertex -12.8803024292 3.48209285736 -188.560882568
vertex -15.928311348 3.00245189667 -188.560882568
endloop
endfacet
facet normal -0.189176544547 0.981943070889 0.0
outer loop
vertex -15.928311348 3.00245189667 -188.540878296
vertex -15.928311348 3.00245189667 -188.560882568
vertex -18.9581127167 2.41874456406 -188.560882568
endloop
endfacet
facet normal -0.155449151993 0.987843871117 0.0
outer loop
vertex -15.928311348 3.00245189667 -188.540878296
vertex -12.8803024292 3.48209285736 -188.540878296
vertex -15.928311348 3.00245189667 -188.560882568
endloop
endfacet
facet normal -0.189176544547 0.981943070889 0.0
outer loop
vertex -18.9581127167 2.41874456406 -188.540878296
vertex -15.928311348 3.00245189667 -188.540878296
vertex -18.9581127167 2.41874456406 -188.560882568
endloop
endfacet
facet normal -0.978553712368 -0.205992221832 0.0
outer loop
vertex -18.9478130341 2.36981654167 -188.540878296
vertex -18.9581127167 2.41874456406 -188.540878296
vertex -18.9581127167 2.41874456406 -188.560882568
endloop
endfacet
facet normal -0.978553712368 -0.205992221832 -0.0
outer loop
vertex -18.9478130341 2.36981654167 -188.540878296
vertex -18.9581127167 2.41874456406 -188.560882568
vertex -18.9478130341 2.36981654167 -188.560882568
endloop
endfacet
facet normal 0.121539503336 -0.992586612701 0.0
outer loop
vertex -9.81243419647 3.80737876892 -188.560882568
vertex -12.8733768463 3.43257474899 -188.540878296
vertex -12.8733768463 3.43257474899 -188.560882568
endloop
endfacet
facet normal 0.15544912219 -0.987843871117 0.0
outer loop
vertex -12.8733768463 3.43257474899 -188.560882568
vertex -12.8733768463 3.43257474899 -188.540878296
vertex -15.9196939468 2.95320010185 -188.560882568
endloop
endfacet
facet normal 0.121539503336 -0.992586612701 0.0
outer loop
vertex -9.81243419647 3.80737876892 -188.540878296
vertex -12.8733768463 3.43257474899 -188.540878296
vertex -9.81243419647 3.80737876892 -188.560882568
endloop
endfacet
facet normal 0.189176663756 -0.981943070889 0.0
outer loop
vertex -15.9196939468 2.95320010185 -188.560882568
vertex -15.9196939468 2.95320010185 -188.540878296
vertex -18.9478130341 2.36981654167 -188.560882568
endloop
endfacet
facet normal 0.15544912219 -0.987843871117 0.0
outer loop
vertex -12.8733768463 3.43257474899 -188.540878296
vertex -15.9196939468 2.95320010185 -188.540878296
vertex -15.9196939468 2.95320010185 -188.560882568
endloop
endfacet
facet normal 0.189176663756 -0.981943070889 0.0
outer loop
vertex -15.9196939468 2.95320010185 -188.540878296
vertex -18.9478130341 2.36981654167 -188.540878296
vertex -18.9478130341 2.36981654167 -188.560882568
endloop
endfacet
facet normal 0.994520545006 0.104541823268 0.0
outer loop
vertex -9.8176612854 3.85710477829 -188.560882568
vertex -9.81243419647 3.80737876892 -188.540878296
vertex -9.81243419647 3.80737876892 -188.560882568
endloop
endfacet
facet normal 0.994520545006 0.104541823268 0.0
outer loop
vertex -9.8176612854 3.85710477829 -188.540878296
vertex -9.81243419647 3.80737876892 -188.540878296
vertex -9.8176612854 3.85710477829 -188.560882568
endloop
endfacet
facet normal 0.0 0.0 1.0
outer loop
vertex -15.9196939468 2.95320010185 -188.540878296
vertex -15.928311348 3.00245189667 -188.540878296
vertex -18.9478130341 2.36981654167 -188.540878296
endloop
endfacet
facet normal 0.0 -0.0 1.0
outer loop
vertex -18.9478130341 2.36981654167 -188.540878296
vertex -15.928311348 3.00245189667 -188.540878296
vertex -18.9581127167 2.41874456406 -188.540878296
endloop
endfacet
facet normal 0.0 0.0 1.0
outer loop
vertex -12.8733768463 3.43257474899 -188.540878296
vertex -12.8803024292 3.48209285736 -188.540878296
vertex -15.9196939468 2.95320010185 -188.540878296
endloop
endfacet
facet normal 0.0 -0.0 1.0
outer loop
vertex -15.9196939468 2.95320010185 -188.540878296
vertex -12.8803024292 3.48209285736 -188.540878296
vertex -15.928311348 3.00245189667 -188.540878296
endloop
endfacet
facet normal 0.0 0.0 1.0
outer loop
vertex -9.81243419647 3.80737876892 -188.540878296
vertex -9.8176612854 3.85710477829 -188.540878296
vertex -12.8733768463 3.43257474899 -188.540878296
endloop
endfacet
facet normal 0.0 -0.0 1.0
outer loop
vertex -12.8733768463 3.43257474899 -188.540878296
vertex -9.8176612854 3.85710477829 -188.540878296
vertex -12.8803024292 3.48209285736 -188.540878296
endloop
endfacet
facet normal 0.0 -0.0 -1.0
outer loop
vertex -15.928311348 3.00245189667 -188.560882568
vertex -15.9196939468 2.95320010185 -188.560882568
vertex -18.9478130341 2.36981654167 -188.560882568
endloop
endfacet
facet normal 0.0 0.0 -1.0
outer loop
vertex -15.928311348 3.00245189667 -188.560882568
vertex -18.9478130341 2.36981654167 -188.560882568
vertex -18.9581127167 2.41874456406 -188.560882568
endloop
endfacet
facet normal 0.0 -0.0 -1.0
outer loop
vertex -12.8803024292 3.48209285736 -188.560882568
vertex -12.8733768463 3.43257474899 -188.560882568
vertex -15.9196939468 2.95320010185 -188.560882568
endloop
endfacet
facet normal 0.0 0.0 -1.0
outer loop
vertex -12.8803024292 3.48209285736 -188.560882568
vertex -15.9196939468 2.95320010185 -188.560882568
vertex -15.928311348 3.00245189667 -188.560882568
endloop
endfacet
facet normal 0.0 -0.0 -1.0
outer loop
vertex -9.8176612854 3.85710477829 -188.560882568
vertex -9.81243419647 3.80737876892 -188.560882568
vertex -12.8733768463 3.43257474899 -188.560882568
endloop
endfacet
facet normal 0.0 0.0 -1.0
outer loop
vertex -9.8176612854 3.85710477829 -188.560882568
vertex -12.8733768463 3.43257474899 -188.560882568
vertex -12.8803024292 3.48209285736 -188.560882568
endloop
endfacet
