solid 
facet normal -0.121539287269 -0.992586612701 0.0
outer loop
vertex -12.8802881241 -3.48209428787 -234.057907104
vertex -9.81764602661 -3.85710573196 -234.057907104
vertex -9.81764602661 -3.85710573196 -234.037902832
endloop
endfacet
facet normal -0.121539287269 -0.992586612701 0.0
outer loop
vertex -12.8802881241 -3.48209428787 -234.057907104
vertex -9.81764602661 -3.85710573196 -234.037902832
vertex -12.8802881241 -3.48209428787 -234.037902832
endloop
endfacet
facet normal -0.155448973179 -0.987843930721 0.0
outer loop
vertex -15.9282960892 -3.00245404243 -234.057907104
vertex -12.8802881241 -3.48209428787 -234.037902832
vertex -15.9282960892 -3.00245404243 -234.037902832
endloop
endfacet
facet normal -0.155448973179 -0.987843930721 0.0
outer loop
vertex -15.9282960892 -3.00245404243 -234.057907104
vertex -12.8802881241 -3.48209428787 -234.057907104
vertex -12.8802881241 -3.48209428787 -234.037902832
endloop
endfacet
facet normal -0.189176395535 -0.981943070889 0.0
outer loop
vertex -18.9580974579 -2.41874718666 -234.057907104
vertex -15.9282960892 -3.00245404243 -234.037902832
vertex -18.9580974579 -2.41874718666 -234.037902832
endloop
endfacet
facet normal -0.189176395535 -0.981943070889 0.0
outer loop
vertex -18.9580974579 -2.41874718666 -234.057907104
vertex -15.9282960892 -3.00245404243 -234.057907104
vertex -15.9282960892 -3.00245404243 -234.037902832
endloop
endfacet
facet normal -0.978561341763 0.205955684185 0.0
outer loop
vertex -18.9580974579 -2.41874718666 -234.057907104
vertex -18.9477996826 -2.36981916428 -234.037902832
vertex -18.9477996826 -2.36981916428 -234.057907104
endloop
endfacet
facet normal -0.978561341763 0.205955684185 0.0
outer loop
vertex -18.9580974579 -2.41874718666 -234.037902832
vertex -18.9477996826 -2.36981916428 -234.037902832
vertex -18.9580974579 -2.41874718666 -234.057907104
endloop
endfacet
facet normal 0.121539384127 0.992586612701 0.0
outer loop
vertex -9.81241989136 -3.8073797226 -234.037902832
vertex -9.81241989136 -3.8073797226 -234.057907104
vertex -12.8733615875 -3.4325761795 -234.037902832
endloop
endfacet
facet normal 0.121539384127 0.992586612701 0.0
outer loop
vertex -9.81241989136 -3.8073797226 -234.057907104
vertex -12.8733615875 -3.4325761795 -234.057907104
vertex -12.8733615875 -3.4325761795 -234.037902832
endloop
endfacet
facet normal 0.155448973179 0.987843930721 0.0
outer loop
vertex -12.8733615875 -3.4325761795 -234.037902832
vertex -15.919678688 -2.9532020092 -234.057907104
vertex -15.919678688 -2.9532020092 -234.037902832
endloop
endfacet
facet normal 0.155448973179 0.987843930721 -0.0
outer loop
vertex -12.8733615875 -3.4325761795 -234.057907104
vertex -15.919678688 -2.9532020092 -234.057907104
vertex -12.8733615875 -3.4325761795 -234.037902832
endloop
endfacet
facet normal 0.189176291227 0.981943070889 0.0
outer loop
vertex -15.919678688 -2.9532020092 -234.037902832
vertex -18.9477996826 -2.36981916428 -234.057907104
vertex -18.9477996826 -2.36981916428 -234.037902832
endloop
endfacet
facet normal 0.189176291227 0.981943070889 -0.0
outer loop
vertex -15.919678688 -2.9532020092 -234.057907104
vertex -18.9477996826 -2.36981916428 -234.057907104
vertex -15.919678688 -2.9532020092 -234.037902832
endloop
endfacet
facet normal 0.994522511959 -0.104522958398 0.0
outer loop
vertex -9.81241989136 -3.8073797226 -234.037902832
vertex -9.81764602661 -3.85710573196 -234.057907104
vertex -9.81241989136 -3.8073797226 -234.057907104
endloop
endfacet
facet normal 0.994522511959 -0.104522958398 0.0
outer loop
vertex -9.81241989136 -3.8073797226 -234.037902832
vertex -9.81764602661 -3.85710573196 -234.037902832
vertex -9.81764602661 -3.85710573196 -234.057907104
endloop
endfacet
facet normal 0.0 -0.0 1.0
outer loop
vertex -15.9282960892 -3.00245404243 -234.037902832
vertex -15.919678688 -2.9532020092 -234.037902832
vertex -18.9477996826 -2.36981916428 -234.037902832
endloop
endfacet
facet normal 0.0 0.0 1.0
outer loop
vertex -15.9282960892 -3.00245404243 -234.037902832
vertex -18.9477996826 -2.36981916428 -234.037902832
vertex -18.9580974579 -2.41874718666 -234.037902832
endloop
endfacet
facet normal 0.0 -0.0 1.0
outer loop
vertex -12.8802881241 -3.48209428787 -234.037902832
vertex -12.8733615875 -3.4325761795 -234.037902832
vertex -15.919678688 -2.9532020092 -234.037902832
endloop
endfacet
facet normal 0.0 0.0 1.0
outer loop
vertex -12.8802881241 -3.48209428787 -234.037902832
vertex -15.919678688 -2.9532020092 -234.037902832
vertex -15.9282960892 -3.00245404243 -234.037902832
endloop
endfacet
facet normal 0.0 -0.0 1.0
outer loop
vertex -9.81764602661 -3.85710573196 -234.037902832
vertex -9.81241989136 -3.8073797226 -234.037902832
vertex -12.8733615875 -3.4325761795 -234.037902832
endloop
endfacet
facet normal 0.0 0.0 1.0
outer loop
vertex -9.81764602661 -3.85710573196 -234.037902832
vertex -12.8733615875 -3.4325761795 -234.037902832
vertex -12.8802881241 -3.48209428787 -234.037902832
endloop
endfacet
facet normal -0.0 0.0 -1.0
outer loop
vertex -15.919678688 -2.9532020092 -234.057907104
vertex -15.9282960892 -3.00245404243 -234.057907104
vertex -18.9477996826 -2.36981916428 -234.057907104
endloop
endfacet
facet normal 0.0 -0.0 -1.0
outer loop
vertex -18.9477996826 -2.36981916428 -234.057907104
vertex -15.9282960892 -3.00245404243 -234.057907104
vertex -18.9580974579 -2.41874718666 -234.057907104
endloop
endfacet
facet normal -0.0 0.0 -1.0
outer loop
vertex -12.8733615875 -3.4325761795 -234.057907104
vertex -12.8802881241 -3.48209428787 -234.057907104
vertex -15.919678688 -2.9532020092 -234.057907104
endloop
endfacet
facet normal 0.0 -0.0 -1.0
outer loop
vertex -15.919678688 -2.9532020092 -234.057907104
vertex -12.8802881241 -3.48209428787 -234.057907104
vertex -15.9282960892 -3.00245404243 -234.057907104
endloop
endfacet
facet normal -0.0 0.0 -1.0
outer loop
vertex -9.81241989136 -3.8073797226 -234.057907104
vertex -9.81764602661 -3.85710573196 -234.057907104
vertex -12.8733615875 -3.4325761795 -234.057907104
endloop
endfacet
facet normal 0.0 -0.0 -1.0
outer loop
vertex -12.8733615875 -3.4325761795 -234.057907104
vertex -9.81764602661 -3.85710573196 -234.057907104
vertex -12.8802881241 -3.48209428787 -234.057907104
endloop
endfacet
