solid 
facet normal 0.121539287269 0.992586612701 0.0
outer loop
vertex 12.8802909851 3.48209404945 244.388000488
vertex 9.81764888763 3.85710549355 244.388000488
vertex 9.81764888763 3.85710549355 244.408004761
endloop
endfacet
facet normal 0.121539287269 0.992586612701 -0.0
outer loop
vertex 12.8802909851 3.48209404945 244.388000488
vertex 9.81764888763 3.85710549355 244.408004761
vertex 12.8802909851 3.48209404945 244.408004761
endloop
endfacet
facet normal 0.155449047685 0.987843930721 -0.0
outer loop
vertex 15.9282989502 3.0024535656 244.388000488
vertex 12.8802909851 3.48209404945 244.408004761
vertex 15.9282989502 3.0024535656 244.408004761
endloop
endfacet
facet normal 0.18917645514 0.981943070889 -0.0
outer loop
vertex 15.9282989502 3.0024535656 244.388000488
vertex 15.9282989502 3.0024535656 244.408004761
vertex 18.9580993652 2.41874670982 244.408004761
endloop
endfacet
facet normal 0.155449047685 0.987843930721 0.0
outer loop
vertex 15.9282989502 3.0024535656 244.388000488
vertex 12.8802909851 3.48209404945 244.388000488
vertex 12.8802909851 3.48209404945 244.408004761
endloop
endfacet
facet normal 0.18917645514 0.981943070889 -0.0
outer loop
vertex 18.9580993652 2.41874670982 244.388000488
vertex 15.9282989502 3.0024535656 244.388000488
vertex 18.9580993652 2.41874670982 244.408004761
endloop
endfacet
facet normal 0.978561341763 -0.205955684185 0.0
outer loop
vertex 18.94780159 2.36981868744 244.408004761
vertex 18.9580993652 2.41874670982 244.388000488
vertex 18.9580993652 2.41874670982 244.408004761
endloop
endfacet
facet normal 0.978561341763 -0.205955684185 0.0
outer loop
vertex 18.94780159 2.36981868744 244.388000488
vertex 18.9580993652 2.41874670982 244.388000488
vertex 18.94780159 2.36981868744 244.408004761
endloop
endfacet
facet normal -0.121539279819 -0.992586672306 0.0
outer loop
vertex 9.81242275238 3.80737924576 244.408004761
vertex 12.8733654022 3.43257594109 244.388000488
vertex 12.8733654022 3.43257594109 244.408004761
endloop
endfacet
facet normal -0.121539279819 -0.992586672306 0.0
outer loop
vertex 9.81242275238 3.80737924576 244.388000488
vertex 12.8733654022 3.43257594109 244.388000488
vertex 9.81242275238 3.80737924576 244.408004761
endloop
endfacet
facet normal -0.155448973179 -0.987843930721 0.0
outer loop
vertex 12.8733654022 3.43257594109 244.408004761
vertex 15.9196825027 2.95320177078 244.388000488
vertex 15.9196825027 2.95320177078 244.408004761
endloop
endfacet
facet normal -0.189176529646 -0.981943130493 -0.0
outer loop
vertex 15.9196825027 2.95320177078 244.408004761
vertex 15.9196825027 2.95320177078 244.388000488
vertex 18.94780159 2.36981868744 244.408004761
endloop
endfacet
facet normal -0.155448973179 -0.987843930721 0.0
outer loop
vertex 12.8733654022 3.43257594109 244.388000488
vertex 15.9196825027 2.95320177078 244.388000488
vertex 12.8733654022 3.43257594109 244.408004761
endloop
endfacet
facet normal -0.189176529646 -0.981943130493 0.0
outer loop
vertex 15.9196825027 2.95320177078 244.388000488
vertex 18.94780159 2.36981868744 244.388000488
vertex 18.94780159 2.36981868744 244.408004761
endloop
endfacet
facet normal -0.994522571564 0.104522459209 0.0
outer loop
vertex 9.81764888763 3.85710549355 244.388000488
vertex 9.81242275238 3.80737924576 244.388000488
vertex 9.81242275238 3.80737924576 244.408004761
endloop
endfacet
facet normal -0.994522571564 0.104522459209 0.0
outer loop
vertex 9.81764888763 3.85710549355 244.388000488
vertex 9.81242275238 3.80737924576 244.408004761
vertex 9.81764888763 3.85710549355 244.408004761
endloop
endfacet
facet normal 0.0 0.0 -1.0
outer loop
vertex 18.94780159 2.36981868744 244.388000488
vertex 15.9196825027 2.95320177078 244.388000488
vertex 18.9580993652 2.41874670982 244.388000488
endloop
endfacet
facet normal 0.0 0.0 -1.0
outer loop
vertex 15.9196825027 2.95320177078 244.388000488
vertex 15.9282989502 3.0024535656 244.388000488
vertex 18.9580993652 2.41874670982 244.388000488
endloop
endfacet
facet normal 0.0 0.0 -1.0
outer loop
vertex 15.9196825027 2.95320177078 244.388000488
vertex 12.8733654022 3.43257594109 244.388000488
vertex 15.9282989502 3.0024535656 244.388000488
endloop
endfacet
facet normal 0.0 0.0 -1.0
outer loop
vertex 12.8733654022 3.43257594109 244.388000488
vertex 12.8802909851 3.48209404945 244.388000488
vertex 15.9282989502 3.0024535656 244.388000488
endloop
endfacet
facet normal 0.0 0.0 -1.0
outer loop
vertex 12.8733654022 3.43257594109 244.388000488
vertex 9.81242275238 3.80737924576 244.388000488
vertex 12.8802909851 3.48209404945 244.388000488
endloop
endfacet
facet normal 0.0 0.0 -1.0
outer loop
vertex 9.81242275238 3.80737924576 244.388000488
vertex 9.81764888763 3.85710549355 244.388000488
vertex 12.8802909851 3.48209404945 244.388000488
endloop
endfacet
facet normal 0.0 0.0 1.0
outer loop
vertex 15.9196825027 2.95320177078 244.408004761
vertex 18.94780159 2.36981868744 244.408004761
vertex 18.9580993652 2.41874670982 244.408004761
endloop
endfacet
facet normal 0.0 0.0 1.0
outer loop
vertex 15.9282989502 3.0024535656 244.408004761
vertex 15.9196825027 2.95320177078 244.408004761
vertex 18.9580993652 2.41874670982 244.408004761
endloop
endfacet
facet normal 0.0 0.0 1.0
outer loop
vertex 12.8733654022 3.43257594109 244.408004761
vertex 15.9196825027 2.95320177078 244.408004761
vertex 15.9282989502 3.0024535656 244.408004761
endloop
endfacet
facet normal 0.0 0.0 1.0
outer loop
vertex 12.8802909851 3.48209404945 244.408004761
vertex 12.8733654022 3.43257594109 244.408004761
vertex 15.9282989502 3.0024535656 244.408004761
endloop
endfacet
facet normal 0.0 0.0 1.0
outer loop
vertex 9.81242275238 3.80737924576 244.408004761
vertex 12.8733654022 3.43257594109 244.408004761
vertex 12.8802909851 3.48209404945 244.408004761
endloop
endfacet
facet normal 0.0 0.0 1.0
outer loop
vertex 9.81764888763 3.85710549355 244.408004761
vertex 9.81242275238 3.80737924576 244.408004761
vertex 12.8802909851 3.48209404945 244.408004761
endloop
endfacet
