solid 
facet normal -0.121539287269 0.992586612701 0.0
outer loop
vertex -9.81764602661 3.85710573196 237.166000366
vertex -9.81764602661 3.85710573196 237.145996094
vertex -12.8802881241 3.48209428787 237.145996094
endloop
endfacet
facet normal -0.155448973179 0.987843930721 0.0
outer loop
vertex -12.8802881241 3.48209428787 237.166000366
vertex -12.8802881241 3.48209428787 237.145996094
vertex -15.9282960892 3.00245404243 237.145996094
endloop
endfacet
facet normal -0.121539287269 0.992586612701 0.0
outer loop
vertex -12.8802881241 3.48209428787 237.166000366
vertex -9.81764602661 3.85710573196 237.166000366
vertex -12.8802881241 3.48209428787 237.145996094
endloop
endfacet
facet normal -0.155448973179 0.987843930721 0.0
outer loop
vertex -15.9282960892 3.00245404243 237.166000366
vertex -12.8802881241 3.48209428787 237.166000366
vertex -15.9282960892 3.00245404243 237.145996094
endloop
endfacet
facet normal -0.189176395535 0.981943070889 0.0
outer loop
vertex -18.9580974579 2.41874718666 237.166000366
vertex -15.9282960892 3.00245404243 237.145996094
vertex -18.9580974579 2.41874718666 237.145996094
endloop
endfacet
facet normal -0.189176395535 0.981943070889 0.0
outer loop
vertex -18.9580974579 2.41874718666 237.166000366
vertex -15.9282960892 3.00245404243 237.166000366
vertex -15.9282960892 3.00245404243 237.145996094
endloop
endfacet
facet normal -0.978561341763 -0.205955684185 0.0
outer loop
vertex -18.9580974579 2.41874718666 237.145996094
vertex -18.9477996826 2.36981916428 237.166000366
vertex -18.9580974579 2.41874718666 237.166000366
endloop
endfacet
facet normal -0.978561341763 -0.205955684185 0.0
outer loop
vertex -18.9580974579 2.41874718666 237.145996094
vertex -18.9477996826 2.36981916428 237.145996094
vertex -18.9477996826 2.36981916428 237.166000366
endloop
endfacet
facet normal 0.121539279819 -0.992586672306 0.0
outer loop
vertex -9.81241989136 3.8073797226 237.145996094
vertex -9.81241989136 3.8073797226 237.166000366
vertex -12.8733625412 3.43257641792 237.145996094
endloop
endfacet
facet normal 0.155448973179 -0.987843930721 0.0
outer loop
vertex -12.8733625412 3.43257641792 237.145996094
vertex -12.8733625412 3.43257641792 237.166000366
vertex -15.9196796417 2.95320224762 237.145996094
endloop
endfacet
facet normal 0.121539279819 -0.992586672306 0.0
outer loop
vertex -9.81241989136 3.8073797226 237.166000366
vertex -12.8733625412 3.43257641792 237.166000366
vertex -12.8733625412 3.43257641792 237.145996094
endloop
endfacet
facet normal 0.155448973179 -0.987843930721 0.0
outer loop
vertex -12.8733625412 3.43257641792 237.166000366
vertex -15.9196796417 2.95320224762 237.166000366
vertex -15.9196796417 2.95320224762 237.145996094
endloop
endfacet
facet normal 0.18917645514 -0.981943130493 0.0
outer loop
vertex -15.9196796417 2.95320224762 237.145996094
vertex -18.9477996826 2.36981916428 237.166000366
vertex -18.9477996826 2.36981916428 237.145996094
endloop
endfacet
facet normal 0.18917645514 -0.981943130493 0.0
outer loop
vertex -15.9196796417 2.95320224762 237.166000366
vertex -18.9477996826 2.36981916428 237.166000366
vertex -15.9196796417 2.95320224762 237.145996094
endloop
endfacet
facet normal 0.994522511959 0.104522958398 0.0
outer loop
vertex -9.81241989136 3.8073797226 237.166000366
vertex -9.81764602661 3.85710573196 237.145996094
vertex -9.81764602661 3.85710573196 237.166000366
endloop
endfacet
facet normal 0.994522511959 0.104522958398 -0.0
outer loop
vertex -9.81241989136 3.8073797226 237.145996094
vertex -9.81764602661 3.85710573196 237.145996094
vertex -9.81241989136 3.8073797226 237.166000366
endloop
endfacet
facet normal 0.0 0.0 -1.0
outer loop
vertex -15.9196796417 2.95320224762 237.145996094
vertex -18.9477996826 2.36981916428 237.145996094
vertex -18.9580974579 2.41874718666 237.145996094
endloop
endfacet
facet normal 0.0 -0.0 -1.0
outer loop
vertex -15.9282960892 3.00245404243 237.145996094
vertex -15.9196796417 2.95320224762 237.145996094
vertex -18.9580974579 2.41874718666 237.145996094
endloop
endfacet
facet normal 0.0 0.0 -1.0
outer loop
vertex -12.8733625412 3.43257641792 237.145996094
vertex -15.9196796417 2.95320224762 237.145996094
vertex -15.9282960892 3.00245404243 237.145996094
endloop
endfacet
facet normal 0.0 -0.0 -1.0
outer loop
vertex -12.8802881241 3.48209428787 237.145996094
vertex -12.8733625412 3.43257641792 237.145996094
vertex -15.9282960892 3.00245404243 237.145996094
endloop
endfacet
facet normal 0.0 0.0 -1.0
outer loop
vertex -9.81241989136 3.8073797226 237.145996094
vertex -12.8733625412 3.43257641792 237.145996094
vertex -12.8802881241 3.48209428787 237.145996094
endloop
endfacet
facet normal 0.0 -0.0 -1.0
outer loop
vertex -9.81764602661 3.85710573196 237.145996094
vertex -9.81241989136 3.8073797226 237.145996094
vertex -12.8802881241 3.48209428787 237.145996094
endloop
endfacet
facet normal 0.0 -0.0 1.0
outer loop
vertex -18.9477996826 2.36981916428 237.166000366
vertex -15.9196796417 2.95320224762 237.166000366
vertex -18.9580974579 2.41874718666 237.166000366
endloop
endfacet
facet normal 0.0 0.0 1.0
outer loop
vertex -15.9196796417 2.95320224762 237.166000366
vertex -15.9282960892 3.00245404243 237.166000366
vertex -18.9580974579 2.41874718666 237.166000366
endloop
endfacet
facet normal 0.0 -0.0 1.0
outer loop
vertex -15.9196796417 2.95320224762 237.166000366
vertex -12.8733625412 3.43257641792 237.166000366
vertex -15.9282960892 3.00245404243 237.166000366
endloop
endfacet
facet normal 0.0 0.0 1.0
outer loop
vertex -12.8733625412 3.43257641792 237.166000366
vertex -12.8802881241 3.48209428787 237.166000366
vertex -15.9282960892 3.00245404243 237.166000366
endloop
endfacet
facet normal 0.0 0.0 1.0
outer loop
vertex -9.81241989136 3.8073797226 237.166000366
vertex -9.81764602661 3.85710573196 237.166000366
vertex -12.8733625412 3.43257641792 237.166000366
endloop
endfacet
facet normal 0.0 -0.0 1.0
outer loop
vertex -12.8733625412 3.43257641792 237.166000366
vertex -9.81764602661 3.85710573196 237.166000366
vertex -12.8802881241 3.48209428787 237.166000366
endloop
endfacet
