solid 
facet normal 0.0191151127219 0.999817311764 -0.0
outer loop
vertex 0.577888786793 4.35058689117 -156.06187439
vertex 0.577888786793 4.35058689117 -156.041870117
vertex 3.6628408432 4.29160690308 -156.041870117
endloop
endfacet
facet normal 0.0191151127219 0.999817311764 -0.0
outer loop
vertex 3.6628408432 4.29160690308 -156.06187439
vertex 0.577888786793 4.35058689117 -156.06187439
vertex 3.6628408432 4.29160690308 -156.041870117
endloop
endfacet
facet normal 0.0533325411379 0.998576760292 -0.0
outer loop
vertex 6.74396562576 4.12704849243 -156.06187439
vertex 3.6628408432 4.29160690308 -156.041870117
vertex 6.74396562576 4.12704849243 -156.041870117
endloop
endfacet
facet normal 0.0533325411379 0.998576760292 0.0
outer loop
vertex 6.74396562576 4.12704849243 -156.06187439
vertex 3.6628408432 4.29160690308 -156.06187439
vertex 3.6628408432 4.29160690308 -156.041870117
endloop
endfacet
facet normal 0.087487064302 0.996165633202 -0.0
outer loop
vertex 9.81765079498 3.85710573196 -156.06187439
vertex 6.74396562576 4.12704849243 -156.041870117
vertex 9.81765079498 3.85710573196 -156.041870117
endloop
endfacet
facet normal 0.087487064302 0.996165633202 0.0
outer loop
vertex 9.81765079498 3.85710573196 -156.06187439
vertex 6.74396562576 4.12704849243 -156.06187439
vertex 6.74396562576 4.12704849243 -156.041870117
endloop
endfacet
facet normal 0.99452060461 -0.104541324079 0.0
outer loop
vertex 9.81765079498 3.85710573196 -156.06187439
vertex 9.81242370605 3.80737948418 -156.041870117
vertex 9.81242370605 3.80737948418 -156.06187439
endloop
endfacet
facet normal 0.99452060461 -0.104541324079 0.0
outer loop
vertex 9.81765079498 3.85710573196 -156.041870117
vertex 9.81242370605 3.80737948418 -156.041870117
vertex 9.81765079498 3.85710573196 -156.06187439
endloop
endfacet
facet normal -0.0191150568426 -0.999817311764 0.0
outer loop
vertex 0.577789008617 4.30058670044 -156.041870117
vertex 3.66102957726 4.24163961411 -156.06187439
vertex 3.66102957726 4.24163961411 -156.041870117
endloop
endfacet
facet normal -0.0191150568426 -0.999817311764 0.0
outer loop
vertex 0.577789008617 4.30058670044 -156.06187439
vertex 3.66102957726 4.24163961411 -156.06187439
vertex 0.577789008617 4.30058670044 -156.041870117
endloop
endfacet
facet normal -0.0533324629068 -0.998576819897 0.0
outer loop
vertex 3.66102957726 4.24163961411 -156.041870117
vertex 6.74044466019 4.0771727562 -156.06187439
vertex 6.74044466019 4.0771727562 -156.041870117
endloop
endfacet
facet normal -0.0874871835113 -0.996165692806 -0.0
outer loop
vertex 6.74044466019 4.0771727562 -156.041870117
vertex 6.74044466019 4.0771727562 -156.06187439
vertex 9.81242370605 3.80737948418 -156.041870117
endloop
endfacet
facet normal -0.0533324629068 -0.998576819897 0.0
outer loop
vertex 3.66102957726 4.24163961411 -156.06187439
vertex 6.74044466019 4.0771727562 -156.06187439
vertex 3.66102957726 4.24163961411 -156.041870117
endloop
endfacet
facet normal -0.0874871835113 -0.996165692806 0.0
outer loop
vertex 6.74044466019 4.0771727562 -156.06187439
vertex 9.81242370605 3.80737948418 -156.06187439
vertex 9.81242370605 3.80737948418 -156.041870117
endloop
endfacet
facet normal -0.999998033047 0.00199555209838 0.0
outer loop
vertex 0.577789008617 4.30058670044 -156.041870117
vertex 0.577888786793 4.35058689117 -156.06187439
vertex 0.577789008617 4.30058670044 -156.06187439
endloop
endfacet
facet normal -0.999998033047 0.00199555209838 0.0
outer loop
vertex 0.577789008617 4.30058670044 -156.041870117
vertex 0.577888786793 4.35058689117 -156.041870117
vertex 0.577888786793 4.35058689117 -156.06187439
endloop
endfacet
facet normal 0.0 0.0 1.0
outer loop
vertex 6.74044466019 4.0771727562 -156.041870117
vertex 9.81242370605 3.80737948418 -156.041870117
vertex 9.81765079498 3.85710573196 -156.041870117
endloop
endfacet
facet normal 0.0 0.0 1.0
outer loop
vertex 6.74396562576 4.12704849243 -156.041870117
vertex 6.74044466019 4.0771727562 -156.041870117
vertex 9.81765079498 3.85710573196 -156.041870117
endloop
endfacet
facet normal 0.0 0.0 1.0
outer loop
vertex 3.66102957726 4.24163961411 -156.041870117
vertex 6.74044466019 4.0771727562 -156.041870117
vertex 6.74396562576 4.12704849243 -156.041870117
endloop
endfacet
facet normal 0.0 0.0 1.0
outer loop
vertex 3.6628408432 4.29160690308 -156.041870117
vertex 3.66102957726 4.24163961411 -156.041870117
vertex 6.74396562576 4.12704849243 -156.041870117
endloop
endfacet
facet normal 0.0 0.0 1.0
outer loop
vertex 0.577789008617 4.30058670044 -156.041870117
vertex 3.66102957726 4.24163961411 -156.041870117
vertex 3.6628408432 4.29160690308 -156.041870117
endloop
endfacet
facet normal 0.0 0.0 1.0
outer loop
vertex 0.577888786793 4.35058689117 -156.041870117
vertex 0.577789008617 4.30058670044 -156.041870117
vertex 3.6628408432 4.29160690308 -156.041870117
endloop
endfacet
facet normal 0.0 0.0 -1.0
outer loop
vertex 6.74044466019 4.0771727562 -156.06187439
vertex 6.74396562576 4.12704849243 -156.06187439
vertex 9.81242370605 3.80737948418 -156.06187439
endloop
endfacet
facet normal 0.0 0.0 -1.0
outer loop
vertex 9.81242370605 3.80737948418 -156.06187439
vertex 6.74396562576 4.12704849243 -156.06187439
vertex 9.81765079498 3.85710573196 -156.06187439
endloop
endfacet
facet normal 0.0 0.0 -1.0
outer loop
vertex 3.66102957726 4.24163961411 -156.06187439
vertex 3.6628408432 4.29160690308 -156.06187439
vertex 6.74044466019 4.0771727562 -156.06187439
endloop
endfacet
facet normal 0.0 0.0 -1.0
outer loop
vertex 6.74044466019 4.0771727562 -156.06187439
vertex 3.6628408432 4.29160690308 -156.06187439
vertex 6.74396562576 4.12704849243 -156.06187439
endloop
endfacet
facet normal 0.0 0.0 -1.0
outer loop
vertex 0.577789008617 4.30058670044 -156.06187439
vertex 0.577888786793 4.35058689117 -156.06187439
vertex 3.66102957726 4.24163961411 -156.06187439
endloop
endfacet
facet normal 0.0 0.0 -1.0
outer loop
vertex 3.66102957726 4.24163961411 -156.06187439
vertex 0.577888786793 4.35058689117 -156.06187439
vertex 3.6628408432 4.29160690308 -156.06187439
endloop
endfacet
