solid 
facet normal 0.0191151127219 0.999817311764 0.0
outer loop
vertex 3.6628305912 4.29160642624 -338.461578369
vertex 0.57787835598 4.35058641434 -338.461578369
vertex 0.57787835598 4.35058641434 -338.441558838
endloop
endfacet
facet normal 0.0191151127219 0.999817311764 -0.0
outer loop
vertex 3.6628305912 4.29160642624 -338.461578369
vertex 0.57787835598 4.35058641434 -338.441558838
vertex 3.6628305912 4.29160642624 -338.441558838
endloop
endfacet
facet normal 0.0533322393894 0.998576819897 -0.0
outer loop
vertex 6.74395513535 4.12704896927 -338.461578369
vertex 3.6628305912 4.29160642624 -338.441558838
vertex 6.74395513535 4.12704896927 -338.441558838
endloop
endfacet
facet normal 0.0874870717525 0.996165633202 -0.0
outer loop
vertex 6.74395513535 4.12704896927 -338.461578369
vertex 6.74395513535 4.12704896927 -338.441558838
vertex 9.81764030457 3.8571062088 -338.441558838
endloop
endfacet
facet normal 0.0533322393894 0.998576819897 0.0
outer loop
vertex 6.74395513535 4.12704896927 -338.461578369
vertex 3.6628305912 4.29160642624 -338.461578369
vertex 3.6628305912 4.29160642624 -338.441558838
endloop
endfacet
facet normal 0.0874870717525 0.996165633202 -0.0
outer loop
vertex 9.81764030457 3.8571062088 -338.461578369
vertex 6.74395513535 4.12704896927 -338.461578369
vertex 9.81764030457 3.8571062088 -338.441558838
endloop
endfacet
facet normal 0.99452239275 -0.104522936046 0.0
outer loop
vertex 9.81764030457 3.8571062088 -338.461578369
vertex 9.81241416931 3.80738019943 -338.441558838
vertex 9.81241416931 3.80738019943 -338.461578369
endloop
endfacet
facet normal 0.99452239275 -0.104522936046 0.0
outer loop
vertex 9.81764030457 3.8571062088 -338.441558838
vertex 9.81241416931 3.80738019943 -338.441558838
vertex 9.81764030457 3.8571062088 -338.461578369
endloop
endfacet
facet normal -0.0191150568426 -0.999817311764 0.0
outer loop
vertex 0.577778577805 4.3005862236 -338.441558838
vertex 3.66101908684 4.24163913727 -338.461578369
vertex 3.66101908684 4.24163913727 -338.441558838
endloop
endfacet
facet normal -0.0191150568426 -0.999817311764 0.0
outer loop
vertex 0.577778577805 4.3005862236 -338.461578369
vertex 3.66101908684 4.24163913727 -338.461578369
vertex 0.577778577805 4.3005862236 -338.441558838
endloop
endfacet
facet normal -0.0533321537077 -0.998576819897 0.0
outer loop
vertex 3.66101908684 4.24163913727 -338.441558838
vertex 6.74043416977 4.07717323303 -338.461578369
vertex 6.74043416977 4.07717323303 -338.441558838
endloop
endfacet
facet normal -0.0874870717525 -0.996165633202 -0.0
outer loop
vertex 6.74043416977 4.07717323303 -338.441558838
vertex 6.74043416977 4.07717323303 -338.461578369
vertex 9.81241416931 3.80738019943 -338.441558838
endloop
endfacet
facet normal -0.0533321537077 -0.998576819897 0.0
outer loop
vertex 3.66101908684 4.24163913727 -338.461578369
vertex 6.74043416977 4.07717323303 -338.461578369
vertex 3.66101908684 4.24163913727 -338.441558838
endloop
endfacet
facet normal -0.0874870717525 -0.996165633202 0.0
outer loop
vertex 6.74043416977 4.07717323303 -338.461578369
vertex 9.81241416931 3.80738019943 -338.461578369
vertex 9.81241416931 3.80738019943 -338.441558838
endloop
endfacet
facet normal -0.999998033047 0.00199555186555 0.0
outer loop
vertex 0.577778577805 4.3005862236 -338.461578369
vertex 0.57787835598 4.35058641434 -338.441558838
vertex 0.57787835598 4.35058641434 -338.461578369
endloop
endfacet
facet normal -0.999998033047 0.00199555186555 0.0
outer loop
vertex 0.577778577805 4.3005862236 -338.441558838
vertex 0.57787835598 4.35058641434 -338.441558838
vertex 0.577778577805 4.3005862236 -338.461578369
endloop
endfacet
facet normal 0.0 0.0 1.0
outer loop
vertex 6.74043416977 4.07717323303 -338.441558838
vertex 9.81241416931 3.80738019943 -338.441558838
vertex 9.81764030457 3.8571062088 -338.441558838
endloop
endfacet
facet normal 0.0 0.0 1.0
outer loop
vertex 6.74395513535 4.12704896927 -338.441558838
vertex 6.74043416977 4.07717323303 -338.441558838
vertex 9.81764030457 3.8571062088 -338.441558838
endloop
endfacet
facet normal 0.0 0.0 1.0
outer loop
vertex 3.66101908684 4.24163913727 -338.441558838
vertex 6.74043416977 4.07717323303 -338.441558838
vertex 6.74395513535 4.12704896927 -338.441558838
endloop
endfacet
facet normal 0.0 0.0 1.0
outer loop
vertex 3.6628305912 4.29160642624 -338.441558838
vertex 3.66101908684 4.24163913727 -338.441558838
vertex 6.74395513535 4.12704896927 -338.441558838
endloop
endfacet
facet normal 0.0 0.0 1.0
outer loop
vertex 0.57787835598 4.35058641434 -338.441558838
vertex 0.577778577805 4.3005862236 -338.441558838
vertex 3.66101908684 4.24163913727 -338.441558838
endloop
endfacet
facet normal 0.0 0.0 1.0
outer loop
vertex 0.57787835598 4.35058641434 -338.441558838
vertex 3.66101908684 4.24163913727 -338.441558838
vertex 3.6628305912 4.29160642624 -338.441558838
endloop
endfacet
facet normal 0.0 0.0 -1.0
outer loop
vertex 9.81241416931 3.80738019943 -338.461578369
vertex 6.74043416977 4.07717323303 -338.461578369
vertex 9.81764030457 3.8571062088 -338.461578369
endloop
endfacet
facet normal 0.0 0.0 -1.0
outer loop
vertex 6.74043416977 4.07717323303 -338.461578369
vertex 6.74395513535 4.12704896927 -338.461578369
vertex 9.81764030457 3.8571062088 -338.461578369
endloop
endfacet
facet normal 0.0 0.0 -1.0
outer loop
vertex 6.74043416977 4.07717323303 -338.461578369
vertex 3.66101908684 4.24163913727 -338.461578369
vertex 6.74395513535 4.12704896927 -338.461578369
endloop
endfacet
facet normal 0.0 0.0 -1.0
outer loop
vertex 3.66101908684 4.24163913727 -338.461578369
vertex 3.6628305912 4.29160642624 -338.461578369
vertex 6.74395513535 4.12704896927 -338.461578369
endloop
endfacet
facet normal 0.0 0.0 -1.0
outer loop
vertex 3.66101908684 4.24163913727 -338.461578369
vertex 0.577778577805 4.3005862236 -338.461578369
vertex 3.6628305912 4.29160642624 -338.461578369
endloop
endfacet
facet normal 0.0 0.0 -1.0
outer loop
vertex 0.577778577805 4.3005862236 -338.461578369
vertex 0.57787835598 4.35058641434 -338.461578369
vertex 3.6628305912 4.29160642624 -338.461578369
endloop
endfacet
