solid 
facet normal 0.121539287269 -0.992586612701 0.0
outer loop
vertex 12.8802881241 -3.48209428787 -241.219909668
vertex 9.81764602661 -3.85710573196 -241.219909668
vertex 9.81764602661 -3.85710573196 -241.23991394
endloop
endfacet
facet normal 0.121539287269 -0.992586612701 0.0
outer loop
vertex 12.8802881241 -3.48209428787 -241.219909668
vertex 9.81764602661 -3.85710573196 -241.23991394
vertex 12.8802881241 -3.48209428787 -241.23991394
endloop
endfacet
facet normal 0.155448973179 -0.987843930721 0.0
outer loop
vertex 15.9282960892 -3.00245404243 -241.219909668
vertex 12.8802881241 -3.48209428787 -241.23991394
vertex 15.9282960892 -3.00245404243 -241.23991394
endloop
endfacet
facet normal 0.189176395535 -0.981943070889 0.0
outer loop
vertex 15.9282960892 -3.00245404243 -241.219909668
vertex 15.9282960892 -3.00245404243 -241.23991394
vertex 18.9580974579 -2.41874718666 -241.23991394
endloop
endfacet
facet normal 0.155448973179 -0.987843930721 0.0
outer loop
vertex 15.9282960892 -3.00245404243 -241.219909668
vertex 12.8802881241 -3.48209428787 -241.219909668
vertex 12.8802881241 -3.48209428787 -241.23991394
endloop
endfacet
facet normal 0.189176395535 -0.981943070889 0.0
outer loop
vertex 18.9580974579 -2.41874718666 -241.219909668
vertex 15.9282960892 -3.00245404243 -241.219909668
vertex 18.9580974579 -2.41874718666 -241.23991394
endloop
endfacet
facet normal 0.978561341763 0.205955684185 0.0
outer loop
vertex 18.9477996826 -2.36981916428 -241.23991394
vertex 18.9580974579 -2.41874718666 -241.219909668
vertex 18.9580974579 -2.41874718666 -241.23991394
endloop
endfacet
facet normal 0.978561341763 0.205955684185 0.0
outer loop
vertex 18.9477996826 -2.36981916428 -241.219909668
vertex 18.9580974579 -2.41874718666 -241.219909668
vertex 18.9477996826 -2.36981916428 -241.23991394
endloop
endfacet
facet normal -0.121539279819 0.992586672306 0.0
outer loop
vertex 9.81241989136 -3.8073797226 -241.23991394
vertex 12.8733625412 -3.43257641792 -241.219909668
vertex 12.8733625412 -3.43257641792 -241.23991394
endloop
endfacet
facet normal -0.121539279819 0.992586672306 0.0
outer loop
vertex 9.81241989136 -3.8073797226 -241.219909668
vertex 12.8733625412 -3.43257641792 -241.219909668
vertex 9.81241989136 -3.8073797226 -241.23991394
endloop
endfacet
facet normal -0.155448973179 0.987843930721 0.0
outer loop
vertex 12.8733625412 -3.43257641792 -241.23991394
vertex 15.9196796417 -2.95320224762 -241.219909668
vertex 15.9196796417 -2.95320224762 -241.23991394
endloop
endfacet
facet normal -0.18917645514 0.981943130493 0.0
outer loop
vertex 15.9196796417 -2.95320224762 -241.23991394
vertex 15.9196796417 -2.95320224762 -241.219909668
vertex 18.9477996826 -2.36981916428 -241.23991394
endloop
endfacet
facet normal -0.155448973179 0.987843930721 0.0
outer loop
vertex 12.8733625412 -3.43257641792 -241.219909668
vertex 15.9196796417 -2.95320224762 -241.219909668
vertex 12.8733625412 -3.43257641792 -241.23991394
endloop
endfacet
facet normal -0.18917645514 0.981943130493 0.0
outer loop
vertex 15.9196796417 -2.95320224762 -241.219909668
vertex 18.9477996826 -2.36981916428 -241.219909668
vertex 18.9477996826 -2.36981916428 -241.23991394
endloop
endfacet
facet normal -0.994522511959 -0.104522958398 0.0
outer loop
vertex 9.81764602661 -3.85710573196 -241.219909668
vertex 9.81241989136 -3.8073797226 -241.219909668
vertex 9.81241989136 -3.8073797226 -241.23991394
endloop
endfacet
facet normal -0.994522511959 -0.104522958398 -0.0
outer loop
vertex 9.81764602661 -3.85710573196 -241.219909668
vertex 9.81241989136 -3.8073797226 -241.23991394
vertex 9.81764602661 -3.85710573196 -241.23991394
endloop
endfacet
facet normal 0.0 0.0 1.0
outer loop
vertex 18.9477996826 -2.36981916428 -241.219909668
vertex 15.9196796417 -2.95320224762 -241.219909668
vertex 18.9580974579 -2.41874718666 -241.219909668
endloop
endfacet
facet normal -0.0 0.0 1.0
outer loop
vertex 15.9196796417 -2.95320224762 -241.219909668
vertex 15.9282960892 -3.00245404243 -241.219909668
vertex 18.9580974579 -2.41874718666 -241.219909668
endloop
endfacet
facet normal 0.0 0.0 1.0
outer loop
vertex 15.9196796417 -2.95320224762 -241.219909668
vertex 12.8733625412 -3.43257641792 -241.219909668
vertex 15.9282960892 -3.00245404243 -241.219909668
endloop
endfacet
facet normal -0.0 0.0 1.0
outer loop
vertex 12.8733625412 -3.43257641792 -241.219909668
vertex 12.8802881241 -3.48209428787 -241.219909668
vertex 15.9282960892 -3.00245404243 -241.219909668
endloop
endfacet
facet normal 0.0 0.0 1.0
outer loop
vertex 12.8733625412 -3.43257641792 -241.219909668
vertex 9.81241989136 -3.8073797226 -241.219909668
vertex 12.8802881241 -3.48209428787 -241.219909668
endloop
endfacet
facet normal -0.0 0.0 1.0
outer loop
vertex 9.81241989136 -3.8073797226 -241.219909668
vertex 9.81764602661 -3.85710573196 -241.219909668
vertex 12.8802881241 -3.48209428787 -241.219909668
endloop
endfacet
facet normal 0.0 0.0 -1.0
outer loop
vertex 15.9196796417 -2.95320224762 -241.23991394
vertex 18.9477996826 -2.36981916428 -241.23991394
vertex 18.9580974579 -2.41874718666 -241.23991394
endloop
endfacet
facet normal 0.0 0.0 -1.0
outer loop
vertex 15.9282960892 -3.00245404243 -241.23991394
vertex 15.9196796417 -2.95320224762 -241.23991394
vertex 18.9580974579 -2.41874718666 -241.23991394
endloop
endfacet
facet normal 0.0 0.0 -1.0
outer loop
vertex 12.8733625412 -3.43257641792 -241.23991394
vertex 15.9196796417 -2.95320224762 -241.23991394
vertex 15.9282960892 -3.00245404243 -241.23991394
endloop
endfacet
facet normal 0.0 0.0 -1.0
outer loop
vertex 12.8802881241 -3.48209428787 -241.23991394
vertex 12.8733625412 -3.43257641792 -241.23991394
vertex 15.9282960892 -3.00245404243 -241.23991394
endloop
endfacet
facet normal 0.0 0.0 -1.0
outer loop
vertex 9.81764602661 -3.85710573196 -241.23991394
vertex 9.81241989136 -3.8073797226 -241.23991394
vertex 12.8733625412 -3.43257641792 -241.23991394
endloop
endfacet
facet normal 0.0 0.0 -1.0
outer loop
vertex 9.81764602661 -3.85710573196 -241.23991394
vertex 12.8733625412 -3.43257641792 -241.23991394
vertex 12.8802881241 -3.48209428787 -241.23991394
endloop
endfacet
