solid 
facet normal -0.0191152673215 -0.999817311764 0.0
outer loop
vertex -0.577899158001 -4.35058689117 221.462783813
vertex -0.577899158001 -4.35058689117 221.482788086
vertex -3.66285133362 -4.29160642624 221.482788086
endloop
endfacet
facet normal -0.0191152673215 -0.999817311764 0.0
outer loop
vertex -3.66285133362 -4.29160642624 221.462783813
vertex -0.577899158001 -4.35058689117 221.462783813
vertex -3.66285133362 -4.29160642624 221.482788086
endloop
endfacet
facet normal -0.0533325411379 -0.998576760292 0.0
outer loop
vertex -6.74397611618 -4.12704801559 221.462783813
vertex -3.66285133362 -4.29160642624 221.482788086
vertex -6.74397611618 -4.12704801559 221.482788086
endloop
endfacet
facet normal -0.0533325411379 -0.998576760292 0.0
outer loop
vertex -6.74397611618 -4.12704801559 221.462783813
vertex -3.66285133362 -4.29160642624 221.462783813
vertex -3.66285133362 -4.29160642624 221.482788086
endloop
endfacet
facet normal -0.0874873772264 -0.996165633202 0.0
outer loop
vertex -9.8176612854 -3.85710430145 221.462783813
vertex -6.74397611618 -4.12704801559 221.482788086
vertex -9.8176612854 -3.85710430145 221.482788086
endloop
endfacet
facet normal -0.0874873772264 -0.996165633202 0.0
outer loop
vertex -9.8176612854 -3.85710430145 221.462783813
vertex -6.74397611618 -4.12704801559 221.462783813
vertex -6.74397611618 -4.12704801559 221.482788086
endloop
endfacet
facet normal -0.994520545006 0.104541823268 0.0
outer loop
vertex -9.81243419647 -3.80737829208 221.482788086
vertex -9.8176612854 -3.85710430145 221.462783813
vertex -9.8176612854 -3.85710430145 221.482788086
endloop
endfacet
facet normal -0.994520545006 0.104541823268 0.0
outer loop
vertex -9.81243419647 -3.80737829208 221.462783813
vertex -9.8176612854 -3.85710430145 221.462783813
vertex -9.81243419647 -3.80737829208 221.482788086
endloop
endfacet
facet normal 0.0191152114421 0.999817311764 0.0
outer loop
vertex -0.577799379826 -4.30058670044 221.482788086
vertex -0.577799379826 -4.30058670044 221.462783813
vertex -3.66103982925 -4.24163913727 221.482788086
endloop
endfacet
facet normal 0.0191152114421 0.999817311764 0.0
outer loop
vertex -0.577799379826 -4.30058670044 221.462783813
vertex -3.66103982925 -4.24163913727 221.462783813
vertex -3.66103982925 -4.24163913727 221.482788086
endloop
endfacet
facet normal 0.0533326081932 0.998576760292 0.0
outer loop
vertex -3.66103982925 -4.24163913727 221.482788086
vertex -6.7404551506 -4.07717180252 221.462783813
vertex -6.7404551506 -4.07717180252 221.482788086
endloop
endfacet
facet normal 0.0533326081932 0.998576760292 -0.0
outer loop
vertex -3.66103982925 -4.24163913727 221.462783813
vertex -6.7404551506 -4.07717180252 221.462783813
vertex -3.66103982925 -4.24163913727 221.482788086
endloop
endfacet
facet normal 0.0874872580171 0.996165692806 0.0
outer loop
vertex -6.7404551506 -4.07717180252 221.482788086
vertex -9.81243419647 -3.80737829208 221.462783813
vertex -9.81243419647 -3.80737829208 221.482788086
endloop
endfacet
facet normal 0.0874872580171 0.996165692806 -0.0
outer loop
vertex -6.7404551506 -4.07717180252 221.462783813
vertex -9.81243419647 -3.80737829208 221.462783813
vertex -6.7404551506 -4.07717180252 221.482788086
endloop
endfacet
facet normal 0.999998033047 -0.00199555209838 0.0
outer loop
vertex -0.577899158001 -4.35058689117 221.482788086
vertex -0.577799379826 -4.30058670044 221.462783813
vertex -0.577799379826 -4.30058670044 221.482788086
endloop
endfacet
facet normal 0.999998033047 -0.00199555209838 0.0
outer loop
vertex -0.577899158001 -4.35058689117 221.462783813
vertex -0.577799379826 -4.30058670044 221.462783813
vertex -0.577899158001 -4.35058689117 221.482788086
endloop
endfacet
facet normal -0.0 0.0 -1.0
outer loop
vertex -6.7404551506 -4.07717180252 221.462783813
vertex -6.74397611618 -4.12704801559 221.462783813
vertex -9.81243419647 -3.80737829208 221.462783813
endloop
endfacet
facet normal 0.0 -0.0 -1.0
outer loop
vertex -9.81243419647 -3.80737829208 221.462783813
vertex -6.74397611618 -4.12704801559 221.462783813
vertex -9.8176612854 -3.85710430145 221.462783813
endloop
endfacet
facet normal -0.0 0.0 -1.0
outer loop
vertex -3.66103982925 -4.24163913727 221.462783813
vertex -3.66285133362 -4.29160642624 221.462783813
vertex -6.7404551506 -4.07717180252 221.462783813
endloop
endfacet
facet normal 0.0 -0.0 -1.0
outer loop
vertex -6.7404551506 -4.07717180252 221.462783813
vertex -3.66285133362 -4.29160642624 221.462783813
vertex -6.74397611618 -4.12704801559 221.462783813
endloop
endfacet
facet normal -0.0 0.0 -1.0
outer loop
vertex -0.577799379826 -4.30058670044 221.462783813
vertex -0.577899158001 -4.35058689117 221.462783813
vertex -3.66103982925 -4.24163913727 221.462783813
endloop
endfacet
facet normal 0.0 -0.0 -1.0
outer loop
vertex -3.66103982925 -4.24163913727 221.462783813
vertex -0.577899158001 -4.35058689117 221.462783813
vertex -3.66285133362 -4.29160642624 221.462783813
endloop
endfacet
facet normal 0.0 0.0 1.0
outer loop
vertex -6.7404551506 -4.07717180252 221.482788086
vertex -9.81243419647 -3.80737829208 221.482788086
vertex -9.8176612854 -3.85710430145 221.482788086
endloop
endfacet
facet normal 0.0 -0.0 1.0
outer loop
vertex -6.74397611618 -4.12704801559 221.482788086
vertex -6.7404551506 -4.07717180252 221.482788086
vertex -9.8176612854 -3.85710430145 221.482788086
endloop
endfacet
facet normal 0.0 0.0 1.0
outer loop
vertex -3.66103982925 -4.24163913727 221.482788086
vertex -6.7404551506 -4.07717180252 221.482788086
vertex -6.74397611618 -4.12704801559 221.482788086
endloop
endfacet
facet normal 0.0 -0.0 1.0
outer loop
vertex -3.66285133362 -4.29160642624 221.482788086
vertex -3.66103982925 -4.24163913727 221.482788086
vertex -6.74397611618 -4.12704801559 221.482788086
endloop
endfacet
facet normal 0.0 0.0 1.0
outer loop
vertex -0.577799379826 -4.30058670044 221.482788086
vertex -3.66103982925 -4.24163913727 221.482788086
vertex -3.66285133362 -4.29160642624 221.482788086
endloop
endfacet
facet normal 0.0 -0.0 1.0
outer loop
vertex -0.577899158001 -4.35058689117 221.482788086
vertex -0.577799379826 -4.30058670044 221.482788086
vertex -3.66285133362 -4.29160642624 221.482788086
endloop
endfacet
