solid 
facet normal -0.121539212763 0.992586612701 0.0
outer loop
vertex -12.8802862167 3.48209428787 -331.199584961
vertex -9.81764411926 3.85710549355 -331.199584961
vertex -9.81764411926 3.85710549355 -331.219573975
endloop
endfacet
facet normal -0.121539212763 0.992586612701 0.0
outer loop
vertex -12.8802862167 3.48209428787 -331.199584961
vertex -9.81764411926 3.85710549355 -331.219573975
vertex -12.8802862167 3.48209428787 -331.219573975
endloop
endfacet
facet normal -0.155448973179 0.987843930721 0.0
outer loop
vertex -15.9282941818 3.00245404243 -331.199584961
vertex -12.8802862167 3.48209428787 -331.219573975
vertex -15.9282941818 3.00245404243 -331.219573975
endloop
endfacet
facet normal -0.189176410437 0.981943130493 0.0
outer loop
vertex -15.9282941818 3.00245404243 -331.199584961
vertex -15.9282941818 3.00245404243 -331.219573975
vertex -18.9580955505 2.41874718666 -331.219573975
endloop
endfacet
facet normal -0.155448973179 0.987843930721 0.0
outer loop
vertex -15.9282941818 3.00245404243 -331.199584961
vertex -12.8802862167 3.48209428787 -331.199584961
vertex -12.8802862167 3.48209428787 -331.219573975
endloop
endfacet
facet normal -0.189176410437 0.981943130493 0.0
outer loop
vertex -18.9580955505 2.41874718666 -331.199584961
vertex -15.9282941818 3.00245404243 -331.199584961
vertex -18.9580955505 2.41874718666 -331.219573975
endloop
endfacet
facet normal -0.978561282158 -0.205955669284 0.0
outer loop
vertex -18.9477977753 2.36981916428 -331.219573975
vertex -18.9580955505 2.41874718666 -331.199584961
vertex -18.9580955505 2.41874718666 -331.219573975
endloop
endfacet
facet normal -0.978561282158 -0.205955669284 -0.0
outer loop
vertex -18.9477977753 2.36981916428 -331.199584961
vertex -18.9580955505 2.41874718666 -331.199584961
vertex -18.9477977753 2.36981916428 -331.219573975
endloop
endfacet
facet normal 0.121539279819 -0.992586672306 0.0
outer loop
vertex -9.81241798401 3.80737948418 -331.219573975
vertex -12.8733606339 3.4325761795 -331.199584961
vertex -12.8733606339 3.4325761795 -331.219573975
endloop
endfacet
facet normal 0.121539279819 -0.992586672306 0.0
outer loop
vertex -9.81241798401 3.80737948418 -331.199584961
vertex -12.8733606339 3.4325761795 -331.199584961
vertex -9.81241798401 3.80737948418 -331.219573975
endloop
endfacet
facet normal 0.155448898673 -0.987843930721 0.0
outer loop
vertex -12.8733606339 3.4325761795 -331.219573975
vertex -15.9196777344 2.95320224762 -331.199584961
vertex -15.9196777344 2.95320224762 -331.219573975
endloop
endfacet
facet normal 0.18917645514 -0.981943130493 0.0
outer loop
vertex -15.9196777344 2.95320224762 -331.219573975
vertex -15.9196777344 2.95320224762 -331.199584961
vertex -18.9477977753 2.36981916428 -331.219573975
endloop
endfacet
facet normal 0.155448898673 -0.987843930721 0.0
outer loop
vertex -12.8733606339 3.4325761795 -331.199584961
vertex -15.9196777344 2.95320224762 -331.199584961
vertex -12.8733606339 3.4325761795 -331.219573975
endloop
endfacet
facet normal 0.18917645514 -0.981943130493 0.0
outer loop
vertex -15.9196777344 2.95320224762 -331.199584961
vertex -18.9477977753 2.36981916428 -331.199584961
vertex -18.9477977753 2.36981916428 -331.219573975
endloop
endfacet
facet normal 0.994522452354 0.104522936046 0.0
outer loop
vertex -9.81764411926 3.85710549355 -331.199584961
vertex -9.81241798401 3.80737948418 -331.199584961
vertex -9.81241798401 3.80737948418 -331.219573975
endloop
endfacet
facet normal 0.994522452354 0.104522936046 0.0
outer loop
vertex -9.81764411926 3.85710549355 -331.199584961
vertex -9.81241798401 3.80737948418 -331.219573975
vertex -9.81764411926 3.85710549355 -331.219573975
endloop
endfacet
facet normal 0.0 -0.0 1.0
outer loop
vertex -18.9477977753 2.36981916428 -331.199584961
vertex -15.9196777344 2.95320224762 -331.199584961
vertex -18.9580955505 2.41874718666 -331.199584961
endloop
endfacet
facet normal 0.0 0.0 1.0
outer loop
vertex -15.9196777344 2.95320224762 -331.199584961
vertex -15.9282941818 3.00245404243 -331.199584961
vertex -18.9580955505 2.41874718666 -331.199584961
endloop
endfacet
facet normal 0.0 -0.0 1.0
outer loop
vertex -15.9196777344 2.95320224762 -331.199584961
vertex -12.8733606339 3.4325761795 -331.199584961
vertex -15.9282941818 3.00245404243 -331.199584961
endloop
endfacet
facet normal 0.0 0.0 1.0
outer loop
vertex -12.8733606339 3.4325761795 -331.199584961
vertex -12.8802862167 3.48209428787 -331.199584961
vertex -15.9282941818 3.00245404243 -331.199584961
endloop
endfacet
facet normal 0.0 -0.0 1.0
outer loop
vertex -12.8733606339 3.4325761795 -331.199584961
vertex -9.81241798401 3.80737948418 -331.199584961
vertex -12.8802862167 3.48209428787 -331.199584961
endloop
endfacet
facet normal 0.0 0.0 1.0
outer loop
vertex -9.81241798401 3.80737948418 -331.199584961
vertex -9.81764411926 3.85710549355 -331.199584961
vertex -12.8802862167 3.48209428787 -331.199584961
endloop
endfacet
facet normal 0.0 0.0 -1.0
outer loop
vertex -15.9196777344 2.95320224762 -331.219573975
vertex -18.9477977753 2.36981916428 -331.219573975
vertex -18.9580955505 2.41874718666 -331.219573975
endloop
endfacet
facet normal 0.0 -0.0 -1.0
outer loop
vertex -15.9282941818 3.00245404243 -331.219573975
vertex -15.9196777344 2.95320224762 -331.219573975
vertex -18.9580955505 2.41874718666 -331.219573975
endloop
endfacet
facet normal 0.0 0.0 -1.0
outer loop
vertex -12.8733606339 3.4325761795 -331.219573975
vertex -15.9196777344 2.95320224762 -331.219573975
vertex -15.9282941818 3.00245404243 -331.219573975
endloop
endfacet
facet normal 0.0 -0.0 -1.0
outer loop
vertex -12.8802862167 3.48209428787 -331.219573975
vertex -12.8733606339 3.4325761795 -331.219573975
vertex -15.9282941818 3.00245404243 -331.219573975
endloop
endfacet
facet normal 0.0 0.0 -1.0
outer loop
vertex -9.81241798401 3.80737948418 -331.219573975
vertex -12.8733606339 3.4325761795 -331.219573975
vertex -12.8802862167 3.48209428787 -331.219573975
endloop
endfacet
facet normal 0.0 -0.0 -1.0
outer loop
vertex -9.81764411926 3.85710549355 -331.219573975
vertex -9.81241798401 3.80737948418 -331.219573975
vertex -12.8802862167 3.48209428787 -331.219573975
endloop
endfacet
