solid 
facet normal 0.0191151127219 0.999817311764 0.0
outer loop
vertex 3.66284608841 4.29160690308 284.128997803
vertex 0.577893853188 4.35058689117 284.128997803
vertex 0.577893853188 4.35058689117 284.148986816
endloop
endfacet
facet normal 0.0191151127219 0.999817311764 -0.0
outer loop
vertex 3.66284608841 4.29160690308 284.128997803
vertex 0.577893853188 4.35058689117 284.148986816
vertex 3.66284608841 4.29160690308 284.148986816
endloop
endfacet
facet normal 0.0533325411379 0.998576819897 -0.0
outer loop
vertex 6.74397087097 4.12704849243 284.128997803
vertex 3.66284608841 4.29160690308 284.148986816
vertex 6.74397087097 4.12704849243 284.148986816
endloop
endfacet
facet normal 0.0874872356653 0.996165633202 -0.0
outer loop
vertex 6.74397087097 4.12704849243 284.128997803
vertex 6.74397087097 4.12704849243 284.148986816
vertex 9.81765556335 3.85710525513 284.148986816
endloop
endfacet
facet normal 0.0533325411379 0.998576819897 0.0
outer loop
vertex 6.74397087097 4.12704849243 284.128997803
vertex 3.66284608841 4.29160690308 284.128997803
vertex 3.66284608841 4.29160690308 284.148986816
endloop
endfacet
facet normal 0.0874872356653 0.996165633202 -0.0
outer loop
vertex 9.81765556335 3.85710525513 284.128997803
vertex 6.74397087097 4.12704849243 284.128997803
vertex 9.81765556335 3.85710525513 284.148986816
endloop
endfacet
facet normal 0.994522571564 -0.104522451758 0.0
outer loop
vertex 9.8124294281 3.80737900734 284.148986816
vertex 9.81765556335 3.85710525513 284.128997803
vertex 9.81765556335 3.85710525513 284.148986816
endloop
endfacet
facet normal 0.994522571564 -0.104522451758 0.0
outer loop
vertex 9.8124294281 3.80737900734 284.128997803
vertex 9.81765556335 3.85710525513 284.128997803
vertex 9.8124294281 3.80737900734 284.148986816
endloop
endfacet
facet normal -0.0191152095795 -0.999817311764 -0.0
outer loop
vertex 0.577794075012 4.30058717728 284.148986816
vertex 0.577794075012 4.30058717728 284.128997803
vertex 3.66103458405 4.24163961411 284.148986816
endloop
endfacet
facet normal -0.0191152095795 -0.999817311764 0.0
outer loop
vertex 0.577794075012 4.30058717728 284.128997803
vertex 3.66103458405 4.24163961411 284.128997803
vertex 3.66103458405 4.24163961411 284.148986816
endloop
endfacet
facet normal -0.0533324666321 -0.998576819897 0.0
outer loop
vertex 3.66103458405 4.24163961411 284.148986816
vertex 6.74044942856 4.0771727562 284.128997803
vertex 6.74044942856 4.0771727562 284.148986816
endloop
endfacet
facet normal -0.0533324666321 -0.998576819897 0.0
outer loop
vertex 3.66103458405 4.24163961411 284.128997803
vertex 6.74044942856 4.0771727562 284.128997803
vertex 3.66103458405 4.24163961411 284.148986816
endloop
endfacet
facet normal -0.0874873101711 -0.996165633202 0.0
outer loop
vertex 6.74044942856 4.0771727562 284.148986816
vertex 9.8124294281 3.80737900734 284.128997803
vertex 9.8124294281 3.80737900734 284.148986816
endloop
endfacet
facet normal -0.0874873101711 -0.996165633202 0.0
outer loop
vertex 6.74044942856 4.0771727562 284.128997803
vertex 9.8124294281 3.80737900734 284.128997803
vertex 6.74044942856 4.0771727562 284.148986816
endloop
endfacet
facet normal -0.999998033047 0.00199557095766 0.0
outer loop
vertex 0.577893853188 4.35058689117 284.128997803
vertex 0.577794075012 4.30058717728 284.128997803
vertex 0.577794075012 4.30058717728 284.148986816
endloop
endfacet
facet normal -0.999998033047 0.00199557095766 0.0
outer loop
vertex 0.577893853188 4.35058689117 284.128997803
vertex 0.577794075012 4.30058717728 284.148986816
vertex 0.577893853188 4.35058689117 284.148986816
endloop
endfacet
facet normal 0.0 0.0 -1.0
outer loop
vertex 9.8124294281 3.80737900734 284.128997803
vertex 6.74044942856 4.0771727562 284.128997803
vertex 9.81765556335 3.85710525513 284.128997803
endloop
endfacet
facet normal 0.0 0.0 -1.0
outer loop
vertex 6.74044942856 4.0771727562 284.128997803
vertex 6.74397087097 4.12704849243 284.128997803
vertex 9.81765556335 3.85710525513 284.128997803
endloop
endfacet
facet normal 0.0 0.0 -1.0
outer loop
vertex 6.74044942856 4.0771727562 284.128997803
vertex 3.66103458405 4.24163961411 284.128997803
vertex 6.74397087097 4.12704849243 284.128997803
endloop
endfacet
facet normal 0.0 0.0 -1.0
outer loop
vertex 3.66103458405 4.24163961411 284.128997803
vertex 3.66284608841 4.29160690308 284.128997803
vertex 6.74397087097 4.12704849243 284.128997803
endloop
endfacet
facet normal 0.0 0.0 -1.0
outer loop
vertex 3.66103458405 4.24163961411 284.128997803
vertex 0.577794075012 4.30058717728 284.128997803
vertex 3.66284608841 4.29160690308 284.128997803
endloop
endfacet
facet normal 0.0 0.0 -1.0
outer loop
vertex 0.577794075012 4.30058717728 284.128997803
vertex 0.577893853188 4.35058689117 284.128997803
vertex 3.66284608841 4.29160690308 284.128997803
endloop
endfacet
facet normal 0.0 0.0 1.0
outer loop
vertex 6.74397087097 4.12704849243 284.148986816
vertex 6.74044942856 4.0771727562 284.148986816
vertex 9.8124294281 3.80737900734 284.148986816
endloop
endfacet
facet normal 0.0 0.0 1.0
outer loop
vertex 6.74397087097 4.12704849243 284.148986816
vertex 9.8124294281 3.80737900734 284.148986816
vertex 9.81765556335 3.85710525513 284.148986816
endloop
endfacet
facet normal 0.0 0.0 1.0
outer loop
vertex 3.66284608841 4.29160690308 284.148986816
vertex 3.66103458405 4.24163961411 284.148986816
vertex 6.74044942856 4.0771727562 284.148986816
endloop
endfacet
facet normal 0.0 0.0 1.0
outer loop
vertex 3.66284608841 4.29160690308 284.148986816
vertex 6.74044942856 4.0771727562 284.148986816
vertex 6.74397087097 4.12704849243 284.148986816
endloop
endfacet
facet normal 0.0 0.0 1.0
outer loop
vertex 0.577893853188 4.35058689117 284.148986816
vertex 0.577794075012 4.30058717728 284.148986816
vertex 3.66103458405 4.24163961411 284.148986816
endloop
endfacet
facet normal 0.0 0.0 1.0
outer loop
vertex 0.577893853188 4.35058689117 284.148986816
vertex 3.66103458405 4.24163961411 284.148986816
vertex 3.66284608841 4.29160690308 284.148986816
endloop
endfacet
