solid 
facet normal -0.0191149581224 0.999817311764 0.0
outer loop
vertex -3.6628305912 4.29160642624 237.166000366
vertex -0.57787835598 4.3505859375 237.166000366
vertex -0.57787835598 4.3505859375 237.145996094
endloop
endfacet
facet normal -0.0191149581224 0.999817311764 0.0
outer loop
vertex -3.6628305912 4.29160642624 237.166000366
vertex -0.57787835598 4.3505859375 237.145996094
vertex -3.6628305912 4.29160642624 237.145996094
endloop
endfacet
facet normal -0.0533322356641 0.998576760292 0.0
outer loop
vertex -6.74395513535 4.12704896927 237.166000366
vertex -3.6628305912 4.29160642624 237.145996094
vertex -6.74395513535 4.12704896927 237.145996094
endloop
endfacet
facet normal -0.087487064302 0.996165633202 0.0
outer loop
vertex -6.74395513535 4.12704896927 237.166000366
vertex -6.74395513535 4.12704896927 237.145996094
vertex -9.81764030457 3.8571062088 237.145996094
endloop
endfacet
facet normal -0.0533322356641 0.998576760292 0.0
outer loop
vertex -6.74395513535 4.12704896927 237.166000366
vertex -3.6628305912 4.29160642624 237.166000366
vertex -3.6628305912 4.29160642624 237.145996094
endloop
endfacet
facet normal -0.087487064302 0.996165633202 0.0
outer loop
vertex -9.81764030457 3.8571062088 237.166000366
vertex -6.74395513535 4.12704896927 237.166000366
vertex -9.81764030457 3.8571062088 237.145996094
endloop
endfacet
facet normal -0.994522571564 -0.104522459209 0.0
outer loop
vertex -9.81764030457 3.8571062088 237.145996094
vertex -9.81241416931 3.80737996101 237.166000366
vertex -9.81764030457 3.8571062088 237.166000366
endloop
endfacet
facet normal -0.994522571564 -0.104522459209 0.0
outer loop
vertex -9.81764030457 3.8571062088 237.145996094
vertex -9.81241416931 3.80737996101 237.145996094
vertex -9.81241416931 3.80737996101 237.166000366
endloop
endfacet
facet normal 0.0191150568426 -0.999817311764 0.0
outer loop
vertex -0.577778577805 4.3005862236 237.145996094
vertex -3.66101908684 4.24163913727 237.166000366
vertex -3.66101908684 4.24163913727 237.145996094
endloop
endfacet
facet normal 0.0533323101699 -0.998576819897 0.0
outer loop
vertex -3.66101908684 4.24163913727 237.145996094
vertex -3.66101908684 4.24163913727 237.166000366
vertex -6.74043416977 4.0771727562 237.145996094
endloop
endfacet
facet normal 0.0191150568426 -0.999817311764 0.0
outer loop
vertex -0.577778577805 4.3005862236 237.166000366
vertex -3.66101908684 4.24163913727 237.166000366
vertex -0.577778577805 4.3005862236 237.145996094
endloop
endfacet
facet normal 0.0874870046973 -0.996165692806 0.0
outer loop
vertex -6.74043416977 4.0771727562 237.145996094
vertex -6.74043416977 4.0771727562 237.166000366
vertex -9.81241416931 3.80737996101 237.145996094
endloop
endfacet
facet normal 0.0533323101699 -0.998576819897 0.0
outer loop
vertex -3.66101908684 4.24163913727 237.166000366
vertex -6.74043416977 4.0771727562 237.166000366
vertex -6.74043416977 4.0771727562 237.145996094
endloop
endfacet
facet normal 0.0874870046973 -0.996165692806 0.0
outer loop
vertex -6.74043416977 4.0771727562 237.166000366
vertex -9.81241416931 3.80737996101 237.166000366
vertex -9.81241416931 3.80737996101 237.145996094
endloop
endfacet
facet normal 0.999998033047 0.00199557119049 -0.0
outer loop
vertex -0.577778577805 4.3005862236 237.145996094
vertex -0.57787835598 4.3505859375 237.166000366
vertex -0.577778577805 4.3005862236 237.166000366
endloop
endfacet
facet normal 0.999998033047 0.00199557119049 0.0
outer loop
vertex -0.577778577805 4.3005862236 237.145996094
vertex -0.57787835598 4.3505859375 237.145996094
vertex -0.57787835598 4.3505859375 237.166000366
endloop
endfacet
facet normal 0.0 -0.0 -1.0
outer loop
vertex -6.74395513535 4.12704896927 237.145996094
vertex -6.74043416977 4.0771727562 237.145996094
vertex -9.81241416931 3.80737996101 237.145996094
endloop
endfacet
facet normal 0.0 0.0 -1.0
outer loop
vertex -6.74395513535 4.12704896927 237.145996094
vertex -9.81241416931 3.80737996101 237.145996094
vertex -9.81764030457 3.8571062088 237.145996094
endloop
endfacet
facet normal 0.0 -0.0 -1.0
outer loop
vertex -3.6628305912 4.29160642624 237.145996094
vertex -3.66101908684 4.24163913727 237.145996094
vertex -6.74043416977 4.0771727562 237.145996094
endloop
endfacet
facet normal 0.0 0.0 -1.0
outer loop
vertex -3.6628305912 4.29160642624 237.145996094
vertex -6.74043416977 4.0771727562 237.145996094
vertex -6.74395513535 4.12704896927 237.145996094
endloop
endfacet
facet normal 0.0 -0.0 -1.0
outer loop
vertex -0.57787835598 4.3505859375 237.145996094
vertex -0.577778577805 4.3005862236 237.145996094
vertex -3.66101908684 4.24163913727 237.145996094
endloop
endfacet
facet normal 0.0 0.0 -1.0
outer loop
vertex -0.57787835598 4.3505859375 237.145996094
vertex -3.66101908684 4.24163913727 237.145996094
vertex -3.6628305912 4.29160642624 237.145996094
endloop
endfacet
facet normal 0.0 -0.0 1.0
outer loop
vertex -9.81241416931 3.80737996101 237.166000366
vertex -6.74043416977 4.0771727562 237.166000366
vertex -9.81764030457 3.8571062088 237.166000366
endloop
endfacet
facet normal 0.0 0.0 1.0
outer loop
vertex -6.74043416977 4.0771727562 237.166000366
vertex -6.74395513535 4.12704896927 237.166000366
vertex -9.81764030457 3.8571062088 237.166000366
endloop
endfacet
facet normal 0.0 -0.0 1.0
outer loop
vertex -6.74043416977 4.0771727562 237.166000366
vertex -3.66101908684 4.24163913727 237.166000366
vertex -6.74395513535 4.12704896927 237.166000366
endloop
endfacet
facet normal 0.0 0.0 1.0
outer loop
vertex -3.66101908684 4.24163913727 237.166000366
vertex -3.6628305912 4.29160642624 237.166000366
vertex -6.74395513535 4.12704896927 237.166000366
endloop
endfacet
facet normal 0.0 -0.0 1.0
outer loop
vertex -3.66101908684 4.24163913727 237.166000366
vertex -0.577778577805 4.3005862236 237.166000366
vertex -3.6628305912 4.29160642624 237.166000366
endloop
endfacet
facet normal 0.0 0.0 1.0
outer loop
vertex -0.577778577805 4.3005862236 237.166000366
vertex -0.57787835598 4.3505859375 237.166000366
vertex -3.6628305912 4.29160642624 237.166000366
endloop
endfacet
