solid 
facet normal 0.121539279819 -0.992586612701 0.0
outer loop
vertex 12.8802881241 -3.48209428787 -23.2131233215
vertex 9.81764602661 -3.85710573196 -23.2131233215
vertex 9.81764602661 -3.85710573196 -23.2331218719
endloop
endfacet
facet normal 0.121539279819 -0.992586612701 0.0
outer loop
vertex 12.8802881241 -3.48209428787 -23.2131233215
vertex 9.81764602661 -3.85710573196 -23.2331218719
vertex 12.8802881241 -3.48209428787 -23.2331218719
endloop
endfacet
facet normal 0.155448958278 -0.987843930721 0.0
outer loop
vertex 12.8802881241 -3.48209428787 -23.2131233215
vertex 12.8802881241 -3.48209428787 -23.2331218719
vertex 15.9282960892 -3.00245404243 -23.2331218719
endloop
endfacet
facet normal 0.189176410437 -0.981943130493 0.0
outer loop
vertex 15.9282960892 -3.00245404243 -23.2131233215
vertex 15.9282960892 -3.00245404243 -23.2331218719
vertex 18.9580974579 -2.41874718666 -23.2331218719
endloop
endfacet
facet normal 0.155448958278 -0.987843930721 0.0
outer loop
vertex 15.9282960892 -3.00245404243 -23.2131233215
vertex 12.8802881241 -3.48209428787 -23.2131233215
vertex 15.9282960892 -3.00245404243 -23.2331218719
endloop
endfacet
facet normal 0.189176410437 -0.981943130493 0.0
outer loop
vertex 18.9580974579 -2.41874718666 -23.2131233215
vertex 15.9282960892 -3.00245404243 -23.2131233215
vertex 18.9580974579 -2.41874718666 -23.2331218719
endloop
endfacet
facet normal 0.978561222553 0.205955684185 0.0
outer loop
vertex 18.9477996826 -2.36981916428 -23.2131233215
vertex 18.9580974579 -2.41874718666 -23.2131233215
vertex 18.9580974579 -2.41874718666 -23.2331218719
endloop
endfacet
facet normal 0.978561222553 0.205955684185 0.0
outer loop
vertex 18.9477996826 -2.36981916428 -23.2131233215
vertex 18.9580974579 -2.41874718666 -23.2331218719
vertex 18.9477996826 -2.36981916428 -23.2331218719
endloop
endfacet
facet normal -0.121539384127 0.992586553097 0.0
outer loop
vertex 9.81241989136 -3.8073797226 -23.2331218719
vertex 12.8733615875 -3.4325761795 -23.2131233215
vertex 12.8733615875 -3.4325761795 -23.2331218719
endloop
endfacet
facet normal -0.155448973179 0.987843930721 0.0
outer loop
vertex 12.8733615875 -3.4325761795 -23.2331218719
vertex 12.8733615875 -3.4325761795 -23.2131233215
vertex 15.919678688 -2.9532020092 -23.2331218719
endloop
endfacet
facet normal -0.121539384127 0.992586553097 0.0
outer loop
vertex 9.81241989136 -3.8073797226 -23.2131233215
vertex 12.8733615875 -3.4325761795 -23.2131233215
vertex 9.81241989136 -3.8073797226 -23.2331218719
endloop
endfacet
facet normal -0.189176335931 0.981943190098 0.0
outer loop
vertex 15.919678688 -2.9532020092 -23.2331218719
vertex 15.919678688 -2.9532020092 -23.2131233215
vertex 18.9477996826 -2.36981916428 -23.2331218719
endloop
endfacet
facet normal -0.155448973179 0.987843930721 0.0
outer loop
vertex 12.8733615875 -3.4325761795 -23.2131233215
vertex 15.919678688 -2.9532020092 -23.2131233215
vertex 15.919678688 -2.9532020092 -23.2331218719
endloop
endfacet
facet normal -0.189176335931 0.981943190098 0.0
outer loop
vertex 15.919678688 -2.9532020092 -23.2131233215
vertex 18.9477996826 -2.36981916428 -23.2131233215
vertex 18.9477996826 -2.36981916428 -23.2331218719
endloop
endfacet
facet normal -0.994522511959 -0.104522950947 0.0
outer loop
vertex 9.81764602661 -3.85710573196 -23.2331218719
vertex 9.81241989136 -3.8073797226 -23.2131233215
vertex 9.81241989136 -3.8073797226 -23.2331218719
endloop
endfacet
facet normal -0.994522511959 -0.104522950947 -0.0
outer loop
vertex 9.81764602661 -3.85710573196 -23.2131233215
vertex 9.81241989136 -3.8073797226 -23.2131233215
vertex 9.81764602661 -3.85710573196 -23.2331218719
endloop
endfacet
facet normal -0.0 0.0 1.0
outer loop
vertex 15.919678688 -2.9532020092 -23.2131233215
vertex 15.9282960892 -3.00245404243 -23.2131233215
vertex 18.9477996826 -2.36981916428 -23.2131233215
endloop
endfacet
facet normal 0.0 0.0 1.0
outer loop
vertex 18.9477996826 -2.36981916428 -23.2131233215
vertex 15.9282960892 -3.00245404243 -23.2131233215
vertex 18.9580974579 -2.41874718666 -23.2131233215
endloop
endfacet
facet normal -0.0 0.0 1.0
outer loop
vertex 12.8733615875 -3.4325761795 -23.2131233215
vertex 12.8802881241 -3.48209428787 -23.2131233215
vertex 15.919678688 -2.9532020092 -23.2131233215
endloop
endfacet
facet normal 0.0 0.0 1.0
outer loop
vertex 15.919678688 -2.9532020092 -23.2131233215
vertex 12.8802881241 -3.48209428787 -23.2131233215
vertex 15.9282960892 -3.00245404243 -23.2131233215
endloop
endfacet
facet normal -0.0 0.0 1.0
outer loop
vertex 9.81241989136 -3.8073797226 -23.2131233215
vertex 9.81764602661 -3.85710573196 -23.2131233215
vertex 12.8733615875 -3.4325761795 -23.2131233215
endloop
endfacet
facet normal 0.0 0.0 1.0
outer loop
vertex 12.8733615875 -3.4325761795 -23.2131233215
vertex 9.81764602661 -3.85710573196 -23.2131233215
vertex 12.8802881241 -3.48209428787 -23.2131233215
endloop
endfacet
facet normal 0.0 0.0 -1.0
outer loop
vertex 15.9282960892 -3.00245404243 -23.2331218719
vertex 15.919678688 -2.9532020092 -23.2331218719
vertex 18.9477996826 -2.36981916428 -23.2331218719
endloop
endfacet
facet normal 0.0 0.0 -1.0
outer loop
vertex 15.9282960892 -3.00245404243 -23.2331218719
vertex 18.9477996826 -2.36981916428 -23.2331218719
vertex 18.9580974579 -2.41874718666 -23.2331218719
endloop
endfacet
facet normal 0.0 0.0 -1.0
outer loop
vertex 12.8802881241 -3.48209428787 -23.2331218719
vertex 12.8733615875 -3.4325761795 -23.2331218719
vertex 15.919678688 -2.9532020092 -23.2331218719
endloop
endfacet
facet normal 0.0 0.0 -1.0
outer loop
vertex 12.8802881241 -3.48209428787 -23.2331218719
vertex 15.919678688 -2.9532020092 -23.2331218719
vertex 15.9282960892 -3.00245404243 -23.2331218719
endloop
endfacet
facet normal 0.0 0.0 -1.0
outer loop
vertex 9.81764602661 -3.85710573196 -23.2331218719
vertex 9.81241989136 -3.8073797226 -23.2331218719
vertex 12.8733615875 -3.4325761795 -23.2331218719
endloop
endfacet
facet normal 0.0 0.0 -1.0
outer loop
vertex 9.81764602661 -3.85710573196 -23.2331218719
vertex 12.8733615875 -3.4325761795 -23.2331218719
vertex 12.8802881241 -3.48209428787 -23.2331218719
endloop
endfacet
