solid 
facet normal -0.121539399028 0.992586553097 0.0
outer loop
vertex -9.81765460968 3.85710525513 47.5843048096
vertex -9.81765460968 3.85710525513 47.5643043518
vertex -12.8802957535 3.48209357262 47.5643043518
endloop
endfacet
facet normal -0.155449002981 0.987843930721 0.0
outer loop
vertex -12.8802957535 3.48209357262 47.5843048096
vertex -12.8802957535 3.48209357262 47.5643043518
vertex -15.9283046722 3.00245308876 47.5643043518
endloop
endfacet
facet normal -0.121539399028 0.992586553097 0.0
outer loop
vertex -12.8802957535 3.48209357262 47.5843048096
vertex -9.81765460968 3.85710525513 47.5843048096
vertex -12.8802957535 3.48209357262 47.5643043518
endloop
endfacet
facet normal -0.189176604152 0.981943070889 0.0
outer loop
vertex -15.9283046722 3.00245308876 47.5843048096
vertex -15.9283046722 3.00245308876 47.5643043518
vertex -18.9581050873 2.41874575615 47.5643043518
endloop
endfacet
facet normal -0.155449002981 0.987843930721 0.0
outer loop
vertex -15.9283046722 3.00245308876 47.5843048096
vertex -12.8802957535 3.48209357262 47.5843048096
vertex -15.9283046722 3.00245308876 47.5643043518
endloop
endfacet
facet normal -0.189176604152 0.981943070889 0.0
outer loop
vertex -18.9581050873 2.41874575615 47.5843048096
vertex -15.9283046722 3.00245308876 47.5843048096
vertex -18.9581050873 2.41874575615 47.5643043518
endloop
endfacet
facet normal -0.978561282158 -0.205955669284 0.0
outer loop
vertex -18.9581050873 2.41874575615 47.5843048096
vertex -18.947807312 2.36981773376 47.5643043518
vertex -18.947807312 2.36981773376 47.5843048096
endloop
endfacet
facet normal -0.978561282158 -0.205955669284 0.0
outer loop
vertex -18.9581050873 2.41874575615 47.5643043518
vertex -18.947807312 2.36981773376 47.5643043518
vertex -18.9581050873 2.41874575615 47.5843048096
endloop
endfacet
facet normal 0.121539346874 -0.992586612701 0.0
outer loop
vertex -9.81242752075 3.80737900734 47.5643043518
vertex -12.8733701706 3.43257546425 47.5843048096
vertex -12.8733701706 3.43257546425 47.5643043518
endloop
endfacet
facet normal 0.155449047685 -0.987843930721 0.0
outer loop
vertex -12.8733701706 3.43257546425 47.5643043518
vertex -12.8733701706 3.43257546425 47.5843048096
vertex -15.9196872711 2.95320105553 47.5643043518
endloop
endfacet
facet normal 0.121539346874 -0.992586612701 0.0
outer loop
vertex -9.81242752075 3.80737900734 47.5843048096
vertex -12.8733701706 3.43257546425 47.5843048096
vertex -9.81242752075 3.80737900734 47.5643043518
endloop
endfacet
facet normal 0.189176514745 -0.981943070889 0.0
outer loop
vertex -15.9196872711 2.95320105553 47.5643043518
vertex -15.9196872711 2.95320105553 47.5843048096
vertex -18.947807312 2.36981773376 47.5643043518
endloop
endfacet
facet normal 0.155449047685 -0.987843930721 0.0
outer loop
vertex -12.8733701706 3.43257546425 47.5843048096
vertex -15.9196872711 2.95320105553 47.5843048096
vertex -15.9196872711 2.95320105553 47.5643043518
endloop
endfacet
facet normal 0.189176514745 -0.981943070889 0.0
outer loop
vertex -15.9196872711 2.95320105553 47.5843048096
vertex -18.947807312 2.36981773376 47.5843048096
vertex -18.947807312 2.36981773376 47.5643043518
endloop
endfacet
facet normal 0.99452060461 0.104541324079 0.0
outer loop
vertex -9.81242752075 3.80737900734 47.5843048096
vertex -9.81765460968 3.85710525513 47.5643043518
vertex -9.81765460968 3.85710525513 47.5843048096
endloop
endfacet
facet normal 0.99452060461 0.104541324079 -0.0
outer loop
vertex -9.81242752075 3.80737900734 47.5643043518
vertex -9.81765460968 3.85710525513 47.5643043518
vertex -9.81242752075 3.80737900734 47.5843048096
endloop
endfacet
facet normal 0.0 -0.0 -1.0
outer loop
vertex -15.9283046722 3.00245308876 47.5643043518
vertex -15.9196872711 2.95320105553 47.5643043518
vertex -18.947807312 2.36981773376 47.5643043518
endloop
endfacet
facet normal 0.0 0.0 -1.0
outer loop
vertex -15.9283046722 3.00245308876 47.5643043518
vertex -18.947807312 2.36981773376 47.5643043518
vertex -18.9581050873 2.41874575615 47.5643043518
endloop
endfacet
facet normal 0.0 -0.0 -1.0
outer loop
vertex -12.8802957535 3.48209357262 47.5643043518
vertex -12.8733701706 3.43257546425 47.5643043518
vertex -15.9196872711 2.95320105553 47.5643043518
endloop
endfacet
facet normal 0.0 0.0 -1.0
outer loop
vertex -12.8802957535 3.48209357262 47.5643043518
vertex -15.9196872711 2.95320105553 47.5643043518
vertex -15.9283046722 3.00245308876 47.5643043518
endloop
endfacet
facet normal 0.0 -0.0 -1.0
outer loop
vertex -9.81765460968 3.85710525513 47.5643043518
vertex -9.81242752075 3.80737900734 47.5643043518
vertex -12.8733701706 3.43257546425 47.5643043518
endloop
endfacet
facet normal 0.0 0.0 -1.0
outer loop
vertex -9.81765460968 3.85710525513 47.5643043518
vertex -12.8733701706 3.43257546425 47.5643043518
vertex -12.8802957535 3.48209357262 47.5643043518
endloop
endfacet
facet normal 0.0 0.0 1.0
outer loop
vertex -15.9196872711 2.95320105553 47.5843048096
vertex -15.9283046722 3.00245308876 47.5843048096
vertex -18.947807312 2.36981773376 47.5843048096
endloop
endfacet
facet normal 0.0 -0.0 1.0
outer loop
vertex -18.947807312 2.36981773376 47.5843048096
vertex -15.9283046722 3.00245308876 47.5843048096
vertex -18.9581050873 2.41874575615 47.5843048096
endloop
endfacet
facet normal 0.0 0.0 1.0
outer loop
vertex -12.8733701706 3.43257546425 47.5843048096
vertex -12.8802957535 3.48209357262 47.5843048096
vertex -15.9196872711 2.95320105553 47.5843048096
endloop
endfacet
facet normal 0.0 -0.0 1.0
outer loop
vertex -15.9196872711 2.95320105553 47.5843048096
vertex -12.8802957535 3.48209357262 47.5843048096
vertex -15.9283046722 3.00245308876 47.5843048096
endloop
endfacet
facet normal 0.0 0.0 1.0
outer loop
vertex -9.81242752075 3.80737900734 47.5843048096
vertex -9.81765460968 3.85710525513 47.5843048096
vertex -12.8733701706 3.43257546425 47.5843048096
endloop
endfacet
facet normal 0.0 -0.0 1.0
outer loop
vertex -12.8733701706 3.43257546425 47.5843048096
vertex -9.81765460968 3.85710525513 47.5843048096
vertex -12.8802957535 3.48209357262 47.5843048096
endloop
endfacet
