solid 
facet normal 0.000150203719386 -1.0 0.0
outer loop
vertex 0.444550246 -4.35075378418 352.885559082
vertex 0.377883583307 -4.35076379776 352.885559082
vertex 0.377883583307 -4.35076379776 349.294586182
endloop
endfacet
facet normal 0.000150203719386 -1.0 0.0
outer loop
vertex 0.444550246 -4.35075378418 352.885559082
vertex 0.377883583307 -4.35076379776 349.294586182
vertex 0.444550246 -4.35075378418 349.294586182
endloop
endfacet
facet normal 0.0008797646733 -0.999999642372 0.0
outer loop
vertex 0.511216878891 -4.35069513321 352.885559082
vertex 0.444550246 -4.35075378418 349.294586182
vertex 0.511216878891 -4.35069513321 349.294586182
endloop
endfacet
facet normal 0.0008797646733 -0.999999642372 0.0
outer loop
vertex 0.511216878891 -4.35069513321 352.885559082
vertex 0.444550246 -4.35075378418 352.885559082
vertex 0.444550246 -4.35075378418 349.294586182
endloop
endfacet
facet normal 0.00163078249898 -0.999998688698 0.0
outer loop
vertex 0.577883481979 -4.35058641434 352.885559082
vertex 0.511216878891 -4.35069513321 349.294586182
vertex 0.577883481979 -4.35058641434 349.294586182
endloop
endfacet
facet normal 0.00163078249898 -0.999998688698 0.0
outer loop
vertex 0.577883481979 -4.35058641434 352.885559082
vertex 0.511216878891 -4.35069513321 352.885559082
vertex 0.511216878891 -4.35069513321 349.294586182
endloop
endfacet
facet normal 0.999998092651 0.00199557095766 0.0
outer loop
vertex 0.577883481979 -4.35058641434 352.885559082
vertex 0.577783703804 -4.30058670044 349.294586182
vertex 0.577783703804 -4.30058670044 352.885559082
endloop
endfacet
facet normal 0.999998092651 0.00199557095766 -0.0
outer loop
vertex 0.577883481979 -4.35058641434 349.294586182
vertex 0.577783703804 -4.30058670044 349.294586182
vertex 0.577883481979 -4.35058641434 352.885559082
endloop
endfacet
facet normal -0.000143130557262 1.0 0.0
outer loop
vertex 0.37789478898 -4.30076360703 349.294586182
vertex 0.444524466991 -4.30075407028 352.885559082
vertex 0.444524466991 -4.30075407028 349.294586182
endloop
endfacet
facet normal -0.000143130557262 1.0 0.0
outer loop
vertex 0.37789478898 -4.30076360703 352.885559082
vertex 0.444524466991 -4.30075407028 352.885559082
vertex 0.37789478898 -4.30076360703 349.294586182
endloop
endfacet
facet normal -0.000887409551069 0.999999642372 0.0
outer loop
vertex 0.444524466991 -4.30075407028 349.294586182
vertex 0.5111541152 -4.30069494247 352.885559082
vertex 0.5111541152 -4.30069494247 349.294586182
endloop
endfacet
facet normal -0.000887409551069 0.999999642372 0.0
outer loop
vertex 0.444524466991 -4.30075407028 352.885559082
vertex 0.5111541152 -4.30069494247 352.885559082
vertex 0.444524466991 -4.30075407028 349.294586182
endloop
endfacet
facet normal -0.00162453192752 0.999998688698 0.0
outer loop
vertex 0.5111541152 -4.30069494247 349.294586182
vertex 0.577783703804 -4.30058670044 352.885559082
vertex 0.577783703804 -4.30058670044 349.294586182
endloop
endfacet
facet normal -0.00162453192752 0.999998688698 0.0
outer loop
vertex 0.5111541152 -4.30069494247 352.885559082
vertex 0.577783703804 -4.30058670044 352.885559082
vertex 0.5111541152 -4.30069494247 349.294586182
endloop
endfacet
facet normal -1.0 0.000224112605792 0.0
outer loop
vertex 0.37789478898 -4.30076360703 352.885559082
vertex 0.377883583307 -4.35076379776 349.294586182
vertex 0.377883583307 -4.35076379776 352.885559082
endloop
endfacet
facet normal -1.0 0.000224112605792 0.0
outer loop
vertex 0.37789478898 -4.30076360703 349.294586182
vertex 0.377883583307 -4.35076379776 349.294586182
vertex 0.37789478898 -4.30076360703 352.885559082
endloop
endfacet
facet normal 0.0 0.0 -1.0
outer loop
vertex 0.5111541152 -4.30069494247 349.294586182
vertex 0.577783703804 -4.30058670044 349.294586182
vertex 0.577883481979 -4.35058641434 349.294586182
endloop
endfacet
facet normal 0.0 0.0 -1.0
outer loop
vertex 0.511216878891 -4.35069513321 349.294586182
vertex 0.5111541152 -4.30069494247 349.294586182
vertex 0.577883481979 -4.35058641434 349.294586182
endloop
endfacet
facet normal 0.0 0.0 -1.0
outer loop
vertex 0.444550246 -4.35075378418 349.294586182
vertex 0.444524466991 -4.30075407028 349.294586182
vertex 0.5111541152 -4.30069494247 349.294586182
endloop
endfacet
facet normal 0.0 0.0 -1.0
outer loop
vertex 0.444550246 -4.35075378418 349.294586182
vertex 0.5111541152 -4.30069494247 349.294586182
vertex 0.511216878891 -4.35069513321 349.294586182
endloop
endfacet
facet normal 0.0 0.0 -1.0
outer loop
vertex 0.377883583307 -4.35076379776 349.294586182
vertex 0.37789478898 -4.30076360703 349.294586182
vertex 0.444524466991 -4.30075407028 349.294586182
endloop
endfacet
facet normal 0.0 0.0 -1.0
outer loop
vertex 0.377883583307 -4.35076379776 349.294586182
vertex 0.444524466991 -4.30075407028 349.294586182
vertex 0.444550246 -4.35075378418 349.294586182
endloop
endfacet
facet normal 0.0 0.0 1.0
outer loop
vertex 0.577783703804 -4.30058670044 352.885559082
vertex 0.5111541152 -4.30069494247 352.885559082
vertex 0.577883481979 -4.35058641434 352.885559082
endloop
endfacet
facet normal 0.0 0.0 1.0
outer loop
vertex 0.5111541152 -4.30069494247 352.885559082
vertex 0.511216878891 -4.35069513321 352.885559082
vertex 0.577883481979 -4.35058641434 352.885559082
endloop
endfacet
facet normal -0.0 0.0 1.0
outer loop
vertex 0.444524466991 -4.30075407028 352.885559082
vertex 0.444550246 -4.35075378418 352.885559082
vertex 0.5111541152 -4.30069494247 352.885559082
endloop
endfacet
facet normal 0.0 0.0 1.0
outer loop
vertex 0.5111541152 -4.30069494247 352.885559082
vertex 0.444550246 -4.35075378418 352.885559082
vertex 0.511216878891 -4.35069513321 352.885559082
endloop
endfacet
facet normal -0.0 0.0 1.0
outer loop
vertex 0.37789478898 -4.30076360703 352.885559082
vertex 0.377883583307 -4.35076379776 352.885559082
vertex 0.444524466991 -4.30075407028 352.885559082
endloop
endfacet
facet normal 0.0 0.0 1.0
outer loop
vertex 0.444524466991 -4.30075407028 352.885559082
vertex 0.377883583307 -4.35076379776 352.885559082
vertex 0.444550246 -4.35075378418 352.885559082
endloop
endfacet
