solid 
facet normal -0.206322103739 -0.978484153748 0.0
outer loop
vertex -18.9580955505 -2.41874718666 -15.9911222458
vertex -18.9580955505 -2.41874718666 -12.4001226425
vertex -19.0233268738 -2.40499258041 -12.4001226425
endloop
endfacet
facet normal -0.207040220499 -0.978332459927 0.0
outer loop
vertex -19.0233268738 -2.40499258041 -15.9911222458
vertex -19.0233268738 -2.40499258041 -12.4001226425
vertex -19.0885505676 -2.3911895752 -12.4001226425
endloop
endfacet
facet normal -0.206322103739 -0.978484153748 0.0
outer loop
vertex -19.0233268738 -2.40499258041 -15.9911222458
vertex -18.9580955505 -2.41874718666 -15.9911222458
vertex -19.0233268738 -2.40499258041 -12.4001226425
endloop
endfacet
facet normal -0.207040220499 -0.978332459927 0.0
outer loop
vertex -19.0885505676 -2.3911895752 -15.9911222458
vertex -19.0233268738 -2.40499258041 -15.9911222458
vertex -19.0885505676 -2.3911895752 -12.4001226425
endloop
endfacet
facet normal -0.207775592804 -0.978176534176 0.0
outer loop
vertex -19.15376091 -2.37733817101 -15.9911222458
vertex -19.0885505676 -2.3911895752 -12.4001226425
vertex -19.15376091 -2.37733817101 -12.4001226425
endloop
endfacet
facet normal -0.207775592804 -0.978176534176 0.0
outer loop
vertex -19.15376091 -2.37733817101 -15.9911222458
vertex -19.0885505676 -2.3911895752 -15.9911222458
vertex -19.0885505676 -2.3911895752 -12.4001226425
endloop
endfacet
facet normal -0.978101074696 0.208130568266 0.0
outer loop
vertex -19.15376091 -2.37733817101 -15.9911222458
vertex -19.1433544159 -2.32843327522 -12.4001226425
vertex -19.1433544159 -2.32843327522 -15.9911222458
endloop
endfacet
facet normal -0.978101074696 0.208130568266 0.0
outer loop
vertex -19.15376091 -2.37733817101 -12.4001226425
vertex -19.1433544159 -2.32843327522 -12.4001226425
vertex -19.15376091 -2.37733817101 -15.9911222458
endloop
endfacet
facet normal 0.206322267652 0.978484034538 0.0
outer loop
vertex -18.9477977753 -2.36981916428 -12.4001226425
vertex -18.9477977753 -2.36981916428 -15.9911222458
vertex -19.0129928589 -2.35607218742 -12.4001226425
endloop
endfacet
facet normal 0.207040786743 0.978332281113 0.0
outer loop
vertex -19.0129928589 -2.35607218742 -12.4001226425
vertex -19.0129928589 -2.35607218742 -15.9911222458
vertex -19.0781803131 -2.3422768116 -12.4001226425
endloop
endfacet
facet normal 0.206322267652 0.978484034538 0.0
outer loop
vertex -18.9477977753 -2.36981916428 -15.9911222458
vertex -19.0129928589 -2.35607218742 -15.9911222458
vertex -19.0129928589 -2.35607218742 -12.4001226425
endloop
endfacet
facet normal 0.207040786743 0.978332281113 0.0
outer loop
vertex -19.0129928589 -2.35607218742 -15.9911222458
vertex -19.0781803131 -2.3422768116 -15.9911222458
vertex -19.0781803131 -2.3422768116 -12.4001226425
endloop
endfacet
facet normal 0.207773163915 0.978177011013 0.0
outer loop
vertex -19.0781803131 -2.3422768116 -12.4001226425
vertex -19.1433544159 -2.32843327522 -15.9911222458
vertex -19.1433544159 -2.32843327522 -12.4001226425
endloop
endfacet
facet normal 0.207773163915 0.978177011013 -0.0
outer loop
vertex -19.0781803131 -2.3422768116 -15.9911222458
vertex -19.1433544159 -2.32843327522 -15.9911222458
vertex -19.0781803131 -2.3422768116 -12.4001226425
endloop
endfacet
facet normal 0.978561341763 -0.205955684185 0.0
outer loop
vertex -18.9477977753 -2.36981916428 -15.9911222458
vertex -18.9580955505 -2.41874718666 -12.4001226425
vertex -18.9580955505 -2.41874718666 -15.9911222458
endloop
endfacet
facet normal 0.978561341763 -0.205955684185 0.0
outer loop
vertex -18.9477977753 -2.36981916428 -12.4001226425
vertex -18.9580955505 -2.41874718666 -12.4001226425
vertex -18.9477977753 -2.36981916428 -15.9911222458
endloop
endfacet
facet normal 0.0 0.0 1.0
outer loop
vertex -19.0781803131 -2.3422768116 -12.4001226425
vertex -19.1433544159 -2.32843327522 -12.4001226425
vertex -19.15376091 -2.37733817101 -12.4001226425
endloop
endfacet
facet normal 0.0 -0.0 1.0
outer loop
vertex -19.0885505676 -2.3911895752 -12.4001226425
vertex -19.0781803131 -2.3422768116 -12.4001226425
vertex -19.15376091 -2.37733817101 -12.4001226425
endloop
endfacet
facet normal 0.0 0.0 1.0
outer loop
vertex -19.0129928589 -2.35607218742 -12.4001226425
vertex -19.0781803131 -2.3422768116 -12.4001226425
vertex -19.0885505676 -2.3911895752 -12.4001226425
endloop
endfacet
facet normal 0.0 -0.0 1.0
outer loop
vertex -19.0233268738 -2.40499258041 -12.4001226425
vertex -19.0129928589 -2.35607218742 -12.4001226425
vertex -19.0885505676 -2.3911895752 -12.4001226425
endloop
endfacet
facet normal 0.0 0.0 1.0
outer loop
vertex -18.9477977753 -2.36981916428 -12.4001226425
vertex -19.0129928589 -2.35607218742 -12.4001226425
vertex -19.0233268738 -2.40499258041 -12.4001226425
endloop
endfacet
facet normal 0.0 -0.0 1.0
outer loop
vertex -18.9580955505 -2.41874718666 -12.4001226425
vertex -18.9477977753 -2.36981916428 -12.4001226425
vertex -19.0233268738 -2.40499258041 -12.4001226425
endloop
endfacet
facet normal 0.0 -0.0 -1.0
outer loop
vertex -19.1433544159 -2.32843327522 -15.9911222458
vertex -19.0781803131 -2.3422768116 -15.9911222458
vertex -19.15376091 -2.37733817101 -15.9911222458
endloop
endfacet
facet normal 0.0 0.0 -1.0
outer loop
vertex -19.0781803131 -2.3422768116 -15.9911222458
vertex -19.0885505676 -2.3911895752 -15.9911222458
vertex -19.15376091 -2.37733817101 -15.9911222458
endloop
endfacet
facet normal 0.0 -0.0 -1.0
outer loop
vertex -19.0781803131 -2.3422768116 -15.9911222458
vertex -19.0129928589 -2.35607218742 -15.9911222458
vertex -19.0885505676 -2.3911895752 -15.9911222458
endloop
endfacet
facet normal 0.0 0.0 -1.0
outer loop
vertex -19.0129928589 -2.35607218742 -15.9911222458
vertex -19.0233268738 -2.40499258041 -15.9911222458
vertex -19.0885505676 -2.3911895752 -15.9911222458
endloop
endfacet
facet normal 0.0 -0.0 -1.0
outer loop
vertex -19.0129928589 -2.35607218742 -15.9911222458
vertex -18.9477977753 -2.36981916428 -15.9911222458
vertex -19.0233268738 -2.40499258041 -15.9911222458
endloop
endfacet
facet normal 0.0 0.0 -1.0
outer loop
vertex -18.9477977753 -2.36981916428 -15.9911222458
vertex -18.9580955505 -2.41874718666 -15.9911222458
vertex -19.0233268738 -2.40499258041 -15.9911222458
endloop
endfacet
