solid 
facet normal -0.000150203719386 1.0 0.0
outer loop
vertex -0.444545358419 4.35075330734 219.151000977
vertex -0.377878695726 4.35076332092 219.151000977
vertex -0.377878695726 4.35076332092 215.559997559
endloop
endfacet
facet normal -0.000150203719386 1.0 0.0
outer loop
vertex -0.444545358419 4.35075330734 219.151000977
vertex -0.377878695726 4.35076332092 215.559997559
vertex -0.444545358419 4.35075330734 215.559997559
endloop
endfacet
facet normal -0.000886917230673 0.999999642372 0.0
outer loop
vertex -0.51121199131 4.35069417953 219.151000977
vertex -0.444545358419 4.35075330734 215.559997559
vertex -0.51121199131 4.35069417953 215.559997559
endloop
endfacet
facet normal -0.000886917230673 0.999999642372 0.0
outer loop
vertex -0.51121199131 4.35069417953 219.151000977
vertex -0.444545358419 4.35075330734 219.151000977
vertex -0.444545358419 4.35075330734 215.559997559
endloop
endfacet
facet normal -0.00162363122217 0.999998629093 0.0
outer loop
vertex -0.577878534794 4.3505859375 219.151000977
vertex -0.51121199131 4.35069417953 215.559997559
vertex -0.577878534794 4.3505859375 215.559997559
endloop
endfacet
facet normal -0.00162363122217 0.999998629093 0.0
outer loop
vertex -0.577878534794 4.3505859375 219.151000977
vertex -0.51121199131 4.35069417953 219.151000977
vertex -0.51121199131 4.35069417953 215.559997559
endloop
endfacet
facet normal -0.999998033047 -0.00199437886477 0.0
outer loop
vertex -0.577878534794 4.3505859375 219.151000977
vertex -0.577778816223 4.3005862236 215.559997559
vertex -0.577778816223 4.3005862236 219.151000977
endloop
endfacet
facet normal -0.999998033047 -0.00199437886477 0.0
outer loop
vertex -0.577878534794 4.3505859375 215.559997559
vertex -0.577778816223 4.3005862236 215.559997559
vertex -0.577878534794 4.3505859375 219.151000977
endloop
endfacet
facet normal 0.000143130557262 -1.0 0.0
outer loop
vertex -0.377889871597 4.30076313019 215.559997559
vertex -0.377889871597 4.30076313019 219.151000977
vertex -0.444519549608 4.30075359344 215.559997559
endloop
endfacet
facet normal 0.000143130557262 -1.0 0.0
outer loop
vertex -0.377889871597 4.30076313019 219.151000977
vertex -0.444519549608 4.30075359344 219.151000977
vertex -0.444519549608 4.30075359344 215.559997559
endloop
endfacet
facet normal 0.000887409143616 -0.999999642372 0.0
outer loop
vertex -0.444519549608 4.30075359344 215.559997559
vertex -0.511149227619 4.30069446564 219.151000977
vertex -0.511149227619 4.30069446564 215.559997559
endloop
endfacet
facet normal 0.000887409143616 -0.999999642372 0.0
outer loop
vertex -0.444519549608 4.30075359344 219.151000977
vertex -0.511149227619 4.30069446564 219.151000977
vertex -0.444519549608 4.30075359344 215.559997559
endloop
endfacet
facet normal 0.0016245318111 -0.999998629093 0.0
outer loop
vertex -0.511149227619 4.30069446564 215.559997559
vertex -0.577778816223 4.3005862236 219.151000977
vertex -0.577778816223 4.3005862236 215.559997559
endloop
endfacet
facet normal 0.0016245318111 -0.999998629093 0.0
outer loop
vertex -0.511149227619 4.30069446564 219.151000977
vertex -0.577778816223 4.3005862236 219.151000977
vertex -0.511149227619 4.30069446564 215.559997559
endloop
endfacet
facet normal 1.0 -0.000223516559345 0.0
outer loop
vertex -0.377889871597 4.30076313019 219.151000977
vertex -0.377878695726 4.35076332092 215.559997559
vertex -0.377878695726 4.35076332092 219.151000977
endloop
endfacet
facet normal 1.0 -0.000223516559345 0.0
outer loop
vertex -0.377889871597 4.30076313019 215.559997559
vertex -0.377878695726 4.35076332092 215.559997559
vertex -0.377889871597 4.30076313019 219.151000977
endloop
endfacet
facet normal -0.0 0.0 -1.0
outer loop
vertex -0.511149227619 4.30069446564 215.559997559
vertex -0.577778816223 4.3005862236 215.559997559
vertex -0.577878534794 4.3505859375 215.559997559
endloop
endfacet
facet normal 0.0 -0.0 -1.0
outer loop
vertex -0.51121199131 4.35069417953 215.559997559
vertex -0.511149227619 4.30069446564 215.559997559
vertex -0.577878534794 4.3505859375 215.559997559
endloop
endfacet
facet normal 0.0 -0.0 -1.0
outer loop
vertex -0.444545358419 4.35075330734 215.559997559
vertex -0.444519549608 4.30075359344 215.559997559
vertex -0.511149227619 4.30069446564 215.559997559
endloop
endfacet
facet normal 0.0 0.0 -1.0
outer loop
vertex -0.444545358419 4.35075330734 215.559997559
vertex -0.511149227619 4.30069446564 215.559997559
vertex -0.51121199131 4.35069417953 215.559997559
endloop
endfacet
facet normal 0.0 0.0 -1.0
outer loop
vertex -0.377878695726 4.35076332092 215.559997559
vertex -0.377889871597 4.30076313019 215.559997559
vertex -0.444519549608 4.30075359344 215.559997559
endloop
endfacet
facet normal 0.0 0.0 -1.0
outer loop
vertex -0.377878695726 4.35076332092 215.559997559
vertex -0.444519549608 4.30075359344 215.559997559
vertex -0.444545358419 4.35075330734 215.559997559
endloop
endfacet
facet normal 0.0 -0.0 1.0
outer loop
vertex -0.577778816223 4.3005862236 219.151000977
vertex -0.511149227619 4.30069446564 219.151000977
vertex -0.577878534794 4.3505859375 219.151000977
endloop
endfacet
facet normal 0.0 0.0 1.0
outer loop
vertex -0.511149227619 4.30069446564 219.151000977
vertex -0.51121199131 4.35069417953 219.151000977
vertex -0.577878534794 4.3505859375 219.151000977
endloop
endfacet
facet normal 0.0 0.0 1.0
outer loop
vertex -0.444519549608 4.30075359344 219.151000977
vertex -0.444545358419 4.35075330734 219.151000977
vertex -0.511149227619 4.30069446564 219.151000977
endloop
endfacet
facet normal 0.0 -0.0 1.0
outer loop
vertex -0.511149227619 4.30069446564 219.151000977
vertex -0.444545358419 4.35075330734 219.151000977
vertex -0.51121199131 4.35069417953 219.151000977
endloop
endfacet
facet normal 0.0 -0.0 1.0
outer loop
vertex -0.377889871597 4.30076313019 219.151000977
vertex -0.377878695726 4.35076332092 219.151000977
vertex -0.444519549608 4.30075359344 219.151000977
endloop
endfacet
facet normal 0.0 -0.0 1.0
outer loop
vertex -0.444519549608 4.30075359344 219.151000977
vertex -0.377878695726 4.35076332092 219.151000977
vertex -0.444545358419 4.35075330734 219.151000977
endloop
endfacet
