solid 
facet normal 0.206316322088 0.978485286236 0.0
outer loop
vertex 19.0233325958 2.40499210358 240.817001343
vertex 18.9580993652 2.41874670982 240.817001343
vertex 18.9580993652 2.41874670982 244.408004761
endloop
endfacet
facet normal 0.206319749355 0.97848457098 6.49648228546e-08
outer loop
vertex 19.0233325958 2.40499210358 240.817001343
vertex 18.9580993652 2.41874670982 244.408004761
vertex 19.0233325958 2.40499186516 244.408004761
endloop
endfacet
facet normal 0.207046017051 0.978331267834 6.49546407772e-08
outer loop
vertex 19.0885543823 2.39118909836 240.817001343
vertex 19.0233325958 2.40499186516 244.408004761
vertex 19.0885543823 2.39118885994 244.408004761
endloop
endfacet
facet normal 0.207766368985 0.978178441525 6.49445013323e-08
outer loop
vertex 19.0885543823 2.39118909836 240.817001343
vertex 19.0885543823 2.39118885994 244.408004761
vertex 19.1537666321 2.37733769417 244.408004761
endloop
endfacet
facet normal 0.207046017051 0.978331267834 6.51616929304e-08
outer loop
vertex 19.0885543823 2.39118909836 240.817001343
vertex 19.0233325958 2.40499210358 240.817001343
vertex 19.0233325958 2.40499186516 244.408004761
endloop
endfacet
facet normal 0.207769796252 0.978177726269 -0.0
outer loop
vertex 19.1537666321 2.37733769417 240.817001343
vertex 19.0885543823 2.39118909836 240.817001343
vertex 19.1537666321 2.37733769417 244.408004761
endloop
endfacet
facet normal 0.97810125351 -0.20812959969 0.0
outer loop
vertex 19.1433601379 2.32843255997 240.817001343
vertex 19.1537666321 2.37733769417 240.817001343
vertex 19.1537666321 2.37733769417 244.408004761
endloop
endfacet
facet normal 0.97810125351 -0.20812959969 0.0
outer loop
vertex 19.1433601379 2.32843255997 240.817001343
vertex 19.1537666321 2.37733769417 244.408004761
vertex 19.1433601379 2.32843255997 244.408004761
endloop
endfacet
facet normal -0.206319913268 -0.97848457098 -6.49534186437e-08
outer loop
vertex 18.94780159 2.36981868744 244.408004761
vertex 19.0129985809 2.35607171059 240.817001343
vertex 19.0129985809 2.35607147217 244.408004761
endloop
endfacet
facet normal -0.206316500902 -0.978485286236 0.0
outer loop
vertex 18.94780159 2.36981868744 240.817001343
vertex 19.0129985809 2.35607171059 240.817001343
vertex 18.94780159 2.36981868744 244.408004761
endloop
endfacet
facet normal -0.207046583295 -0.97833108902 -6.49546336717e-08
outer loop
vertex 19.0129985809 2.35607147217 244.408004761
vertex 19.0781841278 2.34227633476 240.817001343
vertex 19.0781841278 2.34227609634 244.408004761
endloop
endfacet
facet normal -0.207767337561 -0.978178322315 -6.49444871215e-08
outer loop
vertex 19.0781841278 2.34227609634 244.408004761
vertex 19.0781841278 2.34227633476 240.817001343
vertex 19.1433601379 2.32843255997 244.408004761
endloop
endfacet
facet normal -0.207046583295 -0.97833108902 -6.49546336717e-08
outer loop
vertex 19.0129985809 2.35607171059 240.817001343
vertex 19.0781841278 2.34227633476 240.817001343
vertex 19.0129985809 2.35607147217 244.408004761
endloop
endfacet
facet normal -0.207770764828 -0.978177547455 0.0
outer loop
vertex 19.0781841278 2.34227633476 240.817001343
vertex 19.1433601379 2.32843255997 240.817001343
vertex 19.1433601379 2.32843255997 244.408004761
endloop
endfacet
facet normal -0.978561282158 0.205955684185 0.0
outer loop
vertex 18.9580993652 2.41874670982 240.817001343
vertex 18.94780159 2.36981868744 240.817001343
vertex 18.94780159 2.36981868744 244.408004761
endloop
endfacet
facet normal -0.978561282158 0.205955684185 0.0
outer loop
vertex 18.9580993652 2.41874670982 240.817001343
vertex 18.94780159 2.36981868744 244.408004761
vertex 18.9580993652 2.41874670982 244.408004761
endloop
endfacet
facet normal 0.0 0.0 -1.0
outer loop
vertex 19.1433601379 2.32843255997 240.817001343
vertex 19.0781841278 2.34227633476 240.817001343
vertex 19.1537666321 2.37733769417 240.817001343
endloop
endfacet
facet normal 0.0 0.0 -1.0
outer loop
vertex 19.0781841278 2.34227633476 240.817001343
vertex 19.0885543823 2.39118909836 240.817001343
vertex 19.1537666321 2.37733769417 240.817001343
endloop
endfacet
facet normal 0.0 0.0 -1.0
outer loop
vertex 19.0781841278 2.34227633476 240.817001343
vertex 19.0129985809 2.35607171059 240.817001343
vertex 19.0885543823 2.39118909836 240.817001343
endloop
endfacet
facet normal 0.0 0.0 -1.0
outer loop
vertex 19.0129985809 2.35607171059 240.817001343
vertex 19.0233325958 2.40499210358 240.817001343
vertex 19.0885543823 2.39118909836 240.817001343
endloop
endfacet
facet normal 0.0 0.0 -1.0
outer loop
vertex 19.0129985809 2.35607171059 240.817001343
vertex 18.94780159 2.36981868744 240.817001343
vertex 19.0233325958 2.40499210358 240.817001343
endloop
endfacet
facet normal 0.0 0.0 -1.0
outer loop
vertex 18.94780159 2.36981868744 240.817001343
vertex 18.9580993652 2.41874670982 240.817001343
vertex 19.0233325958 2.40499210358 240.817001343
endloop
endfacet
facet normal -0.0 0.0 1.0
outer loop
vertex 19.0781841278 2.34227609634 244.408004761
vertex 19.1433601379 2.32843255997 244.408004761
vertex 19.1537666321 2.37733769417 244.408004761
endloop
endfacet
facet normal 0.0 0.0 1.0
outer loop
vertex 19.0885543823 2.39118885994 244.408004761
vertex 19.0781841278 2.34227609634 244.408004761
vertex 19.1537666321 2.37733769417 244.408004761
endloop
endfacet
facet normal -0.0 0.0 1.0
outer loop
vertex 19.0129985809 2.35607147217 244.408004761
vertex 19.0781841278 2.34227609634 244.408004761
vertex 19.0885543823 2.39118885994 244.408004761
endloop
endfacet
facet normal 0.0 0.0 1.0
outer loop
vertex 19.0233325958 2.40499186516 244.408004761
vertex 19.0129985809 2.35607147217 244.408004761
vertex 19.0885543823 2.39118885994 244.408004761
endloop
endfacet
facet normal 0.0 0.0 1.0
outer loop
vertex 18.9580993652 2.41874670982 244.408004761
vertex 18.94780159 2.36981868744 244.408004761
vertex 19.0129985809 2.35607147217 244.408004761
endloop
endfacet
facet normal 0.0 0.0 1.0
outer loop
vertex 18.9580993652 2.41874670982 244.408004761
vertex 19.0129985809 2.35607147217 244.408004761
vertex 19.0233325958 2.40499186516 244.408004761
endloop
endfacet
