solid 
facet normal 0.206316336989 -0.97848534584 0.0
outer loop
vertex 19.0233325958 -2.40499210358 -244.890914917
vertex 18.9580993652 -2.41874670982 -244.890914917
vertex 18.9580993652 -2.41874670982 -248.481903076
endloop
endfacet
facet normal 0.206319764256 -0.978484630585 -6.49650999662e-08
outer loop
vertex 19.0233325958 -2.40499210358 -244.890914917
vertex 18.9580993652 -2.41874670982 -248.481903076
vertex 19.0233325958 -2.40499186516 -248.481903076
endloop
endfacet
facet normal 0.207046017051 -0.978331208229 -6.49549178888e-08
outer loop
vertex 19.0885543823 -2.39118909836 -244.890914917
vertex 19.0233325958 -2.40499186516 -248.481903076
vertex 19.0885543823 -2.39118885994 -248.481903076
endloop
endfacet
facet normal 0.207766368985 -0.978178501129 -6.4944778444e-08
outer loop
vertex 19.0885543823 -2.39118909836 -244.890914917
vertex 19.0885543823 -2.39118885994 -248.481903076
vertex 19.1537666321 -2.37733769417 -248.481903076
endloop
endfacet
facet normal 0.207046017051 -0.978331208229 -6.51619629366e-08
outer loop
vertex 19.0885543823 -2.39118909836 -244.890914917
vertex 19.0233325958 -2.40499210358 -244.890914917
vertex 19.0233325958 -2.40499186516 -248.481903076
endloop
endfacet
facet normal 0.207769796252 -0.978177785873 0.0
outer loop
vertex 19.1537666321 -2.37733769417 -244.890914917
vertex 19.0885543823 -2.39118909836 -244.890914917
vertex 19.1537666321 -2.37733769417 -248.481903076
endloop
endfacet
facet normal 0.978101193905 0.208129569888 0.0
outer loop
vertex 19.1433601379 -2.32843255997 -244.890914917
vertex 19.1537666321 -2.37733769417 -244.890914917
vertex 19.1537666321 -2.37733769417 -248.481903076
endloop
endfacet
facet normal 0.978101193905 0.208129569888 0.0
outer loop
vertex 19.1433601379 -2.32843255997 -244.890914917
vertex 19.1537666321 -2.37733769417 -248.481903076
vertex 19.1433601379 -2.32843255997 -248.481903076
endloop
endfacet
facet normal -0.206319928169 0.978484630585 6.49536957553e-08
outer loop
vertex 18.94780159 -2.36981868744 -248.481903076
vertex 19.0129985809 -2.35607171059 -244.890914917
vertex 19.0129985809 -2.35607147217 -248.481903076
endloop
endfacet
facet normal -0.206316500902 0.97848534584 0.0
outer loop
vertex 18.94780159 -2.36981868744 -244.890914917
vertex 19.0129985809 -2.35607171059 -244.890914917
vertex 18.94780159 -2.36981868744 -248.481903076
endloop
endfacet
facet normal -0.207046583295 0.97833108902 6.49549107834e-08
outer loop
vertex 19.0129985809 -2.35607147217 -248.481903076
vertex 19.0781841278 -2.34227633476 -244.890914917
vertex 19.0781841278 -2.34227609634 -248.481903076
endloop
endfacet
facet normal -0.207767352462 0.978178262711 6.49447642331e-08
outer loop
vertex 19.0781841278 -2.34227609634 -248.481903076
vertex 19.0781841278 -2.34227633476 -244.890914917
vertex 19.1433601379 -2.32843255997 -248.481903076
endloop
endfacet
facet normal -0.207046583295 0.97833108902 6.49549107834e-08
outer loop
vertex 19.0129985809 -2.35607171059 -244.890914917
vertex 19.0781841278 -2.34227633476 -244.890914917
vertex 19.0129985809 -2.35607147217 -248.481903076
endloop
endfacet
facet normal -0.207770764828 0.978177547455 0.0
outer loop
vertex 19.0781841278 -2.34227633476 -244.890914917
vertex 19.1433601379 -2.32843255997 -244.890914917
vertex 19.1433601379 -2.32843255997 -248.481903076
endloop
endfacet
facet normal -0.978561341763 -0.205955684185 0.0
outer loop
vertex 18.9580993652 -2.41874670982 -244.890914917
vertex 18.94780159 -2.36981868744 -244.890914917
vertex 18.94780159 -2.36981868744 -248.481903076
endloop
endfacet
facet normal -0.978561341763 -0.205955684185 -0.0
outer loop
vertex 18.9580993652 -2.41874670982 -244.890914917
vertex 18.94780159 -2.36981868744 -248.481903076
vertex 18.9580993652 -2.41874670982 -248.481903076
endloop
endfacet
facet normal 0.0 0.0 1.0
outer loop
vertex 19.1433601379 -2.32843255997 -244.890914917
vertex 19.0781841278 -2.34227633476 -244.890914917
vertex 19.1537666321 -2.37733769417 -244.890914917
endloop
endfacet
facet normal 0.0 0.0 1.0
outer loop
vertex 19.0781841278 -2.34227633476 -244.890914917
vertex 19.0885543823 -2.39118909836 -244.890914917
vertex 19.1537666321 -2.37733769417 -244.890914917
endloop
endfacet
facet normal 0.0 0.0 1.0
outer loop
vertex 19.0781841278 -2.34227633476 -244.890914917
vertex 19.0129985809 -2.35607171059 -244.890914917
vertex 19.0885543823 -2.39118909836 -244.890914917
endloop
endfacet
facet normal 0.0 0.0 1.0
outer loop
vertex 19.0129985809 -2.35607171059 -244.890914917
vertex 19.0233325958 -2.40499210358 -244.890914917
vertex 19.0885543823 -2.39118909836 -244.890914917
endloop
endfacet
facet normal 0.0 0.0 1.0
outer loop
vertex 19.0129985809 -2.35607171059 -244.890914917
vertex 18.94780159 -2.36981868744 -244.890914917
vertex 19.0233325958 -2.40499210358 -244.890914917
endloop
endfacet
facet normal 0.0 0.0 1.0
outer loop
vertex 18.94780159 -2.36981868744 -244.890914917
vertex 18.9580993652 -2.41874670982 -244.890914917
vertex 19.0233325958 -2.40499210358 -244.890914917
endloop
endfacet
facet normal 0.0 0.0 -1.0
outer loop
vertex 19.0781841278 -2.34227609634 -248.481903076
vertex 19.1433601379 -2.32843255997 -248.481903076
vertex 19.1537666321 -2.37733769417 -248.481903076
endloop
endfacet
facet normal 0.0 0.0 -1.0
outer loop
vertex 19.0885543823 -2.39118885994 -248.481903076
vertex 19.0781841278 -2.34227609634 -248.481903076
vertex 19.1537666321 -2.37733769417 -248.481903076
endloop
endfacet
facet normal 0.0 0.0 -1.0
outer loop
vertex 19.0129985809 -2.35607147217 -248.481903076
vertex 19.0781841278 -2.34227609634 -248.481903076
vertex 19.0885543823 -2.39118885994 -248.481903076
endloop
endfacet
facet normal 0.0 0.0 -1.0
outer loop
vertex 19.0233325958 -2.40499186516 -248.481903076
vertex 19.0129985809 -2.35607147217 -248.481903076
vertex 19.0885543823 -2.39118885994 -248.481903076
endloop
endfacet
facet normal 0.0 0.0 -1.0
outer loop
vertex 18.9580993652 -2.41874670982 -248.481903076
vertex 18.94780159 -2.36981868744 -248.481903076
vertex 19.0129985809 -2.35607147217 -248.481903076
endloop
endfacet
facet normal 0.0 0.0 -1.0
outer loop
vertex 18.9580993652 -2.41874670982 -248.481903076
vertex 19.0129985809 -2.35607147217 -248.481903076
vertex 19.0233325958 -2.40499186516 -248.481903076
endloop
endfacet
