solid 
facet normal 0.206319749355 -0.97848457098 0.0
outer loop
vertex 18.9581069946 -2.41874551773 -66.5651245117
vertex 18.9581069946 -2.41874551773 -70.1561203003
vertex 19.0233402252 -2.40499067307 -70.1561203003
endloop
endfacet
facet normal 0.20704600215 -0.978331208229 -6.49547757803e-08
outer loop
vertex 19.0233402252 -2.40499091148 -66.5651245117
vertex 19.0233402252 -2.40499067307 -70.1561203003
vertex 19.0885620117 -2.39118766785 -70.1561203003
endloop
endfacet
facet normal 0.206316322088 -0.97848534584 -6.49650075957e-08
outer loop
vertex 19.0233402252 -2.40499091148 -66.5651245117
vertex 18.9581069946 -2.41874551773 -66.5651245117
vertex 19.0233402252 -2.40499067307 -70.1561203003
endloop
endfacet
facet normal 0.20704600215 -0.978331208229 -6.49547757803e-08
outer loop
vertex 19.0885620117 -2.39118790627 -66.5651245117
vertex 19.0233402252 -2.40499091148 -66.5651245117
vertex 19.0885620117 -2.39118766785 -70.1561203003
endloop
endfacet
facet normal 0.207772180438 -0.978177249432 -1.10357689209e-07
outer loop
vertex 19.1537742615 -2.37733650208 -66.5651245117
vertex 19.0885620117 -2.39118766785 -70.1561203003
vertex 19.1537723541 -2.37733650208 -70.1561203003
endloop
endfacet
facet normal 0.207769781351 -0.978177726269 -6.49179980883e-08
outer loop
vertex 19.1537742615 -2.37733650208 -66.5651245117
vertex 19.0885620117 -2.39118790627 -66.5651245117
vertex 19.0885620117 -2.39118766785 -70.1561203003
endloop
endfacet
facet normal 0.97810125351 0.208129569888 -5.19516106579e-07
outer loop
vertex 19.1537742615 -2.37733650208 -66.5651245117
vertex 19.1537723541 -2.37733650208 -70.1561203003
vertex 19.14336586 -2.32843136787 -70.1561203003
endloop
endfacet
facet normal 0.978093266487 0.208167046309 1.38209266254e-08
outer loop
vertex 19.14336586 -2.32843160629 -66.5651245117
vertex 19.1537742615 -2.37733650208 -66.5651245117
vertex 19.14336586 -2.32843136787 -70.1561203003
endloop
endfacet
facet normal -0.206325694919 0.978483378887 0.0
outer loop
vertex 18.9478092194 -2.36981749535 -70.1561203003
vertex 18.9478092194 -2.36981749535 -66.5651245117
vertex 19.013004303 -2.35607028008 -70.1561203003
endloop
endfacet
facet normal -0.207040786743 0.978332281113 6.495485394e-08
outer loop
vertex 19.013004303 -2.35607028008 -70.1561203003
vertex 19.013004303 -2.35607051849 -66.5651245117
vertex 19.0781917572 -2.34227490425 -70.1561203003
endloop
endfacet
facet normal -0.206322267652 0.978484094143 6.49554294796e-08
outer loop
vertex 18.9478092194 -2.36981749535 -66.5651245117
vertex 19.013004303 -2.35607051849 -66.5651245117
vertex 19.013004303 -2.35607028008 -70.1561203003
endloop
endfacet
facet normal -0.207773149014 0.978177011013 6.49445368595e-08
outer loop
vertex 19.0781917572 -2.34227490425 -70.1561203003
vertex 19.0781917572 -2.34227514267 -66.5651245117
vertex 19.14336586 -2.32843136787 -70.1561203003
endloop
endfacet
facet normal -0.207040786743 0.978332281113 6.49529496854e-08
outer loop
vertex 19.013004303 -2.35607051849 -66.5651245117
vertex 19.0781917572 -2.34227514267 -66.5651245117
vertex 19.0781917572 -2.34227490425 -70.1561203003
endloop
endfacet
facet normal -0.207773149014 0.978177011013 6.49559410704e-08
outer loop
vertex 19.0781917572 -2.34227514267 -66.5651245117
vertex 19.14336586 -2.32843160629 -66.5651245117
vertex 19.14336586 -2.32843136787 -70.1561203003
endloop
endfacet
facet normal -0.978561282158 -0.205955699086 -0.0
outer loop
vertex 18.9478092194 -2.36981749535 -66.5651245117
vertex 18.9478092194 -2.36981749535 -70.1561203003
vertex 18.9581069946 -2.41874551773 -70.1561203003
endloop
endfacet
facet normal -0.978561282158 -0.205955699086 -0.0
outer loop
vertex 18.9581069946 -2.41874551773 -66.5651245117
vertex 18.9478092194 -2.36981749535 -66.5651245117
vertex 18.9581069946 -2.41874551773 -70.1561203003
endloop
endfacet
facet normal -0.0 0.0 1.0
outer loop
vertex 19.0781917572 -2.34227514267 -66.5651245117
vertex 19.0885620117 -2.39118790627 -66.5651245117
vertex 19.14336586 -2.32843160629 -66.5651245117
endloop
endfacet
facet normal 0.0 0.0 1.0
outer loop
vertex 19.14336586 -2.32843160629 -66.5651245117
vertex 19.0885620117 -2.39118790627 -66.5651245117
vertex 19.1537742615 -2.37733650208 -66.5651245117
endloop
endfacet
facet normal -0.0 0.0 1.0
outer loop
vertex 19.013004303 -2.35607051849 -66.5651245117
vertex 19.0233402252 -2.40499091148 -66.5651245117
vertex 19.0781917572 -2.34227514267 -66.5651245117
endloop
endfacet
facet normal 0.0 0.0 1.0
outer loop
vertex 19.0781917572 -2.34227514267 -66.5651245117
vertex 19.0233402252 -2.40499091148 -66.5651245117
vertex 19.0885620117 -2.39118790627 -66.5651245117
endloop
endfacet
facet normal -0.0 0.0 1.0
outer loop
vertex 18.9478092194 -2.36981749535 -66.5651245117
vertex 18.9581069946 -2.41874551773 -66.5651245117
vertex 19.013004303 -2.35607051849 -66.5651245117
endloop
endfacet
facet normal 0.0 0.0 1.0
outer loop
vertex 19.013004303 -2.35607051849 -66.5651245117
vertex 18.9581069946 -2.41874551773 -66.5651245117
vertex 19.0233402252 -2.40499091148 -66.5651245117
endloop
endfacet
facet normal 0.0 0.0 -1.0
outer loop
vertex 19.0781917572 -2.34227490425 -70.1561203003
vertex 19.14336586 -2.32843136787 -70.1561203003
vertex 19.1537723541 -2.37733650208 -70.1561203003
endloop
endfacet
facet normal 0.0 0.0 -1.0
outer loop
vertex 19.0885620117 -2.39118766785 -70.1561203003
vertex 19.0781917572 -2.34227490425 -70.1561203003
vertex 19.1537723541 -2.37733650208 -70.1561203003
endloop
endfacet
facet normal 0.0 0.0 -1.0
outer loop
vertex 19.0233402252 -2.40499067307 -70.1561203003
vertex 19.013004303 -2.35607028008 -70.1561203003
vertex 19.0781917572 -2.34227490425 -70.1561203003
endloop
endfacet
facet normal 0.0 0.0 -1.0
outer loop
vertex 19.0233402252 -2.40499067307 -70.1561203003
vertex 19.0781917572 -2.34227490425 -70.1561203003
vertex 19.0885620117 -2.39118766785 -70.1561203003
endloop
endfacet
facet normal 0.0 0.0 -1.0
outer loop
vertex 18.9581069946 -2.41874551773 -70.1561203003
vertex 18.9478092194 -2.36981749535 -70.1561203003
vertex 19.013004303 -2.35607028008 -70.1561203003
endloop
endfacet
facet normal 0.0 0.0 -1.0
outer loop
vertex 18.9581069946 -2.41874551773 -70.1561203003
vertex 19.013004303 -2.35607028008 -70.1561203003
vertex 19.0233402252 -2.40499067307 -70.1561203003
endloop
endfacet
