solid 
facet normal -0.000150203719386 -1.0 1.42465184615e-12
outer loop
vertex -0.444550246 -4.35075378418 142.060791016
vertex -0.377883583307 -4.35076379776 142.060791016
vertex -0.377883553505 -4.35076379776 145.651779175
endloop
endfacet
facet normal -0.000150203719386 -1.0 1.24657044669e-12
outer loop
vertex -0.444550246 -4.35075378418 142.060791016
vertex -0.377883553505 -4.35076379776 145.651779175
vertex -0.444550216198 -4.35075378418 145.651779175
endloop
endfacet
facet normal -0.00088691682322 -0.999999642372 1.32787121743e-07
outer loop
vertex -0.511216878891 -4.35069513321 142.060791016
vertex -0.444550216198 -4.35075378418 145.651779175
vertex -0.511216878891 -4.35069465637 145.651779175
endloop
endfacet
facet normal -0.000879764615092 -0.999999642372 7.59814346857e-12
outer loop
vertex -0.511216878891 -4.35069513321 142.060791016
vertex -0.444550246 -4.35075378418 142.060791016
vertex -0.444550216198 -4.35075378418 145.651779175
endloop
endfacet
facet normal -0.00162363133859 -0.999998688698 2.69496768651e-11
outer loop
vertex -0.577883481979 -4.35058641434 142.060791016
vertex -0.511216878891 -4.35069465637 145.651779175
vertex -0.577883422375 -4.35058641434 145.651779175
endloop
endfacet
facet normal -0.00163078249898 -0.999998688698 1.32786993845e-07
outer loop
vertex -0.577883481979 -4.35058641434 142.060791016
vertex -0.511216878891 -4.35069513321 142.060791016
vertex -0.511216878891 -4.35069465637 145.651779175
endloop
endfacet
facet normal -0.999998033047 0.00199557095766 1.65994720192e-08
outer loop
vertex -0.577783703804 -4.30058670044 142.060791016
vertex -0.577883481979 -4.35058641434 142.060791016
vertex -0.577883422375 -4.35058641434 145.651779175
endloop
endfacet
facet normal -0.999998033047 0.00199557095766 1.65983635725e-08
outer loop
vertex -0.577783703804 -4.30058670044 142.060791016
vertex -0.577883422375 -4.35058641434 145.651779175
vertex -0.577783644199 -4.30058670044 145.651779175
endloop
endfacet
facet normal 0.000143130557262 1.0 0.0
outer loop
vertex -0.377894759178 -4.30076360703 145.651779175
vertex -0.444524437189 -4.30075407028 142.060791016
vertex -0.444524437189 -4.30075407028 145.651779175
endloop
endfacet
facet normal 0.000143130557262 1.0 -0.0
outer loop
vertex -0.377894759178 -4.30076360703 142.060791016
vertex -0.444524437189 -4.30075407028 142.060791016
vertex -0.377894759178 -4.30076360703 145.651779175
endloop
endfacet
facet normal 0.000887409958523 0.999999642372 -1.52047298363e-11
outer loop
vertex -0.444524437189 -4.30075407028 145.651779175
vertex -0.5111541152 -4.30069494247 142.060791016
vertex -0.511154055595 -4.30069494247 145.651779175
endloop
endfacet
facet normal 0.000887409143616 0.999999642372 -0.0
outer loop
vertex -0.444524437189 -4.30075407028 142.060791016
vertex -0.5111541152 -4.30069494247 142.060791016
vertex -0.444524437189 -4.30075407028 145.651779175
endloop
endfacet
facet normal 0.0016245318111 0.999998688698 -2.66082642031e-11
outer loop
vertex -0.511154055595 -4.30069494247 145.651779175
vertex -0.577783703804 -4.30058670044 142.060791016
vertex -0.577783644199 -4.30058670044 145.651779175
endloop
endfacet
facet normal 0.0016245318111 0.999998688698 -2.69646249773e-11
outer loop
vertex -0.5111541152 -4.30069494247 142.060791016
vertex -0.577783703804 -4.30058670044 142.060791016
vertex -0.511154055595 -4.30069494247 145.651779175
endloop
endfacet
facet normal 1.0 0.000223516573897 0.0
outer loop
vertex -0.377883583307 -4.35076379776 142.060791016
vertex -0.377894759178 -4.30076360703 142.060791016
vertex -0.377894759178 -4.30076360703 145.651779175
endloop
endfacet
facet normal 1.0 0.000224112605792 -8.29919777345e-09
outer loop
vertex -0.377883583307 -4.35076379776 142.060791016
vertex -0.377894759178 -4.30076360703 145.651779175
vertex -0.377883553505 -4.35076379776 145.651779175
endloop
endfacet
facet normal 0.0 -0.0 -1.0
outer loop
vertex -0.577783703804 -4.30058670044 142.060791016
vertex -0.5111541152 -4.30069494247 142.060791016
vertex -0.577883481979 -4.35058641434 142.060791016
endloop
endfacet
facet normal 0.0 0.0 -1.0
outer loop
vertex -0.5111541152 -4.30069494247 142.060791016
vertex -0.511216878891 -4.35069513321 142.060791016
vertex -0.577883481979 -4.35058641434 142.060791016
endloop
endfacet
facet normal -0.0 0.0 -1.0
outer loop
vertex -0.444524437189 -4.30075407028 142.060791016
vertex -0.444550246 -4.35075378418 142.060791016
vertex -0.5111541152 -4.30069494247 142.060791016
endloop
endfacet
facet normal 0.0 -0.0 -1.0
outer loop
vertex -0.5111541152 -4.30069494247 142.060791016
vertex -0.444550246 -4.35075378418 142.060791016
vertex -0.511216878891 -4.35069513321 142.060791016
endloop
endfacet
facet normal -0.0 -0.0 -1.0
outer loop
vertex -0.377894759178 -4.30076360703 142.060791016
vertex -0.377883583307 -4.35076379776 142.060791016
vertex -0.444524437189 -4.30075407028 142.060791016
endloop
endfacet
facet normal 0.0 -0.0 -1.0
outer loop
vertex -0.444524437189 -4.30075407028 142.060791016
vertex -0.377883583307 -4.35076379776 142.060791016
vertex -0.444550246 -4.35075378418 142.060791016
endloop
endfacet
facet normal 0.0 0.0 1.0
outer loop
vertex -0.511154055595 -4.30069494247 145.651779175
vertex -0.577783644199 -4.30058670044 145.651779175
vertex -0.577883422375 -4.35058641434 145.651779175
endloop
endfacet
facet normal 0.0 -0.0 1.0
outer loop
vertex -0.511216878891 -4.35069465637 145.651779175
vertex -0.511154055595 -4.30069494247 145.651779175
vertex -0.577883422375 -4.35058641434 145.651779175
endloop
endfacet
facet normal 0.0 -0.0 1.0
outer loop
vertex -0.444550216198 -4.35075378418 145.651779175
vertex -0.444524437189 -4.30075407028 145.651779175
vertex -0.511154055595 -4.30069494247 145.651779175
endloop
endfacet
facet normal 0.0 0.0 1.0
outer loop
vertex -0.444550216198 -4.35075378418 145.651779175
vertex -0.511154055595 -4.30069494247 145.651779175
vertex -0.511216878891 -4.35069465637 145.651779175
endloop
endfacet
facet normal 0.0 0.0 1.0
outer loop
vertex -0.377883553505 -4.35076379776 145.651779175
vertex -0.377894759178 -4.30076360703 145.651779175
vertex -0.444524437189 -4.30075407028 145.651779175
endloop
endfacet
facet normal 0.0 0.0 1.0
outer loop
vertex -0.377883553505 -4.35076379776 145.651779175
vertex -0.444524437189 -4.30075407028 145.651779175
vertex -0.444550216198 -4.35075378418 145.651779175
endloop
endfacet
