solid 
facet normal 0.000150203719386 -1.0 0.0
outer loop
vertex 0.444545328617 -4.35075330734 -223.224914551
vertex 0.377878665924 -4.35076332092 -223.224914551
vertex 0.377878665924 -4.35076332092 -226.81590271
endloop
endfacet
facet normal 0.000150203719386 -1.0 0.0
outer loop
vertex 0.444545328617 -4.35075330734 -223.224914551
vertex 0.377878665924 -4.35076332092 -226.81590271
vertex 0.444545328617 -4.35075330734 -226.81590271
endloop
endfacet
facet normal 0.00088691682322 -0.999999642372 0.0
outer loop
vertex 0.51121199131 -4.35069417953 -223.224914551
vertex 0.444545328617 -4.35075330734 -226.81590271
vertex 0.51121199131 -4.35069417953 -226.81590271
endloop
endfacet
facet normal 0.00088691682322 -0.999999642372 0.0
outer loop
vertex 0.51121199131 -4.35069417953 -223.224914551
vertex 0.444545328617 -4.35075330734 -223.224914551
vertex 0.444545328617 -4.35075330734 -226.81590271
endloop
endfacet
facet normal 0.001623631455 -0.999998688698 0.0
outer loop
vertex 0.577878534794 -4.3505859375 -223.224914551
vertex 0.51121199131 -4.35069417953 -226.81590271
vertex 0.577878534794 -4.3505859375 -226.81590271
endloop
endfacet
facet normal 0.001623631455 -0.999998688698 0.0
outer loop
vertex 0.577878534794 -4.3505859375 -223.224914551
vertex 0.51121199131 -4.35069417953 -223.224914551
vertex 0.51121199131 -4.35069417953 -226.81590271
endloop
endfacet
facet normal 0.999998033047 0.00199557095766 0.0
outer loop
vertex 0.577778756618 -4.3005862236 -223.224914551
vertex 0.577878534794 -4.3505859375 -223.224914551
vertex 0.577878534794 -4.3505859375 -226.81590271
endloop
endfacet
facet normal 0.999998033047 0.00199557095766 0.0
outer loop
vertex 0.577778756618 -4.3005862236 -223.224914551
vertex 0.577878534794 -4.3505859375 -226.81590271
vertex 0.577778756618 -4.3005862236 -226.81590271
endloop
endfacet
facet normal -0.000143130557262 1.0 0.0
outer loop
vertex 0.377889871597 -4.30076313019 -226.81590271
vertex 0.444519549608 -4.30075359344 -223.224914551
vertex 0.444519549608 -4.30075359344 -226.81590271
endloop
endfacet
facet normal -0.000143130557262 1.0 0.0
outer loop
vertex 0.377889871597 -4.30076313019 -223.224914551
vertex 0.444519549608 -4.30075359344 -223.224914551
vertex 0.377889871597 -4.30076313019 -226.81590271
endloop
endfacet
facet normal -0.000887409958523 0.999999642372 0.0
outer loop
vertex 0.444519549608 -4.30075359344 -226.81590271
vertex 0.511149168015 -4.30069446564 -223.224914551
vertex 0.511149168015 -4.30069446564 -226.81590271
endloop
endfacet
facet normal -0.000887409958523 0.999999642372 0.0
outer loop
vertex 0.444519549608 -4.30075359344 -223.224914551
vertex 0.511149168015 -4.30069446564 -223.224914551
vertex 0.444519549608 -4.30075359344 -226.81590271
endloop
endfacet
facet normal -0.0016245318111 0.999998688698 0.0
outer loop
vertex 0.511149168015 -4.30069446564 -226.81590271
vertex 0.577778756618 -4.3005862236 -223.224914551
vertex 0.577778756618 -4.3005862236 -226.81590271
endloop
endfacet
facet normal -0.0016245318111 0.999998688698 0.0
outer loop
vertex 0.511149168015 -4.30069446564 -223.224914551
vertex 0.577778756618 -4.3005862236 -223.224914551
vertex 0.511149168015 -4.30069446564 -226.81590271
endloop
endfacet
facet normal -1.0 0.000224112605792 0.0
outer loop
vertex 0.377878665924 -4.35076332092 -223.224914551
vertex 0.377889871597 -4.30076313019 -223.224914551
vertex 0.377889871597 -4.30076313019 -226.81590271
endloop
endfacet
facet normal -1.0 0.000224112605792 0.0
outer loop
vertex 0.377878665924 -4.35076332092 -223.224914551
vertex 0.377889871597 -4.30076313019 -226.81590271
vertex 0.377878665924 -4.35076332092 -226.81590271
endloop
endfacet
facet normal 0.0 0.0 1.0
outer loop
vertex 0.577778756618 -4.3005862236 -223.224914551
vertex 0.511149168015 -4.30069446564 -223.224914551
vertex 0.577878534794 -4.3505859375 -223.224914551
endloop
endfacet
facet normal 0.0 0.0 1.0
outer loop
vertex 0.511149168015 -4.30069446564 -223.224914551
vertex 0.51121199131 -4.35069417953 -223.224914551
vertex 0.577878534794 -4.3505859375 -223.224914551
endloop
endfacet
facet normal -0.0 0.0 1.0
outer loop
vertex 0.444519549608 -4.30075359344 -223.224914551
vertex 0.444545328617 -4.35075330734 -223.224914551
vertex 0.511149168015 -4.30069446564 -223.224914551
endloop
endfacet
facet normal 0.0 0.0 1.0
outer loop
vertex 0.511149168015 -4.30069446564 -223.224914551
vertex 0.444545328617 -4.35075330734 -223.224914551
vertex 0.51121199131 -4.35069417953 -223.224914551
endloop
endfacet
facet normal -0.0 0.0 1.0
outer loop
vertex 0.377889871597 -4.30076313019 -223.224914551
vertex 0.377878665924 -4.35076332092 -223.224914551
vertex 0.444519549608 -4.30075359344 -223.224914551
endloop
endfacet
facet normal 0.0 0.0 1.0
outer loop
vertex 0.444519549608 -4.30075359344 -223.224914551
vertex 0.377878665924 -4.35076332092 -223.224914551
vertex 0.444545328617 -4.35075330734 -223.224914551
endloop
endfacet
facet normal 0.0 0.0 -1.0
outer loop
vertex 0.511149168015 -4.30069446564 -226.81590271
vertex 0.577778756618 -4.3005862236 -226.81590271
vertex 0.577878534794 -4.3505859375 -226.81590271
endloop
endfacet
facet normal 0.0 0.0 -1.0
outer loop
vertex 0.51121199131 -4.35069417953 -226.81590271
vertex 0.511149168015 -4.30069446564 -226.81590271
vertex 0.577878534794 -4.3505859375 -226.81590271
endloop
endfacet
facet normal 0.0 0.0 -1.0
outer loop
vertex 0.444545328617 -4.35075330734 -226.81590271
vertex 0.444519549608 -4.30075359344 -226.81590271
vertex 0.511149168015 -4.30069446564 -226.81590271
endloop
endfacet
facet normal 0.0 0.0 -1.0
outer loop
vertex 0.444545328617 -4.35075330734 -226.81590271
vertex 0.511149168015 -4.30069446564 -226.81590271
vertex 0.51121199131 -4.35069417953 -226.81590271
endloop
endfacet
facet normal 0.0 0.0 -1.0
outer loop
vertex 0.377878665924 -4.35076332092 -226.81590271
vertex 0.377889871597 -4.30076313019 -226.81590271
vertex 0.444519549608 -4.30075359344 -226.81590271
endloop
endfacet
facet normal 0.0 0.0 -1.0
outer loop
vertex 0.377878665924 -4.35076332092 -226.81590271
vertex 0.444519549608 -4.30075359344 -226.81590271
vertex 0.444545328617 -4.35075330734 -226.81590271
endloop
endfacet
