solid 
facet normal -0.206316322088 -0.97848534584 -6.49174509704e-08
outer loop
vertex -19.0233383179 -2.4049911499 -62.9141235352
vertex -18.9581050873 -2.41874575615 -62.9141235352
vertex -18.9581050873 -2.41874599457 -59.3231239319
endloop
endfacet
facet normal -0.206319749355 -0.978484630585 0.0
outer loop
vertex -19.0233383179 -2.4049911499 -62.9141235352
vertex -18.9581050873 -2.41874599457 -59.3231239319
vertex -19.0233383179 -2.4049911499 -59.3231239319
endloop
endfacet
facet normal -0.20704600215 -0.978331208229 0.0
outer loop
vertex -19.0885601044 -2.39118814468 -62.9141235352
vertex -19.0233383179 -2.4049911499 -59.3231239319
vertex -19.0885601044 -2.39118814468 -59.3231239319
endloop
endfacet
facet normal -0.20704600215 -0.978331208229 0.0
outer loop
vertex -19.0885601044 -2.39118814468 -62.9141235352
vertex -19.0233383179 -2.4049911499 -62.9141235352
vertex -19.0233383179 -2.4049911499 -59.3231239319
endloop
endfacet
facet normal -0.207766368985 -0.978178501129 -6.49445723866e-08
outer loop
vertex -19.1537723541 -2.37733674049 -62.9141235352
vertex -19.0885601044 -2.39118814468 -59.3231239319
vertex -19.1537723541 -2.37733697891 -59.3231239319
endloop
endfacet
facet normal -0.207769796252 -0.978177785873 0.0
outer loop
vertex -19.1537723541 -2.37733674049 -62.9141235352
vertex -19.0885601044 -2.39118814468 -62.9141235352
vertex -19.0885601044 -2.39118814468 -59.3231239319
endloop
endfacet
facet normal -0.978101074696 0.208130568266 0.0
outer loop
vertex -19.1537723541 -2.37733674049 -62.9141235352
vertex -19.14336586 -2.32843184471 -59.3231239319
vertex -19.14336586 -2.32843184471 -62.9141235352
endloop
endfacet
facet normal -0.97810125351 0.208129584789 1.38184246268e-08
outer loop
vertex -19.1537723541 -2.37733697891 -59.3231239319
vertex -19.14336586 -2.32843184471 -59.3231239319
vertex -19.1537723541 -2.37733674049 -62.9141235352
endloop
endfacet
facet normal 0.206319928169 0.978484630585 6.49648939088e-08
outer loop
vertex -18.947807312 -2.36981797218 -59.3231239319
vertex -18.947807312 -2.36981773376 -62.9141235352
vertex -19.013004303 -2.35607075691 -59.3231239319
endloop
endfacet
facet normal 0.207046598196 0.97833108902 0.0
outer loop
vertex -19.013004303 -2.35607075691 -59.3231239319
vertex -19.013004303 -2.35607075691 -62.9141235352
vertex -19.0781898499 -2.34227538109 -59.3231239319
endloop
endfacet
facet normal 0.206316500902 0.978485286236 0.0
outer loop
vertex -18.947807312 -2.36981773376 -62.9141235352
vertex -19.013004303 -2.35607075691 -62.9141235352
vertex -19.013004303 -2.35607075691 -59.3231239319
endloop
endfacet
facet normal 0.207046598196 0.97833108902 0.0
outer loop
vertex -19.013004303 -2.35607075691 -62.9141235352
vertex -19.0781898499 -2.34227538109 -62.9141235352
vertex -19.0781898499 -2.34227538109 -59.3231239319
endloop
endfacet
facet normal 0.207767337561 0.978178262711 0.0
outer loop
vertex -19.0781898499 -2.34227538109 -59.3231239319
vertex -19.14336586 -2.32843184471 -62.9141235352
vertex -19.14336586 -2.32843184471 -59.3231239319
endloop
endfacet
facet normal 0.207767337561 0.978178262711 -0.0
outer loop
vertex -19.0781898499 -2.34227538109 -62.9141235352
vertex -19.14336586 -2.32843184471 -62.9141235352
vertex -19.0781898499 -2.34227538109 -59.3231239319
endloop
endfacet
facet normal 0.978561341763 -0.205955684185 -1.36740920809e-08
outer loop
vertex -18.947807312 -2.36981773376 -62.9141235352
vertex -18.947807312 -2.36981797218 -59.3231239319
vertex -18.9581050873 -2.41874575615 -62.9141235352
endloop
endfacet
facet normal 0.978561341763 -0.205955684185 -1.3615840011e-08
outer loop
vertex -18.947807312 -2.36981797218 -59.3231239319
vertex -18.9581050873 -2.41874599457 -59.3231239319
vertex -18.9581050873 -2.41874575615 -62.9141235352
endloop
endfacet
facet normal 0.0 -0.0 1.0
outer loop
vertex -19.0885601044 -2.39118814468 -59.3231239319
vertex -19.0781898499 -2.34227538109 -59.3231239319
vertex -19.14336586 -2.32843184471 -59.3231239319
endloop
endfacet
facet normal 0.0 0.0 1.0
outer loop
vertex -19.0885601044 -2.39118814468 -59.3231239319
vertex -19.14336586 -2.32843184471 -59.3231239319
vertex -19.1537723541 -2.37733697891 -59.3231239319
endloop
endfacet
facet normal 0.0 -0.0 1.0
outer loop
vertex -19.0233383179 -2.4049911499 -59.3231239319
vertex -19.013004303 -2.35607075691 -59.3231239319
vertex -19.0781898499 -2.34227538109 -59.3231239319
endloop
endfacet
facet normal 0.0 0.0 1.0
outer loop
vertex -19.0233383179 -2.4049911499 -59.3231239319
vertex -19.0781898499 -2.34227538109 -59.3231239319
vertex -19.0885601044 -2.39118814468 -59.3231239319
endloop
endfacet
facet normal 0.0 -0.0 1.0
outer loop
vertex -18.9581050873 -2.41874599457 -59.3231239319
vertex -18.947807312 -2.36981797218 -59.3231239319
vertex -19.013004303 -2.35607075691 -59.3231239319
endloop
endfacet
facet normal 0.0 0.0 1.0
outer loop
vertex -18.9581050873 -2.41874599457 -59.3231239319
vertex -19.013004303 -2.35607075691 -59.3231239319
vertex -19.0233383179 -2.4049911499 -59.3231239319
endloop
endfacet
facet normal 0.0 -0.0 -1.0
outer loop
vertex -19.14336586 -2.32843184471 -62.9141235352
vertex -19.0781898499 -2.34227538109 -62.9141235352
vertex -19.1537723541 -2.37733674049 -62.9141235352
endloop
endfacet
facet normal 0.0 0.0 -1.0
outer loop
vertex -19.0781898499 -2.34227538109 -62.9141235352
vertex -19.0885601044 -2.39118814468 -62.9141235352
vertex -19.1537723541 -2.37733674049 -62.9141235352
endloop
endfacet
facet normal -0.0 0.0 -1.0
outer loop
vertex -19.013004303 -2.35607075691 -62.9141235352
vertex -19.0233383179 -2.4049911499 -62.9141235352
vertex -19.0781898499 -2.34227538109 -62.9141235352
endloop
endfacet
facet normal 0.0 -0.0 -1.0
outer loop
vertex -19.0781898499 -2.34227538109 -62.9141235352
vertex -19.0233383179 -2.4049911499 -62.9141235352
vertex -19.0885601044 -2.39118814468 -62.9141235352
endloop
endfacet
facet normal 0.0 -0.0 -1.0
outer loop
vertex -19.013004303 -2.35607075691 -62.9141235352
vertex -18.947807312 -2.36981773376 -62.9141235352
vertex -19.0233383179 -2.4049911499 -62.9141235352
endloop
endfacet
facet normal 0.0 0.0 -1.0
outer loop
vertex -18.947807312 -2.36981773376 -62.9141235352
vertex -18.9581050873 -2.41874575615 -62.9141235352
vertex -19.0233383179 -2.4049911499 -62.9141235352
endloop
endfacet
