solid 
facet normal -0.206322088838 0.978484094143 -6.49650644391e-08
outer loop
vertex -18.9581127167 2.41874456406 -188.560882568
vertex -18.9581127167 2.41874432564 -192.151870728
vertex -19.0233440399 2.40498971939 -192.151870728
endloop
endfacet
facet normal -0.207046017051 0.978331208229 0.0
outer loop
vertex -19.0233440399 2.40498971939 -188.560882568
vertex -19.0233440399 2.40498971939 -192.151870728
vertex -19.0885658264 2.39118671417 -192.151870728
endloop
endfacet
facet normal -0.206325516105 0.978483378887 0.0
outer loop
vertex -19.0233440399 2.40498971939 -188.560882568
vertex -18.9581127167 2.41874456406 -188.560882568
vertex -19.0233440399 2.40498971939 -192.151870728
endloop
endfacet
facet normal -0.207046017051 0.978331208229 0.0
outer loop
vertex -19.0885658264 2.39118671417 -188.560882568
vertex -19.0233440399 2.40498971939 -188.560882568
vertex -19.0885658264 2.39118671417 -192.151870728
endloop
endfacet
facet normal -0.207769796252 0.978177785873 -6.4944728706e-08
outer loop
vertex -19.1537780762 2.3773355484 -188.560882568
vertex -19.0885658264 2.39118671417 -192.151870728
vertex -19.1537780762 2.37733530998 -192.151870728
endloop
endfacet
facet normal -0.207766368985 0.978178501129 0.0
outer loop
vertex -19.1537780762 2.3773355484 -188.560882568
vertex -19.0885658264 2.39118671417 -188.560882568
vertex -19.0885658264 2.39118671417 -192.151870728
endloop
endfacet
facet normal -0.97810125351 -0.208129569888 1.38184681475e-08
outer loop
vertex -19.1537780762 2.3773355484 -188.560882568
vertex -19.1537780762 2.37733530998 -192.151870728
vertex -19.143371582 2.32843017578 -192.151870728
endloop
endfacet
facet normal -0.978101193905 -0.208129569888 1.38184681475e-08
outer loop
vertex -19.143371582 2.3284304142 -188.560882568
vertex -19.1537780762 2.3773355484 -188.560882568
vertex -19.143371582 2.32843017578 -192.151870728
endloop
endfacet
facet normal 0.206316500902 -0.97848534584 1.74549896315e-07
outer loop
vertex -18.9478130341 2.36981630325 -192.151870728
vertex -18.9478149414 2.36981654167 -188.560882568
vertex -19.013010025 2.3560693264 -192.151870728
endloop
endfacet
facet normal 0.207046583295 -0.97833108902 0.0
outer loop
vertex -19.013010025 2.3560693264 -192.151870728
vertex -19.013010025 2.3560693264 -188.560882568
vertex -19.0781955719 2.34227395058 -192.151870728
endloop
endfacet
facet normal 0.20632570982 -0.978483378887 0.0
outer loop
vertex -18.9478149414 2.36981654167 -188.560882568
vertex -19.013010025 2.3560693264 -188.560882568
vertex -19.013010025 2.3560693264 -192.151870728
endloop
endfacet
facet normal 0.207770764828 -0.978177547455 0.0
outer loop
vertex -19.0781955719 2.34227395058 -192.151870728
vertex -19.0781955719 2.34227395058 -188.560882568
vertex -19.143371582 2.32843017578 -192.151870728
endloop
endfacet
facet normal 0.207046583295 -0.97833108902 0.0
outer loop
vertex -19.013010025 2.3560693264 -188.560882568
vertex -19.0781955719 2.34227395058 -188.560882568
vertex -19.0781955719 2.34227395058 -192.151870728
endloop
endfacet
facet normal 0.207767352462 -0.978178262711 6.49542641895e-08
outer loop
vertex -19.0781955719 2.34227395058 -188.560882568
vertex -19.143371582 2.3284304142 -188.560882568
vertex -19.143371582 2.32843017578 -192.151870728
endloop
endfacet
facet normal 0.978553593159 0.205992206931 5.06080880314e-07
outer loop
vertex -18.9478149414 2.36981654167 -188.560882568
vertex -18.9478130341 2.36981630325 -192.151870728
vertex -18.9581127167 2.41874432564 -192.151870728
endloop
endfacet
facet normal 0.978561341763 0.205955684185 -1.36741364898e-08
outer loop
vertex -18.9581127167 2.41874456406 -188.560882568
vertex -18.9478149414 2.36981654167 -188.560882568
vertex -18.9581127167 2.41874432564 -192.151870728
endloop
endfacet
facet normal 0.0 0.0 1.0
outer loop
vertex -19.0781955719 2.34227395058 -188.560882568
vertex -19.0885658264 2.39118671417 -188.560882568
vertex -19.143371582 2.3284304142 -188.560882568
endloop
endfacet
facet normal 0.0 -0.0 1.0
outer loop
vertex -19.143371582 2.3284304142 -188.560882568
vertex -19.0885658264 2.39118671417 -188.560882568
vertex -19.1537780762 2.3773355484 -188.560882568
endloop
endfacet
facet normal 0.0 0.0 1.0
outer loop
vertex -19.013010025 2.3560693264 -188.560882568
vertex -19.0233440399 2.40498971939 -188.560882568
vertex -19.0781955719 2.34227395058 -188.560882568
endloop
endfacet
facet normal 0.0 -0.0 1.0
outer loop
vertex -19.0781955719 2.34227395058 -188.560882568
vertex -19.0233440399 2.40498971939 -188.560882568
vertex -19.0885658264 2.39118671417 -188.560882568
endloop
endfacet
facet normal 0.0 0.0 1.0
outer loop
vertex -18.9478149414 2.36981654167 -188.560882568
vertex -18.9581127167 2.41874456406 -188.560882568
vertex -19.013010025 2.3560693264 -188.560882568
endloop
endfacet
facet normal 0.0 -0.0 1.0
outer loop
vertex -19.013010025 2.3560693264 -188.560882568
vertex -18.9581127167 2.41874456406 -188.560882568
vertex -19.0233440399 2.40498971939 -188.560882568
endloop
endfacet
facet normal -0.0 0.0 -1.0
outer loop
vertex -19.0781955719 2.34227395058 -192.151870728
vertex -19.143371582 2.32843017578 -192.151870728
vertex -19.1537780762 2.37733530998 -192.151870728
endloop
endfacet
facet normal 0.0 -0.0 -1.0
outer loop
vertex -19.0885658264 2.39118671417 -192.151870728
vertex -19.0781955719 2.34227395058 -192.151870728
vertex -19.1537780762 2.37733530998 -192.151870728
endloop
endfacet
facet normal 0.0 -0.0 -1.0
outer loop
vertex -19.0233440399 2.40498971939 -192.151870728
vertex -19.013010025 2.3560693264 -192.151870728
vertex -19.0781955719 2.34227395058 -192.151870728
endloop
endfacet
facet normal 0.0 0.0 -1.0
outer loop
vertex -19.0233440399 2.40498971939 -192.151870728
vertex -19.0781955719 2.34227395058 -192.151870728
vertex -19.0885658264 2.39118671417 -192.151870728
endloop
endfacet
facet normal 0.0 -0.0 -1.0
outer loop
vertex -18.9581127167 2.41874432564 -192.151870728
vertex -18.9478130341 2.36981630325 -192.151870728
vertex -19.013010025 2.3560693264 -192.151870728
endloop
endfacet
facet normal 0.0 0.0 -1.0
outer loop
vertex -18.9581127167 2.41874432564 -192.151870728
vertex -19.013010025 2.3560693264 -192.151870728
vertex -19.0233440399 2.40498971939 -192.151870728
endloop
endfacet
