solid 
facet normal 0.000150203719386 -1.0 0.0
outer loop
vertex 0.444545328617 -4.35075330734 120.39478302
vertex 0.377878665924 -4.35076332092 120.39478302
vertex 0.377878665924 -4.35076332092 116.803787231
endloop
endfacet
facet normal 0.000150203719386 -1.0 0.0
outer loop
vertex 0.444545328617 -4.35075330734 120.39478302
vertex 0.377878665924 -4.35076332092 116.803787231
vertex 0.444545328617 -4.35075330734 116.803787231
endloop
endfacet
facet normal 0.00088691682322 -0.999999642372 0.0
outer loop
vertex 0.51121199131 -4.35069417953 120.39478302
vertex 0.444545328617 -4.35075330734 116.803787231
vertex 0.51121199131 -4.35069417953 116.803787231
endloop
endfacet
facet normal 0.00088691682322 -0.999999642372 0.0
outer loop
vertex 0.51121199131 -4.35069417953 120.39478302
vertex 0.444545328617 -4.35075330734 120.39478302
vertex 0.444545328617 -4.35075330734 116.803787231
endloop
endfacet
facet normal 0.001623631455 -0.999998688698 0.0
outer loop
vertex 0.577878534794 -4.3505859375 120.39478302
vertex 0.51121199131 -4.35069417953 116.803787231
vertex 0.577878534794 -4.3505859375 116.803787231
endloop
endfacet
facet normal 0.001623631455 -0.999998688698 0.0
outer loop
vertex 0.577878534794 -4.3505859375 120.39478302
vertex 0.51121199131 -4.35069417953 120.39478302
vertex 0.51121199131 -4.35069417953 116.803787231
endloop
endfacet
facet normal 0.999998033047 0.00199557119049 0.0
outer loop
vertex 0.577878534794 -4.3505859375 120.39478302
vertex 0.577778756618 -4.3005862236 116.803787231
vertex 0.577778756618 -4.3005862236 120.39478302
endloop
endfacet
facet normal 0.999998033047 0.00199557119049 -0.0
outer loop
vertex 0.577878534794 -4.3505859375 116.803787231
vertex 0.577778756618 -4.3005862236 116.803787231
vertex 0.577878534794 -4.3505859375 120.39478302
endloop
endfacet
facet normal -0.000143130557262 1.0 0.0
outer loop
vertex 0.377889871597 -4.30076313019 116.803787231
vertex 0.444519549608 -4.30075359344 120.39478302
vertex 0.444519549608 -4.30075359344 116.803787231
endloop
endfacet
facet normal -0.000143130557262 1.0 0.0
outer loop
vertex 0.377889871597 -4.30076313019 120.39478302
vertex 0.444519549608 -4.30075359344 120.39478302
vertex 0.377889871597 -4.30076313019 116.803787231
endloop
endfacet
facet normal -0.000887409958523 0.999999642372 0.0
outer loop
vertex 0.444519549608 -4.30075359344 116.803787231
vertex 0.511149168015 -4.30069446564 120.39478302
vertex 0.511149168015 -4.30069446564 116.803787231
endloop
endfacet
facet normal -0.000887409958523 0.999999642372 0.0
outer loop
vertex 0.444519549608 -4.30075359344 120.39478302
vertex 0.511149168015 -4.30069446564 120.39478302
vertex 0.444519549608 -4.30075359344 116.803787231
endloop
endfacet
facet normal -0.00162453192752 0.999998688698 0.0
outer loop
vertex 0.511149168015 -4.30069446564 116.803787231
vertex 0.577778756618 -4.3005862236 120.39478302
vertex 0.577778756618 -4.3005862236 116.803787231
endloop
endfacet
facet normal -0.00162453192752 0.999998688698 0.0
outer loop
vertex 0.511149168015 -4.30069446564 120.39478302
vertex 0.577778756618 -4.3005862236 120.39478302
vertex 0.511149168015 -4.30069446564 116.803787231
endloop
endfacet
facet normal -1.0 0.000224112605792 0.0
outer loop
vertex 0.377889871597 -4.30076313019 120.39478302
vertex 0.377878665924 -4.35076332092 116.803787231
vertex 0.377878665924 -4.35076332092 120.39478302
endloop
endfacet
facet normal -1.0 0.000224112605792 0.0
outer loop
vertex 0.377889871597 -4.30076313019 116.803787231
vertex 0.377878665924 -4.35076332092 116.803787231
vertex 0.377889871597 -4.30076313019 120.39478302
endloop
endfacet
facet normal 0.0 0.0 -1.0
outer loop
vertex 0.511149168015 -4.30069446564 116.803787231
vertex 0.577778756618 -4.3005862236 116.803787231
vertex 0.577878534794 -4.3505859375 116.803787231
endloop
endfacet
facet normal 0.0 0.0 -1.0
outer loop
vertex 0.51121199131 -4.35069417953 116.803787231
vertex 0.511149168015 -4.30069446564 116.803787231
vertex 0.577878534794 -4.3505859375 116.803787231
endloop
endfacet
facet normal 0.0 0.0 -1.0
outer loop
vertex 0.444545328617 -4.35075330734 116.803787231
vertex 0.444519549608 -4.30075359344 116.803787231
vertex 0.511149168015 -4.30069446564 116.803787231
endloop
endfacet
facet normal 0.0 0.0 -1.0
outer loop
vertex 0.444545328617 -4.35075330734 116.803787231
vertex 0.511149168015 -4.30069446564 116.803787231
vertex 0.51121199131 -4.35069417953 116.803787231
endloop
endfacet
facet normal 0.0 0.0 -1.0
outer loop
vertex 0.377878665924 -4.35076332092 116.803787231
vertex 0.377889871597 -4.30076313019 116.803787231
vertex 0.444519549608 -4.30075359344 116.803787231
endloop
endfacet
facet normal 0.0 0.0 -1.0
outer loop
vertex 0.377878665924 -4.35076332092 116.803787231
vertex 0.444519549608 -4.30075359344 116.803787231
vertex 0.444545328617 -4.35075330734 116.803787231
endloop
endfacet
facet normal 0.0 0.0 1.0
outer loop
vertex 0.577778756618 -4.3005862236 120.39478302
vertex 0.511149168015 -4.30069446564 120.39478302
vertex 0.577878534794 -4.3505859375 120.39478302
endloop
endfacet
facet normal 0.0 0.0 1.0
outer loop
vertex 0.511149168015 -4.30069446564 120.39478302
vertex 0.51121199131 -4.35069417953 120.39478302
vertex 0.577878534794 -4.3505859375 120.39478302
endloop
endfacet
facet normal -0.0 0.0 1.0
outer loop
vertex 0.444519549608 -4.30075359344 120.39478302
vertex 0.444545328617 -4.35075330734 120.39478302
vertex 0.511149168015 -4.30069446564 120.39478302
endloop
endfacet
facet normal 0.0 0.0 1.0
outer loop
vertex 0.511149168015 -4.30069446564 120.39478302
vertex 0.444545328617 -4.35075330734 120.39478302
vertex 0.51121199131 -4.35069417953 120.39478302
endloop
endfacet
facet normal -0.0 0.0 1.0
outer loop
vertex 0.377889871597 -4.30076313019 120.39478302
vertex 0.377878665924 -4.35076332092 120.39478302
vertex 0.444519549608 -4.30075359344 120.39478302
endloop
endfacet
facet normal 0.0 0.0 1.0
outer loop
vertex 0.444519549608 -4.30075359344 120.39478302
vertex 0.377878665924 -4.35076332092 120.39478302
vertex 0.444545328617 -4.35075330734 120.39478302
endloop
endfacet
