solid 
facet normal 0.000143051162013 1.0 -1.18720484832e-12
outer loop
vertex 0.444566220045 4.35075473785 -421.474578857
vertex 0.377899557352 4.3507642746 -421.474578857
vertex 0.377899587154 4.3507642746 -417.883575439
endloop
endfacet
facet normal 0.000143051162013 1.0 -1.18720484832e-12
outer loop
vertex 0.444566220045 4.35075473785 -421.474578857
vertex 0.377899587154 4.3507642746 -417.883575439
vertex 0.444566249847 4.35075473785 -417.883575439
endloop
endfacet
facet normal 0.000886916881427 0.999999642372 -1.47213352619e-11
outer loop
vertex 0.511232852936 4.35069561005 -421.474578857
vertex 0.444566249847 4.35075473785 -417.883575439
vertex 0.51123291254 4.35069561005 -417.883575439
endloop
endfacet
facet normal 0.000886917230673 0.999999642372 -7.59811137618e-12
outer loop
vertex 0.511232852936 4.35069561005 -421.474578857
vertex 0.444566220045 4.35075473785 -421.474578857
vertex 0.444566249847 4.35075473785 -417.883575439
endloop
endfacet
facet normal 0.00162363122217 0.999998629093 -1.32786425411e-07
outer loop
vertex 0.577899456024 4.35058689117 -421.474578857
vertex 0.51123291254 4.35069561005 -417.883575439
vertex 0.577899456024 4.35058736801 -417.883575439
endloop
endfacet
facet normal 0.00163078249898 0.999998688698 -2.65933768062e-11
outer loop
vertex 0.577899456024 4.35058689117 -421.474578857
vertex 0.511232852936 4.35069561005 -421.474578857
vertex 0.51123291254 4.35069561005 -417.883575439
endloop
endfacet
facet normal 0.999998033047 -0.00199557095766 0.0
outer loop
vertex 0.577899456024 4.35058689117 -421.474578857
vertex 0.577799677849 4.30058717728 -417.883575439
vertex 0.577799677849 4.30058717728 -421.474578857
endloop
endfacet
facet normal 0.999998033047 -0.00199555186555 2.64982563669e-10
outer loop
vertex 0.577899456024 4.35058736801 -417.883575439
vertex 0.577799677849 4.30058717728 -417.883575439
vertex 0.577899456024 4.35058689117 -421.474578857
endloop
endfacet
facet normal -0.000150287087308 -1.0 1.1878638264e-12
outer loop
vertex 0.377910763025 4.3007645607 -417.883575439
vertex 0.444540411234 4.30075454712 -421.474578857
vertex 0.444540441036 4.30075454712 -417.883575439
endloop
endfacet
facet normal -0.000143130557262 -1.0 1.32787789653e-07
outer loop
vertex 0.377910733223 4.30076408386 -421.474578857
vertex 0.444540411234 4.30075454712 -421.474578857
vertex 0.377910763025 4.3007645607 -417.883575439
endloop
endfacet
facet normal -0.000887409551069 -0.999999642372 0.0
outer loop
vertex 0.444540441036 4.30075454712 -417.883575439
vertex 0.511170089245 4.30069541931 -421.474578857
vertex 0.511170089245 4.30069541931 -417.883575439
endloop
endfacet
facet normal -0.000887409143616 -0.999999642372 7.36475290475e-12
outer loop
vertex 0.444540411234 4.30075454712 -421.474578857
vertex 0.511170089245 4.30069541931 -421.474578857
vertex 0.444540441036 4.30075454712 -417.883575439
endloop
endfacet
facet normal -0.0016245318111 -0.999998629093 0.0
outer loop
vertex 0.511170089245 4.30069541931 -417.883575439
vertex 0.577799677849 4.30058717728 -421.474578857
vertex 0.577799677849 4.30058717728 -417.883575439
endloop
endfacet
facet normal -0.0016245318111 -0.999998629093 0.0
outer loop
vertex 0.511170089245 4.30069541931 -421.474578857
vertex 0.577799677849 4.30058717728 -421.474578857
vertex 0.511170089245 4.30069541931 -417.883575439
endloop
endfacet
facet normal -1.0 -0.000223516559345 8.29932123025e-09
outer loop
vertex 0.377910733223 4.30076408386 -421.474578857
vertex 0.377899587154 4.3507642746 -417.883575439
vertex 0.377899557352 4.3507642746 -421.474578857
endloop
endfacet
facet normal -1.0 -0.000223518683924 8.32884339275e-09
outer loop
vertex 0.377910763025 4.3007645607 -417.883575439
vertex 0.377899587154 4.3507642746 -417.883575439
vertex 0.377910733223 4.30076408386 -421.474578857
endloop
endfacet
facet normal -0.0 0.0 1.0
outer loop
vertex 0.511170089245 4.30069541931 -417.883575439
vertex 0.577799677849 4.30058717728 -417.883575439
vertex 0.577899456024 4.35058736801 -417.883575439
endloop
endfacet
facet normal 0.0 0.0 1.0
outer loop
vertex 0.51123291254 4.35069561005 -417.883575439
vertex 0.511170089245 4.30069541931 -417.883575439
vertex 0.577899456024 4.35058736801 -417.883575439
endloop
endfacet
facet normal 0.0 0.0 1.0
outer loop
vertex 0.444566249847 4.35075473785 -417.883575439
vertex 0.444540441036 4.30075454712 -417.883575439
vertex 0.511170089245 4.30069541931 -417.883575439
endloop
endfacet
facet normal 0.0 0.0 1.0
outer loop
vertex 0.444566249847 4.35075473785 -417.883575439
vertex 0.511170089245 4.30069541931 -417.883575439
vertex 0.51123291254 4.35069561005 -417.883575439
endloop
endfacet
facet normal 0.0 0.0 1.0
outer loop
vertex 0.377899587154 4.3507642746 -417.883575439
vertex 0.377910763025 4.3007645607 -417.883575439
vertex 0.444540441036 4.30075454712 -417.883575439
endloop
endfacet
facet normal 0.0 0.0 1.0
outer loop
vertex 0.377899587154 4.3507642746 -417.883575439
vertex 0.444540441036 4.30075454712 -417.883575439
vertex 0.444566249847 4.35075473785 -417.883575439
endloop
endfacet
facet normal 0.0 0.0 -1.0
outer loop
vertex 0.577799677849 4.30058717728 -421.474578857
vertex 0.511170089245 4.30069541931 -421.474578857
vertex 0.577899456024 4.35058689117 -421.474578857
endloop
endfacet
facet normal 0.0 0.0 -1.0
outer loop
vertex 0.511170089245 4.30069541931 -421.474578857
vertex 0.511232852936 4.35069561005 -421.474578857
vertex 0.577899456024 4.35058689117 -421.474578857
endloop
endfacet
facet normal 0.0 0.0 -1.0
outer loop
vertex 0.444540411234 4.30075454712 -421.474578857
vertex 0.444566220045 4.35075473785 -421.474578857
vertex 0.511170089245 4.30069541931 -421.474578857
endloop
endfacet
facet normal 0.0 0.0 -1.0
outer loop
vertex 0.511170089245 4.30069541931 -421.474578857
vertex 0.444566220045 4.35075473785 -421.474578857
vertex 0.511232852936 4.35069561005 -421.474578857
endloop
endfacet
facet normal 0.0 0.0 -1.0
outer loop
vertex 0.377910733223 4.30076408386 -421.474578857
vertex 0.377899557352 4.3507642746 -421.474578857
vertex 0.444540411234 4.30075454712 -421.474578857
endloop
endfacet
facet normal 0.0 0.0 -1.0
outer loop
vertex 0.444540411234 4.30075454712 -421.474578857
vertex 0.377899557352 4.3507642746 -421.474578857
vertex 0.444566220045 4.35075473785 -421.474578857
endloop
endfacet
