solid 
facet normal -0.0172592047602 -0.999851047993 -1.33398955882e-07
outer loop
vertex -3.67149353027 -4.24854421616 -106.810005188
vertex -0.606431245804 -4.30145263672 -106.810005188
vertex -0.606431305408 -4.30145311356 -103.239006042
endloop
endfacet
facet normal -0.0172593612224 -0.999851047993 0.0
outer loop
vertex -3.67149353027 -4.24854421616 -106.810005188
vertex -0.606431305408 -4.30145311356 -103.239006042
vertex -3.67149353027 -4.24854421616 -103.239006042
endloop
endfacet
facet normal -0.0512571521103 -0.998685479164 0.0
outer loop
vertex -6.7329826355 -4.0914144516 -106.810005188
vertex -3.67149353027 -4.24854421616 -103.239006042
vertex -6.7329826355 -4.0914144516 -103.239006042
endloop
endfacet
facet normal -0.0512571521103 -0.998685479164 0.0
outer loop
vertex -6.7329826355 -4.0914144516 -106.810005188
vertex -3.67149353027 -4.24854421616 -106.810005188
vertex -3.67149353027 -4.24854421616 -103.239006042
endloop
endfacet
facet normal -0.0851956605911 -0.996364235878 -6.65224817453e-08
outer loop
vertex -9.78735637665 -3.83024525642 -106.810005188
vertex -6.7329826355 -4.0914144516 -103.239006042
vertex -9.78735637665 -3.83024549484 -103.239006042
endloop
endfacet
facet normal -0.0851957350969 -0.996364235878 0.0
outer loop
vertex -9.78735637665 -3.83024525642 -106.810005188
vertex -6.7329826355 -4.0914144516 -106.810005188
vertex -6.7329826355 -4.0914144516 -103.239006042
endloop
endfacet
facet normal -0.994770169258 0.102138735354 6.81931577873e-09
outer loop
vertex -9.78735637665 -3.83024525642 -106.810005188
vertex -9.78735637665 -3.83024549484 -103.239006042
vertex -9.78224945068 -3.78050684929 -106.810005188
endloop
endfacet
facet normal -0.994770228863 0.102138251066 0.0
outer loop
vertex -9.78735637665 -3.83024549484 -103.239006042
vertex -9.78224945068 -3.78050684929 -103.239006042
vertex -9.78224945068 -3.78050684929 -106.810005188
endloop
endfacet
facet normal 0.0172592941672 0.999851047993 0.0
outer loop
vertex -0.606418788433 -4.25145292282 -103.239006042
vertex -3.66978025436 -4.19857358932 -106.810005188
vertex -3.66978025436 -4.19857358932 -103.239006042
endloop
endfacet
facet normal 0.051257122308 0.998685419559 0.0
outer loop
vertex -3.66978025436 -4.19857358932 -103.239006042
vertex -3.66978025436 -4.19857358932 -106.810005188
vertex -6.72957086563 -4.04153108597 -103.239006042
endloop
endfacet
facet normal 0.0172592941672 0.999851047993 2.88080170829e-10
outer loop
vertex -0.606418728828 -4.25145292282 -106.810005188
vertex -3.66978025436 -4.19857358932 -106.810005188
vertex -0.606418788433 -4.25145292282 -103.239006042
endloop
endfacet
facet normal 0.051257122308 0.998685419559 0.0
outer loop
vertex -3.66978025436 -4.19857358932 -106.810005188
vertex -6.72957086563 -4.04153108597 -106.810005188
vertex -6.72957086563 -4.04153108597 -103.239006042
endloop
endfacet
facet normal 0.0851957425475 0.996364235878 0.0
outer loop
vertex -6.72957086563 -4.04153108597 -103.239006042
vertex -9.78224945068 -3.78050684929 -106.810005188
vertex -9.78224945068 -3.78050684929 -103.239006042
endloop
endfacet
facet normal 0.0851957425475 0.996364235878 -0.0
outer loop
vertex -6.72957086563 -4.04153108597 -106.810005188
vertex -9.78224945068 -3.78050684929 -106.810005188
vertex -6.72957086563 -4.04153108597 -103.239006042
endloop
endfacet
facet normal 1.0 -0.000250340934144 1.66913078914e-08
outer loop
vertex -0.606418728828 -4.25145292282 -106.810005188
vertex -0.606418788433 -4.25145292282 -103.239006042
vertex -0.606431245804 -4.30145263672 -106.810005188
endloop
endfacet
facet normal 0.999999940395 -0.000250338518526 1.66578768557e-08
outer loop
vertex -0.606418788433 -4.25145292282 -103.239006042
vertex -0.606431305408 -4.30145311356 -103.239006042
vertex -0.606431245804 -4.30145263672 -106.810005188
endloop
endfacet
facet normal 0.0 -0.0 1.0
outer loop
vertex -6.7329826355 -4.0914144516 -103.239006042
vertex -6.72957086563 -4.04153108597 -103.239006042
vertex -9.78224945068 -3.78050684929 -103.239006042
endloop
endfacet
facet normal 0.0 0.0 1.0
outer loop
vertex -6.7329826355 -4.0914144516 -103.239006042
vertex -9.78224945068 -3.78050684929 -103.239006042
vertex -9.78735637665 -3.83024549484 -103.239006042
endloop
endfacet
facet normal 0.0 -0.0 1.0
outer loop
vertex -3.67149353027 -4.24854421616 -103.239006042
vertex -3.66978025436 -4.19857358932 -103.239006042
vertex -6.72957086563 -4.04153108597 -103.239006042
endloop
endfacet
facet normal 0.0 0.0 1.0
outer loop
vertex -3.67149353027 -4.24854421616 -103.239006042
vertex -6.72957086563 -4.04153108597 -103.239006042
vertex -6.7329826355 -4.0914144516 -103.239006042
endloop
endfacet
facet normal 0.0 -0.0 1.0
outer loop
vertex -0.606431305408 -4.30145311356 -103.239006042
vertex -0.606418788433 -4.25145292282 -103.239006042
vertex -3.66978025436 -4.19857358932 -103.239006042
endloop
endfacet
facet normal 0.0 0.0 1.0
outer loop
vertex -0.606431305408 -4.30145311356 -103.239006042
vertex -3.66978025436 -4.19857358932 -103.239006042
vertex -3.67149353027 -4.24854421616 -103.239006042
endloop
endfacet
facet normal 0.0 -0.0 -1.0
outer loop
vertex -9.78224945068 -3.78050684929 -106.810005188
vertex -6.72957086563 -4.04153108597 -106.810005188
vertex -9.78735637665 -3.83024525642 -106.810005188
endloop
endfacet
facet normal -0.0 0.0 -1.0
outer loop
vertex -6.72957086563 -4.04153108597 -106.810005188
vertex -6.7329826355 -4.0914144516 -106.810005188
vertex -9.78735637665 -3.83024525642 -106.810005188
endloop
endfacet
facet normal 0.0 -0.0 -1.0
outer loop
vertex -6.72957086563 -4.04153108597 -106.810005188
vertex -3.66978025436 -4.19857358932 -106.810005188
vertex -6.7329826355 -4.0914144516 -106.810005188
endloop
endfacet
facet normal -0.0 0.0 -1.0
outer loop
vertex -3.66978025436 -4.19857358932 -106.810005188
vertex -3.67149353027 -4.24854421616 -106.810005188
vertex -6.7329826355 -4.0914144516 -106.810005188
endloop
endfacet
facet normal 0.0 -0.0 -1.0
outer loop
vertex -3.66978025436 -4.19857358932 -106.810005188
vertex -0.606418728828 -4.25145292282 -106.810005188
vertex -3.67149353027 -4.24854421616 -106.810005188
endloop
endfacet
facet normal -0.0 0.0 -1.0
outer loop
vertex -0.606418728828 -4.25145292282 -106.810005188
vertex -0.606431245804 -4.30145263672 -106.810005188
vertex -3.67149353027 -4.24854421616 -106.810005188
endloop
endfacet
