solid 
facet normal -0.0172590501606 0.999851047993 0.0
outer loop
vertex -3.67147803307 4.24854469299 18.797000885
vertex -0.606415688992 4.30145263672 18.797000885
vertex -0.606415688992 4.30145263672 15.2260007858
endloop
endfacet
facet normal -0.0172590501606 0.999851047993 0.0
outer loop
vertex -3.67147803307 4.24854469299 18.797000885
vertex -0.606415688992 4.30145263672 15.2260007858
vertex -3.67147803307 4.24854469299 15.2260007858
endloop
endfacet
facet normal -0.0512569919229 0.998685479164 0.0
outer loop
vertex -6.73296737671 4.09141540527 18.797000885
vertex -3.67147803307 4.24854469299 15.2260007858
vertex -6.73296737671 4.09141540527 15.2260007858
endloop
endfacet
facet normal -0.0512569919229 0.998685479164 0.0
outer loop
vertex -6.73296737671 4.09141540527 18.797000885
vertex -3.67147803307 4.24854469299 18.797000885
vertex -3.67147803307 4.24854469299 15.2260007858
endloop
endfacet
facet normal -0.0851955413818 0.996364235878 0.0
outer loop
vertex -9.78734016418 3.83024692535 18.797000885
vertex -6.73296737671 4.09141540527 15.2260007858
vertex -9.78734016418 3.83024692535 15.2260007858
endloop
endfacet
facet normal -0.0851955413818 0.996364235878 0.0
outer loop
vertex -9.78734016418 3.83024692535 18.797000885
vertex -6.73296737671 4.09141540527 18.797000885
vertex -6.73296737671 4.09141540527 15.2260007858
endloop
endfacet
facet normal -0.994772136211 -0.102119363844 -0.0
outer loop
vertex -9.78734016418 3.83024692535 18.797000885
vertex -9.78734016418 3.83024692535 15.2260007858
vertex -9.78223419189 3.7805082798 18.797000885
endloop
endfacet
facet normal -0.994772195816 -0.102119863033 -6.84607037726e-09
outer loop
vertex -9.78734016418 3.83024692535 15.2260007858
vertex -9.78223419189 3.78050851822 15.2260007858
vertex -9.78223419189 3.7805082798 18.797000885
endloop
endfacet
facet normal 0.0172589831054 -0.999851047993 -2.8807489727e-10
outer loop
vertex -0.606403231621 4.25145244598 15.2260007858
vertex -0.606403172016 4.25145244598 18.797000885
vertex -3.66976475716 4.19857406616 15.2260007858
endloop
endfacet
facet normal 0.0172589831054 -0.999851047993 0.0
outer loop
vertex -0.606403172016 4.25145244598 18.797000885
vertex -3.66976475716 4.19857406616 18.797000885
vertex -3.66976475716 4.19857406616 15.2260007858
endloop
endfacet
facet normal 0.0512569770217 -0.998685538769 0.0
outer loop
vertex -3.66976475716 4.19857406616 15.2260007858
vertex -6.72955513 4.04153203964 18.797000885
vertex -6.72955513 4.04153203964 15.2260007858
endloop
endfacet
facet normal 0.0512569770217 -0.998685538769 0.0
outer loop
vertex -3.66976475716 4.19857406616 18.797000885
vertex -6.72955513 4.04153203964 18.797000885
vertex -3.66976475716 4.19857406616 15.2260007858
endloop
endfacet
facet normal 0.0851954966784 -0.996364295483 -6.53745146906e-08
outer loop
vertex -6.72955513 4.04153203964 15.2260007858
vertex -9.78223419189 3.7805082798 18.797000885
vertex -9.78223419189 3.78050851822 15.2260007858
endloop
endfacet
facet normal 0.0851955711842 -0.996364235878 0.0
outer loop
vertex -6.72955513 4.04153203964 18.797000885
vertex -9.78223419189 3.7805082798 18.797000885
vertex -6.72955513 4.04153203964 15.2260007858
endloop
endfacet
facet normal 0.999999940395 0.000250338518526 0.0
outer loop
vertex -0.606403172016 4.25145244598 18.797000885
vertex -0.606415688992 4.30145263672 15.2260007858
vertex -0.606415688992 4.30145263672 18.797000885
endloop
endfacet
facet normal 0.999999940395 0.000249146454735 -1.6691300786e-08
outer loop
vertex -0.606403231621 4.25145244598 15.2260007858
vertex -0.606415688992 4.30145263672 15.2260007858
vertex -0.606403172016 4.25145244598 18.797000885
endloop
endfacet
facet normal 0.0 0.0 -1.0
outer loop
vertex -6.72955513 4.04153203964 15.2260007858
vertex -9.78223419189 3.78050851822 15.2260007858
vertex -9.78734016418 3.83024692535 15.2260007858
endloop
endfacet
facet normal 0.0 -0.0 -1.0
outer loop
vertex -6.73296737671 4.09141540527 15.2260007858
vertex -6.72955513 4.04153203964 15.2260007858
vertex -9.78734016418 3.83024692535 15.2260007858
endloop
endfacet
facet normal 0.0 0.0 -1.0
outer loop
vertex -3.66976475716 4.19857406616 15.2260007858
vertex -6.72955513 4.04153203964 15.2260007858
vertex -6.73296737671 4.09141540527 15.2260007858
endloop
endfacet
facet normal 0.0 -0.0 -1.0
outer loop
vertex -3.67147803307 4.24854469299 15.2260007858
vertex -3.66976475716 4.19857406616 15.2260007858
vertex -6.73296737671 4.09141540527 15.2260007858
endloop
endfacet
facet normal 0.0 -0.0 -1.0
outer loop
vertex -0.606415688992 4.30145263672 15.2260007858
vertex -0.606403231621 4.25145244598 15.2260007858
vertex -3.66976475716 4.19857406616 15.2260007858
endloop
endfacet
facet normal 0.0 0.0 -1.0
outer loop
vertex -0.606415688992 4.30145263672 15.2260007858
vertex -3.66976475716 4.19857406616 15.2260007858
vertex -3.67147803307 4.24854469299 15.2260007858
endloop
endfacet
facet normal 0.0 -0.0 1.0
outer loop
vertex -9.78223419189 3.7805082798 18.797000885
vertex -6.72955513 4.04153203964 18.797000885
vertex -9.78734016418 3.83024692535 18.797000885
endloop
endfacet
facet normal 0.0 0.0 1.0
outer loop
vertex -6.72955513 4.04153203964 18.797000885
vertex -6.73296737671 4.09141540527 18.797000885
vertex -9.78734016418 3.83024692535 18.797000885
endloop
endfacet
facet normal 0.0 -0.0 1.0
outer loop
vertex -6.72955513 4.04153203964 18.797000885
vertex -3.66976475716 4.19857406616 18.797000885
vertex -6.73296737671 4.09141540527 18.797000885
endloop
endfacet
facet normal 0.0 0.0 1.0
outer loop
vertex -3.66976475716 4.19857406616 18.797000885
vertex -3.67147803307 4.24854469299 18.797000885
vertex -6.73296737671 4.09141540527 18.797000885
endloop
endfacet
facet normal 0.0 0.0 1.0
outer loop
vertex -0.606403172016 4.25145244598 18.797000885
vertex -0.606415688992 4.30145263672 18.797000885
vertex -3.66976475716 4.19857406616 18.797000885
endloop
endfacet
facet normal 0.0 -0.0 1.0
outer loop
vertex -3.66976475716 4.19857406616 18.797000885
vertex -0.606415688992 4.30145263672 18.797000885
vertex -3.67147803307 4.24854469299 18.797000885
endloop
endfacet
