solid 
facet normal 0.0172593612224 0.999851047993 2.8808067043e-10
outer loop
vertex 0.606437027454 4.30145311356 112.722999573
vertex 0.60643696785 4.30145311356 116.294006348
vertex 3.67149925232 4.24854421616 116.294006348
endloop
endfacet
facet normal 0.0512571521103 0.998685479164 -0.0
outer loop
vertex 3.67149925232 4.24854421616 112.722999573
vertex 3.67149925232 4.24854421616 116.294006348
vertex 6.73298835754 4.0914144516 116.294006348
endloop
endfacet
facet normal 0.0172593612224 0.999851047993 -0.0
outer loop
vertex 3.67149925232 4.24854421616 112.722999573
vertex 0.606437027454 4.30145311356 112.722999573
vertex 3.67149925232 4.24854421616 116.294006348
endloop
endfacet
facet normal 0.0851958990097 0.996364235878 -0.0
outer loop
vertex 6.73298835754 4.0914144516 112.722999573
vertex 6.73298835754 4.0914144516 116.294006348
vertex 9.78736209869 3.83024477959 116.294006348
endloop
endfacet
facet normal 0.0512571521103 0.998685479164 -0.0
outer loop
vertex 6.73298835754 4.0914144516 112.722999573
vertex 3.67149925232 4.24854421616 112.722999573
vertex 6.73298835754 4.0914144516 116.294006348
endloop
endfacet
facet normal 0.0851958245039 0.996364235878 6.65223467422e-08
outer loop
vertex 9.78736209869 3.83024501801 112.722999573
vertex 6.73298835754 4.0914144516 112.722999573
vertex 9.78736209869 3.83024477959 116.294006348
endloop
endfacet
facet normal 0.994770169258 -0.102138735354 -6.81930112378e-09
outer loop
vertex 9.78736209869 3.83024501801 112.722999573
vertex 9.78736209869 3.83024477959 116.294006348
vertex 9.78225517273 3.78050637245 116.294006348
endloop
endfacet
facet normal 0.994770169258 -0.102138735354 -6.81930112378e-09
outer loop
vertex 9.78225517273 3.78050661087 112.722999573
vertex 9.78736209869 3.83024501801 112.722999573
vertex 9.78225517273 3.78050637245 116.294006348
endloop
endfacet
facet normal -0.0172592923045 -0.999851047993 -1.33798366164e-07
outer loop
vertex 0.606424450874 4.25145292282 116.294006348
vertex 0.606424510479 4.25145339966 112.722999573
vertex 3.66978597641 4.19857358932 116.294006348
endloop
endfacet
facet normal -0.0172594506294 -0.999851047993 0.0
outer loop
vertex 0.606424510479 4.25145339966 112.722999573
vertex 3.66978597641 4.19857358932 112.722999573
vertex 3.66978597641 4.19857358932 116.294006348
endloop
endfacet
facet normal -0.0512572824955 -0.998685479164 -1.33472724428e-07
outer loop
vertex 3.66978597641 4.19857358932 116.294006348
vertex 6.72957658768 4.04153108597 112.722999573
vertex 6.72957658768 4.04153060913 116.294006348
endloop
endfacet
facet normal -0.0851957425475 -0.996364235878 -1.33044693484e-07
outer loop
vertex 6.72957658768 4.04153060913 116.294006348
vertex 6.72957658768 4.04153108597 112.722999573
vertex 9.78225517273 3.78050637245 116.294006348
endloop
endfacet
facet normal -0.051257122308 -0.998685479164 0.0
outer loop
vertex 3.66978597641 4.19857358932 112.722999573
vertex 6.72957658768 4.04153108597 112.722999573
vertex 3.66978597641 4.19857358932 116.294006348
endloop
endfacet
facet normal -0.0851958170533 -0.996364235878 -7.08222671619e-08
outer loop
vertex 6.72957658768 4.04153108597 112.722999573
vertex 9.78225517273 3.78050661087 112.722999573
vertex 9.78225517273 3.78050637245 116.294006348
endloop
endfacet
facet normal -1.0 0.00025033854763 -1.66578448813e-08
outer loop
vertex 0.606424510479 4.25145339966 112.722999573
vertex 0.606424450874 4.25145292282 116.294006348
vertex 0.60643696785 4.30145311356 116.294006348
endloop
endfacet
facet normal -0.999999940395 0.000250340934144 -1.66912705879e-08
outer loop
vertex 0.606437027454 4.30145311356 112.722999573
vertex 0.606424510479 4.25145339966 112.722999573
vertex 0.60643696785 4.30145311356 116.294006348
endloop
endfacet
facet normal 0.0 0.0 -1.0
outer loop
vertex 6.72957658768 4.04153108597 112.722999573
vertex 6.73298835754 4.0914144516 112.722999573
vertex 9.78225517273 3.78050661087 112.722999573
endloop
endfacet
facet normal 0.0 0.0 -1.0
outer loop
vertex 9.78225517273 3.78050661087 112.722999573
vertex 6.73298835754 4.0914144516 112.722999573
vertex 9.78736209869 3.83024501801 112.722999573
endloop
endfacet
facet normal 0.0 0.0 -1.0
outer loop
vertex 3.66978597641 4.19857358932 112.722999573
vertex 3.67149925232 4.24854421616 112.722999573
vertex 6.72957658768 4.04153108597 112.722999573
endloop
endfacet
facet normal 0.0 0.0 -1.0
outer loop
vertex 6.72957658768 4.04153108597 112.722999573
vertex 3.67149925232 4.24854421616 112.722999573
vertex 6.73298835754 4.0914144516 112.722999573
endloop
endfacet
facet normal 0.0 0.0 -1.0
outer loop
vertex 0.606424510479 4.25145339966 112.722999573
vertex 0.606437027454 4.30145311356 112.722999573
vertex 3.66978597641 4.19857358932 112.722999573
endloop
endfacet
facet normal 0.0 0.0 -1.0
outer loop
vertex 3.66978597641 4.19857358932 112.722999573
vertex 0.606437027454 4.30145311356 112.722999573
vertex 3.67149925232 4.24854421616 112.722999573
endloop
endfacet
facet normal 0.0 0.0 1.0
outer loop
vertex 6.72957658768 4.04153060913 116.294006348
vertex 9.78225517273 3.78050637245 116.294006348
vertex 9.78736209869 3.83024477959 116.294006348
endloop
endfacet
facet normal 0.0 0.0 1.0
outer loop
vertex 6.73298835754 4.0914144516 116.294006348
vertex 6.72957658768 4.04153060913 116.294006348
vertex 9.78736209869 3.83024477959 116.294006348
endloop
endfacet
facet normal 0.0 0.0 1.0
outer loop
vertex 3.66978597641 4.19857358932 116.294006348
vertex 6.72957658768 4.04153060913 116.294006348
vertex 6.73298835754 4.0914144516 116.294006348
endloop
endfacet
facet normal 0.0 0.0 1.0
outer loop
vertex 3.67149925232 4.24854421616 116.294006348
vertex 3.66978597641 4.19857358932 116.294006348
vertex 6.73298835754 4.0914144516 116.294006348
endloop
endfacet
facet normal 0.0 0.0 1.0
outer loop
vertex 0.606424450874 4.25145292282 116.294006348
vertex 3.66978597641 4.19857358932 116.294006348
vertex 3.67149925232 4.24854421616 116.294006348
endloop
endfacet
facet normal 0.0 0.0 1.0
outer loop
vertex 0.60643696785 4.30145311356 116.294006348
vertex 0.606424450874 4.25145292282 116.294006348
vertex 3.67149925232 4.24854421616 116.294006348
endloop
endfacet
