solid 
facet normal 0.12035754323 0.992730617523 -0.0
outer loop
vertex 9.90670394897 3.81791162491 -2.84899997711
vertex 9.90670394897 3.81791162491 0.722000062466
vertex 12.9499378204 3.44895339012 0.72200012207
endloop
endfacet
facet normal 0.154053553939 0.988062500954 -0.0
outer loop
vertex 12.9499378204 3.44895339012 -2.84899997711
vertex 12.9499378204 3.44895339012 0.72200012207
vertex 15.9788618088 2.97669935226 0.722000181675
endloop
endfacet
facet normal 0.12035754323 0.992730617523 -0.0
outer loop
vertex 12.9499378204 3.44895339012 -2.84899997711
vertex 9.90670394897 3.81791162491 -2.84899997711
vertex 12.9499378204 3.44895339012 0.72200012207
endloop
endfacet
facet normal 0.187571197748 0.982250988483 -0.0
outer loop
vertex 15.9788618088 2.97669935226 -2.84899973869
vertex 15.9788618088 2.97669935226 0.722000181675
vertex 18.9899711609 2.40169620514 0.722000300884
endloop
endfacet
facet normal 0.15405356884 0.988062500954 -0.0
outer loop
vertex 15.9788618088 2.97669935226 -2.84899973869
vertex 12.9499378204 3.44895339012 -2.84899997711
vertex 15.9788618088 2.97669935226 0.722000181675
endloop
endfacet
facet normal 0.187571212649 0.982250988483 -0.0
outer loop
vertex 18.9899711609 2.40169620514 -2.84899973869
vertex 15.9788618088 2.97669935226 -2.84899973869
vertex 18.9899711609 2.40169620514 0.722000300884
endloop
endfacet
facet normal 0.978921175003 -0.204238548875 0.0
outer loop
vertex 18.9797592163 2.35275006294 -2.84899973869
vertex 18.9899711609 2.40169620514 -2.84899973869
vertex 18.9899711609 2.40169620514 0.722000300884
endloop
endfacet
facet normal 0.978921175003 -0.204238548875 0.0
outer loop
vertex 18.9797592163 2.35275006294 -2.84899973869
vertex 18.9899711609 2.40169620514 0.722000300884
vertex 18.9797592163 2.35275006294 0.722000300884
endloop
endfacet
facet normal -0.120357491076 -0.992730617523 0.0
outer loop
vertex 9.90153121948 3.76817989349 0.722000062466
vertex 12.9430770874 3.39942646027 -2.84899997711
vertex 12.9430770874 3.39942646027 0.72200012207
endloop
endfacet
facet normal -0.120357491076 -0.992730617523 0.0
outer loop
vertex 9.90153121948 3.76817989349 -2.84899997711
vertex 12.9430770874 3.39942646027 -2.84899997711
vertex 9.90153121948 3.76817989349 0.722000062466
endloop
endfacet
facet normal -0.154053553939 -0.988062500954 0.0
outer loop
vertex 12.9430770874 3.39942646027 0.72200012207
vertex 15.9703207016 2.92743444443 -2.84899973869
vertex 15.9703207016 2.92743444443 0.722000181675
endloop
endfacet
facet normal -0.154053553939 -0.988062500954 0.0
outer loop
vertex 12.9430770874 3.39942646027 -2.84899997711
vertex 15.9703207016 2.92743444443 -2.84899973869
vertex 12.9430770874 3.39942646027 0.72200012207
endloop
endfacet
facet normal -0.187571316957 -0.982250988483 0.0
outer loop
vertex 15.9703207016 2.92743444443 0.722000181675
vertex 18.9797592163 2.35275006294 -2.84899973869
vertex 18.9797592163 2.35275006294 0.722000300884
endloop
endfacet
facet normal -0.187571316957 -0.982250988483 0.0
outer loop
vertex 15.9703207016 2.92743444443 -2.84899973869
vertex 18.9797592163 2.35275006294 -2.84899973869
vertex 15.9703207016 2.92743444443 0.722000181675
endloop
endfacet
facet normal -0.994634270668 0.103454552591 0.0
outer loop
vertex 9.90153121948 3.76817989349 -2.84899997711
vertex 9.90153121948 3.76817989349 0.722000062466
vertex 9.90670394897 3.81791162491 0.722000062466
endloop
endfacet
facet normal -0.994634270668 0.103454552591 0.0
outer loop
vertex 9.90670394897 3.81791162491 -2.84899997711
vertex 9.90153121948 3.76817989349 -2.84899997711
vertex 9.90670394897 3.81791162491 0.722000062466
endloop
endfacet
facet normal 0.0 0.0 -1.0
outer loop
vertex 15.9703207016 2.92743444443 -2.84899973869
vertex 15.9788618088 2.97669935226 -2.84899973869
vertex 18.9797592163 2.35275006294 -2.84899973869
endloop
endfacet
facet normal 0.0 0.0 -1.0
outer loop
vertex 18.9797592163 2.35275006294 -2.84899973869
vertex 15.9788618088 2.97669935226 -2.84899973869
vertex 18.9899711609 2.40169620514 -2.84899973869
endloop
endfacet
facet normal 7.70925865368e-08 -1.06792743537e-08 -1.0
outer loop
vertex 12.9430770874 3.39942646027 -2.84899997711
vertex 12.9499378204 3.44895339012 -2.84899997711
vertex 15.9703207016 2.92743444443 -2.84899973869
endloop
endfacet
facet normal 7.664223034e-08 -1.32875417336e-08 -1.0
outer loop
vertex 15.9703207016 2.92743444443 -2.84899973869
vertex 12.9499378204 3.44895339012 -2.84899997711
vertex 15.9788618088 2.97669935226 -2.84899973869
endloop
endfacet
facet normal 0.0 0.0 -1.0
outer loop
vertex 9.90153121948 3.76817989349 -2.84899997711
vertex 9.90670394897 3.81791162491 -2.84899997711
vertex 12.9430770874 3.39942646027 -2.84899997711
endloop
endfacet
facet normal 0.0 0.0 -1.0
outer loop
vertex 12.9430770874 3.39942646027 -2.84899997711
vertex 9.90670394897 3.81791162491 -2.84899997711
vertex 12.9499378204 3.44895339012 -2.84899997711
endloop
endfacet
facet normal -3.80940896605e-08 7.94781129798e-09 1.0
outer loop
vertex 15.9703207016 2.92743444443 0.722000181675
vertex 18.9797592163 2.35275006294 0.722000300884
vertex 18.9899711609 2.40169620514 0.722000300884
endloop
endfacet
facet normal -3.83211222754e-08 6.64377219906e-09 1.0
outer loop
vertex 15.9788618088 2.97669935226 0.722000181675
vertex 15.9703207016 2.92743444443 0.722000181675
vertex 18.9899711609 2.40169620514 0.722000300884
endloop
endfacet
facet normal -1.91711944098e-08 3.32372951384e-09 1.0
outer loop
vertex 12.9430770874 3.39942646027 0.72200012207
vertex 15.9703207016 2.92743444443 0.722000181675
vertex 15.9788618088 2.97669935226 0.722000181675
endloop
endfacet
facet normal -1.92624547424e-08 2.66833732887e-09 1.0
outer loop
vertex 12.9499378204 3.44895339012 0.72200012207
vertex 12.9430770874 3.39942646027 0.72200012207
vertex 15.9788618088 2.97669935226 0.722000181675
endloop
endfacet
facet normal -1.92731519633e-08 2.66981903252e-09 1.0
outer loop
vertex 9.90153121948 3.76817989349 0.722000062466
vertex 12.9430770874 3.39942646027 0.72200012207
vertex 12.9499378204 3.44895339012 0.72200012207
endloop
endfacet
facet normal -1.93420461869e-08 2.0118176014e-09 1.0
outer loop
vertex 9.90670394897 3.81791162491 0.722000062466
vertex 9.90153121948 3.76817989349 0.722000062466
vertex 12.9499378204 3.44895339012 0.72200012207
endloop
endfacet
