solid 
facet normal -0.0172590501606 0.999851047993 1.33398387447e-07
outer loop
vertex -3.67148256302 4.24854469299 -189.112991333
vertex -0.606420397758 4.30145263672 -189.112991333
vertex -0.606420457363 4.30145311356 -192.684005737
endloop
endfacet
facet normal -0.0172592047602 0.999851047993 0.0
outer loop
vertex -3.67148256302 4.24854469299 -189.112991333
vertex -0.606420457363 4.30145311356 -192.684005737
vertex -3.67148256302 4.24854469299 -192.684005737
endloop
endfacet
facet normal -0.0512569993734 0.998685479164 0.0
outer loop
vertex -6.73297166824 4.09141540527 -189.112991333
vertex -3.67148256302 4.24854469299 -192.684005737
vertex -6.73297166824 4.09141540527 -192.684005737
endloop
endfacet
facet normal -0.0512569993734 0.998685479164 0.0
outer loop
vertex -6.73297166824 4.09141540527 -189.112991333
vertex -3.67148256302 4.24854469299 -189.112991333
vertex -3.67148256302 4.24854469299 -192.684005737
endloop
endfacet
facet normal -0.0851956009865 0.996364235878 0.0
outer loop
vertex -9.78734493256 3.83024668694 -189.112991333
vertex -6.73297166824 4.09141540527 -192.684005737
vertex -9.78734493256 3.83024668694 -192.684005737
endloop
endfacet
facet normal -0.0851956009865 0.996364235878 0.0
outer loop
vertex -9.78734493256 3.83024668694 -189.112991333
vertex -6.73297166824 4.09141540527 -189.112991333
vertex -6.73297166824 4.09141540527 -192.684005737
endloop
endfacet
facet normal -0.994772195816 -0.102119378746 -0.0
outer loop
vertex -9.78734493256 3.83024668694 -189.112991333
vertex -9.78734493256 3.83024668694 -192.684005737
vertex -9.78223896027 3.78050804138 -189.112991333
endloop
endfacet
facet normal -0.994772136211 -0.102119855583 -6.84604239964e-09
outer loop
vertex -9.78734493256 3.83024668694 -192.684005737
vertex -9.78223896027 3.7805082798 -192.684005737
vertex -9.78223896027 3.78050804138 -189.112991333
endloop
endfacet
facet normal 0.017259137705 -0.999851047993 0.0
outer loop
vertex -0.606407940388 4.25145292282 -192.684005737
vertex -3.66976952553 4.19857406616 -189.112991333
vertex -3.66976952553 4.19857406616 -192.684005737
endloop
endfacet
facet normal 0.0512569732964 -0.998685479164 0.0
outer loop
vertex -3.66976952553 4.19857406616 -192.684005737
vertex -3.66976952553 4.19857406616 -189.112991333
vertex -6.72955989838 4.04153203964 -192.684005737
endloop
endfacet
facet normal 0.017259137705 -0.999851047993 0.0
outer loop
vertex -0.606407940388 4.25145292282 -189.112991333
vertex -3.66976952553 4.19857406616 -189.112991333
vertex -0.606407940388 4.25145292282 -192.684005737
endloop
endfacet
facet normal 0.0512569732964 -0.998685479164 0.0
outer loop
vertex -3.66976952553 4.19857406616 -189.112991333
vertex -6.72955989838 4.04153203964 -189.112991333
vertex -6.72955989838 4.04153203964 -192.684005737
endloop
endfacet
facet normal 0.0851955711842 -0.996364235878 -6.53742517898e-08
outer loop
vertex -6.72955989838 4.04153203964 -192.684005737
vertex -9.78223896027 3.78050804138 -189.112991333
vertex -9.78223896027 3.7805082798 -192.684005737
endloop
endfacet
facet normal 0.08519564569 -0.996364235878 0.0
outer loop
vertex -6.72955989838 4.04153203964 -189.112991333
vertex -9.78223896027 3.78050804138 -189.112991333
vertex -6.72955989838 4.04153203964 -192.684005737
endloop
endfacet
facet normal 1.0 0.000249148870353 0.0
outer loop
vertex -0.606407940388 4.25145292282 -189.112991333
vertex -0.606407940388 4.25145292282 -192.684005737
vertex -0.606420397758 4.30145263672 -189.112991333
endloop
endfacet
facet normal 0.999999940395 0.000250338518526 -1.66578075778e-08
outer loop
vertex -0.606407940388 4.25145292282 -192.684005737
vertex -0.606420457363 4.30145311356 -192.684005737
vertex -0.606420397758 4.30145263672 -189.112991333
endloop
endfacet
facet normal 0.0 -0.0 -1.0
outer loop
vertex -6.73297166824 4.09141540527 -192.684005737
vertex -6.72955989838 4.04153203964 -192.684005737
vertex -9.78223896027 3.7805082798 -192.684005737
endloop
endfacet
facet normal 0.0 0.0 -1.0
outer loop
vertex -6.73297166824 4.09141540527 -192.684005737
vertex -9.78223896027 3.7805082798 -192.684005737
vertex -9.78734493256 3.83024668694 -192.684005737
endloop
endfacet
facet normal 0.0 -0.0 -1.0
outer loop
vertex -3.67148256302 4.24854469299 -192.684005737
vertex -3.66976952553 4.19857406616 -192.684005737
vertex -6.72955989838 4.04153203964 -192.684005737
endloop
endfacet
facet normal 0.0 0.0 -1.0
outer loop
vertex -3.67148256302 4.24854469299 -192.684005737
vertex -6.72955989838 4.04153203964 -192.684005737
vertex -6.73297166824 4.09141540527 -192.684005737
endloop
endfacet
facet normal 0.0 -0.0 -1.0
outer loop
vertex -0.606420457363 4.30145311356 -192.684005737
vertex -0.606407940388 4.25145292282 -192.684005737
vertex -3.66976952553 4.19857406616 -192.684005737
endloop
endfacet
facet normal 0.0 0.0 -1.0
outer loop
vertex -0.606420457363 4.30145311356 -192.684005737
vertex -3.66976952553 4.19857406616 -192.684005737
vertex -3.67148256302 4.24854469299 -192.684005737
endloop
endfacet
facet normal 0.0 -0.0 1.0
outer loop
vertex -9.78223896027 3.78050804138 -189.112991333
vertex -6.72955989838 4.04153203964 -189.112991333
vertex -9.78734493256 3.83024668694 -189.112991333
endloop
endfacet
facet normal 0.0 0.0 1.0
outer loop
vertex -6.72955989838 4.04153203964 -189.112991333
vertex -6.73297166824 4.09141540527 -189.112991333
vertex -9.78734493256 3.83024668694 -189.112991333
endloop
endfacet
facet normal 0.0 -0.0 1.0
outer loop
vertex -6.72955989838 4.04153203964 -189.112991333
vertex -3.66976952553 4.19857406616 -189.112991333
vertex -6.73297166824 4.09141540527 -189.112991333
endloop
endfacet
facet normal 0.0 0.0 1.0
outer loop
vertex -3.66976952553 4.19857406616 -189.112991333
vertex -3.67148256302 4.24854469299 -189.112991333
vertex -6.73297166824 4.09141540527 -189.112991333
endloop
endfacet
facet normal 0.0 -0.0 1.0
outer loop
vertex -3.66976952553 4.19857406616 -189.112991333
vertex -0.606407940388 4.25145292282 -189.112991333
vertex -3.67148256302 4.24854469299 -189.112991333
endloop
endfacet
facet normal 0.0 0.0 1.0
outer loop
vertex -0.606407940388 4.25145292282 -189.112991333
vertex -0.606420397758 4.30145263672 -189.112991333
vertex -3.67148256302 4.24854469299 -189.112991333
endloop
endfacet
