solid 
facet normal 0.0172592066228 0.999851047993 -0.0
outer loop
vertex 0.606431365013 4.30145311356 94.6480026245
vertex 0.606431365013 4.30145311356 98.21900177
vertex 3.67149353027 4.24854469299 98.21900177
endloop
endfacet
facet normal 0.0512571521103 0.998685479164 -0.0
outer loop
vertex 3.67149353027 4.24854469299 94.6480026245
vertex 3.67149353027 4.24854469299 98.21900177
vertex 6.7329826355 4.09141492844 98.21900177
endloop
endfacet
facet normal 0.0172592066228 0.999851047993 -0.0
outer loop
vertex 3.67149353027 4.24854469299 94.6480026245
vertex 0.606431365013 4.30145311356 94.6480026245
vertex 3.67149353027 4.24854469299 98.21900177
endloop
endfacet
facet normal 0.0851957350969 0.996364235878 -0.0
outer loop
vertex 6.7329826355 4.09141492844 94.6480026245
vertex 6.7329826355 4.09141492844 98.21900177
vertex 9.78735637665 3.83024573326 98.21900177
endloop
endfacet
facet normal 0.0512571521103 0.998685479164 -0.0
outer loop
vertex 6.7329826355 4.09141492844 94.6480026245
vertex 3.67149353027 4.24854469299 94.6480026245
vertex 6.7329826355 4.09141492844 98.21900177
endloop
endfacet
facet normal 0.0851957350969 0.996364235878 -0.0
outer loop
vertex 9.78735637665 3.83024573326 94.6480026245
vertex 6.7329826355 4.09141492844 94.6480026245
vertex 9.78735637665 3.83024573326 98.21900177
endloop
endfacet
facet normal 0.994770228863 -0.102138251066 0.0
outer loop
vertex 9.78735637665 3.83024573326 94.6480026245
vertex 9.78735637665 3.83024573326 98.21900177
vertex 9.78224945068 3.78050708771 98.21900177
endloop
endfacet
facet normal 0.994770169258 -0.102138735354 -6.81931577873e-09
outer loop
vertex 9.78224945068 3.78050732613 94.6480026245
vertex 9.78735637665 3.83024573326 94.6480026245
vertex 9.78224945068 3.78050708771 98.21900177
endloop
endfacet
facet normal -0.017259137705 -0.999851047993 -1.33510567935e-07
outer loop
vertex 0.606418848038 4.25145292282 98.21900177
vertex 0.606418848038 4.25145339966 94.6480026245
vertex 3.66978049278 4.19857406616 98.21900177
endloop
endfacet
facet normal -0.0172592941672 -0.999851047993 0.0
outer loop
vertex 0.606418848038 4.25145339966 94.6480026245
vertex 3.66978049278 4.19857406616 94.6480026245
vertex 3.66978049278 4.19857406616 98.21900177
endloop
endfacet
facet normal -0.0512572824955 -0.998685419559 -1.33473022856e-07
outer loop
vertex 3.66978049278 4.19857406616 98.21900177
vertex 6.72957086563 4.04153156281 94.6480026245
vertex 6.72957086563 4.04153108597 98.21900177
endloop
endfacet
facet normal -0.0851956605911 -0.996364235878 -1.33044977702e-07
outer loop
vertex 6.72957086563 4.04153108597 98.21900177
vertex 6.72957086563 4.04153156281 94.6480026245
vertex 9.78224945068 3.78050708771 98.21900177
endloop
endfacet
facet normal -0.0512571260333 -0.998685419559 0.0
outer loop
vertex 3.66978049278 4.19857406616 94.6480026245
vertex 6.72957086563 4.04153156281 94.6480026245
vertex 3.66978049278 4.19857406616 98.21900177
endloop
endfacet
facet normal -0.0851957425475 -0.996364235878 -6.53745431123e-08
outer loop
vertex 6.72957086563 4.04153156281 94.6480026245
vertex 9.78224945068 3.78050732613 94.6480026245
vertex 9.78224945068 3.78050708771 98.21900177
endloop
endfacet
facet normal -1.0 0.00025033854763 3.34278230096e-11
outer loop
vertex 0.606418848038 4.25145339966 94.6480026245
vertex 0.606418848038 4.25145292282 98.21900177
vertex 0.606431365013 4.30145311356 98.21900177
endloop
endfacet
facet normal -1.0 0.000250340934144 0.0
outer loop
vertex 0.606431365013 4.30145311356 94.6480026245
vertex 0.606418848038 4.25145339966 94.6480026245
vertex 0.606431365013 4.30145311356 98.21900177
endloop
endfacet
facet normal 0.0 0.0 -1.0
outer loop
vertex 6.72957086563 4.04153156281 94.6480026245
vertex 6.7329826355 4.09141492844 94.6480026245
vertex 9.78224945068 3.78050732613 94.6480026245
endloop
endfacet
facet normal 0.0 0.0 -1.0
outer loop
vertex 9.78224945068 3.78050732613 94.6480026245
vertex 6.7329826355 4.09141492844 94.6480026245
vertex 9.78735637665 3.83024573326 94.6480026245
endloop
endfacet
facet normal 0.0 0.0 -1.0
outer loop
vertex 3.66978049278 4.19857406616 94.6480026245
vertex 3.67149353027 4.24854469299 94.6480026245
vertex 6.72957086563 4.04153156281 94.6480026245
endloop
endfacet
facet normal 0.0 0.0 -1.0
outer loop
vertex 6.72957086563 4.04153156281 94.6480026245
vertex 3.67149353027 4.24854469299 94.6480026245
vertex 6.7329826355 4.09141492844 94.6480026245
endloop
endfacet
facet normal 0.0 0.0 -1.0
outer loop
vertex 0.606418848038 4.25145339966 94.6480026245
vertex 0.606431365013 4.30145311356 94.6480026245
vertex 3.66978049278 4.19857406616 94.6480026245
endloop
endfacet
facet normal 0.0 0.0 -1.0
outer loop
vertex 3.66978049278 4.19857406616 94.6480026245
vertex 0.606431365013 4.30145311356 94.6480026245
vertex 3.67149353027 4.24854469299 94.6480026245
endloop
endfacet
facet normal 0.0 0.0 1.0
outer loop
vertex 6.72957086563 4.04153108597 98.21900177
vertex 9.78224945068 3.78050708771 98.21900177
vertex 9.78735637665 3.83024573326 98.21900177
endloop
endfacet
facet normal 0.0 0.0 1.0
outer loop
vertex 6.7329826355 4.09141492844 98.21900177
vertex 6.72957086563 4.04153108597 98.21900177
vertex 9.78735637665 3.83024573326 98.21900177
endloop
endfacet
facet normal 0.0 0.0 1.0
outer loop
vertex 3.66978049278 4.19857406616 98.21900177
vertex 6.72957086563 4.04153108597 98.21900177
vertex 6.7329826355 4.09141492844 98.21900177
endloop
endfacet
facet normal 0.0 0.0 1.0
outer loop
vertex 3.67149353027 4.24854469299 98.21900177
vertex 3.66978049278 4.19857406616 98.21900177
vertex 6.7329826355 4.09141492844 98.21900177
endloop
endfacet
facet normal 0.0 0.0 1.0
outer loop
vertex 0.606418848038 4.25145292282 98.21900177
vertex 3.66978049278 4.19857406616 98.21900177
vertex 3.67149353027 4.24854469299 98.21900177
endloop
endfacet
facet normal 0.0 0.0 1.0
outer loop
vertex 0.606431365013 4.30145311356 98.21900177
vertex 0.606418848038 4.25145292282 98.21900177
vertex 3.67149353027 4.24854469299 98.21900177
endloop
endfacet
