solid 
facet normal 0.120357804 -0.992730557919 -6.62798882445e-08
outer loop
vertex 9.90672969818 -3.81790947914 -110.481002808
vertex 9.90672969818 -3.81790924072 -114.052001953
vertex 12.9499645233 -3.44895005226 -114.052001953
endloop
endfacet
facet normal 0.154053851962 -0.988062441349 -6.59682157789e-08
outer loop
vertex 12.9499645233 -3.44895029068 -110.481002808
vertex 12.9499645233 -3.44895005226 -114.052001953
vertex 15.9788885117 -2.97669506073 -114.052001953
endloop
endfacet
facet normal 0.120357804 -0.992730557919 -6.62798882445e-08
outer loop
vertex 12.9499645233 -3.44895029068 -110.481002808
vertex 9.90672969818 -3.81790947914 -110.481002808
vertex 12.9499645233 -3.44895005226 -114.052001953
endloop
endfacet
facet normal 0.187571585178 -0.982250988483 -6.55802097072e-08
outer loop
vertex 15.9788885117 -2.97669529915 -110.481002808
vertex 15.9788885117 -2.97669506073 -114.052001953
vertex 18.9899978638 -2.40169072151 -114.052001953
endloop
endfacet
facet normal 0.154053851962 -0.988062441349 -6.59682157789e-08
outer loop
vertex 15.9788885117 -2.97669529915 -110.481002808
vertex 12.9499645233 -3.44895029068 -110.481002808
vertex 15.9788885117 -2.97669506073 -114.052001953
endloop
endfacet
facet normal 0.187571585178 -0.982250988483 -6.55802097072e-08
outer loop
vertex 18.9899978638 -2.40169095993 -110.481002808
vertex 15.9788885117 -2.97669529915 -110.481002808
vertex 18.9899978638 -2.40169072151 -114.052001953
endloop
endfacet
facet normal 0.97891330719 0.204276055098 1.36920217386e-08
outer loop
vertex 18.9797840118 -2.35274505615 -110.481002808
vertex 18.9899978638 -2.40169095993 -110.481002808
vertex 18.9899978638 -2.40169072151 -114.052001953
endloop
endfacet
facet normal 0.97891330719 0.204276055098 1.36385374105e-08
outer loop
vertex 18.9797840118 -2.35274505615 -110.481002808
vertex 18.9899978638 -2.40169072151 -114.052001953
vertex 18.9797840118 -2.35274481773 -114.052001953
endloop
endfacet
facet normal -0.12035779655 0.992730617523 6.53745431123e-08
outer loop
vertex 9.90155696869 -3.76817750931 -114.052001953
vertex 12.9431028366 -3.39942336082 -110.481002808
vertex 12.9431028366 -3.39942312241 -114.052001953
endloop
endfacet
facet normal -0.12035779655 0.992730617523 6.62798882445e-08
outer loop
vertex 9.90155696869 -3.76817774773 -110.481002808
vertex 12.9431028366 -3.39942336082 -110.481002808
vertex 9.90155696869 -3.76817750931 -114.052001953
endloop
endfacet
facet normal -0.154053837061 0.988062441349 6.53745360069e-08
outer loop
vertex 12.9431028366 -3.39942312241 -114.052001953
vertex 15.9703464508 -2.92743039131 -110.481002808
vertex 15.9703464508 -2.92743015289 -114.052001953
endloop
endfacet
facet normal -0.154053837061 0.988062441349 6.59682157789e-08
outer loop
vertex 12.9431028366 -3.39942336082 -110.481002808
vertex 15.9703464508 -2.92743039131 -110.481002808
vertex 12.9431028366 -3.39942312241 -114.052001953
endloop
endfacet
facet normal -0.187571644783 0.982250869274 6.53745431123e-08
outer loop
vertex 15.9703464508 -2.92743015289 -114.052001953
vertex 18.9797840118 -2.35274505615 -110.481002808
vertex 18.9797840118 -2.35274481773 -114.052001953
endloop
endfacet
facet normal -0.187571644783 0.982250869274 6.55802026017e-08
outer loop
vertex 15.9703464508 -2.92743039131 -110.481002808
vertex 18.9797840118 -2.35274505615 -110.481002808
vertex 15.9703464508 -2.92743015289 -114.052001953
endloop
endfacet
facet normal -0.994634151459 -0.10345454514 -6.9071663944e-09
outer loop
vertex 9.90155696869 -3.76817774773 -110.481002808
vertex 9.90155696869 -3.76817750931 -114.052001953
vertex 9.90672969818 -3.81790924072 -114.052001953
endloop
endfacet
facet normal -0.994634151459 -0.10345454514 -6.9071663944e-09
outer loop
vertex 9.90672969818 -3.81790947914 -110.481002808
vertex 9.90155696869 -3.76817774773 -110.481002808
vertex 9.90672969818 -3.81790924072 -114.052001953
endloop
endfacet
facet normal -0.0 0.0 1.0
outer loop
vertex 15.9703464508 -2.92743039131 -110.481002808
vertex 15.9788885117 -2.97669529915 -110.481002808
vertex 18.9797840118 -2.35274505615 -110.481002808
endloop
endfacet
facet normal 0.0 0.0 1.0
outer loop
vertex 18.9797840118 -2.35274505615 -110.481002808
vertex 15.9788885117 -2.97669529915 -110.481002808
vertex 18.9899978638 -2.40169095993 -110.481002808
endloop
endfacet
facet normal -0.0 0.0 1.0
outer loop
vertex 12.9431028366 -3.39942336082 -110.481002808
vertex 12.9499645233 -3.44895029068 -110.481002808
vertex 15.9703464508 -2.92743039131 -110.481002808
endloop
endfacet
facet normal 0.0 0.0 1.0
outer loop
vertex 15.9703464508 -2.92743039131 -110.481002808
vertex 12.9499645233 -3.44895029068 -110.481002808
vertex 15.9788885117 -2.97669529915 -110.481002808
endloop
endfacet
facet normal -0.0 0.0 1.0
outer loop
vertex 9.90155696869 -3.76817774773 -110.481002808
vertex 9.90672969818 -3.81790947914 -110.481002808
vertex 12.9431028366 -3.39942336082 -110.481002808
endloop
endfacet
facet normal 0.0 0.0 1.0
outer loop
vertex 12.9431028366 -3.39942336082 -110.481002808
vertex 9.90672969818 -3.81790947914 -110.481002808
vertex 12.9499645233 -3.44895029068 -110.481002808
endloop
endfacet
facet normal 0.0 0.0 -1.0
outer loop
vertex 15.9703464508 -2.92743015289 -114.052001953
vertex 18.9797840118 -2.35274481773 -114.052001953
vertex 18.9899978638 -2.40169072151 -114.052001953
endloop
endfacet
facet normal 0.0 0.0 -1.0
outer loop
vertex 15.9788885117 -2.97669506073 -114.052001953
vertex 15.9703464508 -2.92743015289 -114.052001953
vertex 18.9899978638 -2.40169072151 -114.052001953
endloop
endfacet
facet normal 0.0 0.0 -1.0
outer loop
vertex 12.9431028366 -3.39942312241 -114.052001953
vertex 15.9703464508 -2.92743015289 -114.052001953
vertex 15.9788885117 -2.97669506073 -114.052001953
endloop
endfacet
facet normal 0.0 0.0 -1.0
outer loop
vertex 12.9499645233 -3.44895005226 -114.052001953
vertex 12.9431028366 -3.39942312241 -114.052001953
vertex 15.9788885117 -2.97669506073 -114.052001953
endloop
endfacet
facet normal 0.0 0.0 -1.0
outer loop
vertex 9.90155696869 -3.76817750931 -114.052001953
vertex 12.9431028366 -3.39942312241 -114.052001953
vertex 12.9499645233 -3.44895005226 -114.052001953
endloop
endfacet
facet normal 0.0 0.0 -1.0
outer loop
vertex 9.90672969818 -3.81790924072 -114.052001953
vertex 9.90155696869 -3.76817750931 -114.052001953
vertex 12.9499645233 -3.44895005226 -114.052001953
endloop
endfacet
