solid 
facet normal -0.120357729495 0.992730557919 9.80073835422e-08
outer loop
vertex -12.9499588013 3.44895124435 87.3860015869
vertex -9.90672397614 3.8179101944 87.3860015869
vertex -9.90672492981 3.81791043282 83.8150024414
endloop
endfacet
facet normal -0.120357759297 0.992730557919 6.62798811391e-08
outer loop
vertex -12.9499588013 3.44895124435 87.3860015869
vertex -9.90672492981 3.81791043282 83.8150024414
vertex -12.9499588013 3.44895148277 83.8150024414
endloop
endfacet
facet normal -0.154053777456 0.988062441349 6.59682157789e-08
outer loop
vertex -15.9788827896 2.97669649124 87.3860015869
vertex -12.9499588013 3.44895148277 83.8150024414
vertex -15.9788827896 2.97669672966 83.8150024414
endloop
endfacet
facet normal -0.154053777456 0.988062441349 6.53382699056e-08
outer loop
vertex -15.9788827896 2.97669649124 87.3860015869
vertex -12.9499588013 3.44895124435 87.3860015869
vertex -12.9499588013 3.44895148277 83.8150024414
endloop
endfacet
facet normal -0.187571495771 0.982250988483 6.55802097072e-08
outer loop
vertex -18.9899921417 2.40169239044 87.3860015869
vertex -15.9788827896 2.97669672966 83.8150024414
vertex -18.9899921417 2.40169262886 83.8150024414
endloop
endfacet
facet normal -0.187571525574 0.982250988483 6.53382556948e-08
outer loop
vertex -18.9899921417 2.40169239044 87.3860015869
vertex -15.9788827896 2.97669649124 87.3860015869
vertex -15.9788827896 2.97669672966 83.8150024414
endloop
endfacet
facet normal -0.97891330719 -0.204276055098 0.0
outer loop
vertex -18.9899921417 2.40169239044 87.3860015869
vertex -18.9797782898 2.35274648666 83.8150024414
vertex -18.9797782898 2.35274648666 87.3860015869
endloop
endfacet
facet normal -0.978913545609 -0.204275116324 -1.36384743499e-08
outer loop
vertex -18.9899921417 2.40169262886 83.8150024414
vertex -18.9797782898 2.35274648666 83.8150024414
vertex -18.9899921417 2.40169239044 87.3860015869
endloop
endfacet
facet normal 0.120357722044 -0.992730617523 -6.62798882445e-08
outer loop
vertex -9.90155124664 3.7681787014 83.8150024414
vertex -9.90155124664 3.76817846298 87.3860015869
vertex -12.9430971146 3.39942455292 83.8150024414
endloop
endfacet
facet normal 0.154053837061 -0.988062441349 -6.59682157789e-08
outer loop
vertex -12.9430971146 3.39942455292 83.8150024414
vertex -12.9430971146 3.3994243145 87.3860015869
vertex -15.9703407288 2.9274315834 83.8150024414
endloop
endfacet
facet normal 0.120357722044 -0.992730617523 -6.53745431123e-08
outer loop
vertex -9.90155124664 3.76817846298 87.3860015869
vertex -12.9430971146 3.3994243145 87.3860015869
vertex -12.9430971146 3.39942455292 83.8150024414
endloop
endfacet
facet normal 0.187571585178 -0.982250869274 0.0
outer loop
vertex -15.9703407288 2.9274315834 83.8150024414
vertex -15.9703407288 2.9274315834 87.3860015869
vertex -18.9797782898 2.35274648666 83.8150024414
endloop
endfacet
facet normal 0.154053777456 -0.988062500954 0.0
outer loop
vertex -12.9430971146 3.3994243145 87.3860015869
vertex -15.9703407288 2.9274315834 87.3860015869
vertex -15.9703407288 2.9274315834 83.8150024414
endloop
endfacet
facet normal 0.187571585178 -0.982250869274 0.0
outer loop
vertex -15.9703407288 2.9274315834 87.3860015869
vertex -18.9797782898 2.35274648666 87.3860015869
vertex -18.9797782898 2.35274648666 83.8150024414
endloop
endfacet
facet normal 0.994634151459 0.10345454514 6.9071663944e-09
outer loop
vertex -9.90155124664 3.76817846298 87.3860015869
vertex -9.90155124664 3.7681787014 83.8150024414
vertex -9.90672397614 3.8179101944 87.3860015869
endloop
endfacet
facet normal 0.994632184505 0.10347341001 -2.58682035792e-07
outer loop
vertex -9.90155124664 3.7681787014 83.8150024414
vertex -9.90672492981 3.81791043282 83.8150024414
vertex -9.90672397614 3.8179101944 87.3860015869
endloop
endfacet
facet normal 0.0 -0.0 -1.0
outer loop
vertex -15.9788827896 2.97669672966 83.8150024414
vertex -15.9703407288 2.9274315834 83.8150024414
vertex -18.9797782898 2.35274648666 83.8150024414
endloop
endfacet
facet normal 0.0 0.0 -1.0
outer loop
vertex -15.9788827896 2.97669672966 83.8150024414
vertex -18.9797782898 2.35274648666 83.8150024414
vertex -18.9899921417 2.40169262886 83.8150024414
endloop
endfacet
facet normal 0.0 -0.0 -1.0
outer loop
vertex -12.9499588013 3.44895148277 83.8150024414
vertex -12.9430971146 3.39942455292 83.8150024414
vertex -15.9703407288 2.9274315834 83.8150024414
endloop
endfacet
facet normal 0.0 0.0 -1.0
outer loop
vertex -12.9499588013 3.44895148277 83.8150024414
vertex -15.9703407288 2.9274315834 83.8150024414
vertex -15.9788827896 2.97669672966 83.8150024414
endloop
endfacet
facet normal 0.0 -0.0 -1.0
outer loop
vertex -9.90672492981 3.81791043282 83.8150024414
vertex -9.90155124664 3.7681787014 83.8150024414
vertex -12.9430971146 3.39942455292 83.8150024414
endloop
endfacet
facet normal 0.0 0.0 -1.0
outer loop
vertex -9.90672492981 3.81791043282 83.8150024414
vertex -12.9430971146 3.39942455292 83.8150024414
vertex -12.9499588013 3.44895148277 83.8150024414
endloop
endfacet
facet normal 0.0 -0.0 1.0
outer loop
vertex -18.9797782898 2.35274648666 87.3860015869
vertex -15.9703407288 2.9274315834 87.3860015869
vertex -18.9899921417 2.40169239044 87.3860015869
endloop
endfacet
facet normal 0.0 0.0 1.0
outer loop
vertex -15.9703407288 2.9274315834 87.3860015869
vertex -15.9788827896 2.97669649124 87.3860015869
vertex -18.9899921417 2.40169239044 87.3860015869
endloop
endfacet
facet normal 0.0 -0.0 1.0
outer loop
vertex -15.9703407288 2.9274315834 87.3860015869
vertex -12.9430971146 3.3994243145 87.3860015869
vertex -15.9788827896 2.97669649124 87.3860015869
endloop
endfacet
facet normal 0.0 0.0 1.0
outer loop
vertex -12.9430971146 3.3994243145 87.3860015869
vertex -12.9499588013 3.44895124435 87.3860015869
vertex -15.9788827896 2.97669649124 87.3860015869
endloop
endfacet
facet normal 0.0 -0.0 1.0
outer loop
vertex -12.9430971146 3.3994243145 87.3860015869
vertex -9.90155124664 3.76817846298 87.3860015869
vertex -12.9499588013 3.44895124435 87.3860015869
endloop
endfacet
facet normal 0.0 0.0 1.0
outer loop
vertex -9.90155124664 3.76817846298 87.3860015869
vertex -9.90672397614 3.8179101944 87.3860015869
vertex -12.9499588013 3.44895124435 87.3860015869
endloop
endfacet
