solid 
facet normal 0.120357617736 0.992730617523 -0.0
outer loop
vertex 9.90670871735 3.81791162491 18.8170013428
vertex 9.90670871735 3.81791162491 22.3880004883
vertex 12.9499425888 3.4489531517 22.3880004883
endloop
endfacet
facet normal 0.154053509235 0.988062500954 4.1141671403e-08
outer loop
vertex 12.9499435425 3.4489531517 18.8170013428
vertex 12.9499425888 3.4489531517 22.3880004883
vertex 15.9788675308 2.97669911385 22.3880004883
endloop
endfacet
facet normal 0.120357587934 0.992730617523 3.21428075267e-08
outer loop
vertex 12.9499435425 3.4489531517 18.8170013428
vertex 9.90670871735 3.81791162491 18.8170013428
vertex 12.9499425888 3.4489531517 22.3880004883
endloop
endfacet
facet normal 0.18757134676 0.982250988483 -0.0
outer loop
vertex 15.9788675308 2.97669911385 18.8170013428
vertex 15.9788675308 2.97669911385 22.3880004883
vertex 18.9899768829 2.40169548988 22.3880004883
endloop
endfacet
facet normal 0.154053553939 0.988062500954 -0.0
outer loop
vertex 15.9788675308 2.97669911385 18.8170013428
vertex 12.9499435425 3.4489531517 18.8170013428
vertex 15.9788675308 2.97669911385 22.3880004883
endloop
endfacet
facet normal 0.18757134676 0.982250988483 -0.0
outer loop
vertex 18.9899768829 2.40169548988 18.8170013428
vertex 15.9788675308 2.97669911385 18.8170013428
vertex 18.9899768829 2.40169548988 22.3880004883
endloop
endfacet
facet normal 0.97891330719 -0.204276055098 0.0
outer loop
vertex 18.979763031 2.35274958611 18.8170013428
vertex 18.9899768829 2.40169548988 18.8170013428
vertex 18.9899768829 2.40169548988 22.3880004883
endloop
endfacet
facet normal 0.97891330719 -0.204276055098 0.0
outer loop
vertex 18.979763031 2.35274958611 18.8170013428
vertex 18.9899768829 2.40169548988 22.3880004883
vertex 18.979763031 2.35274958611 22.3880004883
endloop
endfacet
facet normal -0.120357565582 -0.992730617523 0.0
outer loop
vertex 9.90153598785 3.76817989349 22.3880004883
vertex 12.9430818558 3.39942622185 18.8170013428
vertex 12.9430818558 3.39942622185 22.3880004883
endloop
endfacet
facet normal -0.120357565582 -0.992730617523 0.0
outer loop
vertex 9.90153598785 3.76817989349 18.8170013428
vertex 12.9430818558 3.39942622185 18.8170013428
vertex 9.90153598785 3.76817989349 22.3880004883
endloop
endfacet
facet normal -0.154053628445 -0.988062500954 -6.53745431123e-08
outer loop
vertex 12.9430818558 3.39942622185 22.3880004883
vertex 15.97032547 2.92743420601 18.8170013428
vertex 15.97032547 2.92743396759 22.3880004883
endloop
endfacet
facet normal -0.154053539038 -0.988062500954 0.0
outer loop
vertex 12.9430818558 3.39942622185 18.8170013428
vertex 15.97032547 2.92743420601 18.8170013428
vertex 12.9430818558 3.39942622185 22.3880004883
endloop
endfacet
facet normal -0.187571361661 -0.982250988483 0.0
outer loop
vertex 15.97032547 2.92743396759 22.3880004883
vertex 18.979763031 2.35274958611 18.8170013428
vertex 18.979763031 2.35274958611 22.3880004883
endloop
endfacet
facet normal -0.187571421266 -0.982250988483 -6.55802097072e-08
outer loop
vertex 15.97032547 2.92743420601 18.8170013428
vertex 18.979763031 2.35274958611 18.8170013428
vertex 15.97032547 2.92743396759 22.3880004883
endloop
endfacet
facet normal -0.994634151459 0.10345454514 0.0
outer loop
vertex 9.90153598785 3.76817989349 18.8170013428
vertex 9.90153598785 3.76817989349 22.3880004883
vertex 9.90670871735 3.81791162491 22.3880004883
endloop
endfacet
facet normal -0.994634151459 0.10345454514 0.0
outer loop
vertex 9.90670871735 3.81791162491 18.8170013428
vertex 9.90153598785 3.76817989349 18.8170013428
vertex 9.90670871735 3.81791162491 22.3880004883
endloop
endfacet
facet normal 0.0 0.0 -1.0
outer loop
vertex 15.97032547 2.92743420601 18.8170013428
vertex 15.9788675308 2.97669911385 18.8170013428
vertex 18.979763031 2.35274958611 18.8170013428
endloop
endfacet
facet normal 0.0 0.0 -1.0
outer loop
vertex 18.979763031 2.35274958611 18.8170013428
vertex 15.9788675308 2.97669911385 18.8170013428
vertex 18.9899768829 2.40169548988 18.8170013428
endloop
endfacet
facet normal 0.0 0.0 -1.0
outer loop
vertex 12.9430818558 3.39942622185 18.8170013428
vertex 12.9499435425 3.4489531517 18.8170013428
vertex 15.97032547 2.92743420601 18.8170013428
endloop
endfacet
facet normal 0.0 0.0 -1.0
outer loop
vertex 15.97032547 2.92743420601 18.8170013428
vertex 12.9499435425 3.4489531517 18.8170013428
vertex 15.9788675308 2.97669911385 18.8170013428
endloop
endfacet
facet normal 0.0 0.0 -1.0
outer loop
vertex 9.90153598785 3.76817989349 18.8170013428
vertex 9.90670871735 3.81791162491 18.8170013428
vertex 12.9430818558 3.39942622185 18.8170013428
endloop
endfacet
facet normal 0.0 0.0 -1.0
outer loop
vertex 12.9430818558 3.39942622185 18.8170013428
vertex 9.90670871735 3.81791162491 18.8170013428
vertex 12.9499435425 3.4489531517 18.8170013428
endloop
endfacet
facet normal 0.0 0.0 1.0
outer loop
vertex 15.97032547 2.92743396759 22.3880004883
vertex 18.979763031 2.35274958611 22.3880004883
vertex 18.9899768829 2.40169548988 22.3880004883
endloop
endfacet
facet normal 0.0 0.0 1.0
outer loop
vertex 15.9788675308 2.97669911385 22.3880004883
vertex 15.97032547 2.92743396759 22.3880004883
vertex 18.9899768829 2.40169548988 22.3880004883
endloop
endfacet
facet normal 0.0 0.0 1.0
outer loop
vertex 12.9430818558 3.39942622185 22.3880004883
vertex 15.97032547 2.92743396759 22.3880004883
vertex 15.9788675308 2.97669911385 22.3880004883
endloop
endfacet
facet normal 0.0 0.0 1.0
outer loop
vertex 12.9499425888 3.4489531517 22.3880004883
vertex 12.9430818558 3.39942622185 22.3880004883
vertex 15.9788675308 2.97669911385 22.3880004883
endloop
endfacet
facet normal 0.0 0.0 1.0
outer loop
vertex 9.90153598785 3.76817989349 22.3880004883
vertex 12.9430818558 3.39942622185 22.3880004883
vertex 12.9499425888 3.4489531517 22.3880004883
endloop
endfacet
facet normal 0.0 0.0 1.0
outer loop
vertex 9.90670871735 3.81791162491 22.3880004883
vertex 9.90153598785 3.76817989349 22.3880004883
vertex 12.9499425888 3.4489531517 22.3880004883
endloop
endfacet
