solid 
facet normal 0.12035754323 0.992730617523 -0.0
outer loop
vertex 9.90670585632 3.81791186333 11.5750007629
vertex 9.90670585632 3.81791186333 15.1460008621
vertex 12.9499397278 3.44895362854 15.1460008621
endloop
endfacet
facet normal 0.154053628445 0.988062500954 -0.0
outer loop
vertex 12.9499397278 3.44895362854 11.5750007629
vertex 12.9499397278 3.44895362854 15.1460008621
vertex 15.9788637161 2.97669935226 15.1460008621
endloop
endfacet
facet normal 0.12035754323 0.992730617523 -0.0
outer loop
vertex 12.9499397278 3.44895362854 11.5750007629
vertex 9.90670585632 3.81791186333 11.5750007629
vertex 12.9499397278 3.44895362854 15.1460008621
endloop
endfacet
facet normal 0.187571272254 0.982250988483 6.55801954963e-08
outer loop
vertex 15.9788637161 2.97669959068 11.5750007629
vertex 15.9788637161 2.97669935226 15.1460008621
vertex 18.9899730682 2.40169596672 15.1460008621
endloop
endfacet
facet normal 0.154053553939 0.988062500954 6.5968201568e-08
outer loop
vertex 15.9788637161 2.97669959068 11.5750007629
vertex 12.9499397278 3.44895362854 11.5750007629
vertex 15.9788637161 2.97669935226 15.1460008621
endloop
endfacet
facet normal 0.187571361661 0.982250988483 -0.0
outer loop
vertex 18.9899730682 2.40169596672 11.5750007629
vertex 15.9788637161 2.97669959068 11.5750007629
vertex 18.9899730682 2.40169596672 15.1460008621
endloop
endfacet
facet normal 0.978920996189 -0.204239502549 0.0
outer loop
vertex 18.9899730682 2.40169596672 11.5750007629
vertex 18.9899730682 2.40169596672 15.1460008621
vertex 18.9797611237 2.35275006294 15.1460008621
endloop
endfacet
facet normal 0.978920996189 -0.204239502549 0.0
outer loop
vertex 18.9797611237 2.35275006294 11.5750007629
vertex 18.9899730682 2.40169596672 11.5750007629
vertex 18.9797611237 2.35275006294 15.1460008621
endloop
endfacet
facet normal -0.120357573032 -0.992730617523 -6.5374521796e-08
outer loop
vertex 9.90153312683 3.76818013191 15.1460008621
vertex 12.9430789948 3.39942669868 11.5750007629
vertex 12.9430789948 3.39942646027 15.1460008621
endloop
endfacet
facet normal -0.120357491076 -0.992730617523 0.0
outer loop
vertex 9.90153312683 3.76818013191 11.5750007629
vertex 12.9430789948 3.39942669868 11.5750007629
vertex 9.90153312683 3.76818013191 15.1460008621
endloop
endfacet
facet normal -0.154053553939 -0.988062500954 0.0
outer loop
vertex 12.9430789948 3.39942646027 15.1460008621
vertex 15.9703226089 2.92743444443 11.5750007629
vertex 15.9703226089 2.92743444443 15.1460008621
endloop
endfacet
facet normal -0.154053628445 -0.988062500954 -6.5968201568e-08
outer loop
vertex 12.9430789948 3.39942669868 11.5750007629
vertex 15.9703226089 2.92743444443 11.5750007629
vertex 12.9430789948 3.39942646027 15.1460008621
endloop
endfacet
facet normal -0.187571302056 -0.982250988483 0.0
outer loop
vertex 15.9703226089 2.92743444443 15.1460008621
vertex 18.9797611237 2.35275006294 11.5750007629
vertex 18.9797611237 2.35275006294 15.1460008621
endloop
endfacet
facet normal -0.187571302056 -0.982250988483 0.0
outer loop
vertex 15.9703226089 2.92743444443 11.5750007629
vertex 18.9797611237 2.35275006294 11.5750007629
vertex 15.9703226089 2.92743444443 15.1460008621
endloop
endfacet
facet normal -0.994634270668 0.103454552591 0.0
outer loop
vertex 9.90153312683 3.76818013191 11.5750007629
vertex 9.90153312683 3.76818013191 15.1460008621
vertex 9.90670585632 3.81791186333 15.1460008621
endloop
endfacet
facet normal -0.994634270668 0.103454552591 0.0
outer loop
vertex 9.90670585632 3.81791186333 11.5750007629
vertex 9.90153312683 3.76818013191 11.5750007629
vertex 9.90670585632 3.81791186333 15.1460008621
endloop
endfacet
facet normal 0.0 0.0 -1.0
outer loop
vertex 15.9703226089 2.92743444443 11.5750007629
vertex 15.9788637161 2.97669959068 11.5750007629
vertex 18.9797611237 2.35275006294 11.5750007629
endloop
endfacet
facet normal 0.0 0.0 -1.0
outer loop
vertex 18.9797611237 2.35275006294 11.5750007629
vertex 15.9788637161 2.97669959068 11.5750007629
vertex 18.9899730682 2.40169596672 11.5750007629
endloop
endfacet
facet normal 0.0 0.0 -1.0
outer loop
vertex 12.9430789948 3.39942669868 11.5750007629
vertex 12.9499397278 3.44895362854 11.5750007629
vertex 15.9703226089 2.92743444443 11.5750007629
endloop
endfacet
facet normal 0.0 0.0 -1.0
outer loop
vertex 15.9703226089 2.92743444443 11.5750007629
vertex 12.9499397278 3.44895362854 11.5750007629
vertex 15.9788637161 2.97669959068 11.5750007629
endloop
endfacet
facet normal 0.0 0.0 -1.0
outer loop
vertex 9.90153312683 3.76818013191 11.5750007629
vertex 9.90670585632 3.81791186333 11.5750007629
vertex 12.9430789948 3.39942669868 11.5750007629
endloop
endfacet
facet normal 0.0 0.0 -1.0
outer loop
vertex 12.9430789948 3.39942669868 11.5750007629
vertex 9.90670585632 3.81791186333 11.5750007629
vertex 12.9499397278 3.44895362854 11.5750007629
endloop
endfacet
facet normal 0.0 0.0 1.0
outer loop
vertex 15.9703226089 2.92743444443 15.1460008621
vertex 18.9797611237 2.35275006294 15.1460008621
vertex 18.9899730682 2.40169596672 15.1460008621
endloop
endfacet
facet normal 0.0 0.0 1.0
outer loop
vertex 15.9788637161 2.97669935226 15.1460008621
vertex 15.9703226089 2.92743444443 15.1460008621
vertex 18.9899730682 2.40169596672 15.1460008621
endloop
endfacet
facet normal 0.0 0.0 1.0
outer loop
vertex 12.9430789948 3.39942646027 15.1460008621
vertex 15.9703226089 2.92743444443 15.1460008621
vertex 15.9788637161 2.97669935226 15.1460008621
endloop
endfacet
facet normal 0.0 0.0 1.0
outer loop
vertex 12.9499397278 3.44895362854 15.1460008621
vertex 12.9430789948 3.39942646027 15.1460008621
vertex 15.9788637161 2.97669935226 15.1460008621
endloop
endfacet
facet normal 0.0 0.0 1.0
outer loop
vertex 9.90153312683 3.76818013191 15.1460008621
vertex 12.9430789948 3.39942646027 15.1460008621
vertex 12.9499397278 3.44895362854 15.1460008621
endloop
endfacet
facet normal 0.0 0.0 1.0
outer loop
vertex 9.90670585632 3.81791186333 15.1460008621
vertex 9.90153312683 3.76818013191 15.1460008621
vertex 12.9499397278 3.44895362854 15.1460008621
endloop
endfacet
