solid 
facet normal 0.120357804 0.992730557919 6.62798882445e-08
outer loop
vertex 9.90672588348 3.8179101944 -149.351989746
vertex 9.90672588348 3.81790995598 -145.780990601
vertex 12.9499607086 3.44895076752 -145.780990601
endloop
endfacet
facet normal 0.154053777456 0.988062441349 6.59682157789e-08
outer loop
vertex 12.9499607086 3.44895100594 -149.351989746
vertex 12.9499607086 3.44895076752 -145.780990601
vertex 15.978884697 2.9766960144 -145.780990601
endloop
endfacet
facet normal 0.120357804 0.992730557919 6.62798882445e-08
outer loop
vertex 12.9499607086 3.44895100594 -149.351989746
vertex 9.90672588348 3.8179101944 -149.351989746
vertex 12.9499607086 3.44895076752 -145.780990601
endloop
endfacet
facet normal 0.187571585178 0.982250988483 -0.0
outer loop
vertex 15.978884697 2.9766960144 -149.351989746
vertex 15.978884697 2.9766960144 -145.780990601
vertex 18.9899940491 2.40169167519 -145.780990601
endloop
endfacet
facet normal 0.154053851962 0.988062441349 -0.0
outer loop
vertex 15.978884697 2.9766960144 -149.351989746
vertex 12.9499607086 3.44895100594 -149.351989746
vertex 15.978884697 2.9766960144 -145.780990601
endloop
endfacet
facet normal 0.187571525574 0.982250988483 6.55802097072e-08
outer loop
vertex 18.9899940491 2.4016919136 -149.351989746
vertex 15.978884697 2.9766960144 -149.351989746
vertex 18.9899940491 2.40169167519 -145.780990601
endloop
endfacet
facet normal 0.97891330719 -0.204276055098 -1.36920217386e-08
outer loop
vertex 18.9797801971 2.35274600983 -149.351989746
vertex 18.9899940491 2.4016919136 -149.351989746
vertex 18.9899940491 2.40169167519 -145.780990601
endloop
endfacet
facet normal 0.97891330719 -0.204276055098 -1.36385374105e-08
outer loop
vertex 18.9797801971 2.35274600983 -149.351989746
vertex 18.9899940491 2.40169167519 -145.780990601
vertex 18.9797801971 2.35274577141 -145.780990601
endloop
endfacet
facet normal -0.12035779655 -0.992730617523 -6.62798882445e-08
outer loop
vertex 9.90155315399 3.76817822456 -145.780990601
vertex 9.90155315399 3.76817846298 -149.351989746
vertex 12.9430990219 3.39942383766 -145.780990601
endloop
endfacet
facet normal -0.154053837061 -0.988062441349 -6.59682157789e-08
outer loop
vertex 12.9430990219 3.39942383766 -145.780990601
vertex 12.9430990219 3.39942407608 -149.351989746
vertex 15.9703426361 2.92743086815 -145.780990601
endloop
endfacet
facet normal -0.12035779655 -0.992730617523 -6.53745431123e-08
outer loop
vertex 9.90155315399 3.76817846298 -149.351989746
vertex 12.9430990219 3.39942407608 -149.351989746
vertex 12.9430990219 3.39942383766 -145.780990601
endloop
endfacet
facet normal -0.187571585178 -0.982250869274 -6.55802026017e-08
outer loop
vertex 15.9703426361 2.92743086815 -145.780990601
vertex 15.9703426361 2.92743110657 -149.351989746
vertex 18.9797801971 2.35274577141 -145.780990601
endloop
endfacet
facet normal -0.154053837061 -0.988062441349 -6.53745360069e-08
outer loop
vertex 12.9430990219 3.39942407608 -149.351989746
vertex 15.9703426361 2.92743110657 -149.351989746
vertex 15.9703426361 2.92743086815 -145.780990601
endloop
endfacet
facet normal -0.187571585178 -0.982250869274 -6.53745431123e-08
outer loop
vertex 15.9703426361 2.92743110657 -149.351989746
vertex 18.9797801971 2.35274600983 -149.351989746
vertex 18.9797801971 2.35274577141 -145.780990601
endloop
endfacet
facet normal -0.994634151459 0.10345454514 7.0090422355e-09
outer loop
vertex 9.90672588348 3.8179101944 -149.351989746
vertex 9.90155315399 3.76817846298 -149.351989746
vertex 9.90155315399 3.76817822456 -145.780990601
endloop
endfacet
facet normal -0.994634151459 0.10345453769 6.90716595031e-09
outer loop
vertex 9.90672588348 3.8179101944 -149.351989746
vertex 9.90155315399 3.76817822456 -145.780990601
vertex 9.90672588348 3.81790995598 -145.780990601
endloop
endfacet
facet normal 0.0 0.0 -1.0
outer loop
vertex 18.9797801971 2.35274600983 -149.351989746
vertex 15.9703426361 2.92743110657 -149.351989746
vertex 18.9899940491 2.4016919136 -149.351989746
endloop
endfacet
facet normal 0.0 0.0 -1.0
outer loop
vertex 15.9703426361 2.92743110657 -149.351989746
vertex 15.978884697 2.9766960144 -149.351989746
vertex 18.9899940491 2.4016919136 -149.351989746
endloop
endfacet
facet normal 0.0 0.0 -1.0
outer loop
vertex 15.9703426361 2.92743110657 -149.351989746
vertex 12.9430990219 3.39942407608 -149.351989746
vertex 15.978884697 2.9766960144 -149.351989746
endloop
endfacet
facet normal 0.0 0.0 -1.0
outer loop
vertex 12.9430990219 3.39942407608 -149.351989746
vertex 12.9499607086 3.44895100594 -149.351989746
vertex 15.978884697 2.9766960144 -149.351989746
endloop
endfacet
facet normal 0.0 0.0 -1.0
outer loop
vertex 12.9430990219 3.39942407608 -149.351989746
vertex 9.90155315399 3.76817846298 -149.351989746
vertex 12.9499607086 3.44895100594 -149.351989746
endloop
endfacet
facet normal 0.0 0.0 -1.0
outer loop
vertex 9.90155315399 3.76817846298 -149.351989746
vertex 9.90672588348 3.8179101944 -149.351989746
vertex 12.9499607086 3.44895100594 -149.351989746
endloop
endfacet
facet normal 0.0 0.0 1.0
outer loop
vertex 15.9703426361 2.92743086815 -145.780990601
vertex 18.9797801971 2.35274577141 -145.780990601
vertex 18.9899940491 2.40169167519 -145.780990601
endloop
endfacet
facet normal 0.0 0.0 1.0
outer loop
vertex 15.978884697 2.9766960144 -145.780990601
vertex 15.9703426361 2.92743086815 -145.780990601
vertex 18.9899940491 2.40169167519 -145.780990601
endloop
endfacet
facet normal 0.0 0.0 1.0
outer loop
vertex 12.9430990219 3.39942383766 -145.780990601
vertex 15.9703426361 2.92743086815 -145.780990601
vertex 15.978884697 2.9766960144 -145.780990601
endloop
endfacet
facet normal 0.0 0.0 1.0
outer loop
vertex 12.9499607086 3.44895076752 -145.780990601
vertex 12.9430990219 3.39942383766 -145.780990601
vertex 15.978884697 2.9766960144 -145.780990601
endloop
endfacet
facet normal 0.0 0.0 1.0
outer loop
vertex 9.90155315399 3.76817822456 -145.780990601
vertex 12.9430990219 3.39942383766 -145.780990601
vertex 12.9499607086 3.44895076752 -145.780990601
endloop
endfacet
facet normal 0.0 0.0 1.0
outer loop
vertex 9.90672588348 3.81790995598 -145.780990601
vertex 9.90155315399 3.76817822456 -145.780990601
vertex 12.9499607086 3.44895076752 -145.780990601
endloop
endfacet
