solid 
facet normal -0.0172588955611 0.999851047993 0.0
outer loop
vertex -3.67147278786 4.24854421616 -243.277999878
vertex -0.606410562992 4.30145168304 -243.277999878
vertex -0.606410562992 4.30145168304 -246.848999023
endloop
endfacet
facet normal -0.0172588955611 0.999851047993 0.0
outer loop
vertex -3.67147278786 4.24854421616 -243.277999878
vertex -0.606410562992 4.30145168304 -246.848999023
vertex -3.67147278786 4.24854421616 -246.848999023
endloop
endfacet
facet normal -0.0512569881976 0.998685479164 0.0
outer loop
vertex -6.7329621315 4.09141492844 -243.277999878
vertex -3.67147278786 4.24854421616 -246.848999023
vertex -6.7329621315 4.09141492844 -246.848999023
endloop
endfacet
facet normal -0.0512569881976 0.998685479164 0.0
outer loop
vertex -6.7329621315 4.09141492844 -243.277999878
vertex -3.67147278786 4.24854421616 -243.277999878
vertex -3.67147278786 4.24854421616 -246.848999023
endloop
endfacet
facet normal -0.0851954445243 0.996364235878 0.0
outer loop
vertex -9.78733539581 3.83024668694 -243.277999878
vertex -6.7329621315 4.09141492844 -246.848999023
vertex -9.78733539581 3.83024668694 -246.848999023
endloop
endfacet
facet normal -0.0851954445243 0.996364235878 0.0
outer loop
vertex -9.78733539581 3.83024668694 -243.277999878
vertex -6.7329621315 4.09141492844 -243.277999878
vertex -6.7329621315 4.09141492844 -246.848999023
endloop
endfacet
facet normal -0.994770169258 -0.102138735354 0.0
outer loop
vertex -9.78733539581 3.83024668694 -243.277999878
vertex -9.78222846985 3.7805082798 -246.848999023
vertex -9.78222846985 3.7805082798 -243.277999878
endloop
endfacet
facet normal -0.994770169258 -0.102138735354 0.0
outer loop
vertex -9.78733539581 3.83024668694 -246.848999023
vertex -9.78222846985 3.7805082798 -246.848999023
vertex -9.78733539581 3.83024668694 -243.277999878
endloop
endfacet
facet normal 0.0172589812428 -0.999851047993 0.0
outer loop
vertex -0.606398046017 4.25145196915 -246.848999023
vertex -3.66975975037 4.19857358932 -243.277999878
vertex -3.66975975037 4.19857358932 -246.848999023
endloop
endfacet
facet normal 0.0172589812428 -0.999851047993 0.0
outer loop
vertex -0.606398046017 4.25145196915 -243.277999878
vertex -3.66975975037 4.19857358932 -243.277999878
vertex -0.606398046017 4.25145196915 -246.848999023
endloop
endfacet
facet normal 0.0512569695711 -0.998685538769 0.0
outer loop
vertex -3.66975975037 4.19857358932 -246.848999023
vertex -6.72955036163 4.04153156281 -243.277999878
vertex -6.72955036163 4.04153156281 -246.848999023
endloop
endfacet
facet normal 0.0851954519749 -0.996364295483 0.0
outer loop
vertex -6.72955036163 4.04153156281 -246.848999023
vertex -6.72955036163 4.04153156281 -243.277999878
vertex -9.78222846985 3.7805082798 -246.848999023
endloop
endfacet
facet normal 0.0512569695711 -0.998685538769 0.0
outer loop
vertex -3.66975975037 4.19857358932 -243.277999878
vertex -6.72955036163 4.04153156281 -243.277999878
vertex -3.66975975037 4.19857358932 -246.848999023
endloop
endfacet
facet normal 0.0851954519749 -0.996364295483 0.0
outer loop
vertex -6.72955036163 4.04153156281 -243.277999878
vertex -9.78222846985 3.7805082798 -243.277999878
vertex -9.78222846985 3.7805082798 -246.848999023
endloop
endfacet
facet normal 1.0 0.000250340934144 0.0
outer loop
vertex -0.606398046017 4.25145196915 -243.277999878
vertex -0.606410562992 4.30145168304 -246.848999023
vertex -0.606410562992 4.30145168304 -243.277999878
endloop
endfacet
facet normal 1.0 0.000250340934144 -0.0
outer loop
vertex -0.606398046017 4.25145196915 -246.848999023
vertex -0.606410562992 4.30145168304 -246.848999023
vertex -0.606398046017 4.25145196915 -243.277999878
endloop
endfacet
facet normal 0.0 0.0 -1.0
outer loop
vertex -6.72955036163 4.04153156281 -246.848999023
vertex -9.78222846985 3.7805082798 -246.848999023
vertex -9.78733539581 3.83024668694 -246.848999023
endloop
endfacet
facet normal 0.0 -0.0 -1.0
outer loop
vertex -6.7329621315 4.09141492844 -246.848999023
vertex -6.72955036163 4.04153156281 -246.848999023
vertex -9.78733539581 3.83024668694 -246.848999023
endloop
endfacet
facet normal 0.0 0.0 -1.0
outer loop
vertex -3.66975975037 4.19857358932 -246.848999023
vertex -6.72955036163 4.04153156281 -246.848999023
vertex -6.7329621315 4.09141492844 -246.848999023
endloop
endfacet
facet normal 0.0 -0.0 -1.0
outer loop
vertex -3.67147278786 4.24854421616 -246.848999023
vertex -3.66975975037 4.19857358932 -246.848999023
vertex -6.7329621315 4.09141492844 -246.848999023
endloop
endfacet
facet normal 0.0 0.0 -1.0
outer loop
vertex -0.606398046017 4.25145196915 -246.848999023
vertex -3.66975975037 4.19857358932 -246.848999023
vertex -3.67147278786 4.24854421616 -246.848999023
endloop
endfacet
facet normal 0.0 -0.0 -1.0
outer loop
vertex -0.606410562992 4.30145168304 -246.848999023
vertex -0.606398046017 4.25145196915 -246.848999023
vertex -3.67147278786 4.24854421616 -246.848999023
endloop
endfacet
facet normal 0.0 -0.0 1.0
outer loop
vertex -9.78222846985 3.7805082798 -243.277999878
vertex -6.72955036163 4.04153156281 -243.277999878
vertex -9.78733539581 3.83024668694 -243.277999878
endloop
endfacet
facet normal 0.0 0.0 1.0
outer loop
vertex -6.72955036163 4.04153156281 -243.277999878
vertex -6.7329621315 4.09141492844 -243.277999878
vertex -9.78733539581 3.83024668694 -243.277999878
endloop
endfacet
facet normal 0.0 -0.0 1.0
outer loop
vertex -6.72955036163 4.04153156281 -243.277999878
vertex -3.66975975037 4.19857358932 -243.277999878
vertex -6.7329621315 4.09141492844 -243.277999878
endloop
endfacet
facet normal 0.0 0.0 1.0
outer loop
vertex -3.66975975037 4.19857358932 -243.277999878
vertex -3.67147278786 4.24854421616 -243.277999878
vertex -6.7329621315 4.09141492844 -243.277999878
endloop
endfacet
facet normal 0.0 -0.0 1.0
outer loop
vertex -3.66975975037 4.19857358932 -243.277999878
vertex -0.606398046017 4.25145196915 -243.277999878
vertex -3.67147278786 4.24854421616 -243.277999878
endloop
endfacet
facet normal 0.0 0.0 1.0
outer loop
vertex -0.606398046017 4.25145196915 -243.277999878
vertex -0.606410562992 4.30145168304 -243.277999878
vertex -3.67147278786 4.24854421616 -243.277999878
endloop
endfacet
