solid 
facet normal -0.120357692242 0.992730617523 0.0
outer loop
vertex -12.9499530792 3.44895219803 69.3110046387
vertex -9.90671920776 3.81791090965 69.3110046387
vertex -9.90671920776 3.81791090965 65.7400054932
endloop
endfacet
facet normal -0.120357692242 0.992730617523 0.0
outer loop
vertex -12.9499530792 3.44895219803 69.3110046387
vertex -9.90671920776 3.81791090965 65.7400054932
vertex -12.9499530792 3.44895219803 65.7400054932
endloop
endfacet
facet normal -0.154053643346 0.988062441349 1.07109919156e-07
outer loop
vertex -15.9788770676 2.97669744492 69.3110046387
vertex -12.9499530792 3.44895219803 65.7400054932
vertex -15.9788780212 2.97669768333 65.7400054932
endloop
endfacet
facet normal -0.154053777456 0.988062441349 0.0
outer loop
vertex -15.9788770676 2.97669744492 69.3110046387
vertex -12.9499530792 3.44895219803 69.3110046387
vertex -12.9499530792 3.44895219803 65.7400054932
endloop
endfacet
facet normal -0.187571585178 0.982250988483 0.0
outer loop
vertex -18.9899864197 2.40169358253 69.3110046387
vertex -15.9788780212 2.97669768333 65.7400054932
vertex -18.9899864197 2.40169358253 65.7400054932
endloop
endfacet
facet normal -0.187571436167 0.982250988483 1.19786804476e-07
outer loop
vertex -18.9899864197 2.40169358253 69.3110046387
vertex -15.9788770676 2.97669744492 69.3110046387
vertex -15.9788780212 2.97669768333 65.7400054932
endloop
endfacet
facet normal -0.978920996189 -0.204239502549 0.0
outer loop
vertex -18.9899864197 2.40169358253 69.3110046387
vertex -18.9797744751 2.35274767876 65.7400054932
vertex -18.9797744751 2.35274767876 69.3110046387
endloop
endfacet
facet normal -0.978920996189 -0.204239502549 0.0
outer loop
vertex -18.9899864197 2.40169358253 65.7400054932
vertex -18.9797744751 2.35274767876 65.7400054932
vertex -18.9899864197 2.40169358253 69.3110046387
endloop
endfacet
facet normal 0.120357647538 -0.992730617523 -6.53745431123e-08
outer loop
vertex -9.90154647827 3.76817917824 65.7400054932
vertex -12.9430923462 3.39942502975 69.3110046387
vertex -12.9430923462 3.39942526817 65.7400054932
endloop
endfacet
facet normal 0.120357722044 -0.992730617523 0.0
outer loop
vertex -9.90154647827 3.76817917824 69.3110046387
vertex -12.9430923462 3.39942502975 69.3110046387
vertex -9.90154647827 3.76817917824 65.7400054932
endloop
endfacet
facet normal 0.15405370295 -0.988062500954 -6.53745431123e-08
outer loop
vertex -12.9430923462 3.39942526817 65.7400054932
vertex -15.9703359604 2.92743253708 69.3110046387
vertex -15.9703359604 2.9274327755 65.7400054932
endloop
endfacet
facet normal 0.15405370295 -0.988062500954 -6.59682228843e-08
outer loop
vertex -12.9430923462 3.39942502975 69.3110046387
vertex -15.9703359604 2.92743253708 69.3110046387
vertex -12.9430923462 3.39942526817 65.7400054932
endloop
endfacet
facet normal 0.187571540475 -0.982250988483 0.0
outer loop
vertex -15.9703359604 2.9274327755 65.7400054932
vertex -18.9797744751 2.35274767876 69.3110046387
vertex -18.9797744751 2.35274767876 65.7400054932
endloop
endfacet
facet normal 0.187571465969 -0.982250988483 -6.55802168126e-08
outer loop
vertex -15.9703359604 2.92743253708 69.3110046387
vertex -18.9797744751 2.35274767876 69.3110046387
vertex -15.9703359604 2.9274327755 65.7400054932
endloop
endfacet
facet normal 0.994634151459 0.10345454514 0.0
outer loop
vertex -9.90154647827 3.76817917824 69.3110046387
vertex -9.90671920776 3.81791090965 65.7400054932
vertex -9.90671920776 3.81791090965 69.3110046387
endloop
endfacet
facet normal 0.994634151459 0.10345454514 -0.0
outer loop
vertex -9.90154647827 3.76817917824 65.7400054932
vertex -9.90671920776 3.81791090965 65.7400054932
vertex -9.90154647827 3.76817917824 69.3110046387
endloop
endfacet
facet normal 0.0 -0.0 -1.0
outer loop
vertex -15.9788780212 2.97669768333 65.7400054932
vertex -15.9703359604 2.9274327755 65.7400054932
vertex -18.9797744751 2.35274767876 65.7400054932
endloop
endfacet
facet normal 0.0 0.0 -1.0
outer loop
vertex -15.9788780212 2.97669768333 65.7400054932
vertex -18.9797744751 2.35274767876 65.7400054932
vertex -18.9899864197 2.40169358253 65.7400054932
endloop
endfacet
facet normal 0.0 -0.0 -1.0
outer loop
vertex -12.9499530792 3.44895219803 65.7400054932
vertex -12.9430923462 3.39942526817 65.7400054932
vertex -15.9703359604 2.9274327755 65.7400054932
endloop
endfacet
facet normal 0.0 0.0 -1.0
outer loop
vertex -12.9499530792 3.44895219803 65.7400054932
vertex -15.9703359604 2.9274327755 65.7400054932
vertex -15.9788780212 2.97669768333 65.7400054932
endloop
endfacet
facet normal 0.0 -0.0 -1.0
outer loop
vertex -9.90671920776 3.81791090965 65.7400054932
vertex -9.90154647827 3.76817917824 65.7400054932
vertex -12.9430923462 3.39942526817 65.7400054932
endloop
endfacet
facet normal 0.0 0.0 -1.0
outer loop
vertex -9.90671920776 3.81791090965 65.7400054932
vertex -12.9430923462 3.39942526817 65.7400054932
vertex -12.9499530792 3.44895219803 65.7400054932
endloop
endfacet
facet normal 0.0 0.0 1.0
outer loop
vertex -15.9703359604 2.92743253708 69.3110046387
vertex -15.9788770676 2.97669744492 69.3110046387
vertex -18.9797744751 2.35274767876 69.3110046387
endloop
endfacet
facet normal 0.0 -0.0 1.0
outer loop
vertex -18.9797744751 2.35274767876 69.3110046387
vertex -15.9788770676 2.97669744492 69.3110046387
vertex -18.9899864197 2.40169358253 69.3110046387
endloop
endfacet
facet normal 0.0 0.0 1.0
outer loop
vertex -12.9430923462 3.39942502975 69.3110046387
vertex -12.9499530792 3.44895219803 69.3110046387
vertex -15.9703359604 2.92743253708 69.3110046387
endloop
endfacet
facet normal 0.0 -0.0 1.0
outer loop
vertex -15.9703359604 2.92743253708 69.3110046387
vertex -12.9499530792 3.44895219803 69.3110046387
vertex -15.9788770676 2.97669744492 69.3110046387
endloop
endfacet
facet normal 0.0 0.0 1.0
outer loop
vertex -9.90154647827 3.76817917824 69.3110046387
vertex -9.90671920776 3.81791090965 69.3110046387
vertex -12.9430923462 3.39942502975 69.3110046387
endloop
endfacet
facet normal 0.0 -0.0 1.0
outer loop
vertex -12.9430923462 3.39942502975 69.3110046387
vertex -9.90671920776 3.81791090965 69.3110046387
vertex -12.9499530792 3.44895219803 69.3110046387
endloop
endfacet
