solid 
facet normal -0.017259363085 0.999851047993 0.0
outer loop
vertex -3.6714990139 4.24854421616 119.885002136
vertex -0.60643684864 4.30145311356 119.885002136
vertex -0.606436908245 4.30145311356 116.314002991
endloop
endfacet
facet normal -0.017259363085 0.999851047993 0.0
outer loop
vertex -3.6714990139 4.24854421616 119.885002136
vertex -0.606436908245 4.30145311356 116.314002991
vertex -3.6714990139 4.24854421616 116.314002991
endloop
endfacet
facet normal -0.051257148385 0.998685479164 1.33354930654e-07
outer loop
vertex -6.73298835754 4.09141397476 119.885002136
vertex -3.6714990139 4.24854421616 116.314002991
vertex -6.73298835754 4.0914144516 116.314002991
endloop
endfacet
facet normal -0.0512573048472 0.998685479164 0.0
outer loop
vertex -6.73298835754 4.09141397476 119.885002136
vertex -3.6714990139 4.24854421616 119.885002136
vertex -3.6714990139 4.24854421616 116.314002991
endloop
endfacet
facet normal -0.085195928812 0.996364235878 0.0
outer loop
vertex -9.78736114502 3.83024477959 119.885002136
vertex -6.73298835754 4.0914144516 116.314002991
vertex -9.78736114502 3.83024477959 116.314002991
endloop
endfacet
facet normal -0.0851957648993 0.996364235878 1.30676554022e-07
outer loop
vertex -9.78736114502 3.83024477959 119.885002136
vertex -6.73298835754 4.09141397476 119.885002136
vertex -6.73298835754 4.0914144516 116.314002991
endloop
endfacet
facet normal -0.994772195816 -0.102119371295 -0.0
outer loop
vertex -9.78736114502 3.83024477959 119.885002136
vertex -9.78736114502 3.83024477959 116.314002991
vertex -9.78225517273 3.78050613403 119.885002136
endloop
endfacet
facet normal -0.994772076607 -0.102119848132 -6.84607126544e-09
outer loop
vertex -9.78736114502 3.83024477959 116.314002991
vertex -9.78225517273 3.78050637245 116.314002991
vertex -9.78225517273 3.78050613403 119.885002136
endloop
endfacet
facet normal 0.0172592941672 -0.999851047993 0.0
outer loop
vertex -0.60642439127 4.25145292282 116.314002991
vertex -3.66978597641 4.19857358932 119.885002136
vertex -3.66978597641 4.19857358932 116.314002991
endloop
endfacet
facet normal 0.0512572787702 -0.998685419559 0.0
outer loop
vertex -3.66978597641 4.19857358932 116.314002991
vertex -3.66978597641 4.19857358932 119.885002136
vertex -6.72957658768 4.04153060913 116.314002991
endloop
endfacet
facet normal 0.0172592941672 -0.999851047993 -2.88080170829e-10
outer loop
vertex -0.606424331665 4.25145292282 119.885002136
vertex -3.66978597641 4.19857358932 119.885002136
vertex -0.60642439127 4.25145292282 116.314002991
endloop
endfacet
facet normal 0.0512572787702 -0.998685419559 0.0
outer loop
vertex -3.66978597641 4.19857358932 119.885002136
vertex -6.72957658768 4.04153060913 119.885002136
vertex -6.72957658768 4.04153060913 116.314002991
endloop
endfacet
facet normal 0.0851957425475 -0.996364235878 -6.53745431123e-08
outer loop
vertex -6.72957658768 4.04153060913 116.314002991
vertex -9.78225517273 3.78050613403 119.885002136
vertex -9.78225517273 3.78050637245 116.314002991
endloop
endfacet
facet normal 0.0851958170533 -0.996364235878 0.0
outer loop
vertex -6.72957658768 4.04153060913 119.885002136
vertex -9.78225517273 3.78050613403 119.885002136
vertex -6.72957658768 4.04153060913 116.314002991
endloop
endfacet
facet normal 0.999999940395 0.000250338518526 -1.6691306115e-08
outer loop
vertex -0.606424331665 4.25145292282 119.885002136
vertex -0.60642439127 4.25145292282 116.314002991
vertex -0.60643684864 4.30145311356 119.885002136
endloop
endfacet
facet normal 0.999999940395 0.000250338518526 -1.6691306115e-08
outer loop
vertex -0.60642439127 4.25145292282 116.314002991
vertex -0.606436908245 4.30145311356 116.314002991
vertex -0.60643684864 4.30145311356 119.885002136
endloop
endfacet
facet normal 0.0 -0.0 -1.0
outer loop
vertex -6.73298835754 4.0914144516 116.314002991
vertex -6.72957658768 4.04153060913 116.314002991
vertex -9.78225517273 3.78050637245 116.314002991
endloop
endfacet
facet normal 0.0 0.0 -1.0
outer loop
vertex -6.73298835754 4.0914144516 116.314002991
vertex -9.78225517273 3.78050637245 116.314002991
vertex -9.78736114502 3.83024477959 116.314002991
endloop
endfacet
facet normal 0.0 -0.0 -1.0
outer loop
vertex -3.6714990139 4.24854421616 116.314002991
vertex -3.66978597641 4.19857358932 116.314002991
vertex -6.72957658768 4.04153060913 116.314002991
endloop
endfacet
facet normal 0.0 0.0 -1.0
outer loop
vertex -3.6714990139 4.24854421616 116.314002991
vertex -6.72957658768 4.04153060913 116.314002991
vertex -6.73298835754 4.0914144516 116.314002991
endloop
endfacet
facet normal 0.0 -0.0 -1.0
outer loop
vertex -0.606436908245 4.30145311356 116.314002991
vertex -0.60642439127 4.25145292282 116.314002991
vertex -3.66978597641 4.19857358932 116.314002991
endloop
endfacet
facet normal 0.0 0.0 -1.0
outer loop
vertex -0.606436908245 4.30145311356 116.314002991
vertex -3.66978597641 4.19857358932 116.314002991
vertex -3.6714990139 4.24854421616 116.314002991
endloop
endfacet
facet normal 0.0 -0.0 1.0
outer loop
vertex -9.78225517273 3.78050613403 119.885002136
vertex -6.72957658768 4.04153060913 119.885002136
vertex -9.78736114502 3.83024477959 119.885002136
endloop
endfacet
facet normal 0.0 0.0 1.0
outer loop
vertex -6.72957658768 4.04153060913 119.885002136
vertex -6.73298835754 4.09141397476 119.885002136
vertex -9.78736114502 3.83024477959 119.885002136
endloop
endfacet
facet normal 0.0 -0.0 1.0
outer loop
vertex -6.72957658768 4.04153060913 119.885002136
vertex -3.66978597641 4.19857358932 119.885002136
vertex -6.73298835754 4.09141397476 119.885002136
endloop
endfacet
facet normal 0.0 0.0 1.0
outer loop
vertex -3.66978597641 4.19857358932 119.885002136
vertex -3.6714990139 4.24854421616 119.885002136
vertex -6.73298835754 4.09141397476 119.885002136
endloop
endfacet
facet normal 0.0 -0.0 1.0
outer loop
vertex -3.66978597641 4.19857358932 119.885002136
vertex -0.606424331665 4.25145292282 119.885002136
vertex -3.6714990139 4.24854421616 119.885002136
endloop
endfacet
facet normal 0.0 0.0 1.0
outer loop
vertex -0.606424331665 4.25145292282 119.885002136
vertex -0.60643684864 4.30145311356 119.885002136
vertex -3.6714990139 4.24854421616 119.885002136
endloop
endfacet
