solid 
facet normal 0.120357692242 0.992730557919 3.26690674513e-08
outer loop
vertex 12.9499549866 3.44895219803 69.3909988403
vertex 9.90672111511 3.81791090965 69.3909988403
vertex 9.90672016144 3.81791090965 72.9620056152
endloop
endfacet
facet normal 0.120357729495 0.992730557919 6.62797390305e-08
outer loop
vertex 12.9499549866 3.44895219803 69.3909988403
vertex 9.90672016144 3.81791090965 72.9620056152
vertex 12.9499549866 3.44895195961 72.9620056152
endloop
endfacet
facet normal 0.154053777456 0.988062441349 6.59680736703e-08
outer loop
vertex 15.9788789749 2.97669744492 69.3909988403
vertex 12.9499549866 3.44895195961 72.9620056152
vertex 15.9788789749 2.9766972065 72.9620056152
endloop
endfacet
facet normal 0.154053792357 0.988062441349 6.53381277971e-08
outer loop
vertex 15.9788789749 2.97669744492 69.3909988403
vertex 12.9499549866 3.44895219803 69.3909988403
vertex 12.9499549866 3.44895195961 72.9620056152
endloop
endfacet
facet normal 0.187571421266 0.982250928879 -0.0
outer loop
vertex 18.989988327 2.40169334412 69.3909988403
vertex 15.9788789749 2.9766972065 72.9620056152
vertex 18.989988327 2.40169334412 72.9620056152
endloop
endfacet
facet normal 0.187571495771 0.982250928879 6.53381135862e-08
outer loop
vertex 18.989988327 2.40169334412 69.3909988403
vertex 15.9788789749 2.97669744492 69.3909988403
vertex 15.9788789749 2.9766972065 72.9620056152
endloop
endfacet
facet normal 0.978913366795 -0.204276069999 0.0
outer loop
vertex 18.9797744751 2.35274744034 69.3909988403
vertex 18.989988327 2.40169334412 69.3909988403
vertex 18.989988327 2.40169334412 72.9620056152
endloop
endfacet
facet normal 0.978913366795 -0.204276069999 0.0
outer loop
vertex 18.9797744751 2.35274744034 69.3909988403
vertex 18.989988327 2.40169334412 72.9620056152
vertex 18.9797744751 2.35274744034 72.9620056152
endloop
endfacet
facet normal -0.120357722044 -0.992730557919 -6.53744010037e-08
outer loop
vertex 9.90154743195 3.76817917824 72.9620056152
vertex 12.9430932999 3.39942526817 69.3909988403
vertex 12.9430932999 3.39942502975 72.9620056152
endloop
endfacet
facet normal -0.120357751846 -0.992730557919 -9.84225252409e-08
outer loop
vertex 9.90154838562 3.76817941666 69.3909988403
vertex 12.9430932999 3.39942526817 69.3909988403
vertex 9.90154743195 3.76817917824 72.9620056152
endloop
endfacet
facet normal -0.154053777456 -0.988062441349 -6.53744010037e-08
outer loop
vertex 12.9430932999 3.39942502975 72.9620056152
vertex 15.9703369141 2.92743253708 69.3909988403
vertex 15.9703369141 2.92743229866 72.9620056152
endloop
endfacet
facet normal -0.154053777456 -0.988062441349 -6.59680736703e-08
outer loop
vertex 12.9430932999 3.39942526817 69.3909988403
vertex 15.9703369141 2.92743253708 69.3909988403
vertex 12.9430932999 3.39942502975 72.9620056152
endloop
endfacet
facet normal -0.187571495771 -0.982250928879 0.0
outer loop
vertex 15.9703369141 2.92743229866 72.9620056152
vertex 18.9797744751 2.35274744034 69.3909988403
vertex 18.9797744751 2.35274744034 72.9620056152
endloop
endfacet
facet normal -0.187571585178 -0.982250928879 -6.55800675986e-08
outer loop
vertex 15.9703369141 2.92743253708 69.3909988403
vertex 18.9797744751 2.35274744034 69.3909988403
vertex 15.9703369141 2.92743229866 72.9620056152
endloop
endfacet
facet normal -0.994634151459 0.10345453769 -2.58720206148e-07
outer loop
vertex 9.90154838562 3.76817941666 69.3909988403
vertex 9.90154743195 3.76817917824 72.9620056152
vertex 9.90672016144 3.81791090965 72.9620056152
endloop
endfacet
facet normal -0.994634091854 0.103455021977 -2.65627306817e-07
outer loop
vertex 9.90672111511 3.81791090965 69.3909988403
vertex 9.90154838562 3.76817941666 69.3909988403
vertex 9.90672016144 3.81791090965 72.9620056152
endloop
endfacet
facet normal 0.0 0.0 -1.0
outer loop
vertex 15.9703369141 2.92743253708 69.3909988403
vertex 15.9788789749 2.97669744492 69.3909988403
vertex 18.9797744751 2.35274744034 69.3909988403
endloop
endfacet
facet normal 0.0 0.0 -1.0
outer loop
vertex 18.9797744751 2.35274744034 69.3909988403
vertex 15.9788789749 2.97669744492 69.3909988403
vertex 18.989988327 2.40169334412 69.3909988403
endloop
endfacet
facet normal 0.0 0.0 -1.0
outer loop
vertex 12.9430932999 3.39942526817 69.3909988403
vertex 12.9499549866 3.44895219803 69.3909988403
vertex 15.9703369141 2.92743253708 69.3909988403
endloop
endfacet
facet normal 0.0 0.0 -1.0
outer loop
vertex 15.9703369141 2.92743253708 69.3909988403
vertex 12.9499549866 3.44895219803 69.3909988403
vertex 15.9788789749 2.97669744492 69.3909988403
endloop
endfacet
facet normal 0.0 0.0 -1.0
outer loop
vertex 9.90154838562 3.76817941666 69.3909988403
vertex 9.90672111511 3.81791090965 69.3909988403
vertex 12.9430932999 3.39942526817 69.3909988403
endloop
endfacet
facet normal 0.0 0.0 -1.0
outer loop
vertex 12.9430932999 3.39942526817 69.3909988403
vertex 9.90672111511 3.81791090965 69.3909988403
vertex 12.9499549866 3.44895219803 69.3909988403
endloop
endfacet
facet normal 0.0 0.0 1.0
outer loop
vertex 15.9788789749 2.9766972065 72.9620056152
vertex 15.9703369141 2.92743229866 72.9620056152
vertex 18.9797744751 2.35274744034 72.9620056152
endloop
endfacet
facet normal 0.0 0.0 1.0
outer loop
vertex 15.9788789749 2.9766972065 72.9620056152
vertex 18.9797744751 2.35274744034 72.9620056152
vertex 18.989988327 2.40169334412 72.9620056152
endloop
endfacet
facet normal 0.0 0.0 1.0
outer loop
vertex 12.9499549866 3.44895195961 72.9620056152
vertex 12.9430932999 3.39942502975 72.9620056152
vertex 15.9703369141 2.92743229866 72.9620056152
endloop
endfacet
facet normal 0.0 0.0 1.0
outer loop
vertex 12.9499549866 3.44895195961 72.9620056152
vertex 15.9703369141 2.92743229866 72.9620056152
vertex 15.9788789749 2.9766972065 72.9620056152
endloop
endfacet
facet normal 0.0 0.0 1.0
outer loop
vertex 9.90672016144 3.81791090965 72.9620056152
vertex 9.90154743195 3.76817917824 72.9620056152
vertex 12.9430932999 3.39942502975 72.9620056152
endloop
endfacet
facet normal 0.0 0.0 1.0
outer loop
vertex 9.90672016144 3.81791090965 72.9620056152
vertex 12.9430932999 3.39942502975 72.9620056152
vertex 12.9499549866 3.44895195961 72.9620056152
endloop
endfacet
