solid 
facet normal -0.102243922651 0.994759321213 -6.64216912583e-08
outer loop
vertex -9.8072309494 3.82820224762 4.31299972534
vertex -9.78733539581 3.83024716377 4.31299972534
vertex -9.78733539581 3.83024692535 0.741999924183
endloop
endfacet
facet normal -0.102232135832 0.99476057291 0.0
outer loop
vertex -9.8072309494 3.82820224762 4.31299972534
vertex -9.78733539581 3.83024692535 0.741999924183
vertex -9.8072309494 3.82820224762 0.741999924183
endloop
endfacet
facet normal -0.102472908795 0.994735836983 -6.64137544959e-08
outer loop
vertex -9.82712554932 3.82615303993 4.31299972534
vertex -9.8072309494 3.82820224762 0.741999924183
vertex -9.82712554932 3.82615280151 0.741999924183
endloop
endfacet
facet normal -0.102678306401 0.994714617729 -6.64123405159e-08
outer loop
vertex -9.82712554932 3.82615303993 4.31299972534
vertex -9.82712554932 3.82615280151 0.741999924183
vertex -9.84701919556 3.82409930229 0.741999924183
endloop
endfacet
facet normal -0.102461107075 0.994736969471 0.0
outer loop
vertex -9.82712554932 3.82615303993 4.31299972534
vertex -9.8072309494 3.82820224762 4.31299972534
vertex -9.8072309494 3.82820224762 0.741999924183
endloop
endfacet
facet normal -0.102690093219 0.994713366032 0.0
outer loop
vertex -9.84701919556 3.82409930229 4.31299972534
vertex -9.82712554932 3.82615303993 4.31299972534
vertex -9.84701919556 3.82409930229 0.741999924183
endloop
endfacet
facet normal -0.994703412056 -0.102787233889 0.0
outer loop
vertex -9.84701919556 3.82409930229 4.31299972534
vertex -9.84187984467 3.77436423302 0.741999924183
vertex -9.84187984467 3.77436423302 4.31299972534
endloop
endfacet
facet normal -0.994703412056 -0.102787233889 0.0
outer loop
vertex -9.84701919556 3.82409930229 0.741999924183
vertex -9.84187984467 3.77436423302 0.741999924183
vertex -9.84701919556 3.82409930229 4.31299972534
endloop
endfacet
facet normal 0.102231346071 -0.99476069212 0.0
outer loop
vertex -9.78222846985 3.7805082798 0.741999924183
vertex -9.80211257935 3.77846479416 4.31299972534
vertex -9.80211257935 3.77846479416 0.741999924183
endloop
endfacet
facet normal 0.10224314779 -0.994759440422 6.64153319008e-08
outer loop
vertex -9.78222846985 3.78050851822 4.31299972534
vertex -9.80211257935 3.77846479416 4.31299972534
vertex -9.78222846985 3.7805082798 0.741999924183
endloop
endfacet
facet normal 0.102467395365 -0.994736433029 6.64074235601e-08
outer loop
vertex -9.80211257935 3.77846479416 0.741999924183
vertex -9.82199668884 3.77641677856 4.31299972534
vertex -9.82199668884 3.77641654015 0.741999924183
endloop
endfacet
facet normal 0.102672889829 -0.994715154171 6.6412376043e-08
outer loop
vertex -9.82199668884 3.77641654015 0.741999924183
vertex -9.82199668884 3.77641677856 4.31299972534
vertex -9.84187984467 3.77436423302 0.741999924183
endloop
endfacet
facet normal 0.102455586195 -0.994737565517 0.0
outer loop
vertex -9.80211257935 3.77846479416 4.31299972534
vertex -9.82199668884 3.77641677856 4.31299972534
vertex -9.80211257935 3.77846479416 0.741999924183
endloop
endfacet
facet normal 0.102684691548 -0.994713962078 0.0
outer loop
vertex -9.82199668884 3.77641677856 4.31299972534
vertex -9.84187984467 3.77436423302 4.31299972534
vertex -9.84187984467 3.77436423302 0.741999924183
endloop
endfacet
facet normal 0.994770228863 0.102138243616 -6.81928158386e-09
outer loop
vertex -9.78222846985 3.78050851822 4.31299972534
vertex -9.78222846985 3.7805082798 0.741999924183
vertex -9.78733539581 3.83024716377 4.31299972534
endloop
endfacet
facet normal 0.994770228863 0.102138243616 -6.84602419199e-09
outer loop
vertex -9.78222846985 3.7805082798 0.741999924183
vertex -9.78733539581 3.83024692535 0.741999924183
vertex -9.78733539581 3.83024716377 4.31299972534
endloop
endfacet
facet normal 0.0 0.0 -1.0
outer loop
vertex -9.84701919556 3.82409930229 0.741999924183
vertex -9.82199668884 3.77641654015 0.741999924183
vertex -9.84187984467 3.77436423302 0.741999924183
endloop
endfacet
facet normal 0.0 -0.0 -1.0
outer loop
vertex -9.82712554932 3.82615280151 0.741999924183
vertex -9.82199668884 3.77641654015 0.741999924183
vertex -9.84701919556 3.82409930229 0.741999924183
endloop
endfacet
facet normal 0.0 -0.0 -1.0
outer loop
vertex -9.8072309494 3.82820224762 0.741999924183
vertex -9.80211257935 3.77846479416 0.741999924183
vertex -9.82199668884 3.77641654015 0.741999924183
endloop
endfacet
facet normal 0.0 0.0 -1.0
outer loop
vertex -9.8072309494 3.82820224762 0.741999924183
vertex -9.82199668884 3.77641654015 0.741999924183
vertex -9.82712554932 3.82615280151 0.741999924183
endloop
endfacet
facet normal 0.0 -0.0 -1.0
outer loop
vertex -9.78733539581 3.83024692535 0.741999924183
vertex -9.78222846985 3.7805082798 0.741999924183
vertex -9.80211257935 3.77846479416 0.741999924183
endloop
endfacet
facet normal 0.0 0.0 -1.0
outer loop
vertex -9.78733539581 3.83024692535 0.741999924183
vertex -9.80211257935 3.77846479416 0.741999924183
vertex -9.8072309494 3.82820224762 0.741999924183
endloop
endfacet
facet normal 0.0 0.0 1.0
outer loop
vertex -9.82199668884 3.77641677856 4.31299972534
vertex -9.84701919556 3.82409930229 4.31299972534
vertex -9.84187984467 3.77436423302 4.31299972534
endloop
endfacet
facet normal 0.0 0.0 1.0
outer loop
vertex -9.80211257935 3.77846479416 4.31299972534
vertex -9.82712554932 3.82615303993 4.31299972534
vertex -9.82199668884 3.77641677856 4.31299972534
endloop
endfacet
facet normal 0.0 0.0 1.0
outer loop
vertex -9.82199668884 3.77641677856 4.31299972534
vertex -9.82712554932 3.82615303993 4.31299972534
vertex -9.84701919556 3.82409930229 4.31299972534
endloop
endfacet
facet normal 0.0 0.0 1.0
outer loop
vertex -9.78222846985 3.78050851822 4.31299972534
vertex -9.8072309494 3.82820224762 4.31299972534
vertex -9.80211257935 3.77846479416 4.31299972534
endloop
endfacet
facet normal 0.0 0.0 1.0
outer loop
vertex -9.80211257935 3.77846479416 4.31299972534
vertex -9.8072309494 3.82820224762 4.31299972534
vertex -9.82712554932 3.82615303993 4.31299972534
endloop
endfacet
facet normal 0.0 0.0 1.0
outer loop
vertex -9.78222846985 3.78050851822 4.31299972534
vertex -9.78733539581 3.83024716377 4.31299972534
vertex -9.8072309494 3.82820224762 4.31299972534
endloop
endfacet
