solid 
facet normal -0.102902412415 -0.994691491127 1.99219698516e-07
outer loop
vertex -9.86692714691 -3.82204079628 -52.6450004578
vertex -9.84703350067 -3.82409882545 -52.6450004578
vertex -9.84703350067 -3.8240981102 -49.0740013123
endloop
endfacet
facet normal -0.102902412415 -0.994691491127 1.99232431441e-07
outer loop
vertex -9.86692714691 -3.82204079628 -52.6450004578
vertex -9.84703350067 -3.8240981102 -49.0740013123
vertex -9.86692714691 -3.82204008102 -49.0740013123
endloop
endfacet
facet normal -0.103126503527 -0.994668245316 1.99227770281e-07
outer loop
vertex -9.88682079315 -3.81997823715 -52.6450004578
vertex -9.86692714691 -3.82204008102 -49.0740013123
vertex -9.88682079315 -3.8199775219 -49.0740013123
endloop
endfacet
facet normal -0.103343687952 -0.994645655155 1.99223251229e-07
outer loop
vertex -9.88682079315 -3.81997823715 -52.6450004578
vertex -9.88682079315 -3.8199775219 -49.0740013123
vertex -9.90671348572 -3.81791067123 -49.0740013123
endloop
endfacet
facet normal -0.103126503527 -0.994668245316 1.99215037355e-07
outer loop
vertex -9.88682079315 -3.81997823715 -52.6450004578
vertex -9.86692714691 -3.82204079628 -52.6450004578
vertex -9.86692714691 -3.82204008102 -49.0740013123
endloop
endfacet
facet normal -0.103343687952 -0.994645655155 1.99223251229e-07
outer loop
vertex -9.90671348572 -3.81791138649 -52.6450004578
vertex -9.88682079315 -3.81997823715 -52.6450004578
vertex -9.90671348572 -3.81791067123 -49.0740013123
endloop
endfacet
facet normal -0.994634151459 0.10345454514 -2.07214991832e-08
outer loop
vertex -9.90671348572 -3.81791138649 -52.6450004578
vertex -9.90671348572 -3.81791067123 -49.0740013123
vertex -9.90154075623 -3.76817965508 -52.6450004578
endloop
endfacet
facet normal -0.994634151459 0.10345454514 -2.07011243702e-08
outer loop
vertex -9.90671348572 -3.81791067123 -49.0740013123
vertex -9.90154075623 -3.76817893982 -49.0740013123
vertex -9.90154075623 -3.76817965508 -52.6450004578
endloop
endfacet
facet normal 0.102913804352 0.994690299034 -1.99232189857e-07
outer loop
vertex -9.84189414978 -3.77436304092 -49.0740013123
vertex -9.84189414978 -3.77436375618 -52.6450004578
vertex -9.86177635193 -3.77230596542 -49.0740013123
endloop
endfacet
facet normal 0.102902010083 0.994691550732 -2.65643251396e-07
outer loop
vertex -9.84189414978 -3.77436375618 -52.6450004578
vertex -9.86177635193 -3.7723069191 -52.6450004578
vertex -9.86177635193 -3.77230596542 -49.0740013123
endloop
endfacet
facet normal 0.103121332824 0.994668781757 -2.65624436224e-07
outer loop
vertex -9.86177635193 -3.77230596542 -49.0740013123
vertex -9.88165950775 -3.77024555206 -52.6450004578
vertex -9.88165950775 -3.77024459839 -49.0740013123
endloop
endfacet
facet normal 0.10334353894 0.99464571476 -2.65631001639e-07
outer loop
vertex -9.88165950775 -3.77024459839 -49.0740013123
vertex -9.88165950775 -3.77024555206 -52.6450004578
vertex -9.90154075623 -3.76817893982 -49.0740013123
endloop
endfacet
facet normal 0.103121332824 0.994668781757 -2.6563716915e-07
outer loop
vertex -9.86177635193 -3.7723069191 -52.6450004578
vertex -9.88165950775 -3.77024555206 -52.6450004578
vertex -9.86177635193 -3.77230596542 -49.0740013123
endloop
endfacet
facet normal 0.103355333209 0.994644463062 -1.99232559339e-07
outer loop
vertex -9.88165950775 -3.77024555206 -52.6450004578
vertex -9.90154075623 -3.76817965508 -52.6450004578
vertex -9.90154075623 -3.76817893982 -49.0740013123
endloop
endfacet
facet normal 0.994703412056 -0.102787233889 2.05878389892e-08
outer loop
vertex -9.84189414978 -3.77436375618 -52.6450004578
vertex -9.84189414978 -3.77436304092 -49.0740013123
vertex -9.84703350067 -3.82409882545 -52.6450004578
endloop
endfacet
facet normal 0.994703412056 -0.102787233889 2.07011758846e-08
outer loop
vertex -9.84189414978 -3.77436304092 -49.0740013123
vertex -9.84703350067 -3.8240981102 -49.0740013123
vertex -9.84703350067 -3.82409882545 -52.6450004578
endloop
endfacet
facet normal 0.0 0.0 1.0
outer loop
vertex -9.90671348572 -3.81791067123 -49.0740013123
vertex -9.88165950775 -3.77024459839 -49.0740013123
vertex -9.90154075623 -3.76817893982 -49.0740013123
endloop
endfacet
facet normal 0.0 0.0 1.0
outer loop
vertex -9.88682079315 -3.8199775219 -49.0740013123
vertex -9.86177635193 -3.77230596542 -49.0740013123
vertex -9.88165950775 -3.77024459839 -49.0740013123
endloop
endfacet
facet normal 0.0 -0.0 1.0
outer loop
vertex -9.88682079315 -3.8199775219 -49.0740013123
vertex -9.88165950775 -3.77024459839 -49.0740013123
vertex -9.90671348572 -3.81791067123 -49.0740013123
endloop
endfacet
facet normal 0.0 -0.0 1.0
outer loop
vertex -9.86692714691 -3.82204008102 -49.0740013123
vertex -9.86177635193 -3.77230596542 -49.0740013123
vertex -9.88682079315 -3.8199775219 -49.0740013123
endloop
endfacet
facet normal 0.0 -0.0 1.0
outer loop
vertex -9.84703350067 -3.8240981102 -49.0740013123
vertex -9.84189414978 -3.77436304092 -49.0740013123
vertex -9.86177635193 -3.77230596542 -49.0740013123
endloop
endfacet
facet normal 0.0 0.0 1.0
outer loop
vertex -9.84703350067 -3.8240981102 -49.0740013123
vertex -9.86177635193 -3.77230596542 -49.0740013123
vertex -9.86692714691 -3.82204008102 -49.0740013123
endloop
endfacet
facet normal -0.0 0.0 -1.0
outer loop
vertex -9.88165950775 -3.77024555206 -52.6450004578
vertex -9.90671348572 -3.81791138649 -52.6450004578
vertex -9.90154075623 -3.76817965508 -52.6450004578
endloop
endfacet
facet normal -0.0 0.0 -1.0
outer loop
vertex -9.86177635193 -3.7723069191 -52.6450004578
vertex -9.88682079315 -3.81997823715 -52.6450004578
vertex -9.88165950775 -3.77024555206 -52.6450004578
endloop
endfacet
facet normal 0.0 0.0 -1.0
outer loop
vertex -9.88165950775 -3.77024555206 -52.6450004578
vertex -9.88682079315 -3.81997823715 -52.6450004578
vertex -9.90671348572 -3.81791138649 -52.6450004578
endloop
endfacet
facet normal -0.0 0.0 -1.0
outer loop
vertex -9.84189414978 -3.77436375618 -52.6450004578
vertex -9.86692714691 -3.82204079628 -52.6450004578
vertex -9.86177635193 -3.7723069191 -52.6450004578
endloop
endfacet
facet normal 0.0 0.0 -1.0
outer loop
vertex -9.86177635193 -3.7723069191 -52.6450004578
vertex -9.86692714691 -3.82204079628 -52.6450004578
vertex -9.88682079315 -3.81997823715 -52.6450004578
endloop
endfacet
facet normal 0.0 0.0 -1.0
outer loop
vertex -9.84189414978 -3.77436375618 -52.6450004578
vertex -9.84703350067 -3.82409882545 -52.6450004578
vertex -9.86692714691 -3.82204079628 -52.6450004578
endloop
endfacet
