solid 
facet normal 0.102897524834 0.994691967964 -2.65630546892e-07
outer loop
vertex 9.86691761017 3.82204031944 -2.84899997711
vertex 9.84702301025 3.82409834862 -2.84899997711
vertex 9.84702301025 3.82409930229 0.722000002861
endloop
endfacet
facet normal 0.102897524834 0.994691967964 -2.65643279818e-07
outer loop
vertex 9.86691761017 3.82204031944 -2.84899997711
vertex 9.84702301025 3.82409930229 0.722000002861
vertex 9.86691761017 3.82204127312 0.722000002861
endloop
endfacet
facet normal 0.103131398559 0.994667768478 -1.99227613962e-07
outer loop
vertex 9.88681030273 3.81997799873 -2.84899997711
vertex 9.86691761017 3.82204127312 0.722000002861
vertex 9.88681030273 3.81997871399 0.722000002861
endloop
endfacet
facet normal 0.10333878547 0.994646251202 -1.99223308073e-07
outer loop
vertex 9.88681030273 3.81997799873 -2.84899997711
vertex 9.88681030273 3.81997871399 0.722000002861
vertex 9.90670394897 3.81791186333 0.722000002861
endloop
endfacet
facet normal 0.103119596839 0.994669020176 -2.65649873654e-07
outer loop
vertex 9.88681030273 3.81997799873 -2.84899997711
vertex 9.86691761017 3.82204031944 -2.84899997711
vertex 9.86691761017 3.82204127312 0.722000002861
endloop
endfacet
facet normal 0.103350572288 0.994644999504 -2.65630745844e-07
outer loop
vertex 9.90670394897 3.81791090965 -2.84899997711
vertex 9.88681030273 3.81997799873 -2.84899997711
vertex 9.90670394897 3.81791186333 0.722000002861
endloop
endfacet
facet normal 0.994634270668 -0.103454552591 2.76286584722e-08
outer loop
vertex 9.90670394897 3.81791090965 -2.84899997711
vertex 9.90670394897 3.81791186333 0.722000002861
vertex 9.90153121948 3.76818013191 0.722000062466
endloop
endfacet
facet normal 0.994634270668 -0.103454552591 2.76286584722e-08
outer loop
vertex 9.90153121948 3.76817917824 -2.84899997711
vertex 9.90670394897 3.81791090965 -2.84899997711
vertex 9.90153121948 3.76818013191 0.722000062466
endloop
endfacet
facet normal -0.102908916771 -0.994690775871 1.99222668584e-07
outer loop
vertex 9.84188365936 3.77436423302 0.722000062466
vertex 9.86176681519 3.77230644226 -2.84899997711
vertex 9.86176681519 3.77230715752 0.722000062466
endloop
endfacet
facet normal -0.103126227856 -0.99466830492 1.99227713438e-07
outer loop
vertex 9.86176681519 3.77230715752 0.722000062466
vertex 9.86176681519 3.77230644226 -2.84899997711
vertex 9.88164901733 3.77024579048 0.722000062466
endloop
endfacet
facet normal -0.102897115052 -0.994692027569 2.65643308239e-07
outer loop
vertex 9.84188365936 3.77436327934 -2.84899997711
vertex 9.86176681519 3.77230644226 -2.84899997711
vertex 9.84188365936 3.77436423302 0.722000062466
endloop
endfacet
facet normal -0.103338621557 -0.994646191597 1.99223293862e-07
outer loop
vertex 9.88164901733 3.77024579048 0.722000062466
vertex 9.88164901733 3.77024507523 -2.84899997711
vertex 9.90153121948 3.76818013191 0.722000062466
endloop
endfacet
facet normal -0.103126227856 -0.99466830492 1.99227713438e-07
outer loop
vertex 9.86176681519 3.77230644226 -2.84899997711
vertex 9.88164901733 3.77024507523 -2.84899997711
vertex 9.88164901733 3.77024579048 0.722000062466
endloop
endfacet
facet normal -0.103350438178 -0.994645059109 2.65630745844e-07
outer loop
vertex 9.88164901733 3.77024507523 -2.84899997711
vertex 9.90153121948 3.76817917824 -2.84899997711
vertex 9.90153121948 3.76818013191 0.722000062466
endloop
endfacet
facet normal -0.994703412056 0.102787233889 -2.7384226442e-08
outer loop
vertex 9.84702301025 3.82409834862 -2.84899997711
vertex 9.84188365936 3.77436327934 -2.84899997711
vertex 9.84188365936 3.77436423302 0.722000062466
endloop
endfacet
facet normal -0.994703352451 0.102787211537 -2.74504401432e-08
outer loop
vertex 9.84702301025 3.82409834862 -2.84899997711
vertex 9.84188365936 3.77436423302 0.722000062466
vertex 9.84702301025 3.82409930229 0.722000002861
endloop
endfacet
facet normal 0.0 0.0 -1.0
outer loop
vertex 9.88164901733 3.77024507523 -2.84899997711
vertex 9.90670394897 3.81791090965 -2.84899997711
vertex 9.90153121948 3.76817917824 -2.84899997711
endloop
endfacet
facet normal 0.0 0.0 -1.0
outer loop
vertex 9.86176681519 3.77230644226 -2.84899997711
vertex 9.88681030273 3.81997799873 -2.84899997711
vertex 9.88164901733 3.77024507523 -2.84899997711
endloop
endfacet
facet normal 0.0 0.0 -1.0
outer loop
vertex 9.88164901733 3.77024507523 -2.84899997711
vertex 9.88681030273 3.81997799873 -2.84899997711
vertex 9.90670394897 3.81791090965 -2.84899997711
endloop
endfacet
facet normal 0.0 0.0 -1.0
outer loop
vertex 9.84188365936 3.77436327934 -2.84899997711
vertex 9.86691761017 3.82204031944 -2.84899997711
vertex 9.86176681519 3.77230644226 -2.84899997711
endloop
endfacet
facet normal 0.0 0.0 -1.0
outer loop
vertex 9.86176681519 3.77230644226 -2.84899997711
vertex 9.86691761017 3.82204031944 -2.84899997711
vertex 9.88681030273 3.81997799873 -2.84899997711
endloop
endfacet
facet normal 0.0 0.0 -1.0
outer loop
vertex 9.84188365936 3.77436327934 -2.84899997711
vertex 9.84702301025 3.82409834862 -2.84899997711
vertex 9.86691761017 3.82204031944 -2.84899997711
endloop
endfacet
facet normal 1.23189195733e-07 1.18571017538e-06 1.0
outer loop
vertex 9.90670394897 3.81791186333 0.722000002861
vertex 9.88164901733 3.77024579048 0.722000062466
vertex 9.90153121948 3.76818013191 0.722000062466
endloop
endfacet
facet normal 1.23189366263e-07 1.18571006169e-06 1.0
outer loop
vertex 9.88681030273 3.81997871399 0.722000002861
vertex 9.88164901733 3.77024579048 0.722000062466
vertex 9.90670394897 3.81791186333 0.722000002861
endloop
endfacet
facet normal 1.22935730928e-07 1.18573393593e-06 1.0
outer loop
vertex 9.86691761017 3.82204127312 0.722000002861
vertex 9.86176681519 3.77230715752 0.722000062466
vertex 9.88164901733 3.77024579048 0.722000062466
endloop
endfacet
facet normal 1.22942140024e-07 1.18573575492e-06 1.0
outer loop
vertex 9.86691761017 3.82204127312 0.722000002861
vertex 9.88164901733 3.77024579048 0.722000062466
vertex 9.88681030273 3.81997871399 0.722000002861
endloop
endfacet
facet normal 1.22677235481e-07 1.1857661093e-06 1.0
outer loop
vertex 9.84702301025 3.82409930229 0.722000002861
vertex 9.84188365936 3.77436423302 0.722000062466
vertex 9.86176681519 3.77230715752 0.722000062466
endloop
endfacet
facet normal 1.22663095681e-07 1.18576224395e-06 1.0
outer loop
vertex 9.84702301025 3.82409930229 0.722000002861
vertex 9.86176681519 3.77230715752 0.722000062466
vertex 9.86691761017 3.82204127312 0.722000002861
endloop
endfacet
