solid 
facet normal 0.102914206684 -0.994690239429 1.32795975105e-07
outer loop
vertex 9.86694335938 -3.82203817368 -110.481002808
vertex 9.84704971313 -3.82409644127 -110.481002808
vertex 9.84704971313 -3.82409691811 -114.052001953
endloop
endfacet
facet normal 0.102902412415 -0.994691491127 1.99232431441e-07
outer loop
vertex 9.86694335938 -3.82203817368 -110.481002808
vertex 9.84704971313 -3.82409691811 -114.052001953
vertex 9.86694335938 -3.82203888893 -114.052001953
endloop
endfacet
facet normal 0.103114709258 -0.994669497013 1.99228026077e-07
outer loop
vertex 9.88683700562 -3.81997585297 -110.481002808
vertex 9.86694335938 -3.82203888893 -114.052001953
vertex 9.88683700562 -3.81997656822 -114.052001953
endloop
endfacet
facet normal 0.10335547477 -0.994644463062 1.99222995434e-07
outer loop
vertex 9.88683700562 -3.81997585297 -110.481002808
vertex 9.88683700562 -3.81997656822 -114.052001953
vertex 9.90672969818 -3.81790947914 -114.052001953
endloop
endfacet
facet normal 0.103114709258 -0.994669497013 1.9921527894e-07
outer loop
vertex 9.88683700562 -3.81997585297 -110.481002808
vertex 9.86694335938 -3.82203817368 -110.481002808
vertex 9.86694335938 -3.82203888893 -114.052001953
endloop
endfacet
facet normal 0.103343687952 -0.994645655155 1.3281550082e-07
outer loop
vertex 9.90672969818 -3.8179090023 -110.481002808
vertex 9.88683700562 -3.81997585297 -110.481002808
vertex 9.90672969818 -3.81790947914 -114.052001953
endloop
endfacet
facet normal 0.994634151459 0.103455036879 -1.3814398514e-08
outer loop
vertex 9.90672969818 -3.8179090023 -110.481002808
vertex 9.90672969818 -3.81790947914 -114.052001953
vertex 9.90155696869 -3.76817798615 -114.052001953
endloop
endfacet
facet normal 0.994634151459 0.10345454514 -2.07214991832e-08
outer loop
vertex 9.90155696869 -3.76817727089 -110.481002808
vertex 9.90672969818 -3.8179090023 -110.481002808
vertex 9.90155696869 -3.76817798615 -114.052001953
endloop
endfacet
facet normal -0.102902010083 0.994691550732 -1.71760888179e-07
outer loop
vertex 9.84191036224 -3.77436184883 -114.052001953
vertex 9.86179351807 -3.77230429649 -110.481002808
vertex 9.86179256439 -3.77230501175 -114.052001953
endloop
endfacet
facet normal -0.103121332824 0.994668781757 -1.71688199657e-07
outer loop
vertex 9.86179256439 -3.77230501175 -114.052001953
vertex 9.86179351807 -3.77230429649 -110.481002808
vertex 9.88167572021 -3.77024364471 -114.052001953
endloop
endfacet
facet normal -0.102897122502 0.994692027569 -1.99232530917e-07
outer loop
vertex 9.84191036224 -3.77436113358 -110.481002808
vertex 9.86179351807 -3.77230429649 -110.481002808
vertex 9.84191036224 -3.77436184883 -114.052001953
endloop
endfacet
facet normal -0.10334353894 0.99464571476 -1.99223251229e-07
outer loop
vertex 9.88167572021 -3.77024364471 -114.052001953
vertex 9.88167572021 -3.77024292946 -110.481002808
vertex 9.90155696869 -3.76817798615 -114.052001953
endloop
endfacet
facet normal -0.103126235306 0.99466830492 -1.99227784492e-07
outer loop
vertex 9.86179351807 -3.77230429649 -110.481002808
vertex 9.88167572021 -3.77024292946 -110.481002808
vertex 9.88167572021 -3.77024364471 -114.052001953
endloop
endfacet
facet normal -0.10334353894 0.99464571476 -1.99181840799e-07
outer loop
vertex 9.88167572021 -3.77024292946 -110.481002808
vertex 9.90155696869 -3.76817727089 -110.481002808
vertex 9.90155696869 -3.76817798615 -114.052001953
endloop
endfacet
facet normal -0.994703471661 -0.102786749601 2.0538077905e-08
outer loop
vertex 9.84704971313 -3.82409644127 -110.481002808
vertex 9.84191036224 -3.77436113358 -110.481002808
vertex 9.84191036224 -3.77436184883 -114.052001953
endloop
endfacet
facet normal -0.994703412056 -0.102787233889 1.37252262888e-08
outer loop
vertex 9.84704971313 -3.82409644127 -110.481002808
vertex 9.84191036224 -3.77436184883 -114.052001953
vertex 9.84704971313 -3.82409691811 -114.052001953
endloop
endfacet
facet normal -0.0 0.0 1.0
outer loop
vertex 9.88167572021 -3.77024292946 -110.481002808
vertex 9.90672969818 -3.8179090023 -110.481002808
vertex 9.90155696869 -3.76817727089 -110.481002808
endloop
endfacet
facet normal -0.0 0.0 1.0
outer loop
vertex 9.86179351807 -3.77230429649 -110.481002808
vertex 9.88683700562 -3.81997585297 -110.481002808
vertex 9.88167572021 -3.77024292946 -110.481002808
endloop
endfacet
facet normal 0.0 0.0 1.0
outer loop
vertex 9.88167572021 -3.77024292946 -110.481002808
vertex 9.88683700562 -3.81997585297 -110.481002808
vertex 9.90672969818 -3.8179090023 -110.481002808
endloop
endfacet
facet normal -0.0 0.0 1.0
outer loop
vertex 9.84191036224 -3.77436113358 -110.481002808
vertex 9.86694335938 -3.82203817368 -110.481002808
vertex 9.86179351807 -3.77230429649 -110.481002808
endloop
endfacet
facet normal 0.0 0.0 1.0
outer loop
vertex 9.86179351807 -3.77230429649 -110.481002808
vertex 9.86694335938 -3.82203817368 -110.481002808
vertex 9.88683700562 -3.81997585297 -110.481002808
endloop
endfacet
facet normal 0.0 0.0 1.0
outer loop
vertex 9.84191036224 -3.77436113358 -110.481002808
vertex 9.84704971313 -3.82409644127 -110.481002808
vertex 9.86694335938 -3.82203817368 -110.481002808
endloop
endfacet
facet normal 0.0 0.0 -1.0
outer loop
vertex 9.90672969818 -3.81790947914 -114.052001953
vertex 9.88167572021 -3.77024364471 -114.052001953
vertex 9.90155696869 -3.76817798615 -114.052001953
endloop
endfacet
facet normal 0.0 0.0 -1.0
outer loop
vertex 9.88683700562 -3.81997656822 -114.052001953
vertex 9.88167572021 -3.77024364471 -114.052001953
vertex 9.90672969818 -3.81790947914 -114.052001953
endloop
endfacet
facet normal 0.0 0.0 -1.0
outer loop
vertex 9.86694335938 -3.82203888893 -114.052001953
vertex 9.86179256439 -3.77230501175 -114.052001953
vertex 9.88167572021 -3.77024364471 -114.052001953
endloop
endfacet
facet normal 0.0 0.0 -1.0
outer loop
vertex 9.86694335938 -3.82203888893 -114.052001953
vertex 9.88167572021 -3.77024364471 -114.052001953
vertex 9.88683700562 -3.81997656822 -114.052001953
endloop
endfacet
facet normal 0.0 0.0 -1.0
outer loop
vertex 9.84704971313 -3.82409691811 -114.052001953
vertex 9.84191036224 -3.77436184883 -114.052001953
vertex 9.86179256439 -3.77230501175 -114.052001953
endloop
endfacet
facet normal 0.0 0.0 -1.0
outer loop
vertex 9.84704971313 -3.82409691811 -114.052001953
vertex 9.86179256439 -3.77230501175 -114.052001953
vertex 9.86694335938 -3.82203888893 -114.052001953
endloop
endfacet
