solid 
facet normal -0.102232128382 -0.99476057291 0.0
outer loop
vertex -9.80724620819 -3.82820153236 -70.7200012207
vertex -9.7873506546 -3.8302462101 -70.7200012207
vertex -9.7873506546 -3.8302462101 -67.1490020752
endloop
endfacet
facet normal -0.1022439152 -0.994759321213 6.64153319008e-08
outer loop
vertex -9.80724620819 -3.82820153236 -70.7200012207
vertex -9.7873506546 -3.8302462101 -67.1490020752
vertex -9.80724620819 -3.82820129395 -67.1490020752
endloop
endfacet
facet normal -0.102461107075 -0.994736969471 6.64138468665e-08
outer loop
vertex -9.82714080811 -3.82615232468 -70.7200012207
vertex -9.80724620819 -3.82820129395 -67.1490020752
vertex -9.82714080811 -3.82615208626 -67.1490020752
endloop
endfacet
facet normal -0.10267342627 -0.994715094566 6.64123831484e-08
outer loop
vertex -9.82714080811 -3.82615232468 -70.7200012207
vertex -9.82714080811 -3.82615208626 -67.1490020752
vertex -9.84703540802 -3.82409858704 -67.1490020752
endloop
endfacet
facet normal -0.102461114526 -0.994736969471 6.63724577521e-08
outer loop
vertex -9.82714080811 -3.82615232468 -70.7200012207
vertex -9.80724620819 -3.82820153236 -70.7200012207
vertex -9.80724620819 -3.82820129395 -67.1490020752
endloop
endfacet
facet normal -0.10268522799 -0.994713962078 0.0
outer loop
vertex -9.84703540802 -3.82409858704 -70.7200012207
vertex -9.82714080811 -3.82615232468 -70.7200012207
vertex -9.84703540802 -3.82409858704 -67.1490020752
endloop
endfacet
facet normal -0.994701445103 0.102806098759 -6.84604462009e-09
outer loop
vertex -9.84703540802 -3.82409858704 -70.7200012207
vertex -9.84189510345 -3.77436327934 -67.1490020752
vertex -9.84189510345 -3.77436351776 -70.7200012207
endloop
endfacet
facet normal -0.994701445103 0.102805607021 0.0
outer loop
vertex -9.84703540802 -3.82409858704 -67.1490020752
vertex -9.84189510345 -3.77436327934 -67.1490020752
vertex -9.84703540802 -3.82409858704 -70.7200012207
endloop
endfacet
facet normal 0.10223133862 0.99476069212 0.0
outer loop
vertex -9.78224468231 -3.78050756454 -67.1490020752
vertex -9.80212879181 -3.7784640789 -70.7200012207
vertex -9.80212879181 -3.7784640789 -67.1490020752
endloop
endfacet
facet normal 0.10224314034 0.994759440422 -6.64153390062e-08
outer loop
vertex -9.78224468231 -3.78050780296 -70.7200012207
vertex -9.80212879181 -3.7784640789 -70.7200012207
vertex -9.78224468231 -3.78050756454 -67.1490020752
endloop
endfacet
facet normal 0.102472253144 0.994735836983 -6.64105854753e-08
outer loop
vertex -9.80212879181 -3.7784640789 -67.1490020752
vertex -9.82201194763 -3.77641606331 -70.7200012207
vertex -9.82201194763 -3.77641582489 -67.1490020752
endloop
endfacet
facet normal 0.102684698999 0.994713962078 -6.64123049887e-08
outer loop
vertex -9.82201194763 -3.77641582489 -67.1490020752
vertex -9.82201194763 -3.77641606331 -70.7200012207
vertex -9.84189510345 -3.77436327934 -67.1490020752
endloop
endfacet
facet normal 0.102460451424 0.99473708868 -0.0
outer loop
vertex -9.80212879181 -3.7784640789 -70.7200012207
vertex -9.82201194763 -3.77641606331 -70.7200012207
vertex -9.80212879181 -3.7784640789 -67.1490020752
endloop
endfacet
facet normal 0.102684698999 0.994713962078 -6.64091217573e-08
outer loop
vertex -9.82201194763 -3.77641606331 -70.7200012207
vertex -9.84189510345 -3.77436351776 -70.7200012207
vertex -9.84189510345 -3.77436327934 -67.1490020752
endloop
endfacet
facet normal 0.994772076607 -0.102119848132 6.81805545355e-09
outer loop
vertex -9.78224468231 -3.78050780296 -70.7200012207
vertex -9.78224468231 -3.78050756454 -67.1490020752
vertex -9.7873506546 -3.8302462101 -70.7200012207
endloop
endfacet
facet normal 0.994772195816 -0.102119371295 0.0
outer loop
vertex -9.78224468231 -3.78050756454 -67.1490020752
vertex -9.7873506546 -3.8302462101 -67.1490020752
vertex -9.7873506546 -3.8302462101 -70.7200012207
endloop
endfacet
facet normal 0.0 0.0 1.0
outer loop
vertex -9.84703540802 -3.82409858704 -67.1490020752
vertex -9.82201194763 -3.77641582489 -67.1490020752
vertex -9.84189510345 -3.77436327934 -67.1490020752
endloop
endfacet
facet normal 0.0 -0.0 1.0
outer loop
vertex -9.82714080811 -3.82615208626 -67.1490020752
vertex -9.82201194763 -3.77641582489 -67.1490020752
vertex -9.84703540802 -3.82409858704 -67.1490020752
endloop
endfacet
facet normal 0.0 -0.0 1.0
outer loop
vertex -9.80724620819 -3.82820129395 -67.1490020752
vertex -9.80212879181 -3.7784640789 -67.1490020752
vertex -9.82201194763 -3.77641582489 -67.1490020752
endloop
endfacet
facet normal 0.0 0.0 1.0
outer loop
vertex -9.80724620819 -3.82820129395 -67.1490020752
vertex -9.82201194763 -3.77641582489 -67.1490020752
vertex -9.82714080811 -3.82615208626 -67.1490020752
endloop
endfacet
facet normal 0.0 -0.0 1.0
outer loop
vertex -9.7873506546 -3.8302462101 -67.1490020752
vertex -9.78224468231 -3.78050756454 -67.1490020752
vertex -9.80212879181 -3.7784640789 -67.1490020752
endloop
endfacet
facet normal 0.0 0.0 1.0
outer loop
vertex -9.7873506546 -3.8302462101 -67.1490020752
vertex -9.80212879181 -3.7784640789 -67.1490020752
vertex -9.80724620819 -3.82820129395 -67.1490020752
endloop
endfacet
facet normal -0.0 0.0 -1.0
outer loop
vertex -9.82201194763 -3.77641606331 -70.7200012207
vertex -9.84703540802 -3.82409858704 -70.7200012207
vertex -9.84189510345 -3.77436351776 -70.7200012207
endloop
endfacet
facet normal -0.0 0.0 -1.0
outer loop
vertex -9.80212879181 -3.7784640789 -70.7200012207
vertex -9.82714080811 -3.82615232468 -70.7200012207
vertex -9.82201194763 -3.77641606331 -70.7200012207
endloop
endfacet
facet normal 0.0 0.0 -1.0
outer loop
vertex -9.82201194763 -3.77641606331 -70.7200012207
vertex -9.82714080811 -3.82615232468 -70.7200012207
vertex -9.84703540802 -3.82409858704 -70.7200012207
endloop
endfacet
facet normal -0.0 0.0 -1.0
outer loop
vertex -9.78224468231 -3.78050780296 -70.7200012207
vertex -9.80724620819 -3.82820153236 -70.7200012207
vertex -9.80212879181 -3.7784640789 -70.7200012207
endloop
endfacet
facet normal 0.0 0.0 -1.0
outer loop
vertex -9.80212879181 -3.7784640789 -70.7200012207
vertex -9.80724620819 -3.82820153236 -70.7200012207
vertex -9.82714080811 -3.82615232468 -70.7200012207
endloop
endfacet
facet normal 0.0 0.0 -1.0
outer loop
vertex -9.78224468231 -3.78050780296 -70.7200012207
vertex -9.7873506546 -3.8302462101 -70.7200012207
vertex -9.80724620819 -3.82820153236 -70.7200012207
endloop
endfacet
