solid 
facet normal -0.102902412415 0.994691491127 -1.99232431441e-07
outer loop
vertex -9.84704971313 3.82409715652 109.052001953
vertex -9.84704971313 3.82409644127 105.481002808
vertex -9.86694335938 3.82203841209 105.481002808
endloop
endfacet
facet normal -0.103126503527 0.994668245316 -1.99227770281e-07
outer loop
vertex -9.86694335938 3.82203912735 109.052001953
vertex -9.86694335938 3.82203841209 105.481002808
vertex -9.88683700562 3.81997585297 105.481002808
endloop
endfacet
facet normal -0.102902412415 0.994691491127 -1.99232431441e-07
outer loop
vertex -9.86694335938 3.82203912735 109.052001953
vertex -9.84704971313 3.82409715652 109.052001953
vertex -9.86694335938 3.82203841209 105.481002808
endloop
endfacet
facet normal -0.103126503527 0.994668245316 -1.99227770281e-07
outer loop
vertex -9.88683700562 3.81997656822 109.052001953
vertex -9.86694335938 3.82203912735 109.052001953
vertex -9.88683700562 3.81997585297 105.481002808
endloop
endfacet
facet normal -0.103343687952 0.994645655155 -1.99223251229e-07
outer loop
vertex -9.90672969818 3.81790971756 109.052001953
vertex -9.88683700562 3.81997585297 105.481002808
vertex -9.90672969818 3.8179090023 105.481002808
endloop
endfacet
facet normal -0.103343687952 0.994645655155 -1.99220067998e-07
outer loop
vertex -9.90672969818 3.81790971756 109.052001953
vertex -9.88683700562 3.81997656822 109.052001953
vertex -9.88683700562 3.81997585297 105.481002808
endloop
endfacet
facet normal -0.994634151459 -0.10345454514 2.07214991832e-08
outer loop
vertex -9.90672969818 3.81790971756 109.052001953
vertex -9.90672969818 3.8179090023 105.481002808
vertex -9.90155696869 3.76817798615 109.052001953
endloop
endfacet
facet normal -0.994634151459 -0.10345454514 2.07011243702e-08
outer loop
vertex -9.90672969818 3.8179090023 105.481002808
vertex -9.90155696869 3.76817727089 105.481002808
vertex -9.90155696869 3.76817798615 109.052001953
endloop
endfacet
facet normal 0.102902010083 -0.994691550732 1.99232445652e-07
outer loop
vertex -9.84191036224 3.77436137199 105.481002808
vertex -9.84191036224 3.77436208725 109.052001953
vertex -9.86179256439 3.77230453491 105.481002808
endloop
endfacet
facet normal 0.102913804352 -0.994690299034 1.32821455168e-07
outer loop
vertex -9.84191036224 3.77436208725 109.052001953
vertex -9.86179256439 3.77230501175 109.052001953
vertex -9.86179256439 3.77230453491 105.481002808
endloop
endfacet
facet normal 0.103121332824 -0.994668781757 1.99218320063e-07
outer loop
vertex -9.86179256439 3.77230453491 105.481002808
vertex -9.88167572021 3.77024388313 109.052001953
vertex -9.88167572021 3.77024316788 105.481002808
endloop
endfacet
facet normal 0.103355333209 -0.994644463062 1.99223009645e-07
outer loop
vertex -9.88167572021 3.77024316788 105.481002808
vertex -9.88167572021 3.77024388313 109.052001953
vertex -9.90155696869 3.76817727089 105.481002808
endloop
endfacet
facet normal 0.103109531105 -0.994670033455 1.32818755105e-07
outer loop
vertex -9.86179256439 3.77230501175 109.052001953
vertex -9.88167572021 3.77024388313 109.052001953
vertex -9.86179256439 3.77230453491 105.481002808
endloop
endfacet
facet normal 0.103355333209 -0.994644463062 1.99232559339e-07
outer loop
vertex -9.88167572021 3.77024388313 109.052001953
vertex -9.90155696869 3.76817798615 109.052001953
vertex -9.90155696869 3.76817727089 105.481002808
endloop
endfacet
facet normal 0.994703412056 0.102787233889 -2.05381756047e-08
outer loop
vertex -9.84191036224 3.77436208725 109.052001953
vertex -9.84704971313 3.82409644127 105.481002808
vertex -9.84704971313 3.82409715652 109.052001953
endloop
endfacet
facet normal 0.994703412056 0.102787233889 -2.05878389892e-08
outer loop
vertex -9.84191036224 3.77436137199 105.481002808
vertex -9.84704971313 3.82409644127 105.481002808
vertex -9.84191036224 3.77436208725 109.052001953
endloop
endfacet
facet normal 0.0 0.0 -1.0
outer loop
vertex -9.90672969818 3.8179090023 105.481002808
vertex -9.88167572021 3.77024316788 105.481002808
vertex -9.90155696869 3.76817727089 105.481002808
endloop
endfacet
facet normal 0.0 0.0 -1.0
outer loop
vertex -9.88683700562 3.81997585297 105.481002808
vertex -9.86179256439 3.77230453491 105.481002808
vertex -9.88167572021 3.77024316788 105.481002808
endloop
endfacet
facet normal 0.0 -0.0 -1.0
outer loop
vertex -9.88683700562 3.81997585297 105.481002808
vertex -9.88167572021 3.77024316788 105.481002808
vertex -9.90672969818 3.8179090023 105.481002808
endloop
endfacet
facet normal 0.0 -0.0 -1.0
outer loop
vertex -9.86694335938 3.82203841209 105.481002808
vertex -9.86179256439 3.77230453491 105.481002808
vertex -9.88683700562 3.81997585297 105.481002808
endloop
endfacet
facet normal 0.0 -0.0 -1.0
outer loop
vertex -9.84704971313 3.82409644127 105.481002808
vertex -9.84191036224 3.77436137199 105.481002808
vertex -9.86179256439 3.77230453491 105.481002808
endloop
endfacet
facet normal 0.0 0.0 -1.0
outer loop
vertex -9.84704971313 3.82409644127 105.481002808
vertex -9.86179256439 3.77230453491 105.481002808
vertex -9.86694335938 3.82203841209 105.481002808
endloop
endfacet
facet normal 0.0 0.0 1.0
outer loop
vertex -9.88167572021 3.77024388313 109.052001953
vertex -9.90672969818 3.81790971756 109.052001953
vertex -9.90155696869 3.76817798615 109.052001953
endloop
endfacet
facet normal 0.0 0.0 1.0
outer loop
vertex -9.88167572021 3.77024388313 109.052001953
vertex -9.88683700562 3.81997656822 109.052001953
vertex -9.90672969818 3.81790971756 109.052001953
endloop
endfacet
facet normal 0.0 0.0 1.0
outer loop
vertex -9.86179256439 3.77230501175 109.052001953
vertex -9.86694335938 3.82203912735 109.052001953
vertex -9.88167572021 3.77024388313 109.052001953
endloop
endfacet
facet normal 0.0 -0.0 1.0
outer loop
vertex -9.88167572021 3.77024388313 109.052001953
vertex -9.86694335938 3.82203912735 109.052001953
vertex -9.88683700562 3.81997656822 109.052001953
endloop
endfacet
facet normal 0.0 0.0 1.0
outer loop
vertex -9.84191036224 3.77436208725 109.052001953
vertex -9.84704971313 3.82409715652 109.052001953
vertex -9.86179256439 3.77230501175 109.052001953
endloop
endfacet
facet normal 0.0 -0.0 1.0
outer loop
vertex -9.86179256439 3.77230501175 109.052001953
vertex -9.84704971313 3.82409715652 109.052001953
vertex -9.86694335938 3.82203912735 109.052001953
endloop
endfacet
