solid 
facet normal -0.102236971259 0.994760036469 0.0
outer loop
vertex -9.80722999573 3.82820272446 11.5550003052
vertex -9.78733539581 3.83024740219 11.5550003052
vertex -9.78733539581 3.83024740219 7.98400020599
endloop
endfacet
facet normal -0.102248772979 0.99475890398 -6.64152892682e-08
outer loop
vertex -9.80722999573 3.82820272446 11.5550003052
vertex -9.78733539581 3.83024740219 7.98400020599
vertex -9.80722999573 3.82820248604 7.98400020599
endloop
endfacet
facet normal -0.102456256747 0.994737565517 0.0
outer loop
vertex -9.82712554932 3.82615327835 11.5550003052
vertex -9.80722999573 3.82820248604 7.98400020599
vertex -9.82712554932 3.82615327835 7.98400020599
endloop
endfacet
facet normal -0.102690093219 0.994713366032 0.0
outer loop
vertex -9.82712554932 3.82615327835 11.5550003052
vertex -9.82712554932 3.82615327835 7.98400020599
vertex -9.84701919556 3.82409954071 7.98400020599
endloop
endfacet
facet normal -0.102468043566 0.99473631382 -6.64201493805e-08
outer loop
vertex -9.82712554932 3.82615327835 11.5550003052
vertex -9.80722999573 3.82820272446 11.5550003052
vertex -9.80722999573 3.82820248604 7.98400020599
endloop
endfacet
facet normal -0.10267829895 0.994714617729 -6.64123334104e-08
outer loop
vertex -9.84701919556 3.82409977913 11.5550003052
vertex -9.82712554932 3.82615327835 11.5550003052
vertex -9.84701919556 3.82409954071 7.98400020599
endloop
endfacet
facet normal -0.994703412056 -0.102787233889 6.86261136806e-09
outer loop
vertex -9.84701919556 3.82409977913 11.5550003052
vertex -9.84701919556 3.82409954071 7.98400020599
vertex -9.84187984467 3.77436470985 11.5550003052
endloop
endfacet
facet normal -0.994703412056 -0.102787233889 6.8460566105e-09
outer loop
vertex -9.84701919556 3.82409954071 7.98400020599
vertex -9.84187984467 3.77436447144 7.98400020599
vertex -9.84187984467 3.77436470985 11.5550003052
endloop
endfacet
facet normal 0.10224314779 -0.994759440422 6.64599184574e-08
outer loop
vertex -9.78222846985 3.78050875664 7.98400020599
vertex -9.80211257935 3.778465271 11.5550003052
vertex -9.80211257935 3.77846503258 7.98400020599
endloop
endfacet
facet normal 0.10224314779 -0.994759440422 6.64153247953e-08
outer loop
vertex -9.78222846985 3.78050899506 11.5550003052
vertex -9.80211257935 3.778465271 11.5550003052
vertex -9.78222846985 3.78050875664 7.98400020599
endloop
endfacet
facet normal 0.102455578744 -0.994737565517 0.0
outer loop
vertex -9.80211257935 3.77846503258 7.98400020599
vertex -9.82199668884 3.77641701698 11.5550003052
vertex -9.82199668884 3.77641701698 7.98400020599
endloop
endfacet
facet normal 0.102684691548 -0.994713962078 0.0
outer loop
vertex -9.82199668884 3.77641701698 7.98400020599
vertex -9.82199668884 3.77641701698 11.5550003052
vertex -9.84187984467 3.77436447144 7.98400020599
endloop
endfacet
facet normal 0.102467380464 -0.99473631382 6.64137829176e-08
outer loop
vertex -9.80211257935 3.778465271 11.5550003052
vertex -9.82199668884 3.77641701698 11.5550003052
vertex -9.80211257935 3.77846503258 7.98400020599
endloop
endfacet
facet normal 0.102672882378 -0.994715154171 6.64091857061e-08
outer loop
vertex -9.82199668884 3.77641701698 11.5550003052
vertex -9.84187984467 3.77436470985 11.5550003052
vertex -9.84187984467 3.77436447144 7.98400020599
endloop
endfacet
facet normal 0.994770169258 0.102138727903 -6.81931400237e-09
outer loop
vertex -9.78222846985 3.78050899506 11.5550003052
vertex -9.78222846985 3.78050875664 7.98400020599
vertex -9.78733539581 3.83024740219 11.5550003052
endloop
endfacet
facet normal 0.994770228863 0.102138236165 0.0
outer loop
vertex -9.78222846985 3.78050875664 7.98400020599
vertex -9.78733539581 3.83024740219 7.98400020599
vertex -9.78733539581 3.83024740219 11.5550003052
endloop
endfacet
facet normal 0.0 0.0 -1.0
outer loop
vertex -9.84701919556 3.82409954071 7.98400020599
vertex -9.82199668884 3.77641701698 7.98400020599
vertex -9.84187984467 3.77436447144 7.98400020599
endloop
endfacet
facet normal 0.0 0.0 -1.0
outer loop
vertex -9.82712554932 3.82615327835 7.98400020599
vertex -9.80211257935 3.77846503258 7.98400020599
vertex -9.82199668884 3.77641701698 7.98400020599
endloop
endfacet
facet normal 0.0 -0.0 -1.0
outer loop
vertex -9.82712554932 3.82615327835 7.98400020599
vertex -9.82199668884 3.77641701698 7.98400020599
vertex -9.84701919556 3.82409954071 7.98400020599
endloop
endfacet
facet normal 0.0 -0.0 -1.0
outer loop
vertex -9.80722999573 3.82820248604 7.98400020599
vertex -9.80211257935 3.77846503258 7.98400020599
vertex -9.82712554932 3.82615327835 7.98400020599
endloop
endfacet
facet normal 0.0 -0.0 -1.0
outer loop
vertex -9.78733539581 3.83024740219 7.98400020599
vertex -9.78222846985 3.78050875664 7.98400020599
vertex -9.80211257935 3.77846503258 7.98400020599
endloop
endfacet
facet normal 0.0 0.0 -1.0
outer loop
vertex -9.78733539581 3.83024740219 7.98400020599
vertex -9.80211257935 3.77846503258 7.98400020599
vertex -9.80722999573 3.82820248604 7.98400020599
endloop
endfacet
facet normal 0.0 0.0 1.0
outer loop
vertex -9.82199668884 3.77641701698 11.5550003052
vertex -9.84701919556 3.82409977913 11.5550003052
vertex -9.84187984467 3.77436470985 11.5550003052
endloop
endfacet
facet normal 0.0 0.0 1.0
outer loop
vertex -9.82199668884 3.77641701698 11.5550003052
vertex -9.82712554932 3.82615327835 11.5550003052
vertex -9.84701919556 3.82409977913 11.5550003052
endloop
endfacet
facet normal 0.0 0.0 1.0
outer loop
vertex -9.80211257935 3.778465271 11.5550003052
vertex -9.80722999573 3.82820272446 11.5550003052
vertex -9.82199668884 3.77641701698 11.5550003052
endloop
endfacet
facet normal 0.0 -0.0 1.0
outer loop
vertex -9.82199668884 3.77641701698 11.5550003052
vertex -9.80722999573 3.82820272446 11.5550003052
vertex -9.82712554932 3.82615327835 11.5550003052
endloop
endfacet
facet normal 0.0 0.0 1.0
outer loop
vertex -9.78222846985 3.78050899506 11.5550003052
vertex -9.78733539581 3.83024740219 11.5550003052
vertex -9.80211257935 3.778465271 11.5550003052
endloop
endfacet
facet normal 0.0 -0.0 1.0
outer loop
vertex -9.80211257935 3.778465271 11.5550003052
vertex -9.78733539581 3.83024740219 11.5550003052
vertex -9.80722999573 3.82820272446 11.5550003052
endloop
endfacet
