solid 
facet normal -0.102902404964 0.994691491127 -1.99219627461e-07
outer loop
vertex -9.86692237854 3.8220410347 18.797000885
vertex -9.8470287323 3.82409906387 18.797000885
vertex -9.8470287323 3.82409834862 15.2260007858
endloop
endfacet
facet normal -0.102902404964 0.994691491127 -1.99232360387e-07
outer loop
vertex -9.86692237854 3.8220410347 18.797000885
vertex -9.8470287323 3.82409834862 15.2260007858
vertex -9.86692237854 3.82204031944 15.2260007858
endloop
endfacet
facet normal -0.103126496077 0.994668245316 -2.65636941776e-07
outer loop
vertex -9.88681602478 3.81997871399 18.797000885
vertex -9.86692237854 3.82204031944 15.2260007858
vertex -9.88681602478 3.81997776031 15.2260007858
endloop
endfacet
facet normal -0.103114701807 0.994669497013 -1.992661538e-07
outer loop
vertex -9.88681602478 3.81997871399 18.797000885
vertex -9.86692237854 3.8220410347 18.797000885
vertex -9.86692237854 3.82204031944 15.2260007858
endloop
endfacet
facet normal -0.103343687952 0.994645774364 -2.65630944796e-07
outer loop
vertex -9.90670871735 3.81791186333 18.797000885
vertex -9.88681602478 3.81997776031 15.2260007858
vertex -9.90670871735 3.81791090965 15.2260007858
endloop
endfacet
facet normal -0.103343687952 0.994645774364 -2.65643677722e-07
outer loop
vertex -9.90670871735 3.81791186333 18.797000885
vertex -9.88681602478 3.81997871399 18.797000885
vertex -9.88681602478 3.81997776031 15.2260007858
endloop
endfacet
facet normal -0.994634270668 -0.103454552591 2.77101595003e-08
outer loop
vertex -9.90670871735 3.81791186333 18.797000885
vertex -9.90153598785 3.76817917824 15.2260007858
vertex -9.90153598785 3.76818013191 18.797000885
endloop
endfacet
facet normal -0.994634270668 -0.103454552591 2.76286584722e-08
outer loop
vertex -9.90670871735 3.81791090965 15.2260007858
vertex -9.90153598785 3.76817917824 15.2260007858
vertex -9.90670871735 3.81791186333 18.797000885
endloop
endfacet
facet normal 0.102908916771 -0.994690775871 2.65630234253e-07
outer loop
vertex -9.84188842773 3.77436327934 15.2260007858
vertex -9.86177158356 3.77230715752 18.797000885
vertex -9.86177158356 3.77230620384 15.2260007858
endloop
endfacet
facet normal 0.102897115052 -0.994692027569 1.99232474074e-07
outer loop
vertex -9.84188842773 3.7743639946 18.797000885
vertex -9.86177158356 3.77230715752 18.797000885
vertex -9.84188842773 3.77436327934 15.2260007858
endloop
endfacet
facet normal 0.103114411235 -0.994669437408 1.99227955022e-07
outer loop
vertex -9.86177158356 3.77230620384 15.2260007858
vertex -9.88165378571 3.77024579048 18.797000885
vertex -9.88165378571 3.77024507523 15.2260007858
endloop
endfacet
facet normal 0.103126227856 -0.99466830492 2.65636970198e-07
outer loop
vertex -9.86177158356 3.77230715752 18.797000885
vertex -9.88165378571 3.77024579048 18.797000885
vertex -9.86177158356 3.77230620384 15.2260007858
endloop
endfacet
facet normal 0.103350438178 -0.994645059109 2.65630745844e-07
outer loop
vertex -9.88165378571 3.77024507523 15.2260007858
vertex -9.90153598785 3.76818013191 18.797000885
vertex -9.90153598785 3.76817917824 15.2260007858
endloop
endfacet
facet normal 0.103338621557 -0.994646191597 1.99223293862e-07
outer loop
vertex -9.88165378571 3.77024579048 18.797000885
vertex -9.90153598785 3.76818013191 18.797000885
vertex -9.88165378571 3.77024507523 15.2260007858
endloop
endfacet
facet normal 0.994701445103 0.10280610621 -2.0538127643e-08
outer loop
vertex -9.84188842773 3.7743639946 18.797000885
vertex -9.8470287323 3.82409834862 15.2260007858
vertex -9.8470287323 3.82409906387 18.797000885
endloop
endfacet
facet normal 0.994701445103 0.10280610621 -2.05916137475e-08
outer loop
vertex -9.84188842773 3.77436327934 15.2260007858
vertex -9.8470287323 3.82409834862 15.2260007858
vertex -9.84188842773 3.7743639946 18.797000885
endloop
endfacet
facet normal 0.0 0.0 -1.0
outer loop
vertex -9.90670871735 3.81791090965 15.2260007858
vertex -9.88165378571 3.77024507523 15.2260007858
vertex -9.90153598785 3.76817917824 15.2260007858
endloop
endfacet
facet normal 0.0 0.0 -1.0
outer loop
vertex -9.88681602478 3.81997776031 15.2260007858
vertex -9.86177158356 3.77230620384 15.2260007858
vertex -9.88165378571 3.77024507523 15.2260007858
endloop
endfacet
facet normal 0.0 -0.0 -1.0
outer loop
vertex -9.88681602478 3.81997776031 15.2260007858
vertex -9.88165378571 3.77024507523 15.2260007858
vertex -9.90670871735 3.81791090965 15.2260007858
endloop
endfacet
facet normal 0.0 -0.0 -1.0
outer loop
vertex -9.86692237854 3.82204031944 15.2260007858
vertex -9.86177158356 3.77230620384 15.2260007858
vertex -9.88681602478 3.81997776031 15.2260007858
endloop
endfacet
facet normal 0.0 -0.0 -1.0
outer loop
vertex -9.8470287323 3.82409834862 15.2260007858
vertex -9.84188842773 3.77436327934 15.2260007858
vertex -9.86177158356 3.77230620384 15.2260007858
endloop
endfacet
facet normal 0.0 0.0 -1.0
outer loop
vertex -9.8470287323 3.82409834862 15.2260007858
vertex -9.86177158356 3.77230620384 15.2260007858
vertex -9.86692237854 3.82204031944 15.2260007858
endloop
endfacet
facet normal 0.0 0.0 1.0
outer loop
vertex -9.88165378571 3.77024579048 18.797000885
vertex -9.90670871735 3.81791186333 18.797000885
vertex -9.90153598785 3.76818013191 18.797000885
endloop
endfacet
facet normal 0.0 0.0 1.0
outer loop
vertex -9.86177158356 3.77230715752 18.797000885
vertex -9.88681602478 3.81997871399 18.797000885
vertex -9.88165378571 3.77024579048 18.797000885
endloop
endfacet
facet normal 0.0 0.0 1.0
outer loop
vertex -9.88165378571 3.77024579048 18.797000885
vertex -9.88681602478 3.81997871399 18.797000885
vertex -9.90670871735 3.81791186333 18.797000885
endloop
endfacet
facet normal 0.0 0.0 1.0
outer loop
vertex -9.84188842773 3.7743639946 18.797000885
vertex -9.86692237854 3.8220410347 18.797000885
vertex -9.86177158356 3.77230715752 18.797000885
endloop
endfacet
facet normal 0.0 0.0 1.0
outer loop
vertex -9.86177158356 3.77230715752 18.797000885
vertex -9.86692237854 3.8220410347 18.797000885
vertex -9.88681602478 3.81997871399 18.797000885
endloop
endfacet
facet normal 0.0 0.0 1.0
outer loop
vertex -9.84188842773 3.7743639946 18.797000885
vertex -9.8470287323 3.82409906387 18.797000885
vertex -9.86692237854 3.8220410347 18.797000885
endloop
endfacet
