solid 
facet normal 0.102248780429 -0.99475890398 -2.73034697074e-08
outer loop
vertex 9.80724048615 -3.82820177078 -45.483001709
vertex 9.78734588623 -3.83024668694 -45.483001709
vertex 9.78734493256 -3.83024668694 -49.0540008545
endloop
endfacet
facet normal 0.1022439152 -0.994759321213 0.0
outer loop
vertex 9.80724048615 -3.82820177078 -45.483001709
vertex 9.78734493256 -3.83024668694 -49.0540008545
vertex 9.80724048615 -3.82820177078 -49.0540008545
endloop
endfacet
facet normal 0.102461114526 -0.994736969471 0.0
outer loop
vertex 9.80724048615 -3.82820177078 -45.483001709
vertex 9.80724048615 -3.82820177078 -49.0540008545
vertex 9.82713508606 -3.8261525631 -49.0540008545
endloop
endfacet
facet normal 0.102461114526 -0.994736969471 0.0
outer loop
vertex 9.82713508606 -3.8261525631 -45.483001709
vertex 9.80724048615 -3.82820177078 -45.483001709
vertex 9.82713508606 -3.8261525631 -49.0540008545
endloop
endfacet
facet normal 0.10267342627 -0.994715094566 6.64123831484e-08
outer loop
vertex 9.84702968597 -3.82409882545 -45.483001709
vertex 9.82713508606 -3.8261525631 -49.0540008545
vertex 9.84702968597 -3.82409906387 -49.0540008545
endloop
endfacet
facet normal 0.10268522799 -0.994713962078 0.0
outer loop
vertex 9.84702968597 -3.82409882545 -45.483001709
vertex 9.82713508606 -3.8261525631 -45.483001709
vertex 9.82713508606 -3.8261525631 -49.0540008545
endloop
endfacet
facet normal 0.994703412056 0.102787233889 -6.84605838686e-09
outer loop
vertex 9.84189033508 -3.77436375618 -45.483001709
vertex 9.84702968597 -3.82409882545 -45.483001709
vertex 9.84702968597 -3.82409906387 -49.0540008545
endloop
endfacet
facet normal 0.994703471661 0.102786749601 0.0
outer loop
vertex 9.84189033508 -3.77436375618 -45.483001709
vertex 9.84702968597 -3.82409906387 -49.0540008545
vertex 9.84189033508 -3.77436375618 -49.0540008545
endloop
endfacet
facet normal -0.10223133862 0.99476069212 0.0
outer loop
vertex 9.78223896027 -3.78050804138 -49.0540008545
vertex 9.78223896027 -3.78050804138 -45.483001709
vertex 9.80212306976 -3.77846455574 -49.0540008545
endloop
endfacet
facet normal -0.10224314034 0.994759440422 -6.64599326683e-08
outer loop
vertex 9.78223896027 -3.78050804138 -45.483001709
vertex 9.80212306976 -3.77846431732 -45.483001709
vertex 9.80212306976 -3.77846455574 -49.0540008545
endloop
endfacet
facet normal -0.102467373013 0.99473631382 0.0
outer loop
vertex 9.80212306976 -3.77846455574 -49.0540008545
vertex 9.82200717926 -3.77641630173 -45.483001709
vertex 9.82200717926 -3.77641630173 -49.0540008545
endloop
endfacet
facet normal -0.102455578744 0.994737565517 -6.64138752882e-08
outer loop
vertex 9.80212306976 -3.77846431732 -45.483001709
vertex 9.82200717926 -3.77641630173 -45.483001709
vertex 9.80212306976 -3.77846455574 -49.0540008545
endloop
endfacet
facet normal -0.102684698999 0.994713962078 0.0
outer loop
vertex 9.82200717926 -3.77641630173 -49.0540008545
vertex 9.84189033508 -3.77436375618 -45.483001709
vertex 9.84189033508 -3.77436375618 -49.0540008545
endloop
endfacet
facet normal -0.102684698999 0.994713962078 0.0
outer loop
vertex 9.82200717926 -3.77641630173 -45.483001709
vertex 9.84189033508 -3.77436375618 -45.483001709
vertex 9.82200717926 -3.77641630173 -49.0540008545
endloop
endfacet
facet normal -0.994772195816 -0.102119371295 -0.0
outer loop
vertex 9.78223896027 -3.78050804138 -45.483001709
vertex 9.78223896027 -3.78050804138 -49.0540008545
vertex 9.78734493256 -3.83024668694 -49.0540008545
endloop
endfacet
facet normal -0.994770228863 -0.102138251066 2.65664255039e-07
outer loop
vertex 9.78734588623 -3.83024668694 -45.483001709
vertex 9.78223896027 -3.78050804138 -45.483001709
vertex 9.78734493256 -3.83024668694 -49.0540008545
endloop
endfacet
facet normal -0.0 0.0 1.0
outer loop
vertex 9.82200717926 -3.77641630173 -45.483001709
vertex 9.84702968597 -3.82409882545 -45.483001709
vertex 9.84189033508 -3.77436375618 -45.483001709
endloop
endfacet
facet normal 0.0 0.0 1.0
outer loop
vertex 9.82200717926 -3.77641630173 -45.483001709
vertex 9.82713508606 -3.8261525631 -45.483001709
vertex 9.84702968597 -3.82409882545 -45.483001709
endloop
endfacet
facet normal -0.0 0.0 1.0
outer loop
vertex 9.80212306976 -3.77846431732 -45.483001709
vertex 9.80724048615 -3.82820177078 -45.483001709
vertex 9.82200717926 -3.77641630173 -45.483001709
endloop
endfacet
facet normal 0.0 0.0 1.0
outer loop
vertex 9.82200717926 -3.77641630173 -45.483001709
vertex 9.80724048615 -3.82820177078 -45.483001709
vertex 9.82713508606 -3.8261525631 -45.483001709
endloop
endfacet
facet normal -0.0 0.0 1.0
outer loop
vertex 9.78223896027 -3.78050804138 -45.483001709
vertex 9.78734588623 -3.83024668694 -45.483001709
vertex 9.80212306976 -3.77846431732 -45.483001709
endloop
endfacet
facet normal 0.0 0.0 1.0
outer loop
vertex 9.80212306976 -3.77846431732 -45.483001709
vertex 9.78734588623 -3.83024668694 -45.483001709
vertex 9.80724048615 -3.82820177078 -45.483001709
endloop
endfacet
facet normal 0.0 0.0 -1.0
outer loop
vertex 9.84702968597 -3.82409906387 -49.0540008545
vertex 9.82200717926 -3.77641630173 -49.0540008545
vertex 9.84189033508 -3.77436375618 -49.0540008545
endloop
endfacet
facet normal 0.0 0.0 -1.0
outer loop
vertex 9.82713508606 -3.8261525631 -49.0540008545
vertex 9.80212306976 -3.77846455574 -49.0540008545
vertex 9.82200717926 -3.77641630173 -49.0540008545
endloop
endfacet
facet normal 0.0 0.0 -1.0
outer loop
vertex 9.82713508606 -3.8261525631 -49.0540008545
vertex 9.82200717926 -3.77641630173 -49.0540008545
vertex 9.84702968597 -3.82409906387 -49.0540008545
endloop
endfacet
facet normal 0.0 0.0 -1.0
outer loop
vertex 9.80724048615 -3.82820177078 -49.0540008545
vertex 9.80212306976 -3.77846455574 -49.0540008545
vertex 9.82713508606 -3.8261525631 -49.0540008545
endloop
endfacet
facet normal 0.0 0.0 -1.0
outer loop
vertex 9.78734493256 -3.83024668694 -49.0540008545
vertex 9.78223896027 -3.78050804138 -49.0540008545
vertex 9.80212306976 -3.77846455574 -49.0540008545
endloop
endfacet
facet normal 0.0 0.0 -1.0
outer loop
vertex 9.78734493256 -3.83024668694 -49.0540008545
vertex 9.80212306976 -3.77846455574 -49.0540008545
vertex 9.80724048615 -3.82820177078 -49.0540008545
endloop
endfacet
