solid 
facet normal 0.1022439152 0.994759321213 0.0
outer loop
vertex 9.8072309494 3.82820248604 4.39300012589
vertex 9.78733539581 3.83024740219 4.39300012589
vertex 9.78733539581 3.83024740219 7.96399974823
endloop
endfacet
facet normal 0.102236971259 0.994760036469 -3.91118746279e-08
outer loop
vertex 9.8072309494 3.82820248604 4.39300012589
vertex 9.78733539581 3.83024740219 7.96399974823
vertex 9.80722999573 3.82820272446 7.96399974823
endloop
endfacet
facet normal 0.102456241846 0.994737446308 -6.64138610773e-08
outer loop
vertex 9.82712554932 3.82615327835 4.39300012589
vertex 9.80722999573 3.82820272446 7.96399974823
vertex 9.82712554932 3.82615351677 7.96399974823
endloop
endfacet
facet normal 0.102461099625 0.994736969471 -3.90186443155e-08
outer loop
vertex 9.82712554932 3.82615327835 4.39300012589
vertex 9.8072309494 3.82820248604 4.39300012589
vertex 9.80722999573 3.82820272446 7.96399974823
endloop
endfacet
facet normal 0.102690093219 0.994713366032 -6.64122552507e-08
outer loop
vertex 9.84701919556 3.82409954071 4.39300012589
vertex 9.82712554932 3.82615351677 7.96399974823
vertex 9.84701919556 3.82409977913 7.96399974823
endloop
endfacet
facet normal 0.102690085769 0.994713366032 -6.64249881765e-08
outer loop
vertex 9.84701919556 3.82409954071 4.39300012589
vertex 9.82712554932 3.82615327835 4.39300012589
vertex 9.82712554932 3.82615351677 7.96399974823
endloop
endfacet
facet normal 0.994703352451 -0.102787218988 6.86261136806e-09
outer loop
vertex 9.84701919556 3.82409954071 4.39300012589
vertex 9.84701919556 3.82409977913 7.96399974823
vertex 9.84187984467 3.77436470985 7.96399974823
endloop
endfacet
facet normal 0.994703352451 -0.102787218988 6.86261136806e-09
outer loop
vertex 9.84187984467 3.77436447144 4.39300012589
vertex 9.84701919556 3.82409954071 4.39300012589
vertex 9.84187984467 3.77436470985 7.96399974823
endloop
endfacet
facet normal -0.10224314034 -0.994759440422 6.64153319008e-08
outer loop
vertex 9.78222846985 3.78050899506 7.96399974823
vertex 9.78222846985 3.78050875664 4.39300012589
vertex 9.80211257935 3.778465271 7.96399974823
endloop
endfacet
facet normal -0.102467387915 -0.994736433029 6.64137971285e-08
outer loop
vertex 9.80211257935 3.778465271 7.96399974823
vertex 9.80211257935 3.77846503258 4.39300012589
vertex 9.82199668884 3.77641701698 7.96399974823
endloop
endfacet
facet normal -0.10224314034 -0.994759440422 6.64599255629e-08
outer loop
vertex 9.78222846985 3.78050875664 4.39300012589
vertex 9.80211257935 3.77846503258 4.39300012589
vertex 9.80211257935 3.778465271 7.96399974823
endloop
endfacet
facet normal -0.102455578744 -0.994737565517 0.0
outer loop
vertex 9.80211257935 3.77846503258 4.39300012589
vertex 9.82199668884 3.77641701698 4.39300012589
vertex 9.82199668884 3.77641701698 7.96399974823
endloop
endfacet
facet normal -0.102672882378 -0.994715154171 6.64091928115e-08
outer loop
vertex 9.82199668884 3.77641701698 7.96399974823
vertex 9.84187984467 3.77436447144 4.39300012589
vertex 9.84187984467 3.77436470985 7.96399974823
endloop
endfacet
facet normal -0.102684684098 -0.994713962078 0.0
outer loop
vertex 9.82199668884 3.77641701698 4.39300012589
vertex 9.84187984467 3.77436447144 4.39300012589
vertex 9.82199668884 3.77641701698 7.96399974823
endloop
endfacet
facet normal -0.994770109653 0.102138720453 -6.81931400237e-09
outer loop
vertex 9.78222846985 3.78050875664 4.39300012589
vertex 9.78222846985 3.78050899506 7.96399974823
vertex 9.78733539581 3.83024740219 7.96399974823
endloop
endfacet
facet normal -0.994770228863 0.102138243616 0.0
outer loop
vertex 9.78733539581 3.83024740219 4.39300012589
vertex 9.78222846985 3.78050875664 4.39300012589
vertex 9.78733539581 3.83024740219 7.96399974823
endloop
endfacet
facet normal 0.0 0.0 -1.0
outer loop
vertex 9.82199668884 3.77641701698 4.39300012589
vertex 9.84701919556 3.82409954071 4.39300012589
vertex 9.84187984467 3.77436447144 4.39300012589
endloop
endfacet
facet normal 0.0 0.0 -1.0
outer loop
vertex 9.82199668884 3.77641701698 4.39300012589
vertex 9.82712554932 3.82615327835 4.39300012589
vertex 9.84701919556 3.82409954071 4.39300012589
endloop
endfacet
facet normal 0.0 0.0 -1.0
outer loop
vertex 9.80211257935 3.77846503258 4.39300012589
vertex 9.8072309494 3.82820248604 4.39300012589
vertex 9.82199668884 3.77641701698 4.39300012589
endloop
endfacet
facet normal 0.0 0.0 -1.0
outer loop
vertex 9.82199668884 3.77641701698 4.39300012589
vertex 9.8072309494 3.82820248604 4.39300012589
vertex 9.82712554932 3.82615327835 4.39300012589
endloop
endfacet
facet normal 0.0 0.0 -1.0
outer loop
vertex 9.78222846985 3.78050875664 4.39300012589
vertex 9.78733539581 3.83024740219 4.39300012589
vertex 9.80211257935 3.77846503258 4.39300012589
endloop
endfacet
facet normal 0.0 0.0 -1.0
outer loop
vertex 9.80211257935 3.77846503258 4.39300012589
vertex 9.78733539581 3.83024740219 4.39300012589
vertex 9.8072309494 3.82820248604 4.39300012589
endloop
endfacet
facet normal 0.0 0.0 1.0
outer loop
vertex 9.84701919556 3.82409977913 7.96399974823
vertex 9.82199668884 3.77641701698 7.96399974823
vertex 9.84187984467 3.77436470985 7.96399974823
endloop
endfacet
facet normal 0.0 0.0 1.0
outer loop
vertex 9.82712554932 3.82615351677 7.96399974823
vertex 9.82199668884 3.77641701698 7.96399974823
vertex 9.84701919556 3.82409977913 7.96399974823
endloop
endfacet
facet normal 0.0 0.0 1.0
outer loop
vertex 9.80722999573 3.82820272446 7.96399974823
vertex 9.80211257935 3.778465271 7.96399974823
vertex 9.82199668884 3.77641701698 7.96399974823
endloop
endfacet
facet normal 0.0 0.0 1.0
outer loop
vertex 9.80722999573 3.82820272446 7.96399974823
vertex 9.82199668884 3.77641701698 7.96399974823
vertex 9.82712554932 3.82615351677 7.96399974823
endloop
endfacet
facet normal 0.0 0.0 1.0
outer loop
vertex 9.78733539581 3.83024740219 7.96399974823
vertex 9.78222846985 3.78050899506 7.96399974823
vertex 9.80211257935 3.778465271 7.96399974823
endloop
endfacet
facet normal 0.0 0.0 1.0
outer loop
vertex 9.78733539581 3.83024740219 7.96399974823
vertex 9.80211257935 3.778465271 7.96399974823
vertex 9.80722999573 3.82820272446 7.96399974823
endloop
endfacet
