solid 
facet normal -0.102232128382 0.99476057291 0.0
outer loop
vertex -9.80725669861 3.82820010185 119.885002136
vertex -9.78736114502 3.83024477959 119.885002136
vertex -9.78736114502 3.83024477959 116.314002991
endloop
endfacet
facet normal -0.102232128382 0.99476057291 0.0
outer loop
vertex -9.80725669861 3.82820010185 119.885002136
vertex -9.78736114502 3.83024477959 116.314002991
vertex -9.80725669861 3.82820010185 116.314002991
endloop
endfacet
facet normal -0.102461114526 0.994736969471 0.0
outer loop
vertex -9.82715129852 3.82615089417 119.885002136
vertex -9.80725669861 3.82820010185 116.314002991
vertex -9.82715129852 3.82615089417 116.314002991
endloop
endfacet
facet normal -0.10268522799 0.994713962078 0.0
outer loop
vertex -9.82715129852 3.82615089417 119.885002136
vertex -9.82715129852 3.82615089417 116.314002991
vertex -9.84704589844 3.82409715652 116.314002991
endloop
endfacet
facet normal -0.102461114526 0.994736969471 0.0
outer loop
vertex -9.82715129852 3.82615089417 119.885002136
vertex -9.80725669861 3.82820010185 119.885002136
vertex -9.80725669861 3.82820010185 116.314002991
endloop
endfacet
facet normal -0.10268522799 0.994713962078 0.0
outer loop
vertex -9.84704589844 3.82409715652 119.885002136
vertex -9.82715129852 3.82615089417 119.885002136
vertex -9.84704589844 3.82409715652 116.314002991
endloop
endfacet
facet normal -0.994701445103 -0.102806098759 -0.0
outer loop
vertex -9.84704589844 3.82409715652 119.885002136
vertex -9.84704589844 3.82409715652 116.314002991
vertex -9.84190559387 3.77436208725 119.885002136
endloop
endfacet
facet normal -0.994703412056 -0.102787233889 2.65692250423e-07
outer loop
vertex -9.84704589844 3.82409715652 116.314002991
vertex -9.84190654755 3.77436208725 116.314002991
vertex -9.84190559387 3.77436208725 119.885002136
endloop
endfacet
facet normal 0.10224314034 -0.994759440422 0.0
outer loop
vertex -9.78225517273 3.78050637245 116.314002991
vertex -9.80213928223 3.77846264839 119.885002136
vertex -9.80213928223 3.77846264839 116.314002991
endloop
endfacet
facet normal 0.10224314034 -0.994759440422 0.0
outer loop
vertex -9.78225517273 3.78050637245 119.885002136
vertex -9.80213928223 3.77846264839 119.885002136
vertex -9.78225517273 3.78050637245 116.314002991
endloop
endfacet
facet normal 0.102455578744 -0.994737565517 -2.73682516649e-08
outer loop
vertex -9.80213928223 3.77846264839 116.314002991
vertex -9.82202243805 3.7764146328 119.885002136
vertex -9.82202339172 3.7764146328 116.314002991
endloop
endfacet
facet normal 0.102684698999 -0.994713962078 -2.74230682606e-08
outer loop
vertex -9.82202339172 3.7764146328 116.314002991
vertex -9.82202243805 3.7764146328 119.885002136
vertex -9.84190654755 3.77436208725 116.314002991
endloop
endfacet
facet normal 0.102460451424 -0.99473708868 0.0
outer loop
vertex -9.80213928223 3.77846264839 119.885002136
vertex -9.82202243805 3.7764146328 119.885002136
vertex -9.80213928223 3.77846264839 116.314002991
endloop
endfacet
facet normal 0.102684698999 -0.994713962078 -2.74198832528e-08
outer loop
vertex -9.82202243805 3.7764146328 119.885002136
vertex -9.84190559387 3.77436208725 119.885002136
vertex -9.84190654755 3.77436208725 116.314002991
endloop
endfacet
facet normal 0.994772076607 0.102119848132 0.0
outer loop
vertex -9.78225517273 3.78050637245 119.885002136
vertex -9.78225517273 3.78050637245 116.314002991
vertex -9.78736114502 3.83024477959 119.885002136
endloop
endfacet
facet normal 0.994772076607 0.102119848132 0.0
outer loop
vertex -9.78225517273 3.78050637245 116.314002991
vertex -9.78736114502 3.83024477959 116.314002991
vertex -9.78736114502 3.83024477959 119.885002136
endloop
endfacet
facet normal 0.0 0.0 -1.0
outer loop
vertex -9.84704589844 3.82409715652 116.314002991
vertex -9.82202339172 3.7764146328 116.314002991
vertex -9.84190654755 3.77436208725 116.314002991
endloop
endfacet
facet normal 0.0 0.0 -1.0
outer loop
vertex -9.82715129852 3.82615089417 116.314002991
vertex -9.80213928223 3.77846264839 116.314002991
vertex -9.82202339172 3.7764146328 116.314002991
endloop
endfacet
facet normal 0.0 -0.0 -1.0
outer loop
vertex -9.82715129852 3.82615089417 116.314002991
vertex -9.82202339172 3.7764146328 116.314002991
vertex -9.84704589844 3.82409715652 116.314002991
endloop
endfacet
facet normal 0.0 -0.0 -1.0
outer loop
vertex -9.80725669861 3.82820010185 116.314002991
vertex -9.80213928223 3.77846264839 116.314002991
vertex -9.82715129852 3.82615089417 116.314002991
endloop
endfacet
facet normal 0.0 -0.0 -1.0
outer loop
vertex -9.78736114502 3.83024477959 116.314002991
vertex -9.78225517273 3.78050637245 116.314002991
vertex -9.80213928223 3.77846264839 116.314002991
endloop
endfacet
facet normal 0.0 0.0 -1.0
outer loop
vertex -9.78736114502 3.83024477959 116.314002991
vertex -9.80213928223 3.77846264839 116.314002991
vertex -9.80725669861 3.82820010185 116.314002991
endloop
endfacet
facet normal 0.0 0.0 1.0
outer loop
vertex -9.82202243805 3.7764146328 119.885002136
vertex -9.84704589844 3.82409715652 119.885002136
vertex -9.84190559387 3.77436208725 119.885002136
endloop
endfacet
facet normal 0.0 0.0 1.0
outer loop
vertex -9.82202243805 3.7764146328 119.885002136
vertex -9.82715129852 3.82615089417 119.885002136
vertex -9.84704589844 3.82409715652 119.885002136
endloop
endfacet
facet normal 0.0 0.0 1.0
outer loop
vertex -9.80213928223 3.77846264839 119.885002136
vertex -9.80725669861 3.82820010185 119.885002136
vertex -9.82202243805 3.7764146328 119.885002136
endloop
endfacet
facet normal 0.0 -0.0 1.0
outer loop
vertex -9.82202243805 3.7764146328 119.885002136
vertex -9.80725669861 3.82820010185 119.885002136
vertex -9.82715129852 3.82615089417 119.885002136
endloop
endfacet
facet normal 0.0 0.0 1.0
outer loop
vertex -9.78225517273 3.78050637245 119.885002136
vertex -9.78736114502 3.83024477959 119.885002136
vertex -9.80213928223 3.77846264839 119.885002136
endloop
endfacet
facet normal 0.0 -0.0 1.0
outer loop
vertex -9.80213928223 3.77846264839 119.885002136
vertex -9.78736114502 3.83024477959 119.885002136
vertex -9.80725669861 3.82820010185 119.885002136
endloop
endfacet
