solid 
facet normal 0.102236971259 0.994760036469 -0.0
outer loop
vertex 9.78733539581 3.83024740219 11.5749998093
vertex 9.78733539581 3.83024740219 15.1459999084
vertex 9.80722999573 3.82820272446 15.1459999084
endloop
endfacet
facet normal 0.102468043566 0.99473631382 -3.9048579481e-08
outer loop
vertex 9.8072309494 3.82820248604 11.5749998093
vertex 9.80722999573 3.82820272446 15.1459999084
vertex 9.82712554932 3.82615327835 15.1459999084
endloop
endfacet
facet normal 0.102243930101 0.994759321213 -3.91099703734e-08
outer loop
vertex 9.8072309494 3.82820248604 11.5749998093
vertex 9.78733539581 3.83024740219 11.5749998093
vertex 9.80722999573 3.82820272446 15.1459999084
endloop
endfacet
facet normal 0.102461107075 0.994736969471 -0.0
outer loop
vertex 9.82712554932 3.82615327835 11.5749998093
vertex 9.8072309494 3.82820248604 11.5749998093
vertex 9.82712554932 3.82615327835 15.1459999084
endloop
endfacet
facet normal 0.10267829895 0.994714617729 -6.64123334104e-08
outer loop
vertex 9.84701919556 3.82409954071 11.5749998093
vertex 9.82712554932 3.82615327835 15.1459999084
vertex 9.84701919556 3.82409977913 15.1459999084
endloop
endfacet
facet normal 0.102690093219 0.994713366032 0.0
outer loop
vertex 9.84701919556 3.82409954071 11.5749998093
vertex 9.82712554932 3.82615327835 11.5749998093
vertex 9.82712554932 3.82615327835 15.1459999084
endloop
endfacet
facet normal 0.994703412056 -0.102787233889 6.86261136806e-09
outer loop
vertex 9.84701919556 3.82409954071 11.5749998093
vertex 9.84701919556 3.82409977913 15.1459999084
vertex 9.84187984467 3.77436470985 15.1459999084
endloop
endfacet
facet normal 0.994703412056 -0.102787233889 6.86261136806e-09
outer loop
vertex 9.84187984467 3.77436447144 11.5749998093
vertex 9.84701919556 3.82409954071 11.5749998093
vertex 9.84187984467 3.77436470985 15.1459999084
endloop
endfacet
facet normal -0.10223133117 -0.99476057291 -0.0
outer loop
vertex 9.78222846985 3.78050875664 15.1459999084
vertex 9.78222846985 3.78050875664 11.5749998093
vertex 9.80211257935 3.778465271 15.1459999084
endloop
endfacet
facet normal -0.10224314779 -0.994759440422 6.64599184574e-08
outer loop
vertex 9.78222846985 3.78050875664 11.5749998093
vertex 9.80211257935 3.77846503258 11.5749998093
vertex 9.80211257935 3.778465271 15.1459999084
endloop
endfacet
facet normal -0.102467380464 -0.99473631382 0.0
outer loop
vertex 9.80211257935 3.778465271 15.1459999084
vertex 9.82199668884 3.77641701698 11.5749998093
vertex 9.82199668884 3.77641701698 15.1459999084
endloop
endfacet
facet normal -0.102455578744 -0.994737565517 6.64138610773e-08
outer loop
vertex 9.80211257935 3.77846503258 11.5749998093
vertex 9.82199668884 3.77641701698 11.5749998093
vertex 9.80211257935 3.778465271 15.1459999084
endloop
endfacet
facet normal -0.102672882378 -0.994715154171 6.64091857061e-08
outer loop
vertex 9.82199668884 3.77641701698 15.1459999084
vertex 9.84187984467 3.77436447144 11.5749998093
vertex 9.84187984467 3.77436470985 15.1459999084
endloop
endfacet
facet normal -0.102684691548 -0.994713962078 0.0
outer loop
vertex 9.82199668884 3.77641701698 11.5749998093
vertex 9.84187984467 3.77436447144 11.5749998093
vertex 9.82199668884 3.77641701698 15.1459999084
endloop
endfacet
facet normal -0.994770228863 0.102138236165 0.0
outer loop
vertex 9.78222846985 3.78050875664 11.5749998093
vertex 9.78222846985 3.78050875664 15.1459999084
vertex 9.78733539581 3.83024740219 15.1459999084
endloop
endfacet
facet normal -0.994770228863 0.102138236165 0.0
outer loop
vertex 9.78733539581 3.83024740219 11.5749998093
vertex 9.78222846985 3.78050875664 11.5749998093
vertex 9.78733539581 3.83024740219 15.1459999084
endloop
endfacet
facet normal 0.0 0.0 -1.0
outer loop
vertex 9.82199668884 3.77641701698 11.5749998093
vertex 9.84701919556 3.82409954071 11.5749998093
vertex 9.84187984467 3.77436447144 11.5749998093
endloop
endfacet
facet normal 0.0 0.0 -1.0
outer loop
vertex 9.82199668884 3.77641701698 11.5749998093
vertex 9.82712554932 3.82615327835 11.5749998093
vertex 9.84701919556 3.82409954071 11.5749998093
endloop
endfacet
facet normal 0.0 0.0 -1.0
outer loop
vertex 9.80211257935 3.77846503258 11.5749998093
vertex 9.8072309494 3.82820248604 11.5749998093
vertex 9.82199668884 3.77641701698 11.5749998093
endloop
endfacet
facet normal 0.0 0.0 -1.0
outer loop
vertex 9.82199668884 3.77641701698 11.5749998093
vertex 9.8072309494 3.82820248604 11.5749998093
vertex 9.82712554932 3.82615327835 11.5749998093
endloop
endfacet
facet normal 0.0 0.0 -1.0
outer loop
vertex 9.78222846985 3.78050875664 11.5749998093
vertex 9.78733539581 3.83024740219 11.5749998093
vertex 9.80211257935 3.77846503258 11.5749998093
endloop
endfacet
facet normal 0.0 0.0 -1.0
outer loop
vertex 9.80211257935 3.77846503258 11.5749998093
vertex 9.78733539581 3.83024740219 11.5749998093
vertex 9.8072309494 3.82820248604 11.5749998093
endloop
endfacet
facet normal 0.0 0.0 1.0
outer loop
vertex 9.84701919556 3.82409977913 15.1459999084
vertex 9.82199668884 3.77641701698 15.1459999084
vertex 9.84187984467 3.77436470985 15.1459999084
endloop
endfacet
facet normal 0.0 0.0 1.0
outer loop
vertex 9.82712554932 3.82615327835 15.1459999084
vertex 9.82199668884 3.77641701698 15.1459999084
vertex 9.84701919556 3.82409977913 15.1459999084
endloop
endfacet
facet normal 0.0 0.0 1.0
outer loop
vertex 9.80722999573 3.82820272446 15.1459999084
vertex 9.80211257935 3.778465271 15.1459999084
vertex 9.82199668884 3.77641701698 15.1459999084
endloop
endfacet
facet normal 0.0 0.0 1.0
outer loop
vertex 9.80722999573 3.82820272446 15.1459999084
vertex 9.82199668884 3.77641701698 15.1459999084
vertex 9.82712554932 3.82615327835 15.1459999084
endloop
endfacet
facet normal 0.0 0.0 1.0
outer loop
vertex 9.78733539581 3.83024740219 15.1459999084
vertex 9.78222846985 3.78050875664 15.1459999084
vertex 9.80211257935 3.778465271 15.1459999084
endloop
endfacet
facet normal 0.0 0.0 1.0
outer loop
vertex 9.78733539581 3.83024740219 15.1459999084
vertex 9.80211257935 3.778465271 15.1459999084
vertex 9.80722999573 3.82820272446 15.1459999084
endloop
endfacet
