solid 
facet normal 0.1022439152 0.994759321213 0.0
outer loop
vertex 9.80723571777 3.8282020092 -228.774002075
vertex 9.78734016418 3.83024692535 -228.774002075
vertex 9.78734016418 3.83024692535 -225.20300293
endloop
endfacet
facet normal 0.102232128382 0.99476057291 -6.64154171659e-08
outer loop
vertex 9.80723571777 3.8282020092 -228.774002075
vertex 9.78734016418 3.83024692535 -225.20300293
vertex 9.80723571777 3.82820224762 -225.20300293
endloop
endfacet
facet normal 0.102472916245 0.994735836983 -0.0
outer loop
vertex 9.82713031769 3.82615280151 -228.774002075
vertex 9.80723571777 3.82820224762 -225.20300293
vertex 9.82713031769 3.82615280151 -225.20300293
endloop
endfacet
facet normal 0.102461114526 0.994736969471 -6.64233965608e-08
outer loop
vertex 9.82713031769 3.82615280151 -228.774002075
vertex 9.80723571777 3.8282020092 -228.774002075
vertex 9.80723571777 3.82820224762 -225.20300293
endloop
endfacet
facet normal 0.10267342627 0.994715094566 -6.64123831484e-08
outer loop
vertex 9.8470249176 3.82409906387 -228.774002075
vertex 9.82713031769 3.82615280151 -225.20300293
vertex 9.8470249176 3.82409930229 -225.20300293
endloop
endfacet
facet normal 0.10268522799 0.994713962078 0.0
outer loop
vertex 9.8470249176 3.82409906387 -228.774002075
vertex 9.82713031769 3.82615280151 -228.774002075
vertex 9.82713031769 3.82615280151 -225.20300293
endloop
endfacet
facet normal 0.994703412056 -0.102787233889 6.84605838686e-09
outer loop
vertex 9.84188556671 3.7743639946 -228.774002075
vertex 9.8470249176 3.82409906387 -228.774002075
vertex 9.8470249176 3.82409930229 -225.20300293
endloop
endfacet
facet normal 0.994701445103 -0.102806098759 2.72509765864e-07
outer loop
vertex 9.84188556671 3.7743639946 -228.774002075
vertex 9.8470249176 3.82409930229 -225.20300293
vertex 9.84188461304 3.77436423302 -225.20300293
endloop
endfacet
facet normal -0.10223133862 -0.99476069212 -0.0
outer loop
vertex 9.78223419189 3.7805082798 -225.20300293
vertex 9.78223419189 3.7805082798 -228.774002075
vertex 9.80211830139 3.77846479416 -225.20300293
endloop
endfacet
facet normal -0.10224314034 -0.994759440422 6.64599326683e-08
outer loop
vertex 9.78223419189 3.7805082798 -228.774002075
vertex 9.80211830139 3.77846455574 -228.774002075
vertex 9.80211830139 3.77846479416 -225.20300293
endloop
endfacet
facet normal -0.102472253144 -0.994735836983 0.0
outer loop
vertex 9.80211830139 3.77846479416 -225.20300293
vertex 9.82200145721 3.77641654015 -228.774002075
vertex 9.82200145721 3.77641654015 -225.20300293
endloop
endfacet
facet normal -0.102460451424 -0.99473708868 6.64138539719e-08
outer loop
vertex 9.80211830139 3.77846455574 -228.774002075
vertex 9.82200145721 3.77641654015 -228.774002075
vertex 9.80211830139 3.77846479416 -225.20300293
endloop
endfacet
facet normal -0.102672889829 -0.994715154171 3.89892882424e-08
outer loop
vertex 9.82200145721 3.77641654015 -225.20300293
vertex 9.84188556671 3.7743639946 -228.774002075
vertex 9.84188461304 3.77436423302 -225.20300293
endloop
endfacet
facet normal -0.102679811418 -0.994714379311 0.0
outer loop
vertex 9.82200145721 3.77641654015 -228.774002075
vertex 9.84188556671 3.7743639946 -228.774002075
vertex 9.82200145721 3.77641654015 -225.20300293
endloop
endfacet
facet normal -0.994772195816 0.102119371295 0.0
outer loop
vertex 9.78223419189 3.7805082798 -228.774002075
vertex 9.78223419189 3.7805082798 -225.20300293
vertex 9.78734016418 3.83024692535 -225.20300293
endloop
endfacet
facet normal -0.994772195816 0.102119371295 0.0
outer loop
vertex 9.78734016418 3.83024692535 -228.774002075
vertex 9.78223419189 3.7805082798 -228.774002075
vertex 9.78734016418 3.83024692535 -225.20300293
endloop
endfacet
facet normal 0.0 0.0 -1.0
outer loop
vertex 9.82200145721 3.77641654015 -228.774002075
vertex 9.8470249176 3.82409906387 -228.774002075
vertex 9.84188556671 3.7743639946 -228.774002075
endloop
endfacet
facet normal 0.0 0.0 -1.0
outer loop
vertex 9.82200145721 3.77641654015 -228.774002075
vertex 9.82713031769 3.82615280151 -228.774002075
vertex 9.8470249176 3.82409906387 -228.774002075
endloop
endfacet
facet normal 0.0 0.0 -1.0
outer loop
vertex 9.80211830139 3.77846455574 -228.774002075
vertex 9.80723571777 3.8282020092 -228.774002075
vertex 9.82200145721 3.77641654015 -228.774002075
endloop
endfacet
facet normal 0.0 0.0 -1.0
outer loop
vertex 9.82200145721 3.77641654015 -228.774002075
vertex 9.80723571777 3.8282020092 -228.774002075
vertex 9.82713031769 3.82615280151 -228.774002075
endloop
endfacet
facet normal 0.0 0.0 -1.0
outer loop
vertex 9.78223419189 3.7805082798 -228.774002075
vertex 9.78734016418 3.83024692535 -228.774002075
vertex 9.80211830139 3.77846455574 -228.774002075
endloop
endfacet
facet normal 0.0 0.0 -1.0
outer loop
vertex 9.80211830139 3.77846455574 -228.774002075
vertex 9.78734016418 3.83024692535 -228.774002075
vertex 9.80723571777 3.8282020092 -228.774002075
endloop
endfacet
facet normal 0.0 0.0 1.0
outer loop
vertex 9.8470249176 3.82409930229 -225.20300293
vertex 9.82200145721 3.77641654015 -225.20300293
vertex 9.84188461304 3.77436423302 -225.20300293
endloop
endfacet
facet normal 0.0 0.0 1.0
outer loop
vertex 9.82713031769 3.82615280151 -225.20300293
vertex 9.80211830139 3.77846479416 -225.20300293
vertex 9.82200145721 3.77641654015 -225.20300293
endloop
endfacet
facet normal 0.0 0.0 1.0
outer loop
vertex 9.82713031769 3.82615280151 -225.20300293
vertex 9.82200145721 3.77641654015 -225.20300293
vertex 9.8470249176 3.82409930229 -225.20300293
endloop
endfacet
facet normal 0.0 0.0 1.0
outer loop
vertex 9.80723571777 3.82820224762 -225.20300293
vertex 9.80211830139 3.77846479416 -225.20300293
vertex 9.82713031769 3.82615280151 -225.20300293
endloop
endfacet
facet normal 0.0 0.0 1.0
outer loop
vertex 9.78734016418 3.83024692535 -225.20300293
vertex 9.78223419189 3.7805082798 -225.20300293
vertex 9.80211830139 3.77846479416 -225.20300293
endloop
endfacet
facet normal 0.0 0.0 1.0
outer loop
vertex 9.78734016418 3.83024692535 -225.20300293
vertex 9.80211830139 3.77846479416 -225.20300293
vertex 9.80723571777 3.82820224762 -225.20300293
endloop
endfacet
