solid 
facet normal -0.102232128382 0.99476057291 -6.64153816388e-08
outer loop
vertex -9.78734016418 3.83024740219 29.6300010681
vertex -9.78734016418 3.83024716377 26.0590000153
vertex -9.80723571777 3.82820248604 26.0590000153
endloop
endfacet
facet normal -0.102243922651 0.994759321213 0.0
outer loop
vertex -9.80723571777 3.82820248604 29.6300010681
vertex -9.78734016418 3.83024740219 29.6300010681
vertex -9.80723571777 3.82820248604 26.0590000153
endloop
endfacet
facet normal -0.102461099625 0.994736969471 0.0
outer loop
vertex -9.82713031769 3.82615327835 29.6300010681
vertex -9.80723571777 3.82820248604 26.0590000153
vertex -9.82713031769 3.82615327835 26.0590000153
endloop
endfacet
facet normal -0.102685213089 0.994713842869 0.0
outer loop
vertex -9.82713031769 3.82615327835 29.6300010681
vertex -9.82713031769 3.82615327835 26.0590000153
vertex -9.8470249176 3.82409954071 26.0590000153
endloop
endfacet
facet normal -0.102461099625 0.994736969471 0.0
outer loop
vertex -9.82713031769 3.82615327835 29.6300010681
vertex -9.80723571777 3.82820248604 29.6300010681
vertex -9.80723571777 3.82820248604 26.0590000153
endloop
endfacet
facet normal -0.10267341882 0.994715094566 -6.64123405159e-08
outer loop
vertex -9.8470249176 3.82409977913 29.6300010681
vertex -9.82713031769 3.82615327835 29.6300010681
vertex -9.8470249176 3.82409954071 26.0590000153
endloop
endfacet
facet normal -0.994701445103 -0.10280559957 6.8638361661e-09
outer loop
vertex -9.8470249176 3.82409977913 29.6300010681
vertex -9.8470249176 3.82409954071 26.0590000153
vertex -9.84188461304 3.77436447144 29.6300010681
endloop
endfacet
facet normal -0.994701445103 -0.102806091309 0.0
outer loop
vertex -9.8470249176 3.82409954071 26.0590000153
vertex -9.84188461304 3.77436447144 26.0590000153
vertex -9.84188461304 3.77436447144 29.6300010681
endloop
endfacet
facet normal 0.10224314034 -0.994759440422 0.0
outer loop
vertex -9.78223419189 3.78050875664 26.0590000153
vertex -9.80211830139 3.77846503258 29.6300010681
vertex -9.80211830139 3.77846503258 26.0590000153
endloop
endfacet
facet normal 0.10224314034 -0.994759440422 0.0
outer loop
vertex -9.78223419189 3.78050875664 29.6300010681
vertex -9.80211830139 3.77846503258 29.6300010681
vertex -9.78223419189 3.78050875664 26.0590000153
endloop
endfacet
facet normal 0.102460443974 -0.99473708868 0.0
outer loop
vertex -9.80211830139 3.77846503258 26.0590000153
vertex -9.82200145721 3.77641701698 29.6300010681
vertex -9.82200145721 3.77641701698 26.0590000153
endloop
endfacet
facet normal 0.102684684098 -0.994713962078 0.0
outer loop
vertex -9.82200145721 3.77641701698 26.0590000153
vertex -9.82200145721 3.77641701698 29.6300010681
vertex -9.84188461304 3.77436447144 26.0590000153
endloop
endfacet
facet normal 0.102460443974 -0.99473708868 0.0
outer loop
vertex -9.80211830139 3.77846503258 29.6300010681
vertex -9.82200145721 3.77641701698 29.6300010681
vertex -9.80211830139 3.77846503258 26.0590000153
endloop
endfacet
facet normal 0.102684684098 -0.994713962078 0.0
outer loop
vertex -9.82200145721 3.77641701698 29.6300010681
vertex -9.84188461304 3.77436447144 29.6300010681
vertex -9.84188461304 3.77436447144 26.0590000153
endloop
endfacet
facet normal 0.994772136211 0.102119356394 0.0
outer loop
vertex -9.78223419189 3.78050875664 29.6300010681
vertex -9.78223419189 3.78050875664 26.0590000153
vertex -9.78734016418 3.83024740219 29.6300010681
endloop
endfacet
facet normal 0.994772076607 0.102119840682 -6.84606726864e-09
outer loop
vertex -9.78223419189 3.78050875664 26.0590000153
vertex -9.78734016418 3.83024716377 26.0590000153
vertex -9.78734016418 3.83024740219 29.6300010681
endloop
endfacet
facet normal 0.0 0.0 -1.0
outer loop
vertex -9.8470249176 3.82409954071 26.0590000153
vertex -9.82200145721 3.77641701698 26.0590000153
vertex -9.84188461304 3.77436447144 26.0590000153
endloop
endfacet
facet normal 0.0 -0.0 -1.0
outer loop
vertex -9.82713031769 3.82615327835 26.0590000153
vertex -9.82200145721 3.77641701698 26.0590000153
vertex -9.8470249176 3.82409954071 26.0590000153
endloop
endfacet
facet normal 0.0 -0.0 -1.0
outer loop
vertex -9.80723571777 3.82820248604 26.0590000153
vertex -9.80211830139 3.77846503258 26.0590000153
vertex -9.82200145721 3.77641701698 26.0590000153
endloop
endfacet
facet normal 0.0 0.0 -1.0
outer loop
vertex -9.80723571777 3.82820248604 26.0590000153
vertex -9.82200145721 3.77641701698 26.0590000153
vertex -9.82713031769 3.82615327835 26.0590000153
endloop
endfacet
facet normal 0.0 -0.0 -1.0
outer loop
vertex -9.78734016418 3.83024716377 26.0590000153
vertex -9.78223419189 3.78050875664 26.0590000153
vertex -9.80211830139 3.77846503258 26.0590000153
endloop
endfacet
facet normal 0.0 0.0 -1.0
outer loop
vertex -9.78734016418 3.83024716377 26.0590000153
vertex -9.80211830139 3.77846503258 26.0590000153
vertex -9.80723571777 3.82820248604 26.0590000153
endloop
endfacet
facet normal 0.0 0.0 1.0
outer loop
vertex -9.82200145721 3.77641701698 29.6300010681
vertex -9.8470249176 3.82409977913 29.6300010681
vertex -9.84188461304 3.77436447144 29.6300010681
endloop
endfacet
facet normal 0.0 0.0 1.0
outer loop
vertex -9.82200145721 3.77641701698 29.6300010681
vertex -9.82713031769 3.82615327835 29.6300010681
vertex -9.8470249176 3.82409977913 29.6300010681
endloop
endfacet
facet normal 0.0 0.0 1.0
outer loop
vertex -9.80211830139 3.77846503258 29.6300010681
vertex -9.80723571777 3.82820248604 29.6300010681
vertex -9.82200145721 3.77641701698 29.6300010681
endloop
endfacet
facet normal 0.0 -0.0 1.0
outer loop
vertex -9.82200145721 3.77641701698 29.6300010681
vertex -9.80723571777 3.82820248604 29.6300010681
vertex -9.82713031769 3.82615327835 29.6300010681
endloop
endfacet
facet normal 0.0 0.0 1.0
outer loop
vertex -9.78223419189 3.78050875664 29.6300010681
vertex -9.78734016418 3.83024740219 29.6300010681
vertex -9.80211830139 3.77846503258 29.6300010681
endloop
endfacet
facet normal 0.0 -0.0 1.0
outer loop
vertex -9.80211830139 3.77846503258 29.6300010681
vertex -9.78734016418 3.83024740219 29.6300010681
vertex -9.80723571777 3.82820248604 29.6300010681
endloop
endfacet
