solid 
facet normal 0.102232128382 -0.99476057291 6.64217836288e-08
outer loop
vertex 9.80724048615 -3.8282020092 -56.3160018921
vertex 9.78734493256 -3.83024668694 -56.3160018921
vertex 9.78734493256 -3.83024692535 -59.8870010376
endloop
endfacet
facet normal 0.1022439152 -0.994759321213 0.0
outer loop
vertex 9.80724048615 -3.8282020092 -56.3160018921
vertex 9.78734493256 -3.83024692535 -59.8870010376
vertex 9.80724048615 -3.8282020092 -59.8870010376
endloop
endfacet
facet normal 0.102461114526 -0.994736969471 0.0
outer loop
vertex 9.82713508606 -3.82615280151 -56.3160018921
vertex 9.80724048615 -3.8282020092 -59.8870010376
vertex 9.82713508606 -3.82615280151 -59.8870010376
endloop
endfacet
facet normal 0.102461114526 -0.994736969471 0.0
outer loop
vertex 9.82713508606 -3.82615280151 -56.3160018921
vertex 9.80724048615 -3.8282020092 -56.3160018921
vertex 9.80724048615 -3.8282020092 -59.8870010376
endloop
endfacet
facet normal 0.10268522799 -0.994713962078 0.0
outer loop
vertex 9.84702968597 -3.82409906387 -56.3160018921
vertex 9.82713508606 -3.82615280151 -59.8870010376
vertex 9.84702968597 -3.82409906387 -59.8870010376
endloop
endfacet
facet normal 0.10268522799 -0.994713962078 0.0
outer loop
vertex 9.84702968597 -3.82409906387 -56.3160018921
vertex 9.82713508606 -3.82615280151 -56.3160018921
vertex 9.82713508606 -3.82615280151 -59.8870010376
endloop
endfacet
facet normal 0.994701445103 0.102806098759 0.0
outer loop
vertex 9.84702968597 -3.82409906387 -56.3160018921
vertex 9.84702968597 -3.82409906387 -59.8870010376
vertex 9.84188938141 -3.7743639946 -59.8870010376
endloop
endfacet
facet normal 0.994701445103 0.102806098759 0.0
outer loop
vertex 9.84188938141 -3.7743639946 -56.3160018921
vertex 9.84702968597 -3.82409906387 -56.3160018921
vertex 9.84188938141 -3.7743639946 -59.8870010376
endloop
endfacet
facet normal -0.10224314034 0.994759440422 0.0
outer loop
vertex 9.78223896027 -3.7805082798 -59.8870010376
vertex 9.78223896027 -3.7805082798 -56.3160018921
vertex 9.80212306976 -3.77846455574 -59.8870010376
endloop
endfacet
facet normal -0.102460451424 0.99473708868 0.0
outer loop
vertex 9.80212306976 -3.77846455574 -59.8870010376
vertex 9.80212306976 -3.77846455574 -56.3160018921
vertex 9.82200622559 -3.77641654015 -59.8870010376
endloop
endfacet
facet normal -0.10224314034 0.994759440422 0.0
outer loop
vertex 9.78223896027 -3.7805082798 -56.3160018921
vertex 9.80212306976 -3.77846455574 -56.3160018921
vertex 9.80212306976 -3.77846455574 -59.8870010376
endloop
endfacet
facet normal -0.102460451424 0.99473708868 0.0
outer loop
vertex 9.80212306976 -3.77846455574 -56.3160018921
vertex 9.82200622559 -3.77641654015 -56.3160018921
vertex 9.82200622559 -3.77641654015 -59.8870010376
endloop
endfacet
facet normal -0.102684698999 0.994713962078 0.0
outer loop
vertex 9.82200622559 -3.77641654015 -59.8870010376
vertex 9.84188938141 -3.7743639946 -56.3160018921
vertex 9.84188938141 -3.7743639946 -59.8870010376
endloop
endfacet
facet normal -0.102684698999 0.994713962078 0.0
outer loop
vertex 9.82200622559 -3.77641654015 -56.3160018921
vertex 9.84188938141 -3.7743639946 -56.3160018921
vertex 9.82200622559 -3.77641654015 -59.8870010376
endloop
endfacet
facet normal -0.994772195816 -0.102119371295 -0.0
outer loop
vertex 9.78223896027 -3.7805082798 -56.3160018921
vertex 9.78223896027 -3.7805082798 -59.8870010376
vertex 9.78734493256 -3.83024692535 -59.8870010376
endloop
endfacet
facet normal -0.994772076607 -0.102119848132 6.81805545355e-09
outer loop
vertex 9.78734493256 -3.83024668694 -56.3160018921
vertex 9.78223896027 -3.7805082798 -56.3160018921
vertex 9.78734493256 -3.83024692535 -59.8870010376
endloop
endfacet
facet normal -0.0 0.0 1.0
outer loop
vertex 9.82200622559 -3.77641654015 -56.3160018921
vertex 9.84702968597 -3.82409906387 -56.3160018921
vertex 9.84188938141 -3.7743639946 -56.3160018921
endloop
endfacet
facet normal -0.0 0.0 1.0
outer loop
vertex 9.80212306976 -3.77846455574 -56.3160018921
vertex 9.82713508606 -3.82615280151 -56.3160018921
vertex 9.82200622559 -3.77641654015 -56.3160018921
endloop
endfacet
facet normal 0.0 0.0 1.0
outer loop
vertex 9.82200622559 -3.77641654015 -56.3160018921
vertex 9.82713508606 -3.82615280151 -56.3160018921
vertex 9.84702968597 -3.82409906387 -56.3160018921
endloop
endfacet
facet normal 0.0 0.0 1.0
outer loop
vertex 9.80212306976 -3.77846455574 -56.3160018921
vertex 9.80724048615 -3.8282020092 -56.3160018921
vertex 9.82713508606 -3.82615280151 -56.3160018921
endloop
endfacet
facet normal -0.0 0.0 1.0
outer loop
vertex 9.78223896027 -3.7805082798 -56.3160018921
vertex 9.78734493256 -3.83024668694 -56.3160018921
vertex 9.80212306976 -3.77846455574 -56.3160018921
endloop
endfacet
facet normal 0.0 0.0 1.0
outer loop
vertex 9.80212306976 -3.77846455574 -56.3160018921
vertex 9.78734493256 -3.83024668694 -56.3160018921
vertex 9.80724048615 -3.8282020092 -56.3160018921
endloop
endfacet
facet normal 0.0 0.0 -1.0
outer loop
vertex 9.84702968597 -3.82409906387 -59.8870010376
vertex 9.82200622559 -3.77641654015 -59.8870010376
vertex 9.84188938141 -3.7743639946 -59.8870010376
endloop
endfacet
facet normal 0.0 0.0 -1.0
outer loop
vertex 9.82713508606 -3.82615280151 -59.8870010376
vertex 9.82200622559 -3.77641654015 -59.8870010376
vertex 9.84702968597 -3.82409906387 -59.8870010376
endloop
endfacet
facet normal 0.0 0.0 -1.0
outer loop
vertex 9.80724048615 -3.8282020092 -59.8870010376
vertex 9.80212306976 -3.77846455574 -59.8870010376
vertex 9.82200622559 -3.77641654015 -59.8870010376
endloop
endfacet
facet normal 0.0 0.0 -1.0
outer loop
vertex 9.80724048615 -3.8282020092 -59.8870010376
vertex 9.82200622559 -3.77641654015 -59.8870010376
vertex 9.82713508606 -3.82615280151 -59.8870010376
endloop
endfacet
facet normal 0.0 0.0 -1.0
outer loop
vertex 9.78734493256 -3.83024692535 -59.8870010376
vertex 9.78223896027 -3.7805082798 -59.8870010376
vertex 9.80212306976 -3.77846455574 -59.8870010376
endloop
endfacet
facet normal 0.0 0.0 -1.0
outer loop
vertex 9.78734493256 -3.83024692535 -59.8870010376
vertex 9.80212306976 -3.77846455574 -59.8870010376
vertex 9.80724048615 -3.8282020092 -59.8870010376
endloop
endfacet
