solid 
facet normal 0.102902412415 0.994691491127 -1.99232431441e-07
outer loop
vertex 9.84703540802 3.8240981102 -189.093002319
vertex 9.84703540802 3.82409882545 -185.522003174
vertex 9.86692905426 3.82204079628 -185.522003174
endloop
endfacet
facet normal 0.103126503527 0.994668245316 -1.99227770281e-07
outer loop
vertex 9.86692905426 3.82204008102 -189.093002319
vertex 9.86692905426 3.82204079628 -185.522003174
vertex 9.8868227005 3.81997823715 -185.522003174
endloop
endfacet
facet normal 0.102902412415 0.994691491127 -1.99232431441e-07
outer loop
vertex 9.86692905426 3.82204008102 -189.093002319
vertex 9.84703540802 3.8240981102 -189.093002319
vertex 9.86692905426 3.82204079628 -185.522003174
endloop
endfacet
facet normal 0.103126503527 0.994668245316 -1.99227770281e-07
outer loop
vertex 9.8868227005 3.8199775219 -189.093002319
vertex 9.86692905426 3.82204008102 -189.093002319
vertex 9.8868227005 3.81997823715 -185.522003174
endloop
endfacet
facet normal 0.103343687952 0.994645655155 -1.99223251229e-07
outer loop
vertex 9.90671539307 3.81791067123 -189.093002319
vertex 9.8868227005 3.81997823715 -185.522003174
vertex 9.90671539307 3.81791138649 -185.522003174
endloop
endfacet
facet normal 0.103343687952 0.994645655155 -1.99220067998e-07
outer loop
vertex 9.90671539307 3.81791067123 -189.093002319
vertex 9.8868227005 3.8199775219 -189.093002319
vertex 9.8868227005 3.81997823715 -185.522003174
endloop
endfacet
facet normal 0.994634151459 -0.10345454514 2.07214991832e-08
outer loop
vertex 9.90671539307 3.81791067123 -189.093002319
vertex 9.90671539307 3.81791138649 -185.522003174
vertex 9.90154266357 3.76817965508 -185.522003174
endloop
endfacet
facet normal 0.994634151459 -0.10345454514 2.07214991832e-08
outer loop
vertex 9.90154266357 3.76817893982 -189.093002319
vertex 9.90671539307 3.81791067123 -189.093002319
vertex 9.90154266357 3.76817965508 -185.522003174
endloop
endfacet
facet normal -0.102902010083 -0.994691550732 1.99232445652e-07
outer loop
vertex 9.84189605713 3.77436375618 -185.522003174
vertex 9.86177825928 3.77230620384 -189.093002319
vertex 9.86177825928 3.7723069191 -185.522003174
endloop
endfacet
facet normal -0.103126235306 -0.99466830492 1.99227784492e-07
outer loop
vertex 9.86177825928 3.7723069191 -185.522003174
vertex 9.86177825928 3.77230620384 -189.093002319
vertex 9.88166046143 3.77024555206 -185.522003174
endloop
endfacet
facet normal -0.102902010083 -0.994691550732 1.99232445652e-07
outer loop
vertex 9.84189605713 3.77436304092 -189.093002319
vertex 9.86177825928 3.77230620384 -189.093002319
vertex 9.84189605713 3.77436375618 -185.522003174
endloop
endfacet
facet normal -0.103350438178 -0.994645059109 1.99223123332e-07
outer loop
vertex 9.88166046143 3.77024555206 -185.522003174
vertex 9.88166046143 3.77024483681 -189.093002319
vertex 9.90154266357 3.76817965508 -185.522003174
endloop
endfacet
facet normal -0.103126235306 -0.99466830492 1.99227784492e-07
outer loop
vertex 9.86177825928 3.77230620384 -189.093002319
vertex 9.88166046143 3.77024483681 -189.093002319
vertex 9.88166046143 3.77024555206 -185.522003174
endloop
endfacet
facet normal -0.103350438178 -0.994645059109 1.99223123332e-07
outer loop
vertex 9.88166046143 3.77024483681 -189.093002319
vertex 9.90154266357 3.76817893982 -189.093002319
vertex 9.90154266357 3.76817965508 -185.522003174
endloop
endfacet
facet normal -0.994703412056 0.102787233889 -2.05381756047e-08
outer loop
vertex 9.84703540802 3.8240981102 -189.093002319
vertex 9.84189605713 3.77436304092 -189.093002319
vertex 9.84189605713 3.77436375618 -185.522003174
endloop
endfacet
facet normal -0.994703412056 0.102787233889 -2.05878389892e-08
outer loop
vertex 9.84703540802 3.8240981102 -189.093002319
vertex 9.84189605713 3.77436375618 -185.522003174
vertex 9.84703540802 3.82409882545 -185.522003174
endloop
endfacet
facet normal 0.0 0.0 -1.0
outer loop
vertex 9.88166046143 3.77024483681 -189.093002319
vertex 9.90671539307 3.81791067123 -189.093002319
vertex 9.90154266357 3.76817893982 -189.093002319
endloop
endfacet
facet normal 0.0 0.0 -1.0
outer loop
vertex 9.88166046143 3.77024483681 -189.093002319
vertex 9.8868227005 3.8199775219 -189.093002319
vertex 9.90671539307 3.81791067123 -189.093002319
endloop
endfacet
facet normal 0.0 0.0 -1.0
outer loop
vertex 9.86177825928 3.77230620384 -189.093002319
vertex 9.86692905426 3.82204008102 -189.093002319
vertex 9.88166046143 3.77024483681 -189.093002319
endloop
endfacet
facet normal 0.0 0.0 -1.0
outer loop
vertex 9.88166046143 3.77024483681 -189.093002319
vertex 9.86692905426 3.82204008102 -189.093002319
vertex 9.8868227005 3.8199775219 -189.093002319
endloop
endfacet
facet normal 0.0 0.0 -1.0
outer loop
vertex 9.84189605713 3.77436304092 -189.093002319
vertex 9.84703540802 3.8240981102 -189.093002319
vertex 9.86177825928 3.77230620384 -189.093002319
endloop
endfacet
facet normal 0.0 0.0 -1.0
outer loop
vertex 9.86177825928 3.77230620384 -189.093002319
vertex 9.84703540802 3.8240981102 -189.093002319
vertex 9.86692905426 3.82204008102 -189.093002319
endloop
endfacet
facet normal 0.0 0.0 1.0
outer loop
vertex 9.90671539307 3.81791138649 -185.522003174
vertex 9.88166046143 3.77024555206 -185.522003174
vertex 9.90154266357 3.76817965508 -185.522003174
endloop
endfacet
facet normal 0.0 0.0 1.0
outer loop
vertex 9.8868227005 3.81997823715 -185.522003174
vertex 9.86177825928 3.7723069191 -185.522003174
vertex 9.88166046143 3.77024555206 -185.522003174
endloop
endfacet
facet normal 0.0 0.0 1.0
outer loop
vertex 9.8868227005 3.81997823715 -185.522003174
vertex 9.88166046143 3.77024555206 -185.522003174
vertex 9.90671539307 3.81791138649 -185.522003174
endloop
endfacet
facet normal 0.0 0.0 1.0
outer loop
vertex 9.86692905426 3.82204079628 -185.522003174
vertex 9.86177825928 3.7723069191 -185.522003174
vertex 9.8868227005 3.81997823715 -185.522003174
endloop
endfacet
facet normal 0.0 0.0 1.0
outer loop
vertex 9.84703540802 3.82409882545 -185.522003174
vertex 9.84189605713 3.77436375618 -185.522003174
vertex 9.86177825928 3.7723069191 -185.522003174
endloop
endfacet
facet normal 0.0 0.0 1.0
outer loop
vertex 9.84703540802 3.82409882545 -185.522003174
vertex 9.86177825928 3.7723069191 -185.522003174
vertex 9.86692905426 3.82204079628 -185.522003174
endloop
endfacet
