solid 
facet normal 0.120770953596 0.992680430412 -0.0
outer loop
vertex 9.84704971313 3.82409715652 112.663002014
vertex 9.84704971313 3.82409715652 112.722999573
vertex 13.0836734772 3.43032479286 112.722999573
endloop
endfacet
facet normal 0.156602665782 0.987661719322 -0.0
outer loop
vertex 13.0836734772 3.43032479286 112.663002014
vertex 13.0836734772 3.43032479286 112.722999573
vertex 16.3039321899 2.91972374916 112.723007202
endloop
endfacet
facet normal 0.120770953596 0.992680430412 -0.0
outer loop
vertex 13.0836734772 3.43032479286 112.663002014
vertex 9.84704971313 3.82409715652 112.663002014
vertex 13.0836734772 3.43032479286 112.722999573
endloop
endfacet
facet normal 0.192229136825 0.981350004673 -0.0
outer loop
vertex 16.3039321899 2.91972374916 112.663002014
vertex 16.3039321899 2.91972374916 112.723007202
vertex 19.5036144257 2.29296255112 112.723007202
endloop
endfacet
facet normal 0.156602665782 0.987661659718 -0.0
outer loop
vertex 16.3039321899 2.91972374916 112.663002014
vertex 13.0836734772 3.43032479286 112.663002014
vertex 16.3039321899 2.91972374916 112.723007202
endloop
endfacet
facet normal 0.192229136825 0.981350004673 -0.0
outer loop
vertex 19.5036144257 2.29296255112 112.663002014
vertex 16.3039321899 2.91972374916 112.663002014
vertex 19.5036144257 2.29296255112 112.723007202
endloop
endfacet
facet normal 0.977709889412 -0.209960564971 0.0
outer loop
vertex 19.4931163788 2.24407696724 112.663002014
vertex 19.5036144257 2.29296255112 112.663002014
vertex 19.5036144257 2.29296255112 112.723007202
endloop
endfacet
facet normal 0.977709889412 -0.209960564971 0.0
outer loop
vertex 19.4931163788 2.24407696724 112.663002014
vertex 19.5036144257 2.29296255112 112.723007202
vertex 19.4931163788 2.24407696724 112.723007202
endloop
endfacet
facet normal -0.120770938694 -0.992680490017 -0.0
outer loop
vertex 9.84191036224 3.77436184883 112.722999573
vertex 9.84191036224 3.77436184883 112.663002014
vertex 13.0767374039 3.38080811501 112.722999573
endloop
endfacet
facet normal -0.156602576375 -0.987661719322 -0.0
outer loop
vertex 13.0767374039 3.38080811501 112.722999573
vertex 13.0767374039 3.38080811501 112.663002014
vertex 16.2952098846 2.87049055099 112.723007202
endloop
endfacet
facet normal -0.120770938694 -0.992680490017 0.0
outer loop
vertex 9.84191036224 3.77436184883 112.663002014
vertex 13.0767374039 3.38080811501 112.663002014
vertex 13.0767374039 3.38080811501 112.722999573
endloop
endfacet
facet normal -0.156602591276 -0.987661719322 0.0
outer loop
vertex 13.0767374039 3.38080811501 112.663002014
vertex 16.2952098846 2.87049055099 112.663002014
vertex 16.2952098846 2.87049055099 112.723007202
endloop
endfacet
facet normal -0.192229196429 -0.981350064278 0.0
outer loop
vertex 16.2952098846 2.87049055099 112.723007202
vertex 19.4931163788 2.24407696724 112.663002014
vertex 19.4931163788 2.24407696724 112.723007202
endloop
endfacet
facet normal -0.192229196429 -0.981350064278 0.0
outer loop
vertex 16.2952098846 2.87049055099 112.663002014
vertex 19.4931163788 2.24407696724 112.663002014
vertex 16.2952098846 2.87049055099 112.723007202
endloop
endfacet
facet normal -0.994703471661 0.1027867347 0.0
outer loop
vertex 9.84191036224 3.77436184883 112.663002014
vertex 9.84191036224 3.77436184883 112.722999573
vertex 9.84704971313 3.82409715652 112.722999573
endloop
endfacet
facet normal -0.994703471661 0.1027867347 0.0
outer loop
vertex 9.84704971313 3.82409715652 112.663002014
vertex 9.84191036224 3.77436184883 112.663002014
vertex 9.84704971313 3.82409715652 112.722999573
endloop
endfacet
facet normal 0.0 0.0 -1.0
outer loop
vertex 16.2952098846 2.87049055099 112.663002014
vertex 16.3039321899 2.91972374916 112.663002014
vertex 19.4931163788 2.24407696724 112.663002014
endloop
endfacet
facet normal 0.0 0.0 -1.0
outer loop
vertex 19.4931163788 2.24407696724 112.663002014
vertex 16.3039321899 2.91972374916 112.663002014
vertex 19.5036144257 2.29296255112 112.663002014
endloop
endfacet
facet normal 0.0 0.0 -1.0
outer loop
vertex 13.0767374039 3.38080811501 112.663002014
vertex 13.0836734772 3.43032479286 112.663002014
vertex 16.2952098846 2.87049055099 112.663002014
endloop
endfacet
facet normal 0.0 0.0 -1.0
outer loop
vertex 16.2952098846 2.87049055099 112.663002014
vertex 13.0836734772 3.43032479286 112.663002014
vertex 16.3039321899 2.91972374916 112.663002014
endloop
endfacet
facet normal 0.0 0.0 -1.0
outer loop
vertex 9.84191036224 3.77436184883 112.663002014
vertex 9.84704971313 3.82409715652 112.663002014
vertex 13.0767374039 3.38080811501 112.663002014
endloop
endfacet
facet normal 0.0 0.0 -1.0
outer loop
vertex 13.0767374039 3.38080811501 112.663002014
vertex 9.84704971313 3.82409715652 112.663002014
vertex 13.0836734772 3.43032479286 112.663002014
endloop
endfacet
facet normal 0.0 0.0 1.0
outer loop
vertex 16.3039321899 2.91972374916 112.723007202
vertex 16.2952098846 2.87049055099 112.723007202
vertex 19.4931163788 2.24407696724 112.723007202
endloop
endfacet
facet normal 0.0 0.0 1.0
outer loop
vertex 16.3039321899 2.91972374916 112.723007202
vertex 19.4931163788 2.24407696724 112.723007202
vertex 19.5036144257 2.29296255112 112.723007202
endloop
endfacet
facet normal -2.31899639402e-06 3.24834559251e-07 1.0
outer loop
vertex 13.0836734772 3.43032479286 112.722999573
vertex 13.0767374039 3.38080811501 112.722999573
vertex 16.2952098846 2.87049055099 112.723007202
endloop
endfacet
facet normal -2.30445289162e-06 4.08264014595e-07 1.0
outer loop
vertex 13.0836734772 3.43032479286 112.722999573
vertex 16.2952098846 2.87049055099 112.723007202
vertex 16.3039321899 2.91972374916 112.723007202
endloop
endfacet
facet normal 0.0 0.0 1.0
outer loop
vertex 9.84704971313 3.82409715652 112.722999573
vertex 9.84191036224 3.77436184883 112.722999573
vertex 13.0767374039 3.38080811501 112.722999573
endloop
endfacet
facet normal 0.0 0.0 1.0
outer loop
vertex 9.84704971313 3.82409715652 112.722999573
vertex 13.0767374039 3.38080811501 112.722999573
vertex 13.0836734772 3.43032479286 112.722999573
endloop
endfacet
