solid 
facet normal 0.0125155383721 0.999921679497 0.0
outer loop
vertex 3.34164738655 4.25924730301 -6.5
vertex 0.0814140439034 4.30005407333 -6.5
vertex 0.0814140439034 4.30005407333 -6.44000005722
endloop
endfacet
facet normal 0.0125155383721 0.999921679497 -0.0
outer loop
vertex 3.34164738655 4.25924730301 -6.5
vertex 0.0814140439034 4.30005407333 -6.44000005722
vertex 3.34164738655 4.25924730301 -6.44000005722
endloop
endfacet
facet normal 0.0486801080406 0.998814404011 -0.0
outer loop
vertex 6.5982708931 4.10052633286 -6.5
vertex 3.34164738655 4.25924730301 -6.44000005722
vertex 6.5982708931 4.10052633286 -6.44000005722
endloop
endfacet
facet normal 0.0847809463739 0.996399641037 -0.0
outer loop
vertex 6.5982708931 4.10052633286 -6.5
vertex 6.5982708931 4.10052633286 -6.44000005722
vertex 9.84702014923 3.82409906387 -6.44000005722
endloop
endfacet
facet normal 0.0486801080406 0.998814404011 0.0
outer loop
vertex 6.5982708931 4.10052633286 -6.5
vertex 3.34164738655 4.25924730301 -6.5
vertex 3.34164738655 4.25924730301 -6.44000005722
endloop
endfacet
facet normal 0.0847809463739 0.996399641037 -0.0
outer loop
vertex 9.84702014923 3.82409906387 -6.5
vertex 6.5982708931 4.10052633286 -6.5
vertex 9.84702014923 3.82409906387 -6.44000005722
endloop
endfacet
facet normal 0.994703292847 -0.102787211537 0.0
outer loop
vertex 9.84702014923 3.82409906387 -6.5
vertex 9.84702014923 3.82409906387 -6.44000005722
vertex 9.84188079834 3.7743639946 -6.44000005722
endloop
endfacet
facet normal 0.994703292847 -0.102787211537 0.0
outer loop
vertex 9.84188079834 3.7743639946 -6.5
vertex 9.84702014923 3.82409906387 -6.5
vertex 9.84188079834 3.7743639946 -6.44000005722
endloop
endfacet
facet normal -0.0125156091526 -0.999921739101 0.0
outer loop
vertex 0.0816928297281 4.25005483627 -6.44000005722
vertex 3.34011721611 4.20927047729 -6.5
vertex 3.34011721611 4.20927047729 -6.44000005722
endloop
endfacet
facet normal -0.0486800707877 -0.998814463615 -0.0
outer loop
vertex 3.34011721611 4.20927047729 -6.44000005722
vertex 3.34011721611 4.20927047729 -6.5
vertex 6.59493350983 4.05063772202 -6.44000005722
endloop
endfacet
facet normal -0.0125156091526 -0.999921739101 0.0
outer loop
vertex 0.0816928297281 4.25005483627 -6.5
vertex 3.34011721611 4.20927047729 -6.5
vertex 0.0816928297281 4.25005483627 -6.44000005722
endloop
endfacet
facet normal -0.0847808793187 -0.996399641037 -0.0
outer loop
vertex 6.59493350983 4.05063772202 -6.44000005722
vertex 6.59493350983 4.05063772202 -6.5
vertex 9.84188079834 3.7743639946 -6.44000005722
endloop
endfacet
facet normal -0.0486800707877 -0.998814463615 0.0
outer loop
vertex 3.34011721611 4.20927047729 -6.5
vertex 6.59493350983 4.05063772202 -6.5
vertex 6.59493350983 4.05063772202 -6.44000005722
endloop
endfacet
facet normal -0.0847808793187 -0.996399641037 0.0
outer loop
vertex 6.59493350983 4.05063772202 -6.5
vertex 9.84188079834 3.7743639946 -6.5
vertex 9.84188079834 3.7743639946 -6.44000005722
endloop
endfacet
facet normal -0.999984383583 -0.00557571463287 0.0
outer loop
vertex 0.0816928297281 4.25005483627 -6.5
vertex 0.0816928297281 4.25005483627 -6.44000005722
vertex 0.0814140439034 4.30005407333 -6.44000005722
endloop
endfacet
facet normal -0.999984383583 -0.00557571463287 0.0
outer loop
vertex 0.0814140439034 4.30005407333 -6.5
vertex 0.0816928297281 4.25005483627 -6.5
vertex 0.0814140439034 4.30005407333 -6.44000005722
endloop
endfacet
facet normal 0.0 0.0 -1.0
outer loop
vertex 9.84188079834 3.7743639946 -6.5
vertex 6.59493350983 4.05063772202 -6.5
vertex 9.84702014923 3.82409906387 -6.5
endloop
endfacet
facet normal 0.0 0.0 -1.0
outer loop
vertex 6.59493350983 4.05063772202 -6.5
vertex 6.5982708931 4.10052633286 -6.5
vertex 9.84702014923 3.82409906387 -6.5
endloop
endfacet
facet normal 0.0 0.0 -1.0
outer loop
vertex 6.59493350983 4.05063772202 -6.5
vertex 3.34011721611 4.20927047729 -6.5
vertex 6.5982708931 4.10052633286 -6.5
endloop
endfacet
facet normal 0.0 0.0 -1.0
outer loop
vertex 3.34011721611 4.20927047729 -6.5
vertex 3.34164738655 4.25924730301 -6.5
vertex 6.5982708931 4.10052633286 -6.5
endloop
endfacet
facet normal 0.0 0.0 -1.0
outer loop
vertex 3.34011721611 4.20927047729 -6.5
vertex 0.0816928297281 4.25005483627 -6.5
vertex 3.34164738655 4.25924730301 -6.5
endloop
endfacet
facet normal 0.0 0.0 -1.0
outer loop
vertex 0.0816928297281 4.25005483627 -6.5
vertex 0.0814140439034 4.30005407333 -6.5
vertex 3.34164738655 4.25924730301 -6.5
endloop
endfacet
facet normal 0.0 0.0 1.0
outer loop
vertex 6.5982708931 4.10052633286 -6.44000005722
vertex 6.59493350983 4.05063772202 -6.44000005722
vertex 9.84188079834 3.7743639946 -6.44000005722
endloop
endfacet
facet normal 0.0 0.0 1.0
outer loop
vertex 6.5982708931 4.10052633286 -6.44000005722
vertex 9.84188079834 3.7743639946 -6.44000005722
vertex 9.84702014923 3.82409906387 -6.44000005722
endloop
endfacet
facet normal 0.0 0.0 1.0
outer loop
vertex 3.34164738655 4.25924730301 -6.44000005722
vertex 3.34011721611 4.20927047729 -6.44000005722
vertex 6.59493350983 4.05063772202 -6.44000005722
endloop
endfacet
facet normal 0.0 0.0 1.0
outer loop
vertex 3.34164738655 4.25924730301 -6.44000005722
vertex 6.59493350983 4.05063772202 -6.44000005722
vertex 6.5982708931 4.10052633286 -6.44000005722
endloop
endfacet
facet normal 0.0 0.0 1.0
outer loop
vertex 0.0814140439034 4.30005407333 -6.44000005722
vertex 0.0816928297281 4.25005483627 -6.44000005722
vertex 3.34011721611 4.20927047729 -6.44000005722
endloop
endfacet
facet normal 0.0 0.0 1.0
outer loop
vertex 0.0814140439034 4.30005407333 -6.44000005722
vertex 3.34011721611 4.20927047729 -6.44000005722
vertex 3.34164738655 4.25924730301 -6.44000005722
endloop
endfacet
