solid 
facet normal -0.120770767331 0.992680430412 0.0
outer loop
vertex -13.0836601257 3.43032693863 58.5580024719
vertex -9.84703731537 3.82409858704 58.5580024719
vertex -9.84703731537 3.82409858704 58.4980010986
endloop
endfacet
facet normal -0.120770767331 0.992680430412 0.0
outer loop
vertex -13.0836601257 3.43032693863 58.5580024719
vertex -9.84703731537 3.82409858704 58.4980010986
vertex -13.0836601257 3.43032693863 58.4980010986
endloop
endfacet
facet normal -0.156602352858 0.987661719322 0.0
outer loop
vertex -16.3039207458 2.91972661018 58.5580024719
vertex -13.0836601257 3.43032693863 58.4980010986
vertex -16.3039207458 2.91972661018 58.4980010986
endloop
endfacet
facet normal -0.156602352858 0.987661719322 0.0
outer loop
vertex -16.3039207458 2.91972661018 58.5580024719
vertex -13.0836601257 3.43032693863 58.5580024719
vertex -13.0836601257 3.43032693863 58.4980010986
endloop
endfacet
facet normal -0.192229092121 0.981350004673 0.0
outer loop
vertex -19.5036010742 2.29296588898 58.5580024719
vertex -16.3039207458 2.91972661018 58.4980010986
vertex -19.5036010742 2.29296588898 58.4980010986
endloop
endfacet
facet normal -0.192229092121 0.981350004673 0.0
outer loop
vertex -19.5036010742 2.29296588898 58.5580024719
vertex -16.3039207458 2.91972661018 58.5580024719
vertex -16.3039207458 2.91972661018 58.4980010986
endloop
endfacet
facet normal -0.977709889412 -0.209960564971 -0.0
outer loop
vertex -19.5036010742 2.29296588898 58.5580024719
vertex -19.5036010742 2.29296588898 58.4980010986
vertex -19.4931030273 2.2440803051 58.5580024719
endloop
endfacet
facet normal -0.977709889412 -0.209960564971 0.0
outer loop
vertex -19.5036010742 2.29296588898 58.4980010986
vertex -19.4931030273 2.2440803051 58.4980010986
vertex -19.4931030273 2.2440803051 58.5580024719
endloop
endfacet
facet normal 0.120770677924 -0.992680370808 0.0
outer loop
vertex -9.8418970108 3.77436327934 58.4980010986
vertex -9.8418970108 3.77436327934 58.5580024719
vertex -13.0767250061 3.38081026077 58.4980010986
endloop
endfacet
facet normal 0.156602397561 -0.987661778927 0.0
outer loop
vertex -13.0767250061 3.38081026077 58.4980010986
vertex -13.0767250061 3.38081026077 58.5580024719
vertex -16.2951984406 2.8704931736 58.4980010986
endloop
endfacet
facet normal 0.120770677924 -0.992680370808 0.0
outer loop
vertex -9.8418970108 3.77436327934 58.5580024719
vertex -13.0767250061 3.38081026077 58.5580024719
vertex -13.0767250061 3.38081026077 58.4980010986
endloop
endfacet
facet normal 0.192229107022 -0.981350123882 0.0
outer loop
vertex -16.2951984406 2.8704931736 58.4980010986
vertex -16.2951984406 2.8704931736 58.5580024719
vertex -19.4931030273 2.2440803051 58.4980010986
endloop
endfacet
facet normal 0.156602397561 -0.987661778927 0.0
outer loop
vertex -13.0767250061 3.38081026077 58.5580024719
vertex -16.2951984406 2.8704931736 58.5580024719
vertex -16.2951984406 2.8704931736 58.4980010986
endloop
endfacet
facet normal 0.192229107022 -0.981350123882 0.0
outer loop
vertex -16.2951984406 2.8704931736 58.5580024719
vertex -19.4931030273 2.2440803051 58.5580024719
vertex -19.4931030273 2.2440803051 58.4980010986
endloop
endfacet
facet normal 0.994701445103 0.102805607021 0.0
outer loop
vertex -9.8418970108 3.77436327934 58.5580024719
vertex -9.84703731537 3.82409858704 58.4980010986
vertex -9.84703731537 3.82409858704 58.5580024719
endloop
endfacet
facet normal 0.994701445103 0.102805607021 -0.0
outer loop
vertex -9.8418970108 3.77436327934 58.4980010986
vertex -9.84703731537 3.82409858704 58.4980010986
vertex -9.8418970108 3.77436327934 58.5580024719
endloop
endfacet
facet normal 0.0 -0.0 -1.0
outer loop
vertex -16.3039207458 2.91972661018 58.4980010986
vertex -16.2951984406 2.8704931736 58.4980010986
vertex -19.4931030273 2.2440803051 58.4980010986
endloop
endfacet
facet normal 0.0 0.0 -1.0
outer loop
vertex -16.3039207458 2.91972661018 58.4980010986
vertex -19.4931030273 2.2440803051 58.4980010986
vertex -19.5036010742 2.29296588898 58.4980010986
endloop
endfacet
facet normal 0.0 -0.0 -1.0
outer loop
vertex -13.0836601257 3.43032693863 58.4980010986
vertex -13.0767250061 3.38081026077 58.4980010986
vertex -16.2951984406 2.8704931736 58.4980010986
endloop
endfacet
facet normal 0.0 0.0 -1.0
outer loop
vertex -13.0836601257 3.43032693863 58.4980010986
vertex -16.2951984406 2.8704931736 58.4980010986
vertex -16.3039207458 2.91972661018 58.4980010986
endloop
endfacet
facet normal 0.0 -0.0 -1.0
outer loop
vertex -9.84703731537 3.82409858704 58.4980010986
vertex -9.8418970108 3.77436327934 58.4980010986
vertex -13.0767250061 3.38081026077 58.4980010986
endloop
endfacet
facet normal 0.0 0.0 -1.0
outer loop
vertex -9.84703731537 3.82409858704 58.4980010986
vertex -13.0767250061 3.38081026077 58.4980010986
vertex -13.0836601257 3.43032693863 58.4980010986
endloop
endfacet
facet normal 0.0 -0.0 1.0
outer loop
vertex -19.4931030273 2.2440803051 58.5580024719
vertex -16.2951984406 2.8704931736 58.5580024719
vertex -19.5036010742 2.29296588898 58.5580024719
endloop
endfacet
facet normal 0.0 0.0 1.0
outer loop
vertex -16.2951984406 2.8704931736 58.5580024719
vertex -16.3039207458 2.91972661018 58.5580024719
vertex -19.5036010742 2.29296588898 58.5580024719
endloop
endfacet
facet normal 0.0 -0.0 1.0
outer loop
vertex -16.2951984406 2.8704931736 58.5580024719
vertex -13.0767250061 3.38081026077 58.5580024719
vertex -16.3039207458 2.91972661018 58.5580024719
endloop
endfacet
facet normal 0.0 0.0 1.0
outer loop
vertex -13.0767250061 3.38081026077 58.5580024719
vertex -13.0836601257 3.43032693863 58.5580024719
vertex -16.3039207458 2.91972661018 58.5580024719
endloop
endfacet
facet normal 0.0 -0.0 1.0
outer loop
vertex -13.0767250061 3.38081026077 58.5580024719
vertex -9.8418970108 3.77436327934 58.5580024719
vertex -13.0836601257 3.43032693863 58.5580024719
endloop
endfacet
facet normal 0.0 0.0 1.0
outer loop
vertex -9.8418970108 3.77436327934 58.5580024719
vertex -9.84703731537 3.82409858704 58.5580024719
vertex -13.0836601257 3.43032693863 58.5580024719
endloop
endfacet
