solid 
facet normal 0.0125156836584 0.999921679497 0.0
outer loop
vertex 3.34165763855 4.25924777985 36.8320007324
vertex 0.0814241394401 4.30005502701 36.8320007324
vertex 0.0814241394401 4.30005502701 36.8920021057
endloop
endfacet
facet normal 0.0125156836584 0.999921679497 -0.0
outer loop
vertex 3.34165763855 4.25924777985 36.8320007324
vertex 0.0814241394401 4.30005502701 36.8920021057
vertex 3.34165763855 4.25924777985 36.8920021057
endloop
endfacet
facet normal 0.0486802607775 0.998814463615 -0.0
outer loop
vertex 6.59828090668 4.10052633286 36.8320007324
vertex 3.34165763855 4.25924777985 36.8920021057
vertex 6.59828090668 4.10052633286 36.8920021057
endloop
endfacet
facet normal 0.0847809314728 0.996399641037 -0.0
outer loop
vertex 6.59828090668 4.10052633286 36.8320007324
vertex 6.59828090668 4.10052633286 36.8920021057
vertex 9.84703063965 3.82409906387 36.8920021057
endloop
endfacet
facet normal 0.0486802607775 0.998814463615 0.0
outer loop
vertex 6.59828090668 4.10052633286 36.8320007324
vertex 3.34165763855 4.25924777985 36.8320007324
vertex 3.34165763855 4.25924777985 36.8920021057
endloop
endfacet
facet normal 0.0847809314728 0.996399641037 -0.0
outer loop
vertex 9.84703063965 3.82409906387 36.8320007324
vertex 6.59828090668 4.10052633286 36.8320007324
vertex 9.84703063965 3.82409906387 36.8920021057
endloop
endfacet
facet normal 0.994703292847 -0.102787218988 0.0
outer loop
vertex 9.84703063965 3.82409906387 36.8320007324
vertex 9.84703063965 3.82409906387 36.8920021057
vertex 9.84189128876 3.7743639946 36.8920021057
endloop
endfacet
facet normal 0.994703292847 -0.102787218988 0.0
outer loop
vertex 9.84189128876 3.7743639946 36.8320007324
vertex 9.84703063965 3.82409906387 36.8320007324
vertex 9.84189128876 3.7743639946 36.8920021057
endloop
endfacet
facet normal -0.0125157553703 -0.999921679497 0.0
outer loop
vertex 0.0817029178143 4.25005578995 36.8920021057
vertex 3.34012746811 4.20927095413 36.8320007324
vertex 3.34012746811 4.20927095413 36.8920021057
endloop
endfacet
facet normal -0.0486802235246 -0.998814463615 -0.0
outer loop
vertex 3.34012746811 4.20927095413 36.8920021057
vertex 3.34012746811 4.20927095413 36.8320007324
vertex 6.59494352341 4.05063772202 36.8920021057
endloop
endfacet
facet normal -0.0125157553703 -0.999921679497 0.0
outer loop
vertex 0.0817029178143 4.25005578995 36.8320007324
vertex 3.34012746811 4.20927095413 36.8320007324
vertex 0.0817029178143 4.25005578995 36.8920021057
endloop
endfacet
facet normal -0.0847808644176 -0.996399641037 -0.0
outer loop
vertex 6.59494352341 4.05063772202 36.8920021057
vertex 6.59494352341 4.05063772202 36.8320007324
vertex 9.84189128876 3.7743639946 36.8920021057
endloop
endfacet
facet normal -0.0486802235246 -0.998814463615 0.0
outer loop
vertex 3.34012746811 4.20927095413 36.8320007324
vertex 6.59494352341 4.05063772202 36.8320007324
vertex 6.59494352341 4.05063772202 36.8920021057
endloop
endfacet
facet normal -0.0847808644176 -0.996399641037 0.0
outer loop
vertex 6.59494352341 4.05063772202 36.8320007324
vertex 9.84189128876 3.7743639946 36.8320007324
vertex 9.84189128876 3.7743639946 36.8920021057
endloop
endfacet
facet normal -0.999984502792 -0.00557556608692 0.0
outer loop
vertex 0.0817029178143 4.25005578995 36.8320007324
vertex 0.0817029178143 4.25005578995 36.8920021057
vertex 0.0814241394401 4.30005502701 36.8920021057
endloop
endfacet
facet normal -0.999984502792 -0.00557556608692 0.0
outer loop
vertex 0.0814241394401 4.30005502701 36.8320007324
vertex 0.0817029178143 4.25005578995 36.8320007324
vertex 0.0814241394401 4.30005502701 36.8920021057
endloop
endfacet
facet normal 0.0 0.0 -1.0
outer loop
vertex 9.84189128876 3.7743639946 36.8320007324
vertex 6.59494352341 4.05063772202 36.8320007324
vertex 9.84703063965 3.82409906387 36.8320007324
endloop
endfacet
facet normal 0.0 0.0 -1.0
outer loop
vertex 6.59494352341 4.05063772202 36.8320007324
vertex 6.59828090668 4.10052633286 36.8320007324
vertex 9.84703063965 3.82409906387 36.8320007324
endloop
endfacet
facet normal 0.0 0.0 -1.0
outer loop
vertex 6.59494352341 4.05063772202 36.8320007324
vertex 3.34012746811 4.20927095413 36.8320007324
vertex 6.59828090668 4.10052633286 36.8320007324
endloop
endfacet
facet normal 0.0 0.0 -1.0
outer loop
vertex 3.34012746811 4.20927095413 36.8320007324
vertex 3.34165763855 4.25924777985 36.8320007324
vertex 6.59828090668 4.10052633286 36.8320007324
endloop
endfacet
facet normal 0.0 0.0 -1.0
outer loop
vertex 3.34012746811 4.20927095413 36.8320007324
vertex 0.0817029178143 4.25005578995 36.8320007324
vertex 3.34165763855 4.25924777985 36.8320007324
endloop
endfacet
facet normal 0.0 0.0 -1.0
outer loop
vertex 0.0817029178143 4.25005578995 36.8320007324
vertex 0.0814241394401 4.30005502701 36.8320007324
vertex 3.34165763855 4.25924777985 36.8320007324
endloop
endfacet
facet normal 0.0 0.0 1.0
outer loop
vertex 6.59828090668 4.10052633286 36.8920021057
vertex 6.59494352341 4.05063772202 36.8920021057
vertex 9.84189128876 3.7743639946 36.8920021057
endloop
endfacet
facet normal 0.0 0.0 1.0
outer loop
vertex 6.59828090668 4.10052633286 36.8920021057
vertex 9.84189128876 3.7743639946 36.8920021057
vertex 9.84703063965 3.82409906387 36.8920021057
endloop
endfacet
facet normal 0.0 0.0 1.0
outer loop
vertex 3.34165763855 4.25924777985 36.8920021057
vertex 3.34012746811 4.20927095413 36.8920021057
vertex 6.59494352341 4.05063772202 36.8920021057
endloop
endfacet
facet normal 0.0 0.0 1.0
outer loop
vertex 3.34165763855 4.25924777985 36.8920021057
vertex 6.59494352341 4.05063772202 36.8920021057
vertex 6.59828090668 4.10052633286 36.8920021057
endloop
endfacet
facet normal 0.0 0.0 1.0
outer loop
vertex 0.0814241394401 4.30005502701 36.8920021057
vertex 0.0817029178143 4.25005578995 36.8920021057
vertex 3.34012746811 4.20927095413 36.8920021057
endloop
endfacet
facet normal 0.0 0.0 1.0
outer loop
vertex 0.0814241394401 4.30005502701 36.8920021057
vertex 3.34012746811 4.20927095413 36.8920021057
vertex 3.34165763855 4.25924777985 36.8920021057
endloop
endfacet
