solid 
facet normal 0.00497377943248 0.999987661839 -1.03195620452e-11
outer loop
vertex -0.0814180448651 4.30005550385 36.8320007324
vertex -0.0814180523157 4.30005550385 33.2410011292
vertex -0.189750030637 4.30059432983 33.2410011292
endloop
endfacet
facet normal 0.00497377850115 0.999987602234 0.0
outer loop
vertex -0.189750030637 4.30059432983 36.8320007324
vertex -0.0814180448651 4.30005550385 36.8320007324
vertex -0.189750030637 4.30059432983 33.2410011292
endloop
endfacet
facet normal 0.00377214886248 0.999992847443 0.0
outer loop
vertex -0.298082590103 4.30100297928 36.8320007324
vertex -0.189750030637 4.30059432983 33.2410011292
vertex -0.298082590103 4.30100297928 33.2410011292
endloop
endfacet
facet normal 0.00257051945664 0.999996721745 0.0
outer loop
vertex -0.298082590103 4.30100297928 36.8320007324
vertex -0.298082590103 4.30100297928 33.2410011292
vertex -0.406415551901 4.30128145218 33.2410011292
endloop
endfacet
facet normal 0.00377214886248 0.999992847443 0.0
outer loop
vertex -0.298082590103 4.30100297928 36.8320007324
vertex -0.189750030637 4.30059432983 36.8320007324
vertex -0.189750030637 4.30059432983 33.2410011292
endloop
endfacet
facet normal 0.00257051945664 0.999996721745 0.0
outer loop
vertex -0.406415551901 4.30128145218 36.8320007324
vertex -0.298082590103 4.30100297928 36.8320007324
vertex -0.406415551901 4.30128145218 33.2410011292
endloop
endfacet
facet normal -0.999998092651 0.00196932628751 2.60867244473e-10
outer loop
vertex -0.406415551901 4.30128145218 36.8320007324
vertex -0.406514018774 4.25128173828 33.2410011292
vertex -0.406514018774 4.25128126144 36.8320007324
endloop
endfacet
facet normal -0.999998092651 0.00196934514679 0.0
outer loop
vertex -0.406415551901 4.30128145218 33.2410011292
vertex -0.406514018774 4.25128173828 33.2410011292
vertex -0.406415551901 4.30128145218 36.8320007324
endloop
endfacet
facet normal -0.00497213611379 -0.999987661839 0.0
outer loop
vertex -0.0816968306899 4.25005626678 33.2410011292
vertex -0.189968705177 4.25059461594 36.8320007324
vertex -0.189968705177 4.25059461594 33.2410011292
endloop
endfacet
facet normal -0.00377424200997 -0.999992787838 0.0
outer loop
vertex -0.189968705177 4.25059461594 33.2410011292
vertex -0.189968705177 4.25059461594 36.8320007324
vertex -0.298241168261 4.25100326538 33.2410011292
endloop
endfacet
facet normal -0.00497213564813 -0.999987661839 2.06323031576e-11
outer loop
vertex -0.0816968157887 4.25005626678 36.8320007324
vertex -0.189968705177 4.25059461594 36.8320007324
vertex -0.0816968306899 4.25005626678 33.2410011292
endloop
endfacet
facet normal -0.00257194647565 -0.999996721745 2.13450247061e-11
outer loop
vertex -0.298241168261 4.25100326538 33.2410011292
vertex -0.298241138458 4.25100326538 36.8320007324
vertex -0.406514018774 4.25128173828 33.2410011292
endloop
endfacet
facet normal -0.00377424363978 -0.999992847443 2.80701729222e-11
outer loop
vertex -0.189968705177 4.25059461594 36.8320007324
vertex -0.298241138458 4.25100326538 36.8320007324
vertex -0.298241168261 4.25100326538 33.2410011292
endloop
endfacet
facet normal -0.00256754178554 -0.999996721745 -1.3278591382e-07
outer loop
vertex -0.298241138458 4.25100326538 36.8320007324
vertex -0.406514018774 4.25128126144 36.8320007324
vertex -0.406514018774 4.25128173828 33.2410011292
endloop
endfacet
facet normal 0.999984502792 -0.00557541707531 -4.1495216152e-09
outer loop
vertex -0.0816968157887 4.25005626678 36.8320007324
vertex -0.0816968306899 4.25005626678 33.2410011292
vertex -0.0814180448651 4.30005550385 36.8320007324
endloop
endfacet
facet normal 0.999984502792 -0.00557556655258 -2.076818717e-09
outer loop
vertex -0.0816968306899 4.25005626678 33.2410011292
vertex -0.0814180523157 4.30005550385 33.2410011292
vertex -0.0814180448651 4.30005550385 36.8320007324
endloop
endfacet
facet normal 0.0 0.0 -1.0
outer loop
vertex -0.298241168261 4.25100326538 33.2410011292
vertex -0.406514018774 4.25128173828 33.2410011292
vertex -0.406415551901 4.30128145218 33.2410011292
endloop
endfacet
facet normal -0.0 0.0 -1.0
outer loop
vertex -0.298082590103 4.30100297928 33.2410011292
vertex -0.298241168261 4.25100326538 33.2410011292
vertex -0.406415551901 4.30128145218 33.2410011292
endloop
endfacet
facet normal 0.0 0.0 -1.0
outer loop
vertex -0.189750030637 4.30059432983 33.2410011292
vertex -0.189968705177 4.25059461594 33.2410011292
vertex -0.298241168261 4.25100326538 33.2410011292
endloop
endfacet
facet normal -0.0 0.0 -1.0
outer loop
vertex -0.189750030637 4.30059432983 33.2410011292
vertex -0.298241168261 4.25100326538 33.2410011292
vertex -0.298082590103 4.30100297928 33.2410011292
endloop
endfacet
facet normal 0.0 0.0 -1.0
outer loop
vertex -0.0814180523157 4.30005550385 33.2410011292
vertex -0.0816968306899 4.25005626678 33.2410011292
vertex -0.189968705177 4.25059461594 33.2410011292
endloop
endfacet
facet normal -0.0 0.0 -1.0
outer loop
vertex -0.0814180523157 4.30005550385 33.2410011292
vertex -0.189968705177 4.25059461594 33.2410011292
vertex -0.189750030637 4.30059432983 33.2410011292
endloop
endfacet
facet normal -0.0 0.0 1.0
outer loop
vertex -0.406514018774 4.25128126144 36.8320007324
vertex -0.298241138458 4.25100326538 36.8320007324
vertex -0.406415551901 4.30128145218 36.8320007324
endloop
endfacet
facet normal 0.0 -0.0 1.0
outer loop
vertex -0.298241138458 4.25100326538 36.8320007324
vertex -0.298082590103 4.30100297928 36.8320007324
vertex -0.406415551901 4.30128145218 36.8320007324
endloop
endfacet
facet normal 0.0 -0.0 1.0
outer loop
vertex -0.189968705177 4.25059461594 36.8320007324
vertex -0.189750030637 4.30059432983 36.8320007324
vertex -0.298241138458 4.25100326538 36.8320007324
endloop
endfacet
facet normal 0.0 0.0 1.0
outer loop
vertex -0.298241138458 4.25100326538 36.8320007324
vertex -0.189750030637 4.30059432983 36.8320007324
vertex -0.298082590103 4.30100297928 36.8320007324
endloop
endfacet
facet normal 0.0 -0.0 1.0
outer loop
vertex -0.0816968157887 4.25005626678 36.8320007324
vertex -0.0814180448651 4.30005550385 36.8320007324
vertex -0.189968705177 4.25059461594 36.8320007324
endloop
endfacet
facet normal 0.0 0.0 1.0
outer loop
vertex -0.189968705177 4.25059461594 36.8320007324
vertex -0.0814180448651 4.30005550385 36.8320007324
vertex -0.189750030637 4.30059432983 36.8320007324
endloop
endfacet
