solid 
facet normal -0.00497817993164 0.999987602234 -1.87030599341e-11
outer loop
vertex 0.189755037427 4.30059480667 51.3160018921
vertex 0.0814230442047 4.30005550385 51.3160018921
vertex 0.0814230293036 4.30005550385 54.9070014954
endloop
endfacet
facet normal -0.00497377943248 0.999987661839 1.32743835479e-07
outer loop
vertex 0.189755037427 4.30059480667 51.3160018921
vertex 0.0814230293036 4.30005550385 54.9070014954
vertex 0.189755007625 4.30059432983 54.9070014954
endloop
endfacet
facet normal -0.00377214886248 0.999992847443 1.3275449362e-07
outer loop
vertex 0.298087596893 4.30100345612 51.3160018921
vertex 0.189755007625 4.30059432983 54.9070014954
vertex 0.298087567091 4.30100297928 54.9070014954
endloop
endfacet
facet normal -0.00257051945664 0.999996721745 1.3276496702e-07
outer loop
vertex 0.298087596893 4.30100345612 51.3160018921
vertex 0.298087567091 4.30100297928 54.9070014954
vertex 0.406420528889 4.30128145218 54.9070014954
endloop
endfacet
facet normal -0.00377214886248 0.999992847443 1.32754337301e-07
outer loop
vertex 0.298087596893 4.30100345612 51.3160018921
vertex 0.189755037427 4.30059480667 51.3160018921
vertex 0.189755007625 4.30059432983 54.9070014954
endloop
endfacet
facet normal -0.00257051945664 0.999996721745 1.3276496702e-07
outer loop
vertex 0.406420558691 4.30128192902 51.3160018921
vertex 0.298087596893 4.30100345612 51.3160018921
vertex 0.406420528889 4.30128145218 54.9070014954
endloop
endfacet
facet normal 0.999998092651 0.00196873000823 8.56049808817e-09
outer loop
vertex 0.406518995762 4.25128173828 51.3160018921
vertex 0.406420558691 4.30128192902 51.3160018921
vertex 0.406420528889 4.30128145218 54.9070014954
endloop
endfacet
facet normal 0.999998092651 0.00196934514679 -0.0
outer loop
vertex 0.406518995762 4.25128173828 51.3160018921
vertex 0.406420528889 4.30128145218 54.9070014954
vertex 0.406518995762 4.25128173828 54.9070014954
endloop
endfacet
facet normal 0.00497653940693 -0.999987602234 1.87134439888e-11
outer loop
vertex 0.0817018002272 4.25005626678 54.9070014954
vertex 0.189973697066 4.25059509277 51.3160018921
vertex 0.189973682165 4.25059509277 54.9070014954
endloop
endfacet
facet normal 0.00376984011382 -0.999992966652 1.56432748699e-11
outer loop
vertex 0.189973682165 4.25059509277 54.9070014954
vertex 0.189973697066 4.25059509277 51.3160018921
vertex 0.298246115446 4.25100326538 54.9070014954
endloop
endfacet
facet normal 0.00497213611379 -0.999987661839 -1.32754166771e-07
outer loop
vertex 0.0817018225789 4.25005674362 51.3160018921
vertex 0.189973697066 4.25059509277 51.3160018921
vertex 0.0817018002272 4.25005626678 54.9070014954
endloop
endfacet
facet normal 0.00257194600999 -0.999996721745 -1.3276496702e-07
outer loop
vertex 0.298246115446 4.25100326538 54.9070014954
vertex 0.298246145248 4.25100374222 51.3160018921
vertex 0.406518995762 4.25128173828 54.9070014954
endloop
endfacet
facet normal 0.00377424294129 -0.999992847443 -1.32753186222e-07
outer loop
vertex 0.189973697066 4.25059509277 51.3160018921
vertex 0.298246145248 4.25100374222 51.3160018921
vertex 0.298246115446 4.25100326538 54.9070014954
endloop
endfacet
facet normal 0.00256754248403 -0.999996721745 0.0
outer loop
vertex 0.298246145248 4.25100374222 51.3160018921
vertex 0.406518995762 4.25128173828 51.3160018921
vertex 0.406518995762 4.25128173828 54.9070014954
endloop
endfacet
facet normal -0.999984502792 -0.00557541707531 -6.96462398864e-09
outer loop
vertex 0.0817018225789 4.25005674362 51.3160018921
vertex 0.0817018002272 4.25005626678 54.9070014954
vertex 0.0814230293036 4.30005550385 54.9070014954
endloop
endfacet
facet normal -0.999984502792 -0.00557561963797 -4.1495216152e-09
outer loop
vertex 0.0814230442047 4.30005550385 51.3160018921
vertex 0.0817018225789 4.25005674362 51.3160018921
vertex 0.0814230293036 4.30005550385 54.9070014954
endloop
endfacet
facet normal -0.0 0.0 -1.0
outer loop
vertex 0.406518995762 4.25128173828 51.3160018921
vertex 0.298246145248 4.25100374222 51.3160018921
vertex 0.406420558691 4.30128192902 51.3160018921
endloop
endfacet
facet normal 0.0 0.0 -1.0
outer loop
vertex 0.298246145248 4.25100374222 51.3160018921
vertex 0.298087596893 4.30100345612 51.3160018921
vertex 0.406420558691 4.30128192902 51.3160018921
endloop
endfacet
facet normal 0.0 0.0 -1.0
outer loop
vertex 0.189973697066 4.25059509277 51.3160018921
vertex 0.189755037427 4.30059480667 51.3160018921
vertex 0.298246145248 4.25100374222 51.3160018921
endloop
endfacet
facet normal 0.0 0.0 -1.0
outer loop
vertex 0.298246145248 4.25100374222 51.3160018921
vertex 0.189755037427 4.30059480667 51.3160018921
vertex 0.298087596893 4.30100345612 51.3160018921
endloop
endfacet
facet normal 0.0 0.0 -1.0
outer loop
vertex 0.0817018225789 4.25005674362 51.3160018921
vertex 0.0814230442047 4.30005550385 51.3160018921
vertex 0.189973697066 4.25059509277 51.3160018921
endloop
endfacet
facet normal 0.0 0.0 -1.0
outer loop
vertex 0.189973697066 4.25059509277 51.3160018921
vertex 0.0814230442047 4.30005550385 51.3160018921
vertex 0.189755037427 4.30059480667 51.3160018921
endloop
endfacet
facet normal 0.0 0.0 1.0
outer loop
vertex 0.298246115446 4.25100326538 54.9070014954
vertex 0.406518995762 4.25128173828 54.9070014954
vertex 0.406420528889 4.30128145218 54.9070014954
endloop
endfacet
facet normal -0.0 0.0 1.0
outer loop
vertex 0.298087567091 4.30100297928 54.9070014954
vertex 0.298246115446 4.25100326538 54.9070014954
vertex 0.406420528889 4.30128145218 54.9070014954
endloop
endfacet
facet normal 0.0 0.0 1.0
outer loop
vertex 0.189755007625 4.30059432983 54.9070014954
vertex 0.189973682165 4.25059509277 54.9070014954
vertex 0.298246115446 4.25100326538 54.9070014954
endloop
endfacet
facet normal -0.0 0.0 1.0
outer loop
vertex 0.189755007625 4.30059432983 54.9070014954
vertex 0.298246115446 4.25100326538 54.9070014954
vertex 0.298087567091 4.30100297928 54.9070014954
endloop
endfacet
facet normal 0.0 0.0 1.0
outer loop
vertex 0.0814230293036 4.30005550385 54.9070014954
vertex 0.0817018002272 4.25005626678 54.9070014954
vertex 0.189973682165 4.25059509277 54.9070014954
endloop
endfacet
facet normal -0.0 0.0 1.0
outer loop
vertex 0.0814230293036 4.30005550385 54.9070014954
vertex 0.189973682165 4.25059509277 54.9070014954
vertex 0.189755007625 4.30059432983 54.9070014954
endloop
endfacet
