solid 
facet normal -0.207014501095 0.978337883949 0.0
outer loop
vertex -19.2917022705 2.33820152283 -214.350006104
vertex -19.185716629 2.36062788963 -214.350006104
vertex -19.185716629 2.36062788963 -217.940994263
endloop
endfacet
facet normal -0.207012400031 0.978338360786 6.49553939525e-08
outer loop
vertex -19.2917022705 2.33820152283 -214.350006104
vertex -19.185716629 2.36062788963 -217.940994263
vertex -19.2917022705 2.33820176125 -217.940994263
endloop
endfacet
facet normal -0.208185568452 0.978089332581 0.0
outer loop
vertex -19.3976631165 2.31564807892 -214.350006104
vertex -19.2917022705 2.33820176125 -217.940994263
vertex -19.3976631165 2.31564807892 -217.940994263
endloop
endfacet
facet normal -0.209363460541 0.977837979794 0.0
outer loop
vertex -19.3976631165 2.31564807892 -214.350006104
vertex -19.3976631165 2.31564807892 -217.940994263
vertex -19.5035953522 2.29296708107 -217.940994263
endloop
endfacet
facet normal -0.208183452487 0.978089809418 6.46373052859e-08
outer loop
vertex -19.3976631165 2.31564807892 -214.350006104
vertex -19.2917022705 2.33820152283 -214.350006104
vertex -19.2917022705 2.33820176125 -217.940994263
endloop
endfacet
facet normal -0.209363460541 0.977837979794 0.0
outer loop
vertex -19.5035953522 2.29296708107 -214.350006104
vertex -19.3976631165 2.31564807892 -214.350006104
vertex -19.5035953522 2.29296708107 -217.940994263
endloop
endfacet
facet normal -0.977709889412 -0.20996055007 -0.0
outer loop
vertex -19.5035953522 2.29296708107 -214.350006104
vertex -19.5035953522 2.29296708107 -217.940994263
vertex -19.4930973053 2.24408149719 -214.350006104
endloop
endfacet
facet normal -0.977709889412 -0.20996055007 0.0
outer loop
vertex -19.5035953522 2.29296708107 -217.940994263
vertex -19.4930973053 2.24408149719 -217.940994263
vertex -19.4930973053 2.24408149719 -214.350006104
endloop
endfacet
facet normal 0.207011938095 -0.978338420391 -6.49554010579e-08
outer loop
vertex -19.1753940582 2.31170487404 -217.940994263
vertex -19.1753940582 2.31170463562 -214.350006104
vertex -19.2813224792 2.289290905 -217.940994263
endloop
endfacet
facet normal 0.20700982213 -0.978338897228 0.0
outer loop
vertex -19.1753940582 2.31170463562 -214.350006104
vertex -19.2813224792 2.289290905 -214.350006104
vertex -19.2813224792 2.289290905 -217.940994263
endloop
endfacet
facet normal 0.208185091615 -0.97808945179 0.0
outer loop
vertex -19.2813224792 2.289290905 -217.940994263
vertex -19.3872241974 2.26674985886 -214.350006104
vertex -19.3872241974 2.26674985886 -217.940994263
endloop
endfacet
facet normal 0.209363639355 -0.97783780098 0.0
outer loop
vertex -19.3872241974 2.26674985886 -217.940994263
vertex -19.3872241974 2.26674985886 -214.350006104
vertex -19.4930973053 2.24408149719 -217.940994263
endloop
endfacet
facet normal 0.208185091615 -0.97808945179 0.0
outer loop
vertex -19.2813224792 2.289290905 -214.350006104
vertex -19.3872241974 2.26674985886 -214.350006104
vertex -19.2813224792 2.289290905 -217.940994263
endloop
endfacet
facet normal 0.209363639355 -0.97783780098 0.0
outer loop
vertex -19.3872241974 2.26674985886 -214.350006104
vertex -19.4930973053 2.24408149719 -214.350006104
vertex -19.4930973053 2.24408149719 -217.940994263
endloop
endfacet
facet normal 0.978457212448 0.206449747086 0.0
outer loop
vertex -19.1753940582 2.31170463562 -214.350006104
vertex -19.185716629 2.36062788963 -217.940994263
vertex -19.185716629 2.36062788963 -214.350006104
endloop
endfacet
facet normal 0.978456914425 0.20645070076 1.3707002644e-08
outer loop
vertex -19.1753940582 2.31170487404 -217.940994263
vertex -19.185716629 2.36062788963 -217.940994263
vertex -19.1753940582 2.31170463562 -214.350006104
endloop
endfacet
facet normal -0.0 0.0 -1.0
outer loop
vertex -19.3872241974 2.26674985886 -217.940994263
vertex -19.4930973053 2.24408149719 -217.940994263
vertex -19.5035953522 2.29296708107 -217.940994263
endloop
endfacet
facet normal 0.0 -0.0 -1.0
outer loop
vertex -19.3976631165 2.31564807892 -217.940994263
vertex -19.3872241974 2.26674985886 -217.940994263
vertex -19.5035953522 2.29296708107 -217.940994263
endloop
endfacet
facet normal -0.0 0.0 -1.0
outer loop
vertex -19.2813224792 2.289290905 -217.940994263
vertex -19.3872241974 2.26674985886 -217.940994263
vertex -19.3976631165 2.31564807892 -217.940994263
endloop
endfacet
facet normal 0.0 -0.0 -1.0
outer loop
vertex -19.2917022705 2.33820176125 -217.940994263
vertex -19.2813224792 2.289290905 -217.940994263
vertex -19.3976631165 2.31564807892 -217.940994263
endloop
endfacet
facet normal 0.0 -0.0 -1.0
outer loop
vertex -19.185716629 2.36062788963 -217.940994263
vertex -19.1753940582 2.31170487404 -217.940994263
vertex -19.2813224792 2.289290905 -217.940994263
endloop
endfacet
facet normal 0.0 0.0 -1.0
outer loop
vertex -19.185716629 2.36062788963 -217.940994263
vertex -19.2813224792 2.289290905 -217.940994263
vertex -19.2917022705 2.33820176125 -217.940994263
endloop
endfacet
facet normal 0.0 -0.0 1.0
outer loop
vertex -19.4930973053 2.24408149719 -214.350006104
vertex -19.3872241974 2.26674985886 -214.350006104
vertex -19.5035953522 2.29296708107 -214.350006104
endloop
endfacet
facet normal 0.0 0.0 1.0
outer loop
vertex -19.3872241974 2.26674985886 -214.350006104
vertex -19.3976631165 2.31564807892 -214.350006104
vertex -19.5035953522 2.29296708107 -214.350006104
endloop
endfacet
facet normal 0.0 -0.0 1.0
outer loop
vertex -19.3872241974 2.26674985886 -214.350006104
vertex -19.2813224792 2.289290905 -214.350006104
vertex -19.3976631165 2.31564807892 -214.350006104
endloop
endfacet
facet normal 0.0 0.0 1.0
outer loop
vertex -19.2813224792 2.289290905 -214.350006104
vertex -19.2917022705 2.33820152283 -214.350006104
vertex -19.3976631165 2.31564807892 -214.350006104
endloop
endfacet
facet normal 0.0 -0.0 1.0
outer loop
vertex -19.2813224792 2.289290905 -214.350006104
vertex -19.1753940582 2.31170463562 -214.350006104
vertex -19.2917022705 2.33820152283 -214.350006104
endloop
endfacet
facet normal 0.0 0.0 1.0
outer loop
vertex -19.1753940582 2.31170463562 -214.350006104
vertex -19.185716629 2.36062788963 -214.350006104
vertex -19.2917022705 2.33820152283 -214.350006104
endloop
endfacet
