solid 
facet normal -0.00497817993164 -0.999987602234 1.87030425869e-11
outer loop
vertex 0.18975007534 -4.30059432983 205.759002686
vertex 0.0814180895686 -4.30005502701 205.759002686
vertex 0.0814180746675 -4.30005502701 202.167999268
endloop
endfacet
facet normal -0.00497817993164 -0.999987602234 2.0657362973e-11
outer loop
vertex 0.18975007534 -4.30059432983 205.759002686
vertex 0.0814180746675 -4.30005502701 202.167999268
vertex 0.189750060439 -4.30059432983 202.167999268
endloop
endfacet
facet normal -0.00377214886248 -0.999992847443 -0.0
outer loop
vertex 0.298082619905 -4.30100297928 205.759002686
vertex 0.189750060439 -4.30059432983 202.167999268
vertex 0.298082619905 -4.30100297928 202.167999268
endloop
endfacet
facet normal -0.00377214956097 -0.999992847443 1.87030443216e-11
outer loop
vertex 0.298082619905 -4.30100297928 205.759002686
vertex 0.18975007534 -4.30059432983 205.759002686
vertex 0.189750060439 -4.30059432983 202.167999268
endloop
endfacet
facet normal -0.00256611779332 -0.999996721745 -1.32764881755e-07
outer loop
vertex 0.406415611506 -4.30128145218 205.759002686
vertex 0.298082619905 -4.30100297928 202.167999268
vertex 0.406415581703 -4.30128097534 202.167999268
endloop
endfacet
facet normal -0.00257051875815 -0.999996721745 0.0
outer loop
vertex 0.406415611506 -4.30128145218 205.759002686
vertex 0.298082619905 -4.30100297928 205.759002686
vertex 0.298082619905 -4.30100297928 202.167999268
endloop
endfacet
facet normal 0.999998033047 -0.00196873000823 -8.56048831821e-09
outer loop
vertex 0.406514048576 -4.25128126144 205.759002686
vertex 0.406415611506 -4.30128145218 205.759002686
vertex 0.406415581703 -4.30128097534 202.167999268
endloop
endfacet
facet normal 0.999998033047 -0.00196934491396 0.0
outer loop
vertex 0.406514048576 -4.25128126144 205.759002686
vertex 0.406415581703 -4.30128097534 202.167999268
vertex 0.406514048576 -4.25128126144 202.167999268
endloop
endfacet
facet normal 0.00497653987259 0.999987661839 1.32764313321e-07
outer loop
vertex 0.0816968530416 -4.25005578995 202.167999268
vertex 0.0816968679428 -4.25005626678 205.759002686
vertex 0.18996873498 -4.25059461594 202.167999268
endloop
endfacet
facet normal 0.00497213564813 0.999987661839 -1.87134249069e-11
outer loop
vertex 0.0816968679428 -4.25005626678 205.759002686
vertex 0.189968749881 -4.25059461594 205.759002686
vertex 0.18996873498 -4.25059461594 202.167999268
endloop
endfacet
facet normal 0.00376983964816 0.999992847443 1.32753058324e-07
outer loop
vertex 0.18996873498 -4.25059461594 202.167999268
vertex 0.298241198063 -4.25100326538 205.759002686
vertex 0.298241168261 -4.25100278854 202.167999268
endloop
endfacet
facet normal 0.00377424317412 0.999992847443 -1.56615293651e-11
outer loop
vertex 0.189968749881 -4.25059461594 205.759002686
vertex 0.298241198063 -4.25100326538 205.759002686
vertex 0.18996873498 -4.25059461594 202.167999268
endloop
endfacet
facet normal 0.00257194577716 0.999996721745 0.0
outer loop
vertex 0.298241168261 -4.25100278854 202.167999268
vertex 0.406514048576 -4.25128126144 205.759002686
vertex 0.406514048576 -4.25128126144 202.167999268
endloop
endfacet
facet normal 0.0025675422512 0.999996721745 1.32764853333e-07
outer loop
vertex 0.298241198063 -4.25100326538 205.759002686
vertex 0.406514048576 -4.25128126144 205.759002686
vertex 0.298241168261 -4.25100278854 202.167999268
endloop
endfacet
facet normal -0.999984502792 0.00557556562126 4.88987739189e-09
outer loop
vertex 0.0816968679428 -4.25005626678 205.759002686
vertex 0.0816968530416 -4.25005578995 202.167999268
vertex 0.0814180746675 -4.30005502701 202.167999268
endloop
endfacet
facet normal -0.999984383583 0.0055756191723 4.14951673022e-09
outer loop
vertex 0.0814180895686 -4.30005502701 205.759002686
vertex 0.0816968679428 -4.25005626678 205.759002686
vertex 0.0814180746675 -4.30005502701 202.167999268
endloop
endfacet
facet normal 0.0 0.0 1.0
outer loop
vertex 0.406514048576 -4.25128126144 205.759002686
vertex 0.298241198063 -4.25100326538 205.759002686
vertex 0.406415611506 -4.30128145218 205.759002686
endloop
endfacet
facet normal 0.0 0.0 1.0
outer loop
vertex 0.298241198063 -4.25100326538 205.759002686
vertex 0.298082619905 -4.30100297928 205.759002686
vertex 0.406415611506 -4.30128145218 205.759002686
endloop
endfacet
facet normal 0.0 0.0 1.0
outer loop
vertex 0.189968749881 -4.25059461594 205.759002686
vertex 0.18975007534 -4.30059432983 205.759002686
vertex 0.298241198063 -4.25100326538 205.759002686
endloop
endfacet
facet normal 0.0 0.0 1.0
outer loop
vertex 0.298241198063 -4.25100326538 205.759002686
vertex 0.18975007534 -4.30059432983 205.759002686
vertex 0.298082619905 -4.30100297928 205.759002686
endloop
endfacet
facet normal 0.0 0.0 1.0
outer loop
vertex 0.0816968679428 -4.25005626678 205.759002686
vertex 0.0814180895686 -4.30005502701 205.759002686
vertex 0.189968749881 -4.25059461594 205.759002686
endloop
endfacet
facet normal 0.0 0.0 1.0
outer loop
vertex 0.189968749881 -4.25059461594 205.759002686
vertex 0.0814180895686 -4.30005502701 205.759002686
vertex 0.18975007534 -4.30059432983 205.759002686
endloop
endfacet
facet normal 0.0 0.0 -1.0
outer loop
vertex 0.298241168261 -4.25100278854 202.167999268
vertex 0.406514048576 -4.25128126144 202.167999268
vertex 0.406415581703 -4.30128097534 202.167999268
endloop
endfacet
facet normal 0.0 0.0 -1.0
outer loop
vertex 0.298082619905 -4.30100297928 202.167999268
vertex 0.298241168261 -4.25100278854 202.167999268
vertex 0.406415581703 -4.30128097534 202.167999268
endloop
endfacet
facet normal 0.0 0.0 -1.0
outer loop
vertex 0.189750060439 -4.30059432983 202.167999268
vertex 0.18996873498 -4.25059461594 202.167999268
vertex 0.298241168261 -4.25100278854 202.167999268
endloop
endfacet
facet normal 0.0 0.0 -1.0
outer loop
vertex 0.189750060439 -4.30059432983 202.167999268
vertex 0.298241168261 -4.25100278854 202.167999268
vertex 0.298082619905 -4.30100297928 202.167999268
endloop
endfacet
facet normal 0.0 0.0 -1.0
outer loop
vertex 0.0814180746675 -4.30005502701 202.167999268
vertex 0.0816968530416 -4.25005578995 202.167999268
vertex 0.18996873498 -4.25059461594 202.167999268
endloop
endfacet
facet normal 0.0 0.0 -1.0
outer loop
vertex 0.0814180746675 -4.30005502701 202.167999268
vertex 0.18996873498 -4.25059461594 202.167999268
vertex 0.189750060439 -4.30059432983 202.167999268
endloop
endfacet
