solid 
facet normal 0.00497377896681 0.999987661839 0.0
outer loop
vertex -0.189745098352 4.30059337616 -2.84900045395
vertex -0.0814131125808 4.30005455017 -2.84900045395
vertex -0.0814131125808 4.30005455017 -6.44000053406
endloop
endfacet
facet normal 0.00497377896681 0.999987661839 0.0
outer loop
vertex -0.189745098352 4.30059337616 -2.84900045395
vertex -0.0814131125808 4.30005455017 -6.44000053406
vertex -0.189745098352 4.30059337616 -6.44000053406
endloop
endfacet
facet normal 0.00377214932814 0.999992847443 0.0
outer loop
vertex -0.298077642918 4.3010020256 -2.84900045395
vertex -0.189745098352 4.30059337616 -6.44000053406
vertex -0.298077642918 4.3010020256 -6.44000053406
endloop
endfacet
facet normal 0.00377214932814 0.999992847443 0.0
outer loop
vertex -0.298077642918 4.3010020256 -2.84900045395
vertex -0.189745098352 4.30059337616 -2.84900045395
vertex -0.189745098352 4.30059337616 -6.44000053406
endloop
endfacet
facet normal 0.00257051875815 0.999996721745 0.0
outer loop
vertex -0.406410634518 4.3012804985 -2.84900045395
vertex -0.298077642918 4.3010020256 -6.44000053406
vertex -0.406410634518 4.3012804985 -6.44000053406
endloop
endfacet
facet normal 0.00257051875815 0.999996721745 0.0
outer loop
vertex -0.406410634518 4.3012804985 -2.84900045395
vertex -0.298077642918 4.3010020256 -2.84900045395
vertex -0.298077642918 4.3010020256 -6.44000053406
endloop
endfacet
facet normal -0.999998033047 0.00196874863468 0.0
outer loop
vertex -0.406410634518 4.3012804985 -2.84900045395
vertex -0.406509071589 4.25128078461 -6.44000053406
vertex -0.406509071589 4.25128078461 -2.84900045395
endloop
endfacet
facet normal -0.999998033047 0.00196874863468 0.0
outer loop
vertex -0.406410634518 4.3012804985 -6.44000053406
vertex -0.406509071589 4.25128078461 -6.44000053406
vertex -0.406410634518 4.3012804985 -2.84900045395
endloop
endfacet
facet normal -0.00497654033825 -0.999987661839 0.0
outer loop
vertex -0.0816918984056 4.25005531311 -6.44000053406
vertex -0.0816918984056 4.25005531311 -2.84900045395
vertex -0.189963772893 4.2505941391 -6.44000053406
endloop
endfacet
facet normal -0.00497654033825 -0.999987661839 0.0
outer loop
vertex -0.0816918984056 4.25005531311 -2.84900045395
vertex -0.189963772893 4.2505941391 -2.84900045395
vertex -0.189963772893 4.2505941391 -6.44000053406
endloop
endfacet
facet normal -0.00376983894967 -0.999992847443 0.0
outer loop
vertex -0.189963772893 4.2505941391 -6.44000053406
vertex -0.298236221075 4.25100231171 -2.84900045395
vertex -0.298236221075 4.25100231171 -6.44000053406
endloop
endfacet
facet normal -0.00376983894967 -0.999992847443 -0.0
outer loop
vertex -0.189963772893 4.2505941391 -2.84900045395
vertex -0.298236221075 4.25100231171 -2.84900045395
vertex -0.189963772893 4.2505941391 -6.44000053406
endloop
endfacet
facet normal -0.00257194670849 -0.999996721745 0.0
outer loop
vertex -0.298236221075 4.25100231171 -6.44000053406
vertex -0.406509071589 4.25128078461 -2.84900045395
vertex -0.406509071589 4.25128078461 -6.44000053406
endloop
endfacet
facet normal -0.00257194670849 -0.999996721745 -0.0
outer loop
vertex -0.298236221075 4.25100231171 -2.84900045395
vertex -0.406509071589 4.25128078461 -2.84900045395
vertex -0.298236221075 4.25100231171 -6.44000053406
endloop
endfacet
facet normal 0.999984502792 -0.00557571509853 0.0
outer loop
vertex -0.0816918984056 4.25005531311 -2.84900045395
vertex -0.0814131125808 4.30005455017 -6.44000053406
vertex -0.0814131125808 4.30005455017 -2.84900045395
endloop
endfacet
facet normal 0.999984502792 -0.00557571509853 0.0
outer loop
vertex -0.0816918984056 4.25005531311 -6.44000053406
vertex -0.0814131125808 4.30005455017 -6.44000053406
vertex -0.0816918984056 4.25005531311 -2.84900045395
endloop
endfacet
facet normal 0.0 0.0 -1.0
outer loop
vertex -0.298236221075 4.25100231171 -6.44000053406
vertex -0.406509071589 4.25128078461 -6.44000053406
vertex -0.406410634518 4.3012804985 -6.44000053406
endloop
endfacet
facet normal -0.0 0.0 -1.0
outer loop
vertex -0.298077642918 4.3010020256 -6.44000053406
vertex -0.298236221075 4.25100231171 -6.44000053406
vertex -0.406410634518 4.3012804985 -6.44000053406
endloop
endfacet
facet normal 0.0 0.0 -1.0
outer loop
vertex -0.189963772893 4.2505941391 -6.44000053406
vertex -0.298236221075 4.25100231171 -6.44000053406
vertex -0.298077642918 4.3010020256 -6.44000053406
endloop
endfacet
facet normal -0.0 0.0 -1.0
outer loop
vertex -0.189745098352 4.30059337616 -6.44000053406
vertex -0.189963772893 4.2505941391 -6.44000053406
vertex -0.298077642918 4.3010020256 -6.44000053406
endloop
endfacet
facet normal 0.0 0.0 -1.0
outer loop
vertex -0.0816918984056 4.25005531311 -6.44000053406
vertex -0.189963772893 4.2505941391 -6.44000053406
vertex -0.189745098352 4.30059337616 -6.44000053406
endloop
endfacet
facet normal -0.0 0.0 -1.0
outer loop
vertex -0.0814131125808 4.30005455017 -6.44000053406
vertex -0.0816918984056 4.25005531311 -6.44000053406
vertex -0.189745098352 4.30059337616 -6.44000053406
endloop
endfacet
facet normal -0.0 0.0 1.0
outer loop
vertex -0.406509071589 4.25128078461 -2.84900045395
vertex -0.298236221075 4.25100231171 -2.84900045395
vertex -0.406410634518 4.3012804985 -2.84900045395
endloop
endfacet
facet normal 0.0 -0.0 1.0
outer loop
vertex -0.298236221075 4.25100231171 -2.84900045395
vertex -0.298077642918 4.3010020256 -2.84900045395
vertex -0.406410634518 4.3012804985 -2.84900045395
endloop
endfacet
facet normal -0.0 0.0 1.0
outer loop
vertex -0.298236221075 4.25100231171 -2.84900045395
vertex -0.189963772893 4.2505941391 -2.84900045395
vertex -0.298077642918 4.3010020256 -2.84900045395
endloop
endfacet
facet normal 0.0 -0.0 1.0
outer loop
vertex -0.189963772893 4.2505941391 -2.84900045395
vertex -0.189745098352 4.30059337616 -2.84900045395
vertex -0.298077642918 4.3010020256 -2.84900045395
endloop
endfacet
facet normal -0.0 0.0 1.0
outer loop
vertex -0.189963772893 4.2505941391 -2.84900045395
vertex -0.0816918984056 4.25005531311 -2.84900045395
vertex -0.189745098352 4.30059337616 -2.84900045395
endloop
endfacet
facet normal 0.0 -0.0 1.0
outer loop
vertex -0.0816918984056 4.25005531311 -2.84900045395
vertex -0.0814131125808 4.30005455017 -2.84900045395
vertex -0.189745098352 4.30059337616 -2.84900045395
endloop
endfacet
