solid 
facet normal -0.00497377850115 0.999987661839 -2.80545933706e-11
outer loop
vertex 0.189760759473 4.30059480667 58.5580024719
vertex 0.0814287662506 4.30005598068 58.5580024719
vertex 0.0814287438989 4.30005598068 62.1490020752
endloop
endfacet
facet normal -0.00497377850115 0.999987602234 -4.12782412418e-11
outer loop
vertex 0.189760759473 4.30059480667 58.5580024719
vertex 0.0814287438989 4.30005598068 62.1490020752
vertex 0.189760729671 4.30059480667 62.1490020752
endloop
endfacet
facet normal -0.00377214886248 0.999992847443 -3.13057114953e-11
outer loop
vertex 0.298093318939 4.30100345612 58.5580024719
vertex 0.189760729671 4.30059480667 62.1490020752
vertex 0.298093289137 4.30100345612 62.1490020752
endloop
endfacet
facet normal -0.00377214886248 0.999992847443 -2.80545933706e-11
outer loop
vertex 0.298093318939 4.30100345612 58.5580024719
vertex 0.189760759473 4.30059480667 58.5580024719
vertex 0.189760729671 4.30059480667 62.1490020752
endloop
endfacet
facet normal -0.00257051968947 0.999996721745 -2.13331834836e-11
outer loop
vertex 0.406426280737 4.30128192902 58.5580024719
vertex 0.298093289137 4.30100345612 62.1490020752
vertex 0.406426250935 4.30128192902 62.1490020752
endloop
endfacet
facet normal -0.00257051945664 0.999996721745 -2.33788283871e-11
outer loop
vertex 0.406426280737 4.30128192902 58.5580024719
vertex 0.298093318939 4.30100345612 58.5580024719
vertex 0.298093289137 4.30100345612 62.1490020752
endloop
endfacet
facet normal 0.999998092651 0.00196874886751 8.2997102524e-09
outer loop
vertex 0.406524717808 4.25128221512 58.5580024719
vertex 0.406426280737 4.30128192902 58.5580024719
vertex 0.406426250935 4.30128192902 62.1490020752
endloop
endfacet
facet normal 0.999998092651 0.00196932628751 2.61500432419e-10
outer loop
vertex 0.406524717808 4.25128221512 58.5580024719
vertex 0.406426250935 4.30128192902 62.1490020752
vertex 0.406524717808 4.25128173828 62.1490020752
endloop
endfacet
facet normal 0.00497213611379 -0.999987661839 -1.32743835479e-07
outer loop
vertex 0.0817075148225 4.25005674362 62.1490020752
vertex 0.189979419112 4.25059556961 58.5580024719
vertex 0.18997938931 4.25059509277 62.1490020752
endloop
endfacet
facet normal 0.00497653940693 -0.999987602234 3.09758677042e-11
outer loop
vertex 0.0817075371742 4.25005674362 58.5580024719
vertex 0.189979419112 4.25059556961 58.5580024719
vertex 0.0817075148225 4.25005674362 62.1490020752
endloop
endfacet
facet normal 0.00377424294129 -0.999992847443 2.8070167718e-11
outer loop
vertex 0.18997938931 4.25059509277 62.1490020752
vertex 0.298251867294 4.25100374222 58.5580024719
vertex 0.298251837492 4.25100374222 62.1490020752
endloop
endfacet
facet normal 0.00376983941533 -0.999992966652 -1.32754522042e-07
outer loop
vertex 0.189979419112 4.25059556961 58.5580024719
vertex 0.298251867294 4.25100374222 58.5580024719
vertex 0.18997938931 4.25059509277 62.1490020752
endloop
endfacet
facet normal 0.00256754178554 -0.999996721745 -1.3278591382e-07
outer loop
vertex 0.298251837492 4.25100374222 62.1490020752
vertex 0.406524717808 4.25128221512 58.5580024719
vertex 0.406524717808 4.25128173828 62.1490020752
endloop
endfacet
facet normal 0.00257194647565 -0.999996721745 2.13450247061e-11
outer loop
vertex 0.298251867294 4.25100374222 58.5580024719
vertex 0.406524717808 4.25128221512 58.5580024719
vertex 0.298251837492 4.25100374222 62.1490020752
endloop
endfacet
facet normal -0.999984502792 -0.00557541707531 -6.22539042539e-09
outer loop
vertex 0.0814287662506 4.30005598068 58.5580024719
vertex 0.0817075371742 4.25005674362 58.5580024719
vertex 0.0817075148225 4.25005674362 62.1490020752
endloop
endfacet
facet normal -0.999984502792 -0.00557541660964 -6.22428242281e-09
outer loop
vertex 0.0814287662506 4.30005598068 58.5580024719
vertex 0.0817075148225 4.25005674362 62.1490020752
vertex 0.0814287438989 4.30005598068 62.1490020752
endloop
endfacet
facet normal -0.0 0.0 -1.0
outer loop
vertex 0.406524717808 4.25128221512 58.5580024719
vertex 0.298251867294 4.25100374222 58.5580024719
vertex 0.406426280737 4.30128192902 58.5580024719
endloop
endfacet
facet normal 0.0 0.0 -1.0
outer loop
vertex 0.298251867294 4.25100374222 58.5580024719
vertex 0.298093318939 4.30100345612 58.5580024719
vertex 0.406426280737 4.30128192902 58.5580024719
endloop
endfacet
facet normal -0.0 0.0 -1.0
outer loop
vertex 0.298251867294 4.25100374222 58.5580024719
vertex 0.189979419112 4.25059556961 58.5580024719
vertex 0.298093318939 4.30100345612 58.5580024719
endloop
endfacet
facet normal 0.0 0.0 -1.0
outer loop
vertex 0.189979419112 4.25059556961 58.5580024719
vertex 0.189760759473 4.30059480667 58.5580024719
vertex 0.298093318939 4.30100345612 58.5580024719
endloop
endfacet
facet normal -0.0 0.0 -1.0
outer loop
vertex 0.189979419112 4.25059556961 58.5580024719
vertex 0.0817075371742 4.25005674362 58.5580024719
vertex 0.189760759473 4.30059480667 58.5580024719
endloop
endfacet
facet normal 0.0 0.0 -1.0
outer loop
vertex 0.0817075371742 4.25005674362 58.5580024719
vertex 0.0814287662506 4.30005598068 58.5580024719
vertex 0.189760759473 4.30059480667 58.5580024719
endloop
endfacet
facet normal 0.0 0.0 1.0
outer loop
vertex 0.298251837492 4.25100374222 62.1490020752
vertex 0.406524717808 4.25128173828 62.1490020752
vertex 0.406426250935 4.30128192902 62.1490020752
endloop
endfacet
facet normal -0.0 0.0 1.0
outer loop
vertex 0.298093289137 4.30100345612 62.1490020752
vertex 0.298251837492 4.25100374222 62.1490020752
vertex 0.406426250935 4.30128192902 62.1490020752
endloop
endfacet
facet normal 0.0 0.0 1.0
outer loop
vertex 0.18997938931 4.25059509277 62.1490020752
vertex 0.298251837492 4.25100374222 62.1490020752
vertex 0.298093289137 4.30100345612 62.1490020752
endloop
endfacet
facet normal -0.0 0.0 1.0
outer loop
vertex 0.189760729671 4.30059480667 62.1490020752
vertex 0.18997938931 4.25059509277 62.1490020752
vertex 0.298093289137 4.30100345612 62.1490020752
endloop
endfacet
facet normal 0.0 0.0 1.0
outer loop
vertex 0.0817075148225 4.25005674362 62.1490020752
vertex 0.18997938931 4.25059509277 62.1490020752
vertex 0.189760729671 4.30059480667 62.1490020752
endloop
endfacet
facet normal -0.0 0.0 1.0
outer loop
vertex 0.0814287438989 4.30005598068 62.1490020752
vertex 0.0817075148225 4.25005674362 62.1490020752
vertex 0.189760729671 4.30059480667 62.1490020752
endloop
endfacet
