solid 
facet normal -0.20701238513 0.978338301182 0.0
outer loop
vertex -19.1857357025 2.3606235981 109.072006226
vertex -19.1857357025 2.3606235981 105.481002808
vertex -19.291721344 2.33819746971 105.481002808
endloop
endfacet
facet normal -0.208185553551 0.978089392185 6.49385825113e-08
outer loop
vertex -19.291721344 2.33819723129 109.072006226
vertex -19.291721344 2.33819746971 105.481002808
vertex -19.3976821899 2.31564378738 105.481002808
endloop
endfacet
facet normal -0.207014501095 0.978337824345 6.49550813137e-08
outer loop
vertex -19.291721344 2.33819723129 109.072006226
vertex -19.1857357025 2.3606235981 109.072006226
vertex -19.291721344 2.33819746971 105.481002808
endloop
endfacet
facet normal -0.208185553551 0.978089392185 6.49385825113e-08
outer loop
vertex -19.3976821899 2.31564354897 109.072006226
vertex -19.291721344 2.33819723129 109.072006226
vertex -19.3976821899 2.31564378738 105.481002808
endloop
endfacet
facet normal -0.209363460541 0.977837920189 6.49218918625e-08
outer loop
vertex -19.5036144257 2.29296255112 109.072006226
vertex -19.3976821899 2.31564378738 105.481002808
vertex -19.5036144257 2.29296278954 105.481002808
endloop
endfacet
facet normal -0.209363460541 0.977837920189 6.52363354448e-08
outer loop
vertex -19.5036144257 2.29296255112 109.072006226
vertex -19.3976821899 2.31564354897 109.072006226
vertex -19.3976821899 2.31564378738 105.481002808
endloop
endfacet
facet normal -0.977709889412 -0.20996055007 -1.3939974508e-08
outer loop
vertex -19.5036144257 2.29296255112 109.072006226
vertex -19.4931163788 2.24407720566 105.481002808
vertex -19.4931163788 2.24407696724 109.072006226
endloop
endfacet
facet normal -0.977709889412 -0.20996055007 -1.3939974508e-08
outer loop
vertex -19.5036144257 2.29296278954 105.481002808
vertex -19.4931163788 2.24407720566 105.481002808
vertex -19.5036144257 2.29296255112 109.072006226
endloop
endfacet
facet normal 0.207013398409 -0.978338181973 -6.5273233929e-08
outer loop
vertex -19.1754150391 2.3117005825 105.481002808
vertex -19.2813415527 2.28928661346 109.072006226
vertex -19.2813415527 2.28928685188 105.481002808
endloop
endfacet
facet normal 0.20818720758 -0.978089034557 -6.4938561195e-08
outer loop
vertex -19.2813415527 2.28928685188 105.481002808
vertex -19.2813415527 2.28928661346 109.072006226
vertex -19.3872432709 2.26674556732 105.481002808
endloop
endfacet
facet normal 0.20700982213 -0.978338897228 -1.74907683004e-07
outer loop
vertex -19.1754131317 2.31170034409 109.072006226
vertex -19.2813415527 2.28928661346 109.072006226
vertex -19.1754150391 2.3117005825 105.481002808
endloop
endfacet
facet normal 0.209363669157 -0.977837860584 0.0
outer loop
vertex -19.3872432709 2.26674556732 105.481002808
vertex -19.3872432709 2.26674556732 109.072006226
vertex -19.4931163788 2.24407720566 105.481002808
endloop
endfacet
facet normal 0.208185091615 -0.978089511395 0.0
outer loop
vertex -19.2813415527 2.28928661346 109.072006226
vertex -19.3872432709 2.26674556732 109.072006226
vertex -19.3872432709 2.26674556732 105.481002808
endloop
endfacet
facet normal 0.209365740418 -0.977837324142 -6.52727294437e-08
outer loop
vertex -19.3872432709 2.26674556732 109.072006226
vertex -19.4931163788 2.24407696724 109.072006226
vertex -19.4931163788 2.24407720566 105.481002808
endloop
endfacet
facet normal 0.978457212448 0.206449747086 -5.05997149958e-07
outer loop
vertex -19.1754131317 2.31170034409 109.072006226
vertex -19.1754150391 2.3117005825 105.481002808
vertex -19.1857357025 2.3606235981 109.072006226
endloop
endfacet
facet normal 0.978464722633 0.206414192915 0.0
outer loop
vertex -19.1754150391 2.3117005825 105.481002808
vertex -19.1857357025 2.3606235981 105.481002808
vertex -19.1857357025 2.3606235981 109.072006226
endloop
endfacet
facet normal -0.0 0.0 -1.0
outer loop
vertex -19.3872432709 2.26674556732 105.481002808
vertex -19.4931163788 2.24407720566 105.481002808
vertex -19.5036144257 2.29296278954 105.481002808
endloop
endfacet
facet normal 0.0 -0.0 -1.0
outer loop
vertex -19.3976821899 2.31564378738 105.481002808
vertex -19.3872432709 2.26674556732 105.481002808
vertex -19.5036144257 2.29296278954 105.481002808
endloop
endfacet
facet normal 0.0 -0.0 -1.0
outer loop
vertex -19.291721344 2.33819746971 105.481002808
vertex -19.2813415527 2.28928685188 105.481002808
vertex -19.3872432709 2.26674556732 105.481002808
endloop
endfacet
facet normal 0.0 0.0 -1.0
outer loop
vertex -19.291721344 2.33819746971 105.481002808
vertex -19.3872432709 2.26674556732 105.481002808
vertex -19.3976821899 2.31564378738 105.481002808
endloop
endfacet
facet normal 0.0 -0.0 -1.0
outer loop
vertex -19.1857357025 2.3606235981 105.481002808
vertex -19.1754150391 2.3117005825 105.481002808
vertex -19.2813415527 2.28928685188 105.481002808
endloop
endfacet
facet normal 0.0 0.0 -1.0
outer loop
vertex -19.1857357025 2.3606235981 105.481002808
vertex -19.2813415527 2.28928685188 105.481002808
vertex -19.291721344 2.33819746971 105.481002808
endloop
endfacet
facet normal 0.0 0.0 1.0
outer loop
vertex -19.3872432709 2.26674556732 109.072006226
vertex -19.3976821899 2.31564354897 109.072006226
vertex -19.4931163788 2.24407696724 109.072006226
endloop
endfacet
facet normal 0.0 -0.0 1.0
outer loop
vertex -19.4931163788 2.24407696724 109.072006226
vertex -19.3976821899 2.31564354897 109.072006226
vertex -19.5036144257 2.29296255112 109.072006226
endloop
endfacet
facet normal 0.0 0.0 1.0
outer loop
vertex -19.2813415527 2.28928661346 109.072006226
vertex -19.291721344 2.33819723129 109.072006226
vertex -19.3872432709 2.26674556732 109.072006226
endloop
endfacet
facet normal 0.0 -0.0 1.0
outer loop
vertex -19.3872432709 2.26674556732 109.072006226
vertex -19.291721344 2.33819723129 109.072006226
vertex -19.3976821899 2.31564354897 109.072006226
endloop
endfacet
facet normal 0.0 0.0 1.0
outer loop
vertex -19.1754131317 2.31170034409 109.072006226
vertex -19.1857357025 2.3606235981 109.072006226
vertex -19.2813415527 2.28928661346 109.072006226
endloop
endfacet
facet normal 0.0 -0.0 1.0
outer loop
vertex -19.2813415527 2.28928661346 109.072006226
vertex -19.1857357025 2.3606235981 109.072006226
vertex -19.291721344 2.33819723129 109.072006226
endloop
endfacet
