solid 
facet normal -0.207008823752 0.978339016438 6.52357670106e-08
outer loop
vertex -19.2916984558 2.3382024765 11.5750007629
vertex -19.185710907 2.36062860489 11.5750007629
vertex -19.185710907 2.36062884331 7.98400068283
endloop
endfacet
facet normal -0.207010924816 0.978338599205 0.0
outer loop
vertex -19.2916984558 2.3382024765 11.5750007629
vertex -19.185710907 2.36062884331 7.98400068283
vertex -19.2916984558 2.3382024765 7.98400068283
endloop
endfacet
facet normal -0.208189144731 0.978088617325 0.0
outer loop
vertex -19.2916984558 2.3382024765 11.5750007629
vertex -19.2916984558 2.3382024765 7.98400068283
vertex -19.3976573944 2.31564879417 7.98400068283
endloop
endfacet
facet normal -0.209361359477 0.977838337421 0.0
outer loop
vertex -19.3976573944 2.31564879417 11.5750007629
vertex -19.3976573944 2.31564879417 7.98400068283
vertex -19.5035896301 2.29296803474 7.98400068283
endloop
endfacet
facet normal -0.208189144731 0.978088617325 0.0
outer loop
vertex -19.3976573944 2.31564879417 11.5750007629
vertex -19.2916984558 2.3382024765 11.5750007629
vertex -19.3976573944 2.31564879417 7.98400068283
endloop
endfacet
facet normal -0.209363475442 0.977837979794 6.49219558113e-08
outer loop
vertex -19.5035896301 2.29296779633 11.5750007629
vertex -19.3976573944 2.31564879417 11.5750007629
vertex -19.5035896301 2.29296803474 7.98400068283
endloop
endfacet
facet normal -0.977709889412 -0.209960564971 -1.39399878307e-08
outer loop
vertex -19.5035896301 2.29296779633 11.5750007629
vertex -19.5035896301 2.29296803474 7.98400068283
vertex -19.4930915833 2.24408221245 11.5750007629
endloop
endfacet
facet normal -0.977710068226 -0.209959581494 0.0
outer loop
vertex -19.5035896301 2.29296803474 7.98400068283
vertex -19.4930915833 2.24408221245 7.98400068283
vertex -19.4930915833 2.24408221245 11.5750007629
endloop
endfacet
facet normal 0.20700982213 -0.978338897228 0.0
outer loop
vertex -19.1753902435 2.31170558929 7.98400068283
vertex -19.1753902435 2.31170558929 11.5750007629
vertex -19.2813186646 2.28929185867 7.98400068283
endloop
endfacet
facet normal 0.207013383508 -0.978338122368 -1.10186107349e-07
outer loop
vertex -19.1753902435 2.31170558929 11.5750007629
vertex -19.2813167572 2.28929185867 11.5750007629
vertex -19.2813186646 2.28929185867 7.98400068283
endloop
endfacet
facet normal 0.208188682795 -0.978088676929 -6.52731060313e-08
outer loop
vertex -19.2813186646 2.28929185867 7.98400068283
vertex -19.3872184753 2.26675057411 11.5750007629
vertex -19.3872184753 2.26675081253 7.98400068283
endloop
endfacet
facet normal 0.209365770221 -0.977837383747 -6.49219131788e-08
outer loop
vertex -19.3872184753 2.26675081253 7.98400068283
vertex -19.3872184753 2.26675057411 11.5750007629
vertex -19.4930915833 2.24408221245 7.98400068283
endloop
endfacet
facet normal 0.20818720758 -0.978089034557 -1.10577992984e-07
outer loop
vertex -19.2813167572 2.28929185867 11.5750007629
vertex -19.3872184753 2.26675057411 11.5750007629
vertex -19.2813186646 2.28929185867 7.98400068283
endloop
endfacet
facet normal 0.209363669157 -0.977837920189 0.0
outer loop
vertex -19.3872184753 2.26675057411 11.5750007629
vertex -19.4930915833 2.24408221245 11.5750007629
vertex -19.4930915833 2.24408221245 7.98400068283
endloop
endfacet
facet normal 0.978464722633 0.206414192915 1.36158879727e-08
outer loop
vertex -19.1753902435 2.31170558929 11.5750007629
vertex -19.185710907 2.36062884331 7.98400068283
vertex -19.185710907 2.36062860489 11.5750007629
endloop
endfacet
facet normal 0.978464901447 0.206413239241 -0.0
outer loop
vertex -19.1753902435 2.31170558929 7.98400068283
vertex -19.185710907 2.36062884331 7.98400068283
vertex -19.1753902435 2.31170558929 11.5750007629
endloop
endfacet
facet normal -0.0 0.0 -1.0
outer loop
vertex -19.3872184753 2.26675081253 7.98400068283
vertex -19.4930915833 2.24408221245 7.98400068283
vertex -19.5035896301 2.29296803474 7.98400068283
endloop
endfacet
facet normal 0.0 -0.0 -1.0
outer loop
vertex -19.3976573944 2.31564879417 7.98400068283
vertex -19.3872184753 2.26675081253 7.98400068283
vertex -19.5035896301 2.29296803474 7.98400068283
endloop
endfacet
facet normal 0.0 -0.0 -1.0
outer loop
vertex -19.2916984558 2.3382024765 7.98400068283
vertex -19.2813186646 2.28929185867 7.98400068283
vertex -19.3872184753 2.26675081253 7.98400068283
endloop
endfacet
facet normal 0.0 0.0 -1.0
outer loop
vertex -19.2916984558 2.3382024765 7.98400068283
vertex -19.3872184753 2.26675081253 7.98400068283
vertex -19.3976573944 2.31564879417 7.98400068283
endloop
endfacet
facet normal 0.0 -0.0 -1.0
outer loop
vertex -19.185710907 2.36062884331 7.98400068283
vertex -19.1753902435 2.31170558929 7.98400068283
vertex -19.2813186646 2.28929185867 7.98400068283
endloop
endfacet
facet normal 0.0 0.0 -1.0
outer loop
vertex -19.185710907 2.36062884331 7.98400068283
vertex -19.2813186646 2.28929185867 7.98400068283
vertex -19.2916984558 2.3382024765 7.98400068283
endloop
endfacet
facet normal 0.0 0.0 1.0
outer loop
vertex -19.3872184753 2.26675057411 11.5750007629
vertex -19.3976573944 2.31564879417 11.5750007629
vertex -19.4930915833 2.24408221245 11.5750007629
endloop
endfacet
facet normal 0.0 -0.0 1.0
outer loop
vertex -19.4930915833 2.24408221245 11.5750007629
vertex -19.3976573944 2.31564879417 11.5750007629
vertex -19.5035896301 2.29296779633 11.5750007629
endloop
endfacet
facet normal 0.0 0.0 1.0
outer loop
vertex -19.2813167572 2.28929185867 11.5750007629
vertex -19.2916984558 2.3382024765 11.5750007629
vertex -19.3872184753 2.26675057411 11.5750007629
endloop
endfacet
facet normal 0.0 -0.0 1.0
outer loop
vertex -19.3872184753 2.26675057411 11.5750007629
vertex -19.2916984558 2.3382024765 11.5750007629
vertex -19.3976573944 2.31564879417 11.5750007629
endloop
endfacet
facet normal 0.0 0.0 1.0
outer loop
vertex -19.1753902435 2.31170558929 11.5750007629
vertex -19.185710907 2.36062860489 11.5750007629
vertex -19.2813167572 2.28929185867 11.5750007629
endloop
endfacet
facet normal 0.0 -0.0 1.0
outer loop
vertex -19.2813167572 2.28929185867 11.5750007629
vertex -19.185710907 2.36062860489 11.5750007629
vertex -19.2916984558 2.3382024765 11.5750007629
endloop
endfacet
