solid 
facet normal -0.00497377896681 0.999987661839 -3.74061684405e-11
outer loop
vertex 0.189765930176 4.30059480667 94.6480026245
vertex 0.0814339444041 4.30005598068 94.6480026245
vertex 0.0814339146018 4.30005598068 98.2389984131
endloop
endfacet
facet normal -0.00497377896681 0.999987661839 -4.1278289814e-11
outer loop
vertex 0.189765930176 4.30059480667 94.6480026245
vertex 0.0814339146018 4.30005598068 98.2389984131
vertex 0.189765900373 4.30059480667 98.2389984131
endloop
endfacet
facet normal -0.00377214956097 0.999992847443 -3.13057496593e-11
outer loop
vertex 0.298098474741 4.30100345612 94.6480026245
vertex 0.189765900373 4.30059480667 98.2389984131
vertex 0.298098444939 4.30100345612 98.2389984131
endloop
endfacet
facet normal -0.00257051875815 0.999996721745 -2.13331973614e-11
outer loop
vertex 0.298098474741 4.30100345612 94.6480026245
vertex 0.298098444939 4.30100345612 98.2389984131
vertex 0.406431436539 4.30128192902 98.2389984131
endloop
endfacet
facet normal -0.00377214909531 0.999992847443 -3.74061684405e-11
outer loop
vertex 0.298098474741 4.30100345612 94.6480026245
vertex 0.189765930176 4.30059480667 94.6480026245
vertex 0.189765900373 4.30059480667 98.2389984131
endloop
endfacet
facet normal -0.00257051899098 0.999996721745 -2.13331990961e-11
outer loop
vertex 0.406431466341 4.30128192902 94.6480026245
vertex 0.298098474741 4.30100345612 94.6480026245
vertex 0.406431436539 4.30128192902 98.2389984131
endloop
endfacet
facet normal 0.999998033047 0.00196874886751 8.29971824601e-09
outer loop
vertex 0.406529903412 4.25128221512 94.6480026245
vertex 0.406431466341 4.30128192902 94.6480026245
vertex 0.406431436539 4.30128192902 98.2389984131
endloop
endfacet
facet normal 0.999998033047 0.00196873024106 8.56058601784e-09
outer loop
vertex 0.406529903412 4.25128221512 94.6480026245
vertex 0.406431436539 4.30128192902 98.2389984131
vertex 0.40652987361 4.25128173828 98.2389984131
endloop
endfacet
facet normal 0.00497213564813 -0.999987661839 -1.32743963377e-07
outer loop
vertex 0.0817126780748 4.25005674362 98.2389984131
vertex 0.189984589815 4.25059556961 94.6480026245
vertex 0.189984560013 4.25059509277 98.2389984131
endloop
endfacet
facet normal 0.00377424340695 -0.999992847443 -1.32754607307e-07
outer loop
vertex 0.189984560013 4.25059509277 98.2389984131
vertex 0.189984589815 4.25059556961 94.6480026245
vertex 0.298256993294 4.25100374222 98.2389984131
endloop
endfacet
facet normal 0.00497654033825 -0.999987661839 5.16265086237e-11
outer loop
vertex 0.0817127153277 4.25005674362 94.6480026245
vertex 0.189984589815 4.25059556961 94.6480026245
vertex 0.0817126780748 4.25005674362 98.2389984131
endloop
endfacet
facet normal 0.00256754178554 -0.999996721745 4.26169863288e-11
outer loop
vertex 0.298256993294 4.25100374222 98.2389984131
vertex 0.298257052898 4.25100374222 94.6480026245
vertex 0.40652987361 4.25128173828 98.2389984131
endloop
endfacet
facet normal 0.003769838484 -0.999992847443 6.54971216152e-11
outer loop
vertex 0.189984589815 4.25059556961 94.6480026245
vertex 0.298257052898 4.25100374222 94.6480026245
vertex 0.298256993294 4.25100374222 98.2389984131
endloop
endfacet
facet normal 0.00257194647565 -0.999996721745 -1.32762693283e-07
outer loop
vertex 0.298257052898 4.25100374222 94.6480026245
vertex 0.406529903412 4.25128221512 94.6480026245
vertex 0.40652987361 4.25128173828 98.2389984131
endloop
endfacet
facet normal -0.999984502792 -0.00557526806369 -1.03738146962e-08
outer loop
vertex 0.0817127153277 4.25005674362 94.6480026245
vertex 0.0817126780748 4.25005674362 98.2389984131
vertex 0.0814339146018 4.30005598068 98.2389984131
endloop
endfacet
facet normal -0.999984502792 -0.00557541707531 -8.29905122401e-09
outer loop
vertex 0.0814339444041 4.30005598068 94.6480026245
vertex 0.0817127153277 4.25005674362 94.6480026245
vertex 0.0814339146018 4.30005598068 98.2389984131
endloop
endfacet
facet normal -0.0 0.0 -1.0
outer loop
vertex 0.406529903412 4.25128221512 94.6480026245
vertex 0.298257052898 4.25100374222 94.6480026245
vertex 0.406431466341 4.30128192902 94.6480026245
endloop
endfacet
facet normal 0.0 0.0 -1.0
outer loop
vertex 0.298257052898 4.25100374222 94.6480026245
vertex 0.298098474741 4.30100345612 94.6480026245
vertex 0.406431466341 4.30128192902 94.6480026245
endloop
endfacet
facet normal 0.0 0.0 -1.0
outer loop
vertex 0.189984589815 4.25059556961 94.6480026245
vertex 0.189765930176 4.30059480667 94.6480026245
vertex 0.298257052898 4.25100374222 94.6480026245
endloop
endfacet
facet normal 0.0 0.0 -1.0
outer loop
vertex 0.298257052898 4.25100374222 94.6480026245
vertex 0.189765930176 4.30059480667 94.6480026245
vertex 0.298098474741 4.30100345612 94.6480026245
endloop
endfacet
facet normal 0.0 0.0 -1.0
outer loop
vertex 0.0817127153277 4.25005674362 94.6480026245
vertex 0.0814339444041 4.30005598068 94.6480026245
vertex 0.189984589815 4.25059556961 94.6480026245
endloop
endfacet
facet normal 0.0 0.0 -1.0
outer loop
vertex 0.189984589815 4.25059556961 94.6480026245
vertex 0.0814339444041 4.30005598068 94.6480026245
vertex 0.189765930176 4.30059480667 94.6480026245
endloop
endfacet
facet normal 0.0 0.0 1.0
outer loop
vertex 0.298256993294 4.25100374222 98.2389984131
vertex 0.40652987361 4.25128173828 98.2389984131
vertex 0.406431436539 4.30128192902 98.2389984131
endloop
endfacet
facet normal -0.0 0.0 1.0
outer loop
vertex 0.298098444939 4.30100345612 98.2389984131
vertex 0.298256993294 4.25100374222 98.2389984131
vertex 0.406431436539 4.30128192902 98.2389984131
endloop
endfacet
facet normal 0.0 0.0 1.0
outer loop
vertex 0.189765900373 4.30059480667 98.2389984131
vertex 0.189984560013 4.25059509277 98.2389984131
vertex 0.298256993294 4.25100374222 98.2389984131
endloop
endfacet
facet normal -0.0 0.0 1.0
outer loop
vertex 0.189765900373 4.30059480667 98.2389984131
vertex 0.298256993294 4.25100374222 98.2389984131
vertex 0.298098444939 4.30100345612 98.2389984131
endloop
endfacet
facet normal 0.0 0.0 1.0
outer loop
vertex 0.0814339146018 4.30005598068 98.2389984131
vertex 0.0817126780748 4.25005674362 98.2389984131
vertex 0.189984560013 4.25059509277 98.2389984131
endloop
endfacet
facet normal -0.0 0.0 1.0
outer loop
vertex 0.0814339146018 4.30005598068 98.2389984131
vertex 0.189984560013 4.25059509277 98.2389984131
vertex 0.189765900373 4.30059480667 98.2389984131
endloop
endfacet
