solid 
facet normal -0.207008823752 0.978339076042 0.0
outer loop
vertex -19.1857299805 2.36062502861 90.9970016479
vertex -19.1857299805 2.36062502861 87.4060058594
vertex -19.2917175293 2.33819890022 87.4060058594
endloop
endfacet
facet normal -0.208189129829 0.97808855772 1.7551781184e-07
outer loop
vertex -19.2917156219 2.3381986618 90.9970016479
vertex -19.2917175293 2.33819890022 87.4060058594
vertex -19.3976764679 2.3156452179 87.4060058594
endloop
endfacet
facet normal -0.207014501095 0.978337883949 1.74910468331e-07
outer loop
vertex -19.2917156219 2.3381986618 90.9970016479
vertex -19.1857299805 2.36062502861 90.9970016479
vertex -19.2917175293 2.33819890022 87.4060058594
endloop
endfacet
facet normal -0.20818553865 0.978089332581 6.49387175145e-08
outer loop
vertex -19.3976764679 2.31564497948 90.9970016479
vertex -19.2917156219 2.3381986618 90.9970016479
vertex -19.3976764679 2.3156452179 87.4060058594
endloop
endfacet
facet normal -0.209363475442 0.977837920189 6.49220268656e-08
outer loop
vertex -19.5036087036 2.29296398163 90.9970016479
vertex -19.3976764679 2.3156452179 87.4060058594
vertex -19.5036087036 2.29296422005 87.4060058594
endloop
endfacet
facet normal -0.209363475442 0.977837920189 6.52364775533e-08
outer loop
vertex -19.5036087036 2.29296398163 90.9970016479
vertex -19.3976764679 2.31564497948 90.9970016479
vertex -19.3976764679 2.3156452179 87.4060058594
endloop
endfacet
facet normal -0.977709829807 -0.209960535169 -1.39400038179e-08
outer loop
vertex -19.5036087036 2.29296398163 90.9970016479
vertex -19.4931106567 2.24407863617 87.4060058594
vertex -19.4931106567 2.24407839775 90.9970016479
endloop
endfacet
facet normal -0.977709829807 -0.209960535169 -1.39400038179e-08
outer loop
vertex -19.5036087036 2.29296422005 87.4060058594
vertex -19.4931106567 2.24407863617 87.4060058594
vertex -19.5036087036 2.29296398163 90.9970016479
endloop
endfacet
facet normal 0.207013383508 -0.978338122368 -6.52733689321e-08
outer loop
vertex -19.175409317 2.31170201302 87.4060058594
vertex -19.2813358307 2.28928804398 90.9970016479
vertex -19.2813358307 2.28928828239 87.4060058594
endloop
endfacet
facet normal 0.207013383508 -0.978338122368 -6.49552376331e-08
outer loop
vertex -19.175409317 2.3117017746 90.9970016479
vertex -19.2813358307 2.28928804398 90.9970016479
vertex -19.175409317 2.31170201302 87.4060058594
endloop
endfacet
facet normal 0.208187192678 -0.978088974953 0.0
outer loop
vertex -19.2813358307 2.28928828239 87.4060058594
vertex -19.3872375488 2.26674699783 90.9970016479
vertex -19.3872375488 2.26674699783 87.4060058594
endloop
endfacet
facet normal 0.208185106516 -0.978089511395 -6.49387317253e-08
outer loop
vertex -19.2813358307 2.28928804398 90.9970016479
vertex -19.3872375488 2.26674699783 90.9970016479
vertex -19.2813358307 2.28928828239 87.4060058594
endloop
endfacet
facet normal 0.209363654256 -0.97783780098 -6.52728999739e-08
outer loop
vertex -19.3872375488 2.26674699783 87.4060058594
vertex -19.4931106567 2.24407839775 90.9970016479
vertex -19.4931106567 2.24407863617 87.4060058594
endloop
endfacet
facet normal 0.20936575532 -0.977837383747 0.0
outer loop
vertex -19.3872375488 2.26674699783 90.9970016479
vertex -19.4931106567 2.24407839775 90.9970016479
vertex -19.3872375488 2.26674699783 87.4060058594
endloop
endfacet
facet normal 0.978464901447 0.206413239241 1.37044846582e-08
outer loop
vertex -19.175409317 2.3117017746 90.9970016479
vertex -19.175409317 2.31170201302 87.4060058594
vertex -19.1857299805 2.36062502861 90.9970016479
endloop
endfacet
facet normal 0.978464663029 0.206414207816 0.0
outer loop
vertex -19.175409317 2.31170201302 87.4060058594
vertex -19.1857299805 2.36062502861 87.4060058594
vertex -19.1857299805 2.36062502861 90.9970016479
endloop
endfacet
facet normal -0.0 0.0 -1.0
outer loop
vertex -19.3872375488 2.26674699783 87.4060058594
vertex -19.4931106567 2.24407863617 87.4060058594
vertex -19.5036087036 2.29296422005 87.4060058594
endloop
endfacet
facet normal 0.0 -0.0 -1.0
outer loop
vertex -19.3976764679 2.3156452179 87.4060058594
vertex -19.3872375488 2.26674699783 87.4060058594
vertex -19.5036087036 2.29296422005 87.4060058594
endloop
endfacet
facet normal -0.0 0.0 -1.0
outer loop
vertex -19.2813358307 2.28928828239 87.4060058594
vertex -19.3872375488 2.26674699783 87.4060058594
vertex -19.3976764679 2.3156452179 87.4060058594
endloop
endfacet
facet normal 0.0 -0.0 -1.0
outer loop
vertex -19.2917175293 2.33819890022 87.4060058594
vertex -19.2813358307 2.28928828239 87.4060058594
vertex -19.3976764679 2.3156452179 87.4060058594
endloop
endfacet
facet normal -0.0 0.0 -1.0
outer loop
vertex -19.175409317 2.31170201302 87.4060058594
vertex -19.2813358307 2.28928828239 87.4060058594
vertex -19.2917175293 2.33819890022 87.4060058594
endloop
endfacet
facet normal 0.0 -0.0 -1.0
outer loop
vertex -19.1857299805 2.36062502861 87.4060058594
vertex -19.175409317 2.31170201302 87.4060058594
vertex -19.2917175293 2.33819890022 87.4060058594
endloop
endfacet
facet normal 0.0 -0.0 1.0
outer loop
vertex -19.4931106567 2.24407839775 90.9970016479
vertex -19.3872375488 2.26674699783 90.9970016479
vertex -19.5036087036 2.29296398163 90.9970016479
endloop
endfacet
facet normal 0.0 0.0 1.0
outer loop
vertex -19.3872375488 2.26674699783 90.9970016479
vertex -19.3976764679 2.31564497948 90.9970016479
vertex -19.5036087036 2.29296398163 90.9970016479
endloop
endfacet
facet normal 0.0 0.0 1.0
outer loop
vertex -19.2813358307 2.28928804398 90.9970016479
vertex -19.2917156219 2.3381986618 90.9970016479
vertex -19.3872375488 2.26674699783 90.9970016479
endloop
endfacet
facet normal 0.0 -0.0 1.0
outer loop
vertex -19.3872375488 2.26674699783 90.9970016479
vertex -19.2917156219 2.3381986618 90.9970016479
vertex -19.3976764679 2.31564497948 90.9970016479
endloop
endfacet
facet normal 0.0 0.0 1.0
outer loop
vertex -19.175409317 2.3117017746 90.9970016479
vertex -19.1857299805 2.36062502861 90.9970016479
vertex -19.2813358307 2.28928804398 90.9970016479
endloop
endfacet
facet normal 0.0 -0.0 1.0
outer loop
vertex -19.2813358307 2.28928804398 90.9970016479
vertex -19.1857299805 2.36062502861 90.9970016479
vertex -19.2917156219 2.3381986618 90.9970016479
endloop
endfacet
