solid 
facet normal -0.207014501095 -0.978337824345 0.0
outer loop
vertex -19.2917175293 -2.33819818497 -99.6480026245
vertex -19.1857318878 -2.36062455177 -99.6480026245
vertex -19.1857318878 -2.36062455177 -96.0569992065
endloop
endfacet
facet normal -0.20701238513 -0.978338301182 -6.49551097354e-08
outer loop
vertex -19.2917175293 -2.33819818497 -99.6480026245
vertex -19.1857318878 -2.36062455177 -96.0569992065
vertex -19.2917175293 -2.33819842339 -96.0569992065
endloop
endfacet
facet normal -0.208185553551 -0.978089392185 -6.49385825113e-08
outer loop
vertex -19.3976783752 -2.31564450264 -99.6480026245
vertex -19.2917175293 -2.33819842339 -96.0569992065
vertex -19.3976783752 -2.31564474106 -96.0569992065
endloop
endfacet
facet normal -0.209363460541 -0.977837920189 -6.49218918625e-08
outer loop
vertex -19.3976783752 -2.31564450264 -99.6480026245
vertex -19.3976783752 -2.31564474106 -96.0569992065
vertex -19.503610611 -2.29296374321 -96.0569992065
endloop
endfacet
facet normal -0.208185553551 -0.978089392185 -6.52354898989e-08
outer loop
vertex -19.3976783752 -2.31564450264 -99.6480026245
vertex -19.2917175293 -2.33819818497 -99.6480026245
vertex -19.2917175293 -2.33819842339 -96.0569992065
endloop
endfacet
facet normal -0.209363460541 -0.977837920189 -6.49218918625e-08
outer loop
vertex -19.503610611 -2.29296350479 -99.6480026245
vertex -19.3976783752 -2.31564450264 -99.6480026245
vertex -19.503610611 -2.29296374321 -96.0569992065
endloop
endfacet
facet normal -0.977709889412 0.20996055007 1.3939974508e-08
outer loop
vertex -19.503610611 -2.29296350479 -99.6480026245
vertex -19.503610611 -2.29296374321 -96.0569992065
vertex -19.4931125641 -2.24407792091 -99.6480026245
endloop
endfacet
facet normal -0.977709889412 0.20996055007 1.3939974508e-08
outer loop
vertex -19.503610611 -2.29296374321 -96.0569992065
vertex -19.4931125641 -2.24407815933 -96.0569992065
vertex -19.4931125641 -2.24407792091 -99.6480026245
endloop
endfacet
facet normal 0.20700982213 0.978338897228 6.49551523679e-08
outer loop
vertex -19.175409317 -2.31170153618 -96.0569992065
vertex -19.175409317 -2.31170129776 -99.6480026245
vertex -19.281337738 -2.28928780556 -96.0569992065
endloop
endfacet
facet normal 0.20700982213 0.978338897228 6.52721041661e-08
outer loop
vertex -19.175409317 -2.31170129776 -99.6480026245
vertex -19.281337738 -2.28928756714 -99.6480026245
vertex -19.281337738 -2.28928780556 -96.0569992065
endloop
endfacet
facet normal 0.20818720758 0.978089034557 0.0
outer loop
vertex -19.281337738 -2.28928780556 -96.0569992065
vertex -19.3872394562 -2.266746521 -99.6480026245
vertex -19.3872394562 -2.266746521 -96.0569992065
endloop
endfacet
facet normal 0.209363669157 0.977837860584 0.0
outer loop
vertex -19.3872394562 -2.266746521 -96.0569992065
vertex -19.3872394562 -2.266746521 -99.6480026245
vertex -19.4931125641 -2.24407815933 -96.0569992065
endloop
endfacet
facet normal 0.208185091615 0.978089511395 6.49385896168e-08
outer loop
vertex -19.281337738 -2.28928756714 -99.6480026245
vertex -19.3872394562 -2.266746521 -99.6480026245
vertex -19.281337738 -2.28928780556 -96.0569992065
endloop
endfacet
facet normal 0.209365740418 0.977837324142 6.52727294437e-08
outer loop
vertex -19.3872394562 -2.266746521 -99.6480026245
vertex -19.4931125641 -2.24407792091 -99.6480026245
vertex -19.4931125641 -2.24407815933 -96.0569992065
endloop
endfacet
facet normal 0.978457212448 -0.206449747086 0.0
outer loop
vertex -19.175409317 -2.31170129776 -99.6480026245
vertex -19.1857318878 -2.36062455177 -96.0569992065
vertex -19.1857318878 -2.36062455177 -99.6480026245
endloop
endfacet
facet normal 0.978457033634 -0.20645070076 -1.37069449124e-08
outer loop
vertex -19.175409317 -2.31170153618 -96.0569992065
vertex -19.1857318878 -2.36062455177 -96.0569992065
vertex -19.175409317 -2.31170129776 -99.6480026245
endloop
endfacet
facet normal 0.0 0.0 1.0
outer loop
vertex -19.3872394562 -2.266746521 -96.0569992065
vertex -19.4931125641 -2.24407815933 -96.0569992065
vertex -19.503610611 -2.29296374321 -96.0569992065
endloop
endfacet
facet normal 0.0 -0.0 1.0
outer loop
vertex -19.3976783752 -2.31564474106 -96.0569992065
vertex -19.3872394562 -2.266746521 -96.0569992065
vertex -19.503610611 -2.29296374321 -96.0569992065
endloop
endfacet
facet normal 0.0 0.0 1.0
outer loop
vertex -19.281337738 -2.28928780556 -96.0569992065
vertex -19.3872394562 -2.266746521 -96.0569992065
vertex -19.3976783752 -2.31564474106 -96.0569992065
endloop
endfacet
facet normal 0.0 -0.0 1.0
outer loop
vertex -19.2917175293 -2.33819842339 -96.0569992065
vertex -19.281337738 -2.28928780556 -96.0569992065
vertex -19.3976783752 -2.31564474106 -96.0569992065
endloop
endfacet
facet normal 0.0 -0.0 1.0
outer loop
vertex -19.1857318878 -2.36062455177 -96.0569992065
vertex -19.175409317 -2.31170153618 -96.0569992065
vertex -19.281337738 -2.28928780556 -96.0569992065
endloop
endfacet
facet normal 0.0 0.0 1.0
outer loop
vertex -19.1857318878 -2.36062455177 -96.0569992065
vertex -19.281337738 -2.28928780556 -96.0569992065
vertex -19.2917175293 -2.33819842339 -96.0569992065
endloop
endfacet
facet normal 0.0 -0.0 -1.0
outer loop
vertex -19.4931125641 -2.24407792091 -99.6480026245
vertex -19.3872394562 -2.266746521 -99.6480026245
vertex -19.503610611 -2.29296350479 -99.6480026245
endloop
endfacet
facet normal 0.0 0.0 -1.0
outer loop
vertex -19.3872394562 -2.266746521 -99.6480026245
vertex -19.3976783752 -2.31564450264 -99.6480026245
vertex -19.503610611 -2.29296350479 -99.6480026245
endloop
endfacet
facet normal 0.0 -0.0 -1.0
outer loop
vertex -19.3872394562 -2.266746521 -99.6480026245
vertex -19.281337738 -2.28928756714 -99.6480026245
vertex -19.3976783752 -2.31564450264 -99.6480026245
endloop
endfacet
facet normal 0.0 0.0 -1.0
outer loop
vertex -19.281337738 -2.28928756714 -99.6480026245
vertex -19.2917175293 -2.33819818497 -99.6480026245
vertex -19.3976783752 -2.31564450264 -99.6480026245
endloop
endfacet
facet normal 0.0 -0.0 -1.0
outer loop
vertex -19.281337738 -2.28928756714 -99.6480026245
vertex -19.175409317 -2.31170129776 -99.6480026245
vertex -19.2917175293 -2.33819818497 -99.6480026245
endloop
endfacet
facet normal 0.0 0.0 -1.0
outer loop
vertex -19.175409317 -2.31170129776 -99.6480026245
vertex -19.1857318878 -2.36062455177 -99.6480026245
vertex -19.2917175293 -2.33819818497 -99.6480026245
endloop
endfacet
