solid 
facet normal -0.0173703506589 0.999849200249 0.0
outer loop
vertex -3.69148731232 4.24785661697 -127.685997009
vertex -0.60643684864 4.30145311356 -127.685997009
vertex -0.60643684864 4.30145311356 -127.705993652
endloop
endfacet
facet normal -0.0173703506589 0.999849200249 0.0
outer loop
vertex -3.69148731232 4.24785661697 -127.685997009
vertex -0.60643684864 4.30145311356 -127.705993652
vertex -3.69148731232 4.24785661697 -127.705993652
endloop
endfacet
facet normal -0.0515896342695 0.998668372631 0.0
outer loop
vertex -6.77289438248 4.0886759758 -127.685997009
vertex -3.69148731232 4.24785661697 -127.705993652
vertex -6.77289438248 4.0886759758 -127.705993652
endloop
endfacet
facet normal -0.0515896342695 0.998668372631 0.0
outer loop
vertex -6.77289438248 4.0886759758 -127.685997009
vertex -3.69148731232 4.24785661697 -127.685997009
vertex -3.69148731232 4.24785661697 -127.705993652
endloop
endfacet
facet normal -0.085748642683 0.996316790581 0.0
outer loop
vertex -9.84704589844 3.82409715652 -127.685997009
vertex -6.77289438248 4.0886759758 -127.705993652
vertex -9.84704589844 3.82409715652 -127.705993652
endloop
endfacet
facet normal -0.085748642683 0.996316790581 0.0
outer loop
vertex -9.84704589844 3.82409715652 -127.685997009
vertex -6.77289438248 4.0886759758 -127.685997009
vertex -6.77289438248 4.0886759758 -127.705993652
endloop
endfacet
facet normal -0.994703352451 -0.102787218988 0.0
outer loop
vertex -9.84704589844 3.82409715652 -127.685997009
vertex -9.84190654755 3.77436208725 -127.705993652
vertex -9.84190654755 3.77436208725 -127.685997009
endloop
endfacet
facet normal -0.994703352451 -0.102787218988 0.0
outer loop
vertex -9.84704589844 3.82409715652 -127.705993652
vertex -9.84190654755 3.77436208725 -127.705993652
vertex -9.84704589844 3.82409715652 -127.685997009
endloop
endfacet
facet normal 0.0173704084009 -0.999849140644 0.0
outer loop
vertex -0.606424331665 4.25145339966 -127.705993652
vertex -3.68976306915 4.19788646698 -127.685997009
vertex -3.68976306915 4.19788646698 -127.705993652
endloop
endfacet
facet normal 0.0173704084009 -0.999849140644 0.0
outer loop
vertex -0.606424331665 4.25145339966 -127.685997009
vertex -3.68976306915 4.19788646698 -127.685997009
vertex -0.606424331665 4.25145339966 -127.705993652
endloop
endfacet
facet normal 0.0515896752477 -0.998668372631 0.0
outer loop
vertex -3.68976306915 4.19788646698 -127.705993652
vertex -6.76946020126 4.03879404068 -127.685997009
vertex -6.76946020126 4.03879404068 -127.705993652
endloop
endfacet
facet normal 0.0857486128807 -0.996316790581 0.0
outer loop
vertex -6.76946020126 4.03879404068 -127.705993652
vertex -6.76946020126 4.03879404068 -127.685997009
vertex -9.84190654755 3.77436208725 -127.705993652
endloop
endfacet
facet normal 0.0515896752477 -0.998668372631 0.0
outer loop
vertex -3.68976306915 4.19788646698 -127.685997009
vertex -6.76946020126 4.03879404068 -127.685997009
vertex -3.68976306915 4.19788646698 -127.705993652
endloop
endfacet
facet normal 0.0857486128807 -0.996316790581 0.0
outer loop
vertex -6.76946020126 4.03879404068 -127.685997009
vertex -9.84190654755 3.77436208725 -127.685997009
vertex -9.84190654755 3.77436208725 -127.705993652
endloop
endfacet
facet normal 0.999999880791 0.000250340905041 0.0
outer loop
vertex -0.606424331665 4.25145339966 -127.685997009
vertex -0.60643684864 4.30145311356 -127.705993652
vertex -0.60643684864 4.30145311356 -127.685997009
endloop
endfacet
facet normal 0.999999880791 0.000250340905041 -0.0
outer loop
vertex -0.606424331665 4.25145339966 -127.705993652
vertex -0.60643684864 4.30145311356 -127.705993652
vertex -0.606424331665 4.25145339966 -127.685997009
endloop
endfacet
facet normal 0.0 0.0 -1.0
outer loop
vertex -6.76946020126 4.03879404068 -127.705993652
vertex -9.84190654755 3.77436208725 -127.705993652
vertex -9.84704589844 3.82409715652 -127.705993652
endloop
endfacet
facet normal 0.0 -0.0 -1.0
outer loop
vertex -6.77289438248 4.0886759758 -127.705993652
vertex -6.76946020126 4.03879404068 -127.705993652
vertex -9.84704589844 3.82409715652 -127.705993652
endloop
endfacet
facet normal 0.0 0.0 -1.0
outer loop
vertex -3.68976306915 4.19788646698 -127.705993652
vertex -6.76946020126 4.03879404068 -127.705993652
vertex -6.77289438248 4.0886759758 -127.705993652
endloop
endfacet
facet normal 0.0 -0.0 -1.0
outer loop
vertex -3.69148731232 4.24785661697 -127.705993652
vertex -3.68976306915 4.19788646698 -127.705993652
vertex -6.77289438248 4.0886759758 -127.705993652
endloop
endfacet
facet normal 0.0 -0.0 -1.0
outer loop
vertex -0.60643684864 4.30145311356 -127.705993652
vertex -0.606424331665 4.25145339966 -127.705993652
vertex -3.68976306915 4.19788646698 -127.705993652
endloop
endfacet
facet normal 0.0 0.0 -1.0
outer loop
vertex -0.60643684864 4.30145311356 -127.705993652
vertex -3.68976306915 4.19788646698 -127.705993652
vertex -3.69148731232 4.24785661697 -127.705993652
endloop
endfacet
facet normal 0.0 -0.0 1.0
outer loop
vertex -9.84190654755 3.77436208725 -127.685997009
vertex -6.76946020126 4.03879404068 -127.685997009
vertex -9.84704589844 3.82409715652 -127.685997009
endloop
endfacet
facet normal 0.0 0.0 1.0
outer loop
vertex -6.76946020126 4.03879404068 -127.685997009
vertex -6.77289438248 4.0886759758 -127.685997009
vertex -9.84704589844 3.82409715652 -127.685997009
endloop
endfacet
facet normal 0.0 -0.0 1.0
outer loop
vertex -6.76946020126 4.03879404068 -127.685997009
vertex -3.68976306915 4.19788646698 -127.685997009
vertex -6.77289438248 4.0886759758 -127.685997009
endloop
endfacet
facet normal 0.0 0.0 1.0
outer loop
vertex -3.68976306915 4.19788646698 -127.685997009
vertex -3.69148731232 4.24785661697 -127.685997009
vertex -6.77289438248 4.0886759758 -127.685997009
endloop
endfacet
facet normal 0.0 -0.0 1.0
outer loop
vertex -3.68976306915 4.19788646698 -127.685997009
vertex -0.606424331665 4.25145339966 -127.685997009
vertex -3.69148731232 4.24785661697 -127.685997009
endloop
endfacet
facet normal 0.0 0.0 1.0
outer loop
vertex -0.606424331665 4.25145339966 -127.685997009
vertex -0.60643684864 4.30145311356 -127.685997009
vertex -3.69148731232 4.24785661697 -127.685997009
endloop
endfacet
