solid 
facet normal 0.1198066324 -0.992797255516 0.0
outer loop
vertex 12.9103155136 -3.45443367958 -5.72200012207
vertex 9.84702301025 -3.82409906387 -5.72200012207
vertex 9.84702301025 -3.82409906387 -5.742000103
endloop
endfacet
facet normal 0.1198066324 -0.992797255516 0.0
outer loop
vertex 12.9103155136 -3.45443367958 -5.72200012207
vertex 9.84702301025 -3.82409906387 -5.742000103
vertex 12.9103155136 -3.45443367958 -5.742000103
endloop
endfacet
facet normal 0.153724595904 -0.988113701344 0.0
outer loop
vertex 15.9591560364 -2.98011398315 -5.72200012207
vertex 12.9103155136 -3.45443367958 -5.742000103
vertex 15.9591560364 -2.98011398315 -5.742000103
endloop
endfacet
facet normal 0.187462255359 -0.982271790504 0.0
outer loop
vertex 15.9591560364 -2.98011398315 -5.72200012207
vertex 15.9591560364 -2.98011398315 -5.742000103
vertex 18.9899711609 -2.40169620514 -5.742000103
endloop
endfacet
facet normal 0.153724595904 -0.988113701344 0.0
outer loop
vertex 15.9591560364 -2.98011398315 -5.72200012207
vertex 12.9103155136 -3.45443367958 -5.72200012207
vertex 12.9103155136 -3.45443367958 -5.742000103
endloop
endfacet
facet normal 0.187462255359 -0.982271790504 0.0
outer loop
vertex 18.9899711609 -2.40169620514 -5.72200012207
vertex 15.9591560364 -2.98011398315 -5.72200012207
vertex 18.9899711609 -2.40169620514 -5.742000103
endloop
endfacet
facet normal 0.978920936584 0.204239487648 0.0
outer loop
vertex 18.9797592163 -2.35275030136 -5.742000103
vertex 18.9899711609 -2.40169620514 -5.72200012207
vertex 18.9899711609 -2.40169620514 -5.742000103
endloop
endfacet
facet normal 0.978920936584 0.204239487648 0.0
outer loop
vertex 18.9797592163 -2.35275030136 -5.72200012207
vertex 18.9899711609 -2.40169620514 -5.72200012207
vertex 18.9797592163 -2.35275030136 -5.742000103
endloop
endfacet
facet normal -0.119806610048 0.992797255516 0.0
outer loop
vertex 9.84188365936 -3.77436375618 -5.742000103
vertex 12.9034757614 -3.40490365028 -5.72200012207
vertex 12.9034757614 -3.40490365028 -5.742000103
endloop
endfacet
facet normal -0.119806610048 0.992797255516 0.0
outer loop
vertex 9.84188365936 -3.77436375618 -5.72200012207
vertex 12.9034757614 -3.40490365028 -5.72200012207
vertex 9.84188365936 -3.77436375618 -5.742000103
endloop
endfacet
facet normal -0.153724610806 0.988113760948 0.0
outer loop
vertex 12.9034757614 -3.40490365028 -5.742000103
vertex 15.9506244659 -2.93084716797 -5.72200012207
vertex 15.9506244659 -2.93084716797 -5.742000103
endloop
endfacet
facet normal -0.187462210655 0.982271850109 0.0
outer loop
vertex 15.9506244659 -2.93084716797 -5.742000103
vertex 15.9506244659 -2.93084716797 -5.72200012207
vertex 18.9797592163 -2.35275030136 -5.742000103
endloop
endfacet
facet normal -0.153724610806 0.988113760948 0.0
outer loop
vertex 12.9034757614 -3.40490365028 -5.72200012207
vertex 15.9506244659 -2.93084716797 -5.72200012207
vertex 12.9034757614 -3.40490365028 -5.742000103
endloop
endfacet
facet normal -0.187462210655 0.982271850109 0.0
outer loop
vertex 15.9506244659 -2.93084716797 -5.72200012207
vertex 18.9797592163 -2.35275030136 -5.72200012207
vertex 18.9797592163 -2.35275030136 -5.742000103
endloop
endfacet
facet normal -0.994703471661 -0.1027867347 0.0
outer loop
vertex 9.84702301025 -3.82409906387 -5.72200012207
vertex 9.84188365936 -3.77436375618 -5.72200012207
vertex 9.84188365936 -3.77436375618 -5.742000103
endloop
endfacet
facet normal -0.994703471661 -0.1027867347 -0.0
outer loop
vertex 9.84702301025 -3.82409906387 -5.72200012207
vertex 9.84188365936 -3.77436375618 -5.742000103
vertex 9.84702301025 -3.82409906387 -5.742000103
endloop
endfacet
facet normal 0.0 0.0 1.0
outer loop
vertex 18.9797592163 -2.35275030136 -5.72200012207
vertex 15.9506244659 -2.93084716797 -5.72200012207
vertex 18.9899711609 -2.40169620514 -5.72200012207
endloop
endfacet
facet normal -0.0 0.0 1.0
outer loop
vertex 15.9506244659 -2.93084716797 -5.72200012207
vertex 15.9591560364 -2.98011398315 -5.72200012207
vertex 18.9899711609 -2.40169620514 -5.72200012207
endloop
endfacet
facet normal 0.0 0.0 1.0
outer loop
vertex 15.9506244659 -2.93084716797 -5.72200012207
vertex 12.9034757614 -3.40490365028 -5.72200012207
vertex 15.9591560364 -2.98011398315 -5.72200012207
endloop
endfacet
facet normal -0.0 0.0 1.0
outer loop
vertex 12.9034757614 -3.40490365028 -5.72200012207
vertex 12.9103155136 -3.45443367958 -5.72200012207
vertex 15.9591560364 -2.98011398315 -5.72200012207
endloop
endfacet
facet normal 0.0 0.0 1.0
outer loop
vertex 12.9034757614 -3.40490365028 -5.72200012207
vertex 9.84188365936 -3.77436375618 -5.72200012207
vertex 12.9103155136 -3.45443367958 -5.72200012207
endloop
endfacet
facet normal -0.0 0.0 1.0
outer loop
vertex 9.84188365936 -3.77436375618 -5.72200012207
vertex 9.84702301025 -3.82409906387 -5.72200012207
vertex 12.9103155136 -3.45443367958 -5.72200012207
endloop
endfacet
facet normal 0.0 0.0 -1.0
outer loop
vertex 15.9506244659 -2.93084716797 -5.742000103
vertex 18.9797592163 -2.35275030136 -5.742000103
vertex 18.9899711609 -2.40169620514 -5.742000103
endloop
endfacet
facet normal 0.0 0.0 -1.0
outer loop
vertex 15.9591560364 -2.98011398315 -5.742000103
vertex 15.9506244659 -2.93084716797 -5.742000103
vertex 18.9899711609 -2.40169620514 -5.742000103
endloop
endfacet
facet normal 0.0 0.0 -1.0
outer loop
vertex 12.9034757614 -3.40490365028 -5.742000103
vertex 15.9506244659 -2.93084716797 -5.742000103
vertex 15.9591560364 -2.98011398315 -5.742000103
endloop
endfacet
facet normal 0.0 0.0 -1.0
outer loop
vertex 12.9103155136 -3.45443367958 -5.742000103
vertex 12.9034757614 -3.40490365028 -5.742000103
vertex 15.9591560364 -2.98011398315 -5.742000103
endloop
endfacet
facet normal 0.0 0.0 -1.0
outer loop
vertex 9.84188365936 -3.77436375618 -5.742000103
vertex 12.9034757614 -3.40490365028 -5.742000103
vertex 12.9103155136 -3.45443367958 -5.742000103
endloop
endfacet
facet normal 0.0 0.0 -1.0
outer loop
vertex 9.84702301025 -3.82409906387 -5.742000103
vertex 9.84188365936 -3.77436375618 -5.742000103
vertex 12.9103155136 -3.45443367958 -5.742000103
endloop
endfacet
