solid 
facet normal -0.0173700433224 0.999849140644 0.0
outer loop
vertex -0.606410264969 4.30145263672 15.1659994125
vertex -0.606410264969 4.30145263672 15.1459999084
vertex -3.69146060944 4.24785709381 15.1459999084
endloop
endfacet
facet normal -0.0515893287957 0.998668372631 0.0
outer loop
vertex -3.69146060944 4.24785709381 15.1659994125
vertex -3.69146060944 4.24785709381 15.1459999084
vertex -6.7728676796 4.08867740631 15.1459999084
endloop
endfacet
facet normal -0.0173700433224 0.999849140644 0.0
outer loop
vertex -3.69146060944 4.24785709381 15.1659994125
vertex -0.606410264969 4.30145263672 15.1659994125
vertex -3.69146060944 4.24785709381 15.1459999084
endloop
endfacet
facet normal -0.0515893287957 0.998668372631 0.0
outer loop
vertex -6.7728676796 4.08867740631 15.1659994125
vertex -3.69146060944 4.24785709381 15.1659994125
vertex -6.7728676796 4.08867740631 15.1459999084
endloop
endfacet
facet normal -0.0857482627034 0.996316850185 0.0
outer loop
vertex -9.84701919556 3.82409977913 15.1659994125
vertex -6.7728676796 4.08867740631 15.1459999084
vertex -9.84701919556 3.82409977913 15.1459999084
endloop
endfacet
facet normal -0.0857482627034 0.996316850185 0.0
outer loop
vertex -9.84701919556 3.82409977913 15.1659994125
vertex -6.7728676796 4.08867740631 15.1659994125
vertex -6.7728676796 4.08867740631 15.1459999084
endloop
endfacet
facet normal -0.994703292847 -0.102787218988 0.0
outer loop
vertex -9.84701919556 3.82409977913 15.1659994125
vertex -9.84187984467 3.77436470985 15.1459999084
vertex -9.84187984467 3.77436470985 15.1659994125
endloop
endfacet
facet normal -0.994703292847 -0.102787218988 0.0
outer loop
vertex -9.84701919556 3.82409977913 15.1459999084
vertex -9.84187984467 3.77436470985 15.1459999084
vertex -9.84701919556 3.82409977913 15.1659994125
endloop
endfacet
facet normal 0.0173699446023 -0.999849140644 0.0
outer loop
vertex -0.606397807598 4.25145244598 15.1459999084
vertex -3.68973636627 4.19788694382 15.1659994125
vertex -3.68973636627 4.19788694382 15.1459999084
endloop
endfacet
facet normal 0.051589358598 -0.998668372631 0.0
outer loop
vertex -3.68973636627 4.19788694382 15.1459999084
vertex -3.68973636627 4.19788694382 15.1659994125
vertex -6.76943397522 4.03879547119 15.1459999084
endloop
endfacet
facet normal 0.0173699446023 -0.999849140644 0.0
outer loop
vertex -0.606397807598 4.25145244598 15.1659994125
vertex -3.68973636627 4.19788694382 15.1659994125
vertex -0.606397807598 4.25145244598 15.1459999084
endloop
endfacet
facet normal 0.0857482403517 -0.996316850185 0.0
outer loop
vertex -6.76943397522 4.03879547119 15.1459999084
vertex -6.76943397522 4.03879547119 15.1659994125
vertex -9.84187984467 3.77436470985 15.1459999084
endloop
endfacet
facet normal 0.051589358598 -0.998668372631 0.0
outer loop
vertex -3.68973636627 4.19788694382 15.1659994125
vertex -6.76943397522 4.03879547119 15.1659994125
vertex -6.76943397522 4.03879547119 15.1459999084
endloop
endfacet
facet normal 0.0857482403517 -0.996316850185 0.0
outer loop
vertex -6.76943397522 4.03879547119 15.1659994125
vertex -9.84187984467 3.77436470985 15.1659994125
vertex -9.84187984467 3.77436470985 15.1459999084
endloop
endfacet
facet normal 1.0 0.000249146483839 -0.0
outer loop
vertex -0.606397807598 4.25145244598 15.1459999084
vertex -0.606410264969 4.30145263672 15.1659994125
vertex -0.606397807598 4.25145244598 15.1659994125
endloop
endfacet
facet normal 1.0 0.000249146483839 0.0
outer loop
vertex -0.606397807598 4.25145244598 15.1459999084
vertex -0.606410264969 4.30145263672 15.1459999084
vertex -0.606410264969 4.30145263672 15.1659994125
endloop
endfacet
facet normal 0.0 -0.0 -1.0
outer loop
vertex -6.7728676796 4.08867740631 15.1459999084
vertex -6.76943397522 4.03879547119 15.1459999084
vertex -9.84187984467 3.77436470985 15.1459999084
endloop
endfacet
facet normal 0.0 0.0 -1.0
outer loop
vertex -6.7728676796 4.08867740631 15.1459999084
vertex -9.84187984467 3.77436470985 15.1459999084
vertex -9.84701919556 3.82409977913 15.1459999084
endloop
endfacet
facet normal 0.0 -0.0 -1.0
outer loop
vertex -3.69146060944 4.24785709381 15.1459999084
vertex -3.68973636627 4.19788694382 15.1459999084
vertex -6.76943397522 4.03879547119 15.1459999084
endloop
endfacet
facet normal 0.0 0.0 -1.0
outer loop
vertex -3.69146060944 4.24785709381 15.1459999084
vertex -6.76943397522 4.03879547119 15.1459999084
vertex -6.7728676796 4.08867740631 15.1459999084
endloop
endfacet
facet normal 0.0 -0.0 -1.0
outer loop
vertex -0.606410264969 4.30145263672 15.1459999084
vertex -0.606397807598 4.25145244598 15.1459999084
vertex -3.68973636627 4.19788694382 15.1459999084
endloop
endfacet
facet normal 0.0 0.0 -1.0
outer loop
vertex -0.606410264969 4.30145263672 15.1459999084
vertex -3.68973636627 4.19788694382 15.1459999084
vertex -3.69146060944 4.24785709381 15.1459999084
endloop
endfacet
facet normal 0.0 -0.0 1.0
outer loop
vertex -9.84187984467 3.77436470985 15.1659994125
vertex -6.76943397522 4.03879547119 15.1659994125
vertex -9.84701919556 3.82409977913 15.1659994125
endloop
endfacet
facet normal 0.0 0.0 1.0
outer loop
vertex -6.76943397522 4.03879547119 15.1659994125
vertex -6.7728676796 4.08867740631 15.1659994125
vertex -9.84701919556 3.82409977913 15.1659994125
endloop
endfacet
facet normal 0.0 -0.0 1.0
outer loop
vertex -6.76943397522 4.03879547119 15.1659994125
vertex -3.68973636627 4.19788694382 15.1659994125
vertex -6.7728676796 4.08867740631 15.1659994125
endloop
endfacet
facet normal 0.0 0.0 1.0
outer loop
vertex -3.68973636627 4.19788694382 15.1659994125
vertex -3.69146060944 4.24785709381 15.1659994125
vertex -6.7728676796 4.08867740631 15.1659994125
endloop
endfacet
facet normal 0.0 -0.0 1.0
outer loop
vertex -3.68973636627 4.19788694382 15.1659994125
vertex -0.606397807598 4.25145244598 15.1659994125
vertex -3.69146060944 4.24785709381 15.1659994125
endloop
endfacet
facet normal 0.0 0.0 1.0
outer loop
vertex -0.606397807598 4.25145244598 15.1659994125
vertex -0.606410264969 4.30145263672 15.1659994125
vertex -3.69146060944 4.24785709381 15.1659994125
endloop
endfacet
