solid 
facet normal -0.0173700433224 0.999849140644 0.0
outer loop
vertex -3.69146060944 4.24785709381 7.98399972916
vertex -0.606410324574 4.30145263672 7.98399972916
vertex -0.606410324574 4.30145263672 7.96399974823
endloop
endfacet
facet normal -0.0173700433224 0.999849140644 0.0
outer loop
vertex -3.69146060944 4.24785709381 7.98399972916
vertex -0.606410324574 4.30145263672 7.96399974823
vertex -3.69146060944 4.24785709381 7.96399974823
endloop
endfacet
facet normal -0.0515893176198 0.998668372631 0.0
outer loop
vertex -6.77286815643 4.08867740631 7.98399972916
vertex -3.69146060944 4.24785709381 7.96399974823
vertex -6.77286815643 4.08867740631 7.96399974823
endloop
endfacet
facet normal -0.0515893176198 0.998668372631 0.0
outer loop
vertex -6.77286815643 4.08867740631 7.98399972916
vertex -3.69146060944 4.24785709381 7.98399972916
vertex -3.69146060944 4.24785709381 7.96399974823
endloop
endfacet
facet normal -0.085748270154 0.996316790581 0.0
outer loop
vertex -9.84701919556 3.82409977913 7.98399972916
vertex -6.77286815643 4.08867740631 7.96399974823
vertex -9.84701919556 3.82409977913 7.96399974823
endloop
endfacet
facet normal -0.085748270154 0.996316790581 0.0
outer loop
vertex -9.84701919556 3.82409977913 7.98399972916
vertex -6.77286815643 4.08867740631 7.98399972916
vertex -6.77286815643 4.08867740631 7.96399974823
endloop
endfacet
facet normal -0.994703292847 -0.102787218988 0.0
outer loop
vertex -9.84701919556 3.82409977913 7.98399972916
vertex -9.84187984467 3.77436470985 7.96399974823
vertex -9.84187984467 3.77436470985 7.98399972916
endloop
endfacet
facet normal -0.994703292847 -0.102787218988 0.0
outer loop
vertex -9.84701919556 3.82409977913 7.96399974823
vertex -9.84187984467 3.77436470985 7.96399974823
vertex -9.84701919556 3.82409977913 7.98399972916
endloop
endfacet
facet normal 0.0173699446023 -0.999849200249 0.0
outer loop
vertex -0.606397807598 4.25145244598 7.96399974823
vertex -3.68973660469 4.19788694382 7.98399972916
vertex -3.68973660469 4.19788694382 7.96399974823
endloop
endfacet
facet normal 0.0173699446023 -0.999849200249 0.0
outer loop
vertex -0.606397807598 4.25145244598 7.98399972916
vertex -3.68973660469 4.19788694382 7.98399972916
vertex -0.606397807598 4.25145244598 7.96399974823
endloop
endfacet
facet normal 0.0515893623233 -0.998668372631 0.0
outer loop
vertex -3.68973660469 4.19788694382 7.96399974823
vertex -6.76943397522 4.03879547119 7.98399972916
vertex -6.76943397522 4.03879547119 7.96399974823
endloop
endfacet
facet normal 0.0857482403517 -0.996316790581 0.0
outer loop
vertex -6.76943397522 4.03879547119 7.96399974823
vertex -6.76943397522 4.03879547119 7.98399972916
vertex -9.84187984467 3.77436470985 7.96399974823
endloop
endfacet
facet normal 0.0515893623233 -0.998668372631 0.0
outer loop
vertex -3.68973660469 4.19788694382 7.98399972916
vertex -6.76943397522 4.03879547119 7.98399972916
vertex -3.68973660469 4.19788694382 7.96399974823
endloop
endfacet
facet normal 0.0857482403517 -0.996316790581 0.0
outer loop
vertex -6.76943397522 4.03879547119 7.98399972916
vertex -9.84187984467 3.77436470985 7.98399972916
vertex -9.84187984467 3.77436470985 7.96399974823
endloop
endfacet
facet normal 1.0 0.00025033854763 0.0
outer loop
vertex -0.606397807598 4.25145244598 7.98399972916
vertex -0.606410324574 4.30145263672 7.96399974823
vertex -0.606410324574 4.30145263672 7.98399972916
endloop
endfacet
facet normal 1.0 0.00025033854763 -0.0
outer loop
vertex -0.606397807598 4.25145244598 7.96399974823
vertex -0.606410324574 4.30145263672 7.96399974823
vertex -0.606397807598 4.25145244598 7.98399972916
endloop
endfacet
facet normal 0.0 0.0 -1.0
outer loop
vertex -6.76943397522 4.03879547119 7.96399974823
vertex -9.84187984467 3.77436470985 7.96399974823
vertex -9.84701919556 3.82409977913 7.96399974823
endloop
endfacet
facet normal 0.0 -0.0 -1.0
outer loop
vertex -6.77286815643 4.08867740631 7.96399974823
vertex -6.76943397522 4.03879547119 7.96399974823
vertex -9.84701919556 3.82409977913 7.96399974823
endloop
endfacet
facet normal 0.0 0.0 -1.0
outer loop
vertex -3.68973660469 4.19788694382 7.96399974823
vertex -6.76943397522 4.03879547119 7.96399974823
vertex -6.77286815643 4.08867740631 7.96399974823
endloop
endfacet
facet normal 0.0 -0.0 -1.0
outer loop
vertex -3.69146060944 4.24785709381 7.96399974823
vertex -3.68973660469 4.19788694382 7.96399974823
vertex -6.77286815643 4.08867740631 7.96399974823
endloop
endfacet
facet normal 0.0 -0.0 -1.0
outer loop
vertex -0.606410324574 4.30145263672 7.96399974823
vertex -0.606397807598 4.25145244598 7.96399974823
vertex -3.68973660469 4.19788694382 7.96399974823
endloop
endfacet
facet normal 0.0 0.0 -1.0
outer loop
vertex -0.606410324574 4.30145263672 7.96399974823
vertex -3.68973660469 4.19788694382 7.96399974823
vertex -3.69146060944 4.24785709381 7.96399974823
endloop
endfacet
facet normal 0.0 -0.0 1.0
outer loop
vertex -9.84187984467 3.77436470985 7.98399972916
vertex -6.76943397522 4.03879547119 7.98399972916
vertex -9.84701919556 3.82409977913 7.98399972916
endloop
endfacet
facet normal 0.0 0.0 1.0
outer loop
vertex -6.76943397522 4.03879547119 7.98399972916
vertex -6.77286815643 4.08867740631 7.98399972916
vertex -9.84701919556 3.82409977913 7.98399972916
endloop
endfacet
facet normal 0.0 -0.0 1.0
outer loop
vertex -6.76943397522 4.03879547119 7.98399972916
vertex -3.68973660469 4.19788694382 7.98399972916
vertex -6.77286815643 4.08867740631 7.98399972916
endloop
endfacet
facet normal 0.0 0.0 1.0
outer loop
vertex -3.68973660469 4.19788694382 7.98399972916
vertex -3.69146060944 4.24785709381 7.98399972916
vertex -6.77286815643 4.08867740631 7.98399972916
endloop
endfacet
facet normal 0.0 -0.0 1.0
outer loop
vertex -3.68973660469 4.19788694382 7.98399972916
vertex -0.606397807598 4.25145244598 7.98399972916
vertex -3.69146060944 4.24785709381 7.98399972916
endloop
endfacet
facet normal 0.0 0.0 1.0
outer loop
vertex -0.606397807598 4.25145244598 7.98399972916
vertex -0.606410324574 4.30145263672 7.98399972916
vertex -3.69146060944 4.24785709381 7.98399972916
endloop
endfacet
