solid 
facet normal -0.0173700414598 -0.999849140644 0.0
outer loop
vertex -3.69146084785 -4.24785709381 -12.984000206
vertex -0.606410324574 -4.30145263672 -12.984000206
vertex -0.606410324574 -4.30145263672 -12.9639997482
endloop
endfacet
facet normal -0.0173700414598 -0.999849140644 0.0
outer loop
vertex -3.69146084785 -4.24785709381 -12.984000206
vertex -0.606410324574 -4.30145263672 -12.9639997482
vertex -3.69146084785 -4.24785709381 -12.9639997482
endloop
endfacet
facet normal -0.0515893250704 -0.998668372631 0.0
outer loop
vertex -6.77286815643 -4.08867740631 -12.984000206
vertex -3.69146084785 -4.24785709381 -12.9639997482
vertex -6.77286815643 -4.08867740631 -12.9639997482
endloop
endfacet
facet normal -0.0515893250704 -0.998668372631 0.0
outer loop
vertex -6.77286815643 -4.08867740631 -12.984000206
vertex -3.69146084785 -4.24785709381 -12.984000206
vertex -3.69146084785 -4.24785709381 -12.9639997482
endloop
endfacet
facet normal -0.0857482776046 -0.996316850185 0.0
outer loop
vertex -9.84701919556 -3.82409977913 -12.984000206
vertex -6.77286815643 -4.08867740631 -12.9639997482
vertex -9.84701919556 -3.82409977913 -12.9639997482
endloop
endfacet
facet normal -0.0857482776046 -0.996316850185 0.0
outer loop
vertex -9.84701919556 -3.82409977913 -12.984000206
vertex -6.77286815643 -4.08867740631 -12.984000206
vertex -6.77286815643 -4.08867740631 -12.9639997482
endloop
endfacet
facet normal -0.994703471661 0.102786749601 0.0
outer loop
vertex -9.84701919556 -3.82409977913 -12.984000206
vertex -9.84187984467 -3.77436447144 -12.9639997482
vertex -9.84187984467 -3.77436447144 -12.984000206
endloop
endfacet
facet normal -0.994703471661 0.102786749601 0.0
outer loop
vertex -9.84701919556 -3.82409977913 -12.9639997482
vertex -9.84187984467 -3.77436447144 -12.9639997482
vertex -9.84701919556 -3.82409977913 -12.984000206
endloop
endfacet
facet normal 0.0173699446023 0.999849140644 0.0
outer loop
vertex -0.606397867203 -4.25145244598 -12.9639997482
vertex -3.68973660469 -4.19788694382 -12.984000206
vertex -3.68973660469 -4.19788694382 -12.9639997482
endloop
endfacet
facet normal 0.0173699446023 0.999849140644 -0.0
outer loop
vertex -0.606397867203 -4.25145244598 -12.984000206
vertex -3.68973660469 -4.19788694382 -12.984000206
vertex -0.606397867203 -4.25145244598 -12.9639997482
endloop
endfacet
facet normal 0.051589358598 0.998668372631 0.0
outer loop
vertex -3.68973660469 -4.19788694382 -12.9639997482
vertex -6.76943397522 -4.03879547119 -12.984000206
vertex -6.76943397522 -4.03879547119 -12.9639997482
endloop
endfacet
facet normal 0.0857483148575 0.996316850185 0.0
outer loop
vertex -6.76943397522 -4.03879547119 -12.9639997482
vertex -6.76943397522 -4.03879547119 -12.984000206
vertex -9.84187984467 -3.77436447144 -12.9639997482
endloop
endfacet
facet normal 0.051589358598 0.998668372631 -0.0
outer loop
vertex -3.68973660469 -4.19788694382 -12.984000206
vertex -6.76943397522 -4.03879547119 -12.984000206
vertex -3.68973660469 -4.19788694382 -12.9639997482
endloop
endfacet
facet normal 0.0857483148575 0.996316850185 0.0
outer loop
vertex -6.76943397522 -4.03879547119 -12.984000206
vertex -9.84187984467 -3.77436447144 -12.984000206
vertex -9.84187984467 -3.77436447144 -12.9639997482
endloop
endfacet
facet normal 0.999999880791 -0.000249146425631 0.0
outer loop
vertex -0.606397867203 -4.25145244598 -12.984000206
vertex -0.606410324574 -4.30145263672 -12.9639997482
vertex -0.606410324574 -4.30145263672 -12.984000206
endloop
endfacet
facet normal 0.999999880791 -0.000249146425631 0.0
outer loop
vertex -0.606397867203 -4.25145244598 -12.9639997482
vertex -0.606410324574 -4.30145263672 -12.9639997482
vertex -0.606397867203 -4.25145244598 -12.984000206
endloop
endfacet
facet normal 0.0 0.0 1.0
outer loop
vertex -6.76943397522 -4.03879547119 -12.9639997482
vertex -9.84187984467 -3.77436447144 -12.9639997482
vertex -9.84701919556 -3.82409977913 -12.9639997482
endloop
endfacet
facet normal 0.0 -0.0 1.0
outer loop
vertex -6.77286815643 -4.08867740631 -12.9639997482
vertex -6.76943397522 -4.03879547119 -12.9639997482
vertex -9.84701919556 -3.82409977913 -12.9639997482
endloop
endfacet
facet normal 0.0 0.0 1.0
outer loop
vertex -3.68973660469 -4.19788694382 -12.9639997482
vertex -6.76943397522 -4.03879547119 -12.9639997482
vertex -6.77286815643 -4.08867740631 -12.9639997482
endloop
endfacet
facet normal 0.0 -0.0 1.0
outer loop
vertex -3.69146084785 -4.24785709381 -12.9639997482
vertex -3.68973660469 -4.19788694382 -12.9639997482
vertex -6.77286815643 -4.08867740631 -12.9639997482
endloop
endfacet
facet normal 0.0 -0.0 1.0
outer loop
vertex -0.606410324574 -4.30145263672 -12.9639997482
vertex -0.606397867203 -4.25145244598 -12.9639997482
vertex -3.68973660469 -4.19788694382 -12.9639997482
endloop
endfacet
facet normal 0.0 0.0 1.0
outer loop
vertex -0.606410324574 -4.30145263672 -12.9639997482
vertex -3.68973660469 -4.19788694382 -12.9639997482
vertex -3.69146084785 -4.24785709381 -12.9639997482
endloop
endfacet
facet normal 0.0 -0.0 -1.0
outer loop
vertex -9.84187984467 -3.77436447144 -12.984000206
vertex -6.76943397522 -4.03879547119 -12.984000206
vertex -9.84701919556 -3.82409977913 -12.984000206
endloop
endfacet
facet normal -0.0 0.0 -1.0
outer loop
vertex -6.76943397522 -4.03879547119 -12.984000206
vertex -6.77286815643 -4.08867740631 -12.984000206
vertex -9.84701919556 -3.82409977913 -12.984000206
endloop
endfacet
facet normal 0.0 -0.0 -1.0
outer loop
vertex -6.76943397522 -4.03879547119 -12.984000206
vertex -3.68973660469 -4.19788694382 -12.984000206
vertex -6.77286815643 -4.08867740631 -12.984000206
endloop
endfacet
facet normal -0.0 0.0 -1.0
outer loop
vertex -3.68973660469 -4.19788694382 -12.984000206
vertex -3.69146084785 -4.24785709381 -12.984000206
vertex -6.77286815643 -4.08867740631 -12.984000206
endloop
endfacet
facet normal 0.0 -0.0 -1.0
outer loop
vertex -3.68973660469 -4.19788694382 -12.984000206
vertex -0.606397867203 -4.25145244598 -12.984000206
vertex -3.69146084785 -4.24785709381 -12.984000206
endloop
endfacet
facet normal -0.0 0.0 -1.0
outer loop
vertex -0.606397867203 -4.25145244598 -12.984000206
vertex -0.606410324574 -4.30145263672 -12.984000206
vertex -3.69146084785 -4.24785709381 -12.984000206
endloop
endfacet
