solid 
facet normal -0.017370197922 0.999849200249 0.0
outer loop
vertex -0.606431126595 4.30145311356 101.830001831
vertex -0.606431126595 4.30145311356 101.810005188
vertex -3.69148159027 4.24785709381 101.810005188
endloop
endfacet
facet normal -0.0515896342695 0.998668372631 0.0
outer loop
vertex -3.69148159027 4.24785709381 101.830001831
vertex -3.69148159027 4.24785709381 101.810005188
vertex -6.77288866043 4.08867645264 101.810005188
endloop
endfacet
facet normal -0.017370197922 0.999849200249 0.0
outer loop
vertex -3.69148159027 4.24785709381 101.830001831
vertex -0.606431126595 4.30145311356 101.830001831
vertex -3.69148159027 4.24785709381 101.810005188
endloop
endfacet
facet normal -0.0515896342695 0.998668372631 0.0
outer loop
vertex -6.77288866043 4.08867645264 101.830001831
vertex -3.69148159027 4.24785709381 101.830001831
vertex -6.77288866043 4.08867645264 101.810005188
endloop
endfacet
facet normal -0.0857484862208 0.996316790581 0.0
outer loop
vertex -9.84704017639 3.8240981102 101.830001831
vertex -6.77288866043 4.08867645264 101.810005188
vertex -9.84704017639 3.8240981102 101.810005188
endloop
endfacet
facet normal -0.0857484862208 0.996316790581 0.0
outer loop
vertex -9.84704017639 3.8240981102 101.830001831
vertex -6.77288866043 4.08867645264 101.830001831
vertex -6.77288866043 4.08867645264 101.810005188
endloop
endfacet
facet normal -0.994703412056 -0.10278672725 0.0
outer loop
vertex -9.84704017639 3.8240981102 101.830001831
vertex -9.8419008255 3.77436280251 101.810005188
vertex -9.8419008255 3.77436280251 101.830001831
endloop
endfacet
facet normal -0.994703412056 -0.10278672725 0.0
outer loop
vertex -9.84704017639 3.8240981102 101.810005188
vertex -9.8419008255 3.77436280251 101.810005188
vertex -9.84704017639 3.8240981102 101.830001831
endloop
endfacet
facet normal 0.0173702538013 -0.999849140644 0.0
outer loop
vertex -0.606418609619 4.25145339966 101.810005188
vertex -3.68975734711 4.19788694382 101.830001831
vertex -3.68975734711 4.19788694382 101.810005188
endloop
endfacet
facet normal 0.0515896677971 -0.998668372631 0.0
outer loop
vertex -3.68975734711 4.19788694382 101.810005188
vertex -3.68975734711 4.19788694382 101.830001831
vertex -6.76945495605 4.03879451752 101.810005188
endloop
endfacet
facet normal 0.0173702538013 -0.999849140644 0.0
outer loop
vertex -0.606418609619 4.25145339966 101.830001831
vertex -3.68975734711 4.19788694382 101.830001831
vertex -0.606418609619 4.25145339966 101.810005188
endloop
endfacet
facet normal 0.0857485383749 -0.996316790581 0.0
outer loop
vertex -6.76945495605 4.03879451752 101.810005188
vertex -6.76945495605 4.03879451752 101.830001831
vertex -9.8419008255 3.77436280251 101.810005188
endloop
endfacet
facet normal 0.0515896677971 -0.998668372631 0.0
outer loop
vertex -3.68975734711 4.19788694382 101.830001831
vertex -6.76945495605 4.03879451752 101.830001831
vertex -6.76945495605 4.03879451752 101.810005188
endloop
endfacet
facet normal 0.0857485383749 -0.996316790581 0.0
outer loop
vertex -6.76945495605 4.03879451752 101.830001831
vertex -9.8419008255 3.77436280251 101.830001831
vertex -9.8419008255 3.77436280251 101.810005188
endloop
endfacet
facet normal 0.999999880791 0.000250340905041 -0.0
outer loop
vertex -0.606418609619 4.25145339966 101.810005188
vertex -0.606431126595 4.30145311356 101.830001831
vertex -0.606418609619 4.25145339966 101.830001831
endloop
endfacet
facet normal 0.999999880791 0.000250340905041 0.0
outer loop
vertex -0.606418609619 4.25145339966 101.810005188
vertex -0.606431126595 4.30145311356 101.810005188
vertex -0.606431126595 4.30145311356 101.830001831
endloop
endfacet
facet normal 0.0 -0.0 -1.0
outer loop
vertex -6.77288866043 4.08867645264 101.810005188
vertex -6.76945495605 4.03879451752 101.810005188
vertex -9.8419008255 3.77436280251 101.810005188
endloop
endfacet
facet normal 0.0 0.0 -1.0
outer loop
vertex -6.77288866043 4.08867645264 101.810005188
vertex -9.8419008255 3.77436280251 101.810005188
vertex -9.84704017639 3.8240981102 101.810005188
endloop
endfacet
facet normal 0.0 -0.0 -1.0
outer loop
vertex -3.69148159027 4.24785709381 101.810005188
vertex -3.68975734711 4.19788694382 101.810005188
vertex -6.76945495605 4.03879451752 101.810005188
endloop
endfacet
facet normal 0.0 0.0 -1.0
outer loop
vertex -3.69148159027 4.24785709381 101.810005188
vertex -6.76945495605 4.03879451752 101.810005188
vertex -6.77288866043 4.08867645264 101.810005188
endloop
endfacet
facet normal 0.0 -0.0 -1.0
outer loop
vertex -0.606431126595 4.30145311356 101.810005188
vertex -0.606418609619 4.25145339966 101.810005188
vertex -3.68975734711 4.19788694382 101.810005188
endloop
endfacet
facet normal 0.0 0.0 -1.0
outer loop
vertex -0.606431126595 4.30145311356 101.810005188
vertex -3.68975734711 4.19788694382 101.810005188
vertex -3.69148159027 4.24785709381 101.810005188
endloop
endfacet
facet normal 0.0 -0.0 1.0
outer loop
vertex -9.8419008255 3.77436280251 101.830001831
vertex -6.76945495605 4.03879451752 101.830001831
vertex -9.84704017639 3.8240981102 101.830001831
endloop
endfacet
facet normal 0.0 0.0 1.0
outer loop
vertex -6.76945495605 4.03879451752 101.830001831
vertex -6.77288866043 4.08867645264 101.830001831
vertex -9.84704017639 3.8240981102 101.830001831
endloop
endfacet
facet normal 0.0 -0.0 1.0
outer loop
vertex -6.76945495605 4.03879451752 101.830001831
vertex -3.68975734711 4.19788694382 101.830001831
vertex -6.77288866043 4.08867645264 101.830001831
endloop
endfacet
facet normal 0.0 0.0 1.0
outer loop
vertex -3.68975734711 4.19788694382 101.830001831
vertex -3.69148159027 4.24785709381 101.830001831
vertex -6.77288866043 4.08867645264 101.830001831
endloop
endfacet
facet normal 0.0 -0.0 1.0
outer loop
vertex -3.68975734711 4.19788694382 101.830001831
vertex -0.606418609619 4.25145339966 101.830001831
vertex -3.69148159027 4.24785709381 101.830001831
endloop
endfacet
facet normal 0.0 0.0 1.0
outer loop
vertex -0.606418609619 4.25145339966 101.830001831
vertex -0.606431126595 4.30145311356 101.830001831
vertex -3.69148159027 4.24785709381 101.830001831
endloop
endfacet
