solid 
facet normal 0.0173700414598 0.999849140644 0.0
outer loop
vertex 3.69146084785 4.24785709381 15.1459999084
vertex 0.606410384178 4.30145263672 15.1459999084
vertex 0.606410384178 4.30145263672 15.1659994125
endloop
endfacet
facet normal 0.0173700414598 0.999849140644 -0.0
outer loop
vertex 3.69146084785 4.24785709381 15.1459999084
vertex 0.606410384178 4.30145263672 15.1659994125
vertex 3.69146084785 4.24785709381 15.1659994125
endloop
endfacet
facet normal 0.0515893250704 0.998668372631 -0.0
outer loop
vertex 6.77286815643 4.08867740631 15.1459999084
vertex 3.69146084785 4.24785709381 15.1659994125
vertex 6.77286815643 4.08867740631 15.1659994125
endloop
endfacet
facet normal 0.0857482776046 0.996316850185 -0.0
outer loop
vertex 6.77286815643 4.08867740631 15.1459999084
vertex 6.77286815643 4.08867740631 15.1659994125
vertex 9.84701919556 3.82409977913 15.1659994125
endloop
endfacet
facet normal 0.0515893250704 0.998668372631 0.0
outer loop
vertex 6.77286815643 4.08867740631 15.1459999084
vertex 3.69146084785 4.24785709381 15.1459999084
vertex 3.69146084785 4.24785709381 15.1659994125
endloop
endfacet
facet normal 0.0857482776046 0.996316850185 -0.0
outer loop
vertex 9.84701919556 3.82409977913 15.1459999084
vertex 6.77286815643 4.08867740631 15.1459999084
vertex 9.84701919556 3.82409977913 15.1659994125
endloop
endfacet
facet normal 0.994703292847 -0.102787218988 0.0
outer loop
vertex 9.84187984467 3.77436470985 15.1459999084
vertex 9.84701919556 3.82409977913 15.1459999084
vertex 9.84701919556 3.82409977913 15.1659994125
endloop
endfacet
facet normal 0.994703292847 -0.102787218988 0.0
outer loop
vertex 9.84187984467 3.77436470985 15.1459999084
vertex 9.84701919556 3.82409977913 15.1659994125
vertex 9.84187984467 3.77436470985 15.1659994125
endloop
endfacet
facet normal -0.0173699446023 -0.999849140644 -0.0
outer loop
vertex 0.606397867203 4.25145244598 15.1659994125
vertex 0.606397867203 4.25145244598 15.1459999084
vertex 3.68973660469 4.19788694382 15.1659994125
endloop
endfacet
facet normal -0.0173699446023 -0.999849140644 0.0
outer loop
vertex 0.606397867203 4.25145244598 15.1459999084
vertex 3.68973660469 4.19788694382 15.1459999084
vertex 3.68973660469 4.19788694382 15.1659994125
endloop
endfacet
facet normal -0.0515893660486 -0.998668372631 0.0
outer loop
vertex 3.68973660469 4.19788694382 15.1659994125
vertex 6.76943397522 4.03879547119 15.1459999084
vertex 6.76943397522 4.03879547119 15.1659994125
endloop
endfacet
facet normal -0.0515893660486 -0.998668372631 0.0
outer loop
vertex 3.68973660469 4.19788694382 15.1459999084
vertex 6.76943397522 4.03879547119 15.1459999084
vertex 3.68973660469 4.19788694382 15.1659994125
endloop
endfacet
facet normal -0.0857482403517 -0.996316850185 0.0
outer loop
vertex 6.76943397522 4.03879547119 15.1659994125
vertex 9.84187984467 3.77436470985 15.1459999084
vertex 9.84187984467 3.77436470985 15.1659994125
endloop
endfacet
facet normal -0.0857482403517 -0.996316850185 0.0
outer loop
vertex 6.76943397522 4.03879547119 15.1459999084
vertex 9.84187984467 3.77436470985 15.1459999084
vertex 6.76943397522 4.03879547119 15.1659994125
endloop
endfacet
facet normal -1.0 0.000250338576734 0.0
outer loop
vertex 0.606410384178 4.30145263672 15.1659994125
vertex 0.606397867203 4.25145244598 15.1459999084
vertex 0.606397867203 4.25145244598 15.1659994125
endloop
endfacet
facet normal -1.0 0.000250338576734 0.0
outer loop
vertex 0.606410384178 4.30145263672 15.1459999084
vertex 0.606397867203 4.25145244598 15.1459999084
vertex 0.606410384178 4.30145263672 15.1659994125
endloop
endfacet
facet normal 0.0 0.0 -1.0
outer loop
vertex 6.76943397522 4.03879547119 15.1459999084
vertex 6.77286815643 4.08867740631 15.1459999084
vertex 9.84187984467 3.77436470985 15.1459999084
endloop
endfacet
facet normal 0.0 0.0 -1.0
outer loop
vertex 9.84187984467 3.77436470985 15.1459999084
vertex 6.77286815643 4.08867740631 15.1459999084
vertex 9.84701919556 3.82409977913 15.1459999084
endloop
endfacet
facet normal 0.0 0.0 -1.0
outer loop
vertex 3.68973660469 4.19788694382 15.1459999084
vertex 3.69146084785 4.24785709381 15.1459999084
vertex 6.76943397522 4.03879547119 15.1459999084
endloop
endfacet
facet normal 0.0 0.0 -1.0
outer loop
vertex 6.76943397522 4.03879547119 15.1459999084
vertex 3.69146084785 4.24785709381 15.1459999084
vertex 6.77286815643 4.08867740631 15.1459999084
endloop
endfacet
facet normal 0.0 0.0 -1.0
outer loop
vertex 0.606397867203 4.25145244598 15.1459999084
vertex 0.606410384178 4.30145263672 15.1459999084
vertex 3.68973660469 4.19788694382 15.1459999084
endloop
endfacet
facet normal 0.0 0.0 -1.0
outer loop
vertex 3.68973660469 4.19788694382 15.1459999084
vertex 0.606410384178 4.30145263672 15.1459999084
vertex 3.69146084785 4.24785709381 15.1459999084
endloop
endfacet
facet normal 0.0 0.0 1.0
outer loop
vertex 6.76943397522 4.03879547119 15.1659994125
vertex 9.84187984467 3.77436470985 15.1659994125
vertex 9.84701919556 3.82409977913 15.1659994125
endloop
endfacet
facet normal 0.0 0.0 1.0
outer loop
vertex 6.77286815643 4.08867740631 15.1659994125
vertex 6.76943397522 4.03879547119 15.1659994125
vertex 9.84701919556 3.82409977913 15.1659994125
endloop
endfacet
facet normal 0.0 0.0 1.0
outer loop
vertex 3.68973660469 4.19788694382 15.1659994125
vertex 6.76943397522 4.03879547119 15.1659994125
vertex 6.77286815643 4.08867740631 15.1659994125
endloop
endfacet
facet normal 0.0 0.0 1.0
outer loop
vertex 3.69146084785 4.24785709381 15.1659994125
vertex 3.68973660469 4.19788694382 15.1659994125
vertex 6.77286815643 4.08867740631 15.1659994125
endloop
endfacet
facet normal 0.0 0.0 1.0
outer loop
vertex 0.606397867203 4.25145244598 15.1659994125
vertex 3.68973660469 4.19788694382 15.1659994125
vertex 3.69146084785 4.24785709381 15.1659994125
endloop
endfacet
facet normal 0.0 0.0 1.0
outer loop
vertex 0.606410384178 4.30145263672 15.1659994125
vertex 0.606397867203 4.25145244598 15.1659994125
vertex 3.69146084785 4.24785709381 15.1659994125
endloop
endfacet
