solid 
facet normal 0.119806870818 0.992797255516 0.0
outer loop
vertex 12.9103364944 3.45443153381 -153.022994995
vertex 9.84704399109 3.82409763336 -153.022994995
vertex 9.84704399109 3.82409763336 -153.002990723
endloop
endfacet
facet normal 0.119806870818 0.992797255516 -0.0
outer loop
vertex 12.9103364944 3.45443153381 -153.022994995
vertex 9.84704399109 3.82409763336 -153.002990723
vertex 12.9103364944 3.45443153381 -153.002990723
endloop
endfacet
facet normal 0.153724819422 0.988113641739 -0.0
outer loop
vertex 15.9591770172 2.98011112213 -153.022994995
vertex 12.9103364944 3.45443153381 -153.002990723
vertex 15.9591770172 2.98011112213 -153.002990723
endloop
endfacet
facet normal 0.187462568283 0.982271790504 -0.0
outer loop
vertex 15.9591770172 2.98011112213 -153.022994995
vertex 15.9591770172 2.98011112213 -153.002990723
vertex 18.9899921417 2.40169239044 -153.002990723
endloop
endfacet
facet normal 0.153724819422 0.988113641739 0.0
outer loop
vertex 15.9591770172 2.98011112213 -153.022994995
vertex 12.9103364944 3.45443153381 -153.022994995
vertex 12.9103364944 3.45443153381 -153.002990723
endloop
endfacet
facet normal 0.187462568283 0.982271790504 -0.0
outer loop
vertex 18.9899921417 2.40169239044 -153.022994995
vertex 15.9591770172 2.98011112213 -153.022994995
vertex 18.9899921417 2.40169239044 -153.002990723
endloop
endfacet
facet normal 0.97891330719 -0.204276025295 0.0
outer loop
vertex 18.9797782898 2.35274648666 -153.002990723
vertex 18.9899921417 2.40169239044 -153.022994995
vertex 18.9899921417 2.40169239044 -153.002990723
endloop
endfacet
facet normal 0.97891330719 -0.204276025295 0.0
outer loop
vertex 18.9797782898 2.35274648666 -153.022994995
vertex 18.9899921417 2.40169239044 -153.022994995
vertex 18.9797782898 2.35274648666 -153.002990723
endloop
endfacet
facet normal -0.119806922972 -0.992797195911 0.0
outer loop
vertex 9.8419046402 3.77436256409 -153.002990723
vertex 12.9034967422 3.40490150452 -153.022994995
vertex 12.9034967422 3.40490150452 -153.002990723
endloop
endfacet
facet normal -0.153724908829 -0.988113701344 -0.0
outer loop
vertex 12.9034967422 3.40490150452 -153.002990723
vertex 12.9034967422 3.40490150452 -153.022994995
vertex 15.9506454468 2.93084406853 -153.002990723
endloop
endfacet
facet normal -0.119806922972 -0.992797195911 0.0
outer loop
vertex 9.8419046402 3.77436256409 -153.022994995
vertex 12.9034967422 3.40490150452 -153.022994995
vertex 9.8419046402 3.77436256409 -153.002990723
endloop
endfacet
facet normal -0.153724908829 -0.988113701344 0.0
outer loop
vertex 12.9034967422 3.40490150452 -153.022994995
vertex 15.9506454468 2.93084406853 -153.022994995
vertex 15.9506454468 2.93084406853 -153.002990723
endloop
endfacet
facet normal -0.187462538481 -0.982271790504 0.0
outer loop
vertex 15.9506454468 2.93084406853 -153.002990723
vertex 18.9797782898 2.35274648666 -153.022994995
vertex 18.9797782898 2.35274648666 -153.002990723
endloop
endfacet
facet normal -0.187462538481 -0.982271790504 0.0
outer loop
vertex 15.9506454468 2.93084406853 -153.022994995
vertex 18.9797782898 2.35274648666 -153.022994995
vertex 15.9506454468 2.93084406853 -153.002990723
endloop
endfacet
facet normal -0.994703412056 0.102787226439 0.0
outer loop
vertex 9.84704399109 3.82409763336 -153.002990723
vertex 9.8419046402 3.77436256409 -153.022994995
vertex 9.8419046402 3.77436256409 -153.002990723
endloop
endfacet
facet normal -0.994703412056 0.102787226439 0.0
outer loop
vertex 9.84704399109 3.82409763336 -153.022994995
vertex 9.8419046402 3.77436256409 -153.022994995
vertex 9.84704399109 3.82409763336 -153.002990723
endloop
endfacet
facet normal 0.0 0.0 -1.0
outer loop
vertex 18.9797782898 2.35274648666 -153.022994995
vertex 15.9506454468 2.93084406853 -153.022994995
vertex 18.9899921417 2.40169239044 -153.022994995
endloop
endfacet
facet normal 0.0 0.0 -1.0
outer loop
vertex 15.9506454468 2.93084406853 -153.022994995
vertex 15.9591770172 2.98011112213 -153.022994995
vertex 18.9899921417 2.40169239044 -153.022994995
endloop
endfacet
facet normal 0.0 0.0 -1.0
outer loop
vertex 15.9506454468 2.93084406853 -153.022994995
vertex 12.9034967422 3.40490150452 -153.022994995
vertex 15.9591770172 2.98011112213 -153.022994995
endloop
endfacet
facet normal 0.0 0.0 -1.0
outer loop
vertex 12.9034967422 3.40490150452 -153.022994995
vertex 12.9103364944 3.45443153381 -153.022994995
vertex 15.9591770172 2.98011112213 -153.022994995
endloop
endfacet
facet normal 0.0 0.0 -1.0
outer loop
vertex 12.9034967422 3.40490150452 -153.022994995
vertex 9.8419046402 3.77436256409 -153.022994995
vertex 12.9103364944 3.45443153381 -153.022994995
endloop
endfacet
facet normal 0.0 0.0 -1.0
outer loop
vertex 9.8419046402 3.77436256409 -153.022994995
vertex 9.84704399109 3.82409763336 -153.022994995
vertex 12.9103364944 3.45443153381 -153.022994995
endloop
endfacet
facet normal 0.0 0.0 1.0
outer loop
vertex 15.9591770172 2.98011112213 -153.002990723
vertex 15.9506454468 2.93084406853 -153.002990723
vertex 18.9797782898 2.35274648666 -153.002990723
endloop
endfacet
facet normal 0.0 0.0 1.0
outer loop
vertex 15.9591770172 2.98011112213 -153.002990723
vertex 18.9797782898 2.35274648666 -153.002990723
vertex 18.9899921417 2.40169239044 -153.002990723
endloop
endfacet
facet normal 0.0 0.0 1.0
outer loop
vertex 12.9103364944 3.45443153381 -153.002990723
vertex 12.9034967422 3.40490150452 -153.002990723
vertex 15.9506454468 2.93084406853 -153.002990723
endloop
endfacet
facet normal 0.0 0.0 1.0
outer loop
vertex 12.9103364944 3.45443153381 -153.002990723
vertex 15.9506454468 2.93084406853 -153.002990723
vertex 15.9591770172 2.98011112213 -153.002990723
endloop
endfacet
facet normal 0.0 0.0 1.0
outer loop
vertex 9.84704399109 3.82409763336 -153.002990723
vertex 9.8419046402 3.77436256409 -153.002990723
vertex 12.9034967422 3.40490150452 -153.002990723
endloop
endfacet
facet normal 0.0 0.0 1.0
outer loop
vertex 9.84704399109 3.82409763336 -153.002990723
vertex 12.9034967422 3.40490150452 -153.002990723
vertex 12.9103364944 3.45443153381 -153.002990723
endloop
endfacet
