solid 
facet normal 0.0173701997846 -0.999849200249 0.0
outer loop
vertex 3.69147634506 -4.24785709381 -70.7200012207
vertex 0.606426000595 -4.30145311356 -70.7200012207
vertex 0.606426000595 -4.30145311356 -70.7399978638
endloop
endfacet
facet normal 0.0173701997846 -0.999849200249 0.0
outer loop
vertex 3.69147634506 -4.24785709381 -70.7200012207
vertex 0.606426000595 -4.30145311356 -70.7399978638
vertex 3.69147634506 -4.24785709381 -70.7399978638
endloop
endfacet
facet normal 0.0515894815326 -0.998668372631 0.0
outer loop
vertex 6.77288341522 -4.08867692947 -70.7200012207
vertex 3.69147634506 -4.24785709381 -70.7399978638
vertex 6.77288341522 -4.08867692947 -70.7399978638
endloop
endfacet
facet normal 0.0857484713197 -0.996316790581 0.0
outer loop
vertex 6.77288341522 -4.08867692947 -70.7200012207
vertex 6.77288341522 -4.08867692947 -70.7399978638
vertex 9.84703540802 -3.82409858704 -70.7399978638
endloop
endfacet
facet normal 0.0515894815326 -0.998668372631 0.0
outer loop
vertex 6.77288341522 -4.08867692947 -70.7200012207
vertex 3.69147634506 -4.24785709381 -70.7200012207
vertex 3.69147634506 -4.24785709381 -70.7399978638
endloop
endfacet
facet normal 0.0857484713197 -0.996316790581 0.0
outer loop
vertex 9.84703540802 -3.82409858704 -70.7200012207
vertex 6.77288341522 -4.08867692947 -70.7200012207
vertex 9.84703540802 -3.82409858704 -70.7399978638
endloop
endfacet
facet normal 0.994701385498 0.102806091309 0.0
outer loop
vertex 9.84189510345 -3.77436351776 -70.7399978638
vertex 9.84703540802 -3.82409858704 -70.7200012207
vertex 9.84703540802 -3.82409858704 -70.7399978638
endloop
endfacet
facet normal 0.994701385498 0.102806091309 0.0
outer loop
vertex 9.84189510345 -3.77436351776 -70.7200012207
vertex 9.84703540802 -3.82409858704 -70.7200012207
vertex 9.84189510345 -3.77436351776 -70.7399978638
endloop
endfacet
facet normal -0.0173702538013 0.999849140644 0.0
outer loop
vertex 0.60641348362 -4.25145339966 -70.7399978638
vertex 0.60641348362 -4.25145339966 -70.7200012207
vertex 3.6897521019 -4.19788694382 -70.7399978638
endloop
endfacet
facet normal -0.0173702538013 0.999849140644 0.0
outer loop
vertex 0.60641348362 -4.25145339966 -70.7200012207
vertex 3.6897521019 -4.19788694382 -70.7200012207
vertex 3.6897521019 -4.19788694382 -70.7399978638
endloop
endfacet
facet normal -0.0515895150602 0.998668372631 0.0
outer loop
vertex 3.6897521019 -4.19788694382 -70.7399978638
vertex 6.76944971085 -4.03879499435 -70.7200012207
vertex 6.76944971085 -4.03879499435 -70.7399978638
endloop
endfacet
facet normal -0.0515895150602 0.998668372631 0.0
outer loop
vertex 3.6897521019 -4.19788694382 -70.7200012207
vertex 6.76944971085 -4.03879499435 -70.7200012207
vertex 3.6897521019 -4.19788694382 -70.7399978638
endloop
endfacet
facet normal -0.0857484787703 0.996316790581 0.0
outer loop
vertex 6.76944971085 -4.03879499435 -70.7399978638
vertex 9.84189510345 -3.77436351776 -70.7200012207
vertex 9.84189510345 -3.77436351776 -70.7399978638
endloop
endfacet
facet normal -0.0857484787703 0.996316790581 0.0
outer loop
vertex 6.76944971085 -4.03879499435 -70.7200012207
vertex 9.84189510345 -3.77436351776 -70.7200012207
vertex 6.76944971085 -4.03879499435 -70.7399978638
endloop
endfacet
facet normal -0.999999880791 -0.000250340905041 0.0
outer loop
vertex 0.606426000595 -4.30145311356 -70.7399978638
vertex 0.60641348362 -4.25145339966 -70.7200012207
vertex 0.60641348362 -4.25145339966 -70.7399978638
endloop
endfacet
facet normal -0.999999880791 -0.000250340905041 -0.0
outer loop
vertex 0.606426000595 -4.30145311356 -70.7200012207
vertex 0.60641348362 -4.25145339966 -70.7200012207
vertex 0.606426000595 -4.30145311356 -70.7399978638
endloop
endfacet
facet normal 0.0 0.0 1.0
outer loop
vertex 9.84189510345 -3.77436351776 -70.7200012207
vertex 6.76944971085 -4.03879499435 -70.7200012207
vertex 9.84703540802 -3.82409858704 -70.7200012207
endloop
endfacet
facet normal -0.0 0.0 1.0
outer loop
vertex 6.76944971085 -4.03879499435 -70.7200012207
vertex 6.77288341522 -4.08867692947 -70.7200012207
vertex 9.84703540802 -3.82409858704 -70.7200012207
endloop
endfacet
facet normal 0.0 0.0 1.0
outer loop
vertex 6.76944971085 -4.03879499435 -70.7200012207
vertex 3.6897521019 -4.19788694382 -70.7200012207
vertex 6.77288341522 -4.08867692947 -70.7200012207
endloop
endfacet
facet normal -0.0 0.0 1.0
outer loop
vertex 3.6897521019 -4.19788694382 -70.7200012207
vertex 3.69147634506 -4.24785709381 -70.7200012207
vertex 6.77288341522 -4.08867692947 -70.7200012207
endloop
endfacet
facet normal 0.0 0.0 1.0
outer loop
vertex 3.6897521019 -4.19788694382 -70.7200012207
vertex 0.60641348362 -4.25145339966 -70.7200012207
vertex 3.69147634506 -4.24785709381 -70.7200012207
endloop
endfacet
facet normal -0.0 0.0 1.0
outer loop
vertex 0.60641348362 -4.25145339966 -70.7200012207
vertex 0.606426000595 -4.30145311356 -70.7200012207
vertex 3.69147634506 -4.24785709381 -70.7200012207
endloop
endfacet
facet normal 0.0 0.0 -1.0
outer loop
vertex 6.76944971085 -4.03879499435 -70.7399978638
vertex 9.84189510345 -3.77436351776 -70.7399978638
vertex 9.84703540802 -3.82409858704 -70.7399978638
endloop
endfacet
facet normal 0.0 0.0 -1.0
outer loop
vertex 6.77288341522 -4.08867692947 -70.7399978638
vertex 6.76944971085 -4.03879499435 -70.7399978638
vertex 9.84703540802 -3.82409858704 -70.7399978638
endloop
endfacet
facet normal 0.0 0.0 -1.0
outer loop
vertex 3.69147634506 -4.24785709381 -70.7399978638
vertex 3.6897521019 -4.19788694382 -70.7399978638
vertex 6.76944971085 -4.03879499435 -70.7399978638
endloop
endfacet
facet normal 0.0 0.0 -1.0
outer loop
vertex 3.69147634506 -4.24785709381 -70.7399978638
vertex 6.76944971085 -4.03879499435 -70.7399978638
vertex 6.77288341522 -4.08867692947 -70.7399978638
endloop
endfacet
facet normal 0.0 0.0 -1.0
outer loop
vertex 0.606426000595 -4.30145311356 -70.7399978638
vertex 0.60641348362 -4.25145339966 -70.7399978638
vertex 3.6897521019 -4.19788694382 -70.7399978638
endloop
endfacet
facet normal 0.0 0.0 -1.0
outer loop
vertex 0.606426000595 -4.30145311356 -70.7399978638
vertex 3.6897521019 -4.19788694382 -70.7399978638
vertex 3.69147634506 -4.24785709381 -70.7399978638
endloop
endfacet
