solid 
facet normal -0.119806818664 -0.992797195911 0.0
outer loop
vertex -9.84703540802 -3.82409882545 -63.4980010986
vertex -9.84703540802 -3.82409882545 -63.4780006409
vertex -12.9103269577 -3.45443296432 -63.4780006409
endloop
endfacet
facet normal -0.153724744916 -0.988113701344 0.0
outer loop
vertex -12.9103269577 -3.45443296432 -63.4980010986
vertex -12.9103269577 -3.45443296432 -63.4780006409
vertex -15.9591674805 -2.98011279106 -63.4780006409
endloop
endfacet
facet normal -0.119806818664 -0.992797195911 0.0
outer loop
vertex -12.9103269577 -3.45443296432 -63.4980010986
vertex -9.84703540802 -3.82409882545 -63.4980010986
vertex -12.9103269577 -3.45443296432 -63.4780006409
endloop
endfacet
facet normal -0.187462493777 -0.982271790504 0.0
outer loop
vertex -15.9591674805 -2.98011279106 -63.4980010986
vertex -15.9591674805 -2.98011279106 -63.4780006409
vertex -18.989982605 -2.40169429779 -63.4780006409
endloop
endfacet
facet normal -0.153724744916 -0.988113701344 0.0
outer loop
vertex -15.9591674805 -2.98011279106 -63.4980010986
vertex -12.9103269577 -3.45443296432 -63.4980010986
vertex -15.9591674805 -2.98011279106 -63.4780006409
endloop
endfacet
facet normal -0.187462493777 -0.982271790504 0.0
outer loop
vertex -18.989982605 -2.40169429779 -63.4980010986
vertex -15.9591674805 -2.98011279106 -63.4980010986
vertex -18.989982605 -2.40169429779 -63.4780006409
endloop
endfacet
facet normal -0.978920996189 0.204239487648 0.0
outer loop
vertex -18.989982605 -2.40169429779 -63.4780006409
vertex -18.9797706604 -2.35274839401 -63.4980010986
vertex -18.989982605 -2.40169429779 -63.4980010986
endloop
endfacet
facet normal -0.978920996189 0.204239487648 0.0
outer loop
vertex -18.989982605 -2.40169429779 -63.4780006409
vertex -18.9797706604 -2.35274839401 -63.4780006409
vertex -18.9797706604 -2.35274839401 -63.4980010986
endloop
endfacet
facet normal 0.119806759059 0.992797255516 0.0
outer loop
vertex -9.84189605713 -3.77436351776 -63.4780006409
vertex -12.9034881592 -3.40490293503 -63.4980010986
vertex -12.9034881592 -3.40490293503 -63.4780006409
endloop
endfacet
facet normal 0.153724834323 0.988113701344 0.0
outer loop
vertex -12.9034881592 -3.40490293503 -63.4780006409
vertex -12.9034881592 -3.40490293503 -63.4980010986
vertex -15.9506368637 -2.93084573746 -63.4780006409
endloop
endfacet
facet normal 0.119806759059 0.992797255516 -0.0
outer loop
vertex -9.84189605713 -3.77436351776 -63.4980010986
vertex -12.9034881592 -3.40490293503 -63.4980010986
vertex -9.84189605713 -3.77436351776 -63.4780006409
endloop
endfacet
facet normal 0.18746240437 0.982271790504 0.0
outer loop
vertex -15.9506368637 -2.93084573746 -63.4780006409
vertex -15.9506368637 -2.93084573746 -63.4980010986
vertex -18.9797706604 -2.35274839401 -63.4780006409
endloop
endfacet
facet normal 0.153724834323 0.988113701344 0.0
outer loop
vertex -12.9034881592 -3.40490293503 -63.4980010986
vertex -15.9506368637 -2.93084573746 -63.4980010986
vertex -15.9506368637 -2.93084573746 -63.4780006409
endloop
endfacet
facet normal 0.18746240437 0.982271790504 0.0
outer loop
vertex -15.9506368637 -2.93084573746 -63.4980010986
vertex -18.9797706604 -2.35274839401 -63.4980010986
vertex -18.9797706604 -2.35274839401 -63.4780006409
endloop
endfacet
facet normal 0.994703471661 -0.102786749601 0.0
outer loop
vertex -9.84189605713 -3.77436351776 -63.4980010986
vertex -9.84703540802 -3.82409882545 -63.4780006409
vertex -9.84703540802 -3.82409882545 -63.4980010986
endloop
endfacet
facet normal 0.994703471661 -0.102786749601 0.0
outer loop
vertex -9.84189605713 -3.77436351776 -63.4780006409
vertex -9.84703540802 -3.82409882545 -63.4780006409
vertex -9.84189605713 -3.77436351776 -63.4980010986
endloop
endfacet
facet normal 0.0 0.0 1.0
outer loop
vertex -15.9506368637 -2.93084573746 -63.4780006409
vertex -18.9797706604 -2.35274839401 -63.4780006409
vertex -18.989982605 -2.40169429779 -63.4780006409
endloop
endfacet
facet normal 0.0 -0.0 1.0
outer loop
vertex -15.9591674805 -2.98011279106 -63.4780006409
vertex -15.9506368637 -2.93084573746 -63.4780006409
vertex -18.989982605 -2.40169429779 -63.4780006409
endloop
endfacet
facet normal 0.0 0.0 1.0
outer loop
vertex -12.9034881592 -3.40490293503 -63.4780006409
vertex -15.9506368637 -2.93084573746 -63.4780006409
vertex -15.9591674805 -2.98011279106 -63.4780006409
endloop
endfacet
facet normal 0.0 -0.0 1.0
outer loop
vertex -12.9103269577 -3.45443296432 -63.4780006409
vertex -12.9034881592 -3.40490293503 -63.4780006409
vertex -15.9591674805 -2.98011279106 -63.4780006409
endloop
endfacet
facet normal 0.0 0.0 1.0
outer loop
vertex -9.84189605713 -3.77436351776 -63.4780006409
vertex -12.9034881592 -3.40490293503 -63.4780006409
vertex -12.9103269577 -3.45443296432 -63.4780006409
endloop
endfacet
facet normal 0.0 -0.0 1.0
outer loop
vertex -9.84703540802 -3.82409882545 -63.4780006409
vertex -9.84189605713 -3.77436351776 -63.4780006409
vertex -12.9103269577 -3.45443296432 -63.4780006409
endloop
endfacet
facet normal 0.0 -0.0 -1.0
outer loop
vertex -18.9797706604 -2.35274839401 -63.4980010986
vertex -15.9506368637 -2.93084573746 -63.4980010986
vertex -18.989982605 -2.40169429779 -63.4980010986
endloop
endfacet
facet normal -0.0 0.0 -1.0
outer loop
vertex -15.9506368637 -2.93084573746 -63.4980010986
vertex -15.9591674805 -2.98011279106 -63.4980010986
vertex -18.989982605 -2.40169429779 -63.4980010986
endloop
endfacet
facet normal 0.0 -0.0 -1.0
outer loop
vertex -15.9506368637 -2.93084573746 -63.4980010986
vertex -12.9034881592 -3.40490293503 -63.4980010986
vertex -15.9591674805 -2.98011279106 -63.4980010986
endloop
endfacet
facet normal -0.0 0.0 -1.0
outer loop
vertex -12.9034881592 -3.40490293503 -63.4980010986
vertex -12.9103269577 -3.45443296432 -63.4980010986
vertex -15.9591674805 -2.98011279106 -63.4980010986
endloop
endfacet
facet normal -0.0 0.0 -1.0
outer loop
vertex -9.84189605713 -3.77436351776 -63.4980010986
vertex -9.84703540802 -3.82409882545 -63.4980010986
vertex -12.9034881592 -3.40490293503 -63.4980010986
endloop
endfacet
facet normal 0.0 -0.0 -1.0
outer loop
vertex -12.9034881592 -3.40490293503 -63.4980010986
vertex -9.84703540802 -3.82409882545 -63.4980010986
vertex -12.9103269577 -3.45443296432 -63.4980010986
endloop
endfacet
