solid 
facet normal -0.119806975126 0.992797195911 0.0
outer loop
vertex -9.84704589844 3.82409763336 101.830001831
vertex -9.84704589844 3.82409763336 101.810005188
vertex -12.9103374481 3.45443129539 101.810005188
endloop
endfacet
facet normal -0.153724908829 0.988113701344 0.0
outer loop
vertex -12.9103374481 3.45443129539 101.830001831
vertex -12.9103374481 3.45443129539 101.810005188
vertex -15.9591779709 2.98011064529 101.810005188
endloop
endfacet
facet normal -0.119806975126 0.992797195911 0.0
outer loop
vertex -12.9103374481 3.45443129539 101.830001831
vertex -9.84704589844 3.82409763336 101.830001831
vertex -12.9103374481 3.45443129539 101.810005188
endloop
endfacet
facet normal -0.187462508678 0.9822717309 0.0
outer loop
vertex -15.9591779709 2.98011064529 101.830001831
vertex -15.9591779709 2.98011064529 101.810005188
vertex -18.9899940491 2.4016919136 101.810005188
endloop
endfacet
facet normal -0.153724908829 0.988113701344 0.0
outer loop
vertex -15.9591779709 2.98011064529 101.830001831
vertex -12.9103374481 3.45443129539 101.830001831
vertex -15.9591779709 2.98011064529 101.810005188
endloop
endfacet
facet normal -0.187462508678 0.9822717309 0.0
outer loop
vertex -18.9899940491 2.4016919136 101.830001831
vertex -15.9591779709 2.98011064529 101.830001831
vertex -18.9899940491 2.4016919136 101.810005188
endloop
endfacet
facet normal -0.97891330719 -0.204276040196 0.0
outer loop
vertex -18.9899940491 2.4016919136 101.810005188
vertex -18.9797801971 2.35274600983 101.830001831
vertex -18.9899940491 2.4016919136 101.830001831
endloop
endfacet
facet normal -0.97891330719 -0.204276040196 0.0
outer loop
vertex -18.9899940491 2.4016919136 101.810005188
vertex -18.9797801971 2.35274600983 101.810005188
vertex -18.9797801971 2.35274600983 101.830001831
endloop
endfacet
facet normal 0.119806982577 -0.992797195911 0.0
outer loop
vertex -9.84190654755 3.77436256409 101.810005188
vertex -12.9034986496 3.4049012661 101.830001831
vertex -12.9034986496 3.4049012661 101.810005188
endloop
endfacet
facet normal 0.153724908829 -0.988113701344 0.0
outer loop
vertex -12.9034986496 3.4049012661 101.810005188
vertex -12.9034986496 3.4049012661 101.830001831
vertex -15.9506473541 2.93084383011 101.810005188
endloop
endfacet
facet normal 0.119806982577 -0.992797195911 0.0
outer loop
vertex -9.84190654755 3.77436256409 101.830001831
vertex -12.9034986496 3.4049012661 101.830001831
vertex -9.84190654755 3.77436256409 101.810005188
endloop
endfacet
facet normal 0.187462612987 -0.982271790504 0.0
outer loop
vertex -15.9506473541 2.93084383011 101.810005188
vertex -15.9506473541 2.93084383011 101.830001831
vertex -18.9797801971 2.35274600983 101.810005188
endloop
endfacet
facet normal 0.153724908829 -0.988113701344 0.0
outer loop
vertex -12.9034986496 3.4049012661 101.830001831
vertex -15.9506473541 2.93084383011 101.830001831
vertex -15.9506473541 2.93084383011 101.810005188
endloop
endfacet
facet normal 0.187462612987 -0.982271790504 0.0
outer loop
vertex -15.9506473541 2.93084383011 101.830001831
vertex -18.9797801971 2.35274600983 101.830001831
vertex -18.9797801971 2.35274600983 101.810005188
endloop
endfacet
facet normal 0.994703352451 0.102787218988 0.0
outer loop
vertex -9.84190654755 3.77436256409 101.830001831
vertex -9.84704589844 3.82409763336 101.810005188
vertex -9.84704589844 3.82409763336 101.830001831
endloop
endfacet
facet normal 0.994703352451 0.102787218988 -0.0
outer loop
vertex -9.84190654755 3.77436256409 101.810005188
vertex -9.84704589844 3.82409763336 101.810005188
vertex -9.84190654755 3.77436256409 101.830001831
endloop
endfacet
facet normal 0.0 0.0 -1.0
outer loop
vertex -15.9506473541 2.93084383011 101.810005188
vertex -18.9797801971 2.35274600983 101.810005188
vertex -18.9899940491 2.4016919136 101.810005188
endloop
endfacet
facet normal 0.0 -0.0 -1.0
outer loop
vertex -15.9591779709 2.98011064529 101.810005188
vertex -15.9506473541 2.93084383011 101.810005188
vertex -18.9899940491 2.4016919136 101.810005188
endloop
endfacet
facet normal 0.0 0.0 -1.0
outer loop
vertex -12.9034986496 3.4049012661 101.810005188
vertex -15.9506473541 2.93084383011 101.810005188
vertex -15.9591779709 2.98011064529 101.810005188
endloop
endfacet
facet normal 0.0 -0.0 -1.0
outer loop
vertex -12.9103374481 3.45443129539 101.810005188
vertex -12.9034986496 3.4049012661 101.810005188
vertex -15.9591779709 2.98011064529 101.810005188
endloop
endfacet
facet normal 0.0 0.0 -1.0
outer loop
vertex -9.84190654755 3.77436256409 101.810005188
vertex -12.9034986496 3.4049012661 101.810005188
vertex -12.9103374481 3.45443129539 101.810005188
endloop
endfacet
facet normal 0.0 -0.0 -1.0
outer loop
vertex -9.84704589844 3.82409763336 101.810005188
vertex -9.84190654755 3.77436256409 101.810005188
vertex -12.9103374481 3.45443129539 101.810005188
endloop
endfacet
facet normal 0.0 -0.0 1.0
outer loop
vertex -18.9797801971 2.35274600983 101.830001831
vertex -15.9506473541 2.93084383011 101.830001831
vertex -18.9899940491 2.4016919136 101.830001831
endloop
endfacet
facet normal 0.0 0.0 1.0
outer loop
vertex -15.9506473541 2.93084383011 101.830001831
vertex -15.9591779709 2.98011064529 101.830001831
vertex -18.9899940491 2.4016919136 101.830001831
endloop
endfacet
facet normal 0.0 -0.0 1.0
outer loop
vertex -15.9506473541 2.93084383011 101.830001831
vertex -12.9034986496 3.4049012661 101.830001831
vertex -15.9591779709 2.98011064529 101.830001831
endloop
endfacet
facet normal 0.0 0.0 1.0
outer loop
vertex -12.9034986496 3.4049012661 101.830001831
vertex -12.9103374481 3.45443129539 101.830001831
vertex -15.9591779709 2.98011064529 101.830001831
endloop
endfacet
facet normal 0.0 0.0 1.0
outer loop
vertex -9.84190654755 3.77436256409 101.830001831
vertex -9.84704589844 3.82409763336 101.830001831
vertex -12.9034986496 3.4049012661 101.830001831
endloop
endfacet
facet normal 0.0 -0.0 1.0
outer loop
vertex -12.9034986496 3.4049012661 101.830001831
vertex -9.84704589844 3.82409763336 101.830001831
vertex -12.9103374481 3.45443129539 101.830001831
endloop
endfacet
