solid 
facet normal -0.0173703506589 -0.999849140644 0.0
outer loop
vertex -0.606437087059 -4.30145311356 -114.072006226
vertex -0.606437087059 -4.30145311356 -114.052001953
vertex -3.69148755074 -4.24785661697 -114.052001953
endloop
endfacet
facet normal -0.0515896305442 -0.998668313026 0.0
outer loop
vertex -3.69148755074 -4.24785661697 -114.072006226
vertex -3.69148755074 -4.24785661697 -114.052001953
vertex -6.77289485931 -4.0886759758 -114.052001953
endloop
endfacet
facet normal -0.0173703506589 -0.999849140644 0.0
outer loop
vertex -3.69148755074 -4.24785661697 -114.072006226
vertex -0.606437087059 -4.30145311356 -114.072006226
vertex -3.69148755074 -4.24785661697 -114.052001953
endloop
endfacet
facet normal -0.0515896305442 -0.998668313026 0.0
outer loop
vertex -6.77289485931 -4.0886759758 -114.072006226
vertex -3.69148755074 -4.24785661697 -114.072006226
vertex -6.77289485931 -4.0886759758 -114.052001953
endloop
endfacet
facet normal -0.0857486575842 -0.996316790581 0.0
outer loop
vertex -9.84704589844 -3.82409715652 -114.072006226
vertex -6.77289485931 -4.0886759758 -114.052001953
vertex -9.84704589844 -3.82409715652 -114.052001953
endloop
endfacet
facet normal -0.0857486575842 -0.996316790581 0.0
outer loop
vertex -9.84704589844 -3.82409715652 -114.072006226
vertex -6.77289485931 -4.0886759758 -114.072006226
vertex -6.77289485931 -4.0886759758 -114.052001953
endloop
endfacet
facet normal -0.994703412056 0.102787226439 0.0
outer loop
vertex -9.84704589844 -3.82409715652 -114.072006226
vertex -9.84190654755 -3.77436208725 -114.052001953
vertex -9.84190654755 -3.77436208725 -114.072006226
endloop
endfacet
facet normal -0.994703412056 0.102787226439 0.0
outer loop
vertex -9.84704589844 -3.82409715652 -114.052001953
vertex -9.84190654755 -3.77436208725 -114.052001953
vertex -9.84704589844 -3.82409715652 -114.072006226
endloop
endfacet
facet normal 0.0173704084009 0.999849140644 0.0
outer loop
vertex -0.606424570084 -4.25145339966 -114.052001953
vertex -3.68976330757 -4.19788646698 -114.072006226
vertex -3.68976330757 -4.19788646698 -114.052001953
endloop
endfacet
facet normal 0.0173704084009 0.999849140644 -0.0
outer loop
vertex -0.606424570084 -4.25145339966 -114.072006226
vertex -3.68976330757 -4.19788646698 -114.072006226
vertex -0.606424570084 -4.25145339966 -114.052001953
endloop
endfacet
facet normal 0.0515896752477 0.998668372631 0.0
outer loop
vertex -3.68976330757 -4.19788646698 -114.052001953
vertex -6.7694606781 -4.03879404068 -114.072006226
vertex -6.7694606781 -4.03879404068 -114.052001953
endloop
endfacet
facet normal 0.0857486203313 0.996316790581 0.0
outer loop
vertex -6.7694606781 -4.03879404068 -114.052001953
vertex -6.7694606781 -4.03879404068 -114.072006226
vertex -9.84190654755 -3.77436208725 -114.052001953
endloop
endfacet
facet normal 0.0515896752477 0.998668372631 -0.0
outer loop
vertex -3.68976330757 -4.19788646698 -114.072006226
vertex -6.7694606781 -4.03879404068 -114.072006226
vertex -3.68976330757 -4.19788646698 -114.052001953
endloop
endfacet
facet normal 0.0857486203313 0.996316790581 0.0
outer loop
vertex -6.7694606781 -4.03879404068 -114.072006226
vertex -9.84190654755 -3.77436208725 -114.072006226
vertex -9.84190654755 -3.77436208725 -114.052001953
endloop
endfacet
facet normal 0.999999880791 -0.000250340934144 0.0
outer loop
vertex -0.606424570084 -4.25145339966 -114.072006226
vertex -0.606437087059 -4.30145311356 -114.052001953
vertex -0.606437087059 -4.30145311356 -114.072006226
endloop
endfacet
facet normal 0.999999880791 -0.000250340934144 0.0
outer loop
vertex -0.606424570084 -4.25145339966 -114.052001953
vertex -0.606437087059 -4.30145311356 -114.052001953
vertex -0.606424570084 -4.25145339966 -114.072006226
endloop
endfacet
facet normal 0.0 0.0 1.0
outer loop
vertex -6.7694606781 -4.03879404068 -114.052001953
vertex -9.84190654755 -3.77436208725 -114.052001953
vertex -9.84704589844 -3.82409715652 -114.052001953
endloop
endfacet
facet normal 0.0 -0.0 1.0
outer loop
vertex -6.77289485931 -4.0886759758 -114.052001953
vertex -6.7694606781 -4.03879404068 -114.052001953
vertex -9.84704589844 -3.82409715652 -114.052001953
endloop
endfacet
facet normal 0.0 0.0 1.0
outer loop
vertex -3.68976330757 -4.19788646698 -114.052001953
vertex -6.7694606781 -4.03879404068 -114.052001953
vertex -6.77289485931 -4.0886759758 -114.052001953
endloop
endfacet
facet normal 0.0 -0.0 1.0
outer loop
vertex -3.69148755074 -4.24785661697 -114.052001953
vertex -3.68976330757 -4.19788646698 -114.052001953
vertex -6.77289485931 -4.0886759758 -114.052001953
endloop
endfacet
facet normal 0.0 0.0 1.0
outer loop
vertex -0.606424570084 -4.25145339966 -114.052001953
vertex -3.68976330757 -4.19788646698 -114.052001953
vertex -3.69148755074 -4.24785661697 -114.052001953
endloop
endfacet
facet normal 0.0 -0.0 1.0
outer loop
vertex -0.606437087059 -4.30145311356 -114.052001953
vertex -0.606424570084 -4.25145339966 -114.052001953
vertex -3.69148755074 -4.24785661697 -114.052001953
endloop
endfacet
facet normal -0.0 0.0 -1.0
outer loop
vertex -6.7694606781 -4.03879404068 -114.072006226
vertex -6.77289485931 -4.0886759758 -114.072006226
vertex -9.84190654755 -3.77436208725 -114.072006226
endloop
endfacet
facet normal 0.0 -0.0 -1.0
outer loop
vertex -9.84190654755 -3.77436208725 -114.072006226
vertex -6.77289485931 -4.0886759758 -114.072006226
vertex -9.84704589844 -3.82409715652 -114.072006226
endloop
endfacet
facet normal -0.0 0.0 -1.0
outer loop
vertex -3.68976330757 -4.19788646698 -114.072006226
vertex -3.69148755074 -4.24785661697 -114.072006226
vertex -6.7694606781 -4.03879404068 -114.072006226
endloop
endfacet
facet normal 0.0 -0.0 -1.0
outer loop
vertex -6.7694606781 -4.03879404068 -114.072006226
vertex -3.69148755074 -4.24785661697 -114.072006226
vertex -6.77289485931 -4.0886759758 -114.072006226
endloop
endfacet
facet normal -0.0 0.0 -1.0
outer loop
vertex -0.606424570084 -4.25145339966 -114.072006226
vertex -0.606437087059 -4.30145311356 -114.072006226
vertex -3.68976330757 -4.19788646698 -114.072006226
endloop
endfacet
facet normal 0.0 -0.0 -1.0
outer loop
vertex -3.68976330757 -4.19788646698 -114.072006226
vertex -0.606437087059 -4.30145311356 -114.072006226
vertex -3.69148755074 -4.24785661697 -114.072006226
endloop
endfacet
