solid 
facet normal 0.0173700433224 0.999849140644 0.0
outer loop
vertex 3.69146585464 4.24785757065 36.8120002747
vertex 0.606415450573 4.30145311356 36.8120002747
vertex 0.606415450573 4.30145311356 36.8320007324
endloop
endfacet
facet normal 0.0173700433224 0.999849140644 -0.0
outer loop
vertex 3.69146585464 4.24785757065 36.8120002747
vertex 0.606415450573 4.30145311356 36.8320007324
vertex 3.69146585464 4.24785757065 36.8320007324
endloop
endfacet
facet normal 0.0515894815326 0.998668372631 -0.0
outer loop
vertex 6.7728729248 4.08867740631 36.8120002747
vertex 3.69146585464 4.24785757065 36.8320007324
vertex 6.7728729248 4.08867740631 36.8320007324
endloop
endfacet
facet normal 0.0857483223081 0.996316850185 -0.0
outer loop
vertex 6.7728729248 4.08867740631 36.8120002747
vertex 6.7728729248 4.08867740631 36.8320007324
vertex 9.8470249176 3.82409954071 36.8320007324
endloop
endfacet
facet normal 0.0515894815326 0.998668372631 0.0
outer loop
vertex 6.7728729248 4.08867740631 36.8120002747
vertex 3.69146585464 4.24785757065 36.8120002747
vertex 3.69146585464 4.24785757065 36.8320007324
endloop
endfacet
facet normal 0.0857483223081 0.996316850185 -0.0
outer loop
vertex 9.8470249176 3.82409954071 36.8120002747
vertex 6.7728729248 4.08867740631 36.8120002747
vertex 9.8470249176 3.82409954071 36.8320007324
endloop
endfacet
facet normal 0.994701504707 -0.10280610621 0.0
outer loop
vertex 9.84188461304 3.77436447144 36.8120002747
vertex 9.8470249176 3.82409954071 36.8120002747
vertex 9.8470249176 3.82409954071 36.8320007324
endloop
endfacet
facet normal 0.994701504707 -0.10280610621 0.0
outer loop
vertex 9.84188461304 3.77436447144 36.8120002747
vertex 9.8470249176 3.82409954071 36.8320007324
vertex 9.84188461304 3.77436447144 36.8320007324
endloop
endfacet
facet normal -0.0173699446023 -0.999849140644 -0.0
outer loop
vertex 0.606402933598 4.25145292282 36.8320007324
vertex 0.606402933598 4.25145292282 36.8120002747
vertex 3.68974161148 4.19788742065 36.8320007324
endloop
endfacet
facet normal -0.0173699446023 -0.999849140644 0.0
outer loop
vertex 0.606402933598 4.25145292282 36.8120002747
vertex 3.68974161148 4.19788742065 36.8120002747
vertex 3.68974161148 4.19788742065 36.8320007324
endloop
endfacet
facet normal -0.0515895113349 -0.998668372631 0.0
outer loop
vertex 3.68974161148 4.19788742065 36.8320007324
vertex 6.76943922043 4.03879547119 36.8120002747
vertex 6.76943922043 4.03879547119 36.8320007324
endloop
endfacet
facet normal -0.0515895113349 -0.998668372631 0.0
outer loop
vertex 3.68974161148 4.19788742065 36.8120002747
vertex 6.76943922043 4.03879547119 36.8120002747
vertex 3.68974161148 4.19788742065 36.8320007324
endloop
endfacet
facet normal -0.0857483297586 -0.996316850185 0.0
outer loop
vertex 6.76943922043 4.03879547119 36.8320007324
vertex 9.84188461304 3.77436447144 36.8120002747
vertex 9.84188461304 3.77436447144 36.8320007324
endloop
endfacet
facet normal -0.0857483297586 -0.996316850185 0.0
outer loop
vertex 6.76943922043 4.03879547119 36.8120002747
vertex 9.84188461304 3.77436447144 36.8120002747
vertex 6.76943922043 4.03879547119 36.8320007324
endloop
endfacet
facet normal -0.999999880791 0.000250338518526 0.0
outer loop
vertex 0.606415450573 4.30145311356 36.8320007324
vertex 0.606402933598 4.25145292282 36.8120002747
vertex 0.606402933598 4.25145292282 36.8320007324
endloop
endfacet
facet normal -0.999999880791 0.000250338518526 0.0
outer loop
vertex 0.606415450573 4.30145311356 36.8120002747
vertex 0.606402933598 4.25145292282 36.8120002747
vertex 0.606415450573 4.30145311356 36.8320007324
endloop
endfacet
facet normal 0.0 0.0 -1.0
outer loop
vertex 6.76943922043 4.03879547119 36.8120002747
vertex 6.7728729248 4.08867740631 36.8120002747
vertex 9.84188461304 3.77436447144 36.8120002747
endloop
endfacet
facet normal 0.0 0.0 -1.0
outer loop
vertex 9.84188461304 3.77436447144 36.8120002747
vertex 6.7728729248 4.08867740631 36.8120002747
vertex 9.8470249176 3.82409954071 36.8120002747
endloop
endfacet
facet normal 0.0 0.0 -1.0
outer loop
vertex 3.68974161148 4.19788742065 36.8120002747
vertex 3.69146585464 4.24785757065 36.8120002747
vertex 6.76943922043 4.03879547119 36.8120002747
endloop
endfacet
facet normal 0.0 0.0 -1.0
outer loop
vertex 6.76943922043 4.03879547119 36.8120002747
vertex 3.69146585464 4.24785757065 36.8120002747
vertex 6.7728729248 4.08867740631 36.8120002747
endloop
endfacet
facet normal 0.0 0.0 -1.0
outer loop
vertex 0.606402933598 4.25145292282 36.8120002747
vertex 0.606415450573 4.30145311356 36.8120002747
vertex 3.68974161148 4.19788742065 36.8120002747
endloop
endfacet
facet normal 0.0 0.0 -1.0
outer loop
vertex 3.68974161148 4.19788742065 36.8120002747
vertex 0.606415450573 4.30145311356 36.8120002747
vertex 3.69146585464 4.24785757065 36.8120002747
endloop
endfacet
facet normal 0.0 0.0 1.0
outer loop
vertex 6.76943922043 4.03879547119 36.8320007324
vertex 9.84188461304 3.77436447144 36.8320007324
vertex 9.8470249176 3.82409954071 36.8320007324
endloop
endfacet
facet normal 0.0 0.0 1.0
outer loop
vertex 6.7728729248 4.08867740631 36.8320007324
vertex 6.76943922043 4.03879547119 36.8320007324
vertex 9.8470249176 3.82409954071 36.8320007324
endloop
endfacet
facet normal 0.0 0.0 1.0
outer loop
vertex 3.68974161148 4.19788742065 36.8320007324
vertex 6.76943922043 4.03879547119 36.8320007324
vertex 6.7728729248 4.08867740631 36.8320007324
endloop
endfacet
facet normal 0.0 0.0 1.0
outer loop
vertex 3.69146585464 4.24785757065 36.8320007324
vertex 3.68974161148 4.19788742065 36.8320007324
vertex 6.7728729248 4.08867740631 36.8320007324
endloop
endfacet
facet normal 0.0 0.0 1.0
outer loop
vertex 0.606402933598 4.25145292282 36.8320007324
vertex 3.68974161148 4.19788742065 36.8320007324
vertex 3.69146585464 4.24785757065 36.8320007324
endloop
endfacet
facet normal 0.0 0.0 1.0
outer loop
vertex 0.606415450573 4.30145311356 36.8320007324
vertex 0.606402933598 4.25145292282 36.8320007324
vertex 3.69146585464 4.24785757065 36.8320007324
endloop
endfacet
