solid 
facet normal -0.204613447189 0.9788428545 0.0
outer loop
vertex -18.9899806976 2.40169501305 40.483001709
vertex -18.9899806976 2.40169501305 36.8920021057
vertex -19.0552368164 2.38805413246 36.8920021057
endloop
endfacet
facet normal -0.205337613821 0.978691160679 0.0
outer loop
vertex -19.0552368164 2.38805413246 40.483001709
vertex -19.0552368164 2.38805413246 36.8920021057
vertex -19.1204833984 2.37436485291 36.8920021057
endloop
endfacet
facet normal -0.204613447189 0.9788428545 0.0
outer loop
vertex -19.0552368164 2.38805413246 40.483001709
vertex -18.9899806976 2.40169501305 40.483001709
vertex -19.0552368164 2.38805413246 36.8920021057
endloop
endfacet
facet normal -0.205337613821 0.978691160679 0.0
outer loop
vertex -19.1204833984 2.37436485291 40.483001709
vertex -19.0552368164 2.38805413246 40.483001709
vertex -19.1204833984 2.37436485291 36.8920021057
endloop
endfacet
facet normal -0.206064015627 0.978538513184 0.0
outer loop
vertex -19.1857185364 2.3606274128 40.483001709
vertex -19.1204833984 2.37436485291 36.8920021057
vertex -19.1857185364 2.3606274128 36.8920021057
endloop
endfacet
facet normal -0.206064015627 0.978538513184 0.0
outer loop
vertex -19.1857185364 2.3606274128 40.483001709
vertex -19.1204833984 2.37436485291 40.483001709
vertex -19.1204833984 2.37436485291 36.8920021057
endloop
endfacet
facet normal -0.978464722633 -0.206414192915 0.0
outer loop
vertex -19.1857185364 2.3606274128 40.483001709
vertex -19.1753978729 2.3117043972 36.8920021057
vertex -19.1753978729 2.3117043972 40.483001709
endloop
endfacet
facet normal -0.978464722633 -0.206414192915 0.0
outer loop
vertex -19.1857185364 2.3606274128 36.8920021057
vertex -19.1753978729 2.3117043972 36.8920021057
vertex -19.1857185364 2.3606274128 40.483001709
endloop
endfacet
facet normal 0.204612657428 -0.978843033314 -6.49544773523e-08
outer loop
vertex -18.9797687531 2.35274910927 36.8920021057
vertex -19.0449886322 2.33911561966 40.483001709
vertex -19.0449886322 2.33911585808 36.8920021057
endloop
endfacet
facet normal 0.205337241292 -0.978691279888 -6.49786144891e-08
outer loop
vertex -19.0449886322 2.33911585808 36.8920021057
vertex -19.0449886322 2.33911561966 40.483001709
vertex -19.1101989746 2.32543420792 36.8920021057
endloop
endfacet
facet normal 0.204616069794 -0.978842258453 0.0
outer loop
vertex -18.9797687531 2.35274910927 40.483001709
vertex -19.0449886322 2.33911561966 40.483001709
vertex -18.9797687531 2.35274910927 36.8920021057
endloop
endfacet
facet normal 0.205333814025 -0.978692054749 0.0
outer loop
vertex -19.0449886322 2.33911561966 40.483001709
vertex -19.1101989746 2.32543420792 40.483001709
vertex -19.1101989746 2.32543420792 36.8920021057
endloop
endfacet
facet normal 0.206064030528 -0.978538513184 0.0
outer loop
vertex -19.1101989746 2.32543420792 36.8920021057
vertex -19.1753978729 2.3117043972 40.483001709
vertex -19.1753978729 2.3117043972 36.8920021057
endloop
endfacet
facet normal 0.206064030528 -0.978538513184 0.0
outer loop
vertex -19.1101989746 2.32543420792 40.483001709
vertex -19.1753978729 2.3117043972 40.483001709
vertex -19.1101989746 2.32543420792 36.8920021057
endloop
endfacet
facet normal 0.978920936584 0.204239472747 0.0
outer loop
vertex -18.9797687531 2.35274910927 40.483001709
vertex -18.9797687531 2.35274910927 36.8920021057
vertex -18.9899806976 2.40169501305 40.483001709
endloop
endfacet
facet normal 0.978920936584 0.204239472747 0.0
outer loop
vertex -18.9797687531 2.35274910927 36.8920021057
vertex -18.9899806976 2.40169501305 36.8920021057
vertex -18.9899806976 2.40169501305 40.483001709
endloop
endfacet
facet normal -0.0 0.0 -1.0
outer loop
vertex -19.1101989746 2.32543420792 36.8920021057
vertex -19.1753978729 2.3117043972 36.8920021057
vertex -19.1857185364 2.3606274128 36.8920021057
endloop
endfacet
facet normal 0.0 -0.0 -1.0
outer loop
vertex -19.1204833984 2.37436485291 36.8920021057
vertex -19.1101989746 2.32543420792 36.8920021057
vertex -19.1857185364 2.3606274128 36.8920021057
endloop
endfacet
facet normal 0.0 -0.0 -1.0
outer loop
vertex -19.0552368164 2.38805413246 36.8920021057
vertex -19.0449886322 2.33911585808 36.8920021057
vertex -19.1101989746 2.32543420792 36.8920021057
endloop
endfacet
facet normal 0.0 0.0 -1.0
outer loop
vertex -19.0552368164 2.38805413246 36.8920021057
vertex -19.1101989746 2.32543420792 36.8920021057
vertex -19.1204833984 2.37436485291 36.8920021057
endloop
endfacet
facet normal 0.0 -0.0 -1.0
outer loop
vertex -18.9899806976 2.40169501305 36.8920021057
vertex -18.9797687531 2.35274910927 36.8920021057
vertex -19.0449886322 2.33911585808 36.8920021057
endloop
endfacet
facet normal 0.0 0.0 -1.0
outer loop
vertex -18.9899806976 2.40169501305 36.8920021057
vertex -19.0449886322 2.33911585808 36.8920021057
vertex -19.0552368164 2.38805413246 36.8920021057
endloop
endfacet
facet normal 0.0 -0.0 1.0
outer loop
vertex -19.1753978729 2.3117043972 40.483001709
vertex -19.1101989746 2.32543420792 40.483001709
vertex -19.1857185364 2.3606274128 40.483001709
endloop
endfacet
facet normal 0.0 0.0 1.0
outer loop
vertex -19.1101989746 2.32543420792 40.483001709
vertex -19.1204833984 2.37436485291 40.483001709
vertex -19.1857185364 2.3606274128 40.483001709
endloop
endfacet
facet normal 0.0 0.0 1.0
outer loop
vertex -19.0449886322 2.33911561966 40.483001709
vertex -19.0552368164 2.38805413246 40.483001709
vertex -19.1101989746 2.32543420792 40.483001709
endloop
endfacet
facet normal 0.0 -0.0 1.0
outer loop
vertex -19.1101989746 2.32543420792 40.483001709
vertex -19.0552368164 2.38805413246 40.483001709
vertex -19.1204833984 2.37436485291 40.483001709
endloop
endfacet
facet normal 0.0 0.0 1.0
outer loop
vertex -18.9797687531 2.35274910927 40.483001709
vertex -18.9899806976 2.40169501305 40.483001709
vertex -19.0449886322 2.33911561966 40.483001709
endloop
endfacet
facet normal 0.0 -0.0 1.0
outer loop
vertex -19.0449886322 2.33911561966 40.483001709
vertex -18.9899806976 2.40169501305 40.483001709
vertex -19.0552368164 2.38805413246 40.483001709
endloop
endfacet
