solid 
facet normal 0.0016021723859 0.999998748302 -1.32967040156e-11
outer loop
vertex -0.473082363605 4.30138778687 18.8169994354
vertex -0.406415760517 4.30128097534 18.8169994354
vertex -0.406415790319 4.30128097534 15.2259998322
endloop
endfacet
facet normal 0.00160217308439 0.999998748302 0.0
outer loop
vertex -0.473082363605 4.30138778687 18.8169994354
vertex -0.406415790319 4.30128097534 15.2259998322
vertex -0.473082363605 4.30138778687 15.2259998322
endloop
endfacet
facet normal 0.000858306651935 0.999999642372 -1.42464685882e-11
outer loop
vertex -0.539748966694 4.30144500732 18.8169994354
vertex -0.473082363605 4.30138778687 15.2259998322
vertex -0.539749026299 4.30144500732 15.2259998322
endloop
endfacet
facet normal 0.000858307408635 0.999999642372 0.0
outer loop
vertex -0.539748966694 4.30144500732 18.8169994354
vertex -0.473082363605 4.30138778687 18.8169994354
vertex -0.473082363605 4.30138778687 15.2259998322
endloop
endfacet
facet normal 0.000121593482618 1.0 -2.01825036718e-12
outer loop
vertex -0.606415629387 4.30145311356 18.8169994354
vertex -0.539749026299 4.30144500732 15.2259998322
vertex -0.606415688992 4.30145311356 15.2259998322
endloop
endfacet
facet normal 0.000121593482618 1.0 -1.89952979561e-12
outer loop
vertex -0.606415629387 4.30145311356 18.8169994354
vertex -0.539748966694 4.30144500732 18.8169994354
vertex -0.539749026299 4.30144500732 15.2259998322
endloop
endfacet
facet normal -1.0 -0.000249146483839 0.0
outer loop
vertex -0.606415629387 4.30145311356 18.8169994354
vertex -0.606403172016 4.25145292282 15.2259998322
vertex -0.606403172016 4.25145292282 18.8169994354
endloop
endfacet
facet normal -1.0 -0.00025033854763 1.65983440326e-08
outer loop
vertex -0.606415688992 4.30145311356 15.2259998322
vertex -0.606403172016 4.25145292282 15.2259998322
vertex -0.606415629387 4.30145311356 18.8169994354
endloop
endfacet
facet normal -0.00159590586554 -0.999998748302 1.32446970058e-11
outer loop
vertex -0.406514257193 4.25128126144 15.2259998322
vertex -0.40651422739 4.25128126144 18.8169994354
vertex -0.473143845797 4.25138759613 15.2259998322
endloop
endfacet
facet normal -0.00159590586554 -0.999998748302 1.33040904682e-11
outer loop
vertex -0.40651422739 4.25128126144 18.8169994354
vertex -0.473143815994 4.25138759613 18.8169994354
vertex -0.473143845797 4.25138759613 15.2259998322
endloop
endfacet
facet normal -0.000865940353833 -0.999999642372 -1.32786283302e-07
outer loop
vertex -0.473143845797 4.25138759613 15.2259998322
vertex -0.539773464203 4.25144481659 18.8169994354
vertex -0.539773464203 4.25144529343 15.2259998322
endloop
endfacet
facet normal -0.000858783430886 -0.999999642372 7.12719119833e-12
outer loop
vertex -0.473143815994 4.25138759613 18.8169994354
vertex -0.539773464203 4.25144481659 18.8169994354
vertex -0.473143845797 4.25138759613 15.2259998322
endloop
endfacet
facet normal -0.000114504393423 -1.0 0.0
outer loop
vertex -0.539773464203 4.25144529343 15.2259998322
vertex -0.606403172016 4.25145292282 18.8169994354
vertex -0.606403172016 4.25145292282 15.2259998322
endloop
endfacet
facet normal -0.000121660916193 -1.0 -1.3278673805e-07
outer loop
vertex -0.539773464203 4.25144481659 18.8169994354
vertex -0.606403172016 4.25145292282 18.8169994354
vertex -0.539773464203 4.25144529343 15.2259998322
endloop
endfacet
facet normal 0.999998092651 -0.00196934514679 -8.2997102524e-09
outer loop
vertex -0.40651422739 4.25128126144 18.8169994354
vertex -0.406415790319 4.30128097534 15.2259998322
vertex -0.406415760517 4.30128097534 18.8169994354
endloop
endfacet
facet normal 0.999998092651 -0.00196934514679 -8.29915602907e-09
outer loop
vertex -0.406514257193 4.25128126144 15.2259998322
vertex -0.406415790319 4.30128097534 15.2259998322
vertex -0.40651422739 4.25128126144 18.8169994354
endloop
endfacet
facet normal 0.0 0.0 -1.0
outer loop
vertex -0.539773464203 4.25144529343 15.2259998322
vertex -0.606403172016 4.25145292282 15.2259998322
vertex -0.606415688992 4.30145311356 15.2259998322
endloop
endfacet
facet normal -0.0 0.0 -1.0
outer loop
vertex -0.539749026299 4.30144500732 15.2259998322
vertex -0.539773464203 4.25144529343 15.2259998322
vertex -0.606415688992 4.30145311356 15.2259998322
endloop
endfacet
facet normal 0.0 0.0 -1.0
outer loop
vertex -0.473082363605 4.30138778687 15.2259998322
vertex -0.473143845797 4.25138759613 15.2259998322
vertex -0.539773464203 4.25144529343 15.2259998322
endloop
endfacet
facet normal -0.0 0.0 -1.0
outer loop
vertex -0.473082363605 4.30138778687 15.2259998322
vertex -0.539773464203 4.25144529343 15.2259998322
vertex -0.539749026299 4.30144500732 15.2259998322
endloop
endfacet
facet normal 0.0 0.0 -1.0
outer loop
vertex -0.406415790319 4.30128097534 15.2259998322
vertex -0.406514257193 4.25128126144 15.2259998322
vertex -0.473143845797 4.25138759613 15.2259998322
endloop
endfacet
facet normal -0.0 0.0 -1.0
outer loop
vertex -0.406415790319 4.30128097534 15.2259998322
vertex -0.473143845797 4.25138759613 15.2259998322
vertex -0.473082363605 4.30138778687 15.2259998322
endloop
endfacet
facet normal -0.0 -0.0 1.0
outer loop
vertex -0.606403172016 4.25145292282 18.8169994354
vertex -0.539773464203 4.25144481659 18.8169994354
vertex -0.606415629387 4.30145311356 18.8169994354
endloop
endfacet
facet normal 0.0 -0.0 1.0
outer loop
vertex -0.539773464203 4.25144481659 18.8169994354
vertex -0.539748966694 4.30144500732 18.8169994354
vertex -0.606415629387 4.30145311356 18.8169994354
endloop
endfacet
facet normal 0.0 -0.0 1.0
outer loop
vertex -0.473143815994 4.25138759613 18.8169994354
vertex -0.473082363605 4.30138778687 18.8169994354
vertex -0.539773464203 4.25144481659 18.8169994354
endloop
endfacet
facet normal 0.0 0.0 1.0
outer loop
vertex -0.539773464203 4.25144481659 18.8169994354
vertex -0.473082363605 4.30138778687 18.8169994354
vertex -0.539748966694 4.30144500732 18.8169994354
endloop
endfacet
facet normal 0.0 -0.0 1.0
outer loop
vertex -0.40651422739 4.25128126144 18.8169994354
vertex -0.406415760517 4.30128097534 18.8169994354
vertex -0.473143815994 4.25138759613 18.8169994354
endloop
endfacet
facet normal 0.0 0.0 1.0
outer loop
vertex -0.473143815994 4.25138759613 18.8169994354
vertex -0.406415760517 4.30128097534 18.8169994354
vertex -0.473082363605 4.30138778687 18.8169994354
endloop
endfacet
