solid 
facet normal -0.204613432288 0.9788428545 0.0
outer loop
vertex -19.0552425385 2.38805294037 69.3310012817
vertex -18.9899864197 2.40169382095 69.3310012817
vertex -18.9899864197 2.40169382095 65.7400054932
endloop
endfacet
facet normal -0.204613432288 0.9788428545 0.0
outer loop
vertex -19.0552425385 2.38805294037 69.3310012817
vertex -18.9899864197 2.40169382095 65.7400054932
vertex -19.0552425385 2.38805294037 65.7400054932
endloop
endfacet
facet normal -0.205334186554 0.978691875935 6.49787281759e-08
outer loop
vertex -19.1204891205 2.37436366081 69.3310012817
vertex -19.0552425385 2.38805294037 65.7400054932
vertex -19.1204891205 2.37436389923 65.7400054932
endloop
endfacet
facet normal -0.205337613821 0.978691160679 0.0
outer loop
vertex -19.1204891205 2.37436366081 69.3310012817
vertex -19.0552425385 2.38805294037 69.3310012817
vertex -19.0552425385 2.38805294037 65.7400054932
endloop
endfacet
facet normal -0.206064000726 0.978538513184 6.49685460985e-08
outer loop
vertex -19.1857242584 2.3606262207 69.3310012817
vertex -19.1204891205 2.37436389923 65.7400054932
vertex -19.1857242584 2.36062645912 65.7400054932
endloop
endfacet
facet normal -0.206064015627 0.978538513184 6.49191562729e-08
outer loop
vertex -19.1857242584 2.3606262207 69.3310012817
vertex -19.1204891205 2.37436366081 69.3310012817
vertex -19.1204891205 2.37436389923 65.7400054932
endloop
endfacet
facet normal -0.978464663029 -0.206414207816 0.0
outer loop
vertex -19.1857242584 2.3606262207 69.3310012817
vertex -19.175403595 2.31170320511 65.7400054932
vertex -19.175403595 2.31170320511 69.3310012817
endloop
endfacet
facet normal -0.978464901447 -0.206413239241 -1.37044846582e-08
outer loop
vertex -19.1857242584 2.36062645912 65.7400054932
vertex -19.175403595 2.31170320511 65.7400054932
vertex -19.1857242584 2.3606262207 69.3310012817
endloop
endfacet
facet normal 0.204612657428 -0.978842973709 0.0
outer loop
vertex -18.9797744751 2.35274791718 65.7400054932
vertex -18.9797744751 2.35274791718 69.3310012817
vertex -19.0449943542 2.33911466599 65.7400054932
endloop
endfacet
facet normal 0.20534299314 -0.978690087795 -6.49786073836e-08
outer loop
vertex -19.0449943542 2.33911466599 65.7400054932
vertex -19.0449943542 2.33911442757 69.3310012817
vertex -19.1102027893 2.32543301582 65.7400054932
endloop
endfacet
facet normal 0.204616084695 -0.978842318058 -6.4954505774e-08
outer loop
vertex -18.9797744751 2.35274791718 69.3310012817
vertex -19.0449943542 2.33911442757 69.3310012817
vertex -19.0449943542 2.33911466599 65.7400054932
endloop
endfacet
facet normal 0.205339565873 -0.978690803051 0.0
outer loop
vertex -19.0449943542 2.33911442757 69.3310012817
vertex -19.1102027893 2.32543301582 69.3310012817
vertex -19.1102027893 2.32543301582 65.7400054932
endloop
endfacet
facet normal 0.206058263779 -0.978539764881 0.0
outer loop
vertex -19.1102027893 2.32543301582 65.7400054932
vertex -19.175403595 2.31170320511 69.3310012817
vertex -19.175403595 2.31170320511 65.7400054932
endloop
endfacet
facet normal 0.206058263779 -0.978539764881 0.0
outer loop
vertex -19.1102027893 2.32543301582 69.3310012817
vertex -19.175403595 2.31170320511 69.3310012817
vertex -19.1102027893 2.32543301582 65.7400054932
endloop
endfacet
facet normal 0.978920936584 0.204239487648 0.0
outer loop
vertex -18.9797744751 2.35274791718 69.3310012817
vertex -18.9797744751 2.35274791718 65.7400054932
vertex -18.9899864197 2.40169382095 69.3310012817
endloop
endfacet
facet normal 0.978920936584 0.204239487648 0.0
outer loop
vertex -18.9797744751 2.35274791718 65.7400054932
vertex -18.9899864197 2.40169382095 65.7400054932
vertex -18.9899864197 2.40169382095 69.3310012817
endloop
endfacet
facet normal 0.0 -0.0 -1.0
outer loop
vertex -19.1204891205 2.37436389923 65.7400054932
vertex -19.1102027893 2.32543301582 65.7400054932
vertex -19.175403595 2.31170320511 65.7400054932
endloop
endfacet
facet normal 0.0 0.0 -1.0
outer loop
vertex -19.1204891205 2.37436389923 65.7400054932
vertex -19.175403595 2.31170320511 65.7400054932
vertex -19.1857242584 2.36062645912 65.7400054932
endloop
endfacet
facet normal 0.0 -0.0 -1.0
outer loop
vertex -19.0552425385 2.38805294037 65.7400054932
vertex -19.0449943542 2.33911466599 65.7400054932
vertex -19.1102027893 2.32543301582 65.7400054932
endloop
endfacet
facet normal 0.0 0.0 -1.0
outer loop
vertex -19.0552425385 2.38805294037 65.7400054932
vertex -19.1102027893 2.32543301582 65.7400054932
vertex -19.1204891205 2.37436389923 65.7400054932
endloop
endfacet
facet normal 0.0 -0.0 -1.0
outer loop
vertex -18.9899864197 2.40169382095 65.7400054932
vertex -18.9797744751 2.35274791718 65.7400054932
vertex -19.0449943542 2.33911466599 65.7400054932
endloop
endfacet
facet normal 0.0 0.0 -1.0
outer loop
vertex -18.9899864197 2.40169382095 65.7400054932
vertex -19.0449943542 2.33911466599 65.7400054932
vertex -19.0552425385 2.38805294037 65.7400054932
endloop
endfacet
facet normal 0.0 -0.0 1.0
outer loop
vertex -19.175403595 2.31170320511 69.3310012817
vertex -19.1102027893 2.32543301582 69.3310012817
vertex -19.1857242584 2.3606262207 69.3310012817
endloop
endfacet
facet normal 0.0 0.0 1.0
outer loop
vertex -19.1102027893 2.32543301582 69.3310012817
vertex -19.1204891205 2.37436366081 69.3310012817
vertex -19.1857242584 2.3606262207 69.3310012817
endloop
endfacet
facet normal 0.0 0.0 1.0
outer loop
vertex -19.0449943542 2.33911442757 69.3310012817
vertex -19.0552425385 2.38805294037 69.3310012817
vertex -19.1102027893 2.32543301582 69.3310012817
endloop
endfacet
facet normal 0.0 -0.0 1.0
outer loop
vertex -19.1102027893 2.32543301582 69.3310012817
vertex -19.0552425385 2.38805294037 69.3310012817
vertex -19.1204891205 2.37436366081 69.3310012817
endloop
endfacet
facet normal 0.0 -0.0 1.0
outer loop
vertex -19.0449943542 2.33911442757 69.3310012817
vertex -18.9797744751 2.35274791718 69.3310012817
vertex -19.0552425385 2.38805294037 69.3310012817
endloop
endfacet
facet normal 0.0 0.0 1.0
outer loop
vertex -18.9797744751 2.35274791718 69.3310012817
vertex -18.9899864197 2.40169382095 69.3310012817
vertex -19.0552425385 2.38805294037 69.3310012817
endloop
endfacet
