solid 
facet normal 0.204613432288 0.9788428545 6.49887468285e-08
outer loop
vertex 18.9899921417 2.40169262886 87.4060058594
vertex 18.9899921417 2.40169239044 90.9970016479
vertex 19.0552482605 2.38805150986 90.9970016479
endloop
endfacet
facet normal 0.205334186554 0.978691875935 6.49787281759e-08
outer loop
vertex 19.0552482605 2.38805174828 87.4060058594
vertex 19.0552482605 2.38805150986 90.9970016479
vertex 19.1204948425 2.37436246872 90.9970016479
endloop
endfacet
facet normal 0.204613432288 0.9788428545 6.49887468285e-08
outer loop
vertex 19.0552482605 2.38805174828 87.4060058594
vertex 18.9899921417 2.40169262886 87.4060058594
vertex 19.0552482605 2.38805150986 90.9970016479
endloop
endfacet
facet normal 0.206064015627 0.978538513184 -0.0
outer loop
vertex 19.1204948425 2.37436246872 87.4060058594
vertex 19.1204948425 2.37436246872 90.9970016479
vertex 19.1857299805 2.36062502861 90.9970016479
endloop
endfacet
facet normal 0.205337613821 0.978691160679 -0.0
outer loop
vertex 19.1204948425 2.37436246872 87.4060058594
vertex 19.0552482605 2.38805174828 87.4060058594
vertex 19.1204948425 2.37436246872 90.9970016479
endloop
endfacet
facet normal 0.206064015627 0.978538513184 -0.0
outer loop
vertex 19.1857299805 2.36062502861 87.4060058594
vertex 19.1204948425 2.37436246872 87.4060058594
vertex 19.1857299805 2.36062502861 90.9970016479
endloop
endfacet
facet normal 0.978464663029 -0.206414207816 0.0
outer loop
vertex 19.175409317 2.31170201302 87.4060058594
vertex 19.1857299805 2.36062502861 87.4060058594
vertex 19.1857299805 2.36062502861 90.9970016479
endloop
endfacet
facet normal 0.978464901447 -0.206413254142 -1.37044864346e-08
outer loop
vertex 19.175409317 2.31170201302 87.4060058594
vertex 19.1857299805 2.36062502861 90.9970016479
vertex 19.175409317 2.3117017746 90.9970016479
endloop
endfacet
facet normal -0.204606920481 -0.978844225407 -6.49527294172e-08
outer loop
vertex 18.9797782898 2.35274648666 90.9970016479
vertex 19.0450000763 2.33911347389 87.4060058594
vertex 19.0450000763 2.33911323547 90.9970016479
endloop
endfacet
facet normal -0.204612657428 -0.978842973709 -1.73668269099e-07
outer loop
vertex 18.9797801971 2.35274672508 87.4060058594
vertex 19.0450000763 2.33911347389 87.4060058594
vertex 18.9797782898 2.35274648666 90.9970016479
endloop
endfacet
facet normal -0.20534299314 -0.978690087795 -6.49557989618e-08
outer loop
vertex 19.0450000763 2.33911323547 90.9970016479
vertex 19.1102085114 2.32543182373 87.4060058594
vertex 19.1102085114 2.32543158531 90.9970016479
endloop
endfacet
facet normal -0.206058263779 -0.978539764881 -6.49686242582e-08
outer loop
vertex 19.1102085114 2.32543158531 90.9970016479
vertex 19.1102085114 2.32543182373 87.4060058594
vertex 19.175409317 2.3117017746 90.9970016479
endloop
endfacet
facet normal -0.20534299314 -0.978690087795 -6.49786073836e-08
outer loop
vertex 19.0450000763 2.33911347389 87.4060058594
vertex 19.1102085114 2.32543182373 87.4060058594
vertex 19.0450000763 2.33911323547 90.9970016479
endloop
endfacet
facet normal -0.206058263779 -0.978539764881 -6.49534186437e-08
outer loop
vertex 19.1102085114 2.32543182373 87.4060058594
vertex 19.175409317 2.31170201302 87.4060058594
vertex 19.175409317 2.3117017746 90.9970016479
endloop
endfacet
facet normal -0.97891330719 0.204276055098 -5.06384822074e-07
outer loop
vertex 18.9797801971 2.35274672508 87.4060058594
vertex 18.9797782898 2.35274648666 90.9970016479
vertex 18.9899921417 2.40169239044 90.9970016479
endloop
endfacet
facet normal -0.978920936584 0.204239487648 1.35601636586e-08
outer loop
vertex 18.9899921417 2.40169262886 87.4060058594
vertex 18.9797801971 2.35274672508 87.4060058594
vertex 18.9899921417 2.40169239044 90.9970016479
endloop
endfacet
facet normal 0.0 0.0 -1.0
outer loop
vertex 19.1102085114 2.32543182373 87.4060058594
vertex 19.1204948425 2.37436246872 87.4060058594
vertex 19.175409317 2.31170201302 87.4060058594
endloop
endfacet
facet normal 0.0 0.0 -1.0
outer loop
vertex 19.175409317 2.31170201302 87.4060058594
vertex 19.1204948425 2.37436246872 87.4060058594
vertex 19.1857299805 2.36062502861 87.4060058594
endloop
endfacet
facet normal 0.0 0.0 -1.0
outer loop
vertex 19.0450000763 2.33911347389 87.4060058594
vertex 19.0552482605 2.38805174828 87.4060058594
vertex 19.1102085114 2.32543182373 87.4060058594
endloop
endfacet
facet normal 0.0 0.0 -1.0
outer loop
vertex 19.1102085114 2.32543182373 87.4060058594
vertex 19.0552482605 2.38805174828 87.4060058594
vertex 19.1204948425 2.37436246872 87.4060058594
endloop
endfacet
facet normal 0.0 0.0 -1.0
outer loop
vertex 18.9797801971 2.35274672508 87.4060058594
vertex 18.9899921417 2.40169262886 87.4060058594
vertex 19.0450000763 2.33911347389 87.4060058594
endloop
endfacet
facet normal 0.0 0.0 -1.0
outer loop
vertex 19.0450000763 2.33911347389 87.4060058594
vertex 18.9899921417 2.40169262886 87.4060058594
vertex 19.0552482605 2.38805174828 87.4060058594
endloop
endfacet
facet normal -0.0 0.0 1.0
outer loop
vertex 19.1102085114 2.32543158531 90.9970016479
vertex 19.175409317 2.3117017746 90.9970016479
vertex 19.1857299805 2.36062502861 90.9970016479
endloop
endfacet
facet normal 0.0 0.0 1.0
outer loop
vertex 19.1204948425 2.37436246872 90.9970016479
vertex 19.1102085114 2.32543158531 90.9970016479
vertex 19.1857299805 2.36062502861 90.9970016479
endloop
endfacet
facet normal 0.0 0.0 1.0
outer loop
vertex 19.0552482605 2.38805150986 90.9970016479
vertex 19.0450000763 2.33911323547 90.9970016479
vertex 19.1102085114 2.32543158531 90.9970016479
endloop
endfacet
facet normal 0.0 0.0 1.0
outer loop
vertex 19.0552482605 2.38805150986 90.9970016479
vertex 19.1102085114 2.32543158531 90.9970016479
vertex 19.1204948425 2.37436246872 90.9970016479
endloop
endfacet
facet normal 0.0 0.0 1.0
outer loop
vertex 18.9899921417 2.40169239044 90.9970016479
vertex 18.9797782898 2.35274648666 90.9970016479
vertex 19.0450000763 2.33911323547 90.9970016479
endloop
endfacet
facet normal 0.0 0.0 1.0
outer loop
vertex 18.9899921417 2.40169239044 90.9970016479
vertex 19.0450000763 2.33911323547 90.9970016479
vertex 19.0552482605 2.38805150986 90.9970016479
endloop
endfacet
