solid 
facet normal -0.204613447189 -0.978842914104 -6.49886118254e-08
outer loop
vertex -18.9899921417 -2.40169239044 -92.4060058594
vertex -18.9899921417 -2.40169262886 -88.8150024414
vertex -19.0552482605 -2.38805174828 -88.8150024414
endloop
endfacet
facet normal -0.205337613821 -0.978691220284 -6.49785434348e-08
outer loop
vertex -19.0552482605 -2.38805150986 -92.4060058594
vertex -19.0552482605 -2.38805174828 -88.8150024414
vertex -19.1204948425 -2.37436246872 -88.8150024414
endloop
endfacet
facet normal -0.204613447189 -0.978842914104 -6.49886118254e-08
outer loop
vertex -19.0552482605 -2.38805150986 -92.4060058594
vertex -18.9899921417 -2.40169239044 -92.4060058594
vertex -19.0552482605 -2.38805174828 -88.8150024414
endloop
endfacet
facet normal -0.205339923501 -0.978690683842 -1.09065567244e-07
outer loop
vertex -19.1204929352 -2.37436246872 -92.4060058594
vertex -19.0552482605 -2.38805150986 -92.4060058594
vertex -19.1204948425 -2.37436246872 -88.8150024414
endloop
endfacet
facet normal -0.206064015627 -0.978538513184 0.0
outer loop
vertex -19.1857299805 -2.36062502861 -92.4060058594
vertex -19.1204948425 -2.37436246872 -88.8150024414
vertex -19.1857299805 -2.36062502861 -88.8150024414
endloop
endfacet
facet normal -0.206058233976 -0.978539705276 -1.09411004701e-07
outer loop
vertex -19.1857299805 -2.36062502861 -92.4060058594
vertex -19.1204929352 -2.37436246872 -92.4060058594
vertex -19.1204948425 -2.37436246872 -88.8150024414
endloop
endfacet
facet normal -0.978464901447 0.206413239241 1.36158115893e-08
outer loop
vertex -19.1857299805 -2.36062502861 -92.4060058594
vertex -19.175409317 -2.31170201302 -88.8150024414
vertex -19.175409317 -2.3117017746 -92.4060058594
endloop
endfacet
facet normal -0.978464722633 0.206414192915 0.0
outer loop
vertex -19.1857299805 -2.36062502861 -88.8150024414
vertex -19.175409317 -2.31170201302 -88.8150024414
vertex -19.1857299805 -2.36062502861 -92.4060058594
endloop
endfacet
facet normal 0.204616069794 0.978842318058 6.49885691928e-08
outer loop
vertex -18.9797782898 -2.35274672508 -88.8150024414
vertex -18.9797782898 -2.35274648666 -92.4060058594
vertex -19.0449981689 -2.33911323547 -88.8150024414
endloop
endfacet
facet normal 0.205333814025 0.978691995144 0.0
outer loop
vertex -19.0449981689 -2.33911323547 -88.8150024414
vertex -19.0449981689 -2.33911323547 -92.4060058594
vertex -19.1102085114 -2.32543182373 -88.8150024414
endloop
endfacet
facet normal 0.204612642527 0.978843033314 0.0
outer loop
vertex -18.9797782898 -2.35274648666 -92.4060058594
vertex -19.0449981689 -2.33911323547 -92.4060058594
vertex -19.0449981689 -2.33911323547 -88.8150024414
endloop
endfacet
facet normal 0.205337256193 0.978691339493 6.49538449693e-08
outer loop
vertex -19.0449981689 -2.33911323547 -92.4060058594
vertex -19.1102085114 -2.32543158531 -92.4060058594
vertex -19.1102085114 -2.32543182373 -88.8150024414
endloop
endfacet
facet normal 0.206058263779 0.978539764881 6.49532836405e-08
outer loop
vertex -19.1102085114 -2.32543182373 -88.8150024414
vertex -19.175409317 -2.3117017746 -92.4060058594
vertex -19.175409317 -2.31170201302 -88.8150024414
endloop
endfacet
facet normal 0.206058263779 0.978539764881 6.49684892551e-08
outer loop
vertex -19.1102085114 -2.32543158531 -92.4060058594
vertex -19.175409317 -2.3117017746 -92.4060058594
vertex -19.1102085114 -2.32543182373 -88.8150024414
endloop
endfacet
facet normal 0.978913366795 -0.204276069999 -1.36157485287e-08
outer loop
vertex -18.9797782898 -2.35274648666 -92.4060058594
vertex -18.9899921417 -2.40169262886 -88.8150024414
vertex -18.9899921417 -2.40169239044 -92.4060058594
endloop
endfacet
facet normal 0.978913366795 -0.204276069999 -1.35625617403e-08
outer loop
vertex -18.9797782898 -2.35274672508 -88.8150024414
vertex -18.9899921417 -2.40169262886 -88.8150024414
vertex -18.9797782898 -2.35274648666 -92.4060058594
endloop
endfacet
facet normal 0.0 0.0 1.0
outer loop
vertex -19.1102085114 -2.32543182373 -88.8150024414
vertex -19.175409317 -2.31170201302 -88.8150024414
vertex -19.1857299805 -2.36062502861 -88.8150024414
endloop
endfacet
facet normal 0.0 -0.0 1.0
outer loop
vertex -19.1204948425 -2.37436246872 -88.8150024414
vertex -19.1102085114 -2.32543182373 -88.8150024414
vertex -19.1857299805 -2.36062502861 -88.8150024414
endloop
endfacet
facet normal 0.0 0.0 1.0
outer loop
vertex -19.0449981689 -2.33911323547 -88.8150024414
vertex -19.1102085114 -2.32543182373 -88.8150024414
vertex -19.1204948425 -2.37436246872 -88.8150024414
endloop
endfacet
facet normal 0.0 -0.0 1.0
outer loop
vertex -19.0552482605 -2.38805174828 -88.8150024414
vertex -19.0449981689 -2.33911323547 -88.8150024414
vertex -19.1204948425 -2.37436246872 -88.8150024414
endloop
endfacet
facet normal 0.0 0.0 1.0
outer loop
vertex -18.9797782898 -2.35274672508 -88.8150024414
vertex -19.0449981689 -2.33911323547 -88.8150024414
vertex -19.0552482605 -2.38805174828 -88.8150024414
endloop
endfacet
facet normal 0.0 -0.0 1.0
outer loop
vertex -18.9899921417 -2.40169262886 -88.8150024414
vertex -18.9797782898 -2.35274672508 -88.8150024414
vertex -19.0552482605 -2.38805174828 -88.8150024414
endloop
endfacet
facet normal 0.0 -0.0 -1.0
outer loop
vertex -19.175409317 -2.3117017746 -92.4060058594
vertex -19.1102085114 -2.32543158531 -92.4060058594
vertex -19.1857299805 -2.36062502861 -92.4060058594
endloop
endfacet
facet normal 0.0 0.0 -1.0
outer loop
vertex -19.1102085114 -2.32543158531 -92.4060058594
vertex -19.1204929352 -2.37436246872 -92.4060058594
vertex -19.1857299805 -2.36062502861 -92.4060058594
endloop
endfacet
facet normal 0.0 -0.0 -1.0
outer loop
vertex -19.1102085114 -2.32543158531 -92.4060058594
vertex -19.0449981689 -2.33911323547 -92.4060058594
vertex -19.1204929352 -2.37436246872 -92.4060058594
endloop
endfacet
facet normal 0.0 0.0 -1.0
outer loop
vertex -19.0449981689 -2.33911323547 -92.4060058594
vertex -19.0552482605 -2.38805150986 -92.4060058594
vertex -19.1204929352 -2.37436246872 -92.4060058594
endloop
endfacet
facet normal 0.0 -0.0 -1.0
outer loop
vertex -19.0449981689 -2.33911323547 -92.4060058594
vertex -18.9797782898 -2.35274648666 -92.4060058594
vertex -19.0552482605 -2.38805150986 -92.4060058594
endloop
endfacet
facet normal 0.0 0.0 -1.0
outer loop
vertex -18.9797782898 -2.35274648666 -92.4060058594
vertex -18.9899921417 -2.40169239044 -92.4060058594
vertex -19.0552482605 -2.38805150986 -92.4060058594
endloop
endfacet
