solid 
facet normal 0.00159501982853 -0.999998748302 2.65934357868e-11
outer loop
vertex -0.473103791475 -4.30138778687 126.336997986
vertex -0.406437188387 -4.30128145218 126.336997986
vertex -0.406437247992 -4.30128145218 129.927993774
endloop
endfacet
facet normal 0.00160217308439 -0.999998748302 -1.32773422479e-07
outer loop
vertex -0.473103791475 -4.30138778687 126.336997986
vertex -0.406437247992 -4.30128145218 129.927993774
vertex -0.473103821278 -4.3013882637 129.927993774
endloop
endfacet
facet normal 0.000858306651935 -0.999999642372 -1.32772598249e-07
outer loop
vertex -0.539770424366 -4.30144500732 126.336997986
vertex -0.473103821278 -4.3013882637 129.927993774
vertex -0.539770483971 -4.30144548416 129.927993774
endloop
endfacet
facet normal 0.000858307001181 -0.999999642372 -1.32780130002e-07
outer loop
vertex -0.539770424366 -4.30144500732 126.336997986
vertex -0.473103791475 -4.30138778687 126.336997986
vertex -0.473103821278 -4.3013882637 129.927993774
endloop
endfacet
facet normal 0.000121593482618 -1.0 -1.32784876428e-07
outer loop
vertex -0.606437087059 -4.30145311356 126.336997986
vertex -0.539770483971 -4.30144548416 129.927993774
vertex -0.606437146664 -4.30145359039 129.927993774
endloop
endfacet
facet normal 0.000121593482618 -1.0 -1.32784876428e-07
outer loop
vertex -0.606437087059 -4.30145311356 126.336997986
vertex -0.539770424366 -4.30144500732 126.336997986
vertex -0.539770483971 -4.30144548416 129.927993774
endloop
endfacet
facet normal -0.999999940395 0.000250340934144 -1.65985181155e-08
outer loop
vertex -0.606437087059 -4.30145311356 126.336997986
vertex -0.606424629688 -4.25145339966 129.927993774
vertex -0.606424570084 -4.25145339966 126.336997986
endloop
endfacet
facet normal -0.999999940395 0.00025033854763 -1.65651190542e-08
outer loop
vertex -0.606437146664 -4.30145359039 129.927993774
vertex -0.606424629688 -4.25145339966 129.927993774
vertex -0.606437087059 -4.30145311356 126.336997986
endloop
endfacet
facet normal -0.00159590586554 0.999998748302 -1.3304104346e-11
outer loop
vertex -0.406535685062 -4.25128173828 129.927993774
vertex -0.473165243864 -4.25138807297 126.336997986
vertex -0.473165273666 -4.25138807297 129.927993774
endloop
endfacet
facet normal -0.00160306238104 0.999998748302 1.32773422479e-07
outer loop
vertex -0.40653565526 -4.25128126144 126.336997986
vertex -0.473165243864 -4.25138807297 126.336997986
vertex -0.406535685062 -4.25128173828 129.927993774
endloop
endfacet
facet normal -0.000858783430886 0.999999642372 -1.42543980092e-11
outer loop
vertex -0.473165273666 -4.25138807297 129.927993774
vertex -0.53979486227 -4.25144529343 126.336997986
vertex -0.539794921875 -4.25144529343 129.927993774
endloop
endfacet
facet normal -0.000858783838339 0.999999642372 -7.12720204035e-12
outer loop
vertex -0.473165243864 -4.25138807297 126.336997986
vertex -0.53979486227 -4.25144529343 126.336997986
vertex -0.473165273666 -4.25138807297 129.927993774
endloop
endfacet
facet normal -0.000121660916193 1.0 -1.90058537484e-12
outer loop
vertex -0.539794921875 -4.25144529343 129.927993774
vertex -0.606424570084 -4.25145339966 126.336997986
vertex -0.606424629688 -4.25145339966 129.927993774
endloop
endfacet
facet normal -0.000121660916193 1.0 -2.01937186591e-12
outer loop
vertex -0.53979486227 -4.25144529343 126.336997986
vertex -0.606424570084 -4.25145339966 126.336997986
vertex -0.539794921875 -4.25144529343 129.927993774
endloop
endfacet
facet normal 0.999998033047 0.00196932605468 1.65967453114e-08
outer loop
vertex -0.40653565526 -4.25128126144 126.336997986
vertex -0.406437247992 -4.30128145218 129.927993774
vertex -0.406437188387 -4.30128145218 126.336997986
endloop
endfacet
facet normal 0.999998033047 0.00196874886751 8.56058868237e-09
outer loop
vertex -0.406535685062 -4.25128173828 129.927993774
vertex -0.406437247992 -4.30128145218 129.927993774
vertex -0.40653565526 -4.25128126144 126.336997986
endloop
endfacet
facet normal 0.0 0.0 1.0
outer loop
vertex -0.539794921875 -4.25144529343 129.927993774
vertex -0.606424629688 -4.25145339966 129.927993774
vertex -0.606437146664 -4.30145359039 129.927993774
endloop
endfacet
facet normal 0.0 0.0 1.0
outer loop
vertex -0.539770483971 -4.30144548416 129.927993774
vertex -0.539794921875 -4.25144529343 129.927993774
vertex -0.606437146664 -4.30145359039 129.927993774
endloop
endfacet
facet normal 0.0 0.0 1.0
outer loop
vertex -0.473103821278 -4.3013882637 129.927993774
vertex -0.473165273666 -4.25138807297 129.927993774
vertex -0.539794921875 -4.25144529343 129.927993774
endloop
endfacet
facet normal 0.0 0.0 1.0
outer loop
vertex -0.473103821278 -4.3013882637 129.927993774
vertex -0.539794921875 -4.25144529343 129.927993774
vertex -0.539770483971 -4.30144548416 129.927993774
endloop
endfacet
facet normal 0.0 0.0 1.0
outer loop
vertex -0.406437247992 -4.30128145218 129.927993774
vertex -0.406535685062 -4.25128173828 129.927993774
vertex -0.473165273666 -4.25138807297 129.927993774
endloop
endfacet
facet normal 0.0 0.0 1.0
outer loop
vertex -0.406437247992 -4.30128145218 129.927993774
vertex -0.473165273666 -4.25138807297 129.927993774
vertex -0.473103821278 -4.3013882637 129.927993774
endloop
endfacet
facet normal 0.0 -0.0 -1.0
outer loop
vertex -0.606424570084 -4.25145339966 126.336997986
vertex -0.53979486227 -4.25144529343 126.336997986
vertex -0.606437087059 -4.30145311356 126.336997986
endloop
endfacet
facet normal 0.0 -0.0 -1.0
outer loop
vertex -0.53979486227 -4.25144529343 126.336997986
vertex -0.539770424366 -4.30144500732 126.336997986
vertex -0.606437087059 -4.30145311356 126.336997986
endloop
endfacet
facet normal 0.0 -0.0 -1.0
outer loop
vertex -0.473165243864 -4.25138807297 126.336997986
vertex -0.473103791475 -4.30138778687 126.336997986
vertex -0.53979486227 -4.25144529343 126.336997986
endloop
endfacet
facet normal 0.0 0.0 -1.0
outer loop
vertex -0.53979486227 -4.25144529343 126.336997986
vertex -0.473103791475 -4.30138778687 126.336997986
vertex -0.539770424366 -4.30144500732 126.336997986
endloop
endfacet
facet normal 0.0 -0.0 -1.0
outer loop
vertex -0.40653565526 -4.25128126144 126.336997986
vertex -0.406437188387 -4.30128145218 126.336997986
vertex -0.473165243864 -4.25138807297 126.336997986
endloop
endfacet
facet normal 0.0 0.0 -1.0
outer loop
vertex -0.473165243864 -4.25138807297 126.336997986
vertex -0.406437188387 -4.30128145218 126.336997986
vertex -0.473103791475 -4.30138778687 126.336997986
endloop
endfacet
