solid 
facet normal 0.204613447189 0.978842914104 0.0
outer loop
vertex 19.0552482605 2.38805174828 83.8150024414
vertex 18.9899921417 2.40169262886 83.8150024414
vertex 18.9899921417 2.40169262886 87.4060058594
endloop
endfacet
facet normal 0.204613447189 0.978842914104 -0.0
outer loop
vertex 19.0552482605 2.38805174828 83.8150024414
vertex 18.9899921417 2.40169262886 87.4060058594
vertex 19.0552482605 2.38805174828 87.4060058594
endloop
endfacet
facet normal 0.205343365669 0.978689968586 1.74045851509e-07
outer loop
vertex 19.1204948425 2.37436270714 83.8150024414
vertex 19.0552482605 2.38805174828 87.4060058594
vertex 19.1204929352 2.37436246872 87.4060058594
endloop
endfacet
facet normal 0.206058219075 0.978539705276 1.74415575316e-07
outer loop
vertex 19.1204948425 2.37436270714 83.8150024414
vertex 19.1204929352 2.37436246872 87.4060058594
vertex 19.1857299805 2.36062502861 87.4060058594
endloop
endfacet
facet normal 0.205334171653 0.978691875935 0.0
outer loop
vertex 19.1204948425 2.37436270714 83.8150024414
vertex 19.0552482605 2.38805174828 83.8150024414
vertex 19.0552482605 2.38805174828 87.4060058594
endloop
endfacet
facet normal 0.206064015627 0.978538513184 6.496840399e-08
outer loop
vertex 19.1857299805 2.36062526703 83.8150024414
vertex 19.1204948425 2.37436270714 83.8150024414
vertex 19.1857299805 2.36062502861 87.4060058594
endloop
endfacet
facet normal 0.978464901447 -0.206413239241 -1.36158115893e-08
outer loop
vertex 19.175409317 2.31170201302 83.8150024414
vertex 19.1857299805 2.36062526703 83.8150024414
vertex 19.1857299805 2.36062502861 87.4060058594
endloop
endfacet
facet normal 0.978464722633 -0.206414192915 0.0
outer loop
vertex 19.175409317 2.31170201302 83.8150024414
vertex 19.1857299805 2.36062502861 87.4060058594
vertex 19.175409317 2.31170201302 87.4060058594
endloop
endfacet
facet normal -0.204616069794 -0.978842318058 -1.73698182948e-07
outer loop
vertex 18.9797782898 2.35274672508 87.4060058594
vertex 19.0450000763 2.33911347389 83.8150024414
vertex 19.0449981689 2.33911323547 87.4060058594
endloop
endfacet
facet normal -0.204606920481 -0.978844225407 0.0
outer loop
vertex 18.9797782898 2.35274672508 83.8150024414
vertex 19.0450000763 2.33911347389 83.8150024414
vertex 18.9797782898 2.35274672508 87.4060058594
endloop
endfacet
facet normal -0.205333814025 -0.978691995144 0.0
outer loop
vertex 19.0449981689 2.33911323547 87.4060058594
vertex 19.1102085114 2.32543182373 83.8150024414
vertex 19.1102085114 2.32543182373 87.4060058594
endloop
endfacet
facet normal -0.206058263779 -0.978539764881 -0.0
outer loop
vertex 19.1102085114 2.32543182373 87.4060058594
vertex 19.1102085114 2.32543182373 83.8150024414
vertex 19.175409317 2.31170201302 87.4060058594
endloop
endfacet
facet normal -0.20534299314 -0.978690087795 -1.74045666768e-07
outer loop
vertex 19.0450000763 2.33911347389 83.8150024414
vertex 19.1102085114 2.32543182373 83.8150024414
vertex 19.0449981689 2.33911323547 87.4060058594
endloop
endfacet
facet normal -0.206058263779 -0.978539764881 0.0
outer loop
vertex 19.1102085114 2.32543182373 83.8150024414
vertex 19.175409317 2.31170201302 83.8150024414
vertex 19.175409317 2.31170201302 87.4060058594
endloop
endfacet
facet normal -0.978913366795 0.204276069999 0.0
outer loop
vertex 18.9899921417 2.40169262886 83.8150024414
vertex 18.9797782898 2.35274672508 83.8150024414
vertex 18.9797782898 2.35274672508 87.4060058594
endloop
endfacet
facet normal -0.978913366795 0.204276069999 0.0
outer loop
vertex 18.9899921417 2.40169262886 83.8150024414
vertex 18.9797782898 2.35274672508 87.4060058594
vertex 18.9899921417 2.40169262886 87.4060058594
endloop
endfacet
facet normal 0.0 0.0 -1.0
outer loop
vertex 19.175409317 2.31170201302 83.8150024414
vertex 19.1102085114 2.32543182373 83.8150024414
vertex 19.1857299805 2.36062526703 83.8150024414
endloop
endfacet
facet normal 0.0 0.0 -1.0
outer loop
vertex 19.1102085114 2.32543182373 83.8150024414
vertex 19.1204948425 2.37436270714 83.8150024414
vertex 19.1857299805 2.36062526703 83.8150024414
endloop
endfacet
facet normal 0.0 0.0 -1.0
outer loop
vertex 19.1102085114 2.32543182373 83.8150024414
vertex 19.0450000763 2.33911347389 83.8150024414
vertex 19.1204948425 2.37436270714 83.8150024414
endloop
endfacet
facet normal 0.0 0.0 -1.0
outer loop
vertex 19.0450000763 2.33911347389 83.8150024414
vertex 19.0552482605 2.38805174828 83.8150024414
vertex 19.1204948425 2.37436270714 83.8150024414
endloop
endfacet
facet normal 0.0 0.0 -1.0
outer loop
vertex 19.0450000763 2.33911347389 83.8150024414
vertex 18.9797782898 2.35274672508 83.8150024414
vertex 19.0552482605 2.38805174828 83.8150024414
endloop
endfacet
facet normal 0.0 0.0 -1.0
outer loop
vertex 18.9797782898 2.35274672508 83.8150024414
vertex 18.9899921417 2.40169262886 83.8150024414
vertex 19.0552482605 2.38805174828 83.8150024414
endloop
endfacet
facet normal -0.0 0.0 1.0
outer loop
vertex 19.1102085114 2.32543182373 87.4060058594
vertex 19.175409317 2.31170201302 87.4060058594
vertex 19.1857299805 2.36062502861 87.4060058594
endloop
endfacet
facet normal 0.0 0.0 1.0
outer loop
vertex 19.1204929352 2.37436246872 87.4060058594
vertex 19.1102085114 2.32543182373 87.4060058594
vertex 19.1857299805 2.36062502861 87.4060058594
endloop
endfacet
facet normal -0.0 0.0 1.0
outer loop
vertex 19.0449981689 2.33911323547 87.4060058594
vertex 19.1102085114 2.32543182373 87.4060058594
vertex 19.1204929352 2.37436246872 87.4060058594
endloop
endfacet
facet normal 0.0 0.0 1.0
outer loop
vertex 19.0552482605 2.38805174828 87.4060058594
vertex 19.0449981689 2.33911323547 87.4060058594
vertex 19.1204929352 2.37436246872 87.4060058594
endloop
endfacet
facet normal 0.0 0.0 1.0
outer loop
vertex 18.9899921417 2.40169262886 87.4060058594
vertex 18.9797782898 2.35274672508 87.4060058594
vertex 19.0449981689 2.33911323547 87.4060058594
endloop
endfacet
facet normal 0.0 0.0 1.0
outer loop
vertex 18.9899921417 2.40169262886 87.4060058594
vertex 19.0449981689 2.33911323547 87.4060058594
vertex 19.0552482605 2.38805174828 87.4060058594
endloop
endfacet
