solid 
facet normal -0.00159502052702 0.999998748302 -1.32967239649e-11
outer loop
vertex 0.473098278046 4.3013882637 83.8150024414
vertex 0.40643170476 4.30128192902 83.8150024414
vertex 0.406431674957 4.30128192902 87.40599823
endloop
endfacet
facet normal -0.00159502052702 0.999998748302 -1.32373634623e-11
outer loop
vertex 0.473098278046 4.3013882637 83.8150024414
vertex 0.406431674957 4.30128192902 87.40599823
vertex 0.473098248243 4.3013882637 87.40599823
endloop
endfacet
facet normal -0.000858307001181 0.999999642372 1.32772598249e-07
outer loop
vertex 0.539764940739 4.301445961 83.8150024414
vertex 0.473098248243 4.3013882637 87.40599823
vertex 0.539764881134 4.30144548416 87.40599823
endloop
endfacet
facet normal -0.000865459209308 0.999999642372 -5.6985935068e-12
outer loop
vertex 0.539764940739 4.301445961 83.8150024414
vertex 0.473098278046 4.3013882637 83.8150024414
vertex 0.473098248243 4.3013882637 87.40599823
endloop
endfacet
facet normal -0.000121593475342 1.0 -2.01825253558e-12
outer loop
vertex 0.606431603432 4.30145359039 83.8150024414
vertex 0.539764881134 4.30144548416 87.40599823
vertex 0.606431543827 4.30145359039 87.40599823
endloop
endfacet
facet normal -0.000114440925245 1.0 1.32784876428e-07
outer loop
vertex 0.606431603432 4.30145359039 83.8150024414
vertex 0.539764940739 4.301445961 83.8150024414
vertex 0.539764881134 4.30144548416 87.40599823
endloop
endfacet
facet normal 0.999999940395 -0.000250340934144 1.65985181155e-08
outer loop
vertex 0.606419086456 4.2514538765 83.8150024414
vertex 0.606431603432 4.30145359039 83.8150024414
vertex 0.606431543827 4.30145359039 87.40599823
endloop
endfacet
facet normal 0.999999940395 -0.00025033854763 1.65651190542e-08
outer loop
vertex 0.606419086456 4.2514538765 83.8150024414
vertex 0.606431543827 4.30145359039 87.40599823
vertex 0.606419026852 4.25145339966 87.40599823
endloop
endfacet
facet normal 0.00160306168254 -0.999998748302 1.33040982744e-11
outer loop
vertex 0.406530112028 4.25128173828 87.40599823
vertex 0.473159760237 4.2513885498 83.8150024414
vertex 0.473159730434 4.2513885498 87.40599823
endloop
endfacet
facet normal 0.00159590586554 -0.999998748302 -1.32760234806e-07
outer loop
vertex 0.406530171633 4.25128221512 83.8150024414
vertex 0.473159760237 4.2513885498 83.8150024414
vertex 0.406530112028 4.25128173828 87.40599823
endloop
endfacet
facet normal 0.000858783430886 -0.999999642372 0.0
outer loop
vertex 0.473159730434 4.2513885498 87.40599823
vertex 0.539789378643 4.25144577026 83.8150024414
vertex 0.539789378643 4.25144577026 87.40599823
endloop
endfacet
facet normal 0.000858783838339 -0.999999642372 7.12720204035e-12
outer loop
vertex 0.473159760237 4.2513885498 83.8150024414
vertex 0.539789378643 4.25144577026 83.8150024414
vertex 0.473159730434 4.2513885498 87.40599823
endloop
endfacet
facet normal 0.000114504502562 -1.0 -1.32784990114e-07
outer loop
vertex 0.539789378643 4.25144577026 87.40599823
vertex 0.606419086456 4.2514538765 83.8150024414
vertex 0.606419026852 4.25145339966 87.40599823
endloop
endfacet
facet normal 0.000121660916193 -1.0 0.0
outer loop
vertex 0.539789378643 4.25144577026 83.8150024414
vertex 0.606419086456 4.2514538765 83.8150024414
vertex 0.539789378643 4.25144577026 87.40599823
endloop
endfacet
facet normal -0.999998033047 -0.00196934491396 -1.68577738435e-08
outer loop
vertex 0.40643170476 4.30128192902 83.8150024414
vertex 0.406530171633 4.25128221512 83.8150024414
vertex 0.406530112028 4.25128173828 87.40599823
endloop
endfacet
facet normal -0.999998033047 -0.00196873000823 -8.29916402267e-09
outer loop
vertex 0.40643170476 4.30128192902 83.8150024414
vertex 0.406530112028 4.25128173828 87.40599823
vertex 0.406431674957 4.30128192902 87.40599823
endloop
endfacet
facet normal -0.0 0.0 -1.0
outer loop
vertex 0.606419086456 4.2514538765 83.8150024414
vertex 0.539789378643 4.25144577026 83.8150024414
vertex 0.606431603432 4.30145359039 83.8150024414
endloop
endfacet
facet normal 0.0 0.0 -1.0
outer loop
vertex 0.539789378643 4.25144577026 83.8150024414
vertex 0.539764940739 4.301445961 83.8150024414
vertex 0.606431603432 4.30145359039 83.8150024414
endloop
endfacet
facet normal 0.0 0.0 -1.0
outer loop
vertex 0.473159760237 4.2513885498 83.8150024414
vertex 0.473098278046 4.3013882637 83.8150024414
vertex 0.539789378643 4.25144577026 83.8150024414
endloop
endfacet
facet normal 0.0 0.0 -1.0
outer loop
vertex 0.539789378643 4.25144577026 83.8150024414
vertex 0.473098278046 4.3013882637 83.8150024414
vertex 0.539764940739 4.301445961 83.8150024414
endloop
endfacet
facet normal 0.0 0.0 -1.0
outer loop
vertex 0.406530171633 4.25128221512 83.8150024414
vertex 0.40643170476 4.30128192902 83.8150024414
vertex 0.473159760237 4.2513885498 83.8150024414
endloop
endfacet
facet normal 0.0 0.0 -1.0
outer loop
vertex 0.473159760237 4.2513885498 83.8150024414
vertex 0.40643170476 4.30128192902 83.8150024414
vertex 0.473098278046 4.3013882637 83.8150024414
endloop
endfacet
facet normal 0.0 0.0 1.0
outer loop
vertex 0.539789378643 4.25144577026 87.40599823
vertex 0.606419026852 4.25145339966 87.40599823
vertex 0.606431543827 4.30145359039 87.40599823
endloop
endfacet
facet normal -0.0 0.0 1.0
outer loop
vertex 0.539764881134 4.30144548416 87.40599823
vertex 0.539789378643 4.25144577026 87.40599823
vertex 0.606431543827 4.30145359039 87.40599823
endloop
endfacet
facet normal 0.0 0.0 1.0
outer loop
vertex 0.473098248243 4.3013882637 87.40599823
vertex 0.473159730434 4.2513885498 87.40599823
vertex 0.539789378643 4.25144577026 87.40599823
endloop
endfacet
facet normal -0.0 0.0 1.0
outer loop
vertex 0.473098248243 4.3013882637 87.40599823
vertex 0.539789378643 4.25144577026 87.40599823
vertex 0.539764881134 4.30144548416 87.40599823
endloop
endfacet
facet normal 0.0 0.0 1.0
outer loop
vertex 0.406431674957 4.30128192902 87.40599823
vertex 0.406530112028 4.25128173828 87.40599823
vertex 0.473159730434 4.2513885498 87.40599823
endloop
endfacet
facet normal -0.0 0.0 1.0
outer loop
vertex 0.406431674957 4.30128192902 87.40599823
vertex 0.473159730434 4.2513885498 87.40599823
vertex 0.473098248243 4.3013882637 87.40599823
endloop
endfacet
