solid 
facet normal -0.00159502052702 0.999998748302 0.0
outer loop
vertex 0.473082244396 4.30138778687 26.0590000153
vertex 0.40641567111 4.30128145218 26.0590000153
vertex 0.40641567111 4.30128145218 29.6499996185
endloop
endfacet
facet normal -0.00159502052702 0.999998748302 0.0
outer loop
vertex 0.473082244396 4.30138778687 26.0590000153
vertex 0.40641567111 4.30128145218 29.6499996185
vertex 0.473082244396 4.30138778687 29.6499996185
endloop
endfacet
facet normal -0.000865459209308 0.999999642372 0.0
outer loop
vertex 0.539748907089 4.30144548416 26.0590000153
vertex 0.473082244396 4.30138778687 29.6499996185
vertex 0.539748907089 4.30144548416 29.6499996185
endloop
endfacet
facet normal -0.000114440925245 1.0 0.0
outer loop
vertex 0.539748907089 4.30144548416 26.0590000153
vertex 0.539748907089 4.30144548416 29.6499996185
vertex 0.606415569782 4.30145311356 29.6499996185
endloop
endfacet
facet normal -0.000865459209308 0.999999642372 0.0
outer loop
vertex 0.539748907089 4.30144548416 26.0590000153
vertex 0.473082244396 4.30138778687 26.0590000153
vertex 0.473082244396 4.30138778687 29.6499996185
endloop
endfacet
facet normal -0.000114440925245 1.0 0.0
outer loop
vertex 0.606415569782 4.30145311356 26.0590000153
vertex 0.539748907089 4.30144548416 26.0590000153
vertex 0.606415569782 4.30145311356 29.6499996185
endloop
endfacet
facet normal 0.999999940395 -0.000250340934144 0.0
outer loop
vertex 0.606403052807 4.25145339966 26.0590000153
vertex 0.606415569782 4.30145311356 26.0590000153
vertex 0.606415569782 4.30145311356 29.6499996185
endloop
endfacet
facet normal 0.999999940395 -0.000250340934144 0.0
outer loop
vertex 0.606403052807 4.25145339966 26.0590000153
vertex 0.606415569782 4.30145311356 29.6499996185
vertex 0.606403052807 4.25145339966 29.6499996185
endloop
endfacet
facet normal 0.00160306238104 -0.999998748302 1.33040904682e-11
outer loop
vertex 0.406514108181 4.25128126144 29.6499996185
vertex 0.473143726587 4.25138807297 26.0590000153
vertex 0.473143696785 4.25138807297 29.6499996185
endloop
endfacet
facet normal 0.00160306238104 -0.999998748302 1.33040904682e-11
outer loop
vertex 0.406514137983 4.25128126144 26.0590000153
vertex 0.473143726587 4.25138807297 26.0590000153
vertex 0.406514108181 4.25128126144 29.6499996185
endloop
endfacet
facet normal 0.000858783430886 -0.999999642372 0.0
outer loop
vertex 0.473143696785 4.25138807297 29.6499996185
vertex 0.539773344994 4.25144529343 26.0590000153
vertex 0.539773344994 4.25144529343 29.6499996185
endloop
endfacet
facet normal 0.000858783838339 -0.999999642372 7.1271942341e-12
outer loop
vertex 0.473143726587 4.25138807297 26.0590000153
vertex 0.539773344994 4.25144529343 26.0590000153
vertex 0.473143696785 4.25138807297 29.6499996185
endloop
endfacet
facet normal 0.000121660916193 -1.0 0.0
outer loop
vertex 0.539773344994 4.25144529343 29.6499996185
vertex 0.606403052807 4.25145339966 26.0590000153
vertex 0.606403052807 4.25145339966 29.6499996185
endloop
endfacet
facet normal 0.000121660916193 -1.0 0.0
outer loop
vertex 0.539773344994 4.25144529343 26.0590000153
vertex 0.606403052807 4.25145339966 26.0590000153
vertex 0.539773344994 4.25144529343 29.6499996185
endloop
endfacet
facet normal -0.999998092651 -0.00196932628751 -8.29709811967e-09
outer loop
vertex 0.40641567111 4.30128145218 26.0590000153
vertex 0.406514137983 4.25128126144 26.0590000153
vertex 0.406514108181 4.25128126144 29.6499996185
endloop
endfacet
facet normal -0.999998092651 -0.00196873000823 0.0
outer loop
vertex 0.40641567111 4.30128145218 26.0590000153
vertex 0.406514108181 4.25128126144 29.6499996185
vertex 0.40641567111 4.30128145218 29.6499996185
endloop
endfacet
facet normal -0.0 0.0 -1.0
outer loop
vertex 0.606403052807 4.25145339966 26.0590000153
vertex 0.539773344994 4.25144529343 26.0590000153
vertex 0.606415569782 4.30145311356 26.0590000153
endloop
endfacet
facet normal 0.0 0.0 -1.0
outer loop
vertex 0.539773344994 4.25144529343 26.0590000153
vertex 0.539748907089 4.30144548416 26.0590000153
vertex 0.606415569782 4.30145311356 26.0590000153
endloop
endfacet
facet normal 0.0 0.0 -1.0
outer loop
vertex 0.473143726587 4.25138807297 26.0590000153
vertex 0.473082244396 4.30138778687 26.0590000153
vertex 0.539773344994 4.25144529343 26.0590000153
endloop
endfacet
facet normal 0.0 0.0 -1.0
outer loop
vertex 0.539773344994 4.25144529343 26.0590000153
vertex 0.473082244396 4.30138778687 26.0590000153
vertex 0.539748907089 4.30144548416 26.0590000153
endloop
endfacet
facet normal -0.0 0.0 -1.0
outer loop
vertex 0.473143726587 4.25138807297 26.0590000153
vertex 0.406514137983 4.25128126144 26.0590000153
vertex 0.473082244396 4.30138778687 26.0590000153
endloop
endfacet
facet normal 0.0 0.0 -1.0
outer loop
vertex 0.406514137983 4.25128126144 26.0590000153
vertex 0.40641567111 4.30128145218 26.0590000153
vertex 0.473082244396 4.30138778687 26.0590000153
endloop
endfacet
facet normal 0.0 0.0 1.0
outer loop
vertex 0.539773344994 4.25144529343 29.6499996185
vertex 0.606403052807 4.25145339966 29.6499996185
vertex 0.606415569782 4.30145311356 29.6499996185
endloop
endfacet
facet normal -0.0 0.0 1.0
outer loop
vertex 0.539748907089 4.30144548416 29.6499996185
vertex 0.539773344994 4.25144529343 29.6499996185
vertex 0.606415569782 4.30145311356 29.6499996185
endloop
endfacet
facet normal 0.0 0.0 1.0
outer loop
vertex 0.473082244396 4.30138778687 29.6499996185
vertex 0.473143696785 4.25138807297 29.6499996185
vertex 0.539773344994 4.25144529343 29.6499996185
endloop
endfacet
facet normal -0.0 0.0 1.0
outer loop
vertex 0.473082244396 4.30138778687 29.6499996185
vertex 0.539773344994 4.25144529343 29.6499996185
vertex 0.539748907089 4.30144548416 29.6499996185
endloop
endfacet
facet normal 0.0 0.0 1.0
outer loop
vertex 0.40641567111 4.30128145218 29.6499996185
vertex 0.406514108181 4.25128126144 29.6499996185
vertex 0.473143696785 4.25138807297 29.6499996185
endloop
endfacet
facet normal -0.0 0.0 1.0
outer loop
vertex 0.40641567111 4.30128145218 29.6499996185
vertex 0.473143696785 4.25138807297 29.6499996185
vertex 0.473082244396 4.30138778687 29.6499996185
endloop
endfacet
