solid 
facet normal 0.204616874456 -0.978842139244 0.0
outer loop
vertex 18.989982605 -2.40169453621 -56.3160018921
vertex 18.989982605 -2.40169453621 -59.9070014954
vertex 19.0552387238 -2.38805341721 -59.9070014954
endloop
endfacet
facet normal 0.205334186554 -0.978691935539 -6.49786571216e-08
outer loop
vertex 19.0552387238 -2.38805365562 -56.3160018921
vertex 19.0552387238 -2.38805341721 -59.9070014954
vertex 19.1204853058 -2.37436437607 -59.9070014954
endloop
endfacet
facet normal 0.204613447189 -0.9788428545 -6.49886828796e-08
outer loop
vertex 19.0552387238 -2.38805365562 -56.3160018921
vertex 18.989982605 -2.40169453621 -56.3160018921
vertex 19.0552387238 -2.38805341721 -59.9070014954
endloop
endfacet
facet normal 0.205337613821 -0.978691160679 0.0
outer loop
vertex 19.1204853058 -2.37436437607 -56.3160018921
vertex 19.0552387238 -2.38805365562 -56.3160018921
vertex 19.1204853058 -2.37436437607 -59.9070014954
endloop
endfacet
facet normal 0.206064015627 -0.978538513184 -6.49684750442e-08
outer loop
vertex 19.1857204437 -2.36062717438 -56.3160018921
vertex 19.1204853058 -2.37436437607 -59.9070014954
vertex 19.1857204437 -2.36062693596 -59.9070014954
endloop
endfacet
facet normal 0.20606058836 -0.978539168835 0.0
outer loop
vertex 19.1857204437 -2.36062717438 -56.3160018921
vertex 19.1204853058 -2.37436437607 -56.3160018921
vertex 19.1204853058 -2.37436437607 -59.9070014954
endloop
endfacet
facet normal 0.978464901447 0.206413209438 1.37044704474e-08
outer loop
vertex 19.1857204437 -2.36062717438 -56.3160018921
vertex 19.1857204437 -2.36062693596 -59.9070014954
vertex 19.1753997803 -2.31170368195 -59.9070014954
endloop
endfacet
facet normal 0.978464901447 0.206413239241 1.37044713355e-08
outer loop
vertex 19.1753997803 -2.31170392036 -56.3160018921
vertex 19.1857204437 -2.36062717438 -56.3160018921
vertex 19.1753997803 -2.31170368195 -59.9070014954
endloop
endfacet
facet normal -0.204612657428 0.978843033314 6.49886899851e-08
outer loop
vertex 18.9797706604 -2.35274839401 -59.9070014954
vertex 18.9797706604 -2.35274863243 -56.3160018921
vertex 19.0449905396 -2.33911514282 -59.9070014954
endloop
endfacet
facet normal -0.20534299314 0.978690087795 6.49785363294e-08
outer loop
vertex 19.0449905396 -2.33911514282 -59.9070014954
vertex 19.0449905396 -2.33911538124 -56.3160018921
vertex 19.1101989746 -2.32543349266 -59.9070014954
endloop
endfacet
facet normal -0.204612657428 0.978843033314 6.49544773523e-08
outer loop
vertex 18.9797706604 -2.35274863243 -56.3160018921
vertex 19.0449905396 -2.33911538124 -56.3160018921
vertex 19.0449905396 -2.33911514282 -59.9070014954
endloop
endfacet
facet normal -0.206058263779 0.978539705276 1.74415788479e-07
outer loop
vertex 19.1101989746 -2.32543349266 -59.9070014954
vertex 19.110200882 -2.32543373108 -56.3160018921
vertex 19.1753997803 -2.31170368195 -59.9070014954
endloop
endfacet
facet normal -0.205337241292 0.978691279888 1.73940236436e-07
outer loop
vertex 19.0449905396 -2.33911538124 -56.3160018921
vertex 19.110200882 -2.32543373108 -56.3160018921
vertex 19.1101989746 -2.32543349266 -59.9070014954
endloop
endfacet
facet normal -0.206064030528 0.978538513184 6.49551665788e-08
outer loop
vertex 19.110200882 -2.32543373108 -56.3160018921
vertex 19.1753997803 -2.31170392036 -56.3160018921
vertex 19.1753997803 -2.31170368195 -59.9070014954
endloop
endfacet
facet normal -0.978921115398 -0.204238533974 -1.35600854989e-08
outer loop
vertex 18.9797706604 -2.35274863243 -56.3160018921
vertex 18.9797706604 -2.35274839401 -59.9070014954
vertex 18.989982605 -2.40169453621 -59.9070014954
endloop
endfacet
facet normal -0.978920936584 -0.204239472747 -0.0
outer loop
vertex 18.989982605 -2.40169453621 -56.3160018921
vertex 18.9797706604 -2.35274863243 -56.3160018921
vertex 18.989982605 -2.40169453621 -59.9070014954
endloop
endfacet
facet normal -0.0 0.0 1.0
outer loop
vertex 19.110200882 -2.32543373108 -56.3160018921
vertex 19.1204853058 -2.37436437607 -56.3160018921
vertex 19.1753997803 -2.31170392036 -56.3160018921
endloop
endfacet
facet normal 0.0 0.0 1.0
outer loop
vertex 19.1753997803 -2.31170392036 -56.3160018921
vertex 19.1204853058 -2.37436437607 -56.3160018921
vertex 19.1857204437 -2.36062717438 -56.3160018921
endloop
endfacet
facet normal -0.0 0.0 1.0
outer loop
vertex 19.0449905396 -2.33911538124 -56.3160018921
vertex 19.0552387238 -2.38805365562 -56.3160018921
vertex 19.110200882 -2.32543373108 -56.3160018921
endloop
endfacet
facet normal 0.0 0.0 1.0
outer loop
vertex 19.110200882 -2.32543373108 -56.3160018921
vertex 19.0552387238 -2.38805365562 -56.3160018921
vertex 19.1204853058 -2.37436437607 -56.3160018921
endloop
endfacet
facet normal -0.0 0.0 1.0
outer loop
vertex 18.9797706604 -2.35274863243 -56.3160018921
vertex 18.989982605 -2.40169453621 -56.3160018921
vertex 19.0449905396 -2.33911538124 -56.3160018921
endloop
endfacet
facet normal 0.0 0.0 1.0
outer loop
vertex 19.0449905396 -2.33911538124 -56.3160018921
vertex 18.989982605 -2.40169453621 -56.3160018921
vertex 19.0552387238 -2.38805365562 -56.3160018921
endloop
endfacet
facet normal 0.0 0.0 -1.0
outer loop
vertex 19.1101989746 -2.32543349266 -59.9070014954
vertex 19.1753997803 -2.31170368195 -59.9070014954
vertex 19.1857204437 -2.36062693596 -59.9070014954
endloop
endfacet
facet normal 0.0 0.0 -1.0
outer loop
vertex 19.1204853058 -2.37436437607 -59.9070014954
vertex 19.1101989746 -2.32543349266 -59.9070014954
vertex 19.1857204437 -2.36062693596 -59.9070014954
endloop
endfacet
facet normal 0.0 0.0 -1.0
outer loop
vertex 19.0552387238 -2.38805341721 -59.9070014954
vertex 19.0449905396 -2.33911514282 -59.9070014954
vertex 19.1101989746 -2.32543349266 -59.9070014954
endloop
endfacet
facet normal 0.0 0.0 -1.0
outer loop
vertex 19.0552387238 -2.38805341721 -59.9070014954
vertex 19.1101989746 -2.32543349266 -59.9070014954
vertex 19.1204853058 -2.37436437607 -59.9070014954
endloop
endfacet
facet normal 0.0 0.0 -1.0
outer loop
vertex 18.989982605 -2.40169453621 -59.9070014954
vertex 18.9797706604 -2.35274839401 -59.9070014954
vertex 19.0449905396 -2.33911514282 -59.9070014954
endloop
endfacet
facet normal 0.0 0.0 -1.0
outer loop
vertex 18.989982605 -2.40169453621 -59.9070014954
vertex 19.0449905396 -2.33911514282 -59.9070014954
vertex 19.0552387238 -2.38805341721 -59.9070014954
endloop
endfacet
