solid 
facet normal -0.0016021723859 -0.999998748302 0.0
outer loop
vertex 0.473092764616 -4.3013882637 173.259994507
vertex 0.406426161528 -4.30128145218 173.259994507
vertex 0.406426161528 -4.30128145218 169.668991089
endloop
endfacet
facet normal -0.00160217308439 -0.999998748302 1.3296695342e-11
outer loop
vertex 0.473092764616 -4.3013882637 173.259994507
vertex 0.406426161528 -4.30128145218 169.668991089
vertex 0.473092734814 -4.3013882637 169.668991089
endloop
endfacet
facet normal -0.000858306651935 -0.999999642372 -0.0
outer loop
vertex 0.539759397507 -4.30144548416 173.259994507
vertex 0.473092734814 -4.3013882637 169.668991089
vertex 0.539759397507 -4.30144548416 169.668991089
endloop
endfacet
facet normal -0.000858307001181 -0.999999642372 6.648347671e-12
outer loop
vertex 0.539759397507 -4.30144548416 173.259994507
vertex 0.473092764616 -4.3013882637 173.259994507
vertex 0.473092734814 -4.3013882637 169.668991089
endloop
endfacet
facet normal -0.000114440925245 -1.0 -1.32786610152e-07
outer loop
vertex 0.6064260602 -4.30145359039 173.259994507
vertex 0.539759397507 -4.30144548416 169.668991089
vertex 0.6064260602 -4.30145311356 169.668991089
endloop
endfacet
facet normal -0.000121593482618 -1.0 0.0
outer loop
vertex 0.6064260602 -4.30145359039 173.259994507
vertex 0.539759397507 -4.30144548416 173.259994507
vertex 0.539759397507 -4.30144548416 169.668991089
endloop
endfacet
facet normal 0.999999940395 0.000250338518526 3.32416039139e-11
outer loop
vertex 0.606413543224 -4.25145339966 173.259994507
vertex 0.6064260602 -4.30145359039 173.259994507
vertex 0.6064260602 -4.30145311356 169.668991089
endloop
endfacet
facet normal 0.999999940395 0.000250340934144 0.0
outer loop
vertex 0.606413543224 -4.25145339966 173.259994507
vertex 0.6064260602 -4.30145311356 169.668991089
vertex 0.606413543224 -4.25145339966 169.668991089
endloop
endfacet
facet normal 0.00159590574913 0.999998688698 -1.3304075723e-11
outer loop
vertex 0.406524598598 -4.25128173828 169.668991089
vertex 0.473154217005 -4.25138807297 173.259994507
vertex 0.473154187202 -4.25138807297 169.668991089
endloop
endfacet
facet normal 0.00159590574913 0.999998688698 -1.32446822607e-11
outer loop
vertex 0.406524628401 -4.25128173828 173.259994507
vertex 0.473154217005 -4.25138807297 173.259994507
vertex 0.406524598598 -4.25128173828 169.668991089
endloop
endfacet
facet normal 0.000858783430886 0.999999642372 -1.42543676515e-11
outer loop
vertex 0.473154187202 -4.25138807297 169.668991089
vertex 0.539783895016 -4.25144529343 173.259994507
vertex 0.539783835411 -4.25144529343 169.668991089
endloop
endfacet
facet normal 0.000858783023432 0.999999642372 -7.12718035631e-12
outer loop
vertex 0.473154217005 -4.25138807297 173.259994507
vertex 0.539783895016 -4.25144529343 173.259994507
vertex 0.473154187202 -4.25138807297 169.668991089
endloop
endfacet
facet normal 0.000121660916193 1.0 0.0
outer loop
vertex 0.539783835411 -4.25144529343 169.668991089
vertex 0.606413543224 -4.25145339966 173.259994507
vertex 0.606413543224 -4.25145339966 169.668991089
endloop
endfacet
facet normal 0.000121661032608 1.0 -2.01936948066e-12
outer loop
vertex 0.539783895016 -4.25144529343 173.259994507
vertex 0.606413543224 -4.25145339966 173.259994507
vertex 0.539783835411 -4.25144529343 169.668991089
endloop
endfacet
facet normal -0.999998033047 0.00196934491396 8.29970048244e-09
outer loop
vertex 0.406426161528 -4.30128145218 173.259994507
vertex 0.406524628401 -4.25128173828 173.259994507
vertex 0.406524598598 -4.25128173828 169.668991089
endloop
endfacet
facet normal -0.999998033047 0.00196874863468 0.0
outer loop
vertex 0.406426161528 -4.30128145218 173.259994507
vertex 0.406524598598 -4.25128173828 169.668991089
vertex 0.406426161528 -4.30128145218 169.668991089
endloop
endfacet
facet normal 0.0 0.0 1.0
outer loop
vertex 0.606413543224 -4.25145339966 173.259994507
vertex 0.539783895016 -4.25144529343 173.259994507
vertex 0.6064260602 -4.30145359039 173.259994507
endloop
endfacet
facet normal 0.0 0.0 1.0
outer loop
vertex 0.539783895016 -4.25144529343 173.259994507
vertex 0.539759397507 -4.30144548416 173.259994507
vertex 0.6064260602 -4.30145359039 173.259994507
endloop
endfacet
facet normal 0.0 0.0 1.0
outer loop
vertex 0.473154217005 -4.25138807297 173.259994507
vertex 0.473092764616 -4.3013882637 173.259994507
vertex 0.539783895016 -4.25144529343 173.259994507
endloop
endfacet
facet normal 0.0 0.0 1.0
outer loop
vertex 0.539783895016 -4.25144529343 173.259994507
vertex 0.473092764616 -4.3013882637 173.259994507
vertex 0.539759397507 -4.30144548416 173.259994507
endloop
endfacet
facet normal 0.0 0.0 1.0
outer loop
vertex 0.406524628401 -4.25128173828 173.259994507
vertex 0.406426161528 -4.30128145218 173.259994507
vertex 0.473154217005 -4.25138807297 173.259994507
endloop
endfacet
facet normal 0.0 0.0 1.0
outer loop
vertex 0.473154217005 -4.25138807297 173.259994507
vertex 0.406426161528 -4.30128145218 173.259994507
vertex 0.473092764616 -4.3013882637 173.259994507
endloop
endfacet
facet normal 0.0 0.0 -1.0
outer loop
vertex 0.539783835411 -4.25144529343 169.668991089
vertex 0.606413543224 -4.25145339966 169.668991089
vertex 0.6064260602 -4.30145311356 169.668991089
endloop
endfacet
facet normal 0.0 0.0 -1.0
outer loop
vertex 0.539759397507 -4.30144548416 169.668991089
vertex 0.539783835411 -4.25144529343 169.668991089
vertex 0.6064260602 -4.30145311356 169.668991089
endloop
endfacet
facet normal 0.0 0.0 -1.0
outer loop
vertex 0.473092734814 -4.3013882637 169.668991089
vertex 0.473154187202 -4.25138807297 169.668991089
vertex 0.539783835411 -4.25144529343 169.668991089
endloop
endfacet
facet normal 0.0 0.0 -1.0
outer loop
vertex 0.473092734814 -4.3013882637 169.668991089
vertex 0.539783835411 -4.25144529343 169.668991089
vertex 0.539759397507 -4.30144548416 169.668991089
endloop
endfacet
facet normal 0.0 0.0 -1.0
outer loop
vertex 0.406426161528 -4.30128145218 169.668991089
vertex 0.406524598598 -4.25128173828 169.668991089
vertex 0.473154187202 -4.25138807297 169.668991089
endloop
endfacet
facet normal 0.0 0.0 -1.0
outer loop
vertex 0.406426161528 -4.30128145218 169.668991089
vertex 0.473154187202 -4.25138807297 169.668991089
vertex 0.473092734814 -4.3013882637 169.668991089
endloop
endfacet
