solid 
facet normal 0.204613447189 -0.9788428545 0.0
outer loop
vertex 19.0552368164 -2.38805389404 -45.483001709
vertex 18.9899806976 -2.40169477463 -45.483001709
vertex 18.9899806976 -2.40169477463 -49.0740013123
endloop
endfacet
facet normal 0.204613447189 -0.9788428545 0.0
outer loop
vertex 19.0552368164 -2.38805389404 -45.483001709
vertex 18.9899806976 -2.40169477463 -49.0740013123
vertex 19.0552368164 -2.38805389404 -49.0740013123
endloop
endfacet
facet normal 0.205337613821 -0.978691160679 -6.49786073836e-08
outer loop
vertex 19.1204833984 -2.37436485291 -45.483001709
vertex 19.0552368164 -2.38805389404 -49.0740013123
vertex 19.1204833984 -2.37436461449 -49.0740013123
endloop
endfacet
facet normal 0.20606058836 -0.978539168835 -6.49685176768e-08
outer loop
vertex 19.1204833984 -2.37436485291 -45.483001709
vertex 19.1204833984 -2.37436461449 -49.0740013123
vertex 19.1857185364 -2.3606274128 -49.0740013123
endloop
endfacet
facet normal 0.205334186554 -0.978691935539 0.0
outer loop
vertex 19.1204833984 -2.37436485291 -45.483001709
vertex 19.0552368164 -2.38805389404 -45.483001709
vertex 19.0552368164 -2.38805389404 -49.0740013123
endloop
endfacet
facet normal 0.206064015627 -0.978538513184 0.0
outer loop
vertex 19.1857185364 -2.3606274128 -45.483001709
vertex 19.1204833984 -2.37436485291 -45.483001709
vertex 19.1857185364 -2.3606274128 -49.0740013123
endloop
endfacet
facet normal 0.978464901447 0.206413239241 0.0
outer loop
vertex 19.1753978729 -2.31170415878 -45.483001709
vertex 19.1857185364 -2.3606274128 -45.483001709
vertex 19.1857185364 -2.3606274128 -49.0740013123
endloop
endfacet
facet normal 0.978464901447 0.206413239241 0.0
outer loop
vertex 19.1753978729 -2.31170415878 -45.483001709
vertex 19.1857185364 -2.3606274128 -49.0740013123
vertex 19.1753978729 -2.31170415878 -49.0740013123
endloop
endfacet
facet normal -0.204612657428 0.978843033314 0.0
outer loop
vertex 18.9797687531 -2.35274887085 -49.0740013123
vertex 19.0449886322 -2.33911561966 -45.483001709
vertex 19.0449886322 -2.33911561966 -49.0740013123
endloop
endfacet
facet normal -0.204612657428 0.978843033314 0.0
outer loop
vertex 18.9797687531 -2.35274887085 -45.483001709
vertex 19.0449886322 -2.33911561966 -45.483001709
vertex 18.9797687531 -2.35274887085 -49.0740013123
endloop
endfacet
facet normal -0.205337241292 0.978691279888 0.0
outer loop
vertex 19.0449886322 -2.33911561966 -49.0740013123
vertex 19.1101989746 -2.3254339695 -45.483001709
vertex 19.1101989746 -2.3254339695 -49.0740013123
endloop
endfacet
facet normal -0.206064030528 0.978538513184 0.0
outer loop
vertex 19.1101989746 -2.3254339695 -49.0740013123
vertex 19.1101989746 -2.3254339695 -45.483001709
vertex 19.1753978729 -2.31170415878 -49.0740013123
endloop
endfacet
facet normal -0.205337241292 0.978691279888 0.0
outer loop
vertex 19.0449886322 -2.33911561966 -45.483001709
vertex 19.1101989746 -2.3254339695 -45.483001709
vertex 19.0449886322 -2.33911561966 -49.0740013123
endloop
endfacet
facet normal -0.206064030528 0.978538513184 0.0
outer loop
vertex 19.1101989746 -2.3254339695 -45.483001709
vertex 19.1753978729 -2.31170415878 -45.483001709
vertex 19.1753978729 -2.31170415878 -49.0740013123
endloop
endfacet
facet normal -0.978920936584 -0.204239472747 0.0
outer loop
vertex 18.9899806976 -2.40169477463 -45.483001709
vertex 18.9797687531 -2.35274887085 -45.483001709
vertex 18.9797687531 -2.35274887085 -49.0740013123
endloop
endfacet
facet normal -0.978920936584 -0.204239472747 -0.0
outer loop
vertex 18.9899806976 -2.40169477463 -45.483001709
vertex 18.9797687531 -2.35274887085 -49.0740013123
vertex 18.9899806976 -2.40169477463 -49.0740013123
endloop
endfacet
facet normal 0.0 0.0 1.0
outer loop
vertex 19.1753978729 -2.31170415878 -45.483001709
vertex 19.1101989746 -2.3254339695 -45.483001709
vertex 19.1857185364 -2.3606274128 -45.483001709
endloop
endfacet
facet normal 0.0 0.0 1.0
outer loop
vertex 19.1101989746 -2.3254339695 -45.483001709
vertex 19.1204833984 -2.37436485291 -45.483001709
vertex 19.1857185364 -2.3606274128 -45.483001709
endloop
endfacet
facet normal 0.0 0.0 1.0
outer loop
vertex 19.1101989746 -2.3254339695 -45.483001709
vertex 19.0449886322 -2.33911561966 -45.483001709
vertex 19.1204833984 -2.37436485291 -45.483001709
endloop
endfacet
facet normal 0.0 0.0 1.0
outer loop
vertex 19.0449886322 -2.33911561966 -45.483001709
vertex 19.0552368164 -2.38805389404 -45.483001709
vertex 19.1204833984 -2.37436485291 -45.483001709
endloop
endfacet
facet normal 0.0 0.0 1.0
outer loop
vertex 19.0449886322 -2.33911561966 -45.483001709
vertex 18.9797687531 -2.35274887085 -45.483001709
vertex 19.0552368164 -2.38805389404 -45.483001709
endloop
endfacet
facet normal 0.0 0.0 1.0
outer loop
vertex 18.9797687531 -2.35274887085 -45.483001709
vertex 18.9899806976 -2.40169477463 -45.483001709
vertex 19.0552368164 -2.38805389404 -45.483001709
endloop
endfacet
facet normal 0.0 0.0 -1.0
outer loop
vertex 19.1101989746 -2.3254339695 -49.0740013123
vertex 19.1753978729 -2.31170415878 -49.0740013123
vertex 19.1857185364 -2.3606274128 -49.0740013123
endloop
endfacet
facet normal 0.0 0.0 -1.0
outer loop
vertex 19.1204833984 -2.37436461449 -49.0740013123
vertex 19.1101989746 -2.3254339695 -49.0740013123
vertex 19.1857185364 -2.3606274128 -49.0740013123
endloop
endfacet
facet normal 0.0 0.0 -1.0
outer loop
vertex 19.0449886322 -2.33911561966 -49.0740013123
vertex 19.1101989746 -2.3254339695 -49.0740013123
vertex 19.1204833984 -2.37436461449 -49.0740013123
endloop
endfacet
facet normal 0.0 0.0 -1.0
outer loop
vertex 19.0552368164 -2.38805389404 -49.0740013123
vertex 19.0449886322 -2.33911561966 -49.0740013123
vertex 19.1204833984 -2.37436461449 -49.0740013123
endloop
endfacet
facet normal 0.0 0.0 -1.0
outer loop
vertex 18.9899806976 -2.40169477463 -49.0740013123
vertex 18.9797687531 -2.35274887085 -49.0740013123
vertex 19.0449886322 -2.33911561966 -49.0740013123
endloop
endfacet
facet normal 0.0 0.0 -1.0
outer loop
vertex 18.9899806976 -2.40169477463 -49.0740013123
vertex 19.0449886322 -2.33911561966 -49.0740013123
vertex 19.0552368164 -2.38805389404 -49.0740013123
endloop
endfacet
