solid 
facet normal -0.00160217226949 0.999998688698 0.0
outer loop
vertex 0.473077267408 4.30138731003 0.74199962616
vertex 0.40641066432 4.3012804985 0.74199962616
vertex 0.40641066432 4.3012804985 4.33299970627
endloop
endfacet
facet normal -0.00160217226949 0.999998688698 0.0
outer loop
vertex 0.473077267408 4.30138731003 0.74199962616
vertex 0.40641066432 4.3012804985 4.33299970627
vertex 0.473077267408 4.30138731003 4.33299970627
endloop
endfacet
facet normal -0.000858307001181 0.999999642372 0.0
outer loop
vertex 0.539743900299 4.30144453049 0.74199962616
vertex 0.473077267408 4.30138731003 4.33299970627
vertex 0.539743900299 4.30144453049 4.33299970627
endloop
endfacet
facet normal -0.000858307001181 0.999999642372 0.0
outer loop
vertex 0.539743900299 4.30144453049 0.74199962616
vertex 0.473077267408 4.30138731003 0.74199962616
vertex 0.473077267408 4.30138731003 4.33299970627
endloop
endfacet
facet normal -0.000121593482618 1.0 0.0
outer loop
vertex 0.606410562992 4.30145263672 0.74199962616
vertex 0.539743900299 4.30144453049 4.33299970627
vertex 0.606410562992 4.30145263672 4.33299970627
endloop
endfacet
facet normal -0.000121593482618 1.0 0.0
outer loop
vertex 0.606410562992 4.30145263672 0.74199962616
vertex 0.539743900299 4.30144453049 0.74199962616
vertex 0.539743900299 4.30144453049 4.33299970627
endloop
endfacet
facet normal 1.0 -0.00025033854763 0.0
outer loop
vertex 0.606398046017 4.25145244598 0.74199962616
vertex 0.606410562992 4.30145263672 0.74199962616
vertex 0.606410562992 4.30145263672 4.33299970627
endloop
endfacet
facet normal 1.0 -0.00025033854763 0.0
outer loop
vertex 0.606398046017 4.25145244598 0.74199962616
vertex 0.606410562992 4.30145263672 4.33299970627
vertex 0.606398046017 4.25145244598 4.33299970627
endloop
endfacet
facet normal 0.00159590598196 -0.999998748302 0.0
outer loop
vertex 0.406509131193 4.25128078461 4.33299970627
vertex 0.473138719797 4.25138711929 0.74199962616
vertex 0.473138719797 4.25138711929 4.33299970627
endloop
endfacet
facet normal 0.00159590598196 -0.999998748302 0.0
outer loop
vertex 0.406509131193 4.25128078461 0.74199962616
vertex 0.473138719797 4.25138711929 0.74199962616
vertex 0.406509131193 4.25128078461 4.33299970627
endloop
endfacet
facet normal 0.000858783023432 -0.999999642372 0.0
outer loop
vertex 0.473138719797 4.25138711929 4.33299970627
vertex 0.539768397808 4.25144433975 0.74199962616
vertex 0.539768397808 4.25144433975 4.33299970627
endloop
endfacet
facet normal 0.000858783023432 -0.999999642372 0.0
outer loop
vertex 0.473138719797 4.25138711929 0.74199962616
vertex 0.539768397808 4.25144433975 0.74199962616
vertex 0.473138719797 4.25138711929 4.33299970627
endloop
endfacet
facet normal 0.000121661032608 -1.0 0.0
outer loop
vertex 0.539768397808 4.25144433975 4.33299970627
vertex 0.606398046017 4.25145244598 0.74199962616
vertex 0.606398046017 4.25145244598 4.33299970627
endloop
endfacet
facet normal 0.000121661032608 -1.0 0.0
outer loop
vertex 0.539768397808 4.25144433975 0.74199962616
vertex 0.606398046017 4.25145244598 0.74199962616
vertex 0.539768397808 4.25144433975 4.33299970627
endloop
endfacet
facet normal -0.999998033047 -0.00196934468113 0.0
outer loop
vertex 0.40641066432 4.3012804985 0.74199962616
vertex 0.406509131193 4.25128078461 0.74199962616
vertex 0.406509131193 4.25128078461 4.33299970627
endloop
endfacet
facet normal -0.999998033047 -0.00196934468113 0.0
outer loop
vertex 0.40641066432 4.3012804985 0.74199962616
vertex 0.406509131193 4.25128078461 4.33299970627
vertex 0.40641066432 4.3012804985 4.33299970627
endloop
endfacet
facet normal -0.0 0.0 -1.0
outer loop
vertex 0.606398046017 4.25145244598 0.74199962616
vertex 0.539768397808 4.25144433975 0.74199962616
vertex 0.606410562992 4.30145263672 0.74199962616
endloop
endfacet
facet normal 0.0 0.0 -1.0
outer loop
vertex 0.539768397808 4.25144433975 0.74199962616
vertex 0.539743900299 4.30144453049 0.74199962616
vertex 0.606410562992 4.30145263672 0.74199962616
endloop
endfacet
facet normal 0.0 0.0 -1.0
outer loop
vertex 0.473138719797 4.25138711929 0.74199962616
vertex 0.473077267408 4.30138731003 0.74199962616
vertex 0.539768397808 4.25144433975 0.74199962616
endloop
endfacet
facet normal 0.0 0.0 -1.0
outer loop
vertex 0.539768397808 4.25144433975 0.74199962616
vertex 0.473077267408 4.30138731003 0.74199962616
vertex 0.539743900299 4.30144453049 0.74199962616
endloop
endfacet
facet normal 0.0 0.0 -1.0
outer loop
vertex 0.406509131193 4.25128078461 0.74199962616
vertex 0.40641066432 4.3012804985 0.74199962616
vertex 0.473138719797 4.25138711929 0.74199962616
endloop
endfacet
facet normal 0.0 0.0 -1.0
outer loop
vertex 0.473138719797 4.25138711929 0.74199962616
vertex 0.40641066432 4.3012804985 0.74199962616
vertex 0.473077267408 4.30138731003 0.74199962616
endloop
endfacet
facet normal 0.0 0.0 1.0
outer loop
vertex 0.539768397808 4.25144433975 4.33299970627
vertex 0.606398046017 4.25145244598 4.33299970627
vertex 0.606410562992 4.30145263672 4.33299970627
endloop
endfacet
facet normal -0.0 0.0 1.0
outer loop
vertex 0.539743900299 4.30144453049 4.33299970627
vertex 0.539768397808 4.25144433975 4.33299970627
vertex 0.606410562992 4.30145263672 4.33299970627
endloop
endfacet
facet normal 0.0 0.0 1.0
outer loop
vertex 0.473077267408 4.30138731003 4.33299970627
vertex 0.473138719797 4.25138711929 4.33299970627
vertex 0.539768397808 4.25144433975 4.33299970627
endloop
endfacet
facet normal -0.0 0.0 1.0
outer loop
vertex 0.473077267408 4.30138731003 4.33299970627
vertex 0.539768397808 4.25144433975 4.33299970627
vertex 0.539743900299 4.30144453049 4.33299970627
endloop
endfacet
facet normal 0.0 0.0 1.0
outer loop
vertex 0.40641066432 4.3012804985 4.33299970627
vertex 0.406509131193 4.25128078461 4.33299970627
vertex 0.473138719797 4.25138711929 4.33299970627
endloop
endfacet
facet normal -0.0 0.0 1.0
outer loop
vertex 0.40641066432 4.3012804985 4.33299970627
vertex 0.473138719797 4.25138711929 4.33299970627
vertex 0.473077267408 4.30138731003 4.33299970627
endloop
endfacet
