solid 
facet normal 0.122090227902 -0.992519021034 -6.62657626549e-08
outer loop
vertex 9.8773355484 -3.85081243515 -109.897125244
vertex 9.8773355484 -3.85081219673 -113.46812439
vertex 12.919921875 -3.47654223442 -113.46812439
endloop
endfacet
facet normal 0.155778095126 -0.987792015076 -6.5950160888e-08
outer loop
vertex 12.919921875 -3.47654247284 -109.897125244
vertex 12.919921875 -3.47654223442 -113.46812439
vertex 15.9480171204 -2.99900150299 -113.46812439
endloop
endfacet
facet normal 0.122090227902 -0.992519021034 -6.62657626549e-08
outer loop
vertex 12.919921875 -3.47654247284 -109.897125244
vertex 9.8773355484 -3.85081243515 -109.897125244
vertex 12.919921875 -3.47654223442 -113.46812439
endloop
endfacet
facet normal 0.189285680652 -0.981922090054 -6.55582539366e-08
outer loop
vertex 15.9480171204 -2.99900174141 -109.897125244
vertex 15.9480171204 -2.99900150299 -113.46812439
vertex 18.9581165314 -2.41874289513 -113.46812439
endloop
endfacet
facet normal 0.155778095126 -0.987792015076 -6.5950160888e-08
outer loop
vertex 15.9480171204 -2.99900174141 -109.897125244
vertex 12.919921875 -3.47654247284 -109.897125244
vertex 15.9480171204 -2.99900150299 -113.46812439
endloop
endfacet
facet normal 0.189285740256 -0.981922030449 0.0
outer loop
vertex 18.9581165314 -2.41874289513 -109.897125244
vertex 15.9480171204 -2.99900174141 -109.897125244
vertex 18.9581165314 -2.41874289513 -113.46812439
endloop
endfacet
facet normal 0.978561341763 0.205955684185 0.0
outer loop
vertex 18.9478187561 -2.36981487274 -109.897125244
vertex 18.9581165314 -2.41874289513 -109.897125244
vertex 18.9581165314 -2.41874289513 -113.46812439
endloop
endfacet
facet normal 0.978561341763 0.205955684185 0.0
outer loop
vertex 18.9478187561 -2.36981487274 -109.897125244
vertex 18.9581165314 -2.41874289513 -113.46812439
vertex 18.9478187561 -2.36981487274 -113.46812439
endloop
endfacet
facet normal -0.12209033221 0.99251896143 0.0
outer loop
vertex 9.87207603455 -3.80108976364 -113.46812439
vertex 9.87207603455 -3.80108976364 -109.897125244
vertex 12.9129734039 -3.42702722549 -113.46812439
endloop
endfacet
facet normal -0.15577802062 0.98779207468 1.07552381223e-07
outer loop
vertex 12.9129734039 -3.42702722549 -113.46812439
vertex 12.9129743576 -3.42702746391 -109.897125244
vertex 15.9393892288 -2.94975161552 -113.46812439
endloop
endfacet
facet normal -0.122090220451 0.99251896143 9.8061782694e-08
outer loop
vertex 9.87207603455 -3.80108976364 -109.897125244
vertex 12.9129743576 -3.42702746391 -109.897125244
vertex 12.9129734039 -3.42702722549 -113.46812439
endloop
endfacet
facet normal -0.189285710454 0.981922090054 6.55582539366e-08
outer loop
vertex 15.9393892288 -2.94975161552 -113.46812439
vertex 15.9393892288 -2.94975185394 -109.897125244
vertex 18.9478187561 -2.36981487274 -113.46812439
endloop
endfacet
facet normal -0.155778065324 0.98779207468 6.53745431123e-08
outer loop
vertex 12.9129743576 -3.42702746391 -109.897125244
vertex 15.9393892288 -2.94975185394 -109.897125244
vertex 15.9393892288 -2.94975161552 -113.46812439
endloop
endfacet
facet normal -0.189285770059 0.981922030449 0.0
outer loop
vertex 15.9393892288 -2.94975185394 -109.897125244
vertex 18.9478187561 -2.36981487274 -109.897125244
vertex 18.9478187561 -2.36981487274 -113.46812439
endloop
endfacet
facet normal -0.994452178478 -0.105190142989 0.0
outer loop
vertex 9.8773355484 -3.85081243515 -109.897125244
vertex 9.87207603455 -3.80108976364 -109.897125244
vertex 9.87207603455 -3.80108976364 -113.46812439
endloop
endfacet
facet normal -0.994452118874 -0.105190642178 -7.02307767497e-09
outer loop
vertex 9.8773355484 -3.85081243515 -109.897125244
vertex 9.87207603455 -3.80108976364 -113.46812439
vertex 9.8773355484 -3.85081219673 -113.46812439
endloop
endfacet
facet normal 0.0 0.0 1.0
outer loop
vertex 18.9478187561 -2.36981487274 -109.897125244
vertex 15.9393892288 -2.94975185394 -109.897125244
vertex 18.9581165314 -2.41874289513 -109.897125244
endloop
endfacet
facet normal -0.0 0.0 1.0
outer loop
vertex 15.9393892288 -2.94975185394 -109.897125244
vertex 15.9480171204 -2.99900174141 -109.897125244
vertex 18.9581165314 -2.41874289513 -109.897125244
endloop
endfacet
facet normal 0.0 0.0 1.0
outer loop
vertex 15.9393892288 -2.94975185394 -109.897125244
vertex 12.9129743576 -3.42702746391 -109.897125244
vertex 15.9480171204 -2.99900174141 -109.897125244
endloop
endfacet
facet normal -0.0 0.0 1.0
outer loop
vertex 12.9129743576 -3.42702746391 -109.897125244
vertex 12.919921875 -3.47654247284 -109.897125244
vertex 15.9480171204 -2.99900174141 -109.897125244
endloop
endfacet
facet normal 0.0 0.0 1.0
outer loop
vertex 12.9129743576 -3.42702746391 -109.897125244
vertex 9.87207603455 -3.80108976364 -109.897125244
vertex 12.919921875 -3.47654247284 -109.897125244
endloop
endfacet
facet normal -0.0 0.0 1.0
outer loop
vertex 9.87207603455 -3.80108976364 -109.897125244
vertex 9.8773355484 -3.85081243515 -109.897125244
vertex 12.919921875 -3.47654247284 -109.897125244
endloop
endfacet
facet normal 0.0 0.0 -1.0
outer loop
vertex 15.9393892288 -2.94975161552 -113.46812439
vertex 18.9478187561 -2.36981487274 -113.46812439
vertex 18.9581165314 -2.41874289513 -113.46812439
endloop
endfacet
facet normal 0.0 0.0 -1.0
outer loop
vertex 15.9480171204 -2.99900150299 -113.46812439
vertex 15.9393892288 -2.94975161552 -113.46812439
vertex 18.9581165314 -2.41874289513 -113.46812439
endloop
endfacet
facet normal 0.0 0.0 -1.0
outer loop
vertex 12.9129734039 -3.42702722549 -113.46812439
vertex 15.9393892288 -2.94975161552 -113.46812439
vertex 15.9480171204 -2.99900150299 -113.46812439
endloop
endfacet
facet normal 0.0 0.0 -1.0
outer loop
vertex 12.919921875 -3.47654223442 -113.46812439
vertex 12.9129734039 -3.42702722549 -113.46812439
vertex 15.9480171204 -2.99900150299 -113.46812439
endloop
endfacet
facet normal 0.0 0.0 -1.0
outer loop
vertex 9.87207603455 -3.80108976364 -113.46812439
vertex 12.9129734039 -3.42702722549 -113.46812439
vertex 12.919921875 -3.47654223442 -113.46812439
endloop
endfacet
facet normal 0.0 0.0 -1.0
outer loop
vertex 9.8773355484 -3.85081219673 -113.46812439
vertex 9.87207603455 -3.80108976364 -113.46812439
vertex 12.919921875 -3.47654223442 -113.46812439
endloop
endfacet
