solid 
facet normal 0.0190043058246 0.999819397926 0.0
outer loop
vertex 3.64286470413 4.29232883453 87.3253097534
vertex 0.577899575233 4.35058689117 87.3253097534
vertex 0.577899575233 4.35058689117 90.8963088989
endloop
endfacet
facet normal 0.0190043058246 0.999819397926 -0.0
outer loop
vertex 3.64286470413 4.29232883453 87.3253097534
vertex 0.577899575233 4.35058689117 90.8963088989
vertex 3.64286470413 4.29232883453 90.8963088989
endloop
endfacet
facet normal 0.0530000776052 0.998594522476 -0.0
outer loop
vertex 6.70407485962 4.12985610962 87.3253097534
vertex 3.64286470413 4.29232883453 90.8963088989
vertex 6.70407485962 4.12985610962 90.8963088989
endloop
endfacet
facet normal 0.0530000776052 0.998594522476 0.0
outer loop
vertex 6.70407485962 4.12985610962 87.3253097534
vertex 3.64286470413 4.29232883453 87.3253097534
vertex 3.64286470413 4.29232883453 90.8963088989
endloop
endfacet
facet normal 0.0869346261024 0.996214032173 -0.0
outer loop
vertex 9.75798797607 3.86335635185 87.3253097534
vertex 6.70407485962 4.12985610962 90.8963088989
vertex 9.75798797607 3.86335635185 90.8963088989
endloop
endfacet
facet normal 0.0869346261024 0.996214032173 0.0
outer loop
vertex 9.75798797607 3.86335635185 87.3253097534
vertex 6.70407485962 4.12985610962 87.3253097534
vertex 6.70407485962 4.12985610962 90.8963088989
endloop
endfacet
facet normal 0.994590461254 -0.103874079883 0.0
outer loop
vertex 9.75279426575 3.8136267662 87.3253097534
vertex 9.75798797607 3.86335635185 87.3253097534
vertex 9.75798797607 3.86335635185 90.8963088989
endloop
endfacet
facet normal 0.994590461254 -0.103874079883 0.0
outer loop
vertex 9.75279426575 3.8136267662 87.3253097534
vertex 9.75798797607 3.86335635185 90.8963088989
vertex 9.75279426575 3.8136267662 90.8963088989
endloop
endfacet
facet normal -0.0190044287592 -0.999819397926 -1.33473022856e-07
outer loop
vertex 0.577799797058 4.30058717728 90.8963088989
vertex 3.64106440544 4.24236154556 87.3253097534
vertex 3.64106440544 4.24236106873 90.8963088989
endloop
endfacet
facet normal -0.019004272297 -0.999819397926 0.0
outer loop
vertex 0.577799797058 4.30058717728 87.3253097534
vertex 3.64106440544 4.24236154556 87.3253097534
vertex 0.577799797058 4.30058717728 90.8963088989
endloop
endfacet
facet normal -0.0530000813305 -0.998594522476 0.0
outer loop
vertex 3.64106440544 4.24236106873 90.8963088989
vertex 6.70057630539 4.07997846603 87.3253097534
vertex 6.70057630539 4.07997846603 90.8963088989
endloop
endfacet
facet normal -0.0869345888495 -0.996214032173 -0.0
outer loop
vertex 6.70057630539 4.07997846603 90.8963088989
vertex 6.70057630539 4.07997846603 87.3253097534
vertex 9.75279426575 3.8136267662 90.8963088989
endloop
endfacet
facet normal -0.053000241518 -0.998594522476 -1.33342794584e-07
outer loop
vertex 3.64106440544 4.24236154556 87.3253097534
vertex 6.70057630539 4.07997846603 87.3253097534
vertex 3.64106440544 4.24236106873 90.8963088989
endloop
endfacet
facet normal -0.0869345888495 -0.996214032173 0.0
outer loop
vertex 6.70057630539 4.07997846603 87.3253097534
vertex 9.75279426575 3.8136267662 87.3253097534
vertex 9.75279426575 3.8136267662 90.8963088989
endloop
endfacet
facet normal -0.999998092651 0.00199557119049 0.0
outer loop
vertex 0.577899575233 4.35058689117 87.3253097534
vertex 0.577799797058 4.30058717728 87.3253097534
vertex 0.577799797058 4.30058717728 90.8963088989
endloop
endfacet
facet normal -0.999998092651 0.00199557119049 0.0
outer loop
vertex 0.577899575233 4.35058689117 87.3253097534
vertex 0.577799797058 4.30058717728 90.8963088989
vertex 0.577899575233 4.35058689117 90.8963088989
endloop
endfacet
facet normal 0.0 0.0 -1.0
outer loop
vertex 9.75279426575 3.8136267662 87.3253097534
vertex 6.70057630539 4.07997846603 87.3253097534
vertex 9.75798797607 3.86335635185 87.3253097534
endloop
endfacet
facet normal 0.0 0.0 -1.0
outer loop
vertex 6.70057630539 4.07997846603 87.3253097534
vertex 6.70407485962 4.12985610962 87.3253097534
vertex 9.75798797607 3.86335635185 87.3253097534
endloop
endfacet
facet normal 0.0 0.0 -1.0
outer loop
vertex 6.70057630539 4.07997846603 87.3253097534
vertex 3.64106440544 4.24236154556 87.3253097534
vertex 6.70407485962 4.12985610962 87.3253097534
endloop
endfacet
facet normal 0.0 0.0 -1.0
outer loop
vertex 3.64106440544 4.24236154556 87.3253097534
vertex 3.64286470413 4.29232883453 87.3253097534
vertex 6.70407485962 4.12985610962 87.3253097534
endloop
endfacet
facet normal 0.0 0.0 -1.0
outer loop
vertex 0.577799797058 4.30058717728 87.3253097534
vertex 0.577899575233 4.35058689117 87.3253097534
vertex 3.64106440544 4.24236154556 87.3253097534
endloop
endfacet
facet normal 0.0 0.0 -1.0
outer loop
vertex 3.64106440544 4.24236154556 87.3253097534
vertex 0.577899575233 4.35058689117 87.3253097534
vertex 3.64286470413 4.29232883453 87.3253097534
endloop
endfacet
facet normal 0.0 0.0 1.0
outer loop
vertex 6.70057630539 4.07997846603 90.8963088989
vertex 9.75279426575 3.8136267662 90.8963088989
vertex 9.75798797607 3.86335635185 90.8963088989
endloop
endfacet
facet normal 0.0 0.0 1.0
outer loop
vertex 6.70407485962 4.12985610962 90.8963088989
vertex 6.70057630539 4.07997846603 90.8963088989
vertex 9.75798797607 3.86335635185 90.8963088989
endloop
endfacet
facet normal 0.0 0.0 1.0
outer loop
vertex 3.64106440544 4.24236106873 90.8963088989
vertex 6.70057630539 4.07997846603 90.8963088989
vertex 6.70407485962 4.12985610962 90.8963088989
endloop
endfacet
facet normal 0.0 0.0 1.0
outer loop
vertex 3.64286470413 4.29232883453 90.8963088989
vertex 3.64106440544 4.24236106873 90.8963088989
vertex 6.70407485962 4.12985610962 90.8963088989
endloop
endfacet
facet normal 0.0 0.0 1.0
outer loop
vertex 0.577899575233 4.35058689117 90.8963088989
vertex 0.577799797058 4.30058717728 90.8963088989
vertex 3.64106440544 4.24236106873 90.8963088989
endloop
endfacet
facet normal 0.0 0.0 1.0
outer loop
vertex 0.577899575233 4.35058689117 90.8963088989
vertex 3.64106440544 4.24236106873 90.8963088989
vertex 3.64286470413 4.29232883453 90.8963088989
endloop
endfacet
