solid 
facet normal -0.12209007144 0.992519021034 3.26691278474e-08
outer loop
vertex -12.9199094772 3.47654390335 47.5643043518
vertex -9.87732315063 3.85081338882 47.5643043518
vertex -9.87732410431 3.85081338882 43.9933052063
endloop
endfacet
facet normal -0.122090041637 0.992519021034 6.62657626549e-08
outer loop
vertex -12.9199094772 3.47654390335 47.5643043518
vertex -9.87732410431 3.85081338882 43.9933052063
vertex -12.9199094772 3.47654414177 43.9933052063
endloop
endfacet
facet normal -0.155777946115 0.987792134285 0.0
outer loop
vertex -15.9480047226 2.99900388718 47.5643043518
vertex -12.9199094772 3.47654414177 43.9933052063
vertex -15.9480047226 2.99900388718 43.9933052063
endloop
endfacet
facet normal -0.155777871609 0.987792134285 6.53382699056e-08
outer loop
vertex -15.9480047226 2.99900388718 47.5643043518
vertex -12.9199094772 3.47654390335 47.5643043518
vertex -12.9199094772 3.47654414177 43.9933052063
endloop
endfacet
facet normal -0.189285486937 0.981922090054 0.0
outer loop
vertex -18.9581050873 2.41874575615 47.5643043518
vertex -15.9480047226 2.99900388718 43.9933052063
vertex -18.9581050873 2.41874575615 43.9933052063
endloop
endfacet
facet normal -0.189285486937 0.981922090054 0.0
outer loop
vertex -18.9581050873 2.41874575615 47.5643043518
vertex -15.9480047226 2.99900388718 47.5643043518
vertex -15.9480047226 2.99900388718 43.9933052063
endloop
endfacet
facet normal -0.978561341763 -0.205955684185 -0.0
outer loop
vertex -18.9581050873 2.41874575615 47.5643043518
vertex -18.9581050873 2.41874575615 43.9933052063
vertex -18.947807312 2.36981773376 47.5643043518
endloop
endfacet
facet normal -0.978561341763 -0.205955684185 0.0
outer loop
vertex -18.9581050873 2.41874575615 43.9933052063
vertex -18.947807312 2.36981773376 43.9933052063
vertex -18.947807312 2.36981773376 47.5643043518
endloop
endfacet
facet normal 0.122090093791 -0.99251896143 -9.88712471894e-08
outer loop
vertex -9.87206459045 3.80109095573 43.9933052063
vertex -9.87206363678 3.80109071732 47.5643043518
vertex -12.9129619598 3.42702913284 43.9933052063
endloop
endfacet
facet normal 0.122089982033 -0.99251896143 0.0
outer loop
vertex -9.87206363678 3.80109071732 47.5643043518
vertex -12.9129619598 3.42702913284 47.5643043518
vertex -12.9129619598 3.42702913284 43.9933052063
endloop
endfacet
facet normal 0.155777916312 -0.987792134285 0.0
outer loop
vertex -12.9129619598 3.42702913284 43.9933052063
vertex -15.9393768311 2.94975399971 47.5643043518
vertex -15.9393768311 2.94975399971 43.9933052063
endloop
endfacet
facet normal 0.155777916312 -0.987792134285 0.0
outer loop
vertex -12.9129619598 3.42702913284 47.5643043518
vertex -15.9393768311 2.94975399971 47.5643043518
vertex -12.9129619598 3.42702913284 43.9933052063
endloop
endfacet
facet normal 0.189285486937 -0.981922090054 0.0
outer loop
vertex -15.9393768311 2.94975399971 43.9933052063
vertex -18.947807312 2.36981773376 47.5643043518
vertex -18.947807312 2.36981773376 43.9933052063
endloop
endfacet
facet normal 0.189285486937 -0.981922090054 0.0
outer loop
vertex -15.9393768311 2.94975399971 47.5643043518
vertex -18.947807312 2.36981773376 47.5643043518
vertex -15.9393768311 2.94975399971 43.9933052063
endloop
endfacet
facet normal 0.994452178478 0.105190142989 -2.6569136935e-07
outer loop
vertex -9.87206363678 3.80109071732 47.5643043518
vertex -9.87732410431 3.85081338882 43.9933052063
vertex -9.87732315063 3.85081338882 47.5643043518
endloop
endfacet
facet normal 0.994452118874 0.105190642178 -2.58556212884e-07
outer loop
vertex -9.87206459045 3.80109095573 43.9933052063
vertex -9.87732410431 3.85081338882 43.9933052063
vertex -9.87206363678 3.80109071732 47.5643043518
endloop
endfacet
facet normal 0.0 0.0 -1.0
outer loop
vertex -15.9393768311 2.94975399971 43.9933052063
vertex -18.947807312 2.36981773376 43.9933052063
vertex -18.9581050873 2.41874575615 43.9933052063
endloop
endfacet
facet normal 0.0 -0.0 -1.0
outer loop
vertex -15.9480047226 2.99900388718 43.9933052063
vertex -15.9393768311 2.94975399971 43.9933052063
vertex -18.9581050873 2.41874575615 43.9933052063
endloop
endfacet
facet normal 0.0 0.0 -1.0
outer loop
vertex -12.9129619598 3.42702913284 43.9933052063
vertex -15.9393768311 2.94975399971 43.9933052063
vertex -15.9480047226 2.99900388718 43.9933052063
endloop
endfacet
facet normal 0.0 -0.0 -1.0
outer loop
vertex -12.9199094772 3.47654414177 43.9933052063
vertex -12.9129619598 3.42702913284 43.9933052063
vertex -15.9480047226 2.99900388718 43.9933052063
endloop
endfacet
facet normal 0.0 0.0 -1.0
outer loop
vertex -9.87206459045 3.80109095573 43.9933052063
vertex -12.9129619598 3.42702913284 43.9933052063
vertex -12.9199094772 3.47654414177 43.9933052063
endloop
endfacet
facet normal 0.0 -0.0 -1.0
outer loop
vertex -9.87732410431 3.85081338882 43.9933052063
vertex -9.87206459045 3.80109095573 43.9933052063
vertex -12.9199094772 3.47654414177 43.9933052063
endloop
endfacet
facet normal 0.0 -0.0 1.0
outer loop
vertex -18.947807312 2.36981773376 47.5643043518
vertex -15.9393768311 2.94975399971 47.5643043518
vertex -18.9581050873 2.41874575615 47.5643043518
endloop
endfacet
facet normal 0.0 0.0 1.0
outer loop
vertex -15.9393768311 2.94975399971 47.5643043518
vertex -15.9480047226 2.99900388718 47.5643043518
vertex -18.9581050873 2.41874575615 47.5643043518
endloop
endfacet
facet normal 0.0 -0.0 1.0
outer loop
vertex -15.9393768311 2.94975399971 47.5643043518
vertex -12.9129619598 3.42702913284 47.5643043518
vertex -15.9480047226 2.99900388718 47.5643043518
endloop
endfacet
facet normal 0.0 0.0 1.0
outer loop
vertex -12.9129619598 3.42702913284 47.5643043518
vertex -12.9199094772 3.47654390335 47.5643043518
vertex -15.9480047226 2.99900388718 47.5643043518
endloop
endfacet
facet normal 0.0 -0.0 1.0
outer loop
vertex -12.9129619598 3.42702913284 47.5643043518
vertex -9.87206363678 3.80109071732 47.5643043518
vertex -12.9199094772 3.47654390335 47.5643043518
endloop
endfacet
facet normal 0.0 0.0 1.0
outer loop
vertex -9.87206363678 3.80109071732 47.5643043518
vertex -9.87732315063 3.85081338882 47.5643043518
vertex -12.9199094772 3.47654390335 47.5643043518
endloop
endfacet
