solid 
facet normal 0.0190044604242 -0.999819397926 0.0
outer loop
vertex 0.57789927721 -4.35058689117 -320.721923828
vertex 0.57789927721 -4.35058689117 -324.292907715
vertex 3.64286446571 -4.2923283577 -324.292907715
endloop
endfacet
facet normal 0.0530000701547 -0.998594522476 -1.33343363018e-07
outer loop
vertex 3.64286446571 -4.29232883453 -320.721923828
vertex 3.64286446571 -4.2923283577 -324.292907715
vertex 6.70407485962 -4.12985563278 -324.292907715
endloop
endfacet
facet normal 0.0190043058246 -0.999819397926 -1.33506915745e-07
outer loop
vertex 3.64286446571 -4.29232883453 -320.721923828
vertex 0.57789927721 -4.35058689117 -320.721923828
vertex 3.64286446571 -4.2923283577 -324.292907715
endloop
endfacet
facet normal 0.0530002266169 -0.998594522476 0.0
outer loop
vertex 6.70407485962 -4.12985563278 -320.721923828
vertex 3.64286446571 -4.29232883453 -320.721923828
vertex 6.70407485962 -4.12985563278 -324.292907715
endloop
endfacet
facet normal 0.0869345441461 -0.996214032173 -6.65127402044e-08
outer loop
vertex 9.75798797607 -3.86335635185 -320.721923828
vertex 6.70407485962 -4.12985563278 -324.292907715
vertex 9.75798797607 -3.86335611343 -324.292907715
endloop
endfacet
facet normal 0.0869344696403 -0.996214032173 0.0
outer loop
vertex 9.75798797607 -3.86335635185 -320.721923828
vertex 6.70407485962 -4.12985563278 -320.721923828
vertex 6.70407485962 -4.12985563278 -324.292907715
endloop
endfacet
facet normal 0.994590401649 0.103874072433 6.93520618711e-09
outer loop
vertex 9.75798797607 -3.86335635185 -320.721923828
vertex 9.75798797607 -3.86335611343 -324.292907715
vertex 9.75279426575 -3.81362652779 -324.292907715
endloop
endfacet
facet normal 0.994590401649 0.103874072433 6.93520618711e-09
outer loop
vertex 9.75279426575 -3.8136267662 -320.721923828
vertex 9.75798797607 -3.86335635185 -320.721923828
vertex 9.75279426575 -3.81362652779 -324.292907715
endloop
endfacet
facet normal -0.019004272297 0.999819397926 1.33506915745e-07
outer loop
vertex 0.577799499035 -4.30058670044 -324.292907715
vertex 0.577799499035 -4.30058717728 -320.721923828
vertex 3.64106416702 -4.24236106873 -324.292907715
endloop
endfacet
facet normal -0.0190044287592 0.999819397926 0.0
outer loop
vertex 0.577799499035 -4.30058717728 -320.721923828
vertex 3.64106416702 -4.24236106873 -320.721923828
vertex 3.64106416702 -4.24236106873 -324.292907715
endloop
endfacet
facet normal -0.0530000850558 0.998594522476 0.0
outer loop
vertex 3.64106416702 -4.24236106873 -324.292907715
vertex 6.70057582855 -4.07997846603 -320.721923828
vertex 6.70057582855 -4.07997846603 -324.292907715
endloop
endfacet
facet normal -0.0869346484542 0.996214032173 0.0
outer loop
vertex 6.70057582855 -4.07997846603 -324.292907715
vertex 6.70057582855 -4.07997846603 -320.721923828
vertex 9.75279426575 -3.81362652779 -324.292907715
endloop
endfacet
facet normal -0.0530000850558 0.998594522476 0.0
outer loop
vertex 3.64106416702 -4.24236106873 -320.721923828
vertex 6.70057582855 -4.07997846603 -320.721923828
vertex 3.64106416702 -4.24236106873 -324.292907715
endloop
endfacet
facet normal -0.0869345664978 0.996214032173 7.08227219093e-08
outer loop
vertex 6.70057582855 -4.07997846603 -320.721923828
vertex 9.75279426575 -3.8136267662 -320.721923828
vertex 9.75279426575 -3.81362652779 -324.292907715
endloop
endfacet
facet normal -0.999998092651 -0.00199555209838 -2.66468125343e-10
outer loop
vertex 0.577799499035 -4.30058717728 -320.721923828
vertex 0.577799499035 -4.30058670044 -324.292907715
vertex 0.57789927721 -4.35058689117 -324.292907715
endloop
endfacet
facet normal -0.999997973442 -0.00199557095766 -0.0
outer loop
vertex 0.57789927721 -4.35058689117 -320.721923828
vertex 0.577799499035 -4.30058717728 -320.721923828
vertex 0.57789927721 -4.35058689117 -324.292907715
endloop
endfacet
facet normal -0.0 0.0 1.0
outer loop
vertex 6.70057582855 -4.07997846603 -320.721923828
vertex 6.70407485962 -4.12985563278 -320.721923828
vertex 9.75279426575 -3.8136267662 -320.721923828
endloop
endfacet
facet normal 0.0 0.0 1.0
outer loop
vertex 9.75279426575 -3.8136267662 -320.721923828
vertex 6.70407485962 -4.12985563278 -320.721923828
vertex 9.75798797607 -3.86335635185 -320.721923828
endloop
endfacet
facet normal -0.0 0.0 1.0
outer loop
vertex 3.64106416702 -4.24236106873 -320.721923828
vertex 3.64286446571 -4.29232883453 -320.721923828
vertex 6.70057582855 -4.07997846603 -320.721923828
endloop
endfacet
facet normal 0.0 0.0 1.0
outer loop
vertex 6.70057582855 -4.07997846603 -320.721923828
vertex 3.64286446571 -4.29232883453 -320.721923828
vertex 6.70407485962 -4.12985563278 -320.721923828
endloop
endfacet
facet normal -0.0 0.0 1.0
outer loop
vertex 0.577799499035 -4.30058717728 -320.721923828
vertex 0.57789927721 -4.35058689117 -320.721923828
vertex 3.64106416702 -4.24236106873 -320.721923828
endloop
endfacet
facet normal 0.0 0.0 1.0
outer loop
vertex 3.64106416702 -4.24236106873 -320.721923828
vertex 0.57789927721 -4.35058689117 -320.721923828
vertex 3.64286446571 -4.29232883453 -320.721923828
endloop
endfacet
facet normal 0.0 0.0 -1.0
outer loop
vertex 6.70057582855 -4.07997846603 -324.292907715
vertex 9.75279426575 -3.81362652779 -324.292907715
vertex 9.75798797607 -3.86335611343 -324.292907715
endloop
endfacet
facet normal 0.0 0.0 -1.0
outer loop
vertex 6.70407485962 -4.12985563278 -324.292907715
vertex 6.70057582855 -4.07997846603 -324.292907715
vertex 9.75798797607 -3.86335611343 -324.292907715
endloop
endfacet
facet normal 0.0 0.0 -1.0
outer loop
vertex 3.64106416702 -4.24236106873 -324.292907715
vertex 6.70057582855 -4.07997846603 -324.292907715
vertex 6.70407485962 -4.12985563278 -324.292907715
endloop
endfacet
facet normal 0.0 0.0 -1.0
outer loop
vertex 3.64286446571 -4.2923283577 -324.292907715
vertex 3.64106416702 -4.24236106873 -324.292907715
vertex 6.70407485962 -4.12985563278 -324.292907715
endloop
endfacet
facet normal 0.0 0.0 -1.0
outer loop
vertex 0.577799499035 -4.30058670044 -324.292907715
vertex 3.64106416702 -4.24236106873 -324.292907715
vertex 3.64286446571 -4.2923283577 -324.292907715
endloop
endfacet
facet normal 0.0 0.0 -1.0
outer loop
vertex 0.57789927721 -4.35058689117 -324.292907715
vertex 0.577799499035 -4.30058670044 -324.292907715
vertex 3.64286446571 -4.2923283577 -324.292907715
endloop
endfacet
