solid 
facet normal -0.122090101242 0.992519021034 -6.62660397666e-08
outer loop
vertex -9.87732887268 3.85081315041 -392.626586914
vertex -9.87732887268 3.85081291199 -396.197570801
vertex -12.9199142456 3.47654342651 -396.197570801
endloop
endfacet
facet normal -0.155777946115 0.98779207468 0.0
outer loop
vertex -12.9199142456 3.47654342651 -392.626586914
vertex -12.9199142456 3.47654342651 -396.197570801
vertex -15.948009491 2.99900317192 -396.197570801
endloop
endfacet
facet normal -0.122090183198 0.992519021034 0.0
outer loop
vertex -12.9199142456 3.47654342651 -392.626586914
vertex -9.87732887268 3.85081315041 -392.626586914
vertex -12.9199142456 3.47654342651 -396.197570801
endloop
endfacet
facet normal -0.189285576344 0.981922149658 0.0
outer loop
vertex -15.948009491 2.99900317192 -392.626586914
vertex -15.948009491 2.99900317192 -396.197570801
vertex -18.9581108093 2.41874456406 -396.197570801
endloop
endfacet
facet normal -0.155777946115 0.98779207468 0.0
outer loop
vertex -15.948009491 2.99900317192 -392.626586914
vertex -12.9199142456 3.47654342651 -392.626586914
vertex -15.948009491 2.99900317192 -396.197570801
endloop
endfacet
facet normal -0.189285501838 0.981922149658 -6.55585381537e-08
outer loop
vertex -18.9581108093 2.41874480247 -392.626586914
vertex -15.948009491 2.99900317192 -392.626586914
vertex -18.9581108093 2.41874456406 -396.197570801
endloop
endfacet
facet normal -0.978561341763 -0.205955684185 1.36921585181e-08
outer loop
vertex -18.9478130341 2.36981678009 -392.626586914
vertex -18.9581108093 2.41874480247 -392.626586914
vertex -18.9581108093 2.41874456406 -396.197570801
endloop
endfacet
facet normal -0.978561341763 -0.205955684185 1.37507374376e-08
outer loop
vertex -18.9478130341 2.36981678009 -392.626586914
vertex -18.9581108093 2.41874456406 -396.197570801
vertex -18.9478130341 2.36981654167 -396.197570801
endloop
endfacet
facet normal 0.122090175748 -0.992519021034 6.53748273294e-08
outer loop
vertex -9.87206935883 3.8010904789 -396.197570801
vertex -12.9129667282 3.42702865601 -392.626586914
vertex -12.9129667282 3.42702841759 -396.197570801
endloop
endfacet
facet normal 0.122090101242 -0.992519021034 0.0
outer loop
vertex -9.87206935883 3.8010904789 -392.626586914
vertex -12.9129667282 3.42702865601 -392.626586914
vertex -9.87206935883 3.8010904789 -396.197570801
endloop
endfacet
facet normal 0.155777990818 -0.98779207468 6.53748273294e-08
outer loop
vertex -12.9129667282 3.42702841759 -396.197570801
vertex -15.9393815994 2.94975328445 -392.626586914
vertex -15.9393815994 2.94975304604 -396.197570801
endloop
endfacet
facet normal 0.155777990818 -0.98779207468 6.5950445105e-08
outer loop
vertex -12.9129667282 3.42702865601 -392.626586914
vertex -15.9393815994 2.94975328445 -392.626586914
vertex -12.9129667282 3.42702841759 -396.197570801
endloop
endfacet
facet normal 0.189285501838 -0.981922149658 6.53747989077e-08
outer loop
vertex -15.9393815994 2.94975304604 -396.197570801
vertex -18.9478130341 2.36981678009 -392.626586914
vertex -18.9478130341 2.36981654167 -396.197570801
endloop
endfacet
facet normal 0.189285501838 -0.981922149658 6.55585381537e-08
outer loop
vertex -15.9393815994 2.94975328445 -392.626586914
vertex -18.9478130341 2.36981678009 -392.626586914
vertex -15.9393815994 2.94975304604 -396.197570801
endloop
endfacet
facet normal 0.994451999664 0.105190634727 0.0
outer loop
vertex -9.87206935883 3.8010904789 -392.626586914
vertex -9.87206935883 3.8010904789 -396.197570801
vertex -9.87732887268 3.85081291199 -396.197570801
endloop
endfacet
facet normal 0.994452118874 0.105190142989 -7.02307412226e-09
outer loop
vertex -9.87732887268 3.85081315041 -392.626586914
vertex -9.87206935883 3.8010904789 -392.626586914
vertex -9.87732887268 3.85081291199 -396.197570801
endloop
endfacet
facet normal 0.0 0.0 1.0
outer loop
vertex -15.9393815994 2.94975328445 -392.626586914
vertex -15.948009491 2.99900317192 -392.626586914
vertex -18.9478130341 2.36981678009 -392.626586914
endloop
endfacet
facet normal 0.0 -0.0 1.0
outer loop
vertex -18.9478130341 2.36981678009 -392.626586914
vertex -15.948009491 2.99900317192 -392.626586914
vertex -18.9581108093 2.41874480247 -392.626586914
endloop
endfacet
facet normal 0.0 0.0 1.0
outer loop
vertex -12.9129667282 3.42702865601 -392.626586914
vertex -12.9199142456 3.47654342651 -392.626586914
vertex -15.9393815994 2.94975328445 -392.626586914
endloop
endfacet
facet normal 0.0 -0.0 1.0
outer loop
vertex -15.9393815994 2.94975328445 -392.626586914
vertex -12.9199142456 3.47654342651 -392.626586914
vertex -15.948009491 2.99900317192 -392.626586914
endloop
endfacet
facet normal 0.0 0.0 1.0
outer loop
vertex -9.87206935883 3.8010904789 -392.626586914
vertex -9.87732887268 3.85081315041 -392.626586914
vertex -12.9129667282 3.42702865601 -392.626586914
endloop
endfacet
facet normal 0.0 -0.0 1.0
outer loop
vertex -12.9129667282 3.42702865601 -392.626586914
vertex -9.87732887268 3.85081315041 -392.626586914
vertex -12.9199142456 3.47654342651 -392.626586914
endloop
endfacet
facet normal 0.0 0.0 -1.0
outer loop
vertex -15.9393815994 2.94975304604 -396.197570801
vertex -18.9478130341 2.36981654167 -396.197570801
vertex -18.9581108093 2.41874456406 -396.197570801
endloop
endfacet
facet normal 0.0 -0.0 -1.0
outer loop
vertex -15.948009491 2.99900317192 -396.197570801
vertex -15.9393815994 2.94975304604 -396.197570801
vertex -18.9581108093 2.41874456406 -396.197570801
endloop
endfacet
facet normal 0.0 0.0 -1.0
outer loop
vertex -12.9129667282 3.42702841759 -396.197570801
vertex -15.9393815994 2.94975304604 -396.197570801
vertex -15.948009491 2.99900317192 -396.197570801
endloop
endfacet
facet normal 0.0 -0.0 -1.0
outer loop
vertex -12.9199142456 3.47654342651 -396.197570801
vertex -12.9129667282 3.42702841759 -396.197570801
vertex -15.948009491 2.99900317192 -396.197570801
endloop
endfacet
facet normal 0.0 0.0 -1.0
outer loop
vertex -9.87206935883 3.8010904789 -396.197570801
vertex -12.9129667282 3.42702841759 -396.197570801
vertex -12.9199142456 3.47654342651 -396.197570801
endloop
endfacet
facet normal 0.0 -0.0 -1.0
outer loop
vertex -9.87732887268 3.85081291199 -396.197570801
vertex -9.87206935883 3.8010904789 -396.197570801
vertex -12.9199142456 3.47654342651 -396.197570801
endloop
endfacet
