solid 
facet normal -0.0190041493624 -0.999819397926 0.0
outer loop
vertex -0.577883303165 -4.35058641434 152.893783569
vertex -0.577883303165 -4.35058641434 156.464782715
vertex -3.64284849167 -4.29232883453 156.464782715
endloop
endfacet
facet normal -0.0529999248683 -0.998594522476 0.0
outer loop
vertex -3.64284849167 -4.29232883453 152.893783569
vertex -3.64284849167 -4.29232883453 156.464782715
vertex -6.70405864716 -4.12985658646 156.464782715
endloop
endfacet
facet normal -0.0190041493624 -0.999819397926 0.0
outer loop
vertex -3.64284849167 -4.29232883453 152.893783569
vertex -0.577883303165 -4.35058641434 152.893783569
vertex -3.64284849167 -4.29232883453 156.464782715
endloop
endfacet
facet normal -0.0869343951344 -0.996214032173 0.0
outer loop
vertex -6.70405864716 -4.12985658646 152.893783569
vertex -6.70405864716 -4.12985658646 156.464782715
vertex -9.75797176361 -3.86335754395 156.464782715
endloop
endfacet
facet normal -0.0529999248683 -0.998594522476 0.0
outer loop
vertex -6.70405864716 -4.12985658646 152.893783569
vertex -3.64284849167 -4.29232883453 152.893783569
vertex -6.70405864716 -4.12985658646 156.464782715
endloop
endfacet
facet normal -0.0869343131781 -0.996214032173 6.65124559873e-08
outer loop
vertex -9.75797176361 -3.86335778236 152.893783569
vertex -6.70405864716 -4.12985658646 152.893783569
vertex -9.75797176361 -3.86335754395 156.464782715
endloop
endfacet
facet normal -0.994590461254 0.103874079883 -6.93517643313e-09
outer loop
vertex -9.75797176361 -3.86335778236 152.893783569
vertex -9.75797176361 -3.86335754395 156.464782715
vertex -9.75277805328 -3.8136279583 156.464782715
endloop
endfacet
facet normal -0.994590461254 0.103874079883 -6.93517643313e-09
outer loop
vertex -9.75277805328 -3.81362819672 152.893783569
vertex -9.75797176361 -3.86335778236 152.893783569
vertex -9.75277805328 -3.8136279583 156.464782715
endloop
endfacet
facet normal 0.0190041176975 0.999819397926 -1.33506347311e-07
outer loop
vertex -0.57778352499 -4.3005862236 156.464782715
vertex -0.57778352499 -4.30058670044 152.893783569
vertex -3.64104819298 -4.24236106873 156.464782715
endloop
endfacet
facet normal 0.019004272297 0.999819397926 0.0
outer loop
vertex -0.57778352499 -4.30058670044 152.893783569
vertex -3.64104819298 -4.24236106873 152.893783569
vertex -3.64104819298 -4.24236106873 156.464782715
endloop
endfacet
facet normal 0.0529999248683 0.998594522476 -1.33473022856e-07
outer loop
vertex -3.64104819298 -4.24236106873 156.464782715
vertex -6.70056009293 -4.07997941971 152.893783569
vertex -6.70056009293 -4.07997894287 156.464782715
endloop
endfacet
facet normal 0.0869343578815 0.996214032173 -1.33024926185e-07
outer loop
vertex -6.70056009293 -4.07997894287 156.464782715
vertex -6.70056009293 -4.07997941971 152.893783569
vertex -9.75277805328 -3.8136279583 156.464782715
endloop
endfacet
facet normal 0.0529997721314 0.998594522476 -0.0
outer loop
vertex -3.64104819298 -4.24236106873 152.893783569
vertex -6.70056009293 -4.07997941971 152.893783569
vertex -3.64104819298 -4.24236106873 156.464782715
endloop
endfacet
facet normal 0.0869344323874 0.996214032173 -6.53745502177e-08
outer loop
vertex -6.70056009293 -4.07997941971 152.893783569
vertex -9.75277805328 -3.81362819672 152.893783569
vertex -9.75277805328 -3.8136279583 156.464782715
endloop
endfacet
facet normal 0.999997973442 -0.00199555186555 2.66466987364e-10
outer loop
vertex -0.57778352499 -4.30058670044 152.893783569
vertex -0.57778352499 -4.3005862236 156.464782715
vertex -0.577883303165 -4.35058641434 156.464782715
endloop
endfacet
facet normal 0.999998092651 -0.00199557119049 0.0
outer loop
vertex -0.577883303165 -4.35058641434 152.893783569
vertex -0.57778352499 -4.30058670044 152.893783569
vertex -0.577883303165 -4.35058641434 156.464782715
endloop
endfacet
facet normal -0.0 0.0 -1.0
outer loop
vertex -6.70056009293 -4.07997941971 152.893783569
vertex -6.70405864716 -4.12985658646 152.893783569
vertex -9.75277805328 -3.81362819672 152.893783569
endloop
endfacet
facet normal 0.0 -0.0 -1.0
outer loop
vertex -9.75277805328 -3.81362819672 152.893783569
vertex -6.70405864716 -4.12985658646 152.893783569
vertex -9.75797176361 -3.86335778236 152.893783569
endloop
endfacet
facet normal -0.0 0.0 -1.0
outer loop
vertex -3.64104819298 -4.24236106873 152.893783569
vertex -3.64284849167 -4.29232883453 152.893783569
vertex -6.70056009293 -4.07997941971 152.893783569
endloop
endfacet
facet normal 0.0 -0.0 -1.0
outer loop
vertex -6.70056009293 -4.07997941971 152.893783569
vertex -3.64284849167 -4.29232883453 152.893783569
vertex -6.70405864716 -4.12985658646 152.893783569
endloop
endfacet
facet normal -0.0 0.0 -1.0
outer loop
vertex -0.57778352499 -4.30058670044 152.893783569
vertex -0.577883303165 -4.35058641434 152.893783569
vertex -3.64104819298 -4.24236106873 152.893783569
endloop
endfacet
facet normal 0.0 -0.0 -1.0
outer loop
vertex -3.64104819298 -4.24236106873 152.893783569
vertex -0.577883303165 -4.35058641434 152.893783569
vertex -3.64284849167 -4.29232883453 152.893783569
endloop
endfacet
facet normal 0.0 0.0 1.0
outer loop
vertex -6.70056009293 -4.07997894287 156.464782715
vertex -9.75277805328 -3.8136279583 156.464782715
vertex -9.75797176361 -3.86335754395 156.464782715
endloop
endfacet
facet normal 0.0 -0.0 1.0
outer loop
vertex -6.70405864716 -4.12985658646 156.464782715
vertex -6.70056009293 -4.07997894287 156.464782715
vertex -9.75797176361 -3.86335754395 156.464782715
endloop
endfacet
facet normal 0.0 0.0 1.0
outer loop
vertex -3.64104819298 -4.24236106873 156.464782715
vertex -6.70056009293 -4.07997894287 156.464782715
vertex -6.70405864716 -4.12985658646 156.464782715
endloop
endfacet
facet normal 0.0 -0.0 1.0
outer loop
vertex -3.64284849167 -4.29232883453 156.464782715
vertex -3.64104819298 -4.24236106873 156.464782715
vertex -6.70405864716 -4.12985658646 156.464782715
endloop
endfacet
facet normal 0.0 0.0 1.0
outer loop
vertex -0.57778352499 -4.3005862236 156.464782715
vertex -3.64104819298 -4.24236106873 156.464782715
vertex -3.64284849167 -4.29232883453 156.464782715
endloop
endfacet
facet normal 0.0 -0.0 1.0
outer loop
vertex -0.577883303165 -4.35058641434 156.464782715
vertex -0.57778352499 -4.3005862236 156.464782715
vertex -3.64284849167 -4.29232883453 156.464782715
endloop
endfacet
