solid 
facet normal -0.0190039947629 -0.999819397926 -1.33398955882e-07
outer loop
vertex -3.64284873009 -4.29232883453 -37.6371231079
vertex -0.577883481979 -4.3505859375 -37.6371231079
vertex -0.577883541584 -4.35058641434 -34.0661239624
endloop
endfacet
facet normal -0.0190041493624 -0.999819397926 0.0
outer loop
vertex -3.64284873009 -4.29232883453 -37.6371231079
vertex -0.577883541584 -4.35058641434 -34.0661239624
vertex -3.64284873009 -4.29232883453 -34.0661239624
endloop
endfacet
facet normal -0.0529999211431 -0.998594522476 0.0
outer loop
vertex -6.70405912399 -4.12985658646 -37.6371231079
vertex -3.64284873009 -4.29232883453 -34.0661239624
vertex -6.70405912399 -4.12985658646 -34.0661239624
endloop
endfacet
facet normal -0.0529999211431 -0.998594522476 0.0
outer loop
vertex -6.70405912399 -4.12985658646 -37.6371231079
vertex -3.64284873009 -4.29232883453 -37.6371231079
vertex -3.64284873009 -4.29232883453 -34.0661239624
endloop
endfacet
facet normal -0.0869344100356 -0.996214032173 -6.65124559873e-08
outer loop
vertex -9.75797176361 -3.86335730553 -37.6371231079
vertex -6.70405912399 -4.12985658646 -34.0661239624
vertex -9.75797176361 -3.86335754395 -34.0661239624
endloop
endfacet
facet normal -0.0869344845414 -0.996214032173 0.0
outer loop
vertex -9.75797176361 -3.86335730553 -37.6371231079
vertex -6.70405912399 -4.12985658646 -37.6371231079
vertex -6.70405912399 -4.12985658646 -34.0661239624
endloop
endfacet
facet normal -0.994592428207 0.103855699301 0.0
outer loop
vertex -9.75797176361 -3.86335730553 -37.6371231079
vertex -9.75277900696 -3.8136279583 -34.0661239624
vertex -9.75277900696 -3.8136279583 -37.6371231079
endloop
endfacet
facet normal -0.994592428207 0.103855207562 6.93391699613e-09
outer loop
vertex -9.75797176361 -3.86335754395 -34.0661239624
vertex -9.75277900696 -3.8136279583 -34.0661239624
vertex -9.75797176361 -3.86335730553 -37.6371231079
endloop
endfacet
facet normal 0.0190041176975 0.999819397926 0.0
outer loop
vertex -0.577783763409 -4.3005862236 -34.0661239624
vertex -3.6410484314 -4.24236106873 -37.6371231079
vertex -3.6410484314 -4.24236106873 -34.0661239624
endloop
endfacet
facet normal 0.0190041158348 0.999819397926 3.17203541211e-10
outer loop
vertex -0.577783703804 -4.3005862236 -37.6371231079
vertex -3.6410484314 -4.24236106873 -37.6371231079
vertex -0.577783763409 -4.3005862236 -34.0661239624
endloop
endfacet
facet normal 0.0529999285936 0.998594522476 0.0
outer loop
vertex -3.6410484314 -4.24236106873 -34.0661239624
vertex -6.70056009293 -4.07997894287 -37.6371231079
vertex -6.70056009293 -4.07997894287 -34.0661239624
endloop
endfacet
facet normal 0.0869343206286 0.996214032173 0.0
outer loop
vertex -6.70056009293 -4.07997894287 -34.0661239624
vertex -6.70056009293 -4.07997894287 -37.6371231079
vertex -9.75277900696 -3.8136279583 -34.0661239624
endloop
endfacet
facet normal 0.0529999285936 0.998594522476 -0.0
outer loop
vertex -3.6410484314 -4.24236106873 -37.6371231079
vertex -6.70056009293 -4.07997894287 -37.6371231079
vertex -3.6410484314 -4.24236106873 -34.0661239624
endloop
endfacet
facet normal 0.0869343206286 0.996214032173 0.0
outer loop
vertex -6.70056009293 -4.07997894287 -37.6371231079
vertex -9.75277900696 -3.8136279583 -37.6371231079
vertex -9.75277900696 -3.8136279583 -34.0661239624
endloop
endfacet
facet normal 0.999998092651 -0.00199557119049 1.6424966276e-08
outer loop
vertex -0.577783703804 -4.3005862236 -37.6371231079
vertex -0.577883541584 -4.35058641434 -34.0661239624
vertex -0.577883481979 -4.3505859375 -37.6371231079
endloop
endfacet
facet normal 0.999997973442 -0.00199555186555 1.66912741406e-08
outer loop
vertex -0.577783763409 -4.3005862236 -34.0661239624
vertex -0.577883541584 -4.35058641434 -34.0661239624
vertex -0.577783703804 -4.3005862236 -37.6371231079
endloop
endfacet
facet normal 0.0 0.0 1.0
outer loop
vertex -6.70056009293 -4.07997894287 -34.0661239624
vertex -9.75277900696 -3.8136279583 -34.0661239624
vertex -9.75797176361 -3.86335754395 -34.0661239624
endloop
endfacet
facet normal 0.0 -0.0 1.0
outer loop
vertex -6.70405912399 -4.12985658646 -34.0661239624
vertex -6.70056009293 -4.07997894287 -34.0661239624
vertex -9.75797176361 -3.86335754395 -34.0661239624
endloop
endfacet
facet normal 0.0 0.0 1.0
outer loop
vertex -3.6410484314 -4.24236106873 -34.0661239624
vertex -6.70056009293 -4.07997894287 -34.0661239624
vertex -6.70405912399 -4.12985658646 -34.0661239624
endloop
endfacet
facet normal 0.0 -0.0 1.0
outer loop
vertex -3.64284873009 -4.29232883453 -34.0661239624
vertex -3.6410484314 -4.24236106873 -34.0661239624
vertex -6.70405912399 -4.12985658646 -34.0661239624
endloop
endfacet
facet normal 0.0 0.0 1.0
outer loop
vertex -0.577783763409 -4.3005862236 -34.0661239624
vertex -3.6410484314 -4.24236106873 -34.0661239624
vertex -3.64284873009 -4.29232883453 -34.0661239624
endloop
endfacet
facet normal 0.0 -0.0 1.0
outer loop
vertex -0.577883541584 -4.35058641434 -34.0661239624
vertex -0.577783763409 -4.3005862236 -34.0661239624
vertex -3.64284873009 -4.29232883453 -34.0661239624
endloop
endfacet
facet normal 0.0 -0.0 -1.0
outer loop
vertex -9.75277900696 -3.8136279583 -37.6371231079
vertex -6.70056009293 -4.07997894287 -37.6371231079
vertex -9.75797176361 -3.86335730553 -37.6371231079
endloop
endfacet
facet normal -0.0 0.0 -1.0
outer loop
vertex -6.70056009293 -4.07997894287 -37.6371231079
vertex -6.70405912399 -4.12985658646 -37.6371231079
vertex -9.75797176361 -3.86335730553 -37.6371231079
endloop
endfacet
facet normal 0.0 -0.0 -1.0
outer loop
vertex -6.70056009293 -4.07997894287 -37.6371231079
vertex -3.6410484314 -4.24236106873 -37.6371231079
vertex -6.70405912399 -4.12985658646 -37.6371231079
endloop
endfacet
facet normal -0.0 0.0 -1.0
outer loop
vertex -3.6410484314 -4.24236106873 -37.6371231079
vertex -3.64284873009 -4.29232883453 -37.6371231079
vertex -6.70405912399 -4.12985658646 -37.6371231079
endloop
endfacet
facet normal 0.0 -0.0 -1.0
outer loop
vertex -3.6410484314 -4.24236106873 -37.6371231079
vertex -0.577783703804 -4.3005862236 -37.6371231079
vertex -3.64284873009 -4.29232883453 -37.6371231079
endloop
endfacet
facet normal -0.0 0.0 -1.0
outer loop
vertex -0.577783703804 -4.3005862236 -37.6371231079
vertex -0.577883481979 -4.3505859375 -37.6371231079
vertex -3.64284873009 -4.29232883453 -37.6371231079
endloop
endfacet
