solid 
facet normal 0.0190041512251 -0.999819397926 -1.33823263582e-07
outer loop
vertex 0.577893674374 -4.35058689117 -91.8221206665
vertex 0.577893614769 -4.35058641434 -95.3931274414
vertex 3.64285874367 -4.29232883453 -95.3931274414
endloop
endfacet
facet normal 0.0530000701547 -0.998594522476 -3.53855433843e-09
outer loop
vertex 3.64285898209 -4.29232883453 -91.8221206665
vertex 3.64285874367 -4.29232883453 -95.3931274414
vertex 6.70406913757 -4.12985610962 -95.3931274414
endloop
endfacet
facet normal 0.019004303962 -0.999819397926 -1.26882404583e-09
outer loop
vertex 3.64285898209 -4.29232883453 -91.8221206665
vertex 0.577893674374 -4.35058689117 -91.8221206665
vertex 3.64285874367 -4.29232883453 -95.3931274414
endloop
endfacet
facet normal 0.0869345515966 -0.996214032173 0.0
outer loop
vertex 6.70406913757 -4.12985610962 -91.8221206665
vertex 6.70406913757 -4.12985610962 -95.3931274414
vertex 9.75798225403 -3.86335659027 -95.3931274414
endloop
endfacet
facet normal 0.05300007388 -0.998594522476 0.0
outer loop
vertex 6.70406913757 -4.12985610962 -91.8221206665
vertex 3.64285898209 -4.29232883453 -91.8221206665
vertex 6.70406913757 -4.12985610962 -95.3931274414
endloop
endfacet
facet normal 0.0869344770908 -0.996214032173 -6.65123209842e-08
outer loop
vertex 9.75798225403 -3.86335682869 -91.8221206665
vertex 6.70406913757 -4.12985610962 -91.8221206665
vertex 9.75798225403 -3.86335659027 -95.3931274414
endloop
endfacet
facet normal 0.994590401649 0.103874564171 6.93519464079e-09
outer loop
vertex 9.75798225403 -3.86335682869 -91.8221206665
vertex 9.75798225403 -3.86335659027 -95.3931274414
vertex 9.7527885437 -3.81362724304 -95.3931274414
endloop
endfacet
facet normal 0.994590461254 0.103874072433 0.0
outer loop
vertex 9.7527885437 -3.81362724304 -91.8221206665
vertex 9.75798225403 -3.86335682869 -91.8221206665
vertex 9.7527885437 -3.81362724304 -95.3931274414
endloop
endfacet
facet normal -0.019004272297 0.999819397926 3.17205456346e-10
outer loop
vertex 0.577793836594 -4.30058670044 -95.3931274414
vertex 0.577793896198 -4.30058670044 -91.8221206665
vertex 3.64105844498 -4.24236106873 -95.3931274414
endloop
endfacet
facet normal -0.019004272297 0.999819397926 0.0
outer loop
vertex 0.577793896198 -4.30058670044 -91.8221206665
vertex 3.64105844498 -4.24236106873 -91.8221206665
vertex 3.64105844498 -4.24236106873 -95.3931274414
endloop
endfacet
facet normal -0.0530000813305 0.998594462872 1.33472724428e-07
outer loop
vertex 3.64105844498 -4.24236106873 -95.3931274414
vertex 6.70057010651 -4.07997894287 -91.8221206665
vertex 6.70057010651 -4.07997846603 -95.3931274414
endloop
endfacet
facet normal -0.0869344174862 0.996214032173 1.33024641968e-07
outer loop
vertex 6.70057010651 -4.07997846603 -95.3931274414
vertex 6.70057010651 -4.07997894287 -91.8221206665
vertex 9.7527885437 -3.81362724304 -95.3931274414
endloop
endfacet
facet normal -0.0529999248683 0.998594462872 0.0
outer loop
vertex 3.64105844498 -4.24236106873 -91.8221206665
vertex 6.70057010651 -4.07997894287 -91.8221206665
vertex 3.64105844498 -4.24236106873 -95.3931274414
endloop
endfacet
facet normal -0.0869345739484 0.996214032173 0.0
outer loop
vertex 6.70057010651 -4.07997894287 -91.8221206665
vertex 9.7527885437 -3.81362724304 -91.8221206665
vertex 9.7527885437 -3.81362724304 -95.3931274414
endloop
endfacet
facet normal -0.999997973442 -0.00199557095766 1.66912386135e-08
outer loop
vertex 0.577793896198 -4.30058670044 -91.8221206665
vertex 0.577793836594 -4.30058670044 -95.3931274414
vertex 0.577893614769 -4.35058641434 -95.3931274414
endloop
endfacet
facet normal -0.999998092651 -0.00199555209838 1.64247726531e-08
outer loop
vertex 0.577893674374 -4.35058689117 -91.8221206665
vertex 0.577793896198 -4.30058670044 -91.8221206665
vertex 0.577893614769 -4.35058641434 -95.3931274414
endloop
endfacet
facet normal -0.0 0.0 1.0
outer loop
vertex 6.70057010651 -4.07997894287 -91.8221206665
vertex 6.70406913757 -4.12985610962 -91.8221206665
vertex 9.7527885437 -3.81362724304 -91.8221206665
endloop
endfacet
facet normal 0.0 0.0 1.0
outer loop
vertex 9.7527885437 -3.81362724304 -91.8221206665
vertex 6.70406913757 -4.12985610962 -91.8221206665
vertex 9.75798225403 -3.86335682869 -91.8221206665
endloop
endfacet
facet normal -0.0 0.0 1.0
outer loop
vertex 3.64105844498 -4.24236106873 -91.8221206665
vertex 3.64285898209 -4.29232883453 -91.8221206665
vertex 6.70057010651 -4.07997894287 -91.8221206665
endloop
endfacet
facet normal 0.0 0.0 1.0
outer loop
vertex 6.70057010651 -4.07997894287 -91.8221206665
vertex 3.64285898209 -4.29232883453 -91.8221206665
vertex 6.70406913757 -4.12985610962 -91.8221206665
endloop
endfacet
facet normal -0.0 0.0 1.0
outer loop
vertex 0.577793896198 -4.30058670044 -91.8221206665
vertex 0.577893674374 -4.35058689117 -91.8221206665
vertex 3.64105844498 -4.24236106873 -91.8221206665
endloop
endfacet
facet normal 0.0 0.0 1.0
outer loop
vertex 3.64105844498 -4.24236106873 -91.8221206665
vertex 0.577893674374 -4.35058689117 -91.8221206665
vertex 3.64285898209 -4.29232883453 -91.8221206665
endloop
endfacet
facet normal 0.0 0.0 -1.0
outer loop
vertex 6.70057010651 -4.07997846603 -95.3931274414
vertex 9.7527885437 -3.81362724304 -95.3931274414
vertex 9.75798225403 -3.86335659027 -95.3931274414
endloop
endfacet
facet normal 0.0 0.0 -1.0
outer loop
vertex 6.70406913757 -4.12985610962 -95.3931274414
vertex 6.70057010651 -4.07997846603 -95.3931274414
vertex 9.75798225403 -3.86335659027 -95.3931274414
endloop
endfacet
facet normal 0.0 0.0 -1.0
outer loop
vertex 3.64105844498 -4.24236106873 -95.3931274414
vertex 6.70057010651 -4.07997846603 -95.3931274414
vertex 6.70406913757 -4.12985610962 -95.3931274414
endloop
endfacet
facet normal 0.0 0.0 -1.0
outer loop
vertex 3.64285874367 -4.29232883453 -95.3931274414
vertex 3.64105844498 -4.24236106873 -95.3931274414
vertex 6.70406913757 -4.12985610962 -95.3931274414
endloop
endfacet
facet normal 0.0 0.0 -1.0
outer loop
vertex 0.577793836594 -4.30058670044 -95.3931274414
vertex 3.64105844498 -4.24236106873 -95.3931274414
vertex 3.64285874367 -4.29232883453 -95.3931274414
endloop
endfacet
facet normal 0.0 0.0 -1.0
outer loop
vertex 0.577893614769 -4.35058641434 -95.3931274414
vertex 0.577793836594 -4.30058670044 -95.3931274414
vertex 3.64285874367 -4.29232883453 -95.3931274414
endloop
endfacet
