solid 
facet normal -0.12209007144 -0.992519021034 0.0
outer loop
vertex -9.87732505798 -3.85081362724 -66.5451202393
vertex -9.87732505798 -3.85081362724 -62.9741249084
vertex -12.9199113846 -3.47654414177 -62.9741249084
endloop
endfacet
facet normal -0.155777946115 -0.98779207468 -6.59502319422e-08
outer loop
vertex -12.9199113846 -3.47654390335 -66.5451202393
vertex -12.9199113846 -3.47654414177 -62.9741249084
vertex -15.9480066299 -2.99900388718 -62.9741249084
endloop
endfacet
facet normal -0.122090145946 -0.992519021034 -6.62658337092e-08
outer loop
vertex -12.9199113846 -3.47654390335 -66.5451202393
vertex -9.87732505798 -3.85081362724 -66.5451202393
vertex -12.9199113846 -3.47654414177 -62.9741249084
endloop
endfacet
facet normal -0.189285561442 -0.981922090054 -6.55583249909e-08
outer loop
vertex -15.9480066299 -2.99900364876 -66.5451202393
vertex -15.9480066299 -2.99900388718 -62.9741249084
vertex -18.9581069946 -2.41874551773 -62.9741249084
endloop
endfacet
facet normal -0.155777946115 -0.98779207468 -6.59502319422e-08
outer loop
vertex -15.9480066299 -2.99900364876 -66.5451202393
vertex -12.9199113846 -3.47654390335 -66.5451202393
vertex -15.9480066299 -2.99900388718 -62.9741249084
endloop
endfacet
facet normal -0.189285561442 -0.981922030449 -6.55581828823e-08
outer loop
vertex -18.9581069946 -2.41874527931 -66.5451278687
vertex -15.9480066299 -2.99900364876 -66.5451202393
vertex -18.9581069946 -2.41874551773 -62.9741249084
endloop
endfacet
facet normal -0.978561341763 0.205955699086 1.36920856875e-08
outer loop
vertex -18.9581069946 -2.41874527931 -66.5451278687
vertex -18.9478092194 -2.36981749535 -62.9741249084
vertex -18.9478092194 -2.36981725693 -66.5451278687
endloop
endfacet
facet normal -0.978561341763 0.205955699086 1.37506637188e-08
outer loop
vertex -18.9581069946 -2.41874551773 -62.9741249084
vertex -18.9478092194 -2.36981749535 -62.9741249084
vertex -18.9581069946 -2.41874527931 -66.5451278687
endloop
endfacet
facet normal 0.122090101242 0.992519080639 0.0
outer loop
vertex -9.87206554413 -3.80109095573 -62.9741249084
vertex -12.9129629135 -3.42702913284 -66.5451202393
vertex -12.9129629135 -3.42702913284 -62.9741249084
endloop
endfacet
facet normal 0.155777946115 0.987792134285 0.0
outer loop
vertex -12.9129629135 -3.42702913284 -62.9741249084
vertex -12.9129629135 -3.42702913284 -66.5451202393
vertex -15.9393787384 -2.94975376129 -62.9741249084
endloop
endfacet
facet normal 0.122090101242 0.992519080639 -0.0
outer loop
vertex -9.87206554413 -3.80109095573 -66.5451202393
vertex -12.9129629135 -3.42702913284 -66.5451202393
vertex -9.87206554413 -3.80109095573 -62.9741249084
endloop
endfacet
facet normal 0.189285486937 0.981922090054 0.0
outer loop
vertex -15.9393787384 -2.94975376129 -62.9741249084
vertex -15.9393787384 -2.94975376129 -66.5451202393
vertex -18.9478092194 -2.36981749535 -62.9741249084
endloop
endfacet
facet normal 0.155777946115 0.987792134285 0.0
outer loop
vertex -12.9129629135 -3.42702913284 -66.5451202393
vertex -15.9393787384 -2.94975376129 -66.5451202393
vertex -15.9393787384 -2.94975376129 -62.9741249084
endloop
endfacet
facet normal 0.189285576344 0.981922149658 6.5374472058e-08
outer loop
vertex -15.9393787384 -2.94975376129 -66.5451202393
vertex -18.9478092194 -2.36981725693 -66.5451278687
vertex -18.9478092194 -2.36981749535 -62.9741249084
endloop
endfacet
facet normal 0.994452118874 -0.105190142989 0.0
outer loop
vertex -9.87206554413 -3.80109095573 -66.5451202393
vertex -9.87206554413 -3.80109095573 -62.9741249084
vertex -9.87732505798 -3.85081362724 -66.5451202393
endloop
endfacet
facet normal 0.994452118874 -0.105190142989 0.0
outer loop
vertex -9.87206554413 -3.80109095573 -62.9741249084
vertex -9.87732505798 -3.85081362724 -62.9741249084
vertex -9.87732505798 -3.85081362724 -66.5451202393
endloop
endfacet
facet normal 0.0 -0.0 1.0
outer loop
vertex -15.9480066299 -2.99900388718 -62.9741249084
vertex -15.9393787384 -2.94975376129 -62.9741249084
vertex -18.9478092194 -2.36981749535 -62.9741249084
endloop
endfacet
facet normal 0.0 0.0 1.0
outer loop
vertex -15.9480066299 -2.99900388718 -62.9741249084
vertex -18.9478092194 -2.36981749535 -62.9741249084
vertex -18.9581069946 -2.41874551773 -62.9741249084
endloop
endfacet
facet normal 0.0 -0.0 1.0
outer loop
vertex -12.9199113846 -3.47654414177 -62.9741249084
vertex -12.9129629135 -3.42702913284 -62.9741249084
vertex -15.9393787384 -2.94975376129 -62.9741249084
endloop
endfacet
facet normal 0.0 0.0 1.0
outer loop
vertex -12.9199113846 -3.47654414177 -62.9741249084
vertex -15.9393787384 -2.94975376129 -62.9741249084
vertex -15.9480066299 -2.99900388718 -62.9741249084
endloop
endfacet
facet normal 0.0 -0.0 1.0
outer loop
vertex -9.87732505798 -3.85081362724 -62.9741249084
vertex -9.87206554413 -3.80109095573 -62.9741249084
vertex -12.9129629135 -3.42702913284 -62.9741249084
endloop
endfacet
facet normal 0.0 0.0 1.0
outer loop
vertex -9.87732505798 -3.85081362724 -62.9741249084
vertex -12.9129629135 -3.42702913284 -62.9741249084
vertex -12.9199113846 -3.47654414177 -62.9741249084
endloop
endfacet
facet normal 2.45315982284e-06 -4.29759296594e-07 -1.0
outer loop
vertex -15.9393787384 -2.94975376129 -66.5451202393
vertex -15.9480066299 -2.99900364876 -66.5451202393
vertex -18.9478092194 -2.36981725693 -66.5451278687
endloop
endfacet
facet normal 2.43577392212e-06 -5.12652093221e-07 -1.0
outer loop
vertex -18.9478092194 -2.36981725693 -66.5451278687
vertex -15.9480066299 -2.99900364876 -66.5451202393
vertex -18.9581069946 -2.41874527931 -66.5451278687
endloop
endfacet
facet normal -0.0 0.0 -1.0
outer loop
vertex -12.9129629135 -3.42702913284 -66.5451202393
vertex -12.9199113846 -3.47654390335 -66.5451202393
vertex -15.9393787384 -2.94975376129 -66.5451202393
endloop
endfacet
facet normal 0.0 -0.0 -1.0
outer loop
vertex -15.9393787384 -2.94975376129 -66.5451202393
vertex -12.9199113846 -3.47654390335 -66.5451202393
vertex -15.9480066299 -2.99900364876 -66.5451202393
endloop
endfacet
facet normal -0.0 0.0 -1.0
outer loop
vertex -9.87206554413 -3.80109095573 -66.5451202393
vertex -9.87732505798 -3.85081362724 -66.5451202393
vertex -12.9129629135 -3.42702913284 -66.5451202393
endloop
endfacet
facet normal 0.0 -0.0 -1.0
outer loop
vertex -12.9129629135 -3.42702913284 -66.5451202393
vertex -9.87732505798 -3.85081362724 -66.5451202393
vertex -12.9199113846 -3.47654390335 -66.5451202393
endloop
endfacet
