solid 
facet normal 0.122089967132 0.992519021034 0.0
outer loop
vertex 12.9198989868 3.47654461861 -116.300872803
vertex 9.87731361389 3.85081362724 -116.300872803
vertex 9.87731361389 3.85081362724 -112.729873657
endloop
endfacet
facet normal 0.122089967132 0.992519021034 -0.0
outer loop
vertex 12.9198989868 3.47654461861 -116.300872803
vertex 9.87731361389 3.85081362724 -112.729873657
vertex 12.9198989868 3.47654461861 -112.729873657
endloop
endfacet
facet normal 0.155777797103 0.987792134285 -0.0
outer loop
vertex 15.9479942322 2.99900484085 -116.300872803
vertex 12.9198989868 3.47654461861 -112.729873657
vertex 15.9479942322 2.99900484085 -112.729873657
endloop
endfacet
facet normal 0.155777797103 0.987792134285 0.0
outer loop
vertex 15.9479942322 2.99900484085 -116.300872803
vertex 12.9198989868 3.47654461861 -116.300872803
vertex 12.9198989868 3.47654461861 -112.729873657
endloop
endfacet
facet normal 0.18928527832 0.981922149658 -0.0
outer loop
vertex 18.9580955505 2.41874718666 -116.300872803
vertex 15.9479942322 2.99900484085 -112.729873657
vertex 18.9580955505 2.41874718666 -112.729873657
endloop
endfacet
facet normal 0.18928527832 0.981922149658 0.0
outer loop
vertex 18.9580955505 2.41874718666 -116.300872803
vertex 15.9479942322 2.99900484085 -116.300872803
vertex 15.9479942322 2.99900484085 -112.729873657
endloop
endfacet
facet normal 0.978561341763 -0.205955684185 0.0
outer loop
vertex 18.9580955505 2.41874718666 -116.300872803
vertex 18.9477977753 2.36981916428 -112.729873657
vertex 18.9477977753 2.36981916428 -116.300872803
endloop
endfacet
facet normal 0.978561341763 -0.205955684185 0.0
outer loop
vertex 18.9580955505 2.41874718666 -112.729873657
vertex 18.9477977753 2.36981916428 -112.729873657
vertex 18.9580955505 2.41874718666 -116.300872803
endloop
endfacet
facet normal -0.12208995223 -0.992519080639 -0.0
outer loop
vertex 9.87205410004 3.80109119415 -112.729873657
vertex 9.87205410004 3.80109119415 -116.300872803
vertex 12.9129514694 3.4270298481 -112.729873657
endloop
endfacet
facet normal -0.155777797103 -0.987792134285 -0.0
outer loop
vertex 12.9129514694 3.4270298481 -112.729873657
vertex 12.9129514694 3.4270298481 -116.300872803
vertex 15.9393672943 2.94975495338 -112.729873657
endloop
endfacet
facet normal -0.12208995223 -0.992519080639 0.0
outer loop
vertex 9.87205410004 3.80109119415 -116.300872803
vertex 12.9129514694 3.4270298481 -116.300872803
vertex 12.9129514694 3.4270298481 -112.729873657
endloop
endfacet
facet normal -0.189285337925 -0.981922090054 5.05507138371e-08
outer loop
vertex 15.9393672943 2.94975495338 -112.729873657
vertex 15.9393663406 2.94975495338 -116.300872803
vertex 18.9477977753 2.36981916428 -112.729873657
endloop
endfacet
facet normal -0.155777841806 -0.987792134285 4.35830322942e-08
outer loop
vertex 12.9129514694 3.4270298481 -116.300872803
vertex 15.9393663406 2.94975495338 -116.300872803
vertex 15.9393672943 2.94975495338 -112.729873657
endloop
endfacet
facet normal -0.18928527832 -0.981922090054 0.0
outer loop
vertex 15.9393663406 2.94975495338 -116.300872803
vertex 18.9477977753 2.36981916428 -116.300872803
vertex 18.9477977753 2.36981916428 -112.729873657
endloop
endfacet
facet normal -0.994452118874 0.105190642178 0.0
outer loop
vertex 9.87205410004 3.80109119415 -116.300872803
vertex 9.87205410004 3.80109119415 -112.729873657
vertex 9.87731361389 3.85081362724 -116.300872803
endloop
endfacet
facet normal -0.994452118874 0.105190642178 0.0
outer loop
vertex 9.87205410004 3.80109119415 -112.729873657
vertex 9.87731361389 3.85081362724 -112.729873657
vertex 9.87731361389 3.85081362724 -116.300872803
endloop
endfacet
facet normal 0.0 0.0 1.0
outer loop
vertex 15.9479942322 2.99900484085 -112.729873657
vertex 15.9393672943 2.94975495338 -112.729873657
vertex 18.9477977753 2.36981916428 -112.729873657
endloop
endfacet
facet normal 0.0 0.0 1.0
outer loop
vertex 15.9479942322 2.99900484085 -112.729873657
vertex 18.9477977753 2.36981916428 -112.729873657
vertex 18.9580955505 2.41874718666 -112.729873657
endloop
endfacet
facet normal 0.0 0.0 1.0
outer loop
vertex 12.9198989868 3.47654461861 -112.729873657
vertex 12.9129514694 3.4270298481 -112.729873657
vertex 15.9393672943 2.94975495338 -112.729873657
endloop
endfacet
facet normal 0.0 0.0 1.0
outer loop
vertex 12.9198989868 3.47654461861 -112.729873657
vertex 15.9393672943 2.94975495338 -112.729873657
vertex 15.9479942322 2.99900484085 -112.729873657
endloop
endfacet
facet normal 0.0 0.0 1.0
outer loop
vertex 9.87731361389 3.85081362724 -112.729873657
vertex 9.87205410004 3.80109119415 -112.729873657
vertex 12.9129514694 3.4270298481 -112.729873657
endloop
endfacet
facet normal 0.0 0.0 1.0
outer loop
vertex 9.87731361389 3.85081362724 -112.729873657
vertex 12.9129514694 3.4270298481 -112.729873657
vertex 12.9198989868 3.47654461861 -112.729873657
endloop
endfacet
facet normal 0.0 0.0 -1.0
outer loop
vertex 18.9477977753 2.36981916428 -116.300872803
vertex 15.9393663406 2.94975495338 -116.300872803
vertex 18.9580955505 2.41874718666 -116.300872803
endloop
endfacet
facet normal 0.0 0.0 -1.0
outer loop
vertex 15.9393663406 2.94975495338 -116.300872803
vertex 15.9479942322 2.99900484085 -116.300872803
vertex 18.9580955505 2.41874718666 -116.300872803
endloop
endfacet
facet normal 0.0 0.0 -1.0
outer loop
vertex 15.9393663406 2.94975495338 -116.300872803
vertex 12.9129514694 3.4270298481 -116.300872803
vertex 15.9479942322 2.99900484085 -116.300872803
endloop
endfacet
facet normal 0.0 0.0 -1.0
outer loop
vertex 12.9129514694 3.4270298481 -116.300872803
vertex 12.9198989868 3.47654461861 -116.300872803
vertex 15.9479942322 2.99900484085 -116.300872803
endloop
endfacet
facet normal 0.0 0.0 -1.0
outer loop
vertex 12.9129514694 3.4270298481 -116.300872803
vertex 9.87205410004 3.80109119415 -116.300872803
vertex 12.9198989868 3.47654461861 -116.300872803
endloop
endfacet
facet normal 0.0 0.0 -1.0
outer loop
vertex 9.87205410004 3.80109119415 -116.300872803
vertex 9.87731361389 3.85081362724 -116.300872803
vertex 12.9198989868 3.47654461861 -116.300872803
endloop
endfacet
