solid 
facet normal -0.122090041637 -0.992519080639 0.0
outer loop
vertex -9.87731838226 -3.85081362724 349.294586182
vertex -9.87731838226 -3.85081362724 352.865570068
vertex -12.9199037552 -3.47654438019 352.865570068
endloop
endfacet
facet normal -0.155777797103 -0.98779207468 6.5950445105e-08
outer loop
vertex -12.9199037552 -3.47654461861 349.294586182
vertex -12.9199037552 -3.47654438019 352.865570068
vertex -15.9479990005 -2.99900460243 352.865570068
endloop
endfacet
facet normal -0.122089959681 -0.992519080639 6.6266046872e-08
outer loop
vertex -12.9199037552 -3.47654461861 349.294586182
vertex -9.87731838226 -3.85081362724 349.294586182
vertex -12.9199037552 -3.47654438019 352.865570068
endloop
endfacet
facet normal -0.189285472035 -0.981922149658 5.05509696325e-08
outer loop
vertex -15.9479999542 -2.99900460243 349.294586182
vertex -15.9479990005 -2.99900460243 352.865570068
vertex -18.9580993652 -2.41874647141 352.865570068
endloop
endfacet
facet normal -0.155777826905 -0.987792134285 4.1602348233e-08
outer loop
vertex -15.9479999542 -2.99900460243 349.294586182
vertex -12.9199037552 -3.47654461861 349.294586182
vertex -15.9479990005 -2.99900460243 352.865570068
endloop
endfacet
facet normal -0.18928553164 -0.981922030449 0.0
outer loop
vertex -18.9580993652 -2.41874647141 349.294586182
vertex -15.9479999542 -2.99900460243 349.294586182
vertex -18.9580993652 -2.41874647141 352.865570068
endloop
endfacet
facet normal -0.978561341763 0.205955684185 0.0
outer loop
vertex -18.94780159 -2.36981844902 349.294586182
vertex -18.9580993652 -2.41874647141 349.294586182
vertex -18.9580993652 -2.41874647141 352.865570068
endloop
endfacet
facet normal -0.978561341763 0.205955684185 0.0
outer loop
vertex -18.94780159 -2.36981844902 349.294586182
vertex -18.9580993652 -2.41874647141 352.865570068
vertex -18.94780159 -2.36981844902 352.865570068
endloop
endfacet
facet normal 0.122090026736 0.992519021034 0.0
outer loop
vertex -9.87205886841 -3.80109119415 352.865570068
vertex -12.9129562378 -3.42702960968 349.294586182
vertex -12.9129562378 -3.42702960968 352.865570068
endloop
endfacet
facet normal 0.122090026736 0.992519021034 -0.0
outer loop
vertex -9.87205886841 -3.80109119415 349.294586182
vertex -12.9129562378 -3.42702960968 349.294586182
vertex -9.87205886841 -3.80109119415 352.865570068
endloop
endfacet
facet normal 0.155777856708 0.98779207468 0.0
outer loop
vertex -12.9129562378 -3.42702960968 352.865570068
vertex -15.9393720627 -2.94975447655 349.294586182
vertex -15.9393720627 -2.94975447655 352.865570068
endloop
endfacet
facet normal 0.155777856708 0.98779207468 -0.0
outer loop
vertex -12.9129562378 -3.42702960968 349.294586182
vertex -15.9393720627 -2.94975447655 349.294586182
vertex -12.9129562378 -3.42702960968 352.865570068
endloop
endfacet
facet normal 0.189285472035 0.981922090054 0.0
outer loop
vertex -15.9393720627 -2.94975447655 352.865570068
vertex -18.94780159 -2.36981844902 349.294586182
vertex -18.94780159 -2.36981844902 352.865570068
endloop
endfacet
facet normal 0.189285472035 0.981922090054 -0.0
outer loop
vertex -15.9393720627 -2.94975447655 349.294586182
vertex -18.94780159 -2.36981844902 349.294586182
vertex -15.9393720627 -2.94975447655 352.865570068
endloop
endfacet
facet normal 0.994451999664 -0.105190634727 0.0
outer loop
vertex -9.87205886841 -3.80109119415 349.294586182
vertex -9.87205886841 -3.80109119415 352.865570068
vertex -9.87731838226 -3.85081362724 352.865570068
endloop
endfacet
facet normal 0.994451999664 -0.105190634727 0.0
outer loop
vertex -9.87731838226 -3.85081362724 349.294586182
vertex -9.87205886841 -3.80109119415 349.294586182
vertex -9.87731838226 -3.85081362724 352.865570068
endloop
endfacet
facet normal -0.0 0.0 -1.0
outer loop
vertex -15.9393720627 -2.94975447655 349.294586182
vertex -15.9479999542 -2.99900460243 349.294586182
vertex -18.94780159 -2.36981844902 349.294586182
endloop
endfacet
facet normal 0.0 -0.0 -1.0
outer loop
vertex -18.94780159 -2.36981844902 349.294586182
vertex -15.9479999542 -2.99900460243 349.294586182
vertex -18.9580993652 -2.41874647141 349.294586182
endloop
endfacet
facet normal -0.0 0.0 -1.0
outer loop
vertex -12.9129562378 -3.42702960968 349.294586182
vertex -12.9199037552 -3.47654461861 349.294586182
vertex -15.9393720627 -2.94975447655 349.294586182
endloop
endfacet
facet normal 0.0 -0.0 -1.0
outer loop
vertex -15.9393720627 -2.94975447655 349.294586182
vertex -12.9199037552 -3.47654461861 349.294586182
vertex -15.9479999542 -2.99900460243 349.294586182
endloop
endfacet
facet normal -0.0 0.0 -1.0
outer loop
vertex -9.87205886841 -3.80109119415 349.294586182
vertex -9.87731838226 -3.85081362724 349.294586182
vertex -12.9129562378 -3.42702960968 349.294586182
endloop
endfacet
facet normal 0.0 -0.0 -1.0
outer loop
vertex -12.9129562378 -3.42702960968 349.294586182
vertex -9.87731838226 -3.85081362724 349.294586182
vertex -12.9199037552 -3.47654461861 349.294586182
endloop
endfacet
facet normal 0.0 0.0 1.0
outer loop
vertex -15.9393720627 -2.94975447655 352.865570068
vertex -18.94780159 -2.36981844902 352.865570068
vertex -18.9580993652 -2.41874647141 352.865570068
endloop
endfacet
facet normal 0.0 -0.0 1.0
outer loop
vertex -15.9479990005 -2.99900460243 352.865570068
vertex -15.9393720627 -2.94975447655 352.865570068
vertex -18.9580993652 -2.41874647141 352.865570068
endloop
endfacet
facet normal 0.0 0.0 1.0
outer loop
vertex -12.9129562378 -3.42702960968 352.865570068
vertex -15.9393720627 -2.94975447655 352.865570068
vertex -15.9479990005 -2.99900460243 352.865570068
endloop
endfacet
facet normal 0.0 -0.0 1.0
outer loop
vertex -12.9199037552 -3.47654438019 352.865570068
vertex -12.9129562378 -3.42702960968 352.865570068
vertex -15.9479990005 -2.99900460243 352.865570068
endloop
endfacet
facet normal 0.0 0.0 1.0
outer loop
vertex -9.87205886841 -3.80109119415 352.865570068
vertex -12.9129562378 -3.42702960968 352.865570068
vertex -12.9199037552 -3.47654438019 352.865570068
endloop
endfacet
facet normal 0.0 -0.0 1.0
outer loop
vertex -9.87731838226 -3.85081362724 352.865570068
vertex -9.87205886841 -3.80109119415 352.865570068
vertex -12.9199037552 -3.47654438019 352.865570068
endloop
endfacet
