solid 
facet normal 0.122090265155 0.992519021034 -6.53382770111e-08
outer loop
vertex 12.9199199677 3.47654247284 -199.37387085
vertex 9.87733459473 3.85081243515 -199.37387085
vertex 9.87733459473 3.85081267357 -195.802871704
endloop
endfacet
facet normal 0.122090265155 0.992519021034 -6.62657626549e-08
outer loop
vertex 12.9199199677 3.47654247284 -199.37387085
vertex 9.87733459473 3.85081267357 -195.802871704
vertex 12.9199199677 3.47654271126 -195.802871704
endloop
endfacet
facet normal 0.155778035522 0.987792134285 -6.59501679934e-08
outer loop
vertex 15.948015213 2.99900197983 -199.37387085
vertex 12.9199199677 3.47654271126 -195.802871704
vertex 15.948015213 2.99900221825 -195.802871704
endloop
endfacet
facet normal 0.15577802062 0.987792134285 -6.53382699056e-08
outer loop
vertex 15.948015213 2.99900197983 -199.37387085
vertex 12.9199199677 3.47654247284 -199.37387085
vertex 12.9199199677 3.47654271126 -195.802871704
endloop
endfacet
facet normal 0.189285561442 0.981922149658 -6.55582539366e-08
outer loop
vertex 18.9581165314 2.41874337196 -199.37387085
vertex 15.948015213 2.99900221825 -195.802871704
vertex 18.9581165314 2.41874361038 -195.802871704
endloop
endfacet
facet normal 0.189285576344 0.981922149658 -6.53382556948e-08
outer loop
vertex 18.9581165314 2.41874337196 -199.37387085
vertex 15.948015213 2.99900197983 -199.37387085
vertex 15.948015213 2.99900221825 -195.802871704
endloop
endfacet
facet normal 0.978553652763 -0.205992206931 1.37531177558e-08
outer loop
vertex 18.9581165314 2.41874337196 -199.37387085
vertex 18.9581165314 2.41874361038 -195.802871704
vertex 18.9478168488 2.36981534958 -199.37387085
endloop
endfacet
facet normal 0.978561341763 -0.205955684185 -5.0921573802e-07
outer loop
vertex 18.9581165314 2.41874361038 -195.802871704
vertex 18.9478187561 2.369815588 -195.802871704
vertex 18.9478168488 2.36981534958 -199.37387085
endloop
endfacet
facet normal -0.122090257704 -0.99251896143 6.62657555495e-08
outer loop
vertex 9.87207508087 3.80109000206 -195.802871704
vertex 9.87207508087 3.80108976364 -199.37387085
vertex 12.9129724503 3.42702770233 -195.802871704
endloop
endfacet
facet normal -0.122090168297 -0.99251896143 0.0
outer loop
vertex 9.87207508087 3.80108976364 -199.37387085
vertex 12.9129724503 3.42702770233 -199.37387085
vertex 12.9129724503 3.42702770233 -195.802871704
endloop
endfacet
facet normal -0.155778065324 -0.98779207468 0.0
outer loop
vertex 12.9129724503 3.42702770233 -195.802871704
vertex 15.9393873215 2.94975209236 -199.37387085
vertex 15.9393873215 2.94975209236 -195.802871704
endloop
endfacet
facet normal -0.155778065324 -0.98779207468 0.0
outer loop
vertex 12.9129724503 3.42702770233 -199.37387085
vertex 15.9393873215 2.94975209236 -199.37387085
vertex 12.9129724503 3.42702770233 -195.802871704
endloop
endfacet
facet normal -0.189285501838 -0.981922090054 1.74332058123e-07
outer loop
vertex 15.9393873215 2.94975209236 -195.802871704
vertex 18.9478168488 2.36981534958 -199.37387085
vertex 18.9478187561 2.369815588 -195.802871704
endloop
endfacet
facet normal -0.189285710454 -0.981922090054 0.0
outer loop
vertex 15.9393873215 2.94975209236 -199.37387085
vertex 18.9478168488 2.36981534958 -199.37387085
vertex 15.9393873215 2.94975209236 -195.802871704
endloop
endfacet
facet normal -0.994452178478 0.105190142989 -7.17203718636e-09
outer loop
vertex 9.87207508087 3.80108976364 -199.37387085
vertex 9.87733459473 3.85081267357 -195.802871704
vertex 9.87733459473 3.85081243515 -199.37387085
endloop
endfacet
facet normal -0.994452178478 0.105190142989 -7.02304392419e-09
outer loop
vertex 9.87207508087 3.80109000206 -195.802871704
vertex 9.87733459473 3.85081267357 -195.802871704
vertex 9.87207508087 3.80108976364 -199.37387085
endloop
endfacet
facet normal 0.0 0.0 1.0
outer loop
vertex 15.9393873215 2.94975209236 -195.802871704
vertex 18.9478187561 2.369815588 -195.802871704
vertex 18.9581165314 2.41874361038 -195.802871704
endloop
endfacet
facet normal 0.0 0.0 1.0
outer loop
vertex 15.948015213 2.99900221825 -195.802871704
vertex 15.9393873215 2.94975209236 -195.802871704
vertex 18.9581165314 2.41874361038 -195.802871704
endloop
endfacet
facet normal 0.0 0.0 1.0
outer loop
vertex 12.9129724503 3.42702770233 -195.802871704
vertex 15.9393873215 2.94975209236 -195.802871704
vertex 15.948015213 2.99900221825 -195.802871704
endloop
endfacet
facet normal 0.0 0.0 1.0
outer loop
vertex 12.9199199677 3.47654271126 -195.802871704
vertex 12.9129724503 3.42702770233 -195.802871704
vertex 15.948015213 2.99900221825 -195.802871704
endloop
endfacet
facet normal 0.0 0.0 1.0
outer loop
vertex 9.87207508087 3.80109000206 -195.802871704
vertex 12.9129724503 3.42702770233 -195.802871704
vertex 12.9199199677 3.47654271126 -195.802871704
endloop
endfacet
facet normal 0.0 0.0 1.0
outer loop
vertex 9.87733459473 3.85081267357 -195.802871704
vertex 9.87207508087 3.80109000206 -195.802871704
vertex 12.9199199677 3.47654271126 -195.802871704
endloop
endfacet
facet normal 0.0 0.0 -1.0
outer loop
vertex 18.9478168488 2.36981534958 -199.37387085
vertex 15.9393873215 2.94975209236 -199.37387085
vertex 18.9581165314 2.41874337196 -199.37387085
endloop
endfacet
facet normal 0.0 0.0 -1.0
outer loop
vertex 15.9393873215 2.94975209236 -199.37387085
vertex 15.948015213 2.99900197983 -199.37387085
vertex 18.9581165314 2.41874337196 -199.37387085
endloop
endfacet
facet normal 0.0 0.0 -1.0
outer loop
vertex 15.9393873215 2.94975209236 -199.37387085
vertex 12.9129724503 3.42702770233 -199.37387085
vertex 15.948015213 2.99900197983 -199.37387085
endloop
endfacet
facet normal 0.0 0.0 -1.0
outer loop
vertex 12.9129724503 3.42702770233 -199.37387085
vertex 12.9199199677 3.47654247284 -199.37387085
vertex 15.948015213 2.99900197983 -199.37387085
endloop
endfacet
facet normal 0.0 0.0 -1.0
outer loop
vertex 12.9129724503 3.42702770233 -199.37387085
vertex 9.87207508087 3.80108976364 -199.37387085
vertex 12.9199199677 3.47654247284 -199.37387085
endloop
endfacet
facet normal 0.0 0.0 -1.0
outer loop
vertex 9.87207508087 3.80108976364 -199.37387085
vertex 9.87733459473 3.85081243515 -199.37387085
vertex 12.9199199677 3.47654247284 -199.37387085
endloop
endfacet
