solid 
facet normal -0.0190043058246 0.999819397926 0.0
outer loop
vertex -0.577899336815 4.35058689117 -421.534576416
vertex -0.577899336815 4.35058689117 -425.105560303
vertex -3.64286446571 4.29232883453 -425.105560303
endloop
endfacet
facet normal -0.0530002266169 0.998594522476 0.0
outer loop
vertex -3.64286446571 4.29232883453 -421.534576416
vertex -3.64286446571 4.29232883453 -425.105560303
vertex -6.70407485962 4.12985563278 -425.105560303
endloop
endfacet
facet normal -0.0190043058246 0.999819397926 0.0
outer loop
vertex -3.64286446571 4.29232883453 -421.534576416
vertex -0.577899336815 4.35058689117 -421.534576416
vertex -3.64286446571 4.29232883453 -425.105560303
endloop
endfacet
facet normal -0.0869344696403 0.996214032173 -1.33025480409e-07
outer loop
vertex -6.70407485962 4.12985610962 -421.534576416
vertex -6.70407485962 4.12985563278 -425.105560303
vertex -9.75798797607 3.86335635185 -425.105560303
endloop
endfacet
facet normal -0.05300007388 0.998594522476 -1.33343363018e-07
outer loop
vertex -6.70407485962 4.12985610962 -421.534576416
vertex -3.64286446571 4.29232883453 -421.534576416
vertex -6.70407485962 4.12985563278 -425.105560303
endloop
endfacet
facet normal -0.0869346261024 0.996214032173 0.0
outer loop
vertex -9.75798797607 3.86335635185 -421.534576416
vertex -6.70407485962 4.12985610962 -421.534576416
vertex -9.75798797607 3.86335635185 -425.105560303
endloop
endfacet
facet normal -0.994590401649 -0.103874072433 -0.0
outer loop
vertex -9.75798797607 3.86335635185 -421.534576416
vertex -9.75798797607 3.86335635185 -425.105560303
vertex -9.75279426575 3.8136267662 -425.105560303
endloop
endfacet
facet normal -0.994590401649 -0.103874072433 -0.0
outer loop
vertex -9.75279426575 3.8136267662 -421.534576416
vertex -9.75798797607 3.86335635185 -421.534576416
vertex -9.75279426575 3.8136267662 -425.105560303
endloop
endfacet
facet normal 0.0190044287592 -0.999819397926 3.17210119283e-10
outer loop
vertex -0.577799499035 4.30058717728 -425.105560303
vertex -0.57779955864 4.30058717728 -421.534576416
vertex -3.64106416702 4.24236106873 -425.105560303
endloop
endfacet
facet normal 0.019004272297 -0.999819397926 1.33473591291e-07
outer loop
vertex -0.57779955864 4.30058717728 -421.534576416
vertex -3.64106416702 4.24236154556 -421.534576416
vertex -3.64106416702 4.24236106873 -425.105560303
endloop
endfacet
facet normal 0.0530000850558 -0.998594522476 0.0
outer loop
vertex -3.64106416702 4.24236106873 -425.105560303
vertex -6.70057582855 4.07997846603 -421.534576416
vertex -6.70057582855 4.07997846603 -425.105560303
endloop
endfacet
facet normal 0.0869345664978 -0.996214032173 0.0
outer loop
vertex -6.70057582855 4.07997846603 -425.105560303
vertex -6.70057582855 4.07997846603 -421.534576416
vertex -9.75279426575 3.8136267662 -425.105560303
endloop
endfacet
facet normal 0.053000241518 -0.998594522476 1.33343363018e-07
outer loop
vertex -3.64106416702 4.24236154556 -421.534576416
vertex -6.70057582855 4.07997846603 -421.534576416
vertex -3.64106416702 4.24236106873 -425.105560303
endloop
endfacet
facet normal 0.0869345664978 -0.996214032173 0.0
outer loop
vertex -6.70057582855 4.07997846603 -421.534576416
vertex -9.75279426575 3.8136267662 -421.534576416
vertex -9.75279426575 3.8136267662 -425.105560303
endloop
endfacet
facet normal 0.999997973442 0.00199676305056 1.66913451949e-08
outer loop
vertex -0.57779955864 4.30058717728 -421.534576416
vertex -0.577799499035 4.30058717728 -425.105560303
vertex -0.577899336815 4.35058689117 -425.105560303
endloop
endfacet
facet normal 0.999997973442 0.00199557095766 0.0
outer loop
vertex -0.577899336815 4.35058689117 -421.534576416
vertex -0.57779955864 4.30058717728 -421.534576416
vertex -0.577899336815 4.35058689117 -425.105560303
endloop
endfacet
facet normal 0.0 0.0 1.0
outer loop
vertex -6.70057582855 4.07997846603 -421.534576416
vertex -6.70407485962 4.12985610962 -421.534576416
vertex -9.75279426575 3.8136267662 -421.534576416
endloop
endfacet
facet normal 0.0 -0.0 1.0
outer loop
vertex -9.75279426575 3.8136267662 -421.534576416
vertex -6.70407485962 4.12985610962 -421.534576416
vertex -9.75798797607 3.86335635185 -421.534576416
endloop
endfacet
facet normal 0.0 0.0 1.0
outer loop
vertex -3.64106416702 4.24236154556 -421.534576416
vertex -3.64286446571 4.29232883453 -421.534576416
vertex -6.70057582855 4.07997846603 -421.534576416
endloop
endfacet
facet normal 0.0 -0.0 1.0
outer loop
vertex -6.70057582855 4.07997846603 -421.534576416
vertex -3.64286446571 4.29232883453 -421.534576416
vertex -6.70407485962 4.12985610962 -421.534576416
endloop
endfacet
facet normal 0.0 0.0 1.0
outer loop
vertex -0.57779955864 4.30058717728 -421.534576416
vertex -0.577899336815 4.35058689117 -421.534576416
vertex -3.64106416702 4.24236154556 -421.534576416
endloop
endfacet
facet normal 0.0 -0.0 1.0
outer loop
vertex -3.64106416702 4.24236154556 -421.534576416
vertex -0.577899336815 4.35058689117 -421.534576416
vertex -3.64286446571 4.29232883453 -421.534576416
endloop
endfacet
facet normal 0.0 0.0 -1.0
outer loop
vertex -6.70057582855 4.07997846603 -425.105560303
vertex -9.75279426575 3.8136267662 -425.105560303
vertex -9.75798797607 3.86335635185 -425.105560303
endloop
endfacet
facet normal 0.0 -0.0 -1.0
outer loop
vertex -6.70407485962 4.12985563278 -425.105560303
vertex -6.70057582855 4.07997846603 -425.105560303
vertex -9.75798797607 3.86335635185 -425.105560303
endloop
endfacet
facet normal 0.0 0.0 -1.0
outer loop
vertex -3.64106416702 4.24236106873 -425.105560303
vertex -6.70057582855 4.07997846603 -425.105560303
vertex -6.70407485962 4.12985563278 -425.105560303
endloop
endfacet
facet normal 0.0 -0.0 -1.0
outer loop
vertex -3.64286446571 4.29232883453 -425.105560303
vertex -3.64106416702 4.24236106873 -425.105560303
vertex -6.70407485962 4.12985563278 -425.105560303
endloop
endfacet
facet normal 0.0 0.0 -1.0
outer loop
vertex -0.577799499035 4.30058717728 -425.105560303
vertex -3.64106416702 4.24236106873 -425.105560303
vertex -3.64286446571 4.29232883453 -425.105560303
endloop
endfacet
facet normal 0.0 -0.0 -1.0
outer loop
vertex -0.577899336815 4.35058689117 -425.105560303
vertex -0.577799499035 4.30058717728 -425.105560303
vertex -3.64286446571 4.29232883453 -425.105560303
endloop
endfacet
