solid 
facet normal -0.122090190649 -0.992519021034 -6.53382770111e-08
outer loop
vertex -12.919916153 -3.4765431881 -95.3931274414
vertex -9.87733078003 -3.85081291199 -95.3931274414
vertex -9.87733078003 -3.85081315041 -91.8221282959
endloop
endfacet
facet normal -0.122090190649 -0.992519021034 -6.62657626549e-08
outer loop
vertex -12.919916153 -3.4765431881 -95.3931274414
vertex -9.87733078003 -3.85081315041 -91.8221282959
vertex -12.919916153 -3.47654342651 -91.8221282959
endloop
endfacet
facet normal -0.155778035522 -0.987792134285 -6.59501679934e-08
outer loop
vertex -15.9480113983 -2.99900269508 -95.3931274414
vertex -12.919916153 -3.47654342651 -91.8221282959
vertex -15.9480113983 -2.9990029335 -91.8221282959
endloop
endfacet
facet normal -0.15577802062 -0.987792134285 -6.53382699056e-08
outer loop
vertex -15.9480113983 -2.99900269508 -95.3931274414
vertex -12.919916153 -3.4765431881 -95.3931274414
vertex -12.919916153 -3.47654342651 -91.8221282959
endloop
endfacet
facet normal -0.189285561442 -0.981922149658 -6.55582539366e-08
outer loop
vertex -18.9581127167 -2.41874408722 -95.3931274414
vertex -15.9480113983 -2.9990029335 -91.8221282959
vertex -18.9581127167 -2.41874432564 -91.8221282959
endloop
endfacet
facet normal -0.189285576344 -0.981922149658 -6.53382556948e-08
outer loop
vertex -18.9581127167 -2.41874408722 -95.3931274414
vertex -15.9480113983 -2.99900269508 -95.3931274414
vertex -15.9480113983 -2.9990029335 -91.8221282959
endloop
endfacet
facet normal -0.978561341763 0.205955684185 1.37506788178e-08
outer loop
vertex -18.9581127167 -2.41874408722 -95.3931274414
vertex -18.9581127167 -2.41874432564 -91.8221282959
vertex -18.9478149414 -2.36981606483 -95.3931274414
endloop
endfacet
facet normal -0.978561341763 0.205955684185 1.36921007865e-08
outer loop
vertex -18.9581127167 -2.41874432564 -91.8221282959
vertex -18.9478149414 -2.36981630325 -91.8221282959
vertex -18.9478149414 -2.36981606483 -95.3931274414
endloop
endfacet
facet normal 0.122090168297 0.99251896143 6.62657555495e-08
outer loop
vertex -9.87207126617 -3.8010904789 -91.8221282959
vertex -9.87207126617 -3.80109024048 -95.3931274414
vertex -12.9129686356 -3.42702841759 -91.8221282959
endloop
endfacet
facet normal 0.155778065324 0.98779207468 6.5950160888e-08
outer loop
vertex -12.9129686356 -3.42702841759 -91.8221282959
vertex -12.9129686356 -3.42702817917 -95.3931274414
vertex -15.9393835068 -2.94975280762 -91.8221282959
endloop
endfacet
facet normal 0.122090168297 0.99251896143 6.53745431123e-08
outer loop
vertex -9.87207126617 -3.80109024048 -95.3931274414
vertex -12.9129686356 -3.42702817917 -95.3931274414
vertex -12.9129686356 -3.42702841759 -91.8221282959
endloop
endfacet
facet normal 0.189285501838 0.981922090054 6.55582539366e-08
outer loop
vertex -15.9393835068 -2.94975280762 -91.8221282959
vertex -15.9393835068 -2.9497525692 -95.3931274414
vertex -18.9478149414 -2.36981630325 -91.8221282959
endloop
endfacet
facet normal 0.155778065324 0.98779207468 6.53745431123e-08
outer loop
vertex -12.9129686356 -3.42702817917 -95.3931274414
vertex -15.9393835068 -2.9497525692 -95.3931274414
vertex -15.9393835068 -2.94975280762 -91.8221282959
endloop
endfacet
facet normal 0.189285501838 0.981922090054 6.5374521796e-08
outer loop
vertex -15.9393835068 -2.9497525692 -95.3931274414
vertex -18.9478149414 -2.36981606483 -95.3931274414
vertex -18.9478149414 -2.36981630325 -91.8221282959
endloop
endfacet
facet normal 0.994452178478 -0.105190142989 -7.02304392419e-09
outer loop
vertex -9.87207126617 -3.80109024048 -95.3931274414
vertex -9.87207126617 -3.8010904789 -91.8221282959
vertex -9.87733078003 -3.85081291199 -95.3931274414
endloop
endfacet
facet normal 0.994452178478 -0.105190142989 -7.00903646234e-09
outer loop
vertex -9.87207126617 -3.8010904789 -91.8221282959
vertex -9.87733078003 -3.85081315041 -91.8221282959
vertex -9.87733078003 -3.85081291199 -95.3931274414
endloop
endfacet
facet normal 0.0 -0.0 1.0
outer loop
vertex -15.9480113983 -2.9990029335 -91.8221282959
vertex -15.9393835068 -2.94975280762 -91.8221282959
vertex -18.9478149414 -2.36981630325 -91.8221282959
endloop
endfacet
facet normal 0.0 0.0 1.0
outer loop
vertex -15.9480113983 -2.9990029335 -91.8221282959
vertex -18.9478149414 -2.36981630325 -91.8221282959
vertex -18.9581127167 -2.41874432564 -91.8221282959
endloop
endfacet
facet normal 0.0 -0.0 1.0
outer loop
vertex -12.919916153 -3.47654342651 -91.8221282959
vertex -12.9129686356 -3.42702841759 -91.8221282959
vertex -15.9393835068 -2.94975280762 -91.8221282959
endloop
endfacet
facet normal 0.0 0.0 1.0
outer loop
vertex -12.919916153 -3.47654342651 -91.8221282959
vertex -15.9393835068 -2.94975280762 -91.8221282959
vertex -15.9480113983 -2.9990029335 -91.8221282959
endloop
endfacet
facet normal 0.0 -0.0 1.0
outer loop
vertex -9.87733078003 -3.85081315041 -91.8221282959
vertex -9.87207126617 -3.8010904789 -91.8221282959
vertex -12.9129686356 -3.42702841759 -91.8221282959
endloop
endfacet
facet normal 0.0 0.0 1.0
outer loop
vertex -9.87733078003 -3.85081315041 -91.8221282959
vertex -12.9129686356 -3.42702841759 -91.8221282959
vertex -12.919916153 -3.47654342651 -91.8221282959
endloop
endfacet
facet normal 0.0 -0.0 -1.0
outer loop
vertex -18.9478149414 -2.36981606483 -95.3931274414
vertex -15.9393835068 -2.9497525692 -95.3931274414
vertex -18.9581127167 -2.41874408722 -95.3931274414
endloop
endfacet
facet normal -0.0 0.0 -1.0
outer loop
vertex -15.9393835068 -2.9497525692 -95.3931274414
vertex -15.9480113983 -2.99900269508 -95.3931274414
vertex -18.9581127167 -2.41874408722 -95.3931274414
endloop
endfacet
facet normal 0.0 -0.0 -1.0
outer loop
vertex -15.9393835068 -2.9497525692 -95.3931274414
vertex -12.9129686356 -3.42702817917 -95.3931274414
vertex -15.9480113983 -2.99900269508 -95.3931274414
endloop
endfacet
facet normal -0.0 0.0 -1.0
outer loop
vertex -12.9129686356 -3.42702817917 -95.3931274414
vertex -12.919916153 -3.4765431881 -95.3931274414
vertex -15.9480113983 -2.99900269508 -95.3931274414
endloop
endfacet
facet normal 0.0 -0.0 -1.0
outer loop
vertex -12.9129686356 -3.42702817917 -95.3931274414
vertex -9.87207126617 -3.80109024048 -95.3931274414
vertex -12.919916153 -3.4765431881 -95.3931274414
endloop
endfacet
facet normal -0.0 0.0 -1.0
outer loop
vertex -9.87207126617 -3.80109024048 -95.3931274414
vertex -9.87733078003 -3.85081291199 -95.3931274414
vertex -12.919916153 -3.4765431881 -95.3931274414
endloop
endfacet
