solid 
facet normal -0.0190043058246 -0.999819397926 -1.33398387447e-07
outer loop
vertex -3.64286446571 -4.2923283577 -327.883911133
vertex -0.577899217606 -4.35058641434 -327.883911133
vertex -0.57789927721 -4.35058689117 -324.312896729
endloop
endfacet
facet normal -0.0190043058246 -0.999819397926 -1.33505778876e-07
outer loop
vertex -3.64286446571 -4.2923283577 -327.883911133
vertex -0.57789927721 -4.35058689117 -324.312896729
vertex -3.64286446571 -4.29232883453 -324.312896729
endloop
endfacet
facet normal -0.0530002228916 -0.998594462872 0.0
outer loop
vertex -6.70407485962 -4.12985563278 -327.883911133
vertex -3.64286446571 -4.29232883453 -324.312896729
vertex -6.70407485962 -4.12985563278 -324.312896729
endloop
endfacet
facet normal -0.0530000701547 -0.998594462872 -1.33398387447e-07
outer loop
vertex -6.70407485962 -4.12985563278 -327.883911133
vertex -3.64286446571 -4.2923283577 -327.883911133
vertex -3.64286446571 -4.29232883453 -324.312896729
endloop
endfacet
facet normal -0.0869345441461 -0.996213972569 -6.65121646648e-08
outer loop
vertex -9.75798797607 -3.86335587502 -327.883911133
vertex -6.70407485962 -4.12985563278 -324.312896729
vertex -9.75798797607 -3.86335611343 -324.312896729
endloop
endfacet
facet normal -0.0869346186519 -0.996213972569 0.0
outer loop
vertex -9.75798797607 -3.86335587502 -327.883911133
vertex -6.70407485962 -4.12985563278 -327.883911133
vertex -6.70407485962 -4.12985563278 -324.312896729
endloop
endfacet
facet normal -0.994590461254 0.103874072433 6.93514712324e-09
outer loop
vertex -9.75798797607 -3.86335587502 -327.883911133
vertex -9.75798797607 -3.86335611343 -324.312896729
vertex -9.75279426575 -3.81362628937 -327.883911133
endloop
endfacet
facet normal -0.994590461254 0.103874072433 6.84600642842e-09
outer loop
vertex -9.75798797607 -3.86335611343 -324.312896729
vertex -9.75279426575 -3.81362652779 -324.312896729
vertex -9.75279426575 -3.81362628937 -327.883911133
endloop
endfacet
facet normal 0.019004272297 0.999819397926 0.0
outer loop
vertex -0.577799499035 -4.30058670044 -324.312896729
vertex -3.64106416702 -4.24236106873 -327.883911133
vertex -3.64106416702 -4.24236106873 -324.312896729
endloop
endfacet
facet normal 0.0530000887811 0.998594522476 0.0
outer loop
vertex -3.64106416702 -4.24236106873 -324.312896729
vertex -3.64106416702 -4.24236106873 -327.883911133
vertex -6.70057582855 -4.07997846603 -324.312896729
endloop
endfacet
facet normal 0.019004272297 0.999819397926 3.17204790212e-10
outer loop
vertex -0.57779943943 -4.30058670044 -327.883911133
vertex -3.64106416702 -4.24236106873 -327.883911133
vertex -0.577799499035 -4.30058670044 -324.312896729
endloop
endfacet
facet normal 0.053000241518 0.998594522476 1.33472454422e-07
outer loop
vertex -3.64106416702 -4.24236106873 -327.883911133
vertex -6.70057582855 -4.0799779892 -327.883911133
vertex -6.70057582855 -4.07997846603 -324.312896729
endloop
endfacet
facet normal 0.0869346484542 0.996214032173 6.53742588952e-08
outer loop
vertex -6.70057582855 -4.07997846603 -324.312896729
vertex -9.75279426575 -3.81362628937 -327.883911133
vertex -9.75279426575 -3.81362652779 -324.312896729
endloop
endfacet
facet normal 0.0869345739484 0.996214032173 1.3302434354e-07
outer loop
vertex -6.70057582855 -4.0799779892 -327.883911133
vertex -9.75279426575 -3.81362628937 -327.883911133
vertex -6.70057582855 -4.07997846603 -324.312896729
endloop
endfacet
facet normal 0.999997973442 -0.00199557095766 1.66912030863e-08
outer loop
vertex -0.57779943943 -4.30058670044 -327.883911133
vertex -0.577799499035 -4.30058670044 -324.312896729
vertex -0.577899217606 -4.35058641434 -327.883911133
endloop
endfacet
facet normal 0.999997973442 -0.00199555186555 1.64247371259e-08
outer loop
vertex -0.577799499035 -4.30058670044 -324.312896729
vertex -0.57789927721 -4.35058689117 -324.312896729
vertex -0.577899217606 -4.35058641434 -327.883911133
endloop
endfacet
facet normal 0.0 -0.0 1.0
outer loop
vertex -6.70407485962 -4.12985563278 -324.312896729
vertex -6.70057582855 -4.07997846603 -324.312896729
vertex -9.75279426575 -3.81362652779 -324.312896729
endloop
endfacet
facet normal 0.0 0.0 1.0
outer loop
vertex -6.70407485962 -4.12985563278 -324.312896729
vertex -9.75279426575 -3.81362652779 -324.312896729
vertex -9.75798797607 -3.86335611343 -324.312896729
endloop
endfacet
facet normal 0.0 -0.0 1.0
outer loop
vertex -3.64286446571 -4.29232883453 -324.312896729
vertex -3.64106416702 -4.24236106873 -324.312896729
vertex -6.70057582855 -4.07997846603 -324.312896729
endloop
endfacet
facet normal 0.0 0.0 1.0
outer loop
vertex -3.64286446571 -4.29232883453 -324.312896729
vertex -6.70057582855 -4.07997846603 -324.312896729
vertex -6.70407485962 -4.12985563278 -324.312896729
endloop
endfacet
facet normal 0.0 -0.0 1.0
outer loop
vertex -0.57789927721 -4.35058689117 -324.312896729
vertex -0.577799499035 -4.30058670044 -324.312896729
vertex -3.64106416702 -4.24236106873 -324.312896729
endloop
endfacet
facet normal 0.0 0.0 1.0
outer loop
vertex -0.57789927721 -4.35058689117 -324.312896729
vertex -3.64106416702 -4.24236106873 -324.312896729
vertex -3.64286446571 -4.29232883453 -324.312896729
endloop
endfacet
facet normal 0.0 -0.0 -1.0
outer loop
vertex -9.75279426575 -3.81362628937 -327.883911133
vertex -6.70057582855 -4.0799779892 -327.883911133
vertex -9.75798797607 -3.86335587502 -327.883911133
endloop
endfacet
facet normal -0.0 0.0 -1.0
outer loop
vertex -6.70057582855 -4.0799779892 -327.883911133
vertex -6.70407485962 -4.12985563278 -327.883911133
vertex -9.75798797607 -3.86335587502 -327.883911133
endloop
endfacet
facet normal 0.0 -0.0 -1.0
outer loop
vertex -6.70057582855 -4.0799779892 -327.883911133
vertex -3.64106416702 -4.24236106873 -327.883911133
vertex -6.70407485962 -4.12985563278 -327.883911133
endloop
endfacet
facet normal -0.0 0.0 -1.0
outer loop
vertex -3.64106416702 -4.24236106873 -327.883911133
vertex -3.64286446571 -4.2923283577 -327.883911133
vertex -6.70407485962 -4.12985563278 -327.883911133
endloop
endfacet
facet normal 0.0 -0.0 -1.0
outer loop
vertex -3.64106416702 -4.24236106873 -327.883911133
vertex -0.57779943943 -4.30058670044 -327.883911133
vertex -3.64286446571 -4.2923283577 -327.883911133
endloop
endfacet
facet normal -0.0 0.0 -1.0
outer loop
vertex -0.57779943943 -4.30058670044 -327.883911133
vertex -0.577899217606 -4.35058641434 -327.883911133
vertex -3.64286446571 -4.2923283577 -327.883911133
endloop
endfacet
