solid 
facet normal 0.12209007144 0.992519021034 -0.0
outer loop
vertex 9.87732505798 3.85081362724 -381.77355957
vertex 9.87732505798 3.85081362724 -378.202575684
vertex 12.9199113846 3.47654414177 -378.202575684
endloop
endfacet
facet normal 0.155777946115 0.98779207468 -6.5950445105e-08
outer loop
vertex 12.9199113846 3.47654390335 -381.77355957
vertex 12.9199113846 3.47654414177 -378.202575684
vertex 15.9480066299 2.99900388718 -378.202575684
endloop
endfacet
facet normal 0.122090145946 0.992519021034 -6.6266046872e-08
outer loop
vertex 12.9199113846 3.47654390335 -381.77355957
vertex 9.87732505798 3.85081362724 -381.77355957
vertex 12.9199113846 3.47654414177 -378.202575684
endloop
endfacet
facet normal 0.189285576344 0.981922149658 -6.55585381537e-08
outer loop
vertex 15.9480066299 2.99900364876 -381.77355957
vertex 15.9480066299 2.99900388718 -378.202575684
vertex 18.9581069946 2.41874551773 -378.202575684
endloop
endfacet
facet normal 0.155777946115 0.98779207468 -6.5950445105e-08
outer loop
vertex 15.9480066299 2.99900364876 -381.77355957
vertex 12.9199113846 3.47654390335 -381.77355957
vertex 15.9480066299 2.99900388718 -378.202575684
endloop
endfacet
facet normal 0.189285561442 0.981922149658 -6.55585381537e-08
outer loop
vertex 18.9581069946 2.41874527931 -381.77355957
vertex 15.9480066299 2.99900364876 -381.77355957
vertex 18.9581069946 2.41874551773 -378.202575684
endloop
endfacet
facet normal 0.978561341763 -0.205955684185 1.36921585181e-08
outer loop
vertex 18.9581069946 2.41874527931 -381.77355957
vertex 18.9478092194 2.36981749535 -378.202575684
vertex 18.9478092194 2.36981725693 -381.77355957
endloop
endfacet
facet normal 0.978561341763 -0.205955684185 1.37507374376e-08
outer loop
vertex 18.9581069946 2.41874551773 -378.202575684
vertex 18.9478092194 2.36981749535 -378.202575684
vertex 18.9581069946 2.41874527931 -381.77355957
endloop
endfacet
facet normal -0.122090101242 -0.992519021034 0.0
outer loop
vertex 9.87206554413 3.80109095573 -378.202575684
vertex 12.9129629135 3.42702913284 -381.77355957
vertex 12.9129629135 3.42702913284 -378.202575684
endloop
endfacet
facet normal -0.155777931213 -0.98779207468 -0.0
outer loop
vertex 12.9129629135 3.42702913284 -378.202575684
vertex 12.9129629135 3.42702913284 -381.77355957
vertex 15.9393787384 2.94975376129 -378.202575684
endloop
endfacet
facet normal -0.122090101242 -0.992519021034 0.0
outer loop
vertex 9.87206554413 3.80109095573 -381.77355957
vertex 12.9129629135 3.42702913284 -381.77355957
vertex 9.87206554413 3.80109095573 -378.202575684
endloop
endfacet
facet normal -0.189285501838 -0.981922090054 -0.0
outer loop
vertex 15.9393787384 2.94975376129 -378.202575684
vertex 15.9393787384 2.94975376129 -381.77355957
vertex 18.9478092194 2.36981749535 -378.202575684
endloop
endfacet
facet normal -0.155777931213 -0.98779207468 0.0
outer loop
vertex 12.9129629135 3.42702913284 -381.77355957
vertex 15.9393787384 2.94975376129 -381.77355957
vertex 15.9393787384 2.94975376129 -378.202575684
endloop
endfacet
facet normal -0.189285561442 -0.981922030449 6.5374820224e-08
outer loop
vertex 15.9393787384 2.94975376129 -381.77355957
vertex 18.9478092194 2.36981725693 -381.77355957
vertex 18.9478092194 2.36981749535 -378.202575684
endloop
endfacet
facet normal -0.994452118874 0.105190142989 0.0
outer loop
vertex 9.87206554413 3.80109095573 -381.77355957
vertex 9.87206554413 3.80109095573 -378.202575684
vertex 9.87732505798 3.85081362724 -381.77355957
endloop
endfacet
facet normal -0.994452118874 0.105190142989 0.0
outer loop
vertex 9.87206554413 3.80109095573 -378.202575684
vertex 9.87732505798 3.85081362724 -378.202575684
vertex 9.87732505798 3.85081362724 -381.77355957
endloop
endfacet
facet normal 0.0 0.0 1.0
outer loop
vertex 15.9480066299 2.99900388718 -378.202575684
vertex 15.9393787384 2.94975376129 -378.202575684
vertex 18.9478092194 2.36981749535 -378.202575684
endloop
endfacet
facet normal 0.0 0.0 1.0
outer loop
vertex 15.9480066299 2.99900388718 -378.202575684
vertex 18.9478092194 2.36981749535 -378.202575684
vertex 18.9581069946 2.41874551773 -378.202575684
endloop
endfacet
facet normal 0.0 0.0 1.0
outer loop
vertex 12.9199113846 3.47654414177 -378.202575684
vertex 12.9129629135 3.42702913284 -378.202575684
vertex 15.9393787384 2.94975376129 -378.202575684
endloop
endfacet
facet normal 0.0 0.0 1.0
outer loop
vertex 12.9199113846 3.47654414177 -378.202575684
vertex 15.9393787384 2.94975376129 -378.202575684
vertex 15.9480066299 2.99900388718 -378.202575684
endloop
endfacet
facet normal 0.0 0.0 1.0
outer loop
vertex 9.87732505798 3.85081362724 -378.202575684
vertex 9.87206554413 3.80109095573 -378.202575684
vertex 12.9129629135 3.42702913284 -378.202575684
endloop
endfacet
facet normal 0.0 0.0 1.0
outer loop
vertex 9.87732505798 3.85081362724 -378.202575684
vertex 12.9129629135 3.42702913284 -378.202575684
vertex 12.9199113846 3.47654414177 -378.202575684
endloop
endfacet
facet normal 0.0 0.0 -1.0
outer loop
vertex 15.9393787384 2.94975376129 -381.77355957
vertex 15.9480066299 2.99900364876 -381.77355957
vertex 18.9478092194 2.36981725693 -381.77355957
endloop
endfacet
facet normal 0.0 0.0 -1.0
outer loop
vertex 18.9478092194 2.36981725693 -381.77355957
vertex 15.9480066299 2.99900364876 -381.77355957
vertex 18.9581069946 2.41874527931 -381.77355957
endloop
endfacet
facet normal 0.0 0.0 -1.0
outer loop
vertex 12.9129629135 3.42702913284 -381.77355957
vertex 12.9199113846 3.47654390335 -381.77355957
vertex 15.9393787384 2.94975376129 -381.77355957
endloop
endfacet
facet normal 0.0 0.0 -1.0
outer loop
vertex 15.9393787384 2.94975376129 -381.77355957
vertex 12.9199113846 3.47654390335 -381.77355957
vertex 15.9480066299 2.99900364876 -381.77355957
endloop
endfacet
facet normal 0.0 0.0 -1.0
outer loop
vertex 9.87206554413 3.80109095573 -381.77355957
vertex 9.87732505798 3.85081362724 -381.77355957
vertex 12.9129629135 3.42702913284 -381.77355957
endloop
endfacet
facet normal 0.0 0.0 -1.0
outer loop
vertex 12.9129629135 3.42702913284 -381.77355957
vertex 9.87732505798 3.85081362724 -381.77355957
vertex 12.9199113846 3.47654390335 -381.77355957
endloop
endfacet
