solid 
facet normal -0.0190041493624 -0.999819397926 0.0
outer loop
vertex -3.64284849167 -4.29232883453 -255.703903198
vertex -0.57788336277 -4.35058641434 -255.703903198
vertex -0.57788336277 -4.35058641434 -252.132904053
endloop
endfacet
facet normal -0.0190041493624 -0.999819397926 0.0
outer loop
vertex -3.64284849167 -4.29232883453 -255.703903198
vertex -0.57788336277 -4.35058641434 -252.132904053
vertex -3.64284849167 -4.29232883453 -252.132904053
endloop
endfacet
facet normal -0.0529999248683 -0.998594522476 0.0
outer loop
vertex -6.70405864716 -4.12985658646 -255.703903198
vertex -3.64284849167 -4.29232883453 -252.132904053
vertex -6.70405864716 -4.12985658646 -252.132904053
endloop
endfacet
facet normal -0.0529999248683 -0.998594522476 0.0
outer loop
vertex -6.70405864716 -4.12985658646 -255.703903198
vertex -3.64284849167 -4.29232883453 -255.703903198
vertex -3.64284849167 -4.29232883453 -252.132904053
endloop
endfacet
facet normal -0.0869343131781 -0.996214032173 0.0
outer loop
vertex -9.75797176361 -3.86335778236 -255.703903198
vertex -6.70405864716 -4.12985658646 -252.132904053
vertex -9.75797176361 -3.86335778236 -252.132904053
endloop
endfacet
facet normal -0.0869343131781 -0.996214032173 0.0
outer loop
vertex -9.75797176361 -3.86335778236 -255.703903198
vertex -6.70405864716 -4.12985658646 -255.703903198
vertex -6.70405864716 -4.12985658646 -252.132904053
endloop
endfacet
facet normal -0.994590461254 0.103874079883 0.0
outer loop
vertex -9.75797176361 -3.86335778236 -255.703903198
vertex -9.75797176361 -3.86335778236 -252.132904053
vertex -9.75277805328 -3.81362819672 -255.703903198
endloop
endfacet
facet normal -0.994590461254 0.103874079883 0.0
outer loop
vertex -9.75797176361 -3.86335778236 -252.132904053
vertex -9.75277805328 -3.81362819672 -252.132904053
vertex -9.75277805328 -3.81362819672 -255.703903198
endloop
endfacet
facet normal 0.0190041176975 0.999819397926 0.0
outer loop
vertex -0.577783584595 -4.30058670044 -252.132904053
vertex -3.64104819298 -4.24236154556 -255.703903198
vertex -3.64104819298 -4.24236154556 -252.132904053
endloop
endfacet
facet normal 0.0529999248683 0.998594522476 0.0
outer loop
vertex -3.64104819298 -4.24236154556 -252.132904053
vertex -3.64104819298 -4.24236154556 -255.703903198
vertex -6.70056009293 -4.07997941971 -252.132904053
endloop
endfacet
facet normal 0.0190041176975 0.999819397926 -0.0
outer loop
vertex -0.577783584595 -4.30058670044 -255.703903198
vertex -3.64104819298 -4.24236154556 -255.703903198
vertex -0.577783584595 -4.30058670044 -252.132904053
endloop
endfacet
facet normal 0.0529999248683 0.998594522476 0.0
outer loop
vertex -3.64104819298 -4.24236154556 -255.703903198
vertex -6.70056009293 -4.07997941971 -255.703903198
vertex -6.70056009293 -4.07997941971 -252.132904053
endloop
endfacet
facet normal 0.0869344323874 0.996214032173 0.0
outer loop
vertex -6.70056009293 -4.07997941971 -252.132904053
vertex -9.75277805328 -3.81362819672 -255.703903198
vertex -9.75277805328 -3.81362819672 -252.132904053
endloop
endfacet
facet normal 0.0869344323874 0.996214032173 -0.0
outer loop
vertex -6.70056009293 -4.07997941971 -255.703903198
vertex -9.75277805328 -3.81362819672 -255.703903198
vertex -6.70056009293 -4.07997941971 -252.132904053
endloop
endfacet
facet normal 0.999998092651 -0.00199557119049 0.0
outer loop
vertex -0.577783584595 -4.30058670044 -255.703903198
vertex -0.577783584595 -4.30058670044 -252.132904053
vertex -0.57788336277 -4.35058641434 -255.703903198
endloop
endfacet
facet normal 0.999998092651 -0.00199557119049 0.0
outer loop
vertex -0.577783584595 -4.30058670044 -252.132904053
vertex -0.57788336277 -4.35058641434 -252.132904053
vertex -0.57788336277 -4.35058641434 -255.703903198
endloop
endfacet
facet normal 0.0 -0.0 1.0
outer loop
vertex -6.70405864716 -4.12985658646 -252.132904053
vertex -6.70056009293 -4.07997941971 -252.132904053
vertex -9.75277805328 -3.81362819672 -252.132904053
endloop
endfacet
facet normal 0.0 0.0 1.0
outer loop
vertex -6.70405864716 -4.12985658646 -252.132904053
vertex -9.75277805328 -3.81362819672 -252.132904053
vertex -9.75797176361 -3.86335778236 -252.132904053
endloop
endfacet
facet normal 0.0 -0.0 1.0
outer loop
vertex -3.64284849167 -4.29232883453 -252.132904053
vertex -3.64104819298 -4.24236154556 -252.132904053
vertex -6.70056009293 -4.07997941971 -252.132904053
endloop
endfacet
facet normal 0.0 0.0 1.0
outer loop
vertex -3.64284849167 -4.29232883453 -252.132904053
vertex -6.70056009293 -4.07997941971 -252.132904053
vertex -6.70405864716 -4.12985658646 -252.132904053
endloop
endfacet
facet normal 0.0 -0.0 1.0
outer loop
vertex -0.57788336277 -4.35058641434 -252.132904053
vertex -0.577783584595 -4.30058670044 -252.132904053
vertex -3.64104819298 -4.24236154556 -252.132904053
endloop
endfacet
facet normal 0.0 0.0 1.0
outer loop
vertex -0.57788336277 -4.35058641434 -252.132904053
vertex -3.64104819298 -4.24236154556 -252.132904053
vertex -3.64284849167 -4.29232883453 -252.132904053
endloop
endfacet
facet normal 0.0 -0.0 -1.0
outer loop
vertex -9.75277805328 -3.81362819672 -255.703903198
vertex -6.70056009293 -4.07997941971 -255.703903198
vertex -9.75797176361 -3.86335778236 -255.703903198
endloop
endfacet
facet normal -0.0 0.0 -1.0
outer loop
vertex -6.70056009293 -4.07997941971 -255.703903198
vertex -6.70405864716 -4.12985658646 -255.703903198
vertex -9.75797176361 -3.86335778236 -255.703903198
endloop
endfacet
facet normal 0.0 -0.0 -1.0
outer loop
vertex -6.70056009293 -4.07997941971 -255.703903198
vertex -3.64104819298 -4.24236154556 -255.703903198
vertex -6.70405864716 -4.12985658646 -255.703903198
endloop
endfacet
facet normal -0.0 0.0 -1.0
outer loop
vertex -3.64104819298 -4.24236154556 -255.703903198
vertex -3.64284849167 -4.29232883453 -255.703903198
vertex -6.70405864716 -4.12985658646 -255.703903198
endloop
endfacet
facet normal 0.0 -0.0 -1.0
outer loop
vertex -3.64104819298 -4.24236154556 -255.703903198
vertex -0.577783584595 -4.30058670044 -255.703903198
vertex -3.64284849167 -4.29232883453 -255.703903198
endloop
endfacet
facet normal -0.0 0.0 -1.0
outer loop
vertex -0.577783584595 -4.30058670044 -255.703903198
vertex -0.57788336277 -4.35058641434 -255.703903198
vertex -3.64284849167 -4.29232883453 -255.703903198
endloop
endfacet
