solid 
facet normal 0.122090116143 -0.992519021034 6.53382770111e-08
outer loop
vertex 12.9199094772 -3.47654390335 167.297790527
vertex 9.87732410431 -3.85081338882 167.297790527
vertex 9.87732410431 -3.85081362724 163.726791382
endloop
endfacet
facet normal 0.122090116143 -0.992519021034 6.62657626549e-08
outer loop
vertex 12.9199094772 -3.47654390335 167.297790527
vertex 9.87732410431 -3.85081362724 163.726791382
vertex 12.9199094772 -3.47654414177 163.726791382
endloop
endfacet
facet normal 0.155777946115 -0.987792134285 0.0
outer loop
vertex 15.9480047226 -2.99900388718 167.297790527
vertex 12.9199094772 -3.47654414177 163.726791382
vertex 15.9480047226 -2.99900388718 163.726791382
endloop
endfacet
facet normal 0.155777871609 -0.987792134285 6.53382699056e-08
outer loop
vertex 15.9480047226 -2.99900388718 167.297790527
vertex 12.9199094772 -3.47654390335 167.297790527
vertex 12.9199094772 -3.47654414177 163.726791382
endloop
endfacet
facet normal 0.189285472035 -0.981922090054 6.5558261042e-08
outer loop
vertex 18.9581050873 -2.41874551773 167.297790527
vertex 15.9480047226 -2.99900388718 163.726791382
vertex 18.9581050873 -2.41874575615 163.726791382
endloop
endfacet
facet normal 0.189285561442 -0.981922090054 0.0
outer loop
vertex 18.9581050873 -2.41874551773 167.297790527
vertex 15.9480047226 -2.99900388718 167.297790527
vertex 15.9480047226 -2.99900388718 163.726791382
endloop
endfacet
facet normal 0.978561341763 0.205955684185 -1.36921007865e-08
outer loop
vertex 18.9581050873 -2.41874551773 167.297790527
vertex 18.947807312 -2.36981773376 163.726791382
vertex 18.947807312 -2.36981749535 167.297790527
endloop
endfacet
facet normal 0.978561341763 0.205955684185 -1.37506788178e-08
outer loop
vertex 18.9581050873 -2.41874575615 163.726791382
vertex 18.947807312 -2.36981773376 163.726791382
vertex 18.9581050873 -2.41874551773 167.297790527
endloop
endfacet
facet normal -0.122090093791 0.99251896143 0.0
outer loop
vertex 9.87206459045 -3.80109095573 163.726791382
vertex 12.9129619598 -3.42702913284 167.297790527
vertex 12.9129619598 -3.42702913284 163.726791382
endloop
endfacet
facet normal -0.122090093791 0.99251896143 0.0
outer loop
vertex 9.87206459045 -3.80109095573 167.297790527
vertex 12.9129619598 -3.42702913284 167.297790527
vertex 9.87206459045 -3.80109095573 163.726791382
endloop
endfacet
facet normal -0.155777916312 0.987792134285 0.0
outer loop
vertex 12.9129619598 -3.42702913284 163.726791382
vertex 15.9393768311 -2.94975399971 167.297790527
vertex 15.9393768311 -2.94975399971 163.726791382
endloop
endfacet
facet normal -0.155777916312 0.987792134285 0.0
outer loop
vertex 12.9129619598 -3.42702913284 167.297790527
vertex 15.9393768311 -2.94975399971 167.297790527
vertex 12.9129619598 -3.42702913284 163.726791382
endloop
endfacet
facet normal -0.189285486937 0.981922090054 -6.53745431123e-08
outer loop
vertex 15.9393768311 -2.94975399971 163.726791382
vertex 18.947807312 -2.36981749535 167.297790527
vertex 18.947807312 -2.36981773376 163.726791382
endloop
endfacet
facet normal -0.189285546541 0.981922090054 0.0
outer loop
vertex 15.9393768311 -2.94975399971 167.297790527
vertex 18.947807312 -2.36981749535 167.297790527
vertex 15.9393768311 -2.94975399971 163.726791382
endloop
endfacet
facet normal -0.994452118874 -0.105190642178 7.00906976903e-09
outer loop
vertex 9.87206459045 -3.80109095573 167.297790527
vertex 9.87732410431 -3.85081362724 163.726791382
vertex 9.87732410431 -3.85081338882 167.297790527
endloop
endfacet
facet normal -0.994452178478 -0.105190142989 0.0
outer loop
vertex 9.87206459045 -3.80109095573 163.726791382
vertex 9.87732410431 -3.85081362724 163.726791382
vertex 9.87206459045 -3.80109095573 167.297790527
endloop
endfacet
facet normal 0.0 0.0 -1.0
outer loop
vertex 15.9480047226 -2.99900388718 163.726791382
vertex 15.9393768311 -2.94975399971 163.726791382
vertex 18.947807312 -2.36981773376 163.726791382
endloop
endfacet
facet normal 0.0 0.0 -1.0
outer loop
vertex 15.9480047226 -2.99900388718 163.726791382
vertex 18.947807312 -2.36981773376 163.726791382
vertex 18.9581050873 -2.41874575615 163.726791382
endloop
endfacet
facet normal 0.0 0.0 -1.0
outer loop
vertex 12.9199094772 -3.47654414177 163.726791382
vertex 12.9129619598 -3.42702913284 163.726791382
vertex 15.9393768311 -2.94975399971 163.726791382
endloop
endfacet
facet normal 0.0 0.0 -1.0
outer loop
vertex 12.9199094772 -3.47654414177 163.726791382
vertex 15.9393768311 -2.94975399971 163.726791382
vertex 15.9480047226 -2.99900388718 163.726791382
endloop
endfacet
facet normal 0.0 0.0 -1.0
outer loop
vertex 9.87732410431 -3.85081362724 163.726791382
vertex 9.87206459045 -3.80109095573 163.726791382
vertex 12.9129619598 -3.42702913284 163.726791382
endloop
endfacet
facet normal 0.0 0.0 -1.0
outer loop
vertex 9.87732410431 -3.85081362724 163.726791382
vertex 12.9129619598 -3.42702913284 163.726791382
vertex 12.9199094772 -3.47654414177 163.726791382
endloop
endfacet
facet normal -0.0 0.0 1.0
outer loop
vertex 15.9393768311 -2.94975399971 167.297790527
vertex 15.9480047226 -2.99900388718 167.297790527
vertex 18.947807312 -2.36981749535 167.297790527
endloop
endfacet
facet normal 0.0 0.0 1.0
outer loop
vertex 18.947807312 -2.36981749535 167.297790527
vertex 15.9480047226 -2.99900388718 167.297790527
vertex 18.9581050873 -2.41874551773 167.297790527
endloop
endfacet
facet normal -0.0 0.0 1.0
outer loop
vertex 12.9129619598 -3.42702913284 167.297790527
vertex 12.9199094772 -3.47654390335 167.297790527
vertex 15.9393768311 -2.94975399971 167.297790527
endloop
endfacet
facet normal 0.0 0.0 1.0
outer loop
vertex 15.9393768311 -2.94975399971 167.297790527
vertex 12.9199094772 -3.47654390335 167.297790527
vertex 15.9480047226 -2.99900388718 167.297790527
endloop
endfacet
facet normal -0.0 0.0 1.0
outer loop
vertex 9.87206459045 -3.80109095573 167.297790527
vertex 9.87732410431 -3.85081338882 167.297790527
vertex 12.9129619598 -3.42702913284 167.297790527
endloop
endfacet
facet normal 0.0 0.0 1.0
outer loop
vertex 12.9129619598 -3.42702913284 167.297790527
vertex 9.87732410431 -3.85081338882 167.297790527
vertex 12.9199094772 -3.47654390335 167.297790527
endloop
endfacet
