solid 
facet normal 0.104643821716 -0.994509756565 -1.99220622221e-07
outer loop
vertex 9.83754444122 -3.85501241684 370.940582275
vertex 9.81765460968 -3.85710525513 370.940582275
vertex 9.81765460968 -3.85710453987 367.369567871
endloop
endfacet
facet normal 0.104643821716 -0.994509756565 -1.9919515637e-07
outer loop
vertex 9.83754444122 -3.85501241684 370.940582275
vertex 9.81765460968 -3.85710453987 367.369567871
vertex 9.83754444122 -3.85501170158 367.369567871
endloop
endfacet
facet normal 0.104856051505 -0.994487404823 -1.99190694161e-07
outer loop
vertex 9.85743427277 -3.85291528702 370.940582275
vertex 9.83754444122 -3.85501170158 367.369567871
vertex 9.85743427277 -3.85291457176 367.369567871
endloop
endfacet
facet normal 0.104856051505 -0.994487404823 -1.9916522831e-07
outer loop
vertex 9.85743427277 -3.85291528702 370.940582275
vertex 9.83754444122 -3.85501241684 370.940582275
vertex 9.83754444122 -3.85501170158 367.369567871
endloop
endfacet
facet normal 0.105085022748 -0.994463205338 -1.99185834049e-07
outer loop
vertex 9.87732315063 -3.85081362724 370.940582275
vertex 9.85743427277 -3.85291457176 367.369567871
vertex 9.87732315063 -3.85081291199 367.369567871
endloop
endfacet
facet normal 0.105085022748 -0.994463205338 -1.99220849595e-07
outer loop
vertex 9.87732315063 -3.85081362724 370.940582275
vertex 9.85743427277 -3.85291528702 370.940582275
vertex 9.85743427277 -3.85291457176 367.369567871
endloop
endfacet
facet normal 0.994452059269 0.105190634727 2.81991567874e-08
outer loop
vertex 9.87732315063 -3.85081362724 370.940582275
vertex 9.87206363678 -3.80109024048 367.369567871
vertex 9.87206363678 -3.80109119415 370.940582275
endloop
endfacet
facet normal 0.994452178478 0.105190142989 2.10690433988e-08
outer loop
vertex 9.87732315063 -3.85081291199 367.369567871
vertex 9.87206363678 -3.80109024048 367.369567871
vertex 9.87732315063 -3.85081362724 370.940582275
endloop
endfacet
facet normal -0.104639455676 0.994510173798 1.99172944804e-07
outer loop
vertex 9.81242752075 -3.8073785305 367.369567871
vertex 9.83230686188 -3.80528759956 370.940582275
vertex 9.83230686188 -3.80528688431 367.369567871
endloop
endfacet
facet normal -0.104639455676 0.994510173798 1.99195241635e-07
outer loop
vertex 9.81242752075 -3.80737924576 370.940582275
vertex 9.83230686188 -3.80528759956 370.940582275
vertex 9.81242752075 -3.8073785305 367.369567871
endloop
endfacet
facet normal -0.104863591492 0.994486629963 2.65625601514e-07
outer loop
vertex 9.83230686188 -3.80528688431 367.369567871
vertex 9.852186203 -3.80319166183 370.940582275
vertex 9.852186203 -3.80319070816 367.369567871
endloop
endfacet
facet normal -0.104851789773 0.99448788166 1.99190779426e-07
outer loop
vertex 9.83230686188 -3.80528759956 370.940582275
vertex 9.852186203 -3.80319166183 370.940582275
vertex 9.83230686188 -3.80528688431 367.369567871
endloop
endfacet
facet normal -0.105085879564 0.994463145733 2.65593826043e-07
outer loop
vertex 9.852186203 -3.80319070816 367.369567871
vertex 9.87206363678 -3.80109119415 370.940582275
vertex 9.87206363678 -3.80109024048 367.369567871
endloop
endfacet
facet normal -0.105085879564 0.994463145733 2.65581093117e-07
outer loop
vertex 9.852186203 -3.80319166183 370.940582275
vertex 9.87206363678 -3.80109119415 370.940582275
vertex 9.852186203 -3.80319070816 367.369567871
endloop
endfacet
facet normal -0.994520545006 -0.104541815817 -2.08640518196e-08
outer loop
vertex 9.81242752075 -3.80737924576 370.940582275
vertex 9.81765460968 -3.85710453987 367.369567871
vertex 9.81765460968 -3.85710525513 370.940582275
endloop
endfacet
facet normal -0.994520545006 -0.104541815817 -2.09391846084e-08
outer loop
vertex 9.81242752075 -3.8073785305 367.369567871
vertex 9.81765460968 -3.85710453987 367.369567871
vertex 9.81242752075 -3.80737924576 370.940582275
endloop
endfacet
facet normal 0.0 0.0 -1.0
outer loop
vertex 9.87732315063 -3.85081291199 367.369567871
vertex 9.852186203 -3.80319070816 367.369567871
vertex 9.87206363678 -3.80109024048 367.369567871
endloop
endfacet
facet normal 0.0 0.0 -1.0
outer loop
vertex 9.85743427277 -3.85291457176 367.369567871
vertex 9.83230686188 -3.80528688431 367.369567871
vertex 9.852186203 -3.80319070816 367.369567871
endloop
endfacet
facet normal 0.0 0.0 -1.0
outer loop
vertex 9.85743427277 -3.85291457176 367.369567871
vertex 9.852186203 -3.80319070816 367.369567871
vertex 9.87732315063 -3.85081291199 367.369567871
endloop
endfacet
facet normal 0.0 0.0 -1.0
outer loop
vertex 9.83754444122 -3.85501170158 367.369567871
vertex 9.83230686188 -3.80528688431 367.369567871
vertex 9.85743427277 -3.85291457176 367.369567871
endloop
endfacet
facet normal 0.0 0.0 -1.0
outer loop
vertex 9.81765460968 -3.85710453987 367.369567871
vertex 9.81242752075 -3.8073785305 367.369567871
vertex 9.83230686188 -3.80528688431 367.369567871
endloop
endfacet
facet normal 0.0 0.0 -1.0
outer loop
vertex 9.81765460968 -3.85710453987 367.369567871
vertex 9.83230686188 -3.80528688431 367.369567871
vertex 9.83754444122 -3.85501170158 367.369567871
endloop
endfacet
facet normal -0.0 0.0 1.0
outer loop
vertex 9.852186203 -3.80319166183 370.940582275
vertex 9.87732315063 -3.85081362724 370.940582275
vertex 9.87206363678 -3.80109119415 370.940582275
endloop
endfacet
facet normal -0.0 0.0 1.0
outer loop
vertex 9.83230686188 -3.80528759956 370.940582275
vertex 9.85743427277 -3.85291528702 370.940582275
vertex 9.852186203 -3.80319166183 370.940582275
endloop
endfacet
facet normal 0.0 0.0 1.0
outer loop
vertex 9.852186203 -3.80319166183 370.940582275
vertex 9.85743427277 -3.85291528702 370.940582275
vertex 9.87732315063 -3.85081362724 370.940582275
endloop
endfacet
facet normal -0.0 0.0 1.0
outer loop
vertex 9.81242752075 -3.80737924576 370.940582275
vertex 9.83754444122 -3.85501241684 370.940582275
vertex 9.83230686188 -3.80528759956 370.940582275
endloop
endfacet
facet normal 0.0 0.0 1.0
outer loop
vertex 9.83230686188 -3.80528759956 370.940582275
vertex 9.83754444122 -3.85501241684 370.940582275
vertex 9.85743427277 -3.85291528702 370.940582275
endloop
endfacet
facet normal 0.0 0.0 1.0
outer loop
vertex 9.81242752075 -3.80737924576 370.940582275
vertex 9.81765460968 -3.85710525513 370.940582275
vertex 9.83754444122 -3.85501241684 370.940582275
endloop
endfacet
