solid 
facet normal -0.104632042348 -0.994511067867 1.99221744879e-07
outer loop
vertex -9.83753585815 -3.8550131321 -234.037902832
vertex -9.81764602661 -3.85710573196 -234.037902832
vertex -9.81764602661 -3.85710501671 -230.466903687
endloop
endfacet
facet normal -0.104643821716 -0.99450969696 2.65594678694e-07
outer loop
vertex -9.83753585815 -3.8550131321 -234.037902832
vertex -9.81764602661 -3.85710501671 -230.466903687
vertex -9.83753585815 -3.85501217842 -230.466903687
endloop
endfacet
facet normal -0.104856058955 -0.994487404823 2.65588710135e-07
outer loop
vertex -9.83753585815 -3.8550131321 -234.037902832
vertex -9.83753585815 -3.85501217842 -230.466903687
vertex -9.8574256897 -3.8529150486 -230.466903687
endloop
endfacet
facet normal -0.10508004576 -0.994463741779 1.99186800387e-07
outer loop
vertex -9.8574256897 -3.85291576385 -234.037902832
vertex -9.8574256897 -3.8529150486 -230.466903687
vertex -9.87731552124 -3.85081338882 -230.466903687
endloop
endfacet
facet normal -0.104867845774 -0.994486153126 1.99191291017e-07
outer loop
vertex -9.8574256897 -3.85291576385 -234.037902832
vertex -9.83753585815 -3.8550131321 -234.037902832
vertex -9.8574256897 -3.8529150486 -230.466903687
endloop
endfacet
facet normal -0.105068258941 -0.994464993477 2.65582741577e-07
outer loop
vertex -9.87731552124 -3.8508143425 -234.037902832
vertex -9.8574256897 -3.85291576385 -234.037902832
vertex -9.87731552124 -3.85081338882 -230.466903687
endloop
endfacet
facet normal -0.994452178478 0.105190142989 -2.11901092229e-08
outer loop
vertex -9.87731552124 -3.8508143425 -234.037902832
vertex -9.87205600739 -3.80109095573 -230.466903687
vertex -9.87205600739 -3.80109167099 -234.037902832
endloop
endfacet
facet normal -0.994452118874 0.105190642178 -2.80923106999e-08
outer loop
vertex -9.87731552124 -3.85081338882 -230.466903687
vertex -9.87205600739 -3.80109095573 -230.466903687
vertex -9.87731552124 -3.8508143425 -234.037902832
endloop
endfacet
facet normal 0.104644425213 0.99450969696 -1.99183261884e-07
outer loop
vertex -9.81241989136 -3.80737900734 -230.466903687
vertex -9.83229827881 -3.8052880764 -234.037902832
vertex -9.83229827881 -3.80528736115 -230.466903687
endloop
endfacet
facet normal 0.104863591492 0.994486570358 -1.99191376282e-07
outer loop
vertex -9.83229827881 -3.80528736115 -230.466903687
vertex -9.83229827881 -3.8052880764 -234.037902832
vertex -9.85217761993 -3.803191185 -230.466903687
endloop
endfacet
facet normal 0.104644425213 0.99450969696 -1.99196009021e-07
outer loop
vertex -9.81241989136 -3.8073797226 -234.037902832
vertex -9.83229827881 -3.8052880764 -234.037902832
vertex -9.81241989136 -3.80737900734 -230.466903687
endloop
endfacet
facet normal 0.105069108307 0.994464933872 -2.65582713155e-07
outer loop
vertex -9.85217761993 -3.803191185 -230.466903687
vertex -9.85217761993 -3.80319213867 -234.037902832
vertex -9.87205600739 -3.80109095573 -230.466903687
endloop
endfacet
facet normal 0.104851797223 0.994487822056 -2.65576090897e-07
outer loop
vertex -9.83229827881 -3.8052880764 -234.037902832
vertex -9.85217761993 -3.80319213867 -234.037902832
vertex -9.85217761993 -3.803191185 -230.466903687
endloop
endfacet
facet normal 0.105080895126 0.994463682175 -1.9917405325e-07
outer loop
vertex -9.85217761993 -3.80319213867 -234.037902832
vertex -9.87205600739 -3.80109167099 -234.037902832
vertex -9.87205600739 -3.80109095573 -230.466903687
endloop
endfacet
facet normal 0.994522511959 -0.104522950947 2.09354951153e-08
outer loop
vertex -9.81241989136 -3.8073797226 -234.037902832
vertex -9.81241989136 -3.80737900734 -230.466903687
vertex -9.81764602661 -3.85710573196 -234.037902832
endloop
endfacet
facet normal 0.994522511959 -0.104522950947 2.086418327e-08
outer loop
vertex -9.81241989136 -3.80737900734 -230.466903687
vertex -9.81764602661 -3.85710501671 -230.466903687
vertex -9.81764602661 -3.85710573196 -234.037902832
endloop
endfacet
facet normal 0.0 0.0 1.0
outer loop
vertex -9.87731552124 -3.85081338882 -230.466903687
vertex -9.85217761993 -3.803191185 -230.466903687
vertex -9.87205600739 -3.80109095573 -230.466903687
endloop
endfacet
facet normal 0.0 -0.0 1.0
outer loop
vertex -9.8574256897 -3.8529150486 -230.466903687
vertex -9.85217761993 -3.803191185 -230.466903687
vertex -9.87731552124 -3.85081338882 -230.466903687
endloop
endfacet
facet normal 0.0 -0.0 1.0
outer loop
vertex -9.83753585815 -3.85501217842 -230.466903687
vertex -9.83229827881 -3.80528736115 -230.466903687
vertex -9.85217761993 -3.803191185 -230.466903687
endloop
endfacet
facet normal 0.0 0.0 1.0
outer loop
vertex -9.83753585815 -3.85501217842 -230.466903687
vertex -9.85217761993 -3.803191185 -230.466903687
vertex -9.8574256897 -3.8529150486 -230.466903687
endloop
endfacet
facet normal 0.0 -0.0 1.0
outer loop
vertex -9.81764602661 -3.85710501671 -230.466903687
vertex -9.81241989136 -3.80737900734 -230.466903687
vertex -9.83229827881 -3.80528736115 -230.466903687
endloop
endfacet
facet normal 0.0 0.0 1.0
outer loop
vertex -9.81764602661 -3.85710501671 -230.466903687
vertex -9.83229827881 -3.80528736115 -230.466903687
vertex -9.83753585815 -3.85501217842 -230.466903687
endloop
endfacet
facet normal -0.0 0.0 -1.0
outer loop
vertex -9.85217761993 -3.80319213867 -234.037902832
vertex -9.87731552124 -3.8508143425 -234.037902832
vertex -9.87205600739 -3.80109167099 -234.037902832
endloop
endfacet
facet normal -0.0 0.0 -1.0
outer loop
vertex -9.83229827881 -3.8052880764 -234.037902832
vertex -9.8574256897 -3.85291576385 -234.037902832
vertex -9.85217761993 -3.80319213867 -234.037902832
endloop
endfacet
facet normal 0.0 0.0 -1.0
outer loop
vertex -9.85217761993 -3.80319213867 -234.037902832
vertex -9.8574256897 -3.85291576385 -234.037902832
vertex -9.87731552124 -3.8508143425 -234.037902832
endloop
endfacet
facet normal -0.0 0.0 -1.0
outer loop
vertex -9.81241989136 -3.8073797226 -234.037902832
vertex -9.83753585815 -3.8550131321 -234.037902832
vertex -9.83229827881 -3.8052880764 -234.037902832
endloop
endfacet
facet normal 0.0 0.0 -1.0
outer loop
vertex -9.83229827881 -3.8052880764 -234.037902832
vertex -9.83753585815 -3.8550131321 -234.037902832
vertex -9.8574256897 -3.85291576385 -234.037902832
endloop
endfacet
facet normal 0.0 0.0 -1.0
outer loop
vertex -9.81241989136 -3.8073797226 -234.037902832
vertex -9.81764602661 -3.85710573196 -234.037902832
vertex -9.83753585815 -3.8550131321 -234.037902832
endloop
endfacet
