solid 
facet normal 0.10397361964 0.994580030441 0.0
outer loop
vertex 9.77787399292 3.86127734184 83.6743087769
vertex 9.75798225403 3.86335682869 83.6743087769
vertex 9.75798225403 3.86335682869 87.2453079224
endloop
endfacet
facet normal 0.10397361964 0.994580030441 -0.0
outer loop
vertex 9.77787399292 3.86127734184 83.6743087769
vertex 9.75798225403 3.86335682869 87.2453079224
vertex 9.77787399292 3.86127734184 87.2453079224
endloop
endfacet
facet normal 0.104202598333 0.994556009769 -0.0
outer loop
vertex 9.79776477814 3.85919332504 83.6743087769
vertex 9.77787399292 3.86127734184 87.2453079224
vertex 9.79776477814 3.85919332504 87.2453079224
endloop
endfacet
facet normal 0.104202598333 0.994556009769 0.0
outer loop
vertex 9.79776477814 3.85919332504 83.6743087769
vertex 9.77787399292 3.86127734184 83.6743087769
vertex 9.77787399292 3.86127734184 87.2453079224
endloop
endfacet
facet normal 0.104414843023 0.994533836842 -0.0
outer loop
vertex 9.81765556335 3.85710501671 83.6743087769
vertex 9.79776477814 3.85919332504 87.2453079224
vertex 9.81765556335 3.85710501671 87.2453079224
endloop
endfacet
facet normal 0.104414843023 0.994533836842 0.0
outer loop
vertex 9.81765556335 3.85710501671 83.6743087769
vertex 9.79776477814 3.85919332504 83.6743087769
vertex 9.79776477814 3.85919332504 87.2453079224
endloop
endfacet
facet normal 0.994520485401 -0.104541815817 0.0
outer loop
vertex 9.81765556335 3.85710501671 83.6743087769
vertex 9.81765556335 3.85710501671 87.2453079224
vertex 9.81242847443 3.80737900734 87.2453079224
endloop
endfacet
facet normal 0.994522511959 -0.104522451758 2.72576556881e-07
outer loop
vertex 9.8124294281 3.80737876892 83.6743087769
vertex 9.81765556335 3.85710501671 83.6743087769
vertex 9.81242847443 3.80737900734 87.2453079224
endloop
endfacet
facet normal -0.103973843157 -0.994580090046 -0.0
outer loop
vertex 9.7527885437 3.81362724304 87.2453079224
vertex 9.7527885437 3.81362724304 83.6743087769
vertex 9.7726688385 3.81154894829 87.2453079224
endloop
endfacet
facet normal -0.103973843157 -0.994580090046 0.0
outer loop
vertex 9.7527885437 3.81362724304 83.6743087769
vertex 9.7726688385 3.81154894829 83.6743087769
vertex 9.7726688385 3.81154894829 87.2453079224
endloop
endfacet
facet normal -0.104197993875 -0.994556486607 0.0
outer loop
vertex 9.7726688385 3.81154894829 87.2453079224
vertex 9.7925491333 3.80946612358 83.6743087769
vertex 9.7925491333 3.80946612358 87.2453079224
endloop
endfacet
facet normal -0.104197993875 -0.994556486607 0.0
outer loop
vertex 9.7726688385 3.81154894829 83.6743087769
vertex 9.7925491333 3.80946612358 83.6743087769
vertex 9.7726688385 3.81154894829 87.2453079224
endloop
endfacet
facet normal -0.10441531986 -0.994533836842 3.8479988973e-08
outer loop
vertex 9.7925491333 3.80946612358 87.2453079224
vertex 9.8124294281 3.80737876892 83.6743087769
vertex 9.81242847443 3.80737900734 87.2453079224
endloop
endfacet
facet normal -0.104422152042 -0.994533061981 0.0
outer loop
vertex 9.7925491333 3.80946612358 83.6743087769
vertex 9.8124294281 3.80737876892 83.6743087769
vertex 9.7925491333 3.80946612358 87.2453079224
endloop
endfacet
facet normal -0.994590461254 0.103874079883 0.0
outer loop
vertex 9.7527885437 3.81362724304 83.6743087769
vertex 9.7527885437 3.81362724304 87.2453079224
vertex 9.75798225403 3.86335682869 87.2453079224
endloop
endfacet
facet normal -0.994590461254 0.103874079883 0.0
outer loop
vertex 9.75798225403 3.86335682869 83.6743087769
vertex 9.7527885437 3.81362724304 83.6743087769
vertex 9.75798225403 3.86335682869 87.2453079224
endloop
endfacet
facet normal 0.0 0.0 -1.0
outer loop
vertex 9.7925491333 3.80946612358 83.6743087769
vertex 9.81765556335 3.85710501671 83.6743087769
vertex 9.8124294281 3.80737876892 83.6743087769
endloop
endfacet
facet normal 0.0 0.0 -1.0
outer loop
vertex 9.7925491333 3.80946612358 83.6743087769
vertex 9.79776477814 3.85919332504 83.6743087769
vertex 9.81765556335 3.85710501671 83.6743087769
endloop
endfacet
facet normal 0.0 0.0 -1.0
outer loop
vertex 9.7726688385 3.81154894829 83.6743087769
vertex 9.77787399292 3.86127734184 83.6743087769
vertex 9.7925491333 3.80946612358 83.6743087769
endloop
endfacet
facet normal 0.0 0.0 -1.0
outer loop
vertex 9.7925491333 3.80946612358 83.6743087769
vertex 9.77787399292 3.86127734184 83.6743087769
vertex 9.79776477814 3.85919332504 83.6743087769
endloop
endfacet
facet normal 0.0 0.0 -1.0
outer loop
vertex 9.7527885437 3.81362724304 83.6743087769
vertex 9.75798225403 3.86335682869 83.6743087769
vertex 9.7726688385 3.81154894829 83.6743087769
endloop
endfacet
facet normal 0.0 0.0 -1.0
outer loop
vertex 9.7726688385 3.81154894829 83.6743087769
vertex 9.75798225403 3.86335682869 83.6743087769
vertex 9.77787399292 3.86127734184 83.6743087769
endloop
endfacet
facet normal 0.0 0.0 1.0
outer loop
vertex 9.81765556335 3.85710501671 87.2453079224
vertex 9.7925491333 3.80946612358 87.2453079224
vertex 9.81242847443 3.80737900734 87.2453079224
endloop
endfacet
facet normal 0.0 0.0 1.0
outer loop
vertex 9.79776477814 3.85919332504 87.2453079224
vertex 9.7925491333 3.80946612358 87.2453079224
vertex 9.81765556335 3.85710501671 87.2453079224
endloop
endfacet
facet normal 0.0 0.0 1.0
outer loop
vertex 9.77787399292 3.86127734184 87.2453079224
vertex 9.7726688385 3.81154894829 87.2453079224
vertex 9.7925491333 3.80946612358 87.2453079224
endloop
endfacet
facet normal 0.0 0.0 1.0
outer loop
vertex 9.77787399292 3.86127734184 87.2453079224
vertex 9.7925491333 3.80946612358 87.2453079224
vertex 9.79776477814 3.85919332504 87.2453079224
endloop
endfacet
facet normal 0.0 0.0 1.0
outer loop
vertex 9.75798225403 3.86335682869 87.2453079224
vertex 9.7527885437 3.81362724304 87.2453079224
vertex 9.7726688385 3.81154894829 87.2453079224
endloop
endfacet
facet normal 0.0 0.0 1.0
outer loop
vertex 9.75798225403 3.86335682869 87.2453079224
vertex 9.7726688385 3.81154894829 87.2453079224
vertex 9.77787399292 3.86127734184 87.2453079224
endloop
endfacet
