solid 
facet normal -0.10397361964 -0.994580030441 -2.77609544241e-08
outer loop
vertex -9.77786827087 -3.8612780571 -66.5451202393
vertex -9.75797653198 -3.86335754395 -66.5451202393
vertex -9.75797748566 -3.86335754395 -62.9741249084
endloop
endfacet
facet normal -0.103978551924 -0.994579613209 0.0
outer loop
vertex -9.77786827087 -3.8612780571 -66.5451202393
vertex -9.75797748566 -3.86335754395 -62.9741249084
vertex -9.77786827087 -3.8612780571 -62.9741249084
endloop
endfacet
facet normal -0.104197658598 -0.994556605816 0.0
outer loop
vertex -9.79776000977 -3.8591940403 -66.5451202393
vertex -9.77786827087 -3.8612780571 -62.9741249084
vertex -9.79776000977 -3.8591940403 -62.9741249084
endloop
endfacet
facet normal -0.104414843023 -0.994533836842 0.0
outer loop
vertex -9.79776000977 -3.8591940403 -66.5451202393
vertex -9.79776000977 -3.8591940403 -62.9741249084
vertex -9.81765079498 -3.85710573196 -62.9741249084
endloop
endfacet
facet normal -0.104197658598 -0.994556605816 0.0
outer loop
vertex -9.79776000977 -3.8591940403 -66.5451202393
vertex -9.77786827087 -3.8612780571 -66.5451202393
vertex -9.77786827087 -3.8612780571 -62.9741249084
endloop
endfacet
facet normal -0.104414843023 -0.994533836842 0.0
outer loop
vertex -9.81765079498 -3.85710573196 -66.5451202393
vertex -9.79776000977 -3.8591940403 -66.5451202393
vertex -9.81765079498 -3.85710573196 -62.9741249084
endloop
endfacet
facet normal -0.994520545006 0.104541823268 0.0
outer loop
vertex -9.81765079498 -3.85710573196 -66.5451202393
vertex -9.81765079498 -3.85710573196 -62.9741249084
vertex -9.81242370605 -3.8073797226 -66.5451202393
endloop
endfacet
facet normal -0.994520485401 0.104541301727 -7.00902091921e-09
outer loop
vertex -9.81765079498 -3.85710573196 -62.9741249084
vertex -9.81242370605 -3.80737948418 -62.9741249084
vertex -9.81242370605 -3.8073797226 -66.5451202393
endloop
endfacet
facet normal 0.103973843157 0.994580090046 0.0
outer loop
vertex -9.75278377533 -3.8136279583 -62.9741249084
vertex -9.77266407013 -3.81154966354 -66.5451202393
vertex -9.77266407013 -3.81154966354 -62.9741249084
endloop
endfacet
facet normal 0.103973843157 0.994580090046 -0.0
outer loop
vertex -9.75278377533 -3.8136279583 -66.5451202393
vertex -9.77266407013 -3.81154966354 -66.5451202393
vertex -9.75278377533 -3.8136279583 -62.9741249084
endloop
endfacet
facet normal 0.104198001325 0.994556605816 0.0
outer loop
vertex -9.77266407013 -3.81154966354 -62.9741249084
vertex -9.79254436493 -3.80946683884 -66.5451202393
vertex -9.79254436493 -3.80946683884 -62.9741249084
endloop
endfacet
facet normal 0.104427099228 0.994532465935 0.0
outer loop
vertex -9.79254436493 -3.80946683884 -62.9741249084
vertex -9.79254436493 -3.80946683884 -66.5451202393
vertex -9.81242370605 -3.80737948418 -62.9741249084
endloop
endfacet
facet normal 0.104198001325 0.994556605816 -0.0
outer loop
vertex -9.77266407013 -3.81154966354 -66.5451202393
vertex -9.79254436493 -3.80946683884 -66.5451202393
vertex -9.77266407013 -3.81154966354 -62.9741249084
endloop
endfacet
facet normal 0.104415312409 0.994533836842 -6.63589361238e-08
outer loop
vertex -9.79254436493 -3.80946683884 -66.5451202393
vertex -9.81242370605 -3.8073797226 -66.5451202393
vertex -9.81242370605 -3.80737948418 -62.9741249084
endloop
endfacet
facet normal 0.994592428207 -0.103855215013 0.0
outer loop
vertex -9.75278377533 -3.8136279583 -66.5451202393
vertex -9.75278377533 -3.8136279583 -62.9741249084
vertex -9.75797653198 -3.86335754395 -66.5451202393
endloop
endfacet
facet normal 0.994590461254 -0.103874079883 2.65691653567e-07
outer loop
vertex -9.75278377533 -3.8136279583 -62.9741249084
vertex -9.75797748566 -3.86335754395 -62.9741249084
vertex -9.75797653198 -3.86335754395 -66.5451202393
endloop
endfacet
facet normal 0.0 0.0 1.0
outer loop
vertex -9.81765079498 -3.85710573196 -62.9741249084
vertex -9.79254436493 -3.80946683884 -62.9741249084
vertex -9.81242370605 -3.80737948418 -62.9741249084
endloop
endfacet
facet normal 0.0 -0.0 1.0
outer loop
vertex -9.79776000977 -3.8591940403 -62.9741249084
vertex -9.79254436493 -3.80946683884 -62.9741249084
vertex -9.81765079498 -3.85710573196 -62.9741249084
endloop
endfacet
facet normal 0.0 -0.0 1.0
outer loop
vertex -9.77786827087 -3.8612780571 -62.9741249084
vertex -9.77266407013 -3.81154966354 -62.9741249084
vertex -9.79254436493 -3.80946683884 -62.9741249084
endloop
endfacet
facet normal 0.0 0.0 1.0
outer loop
vertex -9.77786827087 -3.8612780571 -62.9741249084
vertex -9.79254436493 -3.80946683884 -62.9741249084
vertex -9.79776000977 -3.8591940403 -62.9741249084
endloop
endfacet
facet normal 0.0 -0.0 1.0
outer loop
vertex -9.75797748566 -3.86335754395 -62.9741249084
vertex -9.75278377533 -3.8136279583 -62.9741249084
vertex -9.77266407013 -3.81154966354 -62.9741249084
endloop
endfacet
facet normal 0.0 0.0 1.0
outer loop
vertex -9.75797748566 -3.86335754395 -62.9741249084
vertex -9.77266407013 -3.81154966354 -62.9741249084
vertex -9.77786827087 -3.8612780571 -62.9741249084
endloop
endfacet
facet normal -0.0 0.0 -1.0
outer loop
vertex -9.79254436493 -3.80946683884 -66.5451202393
vertex -9.81765079498 -3.85710573196 -66.5451202393
vertex -9.81242370605 -3.8073797226 -66.5451202393
endloop
endfacet
facet normal 0.0 0.0 -1.0
outer loop
vertex -9.79254436493 -3.80946683884 -66.5451202393
vertex -9.79776000977 -3.8591940403 -66.5451202393
vertex -9.81765079498 -3.85710573196 -66.5451202393
endloop
endfacet
facet normal -0.0 0.0 -1.0
outer loop
vertex -9.77266407013 -3.81154966354 -66.5451202393
vertex -9.77786827087 -3.8612780571 -66.5451202393
vertex -9.79254436493 -3.80946683884 -66.5451202393
endloop
endfacet
facet normal 0.0 -0.0 -1.0
outer loop
vertex -9.79254436493 -3.80946683884 -66.5451202393
vertex -9.77786827087 -3.8612780571 -66.5451202393
vertex -9.79776000977 -3.8591940403 -66.5451202393
endloop
endfacet
facet normal -0.0 0.0 -1.0
outer loop
vertex -9.75278377533 -3.8136279583 -66.5451202393
vertex -9.75797653198 -3.86335754395 -66.5451202393
vertex -9.77266407013 -3.81154966354 -66.5451202393
endloop
endfacet
facet normal 0.0 -0.0 -1.0
outer loop
vertex -9.77266407013 -3.81154966354 -66.5451202393
vertex -9.75797653198 -3.86335754395 -66.5451202393
vertex -9.77786827087 -3.8612780571 -66.5451202393
endloop
endfacet
