solid 
facet normal -0.10397361964 -0.994580030441 -6.64226078584e-08
outer loop
vertex -9.77785873413 -3.86127829552 127.636787415
vertex -9.75796699524 -3.86335778236 127.636787415
vertex -9.75796699524 -3.86335802078 131.207778931
endloop
endfacet
facet normal -0.103985413909 -0.994578778744 0.0
outer loop
vertex -9.77785873413 -3.86127829552 127.636787415
vertex -9.75796699524 -3.86335802078 131.207778931
vertex -9.77785873413 -3.86127829552 131.207778931
endloop
endfacet
facet normal -0.104190804064 -0.994557261467 -6.64019879082e-08
outer loop
vertex -9.79774951935 -3.85919427872 127.636787415
vertex -9.77785873413 -3.86127829552 131.207778931
vertex -9.79774951935 -3.85919451714 131.207778931
endloop
endfacet
facet normal -0.104202598333 -0.994556009769 0.0
outer loop
vertex -9.79774951935 -3.85919427872 127.636787415
vertex -9.77785873413 -3.86127829552 127.636787415
vertex -9.77785873413 -3.86127829552 131.207778931
endloop
endfacet
facet normal -0.104414843023 -0.994533836842 -6.64004176087e-08
outer loop
vertex -9.81764030457 -3.85710597038 127.636787415
vertex -9.79774951935 -3.85919451714 131.207778931
vertex -9.81764030457 -3.8571062088 131.207778931
endloop
endfacet
facet normal -0.104414843023 -0.994533836842 -6.64227073344e-08
outer loop
vertex -9.81764030457 -3.85710597038 127.636787415
vertex -9.79774951935 -3.85919427872 127.636787415
vertex -9.79774951935 -3.85919451714 131.207778931
endloop
endfacet
facet normal -0.994522571564 0.104522451758 6.97848046016e-09
outer loop
vertex -9.81764030457 -3.85710597038 127.636787415
vertex -9.81764030457 -3.8571062088 131.207778931
vertex -9.81241416931 -3.80737996101 131.207778931
endloop
endfacet
facet normal -0.994522452354 0.104522943497 0.0
outer loop
vertex -9.81241416931 -3.80737996101 127.636787415
vertex -9.81764030457 -3.85710597038 127.636787415
vertex -9.81241416931 -3.80737996101 131.207778931
endloop
endfacet
facet normal 0.103980705142 0.99457937479 6.64034587317e-08
outer loop
vertex -9.75277328491 -3.81362843513 131.207778931
vertex -9.75277328491 -3.81362819672 127.636787415
vertex -9.77265453339 -3.81154990196 131.207778931
endloop
endfacet
facet normal 0.103968895972 0.994580507278 0.0
outer loop
vertex -9.75277328491 -3.81362819672 127.636787415
vertex -9.77265453339 -3.81154990196 127.636787415
vertex -9.77265453339 -3.81154990196 131.207778931
endloop
endfacet
facet normal 0.104191146791 0.994557261467 6.6411544708e-08
outer loop
vertex -9.77265453339 -3.81154990196 131.207778931
vertex -9.79253387451 -3.80946707726 127.636787415
vertex -9.79253387451 -3.80946731567 131.207778931
endloop
endfacet
facet normal 0.10420294106 0.994556009769 -0.0
outer loop
vertex -9.77265453339 -3.81154990196 127.636787415
vertex -9.79253387451 -3.80946707726 127.636787415
vertex -9.77265453339 -3.81154990196 131.207778931
endloop
endfacet
facet normal 0.104422159493 0.994533121586 0.0
outer loop
vertex -9.79253387451 -3.80946731567 131.207778931
vertex -9.81241416931 -3.80737996101 127.636787415
vertex -9.81241416931 -3.80737996101 131.207778931
endloop
endfacet
facet normal 0.104410350323 0.994534254074 6.64004531359e-08
outer loop
vertex -9.79253387451 -3.80946707726 127.636787415
vertex -9.81241416931 -3.80737996101 127.636787415
vertex -9.79253387451 -3.80946731567 131.207778931
endloop
endfacet
facet normal 0.994590520859 -0.103874072433 -6.93519153216e-09
outer loop
vertex -9.75277328491 -3.81362819672 127.636787415
vertex -9.75277328491 -3.81362843513 131.207778931
vertex -9.75796699524 -3.86335802078 131.207778931
endloop
endfacet
facet normal 0.994590520859 -0.103874072433 -6.93519153216e-09
outer loop
vertex -9.75796699524 -3.86335778236 127.636787415
vertex -9.75277328491 -3.81362819672 127.636787415
vertex -9.75796699524 -3.86335802078 131.207778931
endloop
endfacet
facet normal -0.0 0.0 -1.0
outer loop
vertex -9.79253387451 -3.80946707726 127.636787415
vertex -9.81764030457 -3.85710597038 127.636787415
vertex -9.81241416931 -3.80737996101 127.636787415
endloop
endfacet
facet normal -0.0 0.0 -1.0
outer loop
vertex -9.77265453339 -3.81154990196 127.636787415
vertex -9.79774951935 -3.85919427872 127.636787415
vertex -9.79253387451 -3.80946707726 127.636787415
endloop
endfacet
facet normal 0.0 0.0 -1.0
outer loop
vertex -9.79253387451 -3.80946707726 127.636787415
vertex -9.79774951935 -3.85919427872 127.636787415
vertex -9.81764030457 -3.85710597038 127.636787415
endloop
endfacet
facet normal 0.0 0.0 -1.0
outer loop
vertex -9.77265453339 -3.81154990196 127.636787415
vertex -9.77785873413 -3.86127829552 127.636787415
vertex -9.79774951935 -3.85919427872 127.636787415
endloop
endfacet
facet normal -0.0 0.0 -1.0
outer loop
vertex -9.75277328491 -3.81362819672 127.636787415
vertex -9.75796699524 -3.86335778236 127.636787415
vertex -9.77265453339 -3.81154990196 127.636787415
endloop
endfacet
facet normal 0.0 -0.0 -1.0
outer loop
vertex -9.77265453339 -3.81154990196 127.636787415
vertex -9.75796699524 -3.86335778236 127.636787415
vertex -9.77785873413 -3.86127829552 127.636787415
endloop
endfacet
facet normal 0.0 0.0 1.0
outer loop
vertex -9.81764030457 -3.8571062088 131.207778931
vertex -9.79253387451 -3.80946731567 131.207778931
vertex -9.81241416931 -3.80737996101 131.207778931
endloop
endfacet
facet normal 0.0 -0.0 1.0
outer loop
vertex -9.79774951935 -3.85919451714 131.207778931
vertex -9.79253387451 -3.80946731567 131.207778931
vertex -9.81764030457 -3.8571062088 131.207778931
endloop
endfacet
facet normal 0.0 -0.0 1.0
outer loop
vertex -9.77785873413 -3.86127829552 131.207778931
vertex -9.77265453339 -3.81154990196 131.207778931
vertex -9.79253387451 -3.80946731567 131.207778931
endloop
endfacet
facet normal 0.0 0.0 1.0
outer loop
vertex -9.77785873413 -3.86127829552 131.207778931
vertex -9.79253387451 -3.80946731567 131.207778931
vertex -9.79774951935 -3.85919451714 131.207778931
endloop
endfacet
facet normal 0.0 -0.0 1.0
outer loop
vertex -9.75796699524 -3.86335802078 131.207778931
vertex -9.75277328491 -3.81362843513 131.207778931
vertex -9.77265453339 -3.81154990196 131.207778931
endloop
endfacet
facet normal 0.0 0.0 1.0
outer loop
vertex -9.75796699524 -3.86335802078 131.207778931
vertex -9.77265453339 -3.81154990196 131.207778931
vertex -9.77785873413 -3.86127829552 131.207778931
endloop
endfacet
