solid 
facet normal 0.104632042348 0.994511067867 1.99220892227e-07
outer loop
vertex 9.83754634857 3.85501265526 -174.056884766
vertex 9.81765651703 3.85710525513 -174.056884766
vertex 9.81765651703 3.85710453987 -170.485870361
endloop
endfacet
facet normal 0.104632042348 0.994511067867 1.99195426376e-07
outer loop
vertex 9.83754634857 3.85501265526 -174.056884766
vertex 9.81765651703 3.85710453987 -170.485870361
vertex 9.83754634857 3.85501194 -170.485870361
endloop
endfacet
facet normal 0.104867838323 0.99448621273 1.99190438366e-07
outer loop
vertex 9.85743618011 3.85291528702 -174.056884766
vertex 9.83754634857 3.85501194 -170.485870361
vertex 9.85743618011 3.85291457176 -170.485870361
endloop
endfacet
facet normal 0.104867838323 0.99448621273 1.99215904217e-07
outer loop
vertex 9.85743618011 3.85291528702 -174.056884766
vertex 9.83754634857 3.85501265526 -174.056884766
vertex 9.83754634857 3.85501194 -170.485870361
endloop
endfacet
facet normal 0.105073235929 0.994464457035 2.27246914619e-07
outer loop
vertex 9.87732601166 3.85081386566 -174.056884766
vertex 9.85743618011 3.85291457176 -170.485870361
vertex 9.87732505798 3.85081315041 -170.485870361
endloop
endfacet
facet normal 0.105068266392 0.994464993477 1.99211669383e-07
outer loop
vertex 9.87732601166 3.85081386566 -174.056884766
vertex 9.85743618011 3.85291528702 -174.056884766
vertex 9.85743618011 3.85291457176 -170.485870361
endloop
endfacet
facet normal 0.994452178478 -0.105190142989 2.44509124059e-07
outer loop
vertex 9.87732601166 3.85081386566 -174.056884766
vertex 9.87732505798 3.85081315041 -170.485870361
vertex 9.8720664978 3.80109119415 -174.056884766
endloop
endfacet
facet normal 0.994452178478 -0.105190142989 2.44500228064e-07
outer loop
vertex 9.87732505798 3.85081315041 -170.485870361
vertex 9.87206554413 3.8010904789 -170.485870361
vertex 9.8720664978 3.80109119415 -174.056884766
endloop
endfacet
facet normal -0.104639455676 -0.994510173798 -2.27140233733e-07
outer loop
vertex 9.8124294281 3.8073785305 -170.485870361
vertex 9.81243038177 3.80737924576 -174.056884766
vertex 9.83230876923 3.80528688431 -170.485870361
endloop
endfacet
facet normal -0.104644425213 -0.99450969696 -1.99182409233e-07
outer loop
vertex 9.81243038177 3.80737924576 -174.056884766
vertex 9.83230876923 3.80528759956 -174.056884766
vertex 9.83230876923 3.80528688431 -170.485870361
endloop
endfacet
facet normal -0.104851789773 -0.99448788166 -1.9921944272e-07
outer loop
vertex 9.83230876923 3.80528688431 -170.485870361
vertex 9.85218811035 3.80319166183 -174.056884766
vertex 9.85218811035 3.80319094658 -170.485870361
endloop
endfacet
facet normal -0.105085879564 -0.994463145733 -1.99185819838e-07
outer loop
vertex 9.85218811035 3.80319094658 -170.485870361
vertex 9.85218811035 3.80319166183 -174.056884766
vertex 9.87206554413 3.8010904789 -170.485870361
endloop
endfacet
facet normal -0.104851789773 -0.99448788166 -1.99190779426e-07
outer loop
vertex 9.83230876923 3.80528759956 -174.056884766
vertex 9.85218811035 3.80319166183 -174.056884766
vertex 9.83230876923 3.80528688431 -170.485870361
endloop
endfacet
facet normal -0.105080902576 -0.994463741779 -2.27255185337e-07
outer loop
vertex 9.85218811035 3.80319166183 -174.056884766
vertex 9.8720664978 3.80109119415 -174.056884766
vertex 9.87206554413 3.8010904789 -170.485870361
endloop
endfacet
facet normal -0.994522511959 0.104522943497 2.10270947321e-08
outer loop
vertex 9.81243038177 3.80737924576 -174.056884766
vertex 9.81765651703 3.85710453987 -170.485870361
vertex 9.81765651703 3.85710525513 -174.056884766
endloop
endfacet
facet normal -0.994520545006 0.104541815817 -2.44657258008e-07
outer loop
vertex 9.8124294281 3.8073785305 -170.485870361
vertex 9.81765651703 3.85710453987 -170.485870361
vertex 9.81243038177 3.80737924576 -174.056884766
endloop
endfacet
facet normal 0.0 0.0 1.0
outer loop
vertex 9.87732505798 3.85081315041 -170.485870361
vertex 9.85218811035 3.80319094658 -170.485870361
vertex 9.87206554413 3.8010904789 -170.485870361
endloop
endfacet
facet normal 0.0 0.0 1.0
outer loop
vertex 9.85743618011 3.85291457176 -170.485870361
vertex 9.83230876923 3.80528688431 -170.485870361
vertex 9.85218811035 3.80319094658 -170.485870361
endloop
endfacet
facet normal 0.0 0.0 1.0
outer loop
vertex 9.85743618011 3.85291457176 -170.485870361
vertex 9.85218811035 3.80319094658 -170.485870361
vertex 9.87732505798 3.85081315041 -170.485870361
endloop
endfacet
facet normal 0.0 0.0 1.0
outer loop
vertex 9.83754634857 3.85501194 -170.485870361
vertex 9.83230876923 3.80528688431 -170.485870361
vertex 9.85743618011 3.85291457176 -170.485870361
endloop
endfacet
facet normal 0.0 0.0 1.0
outer loop
vertex 9.81765651703 3.85710453987 -170.485870361
vertex 9.8124294281 3.8073785305 -170.485870361
vertex 9.83230876923 3.80528688431 -170.485870361
endloop
endfacet
facet normal 0.0 0.0 1.0
outer loop
vertex 9.81765651703 3.85710453987 -170.485870361
vertex 9.83230876923 3.80528688431 -170.485870361
vertex 9.83754634857 3.85501194 -170.485870361
endloop
endfacet
facet normal 0.0 0.0 -1.0
outer loop
vertex 9.85218811035 3.80319166183 -174.056884766
vertex 9.87732601166 3.85081386566 -174.056884766
vertex 9.8720664978 3.80109119415 -174.056884766
endloop
endfacet
facet normal 0.0 0.0 -1.0
outer loop
vertex 9.85218811035 3.80319166183 -174.056884766
vertex 9.85743618011 3.85291528702 -174.056884766
vertex 9.87732601166 3.85081386566 -174.056884766
endloop
endfacet
facet normal 0.0 0.0 -1.0
outer loop
vertex 9.83230876923 3.80528759956 -174.056884766
vertex 9.83754634857 3.85501265526 -174.056884766
vertex 9.85218811035 3.80319166183 -174.056884766
endloop
endfacet
facet normal 0.0 0.0 -1.0
outer loop
vertex 9.85218811035 3.80319166183 -174.056884766
vertex 9.83754634857 3.85501265526 -174.056884766
vertex 9.85743618011 3.85291528702 -174.056884766
endloop
endfacet
facet normal 0.0 0.0 -1.0
outer loop
vertex 9.81243038177 3.80737924576 -174.056884766
vertex 9.81765651703 3.85710525513 -174.056884766
vertex 9.83230876923 3.80528759956 -174.056884766
endloop
endfacet
facet normal 0.0 0.0 -1.0
outer loop
vertex 9.83230876923 3.80528759956 -174.056884766
vertex 9.81765651703 3.85710525513 -174.056884766
vertex 9.83754634857 3.85501265526 -174.056884766
endloop
endfacet
