solid 
facet normal 0.104643829167 -0.99450981617 1.99222355945e-07
outer loop
vertex 9.83754444122 -3.85501170158 -266.556915283
vertex 9.81765460968 -3.85710453987 -266.556915283
vertex 9.81765460968 -3.85710525513 -270.12789917
endloop
endfacet
facet normal 0.104632042348 -0.994511008263 2.65596185045e-07
outer loop
vertex 9.83754444122 -3.85501170158 -266.556915283
vertex 9.81765460968 -3.85710525513 -270.12789917
vertex 9.83754444122 -3.85501265526 -270.12789917
endloop
endfacet
facet normal 0.104867838323 -0.994486153126 1.99192143668e-07
outer loop
vertex 9.85743427277 -3.85291457176 -266.556915283
vertex 9.83754444122 -3.85501265526 -270.12789917
vertex 9.85743427277 -3.85291528702 -270.12789917
endloop
endfacet
facet normal 0.10507325083 -0.99446451664 1.99187809358e-07
outer loop
vertex 9.85743427277 -3.85291457176 -266.556915283
vertex 9.85743427277 -3.85291528702 -270.12789917
vertex 9.87732315063 -3.85081386566 -270.12789917
endloop
endfacet
facet normal 0.104856051505 -0.994487404823 2.65589847004e-07
outer loop
vertex 9.85743427277 -3.85291457176 -266.556915283
vertex 9.83754444122 -3.85501170158 -266.556915283
vertex 9.83754444122 -3.85501265526 -270.12789917
endloop
endfacet
facet normal 0.105085037649 -0.994463264942 2.65583423698e-07
outer loop
vertex 9.87732315063 -3.85081291199 -266.556915283
vertex 9.85743427277 -3.85291457176 -266.556915283
vertex 9.87732315063 -3.85081386566 -270.12789917
endloop
endfacet
facet normal 0.994452118874 0.105190135539 -2.80922929363e-08
outer loop
vertex 9.87732315063 -3.85081291199 -266.556915283
vertex 9.87732315063 -3.85081386566 -270.12789917
vertex 9.87206363678 -3.80109119415 -270.12789917
endloop
endfacet
facet normal 0.994451999664 0.105190634727 -2.10693205105e-08
outer loop
vertex 9.87206363678 -3.8010904789 -266.556915283
vertex 9.87732315063 -3.85081291199 -266.556915283
vertex 9.87206363678 -3.80109119415 -270.12789917
endloop
endfacet
facet normal -0.104639470577 0.994510233402 -1.99174678528e-07
outer loop
vertex 9.81242752075 -3.80737924576 -270.12789917
vertex 9.83230686188 -3.80528688431 -266.556915283
vertex 9.83230686188 -3.80528759956 -270.12789917
endloop
endfacet
facet normal -0.104851804674 0.994487941265 -1.9919249894e-07
outer loop
vertex 9.83230686188 -3.80528759956 -270.12789917
vertex 9.83230686188 -3.80528688431 -266.556915283
vertex 9.852186203 -3.80319166183 -270.12789917
endloop
endfacet
facet normal -0.104639470577 0.994510233402 -1.99196975359e-07
outer loop
vertex 9.81242752075 -3.8073785305 -266.556915283
vertex 9.83230686188 -3.80528688431 -266.556915283
vertex 9.81242752075 -3.80737924576 -270.12789917
endloop
endfacet
facet normal -0.105085879564 0.994463086128 -2.65583366854e-07
outer loop
vertex 9.852186203 -3.80319166183 -270.12789917
vertex 9.852186203 -3.80319070816 -266.556915283
vertex 9.87206363678 -3.80109119415 -270.12789917
endloop
endfacet
facet normal -0.104863598943 0.994486689568 -2.65627903673e-07
outer loop
vertex 9.83230686188 -3.80528688431 -266.556915283
vertex 9.852186203 -3.80319070816 -266.556915283
vertex 9.852186203 -3.80319166183 -270.12789917
endloop
endfacet
facet normal -0.105074092746 0.994464457035 -1.99184611915e-07
outer loop
vertex 9.852186203 -3.80319070816 -266.556915283
vertex 9.87206363678 -3.8010904789 -266.556915283
vertex 9.87206363678 -3.80109119415 -270.12789917
endloop
endfacet
facet normal -0.994520485401 -0.104541808367 2.08642294552e-08
outer loop
vertex 9.81765460968 -3.85710453987 -266.556915283
vertex 9.81242752075 -3.8073785305 -266.556915283
vertex 9.81242752075 -3.80737924576 -270.12789917
endloop
endfacet
facet normal -0.994520485401 -0.104541808367 2.09393640205e-08
outer loop
vertex 9.81765460968 -3.85710453987 -266.556915283
vertex 9.81242752075 -3.80737924576 -270.12789917
vertex 9.81765460968 -3.85710525513 -270.12789917
endloop
endfacet
facet normal -0.0 0.0 1.0
outer loop
vertex 9.852186203 -3.80319070816 -266.556915283
vertex 9.87732315063 -3.85081291199 -266.556915283
vertex 9.87206363678 -3.8010904789 -266.556915283
endloop
endfacet
facet normal -0.0 0.0 1.0
outer loop
vertex 9.83230686188 -3.80528688431 -266.556915283
vertex 9.85743427277 -3.85291457176 -266.556915283
vertex 9.852186203 -3.80319070816 -266.556915283
endloop
endfacet
facet normal 0.0 0.0 1.0
outer loop
vertex 9.852186203 -3.80319070816 -266.556915283
vertex 9.85743427277 -3.85291457176 -266.556915283
vertex 9.87732315063 -3.85081291199 -266.556915283
endloop
endfacet
facet normal -0.0 0.0 1.0
outer loop
vertex 9.81242752075 -3.8073785305 -266.556915283
vertex 9.83754444122 -3.85501170158 -266.556915283
vertex 9.83230686188 -3.80528688431 -266.556915283
endloop
endfacet
facet normal 0.0 0.0 1.0
outer loop
vertex 9.83230686188 -3.80528688431 -266.556915283
vertex 9.83754444122 -3.85501170158 -266.556915283
vertex 9.85743427277 -3.85291457176 -266.556915283
endloop
endfacet
facet normal 0.0 0.0 1.0
outer loop
vertex 9.81242752075 -3.8073785305 -266.556915283
vertex 9.81765460968 -3.85710453987 -266.556915283
vertex 9.83754444122 -3.85501170158 -266.556915283
endloop
endfacet
facet normal 0.0 0.0 -1.0
outer loop
vertex 9.87732315063 -3.85081386566 -270.12789917
vertex 9.852186203 -3.80319166183 -270.12789917
vertex 9.87206363678 -3.80109119415 -270.12789917
endloop
endfacet
facet normal 0.0 0.0 -1.0
outer loop
vertex 9.85743427277 -3.85291528702 -270.12789917
vertex 9.852186203 -3.80319166183 -270.12789917
vertex 9.87732315063 -3.85081386566 -270.12789917
endloop
endfacet
facet normal 0.0 0.0 -1.0
outer loop
vertex 9.83754444122 -3.85501265526 -270.12789917
vertex 9.83230686188 -3.80528759956 -270.12789917
vertex 9.852186203 -3.80319166183 -270.12789917
endloop
endfacet
facet normal 0.0 0.0 -1.0
outer loop
vertex 9.83754444122 -3.85501265526 -270.12789917
vertex 9.852186203 -3.80319166183 -270.12789917
vertex 9.85743427277 -3.85291528702 -270.12789917
endloop
endfacet
facet normal 0.0 0.0 -1.0
outer loop
vertex 9.81765460968 -3.85710525513 -270.12789917
vertex 9.81242752075 -3.80737924576 -270.12789917
vertex 9.83230686188 -3.80528759956 -270.12789917
endloop
endfacet
facet normal 0.0 0.0 -1.0
outer loop
vertex 9.81765460968 -3.85710525513 -270.12789917
vertex 9.83230686188 -3.80528759956 -270.12789917
vertex 9.83754444122 -3.85501265526 -270.12789917
endloop
endfacet
