solid 
facet normal 0.10397361964 0.994580090046 0.0
outer loop
vertex 9.7778635025 3.86127829552 -363.698577881
vertex 9.75797176361 3.86335778236 -363.698577881
vertex 9.75797176361 3.86335778236 -360.127563477
endloop
endfacet
facet normal 0.10397361964 0.994580090046 -0.0
outer loop
vertex 9.7778635025 3.86127829552 -363.698577881
vertex 9.75797176361 3.86335778236 -360.127563477
vertex 9.7778635025 3.86127829552 -360.127563477
endloop
endfacet
facet normal 0.104202598333 0.994556069374 -0.0
outer loop
vertex 9.79775428772 3.85919427872 -363.698577881
vertex 9.7778635025 3.86127829552 -360.127563477
vertex 9.79775428772 3.85919427872 -360.127563477
endloop
endfacet
facet normal 0.104414850473 0.994533836842 -0.0
outer loop
vertex 9.79775428772 3.85919427872 -363.698577881
vertex 9.79775428772 3.85919427872 -360.127563477
vertex 9.81764507294 3.85710597038 -360.127563477
endloop
endfacet
facet normal 0.104202598333 0.994556069374 0.0
outer loop
vertex 9.79775428772 3.85919427872 -363.698577881
vertex 9.7778635025 3.86127829552 -363.698577881
vertex 9.7778635025 3.86127829552 -360.127563477
endloop
endfacet
facet normal 0.104414850473 0.994533836842 -0.0
outer loop
vertex 9.81764507294 3.85710597038 -363.698577881
vertex 9.79775428772 3.85919427872 -363.698577881
vertex 9.81764507294 3.85710597038 -360.127563477
endloop
endfacet
facet normal 0.994522511959 -0.104522943497 0.0
outer loop
vertex 9.81764507294 3.85710597038 -363.698577881
vertex 9.81764507294 3.85710597038 -360.127563477
vertex 9.81241893768 3.80737996101 -363.698577881
endloop
endfacet
facet normal 0.994522511959 -0.104522451758 -7.00899827066e-09
outer loop
vertex 9.81764507294 3.85710597038 -360.127563477
vertex 9.81241893768 3.8073797226 -360.127563477
vertex 9.81241893768 3.80737996101 -363.698577881
endloop
endfacet
facet normal -0.103980697691 -0.994579315186 -6.64062156375e-08
outer loop
vertex 9.75277805328 3.81362819672 -360.127563477
vertex 9.77265930176 3.81154990196 -363.698577881
vertex 9.77265930176 3.81154966354 -360.127563477
endloop
endfacet
facet normal -0.103968903422 -0.994580566883 0.0
outer loop
vertex 9.75277805328 3.81362819672 -363.698577881
vertex 9.77265930176 3.81154990196 -363.698577881
vertex 9.75277805328 3.81362819672 -360.127563477
endloop
endfacet
facet normal -0.104191146791 -0.994557321072 0.0
outer loop
vertex 9.77265930176 3.81154966354 -360.127563477
vertex 9.79253864288 3.80946707726 -363.698577881
vertex 9.79253864288 3.80946707726 -360.127563477
endloop
endfacet
facet normal -0.104422152042 -0.994533061981 -0.0
outer loop
vertex 9.79253864288 3.80946707726 -360.127563477
vertex 9.79253864288 3.80946707726 -363.698577881
vertex 9.81241893768 3.8073797226 -360.127563477
endloop
endfacet
facet normal -0.104202948511 -0.994556069374 -6.64014763174e-08
outer loop
vertex 9.77265930176 3.81154990196 -363.698577881
vertex 9.79253864288 3.80946707726 -363.698577881
vertex 9.77265930176 3.81154966354 -360.127563477
endloop
endfacet
facet normal -0.104410357773 -0.994534313679 -6.64064003786e-08
outer loop
vertex 9.79253864288 3.80946707726 -363.698577881
vertex 9.81241893768 3.80737996101 -363.698577881
vertex 9.81241893768 3.8073797226 -360.127563477
endloop
endfacet
facet normal -0.994590461254 0.103874072433 0.0
outer loop
vertex 9.75277805328 3.81362819672 -363.698577881
vertex 9.75277805328 3.81362819672 -360.127563477
vertex 9.75797176361 3.86335778236 -363.698577881
endloop
endfacet
facet normal -0.994590461254 0.103874072433 0.0
outer loop
vertex 9.75277805328 3.81362819672 -360.127563477
vertex 9.75797176361 3.86335778236 -360.127563477
vertex 9.75797176361 3.86335778236 -363.698577881
endloop
endfacet
facet normal 0.0 0.0 1.0
outer loop
vertex 9.81764507294 3.85710597038 -360.127563477
vertex 9.79253864288 3.80946707726 -360.127563477
vertex 9.81241893768 3.8073797226 -360.127563477
endloop
endfacet
facet normal 0.0 0.0 1.0
outer loop
vertex 9.79775428772 3.85919427872 -360.127563477
vertex 9.77265930176 3.81154966354 -360.127563477
vertex 9.79253864288 3.80946707726 -360.127563477
endloop
endfacet
facet normal 0.0 0.0 1.0
outer loop
vertex 9.79775428772 3.85919427872 -360.127563477
vertex 9.79253864288 3.80946707726 -360.127563477
vertex 9.81764507294 3.85710597038 -360.127563477
endloop
endfacet
facet normal 0.0 0.0 1.0
outer loop
vertex 9.7778635025 3.86127829552 -360.127563477
vertex 9.77265930176 3.81154966354 -360.127563477
vertex 9.79775428772 3.85919427872 -360.127563477
endloop
endfacet
facet normal 0.0 0.0 1.0
outer loop
vertex 9.75797176361 3.86335778236 -360.127563477
vertex 9.75277805328 3.81362819672 -360.127563477
vertex 9.77265930176 3.81154966354 -360.127563477
endloop
endfacet
facet normal 0.0 0.0 1.0
outer loop
vertex 9.75797176361 3.86335778236 -360.127563477
vertex 9.77265930176 3.81154966354 -360.127563477
vertex 9.7778635025 3.86127829552 -360.127563477
endloop
endfacet
facet normal 0.0 0.0 -1.0
outer loop
vertex 9.79253864288 3.80946707726 -363.698577881
vertex 9.81764507294 3.85710597038 -363.698577881
vertex 9.81241893768 3.80737996101 -363.698577881
endloop
endfacet
facet normal 0.0 0.0 -1.0
outer loop
vertex 9.79253864288 3.80946707726 -363.698577881
vertex 9.79775428772 3.85919427872 -363.698577881
vertex 9.81764507294 3.85710597038 -363.698577881
endloop
endfacet
facet normal 0.0 0.0 -1.0
outer loop
vertex 9.77265930176 3.81154990196 -363.698577881
vertex 9.7778635025 3.86127829552 -363.698577881
vertex 9.79253864288 3.80946707726 -363.698577881
endloop
endfacet
facet normal 0.0 0.0 -1.0
outer loop
vertex 9.79253864288 3.80946707726 -363.698577881
vertex 9.7778635025 3.86127829552 -363.698577881
vertex 9.79775428772 3.85919427872 -363.698577881
endloop
endfacet
facet normal 0.0 0.0 -1.0
outer loop
vertex 9.75277805328 3.81362819672 -363.698577881
vertex 9.75797176361 3.86335778236 -363.698577881
vertex 9.77265930176 3.81154990196 -363.698577881
endloop
endfacet
facet normal 0.0 0.0 -1.0
outer loop
vertex 9.77265930176 3.81154990196 -363.698577881
vertex 9.75797176361 3.86335778236 -363.698577881
vertex 9.7778635025 3.86127829552 -363.698577881
endloop
endfacet
