solid 
facet normal 0.10397361964 0.994580030441 -0.0
outer loop
vertex 9.75797176361 3.86335778236 40.3423042297
vertex 9.75797176361 3.86335778236 43.9133033752
vertex 9.7778635025 3.86127829552 43.9133033752
endloop
endfacet
facet normal 0.103985413909 0.994578838348 -6.6403281096e-08
outer loop
vertex 9.7778635025 3.8612780571 40.3423042297
vertex 9.75797176361 3.86335778236 40.3423042297
vertex 9.7778635025 3.86127829552 43.9133033752
endloop
endfacet
facet normal 0.104202598333 0.994556009769 -0.0
outer loop
vertex 9.79775428772 3.85919427872 40.3423042297
vertex 9.7778635025 3.86127829552 43.9133033752
vertex 9.79775428772 3.85919427872 43.9133033752
endloop
endfacet
facet normal 0.104190818965 0.994557380676 -6.64241426307e-08
outer loop
vertex 9.79775428772 3.85919427872 40.3423042297
vertex 9.7778635025 3.8612780571 40.3423042297
vertex 9.7778635025 3.86127829552 43.9133033752
endloop
endfacet
facet normal 0.104414850473 0.994533836842 -6.64002826056e-08
outer loop
vertex 9.81764507294 3.85710573196 40.3423042297
vertex 9.79775428772 3.85919427872 43.9133033752
vertex 9.81764507294 3.85710597038 43.9133033752
endloop
endfacet
facet normal 0.104426637292 0.994532585144 0.0
outer loop
vertex 9.81764507294 3.85710573196 40.3423042297
vertex 9.79775428772 3.85919427872 40.3423042297
vertex 9.79775428772 3.85919427872 43.9133033752
endloop
endfacet
facet normal 0.994522511959 -0.104522451758 6.97846536113e-09
outer loop
vertex 9.81764507294 3.85710573196 40.3423042297
vertex 9.81764507294 3.85710597038 43.9133033752
vertex 9.81241893768 3.8073797226 43.9133033752
endloop
endfacet
facet normal 0.994522511959 -0.104522950947 0.0
outer loop
vertex 9.81241893768 3.8073797226 40.3423042297
vertex 9.81764507294 3.85710573196 40.3423042297
vertex 9.81241893768 3.8073797226 43.9133033752
endloop
endfacet
facet normal -0.103968903422 -0.994580507278 -0.0
outer loop
vertex 9.75277805328 3.81362819672 43.9133033752
vertex 9.75277805328 3.81362819672 40.3423042297
vertex 9.77265930176 3.81154990196 43.9133033752
endloop
endfacet
facet normal -0.103980697691 -0.994579315186 6.64064998546e-08
outer loop
vertex 9.75277805328 3.81362819672 40.3423042297
vertex 9.77265930176 3.81154966354 40.3423042297
vertex 9.77265930176 3.81154990196 43.9133033752
endloop
endfacet
facet normal -0.10420294106 -0.994556009769 6.64113173343e-08
outer loop
vertex 9.77265930176 3.81154990196 43.9133033752
vertex 9.79253864288 3.80946683884 40.3423042297
vertex 9.79253864288 3.80946707726 43.9133033752
endloop
endfacet
facet normal -0.10420294106 -0.994556009769 6.64017605345e-08
outer loop
vertex 9.77265930176 3.81154966354 40.3423042297
vertex 9.79253864288 3.80946683884 40.3423042297
vertex 9.77265930176 3.81154990196 43.9133033752
endloop
endfacet
facet normal -0.104422152042 -0.994533061981 0.0
outer loop
vertex 9.79253864288 3.80946707726 43.9133033752
vertex 9.81241893768 3.8073797226 40.3423042297
vertex 9.81241893768 3.8073797226 43.9133033752
endloop
endfacet
facet normal -0.104410357773 -0.994534313679 6.64003110273e-08
outer loop
vertex 9.79253864288 3.80946683884 40.3423042297
vertex 9.81241893768 3.8073797226 40.3423042297
vertex 9.79253864288 3.80946707726 43.9133033752
endloop
endfacet
facet normal -0.994590461254 0.103874079883 0.0
outer loop
vertex 9.75277805328 3.81362819672 40.3423042297
vertex 9.75277805328 3.81362819672 43.9133033752
vertex 9.75797176361 3.86335778236 43.9133033752
endloop
endfacet
facet normal -0.994590461254 0.103874079883 0.0
outer loop
vertex 9.75797176361 3.86335778236 40.3423042297
vertex 9.75277805328 3.81362819672 40.3423042297
vertex 9.75797176361 3.86335778236 43.9133033752
endloop
endfacet
facet normal 0.0 0.0 -1.0
outer loop
vertex 9.79253864288 3.80946683884 40.3423042297
vertex 9.81764507294 3.85710573196 40.3423042297
vertex 9.81241893768 3.8073797226 40.3423042297
endloop
endfacet
facet normal 0.0 0.0 -1.0
outer loop
vertex 9.79253864288 3.80946683884 40.3423042297
vertex 9.79775428772 3.85919427872 40.3423042297
vertex 9.81764507294 3.85710573196 40.3423042297
endloop
endfacet
facet normal 0.0 0.0 -1.0
outer loop
vertex 9.77265930176 3.81154966354 40.3423042297
vertex 9.7778635025 3.8612780571 40.3423042297
vertex 9.79253864288 3.80946683884 40.3423042297
endloop
endfacet
facet normal 0.0 0.0 -1.0
outer loop
vertex 9.79253864288 3.80946683884 40.3423042297
vertex 9.7778635025 3.8612780571 40.3423042297
vertex 9.79775428772 3.85919427872 40.3423042297
endloop
endfacet
facet normal 0.0 0.0 -1.0
outer loop
vertex 9.75277805328 3.81362819672 40.3423042297
vertex 9.75797176361 3.86335778236 40.3423042297
vertex 9.77265930176 3.81154966354 40.3423042297
endloop
endfacet
facet normal 0.0 0.0 -1.0
outer loop
vertex 9.77265930176 3.81154966354 40.3423042297
vertex 9.75797176361 3.86335778236 40.3423042297
vertex 9.7778635025 3.8612780571 40.3423042297
endloop
endfacet
facet normal 0.0 0.0 1.0
outer loop
vertex 9.81764507294 3.85710597038 43.9133033752
vertex 9.79253864288 3.80946707726 43.9133033752
vertex 9.81241893768 3.8073797226 43.9133033752
endloop
endfacet
facet normal 0.0 0.0 1.0
outer loop
vertex 9.79775428772 3.85919427872 43.9133033752
vertex 9.79253864288 3.80946707726 43.9133033752
vertex 9.81764507294 3.85710597038 43.9133033752
endloop
endfacet
facet normal 0.0 0.0 1.0
outer loop
vertex 9.7778635025 3.86127829552 43.9133033752
vertex 9.77265930176 3.81154990196 43.9133033752
vertex 9.79253864288 3.80946707726 43.9133033752
endloop
endfacet
facet normal 0.0 0.0 1.0
outer loop
vertex 9.7778635025 3.86127829552 43.9133033752
vertex 9.79253864288 3.80946707726 43.9133033752
vertex 9.79775428772 3.85919427872 43.9133033752
endloop
endfacet
facet normal 0.0 0.0 1.0
outer loop
vertex 9.75797176361 3.86335778236 43.9133033752
vertex 9.75277805328 3.81362819672 43.9133033752
vertex 9.77265930176 3.81154990196 43.9133033752
endloop
endfacet
facet normal 0.0 0.0 1.0
outer loop
vertex 9.75797176361 3.86335778236 43.9133033752
vertex 9.77265930176 3.81154990196 43.9133033752
vertex 9.7778635025 3.86127829552 43.9133033752
endloop
endfacet
