solid 
facet normal 0.104632034898 0.994510948658 -2.65594962912e-07
outer loop
vertex 9.83753395081 3.85501194 0.661304235458
vertex 9.81764411926 3.85710453987 0.661304235458
vertex 9.81764411926 3.85710549355 4.23230409622
endloop
endfacet
facet normal 0.104643821716 0.99450969696 -1.99195966388e-07
outer loop
vertex 9.83753395081 3.85501194 0.661304235458
vertex 9.81764411926 3.85710549355 4.23230409622
vertex 9.83753395081 3.85501265526 4.23230409622
endloop
endfacet
facet normal 0.104856051505 0.994487404823 -2.65588653292e-07
outer loop
vertex 9.85742378235 3.85291457176 0.661304235458
vertex 9.83753395081 3.85501265526 4.23230409622
vertex 9.85742378235 3.85291552544 4.23230409622
endloop
endfacet
facet normal 0.104867838323 0.994486153126 -1.99165782533e-07
outer loop
vertex 9.85742378235 3.85291457176 0.661304235458
vertex 9.83753395081 3.85501194 0.661304235458
vertex 9.83753395081 3.85501265526 4.23230409622
endloop
endfacet
facet normal 0.10508004576 0.994463741779 -1.99186757754e-07
outer loop
vertex 9.87731361389 3.85081315041 0.661304235458
vertex 9.85742378235 3.85291552544 4.23230409622
vertex 9.87731361389 3.85081386566 4.23230409622
endloop
endfacet
facet normal 0.105068258941 0.994464993477 -2.65582684733e-07
outer loop
vertex 9.87731361389 3.85081315041 0.661304235458
vertex 9.85742378235 3.85291457176 0.661304235458
vertex 9.85742378235 3.85291552544 4.23230409622
endloop
endfacet
facet normal 0.994452178478 -0.105190142989 2.11901038938e-08
outer loop
vertex 9.87205410004 3.8010904789 0.661304295063
vertex 9.87731361389 3.85081315041 0.661304235458
vertex 9.87731361389 3.85081386566 4.23230409622
endloop
endfacet
facet normal 0.994452118874 -0.105190649629 2.80923053708e-08
outer loop
vertex 9.87205410004 3.8010904789 0.661304295063
vertex 9.87731361389 3.85081386566 4.23230409622
vertex 9.87205410004 3.80109143257 4.23230409622
endloop
endfacet
facet normal -0.104639463127 -0.994510233402 2.6559476396e-07
outer loop
vertex 9.81241798401 3.80737948418 4.23230409622
vertex 9.81241798401 3.8073785305 0.661304295063
vertex 9.83229732513 3.80528783798 4.23230409622
endloop
endfacet
facet normal -0.104868561029 -0.994486033916 2.6558828381e-07
outer loop
vertex 9.83229732513 3.80528783798 4.23230409622
vertex 9.83229732513 3.80528688431 0.661304295063
vertex 9.85217571259 3.80319166183 4.23230409622
endloop
endfacet
facet normal -0.104639463127 -0.994510233402 2.65582031034e-07
outer loop
vertex 9.81241798401 3.8073785305 0.661304295063
vertex 9.83229732513 3.80528688431 0.661304295063
vertex 9.83229732513 3.80528783798 4.23230409622
endloop
endfacet
facet normal -0.104856774211 -0.994487345219 1.99178742832e-07
outer loop
vertex 9.83229732513 3.80528688431 0.661304295063
vertex 9.85217571259 3.80319094658 0.661304295063
vertex 9.85217571259 3.80319166183 4.23230409622
endloop
endfacet
facet normal -0.105069100857 -0.994464933872 2.65582656311e-07
outer loop
vertex 9.85217571259 3.80319166183 4.23230409622
vertex 9.87205410004 3.8010904789 0.661304295063
vertex 9.87205410004 3.80109143257 4.23230409622
endloop
endfacet
facet normal -0.105080895126 -0.994463682175 1.99186743544e-07
outer loop
vertex 9.85217571259 3.80319094658 0.661304295063
vertex 9.87205410004 3.8010904789 0.661304295063
vertex 9.85217571259 3.80319166183 4.23230409622
endloop
endfacet
facet normal -0.994522511959 0.104522943497 -2.787323794e-08
outer loop
vertex 9.81764411926 3.85710453987 0.661304235458
vertex 9.81241798401 3.8073785305 0.661304295063
vertex 9.81241798401 3.80737948418 4.23230409622
endloop
endfacet
facet normal -0.994522511959 0.104522943497 -2.79139875659e-08
outer loop
vertex 9.81764411926 3.85710453987 0.661304235458
vertex 9.81241798401 3.80737948418 4.23230409622
vertex 9.81764411926 3.85710549355 4.23230409622
endloop
endfacet
facet normal -1.25266026885e-07 -1.18549155559e-06 -1.0
outer loop
vertex 9.85217571259 3.80319094658 0.661304295063
vertex 9.87731361389 3.85081315041 0.661304235458
vertex 9.87205410004 3.8010904789 0.661304295063
endloop
endfacet
facet normal -1.24999488094e-07 -1.18552577533e-06 -1.0
outer loop
vertex 9.83229732513 3.80528688431 0.661304295063
vertex 9.85742378235 3.85291457176 0.661304235458
vertex 9.85217571259 3.80319094658 0.661304295063
endloop
endfacet
facet normal -1.25251588656e-07 -1.18549905892e-06 -1.0
outer loop
vertex 9.85217571259 3.80319094658 0.661304295063
vertex 9.85742378235 3.85291457176 0.661304235458
vertex 9.87731361389 3.85081315041 0.661304235458
endloop
endfacet
facet normal -1.24739869989e-07 -1.18554771689e-06 -1.0
outer loop
vertex 9.81241798401 3.8073785305 0.661304295063
vertex 9.83753395081 3.85501194 0.661304235458
vertex 9.83229732513 3.80528688431 0.661304295063
endloop
endfacet
facet normal -1.25012107333e-07 -1.18551895412e-06 -1.0
outer loop
vertex 9.83229732513 3.80528688431 0.661304295063
vertex 9.83753395081 3.85501194 0.661304235458
vertex 9.85742378235 3.85291457176 0.661304235458
endloop
endfacet
facet normal -1.24731400319e-07 -1.18555226436e-06 -1.0
outer loop
vertex 9.81241798401 3.8073785305 0.661304295063
vertex 9.81764411926 3.85710453987 0.661304235458
vertex 9.83753395081 3.85501194 0.661304235458
endloop
endfacet
facet normal 0.0 0.0 1.0
outer loop
vertex 9.87731361389 3.85081386566 4.23230409622
vertex 9.85217571259 3.80319166183 4.23230409622
vertex 9.87205410004 3.80109143257 4.23230409622
endloop
endfacet
facet normal 0.0 0.0 1.0
outer loop
vertex 9.85742378235 3.85291552544 4.23230409622
vertex 9.83229732513 3.80528783798 4.23230409622
vertex 9.85217571259 3.80319166183 4.23230409622
endloop
endfacet
facet normal 0.0 0.0 1.0
outer loop
vertex 9.85742378235 3.85291552544 4.23230409622
vertex 9.85217571259 3.80319166183 4.23230409622
vertex 9.87731361389 3.85081386566 4.23230409622
endloop
endfacet
facet normal 0.0 0.0 1.0
outer loop
vertex 9.83753395081 3.85501265526 4.23230409622
vertex 9.83229732513 3.80528783798 4.23230409622
vertex 9.85742378235 3.85291552544 4.23230409622
endloop
endfacet
facet normal 0.0 0.0 1.0
outer loop
vertex 9.81764411926 3.85710549355 4.23230409622
vertex 9.81241798401 3.80737948418 4.23230409622
vertex 9.83229732513 3.80528783798 4.23230409622
endloop
endfacet
facet normal 0.0 0.0 1.0
outer loop
vertex 9.81764411926 3.85710549355 4.23230409622
vertex 9.83229732513 3.80528783798 4.23230409622
vertex 9.83753395081 3.85501265526 4.23230409622
endloop
endfacet
