solid 
facet normal 0.10397361964 -0.994580030441 0.0
outer loop
vertex 9.75796699524 -3.86335754395 -226.81590271
vertex 9.75796699524 -3.86335754395 -230.386901855
vertex 9.77785873413 -3.8612780571 -230.386901855
endloop
endfacet
facet normal 0.103985413909 -0.994578838348 6.6403281096e-08
outer loop
vertex 9.77785873413 -3.86127781868 -226.81590271
vertex 9.75796699524 -3.86335754395 -226.81590271
vertex 9.77785873413 -3.8612780571 -230.386901855
endloop
endfacet
facet normal 0.104202598333 -0.994556009769 0.0
outer loop
vertex 9.79774951935 -3.8591940403 -226.81590271
vertex 9.77785873413 -3.8612780571 -230.386901855
vertex 9.79774951935 -3.8591940403 -230.386901855
endloop
endfacet
facet normal 0.104190818965 -0.994557380676 6.64241426307e-08
outer loop
vertex 9.79774951935 -3.8591940403 -226.81590271
vertex 9.77785873413 -3.86127781868 -226.81590271
vertex 9.77785873413 -3.8612780571 -230.386901855
endloop
endfacet
facet normal 0.104414850473 -0.994533836842 6.64002826056e-08
outer loop
vertex 9.81764030457 -3.85710549355 -226.81590271
vertex 9.79774951935 -3.8591940403 -230.386901855
vertex 9.81764030457 -3.85710573196 -230.386901855
endloop
endfacet
facet normal 0.104426637292 -0.994532585144 0.0
outer loop
vertex 9.81764030457 -3.85710549355 -226.81590271
vertex 9.79774951935 -3.8591940403 -226.81590271
vertex 9.79774951935 -3.8591940403 -230.386901855
endloop
endfacet
facet normal 0.994522511959 0.104522950947 -7.00906133133e-09
outer loop
vertex 9.81241416931 -3.80737948418 -226.81590271
vertex 9.81764030457 -3.85710549355 -226.81590271
vertex 9.81764030457 -3.85710573196 -230.386901855
endloop
endfacet
facet normal 0.994522511959 0.104522950947 -6.97849866782e-09
outer loop
vertex 9.81241416931 -3.80737948418 -226.81590271
vertex 9.81764030457 -3.85710573196 -230.386901855
vertex 9.81241416931 -3.8073797226 -230.386901855
endloop
endfacet
facet normal -0.103968903422 0.994580507278 0.0
outer loop
vertex 9.75277328491 -3.8136279583 -230.386901855
vertex 9.75277328491 -3.8136279583 -226.81590271
vertex 9.77265453339 -3.81154966354 -230.386901855
endloop
endfacet
facet normal -0.103980697691 0.994579315186 -6.64064998546e-08
outer loop
vertex 9.75277328491 -3.8136279583 -226.81590271
vertex 9.77265453339 -3.81154942513 -226.81590271
vertex 9.77265453339 -3.81154966354 -230.386901855
endloop
endfacet
facet normal -0.10420294106 0.994556009769 2.78285341437e-08
outer loop
vertex 9.77265453339 -3.81154966354 -230.386901855
vertex 9.79253482819 -3.80946683884 -226.81590271
vertex 9.79253387451 -3.80946683884 -230.386901855
endloop
endfacet
facet normal -0.104186214507 0.994557857513 -6.64018884322e-08
outer loop
vertex 9.77265453339 -3.81154942513 -226.81590271
vertex 9.79253482819 -3.80946683884 -226.81590271
vertex 9.77265453339 -3.81154966354 -230.386901855
endloop
endfacet
facet normal -0.104410357773 0.994534313679 -6.64066845957e-08
outer loop
vertex 9.79253387451 -3.80946683884 -230.386901855
vertex 9.81241416931 -3.80737948418 -226.81590271
vertex 9.81241416931 -3.8073797226 -230.386901855
endloop
endfacet
facet normal -0.104427114129 0.994532585144 2.78884009219e-08
outer loop
vertex 9.79253482819 -3.80946683884 -226.81590271
vertex 9.81241416931 -3.80737948418 -226.81590271
vertex 9.79253387451 -3.80946683884 -230.386901855
endloop
endfacet
facet normal -0.994590461254 -0.103874079883 -0.0
outer loop
vertex 9.75277328491 -3.8136279583 -226.81590271
vertex 9.75277328491 -3.8136279583 -230.386901855
vertex 9.75796699524 -3.86335754395 -230.386901855
endloop
endfacet
facet normal -0.994590461254 -0.103874079883 -0.0
outer loop
vertex 9.75796699524 -3.86335754395 -226.81590271
vertex 9.75277328491 -3.8136279583 -226.81590271
vertex 9.75796699524 -3.86335754395 -230.386901855
endloop
endfacet
facet normal -0.0 0.0 1.0
outer loop
vertex 9.79253482819 -3.80946683884 -226.81590271
vertex 9.81764030457 -3.85710549355 -226.81590271
vertex 9.81241416931 -3.80737948418 -226.81590271
endloop
endfacet
facet normal 0.0 0.0 1.0
outer loop
vertex 9.79253482819 -3.80946683884 -226.81590271
vertex 9.79774951935 -3.8591940403 -226.81590271
vertex 9.81764030457 -3.85710549355 -226.81590271
endloop
endfacet
facet normal -0.0 0.0 1.0
outer loop
vertex 9.77265453339 -3.81154942513 -226.81590271
vertex 9.77785873413 -3.86127781868 -226.81590271
vertex 9.79253482819 -3.80946683884 -226.81590271
endloop
endfacet
facet normal 0.0 0.0 1.0
outer loop
vertex 9.79253482819 -3.80946683884 -226.81590271
vertex 9.77785873413 -3.86127781868 -226.81590271
vertex 9.79774951935 -3.8591940403 -226.81590271
endloop
endfacet
facet normal -0.0 0.0 1.0
outer loop
vertex 9.75277328491 -3.8136279583 -226.81590271
vertex 9.75796699524 -3.86335754395 -226.81590271
vertex 9.77265453339 -3.81154942513 -226.81590271
endloop
endfacet
facet normal 0.0 0.0 1.0
outer loop
vertex 9.77265453339 -3.81154942513 -226.81590271
vertex 9.75796699524 -3.86335754395 -226.81590271
vertex 9.77785873413 -3.86127781868 -226.81590271
endloop
endfacet
facet normal 0.0 0.0 -1.0
outer loop
vertex 9.81764030457 -3.85710573196 -230.386901855
vertex 9.79253387451 -3.80946683884 -230.386901855
vertex 9.81241416931 -3.8073797226 -230.386901855
endloop
endfacet
facet normal 0.0 0.0 -1.0
outer loop
vertex 9.79774951935 -3.8591940403 -230.386901855
vertex 9.77265453339 -3.81154966354 -230.386901855
vertex 9.79253387451 -3.80946683884 -230.386901855
endloop
endfacet
facet normal 0.0 0.0 -1.0
outer loop
vertex 9.79774951935 -3.8591940403 -230.386901855
vertex 9.79253387451 -3.80946683884 -230.386901855
vertex 9.81764030457 -3.85710573196 -230.386901855
endloop
endfacet
facet normal 0.0 0.0 -1.0
outer loop
vertex 9.77785873413 -3.8612780571 -230.386901855
vertex 9.77265453339 -3.81154966354 -230.386901855
vertex 9.79774951935 -3.8591940403 -230.386901855
endloop
endfacet
facet normal 0.0 0.0 -1.0
outer loop
vertex 9.75796699524 -3.86335754395 -230.386901855
vertex 9.75277328491 -3.8136279583 -230.386901855
vertex 9.77265453339 -3.81154966354 -230.386901855
endloop
endfacet
facet normal 0.0 0.0 -1.0
outer loop
vertex 9.75796699524 -3.86335754395 -230.386901855
vertex 9.77265453339 -3.81154966354 -230.386901855
vertex 9.77785873413 -3.8612780571 -230.386901855
endloop
endfacet
