solid 
facet normal -0.10397361964 0.994580090046 0.0
outer loop
vertex -9.77787971497 3.86127686501 305.795013428
vertex -9.75798797607 3.86335635185 305.795013428
vertex -9.75798797607 3.86335635185 302.223999023
endloop
endfacet
facet normal -0.10397361964 0.994580090046 0.0
outer loop
vertex -9.77787971497 3.86127686501 305.795013428
vertex -9.75798797607 3.86335635185 302.223999023
vertex -9.77787971497 3.86127686501 302.223999023
endloop
endfacet
facet normal -0.104202598333 0.994556069374 0.0
outer loop
vertex -9.79777050018 3.85919284821 305.795013428
vertex -9.77787971497 3.86127686501 302.223999023
vertex -9.79777050018 3.85919284821 302.223999023
endloop
endfacet
facet normal -0.104202598333 0.994556069374 0.0
outer loop
vertex -9.79777050018 3.85919284821 305.795013428
vertex -9.77787971497 3.86127686501 305.795013428
vertex -9.77787971497 3.86127686501 302.223999023
endloop
endfacet
facet normal -0.104414850473 0.994533836842 0.0
outer loop
vertex -9.8176612854 3.85710453987 305.795013428
vertex -9.79777050018 3.85919284821 302.223999023
vertex -9.8176612854 3.85710453987 302.223999023
endloop
endfacet
facet normal -0.104414850473 0.994533836842 0.0
outer loop
vertex -9.8176612854 3.85710453987 305.795013428
vertex -9.79777050018 3.85919284821 305.795013428
vertex -9.79777050018 3.85919284821 302.223999023
endloop
endfacet
facet normal -0.994522511959 -0.104522943497 0.0
outer loop
vertex -9.8176612854 3.85710453987 305.795013428
vertex -9.81243515015 3.8073785305 302.223999023
vertex -9.81243515015 3.8073785305 305.795013428
endloop
endfacet
facet normal -0.994522511959 -0.104522943497 0.0
outer loop
vertex -9.8176612854 3.85710453987 302.223999023
vertex -9.81243515015 3.8073785305 302.223999023
vertex -9.8176612854 3.85710453987 305.795013428
endloop
endfacet
facet normal 0.103968903422 -0.994580566883 0.0
outer loop
vertex -9.75279426575 3.8136267662 302.223999023
vertex -9.77267551422 3.81154847145 305.795013428
vertex -9.77267551422 3.81154847145 302.223999023
endloop
endfacet
facet normal 0.103968903422 -0.994580566883 0.0
outer loop
vertex -9.75279426575 3.8136267662 305.795013428
vertex -9.77267551422 3.81154847145 305.795013428
vertex -9.75279426575 3.8136267662 302.223999023
endloop
endfacet
facet normal 0.104202948511 -0.994556069374 0.0
outer loop
vertex -9.77267551422 3.81154847145 302.223999023
vertex -9.79255485535 3.80946564674 305.795013428
vertex -9.79255485535 3.80946564674 302.223999023
endloop
endfacet
facet normal 0.104202948511 -0.994556069374 0.0
outer loop
vertex -9.77267551422 3.81154847145 305.795013428
vertex -9.79255485535 3.80946564674 305.795013428
vertex -9.77267551422 3.81154847145 302.223999023
endloop
endfacet
facet normal 0.104410357773 -0.994534313679 0.0
outer loop
vertex -9.79255485535 3.80946564674 302.223999023
vertex -9.81243515015 3.8073785305 305.795013428
vertex -9.81243515015 3.8073785305 302.223999023
endloop
endfacet
facet normal 0.104410357773 -0.994534313679 0.0
outer loop
vertex -9.79255485535 3.80946564674 305.795013428
vertex -9.81243515015 3.8073785305 305.795013428
vertex -9.79255485535 3.80946564674 302.223999023
endloop
endfacet
facet normal 0.994590461254 0.103874072433 0.0
outer loop
vertex -9.75279426575 3.8136267662 305.795013428
vertex -9.75279426575 3.8136267662 302.223999023
vertex -9.75798797607 3.86335635185 305.795013428
endloop
endfacet
facet normal 0.994590461254 0.103874072433 0.0
outer loop
vertex -9.75279426575 3.8136267662 302.223999023
vertex -9.75798797607 3.86335635185 302.223999023
vertex -9.75798797607 3.86335635185 305.795013428
endloop
endfacet
facet normal 0.0 -0.0 -1.0
outer loop
vertex -9.79777050018 3.85919284821 302.223999023
vertex -9.79255485535 3.80946564674 302.223999023
vertex -9.81243515015 3.8073785305 302.223999023
endloop
endfacet
facet normal 0.0 0.0 -1.0
outer loop
vertex -9.79777050018 3.85919284821 302.223999023
vertex -9.81243515015 3.8073785305 302.223999023
vertex -9.8176612854 3.85710453987 302.223999023
endloop
endfacet
facet normal 0.0 -0.0 -1.0
outer loop
vertex -9.77787971497 3.86127686501 302.223999023
vertex -9.77267551422 3.81154847145 302.223999023
vertex -9.79255485535 3.80946564674 302.223999023
endloop
endfacet
facet normal 0.0 0.0 -1.0
outer loop
vertex -9.77787971497 3.86127686501 302.223999023
vertex -9.79255485535 3.80946564674 302.223999023
vertex -9.79777050018 3.85919284821 302.223999023
endloop
endfacet
facet normal 0.0 -0.0 -1.0
outer loop
vertex -9.75798797607 3.86335635185 302.223999023
vertex -9.75279426575 3.8136267662 302.223999023
vertex -9.77267551422 3.81154847145 302.223999023
endloop
endfacet
facet normal 0.0 0.0 -1.0
outer loop
vertex -9.75798797607 3.86335635185 302.223999023
vertex -9.77267551422 3.81154847145 302.223999023
vertex -9.77787971497 3.86127686501 302.223999023
endloop
endfacet
facet normal 0.0 0.0 1.0
outer loop
vertex -9.79255485535 3.80946564674 305.795013428
vertex -9.8176612854 3.85710453987 305.795013428
vertex -9.81243515015 3.8073785305 305.795013428
endloop
endfacet
facet normal 0.0 0.0 1.0
outer loop
vertex -9.77267551422 3.81154847145 305.795013428
vertex -9.79777050018 3.85919284821 305.795013428
vertex -9.79255485535 3.80946564674 305.795013428
endloop
endfacet
facet normal 0.0 0.0 1.0
outer loop
vertex -9.79255485535 3.80946564674 305.795013428
vertex -9.79777050018 3.85919284821 305.795013428
vertex -9.8176612854 3.85710453987 305.795013428
endloop
endfacet
facet normal 0.0 0.0 1.0
outer loop
vertex -9.75279426575 3.8136267662 305.795013428
vertex -9.77787971497 3.86127686501 305.795013428
vertex -9.77267551422 3.81154847145 305.795013428
endloop
endfacet
facet normal 0.0 0.0 1.0
outer loop
vertex -9.77267551422 3.81154847145 305.795013428
vertex -9.77787971497 3.86127686501 305.795013428
vertex -9.79777050018 3.85919284821 305.795013428
endloop
endfacet
facet normal 0.0 0.0 1.0
outer loop
vertex -9.75279426575 3.8136267662 305.795013428
vertex -9.75798797607 3.86335635185 305.795013428
vertex -9.77787971497 3.86127686501 305.795013428
endloop
endfacet
