solid 
facet normal -0.104632034898 -0.994510948658 1.99221631192e-07
outer loop
vertex -9.83753585815 -3.8550131321 -23.2131233215
vertex -9.81764602661 -3.85710573196 -23.2131233215
vertex -9.81764602661 -3.85710501671 -19.6421222687
endloop
endfacet
facet normal -0.104643821716 -0.99450969696 2.65594536586e-07
outer loop
vertex -9.83753585815 -3.8550131321 -23.2131233215
vertex -9.81764602661 -3.85710501671 -19.6421222687
vertex -9.83753585815 -3.85501217842 -19.6421222687
endloop
endfacet
facet normal -0.104856051505 -0.994487404823 2.65588596449e-07
outer loop
vertex -9.83753585815 -3.8550131321 -23.2131233215
vertex -9.83753585815 -3.85501217842 -19.6421222687
vertex -9.8574256897 -3.8529150486 -19.6421222687
endloop
endfacet
facet normal -0.10508005321 -0.994463741779 1.99186700911e-07
outer loop
vertex -9.8574256897 -3.85291576385 -23.2131233215
vertex -9.8574256897 -3.8529150486 -19.6421222687
vertex -9.87731552124 -3.85081338882 -19.6421222687
endloop
endfacet
facet normal -0.104867838323 -0.994486153126 1.99191191541e-07
outer loop
vertex -9.8574256897 -3.85291576385 -23.2131233215
vertex -9.83753585815 -3.8550131321 -23.2131233215
vertex -9.8574256897 -3.8529150486 -19.6421222687
endloop
endfacet
facet normal -0.105068258941 -0.994464993477 2.65582599468e-07
outer loop
vertex -9.87731552124 -3.8508143425 -23.2131233215
vertex -9.8574256897 -3.85291576385 -23.2131233215
vertex -9.87731552124 -3.85081338882 -19.6421222687
endloop
endfacet
facet normal -0.994452178478 0.105190135539 -2.11900967884e-08
outer loop
vertex -9.87731552124 -3.8508143425 -23.2131233215
vertex -9.87205600739 -3.80109095573 -19.6421222687
vertex -9.87205600739 -3.80109167099 -23.2131233215
endloop
endfacet
facet normal -0.994452059269 0.105190634727 -2.80922929363e-08
outer loop
vertex -9.87731552124 -3.85081338882 -19.6421222687
vertex -9.87205600739 -3.80109095573 -19.6421222687
vertex -9.87731552124 -3.8508143425 -23.2131233215
endloop
endfacet
facet normal 0.104644425213 0.99450969696 -1.99183162408e-07
outer loop
vertex -9.81241989136 -3.80737900734 -19.6421222687
vertex -9.83229827881 -3.8052880764 -23.2131233215
vertex -9.83229827881 -3.80528736115 -19.6421222687
endloop
endfacet
facet normal 0.104863591492 0.994486570358 -1.99191276806e-07
outer loop
vertex -9.83229827881 -3.80528736115 -19.6421222687
vertex -9.83229827881 -3.8052880764 -23.2131233215
vertex -9.85217761993 -3.803191185 -19.6421222687
endloop
endfacet
facet normal 0.104644425213 0.99450969696 -1.99195895334e-07
outer loop
vertex -9.81241989136 -3.8073797226 -23.2131233215
vertex -9.83229827881 -3.8052880764 -23.2131233215
vertex -9.81241989136 -3.80737900734 -19.6421222687
endloop
endfacet
facet normal 0.105069108307 0.994464933872 -2.65582571046e-07
outer loop
vertex -9.85217761993 -3.803191185 -19.6421222687
vertex -9.85217761993 -3.80319213867 -23.2131233215
vertex -9.87205600739 -3.80109095573 -19.6421222687
endloop
endfacet
facet normal 0.104851797223 0.994487822056 -2.65575948788e-07
outer loop
vertex -9.83229827881 -3.8052880764 -23.2131233215
vertex -9.85217761993 -3.80319213867 -23.2131233215
vertex -9.85217761993 -3.803191185 -19.6421222687
endloop
endfacet
facet normal 0.105080902576 0.994463682175 -1.99173939563e-07
outer loop
vertex -9.85217761993 -3.80319213867 -23.2131233215
vertex -9.87205600739 -3.80109167099 -23.2131233215
vertex -9.87205600739 -3.80109095573 -19.6421222687
endloop
endfacet
facet normal 0.994522511959 -0.104522950947 2.09354862335e-08
outer loop
vertex -9.81241989136 -3.8073797226 -23.2131233215
vertex -9.81241989136 -3.80737900734 -19.6421222687
vertex -9.81764602661 -3.85710573196 -23.2131233215
endloop
endfacet
facet normal 0.994522511959 -0.104522950947 2.08641726118e-08
outer loop
vertex -9.81241989136 -3.80737900734 -19.6421222687
vertex -9.81764602661 -3.85710501671 -19.6421222687
vertex -9.81764602661 -3.85710573196 -23.2131233215
endloop
endfacet
facet normal 0.0 0.0 1.0
outer loop
vertex -9.87731552124 -3.85081338882 -19.6421222687
vertex -9.85217761993 -3.803191185 -19.6421222687
vertex -9.87205600739 -3.80109095573 -19.6421222687
endloop
endfacet
facet normal 0.0 -0.0 1.0
outer loop
vertex -9.8574256897 -3.8529150486 -19.6421222687
vertex -9.85217761993 -3.803191185 -19.6421222687
vertex -9.87731552124 -3.85081338882 -19.6421222687
endloop
endfacet
facet normal 0.0 -0.0 1.0
outer loop
vertex -9.83753585815 -3.85501217842 -19.6421222687
vertex -9.83229827881 -3.80528736115 -19.6421222687
vertex -9.85217761993 -3.803191185 -19.6421222687
endloop
endfacet
facet normal 0.0 0.0 1.0
outer loop
vertex -9.83753585815 -3.85501217842 -19.6421222687
vertex -9.85217761993 -3.803191185 -19.6421222687
vertex -9.8574256897 -3.8529150486 -19.6421222687
endloop
endfacet
facet normal 0.0 -0.0 1.0
outer loop
vertex -9.81764602661 -3.85710501671 -19.6421222687
vertex -9.81241989136 -3.80737900734 -19.6421222687
vertex -9.83229827881 -3.80528736115 -19.6421222687
endloop
endfacet
facet normal 0.0 0.0 1.0
outer loop
vertex -9.81764602661 -3.85710501671 -19.6421222687
vertex -9.83229827881 -3.80528736115 -19.6421222687
vertex -9.83753585815 -3.85501217842 -19.6421222687
endloop
endfacet
facet normal -0.0 0.0 -1.0
outer loop
vertex -9.85217761993 -3.80319213867 -23.2131233215
vertex -9.87731552124 -3.8508143425 -23.2131233215
vertex -9.87205600739 -3.80109167099 -23.2131233215
endloop
endfacet
facet normal -0.0 0.0 -1.0
outer loop
vertex -9.83229827881 -3.8052880764 -23.2131233215
vertex -9.8574256897 -3.85291576385 -23.2131233215
vertex -9.85217761993 -3.80319213867 -23.2131233215
endloop
endfacet
facet normal 0.0 0.0 -1.0
outer loop
vertex -9.85217761993 -3.80319213867 -23.2131233215
vertex -9.8574256897 -3.85291576385 -23.2131233215
vertex -9.87731552124 -3.8508143425 -23.2131233215
endloop
endfacet
facet normal -0.0 0.0 -1.0
outer loop
vertex -9.81241989136 -3.8073797226 -23.2131233215
vertex -9.83753585815 -3.8550131321 -23.2131233215
vertex -9.83229827881 -3.8052880764 -23.2131233215
endloop
endfacet
facet normal 0.0 0.0 -1.0
outer loop
vertex -9.83229827881 -3.8052880764 -23.2131233215
vertex -9.83753585815 -3.8550131321 -23.2131233215
vertex -9.8574256897 -3.85291576385 -23.2131233215
endloop
endfacet
facet normal 0.0 0.0 -1.0
outer loop
vertex -9.81241989136 -3.8073797226 -23.2131233215
vertex -9.81764602661 -3.85710573196 -23.2131233215
vertex -9.83753585815 -3.8550131321 -23.2131233215
endloop
endfacet
