solid 
facet normal 0.10397361964 0.994580030441 3.86106080441e-08
outer loop
vertex 9.77786827087 3.8612780571 -170.465881348
vertex 9.75797653198 3.86335754395 -170.465881348
vertex 9.75797748566 3.86335730553 -166.894882202
endloop
endfacet
facet normal 0.103978559375 0.994579613209 6.64033379394e-08
outer loop
vertex 9.77786827087 3.8612780571 -170.465881348
vertex 9.75797748566 3.86335730553 -166.894882202
vertex 9.77786827087 3.86127781868 -166.894882202
endloop
endfacet
facet normal 0.10418587923 0.994557857513 -0.0
outer loop
vertex 9.79776000977 3.8591940403 -170.465881348
vertex 9.77786827087 3.86127781868 -166.894882202
vertex 9.79776000977 3.8591940403 -166.894882202
endloop
endfacet
facet normal 0.104426637292 0.994532585144 -0.0
outer loop
vertex 9.79776000977 3.8591940403 -170.465881348
vertex 9.79776000977 3.8591940403 -166.894882202
vertex 9.81765079498 3.85710549355 -166.894882202
endloop
endfacet
facet normal 0.104197666049 0.994556605816 6.64209025558e-08
outer loop
vertex 9.79776000977 3.8591940403 -170.465881348
vertex 9.77786827087 3.8612780571 -170.465881348
vertex 9.77786827087 3.86127781868 -166.894882202
endloop
endfacet
facet normal 0.104414843023 0.994533836842 6.64002826056e-08
outer loop
vertex 9.81765079498 3.85710573196 -170.465881348
vertex 9.79776000977 3.8591940403 -170.465881348
vertex 9.81765079498 3.85710549355 -166.894882202
endloop
endfacet
facet normal 0.99452060461 -0.104541324079 -6.97972568631e-09
outer loop
vertex 9.81765079498 3.85710573196 -170.465881348
vertex 9.81765079498 3.85710549355 -166.894882202
vertex 9.81242370605 3.80737948418 -170.465881348
endloop
endfacet
facet normal 0.994520485401 -0.104541815817 0.0
outer loop
vertex 9.81765079498 3.85710549355 -166.894882202
vertex 9.81242370605 3.80737948418 -166.894882202
vertex 9.81242370605 3.80737948418 -170.465881348
endloop
endfacet
facet normal -0.103985629976 -0.994578719139 0.0
outer loop
vertex 9.75278377533 3.8136279583 -166.894882202
vertex 9.77266407013 3.81154942513 -170.465881348
vertex 9.77266407013 3.81154942513 -166.894882202
endloop
endfacet
facet normal -0.104197993875 -0.994556486607 -0.0
outer loop
vertex 9.77266407013 3.81154942513 -166.894882202
vertex 9.77266407013 3.81154942513 -170.465881348
vertex 9.79254436493 3.80946660042 -166.894882202
endloop
endfacet
facet normal -0.103985629976 -0.994578719139 0.0
outer loop
vertex 9.75278377533 3.8136279583 -170.465881348
vertex 9.77266407013 3.81154942513 -170.465881348
vertex 9.75278377533 3.8136279583 -166.894882202
endloop
endfacet
facet normal -0.10441531986 -0.994533836842 -6.64002826056e-08
outer loop
vertex 9.79254436493 3.80946660042 -166.894882202
vertex 9.79254436493 3.80946683884 -170.465881348
vertex 9.81242370605 3.80737948418 -166.894882202
endloop
endfacet
facet normal -0.104186214507 -0.994557857513 -6.64082548951e-08
outer loop
vertex 9.77266407013 3.81154942513 -170.465881348
vertex 9.79254436493 3.80946683884 -170.465881348
vertex 9.79254436493 3.80946660042 -166.894882202
endloop
endfacet
facet normal -0.104427114129 -0.994532585144 0.0
outer loop
vertex 9.79254436493 3.80946683884 -170.465881348
vertex 9.81242370605 3.80737948418 -170.465881348
vertex 9.81242370605 3.80737948418 -166.894882202
endloop
endfacet
facet normal -0.994592428207 0.103855207562 0.0
outer loop
vertex 9.75278377533 3.8136279583 -170.465881348
vertex 9.75278377533 3.8136279583 -166.894882202
vertex 9.75797653198 3.86335754395 -170.465881348
endloop
endfacet
facet normal -0.994590401649 0.103874571621 2.72538699164e-07
outer loop
vertex 9.75278377533 3.8136279583 -166.894882202
vertex 9.75797748566 3.86335730553 -166.894882202
vertex 9.75797653198 3.86335754395 -170.465881348
endloop
endfacet
facet normal 0.0 0.0 1.0
outer loop
vertex 9.81765079498 3.85710549355 -166.894882202
vertex 9.79254436493 3.80946660042 -166.894882202
vertex 9.81242370605 3.80737948418 -166.894882202
endloop
endfacet
facet normal 0.0 0.0 1.0
outer loop
vertex 9.79776000977 3.8591940403 -166.894882202
vertex 9.77266407013 3.81154942513 -166.894882202
vertex 9.79254436493 3.80946660042 -166.894882202
endloop
endfacet
facet normal 0.0 0.0 1.0
outer loop
vertex 9.79776000977 3.8591940403 -166.894882202
vertex 9.79254436493 3.80946660042 -166.894882202
vertex 9.81765079498 3.85710549355 -166.894882202
endloop
endfacet
facet normal 0.0 0.0 1.0
outer loop
vertex 9.77786827087 3.86127781868 -166.894882202
vertex 9.77266407013 3.81154942513 -166.894882202
vertex 9.79776000977 3.8591940403 -166.894882202
endloop
endfacet
facet normal 0.0 0.0 1.0
outer loop
vertex 9.75797748566 3.86335730553 -166.894882202
vertex 9.75278377533 3.8136279583 -166.894882202
vertex 9.77266407013 3.81154942513 -166.894882202
endloop
endfacet
facet normal 0.0 0.0 1.0
outer loop
vertex 9.75797748566 3.86335730553 -166.894882202
vertex 9.77266407013 3.81154942513 -166.894882202
vertex 9.77786827087 3.86127781868 -166.894882202
endloop
endfacet
facet normal 0.0 0.0 -1.0
outer loop
vertex 9.79254436493 3.80946683884 -170.465881348
vertex 9.81765079498 3.85710573196 -170.465881348
vertex 9.81242370605 3.80737948418 -170.465881348
endloop
endfacet
facet normal 0.0 0.0 -1.0
outer loop
vertex 9.79254436493 3.80946683884 -170.465881348
vertex 9.79776000977 3.8591940403 -170.465881348
vertex 9.81765079498 3.85710573196 -170.465881348
endloop
endfacet
facet normal 0.0 0.0 -1.0
outer loop
vertex 9.77266407013 3.81154942513 -170.465881348
vertex 9.77786827087 3.8612780571 -170.465881348
vertex 9.79254436493 3.80946683884 -170.465881348
endloop
endfacet
facet normal 0.0 0.0 -1.0
outer loop
vertex 9.79254436493 3.80946683884 -170.465881348
vertex 9.77786827087 3.8612780571 -170.465881348
vertex 9.79776000977 3.8591940403 -170.465881348
endloop
endfacet
facet normal 0.0 0.0 -1.0
outer loop
vertex 9.75278377533 3.8136279583 -170.465881348
vertex 9.75797653198 3.86335754395 -170.465881348
vertex 9.77266407013 3.81154942513 -170.465881348
endloop
endfacet
facet normal 0.0 0.0 -1.0
outer loop
vertex 9.77266407013 3.81154942513 -170.465881348
vertex 9.75797653198 3.86335754395 -170.465881348
vertex 9.77786827087 3.8612780571 -170.465881348
endloop
endfacet
