solid 
facet normal 0.104643829167 0.99450981617 -1.99222355945e-07
outer loop
vertex 9.83754634857 3.85501194 269.725006104
vertex 9.81765651703 3.85710477829 269.725006104
vertex 9.81765651703 3.85710549355 273.29598999
endloop
endfacet
facet normal 0.104643829167 0.99450981617 -1.99196875883e-07
outer loop
vertex 9.83754634857 3.85501194 269.725006104
vertex 9.81765651703 3.85710549355 273.29598999
vertex 9.83754634857 3.85501265526 273.29598999
endloop
endfacet
facet normal 0.104856051505 0.994487404823 -1.99192399464e-07
outer loop
vertex 9.85743618011 3.85291481018 269.725006104
vertex 9.83754634857 3.85501265526 273.29598999
vertex 9.85743618011 3.85291552544 273.29598999
endloop
endfacet
facet normal 0.104856051505 0.994487404823 -1.99166919401e-07
outer loop
vertex 9.85743618011 3.85291481018 269.725006104
vertex 9.83754634857 3.85501194 269.725006104
vertex 9.83754634857 3.85501265526 273.29598999
endloop
endfacet
facet normal 0.105085037649 0.994463264942 -1.99187553562e-07
outer loop
vertex 9.87732505798 3.85081315041 269.725006104
vertex 9.85743618011 3.85291552544 273.29598999
vertex 9.87732505798 3.85081386566 273.29598999
endloop
endfacet
facet normal 0.105085037649 0.994463264942 -1.99171637405e-07
outer loop
vertex 9.87732505798 3.85081315041 269.725006104
vertex 9.85743618011 3.85291481018 269.725006104
vertex 9.85743618011 3.85291552544 273.29598999
endloop
endfacet
facet normal 0.994452118874 -0.105190142989 2.10692228109e-08
outer loop
vertex 9.87732505798 3.85081315041 269.725006104
vertex 9.87732505798 3.85081386566 273.29598999
vertex 9.87206554413 3.80109119415 273.29598999
endloop
endfacet
facet normal 0.994452118874 -0.105190142989 2.10692228109e-08
outer loop
vertex 9.87206554413 3.8010904789 269.725006104
vertex 9.87732505798 3.85081315041 269.725006104
vertex 9.87206554413 3.80109119415 273.29598999
endloop
endfacet
facet normal -0.104639470577 -0.994510233402 1.99196975359e-07
outer loop
vertex 9.8124294281 3.80737924576 273.29598999
vertex 9.8124294281 3.8073785305 269.725006104
vertex 9.83230876923 3.80528759956 273.29598999
endloop
endfacet
facet normal -0.104639470577 -0.994510233402 1.99174678528e-07
outer loop
vertex 9.8124294281 3.8073785305 269.725006104
vertex 9.83230876923 3.80528688431 269.725006104
vertex 9.83230876923 3.80528759956 273.29598999
endloop
endfacet
facet normal -0.104856774211 -0.994487345219 1.99230612452e-07
outer loop
vertex 9.83230876923 3.80528759956 273.29598999
vertex 9.85218715668 3.80319094658 269.725006104
vertex 9.85218715668 3.80319166183 273.29598999
endloop
endfacet
facet normal -0.104856774211 -0.994487345219 1.99192385253e-07
outer loop
vertex 9.83230876923 3.80528688431 269.725006104
vertex 9.85218715668 3.80319094658 269.725006104
vertex 9.83230876923 3.80528759956 273.29598999
endloop
endfacet
facet normal -0.105080895126 -0.994463682175 1.99174905902e-07
outer loop
vertex 9.85218715668 3.80319166183 273.29598999
vertex 9.87206554413 3.8010904789 269.725006104
vertex 9.87206554413 3.80109119415 273.29598999
endloop
endfacet
facet normal -0.105080895126 -0.994463682175 1.99187638827e-07
outer loop
vertex 9.85218715668 3.80319094658 269.725006104
vertex 9.87206554413 3.8010904789 269.725006104
vertex 9.85218715668 3.80319166183 273.29598999
endloop
endfacet
facet normal -0.994520485401 0.104541301727 -2.09392627681e-08
outer loop
vertex 9.8124294281 3.8073785305 269.725006104
vertex 9.8124294281 3.80737924576 273.29598999
vertex 9.81765651703 3.85710549355 273.29598999
endloop
endfacet
facet normal -0.99452060461 0.104541324079 -2.09392663209e-08
outer loop
vertex 9.81765651703 3.85710477829 269.725006104
vertex 9.8124294281 3.8073785305 269.725006104
vertex 9.81765651703 3.85710549355 273.29598999
endloop
endfacet
facet normal 0.0 0.0 -1.0
outer loop
vertex 9.85218715668 3.80319094658 269.725006104
vertex 9.87732505798 3.85081315041 269.725006104
vertex 9.87206554413 3.8010904789 269.725006104
endloop
endfacet
facet normal 0.0 0.0 -1.0
outer loop
vertex 9.85218715668 3.80319094658 269.725006104
vertex 9.85743618011 3.85291481018 269.725006104
vertex 9.87732505798 3.85081315041 269.725006104
endloop
endfacet
facet normal 0.0 0.0 -1.0
outer loop
vertex 9.83230876923 3.80528688431 269.725006104
vertex 9.83754634857 3.85501194 269.725006104
vertex 9.85218715668 3.80319094658 269.725006104
endloop
endfacet
facet normal 0.0 0.0 -1.0
outer loop
vertex 9.85218715668 3.80319094658 269.725006104
vertex 9.83754634857 3.85501194 269.725006104
vertex 9.85743618011 3.85291481018 269.725006104
endloop
endfacet
facet normal 0.0 0.0 -1.0
outer loop
vertex 9.8124294281 3.8073785305 269.725006104
vertex 9.81765651703 3.85710477829 269.725006104
vertex 9.83230876923 3.80528688431 269.725006104
endloop
endfacet
facet normal 0.0 0.0 -1.0
outer loop
vertex 9.83230876923 3.80528688431 269.725006104
vertex 9.81765651703 3.85710477829 269.725006104
vertex 9.83754634857 3.85501194 269.725006104
endloop
endfacet
facet normal 0.0 0.0 1.0
outer loop
vertex 9.87732505798 3.85081386566 273.29598999
vertex 9.85218715668 3.80319166183 273.29598999
vertex 9.87206554413 3.80109119415 273.29598999
endloop
endfacet
facet normal 0.0 0.0 1.0
outer loop
vertex 9.85743618011 3.85291552544 273.29598999
vertex 9.83230876923 3.80528759956 273.29598999
vertex 9.85218715668 3.80319166183 273.29598999
endloop
endfacet
facet normal 0.0 0.0 1.0
outer loop
vertex 9.85743618011 3.85291552544 273.29598999
vertex 9.85218715668 3.80319166183 273.29598999
vertex 9.87732505798 3.85081386566 273.29598999
endloop
endfacet
facet normal 0.0 0.0 1.0
outer loop
vertex 9.83754634857 3.85501265526 273.29598999
vertex 9.83230876923 3.80528759956 273.29598999
vertex 9.85743618011 3.85291552544 273.29598999
endloop
endfacet
facet normal 0.0 0.0 1.0
outer loop
vertex 9.81765651703 3.85710549355 273.29598999
vertex 9.8124294281 3.80737924576 273.29598999
vertex 9.83230876923 3.80528759956 273.29598999
endloop
endfacet
facet normal 0.0 0.0 1.0
outer loop
vertex 9.81765651703 3.85710549355 273.29598999
vertex 9.83230876923 3.80528759956 273.29598999
vertex 9.83754634857 3.85501265526 273.29598999
endloop
endfacet
