solid 
facet normal 0.10397361964 0.994580030441 0.0
outer loop
vertex 9.7778635025 3.86127829552 -145.208877563
vertex 9.75797176361 3.86335778236 -145.208877563
vertex 9.75797176361 3.86335778236 -141.637878418
endloop
endfacet
facet normal 0.10397361964 0.994580030441 -0.0
outer loop
vertex 9.7778635025 3.86127829552 -145.208877563
vertex 9.75797176361 3.86335778236 -141.637878418
vertex 9.7778635025 3.86127829552 -141.637878418
endloop
endfacet
facet normal 0.104202598333 0.994556009769 -0.0
outer loop
vertex 9.79775428772 3.85919427872 -145.208877563
vertex 9.7778635025 3.86127829552 -141.637878418
vertex 9.79775428772 3.85919427872 -141.637878418
endloop
endfacet
facet normal 0.104414843023 0.994533836842 -0.0
outer loop
vertex 9.79775428772 3.85919427872 -145.208877563
vertex 9.79775428772 3.85919427872 -141.637878418
vertex 9.81764507294 3.85710597038 -141.637878418
endloop
endfacet
facet normal 0.104202598333 0.994556009769 0.0
outer loop
vertex 9.79775428772 3.85919427872 -145.208877563
vertex 9.7778635025 3.86127829552 -145.208877563
vertex 9.7778635025 3.86127829552 -141.637878418
endloop
endfacet
facet normal 0.104414843023 0.994533836842 -0.0
outer loop
vertex 9.81764507294 3.85710597038 -145.208877563
vertex 9.79775428772 3.85919427872 -145.208877563
vertex 9.81764507294 3.85710597038 -141.637878418
endloop
endfacet
facet normal 0.994522511959 -0.104522950947 0.0
outer loop
vertex 9.81764507294 3.85710597038 -145.208877563
vertex 9.81764507294 3.85710597038 -141.637878418
vertex 9.81241893768 3.80737996101 -145.208877563
endloop
endfacet
facet normal 0.994522511959 -0.104522451758 -7.00902802464e-09
outer loop
vertex 9.81764507294 3.85710597038 -141.637878418
vertex 9.81241893768 3.8073797226 -141.637878418
vertex 9.81241893768 3.80737996101 -145.208877563
endloop
endfacet
facet normal -0.103968903422 -0.994580507278 0.0
outer loop
vertex 9.75277805328 3.81362819672 -141.637878418
vertex 9.77265930176 3.81154990196 -145.208877563
vertex 9.77265930176 3.81154990196 -141.637878418
endloop
endfacet
facet normal -0.103968903422 -0.994580507278 0.0
outer loop
vertex 9.75277805328 3.81362819672 -145.208877563
vertex 9.77265930176 3.81154990196 -145.208877563
vertex 9.75277805328 3.81362819672 -141.637878418
endloop
endfacet
facet normal -0.104197993875 -0.994556486607 2.78272125342e-08
outer loop
vertex 9.77265930176 3.81154990196 -141.637878418
vertex 9.79253864288 3.80946707726 -145.208877563
vertex 9.79253959656 3.80946707726 -141.637878418
endloop
endfacet
facet normal -0.104427114129 -0.994532585144 2.78884009219e-08
outer loop
vertex 9.79253959656 3.80946707726 -141.637878418
vertex 9.79253864288 3.80946707726 -145.208877563
vertex 9.81241893768 3.8073797226 -141.637878418
endloop
endfacet
facet normal -0.10420294106 -0.994556009769 0.0
outer loop
vertex 9.77265930176 3.81154990196 -145.208877563
vertex 9.79253864288 3.80946707726 -145.208877563
vertex 9.77265930176 3.81154990196 -141.637878418
endloop
endfacet
facet normal -0.104410357773 -0.994534313679 -6.64066845957e-08
outer loop
vertex 9.79253864288 3.80946707726 -145.208877563
vertex 9.81241893768 3.80737996101 -145.208877563
vertex 9.81241893768 3.8073797226 -141.637878418
endloop
endfacet
facet normal -0.994590461254 0.103874079883 0.0
outer loop
vertex 9.75277805328 3.81362819672 -145.208877563
vertex 9.75277805328 3.81362819672 -141.637878418
vertex 9.75797176361 3.86335778236 -145.208877563
endloop
endfacet
facet normal -0.994590461254 0.103874079883 0.0
outer loop
vertex 9.75277805328 3.81362819672 -141.637878418
vertex 9.75797176361 3.86335778236 -141.637878418
vertex 9.75797176361 3.86335778236 -145.208877563
endloop
endfacet
facet normal 0.0 0.0 1.0
outer loop
vertex 9.81764507294 3.85710597038 -141.637878418
vertex 9.79253959656 3.80946707726 -141.637878418
vertex 9.81241893768 3.8073797226 -141.637878418
endloop
endfacet
facet normal 0.0 0.0 1.0
outer loop
vertex 9.79775428772 3.85919427872 -141.637878418
vertex 9.79253959656 3.80946707726 -141.637878418
vertex 9.81764507294 3.85710597038 -141.637878418
endloop
endfacet
facet normal 0.0 0.0 1.0
outer loop
vertex 9.7778635025 3.86127829552 -141.637878418
vertex 9.77265930176 3.81154990196 -141.637878418
vertex 9.79253959656 3.80946707726 -141.637878418
endloop
endfacet
facet normal 0.0 0.0 1.0
outer loop
vertex 9.7778635025 3.86127829552 -141.637878418
vertex 9.79253959656 3.80946707726 -141.637878418
vertex 9.79775428772 3.85919427872 -141.637878418
endloop
endfacet
facet normal 0.0 0.0 1.0
outer loop
vertex 9.75797176361 3.86335778236 -141.637878418
vertex 9.75277805328 3.81362819672 -141.637878418
vertex 9.77265930176 3.81154990196 -141.637878418
endloop
endfacet
facet normal 0.0 0.0 1.0
outer loop
vertex 9.75797176361 3.86335778236 -141.637878418
vertex 9.77265930176 3.81154990196 -141.637878418
vertex 9.7778635025 3.86127829552 -141.637878418
endloop
endfacet
facet normal 0.0 0.0 -1.0
outer loop
vertex 9.79253864288 3.80946707726 -145.208877563
vertex 9.81764507294 3.85710597038 -145.208877563
vertex 9.81241893768 3.80737996101 -145.208877563
endloop
endfacet
facet normal 0.0 0.0 -1.0
outer loop
vertex 9.79253864288 3.80946707726 -145.208877563
vertex 9.79775428772 3.85919427872 -145.208877563
vertex 9.81764507294 3.85710597038 -145.208877563
endloop
endfacet
facet normal 0.0 0.0 -1.0
outer loop
vertex 9.77265930176 3.81154990196 -145.208877563
vertex 9.7778635025 3.86127829552 -145.208877563
vertex 9.79253864288 3.80946707726 -145.208877563
endloop
endfacet
facet normal 0.0 0.0 -1.0
outer loop
vertex 9.79253864288 3.80946707726 -145.208877563
vertex 9.7778635025 3.86127829552 -145.208877563
vertex 9.79775428772 3.85919427872 -145.208877563
endloop
endfacet
facet normal 0.0 0.0 -1.0
outer loop
vertex 9.75277805328 3.81362819672 -145.208877563
vertex 9.75797176361 3.86335778236 -145.208877563
vertex 9.77265930176 3.81154990196 -145.208877563
endloop
endfacet
facet normal 0.0 0.0 -1.0
outer loop
vertex 9.77265930176 3.81154990196 -145.208877563
vertex 9.75797176361 3.86335778236 -145.208877563
vertex 9.7778635025 3.86127829552 -145.208877563
endloop
endfacet
