solid 
facet normal 0.10397361964 -0.994580090046 -2.77672302929e-08
outer loop
vertex 9.75798797607 -3.86335611343 -113.488121033
vertex 9.7579870224 -3.86335611343 -117.059127808
vertex 9.77787876129 -3.86127662659 -117.059127808
endloop
endfacet
facet normal 0.103978544474 -0.994579493999 0.0
outer loop
vertex 9.77787876129 -3.86127662659 -113.488121033
vertex 9.75798797607 -3.86335611343 -113.488121033
vertex 9.77787876129 -3.86127662659 -117.059127808
endloop
endfacet
facet normal 0.104197658598 -0.994556605816 0.0
outer loop
vertex 9.79777050018 -3.85919260979 -113.488121033
vertex 9.77787876129 -3.86127662659 -117.059127808
vertex 9.79777050018 -3.85919260979 -117.059127808
endloop
endfacet
facet normal 0.104197658598 -0.994556605816 0.0
outer loop
vertex 9.79777050018 -3.85919260979 -113.488121033
vertex 9.77787876129 -3.86127662659 -113.488121033
vertex 9.77787876129 -3.86127662659 -117.059127808
endloop
endfacet
facet normal 0.104414843023 -0.994533836842 0.0
outer loop
vertex 9.8176612854 -3.85710430145 -113.488121033
vertex 9.79777050018 -3.85919260979 -117.059127808
vertex 9.8176612854 -3.85710430145 -117.059127808
endloop
endfacet
facet normal 0.104414843023 -0.994533836842 0.0
outer loop
vertex 9.8176612854 -3.85710430145 -113.488121033
vertex 9.79777050018 -3.85919260979 -113.488121033
vertex 9.79777050018 -3.85919260979 -117.059127808
endloop
endfacet
facet normal 0.994520545006 0.104541309178 0.0
outer loop
vertex 9.8176612854 -3.85710430145 -113.488121033
vertex 9.8176612854 -3.85710430145 -117.059127808
vertex 9.81243419647 -3.80737805367 -117.059127808
endloop
endfacet
facet normal 0.994520545006 0.104541309178 0.0
outer loop
vertex 9.81243419647 -3.80737805367 -113.488121033
vertex 9.8176612854 -3.85710430145 -113.488121033
vertex 9.81243419647 -3.80737805367 -117.059127808
endloop
endfacet
facet normal -0.103973835707 0.994580090046 0.0
outer loop
vertex 9.75279426575 -3.81362652779 -117.059127808
vertex 9.75279426575 -3.81362652779 -113.488121033
vertex 9.77267456055 -3.81154823303 -117.059127808
endloop
endfacet
facet normal -0.103973835707 0.994580090046 0.0
outer loop
vertex 9.75279426575 -3.81362652779 -113.488121033
vertex 9.77267456055 -3.81154823303 -113.488121033
vertex 9.77267456055 -3.81154823303 -117.059127808
endloop
endfacet
facet normal -0.104198001325 0.994556605816 0.0
outer loop
vertex 9.77267456055 -3.81154823303 -117.059127808
vertex 9.79255485535 -3.80946540833 -113.488121033
vertex 9.79255485535 -3.80946540833 -117.059127808
endloop
endfacet
facet normal -0.104198001325 0.994556605816 0.0
outer loop
vertex 9.77267456055 -3.81154823303 -113.488121033
vertex 9.79255485535 -3.80946540833 -113.488121033
vertex 9.77267456055 -3.81154823303 -117.059127808
endloop
endfacet
facet normal -0.10442712158 0.994532585144 0.0
outer loop
vertex 9.79255485535 -3.80946540833 -117.059127808
vertex 9.81243419647 -3.80737805367 -113.488121033
vertex 9.81243419647 -3.80737805367 -117.059127808
endloop
endfacet
facet normal -0.10442712158 0.994532585144 0.0
outer loop
vertex 9.79255485535 -3.80946540833 -113.488121033
vertex 9.81243419647 -3.80737805367 -113.488121033
vertex 9.79255485535 -3.80946540833 -117.059127808
endloop
endfacet
facet normal -0.994592428207 -0.103855207562 -0.0
outer loop
vertex 9.75279426575 -3.81362652779 -113.488121033
vertex 9.75279426575 -3.81362652779 -117.059127808
vertex 9.7579870224 -3.86335611343 -117.059127808
endloop
endfacet
facet normal -0.994590461254 -0.103874072433 2.65615653916e-07
outer loop
vertex 9.75798797607 -3.86335611343 -113.488121033
vertex 9.75279426575 -3.81362652779 -113.488121033
vertex 9.7579870224 -3.86335611343 -117.059127808
endloop
endfacet
facet normal -0.0 0.0 1.0
outer loop
vertex 9.79255485535 -3.80946540833 -113.488121033
vertex 9.8176612854 -3.85710430145 -113.488121033
vertex 9.81243419647 -3.80737805367 -113.488121033
endloop
endfacet
facet normal 0.0 0.0 1.0
outer loop
vertex 9.79255485535 -3.80946540833 -113.488121033
vertex 9.79777050018 -3.85919260979 -113.488121033
vertex 9.8176612854 -3.85710430145 -113.488121033
endloop
endfacet
facet normal -0.0 0.0 1.0
outer loop
vertex 9.77267456055 -3.81154823303 -113.488121033
vertex 9.77787876129 -3.86127662659 -113.488121033
vertex 9.79255485535 -3.80946540833 -113.488121033
endloop
endfacet
facet normal 0.0 0.0 1.0
outer loop
vertex 9.79255485535 -3.80946540833 -113.488121033
vertex 9.77787876129 -3.86127662659 -113.488121033
vertex 9.79777050018 -3.85919260979 -113.488121033
endloop
endfacet
facet normal -0.0 0.0 1.0
outer loop
vertex 9.75279426575 -3.81362652779 -113.488121033
vertex 9.75798797607 -3.86335611343 -113.488121033
vertex 9.77267456055 -3.81154823303 -113.488121033
endloop
endfacet
facet normal 0.0 0.0 1.0
outer loop
vertex 9.77267456055 -3.81154823303 -113.488121033
vertex 9.75798797607 -3.86335611343 -113.488121033
vertex 9.77787876129 -3.86127662659 -113.488121033
endloop
endfacet
facet normal 0.0 0.0 -1.0
outer loop
vertex 9.8176612854 -3.85710430145 -117.059127808
vertex 9.79255485535 -3.80946540833 -117.059127808
vertex 9.81243419647 -3.80737805367 -117.059127808
endloop
endfacet
facet normal 0.0 0.0 -1.0
outer loop
vertex 9.79777050018 -3.85919260979 -117.059127808
vertex 9.79255485535 -3.80946540833 -117.059127808
vertex 9.8176612854 -3.85710430145 -117.059127808
endloop
endfacet
facet normal 0.0 0.0 -1.0
outer loop
vertex 9.77787876129 -3.86127662659 -117.059127808
vertex 9.77267456055 -3.81154823303 -117.059127808
vertex 9.79255485535 -3.80946540833 -117.059127808
endloop
endfacet
facet normal 0.0 0.0 -1.0
outer loop
vertex 9.77787876129 -3.86127662659 -117.059127808
vertex 9.79255485535 -3.80946540833 -117.059127808
vertex 9.79777050018 -3.85919260979 -117.059127808
endloop
endfacet
facet normal 0.0 0.0 -1.0
outer loop
vertex 9.7579870224 -3.86335611343 -117.059127808
vertex 9.75279426575 -3.81362652779 -117.059127808
vertex 9.77267456055 -3.81154823303 -117.059127808
endloop
endfacet
facet normal 0.0 0.0 -1.0
outer loop
vertex 9.7579870224 -3.86335611343 -117.059127808
vertex 9.77267456055 -3.81154823303 -117.059127808
vertex 9.77787876129 -3.86127662659 -117.059127808
endloop
endfacet
