solid 
facet normal 0.122502960265 0.992468118668 0.0
outer loop
vertex 13.0535783768 3.457685709 -130.804870605
vertex 9.81764698029 3.85710525513 -130.804870605
vertex 9.81764698029 3.85710525513 -130.744873047
endloop
endfacet
facet normal 0.122502960265 0.992468118668 -0.0
outer loop
vertex 13.0535783768 3.457685709 -130.804870605
vertex 9.81764698029 3.85710525513 -130.744873047
vertex 13.0535783768 3.457685709 -130.744873047
endloop
endfacet
facet normal 0.158325791359 0.98738694191 -0.0
outer loop
vertex 16.2729434967 2.94146609306 -130.804870605
vertex 13.0535783768 3.457685709 -130.744873047
vertex 16.2729434967 2.94146609306 -130.744873047
endloop
endfacet
facet normal 0.158325791359 0.98738694191 0.0
outer loop
vertex 16.2729434967 2.94146609306 -130.804870605
vertex 13.0535783768 3.457685709 -130.804870605
vertex 13.0535783768 3.457685709 -130.744873047
endloop
endfacet
facet normal 0.193941444159 0.981013119221 -0.0
outer loop
vertex 19.4715251923 2.30912232399 -130.804870605
vertex 16.2729434967 2.94146609306 -130.744873047
vertex 19.4715251923 2.30912232399 -130.744873047
endloop
endfacet
facet normal 0.193941444159 0.981013119221 0.0
outer loop
vertex 19.4715251923 2.30912232399 -130.804870605
vertex 16.2729434967 2.94146609306 -130.804870605
vertex 16.2729434967 2.94146609306 -130.744873047
endloop
endfacet
facet normal 0.977339804173 -0.211676523089 0.0
outer loop
vertex 19.4715251923 2.30912232399 -130.804870605
vertex 19.4609413147 2.26025509834 -130.744873047
vertex 19.4609413147 2.26025509834 -130.804870605
endloop
endfacet
facet normal 0.977339804173 -0.211676523089 0.0
outer loop
vertex 19.4715251923 2.30912232399 -130.744873047
vertex 19.4609413147 2.26025509834 -130.744873047
vertex 19.4715251923 2.30912232399 -130.804870605
endloop
endfacet
facet normal -0.122503012419 -0.992468118668 -0.0
outer loop
vertex 9.81242084503 3.80737924576 -130.744873047
vertex 9.81242084503 3.80737924576 -130.804870605
vertex 13.0465564728 3.40818119049 -130.744873047
endloop
endfacet
facet normal -0.158325731754 -0.987387001514 -0.0
outer loop
vertex 13.0465564728 3.40818119049 -130.744873047
vertex 13.0465564728 3.40818119049 -130.804870605
vertex 16.2641353607 2.89224815369 -130.744873047
endloop
endfacet
facet normal -0.122503012419 -0.992468118668 0.0
outer loop
vertex 9.81242084503 3.80737924576 -130.804870605
vertex 13.0465564728 3.40818119049 -130.804870605
vertex 13.0465564728 3.40818119049 -130.744873047
endloop
endfacet
facet normal -0.193941533566 -0.981013119221 -0.0
outer loop
vertex 16.2641353607 2.89224815369 -130.744873047
vertex 16.2641353607 2.89224815369 -130.804870605
vertex 19.4609413147 2.26025509834 -130.744873047
endloop
endfacet
facet normal -0.158325731754 -0.987387001514 0.0
outer loop
vertex 13.0465564728 3.40818119049 -130.804870605
vertex 16.2641353607 2.89224815369 -130.804870605
vertex 16.2641353607 2.89224815369 -130.744873047
endloop
endfacet
facet normal -0.193941533566 -0.981013119221 0.0
outer loop
vertex 16.2641353607 2.89224815369 -130.804870605
vertex 19.4609413147 2.26025509834 -130.804870605
vertex 19.4609413147 2.26025509834 -130.744873047
endloop
endfacet
facet normal -0.994522452354 0.104522936046 0.0
outer loop
vertex 9.81242084503 3.80737924576 -130.804870605
vertex 9.81764698029 3.85710525513 -130.744873047
vertex 9.81764698029 3.85710525513 -130.804870605
endloop
endfacet
facet normal -0.994522452354 0.104522936046 0.0
outer loop
vertex 9.81242084503 3.80737924576 -130.744873047
vertex 9.81764698029 3.85710525513 -130.744873047
vertex 9.81242084503 3.80737924576 -130.804870605
endloop
endfacet
facet normal 0.0 0.0 1.0
outer loop
vertex 16.2729434967 2.94146609306 -130.744873047
vertex 16.2641353607 2.89224815369 -130.744873047
vertex 19.4609413147 2.26025509834 -130.744873047
endloop
endfacet
facet normal 0.0 0.0 1.0
outer loop
vertex 16.2729434967 2.94146609306 -130.744873047
vertex 19.4609413147 2.26025509834 -130.744873047
vertex 19.4715251923 2.30912232399 -130.744873047
endloop
endfacet
facet normal 0.0 0.0 1.0
outer loop
vertex 13.0535783768 3.457685709 -130.744873047
vertex 13.0465564728 3.40818119049 -130.744873047
vertex 16.2641353607 2.89224815369 -130.744873047
endloop
endfacet
facet normal 0.0 0.0 1.0
outer loop
vertex 13.0535783768 3.457685709 -130.744873047
vertex 16.2641353607 2.89224815369 -130.744873047
vertex 16.2729434967 2.94146609306 -130.744873047
endloop
endfacet
facet normal 0.0 0.0 1.0
outer loop
vertex 9.81764698029 3.85710525513 -130.744873047
vertex 9.81242084503 3.80737924576 -130.744873047
vertex 13.0465564728 3.40818119049 -130.744873047
endloop
endfacet
facet normal 0.0 0.0 1.0
outer loop
vertex 9.81764698029 3.85710525513 -130.744873047
vertex 13.0465564728 3.40818119049 -130.744873047
vertex 13.0535783768 3.457685709 -130.744873047
endloop
endfacet
facet normal 0.0 0.0 -1.0
outer loop
vertex 19.4609413147 2.26025509834 -130.804870605
vertex 16.2641353607 2.89224815369 -130.804870605
vertex 19.4715251923 2.30912232399 -130.804870605
endloop
endfacet
facet normal 0.0 0.0 -1.0
outer loop
vertex 16.2641353607 2.89224815369 -130.804870605
vertex 16.2729434967 2.94146609306 -130.804870605
vertex 19.4715251923 2.30912232399 -130.804870605
endloop
endfacet
facet normal 0.0 0.0 -1.0
outer loop
vertex 16.2641353607 2.89224815369 -130.804870605
vertex 13.0465564728 3.40818119049 -130.804870605
vertex 16.2729434967 2.94146609306 -130.804870605
endloop
endfacet
facet normal 0.0 0.0 -1.0
outer loop
vertex 13.0465564728 3.40818119049 -130.804870605
vertex 13.0535783768 3.457685709 -130.804870605
vertex 16.2729434967 2.94146609306 -130.804870605
endloop
endfacet
facet normal 0.0 0.0 -1.0
outer loop
vertex 13.0465564728 3.40818119049 -130.804870605
vertex 9.81242084503 3.80737924576 -130.804870605
vertex 13.0535783768 3.457685709 -130.804870605
endloop
endfacet
facet normal 0.0 0.0 -1.0
outer loop
vertex 9.81242084503 3.80737924576 -130.804870605
vertex 9.81764698029 3.85710525513 -130.804870605
vertex 13.0535783768 3.457685709 -130.804870605
endloop
endfacet
