solid 
facet normal 0.0142609979957 -0.999898314476 0.0
outer loop
vertex 3.31305265427 -4.30360746384 189.043792725
vertex 0.0528955049813 -4.35010528564 189.043792725
vertex 0.0528955049813 -4.35010528564 188.983779907
endloop
endfacet
facet normal 0.0142609979957 -0.999898314476 0.0
outer loop
vertex 3.31305265427 -4.30360746384 189.043792725
vertex 0.0528955049813 -4.35010528564 188.983779907
vertex 3.31305265427 -4.30360746384 188.983779907
endloop
endfacet
facet normal 0.0504233762622 -0.998727917671 0.0
outer loop
vertex 6.56939411163 -4.13920259476 189.043792725
vertex 3.31305265427 -4.30360746384 188.983779907
vertex 6.56939411163 -4.13920259476 188.983779907
endloop
endfacet
facet normal 0.0865200310946 -0.996250152588 0.0
outer loop
vertex 6.56939411163 -4.13920259476 189.043792725
vertex 6.56939411163 -4.13920259476 188.983779907
vertex 9.81765651703 -3.85710501671 188.983779907
endloop
endfacet
facet normal 0.0504233762622 -0.998727917671 0.0
outer loop
vertex 6.56939411163 -4.13920259476 189.043792725
vertex 3.31305265427 -4.30360746384 189.043792725
vertex 3.31305265427 -4.30360746384 188.983779907
endloop
endfacet
facet normal 0.0865200310946 -0.996250152588 0.0
outer loop
vertex 9.81765651703 -3.85710501671 189.043792725
vertex 6.56939411163 -4.13920259476 189.043792725
vertex 9.81765651703 -3.85710501671 188.983779907
endloop
endfacet
facet normal 0.994520485401 0.104541808367 0.0
outer loop
vertex 9.81765651703 -3.85710501671 189.043792725
vertex 9.81765651703 -3.85710501671 188.983779907
vertex 9.8124294281 -3.80737900734 189.043792725
endloop
endfacet
facet normal 0.994520485401 0.104541808367 0.0
outer loop
vertex 9.81765651703 -3.85710501671 188.983779907
vertex 9.8124294281 -3.80737900734 188.983779907
vertex 9.8124294281 -3.80737900734 189.043792725
endloop
endfacet
facet normal -0.0142610110343 0.999898254871 0.0
outer loop
vertex 0.0530870147049 -4.30010604858 188.983779907
vertex 3.31143546104 -4.25363397598 189.043792725
vertex 3.31143546104 -4.25363397598 188.983779907
endloop
endfacet
facet normal -0.0504235774279 0.998727977276 0.0
outer loop
vertex 3.31143546104 -4.25363397598 188.983779907
vertex 3.31143546104 -4.25363397598 189.043792725
vertex 6.565969944 -4.08931970596 188.983779907
endloop
endfacet
facet normal -0.0142610110343 0.999898254871 0.0
outer loop
vertex 0.0530870147049 -4.30010604858 189.043792725
vertex 3.31143546104 -4.25363397598 189.043792725
vertex 0.0530870147049 -4.30010604858 188.983779907
endloop
endfacet
facet normal -0.0504235774279 0.998727977276 0.0
outer loop
vertex 3.31143546104 -4.25363397598 189.043792725
vertex 6.565969944 -4.08931970596 189.043792725
vertex 6.565969944 -4.08931970596 188.983779907
endloop
endfacet
facet normal -0.086519934237 0.996250152588 0.0
outer loop
vertex 6.565969944 -4.08931970596 188.983779907
vertex 9.8124294281 -3.80737900734 189.043792725
vertex 9.8124294281 -3.80737900734 188.983779907
endloop
endfacet
facet normal -0.086519934237 0.996250152588 0.0
outer loop
vertex 6.565969944 -4.08931970596 189.043792725
vertex 9.8124294281 -3.80737900734 189.043792725
vertex 6.565969944 -4.08931970596 188.983779907
endloop
endfacet
facet normal -0.999992728233 0.00383022497408 0.0
outer loop
vertex 0.0530870147049 -4.30010604858 189.043792725
vertex 0.0528955049813 -4.35010528564 188.983779907
vertex 0.0528955049813 -4.35010528564 189.043792725
endloop
endfacet
facet normal -0.999992728233 0.00383022497408 0.0
outer loop
vertex 0.0530870147049 -4.30010604858 188.983779907
vertex 0.0528955049813 -4.35010528564 188.983779907
vertex 0.0530870147049 -4.30010604858 189.043792725
endloop
endfacet
facet normal 0.0 0.0 -1.0
outer loop
vertex 6.56939411163 -4.13920259476 188.983779907
vertex 6.565969944 -4.08931970596 188.983779907
vertex 9.8124294281 -3.80737900734 188.983779907
endloop
endfacet
facet normal 0.0 0.0 -1.0
outer loop
vertex 6.56939411163 -4.13920259476 188.983779907
vertex 9.8124294281 -3.80737900734 188.983779907
vertex 9.81765651703 -3.85710501671 188.983779907
endloop
endfacet
facet normal 0.0 0.0 -1.0
outer loop
vertex 3.31305265427 -4.30360746384 188.983779907
vertex 3.31143546104 -4.25363397598 188.983779907
vertex 6.565969944 -4.08931970596 188.983779907
endloop
endfacet
facet normal 0.0 0.0 -1.0
outer loop
vertex 3.31305265427 -4.30360746384 188.983779907
vertex 6.565969944 -4.08931970596 188.983779907
vertex 6.56939411163 -4.13920259476 188.983779907
endloop
endfacet
facet normal 0.0 0.0 -1.0
outer loop
vertex 0.0528955049813 -4.35010528564 188.983779907
vertex 0.0530870147049 -4.30010604858 188.983779907
vertex 3.31143546104 -4.25363397598 188.983779907
endloop
endfacet
facet normal 0.0 0.0 -1.0
outer loop
vertex 0.0528955049813 -4.35010528564 188.983779907
vertex 3.31143546104 -4.25363397598 188.983779907
vertex 3.31305265427 -4.30360746384 188.983779907
endloop
endfacet
facet normal 0.0 0.0 1.0
outer loop
vertex 9.8124294281 -3.80737900734 189.043792725
vertex 6.565969944 -4.08931970596 189.043792725
vertex 9.81765651703 -3.85710501671 189.043792725
endloop
endfacet
facet normal -0.0 0.0 1.0
outer loop
vertex 6.565969944 -4.08931970596 189.043792725
vertex 6.56939411163 -4.13920259476 189.043792725
vertex 9.81765651703 -3.85710501671 189.043792725
endloop
endfacet
facet normal 0.0 0.0 1.0
outer loop
vertex 6.565969944 -4.08931970596 189.043792725
vertex 3.31143546104 -4.25363397598 189.043792725
vertex 6.56939411163 -4.13920259476 189.043792725
endloop
endfacet
facet normal -0.0 0.0 1.0
outer loop
vertex 3.31143546104 -4.25363397598 189.043792725
vertex 3.31305265427 -4.30360746384 189.043792725
vertex 6.56939411163 -4.13920259476 189.043792725
endloop
endfacet
facet normal 0.0 0.0 1.0
outer loop
vertex 3.31143546104 -4.25363397598 189.043792725
vertex 0.0530870147049 -4.30010604858 189.043792725
vertex 3.31305265427 -4.30360746384 189.043792725
endloop
endfacet
facet normal 0.0 0.0 1.0
outer loop
vertex 0.0530870147049 -4.30010604858 189.043792725
vertex 0.0528955049813 -4.35010528564 189.043792725
vertex 3.31305265427 -4.30360746384 189.043792725
endloop
endfacet
