solid 
facet normal 0.122502960265 -0.992468118668 0.0
outer loop
vertex 13.0535755157 -3.45768618584 124.045783997
vertex 9.81764411926 -3.85710573196 124.045783997
vertex 9.81764411926 -3.85710573196 123.985786438
endloop
endfacet
facet normal 0.122502960265 -0.992468118668 0.0
outer loop
vertex 13.0535755157 -3.45768618584 124.045783997
vertex 9.81764411926 -3.85710573196 123.985786438
vertex 13.0535755157 -3.45768618584 123.985786438
endloop
endfacet
facet normal 0.158325821161 -0.987386882305 0.0
outer loop
vertex 16.272939682 -2.9414665699 124.045783997
vertex 13.0535755157 -3.45768618584 123.985786438
vertex 16.272939682 -2.9414665699 123.985786438
endloop
endfacet
facet normal 0.158325821161 -0.987386882305 0.0
outer loop
vertex 16.272939682 -2.9414665699 124.045783997
vertex 13.0535755157 -3.45768618584 124.045783997
vertex 13.0535755157 -3.45768618584 123.985786438
endloop
endfacet
facet normal 0.193941444159 -0.981013119221 0.0
outer loop
vertex 19.4715213776 -2.30912280083 124.045783997
vertex 16.272939682 -2.9414665699 123.985786438
vertex 19.4715213776 -2.30912280083 123.985786438
endloop
endfacet
facet normal 0.193941444159 -0.981013119221 0.0
outer loop
vertex 19.4715213776 -2.30912280083 124.045783997
vertex 16.272939682 -2.9414665699 124.045783997
vertex 16.272939682 -2.9414665699 123.985786438
endloop
endfacet
facet normal 0.977347671986 0.21164008975 0.0
outer loop
vertex 19.4715213776 -2.30912280083 124.045783997
vertex 19.4609394073 -2.26025557518 123.985786438
vertex 19.4609394073 -2.26025557518 124.045783997
endloop
endfacet
facet normal 0.977347671986 0.21164008975 -0.0
outer loop
vertex 19.4715213776 -2.30912280083 123.985786438
vertex 19.4609394073 -2.26025557518 123.985786438
vertex 19.4715213776 -2.30912280083 124.045783997
endloop
endfacet
facet normal -0.122502945364 0.992468118668 0.0
outer loop
vertex 9.81241798401 -3.80737948418 123.985786438
vertex 13.0465536118 -3.40818166733 124.045783997
vertex 13.0465536118 -3.40818166733 123.985786438
endloop
endfacet
facet normal -0.122502945364 0.992468118668 0.0
outer loop
vertex 9.81241798401 -3.80737948418 124.045783997
vertex 13.0465536118 -3.40818166733 124.045783997
vertex 9.81241798401 -3.80737948418 123.985786438
endloop
endfacet
facet normal -0.158325776458 0.987386882305 0.0
outer loop
vertex 13.0465536118 -3.40818166733 123.985786438
vertex 16.264131546 -2.89224863052 124.045783997
vertex 16.264131546 -2.89224863052 123.985786438
endloop
endfacet
facet normal -0.193941414356 0.981013119221 0.0
outer loop
vertex 16.264131546 -2.89224863052 123.985786438
vertex 16.264131546 -2.89224863052 124.045783997
vertex 19.4609394073 -2.26025557518 123.985786438
endloop
endfacet
facet normal -0.158325776458 0.987386882305 0.0
outer loop
vertex 13.0465536118 -3.40818166733 124.045783997
vertex 16.264131546 -2.89224863052 124.045783997
vertex 13.0465536118 -3.40818166733 123.985786438
endloop
endfacet
facet normal -0.193941414356 0.981013119221 0.0
outer loop
vertex 16.264131546 -2.89224863052 124.045783997
vertex 19.4609394073 -2.26025557518 124.045783997
vertex 19.4609394073 -2.26025557518 123.985786438
endloop
endfacet
facet normal -0.994522511959 -0.104522451758 -0.0
outer loop
vertex 9.81241798401 -3.80737948418 124.045783997
vertex 9.81241798401 -3.80737948418 123.985786438
vertex 9.81764411926 -3.85710573196 124.045783997
endloop
endfacet
facet normal -0.994522511959 -0.104522451758 0.0
outer loop
vertex 9.81241798401 -3.80737948418 123.985786438
vertex 9.81764411926 -3.85710573196 123.985786438
vertex 9.81764411926 -3.85710573196 124.045783997
endloop
endfacet
facet normal 0.0 0.0 -1.0
outer loop
vertex 16.272939682 -2.9414665699 123.985786438
vertex 16.264131546 -2.89224863052 123.985786438
vertex 19.4609394073 -2.26025557518 123.985786438
endloop
endfacet
facet normal 0.0 0.0 -1.0
outer loop
vertex 16.272939682 -2.9414665699 123.985786438
vertex 19.4609394073 -2.26025557518 123.985786438
vertex 19.4715213776 -2.30912280083 123.985786438
endloop
endfacet
facet normal 0.0 0.0 -1.0
outer loop
vertex 13.0535755157 -3.45768618584 123.985786438
vertex 13.0465536118 -3.40818166733 123.985786438
vertex 16.264131546 -2.89224863052 123.985786438
endloop
endfacet
facet normal 0.0 0.0 -1.0
outer loop
vertex 13.0535755157 -3.45768618584 123.985786438
vertex 16.264131546 -2.89224863052 123.985786438
vertex 16.272939682 -2.9414665699 123.985786438
endloop
endfacet
facet normal 0.0 0.0 -1.0
outer loop
vertex 9.81764411926 -3.85710573196 123.985786438
vertex 9.81241798401 -3.80737948418 123.985786438
vertex 13.0465536118 -3.40818166733 123.985786438
endloop
endfacet
facet normal 0.0 0.0 -1.0
outer loop
vertex 9.81764411926 -3.85710573196 123.985786438
vertex 13.0465536118 -3.40818166733 123.985786438
vertex 13.0535755157 -3.45768618584 123.985786438
endloop
endfacet
facet normal -0.0 0.0 1.0
outer loop
vertex 16.264131546 -2.89224863052 124.045783997
vertex 16.272939682 -2.9414665699 124.045783997
vertex 19.4609394073 -2.26025557518 124.045783997
endloop
endfacet
facet normal 0.0 0.0 1.0
outer loop
vertex 19.4609394073 -2.26025557518 124.045783997
vertex 16.272939682 -2.9414665699 124.045783997
vertex 19.4715213776 -2.30912280083 124.045783997
endloop
endfacet
facet normal -0.0 0.0 1.0
outer loop
vertex 13.0465536118 -3.40818166733 124.045783997
vertex 13.0535755157 -3.45768618584 124.045783997
vertex 16.264131546 -2.89224863052 124.045783997
endloop
endfacet
facet normal 0.0 0.0 1.0
outer loop
vertex 16.264131546 -2.89224863052 124.045783997
vertex 13.0535755157 -3.45768618584 124.045783997
vertex 16.272939682 -2.9414665699 124.045783997
endloop
endfacet
facet normal -0.0 0.0 1.0
outer loop
vertex 9.81241798401 -3.80737948418 124.045783997
vertex 9.81764411926 -3.85710573196 124.045783997
vertex 13.0465536118 -3.40818166733 124.045783997
endloop
endfacet
facet normal 0.0 0.0 1.0
outer loop
vertex 13.0465536118 -3.40818166733 124.045783997
vertex 9.81764411926 -3.85710573196 124.045783997
vertex 13.0535755157 -3.45768618584 124.045783997
endloop
endfacet
