solid 
facet normal 0.0142609989271 0.999898314476 -0.0
outer loop
vertex 0.0528955049813 4.35010528564 76.4323043823
vertex 0.0528955049813 4.35010528564 76.4923095703
vertex 3.31305265427 4.30360746384 76.4923095703
endloop
endfacet
facet normal 0.0504233799875 0.998727917671 -0.0
outer loop
vertex 3.31305265427 4.30360746384 76.4323043823
vertex 3.31305265427 4.30360746384 76.4923095703
vertex 6.56939411163 4.13920259476 76.4923095703
endloop
endfacet
facet normal 0.0142609989271 0.999898314476 -0.0
outer loop
vertex 3.31305265427 4.30360746384 76.4323043823
vertex 0.0528955049813 4.35010528564 76.4323043823
vertex 3.31305265427 4.30360746384 76.4923095703
endloop
endfacet
facet normal 0.0504233799875 0.998727917671 -0.0
outer loop
vertex 6.56939411163 4.13920259476 76.4323043823
vertex 3.31305265427 4.30360746384 76.4323043823
vertex 6.56939411163 4.13920259476 76.4923095703
endloop
endfacet
facet normal 0.086520023644 0.996250092983 -0.0
outer loop
vertex 9.81765651703 3.85710501671 76.4323043823
vertex 6.56939411163 4.13920259476 76.4923095703
vertex 9.81765651703 3.85710501671 76.4923095703
endloop
endfacet
facet normal 0.086520023644 0.996250092983 0.0
outer loop
vertex 9.81765651703 3.85710501671 76.4323043823
vertex 6.56939411163 4.13920259476 76.4323043823
vertex 6.56939411163 4.13920259476 76.4923095703
endloop
endfacet
facet normal 0.994520485401 -0.104541808367 0.0
outer loop
vertex 9.81765651703 3.85710501671 76.4323043823
vertex 9.81765651703 3.85710501671 76.4923095703
vertex 9.8124294281 3.80737900734 76.4923095703
endloop
endfacet
facet normal 0.994520485401 -0.104541808367 0.0
outer loop
vertex 9.8124294281 3.80737900734 76.4323043823
vertex 9.81765651703 3.85710501671 76.4323043823
vertex 9.8124294281 3.80737900734 76.4923095703
endloop
endfacet
facet normal -0.0142610119656 -0.999898314476 -0.0
outer loop
vertex 0.0530870147049 4.30010604858 76.4923095703
vertex 0.0530870147049 4.30010604858 76.4323043823
vertex 3.31143546104 4.25363397598 76.4923095703
endloop
endfacet
facet normal -0.0142610119656 -0.999898314476 0.0
outer loop
vertex 0.0530870147049 4.30010604858 76.4323043823
vertex 3.31143546104 4.25363397598 76.4323043823
vertex 3.31143546104 4.25363397598 76.4923095703
endloop
endfacet
facet normal -0.0504235699773 -0.998727917671 0.0
outer loop
vertex 3.31143546104 4.25363397598 76.4923095703
vertex 6.565969944 4.08931970596 76.4323043823
vertex 6.565969944 4.08931970596 76.4923095703
endloop
endfacet
facet normal -0.086519934237 -0.996250152588 -0.0
outer loop
vertex 6.565969944 4.08931970596 76.4923095703
vertex 6.565969944 4.08931970596 76.4323043823
vertex 9.8124294281 3.80737900734 76.4923095703
endloop
endfacet
facet normal -0.0504235699773 -0.998727917671 0.0
outer loop
vertex 3.31143546104 4.25363397598 76.4323043823
vertex 6.565969944 4.08931970596 76.4323043823
vertex 3.31143546104 4.25363397598 76.4923095703
endloop
endfacet
facet normal -0.086519934237 -0.996250152588 0.0
outer loop
vertex 6.565969944 4.08931970596 76.4323043823
vertex 9.8124294281 3.80737900734 76.4323043823
vertex 9.8124294281 3.80737900734 76.4923095703
endloop
endfacet
facet normal -0.999992728233 -0.00383022497408 0.0
outer loop
vertex 0.0528955049813 4.35010528564 76.4323043823
vertex 0.0530870147049 4.30010604858 76.4323043823
vertex 0.0530870147049 4.30010604858 76.4923095703
endloop
endfacet
facet normal -0.999992728233 -0.00383022497408 0.0
outer loop
vertex 0.0528955049813 4.35010528564 76.4323043823
vertex 0.0530870147049 4.30010604858 76.4923095703
vertex 0.0528955049813 4.35010528564 76.4923095703
endloop
endfacet
facet normal 0.0 0.0 -1.0
outer loop
vertex 6.565969944 4.08931970596 76.4323043823
vertex 6.56939411163 4.13920259476 76.4323043823
vertex 9.8124294281 3.80737900734 76.4323043823
endloop
endfacet
facet normal 0.0 0.0 -1.0
outer loop
vertex 9.8124294281 3.80737900734 76.4323043823
vertex 6.56939411163 4.13920259476 76.4323043823
vertex 9.81765651703 3.85710501671 76.4323043823
endloop
endfacet
facet normal 0.0 0.0 -1.0
outer loop
vertex 3.31143546104 4.25363397598 76.4323043823
vertex 3.31305265427 4.30360746384 76.4323043823
vertex 6.565969944 4.08931970596 76.4323043823
endloop
endfacet
facet normal 0.0 0.0 -1.0
outer loop
vertex 6.565969944 4.08931970596 76.4323043823
vertex 3.31305265427 4.30360746384 76.4323043823
vertex 6.56939411163 4.13920259476 76.4323043823
endloop
endfacet
facet normal 0.0 0.0 -1.0
outer loop
vertex 0.0530870147049 4.30010604858 76.4323043823
vertex 0.0528955049813 4.35010528564 76.4323043823
vertex 3.31143546104 4.25363397598 76.4323043823
endloop
endfacet
facet normal 0.0 0.0 -1.0
outer loop
vertex 3.31143546104 4.25363397598 76.4323043823
vertex 0.0528955049813 4.35010528564 76.4323043823
vertex 3.31305265427 4.30360746384 76.4323043823
endloop
endfacet
facet normal 0.0 0.0 1.0
outer loop
vertex 6.565969944 4.08931970596 76.4923095703
vertex 9.8124294281 3.80737900734 76.4923095703
vertex 9.81765651703 3.85710501671 76.4923095703
endloop
endfacet
facet normal 0.0 0.0 1.0
outer loop
vertex 6.56939411163 4.13920259476 76.4923095703
vertex 6.565969944 4.08931970596 76.4923095703
vertex 9.81765651703 3.85710501671 76.4923095703
endloop
endfacet
facet normal 0.0 0.0 1.0
outer loop
vertex 3.31143546104 4.25363397598 76.4923095703
vertex 6.565969944 4.08931970596 76.4923095703
vertex 6.56939411163 4.13920259476 76.4923095703
endloop
endfacet
facet normal 0.0 0.0 1.0
outer loop
vertex 3.31305265427 4.30360746384 76.4923095703
vertex 3.31143546104 4.25363397598 76.4923095703
vertex 6.56939411163 4.13920259476 76.4923095703
endloop
endfacet
facet normal -0.0 0.0 1.0
outer loop
vertex 0.0530870147049 4.30010604858 76.4923095703
vertex 3.31143546104 4.25363397598 76.4923095703
vertex 3.31305265427 4.30360746384 76.4923095703
endloop
endfacet
facet normal 0.0 0.0 1.0
outer loop
vertex 0.0528955049813 4.35010528564 76.4923095703
vertex 0.0530870147049 4.30010604858 76.4923095703
vertex 3.31305265427 4.30360746384 76.4923095703
endloop
endfacet
