solid 
facet normal 0.0142609970644 0.999898314476 -0.0
outer loop
vertex 0.0528906472027 4.35010528564 -367.369567871
vertex 0.0528906472027 4.35010528564 -367.309570312
vertex 3.31304788589 4.30360746384 -367.309570312
endloop
endfacet
facet normal 0.0504233837128 0.998727917671 -0.0
outer loop
vertex 3.31304788589 4.30360746384 -367.369567871
vertex 3.31304788589 4.30360746384 -367.309570312
vertex 6.56938886642 4.13920259476 -367.309570312
endloop
endfacet
facet normal 0.0142609970644 0.999898314476 -0.0
outer loop
vertex 3.31304788589 4.30360746384 -367.369567871
vertex 0.0528906472027 4.35010528564 -367.369567871
vertex 3.31304788589 4.30360746384 -367.309570312
endloop
endfacet
facet normal 0.0504233837128 0.998727917671 -0.0
outer loop
vertex 6.56938886642 4.13920259476 -367.369567871
vertex 3.31304788589 4.30360746384 -367.369567871
vertex 6.56938886642 4.13920259476 -367.309570312
endloop
endfacet
facet normal 0.0865198671818 0.996250152588 -0.0
outer loop
vertex 9.81765174866 3.85710549355 -367.369567871
vertex 6.56938886642 4.13920259476 -367.309570312
vertex 9.81765174866 3.85710549355 -367.309570312
endloop
endfacet
facet normal 0.0865198671818 0.996250152588 0.0
outer loop
vertex 9.81765174866 3.85710549355 -367.369567871
vertex 6.56938886642 4.13920259476 -367.369567871
vertex 6.56938886642 4.13920259476 -367.309570312
endloop
endfacet
facet normal 0.994520545006 -0.104541309178 0.0
outer loop
vertex 9.81765174866 3.85710549355 -367.369567871
vertex 9.81242465973 3.80737924576 -367.309570312
vertex 9.81242465973 3.80737924576 -367.369567871
endloop
endfacet
facet normal 0.994520545006 -0.104541309178 0.0
outer loop
vertex 9.81765174866 3.85710549355 -367.309570312
vertex 9.81242465973 3.80737924576 -367.309570312
vertex 9.81765174866 3.85710549355 -367.369567871
endloop
endfacet
facet normal -0.0142610138282 -0.999898314476 -0.0
outer loop
vertex 0.0530821606517 4.30010557175 -367.309570312
vertex 0.0530821606517 4.30010557175 -367.369567871
vertex 3.31143045425 4.25363349915 -367.309570312
endloop
endfacet
facet normal -0.0142610138282 -0.999898314476 0.0
outer loop
vertex 0.0530821606517 4.30010557175 -367.369567871
vertex 3.31143045425 4.25363349915 -367.369567871
vertex 3.31143045425 4.25363349915 -367.309570312
endloop
endfacet
facet normal -0.0504234209657 -0.998727858067 0.0
outer loop
vertex 3.31143045425 4.25363349915 -367.309570312
vertex 6.56596517563 4.08931970596 -367.369567871
vertex 6.56596517563 4.08931970596 -367.309570312
endloop
endfacet
facet normal -0.0504234209657 -0.998727858067 0.0
outer loop
vertex 3.31143045425 4.25363349915 -367.369567871
vertex 6.56596517563 4.08931970596 -367.369567871
vertex 3.31143045425 4.25363349915 -367.309570312
endloop
endfacet
facet normal -0.0865198522806 -0.996250092983 0.0
outer loop
vertex 6.56596517563 4.08931970596 -367.309570312
vertex 9.81242465973 3.80737924576 -367.369567871
vertex 9.81242465973 3.80737924576 -367.309570312
endloop
endfacet
facet normal -0.0865198522806 -0.996250092983 0.0
outer loop
vertex 6.56596517563 4.08931970596 -367.369567871
vertex 9.81242465973 3.80737924576 -367.369567871
vertex 6.56596517563 4.08931970596 -367.309570312
endloop
endfacet
facet normal -0.999992728233 -0.00383026292548 0.0
outer loop
vertex 0.0530821606517 4.30010557175 -367.369567871
vertex 0.0528906472027 4.35010528564 -367.309570312
vertex 0.0528906472027 4.35010528564 -367.369567871
endloop
endfacet
facet normal -0.999992728233 -0.00383026292548 -0.0
outer loop
vertex 0.0530821606517 4.30010557175 -367.309570312
vertex 0.0528906472027 4.35010528564 -367.309570312
vertex 0.0530821606517 4.30010557175 -367.369567871
endloop
endfacet
facet normal 0.0 0.0 1.0
outer loop
vertex 6.56596517563 4.08931970596 -367.309570312
vertex 9.81242465973 3.80737924576 -367.309570312
vertex 9.81765174866 3.85710549355 -367.309570312
endloop
endfacet
facet normal 0.0 0.0 1.0
outer loop
vertex 6.56938886642 4.13920259476 -367.309570312
vertex 6.56596517563 4.08931970596 -367.309570312
vertex 9.81765174866 3.85710549355 -367.309570312
endloop
endfacet
facet normal 0.0 0.0 1.0
outer loop
vertex 3.31143045425 4.25363349915 -367.309570312
vertex 6.56596517563 4.08931970596 -367.309570312
vertex 6.56938886642 4.13920259476 -367.309570312
endloop
endfacet
facet normal 0.0 0.0 1.0
outer loop
vertex 3.31304788589 4.30360746384 -367.309570312
vertex 3.31143045425 4.25363349915 -367.309570312
vertex 6.56938886642 4.13920259476 -367.309570312
endloop
endfacet
facet normal -0.0 0.0 1.0
outer loop
vertex 0.0530821606517 4.30010557175 -367.309570312
vertex 3.31143045425 4.25363349915 -367.309570312
vertex 3.31304788589 4.30360746384 -367.309570312
endloop
endfacet
facet normal 0.0 0.0 1.0
outer loop
vertex 0.0528906472027 4.35010528564 -367.309570312
vertex 0.0530821606517 4.30010557175 -367.309570312
vertex 3.31304788589 4.30360746384 -367.309570312
endloop
endfacet
facet normal 0.0 0.0 -1.0
outer loop
vertex 6.56596517563 4.08931970596 -367.369567871
vertex 6.56938886642 4.13920259476 -367.369567871
vertex 9.81242465973 3.80737924576 -367.369567871
endloop
endfacet
facet normal 0.0 0.0 -1.0
outer loop
vertex 9.81242465973 3.80737924576 -367.369567871
vertex 6.56938886642 4.13920259476 -367.369567871
vertex 9.81765174866 3.85710549355 -367.369567871
endloop
endfacet
facet normal 0.0 0.0 -1.0
outer loop
vertex 3.31143045425 4.25363349915 -367.369567871
vertex 3.31304788589 4.30360746384 -367.369567871
vertex 6.56596517563 4.08931970596 -367.369567871
endloop
endfacet
facet normal 0.0 0.0 -1.0
outer loop
vertex 6.56596517563 4.08931970596 -367.369567871
vertex 3.31304788589 4.30360746384 -367.369567871
vertex 6.56938886642 4.13920259476 -367.369567871
endloop
endfacet
facet normal 0.0 0.0 -1.0
outer loop
vertex 0.0530821606517 4.30010557175 -367.369567871
vertex 0.0528906472027 4.35010528564 -367.369567871
vertex 3.31143045425 4.25363349915 -367.369567871
endloop
endfacet
facet normal 0.0 0.0 -1.0
outer loop
vertex 3.31143045425 4.25363349915 -367.369567871
vertex 0.0528906472027 4.35010528564 -367.369567871
vertex 3.31304788589 4.30360746384 -367.369567871
endloop
endfacet
