solid 
facet normal 0.0142607036978 -0.999898314476 0.0
outer loop
vertex 3.3130376339 -4.303606987 -8.74912261963
vertex 0.0528803803027 -4.35010385513 -8.74912261963
vertex 0.0528803803027 -4.35010385513 -8.80912208557
endloop
endfacet
facet normal 0.0142607036978 -0.999898314476 0.0
outer loop
vertex 3.3130376339 -4.303606987 -8.74912261963
vertex 0.0528803803027 -4.35010385513 -8.80912208557
vertex 3.3130376339 -4.303606987 -8.80912208557
endloop
endfacet
facet normal 0.0504233837128 -0.998727917671 0.0
outer loop
vertex 6.56937885284 -4.13920211792 -8.74912261963
vertex 3.3130376339 -4.303606987 -8.80912208557
vertex 6.56937885284 -4.13920211792 -8.80912208557
endloop
endfacet
facet normal 0.0865197256207 -0.996250092983 0.0
outer loop
vertex 6.56937885284 -4.13920211792 -8.74912261963
vertex 6.56937885284 -4.13920211792 -8.80912208557
vertex 9.81764125824 -3.85710549355 -8.80912208557
endloop
endfacet
facet normal 0.0504233837128 -0.998727917671 0.0
outer loop
vertex 6.56937885284 -4.13920211792 -8.74912261963
vertex 3.3130376339 -4.303606987 -8.74912261963
vertex 3.3130376339 -4.303606987 -8.80912208557
endloop
endfacet
facet normal 0.0865197256207 -0.996250092983 0.0
outer loop
vertex 9.81764125824 -3.85710549355 -8.74912261963
vertex 6.56937885284 -4.13920211792 -8.74912261963
vertex 9.81764125824 -3.85710549355 -8.80912208557
endloop
endfacet
facet normal 0.994522452354 0.104522936046 0.0
outer loop
vertex 9.81764125824 -3.85710549355 -8.74912261963
vertex 9.81764125824 -3.85710549355 -8.80912208557
vertex 9.81241512299 -3.80737948418 -8.80912208557
endloop
endfacet
facet normal 0.994522452354 0.104522936046 0.0
outer loop
vertex 9.81241512299 -3.80737948418 -8.74912261963
vertex 9.81764125824 -3.85710549355 -8.74912261963
vertex 9.81241512299 -3.80737948418 -8.80912208557
endloop
endfacet
facet normal -0.0142608666793 0.999898314476 0.0
outer loop
vertex 0.0530719012022 -4.30010461807 -8.80912208557
vertex 3.31142020226 -4.25363302231 -8.74912261963
vertex 3.31142020226 -4.25363302231 -8.80912208557
endloop
endfacet
facet normal -0.0504232794046 0.998727917671 0.0
outer loop
vertex 3.31142020226 -4.25363302231 -8.80912208557
vertex 3.31142020226 -4.25363302231 -8.74912261963
vertex 6.56595468521 -4.08931970596 -8.80912208557
endloop
endfacet
facet normal -0.0142608666793 0.999898314476 0.0
outer loop
vertex 0.0530719012022 -4.30010461807 -8.74912261963
vertex 3.31142020226 -4.25363302231 -8.74912261963
vertex 0.0530719012022 -4.30010461807 -8.80912208557
endloop
endfacet
facet normal -0.0865197628736 0.996250152588 0.0
outer loop
vertex 6.56595468521 -4.08931970596 -8.80912208557
vertex 6.56595468521 -4.08931970596 -8.74912261963
vertex 9.81241512299 -3.80737948418 -8.80912208557
endloop
endfacet
facet normal -0.0504232794046 0.998727917671 0.0
outer loop
vertex 3.31142020226 -4.25363302231 -8.74912261963
vertex 6.56595468521 -4.08931970596 -8.74912261963
vertex 6.56595468521 -4.08931970596 -8.80912208557
endloop
endfacet
facet normal -0.0865197628736 0.996250152588 0.0
outer loop
vertex 6.56595468521 -4.08931970596 -8.74912261963
vertex 9.81241512299 -3.80737948418 -8.74912261963
vertex 9.81241512299 -3.80737948418 -8.80912208557
endloop
endfacet
facet normal -0.999992728233 0.0038304484915 0.0
outer loop
vertex 0.0530719012022 -4.30010461807 -8.74912261963
vertex 0.0530719012022 -4.30010461807 -8.80912208557
vertex 0.0528803803027 -4.35010385513 -8.80912208557
endloop
endfacet
facet normal -0.999992728233 0.0038304484915 0.0
outer loop
vertex 0.0528803803027 -4.35010385513 -8.74912261963
vertex 0.0530719012022 -4.30010461807 -8.74912261963
vertex 0.0528803803027 -4.35010385513 -8.80912208557
endloop
endfacet
facet normal 0.0 0.0 1.0
outer loop
vertex 9.81241512299 -3.80737948418 -8.74912261963
vertex 6.56595468521 -4.08931970596 -8.74912261963
vertex 9.81764125824 -3.85710549355 -8.74912261963
endloop
endfacet
facet normal -0.0 0.0 1.0
outer loop
vertex 6.56595468521 -4.08931970596 -8.74912261963
vertex 6.56937885284 -4.13920211792 -8.74912261963
vertex 9.81764125824 -3.85710549355 -8.74912261963
endloop
endfacet
facet normal 0.0 0.0 1.0
outer loop
vertex 6.56595468521 -4.08931970596 -8.74912261963
vertex 3.31142020226 -4.25363302231 -8.74912261963
vertex 6.56937885284 -4.13920211792 -8.74912261963
endloop
endfacet
facet normal -0.0 0.0 1.0
outer loop
vertex 3.31142020226 -4.25363302231 -8.74912261963
vertex 3.3130376339 -4.303606987 -8.74912261963
vertex 6.56937885284 -4.13920211792 -8.74912261963
endloop
endfacet
facet normal 0.0 0.0 1.0
outer loop
vertex 3.31142020226 -4.25363302231 -8.74912261963
vertex 0.0530719012022 -4.30010461807 -8.74912261963
vertex 3.3130376339 -4.303606987 -8.74912261963
endloop
endfacet
facet normal 0.0 0.0 1.0
outer loop
vertex 0.0530719012022 -4.30010461807 -8.74912261963
vertex 0.0528803803027 -4.35010385513 -8.74912261963
vertex 3.3130376339 -4.303606987 -8.74912261963
endloop
endfacet
facet normal 0.0 0.0 -1.0
outer loop
vertex 6.56937885284 -4.13920211792 -8.80912208557
vertex 6.56595468521 -4.08931970596 -8.80912208557
vertex 9.81241512299 -3.80737948418 -8.80912208557
endloop
endfacet
facet normal 0.0 0.0 -1.0
outer loop
vertex 6.56937885284 -4.13920211792 -8.80912208557
vertex 9.81241512299 -3.80737948418 -8.80912208557
vertex 9.81764125824 -3.85710549355 -8.80912208557
endloop
endfacet
facet normal 0.0 0.0 -1.0
outer loop
vertex 3.3130376339 -4.303606987 -8.80912208557
vertex 3.31142020226 -4.25363302231 -8.80912208557
vertex 6.56595468521 -4.08931970596 -8.80912208557
endloop
endfacet
facet normal 0.0 0.0 -1.0
outer loop
vertex 3.3130376339 -4.303606987 -8.80912208557
vertex 6.56595468521 -4.08931970596 -8.80912208557
vertex 6.56937885284 -4.13920211792 -8.80912208557
endloop
endfacet
facet normal 0.0 0.0 -1.0
outer loop
vertex 0.0528803803027 -4.35010385513 -8.80912208557
vertex 0.0530719012022 -4.30010461807 -8.80912208557
vertex 3.31142020226 -4.25363302231 -8.80912208557
endloop
endfacet
facet normal 0.0 0.0 -1.0
outer loop
vertex 0.0528803803027 -4.35010385513 -8.80912208557
vertex 3.31142020226 -4.25363302231 -8.80912208557
vertex 3.3130376339 -4.303606987 -8.80912208557
endloop
endfacet
