solid 
facet normal -0.0142611432821 0.999898314476 -8.85484352509e-10
outer loop
vertex -0.052901122719 4.35010576248 -206.575881958
vertex -0.0529011189938 4.35010576248 -206.635879517
vertex -3.31305837631 4.30360746384 -206.635879517
endloop
endfacet
facet normal -0.0504235327244 0.998727917671 0.0
outer loop
vertex -3.31305837631 4.30360746384 -206.575881958
vertex -3.31305837631 4.30360746384 -206.635879517
vertex -6.56939935684 4.13920211792 -206.635879517
endloop
endfacet
facet normal -0.0142611432821 0.999898314476 0.0
outer loop
vertex -3.31305837631 4.30360746384 -206.575881958
vertex -0.052901122719 4.35010576248 -206.575881958
vertex -3.31305837631 4.30360746384 -206.635879517
endloop
endfacet
facet normal -0.0504235327244 0.998727917671 0.0
outer loop
vertex -6.56939935684 4.13920211792 -206.575881958
vertex -3.31305837631 4.30360746384 -206.575881958
vertex -6.56939935684 4.13920211792 -206.635879517
endloop
endfacet
facet normal -0.0865200087428 0.996250152588 0.0
outer loop
vertex -9.81766223907 3.85710453987 -206.575881958
vertex -6.56939935684 4.13920211792 -206.635879517
vertex -9.81766223907 3.85710453987 -206.635879517
endloop
endfacet
facet normal -0.0865200087428 0.996250152588 0.0
outer loop
vertex -9.81766223907 3.85710453987 -206.575881958
vertex -6.56939935684 4.13920211792 -206.575881958
vertex -6.56939935684 4.13920211792 -206.635879517
endloop
endfacet
facet normal -0.994520545006 -0.104541309178 -0.0
outer loop
vertex -9.81766223907 3.85710453987 -206.575881958
vertex -9.81766223907 3.85710453987 -206.635879517
vertex -9.81243515015 3.80737829208 -206.635879517
endloop
endfacet
facet normal -0.994520545006 -0.104541309178 -0.0
outer loop
vertex -9.81243515015 3.80737829208 -206.575881958
vertex -9.81766223907 3.85710453987 -206.575881958
vertex -9.81243515015 3.80737829208 -206.635879517
endloop
endfacet
facet normal 0.0142611600459 -0.999898314476 0.0
outer loop
vertex -0.0530926287174 4.30010604858 -206.635879517
vertex -0.0530926287174 4.30010604858 -206.575881958
vertex -3.31144094467 4.25363349915 -206.635879517
endloop
endfacet
facet normal 0.0142611600459 -0.999898314476 0.0
outer loop
vertex -0.0530926287174 4.30010604858 -206.575881958
vertex -3.31144094467 4.25363349915 -206.575881958
vertex -3.31144094467 4.25363349915 -206.635879517
endloop
endfacet
facet normal 0.0504235774279 -0.998727977276 0.0
outer loop
vertex -3.31144094467 4.25363349915 -206.635879517
vertex -6.56597518921 4.08931922913 -206.575881958
vertex -6.56597518921 4.08931922913 -206.635879517
endloop
endfacet
facet normal 0.0865199938416 -0.996250092983 0.0
outer loop
vertex -6.56597518921 4.08931922913 -206.635879517
vertex -6.56597518921 4.08931922913 -206.575881958
vertex -9.81243515015 3.80737829208 -206.635879517
endloop
endfacet
facet normal 0.0504235774279 -0.998727977276 0.0
outer loop
vertex -3.31144094467 4.25363349915 -206.575881958
vertex -6.56597518921 4.08931922913 -206.575881958
vertex -3.31144094467 4.25363349915 -206.635879517
endloop
endfacet
facet normal 0.0865199938416 -0.996250092983 0.0
outer loop
vertex -6.56597518921 4.08931922913 -206.575881958
vertex -9.81243515015 3.80737829208 -206.575881958
vertex -9.81243515015 3.80737829208 -206.635879517
endloop
endfacet
facet normal 0.999992728233 -0.00383011391386 0.0
outer loop
vertex -0.052901122719 4.35010576248 -206.575881958
vertex -0.0530926287174 4.30010604858 -206.575881958
vertex -0.0530926287174 4.30010604858 -206.635879517
endloop
endfacet
facet normal 0.999992728233 -0.00383018841967 6.20902440573e-08
outer loop
vertex -0.052901122719 4.35010576248 -206.575881958
vertex -0.0530926287174 4.30010604858 -206.635879517
vertex -0.0529011189938 4.35010576248 -206.635879517
endloop
endfacet
facet normal 0.0 0.0 1.0
outer loop
vertex -6.56597518921 4.08931922913 -206.575881958
vertex -6.56939935684 4.13920211792 -206.575881958
vertex -9.81243515015 3.80737829208 -206.575881958
endloop
endfacet
facet normal 0.0 -0.0 1.0
outer loop
vertex -9.81243515015 3.80737829208 -206.575881958
vertex -6.56939935684 4.13920211792 -206.575881958
vertex -9.81766223907 3.85710453987 -206.575881958
endloop
endfacet
facet normal 0.0 0.0 1.0
outer loop
vertex -3.31144094467 4.25363349915 -206.575881958
vertex -3.31305837631 4.30360746384 -206.575881958
vertex -6.56597518921 4.08931922913 -206.575881958
endloop
endfacet
facet normal 0.0 -0.0 1.0
outer loop
vertex -6.56597518921 4.08931922913 -206.575881958
vertex -3.31305837631 4.30360746384 -206.575881958
vertex -6.56939935684 4.13920211792 -206.575881958
endloop
endfacet
facet normal 0.0 -0.0 1.0
outer loop
vertex -0.0530926287174 4.30010604858 -206.575881958
vertex -0.052901122719 4.35010576248 -206.575881958
vertex -3.31144094467 4.25363349915 -206.575881958
endloop
endfacet
facet normal 0.0 -0.0 1.0
outer loop
vertex -3.31144094467 4.25363349915 -206.575881958
vertex -0.052901122719 4.35010576248 -206.575881958
vertex -3.31305837631 4.30360746384 -206.575881958
endloop
endfacet
facet normal 0.0 0.0 -1.0
outer loop
vertex -6.56597518921 4.08931922913 -206.635879517
vertex -9.81243515015 3.80737829208 -206.635879517
vertex -9.81766223907 3.85710453987 -206.635879517
endloop
endfacet
facet normal 0.0 -0.0 -1.0
outer loop
vertex -6.56939935684 4.13920211792 -206.635879517
vertex -6.56597518921 4.08931922913 -206.635879517
vertex -9.81766223907 3.85710453987 -206.635879517
endloop
endfacet
facet normal 0.0 0.0 -1.0
outer loop
vertex -3.31144094467 4.25363349915 -206.635879517
vertex -6.56597518921 4.08931922913 -206.635879517
vertex -6.56939935684 4.13920211792 -206.635879517
endloop
endfacet
facet normal 0.0 -0.0 -1.0
outer loop
vertex -3.31305837631 4.30360746384 -206.635879517
vertex -3.31144094467 4.25363349915 -206.635879517
vertex -6.56939935684 4.13920211792 -206.635879517
endloop
endfacet
facet normal -0.0 0.0 -1.0
outer loop
vertex -0.0530926287174 4.30010604858 -206.635879517
vertex -3.31144094467 4.25363349915 -206.635879517
vertex -3.31305837631 4.30360746384 -206.635879517
endloop
endfacet
facet normal 0.0 0.0 -1.0
outer loop
vertex -0.0529011189938 4.35010576248 -206.635879517
vertex -0.0530926287174 4.30010604858 -206.635879517
vertex -3.31305837631 4.30360746384 -206.635879517
endloop
endfacet
