solid 
facet normal -0.122502878308 -0.992468118668 0.0
outer loop
vertex -13.0535736084 -3.45768594742 -219.633911133
vertex -9.81764221191 -3.85710525513 -219.633911133
vertex -9.81764221191 -3.85710525513 -219.573913574
endloop
endfacet
facet normal -0.122502878308 -0.992468118668 0.0
outer loop
vertex -13.0535736084 -3.45768594742 -219.633911133
vertex -9.81764221191 -3.85710525513 -219.573913574
vertex -13.0535736084 -3.45768594742 -219.573913574
endloop
endfacet
facet normal -0.158325746655 -0.987386882305 0.0
outer loop
vertex -16.2729377747 -2.9414665699 -219.633911133
vertex -13.0535736084 -3.45768594742 -219.573913574
vertex -16.2729377747 -2.9414665699 -219.573913574
endloop
endfacet
facet normal -0.158325746655 -0.987386882305 0.0
outer loop
vertex -16.2729377747 -2.9414665699 -219.633911133
vertex -13.0535736084 -3.45768594742 -219.633911133
vertex -13.0535736084 -3.45768594742 -219.573913574
endloop
endfacet
facet normal -0.193941369653 -0.981013119221 0.0
outer loop
vertex -19.4715194702 -2.30912303925 -219.633911133
vertex -16.2729377747 -2.9414665699 -219.573913574
vertex -19.4715194702 -2.30912303925 -219.573913574
endloop
endfacet
facet normal -0.193941369653 -0.981013119221 0.0
outer loop
vertex -19.4715194702 -2.30912303925 -219.633911133
vertex -16.2729377747 -2.9414665699 -219.633911133
vertex -16.2729377747 -2.9414665699 -219.573913574
endloop
endfacet
facet normal -0.977347671986 0.21164008975 0.0
outer loop
vertex -19.4715194702 -2.30912303925 -219.633911133
vertex -19.4609375 -2.2602558136 -219.573913574
vertex -19.4609375 -2.2602558136 -219.633911133
endloop
endfacet
facet normal -0.977347671986 0.21164008975 0.0
outer loop
vertex -19.4715194702 -2.30912303925 -219.573913574
vertex -19.4609375 -2.2602558136 -219.573913574
vertex -19.4715194702 -2.30912303925 -219.633911133
endloop
endfacet
facet normal 0.122502945364 0.992468118668 0.0
outer loop
vertex -9.81241607666 -3.80737924576 -219.573913574
vertex -9.81241607666 -3.80737924576 -219.633911133
vertex -13.0465517044 -3.40818142891 -219.573913574
endloop
endfacet
facet normal 0.158325776458 0.987386882305 0.0
outer loop
vertex -13.0465517044 -3.40818142891 -219.573913574
vertex -13.0465517044 -3.40818142891 -219.633911133
vertex -16.2641296387 -2.89224839211 -219.573913574
endloop
endfacet
facet normal 0.122502945364 0.992468118668 0.0
outer loop
vertex -9.81241607666 -3.80737924576 -219.633911133
vertex -13.0465517044 -3.40818142891 -219.633911133
vertex -13.0465517044 -3.40818142891 -219.573913574
endloop
endfacet
facet normal 0.193941280246 0.981013119221 0.0
outer loop
vertex -16.2641296387 -2.89224839211 -219.573913574
vertex -16.2641296387 -2.89224839211 -219.633911133
vertex -19.4609375 -2.2602558136 -219.573913574
endloop
endfacet
facet normal 0.158325776458 0.987386882305 0.0
outer loop
vertex -13.0465517044 -3.40818142891 -219.633911133
vertex -16.2641296387 -2.89224839211 -219.633911133
vertex -16.2641296387 -2.89224839211 -219.573913574
endloop
endfacet
facet normal 0.193941280246 0.981013119221 0.0
outer loop
vertex -16.2641296387 -2.89224839211 -219.633911133
vertex -19.4609375 -2.2602558136 -219.633911133
vertex -19.4609375 -2.2602558136 -219.573913574
endloop
endfacet
facet normal 0.994522452354 -0.104522936046 0.0
outer loop
vertex -9.81241607666 -3.80737924576 -219.633911133
vertex -9.81764221191 -3.85710525513 -219.573913574
vertex -9.81764221191 -3.85710525513 -219.633911133
endloop
endfacet
facet normal 0.994522452354 -0.104522936046 0.0
outer loop
vertex -9.81241607666 -3.80737924576 -219.573913574
vertex -9.81764221191 -3.85710525513 -219.573913574
vertex -9.81241607666 -3.80737924576 -219.633911133
endloop
endfacet
facet normal 0.0 -0.0 1.0
outer loop
vertex -16.2729377747 -2.9414665699 -219.573913574
vertex -16.2641296387 -2.89224839211 -219.573913574
vertex -19.4609375 -2.2602558136 -219.573913574
endloop
endfacet
facet normal 0.0 0.0 1.0
outer loop
vertex -16.2729377747 -2.9414665699 -219.573913574
vertex -19.4609375 -2.2602558136 -219.573913574
vertex -19.4715194702 -2.30912303925 -219.573913574
endloop
endfacet
facet normal 0.0 -0.0 1.0
outer loop
vertex -13.0535736084 -3.45768594742 -219.573913574
vertex -13.0465517044 -3.40818142891 -219.573913574
vertex -16.2641296387 -2.89224839211 -219.573913574
endloop
endfacet
facet normal 0.0 0.0 1.0
outer loop
vertex -13.0535736084 -3.45768594742 -219.573913574
vertex -16.2641296387 -2.89224839211 -219.573913574
vertex -16.2729377747 -2.9414665699 -219.573913574
endloop
endfacet
facet normal 0.0 -0.0 1.0
outer loop
vertex -9.81764221191 -3.85710525513 -219.573913574
vertex -9.81241607666 -3.80737924576 -219.573913574
vertex -13.0465517044 -3.40818142891 -219.573913574
endloop
endfacet
facet normal 0.0 0.0 1.0
outer loop
vertex -9.81764221191 -3.85710525513 -219.573913574
vertex -13.0465517044 -3.40818142891 -219.573913574
vertex -13.0535736084 -3.45768594742 -219.573913574
endloop
endfacet
facet normal 0.0 -0.0 -1.0
outer loop
vertex -19.4609375 -2.2602558136 -219.633911133
vertex -16.2641296387 -2.89224839211 -219.633911133
vertex -19.4715194702 -2.30912303925 -219.633911133
endloop
endfacet
facet normal -0.0 0.0 -1.0
outer loop
vertex -16.2641296387 -2.89224839211 -219.633911133
vertex -16.2729377747 -2.9414665699 -219.633911133
vertex -19.4715194702 -2.30912303925 -219.633911133
endloop
endfacet
facet normal 0.0 -0.0 -1.0
outer loop
vertex -16.2641296387 -2.89224839211 -219.633911133
vertex -13.0465517044 -3.40818142891 -219.633911133
vertex -16.2729377747 -2.9414665699 -219.633911133
endloop
endfacet
facet normal -0.0 0.0 -1.0
outer loop
vertex -13.0465517044 -3.40818142891 -219.633911133
vertex -13.0535736084 -3.45768594742 -219.633911133
vertex -16.2729377747 -2.9414665699 -219.633911133
endloop
endfacet
facet normal 0.0 -0.0 -1.0
outer loop
vertex -13.0465517044 -3.40818142891 -219.633911133
vertex -9.81241607666 -3.80737924576 -219.633911133
vertex -13.0535736084 -3.45768594742 -219.633911133
endloop
endfacet
facet normal -0.0 0.0 -1.0
outer loop
vertex -9.81241607666 -3.80737924576 -219.633911133
vertex -9.81764221191 -3.85710525513 -219.633911133
vertex -13.0535736084 -3.45768594742 -219.633911133
endloop
endfacet
