solid 
facet normal -0.122502960265 -0.992468118668 0.0
outer loop
vertex -13.0535755157 -3.45768618584 -19.6421222687
vertex -9.81764411926 -3.85710573196 -19.6421222687
vertex -9.81764411926 -3.85710573196 -19.5821228027
endloop
endfacet
facet normal -0.122502960265 -0.992468118668 0.0
outer loop
vertex -13.0535755157 -3.45768618584 -19.6421222687
vertex -9.81764411926 -3.85710573196 -19.5821228027
vertex -13.0535755157 -3.45768618584 -19.5821228027
endloop
endfacet
facet normal -0.158325821161 -0.987386882305 0.0
outer loop
vertex -16.272939682 -2.9414665699 -19.6421222687
vertex -13.0535755157 -3.45768618584 -19.5821228027
vertex -16.272939682 -2.9414665699 -19.5821228027
endloop
endfacet
facet normal -0.158325821161 -0.987386882305 0.0
outer loop
vertex -16.272939682 -2.9414665699 -19.6421222687
vertex -13.0535755157 -3.45768618584 -19.6421222687
vertex -13.0535755157 -3.45768618584 -19.5821228027
endloop
endfacet
facet normal -0.193941444159 -0.981013059616 0.0
outer loop
vertex -19.4715213776 -2.30912280083 -19.6421222687
vertex -16.272939682 -2.9414665699 -19.5821228027
vertex -19.4715213776 -2.30912280083 -19.5821228027
endloop
endfacet
facet normal -0.193941444159 -0.981013059616 0.0
outer loop
vertex -19.4715213776 -2.30912280083 -19.6421222687
vertex -16.272939682 -2.9414665699 -19.6421222687
vertex -16.272939682 -2.9414665699 -19.5821228027
endloop
endfacet
facet normal -0.97734773159 0.211640104651 0.0
outer loop
vertex -19.4715213776 -2.30912280083 -19.6421222687
vertex -19.4609394073 -2.26025557518 -19.5821228027
vertex -19.4609394073 -2.26025557518 -19.6421222687
endloop
endfacet
facet normal -0.97734773159 0.211640104651 0.0
outer loop
vertex -19.4715213776 -2.30912280083 -19.5821228027
vertex -19.4609394073 -2.26025557518 -19.5821228027
vertex -19.4715213776 -2.30912280083 -19.6421222687
endloop
endfacet
facet normal 0.122502937913 0.992468118668 0.0
outer loop
vertex -9.81241798401 -3.80737948418 -19.5821228027
vertex -13.0465536118 -3.40818166733 -19.6421222687
vertex -13.0465536118 -3.40818166733 -19.5821228027
endloop
endfacet
facet normal 0.122502937913 0.992468118668 -0.0
outer loop
vertex -9.81241798401 -3.80737948418 -19.6421222687
vertex -13.0465536118 -3.40818166733 -19.6421222687
vertex -9.81241798401 -3.80737948418 -19.5821228027
endloop
endfacet
facet normal 0.158325776458 0.98738694191 0.0
outer loop
vertex -13.0465536118 -3.40818166733 -19.5821228027
vertex -16.264131546 -2.89224863052 -19.6421222687
vertex -16.264131546 -2.89224863052 -19.5821228027
endloop
endfacet
facet normal 0.193941429257 0.981013119221 0.0
outer loop
vertex -16.264131546 -2.89224863052 -19.5821228027
vertex -16.264131546 -2.89224863052 -19.6421222687
vertex -19.4609394073 -2.26025557518 -19.5821228027
endloop
endfacet
facet normal 0.158325776458 0.98738694191 -0.0
outer loop
vertex -13.0465536118 -3.40818166733 -19.6421222687
vertex -16.264131546 -2.89224863052 -19.6421222687
vertex -13.0465536118 -3.40818166733 -19.5821228027
endloop
endfacet
facet normal 0.193941429257 0.981013119221 0.0
outer loop
vertex -16.264131546 -2.89224863052 -19.6421222687
vertex -19.4609394073 -2.26025557518 -19.6421222687
vertex -19.4609394073 -2.26025557518 -19.5821228027
endloop
endfacet
facet normal 0.994522452354 -0.104522444308 0.0
outer loop
vertex -9.81241798401 -3.80737948418 -19.6421222687
vertex -9.81241798401 -3.80737948418 -19.5821228027
vertex -9.81764411926 -3.85710573196 -19.6421222687
endloop
endfacet
facet normal 0.994522452354 -0.104522444308 0.0
outer loop
vertex -9.81241798401 -3.80737948418 -19.5821228027
vertex -9.81764411926 -3.85710573196 -19.5821228027
vertex -9.81764411926 -3.85710573196 -19.6421222687
endloop
endfacet
facet normal 0.0 -0.0 1.0
outer loop
vertex -16.272939682 -2.9414665699 -19.5821228027
vertex -16.264131546 -2.89224863052 -19.5821228027
vertex -19.4609394073 -2.26025557518 -19.5821228027
endloop
endfacet
facet normal 0.0 0.0 1.0
outer loop
vertex -16.272939682 -2.9414665699 -19.5821228027
vertex -19.4609394073 -2.26025557518 -19.5821228027
vertex -19.4715213776 -2.30912280083 -19.5821228027
endloop
endfacet
facet normal 0.0 -0.0 1.0
outer loop
vertex -13.0535755157 -3.45768618584 -19.5821228027
vertex -13.0465536118 -3.40818166733 -19.5821228027
vertex -16.264131546 -2.89224863052 -19.5821228027
endloop
endfacet
facet normal 0.0 0.0 1.0
outer loop
vertex -13.0535755157 -3.45768618584 -19.5821228027
vertex -16.264131546 -2.89224863052 -19.5821228027
vertex -16.272939682 -2.9414665699 -19.5821228027
endloop
endfacet
facet normal 0.0 -0.0 1.0
outer loop
vertex -9.81764411926 -3.85710573196 -19.5821228027
vertex -9.81241798401 -3.80737948418 -19.5821228027
vertex -13.0465536118 -3.40818166733 -19.5821228027
endloop
endfacet
facet normal 0.0 0.0 1.0
outer loop
vertex -9.81764411926 -3.85710573196 -19.5821228027
vertex -13.0465536118 -3.40818166733 -19.5821228027
vertex -13.0535755157 -3.45768618584 -19.5821228027
endloop
endfacet
facet normal -0.0 0.0 -1.0
outer loop
vertex -16.264131546 -2.89224863052 -19.6421222687
vertex -16.272939682 -2.9414665699 -19.6421222687
vertex -19.4609394073 -2.26025557518 -19.6421222687
endloop
endfacet
facet normal 0.0 -0.0 -1.0
outer loop
vertex -19.4609394073 -2.26025557518 -19.6421222687
vertex -16.272939682 -2.9414665699 -19.6421222687
vertex -19.4715213776 -2.30912280083 -19.6421222687
endloop
endfacet
facet normal -0.0 0.0 -1.0
outer loop
vertex -13.0465536118 -3.40818166733 -19.6421222687
vertex -13.0535755157 -3.45768618584 -19.6421222687
vertex -16.264131546 -2.89224863052 -19.6421222687
endloop
endfacet
facet normal 0.0 -0.0 -1.0
outer loop
vertex -16.264131546 -2.89224863052 -19.6421222687
vertex -13.0535755157 -3.45768618584 -19.6421222687
vertex -16.272939682 -2.9414665699 -19.6421222687
endloop
endfacet
facet normal -0.0 0.0 -1.0
outer loop
vertex -9.81241798401 -3.80737948418 -19.6421222687
vertex -9.81764411926 -3.85710573196 -19.6421222687
vertex -13.0465536118 -3.40818166733 -19.6421222687
endloop
endfacet
facet normal 0.0 -0.0 -1.0
outer loop
vertex -13.0465536118 -3.40818166733 -19.6421222687
vertex -9.81764411926 -3.85710573196 -19.6421222687
vertex -13.0535755157 -3.45768618584 -19.6421222687
endloop
endfacet
