solid 
facet normal 0.122503101826 -0.992468118668 3.65632695321e-06
outer loop
vertex 13.0535907745 -3.45768475533 399.868560791
vertex 9.81765937805 -3.85710477829 399.868560791
vertex 9.81765937805 -3.85710501671 399.808563232
endloop
endfacet
facet normal 0.122503176332 -0.992468118668 0.0
outer loop
vertex 13.0535907745 -3.45768475533 399.868560791
vertex 9.81765937805 -3.85710501671 399.808563232
vertex 13.0535907745 -3.45768475533 399.808563232
endloop
endfacet
facet normal 0.158325970173 -0.987386882305 0.0
outer loop
vertex 16.2729549408 -2.94146466255 399.868560791
vertex 13.0535907745 -3.45768475533 399.808563232
vertex 16.2729549408 -2.94146466255 399.808563232
endloop
endfacet
facet normal 0.158325970173 -0.987386882305 0.0
outer loop
vertex 16.2729549408 -2.94146466255 399.868560791
vertex 13.0535907745 -3.45768475533 399.868560791
vertex 13.0535907745 -3.45768475533 399.808563232
endloop
endfacet
facet normal 0.193941637874 -0.981013059616 0.0
outer loop
vertex 19.4715366364 -2.30912017822 399.868560791
vertex 16.2729549408 -2.94146466255 399.808563232
vertex 19.4715366364 -2.30912017822 399.808563232
endloop
endfacet
facet normal 0.193941637874 -0.981013059616 0.0
outer loop
vertex 19.4715366364 -2.30912017822 399.868560791
vertex 16.2729549408 -2.94146466255 399.868560791
vertex 16.2729549408 -2.94146466255 399.808563232
endloop
endfacet
facet normal 0.977347671986 0.21164008975 0.0
outer loop
vertex 19.4715366364 -2.30912017822 399.868560791
vertex 19.4609546661 -2.26025295258 399.808563232
vertex 19.4609546661 -2.26025295258 399.868560791
endloop
endfacet
facet normal 0.977347671986 0.21164008975 -0.0
outer loop
vertex 19.4715366364 -2.30912017822 399.808563232
vertex 19.4609546661 -2.26025295258 399.808563232
vertex 19.4715366364 -2.30912017822 399.868560791
endloop
endfacet
facet normal -0.12250316143 0.992468118668 0.0
outer loop
vertex 9.8124332428 -3.80737876892 399.808563232
vertex 13.0465688705 -3.40818023682 399.868560791
vertex 13.0465688705 -3.40818023682 399.808563232
endloop
endfacet
facet normal -0.12250316143 0.992468118668 0.0
outer loop
vertex 9.8124332428 -3.80737876892 399.868560791
vertex 13.0465688705 -3.40818023682 399.868560791
vertex 9.8124332428 -3.80737876892 399.808563232
endloop
endfacet
facet normal -0.158325985074 0.987386882305 0.0
outer loop
vertex 13.0465688705 -3.40818023682 399.808563232
vertex 16.2641468048 -2.89224648476 399.868560791
vertex 16.2641468048 -2.89224648476 399.808563232
endloop
endfacet
facet normal -0.193941563368 0.981013119221 0.0
outer loop
vertex 16.2641468048 -2.89224648476 399.808563232
vertex 16.2641468048 -2.89224648476 399.868560791
vertex 19.4609546661 -2.26025295258 399.808563232
endloop
endfacet
facet normal -0.158325985074 0.987386882305 0.0
outer loop
vertex 13.0465688705 -3.40818023682 399.868560791
vertex 16.2641468048 -2.89224648476 399.868560791
vertex 13.0465688705 -3.40818023682 399.808563232
endloop
endfacet
facet normal -0.193941563368 0.981013119221 0.0
outer loop
vertex 16.2641468048 -2.89224648476 399.868560791
vertex 19.4609546661 -2.26025295258 399.868560791
vertex 19.4609546661 -2.26025295258 399.808563232
endloop
endfacet
facet normal -0.994522452354 -0.104522936046 -0.0
outer loop
vertex 9.8124332428 -3.80737876892 399.868560791
vertex 9.8124332428 -3.80737876892 399.808563232
vertex 9.81765937805 -3.85710477829 399.868560791
endloop
endfacet
facet normal -0.994522511959 -0.104522451758 4.1717086674e-07
outer loop
vertex 9.8124332428 -3.80737876892 399.808563232
vertex 9.81765937805 -3.85710501671 399.808563232
vertex 9.81765937805 -3.85710477829 399.868560791
endloop
endfacet
facet normal 0.0 0.0 -1.0
outer loop
vertex 16.2729549408 -2.94146466255 399.808563232
vertex 16.2641468048 -2.89224648476 399.808563232
vertex 19.4609546661 -2.26025295258 399.808563232
endloop
endfacet
facet normal 0.0 0.0 -1.0
outer loop
vertex 16.2729549408 -2.94146466255 399.808563232
vertex 19.4609546661 -2.26025295258 399.808563232
vertex 19.4715366364 -2.30912017822 399.808563232
endloop
endfacet
facet normal 0.0 0.0 -1.0
outer loop
vertex 13.0535907745 -3.45768475533 399.808563232
vertex 13.0465688705 -3.40818023682 399.808563232
vertex 16.2641468048 -2.89224648476 399.808563232
endloop
endfacet
facet normal 0.0 0.0 -1.0
outer loop
vertex 13.0535907745 -3.45768475533 399.808563232
vertex 16.2641468048 -2.89224648476 399.808563232
vertex 16.2729549408 -2.94146466255 399.808563232
endloop
endfacet
facet normal 0.0 0.0 -1.0
outer loop
vertex 9.81765937805 -3.85710501671 399.808563232
vertex 9.8124332428 -3.80737876892 399.808563232
vertex 13.0465688705 -3.40818023682 399.808563232
endloop
endfacet
facet normal 0.0 0.0 -1.0
outer loop
vertex 9.81765937805 -3.85710501671 399.808563232
vertex 13.0465688705 -3.40818023682 399.808563232
vertex 13.0535907745 -3.45768475533 399.808563232
endloop
endfacet
facet normal -0.0 0.0 1.0
outer loop
vertex 16.2641468048 -2.89224648476 399.868560791
vertex 16.2729549408 -2.94146466255 399.868560791
vertex 19.4609546661 -2.26025295258 399.868560791
endloop
endfacet
facet normal 0.0 0.0 1.0
outer loop
vertex 19.4609546661 -2.26025295258 399.868560791
vertex 16.2729549408 -2.94146466255 399.868560791
vertex 19.4715366364 -2.30912017822 399.868560791
endloop
endfacet
facet normal -0.0 0.0 1.0
outer loop
vertex 13.0465688705 -3.40818023682 399.868560791
vertex 13.0535907745 -3.45768475533 399.868560791
vertex 16.2641468048 -2.89224648476 399.868560791
endloop
endfacet
facet normal 0.0 0.0 1.0
outer loop
vertex 16.2641468048 -2.89224648476 399.868560791
vertex 13.0535907745 -3.45768475533 399.868560791
vertex 16.2729549408 -2.94146466255 399.868560791
endloop
endfacet
facet normal -0.0 0.0 1.0
outer loop
vertex 9.8124332428 -3.80737876892 399.868560791
vertex 9.81765937805 -3.85710477829 399.868560791
vertex 13.0465688705 -3.40818023682 399.868560791
endloop
endfacet
facet normal 0.0 0.0 1.0
outer loop
vertex 13.0465688705 -3.40818023682 399.868560791
vertex 9.81765937805 -3.85710477829 399.868560791
vertex 13.0535907745 -3.45768475533 399.868560791
endloop
endfacet
