solid 
facet normal -0.122503243387 0.992468118668 0.0
outer loop
vertex -9.8176651001 3.85710430145 -421.474578857
vertex -9.8176651001 3.85710430145 -421.534576416
vertex -13.0535964966 3.45768380165 -421.534576416
endloop
endfacet
facet normal -0.158326044679 0.987386882305 0.0
outer loop
vertex -13.0535964966 3.45768380165 -421.474578857
vertex -13.0535964966 3.45768380165 -421.534576416
vertex -16.2729606628 2.94146347046 -421.534576416
endloop
endfacet
facet normal -0.122503243387 0.992468118668 0.0
outer loop
vertex -13.0535964966 3.45768380165 -421.474578857
vertex -9.8176651001 3.85710430145 -421.474578857
vertex -13.0535964966 3.45768380165 -421.534576416
endloop
endfacet
facet normal -0.193941712379 0.981013059616 0.0
outer loop
vertex -16.2729606628 2.94146347046 -421.474578857
vertex -16.2729606628 2.94146347046 -421.534576416
vertex -19.4715423584 2.30911874771 -421.534576416
endloop
endfacet
facet normal -0.158326044679 0.987386882305 0.0
outer loop
vertex -16.2729606628 2.94146347046 -421.474578857
vertex -13.0535964966 3.45768380165 -421.474578857
vertex -16.2729606628 2.94146347046 -421.534576416
endloop
endfacet
facet normal -0.193941712379 0.981013059616 0.0
outer loop
vertex -19.4715423584 2.30911874771 -421.474578857
vertex -16.2729606628 2.94146347046 -421.474578857
vertex -19.4715423584 2.30911874771 -421.534576416
endloop
endfacet
facet normal -0.977339625359 -0.211677521467 0.0
outer loop
vertex -19.4609584808 2.26025176048 -421.474578857
vertex -19.4715423584 2.30911874771 -421.474578857
vertex -19.4715423584 2.30911874771 -421.534576416
endloop
endfacet
facet normal -0.977339625359 -0.211677521467 -0.0
outer loop
vertex -19.4609584808 2.26025176048 -421.474578857
vertex -19.4715423584 2.30911874771 -421.534576416
vertex -19.4609584808 2.26025176048 -421.534576416
endloop
endfacet
facet normal 0.122503228486 -0.992468118668 0.0
outer loop
vertex -9.81243896484 3.80737805367 -421.534576416
vertex -9.81243896484 3.80737805367 -421.474578857
vertex -13.0465745926 3.40817928314 -421.534576416
endloop
endfacet
facet normal 0.158326074481 -0.987386882305 0.0
outer loop
vertex -13.0465745926 3.40817928314 -421.534576416
vertex -13.0465745926 3.40817928314 -421.474578857
vertex -16.2641525269 2.89224529266 -421.534576416
endloop
endfacet
facet normal 0.122503228486 -0.992468118668 0.0
outer loop
vertex -9.81243896484 3.80737805367 -421.474578857
vertex -13.0465745926 3.40817928314 -421.474578857
vertex -13.0465745926 3.40817928314 -421.534576416
endloop
endfacet
facet normal 0.158326074481 -0.987386882305 0.0
outer loop
vertex -13.0465745926 3.40817928314 -421.474578857
vertex -16.2641525269 2.89224529266 -421.474578857
vertex -16.2641525269 2.89224529266 -421.534576416
endloop
endfacet
facet normal 0.193941667676 -0.981013059616 0.0
outer loop
vertex -16.2641525269 2.89224529266 -421.534576416
vertex -19.4609584808 2.26025176048 -421.474578857
vertex -19.4609584808 2.26025176048 -421.534576416
endloop
endfacet
facet normal 0.193941667676 -0.981013059616 0.0
outer loop
vertex -16.2641525269 2.89224529266 -421.474578857
vertex -19.4609584808 2.26025176048 -421.474578857
vertex -16.2641525269 2.89224529266 -421.534576416
endloop
endfacet
facet normal 0.994522511959 0.104522451758 0.0
outer loop
vertex -9.81243896484 3.80737805367 -421.474578857
vertex -9.81243896484 3.80737805367 -421.534576416
vertex -9.8176651001 3.85710430145 -421.534576416
endloop
endfacet
facet normal 0.994522511959 0.104522451758 0.0
outer loop
vertex -9.8176651001 3.85710430145 -421.474578857
vertex -9.81243896484 3.80737805367 -421.474578857
vertex -9.8176651001 3.85710430145 -421.534576416
endloop
endfacet
facet normal 0.0 0.0 1.0
outer loop
vertex -16.2641525269 2.89224529266 -421.474578857
vertex -16.2729606628 2.94146347046 -421.474578857
vertex -19.4609584808 2.26025176048 -421.474578857
endloop
endfacet
facet normal 0.0 -0.0 1.0
outer loop
vertex -19.4609584808 2.26025176048 -421.474578857
vertex -16.2729606628 2.94146347046 -421.474578857
vertex -19.4715423584 2.30911874771 -421.474578857
endloop
endfacet
facet normal 0.0 0.0 1.0
outer loop
vertex -13.0465745926 3.40817928314 -421.474578857
vertex -13.0535964966 3.45768380165 -421.474578857
vertex -16.2641525269 2.89224529266 -421.474578857
endloop
endfacet
facet normal 0.0 -0.0 1.0
outer loop
vertex -16.2641525269 2.89224529266 -421.474578857
vertex -13.0535964966 3.45768380165 -421.474578857
vertex -16.2729606628 2.94146347046 -421.474578857
endloop
endfacet
facet normal 0.0 0.0 1.0
outer loop
vertex -9.81243896484 3.80737805367 -421.474578857
vertex -9.8176651001 3.85710430145 -421.474578857
vertex -13.0465745926 3.40817928314 -421.474578857
endloop
endfacet
facet normal 0.0 -0.0 1.0
outer loop
vertex -13.0465745926 3.40817928314 -421.474578857
vertex -9.8176651001 3.85710430145 -421.474578857
vertex -13.0535964966 3.45768380165 -421.474578857
endloop
endfacet
facet normal 0.0 -0.0 -1.0
outer loop
vertex -16.2729606628 2.94146347046 -421.534576416
vertex -16.2641525269 2.89224529266 -421.534576416
vertex -19.4609584808 2.26025176048 -421.534576416
endloop
endfacet
facet normal 0.0 0.0 -1.0
outer loop
vertex -16.2729606628 2.94146347046 -421.534576416
vertex -19.4609584808 2.26025176048 -421.534576416
vertex -19.4715423584 2.30911874771 -421.534576416
endloop
endfacet
facet normal 0.0 -0.0 -1.0
outer loop
vertex -13.0535964966 3.45768380165 -421.534576416
vertex -13.0465745926 3.40817928314 -421.534576416
vertex -16.2641525269 2.89224529266 -421.534576416
endloop
endfacet
facet normal 0.0 0.0 -1.0
outer loop
vertex -13.0535964966 3.45768380165 -421.534576416
vertex -16.2641525269 2.89224529266 -421.534576416
vertex -16.2729606628 2.94146347046 -421.534576416
endloop
endfacet
facet normal 0.0 -0.0 -1.0
outer loop
vertex -9.8176651001 3.85710430145 -421.534576416
vertex -9.81243896484 3.80737805367 -421.534576416
vertex -13.0465745926 3.40817928314 -421.534576416
endloop
endfacet
facet normal 0.0 0.0 -1.0
outer loop
vertex -9.8176651001 3.85710430145 -421.534576416
vertex -13.0465745926 3.40817928314 -421.534576416
vertex -13.0535964966 3.45768380165 -421.534576416
endloop
endfacet
