solid 
facet normal -0.208718016744 0.977975845337 0.0
outer loop
vertex -19.2597198486 2.35472536087 273.316009521
vertex -19.1537723541 2.37733650208 273.316009521
vertex -19.1537723541 2.37733650208 269.725006104
endloop
endfacet
facet normal -0.208718016744 0.977975845337 0.0
outer loop
vertex -19.2597198486 2.35472536087 273.316009521
vertex -19.1537723541 2.37733650208 269.725006104
vertex -19.2597198486 2.35472536087 269.725006104
endloop
endfacet
facet normal -0.209892198443 0.977724552155 0.0
outer loop
vertex -19.3656406403 2.33198690414 273.316009521
vertex -19.2597198486 2.35472536087 269.725006104
vertex -19.3656406403 2.33198690414 269.725006104
endloop
endfacet
facet normal -0.211069688201 0.9774710536 0.0
outer loop
vertex -19.3656406403 2.33198690414 273.316009521
vertex -19.3656406403 2.33198690414 269.725006104
vertex -19.4715328217 2.3091211319 269.725006104
endloop
endfacet
facet normal -0.209892198443 0.977724552155 0.0
outer loop
vertex -19.3656406403 2.33198690414 273.316009521
vertex -19.2597198486 2.35472536087 273.316009521
vertex -19.2597198486 2.35472536087 269.725006104
endloop
endfacet
facet normal -0.211071789265 0.977470517159 6.48974989303e-08
outer loop
vertex -19.4715328217 2.30912089348 273.316009521
vertex -19.3656406403 2.33198690414 273.316009521
vertex -19.4715328217 2.3091211319 269.725006104
endloop
endfacet
facet normal -0.977347612381 -0.211640074849 -1.40514835323e-08
outer loop
vertex -19.4715328217 2.30912089348 273.316009521
vertex -19.4715328217 2.3091211319 269.725006104
vertex -19.4609508514 2.26025366783 273.316009521
endloop
endfacet
facet normal -0.977347612381 -0.211640074849 -1.42642315737e-08
outer loop
vertex -19.4715328217 2.3091211319 269.725006104
vertex -19.4609508514 2.26025390625 269.725006104
vertex -19.4609508514 2.26025366783 273.316009521
endloop
endfacet
facet normal 0.208716362715 -0.977976202965 -6.49310720746e-08
outer loop
vertex -19.14336586 2.32843160629 269.725006104
vertex -19.14336586 2.32843136787 273.316009521
vertex -19.249256134 2.30583286285 269.725006104
endloop
endfacet
facet normal 0.208714261651 -0.977976679802 0.0
outer loop
vertex -19.14336586 2.32843136787 273.316009521
vertex -19.249256134 2.30583286285 273.316009521
vertex -19.249256134 2.30583286285 269.725006104
endloop
endfacet
facet normal 0.209896311164 -0.977723658085 -6.46745377253e-08
outer loop
vertex -19.249256134 2.30583286285 269.725006104
vertex -19.3551158905 2.28310680389 273.316009521
vertex -19.3551158905 2.28310704231 269.725006104
endloop
endfacet
facet normal 0.211067214608 -0.977471590042 -6.48975699846e-08
outer loop
vertex -19.3551158905 2.28310704231 269.725006104
vertex -19.3551158905 2.28310680389 273.316009521
vertex -19.4609508514 2.26025390625 269.725006104
endloop
endfacet
facet normal 0.209898397326 -0.977723121643 0.0
outer loop
vertex -19.249256134 2.30583286285 273.316009521
vertex -19.3551158905 2.28310680389 273.316009521
vertex -19.249256134 2.30583286285 269.725006104
endloop
endfacet
facet normal 0.211067214608 -0.977471590042 -6.52718341598e-08
outer loop
vertex -19.3551158905 2.28310680389 273.316009521
vertex -19.4609508514 2.26025366783 273.316009521
vertex -19.4609508514 2.26025390625 269.725006104
endloop
endfacet
facet normal 0.97810125351 0.20812959969 0.0
outer loop
vertex -19.14336586 2.32843136787 273.316009521
vertex -19.1537723541 2.37733650208 269.725006104
vertex -19.1537723541 2.37733650208 273.316009521
endloop
endfacet
facet normal 0.978101015091 0.208130553365 1.38184743648e-08
outer loop
vertex -19.14336586 2.32843160629 269.725006104
vertex -19.1537723541 2.37733650208 269.725006104
vertex -19.14336586 2.32843136787 273.316009521
endloop
endfacet
facet normal -0.0 0.0 -1.0
outer loop
vertex -19.3551158905 2.28310704231 269.725006104
vertex -19.4609508514 2.26025390625 269.725006104
vertex -19.4715328217 2.3091211319 269.725006104
endloop
endfacet
facet normal 0.0 -0.0 -1.0
outer loop
vertex -19.3656406403 2.33198690414 269.725006104
vertex -19.3551158905 2.28310704231 269.725006104
vertex -19.4715328217 2.3091211319 269.725006104
endloop
endfacet
facet normal -0.0 0.0 -1.0
outer loop
vertex -19.249256134 2.30583286285 269.725006104
vertex -19.3551158905 2.28310704231 269.725006104
vertex -19.3656406403 2.33198690414 269.725006104
endloop
endfacet
facet normal 0.0 -0.0 -1.0
outer loop
vertex -19.2597198486 2.35472536087 269.725006104
vertex -19.249256134 2.30583286285 269.725006104
vertex -19.3656406403 2.33198690414 269.725006104
endloop
endfacet
facet normal 0.0 -0.0 -1.0
outer loop
vertex -19.1537723541 2.37733650208 269.725006104
vertex -19.14336586 2.32843160629 269.725006104
vertex -19.249256134 2.30583286285 269.725006104
endloop
endfacet
facet normal 0.0 0.0 -1.0
outer loop
vertex -19.1537723541 2.37733650208 269.725006104
vertex -19.249256134 2.30583286285 269.725006104
vertex -19.2597198486 2.35472536087 269.725006104
endloop
endfacet
facet normal 0.0 -0.0 1.0
outer loop
vertex -19.4609508514 2.26025366783 273.316009521
vertex -19.3551158905 2.28310680389 273.316009521
vertex -19.4715328217 2.30912089348 273.316009521
endloop
endfacet
facet normal 0.0 0.0 1.0
outer loop
vertex -19.3551158905 2.28310680389 273.316009521
vertex -19.3656406403 2.33198690414 273.316009521
vertex -19.4715328217 2.30912089348 273.316009521
endloop
endfacet
facet normal 0.0 -0.0 1.0
outer loop
vertex -19.3551158905 2.28310680389 273.316009521
vertex -19.249256134 2.30583286285 273.316009521
vertex -19.3656406403 2.33198690414 273.316009521
endloop
endfacet
facet normal 0.0 0.0 1.0
outer loop
vertex -19.249256134 2.30583286285 273.316009521
vertex -19.2597198486 2.35472536087 273.316009521
vertex -19.3656406403 2.33198690414 273.316009521
endloop
endfacet
facet normal 0.0 -0.0 1.0
outer loop
vertex -19.249256134 2.30583286285 273.316009521
vertex -19.14336586 2.32843136787 273.316009521
vertex -19.2597198486 2.35472536087 273.316009521
endloop
endfacet
facet normal 0.0 0.0 1.0
outer loop
vertex -19.14336586 2.32843136787 273.316009521
vertex -19.1537723541 2.37733650208 273.316009521
vertex -19.2597198486 2.35472536087 273.316009521
endloop
endfacet
