solid 
facet normal 0.00323075521737 0.999994814396 1.32774019335e-07
outer loop
vertex -0.161222279072 4.35045528412 280.49798584
vertex -0.0528895109892 4.35010528564 280.49798584
vertex -0.0528895258904 4.35010576248 276.907012939
endloop
endfacet
facet normal 0.00322635355406 0.999994814396 -1.33881308817e-11
outer loop
vertex -0.161222279072 4.35045528412 280.49798584
vertex -0.0528895258904 4.35010576248 276.907012939
vertex -0.161222293973 4.35045528412 276.907012939
endloop
endfacet
facet normal 0.0020291255787 0.999997913837 0.0
outer loop
vertex -0.269555389881 4.35067510605 280.49798584
vertex -0.161222293973 4.35045528412 276.907012939
vertex -0.269555389881 4.35067510605 276.907012939
endloop
endfacet
facet normal 0.000823094393127 0.999999701977 0.0
outer loop
vertex -0.269555389881 4.35067510605 280.49798584
vertex -0.269555389881 4.35067510605 276.907012939
vertex -0.377888679504 4.3507642746 276.907012939
endloop
endfacet
facet normal 0.00202912534587 0.999997913837 -4.675799678e-12
outer loop
vertex -0.269555389881 4.35067510605 280.49798584
vertex -0.161222279072 4.35045528412 280.49798584
vertex -0.161222293973 4.35045528412 276.907012939
endloop
endfacet
facet normal 0.000823094393127 0.999999701977 0.0
outer loop
vertex -0.377888679504 4.3507642746 280.49798584
vertex -0.269555389881 4.35067510605 280.49798584
vertex -0.377888679504 4.3507642746 276.907012939
endloop
endfacet
facet normal -1.0 0.000223516559345 2.9759403275e-11
outer loop
vertex -0.377888679504 4.3507642746 280.49798584
vertex -0.377899855375 4.3007645607 276.907012939
vertex -0.377899855375 4.30076408386 280.49798584
endloop
endfacet
facet normal -1.0 0.000223518698476 0.0
outer loop
vertex -0.377888679504 4.3507642746 276.907012939
vertex -0.377899855375 4.3007645607 276.907012939
vertex -0.377888679504 4.3507642746 280.49798584
endloop
endfacet
facet normal -0.00322814495303 -0.999994814396 1.87135845015e-11
outer loop
vertex -0.053081035614 4.30010604858 276.907012939
vertex -0.161353677511 4.30045557022 280.49798584
vertex -0.161353692412 4.30045557022 276.907012939
endloop
endfacet
facet normal -0.00202584825456 -0.999997913837 8.40649338335e-12
outer loop
vertex -0.161353692412 4.30045557022 276.907012939
vertex -0.161353677511 4.30045557022 280.49798584
vertex -0.269626677036 4.30067491531 276.907012939
endloop
endfacet
facet normal -0.00322814495303 -0.999994814396 1.67444547811e-11
outer loop
vertex -0.0530810169876 4.30010604858 280.49798584
vertex -0.161353677511 4.30045557022 280.49798584
vertex -0.053081035614 4.30010604858 276.907012939
endloop
endfacet
facet normal -0.000827955373097 -0.999999701977 0.0
outer loop
vertex -0.269626677036 4.30067491531 276.907012939
vertex -0.269626677036 4.30067491531 280.49798584
vertex -0.377899855375 4.3007645607 276.907012939
endloop
endfacet
facet normal -0.00202584802173 -0.999997913837 0.0
outer loop
vertex -0.161353677511 4.30045557022 280.49798584
vertex -0.269626677036 4.30067491531 280.49798584
vertex -0.269626677036 4.30067491531 276.907012939
endloop
endfacet
facet normal -0.000823551381472 -0.999999701977 -1.32789267582e-07
outer loop
vertex -0.269626677036 4.30067491531 280.49798584
vertex -0.377899855375 4.30076408386 280.49798584
vertex -0.377899855375 4.3007645607 276.907012939
endloop
endfacet
facet normal 0.999992668629 -0.00383015023544 -5.18698284324e-09
outer loop
vertex -0.0530810169876 4.30010604858 280.49798584
vertex -0.053081035614 4.30010604858 276.907012939
vertex -0.0528895109892 4.35010528564 280.49798584
endloop
endfacet
facet normal 0.999992668629 -0.00383018818684 -4.65514116144e-09
outer loop
vertex -0.053081035614 4.30010604858 276.907012939
vertex -0.0528895258904 4.35010576248 276.907012939
vertex -0.0528895109892 4.35010528564 280.49798584
endloop
endfacet
facet normal 0.0 0.0 -1.0
outer loop
vertex -0.269626677036 4.30067491531 276.907012939
vertex -0.377899855375 4.3007645607 276.907012939
vertex -0.377888679504 4.3507642746 276.907012939
endloop
endfacet
facet normal -0.0 0.0 -1.0
outer loop
vertex -0.269555389881 4.35067510605 276.907012939
vertex -0.269626677036 4.30067491531 276.907012939
vertex -0.377888679504 4.3507642746 276.907012939
endloop
endfacet
facet normal 0.0 0.0 -1.0
outer loop
vertex -0.161222293973 4.35045528412 276.907012939
vertex -0.161353692412 4.30045557022 276.907012939
vertex -0.269626677036 4.30067491531 276.907012939
endloop
endfacet
facet normal -0.0 0.0 -1.0
outer loop
vertex -0.161222293973 4.35045528412 276.907012939
vertex -0.269626677036 4.30067491531 276.907012939
vertex -0.269555389881 4.35067510605 276.907012939
endloop
endfacet
facet normal 0.0 0.0 -1.0
outer loop
vertex -0.0528895258904 4.35010576248 276.907012939
vertex -0.053081035614 4.30010604858 276.907012939
vertex -0.161353692412 4.30045557022 276.907012939
endloop
endfacet
facet normal -0.0 0.0 -1.0
outer loop
vertex -0.0528895258904 4.35010576248 276.907012939
vertex -0.161353692412 4.30045557022 276.907012939
vertex -0.161222293973 4.35045528412 276.907012939
endloop
endfacet
facet normal -0.0 0.0 1.0
outer loop
vertex -0.377899855375 4.30076408386 280.49798584
vertex -0.269626677036 4.30067491531 280.49798584
vertex -0.377888679504 4.3507642746 280.49798584
endloop
endfacet
facet normal 0.0 -0.0 1.0
outer loop
vertex -0.269626677036 4.30067491531 280.49798584
vertex -0.269555389881 4.35067510605 280.49798584
vertex -0.377888679504 4.3507642746 280.49798584
endloop
endfacet
facet normal 0.0 -0.0 1.0
outer loop
vertex -0.161353677511 4.30045557022 280.49798584
vertex -0.161222279072 4.35045528412 280.49798584
vertex -0.269626677036 4.30067491531 280.49798584
endloop
endfacet
facet normal 0.0 0.0 1.0
outer loop
vertex -0.269626677036 4.30067491531 280.49798584
vertex -0.161222279072 4.35045528412 280.49798584
vertex -0.269555389881 4.35067510605 280.49798584
endloop
endfacet
facet normal 0.0 -0.0 1.0
outer loop
vertex -0.0530810169876 4.30010604858 280.49798584
vertex -0.0528895109892 4.35010528564 280.49798584
vertex -0.161353677511 4.30045557022 280.49798584
endloop
endfacet
facet normal 0.0 0.0 1.0
outer loop
vertex -0.161353677511 4.30045557022 280.49798584
vertex -0.0528895109892 4.35010528564 280.49798584
vertex -0.161222279072 4.35045528412 280.49798584
endloop
endfacet
