solid 
facet normal -0.00322635355406 -0.999994814396 9.35160022336e-12
outer loop
vertex 0.161222323775 -4.35045528412 -277.389923096
vertex 0.0528895556927 -4.35010576248 -277.389923096
vertex 0.0528895370662 -4.35010576248 -280.980895996
endloop
endfacet
facet normal -0.00322635401972 -0.999994814396 2.67762669676e-11
outer loop
vertex 0.161222323775 -4.35045528412 -277.389923096
vertex 0.0528895370662 -4.35010576248 -280.980895996
vertex 0.161222293973 -4.35045528412 -280.980895996
endloop
endfacet
facet normal -0.00202912581153 -0.999997913837 1.68401889655e-11
outer loop
vertex 0.269555419683 -4.35067510605 -277.389923096
vertex 0.161222293973 -4.35045528412 -280.980895996
vertex 0.269555389881 -4.35067510605 -280.980895996
endloop
endfacet
facet normal -0.000823094276711 -0.999999642372 6.83105134958e-12
outer loop
vertex 0.269555419683 -4.35067510605 -277.389923096
vertex 0.269555389881 -4.35067510605 -280.980895996
vertex 0.377888679504 -4.3507642746 -280.980895996
endloop
endfacet
facet normal -0.0020291255787 -0.999997913837 1.40274016361e-11
outer loop
vertex 0.269555419683 -4.35067510605 -277.389923096
vertex 0.161222323775 -4.35045528412 -277.389923096
vertex 0.161222293973 -4.35045528412 -280.980895996
endloop
endfacet
facet normal -0.000823094393127 -0.999999701977 6.83105221694e-12
outer loop
vertex 0.377888709307 -4.3507642746 -277.389923096
vertex 0.269555419683 -4.35067510605 -277.389923096
vertex 0.377888679504 -4.3507642746 -280.980895996
endloop
endfacet
facet normal 1.0 -0.000223518698476 -8.29915425271e-09
outer loop
vertex 0.377899885178 -4.3007645607 -277.389923096
vertex 0.377888709307 -4.3507642746 -277.389923096
vertex 0.377888679504 -4.3507642746 -280.980895996
endloop
endfacet
facet normal 1.0 -0.000224114744924 0.0
outer loop
vertex 0.377899885178 -4.3007645607 -277.389923096
vertex 0.377888679504 -4.3507642746 -280.980895996
vertex 0.377899885178 -4.3007645607 -280.980895996
endloop
endfacet
facet normal 0.00322814495303 0.999994814396 -9.35679225073e-12
outer loop
vertex 0.0530810467899 -4.30010604858 -280.980895996
vertex 0.161353722215 -4.30045557022 -277.389923096
vertex 0.161353707314 -4.30045557022 -280.980895996
endloop
endfacet
facet normal 0.00202584802173 0.999997913837 -8.40649251599e-12
outer loop
vertex 0.161353707314 -4.30045557022 -280.980895996
vertex 0.161353722215 -4.30045557022 -277.389923096
vertex 0.269626706839 -4.30067491531 -280.980895996
endloop
endfacet
facet normal 0.00322814495303 0.999994814396 -1.67444547811e-11
outer loop
vertex 0.0530810654163 -4.30010604858 -277.389923096
vertex 0.161353722215 -4.30045557022 -277.389923096
vertex 0.0530810467899 -4.30010604858 -280.980895996
endloop
endfacet
facet normal 0.000827955373097 0.999999701977 -0.0
outer loop
vertex 0.269626706839 -4.30067491531 -280.980895996
vertex 0.269626706839 -4.30067491531 -277.389923096
vertex 0.377899885178 -4.3007645607 -280.980895996
endloop
endfacet
facet normal 0.00202584825456 0.999997913837 0.0
outer loop
vertex 0.161353722215 -4.30045557022 -277.389923096
vertex 0.269626706839 -4.30067491531 -277.389923096
vertex 0.269626706839 -4.30067491531 -280.980895996
endloop
endfacet
facet normal 0.000827955373097 0.999999701977 0.0
outer loop
vertex 0.269626706839 -4.30067491531 -277.389923096
vertex 0.377899885178 -4.3007645607 -277.389923096
vertex 0.377899885178 -4.3007645607 -280.980895996
endloop
endfacet
facet normal -0.999992668629 0.00383018818684 5.18698284324e-09
outer loop
vertex 0.0530810654163 -4.30010604858 -277.389923096
vertex 0.0530810467899 -4.30010604858 -280.980895996
vertex 0.0528895370662 -4.35010576248 -280.980895996
endloop
endfacet
facet normal -0.999992668629 0.00383018818684 5.18698284324e-09
outer loop
vertex 0.0528895556927 -4.35010576248 -277.389923096
vertex 0.0530810654163 -4.30010604858 -277.389923096
vertex 0.0528895370662 -4.35010576248 -280.980895996
endloop
endfacet
facet normal 0.0 0.0 1.0
outer loop
vertex 0.377899885178 -4.3007645607 -277.389923096
vertex 0.269626706839 -4.30067491531 -277.389923096
vertex 0.377888709307 -4.3507642746 -277.389923096
endloop
endfacet
facet normal 0.0 0.0 1.0
outer loop
vertex 0.269626706839 -4.30067491531 -277.389923096
vertex 0.269555419683 -4.35067510605 -277.389923096
vertex 0.377888709307 -4.3507642746 -277.389923096
endloop
endfacet
facet normal 0.0 0.0 1.0
outer loop
vertex 0.269626706839 -4.30067491531 -277.389923096
vertex 0.161353722215 -4.30045557022 -277.389923096
vertex 0.269555419683 -4.35067510605 -277.389923096
endloop
endfacet
facet normal 0.0 0.0 1.0
outer loop
vertex 0.161353722215 -4.30045557022 -277.389923096
vertex 0.161222323775 -4.35045528412 -277.389923096
vertex 0.269555419683 -4.35067510605 -277.389923096
endloop
endfacet
facet normal 0.0 0.0 1.0
outer loop
vertex 0.0530810654163 -4.30010604858 -277.389923096
vertex 0.0528895556927 -4.35010576248 -277.389923096
vertex 0.161353722215 -4.30045557022 -277.389923096
endloop
endfacet
facet normal 0.0 0.0 1.0
outer loop
vertex 0.161353722215 -4.30045557022 -277.389923096
vertex 0.0528895556927 -4.35010576248 -277.389923096
vertex 0.161222323775 -4.35045528412 -277.389923096
endloop
endfacet
facet normal 0.0 0.0 -1.0
outer loop
vertex 0.269626706839 -4.30067491531 -280.980895996
vertex 0.377899885178 -4.3007645607 -280.980895996
vertex 0.377888679504 -4.3507642746 -280.980895996
endloop
endfacet
facet normal 0.0 0.0 -1.0
outer loop
vertex 0.269555389881 -4.35067510605 -280.980895996
vertex 0.269626706839 -4.30067491531 -280.980895996
vertex 0.377888679504 -4.3507642746 -280.980895996
endloop
endfacet
facet normal 0.0 0.0 -1.0
outer loop
vertex 0.161222293973 -4.35045528412 -280.980895996
vertex 0.161353707314 -4.30045557022 -280.980895996
vertex 0.269626706839 -4.30067491531 -280.980895996
endloop
endfacet
facet normal 0.0 0.0 -1.0
outer loop
vertex 0.161222293973 -4.35045528412 -280.980895996
vertex 0.269626706839 -4.30067491531 -280.980895996
vertex 0.269555389881 -4.35067510605 -280.980895996
endloop
endfacet
facet normal 0.0 0.0 -1.0
outer loop
vertex 0.0528895370662 -4.35010576248 -280.980895996
vertex 0.0530810467899 -4.30010604858 -280.980895996
vertex 0.161353707314 -4.30045557022 -280.980895996
endloop
endfacet
facet normal 0.0 0.0 -1.0
outer loop
vertex 0.0528895370662 -4.35010576248 -280.980895996
vertex 0.161353707314 -4.30045557022 -280.980895996
vertex 0.161222293973 -4.35045528412 -280.980895996
endloop
endfacet
