solid 
facet normal 0.208718001842 -0.977975845337 0.0
outer loop
vertex 19.1537723541 -2.37733650208 -62.9741249084
vertex 19.1537723541 -2.37733650208 -66.5651245117
vertex 19.2597198486 -2.35472536087 -66.5651245117
endloop
endfacet
facet normal 0.209892183542 -0.97772449255 0.0
outer loop
vertex 19.2597198486 -2.35472536087 -62.9741249084
vertex 19.2597198486 -2.35472536087 -66.5651245117
vertex 19.3656406403 -2.33198690414 -66.5651245117
endloop
endfacet
facet normal 0.208718001842 -0.977975845337 0.0
outer loop
vertex 19.2597198486 -2.35472536087 -62.9741249084
vertex 19.1537723541 -2.37733650208 -62.9741249084
vertex 19.2597198486 -2.35472536087 -66.5651245117
endloop
endfacet
facet normal 0.209892183542 -0.97772449255 0.0
outer loop
vertex 19.3656406403 -2.33198690414 -62.9741249084
vertex 19.2597198486 -2.35472536087 -62.9741249084
vertex 19.3656406403 -2.33198690414 -66.5651245117
endloop
endfacet
facet normal 0.211071804166 -0.977470576763 -6.48975699846e-08
outer loop
vertex 19.4715328217 -2.3091211319 -62.9741249084
vertex 19.3656406403 -2.33198690414 -66.5651245117
vertex 19.4715328217 -2.30912089348 -66.5651245117
endloop
endfacet
facet normal 0.211069688201 -0.977470993996 0.0
outer loop
vertex 19.4715328217 -2.3091211319 -62.9741249084
vertex 19.3656406403 -2.33198690414 -62.9741249084
vertex 19.3656406403 -2.33198690414 -66.5651245117
endloop
endfacet
facet normal 0.977347671986 0.211640074849 1.40514986313e-08
outer loop
vertex 19.4715328217 -2.3091211319 -62.9741249084
vertex 19.4715328217 -2.30912089348 -66.5651245117
vertex 19.4609508514 -2.26025366783 -66.5651245117
endloop
endfacet
facet normal 0.977347671986 0.21164008975 1.40514995195e-08
outer loop
vertex 19.4609508514 -2.26025390625 -62.9741249084
vertex 19.4715328217 -2.3091211319 -62.9741249084
vertex 19.4609508514 -2.26025366783 -66.5651245117
endloop
endfacet
facet normal -0.208714261651 0.977976620197 0.0
outer loop
vertex 19.14336586 -2.32843136787 -66.5651245117
vertex 19.249256134 -2.30583286285 -62.9741249084
vertex 19.249256134 -2.30583286285 -66.5651245117
endloop
endfacet
facet normal -0.209898427129 0.977723181248 0.0
outer loop
vertex 19.249256134 -2.30583286285 -66.5651245117
vertex 19.249256134 -2.30583286285 -62.9741249084
vertex 19.3551158905 -2.28310680389 -66.5651245117
endloop
endfacet
facet normal -0.208716362715 0.977976202965 6.49311360235e-08
outer loop
vertex 19.14336586 -2.32843160629 -62.9741249084
vertex 19.249256134 -2.30583286285 -62.9741249084
vertex 19.14336586 -2.32843136787 -66.5651245117
endloop
endfacet
facet normal -0.209896311164 0.97772359848 6.46746016741e-08
outer loop
vertex 19.249256134 -2.30583286285 -62.9741249084
vertex 19.3551158905 -2.28310704231 -62.9741249084
vertex 19.3551158905 -2.28310680389 -66.5651245117
endloop
endfacet
facet normal -0.211067214608 0.977471530437 6.52718981087e-08
outer loop
vertex 19.3551158905 -2.28310680389 -66.5651245117
vertex 19.4609508514 -2.26025390625 -62.9741249084
vertex 19.4609508514 -2.26025366783 -66.5651245117
endloop
endfacet
facet normal -0.211067214608 0.977471530437 6.48976339335e-08
outer loop
vertex 19.3551158905 -2.28310704231 -62.9741249084
vertex 19.4609508514 -2.26025390625 -62.9741249084
vertex 19.3551158905 -2.28310680389 -66.5651245117
endloop
endfacet
facet normal -0.978101074696 -0.208130568266 -1.39400606614e-08
outer loop
vertex 19.1537723541 -2.37733650208 -62.9741249084
vertex 19.14336586 -2.32843160629 -62.9741249084
vertex 19.14336586 -2.32843136787 -66.5651245117
endloop
endfacet
facet normal -0.97810125351 -0.208129584789 -0.0
outer loop
vertex 19.1537723541 -2.37733650208 -62.9741249084
vertex 19.14336586 -2.32843136787 -66.5651245117
vertex 19.1537723541 -2.37733650208 -66.5651245117
endloop
endfacet
facet normal 0.0 0.0 1.0
outer loop
vertex 19.4609508514 -2.26025390625 -62.9741249084
vertex 19.3551158905 -2.28310704231 -62.9741249084
vertex 19.4715328217 -2.3091211319 -62.9741249084
endloop
endfacet
facet normal 0.0 0.0 1.0
outer loop
vertex 19.3551158905 -2.28310704231 -62.9741249084
vertex 19.3656406403 -2.33198690414 -62.9741249084
vertex 19.4715328217 -2.3091211319 -62.9741249084
endloop
endfacet
facet normal 0.0 0.0 1.0
outer loop
vertex 19.3551158905 -2.28310704231 -62.9741249084
vertex 19.249256134 -2.30583286285 -62.9741249084
vertex 19.3656406403 -2.33198690414 -62.9741249084
endloop
endfacet
facet normal 0.0 0.0 1.0
outer loop
vertex 19.249256134 -2.30583286285 -62.9741249084
vertex 19.2597198486 -2.35472536087 -62.9741249084
vertex 19.3656406403 -2.33198690414 -62.9741249084
endloop
endfacet
facet normal 0.0 0.0 1.0
outer loop
vertex 19.249256134 -2.30583286285 -62.9741249084
vertex 19.14336586 -2.32843160629 -62.9741249084
vertex 19.2597198486 -2.35472536087 -62.9741249084
endloop
endfacet
facet normal 0.0 0.0 1.0
outer loop
vertex 19.14336586 -2.32843160629 -62.9741249084
vertex 19.1537723541 -2.37733650208 -62.9741249084
vertex 19.2597198486 -2.35472536087 -62.9741249084
endloop
endfacet
facet normal 0.0 0.0 -1.0
outer loop
vertex 19.3551158905 -2.28310680389 -66.5651245117
vertex 19.4609508514 -2.26025366783 -66.5651245117
vertex 19.4715328217 -2.30912089348 -66.5651245117
endloop
endfacet
facet normal 0.0 0.0 -1.0
outer loop
vertex 19.3656406403 -2.33198690414 -66.5651245117
vertex 19.3551158905 -2.28310680389 -66.5651245117
vertex 19.4715328217 -2.30912089348 -66.5651245117
endloop
endfacet
facet normal 0.0 0.0 -1.0
outer loop
vertex 19.249256134 -2.30583286285 -66.5651245117
vertex 19.3551158905 -2.28310680389 -66.5651245117
vertex 19.3656406403 -2.33198690414 -66.5651245117
endloop
endfacet
facet normal 0.0 0.0 -1.0
outer loop
vertex 19.2597198486 -2.35472536087 -66.5651245117
vertex 19.249256134 -2.30583286285 -66.5651245117
vertex 19.3656406403 -2.33198690414 -66.5651245117
endloop
endfacet
facet normal 0.0 0.0 -1.0
outer loop
vertex 19.1537723541 -2.37733650208 -66.5651245117
vertex 19.14336586 -2.32843136787 -66.5651245117
vertex 19.249256134 -2.30583286285 -66.5651245117
endloop
endfacet
facet normal 0.0 0.0 -1.0
outer loop
vertex 19.1537723541 -2.37733650208 -66.5651245117
vertex 19.249256134 -2.30583286285 -66.5651245117
vertex 19.2597198486 -2.35472536087 -66.5651245117
endloop
endfacet
