solid 
facet normal 0.00323075521737 0.999994814396 1.32773038786e-07
outer loop
vertex -0.161222279072 4.35045528412 65.5993041992
vertex -0.0528895109892 4.35010528564 65.5993041992
vertex -0.0528895258904 4.35010576248 62.0083045959
endloop
endfacet
facet normal 0.00322635332122 0.999994814396 -1.33880302677e-11
outer loop
vertex -0.161222279072 4.35045528412 65.5993041992
vertex -0.0528895258904 4.35010576248 62.0083045959
vertex -0.161222293973 4.35045528412 62.0083045959
endloop
endfacet
facet normal 0.00202912581153 0.999997913837 0.0
outer loop
vertex -0.269555389881 4.35067510605 65.5993041992
vertex -0.161222293973 4.35045528412 62.0083045959
vertex -0.269555389881 4.35067510605 62.0083045959
endloop
endfacet
facet normal 0.000823094276711 0.999999642372 0.0
outer loop
vertex -0.269555389881 4.35067510605 65.5993041992
vertex -0.269555389881 4.35067510605 62.0083045959
vertex -0.377888679504 4.3507642746 62.0083045959
endloop
endfacet
facet normal 0.00202912534587 0.999997913837 -4.67576498353e-12
outer loop
vertex -0.269555389881 4.35067510605 65.5993041992
vertex -0.161222279072 4.35045528412 65.5993041992
vertex -0.161222293973 4.35045528412 62.0083045959
endloop
endfacet
facet normal 0.000823094276711 0.999999642372 0.0
outer loop
vertex -0.377888679504 4.3507642746 65.5993041992
vertex -0.269555389881 4.35067510605 65.5993041992
vertex -0.377888679504 4.3507642746 62.0083045959
endloop
endfacet
facet normal -1.0 0.000223516573897 2.97591846998e-11
outer loop
vertex -0.377888679504 4.3507642746 65.5993041992
vertex -0.377899855375 4.3007645607 62.0083045959
vertex -0.377899855375 4.30076408386 65.5993041992
endloop
endfacet
facet normal -1.0 0.000223518713028 0.0
outer loop
vertex -0.377888679504 4.3507642746 62.0083045959
vertex -0.377899855375 4.3007645607 62.0083045959
vertex -0.377888679504 4.3507642746 65.5993041992
endloop
endfacet
facet normal -0.0032281447202 -0.999994814396 1.87134457236e-11
outer loop
vertex -0.053081035614 4.30010604858 62.0083045959
vertex -0.161353677511 4.30045557022 65.5993041992
vertex -0.161353692412 4.30045557022 62.0083045959
endloop
endfacet
facet normal -0.00202584825456 -0.999997913837 8.40643093331e-12
outer loop
vertex -0.161353692412 4.30045557022 62.0083045959
vertex -0.161353677511 4.30045557022 65.5993041992
vertex -0.269626677036 4.30067491531 62.0083045959
endloop
endfacet
facet normal -0.0032281447202 -0.999994814396 1.6744329881e-11
outer loop
vertex -0.0530810169876 4.30010604858 65.5993041992
vertex -0.161353677511 4.30045557022 65.5993041992
vertex -0.053081035614 4.30010604858 62.0083045959
endloop
endfacet
facet normal -0.000827955373097 -0.999999701977 0.0
outer loop
vertex -0.269626677036 4.30067491531 62.0083045959
vertex -0.269626677036 4.30067491531 65.5993041992
vertex -0.377899855375 4.3007645607 62.0083045959
endloop
endfacet
facet normal -0.00202584802173 -0.999997913837 0.0
outer loop
vertex -0.161353677511 4.30045557022 65.5993041992
vertex -0.269626677036 4.30067491531 65.5993041992
vertex -0.269626677036 4.30067491531 62.0083045959
endloop
endfacet
facet normal -0.000823551323265 -0.999999701977 -1.32788287033e-07
outer loop
vertex -0.269626677036 4.30067491531 65.5993041992
vertex -0.377899855375 4.30076408386 65.5993041992
vertex -0.377899855375 4.3007645607 62.0083045959
endloop
endfacet
facet normal 0.999992668629 -0.00383015046827 -5.18694465157e-09
outer loop
vertex -0.0530810169876 4.30010604858 65.5993041992
vertex -0.053081035614 4.30010604858 62.0083045959
vertex -0.0528895109892 4.35010528564 65.5993041992
endloop
endfacet
facet normal 0.999992668629 -0.00383018841967 -4.65510696657e-09
outer loop
vertex -0.053081035614 4.30010604858 62.0083045959
vertex -0.0528895258904 4.35010576248 62.0083045959
vertex -0.0528895109892 4.35010528564 65.5993041992
endloop
endfacet
facet normal 0.0 0.0 -1.0
outer loop
vertex -0.269626677036 4.30067491531 62.0083045959
vertex -0.377899855375 4.3007645607 62.0083045959
vertex -0.377888679504 4.3507642746 62.0083045959
endloop
endfacet
facet normal -0.0 0.0 -1.0
outer loop
vertex -0.269555389881 4.35067510605 62.0083045959
vertex -0.269626677036 4.30067491531 62.0083045959
vertex -0.377888679504 4.3507642746 62.0083045959
endloop
endfacet
facet normal 0.0 0.0 -1.0
outer loop
vertex -0.161222293973 4.35045528412 62.0083045959
vertex -0.161353692412 4.30045557022 62.0083045959
vertex -0.269626677036 4.30067491531 62.0083045959
endloop
endfacet
facet normal -0.0 0.0 -1.0
outer loop
vertex -0.161222293973 4.35045528412 62.0083045959
vertex -0.269626677036 4.30067491531 62.0083045959
vertex -0.269555389881 4.35067510605 62.0083045959
endloop
endfacet
facet normal 0.0 0.0 -1.0
outer loop
vertex -0.0528895258904 4.35010576248 62.0083045959
vertex -0.053081035614 4.30010604858 62.0083045959
vertex -0.161353692412 4.30045557022 62.0083045959
endloop
endfacet
facet normal -0.0 0.0 -1.0
outer loop
vertex -0.0528895258904 4.35010576248 62.0083045959
vertex -0.161353692412 4.30045557022 62.0083045959
vertex -0.161222293973 4.35045528412 62.0083045959
endloop
endfacet
facet normal -0.0 0.0 1.0
outer loop
vertex -0.377899855375 4.30076408386 65.5993041992
vertex -0.269626677036 4.30067491531 65.5993041992
vertex -0.377888679504 4.3507642746 65.5993041992
endloop
endfacet
facet normal 0.0 -0.0 1.0
outer loop
vertex -0.269626677036 4.30067491531 65.5993041992
vertex -0.269555389881 4.35067510605 65.5993041992
vertex -0.377888679504 4.3507642746 65.5993041992
endloop
endfacet
facet normal 0.0 -0.0 1.0
outer loop
vertex -0.161353677511 4.30045557022 65.5993041992
vertex -0.161222279072 4.35045528412 65.5993041992
vertex -0.269626677036 4.30067491531 65.5993041992
endloop
endfacet
facet normal 0.0 0.0 1.0
outer loop
vertex -0.269626677036 4.30067491531 65.5993041992
vertex -0.161222279072 4.35045528412 65.5993041992
vertex -0.269555389881 4.35067510605 65.5993041992
endloop
endfacet
facet normal 0.0 -0.0 1.0
outer loop
vertex -0.0530810169876 4.30010604858 65.5993041992
vertex -0.0528895109892 4.35010528564 65.5993041992
vertex -0.161353677511 4.30045557022 65.5993041992
endloop
endfacet
facet normal 0.0 0.0 1.0
outer loop
vertex -0.161353677511 4.30045557022 65.5993041992
vertex -0.0528895109892 4.35010528564 65.5993041992
vertex -0.161222279072 4.35045528412 65.5993041992
endloop
endfacet
