solid 
facet normal 0.00323075521737 0.999994814396 0.0
outer loop
vertex -0.161212131381 4.35045480728 18.6763038635
vertex -0.0528793632984 4.35010480881 18.6763038635
vertex -0.0528793632984 4.35010480881 15.0853042603
endloop
endfacet
facet normal 0.00323075521737 0.999994814396 0.0
outer loop
vertex -0.161212131381 4.35045480728 18.6763038635
vertex -0.0528793632984 4.35010480881 15.0853042603
vertex -0.161212131381 4.35045480728 15.0853042603
endloop
endfacet
facet normal 0.00202472414821 0.999997913837 0.0
outer loop
vertex -0.269545227289 4.35067415237 18.6763038635
vertex -0.161212131381 4.35045480728 15.0853042603
vertex -0.269545227289 4.35067415237 15.0853042603
endloop
endfacet
facet normal 0.00202472414821 0.999997913837 0.0
outer loop
vertex -0.269545227289 4.35067415237 18.6763038635
vertex -0.161212131381 4.35045480728 18.6763038635
vertex -0.161212131381 4.35045480728 15.0853042603
endloop
endfacet
facet normal 0.000827495881822 0.999999642372 0.0
outer loop
vertex -0.377878516912 4.35076379776 18.6763038635
vertex -0.269545227289 4.35067415237 15.0853042603
vertex -0.377878516912 4.35076379776 15.0853042603
endloop
endfacet
facet normal 0.000827495881822 0.999999642372 0.0
outer loop
vertex -0.377878516912 4.35076379776 18.6763038635
vertex -0.269545227289 4.35067415237 18.6763038635
vertex -0.269545227289 4.35067415237 15.0853042603
endloop
endfacet
facet normal -1.0 0.000224112605792 0.0
outer loop
vertex -0.377878516912 4.35076379776 18.6763038635
vertex -0.377889722586 4.30076360703 15.0853042603
vertex -0.377889722586 4.30076360703 18.6763038635
endloop
endfacet
facet normal -1.0 0.000224112605792 0.0
outer loop
vertex -0.377878516912 4.35076379776 15.0853042603
vertex -0.377889722586 4.30076360703 15.0853042603
vertex -0.377878516912 4.35076379776 18.6763038635
endloop
endfacet
facet normal -0.00322814495303 -0.999994814396 0.0
outer loop
vertex -0.0530708804727 4.30010509491 15.0853042603
vertex -0.0530708804727 4.30010509491 18.6763038635
vertex -0.16134352982 4.30045461655 15.0853042603
endloop
endfacet
facet normal -0.00322814495303 -0.999994814396 0.0
outer loop
vertex -0.0530708804727 4.30010509491 18.6763038635
vertex -0.16134352982 4.30045461655 18.6763038635
vertex -0.16134352982 4.30045461655 15.0853042603
endloop
endfacet
facet normal -0.00203025178052 -0.999997913837 0.0
outer loop
vertex -0.16134352982 4.30045461655 15.0853042603
vertex -0.269616544247 4.30067443848 18.6763038635
vertex -0.269616544247 4.30067443848 15.0853042603
endloop
endfacet
facet normal -0.00203025178052 -0.999997913837 -0.0
outer loop
vertex -0.16134352982 4.30045461655 18.6763038635
vertex -0.269616544247 4.30067443848 18.6763038635
vertex -0.16134352982 4.30045461655 15.0853042603
endloop
endfacet
facet normal -0.000823551323265 -0.999999701977 0.0
outer loop
vertex -0.269616544247 4.30067443848 15.0853042603
vertex -0.377889722586 4.30076360703 18.6763038635
vertex -0.377889722586 4.30076360703 15.0853042603
endloop
endfacet
facet normal -0.000823551323265 -0.999999701977 -0.0
outer loop
vertex -0.269616544247 4.30067443848 18.6763038635
vertex -0.377889722586 4.30076360703 18.6763038635
vertex -0.269616544247 4.30067443848 15.0853042603
endloop
endfacet
facet normal 0.999992668629 -0.00383033766411 0.0
outer loop
vertex -0.0530708804727 4.30010509491 18.6763038635
vertex -0.0530708804727 4.30010509491 15.0853042603
vertex -0.0528793632984 4.35010480881 18.6763038635
endloop
endfacet
facet normal 0.999992668629 -0.00383033766411 0.0
outer loop
vertex -0.0530708804727 4.30010509491 15.0853042603
vertex -0.0528793632984 4.35010480881 15.0853042603
vertex -0.0528793632984 4.35010480881 18.6763038635
endloop
endfacet
facet normal 0.0 0.0 -1.0
outer loop
vertex -0.269616544247 4.30067443848 15.0853042603
vertex -0.377889722586 4.30076360703 15.0853042603
vertex -0.377878516912 4.35076379776 15.0853042603
endloop
endfacet
facet normal -0.0 0.0 -1.0
outer loop
vertex -0.269545227289 4.35067415237 15.0853042603
vertex -0.269616544247 4.30067443848 15.0853042603
vertex -0.377878516912 4.35076379776 15.0853042603
endloop
endfacet
facet normal 0.0 0.0 -1.0
outer loop
vertex -0.16134352982 4.30045461655 15.0853042603
vertex -0.269616544247 4.30067443848 15.0853042603
vertex -0.269545227289 4.35067415237 15.0853042603
endloop
endfacet
facet normal -0.0 0.0 -1.0
outer loop
vertex -0.161212131381 4.35045480728 15.0853042603
vertex -0.16134352982 4.30045461655 15.0853042603
vertex -0.269545227289 4.35067415237 15.0853042603
endloop
endfacet
facet normal 0.0 0.0 -1.0
outer loop
vertex -0.0528793632984 4.35010480881 15.0853042603
vertex -0.0530708804727 4.30010509491 15.0853042603
vertex -0.16134352982 4.30045461655 15.0853042603
endloop
endfacet
facet normal -0.0 0.0 -1.0
outer loop
vertex -0.0528793632984 4.35010480881 15.0853042603
vertex -0.16134352982 4.30045461655 15.0853042603
vertex -0.161212131381 4.35045480728 15.0853042603
endloop
endfacet
facet normal -0.0 0.0 1.0
outer loop
vertex -0.377889722586 4.30076360703 18.6763038635
vertex -0.269616544247 4.30067443848 18.6763038635
vertex -0.377878516912 4.35076379776 18.6763038635
endloop
endfacet
facet normal 0.0 -0.0 1.0
outer loop
vertex -0.269616544247 4.30067443848 18.6763038635
vertex -0.269545227289 4.35067415237 18.6763038635
vertex -0.377878516912 4.35076379776 18.6763038635
endloop
endfacet
facet normal 0.0 -0.0 1.0
outer loop
vertex -0.16134352982 4.30045461655 18.6763038635
vertex -0.161212131381 4.35045480728 18.6763038635
vertex -0.269616544247 4.30067443848 18.6763038635
endloop
endfacet
facet normal 0.0 0.0 1.0
outer loop
vertex -0.269616544247 4.30067443848 18.6763038635
vertex -0.161212131381 4.35045480728 18.6763038635
vertex -0.269545227289 4.35067415237 18.6763038635
endloop
endfacet
facet normal 0.0 -0.0 1.0
outer loop
vertex -0.0530708804727 4.30010509491 18.6763038635
vertex -0.0528793632984 4.35010480881 18.6763038635
vertex -0.16134352982 4.30045461655 18.6763038635
endloop
endfacet
facet normal 0.0 0.0 1.0
outer loop
vertex -0.16134352982 4.30045461655 18.6763038635
vertex -0.0528793632984 4.35010480881 18.6763038635
vertex -0.161212131381 4.35045480728 18.6763038635
endloop
endfacet
