solid 
facet normal 0.208718001842 0.977975845337 -0.0
outer loop
vertex 19.1537685394 2.37733745575 36.7513046265
vertex 19.1537685394 2.37733745575 40.3423042297
vertex 19.2597160339 2.35472631454 40.3423042297
endloop
endfacet
facet normal 0.208718001842 0.977975845337 -0.0
outer loop
vertex 19.2597160339 2.35472631454 36.7513046265
vertex 19.1537685394 2.37733745575 36.7513046265
vertex 19.2597160339 2.35472631454 40.3423042297
endloop
endfacet
facet normal 0.209897905588 0.977723300457 6.49143458986e-08
outer loop
vertex 19.3656349182 2.33198785782 36.7513046265
vertex 19.2597160339 2.35472631454 40.3423042297
vertex 19.3656349182 2.3319876194 40.3423042297
endloop
endfacet
facet normal 0.209895804524 0.977723777294 0.0
outer loop
vertex 19.3656349182 2.33198785782 36.7513046265
vertex 19.2597160339 2.35472631454 36.7513046265
vertex 19.2597160339 2.35472631454 40.3423042297
endloop
endfacet
facet normal 0.211066067219 0.977471828461 6.48976552498e-08
outer loop
vertex 19.471529007 2.30912208557 36.7513046265
vertex 19.3656349182 2.3319876194 40.3423042297
vertex 19.471529007 2.30912184715 40.3423042297
endloop
endfacet
facet normal 0.211066067219 0.977471828461 6.5235475688e-08
outer loop
vertex 19.471529007 2.30912208557 36.7513046265
vertex 19.3656349182 2.33198785782 36.7513046265
vertex 19.3656349182 2.3319876194 40.3423042297
endloop
endfacet
facet normal 0.977339744568 -0.211676508188 -1.40539171412e-08
outer loop
vertex 19.471529007 2.30912208557 36.7513046265
vertex 19.471529007 2.30912184715 40.3423042297
vertex 19.4609451294 2.26025462151 40.3423042297
endloop
endfacet
facet normal 0.977339804173 -0.211676537991 -1.40539198057e-08
outer loop
vertex 19.4609451294 2.26025485992 36.7513046265
vertex 19.471529007 2.30912208557 36.7513046265
vertex 19.4609451294 2.26025462151 40.3423042297
endloop
endfacet
facet normal -0.208717852831 -0.977975904942 0.0
outer loop
vertex 19.1433620453 2.32843232155 40.3423042297
vertex 19.249250412 2.30583381653 36.7513046265
vertex 19.249250412 2.30583381653 40.3423042297
endloop
endfacet
facet normal -0.209894806147 -0.977723956108 -0.0
outer loop
vertex 19.249250412 2.30583381653 40.3423042297
vertex 19.249250412 2.30583381653 36.7513046265
vertex 19.3551120758 2.28310775757 40.3423042297
endloop
endfacet
facet normal -0.208719983697 -0.977975487709 -6.49310933909e-08
outer loop
vertex 19.1433620453 2.32843255997 36.7513046265
vertex 19.249250412 2.30583381653 36.7513046265
vertex 19.1433620453 2.32843232155 40.3423042297
endloop
endfacet
facet normal -0.209892705083 -0.977724432945 -6.4673486122e-08
outer loop
vertex 19.249250412 2.30583381653 36.7513046265
vertex 19.3551120758 2.28310799599 36.7513046265
vertex 19.3551120758 2.28310775757 40.3423042297
endloop
endfacet
facet normal -0.211070850492 -0.977470755577 -6.52730207662e-08
outer loop
vertex 19.3551120758 2.28310775757 40.3423042297
vertex 19.4609451294 2.26025485992 36.7513046265
vertex 19.4609451294 2.26025462151 40.3423042297
endloop
endfacet
facet normal -0.211070850492 -0.977470755577 -6.48975841955e-08
outer loop
vertex 19.3551120758 2.28310799599 36.7513046265
vertex 19.4609451294 2.26025485992 36.7513046265
vertex 19.3551120758 2.28310775757 40.3423042297
endloop
endfacet
facet normal -0.978101074696 0.208130568266 1.39400606614e-08
outer loop
vertex 19.1537685394 2.37733745575 36.7513046265
vertex 19.1433620453 2.32843255997 36.7513046265
vertex 19.1433620453 2.32843232155 40.3423042297
endloop
endfacet
facet normal -0.97810125351 0.208129584789 0.0
outer loop
vertex 19.1537685394 2.37733745575 36.7513046265
vertex 19.1433620453 2.32843232155 40.3423042297
vertex 19.1537685394 2.37733745575 40.3423042297
endloop
endfacet
facet normal 0.0 0.0 -1.0
outer loop
vertex 19.4609451294 2.26025485992 36.7513046265
vertex 19.3551120758 2.28310799599 36.7513046265
vertex 19.471529007 2.30912208557 36.7513046265
endloop
endfacet
facet normal 0.0 0.0 -1.0
outer loop
vertex 19.3551120758 2.28310799599 36.7513046265
vertex 19.3656349182 2.33198785782 36.7513046265
vertex 19.471529007 2.30912208557 36.7513046265
endloop
endfacet
facet normal 0.0 0.0 -1.0
outer loop
vertex 19.249250412 2.30583381653 36.7513046265
vertex 19.2597160339 2.35472631454 36.7513046265
vertex 19.3551120758 2.28310799599 36.7513046265
endloop
endfacet
facet normal 0.0 0.0 -1.0
outer loop
vertex 19.3551120758 2.28310799599 36.7513046265
vertex 19.2597160339 2.35472631454 36.7513046265
vertex 19.3656349182 2.33198785782 36.7513046265
endloop
endfacet
facet normal 0.0 0.0 -1.0
outer loop
vertex 19.1433620453 2.32843255997 36.7513046265
vertex 19.1537685394 2.37733745575 36.7513046265
vertex 19.249250412 2.30583381653 36.7513046265
endloop
endfacet
facet normal 0.0 0.0 -1.0
outer loop
vertex 19.249250412 2.30583381653 36.7513046265
vertex 19.1537685394 2.37733745575 36.7513046265
vertex 19.2597160339 2.35472631454 36.7513046265
endloop
endfacet
facet normal 0.0 0.0 1.0
outer loop
vertex 19.3656349182 2.3319876194 40.3423042297
vertex 19.3551120758 2.28310775757 40.3423042297
vertex 19.4609451294 2.26025462151 40.3423042297
endloop
endfacet
facet normal 0.0 0.0 1.0
outer loop
vertex 19.3656349182 2.3319876194 40.3423042297
vertex 19.4609451294 2.26025462151 40.3423042297
vertex 19.471529007 2.30912184715 40.3423042297
endloop
endfacet
facet normal 0.0 0.0 1.0
outer loop
vertex 19.2597160339 2.35472631454 40.3423042297
vertex 19.249250412 2.30583381653 40.3423042297
vertex 19.3551120758 2.28310775757 40.3423042297
endloop
endfacet
facet normal 0.0 0.0 1.0
outer loop
vertex 19.2597160339 2.35472631454 40.3423042297
vertex 19.3551120758 2.28310775757 40.3423042297
vertex 19.3656349182 2.3319876194 40.3423042297
endloop
endfacet
facet normal 0.0 0.0 1.0
outer loop
vertex 19.1537685394 2.37733745575 40.3423042297
vertex 19.1433620453 2.32843232155 40.3423042297
vertex 19.249250412 2.30583381653 40.3423042297
endloop
endfacet
facet normal 0.0 0.0 1.0
outer loop
vertex 19.1537685394 2.37733745575 40.3423042297
vertex 19.249250412 2.30583381653 40.3423042297
vertex 19.2597160339 2.35472631454 40.3423042297
endloop
endfacet
