solid 
facet normal 0.208718016744 0.977975845337 -0.0
outer loop
vertex 19.15376091 2.37733817101 -327.628570557
vertex 19.15376091 2.37733817101 -324.037567139
vertex 19.2597084045 2.3547270298 -324.037567139
endloop
endfacet
facet normal 0.209892198443 0.977724552155 -0.0
outer loop
vertex 19.2597084045 2.3547270298 -327.628570557
vertex 19.2597084045 2.3547270298 -324.037567139
vertex 19.3656291962 2.33198857307 -324.037567139
endloop
endfacet
facet normal 0.208718016744 0.977975845337 -0.0
outer loop
vertex 19.2597084045 2.3547270298 -327.628570557
vertex 19.15376091 2.37733817101 -327.628570557
vertex 19.2597084045 2.3547270298 -324.037567139
endloop
endfacet
facet normal 0.211071789265 0.977470517159 -0.0
outer loop
vertex 19.3656291962 2.33198857307 -327.628570557
vertex 19.3656291962 2.33198857307 -324.037567139
vertex 19.4715213776 2.30912256241 -324.037567139
endloop
endfacet
facet normal 0.209892198443 0.977724552155 -0.0
outer loop
vertex 19.3656291962 2.33198857307 -327.628570557
vertex 19.2597084045 2.3547270298 -327.628570557
vertex 19.3656291962 2.33198857307 -324.037567139
endloop
endfacet
facet normal 0.211069688201 0.9774710536 6.48975273521e-08
outer loop
vertex 19.4715213776 2.30912280083 -327.628570557
vertex 19.3656291962 2.33198857307 -327.628570557
vertex 19.4715213776 2.30912256241 -324.037567139
endloop
endfacet
facet normal 0.977347612381 -0.211640074849 0.0
outer loop
vertex 19.4715213776 2.30912280083 -327.628570557
vertex 19.4609394073 2.26025557518 -324.037567139
vertex 19.4609394073 2.26025557518 -327.628570557
endloop
endfacet
facet normal 0.977347433567 -0.211641073227 -1.40515501457e-08
outer loop
vertex 19.4715213776 2.30912256241 -324.037567139
vertex 19.4609394073 2.26025557518 -324.037567139
vertex 19.4715213776 2.30912280083 -327.628570557
endloop
endfacet
facet normal -0.208714261651 -0.977976679802 1.10781812168e-07
outer loop
vertex 19.1433544159 2.3284330368 -324.037567139
vertex 19.2492427826 2.30583453178 -327.628570557
vertex 19.2492446899 2.30583453178 -324.037567139
endloop
endfacet
facet normal -0.209896311164 -0.977723658085 1.11485675802e-07
outer loop
vertex 19.2492446899 2.30583453178 -324.037567139
vertex 19.2492427826 2.30583453178 -327.628570557
vertex 19.3551044464 2.28310871124 -324.037567139
endloop
endfacet
facet normal -0.208717852831 -0.977975904942 0.0
outer loop
vertex 19.1433544159 2.3284330368 -327.628570557
vertex 19.2492427826 2.30583453178 -327.628570557
vertex 19.1433544159 2.3284330368 -324.037567139
endloop
endfacet
facet normal -0.211067214608 -0.977471590042 -0.0
outer loop
vertex 19.3551044464 2.28310871124 -324.037567139
vertex 19.3551044464 2.28310871124 -327.628570557
vertex 19.4609394073 2.26025557518 -324.037567139
endloop
endfacet
facet normal -0.209892690182 -0.977724432945 0.0
outer loop
vertex 19.2492427826 2.30583453178 -327.628570557
vertex 19.3551044464 2.28310871124 -327.628570557
vertex 19.3551044464 2.28310871124 -324.037567139
endloop
endfacet
facet normal -0.211067214608 -0.977471590042 0.0
outer loop
vertex 19.3551044464 2.28310871124 -327.628570557
vertex 19.4609394073 2.26025557518 -327.628570557
vertex 19.4609394073 2.26025557518 -324.037567139
endloop
endfacet
facet normal -0.97810125351 0.20812959969 0.0
outer loop
vertex 19.1433544159 2.3284330368 -327.628570557
vertex 19.1433544159 2.3284330368 -324.037567139
vertex 19.15376091 2.37733817101 -327.628570557
endloop
endfacet
facet normal -0.97810125351 0.20812959969 0.0
outer loop
vertex 19.1433544159 2.3284330368 -324.037567139
vertex 19.15376091 2.37733817101 -324.037567139
vertex 19.15376091 2.37733817101 -327.628570557
endloop
endfacet
facet normal 0.0 0.0 1.0
outer loop
vertex 19.3656291962 2.33198857307 -324.037567139
vertex 19.3551044464 2.28310871124 -324.037567139
vertex 19.4609394073 2.26025557518 -324.037567139
endloop
endfacet
facet normal 0.0 0.0 1.0
outer loop
vertex 19.3656291962 2.33198857307 -324.037567139
vertex 19.4609394073 2.26025557518 -324.037567139
vertex 19.4715213776 2.30912256241 -324.037567139
endloop
endfacet
facet normal 0.0 0.0 1.0
outer loop
vertex 19.2597084045 2.3547270298 -324.037567139
vertex 19.2492446899 2.30583453178 -324.037567139
vertex 19.3551044464 2.28310871124 -324.037567139
endloop
endfacet
facet normal 0.0 0.0 1.0
outer loop
vertex 19.2597084045 2.3547270298 -324.037567139
vertex 19.3551044464 2.28310871124 -324.037567139
vertex 19.3656291962 2.33198857307 -324.037567139
endloop
endfacet
facet normal 0.0 0.0 1.0
outer loop
vertex 19.15376091 2.37733817101 -324.037567139
vertex 19.1433544159 2.3284330368 -324.037567139
vertex 19.2492446899 2.30583453178 -324.037567139
endloop
endfacet
facet normal 0.0 0.0 1.0
outer loop
vertex 19.15376091 2.37733817101 -324.037567139
vertex 19.2492446899 2.30583453178 -324.037567139
vertex 19.2597084045 2.3547270298 -324.037567139
endloop
endfacet
facet normal 0.0 0.0 -1.0
outer loop
vertex 19.3551044464 2.28310871124 -327.628570557
vertex 19.3656291962 2.33198857307 -327.628570557
vertex 19.4609394073 2.26025557518 -327.628570557
endloop
endfacet
facet normal 0.0 0.0 -1.0
outer loop
vertex 19.4609394073 2.26025557518 -327.628570557
vertex 19.3656291962 2.33198857307 -327.628570557
vertex 19.4715213776 2.30912280083 -327.628570557
endloop
endfacet
facet normal 0.0 0.0 -1.0
outer loop
vertex 19.2492427826 2.30583453178 -327.628570557
vertex 19.2597084045 2.3547270298 -327.628570557
vertex 19.3551044464 2.28310871124 -327.628570557
endloop
endfacet
facet normal 0.0 0.0 -1.0
outer loop
vertex 19.3551044464 2.28310871124 -327.628570557
vertex 19.2597084045 2.3547270298 -327.628570557
vertex 19.3656291962 2.33198857307 -327.628570557
endloop
endfacet
facet normal 0.0 0.0 -1.0
outer loop
vertex 19.1433544159 2.3284330368 -327.628570557
vertex 19.15376091 2.37733817101 -327.628570557
vertex 19.2492427826 2.30583453178 -327.628570557
endloop
endfacet
facet normal 0.0 0.0 -1.0
outer loop
vertex 19.2492427826 2.30583453178 -327.628570557
vertex 19.15376091 2.37733817101 -327.628570557
vertex 19.2597084045 2.3547270298 -327.628570557
endloop
endfacet
