solid 
facet normal 0.00322635378689 0.999994814396 -2.80546228609e-11
outer loop
vertex -0.161232918501 4.35045528412 108.931304932
vertex -0.0529001504183 4.35010576248 108.931304932
vertex -0.0529001839459 4.35010576248 105.340309143
endloop
endfacet
facet normal 0.00323075521737 0.999994814396 1.32759382154e-07
outer loop
vertex -0.161232918501 4.35045528412 108.931304932
vertex -0.0529001839459 4.35010576248 105.340309143
vertex -0.161232948303 4.35045576096 105.340309143
endloop
endfacet
facet normal 0.00202472391538 0.999997913837 -1.68035481363e-11
outer loop
vertex -0.26956602931 4.35067510605 108.931304932
vertex -0.161232948303 4.35045576096 105.340309143
vertex -0.269566059113 4.35067510605 105.340309143
endloop
endfacet
facet normal 0.000823094451334 0.999999701977 -6.83100884885e-12
outer loop
vertex -0.26956602931 4.35067510605 108.931304932
vertex -0.269566059113 4.35067510605 105.340309143
vertex -0.377899348736 4.3507642746 105.340309143
endloop
endfacet
facet normal 0.0020291255787 0.999997913837 1.32773166683e-07
outer loop
vertex -0.26956602931 4.35067510605 108.931304932
vertex -0.161232918501 4.35045528412 108.931304932
vertex -0.161232948303 4.35045576096 105.340309143
endloop
endfacet
facet normal 0.000823094451334 0.999999701977 -6.83100884885e-12
outer loop
vertex -0.377899318933 4.3507642746 108.931304932
vertex -0.26956602931 4.35067510605 108.931304932
vertex -0.377899348736 4.3507642746 105.340309143
endloop
endfacet
facet normal -1.0 0.000223516573897 8.32878210844e-09
outer loop
vertex -0.377899318933 4.3507642746 108.931304932
vertex -0.377910524607 4.3007645607 105.340309143
vertex -0.377910494804 4.30076408386 108.931304932
endloop
endfacet
facet normal -1.0 0.000223518698476 8.29918089806e-09
outer loop
vertex -0.377899348736 4.3507642746 105.340309143
vertex -0.377910524607 4.3007645607 105.340309143
vertex -0.377899318933 4.3507642746 108.931304932
endloop
endfacet
facet normal -0.00322814518586 -0.999994814396 2.80702006777e-11
outer loop
vertex -0.053091686219 4.30010604858 105.340309143
vertex -0.161364302039 4.30045557022 108.931304932
vertex -0.161364331841 4.30045557022 105.340309143
endloop
endfacet
facet normal -0.00202584755607 -0.999997913837 1.68128757444e-11
outer loop
vertex -0.161364331841 4.30045557022 105.340309143
vertex -0.161364302039 4.30045557022 108.931304932
vertex -0.269637346268 4.30067491531 105.340309143
endloop
endfacet
facet normal -0.00322814495303 -0.999994814396 3.01398281333e-11
outer loop
vertex -0.0530916526914 4.30010604858 108.931304932
vertex -0.161364302039 4.30045557022 108.931304932
vertex -0.053091686219 4.30010604858 105.340309143
endloop
endfacet
facet normal -0.00082795531489 -0.999999701977 6.87135114433e-12
outer loop
vertex -0.269637346268 4.30067491531 105.340309143
vertex -0.269637316465 4.30067491531 108.931304932
vertex -0.377910524607 4.3007645607 105.340309143
endloop
endfacet
facet normal -0.00202584755607 -0.999997913837 1.40350960021e-11
outer loop
vertex -0.161364302039 4.30045557022 108.931304932
vertex -0.269637316465 4.30067491531 108.931304932
vertex -0.269637346268 4.30067491531 105.340309143
endloop
endfacet
facet normal -0.000823551381472 -0.999999701977 -1.32781408979e-07
outer loop
vertex -0.269637316465 4.30067491531 108.931304932
vertex -0.377910494804 4.30076408386 108.931304932
vertex -0.377910524607 4.3007645607 105.340309143
endloop
endfacet
facet normal 0.999992609024 -0.00383003940806 -9.33650934343e-09
outer loop
vertex -0.0530916526914 4.30010604858 108.931304932
vertex -0.053091686219 4.30010604858 105.340309143
vertex -0.0529001504183 4.35010576248 108.931304932
endloop
endfacet
facet normal 0.999992609024 -0.00383003940806 -9.33555011073e-09
outer loop
vertex -0.053091686219 4.30010604858 105.340309143
vertex -0.0529001839459 4.35010576248 105.340309143
vertex -0.0529001504183 4.35010576248 108.931304932
endloop
endfacet
facet normal 0.0 0.0 -1.0
outer loop
vertex -0.269637346268 4.30067491531 105.340309143
vertex -0.377910524607 4.3007645607 105.340309143
vertex -0.377899348736 4.3507642746 105.340309143
endloop
endfacet
facet normal -0.0 0.0 -1.0
outer loop
vertex -0.269566059113 4.35067510605 105.340309143
vertex -0.269637346268 4.30067491531 105.340309143
vertex -0.377899348736 4.3507642746 105.340309143
endloop
endfacet
facet normal 0.0 0.0 -1.0
outer loop
vertex -0.161232948303 4.35045576096 105.340309143
vertex -0.161364331841 4.30045557022 105.340309143
vertex -0.269637346268 4.30067491531 105.340309143
endloop
endfacet
facet normal -0.0 0.0 -1.0
outer loop
vertex -0.161232948303 4.35045576096 105.340309143
vertex -0.269637346268 4.30067491531 105.340309143
vertex -0.269566059113 4.35067510605 105.340309143
endloop
endfacet
facet normal 0.0 0.0 -1.0
outer loop
vertex -0.0529001839459 4.35010576248 105.340309143
vertex -0.053091686219 4.30010604858 105.340309143
vertex -0.161364331841 4.30045557022 105.340309143
endloop
endfacet
facet normal -0.0 0.0 -1.0
outer loop
vertex -0.0529001839459 4.35010576248 105.340309143
vertex -0.161364331841 4.30045557022 105.340309143
vertex -0.161232948303 4.35045576096 105.340309143
endloop
endfacet
facet normal -0.0 0.0 1.0
outer loop
vertex -0.377910494804 4.30076408386 108.931304932
vertex -0.269637316465 4.30067491531 108.931304932
vertex -0.377899318933 4.3507642746 108.931304932
endloop
endfacet
facet normal 0.0 -0.0 1.0
outer loop
vertex -0.269637316465 4.30067491531 108.931304932
vertex -0.26956602931 4.35067510605 108.931304932
vertex -0.377899318933 4.3507642746 108.931304932
endloop
endfacet
facet normal 0.0 -0.0 1.0
outer loop
vertex -0.161364302039 4.30045557022 108.931304932
vertex -0.161232918501 4.35045528412 108.931304932
vertex -0.269637316465 4.30067491531 108.931304932
endloop
endfacet
facet normal 0.0 0.0 1.0
outer loop
vertex -0.269637316465 4.30067491531 108.931304932
vertex -0.161232918501 4.35045528412 108.931304932
vertex -0.26956602931 4.35067510605 108.931304932
endloop
endfacet
facet normal 0.0 -0.0 1.0
outer loop
vertex -0.0530916526914 4.30010604858 108.931304932
vertex -0.0529001504183 4.35010576248 108.931304932
vertex -0.161364302039 4.30045557022 108.931304932
endloop
endfacet
facet normal 0.0 0.0 1.0
outer loop
vertex -0.161364302039 4.30045557022 108.931304932
vertex -0.0529001504183 4.35010576248 108.931304932
vertex -0.161232918501 4.35045528412 108.931304932
endloop
endfacet
