solid 
facet normal -0.208720117807 0.977975428104 0.0
outer loop
vertex -19.1537780762 2.37733530998 -407.050567627
vertex -19.1537780762 2.37733530998 -410.641571045
vertex -19.2597255707 2.35472393036 -410.641571045
endloop
endfacet
facet normal -0.209892198443 0.977724552155 -6.49143672149e-08
outer loop
vertex -19.2597255707 2.35472416878 -407.050567627
vertex -19.2597255707 2.35472393036 -410.641571045
vertex -19.3656463623 2.33198547363 -410.641571045
endloop
endfacet
facet normal -0.208718016744 0.977975845337 -6.49310436529e-08
outer loop
vertex -19.2597255707 2.35472416878 -407.050567627
vertex -19.1537780762 2.37733530998 -407.050567627
vertex -19.2597255707 2.35472393036 -410.641571045
endloop
endfacet
facet normal -0.209892198443 0.977724552155 -6.49143672149e-08
outer loop
vertex -19.3656463623 2.33198571205 -407.050567627
vertex -19.2597255707 2.35472416878 -407.050567627
vertex -19.3656463623 2.33198547363 -410.641571045
endloop
endfacet
facet normal -0.211069688201 0.9774710536 0.0
outer loop
vertex -19.4715385437 2.30911970139 -407.050567627
vertex -19.3656463623 2.33198547363 -410.641571045
vertex -19.4715385437 2.30911970139 -410.641571045
endloop
endfacet
facet normal -0.211071789265 0.977470517159 -6.52364917642e-08
outer loop
vertex -19.4715385437 2.30911970139 -407.050567627
vertex -19.3656463623 2.33198571205 -407.050567627
vertex -19.3656463623 2.33198547363 -410.641571045
endloop
endfacet
facet normal -0.977347612381 -0.211640074849 -0.0
outer loop
vertex -19.4715385437 2.30911970139 -407.050567627
vertex -19.4715385437 2.30911970139 -410.641571045
vertex -19.4609565735 2.26025247574 -410.641571045
endloop
endfacet
facet normal -0.977347433567 -0.211641073227 1.40515501457e-08
outer loop
vertex -19.4609565735 2.26025271416 -407.050567627
vertex -19.4715385437 2.30911970139 -407.050567627
vertex -19.4609565735 2.26025247574 -410.641571045
endloop
endfacet
facet normal 0.208719968796 -0.977975428104 6.49310223366e-08
outer loop
vertex -19.143371582 2.32843017578 -410.641571045
vertex -19.143371582 2.3284304142 -407.050567627
vertex -19.2492599487 2.30583143234 -410.641571045
endloop
endfacet
facet normal 0.208719968796 -0.977975428104 6.52725447026e-08
outer loop
vertex -19.143371582 2.3284304142 -407.050567627
vertex -19.2492599487 2.30583167076 -407.050567627
vertex -19.2492599487 2.30583143234 -410.641571045
endloop
endfacet
facet normal 0.209892690182 -0.977724432945 6.46734221732e-08
outer loop
vertex -19.2492599487 2.30583143234 -410.641571045
vertex -19.3551216125 2.28310585022 -407.050567627
vertex -19.3551216125 2.2831056118 -410.641571045
endloop
endfacet
facet normal 0.209892690182 -0.977724432945 6.4914353004e-08
outer loop
vertex -19.2492599487 2.30583167076 -407.050567627
vertex -19.3551216125 2.28310585022 -407.050567627
vertex -19.2492599487 2.30583143234 -410.641571045
endloop
endfacet
facet normal 0.211067214608 -0.977471590042 6.52718341598e-08
outer loop
vertex -19.3551216125 2.2831056118 -410.641571045
vertex -19.4609565735 2.26025271416 -407.050567627
vertex -19.4609565735 2.26025247574 -410.641571045
endloop
endfacet
facet normal 0.211067214608 -0.977471590042 6.48975699846e-08
outer loop
vertex -19.3551216125 2.28310585022 -407.050567627
vertex -19.4609565735 2.26025271416 -407.050567627
vertex -19.3551216125 2.2831056118 -410.641571045
endloop
endfacet
facet normal 0.97810125351 0.20812959969 -1.38184113041e-08
outer loop
vertex -19.143371582 2.3284304142 -407.050567627
vertex -19.143371582 2.32843017578 -410.641571045
vertex -19.1537780762 2.37733530998 -410.641571045
endloop
endfacet
facet normal 0.978101015091 0.208130553365 0.0
outer loop
vertex -19.1537780762 2.37733530998 -407.050567627
vertex -19.143371582 2.3284304142 -407.050567627
vertex -19.1537780762 2.37733530998 -410.641571045
endloop
endfacet
facet normal 0.0 0.0 1.0
outer loop
vertex -19.3551216125 2.28310585022 -407.050567627
vertex -19.3656463623 2.33198571205 -407.050567627
vertex -19.4609565735 2.26025271416 -407.050567627
endloop
endfacet
facet normal 0.0 -0.0 1.0
outer loop
vertex -19.4609565735 2.26025271416 -407.050567627
vertex -19.3656463623 2.33198571205 -407.050567627
vertex -19.4715385437 2.30911970139 -407.050567627
endloop
endfacet
facet normal 0.0 0.0 1.0
outer loop
vertex -19.2492599487 2.30583167076 -407.050567627
vertex -19.2597255707 2.35472416878 -407.050567627
vertex -19.3551216125 2.28310585022 -407.050567627
endloop
endfacet
facet normal 0.0 -0.0 1.0
outer loop
vertex -19.3551216125 2.28310585022 -407.050567627
vertex -19.2597255707 2.35472416878 -407.050567627
vertex -19.3656463623 2.33198571205 -407.050567627
endloop
endfacet
facet normal 0.0 0.0 1.0
outer loop
vertex -19.143371582 2.3284304142 -407.050567627
vertex -19.1537780762 2.37733530998 -407.050567627
vertex -19.2492599487 2.30583167076 -407.050567627
endloop
endfacet
facet normal 0.0 -0.0 1.0
outer loop
vertex -19.2492599487 2.30583167076 -407.050567627
vertex -19.1537780762 2.37733530998 -407.050567627
vertex -19.2597255707 2.35472416878 -407.050567627
endloop
endfacet
facet normal -0.0 0.0 -1.0
outer loop
vertex -19.3551216125 2.2831056118 -410.641571045
vertex -19.4609565735 2.26025247574 -410.641571045
vertex -19.4715385437 2.30911970139 -410.641571045
endloop
endfacet
facet normal 0.0 -0.0 -1.0
outer loop
vertex -19.3656463623 2.33198547363 -410.641571045
vertex -19.3551216125 2.2831056118 -410.641571045
vertex -19.4715385437 2.30911970139 -410.641571045
endloop
endfacet
facet normal -0.0 0.0 -1.0
outer loop
vertex -19.2492599487 2.30583143234 -410.641571045
vertex -19.3551216125 2.2831056118 -410.641571045
vertex -19.3656463623 2.33198547363 -410.641571045
endloop
endfacet
facet normal 0.0 -0.0 -1.0
outer loop
vertex -19.2597255707 2.35472393036 -410.641571045
vertex -19.2492599487 2.30583143234 -410.641571045
vertex -19.3656463623 2.33198547363 -410.641571045
endloop
endfacet
facet normal 0.0 -0.0 -1.0
outer loop
vertex -19.1537780762 2.37733530998 -410.641571045
vertex -19.143371582 2.32843017578 -410.641571045
vertex -19.2492599487 2.30583143234 -410.641571045
endloop
endfacet
facet normal 0.0 0.0 -1.0
outer loop
vertex -19.1537780762 2.37733530998 -410.641571045
vertex -19.2492599487 2.30583143234 -410.641571045
vertex -19.2597255707 2.35472393036 -410.641571045
endloop
endfacet
