solid 
facet normal 0.208718001842 -0.977975904942 0.0
outer loop
vertex 19.15376091 -2.37733817101 120.39478302
vertex 19.15376091 -2.37733817101 116.803787231
vertex 19.2597084045 -2.3547270298 116.803787231
endloop
endfacet
facet normal 0.209892198443 -0.977724552155 0.0
outer loop
vertex 19.2597084045 -2.3547270298 120.39478302
vertex 19.2597084045 -2.3547270298 116.803787231
vertex 19.3656291962 -2.33198857307 116.803787231
endloop
endfacet
facet normal 0.208718001842 -0.977975904942 0.0
outer loop
vertex 19.2597084045 -2.3547270298 120.39478302
vertex 19.15376091 -2.37733817101 120.39478302
vertex 19.2597084045 -2.3547270298 116.803787231
endloop
endfacet
facet normal 0.209892198443 -0.977724552155 0.0
outer loop
vertex 19.3656291962 -2.33198857307 120.39478302
vertex 19.2597084045 -2.3547270298 120.39478302
vertex 19.3656291962 -2.33198857307 116.803787231
endloop
endfacet
facet normal 0.2110696733 -0.977470993996 0.0
outer loop
vertex 19.4715213776 -2.30912280083 120.39478302
vertex 19.3656291962 -2.33198857307 116.803787231
vertex 19.4715213776 -2.30912280083 116.803787231
endloop
endfacet
facet normal 0.2110696733 -0.977470993996 0.0
outer loop
vertex 19.4715213776 -2.30912280083 120.39478302
vertex 19.3656291962 -2.33198857307 120.39478302
vertex 19.3656291962 -2.33198857307 116.803787231
endloop
endfacet
facet normal 0.97734773159 0.21164008975 0.0
outer loop
vertex 19.4715213776 -2.30912280083 120.39478302
vertex 19.4609394073 -2.26025557518 116.803787231
vertex 19.4609394073 -2.26025557518 120.39478302
endloop
endfacet
facet normal 0.97734773159 0.21164008975 -0.0
outer loop
vertex 19.4715213776 -2.30912280083 116.803787231
vertex 19.4609394073 -2.26025557518 116.803787231
vertex 19.4715213776 -2.30912280083 120.39478302
endloop
endfacet
facet normal -0.208716377616 0.977976262569 -1.10782004015e-07
outer loop
vertex 19.1433544159 -2.32843327522 116.803787231
vertex 19.2492427826 -2.30583453178 120.39478302
vertex 19.2492446899 -2.30583453178 116.803787231
endloop
endfacet
facet normal -0.209896296263 0.977723658085 -1.11485910281e-07
outer loop
vertex 19.2492446899 -2.30583453178 116.803787231
vertex 19.2492427826 -2.30583453178 120.39478302
vertex 19.3551044464 -2.28310871124 116.803787231
endloop
endfacet
facet normal -0.208719968796 0.977975487709 0.0
outer loop
vertex 19.1433544159 -2.32843327522 120.39478302
vertex 19.2492427826 -2.30583453178 120.39478302
vertex 19.1433544159 -2.32843327522 116.803787231
endloop
endfacet
facet normal -0.211067229509 0.977471590042 0.0
outer loop
vertex 19.3551044464 -2.28310871124 116.803787231
vertex 19.3551044464 -2.28310871124 120.39478302
vertex 19.4609394073 -2.26025557518 116.803787231
endloop
endfacet
facet normal -0.209892675281 0.977724373341 0.0
outer loop
vertex 19.2492427826 -2.30583453178 120.39478302
vertex 19.3551044464 -2.28310871124 120.39478302
vertex 19.3551044464 -2.28310871124 116.803787231
endloop
endfacet
facet normal -0.211067229509 0.977471590042 0.0
outer loop
vertex 19.3551044464 -2.28310871124 120.39478302
vertex 19.4609394073 -2.26025557518 120.39478302
vertex 19.4609394073 -2.26025557518 116.803787231
endloop
endfacet
facet normal -0.978101074696 -0.208130538464 -0.0
outer loop
vertex 19.1433544159 -2.32843327522 120.39478302
vertex 19.1433544159 -2.32843327522 116.803787231
vertex 19.15376091 -2.37733817101 120.39478302
endloop
endfacet
facet normal -0.978101074696 -0.208130538464 0.0
outer loop
vertex 19.1433544159 -2.32843327522 116.803787231
vertex 19.15376091 -2.37733817101 116.803787231
vertex 19.15376091 -2.37733817101 120.39478302
endloop
endfacet
facet normal 0.0 0.0 -1.0
outer loop
vertex 19.3551044464 -2.28310871124 116.803787231
vertex 19.4609394073 -2.26025557518 116.803787231
vertex 19.4715213776 -2.30912280083 116.803787231
endloop
endfacet
facet normal 0.0 0.0 -1.0
outer loop
vertex 19.3656291962 -2.33198857307 116.803787231
vertex 19.3551044464 -2.28310871124 116.803787231
vertex 19.4715213776 -2.30912280083 116.803787231
endloop
endfacet
facet normal 0.0 0.0 -1.0
outer loop
vertex 19.2597084045 -2.3547270298 116.803787231
vertex 19.2492446899 -2.30583453178 116.803787231
vertex 19.3551044464 -2.28310871124 116.803787231
endloop
endfacet
facet normal 0.0 0.0 -1.0
outer loop
vertex 19.2597084045 -2.3547270298 116.803787231
vertex 19.3551044464 -2.28310871124 116.803787231
vertex 19.3656291962 -2.33198857307 116.803787231
endloop
endfacet
facet normal 0.0 0.0 -1.0
outer loop
vertex 19.15376091 -2.37733817101 116.803787231
vertex 19.1433544159 -2.32843327522 116.803787231
vertex 19.2492446899 -2.30583453178 116.803787231
endloop
endfacet
facet normal 0.0 0.0 -1.0
outer loop
vertex 19.15376091 -2.37733817101 116.803787231
vertex 19.2492446899 -2.30583453178 116.803787231
vertex 19.2597084045 -2.3547270298 116.803787231
endloop
endfacet
facet normal -0.0 0.0 1.0
outer loop
vertex 19.3551044464 -2.28310871124 120.39478302
vertex 19.3656291962 -2.33198857307 120.39478302
vertex 19.4609394073 -2.26025557518 120.39478302
endloop
endfacet
facet normal 0.0 0.0 1.0
outer loop
vertex 19.4609394073 -2.26025557518 120.39478302
vertex 19.3656291962 -2.33198857307 120.39478302
vertex 19.4715213776 -2.30912280083 120.39478302
endloop
endfacet
facet normal -0.0 0.0 1.0
outer loop
vertex 19.2492427826 -2.30583453178 120.39478302
vertex 19.2597084045 -2.3547270298 120.39478302
vertex 19.3551044464 -2.28310871124 120.39478302
endloop
endfacet
facet normal 0.0 0.0 1.0
outer loop
vertex 19.3551044464 -2.28310871124 120.39478302
vertex 19.2597084045 -2.3547270298 120.39478302
vertex 19.3656291962 -2.33198857307 120.39478302
endloop
endfacet
facet normal -0.0 0.0 1.0
outer loop
vertex 19.1433544159 -2.32843327522 120.39478302
vertex 19.15376091 -2.37733817101 120.39478302
vertex 19.2492427826 -2.30583453178 120.39478302
endloop
endfacet
facet normal 0.0 0.0 1.0
outer loop
vertex 19.2492427826 -2.30583453178 120.39478302
vertex 19.15376091 -2.37733817101 120.39478302
vertex 19.2597084045 -2.3547270298 120.39478302
endloop
endfacet
