solid 
facet normal 0.0032307554502 -0.999994814396 0.0
outer loop
vertex -0.161212280393 -4.35045433044 -15.9911212921
vertex -0.0528795197606 -4.35010433197 -15.9911212921
vertex -0.0528795197606 -4.35010433197 -12.4001216888
endloop
endfacet
facet normal 0.0032307554502 -0.999994814396 0.0
outer loop
vertex -0.161212280393 -4.35045433044 -15.9911212921
vertex -0.0528795197606 -4.35010433197 -12.4001216888
vertex -0.161212280393 -4.35045433044 -12.4001216888
endloop
endfacet
facet normal 0.00202912581153 -0.999997913837 0.0
outer loop
vertex -0.269545376301 -4.35067415237 -15.9911212921
vertex -0.161212280393 -4.35045433044 -12.4001216888
vertex -0.269545376301 -4.35067415237 -12.4001216888
endloop
endfacet
facet normal 0.00202912581153 -0.999997913837 0.0
outer loop
vertex -0.269545376301 -4.35067415237 -15.9911212921
vertex -0.161212280393 -4.35045433044 -15.9911212921
vertex -0.161212280393 -4.35045433044 -12.4001216888
endloop
endfacet
facet normal 0.000823094276711 -0.999999642372 0.0
outer loop
vertex -0.377878665924 -4.35076332092 -15.9911212921
vertex -0.269545376301 -4.35067415237 -12.4001216888
vertex -0.377878665924 -4.35076332092 -12.4001216888
endloop
endfacet
facet normal 0.000823094276711 -0.999999642372 0.0
outer loop
vertex -0.377878665924 -4.35076332092 -15.9911212921
vertex -0.269545376301 -4.35067415237 -15.9911212921
vertex -0.269545376301 -4.35067415237 -12.4001216888
endloop
endfacet
facet normal -1.0 -0.000224112605792 0.0
outer loop
vertex -0.377878665924 -4.35076332092 -15.9911212921
vertex -0.377889871597 -4.30076313019 -12.4001216888
vertex -0.377889871597 -4.30076313019 -15.9911212921
endloop
endfacet
facet normal -1.0 -0.000224112605792 -0.0
outer loop
vertex -0.377878665924 -4.35076332092 -12.4001216888
vertex -0.377889871597 -4.30076313019 -12.4001216888
vertex -0.377878665924 -4.35076332092 -15.9911212921
endloop
endfacet
facet normal -0.0032281447202 0.999994814396 0.0
outer loop
vertex -0.0530710369349 -4.30010509491 -12.4001216888
vertex -0.161343693733 -4.30045461655 -15.9911212921
vertex -0.161343693733 -4.30045461655 -12.4001216888
endloop
endfacet
facet normal -0.0032281447202 0.999994814396 0.0
outer loop
vertex -0.0530710369349 -4.30010509491 -15.9911212921
vertex -0.161343693733 -4.30045461655 -15.9911212921
vertex -0.0530710369349 -4.30010509491 -12.4001216888
endloop
endfacet
facet normal -0.00202584802173 0.999997913837 0.0
outer loop
vertex -0.161343693733 -4.30045461655 -12.4001216888
vertex -0.269616693258 -4.30067396164 -15.9911212921
vertex -0.269616693258 -4.30067396164 -12.4001216888
endloop
endfacet
facet normal -0.00202584802173 0.999997913837 0.0
outer loop
vertex -0.161343693733 -4.30045461655 -15.9911212921
vertex -0.269616693258 -4.30067396164 -15.9911212921
vertex -0.161343693733 -4.30045461655 -12.4001216888
endloop
endfacet
facet normal -0.000823551323265 0.999999701977 0.0
outer loop
vertex -0.269616693258 -4.30067396164 -12.4001216888
vertex -0.377889871597 -4.30076313019 -15.9911212921
vertex -0.377889871597 -4.30076313019 -12.4001216888
endloop
endfacet
facet normal -0.000823551323265 0.999999701977 0.0
outer loop
vertex -0.269616693258 -4.30067396164 -15.9911212921
vertex -0.377889871597 -4.30076313019 -15.9911212921
vertex -0.269616693258 -4.30067396164 -12.4001216888
endloop
endfacet
facet normal 0.999992668629 0.00383037421852 0.0
outer loop
vertex -0.0530710369349 -4.30010509491 -15.9911212921
vertex -0.0528795197606 -4.35010433197 -12.4001216888
vertex -0.0528795197606 -4.35010433197 -15.9911212921
endloop
endfacet
facet normal 0.999992668629 0.00383037421852 0.0
outer loop
vertex -0.0530710369349 -4.30010509491 -12.4001216888
vertex -0.0528795197606 -4.35010433197 -12.4001216888
vertex -0.0530710369349 -4.30010509491 -15.9911212921
endloop
endfacet
facet normal 0.0 0.0 1.0
outer loop
vertex -0.269616693258 -4.30067396164 -12.4001216888
vertex -0.377889871597 -4.30076313019 -12.4001216888
vertex -0.377878665924 -4.35076332092 -12.4001216888
endloop
endfacet
facet normal 0.0 0.0 1.0
outer loop
vertex -0.269545376301 -4.35067415237 -12.4001216888
vertex -0.269616693258 -4.30067396164 -12.4001216888
vertex -0.377878665924 -4.35076332092 -12.4001216888
endloop
endfacet
facet normal 0.0 0.0 1.0
outer loop
vertex -0.161343693733 -4.30045461655 -12.4001216888
vertex -0.269616693258 -4.30067396164 -12.4001216888
vertex -0.269545376301 -4.35067415237 -12.4001216888
endloop
endfacet
facet normal 0.0 0.0 1.0
outer loop
vertex -0.161212280393 -4.35045433044 -12.4001216888
vertex -0.161343693733 -4.30045461655 -12.4001216888
vertex -0.269545376301 -4.35067415237 -12.4001216888
endloop
endfacet
facet normal 0.0 0.0 1.0
outer loop
vertex -0.0528795197606 -4.35010433197 -12.4001216888
vertex -0.0530710369349 -4.30010509491 -12.4001216888
vertex -0.161343693733 -4.30045461655 -12.4001216888
endloop
endfacet
facet normal 0.0 0.0 1.0
outer loop
vertex -0.0528795197606 -4.35010433197 -12.4001216888
vertex -0.161343693733 -4.30045461655 -12.4001216888
vertex -0.161212280393 -4.35045433044 -12.4001216888
endloop
endfacet
facet normal 0.0 0.0 -1.0
outer loop
vertex -0.377889871597 -4.30076313019 -15.9911212921
vertex -0.269616693258 -4.30067396164 -15.9911212921
vertex -0.377878665924 -4.35076332092 -15.9911212921
endloop
endfacet
facet normal 0.0 -0.0 -1.0
outer loop
vertex -0.269616693258 -4.30067396164 -15.9911212921
vertex -0.269545376301 -4.35067415237 -15.9911212921
vertex -0.377878665924 -4.35076332092 -15.9911212921
endloop
endfacet
facet normal 0.0 0.0 -1.0
outer loop
vertex -0.269616693258 -4.30067396164 -15.9911212921
vertex -0.161343693733 -4.30045461655 -15.9911212921
vertex -0.269545376301 -4.35067415237 -15.9911212921
endloop
endfacet
facet normal 0.0 -0.0 -1.0
outer loop
vertex -0.161343693733 -4.30045461655 -15.9911212921
vertex -0.161212280393 -4.35045433044 -15.9911212921
vertex -0.269545376301 -4.35067415237 -15.9911212921
endloop
endfacet
facet normal 0.0 0.0 -1.0
outer loop
vertex -0.161343693733 -4.30045461655 -15.9911212921
vertex -0.0530710369349 -4.30010509491 -15.9911212921
vertex -0.161212280393 -4.35045433044 -15.9911212921
endloop
endfacet
facet normal 0.0 -0.0 -1.0
outer loop
vertex -0.0530710369349 -4.30010509491 -15.9911212921
vertex -0.0528795197606 -4.35010433197 -15.9911212921
vertex -0.161212280393 -4.35045433044 -15.9911212921
endloop
endfacet
