solid 
facet normal -0.208720088005 0.9779753685 0.0
outer loop
vertex -19.1537628174 2.37733817101 -127.153877258
vertex -19.1537628174 2.37733817101 -130.744873047
vertex -19.2597103119 2.35472679138 -130.744873047
endloop
endfacet
facet normal -0.209892198443 0.977724552155 -6.4914502218e-08
outer loop
vertex -19.2597103119 2.3547270298 -127.153877258
vertex -19.2597103119 2.35472679138 -130.744873047
vertex -19.3656311035 2.33198833466 -130.744873047
endloop
endfacet
facet normal -0.208718001842 0.977975904942 -6.49311857615e-08
outer loop
vertex -19.2597103119 2.3547270298 -127.153877258
vertex -19.1537628174 2.37733817101 -127.153877258
vertex -19.2597103119 2.35472679138 -130.744873047
endloop
endfacet
facet normal -0.209892198443 0.977724552155 -6.4914502218e-08
outer loop
vertex -19.3656311035 2.33198857307 -127.153877258
vertex -19.2597103119 2.3547270298 -127.153877258
vertex -19.3656311035 2.33198833466 -130.744873047
endloop
endfacet
facet normal -0.2110696733 0.977470993996 0.0
outer loop
vertex -19.4715232849 2.30912256241 -127.153877258
vertex -19.3656311035 2.33198833466 -130.744873047
vertex -19.4715232849 2.30912256241 -130.744873047
endloop
endfacet
facet normal -0.211071774364 0.977470517159 -6.52366267673e-08
outer loop
vertex -19.4715232849 2.30912256241 -127.153877258
vertex -19.3656311035 2.33198857307 -127.153877258
vertex -19.3656311035 2.33198833466 -130.744873047
endloop
endfacet
facet normal -0.97734773159 -0.21164008975 -0.0
outer loop
vertex -19.4715232849 2.30912256241 -127.153877258
vertex -19.4715232849 2.30912256241 -130.744873047
vertex -19.4609413147 2.26025533676 -130.744873047
endloop
endfacet
facet normal -0.97734773159 -0.21164008975 -0.0
outer loop
vertex -19.4609413147 2.26025533676 -127.153877258
vertex -19.4715232849 2.30912256241 -127.153877258
vertex -19.4609413147 2.26025533676 -130.744873047
endloop
endfacet
facet normal 0.208719968796 -0.977975487709 0.0
outer loop
vertex -19.1433563232 2.3284330368 -130.744873047
vertex -19.1433563232 2.3284330368 -127.153877258
vertex -19.2492446899 2.30583429337 -130.744873047
endloop
endfacet
facet normal 0.208717852831 -0.977975845337 6.46738769206e-08
outer loop
vertex -19.1433563232 2.3284330368 -127.153877258
vertex -19.2492446899 2.30583453178 -127.153877258
vertex -19.2492446899 2.30583429337 -130.744873047
endloop
endfacet
facet normal 0.209892675281 -0.977724373341 0.0
outer loop
vertex -19.2492446899 2.30583429337 -130.744873047
vertex -19.3551063538 2.28310847282 -127.153877258
vertex -19.3551063538 2.28310847282 -130.744873047
endloop
endfacet
facet normal 0.209894791245 -0.977723956108 6.49144595855e-08
outer loop
vertex -19.2492446899 2.30583453178 -127.153877258
vertex -19.3551063538 2.28310847282 -127.153877258
vertex -19.2492446899 2.30583429337 -130.744873047
endloop
endfacet
facet normal 0.211067229509 -0.977471590042 0.0
outer loop
vertex -19.3551063538 2.28310847282 -130.744873047
vertex -19.4609413147 2.26025533676 -127.153877258
vertex -19.4609413147 2.26025533676 -130.744873047
endloop
endfacet
facet normal 0.211067229509 -0.977471590042 0.0
outer loop
vertex -19.3551063538 2.28310847282 -127.153877258
vertex -19.4609413147 2.26025533676 -127.153877258
vertex -19.3551063538 2.28310847282 -130.744873047
endloop
endfacet
facet normal 0.97810125351 0.208129569888 0.0
outer loop
vertex -19.1433563232 2.3284330368 -127.153877258
vertex -19.1433563232 2.3284330368 -130.744873047
vertex -19.1537628174 2.37733817101 -130.744873047
endloop
endfacet
facet normal 0.97810125351 0.208129569888 0.0
outer loop
vertex -19.1537628174 2.37733817101 -127.153877258
vertex -19.1433563232 2.3284330368 -127.153877258
vertex -19.1537628174 2.37733817101 -130.744873047
endloop
endfacet
facet normal 0.0 0.0 1.0
outer loop
vertex -19.3551063538 2.28310847282 -127.153877258
vertex -19.3656311035 2.33198857307 -127.153877258
vertex -19.4609413147 2.26025533676 -127.153877258
endloop
endfacet
facet normal 0.0 -0.0 1.0
outer loop
vertex -19.4609413147 2.26025533676 -127.153877258
vertex -19.3656311035 2.33198857307 -127.153877258
vertex -19.4715232849 2.30912256241 -127.153877258
endloop
endfacet
facet normal 0.0 0.0 1.0
outer loop
vertex -19.2492446899 2.30583453178 -127.153877258
vertex -19.2597103119 2.3547270298 -127.153877258
vertex -19.3551063538 2.28310847282 -127.153877258
endloop
endfacet
facet normal 0.0 -0.0 1.0
outer loop
vertex -19.3551063538 2.28310847282 -127.153877258
vertex -19.2597103119 2.3547270298 -127.153877258
vertex -19.3656311035 2.33198857307 -127.153877258
endloop
endfacet
facet normal 0.0 0.0 1.0
outer loop
vertex -19.1433563232 2.3284330368 -127.153877258
vertex -19.1537628174 2.37733817101 -127.153877258
vertex -19.2492446899 2.30583453178 -127.153877258
endloop
endfacet
facet normal 0.0 -0.0 1.0
outer loop
vertex -19.2492446899 2.30583453178 -127.153877258
vertex -19.1537628174 2.37733817101 -127.153877258
vertex -19.2597103119 2.3547270298 -127.153877258
endloop
endfacet
facet normal -0.0 0.0 -1.0
outer loop
vertex -19.3551063538 2.28310847282 -130.744873047
vertex -19.4609413147 2.26025533676 -130.744873047
vertex -19.4715232849 2.30912256241 -130.744873047
endloop
endfacet
facet normal 0.0 -0.0 -1.0
outer loop
vertex -19.3656311035 2.33198833466 -130.744873047
vertex -19.3551063538 2.28310847282 -130.744873047
vertex -19.4715232849 2.30912256241 -130.744873047
endloop
endfacet
facet normal -0.0 0.0 -1.0
outer loop
vertex -19.2492446899 2.30583429337 -130.744873047
vertex -19.3551063538 2.28310847282 -130.744873047
vertex -19.3656311035 2.33198833466 -130.744873047
endloop
endfacet
facet normal 0.0 -0.0 -1.0
outer loop
vertex -19.2597103119 2.35472679138 -130.744873047
vertex -19.2492446899 2.30583429337 -130.744873047
vertex -19.3656311035 2.33198833466 -130.744873047
endloop
endfacet
facet normal 0.0 -0.0 -1.0
outer loop
vertex -19.1537628174 2.37733817101 -130.744873047
vertex -19.1433563232 2.3284330368 -130.744873047
vertex -19.2492446899 2.30583429337 -130.744873047
endloop
endfacet
facet normal 0.0 0.0 -1.0
outer loop
vertex -19.1537628174 2.37733817101 -130.744873047
vertex -19.2492446899 2.30583429337 -130.744873047
vertex -19.2597103119 2.35472679138 -130.744873047
endloop
endfacet
