solid 
facet normal 0.00323075498454 -0.999994814396 0.0
outer loop
vertex -0.161212295294 -4.35045433044 113.212783813
vertex -0.0528795309365 -4.35010433197 113.212783813
vertex -0.0528795309365 -4.35010433197 116.803787231
endloop
endfacet
facet normal 0.00323075498454 -0.999994814396 0.0
outer loop
vertex -0.161212295294 -4.35045433044 113.212783813
vertex -0.0528795309365 -4.35010433197 116.803787231
vertex -0.161212295294 -4.35045433044 116.803787231
endloop
endfacet
facet normal 0.0020291255787 -0.999997913837 0.0
outer loop
vertex -0.269545406103 -4.35067415237 113.212783813
vertex -0.161212295294 -4.35045433044 116.803787231
vertex -0.269545406103 -4.35067415237 116.803787231
endloop
endfacet
facet normal 0.0020291255787 -0.999997913837 0.0
outer loop
vertex -0.269545406103 -4.35067415237 113.212783813
vertex -0.161212295294 -4.35045433044 113.212783813
vertex -0.161212295294 -4.35045433044 116.803787231
endloop
endfacet
facet normal 0.000823094334919 -0.999999642372 0.0
outer loop
vertex -0.377878695726 -4.35076332092 113.212783813
vertex -0.269545406103 -4.35067415237 116.803787231
vertex -0.377878695726 -4.35076332092 116.803787231
endloop
endfacet
facet normal 0.000823094334919 -0.999999642372 0.0
outer loop
vertex -0.377878695726 -4.35076332092 113.212783813
vertex -0.269545406103 -4.35067415237 113.212783813
vertex -0.269545406103 -4.35067415237 116.803787231
endloop
endfacet
facet normal -1.0 -0.000223516559345 0.0
outer loop
vertex -0.377889871597 -4.30076313019 113.212783813
vertex -0.377878695726 -4.35076332092 113.212783813
vertex -0.377878695726 -4.35076332092 116.803787231
endloop
endfacet
facet normal -1.0 -0.000223516559345 0.0
outer loop
vertex -0.377889871597 -4.30076313019 113.212783813
vertex -0.377878695726 -4.35076332092 116.803787231
vertex -0.377889871597 -4.30076313019 116.803787231
endloop
endfacet
facet normal -0.00322814518586 0.999994814396 0.0
outer loop
vertex -0.0530710443854 -4.30010509491 116.803787231
vertex -0.161343693733 -4.30045461655 113.212783813
vertex -0.161343693733 -4.30045461655 116.803787231
endloop
endfacet
facet normal -0.00322814518586 0.999994814396 0.0
outer loop
vertex -0.0530710443854 -4.30010509491 113.212783813
vertex -0.161343693733 -4.30045461655 113.212783813
vertex -0.0530710443854 -4.30010509491 116.803787231
endloop
endfacet
facet normal -0.00202584802173 0.999997913837 0.0
outer loop
vertex -0.161343693733 -4.30045461655 116.803787231
vertex -0.269616693258 -4.30067396164 113.212783813
vertex -0.269616693258 -4.30067396164 116.803787231
endloop
endfacet
facet normal -0.00202584802173 0.999997913837 0.0
outer loop
vertex -0.161343693733 -4.30045461655 113.212783813
vertex -0.269616693258 -4.30067396164 113.212783813
vertex -0.161343693733 -4.30045461655 116.803787231
endloop
endfacet
facet normal -0.000823551323265 0.999999701977 0.0
outer loop
vertex -0.269616693258 -4.30067396164 116.803787231
vertex -0.377889871597 -4.30076313019 113.212783813
vertex -0.377889871597 -4.30076313019 116.803787231
endloop
endfacet
facet normal -0.000823551323265 0.999999701977 0.0
outer loop
vertex -0.269616693258 -4.30067396164 113.212783813
vertex -0.377889871597 -4.30076313019 113.212783813
vertex -0.269616693258 -4.30067396164 116.803787231
endloop
endfacet
facet normal 0.999992609024 0.00383029901423 0.0
outer loop
vertex -0.0528795309365 -4.35010433197 113.212783813
vertex -0.0530710443854 -4.30010509491 113.212783813
vertex -0.0530710443854 -4.30010509491 116.803787231
endloop
endfacet
facet normal 0.999992609024 0.00383029901423 -0.0
outer loop
vertex -0.0528795309365 -4.35010433197 113.212783813
vertex -0.0530710443854 -4.30010509491 116.803787231
vertex -0.0528795309365 -4.35010433197 116.803787231
endloop
endfacet
facet normal 0.0 0.0 -1.0
outer loop
vertex -0.377889871597 -4.30076313019 113.212783813
vertex -0.269616693258 -4.30067396164 113.212783813
vertex -0.377878695726 -4.35076332092 113.212783813
endloop
endfacet
facet normal 0.0 -0.0 -1.0
outer loop
vertex -0.269616693258 -4.30067396164 113.212783813
vertex -0.269545406103 -4.35067415237 113.212783813
vertex -0.377878695726 -4.35076332092 113.212783813
endloop
endfacet
facet normal 0.0 0.0 -1.0
outer loop
vertex -0.269616693258 -4.30067396164 113.212783813
vertex -0.161343693733 -4.30045461655 113.212783813
vertex -0.269545406103 -4.35067415237 113.212783813
endloop
endfacet
facet normal 0.0 -0.0 -1.0
outer loop
vertex -0.161343693733 -4.30045461655 113.212783813
vertex -0.161212295294 -4.35045433044 113.212783813
vertex -0.269545406103 -4.35067415237 113.212783813
endloop
endfacet
facet normal 0.0 0.0 -1.0
outer loop
vertex -0.161343693733 -4.30045461655 113.212783813
vertex -0.0530710443854 -4.30010509491 113.212783813
vertex -0.161212295294 -4.35045433044 113.212783813
endloop
endfacet
facet normal 0.0 -0.0 -1.0
outer loop
vertex -0.0530710443854 -4.30010509491 113.212783813
vertex -0.0528795309365 -4.35010433197 113.212783813
vertex -0.161212295294 -4.35045433044 113.212783813
endloop
endfacet
facet normal 0.0 0.0 1.0
outer loop
vertex -0.269616693258 -4.30067396164 116.803787231
vertex -0.377889871597 -4.30076313019 116.803787231
vertex -0.377878695726 -4.35076332092 116.803787231
endloop
endfacet
facet normal 0.0 0.0 1.0
outer loop
vertex -0.269545406103 -4.35067415237 116.803787231
vertex -0.269616693258 -4.30067396164 116.803787231
vertex -0.377878695726 -4.35076332092 116.803787231
endloop
endfacet
facet normal 0.0 0.0 1.0
outer loop
vertex -0.161343693733 -4.30045461655 116.803787231
vertex -0.269616693258 -4.30067396164 116.803787231
vertex -0.269545406103 -4.35067415237 116.803787231
endloop
endfacet
facet normal 0.0 0.0 1.0
outer loop
vertex -0.161212295294 -4.35045433044 116.803787231
vertex -0.161343693733 -4.30045461655 116.803787231
vertex -0.269545406103 -4.35067415237 116.803787231
endloop
endfacet
facet normal 0.0 0.0 1.0
outer loop
vertex -0.0530710443854 -4.30010509491 116.803787231
vertex -0.161343693733 -4.30045461655 116.803787231
vertex -0.161212295294 -4.35045433044 116.803787231
endloop
endfacet
facet normal 0.0 0.0 1.0
outer loop
vertex -0.0528795309365 -4.35010433197 116.803787231
vertex -0.0530710443854 -4.30010509491 116.803787231
vertex -0.161212295294 -4.35045433044 116.803787231
endloop
endfacet
