solid 
facet normal 0.00323075498454 0.999994814396 -2.80545621456e-11
outer loop
vertex -0.161233216524 4.35045576096 309.406005859
vertex -0.0529004521668 4.35010576248 309.406005859
vertex -0.0529004856944 4.35010576248 305.815002441
endloop
endfacet
facet normal 0.00323075498454 0.999994814396 -2.68125643216e-11
outer loop
vertex -0.161233216524 4.35045576096 309.406005859
vertex -0.0529004856944 4.35010576248 305.815002441
vertex -0.161233246326 4.35045576096 305.815002441
endloop
endfacet
facet normal 0.00202472391538 0.999997913837 -1.68035134418e-11
outer loop
vertex -0.269566327333 4.35067510605 309.406005859
vertex -0.161233246326 4.35045576096 305.815002441
vertex -0.269566357136 4.35067510605 305.815002441
endloop
endfacet
facet normal 0.00202472391538 0.999997913837 -1.40272802054e-11
outer loop
vertex -0.269566327333 4.35067510605 309.406005859
vertex -0.161233216524 4.35045576096 309.406005859
vertex -0.161233246326 4.35045576096 305.815002441
endloop
endfacet
facet normal 0.000827495881822 0.999999642372 1.32779689466e-07
outer loop
vertex -0.377899616957 4.3507642746 309.406005859
vertex -0.269566357136 4.35067510605 305.815002441
vertex -0.377899646759 4.35076475143 305.815002441
endloop
endfacet
facet normal 0.000823094334919 0.999999642372 -7.0136405364e-12
outer loop
vertex -0.377899616957 4.3507642746 309.406005859
vertex -0.269566327333 4.35067510605 309.406005859
vertex -0.269566357136 4.35067510605 305.815002441
endloop
endfacet
facet normal -1.0 0.000223518683924 8.29908408662e-09
outer loop
vertex -0.377899616957 4.3507642746 309.406005859
vertex -0.37791082263 4.3007645607 305.815002441
vertex -0.377910792828 4.3007645607 309.406005859
endloop
endfacet
facet normal -1.0 0.000223516559345 8.32884250457e-09
outer loop
vertex -0.377899646759 4.35076475143 305.815002441
vertex -0.37791082263 4.3007645607 305.815002441
vertex -0.377899616957 4.3507642746 309.406005859
endloop
endfacet
facet normal -0.00322814495303 -0.999994814396 -1.3274367916e-07
outer loop
vertex -0.0530919879675 4.30010652542 305.815002441
vertex -0.161364600062 4.30045557022 309.406005859
vertex -0.161364644766 4.30045604706 305.815002441
endloop
endfacet
facet normal -0.00322814541869 -0.999994814396 -1.32755786808e-07
outer loop
vertex -0.0530919544399 4.30010604858 309.406005859
vertex -0.161364600062 4.30045557022 309.406005859
vertex -0.0530919879675 4.30010652542 305.815002441
endloop
endfacet
facet normal -0.00202584802173 -0.999997913837 1.87134249069e-11
outer loop
vertex -0.161364644766 4.30045604706 305.815002441
vertex -0.269637614489 4.30067539215 309.406005859
vertex -0.269637644291 4.30067539215 305.815002441
endloop
endfacet
facet normal -0.00203025178052 -0.999997913837 -1.32761059035e-07
outer loop
vertex -0.161364600062 4.30045557022 309.406005859
vertex -0.269637614489 4.30067539215 309.406005859
vertex -0.161364644766 4.30045604706 305.815002441
endloop
endfacet
facet normal -0.000823551323265 -0.999999701977 7.01753499061e-12
outer loop
vertex -0.269637644291 4.30067539215 305.815002441
vertex -0.377910792828 4.3007645607 309.406005859
vertex -0.37791082263 4.3007645607 305.815002441
endloop
endfacet
facet normal -0.000823551323265 -0.999999701977 6.8347866429e-12
outer loop
vertex -0.269637614489 4.30067539215 309.406005859
vertex -0.377910792828 4.3007645607 309.406005859
vertex -0.269637644291 4.30067539215 305.815002441
endloop
endfacet
facet normal 0.999992668629 -0.00383003940806 -9.34059585234e-09
outer loop
vertex -0.0530919544399 4.30010604858 309.406005859
vertex -0.0529004856944 4.35010576248 305.815002441
vertex -0.0529004521668 4.35010576248 309.406005859
endloop
endfacet
facet normal 0.999992609024 -0.00383007572964 -9.84507231294e-09
outer loop
vertex -0.0530919879675 4.30010652542 305.815002441
vertex -0.0529004856944 4.35010576248 305.815002441
vertex -0.0530919544399 4.30010604858 309.406005859
endloop
endfacet
facet normal 0.0 0.0 -1.0
outer loop
vertex -0.269637644291 4.30067539215 305.815002441
vertex -0.37791082263 4.3007645607 305.815002441
vertex -0.377899646759 4.35076475143 305.815002441
endloop
endfacet
facet normal -0.0 0.0 -1.0
outer loop
vertex -0.269566357136 4.35067510605 305.815002441
vertex -0.269637644291 4.30067539215 305.815002441
vertex -0.377899646759 4.35076475143 305.815002441
endloop
endfacet
facet normal 0.0 0.0 -1.0
outer loop
vertex -0.161364644766 4.30045604706 305.815002441
vertex -0.269637644291 4.30067539215 305.815002441
vertex -0.269566357136 4.35067510605 305.815002441
endloop
endfacet
facet normal -0.0 0.0 -1.0
outer loop
vertex -0.161233246326 4.35045576096 305.815002441
vertex -0.161364644766 4.30045604706 305.815002441
vertex -0.269566357136 4.35067510605 305.815002441
endloop
endfacet
facet normal 0.0 0.0 -1.0
outer loop
vertex -0.0529004856944 4.35010576248 305.815002441
vertex -0.0530919879675 4.30010652542 305.815002441
vertex -0.161364644766 4.30045604706 305.815002441
endloop
endfacet
facet normal -0.0 0.0 -1.0
outer loop
vertex -0.0529004856944 4.35010576248 305.815002441
vertex -0.161364644766 4.30045604706 305.815002441
vertex -0.161233246326 4.35045576096 305.815002441
endloop
endfacet
facet normal -0.0 0.0 1.0
outer loop
vertex -0.377910792828 4.3007645607 309.406005859
vertex -0.269637614489 4.30067539215 309.406005859
vertex -0.377899616957 4.3507642746 309.406005859
endloop
endfacet
facet normal 0.0 -0.0 1.0
outer loop
vertex -0.269637614489 4.30067539215 309.406005859
vertex -0.269566327333 4.35067510605 309.406005859
vertex -0.377899616957 4.3507642746 309.406005859
endloop
endfacet
facet normal -0.0 0.0 1.0
outer loop
vertex -0.269637614489 4.30067539215 309.406005859
vertex -0.161364600062 4.30045557022 309.406005859
vertex -0.269566327333 4.35067510605 309.406005859
endloop
endfacet
facet normal 0.0 -0.0 1.0
outer loop
vertex -0.161364600062 4.30045557022 309.406005859
vertex -0.161233216524 4.35045576096 309.406005859
vertex -0.269566327333 4.35067510605 309.406005859
endloop
endfacet
facet normal -0.0 0.0 1.0
outer loop
vertex -0.161364600062 4.30045557022 309.406005859
vertex -0.0530919544399 4.30010604858 309.406005859
vertex -0.161233216524 4.35045576096 309.406005859
endloop
endfacet
facet normal 0.0 -0.0 1.0
outer loop
vertex -0.0530919544399 4.30010604858 309.406005859
vertex -0.0529004521668 4.35010576248 309.406005859
vertex -0.161233216524 4.35045576096 309.406005859
endloop
endfacet
