solid 
facet normal -0.121539443731 -0.992586612701 0.0
outer loop
vertex -12.8803033829 -3.48209285736 -91.8221282959
vertex -9.8176612854 -3.85710477829 -91.8221282959
vertex -9.8176612854 -3.85710477829 -91.8021240234
endloop
endfacet
facet normal -0.121539443731 -0.992586612701 0.0
outer loop
vertex -12.8803033829 -3.48209285736 -91.8221282959
vertex -9.8176612854 -3.85710477829 -91.8021240234
vertex -12.8803033829 -3.48209285736 -91.8021240234
endloop
endfacet
facet normal -0.155449196696 -0.987843871117 0.0
outer loop
vertex -15.928311348 -3.00245189667 -91.8221282959
vertex -12.8803033829 -3.48209285736 -91.8021240234
vertex -15.928311348 -3.00245189667 -91.8021240234
endloop
endfacet
facet normal -0.189176619053 -0.981943070889 0.0
outer loop
vertex -15.928311348 -3.00245189667 -91.8221282959
vertex -15.928311348 -3.00245189667 -91.8021240234
vertex -18.9581127167 -2.41874432564 -91.8021240234
endloop
endfacet
facet normal -0.155449196696 -0.987843871117 0.0
outer loop
vertex -15.928311348 -3.00245189667 -91.8221282959
vertex -12.8803033829 -3.48209285736 -91.8221282959
vertex -12.8803033829 -3.48209285736 -91.8021240234
endloop
endfacet
facet normal -0.189176619053 -0.981943011284 0.0
outer loop
vertex -18.9581127167 -2.41874432564 -91.8221206665
vertex -15.928311348 -3.00245189667 -91.8221282959
vertex -18.9581127167 -2.41874432564 -91.8021240234
endloop
endfacet
facet normal -0.978553533554 0.205992206931 0.0
outer loop
vertex -18.9581127167 -2.41874432564 -91.8221206665
vertex -18.9478130341 -2.36981630325 -91.8021240234
vertex -18.9478130341 -2.36981630325 -91.8221206665
endloop
endfacet
facet normal -0.978553533554 0.205992206931 0.0
outer loop
vertex -18.9581127167 -2.41874432564 -91.8021240234
vertex -18.9478130341 -2.36981630325 -91.8021240234
vertex -18.9581127167 -2.41874432564 -91.8221206665
endloop
endfacet
facet normal 0.121539540589 0.992586612701 0.0
outer loop
vertex -9.81243515015 -3.80737876892 -91.8021240234
vertex -12.8733768463 -3.43257474899 -91.8221282959
vertex -12.8733768463 -3.43257474899 -91.8021240234
endloop
endfacet
facet normal 0.15544912219 0.987843871117 0.0
outer loop
vertex -12.8733768463 -3.43257474899 -91.8021240234
vertex -12.8733768463 -3.43257474899 -91.8221282959
vertex -15.9196939468 -2.95320010185 -91.8021240234
endloop
endfacet
facet normal 0.121539540589 0.992586612701 -0.0
outer loop
vertex -9.81243515015 -3.80737876892 -91.8221282959
vertex -12.8733768463 -3.43257474899 -91.8221282959
vertex -9.81243515015 -3.80737876892 -91.8021240234
endloop
endfacet
facet normal 0.189176738262 0.981943070889 0.0
outer loop
vertex -15.9196939468 -2.95320010185 -91.8021240234
vertex -15.9196939468 -2.95320010185 -91.8221282959
vertex -18.9478130341 -2.36981630325 -91.8021240234
endloop
endfacet
facet normal 0.15544912219 0.987843871117 0.0
outer loop
vertex -12.8733768463 -3.43257474899 -91.8221282959
vertex -15.9196939468 -2.95320010185 -91.8221282959
vertex -15.9196939468 -2.95320010185 -91.8021240234
endloop
endfacet
facet normal 0.189176738262 0.981943011284 0.0
outer loop
vertex -15.9196939468 -2.95320010185 -91.8221282959
vertex -18.9478130341 -2.36981630325 -91.8221206665
vertex -18.9478130341 -2.36981630325 -91.8021240234
endloop
endfacet
facet normal 0.994522511959 -0.104522958398 0.0
outer loop
vertex -9.81243515015 -3.80737876892 -91.8021240234
vertex -9.8176612854 -3.85710477829 -91.8221282959
vertex -9.81243515015 -3.80737876892 -91.8221282959
endloop
endfacet
facet normal 0.994522511959 -0.104522958398 0.0
outer loop
vertex -9.81243515015 -3.80737876892 -91.8021240234
vertex -9.8176612854 -3.85710477829 -91.8021240234
vertex -9.8176612854 -3.85710477829 -91.8221282959
endloop
endfacet
facet normal 0.0 -0.0 1.0
outer loop
vertex -15.928311348 -3.00245189667 -91.8021240234
vertex -15.9196939468 -2.95320010185 -91.8021240234
vertex -18.9478130341 -2.36981630325 -91.8021240234
endloop
endfacet
facet normal 0.0 0.0 1.0
outer loop
vertex -15.928311348 -3.00245189667 -91.8021240234
vertex -18.9478130341 -2.36981630325 -91.8021240234
vertex -18.9581127167 -2.41874432564 -91.8021240234
endloop
endfacet
facet normal 0.0 -0.0 1.0
outer loop
vertex -12.8803033829 -3.48209285736 -91.8021240234
vertex -12.8733768463 -3.43257474899 -91.8021240234
vertex -15.9196939468 -2.95320010185 -91.8021240234
endloop
endfacet
facet normal 0.0 0.0 1.0
outer loop
vertex -12.8803033829 -3.48209285736 -91.8021240234
vertex -15.9196939468 -2.95320010185 -91.8021240234
vertex -15.928311348 -3.00245189667 -91.8021240234
endloop
endfacet
facet normal 0.0 -0.0 1.0
outer loop
vertex -9.8176612854 -3.85710477829 -91.8021240234
vertex -9.81243515015 -3.80737876892 -91.8021240234
vertex -12.8733768463 -3.43257474899 -91.8021240234
endloop
endfacet
facet normal 0.0 0.0 1.0
outer loop
vertex -9.8176612854 -3.85710477829 -91.8021240234
vertex -12.8733768463 -3.43257474899 -91.8021240234
vertex -12.8803033829 -3.48209285736 -91.8021240234
endloop
endfacet
facet normal -2.43735712502e-06 4.26455216029e-07 -1.0
outer loop
vertex -15.9196939468 -2.95320010185 -91.8221282959
vertex -15.928311348 -3.00245189667 -91.8221282959
vertex -18.9478130341 -2.36981630325 -91.8221206665
endloop
endfacet
facet normal -2.41997418016e-06 5.09421113293e-07 -1.0
outer loop
vertex -18.9478130341 -2.36981630325 -91.8221206665
vertex -15.928311348 -3.00245189667 -91.8221282959
vertex -18.9581127167 -2.41874432564 -91.8221206665
endloop
endfacet
facet normal -0.0 0.0 -1.0
outer loop
vertex -12.8733768463 -3.43257474899 -91.8221282959
vertex -12.8803033829 -3.48209285736 -91.8221282959
vertex -15.9196939468 -2.95320010185 -91.8221282959
endloop
endfacet
facet normal 0.0 -0.0 -1.0
outer loop
vertex -15.9196939468 -2.95320010185 -91.8221282959
vertex -12.8803033829 -3.48209285736 -91.8221282959
vertex -15.928311348 -3.00245189667 -91.8221282959
endloop
endfacet
facet normal 0.0 -0.0 -1.0
outer loop
vertex -12.8733768463 -3.43257474899 -91.8221282959
vertex -9.81243515015 -3.80737876892 -91.8221282959
vertex -12.8803033829 -3.48209285736 -91.8221282959
endloop
endfacet
facet normal -0.0 0.0 -1.0
outer loop
vertex -9.81243515015 -3.80737876892 -91.8221282959
vertex -9.8176612854 -3.85710477829 -91.8221282959
vertex -12.8803033829 -3.48209285736 -91.8221282959
endloop
endfacet
