solid 
facet normal -0.0191152673215 0.999817311764 0.0
outer loop
vertex -3.6628408432 4.29160642624 -163.223876953
vertex -0.577888727188 4.35058689117 -163.223876953
vertex -0.577888727188 4.35058689117 -163.243881226
endloop
endfacet
facet normal -0.0191152673215 0.999817311764 0.0
outer loop
vertex -3.6628408432 4.29160642624 -163.223876953
vertex -0.577888727188 4.35058689117 -163.243881226
vertex -3.6628408432 4.29160642624 -163.243881226
endloop
endfacet
facet normal -0.053332388401 0.998576760292 0.0
outer loop
vertex -3.6628408432 4.29160642624 -163.223876953
vertex -3.6628408432 4.29160642624 -163.243881226
vertex -6.74396562576 4.12704849243 -163.243881226
endloop
endfacet
facet normal -0.0874871388078 0.996165633202 0.0
outer loop
vertex -6.74396562576 4.12704849243 -163.223876953
vertex -6.74396562576 4.12704849243 -163.243881226
vertex -9.81765079498 3.85710549355 -163.243881226
endloop
endfacet
facet normal -0.053332388401 0.998576760292 0.0
outer loop
vertex -6.74396562576 4.12704849243 -163.223876953
vertex -3.6628408432 4.29160642624 -163.223876953
vertex -6.74396562576 4.12704849243 -163.243881226
endloop
endfacet
facet normal -0.0874871388078 0.996165633202 0.0
outer loop
vertex -9.81765079498 3.85710549355 -163.223876953
vertex -6.74396562576 4.12704849243 -163.223876953
vertex -9.81765079498 3.85710549355 -163.243881226
endloop
endfacet
facet normal -0.994520545006 -0.104541823268 0.0
outer loop
vertex -9.81242370605 3.80737948418 -163.243881226
vertex -9.81765079498 3.85710549355 -163.223876953
vertex -9.81765079498 3.85710549355 -163.243881226
endloop
endfacet
facet normal -0.994520545006 -0.104541823268 -0.0
outer loop
vertex -9.81242370605 3.80737948418 -163.223876953
vertex -9.81765079498 3.85710549355 -163.223876953
vertex -9.81242370605 3.80737948418 -163.243881226
endloop
endfacet
facet normal 0.0191150568426 -0.999817311764 0.0
outer loop
vertex -0.577788949013 4.30058670044 -163.243881226
vertex -0.577788949013 4.30058670044 -163.223876953
vertex -3.66102933884 4.24163961411 -163.243881226
endloop
endfacet
facet normal 0.0191150568426 -0.999817311764 0.0
outer loop
vertex -0.577788949013 4.30058670044 -163.223876953
vertex -3.66102933884 4.24163961411 -163.223876953
vertex -3.66102933884 4.24163961411 -163.243881226
endloop
endfacet
facet normal 0.0533324629068 -0.998576819897 0.0
outer loop
vertex -3.66102933884 4.24163961411 -163.243881226
vertex -6.74044466019 4.0771727562 -163.223876953
vertex -6.74044466019 4.0771727562 -163.243881226
endloop
endfacet
facet normal 0.0533324629068 -0.998576819897 0.0
outer loop
vertex -3.66102933884 4.24163961411 -163.223876953
vertex -6.74044466019 4.0771727562 -163.223876953
vertex -3.66102933884 4.24163961411 -163.243881226
endloop
endfacet
facet normal 0.0874871835113 -0.996165692806 0.0
outer loop
vertex -6.74044466019 4.0771727562 -163.243881226
vertex -9.81242370605 3.80737948418 -163.223876953
vertex -9.81242370605 3.80737948418 -163.243881226
endloop
endfacet
facet normal 0.0874871835113 -0.996165692806 0.0
outer loop
vertex -6.74044466019 4.0771727562 -163.223876953
vertex -9.81242370605 3.80737948418 -163.223876953
vertex -6.74044466019 4.0771727562 -163.243881226
endloop
endfacet
facet normal 0.999998033047 0.00199555209838 0.0
outer loop
vertex -0.577888727188 4.35058689117 -163.243881226
vertex -0.577788949013 4.30058670044 -163.223876953
vertex -0.577788949013 4.30058670044 -163.243881226
endloop
endfacet
facet normal 0.999998033047 0.00199555209838 0.0
outer loop
vertex -0.577888727188 4.35058689117 -163.223876953
vertex -0.577788949013 4.30058670044 -163.223876953
vertex -0.577888727188 4.35058689117 -163.243881226
endloop
endfacet
facet normal 0.0 -0.0 1.0
outer loop
vertex -9.81242370605 3.80737948418 -163.223876953
vertex -6.74044466019 4.0771727562 -163.223876953
vertex -9.81765079498 3.85710549355 -163.223876953
endloop
endfacet
facet normal 0.0 0.0 1.0
outer loop
vertex -6.74044466019 4.0771727562 -163.223876953
vertex -6.74396562576 4.12704849243 -163.223876953
vertex -9.81765079498 3.85710549355 -163.223876953
endloop
endfacet
facet normal 0.0 -0.0 1.0
outer loop
vertex -6.74044466019 4.0771727562 -163.223876953
vertex -3.66102933884 4.24163961411 -163.223876953
vertex -6.74396562576 4.12704849243 -163.223876953
endloop
endfacet
facet normal 0.0 0.0 1.0
outer loop
vertex -3.66102933884 4.24163961411 -163.223876953
vertex -3.6628408432 4.29160642624 -163.223876953
vertex -6.74396562576 4.12704849243 -163.223876953
endloop
endfacet
facet normal 0.0 -0.0 1.0
outer loop
vertex -3.66102933884 4.24163961411 -163.223876953
vertex -0.577788949013 4.30058670044 -163.223876953
vertex -3.6628408432 4.29160642624 -163.223876953
endloop
endfacet
facet normal 0.0 0.0 1.0
outer loop
vertex -0.577788949013 4.30058670044 -163.223876953
vertex -0.577888727188 4.35058689117 -163.223876953
vertex -3.6628408432 4.29160642624 -163.223876953
endloop
endfacet
facet normal 0.0 -0.0 -1.0
outer loop
vertex -6.74396562576 4.12704849243 -163.243881226
vertex -6.74044466019 4.0771727562 -163.243881226
vertex -9.81242370605 3.80737948418 -163.243881226
endloop
endfacet
facet normal 0.0 0.0 -1.0
outer loop
vertex -6.74396562576 4.12704849243 -163.243881226
vertex -9.81242370605 3.80737948418 -163.243881226
vertex -9.81765079498 3.85710549355 -163.243881226
endloop
endfacet
facet normal 0.0 -0.0 -1.0
outer loop
vertex -3.6628408432 4.29160642624 -163.243881226
vertex -3.66102933884 4.24163961411 -163.243881226
vertex -6.74044466019 4.0771727562 -163.243881226
endloop
endfacet
facet normal 0.0 0.0 -1.0
outer loop
vertex -3.6628408432 4.29160642624 -163.243881226
vertex -6.74044466019 4.0771727562 -163.243881226
vertex -6.74396562576 4.12704849243 -163.243881226
endloop
endfacet
facet normal 0.0 -0.0 -1.0
outer loop
vertex -0.577888727188 4.35058689117 -163.243881226
vertex -0.577788949013 4.30058670044 -163.243881226
vertex -3.66102933884 4.24163961411 -163.243881226
endloop
endfacet
facet normal 0.0 0.0 -1.0
outer loop
vertex -0.577888727188 4.35058689117 -163.243881226
vertex -3.66102933884 4.24163961411 -163.243881226
vertex -3.6628408432 4.29160642624 -163.243881226
endloop
endfacet
