solid 
facet normal 0.121539212763 0.992586612701 0.0
outer loop
vertex 12.8802862167 3.48209428787 7.82330417633
vertex 9.81764411926 3.85710549355 7.82330417633
vertex 9.81764411926 3.85710549355 7.84330415726
endloop
endfacet
facet normal 0.121539212763 0.992586612701 -0.0
outer loop
vertex 12.8802862167 3.48209428787 7.82330417633
vertex 9.81764411926 3.85710549355 7.84330415726
vertex 12.8802862167 3.48209428787 7.84330415726
endloop
endfacet
facet normal 0.155448973179 0.987843930721 -0.0
outer loop
vertex 15.9282941818 3.00245404243 7.82330417633
vertex 12.8802862167 3.48209428787 7.84330415726
vertex 15.9282941818 3.00245404243 7.84330463409
endloop
endfacet
facet normal 0.189176395535 0.981943130493 -0.0
outer loop
vertex 15.9282941818 3.00245404243 7.82330417633
vertex 15.9282941818 3.00245404243 7.84330463409
vertex 18.9580955505 2.41874718666 7.84330463409
endloop
endfacet
facet normal 0.155448973179 0.987843930721 0.0
outer loop
vertex 15.9282941818 3.00245404243 7.82330417633
vertex 12.8802862167 3.48209428787 7.82330417633
vertex 12.8802862167 3.48209428787 7.84330415726
endloop
endfacet
facet normal 0.189176395535 0.981943130493 -0.0
outer loop
vertex 18.9580955505 2.41874718666 7.82330417633
vertex 15.9282941818 3.00245404243 7.82330417633
vertex 18.9580955505 2.41874718666 7.84330463409
endloop
endfacet
facet normal 0.978561282158 -0.205955669284 0.0
outer loop
vertex 18.9477977753 2.36981916428 7.84330463409
vertex 18.9580955505 2.41874718666 7.82330417633
vertex 18.9580955505 2.41874718666 7.84330463409
endloop
endfacet
facet normal 0.978561282158 -0.205955669284 0.0
outer loop
vertex 18.9477977753 2.36981916428 7.82330417633
vertex 18.9580955505 2.41874718666 7.82330417633
vertex 18.9477977753 2.36981916428 7.84330463409
endloop
endfacet
facet normal -0.121539272368 -0.992586612701 0.0
outer loop
vertex 9.81241798401 3.80737948418 7.84330415726
vertex 12.8733606339 3.4325761795 7.82330417633
vertex 12.8733606339 3.4325761795 7.84330415726
endloop
endfacet
facet normal -0.121539272368 -0.992586612701 0.0
outer loop
vertex 9.81241798401 3.80737948418 7.82330417633
vertex 12.8733606339 3.4325761795 7.82330417633
vertex 9.81241798401 3.80737948418 7.84330415726
endloop
endfacet
facet normal -0.155448883772 -0.987843930721 0.0
outer loop
vertex 12.8733606339 3.4325761795 7.84330415726
vertex 15.9196777344 2.95320224762 7.82330417633
vertex 15.9196777344 2.95320224762 7.84330463409
endloop
endfacet
facet normal -0.18917645514 -0.981943130493 -0.0
outer loop
vertex 15.9196777344 2.95320224762 7.84330463409
vertex 15.9196777344 2.95320224762 7.82330417633
vertex 18.9477977753 2.36981916428 7.84330463409
endloop
endfacet
facet normal -0.155448898673 -0.987843930721 0.0
outer loop
vertex 12.8733606339 3.4325761795 7.82330417633
vertex 15.9196777344 2.95320224762 7.82330417633
vertex 12.8733606339 3.4325761795 7.84330415726
endloop
endfacet
facet normal -0.18917645514 -0.981943130493 0.0
outer loop
vertex 15.9196777344 2.95320224762 7.82330417633
vertex 18.9477977753 2.36981916428 7.82330417633
vertex 18.9477977753 2.36981916428 7.84330463409
endloop
endfacet
facet normal -0.994522511959 0.104522958398 0.0
outer loop
vertex 9.81764411926 3.85710549355 7.82330417633
vertex 9.81241798401 3.80737948418 7.82330417633
vertex 9.81241798401 3.80737948418 7.84330415726
endloop
endfacet
facet normal -0.994522511959 0.104522958398 0.0
outer loop
vertex 9.81764411926 3.85710549355 7.82330417633
vertex 9.81241798401 3.80737948418 7.84330415726
vertex 9.81764411926 3.85710549355 7.84330415726
endloop
endfacet
facet normal 0.0 0.0 -1.0
outer loop
vertex 18.9477977753 2.36981916428 7.82330417633
vertex 15.9196777344 2.95320224762 7.82330417633
vertex 18.9580955505 2.41874718666 7.82330417633
endloop
endfacet
facet normal 0.0 0.0 -1.0
outer loop
vertex 15.9196777344 2.95320224762 7.82330417633
vertex 15.9282941818 3.00245404243 7.82330417633
vertex 18.9580955505 2.41874718666 7.82330417633
endloop
endfacet
facet normal 0.0 0.0 -1.0
outer loop
vertex 15.9196777344 2.95320224762 7.82330417633
vertex 12.8733606339 3.4325761795 7.82330417633
vertex 15.9282941818 3.00245404243 7.82330417633
endloop
endfacet
facet normal 0.0 0.0 -1.0
outer loop
vertex 12.8733606339 3.4325761795 7.82330417633
vertex 12.8802862167 3.48209428787 7.82330417633
vertex 15.9282941818 3.00245404243 7.82330417633
endloop
endfacet
facet normal 0.0 0.0 -1.0
outer loop
vertex 12.8733606339 3.4325761795 7.82330417633
vertex 9.81241798401 3.80737948418 7.82330417633
vertex 12.8802862167 3.48209428787 7.82330417633
endloop
endfacet
facet normal 0.0 0.0 -1.0
outer loop
vertex 9.81241798401 3.80737948418 7.82330417633
vertex 9.81764411926 3.85710549355 7.82330417633
vertex 12.8802862167 3.48209428787 7.82330417633
endloop
endfacet
facet normal 0.0 0.0 1.0
outer loop
vertex 15.9196777344 2.95320224762 7.84330463409
vertex 18.9477977753 2.36981916428 7.84330463409
vertex 18.9580955505 2.41874718666 7.84330463409
endloop
endfacet
facet normal 0.0 0.0 1.0
outer loop
vertex 15.9282941818 3.00245404243 7.84330463409
vertex 15.9196777344 2.95320224762 7.84330463409
vertex 18.9580955505 2.41874718666 7.84330463409
endloop
endfacet
facet normal -1.52335303483e-07 2.66505857383e-08 1.0
outer loop
vertex 12.8733606339 3.4325761795 7.84330415726
vertex 15.9196777344 2.95320224762 7.84330463409
vertex 15.9282941818 3.00245404243 7.84330463409
endloop
endfacet
facet normal -1.53073315801e-07 2.14087734207e-08 1.0
outer loop
vertex 12.8802862167 3.48209428787 7.84330415726
vertex 12.8733606339 3.4325761795 7.84330415726
vertex 15.9282941818 3.00245404243 7.84330463409
endloop
endfacet
facet normal 0.0 0.0 1.0
outer loop
vertex 9.81241798401 3.80737948418 7.84330415726
vertex 12.8733606339 3.4325761795 7.84330415726
vertex 12.8802862167 3.48209428787 7.84330415726
endloop
endfacet
facet normal 0.0 0.0 1.0
outer loop
vertex 9.81764411926 3.85710549355 7.84330415726
vertex 9.81241798401 3.80737948418 7.84330415726
vertex 12.8802862167 3.48209428787 7.84330415726
endloop
endfacet
