solid 
facet normal 0.121539443731 0.992586612701 -0.0
outer loop
vertex 9.8176612854 3.85710477829 83.6543045044
vertex 9.8176612854 3.85710477829 83.6743087769
vertex 12.8803033829 3.48209285736 83.6743087769
endloop
endfacet
facet normal 0.155449196696 0.987843871117 -0.0
outer loop
vertex 12.8803033829 3.48209285736 83.6543045044
vertex 12.8803033829 3.48209285736 83.6743087769
vertex 15.928311348 3.00245189667 83.6743087769
endloop
endfacet
facet normal 0.121539443731 0.992586612701 -0.0
outer loop
vertex 12.8803033829 3.48209285736 83.6543045044
vertex 9.8176612854 3.85710477829 83.6543045044
vertex 12.8803033829 3.48209285736 83.6743087769
endloop
endfacet
facet normal 0.155449196696 0.987843871117 -0.0
outer loop
vertex 15.928311348 3.00245189667 83.6543045044
vertex 12.8803033829 3.48209285736 83.6543045044
vertex 15.928311348 3.00245189667 83.6743087769
endloop
endfacet
facet normal 0.189176619053 0.981943070889 -0.0
outer loop
vertex 18.9581127167 2.41874432564 83.6543045044
vertex 15.928311348 3.00245189667 83.6743087769
vertex 18.9581127167 2.41874432564 83.6743087769
endloop
endfacet
facet normal 0.189176619053 0.981943070889 0.0
outer loop
vertex 18.9581127167 2.41874432564 83.6543045044
vertex 15.928311348 3.00245189667 83.6543045044
vertex 15.928311348 3.00245189667 83.6743087769
endloop
endfacet
facet normal 0.978553712368 -0.205992221832 0.0
outer loop
vertex 18.9478130341 2.36981630325 83.6543045044
vertex 18.9581127167 2.41874432564 83.6543045044
vertex 18.9581127167 2.41874432564 83.6743087769
endloop
endfacet
facet normal 0.978553712368 -0.205992221832 0.0
outer loop
vertex 18.9478130341 2.36981630325 83.6543045044
vertex 18.9581127167 2.41874432564 83.6743087769
vertex 18.9478130341 2.36981630325 83.6743087769
endloop
endfacet
facet normal -0.121539540589 -0.992586612701 -0.0
outer loop
vertex 9.81243515015 3.80737876892 83.6743087769
vertex 9.81243515015 3.80737876892 83.6543045044
vertex 12.8733768463 3.43257474899 83.6743087769
endloop
endfacet
facet normal -0.121539540589 -0.992586612701 0.0
outer loop
vertex 9.81243515015 3.80737876892 83.6543045044
vertex 12.8733768463 3.43257474899 83.6543045044
vertex 12.8733768463 3.43257474899 83.6743087769
endloop
endfacet
facet normal -0.15544912219 -0.987843871117 0.0
outer loop
vertex 12.8733768463 3.43257474899 83.6743087769
vertex 15.9196939468 2.95320010185 83.6543045044
vertex 15.9196939468 2.95320010185 83.6743087769
endloop
endfacet
facet normal -0.15544912219 -0.987843871117 0.0
outer loop
vertex 12.8733768463 3.43257474899 83.6543045044
vertex 15.9196939468 2.95320010185 83.6543045044
vertex 12.8733768463 3.43257474899 83.6743087769
endloop
endfacet
facet normal -0.189176738262 -0.981943070889 0.0
outer loop
vertex 15.9196939468 2.95320010185 83.6743087769
vertex 18.9478130341 2.36981630325 83.6543045044
vertex 18.9478130341 2.36981630325 83.6743087769
endloop
endfacet
facet normal -0.189176738262 -0.981943070889 0.0
outer loop
vertex 15.9196939468 2.95320010185 83.6543045044
vertex 18.9478130341 2.36981630325 83.6543045044
vertex 15.9196939468 2.95320010185 83.6743087769
endloop
endfacet
facet normal -0.994522511959 0.104522958398 0.0
outer loop
vertex 9.8176612854 3.85710477829 83.6743087769
vertex 9.81243515015 3.80737876892 83.6543045044
vertex 9.81243515015 3.80737876892 83.6743087769
endloop
endfacet
facet normal -0.994522511959 0.104522958398 0.0
outer loop
vertex 9.8176612854 3.85710477829 83.6543045044
vertex 9.81243515015 3.80737876892 83.6543045044
vertex 9.8176612854 3.85710477829 83.6743087769
endloop
endfacet
facet normal 0.0 0.0 -1.0
outer loop
vertex 15.9196939468 2.95320010185 83.6543045044
vertex 15.928311348 3.00245189667 83.6543045044
vertex 18.9478130341 2.36981630325 83.6543045044
endloop
endfacet
facet normal 0.0 0.0 -1.0
outer loop
vertex 18.9478130341 2.36981630325 83.6543045044
vertex 15.928311348 3.00245189667 83.6543045044
vertex 18.9581127167 2.41874432564 83.6543045044
endloop
endfacet
facet normal 0.0 0.0 -1.0
outer loop
vertex 12.8733768463 3.43257474899 83.6543045044
vertex 12.8803033829 3.48209285736 83.6543045044
vertex 15.9196939468 2.95320010185 83.6543045044
endloop
endfacet
facet normal 0.0 0.0 -1.0
outer loop
vertex 15.9196939468 2.95320010185 83.6543045044
vertex 12.8803033829 3.48209285736 83.6543045044
vertex 15.928311348 3.00245189667 83.6543045044
endloop
endfacet
facet normal 0.0 0.0 -1.0
outer loop
vertex 12.8733768463 3.43257474899 83.6543045044
vertex 9.81243515015 3.80737876892 83.6543045044
vertex 12.8803033829 3.48209285736 83.6543045044
endloop
endfacet
facet normal 0.0 0.0 -1.0
outer loop
vertex 9.81243515015 3.80737876892 83.6543045044
vertex 9.8176612854 3.85710477829 83.6543045044
vertex 12.8803033829 3.48209285736 83.6543045044
endloop
endfacet
facet normal 0.0 0.0 1.0
outer loop
vertex 15.928311348 3.00245189667 83.6743087769
vertex 15.9196939468 2.95320010185 83.6743087769
vertex 18.9478130341 2.36981630325 83.6743087769
endloop
endfacet
facet normal 0.0 0.0 1.0
outer loop
vertex 15.928311348 3.00245189667 83.6743087769
vertex 18.9478130341 2.36981630325 83.6743087769
vertex 18.9581127167 2.41874432564 83.6743087769
endloop
endfacet
facet normal 0.0 0.0 1.0
outer loop
vertex 12.8803033829 3.48209285736 83.6743087769
vertex 12.8733768463 3.43257474899 83.6743087769
vertex 15.9196939468 2.95320010185 83.6743087769
endloop
endfacet
facet normal 0.0 0.0 1.0
outer loop
vertex 12.8803033829 3.48209285736 83.6743087769
vertex 15.9196939468 2.95320010185 83.6743087769
vertex 15.928311348 3.00245189667 83.6743087769
endloop
endfacet
facet normal 0.0 0.0 1.0
outer loop
vertex 9.8176612854 3.85710477829 83.6743087769
vertex 9.81243515015 3.80737876892 83.6743087769
vertex 12.8733768463 3.43257474899 83.6743087769
endloop
endfacet
facet normal 0.0 0.0 1.0
outer loop
vertex 9.8176612854 3.85710477829 83.6743087769
vertex 12.8733768463 3.43257474899 83.6743087769
vertex 12.8803033829 3.48209285736 83.6743087769
endloop
endfacet
