solid 
facet normal -0.121539361775 0.992586612701 0.0
outer loop
vertex -9.81765460968 3.85710525513 54.7663040161
vertex -9.81765460968 3.85710525513 54.746307373
vertex -12.8802967072 3.48209357262 54.746307373
endloop
endfacet
facet normal -0.155449032784 0.987843871117 0.0
outer loop
vertex -12.8802967072 3.48209357262 54.7663040161
vertex -12.8802967072 3.48209357262 54.746307373
vertex -15.9283046722 3.00245308876 54.746307373
endloop
endfacet
facet normal -0.121539361775 0.992586612701 0.0
outer loop
vertex -12.8802967072 3.48209357262 54.7663040161
vertex -9.81765460968 3.85710525513 54.7663040161
vertex -12.8802967072 3.48209357262 54.746307373
endloop
endfacet
facet normal -0.155449032784 0.987843871117 0.0
outer loop
vertex -15.9283046722 3.00245308876 54.7663040161
vertex -12.8802967072 3.48209357262 54.7663040161
vertex -15.9283046722 3.00245308876 54.746307373
endloop
endfacet
facet normal -0.189176619053 0.981943070889 0.0
outer loop
vertex -18.9581050873 2.41874575615 54.7663040161
vertex -15.9283046722 3.00245308876 54.746307373
vertex -18.9581050873 2.41874575615 54.746307373
endloop
endfacet
facet normal -0.189176619053 0.981943070889 0.0
outer loop
vertex -18.9581050873 2.41874575615 54.7663040161
vertex -15.9283046722 3.00245308876 54.7663040161
vertex -15.9283046722 3.00245308876 54.746307373
endloop
endfacet
facet normal -0.978561282158 -0.205955699086 0.0
outer loop
vertex -18.9581050873 2.41874575615 54.7663040161
vertex -18.947807312 2.36981773376 54.746307373
vertex -18.947807312 2.36981773376 54.7663040161
endloop
endfacet
facet normal -0.978561282158 -0.205955699086 0.0
outer loop
vertex -18.9581050873 2.41874575615 54.746307373
vertex -18.947807312 2.36981773376 54.746307373
vertex -18.9581050873 2.41874575615 54.7663040161
endloop
endfacet
facet normal 0.121539466083 -0.992586612701 0.0
outer loop
vertex -9.81242847443 3.80737924576 54.746307373
vertex -9.81242847443 3.80737924576 54.7663040161
vertex -12.8733701706 3.43257546425 54.746307373
endloop
endfacet
facet normal 0.121539466083 -0.992586612701 0.0
outer loop
vertex -9.81242847443 3.80737924576 54.7663040161
vertex -12.8733701706 3.43257546425 54.7663040161
vertex -12.8733701706 3.43257546425 54.746307373
endloop
endfacet
facet normal 0.155449047685 -0.987843930721 0.0
outer loop
vertex -12.8733701706 3.43257546425 54.746307373
vertex -15.9196872711 2.95320105553 54.7663040161
vertex -15.9196872711 2.95320105553 54.746307373
endloop
endfacet
facet normal 0.189176529646 -0.981943070889 0.0
outer loop
vertex -15.9196872711 2.95320105553 54.746307373
vertex -15.9196872711 2.95320105553 54.7663040161
vertex -18.947807312 2.36981773376 54.746307373
endloop
endfacet
facet normal 0.155449047685 -0.987843930721 0.0
outer loop
vertex -12.8733701706 3.43257546425 54.7663040161
vertex -15.9196872711 2.95320105553 54.7663040161
vertex -12.8733701706 3.43257546425 54.746307373
endloop
endfacet
facet normal 0.189176529646 -0.981943070889 0.0
outer loop
vertex -15.9196872711 2.95320105553 54.7663040161
vertex -18.947807312 2.36981773376 54.7663040161
vertex -18.947807312 2.36981773376 54.746307373
endloop
endfacet
facet normal 0.994522452354 0.104522943497 0.0
outer loop
vertex -9.81242847443 3.80737924576 54.7663040161
vertex -9.81765460968 3.85710525513 54.746307373
vertex -9.81765460968 3.85710525513 54.7663040161
endloop
endfacet
facet normal 0.994522452354 0.104522943497 -0.0
outer loop
vertex -9.81242847443 3.80737924576 54.746307373
vertex -9.81765460968 3.85710525513 54.746307373
vertex -9.81242847443 3.80737924576 54.7663040161
endloop
endfacet
facet normal 0.0 0.0 -1.0
outer loop
vertex -15.9196872711 2.95320105553 54.746307373
vertex -18.947807312 2.36981773376 54.746307373
vertex -18.9581050873 2.41874575615 54.746307373
endloop
endfacet
facet normal 0.0 -0.0 -1.0
outer loop
vertex -15.9283046722 3.00245308876 54.746307373
vertex -15.9196872711 2.95320105553 54.746307373
vertex -18.9581050873 2.41874575615 54.746307373
endloop
endfacet
facet normal 0.0 0.0 -1.0
outer loop
vertex -12.8733701706 3.43257546425 54.746307373
vertex -15.9196872711 2.95320105553 54.746307373
vertex -15.9283046722 3.00245308876 54.746307373
endloop
endfacet
facet normal 0.0 -0.0 -1.0
outer loop
vertex -12.8802967072 3.48209357262 54.746307373
vertex -12.8733701706 3.43257546425 54.746307373
vertex -15.9283046722 3.00245308876 54.746307373
endloop
endfacet
facet normal 0.0 0.0 -1.0
outer loop
vertex -9.81242847443 3.80737924576 54.746307373
vertex -12.8733701706 3.43257546425 54.746307373
vertex -12.8802967072 3.48209357262 54.746307373
endloop
endfacet
facet normal 0.0 -0.0 -1.0
outer loop
vertex -9.81765460968 3.85710525513 54.746307373
vertex -9.81242847443 3.80737924576 54.746307373
vertex -12.8802967072 3.48209357262 54.746307373
endloop
endfacet
facet normal 0.0 0.0 1.0
outer loop
vertex -15.9196872711 2.95320105553 54.7663040161
vertex -15.9283046722 3.00245308876 54.7663040161
vertex -18.947807312 2.36981773376 54.7663040161
endloop
endfacet
facet normal 0.0 -0.0 1.0
outer loop
vertex -18.947807312 2.36981773376 54.7663040161
vertex -15.9283046722 3.00245308876 54.7663040161
vertex -18.9581050873 2.41874575615 54.7663040161
endloop
endfacet
facet normal 0.0 0.0 1.0
outer loop
vertex -12.8733701706 3.43257546425 54.7663040161
vertex -12.8802967072 3.48209357262 54.7663040161
vertex -15.9196872711 2.95320105553 54.7663040161
endloop
endfacet
facet normal 0.0 -0.0 1.0
outer loop
vertex -15.9196872711 2.95320105553 54.7663040161
vertex -12.8802967072 3.48209357262 54.7663040161
vertex -15.9283046722 3.00245308876 54.7663040161
endloop
endfacet
facet normal 0.0 0.0 1.0
outer loop
vertex -9.81242847443 3.80737924576 54.7663040161
vertex -9.81765460968 3.85710525513 54.7663040161
vertex -12.8733701706 3.43257546425 54.7663040161
endloop
endfacet
facet normal 0.0 -0.0 1.0
outer loop
vertex -12.8733701706 3.43257546425 54.7663040161
vertex -9.81765460968 3.85710525513 54.7663040161
vertex -12.8802967072 3.48209357262 54.7663040161
endloop
endfacet
