solid 
facet normal -0.0191152673215 -0.999817311764 0.0
outer loop
vertex -3.66284608841 -4.29160642624 396.197570801
vertex -0.577893793583 -4.35058689117 396.197570801
vertex -0.577893793583 -4.35058689117 396.217559814
endloop
endfacet
facet normal -0.0191152673215 -0.999817311764 0.0
outer loop
vertex -3.66284608841 -4.29160642624 396.197570801
vertex -0.577893793583 -4.35058689117 396.217559814
vertex -3.66284608841 -4.29160642624 396.217559814
endloop
endfacet
facet normal -0.0533323958516 -0.998576819897 0.0
outer loop
vertex -6.74397039413 -4.12704849243 396.197570801
vertex -3.66284608841 -4.29160642624 396.217559814
vertex -6.74397039413 -4.12704849243 396.217559814
endloop
endfacet
facet normal -0.08748729527 -0.996165633202 0.0
outer loop
vertex -6.74397039413 -4.12704849243 396.197570801
vertex -6.74397039413 -4.12704849243 396.217559814
vertex -9.81765556335 -3.85710501671 396.217559814
endloop
endfacet
facet normal -0.0533323958516 -0.998576819897 0.0
outer loop
vertex -6.74397039413 -4.12704849243 396.197570801
vertex -3.66284608841 -4.29160642624 396.197570801
vertex -3.66284608841 -4.29160642624 396.217559814
endloop
endfacet
facet normal -0.08748729527 -0.996165633202 0.0
outer loop
vertex -9.81765556335 -3.85710501671 396.197570801
vertex -6.74397039413 -4.12704849243 396.197570801
vertex -9.81765556335 -3.85710501671 396.217559814
endloop
endfacet
facet normal -0.994522452354 0.104522936046 0.0
outer loop
vertex -9.8124294281 -3.80737900734 396.217559814
vertex -9.81765556335 -3.85710501671 396.197570801
vertex -9.81765556335 -3.85710501671 396.217559814
endloop
endfacet
facet normal -0.994522452354 0.104522936046 0.0
outer loop
vertex -9.8124294281 -3.80737900734 396.197570801
vertex -9.81765556335 -3.85710501671 396.197570801
vertex -9.8124294281 -3.80737900734 396.217559814
endloop
endfacet
facet normal 0.0191152095795 0.999817311764 0.0
outer loop
vertex -0.577794015408 -4.30058717728 396.217559814
vertex -0.577794015408 -4.30058717728 396.197570801
vertex -3.66103458405 -4.24163961411 396.217559814
endloop
endfacet
facet normal 0.0191152095795 0.999817311764 0.0
outer loop
vertex -0.577794015408 -4.30058717728 396.197570801
vertex -3.66103458405 -4.24163961411 396.197570801
vertex -3.66103458405 -4.24163961411 396.217559814
endloop
endfacet
facet normal 0.0533324666321 0.998576819897 0.0
outer loop
vertex -3.66103458405 -4.24163961411 396.217559814
vertex -6.74044942856 -4.0771727562 396.197570801
vertex -6.74044942856 -4.0771727562 396.217559814
endloop
endfacet
facet normal 0.0533324666321 0.998576819897 -0.0
outer loop
vertex -3.66103458405 -4.24163961411 396.197570801
vertex -6.74044942856 -4.0771727562 396.197570801
vertex -3.66103458405 -4.24163961411 396.217559814
endloop
endfacet
facet normal 0.0874873101711 0.996165633202 0.0
outer loop
vertex -6.74044942856 -4.0771727562 396.217559814
vertex -9.8124294281 -3.80737900734 396.197570801
vertex -9.8124294281 -3.80737900734 396.217559814
endloop
endfacet
facet normal 0.0874873101711 0.996165633202 -0.0
outer loop
vertex -6.74044942856 -4.0771727562 396.197570801
vertex -9.8124294281 -3.80737900734 396.197570801
vertex -6.74044942856 -4.0771727562 396.217559814
endloop
endfacet
facet normal 0.999998033047 -0.00199557095766 0.0
outer loop
vertex -0.577893793583 -4.35058689117 396.217559814
vertex -0.577794015408 -4.30058717728 396.197570801
vertex -0.577794015408 -4.30058717728 396.217559814
endloop
endfacet
facet normal 0.999998033047 -0.00199557095766 0.0
outer loop
vertex -0.577893793583 -4.35058689117 396.197570801
vertex -0.577794015408 -4.30058717728 396.197570801
vertex -0.577893793583 -4.35058689117 396.217559814
endloop
endfacet
facet normal 0.0 -0.0 -1.0
outer loop
vertex -9.8124294281 -3.80737900734 396.197570801
vertex -6.74044942856 -4.0771727562 396.197570801
vertex -9.81765556335 -3.85710501671 396.197570801
endloop
endfacet
facet normal -0.0 0.0 -1.0
outer loop
vertex -6.74044942856 -4.0771727562 396.197570801
vertex -6.74397039413 -4.12704849243 396.197570801
vertex -9.81765556335 -3.85710501671 396.197570801
endloop
endfacet
facet normal 0.0 -0.0 -1.0
outer loop
vertex -6.74044942856 -4.0771727562 396.197570801
vertex -3.66103458405 -4.24163961411 396.197570801
vertex -6.74397039413 -4.12704849243 396.197570801
endloop
endfacet
facet normal -0.0 0.0 -1.0
outer loop
vertex -3.66103458405 -4.24163961411 396.197570801
vertex -3.66284608841 -4.29160642624 396.197570801
vertex -6.74397039413 -4.12704849243 396.197570801
endloop
endfacet
facet normal 0.0 -0.0 -1.0
outer loop
vertex -3.66103458405 -4.24163961411 396.197570801
vertex -0.577794015408 -4.30058717728 396.197570801
vertex -3.66284608841 -4.29160642624 396.197570801
endloop
endfacet
facet normal -0.0 0.0 -1.0
outer loop
vertex -0.577794015408 -4.30058717728 396.197570801
vertex -0.577893793583 -4.35058689117 396.197570801
vertex -3.66284608841 -4.29160642624 396.197570801
endloop
endfacet
facet normal 0.0 0.0 1.0
outer loop
vertex -6.74044942856 -4.0771727562 396.217559814
vertex -9.8124294281 -3.80737900734 396.217559814
vertex -9.81765556335 -3.85710501671 396.217559814
endloop
endfacet
facet normal 0.0 -0.0 1.0
outer loop
vertex -6.74397039413 -4.12704849243 396.217559814
vertex -6.74044942856 -4.0771727562 396.217559814
vertex -9.81765556335 -3.85710501671 396.217559814
endloop
endfacet
facet normal 0.0 -0.0 1.0
outer loop
vertex -3.66284608841 -4.29160642624 396.217559814
vertex -3.66103458405 -4.24163961411 396.217559814
vertex -6.74044942856 -4.0771727562 396.217559814
endloop
endfacet
facet normal 0.0 0.0 1.0
outer loop
vertex -3.66284608841 -4.29160642624 396.217559814
vertex -6.74044942856 -4.0771727562 396.217559814
vertex -6.74397039413 -4.12704849243 396.217559814
endloop
endfacet
facet normal 0.0 -0.0 1.0
outer loop
vertex -0.577893793583 -4.35058689117 396.217559814
vertex -0.577794015408 -4.30058717728 396.217559814
vertex -3.66103458405 -4.24163961411 396.217559814
endloop
endfacet
facet normal 0.0 0.0 1.0
outer loop
vertex -0.577893793583 -4.35058689117 396.217559814
vertex -3.66103458405 -4.24163961411 396.217559814
vertex -3.66284608841 -4.29160642624 396.217559814
endloop
endfacet
