solid 
facet normal 0.0191152691841 0.999817311764 0.0
outer loop
vertex 3.66285157204 4.29160642624 90.8963088989
vertex 0.577899456024 4.35058689117 90.8963088989
vertex 0.577899456024 4.35058689117 90.916305542
endloop
endfacet
facet normal 0.0191152691841 0.999817311764 -0.0
outer loop
vertex 3.66285157204 4.29160642624 90.8963088989
vertex 0.577899456024 4.35058689117 90.916305542
vertex 3.66285157204 4.29160642624 90.916305542
endloop
endfacet
facet normal 0.0533325411379 0.998576760292 -0.0
outer loop
vertex 6.74397611618 4.12704801559 90.8963088989
vertex 3.66285157204 4.29160642624 90.916305542
vertex 6.74397611618 4.12704801559 90.916305542
endloop
endfacet
facet normal 0.0874873027205 0.996165692806 -0.0
outer loop
vertex 6.74397611618 4.12704801559 90.8963088989
vertex 6.74397611618 4.12704801559 90.916305542
vertex 9.8176612854 3.85710453987 90.916305542
endloop
endfacet
facet normal 0.0533325411379 0.998576760292 0.0
outer loop
vertex 6.74397611618 4.12704801559 90.8963088989
vertex 3.66285157204 4.29160642624 90.8963088989
vertex 3.66285157204 4.29160642624 90.916305542
endloop
endfacet
facet normal 0.0874873027205 0.996165692806 -0.0
outer loop
vertex 9.8176612854 3.85710453987 90.8963088989
vertex 6.74397611618 4.12704801559 90.8963088989
vertex 9.8176612854 3.85710453987 90.916305542
endloop
endfacet
facet normal 0.994522452354 -0.104522943497 0.0
outer loop
vertex 9.81243515015 3.8073785305 90.916305542
vertex 9.8176612854 3.85710453987 90.8963088989
vertex 9.8176612854 3.85710453987 90.916305542
endloop
endfacet
facet normal 0.994522452354 -0.104522943497 0.0
outer loop
vertex 9.81243515015 3.8073785305 90.8963088989
vertex 9.8176612854 3.85710453987 90.8963088989
vertex 9.81243515015 3.8073785305 90.916305542
endloop
endfacet
facet normal -0.0191152095795 -0.999817252159 -0.0
outer loop
vertex 0.577799677849 4.30058717728 90.916305542
vertex 0.577799677849 4.30058717728 90.8963088989
vertex 3.66104006767 4.24163961411 90.916305542
endloop
endfacet
facet normal -0.0191152095795 -0.999817252159 0.0
outer loop
vertex 0.577799677849 4.30058717728 90.8963088989
vertex 3.66104006767 4.24163961411 90.8963088989
vertex 3.66104006767 4.24163961411 90.916305542
endloop
endfacet
facet normal -0.053332619369 -0.998576819897 0.0
outer loop
vertex 3.66104006767 4.24163961411 90.916305542
vertex 6.7404551506 4.07717227936 90.8963088989
vertex 6.7404551506 4.07717227936 90.916305542
endloop
endfacet
facet normal -0.053332619369 -0.998576819897 0.0
outer loop
vertex 3.66104006767 4.24163961411 90.8963088989
vertex 6.7404551506 4.07717227936 90.8963088989
vertex 3.66104006767 4.24163961411 90.916305542
endloop
endfacet
facet normal -0.0874873027205 -0.996165633202 0.0
outer loop
vertex 6.7404551506 4.07717227936 90.916305542
vertex 9.81243515015 3.8073785305 90.8963088989
vertex 9.81243515015 3.8073785305 90.916305542
endloop
endfacet
facet normal -0.0874873027205 -0.996165633202 0.0
outer loop
vertex 6.7404551506 4.07717227936 90.8963088989
vertex 9.81243515015 3.8073785305 90.8963088989
vertex 6.7404551506 4.07717227936 90.916305542
endloop
endfacet
facet normal -0.999998033047 0.00199557095766 0.0
outer loop
vertex 0.577899456024 4.35058689117 90.8963088989
vertex 0.577799677849 4.30058717728 90.8963088989
vertex 0.577799677849 4.30058717728 90.916305542
endloop
endfacet
facet normal -0.999998033047 0.00199557095766 0.0
outer loop
vertex 0.577899456024 4.35058689117 90.8963088989
vertex 0.577799677849 4.30058717728 90.916305542
vertex 0.577899456024 4.35058689117 90.916305542
endloop
endfacet
facet normal 0.0 0.0 -1.0
outer loop
vertex 9.81243515015 3.8073785305 90.8963088989
vertex 6.7404551506 4.07717227936 90.8963088989
vertex 9.8176612854 3.85710453987 90.8963088989
endloop
endfacet
facet normal 0.0 0.0 -1.0
outer loop
vertex 6.7404551506 4.07717227936 90.8963088989
vertex 6.74397611618 4.12704801559 90.8963088989
vertex 9.8176612854 3.85710453987 90.8963088989
endloop
endfacet
facet normal 0.0 0.0 -1.0
outer loop
vertex 6.7404551506 4.07717227936 90.8963088989
vertex 3.66104006767 4.24163961411 90.8963088989
vertex 6.74397611618 4.12704801559 90.8963088989
endloop
endfacet
facet normal 0.0 0.0 -1.0
outer loop
vertex 3.66104006767 4.24163961411 90.8963088989
vertex 3.66285157204 4.29160642624 90.8963088989
vertex 6.74397611618 4.12704801559 90.8963088989
endloop
endfacet
facet normal 0.0 0.0 -1.0
outer loop
vertex 3.66104006767 4.24163961411 90.8963088989
vertex 0.577799677849 4.30058717728 90.8963088989
vertex 3.66285157204 4.29160642624 90.8963088989
endloop
endfacet
facet normal 0.0 0.0 -1.0
outer loop
vertex 0.577799677849 4.30058717728 90.8963088989
vertex 0.577899456024 4.35058689117 90.8963088989
vertex 3.66285157204 4.29160642624 90.8963088989
endloop
endfacet
facet normal 0.0 0.0 1.0
outer loop
vertex 6.74397611618 4.12704801559 90.916305542
vertex 6.7404551506 4.07717227936 90.916305542
vertex 9.81243515015 3.8073785305 90.916305542
endloop
endfacet
facet normal 0.0 0.0 1.0
outer loop
vertex 6.74397611618 4.12704801559 90.916305542
vertex 9.81243515015 3.8073785305 90.916305542
vertex 9.8176612854 3.85710453987 90.916305542
endloop
endfacet
facet normal 0.0 0.0 1.0
outer loop
vertex 3.66285157204 4.29160642624 90.916305542
vertex 3.66104006767 4.24163961411 90.916305542
vertex 6.7404551506 4.07717227936 90.916305542
endloop
endfacet
facet normal 0.0 0.0 1.0
outer loop
vertex 3.66285157204 4.29160642624 90.916305542
vertex 6.7404551506 4.07717227936 90.916305542
vertex 6.74397611618 4.12704801559 90.916305542
endloop
endfacet
facet normal 0.0 0.0 1.0
outer loop
vertex 0.577899456024 4.35058689117 90.916305542
vertex 0.577799677849 4.30058717728 90.916305542
vertex 3.66104006767 4.24163961411 90.916305542
endloop
endfacet
facet normal 0.0 0.0 1.0
outer loop
vertex 0.577899456024 4.35058689117 90.916305542
vertex 3.66104006767 4.24163961411 90.916305542
vertex 3.66285157204 4.29160642624 90.916305542
endloop
endfacet
