solid 
facet normal 0.121539287269 -0.992586612701 0.0
outer loop
vertex 12.8802909851 -3.48209404945 -252.052902222
vertex 9.81764888763 -3.85710549355 -252.052902222
vertex 9.81764888763 -3.85710549355 -252.072906494
endloop
endfacet
facet normal 0.121539287269 -0.992586612701 0.0
outer loop
vertex 12.8802909851 -3.48209404945 -252.052902222
vertex 9.81764888763 -3.85710549355 -252.072906494
vertex 12.8802909851 -3.48209404945 -252.072906494
endloop
endfacet
facet normal 0.155449047685 -0.987843930721 0.0
outer loop
vertex 15.9282989502 -3.0024535656 -252.052902222
vertex 12.8802909851 -3.48209404945 -252.072906494
vertex 15.9282989502 -3.0024535656 -252.072906494
endloop
endfacet
facet normal 0.189176350832 -0.981943130493 0.0
outer loop
vertex 15.9282989502 -3.0024535656 -252.052902222
vertex 15.9282989502 -3.0024535656 -252.072906494
vertex 18.9581012726 -2.41874670982 -252.072906494
endloop
endfacet
facet normal 0.155449047685 -0.987843930721 0.0
outer loop
vertex 15.9282989502 -3.0024535656 -252.052902222
vertex 12.8802909851 -3.48209404945 -252.052902222
vertex 12.8802909851 -3.48209404945 -252.072906494
endloop
endfacet
facet normal 0.189176350832 -0.981943130493 0.0
outer loop
vertex 18.9581012726 -2.41874670982 -252.052902222
vertex 15.9282989502 -3.0024535656 -252.052902222
vertex 18.9581012726 -2.41874670982 -252.072906494
endloop
endfacet
facet normal 0.978553712368 0.205992221832 0.0
outer loop
vertex 18.94780159 -2.36981868744 -252.072906494
vertex 18.9581012726 -2.41874670982 -252.052902222
vertex 18.9581012726 -2.41874670982 -252.072906494
endloop
endfacet
facet normal 0.978553712368 0.205992221832 0.0
outer loop
vertex 18.94780159 -2.36981868744 -252.052902222
vertex 18.9581012726 -2.41874670982 -252.052902222
vertex 18.94780159 -2.36981868744 -252.072906494
endloop
endfacet
facet normal -0.121539354324 0.992586672306 0.0
outer loop
vertex 9.81242275238 -3.80737948418 -252.072906494
vertex 12.8733654022 -3.43257594109 -252.052902222
vertex 12.8733654022 -3.43257594109 -252.072906494
endloop
endfacet
facet normal -0.155448973179 0.987843930721 0.0
outer loop
vertex 12.8733654022 -3.43257594109 -252.072906494
vertex 12.8733654022 -3.43257594109 -252.052902222
vertex 15.9196825027 -2.95320177078 -252.072906494
endloop
endfacet
facet normal -0.121539354324 0.992586672306 0.0
outer loop
vertex 9.81242275238 -3.80737948418 -252.052902222
vertex 12.8733654022 -3.43257594109 -252.052902222
vertex 9.81242275238 -3.80737948418 -252.072906494
endloop
endfacet
facet normal -0.155448973179 0.987843930721 0.0
outer loop
vertex 12.8733654022 -3.43257594109 -252.052902222
vertex 15.9196825027 -2.95320177078 -252.052902222
vertex 15.9196825027 -2.95320177078 -252.072906494
endloop
endfacet
facet normal -0.189176529646 0.981943130493 0.0
outer loop
vertex 15.9196825027 -2.95320177078 -252.072906494
vertex 18.94780159 -2.36981868744 -252.052902222
vertex 18.94780159 -2.36981868744 -252.072906494
endloop
endfacet
facet normal -0.189176529646 0.981943130493 0.0
outer loop
vertex 15.9196825027 -2.95320177078 -252.052902222
vertex 18.94780159 -2.36981868744 -252.052902222
vertex 15.9196825027 -2.95320177078 -252.072906494
endloop
endfacet
facet normal -0.994522511959 -0.104522958398 0.0
outer loop
vertex 9.81764888763 -3.85710549355 -252.072906494
vertex 9.81242275238 -3.80737948418 -252.052902222
vertex 9.81242275238 -3.80737948418 -252.072906494
endloop
endfacet
facet normal -0.994522511959 -0.104522958398 -0.0
outer loop
vertex 9.81764888763 -3.85710549355 -252.052902222
vertex 9.81242275238 -3.80737948418 -252.052902222
vertex 9.81764888763 -3.85710549355 -252.072906494
endloop
endfacet
facet normal 0.0 0.0 1.0
outer loop
vertex 18.94780159 -2.36981868744 -252.052902222
vertex 15.9196825027 -2.95320177078 -252.052902222
vertex 18.9581012726 -2.41874670982 -252.052902222
endloop
endfacet
facet normal -0.0 0.0 1.0
outer loop
vertex 15.9196825027 -2.95320177078 -252.052902222
vertex 15.9282989502 -3.0024535656 -252.052902222
vertex 18.9581012726 -2.41874670982 -252.052902222
endloop
endfacet
facet normal 0.0 0.0 1.0
outer loop
vertex 15.9196825027 -2.95320177078 -252.052902222
vertex 12.8733654022 -3.43257594109 -252.052902222
vertex 15.9282989502 -3.0024535656 -252.052902222
endloop
endfacet
facet normal -0.0 0.0 1.0
outer loop
vertex 12.8733654022 -3.43257594109 -252.052902222
vertex 12.8802909851 -3.48209404945 -252.052902222
vertex 15.9282989502 -3.0024535656 -252.052902222
endloop
endfacet
facet normal 0.0 0.0 1.0
outer loop
vertex 12.8733654022 -3.43257594109 -252.052902222
vertex 9.81242275238 -3.80737948418 -252.052902222
vertex 12.8802909851 -3.48209404945 -252.052902222
endloop
endfacet
facet normal -0.0 0.0 1.0
outer loop
vertex 9.81242275238 -3.80737948418 -252.052902222
vertex 9.81764888763 -3.85710549355 -252.052902222
vertex 12.8802909851 -3.48209404945 -252.052902222
endloop
endfacet
facet normal 0.0 0.0 -1.0
outer loop
vertex 15.9282989502 -3.0024535656 -252.072906494
vertex 15.9196825027 -2.95320177078 -252.072906494
vertex 18.94780159 -2.36981868744 -252.072906494
endloop
endfacet
facet normal 0.0 0.0 -1.0
outer loop
vertex 15.9282989502 -3.0024535656 -252.072906494
vertex 18.94780159 -2.36981868744 -252.072906494
vertex 18.9581012726 -2.41874670982 -252.072906494
endloop
endfacet
facet normal 0.0 0.0 -1.0
outer loop
vertex 12.8802909851 -3.48209404945 -252.072906494
vertex 12.8733654022 -3.43257594109 -252.072906494
vertex 15.9196825027 -2.95320177078 -252.072906494
endloop
endfacet
facet normal 0.0 0.0 -1.0
outer loop
vertex 12.8802909851 -3.48209404945 -252.072906494
vertex 15.9196825027 -2.95320177078 -252.072906494
vertex 15.9282989502 -3.0024535656 -252.072906494
endloop
endfacet
facet normal 0.0 0.0 -1.0
outer loop
vertex 9.81764888763 -3.85710549355 -252.072906494
vertex 9.81242275238 -3.80737948418 -252.072906494
vertex 12.8733654022 -3.43257594109 -252.072906494
endloop
endfacet
facet normal 0.0 0.0 -1.0
outer loop
vertex 9.81764888763 -3.85710549355 -252.072906494
vertex 12.8733654022 -3.43257594109 -252.072906494
vertex 12.8802909851 -3.48209404945 -252.072906494
endloop
endfacet
