solid 
facet normal 0.121539399028 -0.992586612701 0.0
outer loop
vertex 12.8802976608 -3.48209357262 -66.5451202393
vertex 9.81765651703 -3.85710525513 -66.5451202393
vertex 9.81765651703 -3.85710525513 -66.5651245117
endloop
endfacet
facet normal 0.121539399028 -0.992586612701 0.0
outer loop
vertex 12.8802976608 -3.48209357262 -66.5451202393
vertex 9.81765651703 -3.85710525513 -66.5651245117
vertex 12.8802976608 -3.48209357262 -66.5651245117
endloop
endfacet
facet normal 0.155449107289 -0.987843871117 0.0
outer loop
vertex 12.8802976608 -3.48209357262 -66.5451202393
vertex 12.8802976608 -3.48209357262 -66.5651245117
vertex 15.9283056259 -3.00245285034 -66.5651245117
endloop
endfacet
facet normal 0.189176544547 -0.981943070889 0.0
outer loop
vertex 15.9283056259 -3.00245285034 -66.5451202393
vertex 15.9283056259 -3.00245285034 -66.5651245117
vertex 18.9581069946 -2.41874551773 -66.5651245117
endloop
endfacet
facet normal 0.155449107289 -0.987843871117 0.0
outer loop
vertex 15.9283056259 -3.00245285034 -66.5451202393
vertex 12.8802976608 -3.48209357262 -66.5451202393
vertex 15.9283056259 -3.00245285034 -66.5651245117
endloop
endfacet
facet normal 0.189176544547 -0.981943070889 0.0
outer loop
vertex 18.9581069946 -2.41874551773 -66.5451202393
vertex 15.9283056259 -3.00245285034 -66.5451202393
vertex 18.9581069946 -2.41874551773 -66.5651245117
endloop
endfacet
facet normal 0.978561341763 0.205955684185 0.0
outer loop
vertex 18.9478092194 -2.36981749535 -66.5451202393
vertex 18.9581069946 -2.41874551773 -66.5451202393
vertex 18.9581069946 -2.41874551773 -66.5651245117
endloop
endfacet
facet normal 0.978561341763 0.205955684185 0.0
outer loop
vertex 18.9478092194 -2.36981749535 -66.5451202393
vertex 18.9581069946 -2.41874551773 -66.5651245117
vertex 18.9478092194 -2.36981749535 -66.5651245117
endloop
endfacet
facet normal -0.121539436281 0.992586672306 0.0
outer loop
vertex 9.8124294281 -3.80737924576 -66.5651245117
vertex 12.8733720779 -3.43257546425 -66.5451202393
vertex 12.8733720779 -3.43257546425 -66.5651245117
endloop
endfacet
facet normal -0.155449047685 0.987843871117 0.0
outer loop
vertex 12.8733720779 -3.43257546425 -66.5651245117
vertex 12.8733720779 -3.43257546425 -66.5451202393
vertex 15.9196891785 -2.95320105553 -66.5651245117
endloop
endfacet
facet normal -0.121539436281 0.992586672306 0.0
outer loop
vertex 9.8124294281 -3.80737924576 -66.5451202393
vertex 12.8733720779 -3.43257546425 -66.5451202393
vertex 9.8124294281 -3.80737924576 -66.5651245117
endloop
endfacet
facet normal -0.189176604152 0.981943070889 0.0
outer loop
vertex 15.9196891785 -2.95320105553 -66.5651245117
vertex 15.9196891785 -2.95320105553 -66.5451202393
vertex 18.9478092194 -2.36981749535 -66.5651245117
endloop
endfacet
facet normal -0.155449047685 0.987843871117 0.0
outer loop
vertex 12.8733720779 -3.43257546425 -66.5451202393
vertex 15.9196891785 -2.95320105553 -66.5451202393
vertex 15.9196891785 -2.95320105553 -66.5651245117
endloop
endfacet
facet normal -0.189176604152 0.981943070889 0.0
outer loop
vertex 15.9196891785 -2.95320105553 -66.5451202393
vertex 18.9478092194 -2.36981749535 -66.5451202393
vertex 18.9478092194 -2.36981749535 -66.5651245117
endloop
endfacet
facet normal -0.994520545006 -0.104541823268 0.0
outer loop
vertex 9.81765651703 -3.85710525513 -66.5651245117
vertex 9.8124294281 -3.80737924576 -66.5451202393
vertex 9.8124294281 -3.80737924576 -66.5651245117
endloop
endfacet
facet normal -0.994520545006 -0.104541823268 -0.0
outer loop
vertex 9.81765651703 -3.85710525513 -66.5451202393
vertex 9.8124294281 -3.80737924576 -66.5451202393
vertex 9.81765651703 -3.85710525513 -66.5651245117
endloop
endfacet
facet normal -0.0 0.0 1.0
outer loop
vertex 15.9196891785 -2.95320105553 -66.5451202393
vertex 15.9283056259 -3.00245285034 -66.5451202393
vertex 18.9478092194 -2.36981749535 -66.5451202393
endloop
endfacet
facet normal 0.0 0.0 1.0
outer loop
vertex 18.9478092194 -2.36981749535 -66.5451202393
vertex 15.9283056259 -3.00245285034 -66.5451202393
vertex 18.9581069946 -2.41874551773 -66.5451202393
endloop
endfacet
facet normal -0.0 0.0 1.0
outer loop
vertex 12.8733720779 -3.43257546425 -66.5451202393
vertex 12.8802976608 -3.48209357262 -66.5451202393
vertex 15.9196891785 -2.95320105553 -66.5451202393
endloop
endfacet
facet normal 0.0 0.0 1.0
outer loop
vertex 15.9196891785 -2.95320105553 -66.5451202393
vertex 12.8802976608 -3.48209357262 -66.5451202393
vertex 15.9283056259 -3.00245285034 -66.5451202393
endloop
endfacet
facet normal -0.0 0.0 1.0
outer loop
vertex 9.8124294281 -3.80737924576 -66.5451202393
vertex 9.81765651703 -3.85710525513 -66.5451202393
vertex 12.8733720779 -3.43257546425 -66.5451202393
endloop
endfacet
facet normal 0.0 0.0 1.0
outer loop
vertex 12.8733720779 -3.43257546425 -66.5451202393
vertex 9.81765651703 -3.85710525513 -66.5451202393
vertex 12.8802976608 -3.48209357262 -66.5451202393
endloop
endfacet
facet normal 0.0 0.0 -1.0
outer loop
vertex 15.9283056259 -3.00245285034 -66.5651245117
vertex 15.9196891785 -2.95320105553 -66.5651245117
vertex 18.9478092194 -2.36981749535 -66.5651245117
endloop
endfacet
facet normal 0.0 0.0 -1.0
outer loop
vertex 15.9283056259 -3.00245285034 -66.5651245117
vertex 18.9478092194 -2.36981749535 -66.5651245117
vertex 18.9581069946 -2.41874551773 -66.5651245117
endloop
endfacet
facet normal 0.0 0.0 -1.0
outer loop
vertex 12.8802976608 -3.48209357262 -66.5651245117
vertex 12.8733720779 -3.43257546425 -66.5651245117
vertex 15.9196891785 -2.95320105553 -66.5651245117
endloop
endfacet
facet normal 0.0 0.0 -1.0
outer loop
vertex 12.8802976608 -3.48209357262 -66.5651245117
vertex 15.9196891785 -2.95320105553 -66.5651245117
vertex 15.9283056259 -3.00245285034 -66.5651245117
endloop
endfacet
facet normal 0.0 0.0 -1.0
outer loop
vertex 9.81765651703 -3.85710525513 -66.5651245117
vertex 9.8124294281 -3.80737924576 -66.5651245117
vertex 12.8733720779 -3.43257546425 -66.5651245117
endloop
endfacet
facet normal 0.0 0.0 -1.0
outer loop
vertex 9.81765651703 -3.85710525513 -66.5651245117
vertex 12.8733720779 -3.43257546425 -66.5651245117
vertex 12.8802976608 -3.48209357262 -66.5651245117
endloop
endfacet
