solid 
facet normal -0.121539473534 -0.992586612701 0.0
outer loop
vertex -12.8802976608 -3.4820933342 178.130783081
vertex -9.81765651703 -3.85710525513 178.130783081
vertex -9.81765651703 -3.85710525513 178.150787354
endloop
endfacet
facet normal -0.121539473534 -0.992586612701 0.0
outer loop
vertex -12.8802976608 -3.4820933342 178.130783081
vertex -9.81765651703 -3.85710525513 178.150787354
vertex -12.8802976608 -3.4820933342 178.150787354
endloop
endfacet
facet normal -0.155449062586 -0.987843871117 0.0
outer loop
vertex -15.9283065796 -3.00245261192 178.130783081
vertex -12.8802976608 -3.4820933342 178.150787354
vertex -15.9283065796 -3.00245261192 178.150787354
endloop
endfacet
facet normal -0.189176604152 -0.981943070889 0.0
outer loop
vertex -15.9283065796 -3.00245261192 178.130783081
vertex -15.9283065796 -3.00245261192 178.150787354
vertex -18.9581069946 -2.41874527931 178.150787354
endloop
endfacet
facet normal -0.155449062586 -0.987843871117 0.0
outer loop
vertex -15.9283065796 -3.00245261192 178.130783081
vertex -12.8802976608 -3.4820933342 178.130783081
vertex -12.8802976608 -3.4820933342 178.150787354
endloop
endfacet
facet normal -0.189176604152 -0.981943070889 0.0
outer loop
vertex -18.9581069946 -2.41874527931 178.130783081
vertex -15.9283065796 -3.00245261192 178.130783081
vertex -18.9581069946 -2.41874527931 178.150787354
endloop
endfacet
facet normal -0.978561341763 0.205955684185 0.0
outer loop
vertex -18.9478092194 -2.36981725693 178.150787354
vertex -18.9581069946 -2.41874527931 178.130783081
vertex -18.9581069946 -2.41874527931 178.150787354
endloop
endfacet
facet normal -0.978561341763 0.205955684185 0.0
outer loop
vertex -18.9478092194 -2.36981725693 178.130783081
vertex -18.9581069946 -2.41874527931 178.130783081
vertex -18.9478092194 -2.36981725693 178.150787354
endloop
endfacet
facet normal 0.121539436281 0.992586672306 0.0
outer loop
vertex -9.8124294281 -3.80737924576 178.150787354
vertex -12.8733720779 -3.43257546425 178.130783081
vertex -12.8733720779 -3.43257546425 178.150787354
endloop
endfacet
facet normal 0.121539436281 0.992586672306 -0.0
outer loop
vertex -9.8124294281 -3.80737924576 178.130783081
vertex -12.8733720779 -3.43257546425 178.130783081
vertex -9.8124294281 -3.80737924576 178.150787354
endloop
endfacet
facet normal 0.15544912219 0.987843871117 0.0
outer loop
vertex -12.8733720779 -3.43257546425 178.150787354
vertex -15.9196891785 -2.95320081711 178.130783081
vertex -15.9196891785 -2.95320081711 178.150787354
endloop
endfacet
facet normal 0.189176604152 0.981943070889 0.0
outer loop
vertex -15.9196891785 -2.95320081711 178.150787354
vertex -15.9196891785 -2.95320081711 178.130783081
vertex -18.9478092194 -2.36981725693 178.150787354
endloop
endfacet
facet normal 0.15544912219 0.987843871117 -0.0
outer loop
vertex -12.8733720779 -3.43257546425 178.130783081
vertex -15.9196891785 -2.95320081711 178.130783081
vertex -12.8733720779 -3.43257546425 178.150787354
endloop
endfacet
facet normal 0.189176604152 0.981943070889 0.0
outer loop
vertex -15.9196891785 -2.95320081711 178.130783081
vertex -18.9478092194 -2.36981725693 178.130783081
vertex -18.9478092194 -2.36981725693 178.150787354
endloop
endfacet
facet normal 0.994520545006 -0.104541823268 0.0
outer loop
vertex -9.81765651703 -3.85710525513 178.130783081
vertex -9.8124294281 -3.80737924576 178.130783081
vertex -9.8124294281 -3.80737924576 178.150787354
endloop
endfacet
facet normal 0.994520545006 -0.104541823268 0.0
outer loop
vertex -9.81765651703 -3.85710525513 178.130783081
vertex -9.8124294281 -3.80737924576 178.150787354
vertex -9.81765651703 -3.85710525513 178.150787354
endloop
endfacet
facet normal 0.0 -0.0 -1.0
outer loop
vertex -18.9478092194 -2.36981725693 178.130783081
vertex -15.9196891785 -2.95320081711 178.130783081
vertex -18.9581069946 -2.41874527931 178.130783081
endloop
endfacet
facet normal -0.0 0.0 -1.0
outer loop
vertex -15.9196891785 -2.95320081711 178.130783081
vertex -15.9283065796 -3.00245261192 178.130783081
vertex -18.9581069946 -2.41874527931 178.130783081
endloop
endfacet
facet normal 0.0 -0.0 -1.0
outer loop
vertex -15.9196891785 -2.95320081711 178.130783081
vertex -12.8733720779 -3.43257546425 178.130783081
vertex -15.9283065796 -3.00245261192 178.130783081
endloop
endfacet
facet normal -0.0 0.0 -1.0
outer loop
vertex -12.8733720779 -3.43257546425 178.130783081
vertex -12.8802976608 -3.4820933342 178.130783081
vertex -15.9283065796 -3.00245261192 178.130783081
endloop
endfacet
facet normal 0.0 -0.0 -1.0
outer loop
vertex -12.8733720779 -3.43257546425 178.130783081
vertex -9.8124294281 -3.80737924576 178.130783081
vertex -12.8802976608 -3.4820933342 178.130783081
endloop
endfacet
facet normal -0.0 0.0 -1.0
outer loop
vertex -9.8124294281 -3.80737924576 178.130783081
vertex -9.81765651703 -3.85710525513 178.130783081
vertex -12.8802976608 -3.4820933342 178.130783081
endloop
endfacet
facet normal 0.0 0.0 1.0
outer loop
vertex -15.9196891785 -2.95320081711 178.150787354
vertex -18.9478092194 -2.36981725693 178.150787354
vertex -18.9581069946 -2.41874527931 178.150787354
endloop
endfacet
facet normal 0.0 -0.0 1.0
outer loop
vertex -15.9283065796 -3.00245261192 178.150787354
vertex -15.9196891785 -2.95320081711 178.150787354
vertex -18.9581069946 -2.41874527931 178.150787354
endloop
endfacet
facet normal 0.0 0.0 1.0
outer loop
vertex -12.8733720779 -3.43257546425 178.150787354
vertex -15.9196891785 -2.95320081711 178.150787354
vertex -15.9283065796 -3.00245261192 178.150787354
endloop
endfacet
facet normal 0.0 -0.0 1.0
outer loop
vertex -12.8802976608 -3.4820933342 178.150787354
vertex -12.8733720779 -3.43257546425 178.150787354
vertex -15.9283065796 -3.00245261192 178.150787354
endloop
endfacet
facet normal 0.0 -0.0 1.0
outer loop
vertex -9.81765651703 -3.85710525513 178.150787354
vertex -9.8124294281 -3.80737924576 178.150787354
vertex -12.8733720779 -3.43257546425 178.150787354
endloop
endfacet
facet normal 0.0 0.0 1.0
outer loop
vertex -9.81765651703 -3.85710525513 178.150787354
vertex -12.8733720779 -3.43257546425 178.150787354
vertex -12.8802976608 -3.4820933342 178.150787354
endloop
endfacet
