solid 
facet normal 0.121539473534 -0.992586612701 0.0
outer loop
vertex 12.8802976608 -3.4820933342 -73.7271270752
vertex 9.81765651703 -3.85710525513 -73.7271270752
vertex 9.81765651703 -3.85710525513 -73.7471237183
endloop
endfacet
facet normal 0.121539473534 -0.992586612701 0.0
outer loop
vertex 12.8802976608 -3.4820933342 -73.7271270752
vertex 9.81765651703 -3.85710525513 -73.7471237183
vertex 12.8802976608 -3.4820933342 -73.7471237183
endloop
endfacet
facet normal 0.155449062586 -0.987843871117 0.0
outer loop
vertex 15.9283065796 -3.00245261192 -73.7271270752
vertex 12.8802976608 -3.4820933342 -73.7471237183
vertex 15.9283065796 -3.00245261192 -73.7471237183
endloop
endfacet
facet normal 0.189176619053 -0.981943070889 0.0
outer loop
vertex 15.9283065796 -3.00245261192 -73.7271270752
vertex 15.9283065796 -3.00245261192 -73.7471237183
vertex 18.9581069946 -2.41874527931 -73.7471237183
endloop
endfacet
facet normal 0.155449062586 -0.987843871117 0.0
outer loop
vertex 15.9283065796 -3.00245261192 -73.7271270752
vertex 12.8802976608 -3.4820933342 -73.7271270752
vertex 12.8802976608 -3.4820933342 -73.7471237183
endloop
endfacet
facet normal 0.189176619053 -0.981943070889 0.0
outer loop
vertex 18.9581069946 -2.41874527931 -73.7271270752
vertex 15.9283065796 -3.00245261192 -73.7271270752
vertex 18.9581069946 -2.41874527931 -73.7471237183
endloop
endfacet
facet normal 0.978561282158 0.205955699086 0.0
outer loop
vertex 18.9478092194 -2.36981725693 -73.7471237183
vertex 18.9581069946 -2.41874527931 -73.7271270752
vertex 18.9581069946 -2.41874527931 -73.7471237183
endloop
endfacet
facet normal 0.978561282158 0.205955699086 0.0
outer loop
vertex 18.9478092194 -2.36981725693 -73.7271270752
vertex 18.9581069946 -2.41874527931 -73.7271270752
vertex 18.9478092194 -2.36981725693 -73.7471237183
endloop
endfacet
facet normal -0.12153942883 0.992586612701 0.0
outer loop
vertex 9.8124294281 -3.80737924576 -73.7471237183
vertex 12.8733720779 -3.43257546425 -73.7271270752
vertex 12.8733720779 -3.43257546425 -73.7471237183
endloop
endfacet
facet normal -0.12153942883 0.992586612701 0.0
outer loop
vertex 9.8124294281 -3.80737924576 -73.7271270752
vertex 12.8733720779 -3.43257546425 -73.7271270752
vertex 9.8124294281 -3.80737924576 -73.7471237183
endloop
endfacet
facet normal -0.15544912219 0.987843930721 0.0
outer loop
vertex 12.8733720779 -3.43257546425 -73.7471237183
vertex 15.9196891785 -2.95320081711 -73.7271270752
vertex 15.9196891785 -2.95320081711 -73.7471237183
endloop
endfacet
facet normal -0.189176604152 0.981943070889 0.0
outer loop
vertex 15.9196891785 -2.95320081711 -73.7471237183
vertex 15.9196891785 -2.95320081711 -73.7271270752
vertex 18.9478092194 -2.36981725693 -73.7471237183
endloop
endfacet
facet normal -0.15544912219 0.987843930721 0.0
outer loop
vertex 12.8733720779 -3.43257546425 -73.7271270752
vertex 15.9196891785 -2.95320081711 -73.7271270752
vertex 12.8733720779 -3.43257546425 -73.7471237183
endloop
endfacet
facet normal -0.189176604152 0.981943070889 0.0
outer loop
vertex 15.9196891785 -2.95320081711 -73.7271270752
vertex 18.9478092194 -2.36981725693 -73.7271270752
vertex 18.9478092194 -2.36981725693 -73.7471237183
endloop
endfacet
facet normal -0.994520485401 -0.104541815817 0.0
outer loop
vertex 9.81765651703 -3.85710525513 -73.7271270752
vertex 9.8124294281 -3.80737924576 -73.7271270752
vertex 9.8124294281 -3.80737924576 -73.7471237183
endloop
endfacet
facet normal -0.994520485401 -0.104541815817 -0.0
outer loop
vertex 9.81765651703 -3.85710525513 -73.7271270752
vertex 9.8124294281 -3.80737924576 -73.7471237183
vertex 9.81765651703 -3.85710525513 -73.7471237183
endloop
endfacet
facet normal 0.0 0.0 1.0
outer loop
vertex 18.9478092194 -2.36981725693 -73.7271270752
vertex 15.9196891785 -2.95320081711 -73.7271270752
vertex 18.9581069946 -2.41874527931 -73.7271270752
endloop
endfacet
facet normal -0.0 0.0 1.0
outer loop
vertex 15.9196891785 -2.95320081711 -73.7271270752
vertex 15.9283065796 -3.00245261192 -73.7271270752
vertex 18.9581069946 -2.41874527931 -73.7271270752
endloop
endfacet
facet normal 0.0 0.0 1.0
outer loop
vertex 15.9196891785 -2.95320081711 -73.7271270752
vertex 12.8733720779 -3.43257546425 -73.7271270752
vertex 15.9283065796 -3.00245261192 -73.7271270752
endloop
endfacet
facet normal -0.0 0.0 1.0
outer loop
vertex 12.8733720779 -3.43257546425 -73.7271270752
vertex 12.8802976608 -3.4820933342 -73.7271270752
vertex 15.9283065796 -3.00245261192 -73.7271270752
endloop
endfacet
facet normal 0.0 0.0 1.0
outer loop
vertex 12.8733720779 -3.43257546425 -73.7271270752
vertex 9.8124294281 -3.80737924576 -73.7271270752
vertex 12.8802976608 -3.4820933342 -73.7271270752
endloop
endfacet
facet normal -0.0 0.0 1.0
outer loop
vertex 9.8124294281 -3.80737924576 -73.7271270752
vertex 9.81765651703 -3.85710525513 -73.7271270752
vertex 12.8802976608 -3.4820933342 -73.7271270752
endloop
endfacet
facet normal 0.0 0.0 -1.0
outer loop
vertex 15.9196891785 -2.95320081711 -73.7471237183
vertex 18.9478092194 -2.36981725693 -73.7471237183
vertex 18.9581069946 -2.41874527931 -73.7471237183
endloop
endfacet
facet normal 0.0 0.0 -1.0
outer loop
vertex 15.9283065796 -3.00245261192 -73.7471237183
vertex 15.9196891785 -2.95320081711 -73.7471237183
vertex 18.9581069946 -2.41874527931 -73.7471237183
endloop
endfacet
facet normal 0.0 0.0 -1.0
outer loop
vertex 12.8733720779 -3.43257546425 -73.7471237183
vertex 15.9196891785 -2.95320081711 -73.7471237183
vertex 15.9283065796 -3.00245261192 -73.7471237183
endloop
endfacet
facet normal 0.0 0.0 -1.0
outer loop
vertex 12.8802976608 -3.4820933342 -73.7471237183
vertex 12.8733720779 -3.43257546425 -73.7471237183
vertex 15.9283065796 -3.00245261192 -73.7471237183
endloop
endfacet
facet normal 0.0 0.0 -1.0
outer loop
vertex 9.81765651703 -3.85710525513 -73.7471237183
vertex 9.8124294281 -3.80737924576 -73.7471237183
vertex 12.8733720779 -3.43257546425 -73.7471237183
endloop
endfacet
facet normal 0.0 0.0 -1.0
outer loop
vertex 9.81765651703 -3.85710525513 -73.7471237183
vertex 12.8733720779 -3.43257546425 -73.7471237183
vertex 12.8802976608 -3.4820933342 -73.7471237183
endloop
endfacet
