solid 
facet normal 0.019114959985 -0.999817311764 0.0
outer loop
vertex 3.66283535957 -4.29160690308 149.302780151
vertex 0.577883243561 -4.35058641434 149.302780151
vertex 0.577883243561 -4.35058641434 149.282791138
endloop
endfacet
facet normal 0.019114959985 -0.999817311764 0.0
outer loop
vertex 3.66283535957 -4.29160690308 149.302780151
vertex 0.577883243561 -4.35058641434 149.282791138
vertex 3.66283535957 -4.29160690308 149.282791138
endloop
endfacet
facet normal 0.0533323921263 -0.998576819897 0.0
outer loop
vertex 6.74395990372 -4.12704896927 149.302780151
vertex 3.66283535957 -4.29160690308 149.282791138
vertex 6.74395990372 -4.12704896927 149.282791138
endloop
endfacet
facet normal 0.0874871462584 -0.996165633202 0.0
outer loop
vertex 6.74395990372 -4.12704896927 149.302780151
vertex 6.74395990372 -4.12704896927 149.282791138
vertex 9.81764507294 -3.85710597038 149.282791138
endloop
endfacet
facet normal 0.0533323921263 -0.998576819897 0.0
outer loop
vertex 6.74395990372 -4.12704896927 149.302780151
vertex 3.66283535957 -4.29160690308 149.302780151
vertex 3.66283535957 -4.29160690308 149.282791138
endloop
endfacet
facet normal 0.0874871462584 -0.996165633202 0.0
outer loop
vertex 9.81764507294 -3.85710597038 149.302780151
vertex 6.74395990372 -4.12704896927 149.302780151
vertex 9.81764507294 -3.85710597038 149.282791138
endloop
endfacet
facet normal 0.994522452354 0.104522936046 0.0
outer loop
vertex 9.81764507294 -3.85710597038 149.302780151
vertex 9.81241893768 -3.80737996101 149.282791138
vertex 9.81241893768 -3.80737996101 149.302780151
endloop
endfacet
facet normal 0.994522452354 0.104522936046 -0.0
outer loop
vertex 9.81764507294 -3.85710597038 149.282791138
vertex 9.81241893768 -3.80737996101 149.282791138
vertex 9.81764507294 -3.85710597038 149.302780151
endloop
endfacet
facet normal -0.0191150549799 0.999817311764 0.0
outer loop
vertex 0.577783465385 -4.30058670044 149.282791138
vertex 3.66102409363 -4.24163961411 149.302780151
vertex 3.66102409363 -4.24163961411 149.282791138
endloop
endfacet
facet normal -0.0191150549799 0.999817311764 0.0
outer loop
vertex 0.577783465385 -4.30058670044 149.302780151
vertex 3.66102409363 -4.24163961411 149.302780151
vertex 0.577783465385 -4.30058670044 149.282791138
endloop
endfacet
facet normal -0.0533323138952 0.998576819897 0.0
outer loop
vertex 3.66102409363 -4.24163961411 149.282791138
vertex 6.74043893814 -4.07717323303 149.302780151
vertex 6.74043893814 -4.07717323303 149.282791138
endloop
endfacet
facet normal -0.0874871611595 0.996165633202 0.0
outer loop
vertex 6.74043893814 -4.07717323303 149.282791138
vertex 6.74043893814 -4.07717323303 149.302780151
vertex 9.81241893768 -3.80737996101 149.282791138
endloop
endfacet
facet normal -0.0533323138952 0.998576819897 0.0
outer loop
vertex 3.66102409363 -4.24163961411 149.302780151
vertex 6.74043893814 -4.07717323303 149.302780151
vertex 3.66102409363 -4.24163961411 149.282791138
endloop
endfacet
facet normal -0.0874871611595 0.996165633202 0.0
outer loop
vertex 6.74043893814 -4.07717323303 149.302780151
vertex 9.81241893768 -3.80737996101 149.302780151
vertex 9.81241893768 -3.80737996101 149.282791138
endloop
endfacet
facet normal -0.999998033047 -0.00199557095766 0.0
outer loop
vertex 0.577783465385 -4.30058670044 149.302780151
vertex 0.577883243561 -4.35058641434 149.282791138
vertex 0.577883243561 -4.35058641434 149.302780151
endloop
endfacet
facet normal -0.999998033047 -0.00199557095766 0.0
outer loop
vertex 0.577783465385 -4.30058670044 149.282791138
vertex 0.577883243561 -4.35058641434 149.282791138
vertex 0.577783465385 -4.30058670044 149.302780151
endloop
endfacet
facet normal 0.0 0.0 -1.0
outer loop
vertex 6.74043893814 -4.07717323303 149.282791138
vertex 9.81241893768 -3.80737996101 149.282791138
vertex 9.81764507294 -3.85710597038 149.282791138
endloop
endfacet
facet normal 0.0 0.0 -1.0
outer loop
vertex 6.74395990372 -4.12704896927 149.282791138
vertex 6.74043893814 -4.07717323303 149.282791138
vertex 9.81764507294 -3.85710597038 149.282791138
endloop
endfacet
facet normal 0.0 0.0 -1.0
outer loop
vertex 3.66102409363 -4.24163961411 149.282791138
vertex 6.74043893814 -4.07717323303 149.282791138
vertex 6.74395990372 -4.12704896927 149.282791138
endloop
endfacet
facet normal 0.0 0.0 -1.0
outer loop
vertex 3.66283535957 -4.29160690308 149.282791138
vertex 3.66102409363 -4.24163961411 149.282791138
vertex 6.74395990372 -4.12704896927 149.282791138
endloop
endfacet
facet normal 0.0 0.0 -1.0
outer loop
vertex 0.577883243561 -4.35058641434 149.282791138
vertex 0.577783465385 -4.30058670044 149.282791138
vertex 3.66102409363 -4.24163961411 149.282791138
endloop
endfacet
facet normal 0.0 0.0 -1.0
outer loop
vertex 0.577883243561 -4.35058641434 149.282791138
vertex 3.66102409363 -4.24163961411 149.282791138
vertex 3.66283535957 -4.29160690308 149.282791138
endloop
endfacet
facet normal 0.0 0.0 1.0
outer loop
vertex 9.81241893768 -3.80737996101 149.302780151
vertex 6.74043893814 -4.07717323303 149.302780151
vertex 9.81764507294 -3.85710597038 149.302780151
endloop
endfacet
facet normal -0.0 0.0 1.0
outer loop
vertex 6.74043893814 -4.07717323303 149.302780151
vertex 6.74395990372 -4.12704896927 149.302780151
vertex 9.81764507294 -3.85710597038 149.302780151
endloop
endfacet
facet normal 0.0 0.0 1.0
outer loop
vertex 6.74043893814 -4.07717323303 149.302780151
vertex 3.66102409363 -4.24163961411 149.302780151
vertex 6.74395990372 -4.12704896927 149.302780151
endloop
endfacet
facet normal -0.0 0.0 1.0
outer loop
vertex 3.66102409363 -4.24163961411 149.302780151
vertex 3.66283535957 -4.29160690308 149.302780151
vertex 6.74395990372 -4.12704896927 149.302780151
endloop
endfacet
facet normal 0.0 0.0 1.0
outer loop
vertex 3.66102409363 -4.24163961411 149.302780151
vertex 0.577783465385 -4.30058670044 149.302780151
vertex 3.66283535957 -4.29160690308 149.302780151
endloop
endfacet
facet normal -0.0 0.0 1.0
outer loop
vertex 0.577783465385 -4.30058670044 149.302780151
vertex 0.577883243561 -4.35058641434 149.302780151
vertex 3.66283535957 -4.29160690308 149.302780151
endloop
endfacet
