solid 
facet normal -0.019114959985 0.999817311764 0.0
outer loop
vertex -3.66283535957 4.29160690308 258.832000732
vertex -0.577883243561 4.35058641434 258.832000732
vertex -0.577883243561 4.35058641434 258.812011719
endloop
endfacet
facet normal -0.019114959985 0.999817311764 0.0
outer loop
vertex -3.66283535957 4.29160690308 258.832000732
vertex -0.577883243561 4.35058641434 258.812011719
vertex -3.66283535957 4.29160690308 258.812011719
endloop
endfacet
facet normal -0.0533323921263 0.998576819897 0.0
outer loop
vertex -6.74395990372 4.12704896927 258.832000732
vertex -3.66283535957 4.29160690308 258.812011719
vertex -6.74395990372 4.12704896927 258.812011719
endloop
endfacet
facet normal -0.0874871462584 0.996165633202 0.0
outer loop
vertex -6.74395990372 4.12704896927 258.832000732
vertex -6.74395990372 4.12704896927 258.812011719
vertex -9.81764507294 3.85710597038 258.812011719
endloop
endfacet
facet normal -0.0533323921263 0.998576819897 0.0
outer loop
vertex -6.74395990372 4.12704896927 258.832000732
vertex -3.66283535957 4.29160690308 258.832000732
vertex -3.66283535957 4.29160690308 258.812011719
endloop
endfacet
facet normal -0.0874871462584 0.996165633202 0.0
outer loop
vertex -9.81764507294 3.85710597038 258.832000732
vertex -6.74395990372 4.12704896927 258.832000732
vertex -9.81764507294 3.85710597038 258.812011719
endloop
endfacet
facet normal -0.994522452354 -0.104522936046 0.0
outer loop
vertex -9.81764507294 3.85710597038 258.812011719
vertex -9.81241893768 3.80737996101 258.832000732
vertex -9.81764507294 3.85710597038 258.832000732
endloop
endfacet
facet normal -0.994522452354 -0.104522936046 0.0
outer loop
vertex -9.81764507294 3.85710597038 258.812011719
vertex -9.81241893768 3.80737996101 258.812011719
vertex -9.81241893768 3.80737996101 258.832000732
endloop
endfacet
facet normal 0.0191150549799 -0.999817311764 0.0
outer loop
vertex -0.577783465385 4.30058670044 258.812011719
vertex -3.66102385521 4.24163961411 258.832000732
vertex -3.66102385521 4.24163961411 258.812011719
endloop
endfacet
facet normal 0.0533324666321 -0.998576819897 0.0
outer loop
vertex -3.66102385521 4.24163961411 258.812011719
vertex -3.66102385521 4.24163961411 258.832000732
vertex -6.74043893814 4.0771727562 258.812011719
endloop
endfacet
facet normal 0.0191150549799 -0.999817311764 0.0
outer loop
vertex -0.577783465385 4.30058670044 258.832000732
vertex -3.66102385521 4.24163961411 258.832000732
vertex -0.577783465385 4.30058670044 258.812011719
endloop
endfacet
facet normal 0.0874869972467 -0.996165633202 0.0
outer loop
vertex -6.74043893814 4.0771727562 258.812011719
vertex -6.74043893814 4.0771727562 258.832000732
vertex -9.81241893768 3.80737996101 258.812011719
endloop
endfacet
facet normal 0.0533324666321 -0.998576819897 0.0
outer loop
vertex -3.66102385521 4.24163961411 258.832000732
vertex -6.74043893814 4.0771727562 258.832000732
vertex -6.74043893814 4.0771727562 258.812011719
endloop
endfacet
facet normal 0.0874869972467 -0.996165633202 0.0
outer loop
vertex -6.74043893814 4.0771727562 258.832000732
vertex -9.81241893768 3.80737996101 258.832000732
vertex -9.81241893768 3.80737996101 258.812011719
endloop
endfacet
facet normal 0.999998033047 0.00199557095766 -0.0
outer loop
vertex -0.577783465385 4.30058670044 258.812011719
vertex -0.577883243561 4.35058641434 258.832000732
vertex -0.577783465385 4.30058670044 258.832000732
endloop
endfacet
facet normal 0.999998033047 0.00199557095766 0.0
outer loop
vertex -0.577783465385 4.30058670044 258.812011719
vertex -0.577883243561 4.35058641434 258.812011719
vertex -0.577883243561 4.35058641434 258.832000732
endloop
endfacet
facet normal 0.0 -0.0 -1.0
outer loop
vertex -6.74395990372 4.12704896927 258.812011719
vertex -6.74043893814 4.0771727562 258.812011719
vertex -9.81241893768 3.80737996101 258.812011719
endloop
endfacet
facet normal 0.0 0.0 -1.0
outer loop
vertex -6.74395990372 4.12704896927 258.812011719
vertex -9.81241893768 3.80737996101 258.812011719
vertex -9.81764507294 3.85710597038 258.812011719
endloop
endfacet
facet normal 0.0 -0.0 -1.0
outer loop
vertex -3.66283535957 4.29160690308 258.812011719
vertex -3.66102385521 4.24163961411 258.812011719
vertex -6.74043893814 4.0771727562 258.812011719
endloop
endfacet
facet normal 0.0 0.0 -1.0
outer loop
vertex -3.66283535957 4.29160690308 258.812011719
vertex -6.74043893814 4.0771727562 258.812011719
vertex -6.74395990372 4.12704896927 258.812011719
endloop
endfacet
facet normal 0.0 -0.0 -1.0
outer loop
vertex -0.577883243561 4.35058641434 258.812011719
vertex -0.577783465385 4.30058670044 258.812011719
vertex -3.66102385521 4.24163961411 258.812011719
endloop
endfacet
facet normal 0.0 0.0 -1.0
outer loop
vertex -0.577883243561 4.35058641434 258.812011719
vertex -3.66102385521 4.24163961411 258.812011719
vertex -3.66283535957 4.29160690308 258.812011719
endloop
endfacet
facet normal 0.0 -0.0 1.0
outer loop
vertex -9.81241893768 3.80737996101 258.832000732
vertex -6.74043893814 4.0771727562 258.832000732
vertex -9.81764507294 3.85710597038 258.832000732
endloop
endfacet
facet normal 0.0 0.0 1.0
outer loop
vertex -6.74043893814 4.0771727562 258.832000732
vertex -6.74395990372 4.12704896927 258.832000732
vertex -9.81764507294 3.85710597038 258.832000732
endloop
endfacet
facet normal 0.0 -0.0 1.0
outer loop
vertex -6.74043893814 4.0771727562 258.832000732
vertex -3.66102385521 4.24163961411 258.832000732
vertex -6.74395990372 4.12704896927 258.832000732
endloop
endfacet
facet normal 0.0 0.0 1.0
outer loop
vertex -3.66102385521 4.24163961411 258.832000732
vertex -3.66283535957 4.29160690308 258.832000732
vertex -6.74395990372 4.12704896927 258.832000732
endloop
endfacet
facet normal 0.0 -0.0 1.0
outer loop
vertex -3.66102385521 4.24163961411 258.832000732
vertex -0.577783465385 4.30058670044 258.832000732
vertex -3.66283535957 4.29160690308 258.832000732
endloop
endfacet
facet normal 0.0 0.0 1.0
outer loop
vertex -0.577783465385 4.30058670044 258.832000732
vertex -0.577883243561 4.35058641434 258.832000732
vertex -3.66283535957 4.29160690308 258.832000732
endloop
endfacet
