solid 
facet normal 0.121539406478 0.992586612701 -0.0
outer loop
vertex 9.81765651703 3.85710525513 276.886993408
vertex 9.81765651703 3.85710525513 276.907012939
vertex 12.8802976608 3.48209357262 276.907012939
endloop
endfacet
facet normal 0.155449137092 0.987843930721 -0.0
outer loop
vertex 12.8802976608 3.48209357262 276.886993408
vertex 12.8802976608 3.48209357262 276.907012939
vertex 15.9283056259 3.00245285034 276.907012939
endloop
endfacet
facet normal 0.121539406478 0.992586612701 -0.0
outer loop
vertex 12.8802976608 3.48209357262 276.886993408
vertex 9.81765651703 3.85710525513 276.886993408
vertex 12.8802976608 3.48209357262 276.907012939
endloop
endfacet
facet normal 0.155449137092 0.987843930721 -0.0
outer loop
vertex 15.9283056259 3.00245285034 276.886993408
vertex 12.8802976608 3.48209357262 276.886993408
vertex 15.9283056259 3.00245285034 276.907012939
endloop
endfacet
facet normal 0.189176559448 0.981943070889 -0.0
outer loop
vertex 18.9581069946 2.41874551773 276.886993408
vertex 15.9283056259 3.00245285034 276.907012939
vertex 18.9581069946 2.41874551773 276.907012939
endloop
endfacet
facet normal 0.189176559448 0.981943070889 0.0
outer loop
vertex 18.9581069946 2.41874551773 276.886993408
vertex 15.9283056259 3.00245285034 276.886993408
vertex 15.9283056259 3.00245285034 276.907012939
endloop
endfacet
facet normal 0.978561282158 -0.205955684185 0.0
outer loop
vertex 18.9478092194 2.36981749535 276.886993408
vertex 18.9581069946 2.41874551773 276.886993408
vertex 18.9581069946 2.41874551773 276.907012939
endloop
endfacet
facet normal 0.978561282158 -0.205955684185 0.0
outer loop
vertex 18.9478092194 2.36981749535 276.886993408
vertex 18.9581069946 2.41874551773 276.907012939
vertex 18.9478092194 2.36981749535 276.907012939
endloop
endfacet
facet normal -0.12153942138 -0.992586553097 -0.0
outer loop
vertex 9.8124294281 3.80737924576 276.907012939
vertex 9.8124294281 3.80737924576 276.886993408
vertex 12.8733720779 3.43257546425 276.907012939
endloop
endfacet
facet normal -0.12153942138 -0.992586553097 0.0
outer loop
vertex 9.8124294281 3.80737924576 276.886993408
vertex 12.8733720779 3.43257546425 276.886993408
vertex 12.8733720779 3.43257546425 276.907012939
endloop
endfacet
facet normal -0.155449107289 -0.987843871117 0.0
outer loop
vertex 12.8733720779 3.43257546425 276.907012939
vertex 15.9196891785 2.95320081711 276.886993408
vertex 15.9196891785 2.95320081711 276.907012939
endloop
endfacet
facet normal -0.155449107289 -0.987843871117 0.0
outer loop
vertex 12.8733720779 3.43257546425 276.886993408
vertex 15.9196891785 2.95320081711 276.886993408
vertex 12.8733720779 3.43257546425 276.907012939
endloop
endfacet
facet normal -0.189176529646 -0.981943070889 0.0
outer loop
vertex 15.9196891785 2.95320081711 276.907012939
vertex 18.9478092194 2.36981749535 276.886993408
vertex 18.9478092194 2.36981749535 276.907012939
endloop
endfacet
facet normal -0.189176529646 -0.981943070889 0.0
outer loop
vertex 15.9196891785 2.95320081711 276.886993408
vertex 18.9478092194 2.36981749535 276.886993408
vertex 15.9196891785 2.95320081711 276.907012939
endloop
endfacet
facet normal -0.994520425797 0.104541808367 0.0
outer loop
vertex 9.81765651703 3.85710525513 276.907012939
vertex 9.8124294281 3.80737924576 276.886993408
vertex 9.8124294281 3.80737924576 276.907012939
endloop
endfacet
facet normal -0.994520425797 0.104541808367 0.0
outer loop
vertex 9.81765651703 3.85710525513 276.886993408
vertex 9.8124294281 3.80737924576 276.886993408
vertex 9.81765651703 3.85710525513 276.907012939
endloop
endfacet
facet normal 0.0 0.0 -1.0
outer loop
vertex 15.9196891785 2.95320081711 276.886993408
vertex 15.9283056259 3.00245285034 276.886993408
vertex 18.9478092194 2.36981749535 276.886993408
endloop
endfacet
facet normal 0.0 0.0 -1.0
outer loop
vertex 18.9478092194 2.36981749535 276.886993408
vertex 15.9283056259 3.00245285034 276.886993408
vertex 18.9581069946 2.41874551773 276.886993408
endloop
endfacet
facet normal 0.0 0.0 -1.0
outer loop
vertex 12.8733720779 3.43257546425 276.886993408
vertex 12.8802976608 3.48209357262 276.886993408
vertex 15.9196891785 2.95320081711 276.886993408
endloop
endfacet
facet normal 0.0 0.0 -1.0
outer loop
vertex 15.9196891785 2.95320081711 276.886993408
vertex 12.8802976608 3.48209357262 276.886993408
vertex 15.9283056259 3.00245285034 276.886993408
endloop
endfacet
facet normal 0.0 0.0 -1.0
outer loop
vertex 12.8733720779 3.43257546425 276.886993408
vertex 9.8124294281 3.80737924576 276.886993408
vertex 12.8802976608 3.48209357262 276.886993408
endloop
endfacet
facet normal 0.0 0.0 -1.0
outer loop
vertex 9.8124294281 3.80737924576 276.886993408
vertex 9.81765651703 3.85710525513 276.886993408
vertex 12.8802976608 3.48209357262 276.886993408
endloop
endfacet
facet normal 0.0 0.0 1.0
outer loop
vertex 15.9283056259 3.00245285034 276.907012939
vertex 15.9196891785 2.95320081711 276.907012939
vertex 18.9478092194 2.36981749535 276.907012939
endloop
endfacet
facet normal 0.0 0.0 1.0
outer loop
vertex 15.9283056259 3.00245285034 276.907012939
vertex 18.9478092194 2.36981749535 276.907012939
vertex 18.9581069946 2.41874551773 276.907012939
endloop
endfacet
facet normal 0.0 0.0 1.0
outer loop
vertex 12.8802976608 3.48209357262 276.907012939
vertex 12.8733720779 3.43257546425 276.907012939
vertex 15.9196891785 2.95320081711 276.907012939
endloop
endfacet
facet normal 0.0 0.0 1.0
outer loop
vertex 12.8802976608 3.48209357262 276.907012939
vertex 15.9196891785 2.95320081711 276.907012939
vertex 15.9283056259 3.00245285034 276.907012939
endloop
endfacet
facet normal 0.0 0.0 1.0
outer loop
vertex 9.81765651703 3.85710525513 276.907012939
vertex 9.8124294281 3.80737924576 276.907012939
vertex 12.8733720779 3.43257546425 276.907012939
endloop
endfacet
facet normal 0.0 0.0 1.0
outer loop
vertex 9.81765651703 3.85710525513 276.907012939
vertex 12.8733720779 3.43257546425 276.907012939
vertex 12.8802976608 3.48209357262 276.907012939
endloop
endfacet
