solid 
facet normal 0.0191151127219 -0.999817311764 0.0
outer loop
vertex 3.66283559799 -4.29160642624 -244.870910645
vertex 0.577883422375 -4.35058641434 -244.870910645
vertex 0.577883422375 -4.35058641434 -244.890914917
endloop
endfacet
facet normal 0.0191151127219 -0.999817311764 0.0
outer loop
vertex 3.66283559799 -4.29160642624 -244.870910645
vertex 0.577883422375 -4.35058641434 -244.890914917
vertex 3.66283559799 -4.29160642624 -244.890914917
endloop
endfacet
facet normal 0.053332388401 -0.998576760292 0.0
outer loop
vertex 6.74396038055 -4.12704849243 -244.870910645
vertex 3.66283559799 -4.29160642624 -244.890914917
vertex 6.74396038055 -4.12704849243 -244.890914917
endloop
endfacet
facet normal 0.0874870792031 -0.996165633202 0.0
outer loop
vertex 6.74396038055 -4.12704849243 -244.870910645
vertex 6.74396038055 -4.12704849243 -244.890914917
vertex 9.81764507294 -3.85710573196 -244.890914917
endloop
endfacet
facet normal 0.053332388401 -0.998576760292 0.0
outer loop
vertex 6.74396038055 -4.12704849243 -244.870910645
vertex 3.66283559799 -4.29160642624 -244.870910645
vertex 3.66283559799 -4.29160642624 -244.890914917
endloop
endfacet
facet normal 0.0874870792031 -0.996165633202 0.0
outer loop
vertex 9.81764507294 -3.85710573196 -244.870910645
vertex 6.74396038055 -4.12704849243 -244.870910645
vertex 9.81764507294 -3.85710573196 -244.890914917
endloop
endfacet
facet normal 0.994522511959 0.104522958398 0.0
outer loop
vertex 9.81241893768 -3.8073797226 -244.890914917
vertex 9.81764507294 -3.85710573196 -244.870910645
vertex 9.81764507294 -3.85710573196 -244.890914917
endloop
endfacet
facet normal 0.994522511959 0.104522958398 0.0
outer loop
vertex 9.81241893768 -3.8073797226 -244.870910645
vertex 9.81764507294 -3.85710573196 -244.870910645
vertex 9.81241893768 -3.8073797226 -244.890914917
endloop
endfacet
facet normal -0.0191152114421 0.999817311764 0.0
outer loop
vertex 0.577783644199 -4.30058670044 -244.890914917
vertex 0.577783644199 -4.30058670044 -244.870910645
vertex 3.66102409363 -4.24163913727 -244.890914917
endloop
endfacet
facet normal -0.0191152114421 0.999817311764 0.0
outer loop
vertex 0.577783644199 -4.30058670044 -244.870910645
vertex 3.66102409363 -4.24163913727 -244.870910645
vertex 3.66102409363 -4.24163913727 -244.890914917
endloop
endfacet
facet normal -0.0533323064446 0.998576819897 0.0
outer loop
vertex 3.66102409363 -4.24163913727 -244.890914917
vertex 6.74043941498 -4.0771727562 -244.870910645
vertex 6.74043941498 -4.0771727562 -244.890914917
endloop
endfacet
facet normal -0.0533323064446 0.998576819897 0.0
outer loop
vertex 3.66102409363 -4.24163913727 -244.870910645
vertex 6.74043941498 -4.0771727562 -244.870910645
vertex 3.66102409363 -4.24163913727 -244.890914917
endloop
endfacet
facet normal -0.0874870941043 0.996165692806 0.0
outer loop
vertex 6.74043941498 -4.0771727562 -244.890914917
vertex 9.81241893768 -3.8073797226 -244.870910645
vertex 9.81241893768 -3.8073797226 -244.890914917
endloop
endfacet
facet normal -0.0874870941043 0.996165692806 0.0
outer loop
vertex 6.74043941498 -4.0771727562 -244.870910645
vertex 9.81241893768 -3.8073797226 -244.870910645
vertex 6.74043941498 -4.0771727562 -244.890914917
endloop
endfacet
facet normal -0.999998033047 -0.00199557119049 0.0
outer loop
vertex 0.577883422375 -4.35058641434 -244.870910645
vertex 0.577783644199 -4.30058670044 -244.870910645
vertex 0.577783644199 -4.30058670044 -244.890914917
endloop
endfacet
facet normal -0.999998033047 -0.00199557119049 -0.0
outer loop
vertex 0.577883422375 -4.35058641434 -244.870910645
vertex 0.577783644199 -4.30058670044 -244.890914917
vertex 0.577883422375 -4.35058641434 -244.890914917
endloop
endfacet
facet normal 0.0 0.0 1.0
outer loop
vertex 9.81241893768 -3.8073797226 -244.870910645
vertex 6.74043941498 -4.0771727562 -244.870910645
vertex 9.81764507294 -3.85710573196 -244.870910645
endloop
endfacet
facet normal -0.0 0.0 1.0
outer loop
vertex 6.74043941498 -4.0771727562 -244.870910645
vertex 6.74396038055 -4.12704849243 -244.870910645
vertex 9.81764507294 -3.85710573196 -244.870910645
endloop
endfacet
facet normal 0.0 0.0 1.0
outer loop
vertex 6.74043941498 -4.0771727562 -244.870910645
vertex 3.66102409363 -4.24163913727 -244.870910645
vertex 6.74396038055 -4.12704849243 -244.870910645
endloop
endfacet
facet normal -0.0 0.0 1.0
outer loop
vertex 3.66102409363 -4.24163913727 -244.870910645
vertex 3.66283559799 -4.29160642624 -244.870910645
vertex 6.74396038055 -4.12704849243 -244.870910645
endloop
endfacet
facet normal 0.0 0.0 1.0
outer loop
vertex 3.66102409363 -4.24163913727 -244.870910645
vertex 0.577783644199 -4.30058670044 -244.870910645
vertex 3.66283559799 -4.29160642624 -244.870910645
endloop
endfacet
facet normal -0.0 0.0 1.0
outer loop
vertex 0.577783644199 -4.30058670044 -244.870910645
vertex 0.577883422375 -4.35058641434 -244.870910645
vertex 3.66283559799 -4.29160642624 -244.870910645
endloop
endfacet
facet normal 0.0 0.0 -1.0
outer loop
vertex 6.74396038055 -4.12704849243 -244.890914917
vertex 6.74043941498 -4.0771727562 -244.890914917
vertex 9.81241893768 -3.8073797226 -244.890914917
endloop
endfacet
facet normal 0.0 0.0 -1.0
outer loop
vertex 6.74396038055 -4.12704849243 -244.890914917
vertex 9.81241893768 -3.8073797226 -244.890914917
vertex 9.81764507294 -3.85710573196 -244.890914917
endloop
endfacet
facet normal 0.0 0.0 -1.0
outer loop
vertex 3.66283559799 -4.29160642624 -244.890914917
vertex 3.66102409363 -4.24163913727 -244.890914917
vertex 6.74043941498 -4.0771727562 -244.890914917
endloop
endfacet
facet normal 0.0 0.0 -1.0
outer loop
vertex 3.66283559799 -4.29160642624 -244.890914917
vertex 6.74043941498 -4.0771727562 -244.890914917
vertex 6.74396038055 -4.12704849243 -244.890914917
endloop
endfacet
facet normal 0.0 0.0 -1.0
outer loop
vertex 0.577883422375 -4.35058641434 -244.890914917
vertex 0.577783644199 -4.30058670044 -244.890914917
vertex 3.66102409363 -4.24163913727 -244.890914917
endloop
endfacet
facet normal 0.0 0.0 -1.0
outer loop
vertex 0.577883422375 -4.35058641434 -244.890914917
vertex 3.66102409363 -4.24163913727 -244.890914917
vertex 3.66283559799 -4.29160642624 -244.890914917
endloop
endfacet
