solid 
facet normal -0.12153955549 0.992586553097 0.0
outer loop
vertex -12.8803081512 3.48209190369 320.239013672
vertex -9.81766700745 3.85710406303 320.239013672
vertex -9.81766700745 3.85710406303 320.218994141
endloop
endfacet
facet normal -0.12153955549 0.992586553097 0.0
outer loop
vertex -12.8803081512 3.48209190369 320.239013672
vertex -9.81766700745 3.85710406303 320.218994141
vertex -12.8803081512 3.48209190369 320.218994141
endloop
endfacet
facet normal -0.155449271202 0.987843871117 0.0
outer loop
vertex -15.9283161163 3.00245070457 320.239013672
vertex -12.8803081512 3.48209190369 320.218994141
vertex -15.9283161163 3.00245070457 320.218994141
endloop
endfacet
facet normal -0.189176768064 0.981943070889 0.0
outer loop
vertex -15.9283161163 3.00245070457 320.239013672
vertex -15.9283161163 3.00245070457 320.218994141
vertex -18.9581165314 2.41874289513 320.218994141
endloop
endfacet
facet normal -0.155449271202 0.987843871117 0.0
outer loop
vertex -15.9283161163 3.00245070457 320.239013672
vertex -12.8803081512 3.48209190369 320.239013672
vertex -12.8803081512 3.48209190369 320.218994141
endloop
endfacet
facet normal -0.189176768064 0.981943070889 0.0
outer loop
vertex -18.9581165314 2.41874289513 320.239013672
vertex -15.9283161163 3.00245070457 320.239013672
vertex -18.9581165314 2.41874289513 320.218994141
endloop
endfacet
facet normal -0.978561282158 -0.205955684185 0.0
outer loop
vertex -18.9581165314 2.41874289513 320.239013672
vertex -18.9478187561 2.36981487274 320.218994141
vertex -18.9478187561 2.36981487274 320.239013672
endloop
endfacet
facet normal -0.978561282158 -0.205955684185 0.0
outer loop
vertex -18.9581165314 2.41874289513 320.218994141
vertex -18.9478187561 2.36981487274 320.218994141
vertex -18.9581165314 2.41874289513 320.239013672
endloop
endfacet
facet normal 0.121539577842 -0.992586553097 0.0
outer loop
vertex -9.81243991852 3.80737805367 320.218994141
vertex -12.8733825684 3.43257379532 320.239013672
vertex -12.8733825684 3.43257379532 320.218994141
endloop
endfacet
facet normal 0.155449181795 -0.987843871117 0.0
outer loop
vertex -12.8733825684 3.43257379532 320.218994141
vertex -12.8733825684 3.43257379532 320.239013672
vertex -15.9196996689 2.95319890976 320.218994141
endloop
endfacet
facet normal 0.121539577842 -0.992586553097 0.0
outer loop
vertex -9.81243991852 3.80737805367 320.239013672
vertex -12.8733825684 3.43257379532 320.239013672
vertex -9.81243991852 3.80737805367 320.218994141
endloop
endfacet
facet normal 0.189176812768 -0.981943070889 0.0
outer loop
vertex -15.9196996689 2.95319890976 320.218994141
vertex -15.9196996689 2.95319890976 320.239013672
vertex -18.9478187561 2.36981487274 320.218994141
endloop
endfacet
facet normal 0.155449181795 -0.987843871117 0.0
outer loop
vertex -12.8733825684 3.43257379532 320.239013672
vertex -15.9196996689 2.95319890976 320.239013672
vertex -15.9196996689 2.95319890976 320.218994141
endloop
endfacet
facet normal 0.189176812768 -0.981943070889 0.0
outer loop
vertex -15.9196996689 2.95319890976 320.239013672
vertex -18.9478187561 2.36981487274 320.239013672
vertex -18.9478187561 2.36981487274 320.218994141
endloop
endfacet
facet normal 0.994520425797 0.104541808367 -0.0
outer loop
vertex -9.81243991852 3.80737805367 320.218994141
vertex -9.81766700745 3.85710406303 320.239013672
vertex -9.81243991852 3.80737805367 320.239013672
endloop
endfacet
facet normal 0.994520425797 0.104541808367 0.0
outer loop
vertex -9.81243991852 3.80737805367 320.218994141
vertex -9.81766700745 3.85710406303 320.218994141
vertex -9.81766700745 3.85710406303 320.239013672
endloop
endfacet
facet normal 0.0 -0.0 -1.0
outer loop
vertex -15.9283161163 3.00245070457 320.218994141
vertex -15.9196996689 2.95319890976 320.218994141
vertex -18.9478187561 2.36981487274 320.218994141
endloop
endfacet
facet normal 0.0 0.0 -1.0
outer loop
vertex -15.9283161163 3.00245070457 320.218994141
vertex -18.9478187561 2.36981487274 320.218994141
vertex -18.9581165314 2.41874289513 320.218994141
endloop
endfacet
facet normal 0.0 -0.0 -1.0
outer loop
vertex -12.8803081512 3.48209190369 320.218994141
vertex -12.8733825684 3.43257379532 320.218994141
vertex -15.9196996689 2.95319890976 320.218994141
endloop
endfacet
facet normal 0.0 0.0 -1.0
outer loop
vertex -12.8803081512 3.48209190369 320.218994141
vertex -15.9196996689 2.95319890976 320.218994141
vertex -15.9283161163 3.00245070457 320.218994141
endloop
endfacet
facet normal 0.0 -0.0 -1.0
outer loop
vertex -9.81766700745 3.85710406303 320.218994141
vertex -9.81243991852 3.80737805367 320.218994141
vertex -12.8733825684 3.43257379532 320.218994141
endloop
endfacet
facet normal 0.0 0.0 -1.0
outer loop
vertex -9.81766700745 3.85710406303 320.218994141
vertex -12.8733825684 3.43257379532 320.218994141
vertex -12.8803081512 3.48209190369 320.218994141
endloop
endfacet
facet normal 0.0 0.0 1.0
outer loop
vertex -15.9196996689 2.95319890976 320.239013672
vertex -15.9283161163 3.00245070457 320.239013672
vertex -18.9478187561 2.36981487274 320.239013672
endloop
endfacet
facet normal 0.0 -0.0 1.0
outer loop
vertex -18.9478187561 2.36981487274 320.239013672
vertex -15.9283161163 3.00245070457 320.239013672
vertex -18.9581165314 2.41874289513 320.239013672
endloop
endfacet
facet normal 0.0 0.0 1.0
outer loop
vertex -12.8733825684 3.43257379532 320.239013672
vertex -12.8803081512 3.48209190369 320.239013672
vertex -15.9196996689 2.95319890976 320.239013672
endloop
endfacet
facet normal 0.0 -0.0 1.0
outer loop
vertex -15.9196996689 2.95319890976 320.239013672
vertex -12.8803081512 3.48209190369 320.239013672
vertex -15.9283161163 3.00245070457 320.239013672
endloop
endfacet
facet normal 0.0 -0.0 1.0
outer loop
vertex -12.8733825684 3.43257379532 320.239013672
vertex -9.81243991852 3.80737805367 320.239013672
vertex -12.8803081512 3.48209190369 320.239013672
endloop
endfacet
facet normal 0.0 0.0 1.0
outer loop
vertex -9.81243991852 3.80737805367 320.239013672
vertex -9.81766700745 3.85710406303 320.239013672
vertex -12.8803081512 3.48209190369 320.239013672
endloop
endfacet
