solid 
facet normal -0.0191152691841 0.999817311764 0.0
outer loop
vertex -3.66284584999 4.29160642624 291.330993652
vertex -0.577893793583 4.35058689117 291.330993652
vertex -0.577893793583 4.35058689117 291.311004639
endloop
endfacet
facet normal -0.0191152691841 0.999817311764 0.0
outer loop
vertex -3.66284584999 4.29160642624 291.330993652
vertex -0.577893793583 4.35058689117 291.311004639
vertex -3.66284584999 4.29160642624 291.311004639
endloop
endfacet
facet normal -0.0533323921263 0.998576819897 0.0
outer loop
vertex -6.74397039413 4.12704849243 291.330993652
vertex -3.66284584999 4.29160642624 291.311004639
vertex -6.74397039413 4.12704849243 291.311004639
endloop
endfacet
facet normal -0.0533323921263 0.998576819897 0.0
outer loop
vertex -6.74397039413 4.12704849243 291.330993652
vertex -3.66284584999 4.29160642624 291.330993652
vertex -3.66284584999 4.29160642624 291.311004639
endloop
endfacet
facet normal -0.08748729527 0.996165633202 0.0
outer loop
vertex -9.81765556335 3.85710501671 291.330993652
vertex -6.74397039413 4.12704849243 291.311004639
vertex -9.81765556335 3.85710501671 291.311004639
endloop
endfacet
facet normal -0.08748729527 0.996165633202 0.0
outer loop
vertex -9.81765556335 3.85710501671 291.330993652
vertex -6.74397039413 4.12704849243 291.330993652
vertex -6.74397039413 4.12704849243 291.311004639
endloop
endfacet
facet normal -0.994522452354 -0.104522936046 0.0
outer loop
vertex -9.81765556335 3.85710501671 291.330993652
vertex -9.8124294281 3.80737900734 291.311004639
vertex -9.8124294281 3.80737900734 291.330993652
endloop
endfacet
facet normal -0.994522452354 -0.104522936046 0.0
outer loop
vertex -9.81765556335 3.85710501671 291.311004639
vertex -9.8124294281 3.80737900734 291.311004639
vertex -9.81765556335 3.85710501671 291.330993652
endloop
endfacet
facet normal 0.0191152095795 -0.999817311764 0.0
outer loop
vertex -0.577794015408 4.30058670044 291.311004639
vertex -3.66103458405 4.24163913727 291.330993652
vertex -3.66103458405 4.24163913727 291.311004639
endloop
endfacet
facet normal 0.0191152095795 -0.999817311764 0.0
outer loop
vertex -0.577794015408 4.30058670044 291.330993652
vertex -3.66103458405 4.24163913727 291.330993652
vertex -0.577794015408 4.30058670044 291.311004639
endloop
endfacet
facet normal 0.0533324666321 -0.998576819897 0.0
outer loop
vertex -3.66103458405 4.24163913727 291.311004639
vertex -6.74044942856 4.07717227936 291.330993652
vertex -6.74044942856 4.07717227936 291.311004639
endloop
endfacet
facet normal 0.0874871611595 -0.996165633202 0.0
outer loop
vertex -6.74044942856 4.07717227936 291.311004639
vertex -6.74044942856 4.07717227936 291.330993652
vertex -9.8124294281 3.80737900734 291.311004639
endloop
endfacet
facet normal 0.0533324666321 -0.998576819897 0.0
outer loop
vertex -3.66103458405 4.24163913727 291.330993652
vertex -6.74044942856 4.07717227936 291.330993652
vertex -3.66103458405 4.24163913727 291.311004639
endloop
endfacet
facet normal 0.0874871611595 -0.996165633202 0.0
outer loop
vertex -6.74044942856 4.07717227936 291.330993652
vertex -9.8124294281 3.80737900734 291.330993652
vertex -9.8124294281 3.80737900734 291.311004639
endloop
endfacet
facet normal 0.999998033047 0.00199555186555 -0.0
outer loop
vertex -0.577794015408 4.30058670044 291.311004639
vertex -0.577893793583 4.35058689117 291.330993652
vertex -0.577794015408 4.30058670044 291.330993652
endloop
endfacet
facet normal 0.999998033047 0.00199555186555 0.0
outer loop
vertex -0.577794015408 4.30058670044 291.311004639
vertex -0.577893793583 4.35058689117 291.311004639
vertex -0.577893793583 4.35058689117 291.330993652
endloop
endfacet
facet normal 0.0 0.0 -1.0
outer loop
vertex -6.74044942856 4.07717227936 291.311004639
vertex -9.8124294281 3.80737900734 291.311004639
vertex -9.81765556335 3.85710501671 291.311004639
endloop
endfacet
facet normal 0.0 -0.0 -1.0
outer loop
vertex -6.74397039413 4.12704849243 291.311004639
vertex -6.74044942856 4.07717227936 291.311004639
vertex -9.81765556335 3.85710501671 291.311004639
endloop
endfacet
facet normal 0.0 0.0 -1.0
outer loop
vertex -3.66103458405 4.24163913727 291.311004639
vertex -6.74044942856 4.07717227936 291.311004639
vertex -6.74397039413 4.12704849243 291.311004639
endloop
endfacet
facet normal 0.0 -0.0 -1.0
outer loop
vertex -3.66284584999 4.29160642624 291.311004639
vertex -3.66103458405 4.24163913727 291.311004639
vertex -6.74397039413 4.12704849243 291.311004639
endloop
endfacet
facet normal 0.0 0.0 -1.0
outer loop
vertex -0.577794015408 4.30058670044 291.311004639
vertex -3.66103458405 4.24163913727 291.311004639
vertex -3.66284584999 4.29160642624 291.311004639
endloop
endfacet
facet normal 0.0 -0.0 -1.0
outer loop
vertex -0.577893793583 4.35058689117 291.311004639
vertex -0.577794015408 4.30058670044 291.311004639
vertex -3.66284584999 4.29160642624 291.311004639
endloop
endfacet
facet normal 0.0 0.0 1.0
outer loop
vertex -6.74044942856 4.07717227936 291.330993652
vertex -6.74397039413 4.12704849243 291.330993652
vertex -9.8124294281 3.80737900734 291.330993652
endloop
endfacet
facet normal 0.0 -0.0 1.0
outer loop
vertex -9.8124294281 3.80737900734 291.330993652
vertex -6.74397039413 4.12704849243 291.330993652
vertex -9.81765556335 3.85710501671 291.330993652
endloop
endfacet
facet normal 0.0 0.0 1.0
outer loop
vertex -3.66103458405 4.24163913727 291.330993652
vertex -3.66284584999 4.29160642624 291.330993652
vertex -6.74044942856 4.07717227936 291.330993652
endloop
endfacet
facet normal 0.0 -0.0 1.0
outer loop
vertex -6.74044942856 4.07717227936 291.330993652
vertex -3.66284584999 4.29160642624 291.330993652
vertex -6.74397039413 4.12704849243 291.330993652
endloop
endfacet
facet normal 0.0 0.0 1.0
outer loop
vertex -0.577794015408 4.30058670044 291.330993652
vertex -0.577893793583 4.35058689117 291.330993652
vertex -3.66103458405 4.24163913727 291.330993652
endloop
endfacet
facet normal 0.0 -0.0 1.0
outer loop
vertex -3.66103458405 4.24163913727 291.330993652
vertex -0.577893793583 4.35058689117 291.330993652
vertex -3.66284584999 4.29160642624 291.330993652
endloop
endfacet
