solid 
facet normal -0.12153955549 -0.992586612701 0.0
outer loop
vertex -9.81766700745 -3.85710406303 217.871780396
vertex -9.81766700745 -3.85710406303 217.891784668
vertex -12.8803081512 -3.48209190369 217.891784668
endloop
endfacet
facet normal -0.155449271202 -0.987843871117 0.0
outer loop
vertex -12.8803081512 -3.48209190369 217.871780396
vertex -12.8803081512 -3.48209190369 217.891784668
vertex -15.9283161163 -3.00245070457 217.891784668
endloop
endfacet
facet normal -0.12153955549 -0.992586612701 0.0
outer loop
vertex -12.8803081512 -3.48209190369 217.871780396
vertex -9.81766700745 -3.85710406303 217.871780396
vertex -12.8803081512 -3.48209190369 217.891784668
endloop
endfacet
facet normal -0.155449271202 -0.987843871117 0.0
outer loop
vertex -15.9283161163 -3.00245070457 217.871780396
vertex -12.8803081512 -3.48209190369 217.871780396
vertex -15.9283161163 -3.00245070457 217.891784668
endloop
endfacet
facet normal -0.189176768064 -0.981943011284 0.0
outer loop
vertex -18.9581165314 -2.41874289513 217.871780396
vertex -15.9283161163 -3.00245070457 217.891784668
vertex -18.9581165314 -2.41874289513 217.891784668
endloop
endfacet
facet normal -0.189176768064 -0.981943011284 0.0
outer loop
vertex -18.9581165314 -2.41874289513 217.871780396
vertex -15.9283161163 -3.00245070457 217.871780396
vertex -15.9283161163 -3.00245070457 217.891784668
endloop
endfacet
facet normal -0.978561341763 0.205955684185 0.0
outer loop
vertex -18.9478187561 -2.36981487274 217.871780396
vertex -18.9581165314 -2.41874289513 217.871780396
vertex -18.9581165314 -2.41874289513 217.891784668
endloop
endfacet
facet normal -0.978561341763 0.205955684185 0.0
outer loop
vertex -18.9478187561 -2.36981487274 217.871780396
vertex -18.9581165314 -2.41874289513 217.891784668
vertex -18.9478187561 -2.36981487274 217.891784668
endloop
endfacet
facet normal 0.121539577842 0.992586612701 0.0
outer loop
vertex -9.81243991852 -3.80737805367 217.891784668
vertex -9.81243991852 -3.80737805367 217.871780396
vertex -12.8733825684 -3.43257379532 217.891784668
endloop
endfacet
facet normal 0.121539577842 0.992586612701 0.0
outer loop
vertex -9.81243991852 -3.80737805367 217.871780396
vertex -12.8733825684 -3.43257379532 217.871780396
vertex -12.8733825684 -3.43257379532 217.891784668
endloop
endfacet
facet normal 0.155449196696 0.987843871117 0.0
outer loop
vertex -12.8733825684 -3.43257379532 217.891784668
vertex -15.9196996689 -2.95319890976 217.871780396
vertex -15.9196996689 -2.95319890976 217.891784668
endloop
endfacet
facet normal 0.155449196696 0.987843871117 -0.0
outer loop
vertex -12.8733825684 -3.43257379532 217.871780396
vertex -15.9196996689 -2.95319890976 217.871780396
vertex -12.8733825684 -3.43257379532 217.891784668
endloop
endfacet
facet normal 0.189176812768 0.981943070889 0.0
outer loop
vertex -15.9196996689 -2.95319890976 217.891784668
vertex -18.9478187561 -2.36981487274 217.871780396
vertex -18.9478187561 -2.36981487274 217.891784668
endloop
endfacet
facet normal 0.189176812768 0.981943070889 -0.0
outer loop
vertex -15.9196996689 -2.95319890976 217.871780396
vertex -18.9478187561 -2.36981487274 217.871780396
vertex -15.9196996689 -2.95319890976 217.891784668
endloop
endfacet
facet normal 0.994520545006 -0.104541823268 0.0
outer loop
vertex -9.81766700745 -3.85710406303 217.891784668
vertex -9.81243991852 -3.80737805367 217.871780396
vertex -9.81243991852 -3.80737805367 217.891784668
endloop
endfacet
facet normal 0.994520545006 -0.104541823268 0.0
outer loop
vertex -9.81766700745 -3.85710406303 217.871780396
vertex -9.81243991852 -3.80737805367 217.871780396
vertex -9.81766700745 -3.85710406303 217.891784668
endloop
endfacet
facet normal -0.0 0.0 -1.0
outer loop
vertex -15.9196996689 -2.95319890976 217.871780396
vertex -15.9283161163 -3.00245070457 217.871780396
vertex -18.9478187561 -2.36981487274 217.871780396
endloop
endfacet
facet normal 0.0 -0.0 -1.0
outer loop
vertex -18.9478187561 -2.36981487274 217.871780396
vertex -15.9283161163 -3.00245070457 217.871780396
vertex -18.9581165314 -2.41874289513 217.871780396
endloop
endfacet
facet normal -0.0 0.0 -1.0
outer loop
vertex -12.8733825684 -3.43257379532 217.871780396
vertex -12.8803081512 -3.48209190369 217.871780396
vertex -15.9196996689 -2.95319890976 217.871780396
endloop
endfacet
facet normal 0.0 -0.0 -1.0
outer loop
vertex -15.9196996689 -2.95319890976 217.871780396
vertex -12.8803081512 -3.48209190369 217.871780396
vertex -15.9283161163 -3.00245070457 217.871780396
endloop
endfacet
facet normal 0.0 -0.0 -1.0
outer loop
vertex -12.8733825684 -3.43257379532 217.871780396
vertex -9.81243991852 -3.80737805367 217.871780396
vertex -12.8803081512 -3.48209190369 217.871780396
endloop
endfacet
facet normal -0.0 0.0 -1.0
outer loop
vertex -9.81243991852 -3.80737805367 217.871780396
vertex -9.81766700745 -3.85710406303 217.871780396
vertex -12.8803081512 -3.48209190369 217.871780396
endloop
endfacet
facet normal 0.0 -0.0 1.0
outer loop
vertex -15.9283161163 -3.00245070457 217.891784668
vertex -15.9196996689 -2.95319890976 217.891784668
vertex -18.9478187561 -2.36981487274 217.891784668
endloop
endfacet
facet normal 0.0 0.0 1.0
outer loop
vertex -15.9283161163 -3.00245070457 217.891784668
vertex -18.9478187561 -2.36981487274 217.891784668
vertex -18.9581165314 -2.41874289513 217.891784668
endloop
endfacet
facet normal 0.0 -0.0 1.0
outer loop
vertex -12.8803081512 -3.48209190369 217.891784668
vertex -12.8733825684 -3.43257379532 217.891784668
vertex -15.9196996689 -2.95319890976 217.891784668
endloop
endfacet
facet normal 0.0 0.0 1.0
outer loop
vertex -12.8803081512 -3.48209190369 217.891784668
vertex -15.9196996689 -2.95319890976 217.891784668
vertex -15.9283161163 -3.00245070457 217.891784668
endloop
endfacet
facet normal 0.0 -0.0 1.0
outer loop
vertex -9.81766700745 -3.85710406303 217.891784668
vertex -9.81243991852 -3.80737805367 217.891784668
vertex -12.8733825684 -3.43257379532 217.891784668
endloop
endfacet
facet normal 0.0 0.0 1.0
outer loop
vertex -9.81766700745 -3.85710406303 217.891784668
vertex -12.8733825684 -3.43257379532 217.891784668
vertex -12.8803081512 -3.48209190369 217.891784668
endloop
endfacet
