solid 
facet normal 0.0191151145846 -0.999817252159 0.0
outer loop
vertex 3.6628408432 -4.29160690308 -59.3031234741
vertex 0.577888727188 -4.35058689117 -59.3031234741
vertex 0.577888727188 -4.35058689117 -59.3231239319
endloop
endfacet
facet normal 0.0191151145846 -0.999817252159 0.0
outer loop
vertex 3.6628408432 -4.29160690308 -59.3031234741
vertex 0.577888727188 -4.35058689117 -59.3231239319
vertex 3.6628408432 -4.29160690308 -59.3231239319
endloop
endfacet
facet normal 0.0533325411379 -0.998576819897 0.0
outer loop
vertex 6.74396562576 -4.12704849243 -59.3031234741
vertex 3.6628408432 -4.29160690308 -59.3231239319
vertex 6.74396562576 -4.12704849243 -59.3231239319
endloop
endfacet
facet normal 0.0874871537089 -0.996165692806 0.0
outer loop
vertex 6.74396562576 -4.12704849243 -59.3031234741
vertex 6.74396562576 -4.12704849243 -59.3231239319
vertex 9.81765079498 -3.85710549355 -59.3231239319
endloop
endfacet
facet normal 0.0533325411379 -0.998576819897 0.0
outer loop
vertex 6.74396562576 -4.12704849243 -59.3031234741
vertex 3.6628408432 -4.29160690308 -59.3031234741
vertex 3.6628408432 -4.29160690308 -59.3231239319
endloop
endfacet
facet normal 0.0874871537089 -0.996165692806 0.0
outer loop
vertex 9.81765079498 -3.85710549355 -59.3031234741
vertex 6.74396562576 -4.12704849243 -59.3031234741
vertex 9.81765079498 -3.85710549355 -59.3231239319
endloop
endfacet
facet normal 0.994520425797 0.104541808367 0.0
outer loop
vertex 9.81242370605 -3.80737948418 -59.3231239319
vertex 9.81765079498 -3.85710549355 -59.3031234741
vertex 9.81765079498 -3.85710549355 -59.3231239319
endloop
endfacet
facet normal 0.994520425797 0.104541808367 0.0
outer loop
vertex 9.81242370605 -3.80737948418 -59.3031234741
vertex 9.81765079498 -3.85710549355 -59.3031234741
vertex 9.81242370605 -3.80737948418 -59.3231239319
endloop
endfacet
facet normal -0.0191150568426 0.999817311764 0.0
outer loop
vertex 0.577788949013 -4.30058670044 -59.3231239319
vertex 0.577788949013 -4.30058670044 -59.3031234741
vertex 3.66102933884 -4.24163961411 -59.3231239319
endloop
endfacet
facet normal -0.0191150568426 0.999817311764 0.0
outer loop
vertex 0.577788949013 -4.30058670044 -59.3031234741
vertex 3.66102933884 -4.24163961411 -59.3031234741
vertex 3.66102933884 -4.24163961411 -59.3231239319
endloop
endfacet
facet normal -0.0533324591815 0.998576819897 0.0
outer loop
vertex 3.66102933884 -4.24163961411 -59.3231239319
vertex 6.74044466019 -4.0771727562 -59.3031234741
vertex 6.74044466019 -4.0771727562 -59.3231239319
endloop
endfacet
facet normal -0.0533324591815 0.998576819897 0.0
outer loop
vertex 3.66102933884 -4.24163961411 -59.3031234741
vertex 6.74044466019 -4.0771727562 -59.3031234741
vertex 3.66102933884 -4.24163961411 -59.3231239319
endloop
endfacet
facet normal -0.0874871835113 0.996165633202 0.0
outer loop
vertex 6.74044466019 -4.0771727562 -59.3231239319
vertex 9.81242370605 -3.80737948418 -59.3031234741
vertex 9.81242370605 -3.80737948418 -59.3231239319
endloop
endfacet
facet normal -0.0874871835113 0.996165633202 0.0
outer loop
vertex 6.74044466019 -4.0771727562 -59.3031234741
vertex 9.81242370605 -3.80737948418 -59.3031234741
vertex 6.74044466019 -4.0771727562 -59.3231239319
endloop
endfacet
facet normal -0.999998033047 -0.00199555186555 0.0
outer loop
vertex 0.577888727188 -4.35058689117 -59.3231239319
vertex 0.577788949013 -4.30058670044 -59.3031234741
vertex 0.577788949013 -4.30058670044 -59.3231239319
endloop
endfacet
facet normal -0.999998033047 -0.00199555186555 -0.0
outer loop
vertex 0.577888727188 -4.35058689117 -59.3031234741
vertex 0.577788949013 -4.30058670044 -59.3031234741
vertex 0.577888727188 -4.35058689117 -59.3231239319
endloop
endfacet
facet normal 0.0 0.0 1.0
outer loop
vertex 9.81242370605 -3.80737948418 -59.3031234741
vertex 6.74044466019 -4.0771727562 -59.3031234741
vertex 9.81765079498 -3.85710549355 -59.3031234741
endloop
endfacet
facet normal -0.0 0.0 1.0
outer loop
vertex 6.74044466019 -4.0771727562 -59.3031234741
vertex 6.74396562576 -4.12704849243 -59.3031234741
vertex 9.81765079498 -3.85710549355 -59.3031234741
endloop
endfacet
facet normal 0.0 0.0 1.0
outer loop
vertex 6.74044466019 -4.0771727562 -59.3031234741
vertex 3.66102933884 -4.24163961411 -59.3031234741
vertex 6.74396562576 -4.12704849243 -59.3031234741
endloop
endfacet
facet normal -0.0 0.0 1.0
outer loop
vertex 3.66102933884 -4.24163961411 -59.3031234741
vertex 3.6628408432 -4.29160690308 -59.3031234741
vertex 6.74396562576 -4.12704849243 -59.3031234741
endloop
endfacet
facet normal 0.0 0.0 1.0
outer loop
vertex 3.66102933884 -4.24163961411 -59.3031234741
vertex 0.577788949013 -4.30058670044 -59.3031234741
vertex 3.6628408432 -4.29160690308 -59.3031234741
endloop
endfacet
facet normal -0.0 0.0 1.0
outer loop
vertex 0.577788949013 -4.30058670044 -59.3031234741
vertex 0.577888727188 -4.35058689117 -59.3031234741
vertex 3.6628408432 -4.29160690308 -59.3031234741
endloop
endfacet
facet normal 0.0 0.0 -1.0
outer loop
vertex 6.74044466019 -4.0771727562 -59.3231239319
vertex 9.81242370605 -3.80737948418 -59.3231239319
vertex 9.81765079498 -3.85710549355 -59.3231239319
endloop
endfacet
facet normal 0.0 0.0 -1.0
outer loop
vertex 6.74396562576 -4.12704849243 -59.3231239319
vertex 6.74044466019 -4.0771727562 -59.3231239319
vertex 9.81765079498 -3.85710549355 -59.3231239319
endloop
endfacet
facet normal 0.0 0.0 -1.0
outer loop
vertex 3.6628408432 -4.29160690308 -59.3231239319
vertex 3.66102933884 -4.24163961411 -59.3231239319
vertex 6.74044466019 -4.0771727562 -59.3231239319
endloop
endfacet
facet normal 0.0 0.0 -1.0
outer loop
vertex 3.6628408432 -4.29160690308 -59.3231239319
vertex 6.74044466019 -4.0771727562 -59.3231239319
vertex 6.74396562576 -4.12704849243 -59.3231239319
endloop
endfacet
facet normal 0.0 0.0 -1.0
outer loop
vertex 0.577888727188 -4.35058689117 -59.3231239319
vertex 0.577788949013 -4.30058670044 -59.3231239319
vertex 3.66102933884 -4.24163961411 -59.3231239319
endloop
endfacet
facet normal 0.0 0.0 -1.0
outer loop
vertex 0.577888727188 -4.35058689117 -59.3231239319
vertex 3.66102933884 -4.24163961411 -59.3231239319
vertex 3.6628408432 -4.29160690308 -59.3231239319
endloop
endfacet
