solid 
facet normal 0.121539399028 0.992586612701 0.0
outer loop
vertex 12.8802976608 3.48209357262 -170.485870361
vertex 9.81765651703 3.85710525513 -170.485870361
vertex 9.81765651703 3.85710525513 -170.465881348
endloop
endfacet
facet normal 0.121539399028 0.992586612701 -0.0
outer loop
vertex 12.8802976608 3.48209357262 -170.485870361
vertex 9.81765651703 3.85710525513 -170.465881348
vertex 12.8802976608 3.48209357262 -170.465881348
endloop
endfacet
facet normal 0.15544912219 0.987843930721 -0.0
outer loop
vertex 15.9283056259 3.00245285034 -170.485870361
vertex 12.8802976608 3.48209357262 -170.465881348
vertex 15.9283056259 3.00245285034 -170.465881348
endloop
endfacet
facet normal 0.189176559448 0.981943070889 -0.0
outer loop
vertex 15.9283056259 3.00245285034 -170.485870361
vertex 15.9283056259 3.00245285034 -170.465881348
vertex 18.9581069946 2.41874551773 -170.465881348
endloop
endfacet
facet normal 0.15544912219 0.987843930721 0.0
outer loop
vertex 15.9283056259 3.00245285034 -170.485870361
vertex 12.8802976608 3.48209357262 -170.485870361
vertex 12.8802976608 3.48209357262 -170.465881348
endloop
endfacet
facet normal 0.189176559448 0.981943070889 -0.0
outer loop
vertex 18.9581069946 2.41874551773 -170.485870361
vertex 15.9283056259 3.00245285034 -170.485870361
vertex 18.9581069946 2.41874551773 -170.465881348
endloop
endfacet
facet normal 0.978561282158 -0.205955669284 0.0
outer loop
vertex 18.9581069946 2.41874551773 -170.485870361
vertex 18.9478092194 2.36981749535 -170.465881348
vertex 18.9478092194 2.36981749535 -170.485870361
endloop
endfacet
facet normal 0.978561282158 -0.205955669284 0.0
outer loop
vertex 18.9581069946 2.41874551773 -170.465881348
vertex 18.9478092194 2.36981749535 -170.465881348
vertex 18.9581069946 2.41874551773 -170.485870361
endloop
endfacet
facet normal -0.12153942138 -0.992586612701 0.0
outer loop
vertex 9.8124294281 3.80737924576 -170.465881348
vertex 12.8733720779 3.43257546425 -170.485870361
vertex 12.8733720779 3.43257546425 -170.465881348
endloop
endfacet
facet normal -0.15544912219 -0.987843930721 -0.0
outer loop
vertex 12.8733720779 3.43257546425 -170.465881348
vertex 12.8733720779 3.43257546425 -170.485870361
vertex 15.9196891785 2.95320081711 -170.465881348
endloop
endfacet
facet normal -0.12153942138 -0.992586612701 0.0
outer loop
vertex 9.8124294281 3.80737924576 -170.485870361
vertex 12.8733720779 3.43257546425 -170.485870361
vertex 9.8124294281 3.80737924576 -170.465881348
endloop
endfacet
facet normal -0.189176529646 -0.981943070889 -0.0
outer loop
vertex 15.9196891785 2.95320081711 -170.465881348
vertex 15.9196891785 2.95320081711 -170.485870361
vertex 18.9478092194 2.36981749535 -170.465881348
endloop
endfacet
facet normal -0.15544912219 -0.987843930721 0.0
outer loop
vertex 12.8733720779 3.43257546425 -170.485870361
vertex 15.9196891785 2.95320081711 -170.485870361
vertex 15.9196891785 2.95320081711 -170.465881348
endloop
endfacet
facet normal -0.189176529646 -0.981943070889 0.0
outer loop
vertex 15.9196891785 2.95320081711 -170.485870361
vertex 18.9478092194 2.36981749535 -170.485870361
vertex 18.9478092194 2.36981749535 -170.465881348
endloop
endfacet
facet normal -0.994520485401 0.104541800916 0.0
outer loop
vertex 9.8124294281 3.80737924576 -170.465881348
vertex 9.81765651703 3.85710525513 -170.485870361
vertex 9.8124294281 3.80737924576 -170.485870361
endloop
endfacet
facet normal -0.994520485401 0.104541800916 0.0
outer loop
vertex 9.8124294281 3.80737924576 -170.465881348
vertex 9.81765651703 3.85710525513 -170.465881348
vertex 9.81765651703 3.85710525513 -170.485870361
endloop
endfacet
facet normal 0.0 0.0 1.0
outer loop
vertex 15.9283056259 3.00245285034 -170.465881348
vertex 15.9196891785 2.95320081711 -170.465881348
vertex 18.9478092194 2.36981749535 -170.465881348
endloop
endfacet
facet normal 0.0 0.0 1.0
outer loop
vertex 15.9283056259 3.00245285034 -170.465881348
vertex 18.9478092194 2.36981749535 -170.465881348
vertex 18.9581069946 2.41874551773 -170.465881348
endloop
endfacet
facet normal 0.0 0.0 1.0
outer loop
vertex 12.8802976608 3.48209357262 -170.465881348
vertex 12.8733720779 3.43257546425 -170.465881348
vertex 15.9196891785 2.95320081711 -170.465881348
endloop
endfacet
facet normal 0.0 0.0 1.0
outer loop
vertex 12.8802976608 3.48209357262 -170.465881348
vertex 15.9196891785 2.95320081711 -170.465881348
vertex 15.9283056259 3.00245285034 -170.465881348
endloop
endfacet
facet normal 0.0 0.0 1.0
outer loop
vertex 9.81765651703 3.85710525513 -170.465881348
vertex 9.8124294281 3.80737924576 -170.465881348
vertex 12.8733720779 3.43257546425 -170.465881348
endloop
endfacet
facet normal 0.0 0.0 1.0
outer loop
vertex 9.81765651703 3.85710525513 -170.465881348
vertex 12.8733720779 3.43257546425 -170.465881348
vertex 12.8802976608 3.48209357262 -170.465881348
endloop
endfacet
facet normal 0.0 0.0 -1.0
outer loop
vertex 15.9196891785 2.95320081711 -170.485870361
vertex 15.9283056259 3.00245285034 -170.485870361
vertex 18.9478092194 2.36981749535 -170.485870361
endloop
endfacet
facet normal 0.0 0.0 -1.0
outer loop
vertex 18.9478092194 2.36981749535 -170.485870361
vertex 15.9283056259 3.00245285034 -170.485870361
vertex 18.9581069946 2.41874551773 -170.485870361
endloop
endfacet
facet normal 0.0 0.0 -1.0
outer loop
vertex 12.8733720779 3.43257546425 -170.485870361
vertex 12.8802976608 3.48209357262 -170.485870361
vertex 15.9196891785 2.95320081711 -170.485870361
endloop
endfacet
facet normal 0.0 0.0 -1.0
outer loop
vertex 15.9196891785 2.95320081711 -170.485870361
vertex 12.8802976608 3.48209357262 -170.485870361
vertex 15.9283056259 3.00245285034 -170.485870361
endloop
endfacet
facet normal 0.0 0.0 -1.0
outer loop
vertex 12.8733720779 3.43257546425 -170.485870361
vertex 9.8124294281 3.80737924576 -170.485870361
vertex 12.8802976608 3.48209357262 -170.485870361
endloop
endfacet
facet normal 0.0 0.0 -1.0
outer loop
vertex 9.8124294281 3.80737924576 -170.485870361
vertex 9.81765651703 3.85710525513 -170.485870361
vertex 12.8802976608 3.48209357262 -170.485870361
endloop
endfacet
