solid 
facet normal -0.121539562941 0.992586612701 0.0
outer loop
vertex -9.81766700745 3.85710406303 -213.79788208
vertex -9.81766700745 3.85710406303 -213.817871094
vertex -12.8803081512 3.48209190369 -213.817871094
endloop
endfacet
facet normal -0.155449271202 0.987843871117 0.0
outer loop
vertex -12.8803081512 3.48209190369 -213.79788208
vertex -12.8803081512 3.48209190369 -213.817871094
vertex -15.9283161163 3.00245070457 -213.817871094
endloop
endfacet
facet normal -0.121539562941 0.992586612701 0.0
outer loop
vertex -12.8803081512 3.48209190369 -213.79788208
vertex -9.81766700745 3.85710406303 -213.79788208
vertex -12.8803081512 3.48209190369 -213.817871094
endloop
endfacet
facet normal -0.155449271202 0.987843871117 0.0
outer loop
vertex -15.9283161163 3.00245070457 -213.79788208
vertex -12.8803081512 3.48209190369 -213.79788208
vertex -15.9283161163 3.00245070457 -213.817871094
endloop
endfacet
facet normal -0.189176768064 0.981943070889 0.0
outer loop
vertex -18.9581165314 2.41874289513 -213.79788208
vertex -15.9283161163 3.00245070457 -213.817871094
vertex -18.9581165314 2.41874289513 -213.817871094
endloop
endfacet
facet normal -0.189176768064 0.981943070889 0.0
outer loop
vertex -18.9581165314 2.41874289513 -213.79788208
vertex -15.9283161163 3.00245070457 -213.79788208
vertex -15.9283161163 3.00245070457 -213.817871094
endloop
endfacet
facet normal -0.978561282158 -0.205955669284 0.0
outer loop
vertex -18.9478187561 2.36981487274 -213.79788208
vertex -18.9581165314 2.41874289513 -213.79788208
vertex -18.9581165314 2.41874289513 -213.817871094
endloop
endfacet
facet normal -0.978561282158 -0.205955669284 -0.0
outer loop
vertex -18.9478187561 2.36981487274 -213.79788208
vertex -18.9581165314 2.41874289513 -213.817871094
vertex -18.9478187561 2.36981487274 -213.817871094
endloop
endfacet
facet normal 0.121539585292 -0.992586612701 0.0
outer loop
vertex -9.81243991852 3.80737805367 -213.817871094
vertex -9.81243991852 3.80737805367 -213.79788208
vertex -12.8733825684 3.43257379532 -213.817871094
endloop
endfacet
facet normal 0.121539585292 -0.992586612701 0.0
outer loop
vertex -9.81243991852 3.80737805367 -213.79788208
vertex -12.8733825684 3.43257379532 -213.79788208
vertex -12.8733825684 3.43257379532 -213.817871094
endloop
endfacet
facet normal 0.155449196696 -0.987843930721 0.0
outer loop
vertex -12.8733825684 3.43257379532 -213.817871094
vertex -15.9196996689 2.95319890976 -213.79788208
vertex -15.9196996689 2.95319890976 -213.817871094
endloop
endfacet
facet normal 0.155449196696 -0.987843930721 0.0
outer loop
vertex -12.8733825684 3.43257379532 -213.79788208
vertex -15.9196996689 2.95319890976 -213.79788208
vertex -12.8733825684 3.43257379532 -213.817871094
endloop
endfacet
facet normal 0.189176812768 -0.981943070889 0.0
outer loop
vertex -15.9196996689 2.95319890976 -213.817871094
vertex -18.9478187561 2.36981487274 -213.79788208
vertex -18.9478187561 2.36981487274 -213.817871094
endloop
endfacet
facet normal 0.189176812768 -0.981943070889 0.0
outer loop
vertex -15.9196996689 2.95319890976 -213.79788208
vertex -18.9478187561 2.36981487274 -213.79788208
vertex -15.9196996689 2.95319890976 -213.817871094
endloop
endfacet
facet normal 0.994520485401 0.104541800916 0.0
outer loop
vertex -9.81766700745 3.85710406303 -213.817871094
vertex -9.81243991852 3.80737805367 -213.79788208
vertex -9.81243991852 3.80737805367 -213.817871094
endloop
endfacet
facet normal 0.994520485401 0.104541800916 0.0
outer loop
vertex -9.81766700745 3.85710406303 -213.79788208
vertex -9.81243991852 3.80737805367 -213.79788208
vertex -9.81766700745 3.85710406303 -213.817871094
endloop
endfacet
facet normal 0.0 0.0 1.0
outer loop
vertex -15.9196996689 2.95319890976 -213.79788208
vertex -15.9283161163 3.00245070457 -213.79788208
vertex -18.9478187561 2.36981487274 -213.79788208
endloop
endfacet
facet normal 0.0 -0.0 1.0
outer loop
vertex -18.9478187561 2.36981487274 -213.79788208
vertex -15.9283161163 3.00245070457 -213.79788208
vertex -18.9581165314 2.41874289513 -213.79788208
endloop
endfacet
facet normal 0.0 0.0 1.0
outer loop
vertex -12.8733825684 3.43257379532 -213.79788208
vertex -12.8803081512 3.48209190369 -213.79788208
vertex -15.9196996689 2.95319890976 -213.79788208
endloop
endfacet
facet normal 0.0 -0.0 1.0
outer loop
vertex -15.9196996689 2.95319890976 -213.79788208
vertex -12.8803081512 3.48209190369 -213.79788208
vertex -15.9283161163 3.00245070457 -213.79788208
endloop
endfacet
facet normal 0.0 -0.0 1.0
outer loop
vertex -12.8733825684 3.43257379532 -213.79788208
vertex -9.81243991852 3.80737805367 -213.79788208
vertex -12.8803081512 3.48209190369 -213.79788208
endloop
endfacet
facet normal 0.0 0.0 1.0
outer loop
vertex -9.81243991852 3.80737805367 -213.79788208
vertex -9.81766700745 3.85710406303 -213.79788208
vertex -12.8803081512 3.48209190369 -213.79788208
endloop
endfacet
facet normal 0.0 -0.0 -1.0
outer loop
vertex -15.9283161163 3.00245070457 -213.817871094
vertex -15.9196996689 2.95319890976 -213.817871094
vertex -18.9478187561 2.36981487274 -213.817871094
endloop
endfacet
facet normal 0.0 0.0 -1.0
outer loop
vertex -15.9283161163 3.00245070457 -213.817871094
vertex -18.9478187561 2.36981487274 -213.817871094
vertex -18.9581165314 2.41874289513 -213.817871094
endloop
endfacet
facet normal 0.0 -0.0 -1.0
outer loop
vertex -12.8803081512 3.48209190369 -213.817871094
vertex -12.8733825684 3.43257379532 -213.817871094
vertex -15.9196996689 2.95319890976 -213.817871094
endloop
endfacet
facet normal 0.0 0.0 -1.0
outer loop
vertex -12.8803081512 3.48209190369 -213.817871094
vertex -15.9196996689 2.95319890976 -213.817871094
vertex -15.9283161163 3.00245070457 -213.817871094
endloop
endfacet
facet normal 0.0 -0.0 -1.0
outer loop
vertex -9.81766700745 3.85710406303 -213.817871094
vertex -9.81243991852 3.80737805367 -213.817871094
vertex -12.8733825684 3.43257379532 -213.817871094
endloop
endfacet
facet normal 0.0 0.0 -1.0
outer loop
vertex -9.81766700745 3.85710406303 -213.817871094
vertex -12.8733825684 3.43257379532 -213.817871094
vertex -12.8803081512 3.48209190369 -213.817871094
endloop
endfacet
