solid 
facet normal -0.121539406478 -0.992586612701 0.0
outer loop
vertex -9.81765460968 -3.85710525513 -266.556915283
vertex -9.81765460968 -3.85710525513 -266.536895752
vertex -12.8802957535 -3.48209357262 -266.536895752
endloop
endfacet
facet normal -0.155449002981 -0.987843930721 0.0
outer loop
vertex -12.8802957535 -3.48209357262 -266.556915283
vertex -12.8802957535 -3.48209357262 -266.536895752
vertex -15.9283046722 -3.00245308876 -266.536895752
endloop
endfacet
facet normal -0.121539406478 -0.992586612701 0.0
outer loop
vertex -12.8802957535 -3.48209357262 -266.556915283
vertex -9.81765460968 -3.85710525513 -266.556915283
vertex -12.8802957535 -3.48209357262 -266.536895752
endloop
endfacet
facet normal -0.189176619053 -0.981943070889 0.0
outer loop
vertex -15.9283046722 -3.00245308876 -266.556915283
vertex -15.9283046722 -3.00245308876 -266.536895752
vertex -18.9581050873 -2.41874575615 -266.536895752
endloop
endfacet
facet normal -0.155449002981 -0.987843930721 0.0
outer loop
vertex -15.9283046722 -3.00245308876 -266.556915283
vertex -12.8802957535 -3.48209357262 -266.556915283
vertex -15.9283046722 -3.00245308876 -266.536895752
endloop
endfacet
facet normal -0.189176619053 -0.981943070889 0.0
outer loop
vertex -18.9581050873 -2.41874575615 -266.556915283
vertex -15.9283046722 -3.00245308876 -266.556915283
vertex -18.9581050873 -2.41874575615 -266.536895752
endloop
endfacet
facet normal -0.978561282158 0.205955684185 0.0
outer loop
vertex -18.9581050873 -2.41874575615 -266.556915283
vertex -18.947807312 -2.36981773376 -266.536895752
vertex -18.947807312 -2.36981773376 -266.556915283
endloop
endfacet
facet normal -0.978561282158 0.205955684185 0.0
outer loop
vertex -18.9581050873 -2.41874575615 -266.536895752
vertex -18.947807312 -2.36981773376 -266.536895752
vertex -18.9581050873 -2.41874575615 -266.556915283
endloop
endfacet
facet normal 0.121539354324 0.992586612701 0.0
outer loop
vertex -9.81242752075 -3.80737900734 -266.536895752
vertex -12.8733701706 -3.43257546425 -266.556915283
vertex -12.8733701706 -3.43257546425 -266.536895752
endloop
endfacet
facet normal 0.155449032784 0.987843871117 0.0
outer loop
vertex -12.8733701706 -3.43257546425 -266.536895752
vertex -12.8733701706 -3.43257546425 -266.556915283
vertex -15.9196872711 -2.95320105553 -266.536895752
endloop
endfacet
facet normal 0.121539354324 0.992586612701 -0.0
outer loop
vertex -9.81242752075 -3.80737900734 -266.556915283
vertex -12.8733701706 -3.43257546425 -266.556915283
vertex -9.81242752075 -3.80737900734 -266.536895752
endloop
endfacet
facet normal 0.189176529646 0.981943070889 0.0
outer loop
vertex -15.9196872711 -2.95320105553 -266.536895752
vertex -15.9196872711 -2.95320105553 -266.556915283
vertex -18.947807312 -2.36981773376 -266.536895752
endloop
endfacet
facet normal 0.155449032784 0.987843871117 0.0
outer loop
vertex -12.8733701706 -3.43257546425 -266.556915283
vertex -15.9196872711 -2.95320105553 -266.556915283
vertex -15.9196872711 -2.95320105553 -266.536895752
endloop
endfacet
facet normal 0.189176529646 0.981943070889 0.0
outer loop
vertex -15.9196872711 -2.95320105553 -266.556915283
vertex -18.947807312 -2.36981773376 -266.556915283
vertex -18.947807312 -2.36981773376 -266.536895752
endloop
endfacet
facet normal 0.99452060461 -0.104541316628 0.0
outer loop
vertex -9.81242752075 -3.80737900734 -266.556915283
vertex -9.81765460968 -3.85710525513 -266.536895752
vertex -9.81765460968 -3.85710525513 -266.556915283
endloop
endfacet
facet normal 0.99452060461 -0.104541316628 0.0
outer loop
vertex -9.81242752075 -3.80737900734 -266.536895752
vertex -9.81765460968 -3.85710525513 -266.536895752
vertex -9.81242752075 -3.80737900734 -266.556915283
endloop
endfacet
facet normal 0.0 -0.0 1.0
outer loop
vertex -15.9283046722 -3.00245308876 -266.536895752
vertex -15.9196872711 -2.95320105553 -266.536895752
vertex -18.947807312 -2.36981773376 -266.536895752
endloop
endfacet
facet normal 0.0 0.0 1.0
outer loop
vertex -15.9283046722 -3.00245308876 -266.536895752
vertex -18.947807312 -2.36981773376 -266.536895752
vertex -18.9581050873 -2.41874575615 -266.536895752
endloop
endfacet
facet normal 0.0 -0.0 1.0
outer loop
vertex -12.8802957535 -3.48209357262 -266.536895752
vertex -12.8733701706 -3.43257546425 -266.536895752
vertex -15.9196872711 -2.95320105553 -266.536895752
endloop
endfacet
facet normal 0.0 0.0 1.0
outer loop
vertex -12.8802957535 -3.48209357262 -266.536895752
vertex -15.9196872711 -2.95320105553 -266.536895752
vertex -15.9283046722 -3.00245308876 -266.536895752
endloop
endfacet
facet normal 0.0 -0.0 1.0
outer loop
vertex -9.81765460968 -3.85710525513 -266.536895752
vertex -9.81242752075 -3.80737900734 -266.536895752
vertex -12.8733701706 -3.43257546425 -266.536895752
endloop
endfacet
facet normal 0.0 0.0 1.0
outer loop
vertex -9.81765460968 -3.85710525513 -266.536895752
vertex -12.8733701706 -3.43257546425 -266.536895752
vertex -12.8802957535 -3.48209357262 -266.536895752
endloop
endfacet
facet normal -0.0 0.0 -1.0
outer loop
vertex -15.9196872711 -2.95320105553 -266.556915283
vertex -15.9283046722 -3.00245308876 -266.556915283
vertex -18.947807312 -2.36981773376 -266.556915283
endloop
endfacet
facet normal 0.0 -0.0 -1.0
outer loop
vertex -18.947807312 -2.36981773376 -266.556915283
vertex -15.9283046722 -3.00245308876 -266.556915283
vertex -18.9581050873 -2.41874575615 -266.556915283
endloop
endfacet
facet normal -0.0 0.0 -1.0
outer loop
vertex -12.8733701706 -3.43257546425 -266.556915283
vertex -12.8802957535 -3.48209357262 -266.556915283
vertex -15.9196872711 -2.95320105553 -266.556915283
endloop
endfacet
facet normal 0.0 -0.0 -1.0
outer loop
vertex -15.9196872711 -2.95320105553 -266.556915283
vertex -12.8802957535 -3.48209357262 -266.556915283
vertex -15.9283046722 -3.00245308876 -266.556915283
endloop
endfacet
facet normal -0.0 0.0 -1.0
outer loop
vertex -9.81242752075 -3.80737900734 -266.556915283
vertex -9.81765460968 -3.85710525513 -266.556915283
vertex -12.8733701706 -3.43257546425 -266.556915283
endloop
endfacet
facet normal 0.0 -0.0 -1.0
outer loop
vertex -12.8733701706 -3.43257546425 -266.556915283
vertex -9.81765460968 -3.85710525513 -266.556915283
vertex -12.8802957535 -3.48209357262 -266.556915283
endloop
endfacet
