solid 
facet normal 0.0191152691841 -0.999817311764 0.0
outer loop
vertex 3.66285157204 -4.29160642624 -313.459899902
vertex 0.577899456024 -4.35058689117 -313.459899902
vertex 0.577899456024 -4.35058689117 -313.479919434
endloop
endfacet
facet normal 0.0191152691841 -0.999817311764 0.0
outer loop
vertex 3.66285157204 -4.29160642624 -313.459899902
vertex 0.577899456024 -4.35058689117 -313.479919434
vertex 3.66285157204 -4.29160642624 -313.479919434
endloop
endfacet
facet normal 0.0533325485885 -0.998576819897 0.0
outer loop
vertex 6.74397611618 -4.12704801559 -313.459899902
vertex 3.66285157204 -4.29160642624 -313.479919434
vertex 6.74397611618 -4.12704801559 -313.479919434
endloop
endfacet
facet normal 0.08748729527 -0.996165633202 0.0
outer loop
vertex 6.74397611618 -4.12704801559 -313.459899902
vertex 6.74397611618 -4.12704801559 -313.479919434
vertex 9.8176612854 -3.85710453987 -313.479919434
endloop
endfacet
facet normal 0.0533325485885 -0.998576819897 0.0
outer loop
vertex 6.74397611618 -4.12704801559 -313.459899902
vertex 3.66285157204 -4.29160642624 -313.459899902
vertex 3.66285157204 -4.29160642624 -313.479919434
endloop
endfacet
facet normal 0.08748729527 -0.996165633202 0.0
outer loop
vertex 9.8176612854 -3.85710453987 -313.459899902
vertex 6.74397611618 -4.12704801559 -313.459899902
vertex 9.8176612854 -3.85710453987 -313.479919434
endloop
endfacet
facet normal 0.99452239275 0.104522936046 0.0
outer loop
vertex 9.81243515015 -3.8073785305 -313.479919434
vertex 9.8176612854 -3.85710453987 -313.459899902
vertex 9.8176612854 -3.85710453987 -313.479919434
endloop
endfacet
facet normal 0.99452239275 0.104522936046 0.0
outer loop
vertex 9.81243515015 -3.8073785305 -313.459899902
vertex 9.8176612854 -3.85710453987 -313.459899902
vertex 9.81243515015 -3.8073785305 -313.479919434
endloop
endfacet
facet normal -0.0191153660417 0.999817311764 0.0
outer loop
vertex 0.577799677849 -4.30058717728 -313.479919434
vertex 0.577799677849 -4.30058717728 -313.459899902
vertex 3.66104006767 -4.24163913727 -313.479919434
endloop
endfacet
facet normal -0.0191153660417 0.999817311764 0.0
outer loop
vertex 0.577799677849 -4.30058717728 -313.459899902
vertex 3.66104006767 -4.24163913727 -313.459899902
vertex 3.66104006767 -4.24163913727 -313.479919434
endloop
endfacet
facet normal -0.0533324629068 0.998576819897 0.0
outer loop
vertex 3.66104006767 -4.24163913727 -313.479919434
vertex 6.7404551506 -4.07717227936 -313.459899902
vertex 6.7404551506 -4.07717227936 -313.479919434
endloop
endfacet
facet normal -0.0533324629068 0.998576819897 0.0
outer loop
vertex 3.66104006767 -4.24163913727 -313.459899902
vertex 6.7404551506 -4.07717227936 -313.459899902
vertex 3.66104006767 -4.24163913727 -313.479919434
endloop
endfacet
facet normal -0.0874873027205 0.996165633202 0.0
outer loop
vertex 6.7404551506 -4.07717227936 -313.479919434
vertex 9.81243515015 -3.8073785305 -313.459899902
vertex 9.81243515015 -3.8073785305 -313.479919434
endloop
endfacet
facet normal -0.0874873027205 0.996165633202 0.0
outer loop
vertex 6.7404551506 -4.07717227936 -313.459899902
vertex 9.81243515015 -3.8073785305 -313.459899902
vertex 6.7404551506 -4.07717227936 -313.479919434
endloop
endfacet
facet normal -0.999998033047 -0.00199557095766 0.0
outer loop
vertex 0.577899456024 -4.35058689117 -313.479919434
vertex 0.577799677849 -4.30058717728 -313.459899902
vertex 0.577799677849 -4.30058717728 -313.479919434
endloop
endfacet
facet normal -0.999998033047 -0.00199557095766 -0.0
outer loop
vertex 0.577899456024 -4.35058689117 -313.459899902
vertex 0.577799677849 -4.30058717728 -313.459899902
vertex 0.577899456024 -4.35058689117 -313.479919434
endloop
endfacet
facet normal 0.0 0.0 1.0
outer loop
vertex 9.81243515015 -3.8073785305 -313.459899902
vertex 6.7404551506 -4.07717227936 -313.459899902
vertex 9.8176612854 -3.85710453987 -313.459899902
endloop
endfacet
facet normal -0.0 0.0 1.0
outer loop
vertex 6.7404551506 -4.07717227936 -313.459899902
vertex 6.74397611618 -4.12704801559 -313.459899902
vertex 9.8176612854 -3.85710453987 -313.459899902
endloop
endfacet
facet normal 0.0 0.0 1.0
outer loop
vertex 6.7404551506 -4.07717227936 -313.459899902
vertex 3.66104006767 -4.24163913727 -313.459899902
vertex 6.74397611618 -4.12704801559 -313.459899902
endloop
endfacet
facet normal -0.0 0.0 1.0
outer loop
vertex 3.66104006767 -4.24163913727 -313.459899902
vertex 3.66285157204 -4.29160642624 -313.459899902
vertex 6.74397611618 -4.12704801559 -313.459899902
endloop
endfacet
facet normal 0.0 0.0 1.0
outer loop
vertex 3.66104006767 -4.24163913727 -313.459899902
vertex 0.577799677849 -4.30058717728 -313.459899902
vertex 3.66285157204 -4.29160642624 -313.459899902
endloop
endfacet
facet normal -0.0 0.0 1.0
outer loop
vertex 0.577799677849 -4.30058717728 -313.459899902
vertex 0.577899456024 -4.35058689117 -313.459899902
vertex 3.66285157204 -4.29160642624 -313.459899902
endloop
endfacet
facet normal 0.0 0.0 -1.0
outer loop
vertex 6.7404551506 -4.07717227936 -313.479919434
vertex 9.81243515015 -3.8073785305 -313.479919434
vertex 9.8176612854 -3.85710453987 -313.479919434
endloop
endfacet
facet normal 0.0 0.0 -1.0
outer loop
vertex 6.74397611618 -4.12704801559 -313.479919434
vertex 6.7404551506 -4.07717227936 -313.479919434
vertex 9.8176612854 -3.85710453987 -313.479919434
endloop
endfacet
facet normal 0.0 0.0 -1.0
outer loop
vertex 3.66285157204 -4.29160642624 -313.479919434
vertex 3.66104006767 -4.24163913727 -313.479919434
vertex 6.7404551506 -4.07717227936 -313.479919434
endloop
endfacet
facet normal 0.0 0.0 -1.0
outer loop
vertex 3.66285157204 -4.29160642624 -313.479919434
vertex 6.7404551506 -4.07717227936 -313.479919434
vertex 6.74397611618 -4.12704801559 -313.479919434
endloop
endfacet
facet normal 0.0 0.0 -1.0
outer loop
vertex 0.577899456024 -4.35058689117 -313.479919434
vertex 0.577799677849 -4.30058717728 -313.479919434
vertex 3.66104006767 -4.24163913727 -313.479919434
endloop
endfacet
facet normal 0.0 0.0 -1.0
outer loop
vertex 0.577899456024 -4.35058689117 -313.479919434
vertex 3.66104006767 -4.24163913727 -313.479919434
vertex 3.66285157204 -4.29160642624 -313.479919434
endloop
endfacet
