solid 
facet normal -0.0191151145846 0.999817311764 0.0
outer loop
vertex -3.66283559799 4.29160642624 -349.27456665
vertex -0.577883422375 4.35058641434 -349.27456665
vertex -0.577883422375 4.35058641434 -349.294586182
endloop
endfacet
facet normal -0.0191151145846 0.999817311764 0.0
outer loop
vertex -3.66283559799 4.29160642624 -349.27456665
vertex -0.577883422375 4.35058641434 -349.294586182
vertex -3.66283559799 4.29160642624 -349.294586182
endloop
endfacet
facet normal -0.053332388401 0.998576819897 0.0
outer loop
vertex -6.74396038055 4.12704849243 -349.27456665
vertex -3.66283559799 4.29160642624 -349.294586182
vertex -6.74396038055 4.12704849243 -349.294586182
endloop
endfacet
facet normal -0.0874870866537 0.996165633202 0.0
outer loop
vertex -6.74396038055 4.12704849243 -349.27456665
vertex -6.74396038055 4.12704849243 -349.294586182
vertex -9.81764507294 3.85710573196 -349.294586182
endloop
endfacet
facet normal -0.053332388401 0.998576819897 0.0
outer loop
vertex -6.74396038055 4.12704849243 -349.27456665
vertex -3.66283559799 4.29160642624 -349.27456665
vertex -3.66283559799 4.29160642624 -349.294586182
endloop
endfacet
facet normal -0.0874870866537 0.996165633202 0.0
outer loop
vertex -9.81764507294 3.85710573196 -349.27456665
vertex -6.74396038055 4.12704849243 -349.27456665
vertex -9.81764507294 3.85710573196 -349.294586182
endloop
endfacet
facet normal -0.99452239275 -0.104522936046 0.0
outer loop
vertex -9.81241893768 3.8073797226 -349.294586182
vertex -9.81764507294 3.85710573196 -349.27456665
vertex -9.81764507294 3.85710573196 -349.294586182
endloop
endfacet
facet normal -0.99452239275 -0.104522936046 -0.0
outer loop
vertex -9.81241893768 3.8073797226 -349.27456665
vertex -9.81764507294 3.85710573196 -349.27456665
vertex -9.81241893768 3.8073797226 -349.294586182
endloop
endfacet
facet normal 0.0191152114421 -0.999817311764 0.0
outer loop
vertex -0.577783644199 4.30058670044 -349.294586182
vertex -0.577783644199 4.30058670044 -349.27456665
vertex -3.66102409363 4.24163913727 -349.294586182
endloop
endfacet
facet normal 0.0191152114421 -0.999817311764 0.0
outer loop
vertex -0.577783644199 4.30058670044 -349.27456665
vertex -3.66102409363 4.24163913727 -349.27456665
vertex -3.66102409363 4.24163913727 -349.294586182
endloop
endfacet
facet normal 0.0533323064446 -0.998576819897 0.0
outer loop
vertex -3.66102409363 4.24163913727 -349.294586182
vertex -6.74043941498 4.0771727562 -349.27456665
vertex -6.74043941498 4.0771727562 -349.294586182
endloop
endfacet
facet normal 0.0533323064446 -0.998576819897 0.0
outer loop
vertex -3.66102409363 4.24163913727 -349.27456665
vertex -6.74043941498 4.0771727562 -349.27456665
vertex -3.66102409363 4.24163913727 -349.294586182
endloop
endfacet
facet normal 0.0874870866537 -0.996165633202 0.0
outer loop
vertex -6.74043941498 4.0771727562 -349.294586182
vertex -9.81241893768 3.8073797226 -349.27456665
vertex -9.81241893768 3.8073797226 -349.294586182
endloop
endfacet
facet normal 0.0874870866537 -0.996165633202 0.0
outer loop
vertex -6.74043941498 4.0771727562 -349.27456665
vertex -9.81241893768 3.8073797226 -349.27456665
vertex -6.74043941498 4.0771727562 -349.294586182
endloop
endfacet
facet normal 0.999998033047 0.00199557095766 0.0
outer loop
vertex -0.577883422375 4.35058641434 -349.27456665
vertex -0.577783644199 4.30058670044 -349.27456665
vertex -0.577783644199 4.30058670044 -349.294586182
endloop
endfacet
facet normal 0.999998033047 0.00199557095766 0.0
outer loop
vertex -0.577883422375 4.35058641434 -349.27456665
vertex -0.577783644199 4.30058670044 -349.294586182
vertex -0.577883422375 4.35058641434 -349.294586182
endloop
endfacet
facet normal 0.0 -0.0 1.0
outer loop
vertex -9.81241893768 3.8073797226 -349.27456665
vertex -6.74043941498 4.0771727562 -349.27456665
vertex -9.81764507294 3.85710573196 -349.27456665
endloop
endfacet
facet normal 0.0 0.0 1.0
outer loop
vertex -6.74043941498 4.0771727562 -349.27456665
vertex -6.74396038055 4.12704849243 -349.27456665
vertex -9.81764507294 3.85710573196 -349.27456665
endloop
endfacet
facet normal 0.0 -0.0 1.0
outer loop
vertex -6.74043941498 4.0771727562 -349.27456665
vertex -3.66102409363 4.24163913727 -349.27456665
vertex -6.74396038055 4.12704849243 -349.27456665
endloop
endfacet
facet normal 0.0 0.0 1.0
outer loop
vertex -3.66102409363 4.24163913727 -349.27456665
vertex -3.66283559799 4.29160642624 -349.27456665
vertex -6.74396038055 4.12704849243 -349.27456665
endloop
endfacet
facet normal 0.0 -0.0 1.0
outer loop
vertex -3.66102409363 4.24163913727 -349.27456665
vertex -0.577783644199 4.30058670044 -349.27456665
vertex -3.66283559799 4.29160642624 -349.27456665
endloop
endfacet
facet normal 0.0 0.0 1.0
outer loop
vertex -0.577783644199 4.30058670044 -349.27456665
vertex -0.577883422375 4.35058641434 -349.27456665
vertex -3.66283559799 4.29160642624 -349.27456665
endloop
endfacet
facet normal 0.0 -0.0 -1.0
outer loop
vertex -6.74396038055 4.12704849243 -349.294586182
vertex -6.74043941498 4.0771727562 -349.294586182
vertex -9.81241893768 3.8073797226 -349.294586182
endloop
endfacet
facet normal 0.0 0.0 -1.0
outer loop
vertex -6.74396038055 4.12704849243 -349.294586182
vertex -9.81241893768 3.8073797226 -349.294586182
vertex -9.81764507294 3.85710573196 -349.294586182
endloop
endfacet
facet normal 0.0 -0.0 -1.0
outer loop
vertex -3.66283559799 4.29160642624 -349.294586182
vertex -3.66102409363 4.24163913727 -349.294586182
vertex -6.74043941498 4.0771727562 -349.294586182
endloop
endfacet
facet normal 0.0 0.0 -1.0
outer loop
vertex -3.66283559799 4.29160642624 -349.294586182
vertex -6.74043941498 4.0771727562 -349.294586182
vertex -6.74396038055 4.12704849243 -349.294586182
endloop
endfacet
facet normal 0.0 -0.0 -1.0
outer loop
vertex -0.577883422375 4.35058641434 -349.294586182
vertex -0.577783644199 4.30058670044 -349.294586182
vertex -3.66102409363 4.24163913727 -349.294586182
endloop
endfacet
facet normal 0.0 0.0 -1.0
outer loop
vertex -0.577883422375 4.35058641434 -349.294586182
vertex -3.66102409363 4.24163913727 -349.294586182
vertex -3.66283559799 4.29160642624 -349.294586182
endloop
endfacet
