solid 
facet normal 0.121539518237 -0.992586612701 0.0
outer loop
vertex 9.81766700745 -3.85710382462 221.482788086
vertex 9.81766700745 -3.85710382462 221.462783813
vertex 12.8803091049 -3.48209166527 221.462783813
endloop
endfacet
facet normal 0.155449271202 -0.987843871117 0.0
outer loop
vertex 12.8803091049 -3.48209166527 221.482788086
vertex 12.8803091049 -3.48209166527 221.462783813
vertex 15.92831707 -3.00245046616 221.462783813
endloop
endfacet
facet normal 0.121539518237 -0.992586612701 0.0
outer loop
vertex 12.8803091049 -3.48209166527 221.482788086
vertex 9.81766700745 -3.85710382462 221.482788086
vertex 12.8803091049 -3.48209166527 221.462783813
endloop
endfacet
facet normal 0.155449271202 -0.987843871117 0.0
outer loop
vertex 15.92831707 -3.00245046616 221.482788086
vertex 12.8803091049 -3.48209166527 221.482788086
vertex 15.92831707 -3.00245046616 221.462783813
endloop
endfacet
facet normal 0.189176619053 -0.981943070889 0.0
outer loop
vertex 18.9581184387 -2.41874289513 221.482788086
vertex 15.92831707 -3.00245046616 221.462783813
vertex 18.9581184387 -2.41874289513 221.462783813
endloop
endfacet
facet normal 0.189176619053 -0.981943070889 0.0
outer loop
vertex 18.9581184387 -2.41874289513 221.482788086
vertex 15.92831707 -3.00245046616 221.482788086
vertex 15.92831707 -3.00245046616 221.462783813
endloop
endfacet
facet normal 0.978553712368 0.205992221832 -0.0
outer loop
vertex 18.9581184387 -2.41874289513 221.462783813
vertex 18.9478187561 -2.36981487274 221.482788086
vertex 18.9581184387 -2.41874289513 221.482788086
endloop
endfacet
facet normal 0.978553712368 0.205992221832 0.0
outer loop
vertex 18.9581184387 -2.41874289513 221.462783813
vertex 18.9478187561 -2.36981487274 221.462783813
vertex 18.9478187561 -2.36981487274 221.482788086
endloop
endfacet
facet normal -0.121539540589 0.992586612701 0.0
outer loop
vertex 9.81244087219 -3.80737781525 221.462783813
vertex 9.81244087219 -3.80737781525 221.482788086
vertex 12.8733825684 -3.43257379532 221.462783813
endloop
endfacet
facet normal -0.155449286103 0.987843871117 0.0
outer loop
vertex 12.8733825684 -3.43257379532 221.462783813
vertex 12.8733825684 -3.43257379532 221.482788086
vertex 15.9196996689 -2.95319867134 221.462783813
endloop
endfacet
facet normal -0.121539540589 0.992586612701 0.0
outer loop
vertex 9.81244087219 -3.80737781525 221.482788086
vertex 12.8733825684 -3.43257379532 221.482788086
vertex 12.8733825684 -3.43257379532 221.462783813
endloop
endfacet
facet normal -0.155449286103 0.987843871117 0.0
outer loop
vertex 12.8733825684 -3.43257379532 221.482788086
vertex 15.9196996689 -2.95319867134 221.482788086
vertex 15.9196996689 -2.95319867134 221.462783813
endloop
endfacet
facet normal -0.189176738262 0.981943070889 0.0
outer loop
vertex 15.9196996689 -2.95319867134 221.462783813
vertex 18.9478187561 -2.36981487274 221.482788086
vertex 18.9478187561 -2.36981487274 221.462783813
endloop
endfacet
facet normal -0.189176738262 0.981943070889 0.0
outer loop
vertex 15.9196996689 -2.95319867134 221.482788086
vertex 18.9478187561 -2.36981487274 221.482788086
vertex 15.9196996689 -2.95319867134 221.462783813
endloop
endfacet
facet normal -0.994522511959 -0.104522958398 0.0
outer loop
vertex 9.81244087219 -3.80737781525 221.482788086
vertex 9.81766700745 -3.85710382462 221.462783813
vertex 9.81766700745 -3.85710382462 221.482788086
endloop
endfacet
facet normal -0.994522511959 -0.104522958398 0.0
outer loop
vertex 9.81244087219 -3.80737781525 221.462783813
vertex 9.81766700745 -3.85710382462 221.462783813
vertex 9.81244087219 -3.80737781525 221.482788086
endloop
endfacet
facet normal 0.0 0.0 -1.0
outer loop
vertex 15.9196996689 -2.95319867134 221.462783813
vertex 18.9478187561 -2.36981487274 221.462783813
vertex 18.9581184387 -2.41874289513 221.462783813
endloop
endfacet
facet normal 0.0 0.0 -1.0
outer loop
vertex 15.92831707 -3.00245046616 221.462783813
vertex 15.9196996689 -2.95319867134 221.462783813
vertex 18.9581184387 -2.41874289513 221.462783813
endloop
endfacet
facet normal 0.0 0.0 -1.0
outer loop
vertex 12.8733825684 -3.43257379532 221.462783813
vertex 15.9196996689 -2.95319867134 221.462783813
vertex 15.92831707 -3.00245046616 221.462783813
endloop
endfacet
facet normal 0.0 0.0 -1.0
outer loop
vertex 12.8803091049 -3.48209166527 221.462783813
vertex 12.8733825684 -3.43257379532 221.462783813
vertex 15.92831707 -3.00245046616 221.462783813
endloop
endfacet
facet normal 0.0 0.0 -1.0
outer loop
vertex 9.81244087219 -3.80737781525 221.462783813
vertex 12.8733825684 -3.43257379532 221.462783813
vertex 12.8803091049 -3.48209166527 221.462783813
endloop
endfacet
facet normal 0.0 0.0 -1.0
outer loop
vertex 9.81766700745 -3.85710382462 221.462783813
vertex 9.81244087219 -3.80737781525 221.462783813
vertex 12.8803091049 -3.48209166527 221.462783813
endloop
endfacet
facet normal 0.0 0.0 1.0
outer loop
vertex 18.9478187561 -2.36981487274 221.482788086
vertex 15.9196996689 -2.95319867134 221.482788086
vertex 18.9581184387 -2.41874289513 221.482788086
endloop
endfacet
facet normal -0.0 0.0 1.0
outer loop
vertex 15.9196996689 -2.95319867134 221.482788086
vertex 15.92831707 -3.00245046616 221.482788086
vertex 18.9581184387 -2.41874289513 221.482788086
endloop
endfacet
facet normal 0.0 0.0 1.0
outer loop
vertex 15.9196996689 -2.95319867134 221.482788086
vertex 12.8733825684 -3.43257379532 221.482788086
vertex 15.92831707 -3.00245046616 221.482788086
endloop
endfacet
facet normal -0.0 0.0 1.0
outer loop
vertex 12.8733825684 -3.43257379532 221.482788086
vertex 12.8803091049 -3.48209166527 221.482788086
vertex 15.92831707 -3.00245046616 221.482788086
endloop
endfacet
facet normal -0.0 0.0 1.0
outer loop
vertex 9.81244087219 -3.80737781525 221.482788086
vertex 9.81766700745 -3.85710382462 221.482788086
vertex 12.8733825684 -3.43257379532 221.482788086
endloop
endfacet
facet normal 0.0 0.0 1.0
outer loop
vertex 12.8733825684 -3.43257379532 221.482788086
vertex 9.81766700745 -3.85710382462 221.482788086
vertex 12.8803091049 -3.48209166527 221.482788086
endloop
endfacet
