solid 
facet normal 0.0191152691841 -0.999817311764 0.0
outer loop
vertex 0.577899217606 -4.35058689117 -320.701904297
vertex 0.577899217606 -4.35058689117 -320.721923828
vertex 3.66285133362 -4.29160642624 -320.721923828
endloop
endfacet
facet normal 0.0191152691841 -0.999817311764 0.0
outer loop
vertex 3.66285133362 -4.29160642624 -320.701904297
vertex 0.577899217606 -4.35058689117 -320.701904297
vertex 3.66285133362 -4.29160642624 -320.721923828
endloop
endfacet
facet normal 0.0533325411379 -0.998576819897 0.0
outer loop
vertex 6.74397611618 -4.12704801559 -320.701904297
vertex 3.66285133362 -4.29160642624 -320.721923828
vertex 6.74397611618 -4.12704801559 -320.721923828
endloop
endfacet
facet normal 0.0533325411379 -0.998576819897 0.0
outer loop
vertex 6.74397611618 -4.12704801559 -320.701904297
vertex 3.66285133362 -4.29160642624 -320.701904297
vertex 3.66285133362 -4.29160642624 -320.721923828
endloop
endfacet
facet normal 0.08748729527 -0.996165633202 0.0
outer loop
vertex 9.8176612854 -3.85710453987 -320.701904297
vertex 6.74397611618 -4.12704801559 -320.721923828
vertex 9.8176612854 -3.85710453987 -320.721923828
endloop
endfacet
facet normal 0.08748729527 -0.996165633202 0.0
outer loop
vertex 9.8176612854 -3.85710453987 -320.701904297
vertex 6.74397611618 -4.12704801559 -320.701904297
vertex 6.74397611618 -4.12704801559 -320.721923828
endloop
endfacet
facet normal 0.994520425797 0.104541808367 0.0
outer loop
vertex 9.81243419647 -3.8073785305 -320.701904297
vertex 9.8176612854 -3.85710453987 -320.701904297
vertex 9.8176612854 -3.85710453987 -320.721923828
endloop
endfacet
facet normal 0.994520425797 0.104541808367 0.0
outer loop
vertex 9.81243419647 -3.8073785305 -320.701904297
vertex 9.8176612854 -3.85710453987 -320.721923828
vertex 9.81243419647 -3.8073785305 -320.721923828
endloop
endfacet
facet normal -0.0191152114421 0.999817311764 0.0
outer loop
vertex 0.57779943943 -4.30058717728 -320.721923828
vertex 0.57779943943 -4.30058717728 -320.701904297
vertex 3.66103982925 -4.24163961411 -320.721923828
endloop
endfacet
facet normal -0.0191152114421 0.999817311764 0.0
outer loop
vertex 0.57779943943 -4.30058717728 -320.701904297
vertex 3.66103982925 -4.24163961411 -320.701904297
vertex 3.66103982925 -4.24163961411 -320.721923828
endloop
endfacet
facet normal -0.0533326119184 0.998576760292 0.0
outer loop
vertex 3.66103982925 -4.24163961411 -320.721923828
vertex 6.7404551506 -4.07717227936 -320.701904297
vertex 6.7404551506 -4.07717227936 -320.721923828
endloop
endfacet
facet normal -0.0533326119184 0.998576760292 0.0
outer loop
vertex 3.66103982925 -4.24163961411 -320.701904297
vertex 6.7404551506 -4.07717227936 -320.701904297
vertex 3.66103982925 -4.24163961411 -320.721923828
endloop
endfacet
facet normal -0.0874873325229 0.996165633202 0.0
outer loop
vertex 6.7404551506 -4.07717227936 -320.721923828
vertex 9.81243419647 -3.8073785305 -320.701904297
vertex 9.81243419647 -3.8073785305 -320.721923828
endloop
endfacet
facet normal -0.0874873325229 0.996165633202 0.0
outer loop
vertex 6.7404551506 -4.07717227936 -320.701904297
vertex 9.81243419647 -3.8073785305 -320.701904297
vertex 6.7404551506 -4.07717227936 -320.721923828
endloop
endfacet
facet normal -0.999998033047 -0.00199557095766 0.0
outer loop
vertex 0.577899217606 -4.35058689117 -320.721923828
vertex 0.57779943943 -4.30058717728 -320.701904297
vertex 0.57779943943 -4.30058717728 -320.721923828
endloop
endfacet
facet normal -0.999998033047 -0.00199557095766 -0.0
outer loop
vertex 0.577899217606 -4.35058689117 -320.701904297
vertex 0.57779943943 -4.30058717728 -320.701904297
vertex 0.577899217606 -4.35058689117 -320.721923828
endloop
endfacet
facet normal 0.0 0.0 1.0
outer loop
vertex 9.81243419647 -3.8073785305 -320.701904297
vertex 6.7404551506 -4.07717227936 -320.701904297
vertex 9.8176612854 -3.85710453987 -320.701904297
endloop
endfacet
facet normal -0.0 0.0 1.0
outer loop
vertex 6.7404551506 -4.07717227936 -320.701904297
vertex 6.74397611618 -4.12704801559 -320.701904297
vertex 9.8176612854 -3.85710453987 -320.701904297
endloop
endfacet
facet normal 0.0 0.0 1.0
outer loop
vertex 6.7404551506 -4.07717227936 -320.701904297
vertex 3.66103982925 -4.24163961411 -320.701904297
vertex 6.74397611618 -4.12704801559 -320.701904297
endloop
endfacet
facet normal -0.0 0.0 1.0
outer loop
vertex 3.66103982925 -4.24163961411 -320.701904297
vertex 3.66285133362 -4.29160642624 -320.701904297
vertex 6.74397611618 -4.12704801559 -320.701904297
endloop
endfacet
facet normal -0.0 0.0 1.0
outer loop
vertex 0.57779943943 -4.30058717728 -320.701904297
vertex 0.577899217606 -4.35058689117 -320.701904297
vertex 3.66103982925 -4.24163961411 -320.701904297
endloop
endfacet
facet normal 0.0 0.0 1.0
outer loop
vertex 3.66103982925 -4.24163961411 -320.701904297
vertex 0.577899217606 -4.35058689117 -320.701904297
vertex 3.66285133362 -4.29160642624 -320.701904297
endloop
endfacet
facet normal 0.0 0.0 -1.0
outer loop
vertex 6.7404551506 -4.07717227936 -320.721923828
vertex 9.81243419647 -3.8073785305 -320.721923828
vertex 9.8176612854 -3.85710453987 -320.721923828
endloop
endfacet
facet normal 0.0 0.0 -1.0
outer loop
vertex 6.74397611618 -4.12704801559 -320.721923828
vertex 6.7404551506 -4.07717227936 -320.721923828
vertex 9.8176612854 -3.85710453987 -320.721923828
endloop
endfacet
facet normal 0.0 0.0 -1.0
outer loop
vertex 3.66103982925 -4.24163961411 -320.721923828
vertex 6.7404551506 -4.07717227936 -320.721923828
vertex 6.74397611618 -4.12704801559 -320.721923828
endloop
endfacet
facet normal 0.0 0.0 -1.0
outer loop
vertex 3.66285133362 -4.29160642624 -320.721923828
vertex 3.66103982925 -4.24163961411 -320.721923828
vertex 6.74397611618 -4.12704801559 -320.721923828
endloop
endfacet
facet normal 0.0 0.0 -1.0
outer loop
vertex 0.57779943943 -4.30058717728 -320.721923828
vertex 3.66103982925 -4.24163961411 -320.721923828
vertex 3.66285133362 -4.29160642624 -320.721923828
endloop
endfacet
facet normal 0.0 0.0 -1.0
outer loop
vertex 0.577899217606 -4.35058689117 -320.721923828
vertex 0.57779943943 -4.30058717728 -320.721923828
vertex 3.66285133362 -4.29160642624 -320.721923828
endloop
endfacet
