solid 
facet normal 0.121539451182 -0.992586612701 0.0
outer loop
vertex 9.81765937805 -3.85710477829 188.983779907
vertex 9.81765937805 -3.85710477829 188.963790894
vertex 12.8803014755 -3.48209285736 188.963790894
endloop
endfacet
facet normal 0.15544912219 -0.987843930721 0.0
outer loop
vertex 12.8803014755 -3.48209285736 188.983779907
vertex 12.8803014755 -3.48209285736 188.963790894
vertex 15.9283094406 -3.00245213509 188.963790894
endloop
endfacet
facet normal 0.121539451182 -0.992586612701 0.0
outer loop
vertex 12.8803014755 -3.48209285736 188.983779907
vertex 9.81765937805 -3.85710477829 188.983779907
vertex 12.8803014755 -3.48209285736 188.963790894
endloop
endfacet
facet normal 0.15544912219 -0.987843930721 0.0
outer loop
vertex 15.9283094406 -3.00245213509 188.983779907
vertex 12.8803014755 -3.48209285736 188.983779907
vertex 15.9283094406 -3.00245213509 188.963790894
endloop
endfacet
facet normal 0.189176559448 -0.981943070889 0.0
outer loop
vertex 18.9581108093 -2.41874480247 188.983779907
vertex 15.9283094406 -3.00245213509 188.963790894
vertex 18.9581108093 -2.41874480247 188.963790894
endloop
endfacet
facet normal 0.189176559448 -0.981943070889 0.0
outer loop
vertex 18.9581108093 -2.41874480247 188.983779907
vertex 15.9283094406 -3.00245213509 188.983779907
vertex 15.9283094406 -3.00245213509 188.963790894
endloop
endfacet
facet normal 0.978561282158 0.205955669284 0.0
outer loop
vertex 18.9581108093 -2.41874480247 188.983779907
vertex 18.9478130341 -2.36981678009 188.963790894
vertex 18.9478130341 -2.36981678009 188.983779907
endloop
endfacet
facet normal 0.978561282158 0.205955669284 -0.0
outer loop
vertex 18.9581108093 -2.41874480247 188.963790894
vertex 18.9478130341 -2.36981678009 188.963790894
vertex 18.9581108093 -2.41874480247 188.983779907
endloop
endfacet
facet normal -0.12153942138 0.992586612701 0.0
outer loop
vertex 9.8124332428 -3.80737876892 188.963790894
vertex 9.8124332428 -3.80737876892 188.983779907
vertex 12.8733758926 -3.43257498741 188.963790894
endloop
endfacet
facet normal -0.12153942138 0.992586612701 0.0
outer loop
vertex 9.8124332428 -3.80737876892 188.983779907
vertex 12.8733758926 -3.43257498741 188.983779907
vertex 12.8733758926 -3.43257498741 188.963790894
endloop
endfacet
facet normal -0.15544912219 0.987843930721 0.0
outer loop
vertex 12.8733758926 -3.43257498741 188.963790894
vertex 15.9196929932 -2.95320034027 188.983779907
vertex 15.9196929932 -2.95320034027 188.963790894
endloop
endfacet
facet normal -0.189176604152 0.981943070889 0.0
outer loop
vertex 15.9196929932 -2.95320034027 188.963790894
vertex 15.9196929932 -2.95320034027 188.983779907
vertex 18.9478130341 -2.36981678009 188.963790894
endloop
endfacet
facet normal -0.15544912219 0.987843930721 0.0
outer loop
vertex 12.8733758926 -3.43257498741 188.983779907
vertex 15.9196929932 -2.95320034027 188.983779907
vertex 12.8733758926 -3.43257498741 188.963790894
endloop
endfacet
facet normal -0.189176604152 0.981943070889 0.0
outer loop
vertex 15.9196929932 -2.95320034027 188.983779907
vertex 18.9478130341 -2.36981678009 188.983779907
vertex 18.9478130341 -2.36981678009 188.963790894
endloop
endfacet
facet normal -0.994522452354 -0.104522936046 0.0
outer loop
vertex 9.8124332428 -3.80737876892 188.983779907
vertex 9.81765937805 -3.85710477829 188.963790894
vertex 9.81765937805 -3.85710477829 188.983779907
endloop
endfacet
facet normal -0.994522452354 -0.104522936046 0.0
outer loop
vertex 9.8124332428 -3.80737876892 188.963790894
vertex 9.81765937805 -3.85710477829 188.963790894
vertex 9.8124332428 -3.80737876892 188.983779907
endloop
endfacet
facet normal 0.0 0.0 -1.0
outer loop
vertex 15.9196929932 -2.95320034027 188.963790894
vertex 18.9478130341 -2.36981678009 188.963790894
vertex 18.9581108093 -2.41874480247 188.963790894
endloop
endfacet
facet normal 0.0 0.0 -1.0
outer loop
vertex 15.9283094406 -3.00245213509 188.963790894
vertex 15.9196929932 -2.95320034027 188.963790894
vertex 18.9581108093 -2.41874480247 188.963790894
endloop
endfacet
facet normal 0.0 0.0 -1.0
outer loop
vertex 12.8733758926 -3.43257498741 188.963790894
vertex 15.9196929932 -2.95320034027 188.963790894
vertex 15.9283094406 -3.00245213509 188.963790894
endloop
endfacet
facet normal 0.0 0.0 -1.0
outer loop
vertex 12.8803014755 -3.48209285736 188.963790894
vertex 12.8733758926 -3.43257498741 188.963790894
vertex 15.9283094406 -3.00245213509 188.963790894
endloop
endfacet
facet normal 0.0 0.0 -1.0
outer loop
vertex 9.8124332428 -3.80737876892 188.963790894
vertex 12.8733758926 -3.43257498741 188.963790894
vertex 12.8803014755 -3.48209285736 188.963790894
endloop
endfacet
facet normal 0.0 0.0 -1.0
outer loop
vertex 9.81765937805 -3.85710477829 188.963790894
vertex 9.8124332428 -3.80737876892 188.963790894
vertex 12.8803014755 -3.48209285736 188.963790894
endloop
endfacet
facet normal -0.0 0.0 1.0
outer loop
vertex 15.9196929932 -2.95320034027 188.983779907
vertex 15.9283094406 -3.00245213509 188.983779907
vertex 18.9478130341 -2.36981678009 188.983779907
endloop
endfacet
facet normal 0.0 0.0 1.0
outer loop
vertex 18.9478130341 -2.36981678009 188.983779907
vertex 15.9283094406 -3.00245213509 188.983779907
vertex 18.9581108093 -2.41874480247 188.983779907
endloop
endfacet
facet normal -0.0 0.0 1.0
outer loop
vertex 12.8733758926 -3.43257498741 188.983779907
vertex 12.8803014755 -3.48209285736 188.983779907
vertex 15.9196929932 -2.95320034027 188.983779907
endloop
endfacet
facet normal 0.0 0.0 1.0
outer loop
vertex 15.9196929932 -2.95320034027 188.983779907
vertex 12.8803014755 -3.48209285736 188.983779907
vertex 15.9283094406 -3.00245213509 188.983779907
endloop
endfacet
facet normal -0.0 0.0 1.0
outer loop
vertex 9.8124332428 -3.80737876892 188.983779907
vertex 9.81765937805 -3.85710477829 188.983779907
vertex 12.8733758926 -3.43257498741 188.983779907
endloop
endfacet
facet normal 0.0 0.0 1.0
outer loop
vertex 12.8733758926 -3.43257498741 188.983779907
vertex 9.81765937805 -3.85710477829 188.983779907
vertex 12.8803014755 -3.48209285736 188.983779907
endloop
endfacet
