solid 
facet normal -0.0191152691841 -0.999817311764 0.0
outer loop
vertex -3.66285157204 -4.29160642624 -106.246124268
vertex -0.57789939642 -4.35058689117 -106.246124268
vertex -0.57789939642 -4.35058689117 -106.226127625
endloop
endfacet
facet normal -0.0191152691841 -0.999817311764 0.0
outer loop
vertex -3.66285157204 -4.29160642624 -106.246124268
vertex -0.57789939642 -4.35058689117 -106.226127625
vertex -3.66285157204 -4.29160642624 -106.226127625
endloop
endfacet
facet normal -0.0533325411379 -0.998576760292 0.0
outer loop
vertex -6.74397611618 -4.12704801559 -106.246124268
vertex -3.66285157204 -4.29160642624 -106.226127625
vertex -6.74397611618 -4.12704801559 -106.226127625
endloop
endfacet
facet normal -0.0533325411379 -0.998576760292 0.0
outer loop
vertex -6.74397611618 -4.12704801559 -106.246124268
vertex -3.66285157204 -4.29160642624 -106.246124268
vertex -3.66285157204 -4.29160642624 -106.226127625
endloop
endfacet
facet normal -0.0874873772264 -0.996165692806 0.0
outer loop
vertex -9.8176612854 -3.85710430145 -106.246124268
vertex -6.74397611618 -4.12704801559 -106.226127625
vertex -9.8176612854 -3.85710430145 -106.226127625
endloop
endfacet
facet normal -0.0874873772264 -0.996165692806 0.0
outer loop
vertex -9.8176612854 -3.85710430145 -106.246124268
vertex -6.74397611618 -4.12704801559 -106.246124268
vertex -6.74397611618 -4.12704801559 -106.226127625
endloop
endfacet
facet normal -0.994522452354 0.104522943497 0.0
outer loop
vertex -9.8176612854 -3.85710430145 -106.246124268
vertex -9.81243515015 -3.80737829208 -106.226127625
vertex -9.81243515015 -3.80737829208 -106.246124268
endloop
endfacet
facet normal -0.994522452354 0.104522943497 0.0
outer loop
vertex -9.8176612854 -3.85710430145 -106.226127625
vertex -9.81243515015 -3.80737829208 -106.226127625
vertex -9.8176612854 -3.85710430145 -106.246124268
endloop
endfacet
facet normal 0.019115364179 0.999817252159 0.0
outer loop
vertex -0.577799618244 -4.30058717728 -106.226127625
vertex -3.66104006767 -4.24163913727 -106.246124268
vertex -3.66104006767 -4.24163913727 -106.226127625
endloop
endfacet
facet normal 0.019115364179 0.999817252159 -0.0
outer loop
vertex -0.577799618244 -4.30058717728 -106.246124268
vertex -3.66104006767 -4.24163913727 -106.246124268
vertex -0.577799618244 -4.30058717728 -106.226127625
endloop
endfacet
facet normal 0.053332619369 0.998576819897 0.0
outer loop
vertex -3.66104006767 -4.24163913727 -106.226127625
vertex -6.7404551506 -4.07717180252 -106.246124268
vertex -6.7404551506 -4.07717180252 -106.226127625
endloop
endfacet
facet normal 0.0874872282147 0.996165633202 0.0
outer loop
vertex -6.7404551506 -4.07717180252 -106.226127625
vertex -6.7404551506 -4.07717180252 -106.246124268
vertex -9.81243515015 -3.80737829208 -106.226127625
endloop
endfacet
facet normal 0.053332619369 0.998576819897 -0.0
outer loop
vertex -3.66104006767 -4.24163913727 -106.246124268
vertex -6.7404551506 -4.07717180252 -106.246124268
vertex -3.66104006767 -4.24163913727 -106.226127625
endloop
endfacet
facet normal 0.0874872282147 0.996165633202 0.0
outer loop
vertex -6.7404551506 -4.07717180252 -106.246124268
vertex -9.81243515015 -3.80737829208 -106.246124268
vertex -9.81243515015 -3.80737829208 -106.226127625
endloop
endfacet
facet normal 0.999998033047 -0.00199557095766 0.0
outer loop
vertex -0.577799618244 -4.30058717728 -106.226127625
vertex -0.57789939642 -4.35058689117 -106.246124268
vertex -0.577799618244 -4.30058717728 -106.246124268
endloop
endfacet
facet normal 0.999998033047 -0.00199557095766 0.0
outer loop
vertex -0.577799618244 -4.30058717728 -106.226127625
vertex -0.57789939642 -4.35058689117 -106.226127625
vertex -0.57789939642 -4.35058689117 -106.246124268
endloop
endfacet
facet normal 0.0 0.0 1.0
outer loop
vertex -6.7404551506 -4.07717180252 -106.226127625
vertex -9.81243515015 -3.80737829208 -106.226127625
vertex -9.8176612854 -3.85710430145 -106.226127625
endloop
endfacet
facet normal 0.0 -0.0 1.0
outer loop
vertex -6.74397611618 -4.12704801559 -106.226127625
vertex -6.7404551506 -4.07717180252 -106.226127625
vertex -9.8176612854 -3.85710430145 -106.226127625
endloop
endfacet
facet normal 0.0 0.0 1.0
outer loop
vertex -3.66104006767 -4.24163913727 -106.226127625
vertex -6.7404551506 -4.07717180252 -106.226127625
vertex -6.74397611618 -4.12704801559 -106.226127625
endloop
endfacet
facet normal 0.0 -0.0 1.0
outer loop
vertex -3.66285157204 -4.29160642624 -106.226127625
vertex -3.66104006767 -4.24163913727 -106.226127625
vertex -6.74397611618 -4.12704801559 -106.226127625
endloop
endfacet
facet normal 0.0 0.0 1.0
outer loop
vertex -0.577799618244 -4.30058717728 -106.226127625
vertex -3.66104006767 -4.24163913727 -106.226127625
vertex -3.66285157204 -4.29160642624 -106.226127625
endloop
endfacet
facet normal 0.0 -0.0 1.0
outer loop
vertex -0.57789939642 -4.35058689117 -106.226127625
vertex -0.577799618244 -4.30058717728 -106.226127625
vertex -3.66285157204 -4.29160642624 -106.226127625
endloop
endfacet
facet normal -0.0 0.0 -1.0
outer loop
vertex -6.7404551506 -4.07717180252 -106.246124268
vertex -6.74397611618 -4.12704801559 -106.246124268
vertex -9.81243515015 -3.80737829208 -106.246124268
endloop
endfacet
facet normal 0.0 -0.0 -1.0
outer loop
vertex -9.81243515015 -3.80737829208 -106.246124268
vertex -6.74397611618 -4.12704801559 -106.246124268
vertex -9.8176612854 -3.85710430145 -106.246124268
endloop
endfacet
facet normal -0.0 0.0 -1.0
outer loop
vertex -3.66104006767 -4.24163913727 -106.246124268
vertex -3.66285157204 -4.29160642624 -106.246124268
vertex -6.7404551506 -4.07717180252 -106.246124268
endloop
endfacet
facet normal 0.0 -0.0 -1.0
outer loop
vertex -6.7404551506 -4.07717180252 -106.246124268
vertex -3.66285157204 -4.29160642624 -106.246124268
vertex -6.74397611618 -4.12704801559 -106.246124268
endloop
endfacet
facet normal -0.0 0.0 -1.0
outer loop
vertex -0.577799618244 -4.30058717728 -106.246124268
vertex -0.57789939642 -4.35058689117 -106.246124268
vertex -3.66104006767 -4.24163913727 -106.246124268
endloop
endfacet
facet normal 0.0 -0.0 -1.0
outer loop
vertex -3.66104006767 -4.24163913727 -106.246124268
vertex -0.57789939642 -4.35058689117 -106.246124268
vertex -3.66285157204 -4.29160642624 -106.246124268
endloop
endfacet
