solid 
facet normal 0.12153929472 0.992586612701 -0.0
outer loop
vertex 9.81765079498 3.85710549355 40.322303772
vertex 9.81765079498 3.85710549355 40.3423042297
vertex 12.8802928925 3.48209404945 40.3423042297
endloop
endfacet
facet normal 0.155449047685 0.987843930721 -0.0
outer loop
vertex 12.8802928925 3.48209404945 40.322303772
vertex 12.8802928925 3.48209404945 40.3423042297
vertex 15.9283008575 3.0024535656 40.3423042297
endloop
endfacet
facet normal 0.12153929472 0.992586612701 -0.0
outer loop
vertex 12.8802928925 3.48209404945 40.322303772
vertex 9.81765079498 3.85710549355 40.322303772
vertex 12.8802928925 3.48209404945 40.3423042297
endloop
endfacet
facet normal 0.155449047685 0.987843930721 -0.0
outer loop
vertex 15.9283008575 3.0024535656 40.322303772
vertex 12.8802928925 3.48209404945 40.322303772
vertex 15.9283008575 3.0024535656 40.3423042297
endloop
endfacet
facet normal 0.189176529646 0.981943070889 -0.0
outer loop
vertex 18.9581012726 2.41874647141 40.322303772
vertex 15.9283008575 3.0024535656 40.3423042297
vertex 18.9581012726 2.41874647141 40.3423042297
endloop
endfacet
facet normal 0.189176529646 0.981943070889 0.0
outer loop
vertex 18.9581012726 2.41874647141 40.322303772
vertex 15.9283008575 3.0024535656 40.322303772
vertex 15.9283008575 3.0024535656 40.3423042297
endloop
endfacet
facet normal 0.978561282158 -0.205955669284 0.0
outer loop
vertex 18.9478034973 2.36981844902 40.322303772
vertex 18.9581012726 2.41874647141 40.322303772
vertex 18.9581012726 2.41874647141 40.3423042297
endloop
endfacet
facet normal 0.978561282158 -0.205955669284 0.0
outer loop
vertex 18.9478034973 2.36981844902 40.322303772
vertex 18.9581012726 2.41874647141 40.3423042297
vertex 18.9478034973 2.36981844902 40.3423042297
endloop
endfacet
facet normal -0.121539346874 -0.992586612701 -0.0
outer loop
vertex 9.81242465973 3.80737948418 40.3423042297
vertex 9.81242465973 3.80737948418 40.322303772
vertex 12.8733673096 3.43257594109 40.3423042297
endloop
endfacet
facet normal -0.121539346874 -0.992586612701 0.0
outer loop
vertex 9.81242465973 3.80737948418 40.322303772
vertex 12.8733673096 3.43257594109 40.322303772
vertex 12.8733673096 3.43257594109 40.3423042297
endloop
endfacet
facet normal -0.155449017882 -0.987843930721 0.0
outer loop
vertex 12.8733673096 3.43257594109 40.3423042297
vertex 15.9196834564 2.95320177078 40.322303772
vertex 15.9196834564 2.95320177078 40.3423042297
endloop
endfacet
facet normal -0.155449017882 -0.987843930721 0.0
outer loop
vertex 12.8733673096 3.43257594109 40.322303772
vertex 15.9196834564 2.95320177078 40.322303772
vertex 12.8733673096 3.43257594109 40.3423042297
endloop
endfacet
facet normal -0.189176514745 -0.981943070889 0.0
outer loop
vertex 15.9196834564 2.95320177078 40.3423042297
vertex 18.9478034973 2.36981844902 40.322303772
vertex 18.9478034973 2.36981844902 40.3423042297
endloop
endfacet
facet normal -0.189176514745 -0.981943070889 0.0
outer loop
vertex 15.9196834564 2.95320177078 40.322303772
vertex 18.9478034973 2.36981844902 40.322303772
vertex 15.9196834564 2.95320177078 40.3423042297
endloop
endfacet
facet normal -0.994522452354 0.104522936046 0.0
outer loop
vertex 9.81765079498 3.85710549355 40.3423042297
vertex 9.81242465973 3.80737948418 40.322303772
vertex 9.81242465973 3.80737948418 40.3423042297
endloop
endfacet
facet normal -0.994522452354 0.104522936046 0.0
outer loop
vertex 9.81765079498 3.85710549355 40.322303772
vertex 9.81242465973 3.80737948418 40.322303772
vertex 9.81765079498 3.85710549355 40.3423042297
endloop
endfacet
facet normal 0.0 0.0 -1.0
outer loop
vertex 15.9196834564 2.95320177078 40.322303772
vertex 15.9283008575 3.0024535656 40.322303772
vertex 18.9478034973 2.36981844902 40.322303772
endloop
endfacet
facet normal 0.0 0.0 -1.0
outer loop
vertex 18.9478034973 2.36981844902 40.322303772
vertex 15.9283008575 3.0024535656 40.322303772
vertex 18.9581012726 2.41874647141 40.322303772
endloop
endfacet
facet normal 0.0 0.0 -1.0
outer loop
vertex 12.8733673096 3.43257594109 40.322303772
vertex 12.8802928925 3.48209404945 40.322303772
vertex 15.9196834564 2.95320177078 40.322303772
endloop
endfacet
facet normal 0.0 0.0 -1.0
outer loop
vertex 15.9196834564 2.95320177078 40.322303772
vertex 12.8802928925 3.48209404945 40.322303772
vertex 15.9283008575 3.0024535656 40.322303772
endloop
endfacet
facet normal 0.0 0.0 -1.0
outer loop
vertex 12.8733673096 3.43257594109 40.322303772
vertex 9.81242465973 3.80737948418 40.322303772
vertex 12.8802928925 3.48209404945 40.322303772
endloop
endfacet
facet normal 0.0 0.0 -1.0
outer loop
vertex 9.81242465973 3.80737948418 40.322303772
vertex 9.81765079498 3.85710549355 40.322303772
vertex 12.8802928925 3.48209404945 40.322303772
endloop
endfacet
facet normal 0.0 0.0 1.0
outer loop
vertex 15.9283008575 3.0024535656 40.3423042297
vertex 15.9196834564 2.95320177078 40.3423042297
vertex 18.9478034973 2.36981844902 40.3423042297
endloop
endfacet
facet normal 0.0 0.0 1.0
outer loop
vertex 15.9283008575 3.0024535656 40.3423042297
vertex 18.9478034973 2.36981844902 40.3423042297
vertex 18.9581012726 2.41874647141 40.3423042297
endloop
endfacet
facet normal 0.0 0.0 1.0
outer loop
vertex 12.8802928925 3.48209404945 40.3423042297
vertex 12.8733673096 3.43257594109 40.3423042297
vertex 15.9196834564 2.95320177078 40.3423042297
endloop
endfacet
facet normal 0.0 0.0 1.0
outer loop
vertex 12.8802928925 3.48209404945 40.3423042297
vertex 15.9196834564 2.95320177078 40.3423042297
vertex 15.9283008575 3.0024535656 40.3423042297
endloop
endfacet
facet normal 0.0 0.0 1.0
outer loop
vertex 9.81765079498 3.85710549355 40.3423042297
vertex 9.81242465973 3.80737948418 40.3423042297
vertex 12.8733673096 3.43257594109 40.3423042297
endloop
endfacet
facet normal 0.0 0.0 1.0
outer loop
vertex 9.81765079498 3.85710549355 40.3423042297
vertex 12.8733673096 3.43257594109 40.3423042297
vertex 12.8802928925 3.48209404945 40.3423042297
endloop
endfacet
