solid 
facet normal 0.206322103739 0.978484153748 -0.0
outer loop
vertex 18.9580955505 2.41874718666 -116.320877075
vertex 18.9580955505 2.41874718666 -112.729873657
vertex 19.0233268738 2.40499258041 -112.729873657
endloop
endfacet
facet normal 0.207040220499 0.978332459927 -0.0
outer loop
vertex 19.0233268738 2.40499258041 -116.320877075
vertex 19.0233268738 2.40499258041 -112.729873657
vertex 19.0885505676 2.3911895752 -112.729873657
endloop
endfacet
facet normal 0.206322103739 0.978484153748 -0.0
outer loop
vertex 19.0233268738 2.40499258041 -116.320877075
vertex 18.9580955505 2.41874718666 -116.320877075
vertex 19.0233268738 2.40499258041 -112.729873657
endloop
endfacet
facet normal 0.207040220499 0.978332459927 -0.0
outer loop
vertex 19.0885505676 2.3911895752 -116.320877075
vertex 19.0233268738 2.40499258041 -116.320877075
vertex 19.0885505676 2.3911895752 -112.729873657
endloop
endfacet
facet normal 0.207775607705 0.978176474571 -0.0
outer loop
vertex 19.15376091 2.37733817101 -116.320877075
vertex 19.0885505676 2.3911895752 -112.729873657
vertex 19.15376091 2.37733817101 -112.729873657
endloop
endfacet
facet normal 0.207775607705 0.978176474571 0.0
outer loop
vertex 19.15376091 2.37733817101 -116.320877075
vertex 19.0885505676 2.3911895752 -116.320877075
vertex 19.0885505676 2.3911895752 -112.729873657
endloop
endfacet
facet normal 0.978101015091 -0.208130553365 0.0
outer loop
vertex 19.15376091 2.37733817101 -116.320877075
vertex 19.1433544159 2.32843327522 -112.729873657
vertex 19.1433544159 2.32843327522 -116.320877075
endloop
endfacet
facet normal 0.978101015091 -0.208130553365 0.0
outer loop
vertex 19.15376091 2.37733817101 -112.729873657
vertex 19.1433544159 2.32843327522 -112.729873657
vertex 19.15376091 2.37733817101 -116.320877075
endloop
endfacet
facet normal -0.206322282553 -0.978484094143 -0.0
outer loop
vertex 18.9477977753 2.36981916428 -112.729873657
vertex 18.9477977753 2.36981916428 -116.320877075
vertex 19.0129928589 2.35607218742 -112.729873657
endloop
endfacet
facet normal -0.207040786743 -0.978332340717 -0.0
outer loop
vertex 19.0129928589 2.35607218742 -112.729873657
vertex 19.0129928589 2.35607218742 -116.320877075
vertex 19.0781803131 2.3422768116 -112.729873657
endloop
endfacet
facet normal -0.206322282553 -0.978484094143 0.0
outer loop
vertex 18.9477977753 2.36981916428 -116.320877075
vertex 19.0129928589 2.35607218742 -116.320877075
vertex 19.0129928589 2.35607218742 -112.729873657
endloop
endfacet
facet normal -0.207040786743 -0.978332340717 0.0
outer loop
vertex 19.0129928589 2.35607218742 -116.320877075
vertex 19.0781803131 2.3422768116 -116.320877075
vertex 19.0781803131 2.3422768116 -112.729873657
endloop
endfacet
facet normal -0.207773149014 -0.978177011013 0.0
outer loop
vertex 19.0781803131 2.3422768116 -112.729873657
vertex 19.1433544159 2.32843327522 -116.320877075
vertex 19.1433544159 2.32843327522 -112.729873657
endloop
endfacet
facet normal -0.207773149014 -0.978177011013 0.0
outer loop
vertex 19.0781803131 2.3422768116 -116.320877075
vertex 19.1433544159 2.32843327522 -116.320877075
vertex 19.0781803131 2.3422768116 -112.729873657
endloop
endfacet
facet normal -0.978561282158 0.205955684185 0.0
outer loop
vertex 18.9477977753 2.36981916428 -116.320877075
vertex 18.9580955505 2.41874718666 -112.729873657
vertex 18.9580955505 2.41874718666 -116.320877075
endloop
endfacet
facet normal -0.978561282158 0.205955684185 0.0
outer loop
vertex 18.9477977753 2.36981916428 -112.729873657
vertex 18.9580955505 2.41874718666 -112.729873657
vertex 18.9477977753 2.36981916428 -116.320877075
endloop
endfacet
facet normal -0.0 0.0 1.0
outer loop
vertex 19.0781803131 2.3422768116 -112.729873657
vertex 19.1433544159 2.32843327522 -112.729873657
vertex 19.15376091 2.37733817101 -112.729873657
endloop
endfacet
facet normal 0.0 0.0 1.0
outer loop
vertex 19.0885505676 2.3911895752 -112.729873657
vertex 19.0781803131 2.3422768116 -112.729873657
vertex 19.15376091 2.37733817101 -112.729873657
endloop
endfacet
facet normal -0.0 0.0 1.0
outer loop
vertex 19.0129928589 2.35607218742 -112.729873657
vertex 19.0781803131 2.3422768116 -112.729873657
vertex 19.0885505676 2.3911895752 -112.729873657
endloop
endfacet
facet normal 0.0 0.0 1.0
outer loop
vertex 19.0233268738 2.40499258041 -112.729873657
vertex 19.0129928589 2.35607218742 -112.729873657
vertex 19.0885505676 2.3911895752 -112.729873657
endloop
endfacet
facet normal -0.0 0.0 1.0
outer loop
vertex 18.9477977753 2.36981916428 -112.729873657
vertex 19.0129928589 2.35607218742 -112.729873657
vertex 19.0233268738 2.40499258041 -112.729873657
endloop
endfacet
facet normal 0.0 0.0 1.0
outer loop
vertex 18.9580955505 2.41874718666 -112.729873657
vertex 18.9477977753 2.36981916428 -112.729873657
vertex 19.0233268738 2.40499258041 -112.729873657
endloop
endfacet
facet normal 0.0 0.0 -1.0
outer loop
vertex 19.1433544159 2.32843327522 -116.320877075
vertex 19.0781803131 2.3422768116 -116.320877075
vertex 19.15376091 2.37733817101 -116.320877075
endloop
endfacet
facet normal 0.0 0.0 -1.0
outer loop
vertex 19.0781803131 2.3422768116 -116.320877075
vertex 19.0885505676 2.3911895752 -116.320877075
vertex 19.15376091 2.37733817101 -116.320877075
endloop
endfacet
facet normal 0.0 0.0 -1.0
outer loop
vertex 19.0781803131 2.3422768116 -116.320877075
vertex 19.0129928589 2.35607218742 -116.320877075
vertex 19.0885505676 2.3911895752 -116.320877075
endloop
endfacet
facet normal 0.0 0.0 -1.0
outer loop
vertex 19.0129928589 2.35607218742 -116.320877075
vertex 19.0233268738 2.40499258041 -116.320877075
vertex 19.0885505676 2.3911895752 -116.320877075
endloop
endfacet
facet normal 0.0 0.0 -1.0
outer loop
vertex 19.0129928589 2.35607218742 -116.320877075
vertex 18.9477977753 2.36981916428 -116.320877075
vertex 19.0233268738 2.40499258041 -116.320877075
endloop
endfacet
facet normal 0.0 0.0 -1.0
outer loop
vertex 18.9477977753 2.36981916428 -116.320877075
vertex 18.9580955505 2.41874718666 -116.320877075
vertex 19.0233268738 2.40499258041 -116.320877075
endloop
endfacet
