solid 
facet normal 0.206325531006 -0.978483438492 -6.49647446949e-08
outer loop
vertex 18.9581184387 -2.41874313354 -324.312896729
vertex 18.9581184387 -2.41874289513 -327.903900146
vertex 19.023349762 -2.40498805046 -327.903900146
endloop
endfacet
facet normal 0.207046017051 -0.978331267834 -6.49546407772e-08
outer loop
vertex 19.023349762 -2.40498828888 -324.312896729
vertex 19.023349762 -2.40498805046 -327.903900146
vertex 19.0885715485 -2.39118504524 -327.903900146
endloop
endfacet
facet normal 0.206325531006 -0.978483438492 -6.49647446949e-08
outer loop
vertex 19.023349762 -2.40498828888 -324.312896729
vertex 18.9581184387 -2.41874313354 -324.312896729
vertex 19.023349762 -2.40498805046 -327.903900146
endloop
endfacet
facet normal 0.207046017051 -0.978331267834 -6.49546407772e-08
outer loop
vertex 19.0885715485 -2.39118528366 -324.312896729
vertex 19.023349762 -2.40498828888 -324.312896729
vertex 19.0885715485 -2.39118504524 -327.903900146
endloop
endfacet
facet normal 0.207769796252 -0.978177726269 -6.49444515943e-08
outer loop
vertex 19.1537837982 -2.37733387947 -324.312896729
vertex 19.0885715485 -2.39118504524 -327.903900146
vertex 19.1537837982 -2.37733364105 -327.903900146
endloop
endfacet
facet normal 0.207769796252 -0.978177726269 -6.49178559797e-08
outer loop
vertex 19.1537837982 -2.37733387947 -324.312896729
vertex 19.0885715485 -2.39118528366 -324.312896729
vertex 19.0885715485 -2.39118504524 -327.903900146
endloop
endfacet
facet normal 0.978101015091 0.208130553365 1.36158568864e-08
outer loop
vertex 19.1433773041 -2.32842898369 -324.312896729
vertex 19.1537837982 -2.37733387947 -324.312896729
vertex 19.1537837982 -2.37733364105 -327.903900146
endloop
endfacet
facet normal 0.978101074696 0.208130583167 1.38184761411e-08
outer loop
vertex 19.1433773041 -2.32842898369 -324.312896729
vertex 19.1537837982 -2.37733364105 -327.903900146
vertex 19.1433773041 -2.32842874527 -327.903900146
endloop
endfacet
facet normal -0.206319913268 0.97848457098 6.49534186437e-08
outer loop
vertex 18.9478187561 -2.36981487274 -327.903900146
vertex 19.0130157471 -2.35606789589 -324.312896729
vertex 19.0130157471 -2.35606765747 -327.903900146
endloop
endfacet
facet normal -0.207046583295 0.97833108902 6.49546336717e-08
outer loop
vertex 19.0130157471 -2.35606765747 -327.903900146
vertex 19.0130157471 -2.35606789589 -324.312896729
vertex 19.0782012939 -2.34227228165 -327.903900146
endloop
endfacet
facet normal -0.206319913268 0.97848457098 6.49648228546e-08
outer loop
vertex 18.9478187561 -2.36981511116 -324.312896729
vertex 19.0130157471 -2.35606789589 -324.312896729
vertex 18.9478187561 -2.36981487274 -327.903900146
endloop
endfacet
facet normal -0.207046583295 0.97833108902 6.49546336717e-08
outer loop
vertex 19.0130157471 -2.35606789589 -324.312896729
vertex 19.0782012939 -2.34227252007 -324.312896729
vertex 19.0782012939 -2.34227228165 -327.903900146
endloop
endfacet
facet normal -0.207767337561 0.978178322315 6.49539870778e-08
outer loop
vertex 19.0782012939 -2.34227228165 -327.903900146
vertex 19.1433773041 -2.32842898369 -324.312896729
vertex 19.1433773041 -2.32842874527 -327.903900146
endloop
endfacet
facet normal -0.207767337561 0.978178322315 6.49444871215e-08
outer loop
vertex 19.0782012939 -2.34227252007 -324.312896729
vertex 19.1433773041 -2.32842898369 -324.312896729
vertex 19.0782012939 -2.34227228165 -327.903900146
endloop
endfacet
facet normal -0.978553712368 -0.205992221832 -1.36157201069e-08
outer loop
vertex 18.9581184387 -2.41874313354 -324.312896729
vertex 18.9478187561 -2.36981511116 -324.312896729
vertex 18.9478187561 -2.36981487274 -327.903900146
endloop
endfacet
facet normal -0.978553593159 -0.20599219203 -1.36765025971e-08
outer loop
vertex 18.9581184387 -2.41874313354 -324.312896729
vertex 18.9478187561 -2.36981487274 -327.903900146
vertex 18.9581184387 -2.41874289513 -327.903900146
endloop
endfacet
facet normal 0.0 0.0 1.0
outer loop
vertex 19.1433773041 -2.32842898369 -324.312896729
vertex 19.0782012939 -2.34227252007 -324.312896729
vertex 19.1537837982 -2.37733387947 -324.312896729
endloop
endfacet
facet normal 0.0 0.0 1.0
outer loop
vertex 19.0782012939 -2.34227252007 -324.312896729
vertex 19.0885715485 -2.39118528366 -324.312896729
vertex 19.1537837982 -2.37733387947 -324.312896729
endloop
endfacet
facet normal 0.0 0.0 1.0
outer loop
vertex 19.0782012939 -2.34227252007 -324.312896729
vertex 19.0130157471 -2.35606789589 -324.312896729
vertex 19.0885715485 -2.39118528366 -324.312896729
endloop
endfacet
facet normal 0.0 0.0 1.0
outer loop
vertex 19.0130157471 -2.35606789589 -324.312896729
vertex 19.023349762 -2.40498828888 -324.312896729
vertex 19.0885715485 -2.39118528366 -324.312896729
endloop
endfacet
facet normal 0.0 0.0 1.0
outer loop
vertex 19.0130157471 -2.35606789589 -324.312896729
vertex 18.9478187561 -2.36981511116 -324.312896729
vertex 19.023349762 -2.40498828888 -324.312896729
endloop
endfacet
facet normal 0.0 0.0 1.0
outer loop
vertex 18.9478187561 -2.36981511116 -324.312896729
vertex 18.9581184387 -2.41874313354 -324.312896729
vertex 19.023349762 -2.40498828888 -324.312896729
endloop
endfacet
facet normal 0.0 0.0 -1.0
outer loop
vertex 19.0782012939 -2.34227228165 -327.903900146
vertex 19.1433773041 -2.32842874527 -327.903900146
vertex 19.1537837982 -2.37733364105 -327.903900146
endloop
endfacet
facet normal 0.0 0.0 -1.0
outer loop
vertex 19.0885715485 -2.39118504524 -327.903900146
vertex 19.0782012939 -2.34227228165 -327.903900146
vertex 19.1537837982 -2.37733364105 -327.903900146
endloop
endfacet
facet normal 0.0 0.0 -1.0
outer loop
vertex 19.0130157471 -2.35606765747 -327.903900146
vertex 19.0782012939 -2.34227228165 -327.903900146
vertex 19.0885715485 -2.39118504524 -327.903900146
endloop
endfacet
facet normal 0.0 0.0 -1.0
outer loop
vertex 19.023349762 -2.40498805046 -327.903900146
vertex 19.0130157471 -2.35606765747 -327.903900146
vertex 19.0885715485 -2.39118504524 -327.903900146
endloop
endfacet
facet normal 0.0 0.0 -1.0
outer loop
vertex 18.9581184387 -2.41874289513 -327.903900146
vertex 18.9478187561 -2.36981487274 -327.903900146
vertex 19.0130157471 -2.35606765747 -327.903900146
endloop
endfacet
facet normal 0.0 0.0 -1.0
outer loop
vertex 18.9581184387 -2.41874289513 -327.903900146
vertex 19.0130157471 -2.35606765747 -327.903900146
vertex 19.023349762 -2.40498805046 -327.903900146
endloop
endfacet
