solid 
facet normal 0.000143051162013 -1.0 -1.18720734198e-12
outer loop
vertex 0.377899378538 -4.3507642746 -109.897125244
vertex 0.377899348736 -4.3507642746 -113.488121033
vertex 0.444566011429 -4.35075473785 -113.488121033
endloop
endfacet
facet normal 0.00088691682322 -0.999999642372 -7.36068324347e-12
outer loop
vertex 0.444566041231 -4.35075473785 -109.897125244
vertex 0.444566011429 -4.35075473785 -113.488121033
vertex 0.511232674122 -4.35069561005 -113.488121033
endloop
endfacet
facet normal 0.000143051162013 -1.0 -1.18720734198e-12
outer loop
vertex 0.444566041231 -4.35075473785 -109.897125244
vertex 0.377899378538 -4.3507642746 -109.897125244
vertex 0.444566011429 -4.35075473785 -113.488121033
endloop
endfacet
facet normal 0.00163078401238 -0.999998688698 0.0
outer loop
vertex 0.511232674122 -4.35069561005 -109.897125244
vertex 0.511232674122 -4.35069561005 -113.488121033
vertex 0.577899217606 -4.35058689117 -113.488121033
endloop
endfacet
facet normal 0.000886917230673 -0.999999642372 0.0
outer loop
vertex 0.511232674122 -4.35069561005 -109.897125244
vertex 0.444566041231 -4.35075473785 -109.897125244
vertex 0.511232674122 -4.35069561005 -113.488121033
endloop
endfacet
facet normal 0.00162362994161 -0.999998688698 -1.32813667619e-07
outer loop
vertex 0.57789927721 -4.35058736801 -109.897125244
vertex 0.511232674122 -4.35069561005 -109.897125244
vertex 0.577899217606 -4.35058689117 -113.488121033
endloop
endfacet
facet normal 0.999998033047 0.00199555209838 -1.63333453429e-08
outer loop
vertex 0.577799499035 -4.30058717728 -109.897125244
vertex 0.57789927721 -4.35058736801 -109.897125244
vertex 0.577899217606 -4.35058689117 -113.488121033
endloop
endfacet
facet normal 0.999998033047 0.00199557095766 -1.65983280453e-08
outer loop
vertex 0.577799499035 -4.30058717728 -109.897125244
vertex 0.577899217606 -4.35058689117 -113.488121033
vertex 0.57779943943 -4.30058717728 -113.488121033
endloop
endfacet
facet normal -0.000143130557262 1.0 1.18786642848e-12
outer loop
vertex 0.377910524607 -4.30076408386 -113.488121033
vertex 0.44454023242 -4.30075454712 -109.897125244
vertex 0.444540202618 -4.30075454712 -113.488121033
endloop
endfacet
facet normal -0.000150287087308 1.0 1.32788144924e-07
outer loop
vertex 0.377910554409 -4.3007645607 -109.897125244
vertex 0.44454023242 -4.30075454712 -109.897125244
vertex 0.377910524607 -4.30076408386 -113.488121033
endloop
endfacet
facet normal -0.000887409551069 0.999999642372 1.32801574182e-07
outer loop
vertex 0.444540202618 -4.30075454712 -113.488121033
vertex 0.511169910431 -4.30069589615 -109.897125244
vertex 0.511169850826 -4.30069541931 -113.488121033
endloop
endfacet
facet normal -0.000880252628122 0.999999642372 7.30537592225e-12
outer loop
vertex 0.44454023242 -4.30075454712 -109.897125244
vertex 0.511169910431 -4.30069589615 -109.897125244
vertex 0.444540202618 -4.30075454712 -113.488121033
endloop
endfacet
facet normal -0.00162453192752 0.999998688698 2.66082069572e-11
outer loop
vertex 0.511169850826 -4.30069541931 -113.488121033
vertex 0.577799499035 -4.30058717728 -109.897125244
vertex 0.57779943943 -4.30058717728 -113.488121033
endloop
endfacet
facet normal -0.00163168844301 0.999998688698 1.32813795517e-07
outer loop
vertex 0.511169910431 -4.30069589615 -109.897125244
vertex 0.577799499035 -4.30058717728 -109.897125244
vertex 0.511169850826 -4.30069541931 -113.488121033
endloop
endfacet
facet normal -1.0 0.000223518698476 8.32886115631e-09
outer loop
vertex 0.377899378538 -4.3507642746 -109.897125244
vertex 0.377910554409 -4.3007645607 -109.897125244
vertex 0.377910524607 -4.30076408386 -113.488121033
endloop
endfacet
facet normal -1.0 0.000223516573897 8.29918089806e-09
outer loop
vertex 0.377899378538 -4.3507642746 -109.897125244
vertex 0.377910524607 -4.30076408386 -113.488121033
vertex 0.377899348736 -4.3507642746 -113.488121033
endloop
endfacet
facet normal 0.0 0.0 1.0
outer loop
vertex 0.577799499035 -4.30058717728 -109.897125244
vertex 0.511169910431 -4.30069589615 -109.897125244
vertex 0.57789927721 -4.35058736801 -109.897125244
endloop
endfacet
facet normal 0.0 0.0 1.0
outer loop
vertex 0.511169910431 -4.30069589615 -109.897125244
vertex 0.511232674122 -4.35069561005 -109.897125244
vertex 0.57789927721 -4.35058736801 -109.897125244
endloop
endfacet
facet normal -0.0 0.0 1.0
outer loop
vertex 0.44454023242 -4.30075454712 -109.897125244
vertex 0.444566041231 -4.35075473785 -109.897125244
vertex 0.511169910431 -4.30069589615 -109.897125244
endloop
endfacet
facet normal 0.0 0.0 1.0
outer loop
vertex 0.511169910431 -4.30069589615 -109.897125244
vertex 0.444566041231 -4.35075473785 -109.897125244
vertex 0.511232674122 -4.35069561005 -109.897125244
endloop
endfacet
facet normal 0.0 0.0 1.0
outer loop
vertex 0.44454023242 -4.30075454712 -109.897125244
vertex 0.377910554409 -4.3007645607 -109.897125244
vertex 0.444566041231 -4.35075473785 -109.897125244
endloop
endfacet
facet normal 0.0 0.0 1.0
outer loop
vertex 0.377910554409 -4.3007645607 -109.897125244
vertex 0.377899378538 -4.3507642746 -109.897125244
vertex 0.444566041231 -4.35075473785 -109.897125244
endloop
endfacet
facet normal 0.0 0.0 -1.0
outer loop
vertex 0.511232674122 -4.35069561005 -113.488121033
vertex 0.511169850826 -4.30069541931 -113.488121033
vertex 0.57779943943 -4.30058717728 -113.488121033
endloop
endfacet
facet normal 0.0 0.0 -1.0
outer loop
vertex 0.511232674122 -4.35069561005 -113.488121033
vertex 0.57779943943 -4.30058717728 -113.488121033
vertex 0.577899217606 -4.35058689117 -113.488121033
endloop
endfacet
facet normal 0.0 0.0 -1.0
outer loop
vertex 0.444540202618 -4.30075454712 -113.488121033
vertex 0.511169850826 -4.30069541931 -113.488121033
vertex 0.511232674122 -4.35069561005 -113.488121033
endloop
endfacet
facet normal 0.0 0.0 -1.0
outer loop
vertex 0.444566011429 -4.35075473785 -113.488121033
vertex 0.444540202618 -4.30075454712 -113.488121033
vertex 0.511232674122 -4.35069561005 -113.488121033
endloop
endfacet
facet normal 0.0 0.0 -1.0
outer loop
vertex 0.377910524607 -4.30076408386 -113.488121033
vertex 0.444540202618 -4.30075454712 -113.488121033
vertex 0.444566011429 -4.35075473785 -113.488121033
endloop
endfacet
facet normal 0.0 0.0 -1.0
outer loop
vertex 0.377899348736 -4.3507642746 -113.488121033
vertex 0.377910524607 -4.30076408386 -113.488121033
vertex 0.444566011429 -4.35075473785 -113.488121033
endloop
endfacet
