solid 
facet normal 0.000143051162013 1.0 1.18720484832e-12
outer loop
vertex 0.444560676813 4.35075473785 69.2503051758
vertex 0.37789401412 4.3507642746 69.2503051758
vertex 0.377893984318 4.3507642746 72.8413085938
endloop
endfacet
facet normal 0.000143051147461 1.0 1.18720484832e-12
outer loop
vertex 0.444560676813 4.35075473785 69.2503051758
vertex 0.377893984318 4.3507642746 72.8413085938
vertex 0.444560647011 4.35075473785 72.8413085938
endloop
endfacet
facet normal 0.000886916881427 0.999999642372 -0.0
outer loop
vertex 0.511227309704 4.35069561005 69.2503051758
vertex 0.444560647011 4.35075473785 72.8413085938
vertex 0.511227309704 4.35069561005 72.8413085938
endloop
endfacet
facet normal 0.000886917230673 0.999999642372 7.59811137618e-12
outer loop
vertex 0.511227309704 4.35069561005 69.2503051758
vertex 0.444560676813 4.35075473785 69.2503051758
vertex 0.444560647011 4.35075473785 72.8413085938
endloop
endfacet
facet normal 0.00163078377955 0.999998629093 1.32786425411e-07
outer loop
vertex 0.577893853188 4.35058736801 69.2503051758
vertex 0.511227309704 4.35069561005 72.8413085938
vertex 0.577893853188 4.35058689117 72.8413085938
endloop
endfacet
facet normal 0.00162363122217 0.999998629093 0.0
outer loop
vertex 0.577893853188 4.35058736801 69.2503051758
vertex 0.511227309704 4.35069561005 69.2503051758
vertex 0.511227309704 4.35069561005 72.8413085938
endloop
endfacet
facet normal 0.999998033047 -0.00199555186555 -2.63399635436e-10
outer loop
vertex 0.577794075012 4.30058717728 69.2503051758
vertex 0.577893853188 4.35058736801 69.2503051758
vertex 0.577893853188 4.35058689117 72.8413085938
endloop
endfacet
facet normal 0.999998033047 -0.00199557095766 0.0
outer loop
vertex 0.577794075012 4.30058717728 69.2503051758
vertex 0.577893853188 4.35058689117 72.8413085938
vertex 0.577794075012 4.30058717728 72.8413085938
endloop
endfacet
facet normal -0.000143130557262 -1.0 -1.1878638264e-12
outer loop
vertex 0.377905160189 4.30076408386 72.8413085938
vertex 0.444534868002 4.30075454712 69.2503051758
vertex 0.4445348382 4.30075454712 72.8413085938
endloop
endfacet
facet normal -0.000150287087308 -1.0 -1.32787846496e-07
outer loop
vertex 0.377905189991 4.3007645607 69.2503051758
vertex 0.444534868002 4.30075454712 69.2503051758
vertex 0.377905160189 4.30076408386 72.8413085938
endloop
endfacet
facet normal -0.000887409551069 -0.999999642372 0.0
outer loop
vertex 0.4445348382 4.30075454712 72.8413085938
vertex 0.511164486408 4.30069541931 69.2503051758
vertex 0.511164486408 4.30069541931 72.8413085938
endloop
endfacet
facet normal -0.000887409958523 -0.999999642372 -7.36475984364e-12
outer loop
vertex 0.444534868002 4.30075454712 69.2503051758
vertex 0.511164486408 4.30069541931 69.2503051758
vertex 0.4445348382 4.30075454712 72.8413085938
endloop
endfacet
facet normal -0.0016245318111 -0.999998629093 0.0
outer loop
vertex 0.511164486408 4.30069541931 72.8413085938
vertex 0.577794075012 4.30058717728 69.2503051758
vertex 0.577794075012 4.30058717728 72.8413085938
endloop
endfacet
facet normal -0.0016245318111 -0.999998629093 0.0
outer loop
vertex 0.511164486408 4.30069541931 69.2503051758
vertex 0.577794075012 4.30058717728 69.2503051758
vertex 0.511164486408 4.30069541931 72.8413085938
endloop
endfacet
facet normal -1.0 -0.000223518683924 -8.32884339275e-09
outer loop
vertex 0.37789401412 4.3507642746 69.2503051758
vertex 0.377905189991 4.3007645607 69.2503051758
vertex 0.377905160189 4.30076408386 72.8413085938
endloop
endfacet
facet normal -1.0 -0.000223516559345 -8.2991631345e-09
outer loop
vertex 0.37789401412 4.3507642746 69.2503051758
vertex 0.377905160189 4.30076408386 72.8413085938
vertex 0.377893984318 4.3507642746 72.8413085938
endloop
endfacet
facet normal 0.0 0.0 -1.0
outer loop
vertex 0.577794075012 4.30058717728 69.2503051758
vertex 0.511164486408 4.30069541931 69.2503051758
vertex 0.577893853188 4.35058736801 69.2503051758
endloop
endfacet
facet normal 0.0 0.0 -1.0
outer loop
vertex 0.511164486408 4.30069541931 69.2503051758
vertex 0.511227309704 4.35069561005 69.2503051758
vertex 0.577893853188 4.35058736801 69.2503051758
endloop
endfacet
facet normal 0.0 0.0 -1.0
outer loop
vertex 0.444534868002 4.30075454712 69.2503051758
vertex 0.444560676813 4.35075473785 69.2503051758
vertex 0.511164486408 4.30069541931 69.2503051758
endloop
endfacet
facet normal 0.0 0.0 -1.0
outer loop
vertex 0.511164486408 4.30069541931 69.2503051758
vertex 0.444560676813 4.35075473785 69.2503051758
vertex 0.511227309704 4.35069561005 69.2503051758
endloop
endfacet
facet normal 0.0 0.0 -1.0
outer loop
vertex 0.377905189991 4.3007645607 69.2503051758
vertex 0.37789401412 4.3507642746 69.2503051758
vertex 0.444534868002 4.30075454712 69.2503051758
endloop
endfacet
facet normal 0.0 0.0 -1.0
outer loop
vertex 0.444534868002 4.30075454712 69.2503051758
vertex 0.37789401412 4.3507642746 69.2503051758
vertex 0.444560676813 4.35075473785 69.2503051758
endloop
endfacet
facet normal -0.0 0.0 1.0
outer loop
vertex 0.511164486408 4.30069541931 72.8413085938
vertex 0.577794075012 4.30058717728 72.8413085938
vertex 0.577893853188 4.35058689117 72.8413085938
endloop
endfacet
facet normal 0.0 0.0 1.0
outer loop
vertex 0.511227309704 4.35069561005 72.8413085938
vertex 0.511164486408 4.30069541931 72.8413085938
vertex 0.577893853188 4.35058689117 72.8413085938
endloop
endfacet
facet normal 0.0 0.0 1.0
outer loop
vertex 0.444560647011 4.35075473785 72.8413085938
vertex 0.4445348382 4.30075454712 72.8413085938
vertex 0.511164486408 4.30069541931 72.8413085938
endloop
endfacet
facet normal 0.0 0.0 1.0
outer loop
vertex 0.444560647011 4.35075473785 72.8413085938
vertex 0.511164486408 4.30069541931 72.8413085938
vertex 0.511227309704 4.35069561005 72.8413085938
endloop
endfacet
facet normal 0.0 0.0 1.0
outer loop
vertex 0.377893984318 4.3507642746 72.8413085938
vertex 0.377905160189 4.30076408386 72.8413085938
vertex 0.4445348382 4.30075454712 72.8413085938
endloop
endfacet
facet normal 0.0 0.0 1.0
outer loop
vertex 0.377893984318 4.3507642746 72.8413085938
vertex 0.4445348382 4.30075454712 72.8413085938
vertex 0.444560647011 4.35075473785 72.8413085938
endloop
endfacet
