solid 
facet normal -0.206319749355 -0.978484630585 0.0
outer loop
vertex -18.9580993652 -2.41874670982 -34.0661239624
vertex -18.9580993652 -2.41874670982 -30.4751224518
vertex -19.0233325958 -2.40499186516 -30.4751224518
endloop
endfacet
facet normal -0.207046017051 -0.978331208229 0.0
outer loop
vertex -19.0233325958 -2.40499186516 -34.0661239624
vertex -19.0233325958 -2.40499186516 -30.4751224518
vertex -19.0885543823 -2.39118885994 -30.4751224518
endloop
endfacet
facet normal -0.206319749355 -0.978484630585 0.0
outer loop
vertex -19.0233325958 -2.40499186516 -34.0661239624
vertex -18.9580993652 -2.41874670982 -34.0661239624
vertex -19.0233325958 -2.40499186516 -30.4751224518
endloop
endfacet
facet normal -0.207046017051 -0.978331208229 0.0
outer loop
vertex -19.0885543823 -2.39118885994 -34.0661239624
vertex -19.0233325958 -2.40499186516 -34.0661239624
vertex -19.0885543823 -2.39118885994 -30.4751224518
endloop
endfacet
facet normal -0.207766368985 -0.978178441525 0.0
outer loop
vertex -19.1537666321 -2.37733769417 -34.0661239624
vertex -19.0885543823 -2.39118885994 -30.4751224518
vertex -19.1537666321 -2.37733769417 -30.4751224518
endloop
endfacet
facet normal -0.207766368985 -0.978178441525 0.0
outer loop
vertex -19.1537666321 -2.37733769417 -34.0661239624
vertex -19.0885543823 -2.39118885994 -34.0661239624
vertex -19.0885543823 -2.39118885994 -30.4751224518
endloop
endfacet
facet normal -0.97810125351 0.208129584789 0.0
outer loop
vertex -19.1537666321 -2.37733769417 -34.0661239624
vertex -19.1433601379 -2.32843255997 -30.4751224518
vertex -19.1433601379 -2.32843255997 -34.0661239624
endloop
endfacet
facet normal -0.97810125351 0.208129584789 0.0
outer loop
vertex -19.1537666321 -2.37733769417 -30.4751224518
vertex -19.1433601379 -2.32843255997 -30.4751224518
vertex -19.1537666321 -2.37733769417 -34.0661239624
endloop
endfacet
facet normal 0.206319913268 0.97848457098 0.0
outer loop
vertex -18.94780159 -2.36981868744 -30.4751224518
vertex -19.0129985809 -2.35607147217 -34.0661239624
vertex -19.0129985809 -2.35607147217 -30.4751224518
endloop
endfacet
facet normal 0.207046583295 0.97833108902 0.0
outer loop
vertex -19.0129985809 -2.35607147217 -30.4751224518
vertex -19.0129985809 -2.35607147217 -34.0661239624
vertex -19.0781841278 -2.34227609634 -30.4751224518
endloop
endfacet
facet normal 0.206319913268 0.97848457098 -0.0
outer loop
vertex -18.94780159 -2.36981868744 -34.0661239624
vertex -19.0129985809 -2.35607147217 -34.0661239624
vertex -18.94780159 -2.36981868744 -30.4751224518
endloop
endfacet
facet normal 0.207046583295 0.97833108902 0.0
outer loop
vertex -19.0129985809 -2.35607147217 -34.0661239624
vertex -19.0781841278 -2.34227609634 -34.0661239624
vertex -19.0781841278 -2.34227609634 -30.4751224518
endloop
endfacet
facet normal 0.207767352462 0.978178262711 0.0
outer loop
vertex -19.0781841278 -2.34227609634 -30.4751224518
vertex -19.1433601379 -2.32843255997 -34.0661239624
vertex -19.1433601379 -2.32843255997 -30.4751224518
endloop
endfacet
facet normal 0.207767352462 0.978178262711 -0.0
outer loop
vertex -19.0781841278 -2.34227609634 -34.0661239624
vertex -19.1433601379 -2.32843255997 -34.0661239624
vertex -19.0781841278 -2.34227609634 -30.4751224518
endloop
endfacet
facet normal 0.978561341763 -0.205955684185 0.0
outer loop
vertex -18.94780159 -2.36981868744 -34.0661239624
vertex -18.94780159 -2.36981868744 -30.4751224518
vertex -18.9580993652 -2.41874670982 -34.0661239624
endloop
endfacet
facet normal 0.978561341763 -0.205955684185 0.0
outer loop
vertex -18.94780159 -2.36981868744 -30.4751224518
vertex -18.9580993652 -2.41874670982 -30.4751224518
vertex -18.9580993652 -2.41874670982 -34.0661239624
endloop
endfacet
facet normal 0.0 0.0 1.0
outer loop
vertex -19.0781841278 -2.34227609634 -30.4751224518
vertex -19.1433601379 -2.32843255997 -30.4751224518
vertex -19.1537666321 -2.37733769417 -30.4751224518
endloop
endfacet
facet normal 0.0 -0.0 1.0
outer loop
vertex -19.0885543823 -2.39118885994 -30.4751224518
vertex -19.0781841278 -2.34227609634 -30.4751224518
vertex -19.1537666321 -2.37733769417 -30.4751224518
endloop
endfacet
facet normal 0.0 -0.0 1.0
outer loop
vertex -19.0233325958 -2.40499186516 -30.4751224518
vertex -19.0129985809 -2.35607147217 -30.4751224518
vertex -19.0781841278 -2.34227609634 -30.4751224518
endloop
endfacet
facet normal 0.0 0.0 1.0
outer loop
vertex -19.0233325958 -2.40499186516 -30.4751224518
vertex -19.0781841278 -2.34227609634 -30.4751224518
vertex -19.0885543823 -2.39118885994 -30.4751224518
endloop
endfacet
facet normal 0.0 -0.0 1.0
outer loop
vertex -18.9580993652 -2.41874670982 -30.4751224518
vertex -18.94780159 -2.36981868744 -30.4751224518
vertex -19.0129985809 -2.35607147217 -30.4751224518
endloop
endfacet
facet normal 0.0 0.0 1.0
outer loop
vertex -18.9580993652 -2.41874670982 -30.4751224518
vertex -19.0129985809 -2.35607147217 -30.4751224518
vertex -19.0233325958 -2.40499186516 -30.4751224518
endloop
endfacet
facet normal 0.0 -0.0 -1.0
outer loop
vertex -19.1433601379 -2.32843255997 -34.0661239624
vertex -19.0781841278 -2.34227609634 -34.0661239624
vertex -19.1537666321 -2.37733769417 -34.0661239624
endloop
endfacet
facet normal 0.0 0.0 -1.0
outer loop
vertex -19.0781841278 -2.34227609634 -34.0661239624
vertex -19.0885543823 -2.39118885994 -34.0661239624
vertex -19.1537666321 -2.37733769417 -34.0661239624
endloop
endfacet
facet normal -0.0 0.0 -1.0
outer loop
vertex -19.0129985809 -2.35607147217 -34.0661239624
vertex -19.0233325958 -2.40499186516 -34.0661239624
vertex -19.0781841278 -2.34227609634 -34.0661239624
endloop
endfacet
facet normal 0.0 -0.0 -1.0
outer loop
vertex -19.0781841278 -2.34227609634 -34.0661239624
vertex -19.0233325958 -2.40499186516 -34.0661239624
vertex -19.0885543823 -2.39118885994 -34.0661239624
endloop
endfacet
facet normal -0.0 0.0 -1.0
outer loop
vertex -18.94780159 -2.36981868744 -34.0661239624
vertex -18.9580993652 -2.41874670982 -34.0661239624
vertex -19.0129985809 -2.35607147217 -34.0661239624
endloop
endfacet
facet normal 0.0 -0.0 -1.0
outer loop
vertex -19.0129985809 -2.35607147217 -34.0661239624
vertex -18.9580993652 -2.41874670982 -34.0661239624
vertex -19.0233325958 -2.40499186516 -34.0661239624
endloop
endfacet
