solid 
facet normal 0.206325531006 -0.978483438492 6.49191562729e-08
outer loop
vertex 19.023349762 -2.40498805046 221.482788086
vertex 18.9581184387 -2.41874289513 221.482788086
vertex 18.9581184387 -2.41874313354 217.891784668
endloop
endfacet
facet normal 0.206325531006 -0.978483438492 6.49647446949e-08
outer loop
vertex 19.023349762 -2.40498805046 221.482788086
vertex 18.9581184387 -2.41874313354 217.891784668
vertex 19.023349762 -2.40498828888 217.891784668
endloop
endfacet
facet normal 0.207046017051 -0.978331267834 6.49546407772e-08
outer loop
vertex 19.0885715485 -2.39118504524 221.482788086
vertex 19.023349762 -2.40498828888 217.891784668
vertex 19.0885715485 -2.39118528366 217.891784668
endloop
endfacet
facet normal 0.207769796252 -0.978177726269 6.49444515943e-08
outer loop
vertex 19.0885715485 -2.39118504524 221.482788086
vertex 19.0885715485 -2.39118528366 217.891784668
vertex 19.1537837982 -2.37733387947 217.891784668
endloop
endfacet
facet normal 0.207046017051 -0.978331267834 6.49185523116e-08
outer loop
vertex 19.0885715485 -2.39118504524 221.482788086
vertex 19.023349762 -2.40498805046 221.482788086
vertex 19.023349762 -2.40498828888 217.891784668
endloop
endfacet
facet normal 0.207769796252 -0.978177726269 6.49444515943e-08
outer loop
vertex 19.1537837982 -2.37733364105 221.482788086
vertex 19.0885715485 -2.39118504524 221.482788086
vertex 19.1537837982 -2.37733387947 217.891784668
endloop
endfacet
facet normal 0.978101015091 0.208130553365 -1.36158568864e-08
outer loop
vertex 19.1537837982 -2.37733364105 221.482788086
vertex 19.1433773041 -2.32842898369 217.891784668
vertex 19.1433773041 -2.32842874527 221.482788086
endloop
endfacet
facet normal 0.978101015091 0.208130553365 -1.38184743648e-08
outer loop
vertex 19.1537837982 -2.37733387947 217.891784668
vertex 19.1433773041 -2.32842898369 217.891784668
vertex 19.1537837982 -2.37733364105 221.482788086
endloop
endfacet
facet normal -0.206319913268 0.97848457098 -6.49648228546e-08
outer loop
vertex 18.9478187561 -2.36981511116 217.891784668
vertex 18.9478187561 -2.36981487274 221.482788086
vertex 19.0130157471 -2.35606789589 217.891784668
endloop
endfacet
facet normal -0.206319913268 0.97848457098 -6.49534186437e-08
outer loop
vertex 18.9478187561 -2.36981487274 221.482788086
vertex 19.0130157471 -2.35606765747 221.482788086
vertex 19.0130157471 -2.35606789589 217.891784668
endloop
endfacet
facet normal -0.207046583295 0.97833108902 -6.49546336717e-08
outer loop
vertex 19.0130157471 -2.35606789589 217.891784668
vertex 19.0782012939 -2.34227228165 221.482788086
vertex 19.0782012939 -2.34227252007 217.891784668
endloop
endfacet
facet normal -0.207767337561 0.978178322315 -6.49444871215e-08
outer loop
vertex 19.0782012939 -2.34227252007 217.891784668
vertex 19.0782012939 -2.34227228165 221.482788086
vertex 19.1433773041 -2.32842898369 217.891784668
endloop
endfacet
facet normal -0.207046583295 0.97833108902 -6.49546336717e-08
outer loop
vertex 19.0130157471 -2.35606765747 221.482788086
vertex 19.0782012939 -2.34227228165 221.482788086
vertex 19.0130157471 -2.35606789589 217.891784668
endloop
endfacet
facet normal -0.207767337561 0.978178322315 -6.49539870778e-08
outer loop
vertex 19.0782012939 -2.34227228165 221.482788086
vertex 19.1433773041 -2.32842874527 221.482788086
vertex 19.1433773041 -2.32842898369 217.891784668
endloop
endfacet
facet normal -0.978553712368 -0.205992221832 1.36157201069e-08
outer loop
vertex 18.9478187561 -2.36981487274 221.482788086
vertex 18.9581184387 -2.41874313354 217.891784668
vertex 18.9581184387 -2.41874289513 221.482788086
endloop
endfacet
facet normal -0.978553712368 -0.205992221832 1.36765052616e-08
outer loop
vertex 18.9478187561 -2.36981511116 217.891784668
vertex 18.9581184387 -2.41874313354 217.891784668
vertex 18.9478187561 -2.36981487274 221.482788086
endloop
endfacet
facet normal 0.0 0.0 -1.0
outer loop
vertex 19.0782012939 -2.34227252007 217.891784668
vertex 19.1433773041 -2.32842898369 217.891784668
vertex 19.1537837982 -2.37733387947 217.891784668
endloop
endfacet
facet normal 0.0 0.0 -1.0
outer loop
vertex 19.0885715485 -2.39118528366 217.891784668
vertex 19.0782012939 -2.34227252007 217.891784668
vertex 19.1537837982 -2.37733387947 217.891784668
endloop
endfacet
facet normal 0.0 0.0 -1.0
outer loop
vertex 19.0130157471 -2.35606789589 217.891784668
vertex 19.0782012939 -2.34227252007 217.891784668
vertex 19.0885715485 -2.39118528366 217.891784668
endloop
endfacet
facet normal 0.0 0.0 -1.0
outer loop
vertex 19.023349762 -2.40498828888 217.891784668
vertex 19.0130157471 -2.35606789589 217.891784668
vertex 19.0885715485 -2.39118528366 217.891784668
endloop
endfacet
facet normal 0.0 0.0 -1.0
outer loop
vertex 18.9581184387 -2.41874313354 217.891784668
vertex 18.9478187561 -2.36981511116 217.891784668
vertex 19.0130157471 -2.35606789589 217.891784668
endloop
endfacet
facet normal 0.0 0.0 -1.0
outer loop
vertex 18.9581184387 -2.41874313354 217.891784668
vertex 19.0130157471 -2.35606789589 217.891784668
vertex 19.023349762 -2.40498828888 217.891784668
endloop
endfacet
facet normal 0.0 0.0 1.0
outer loop
vertex 19.1433773041 -2.32842874527 221.482788086
vertex 19.0782012939 -2.34227228165 221.482788086
vertex 19.1537837982 -2.37733364105 221.482788086
endloop
endfacet
facet normal 0.0 0.0 1.0
outer loop
vertex 19.0782012939 -2.34227228165 221.482788086
vertex 19.0885715485 -2.39118504524 221.482788086
vertex 19.1537837982 -2.37733364105 221.482788086
endloop
endfacet
facet normal 0.0 0.0 1.0
outer loop
vertex 19.0782012939 -2.34227228165 221.482788086
vertex 19.0130157471 -2.35606765747 221.482788086
vertex 19.0885715485 -2.39118504524 221.482788086
endloop
endfacet
facet normal 0.0 0.0 1.0
outer loop
vertex 19.0130157471 -2.35606765747 221.482788086
vertex 19.023349762 -2.40498805046 221.482788086
vertex 19.0885715485 -2.39118504524 221.482788086
endloop
endfacet
facet normal 0.0 0.0 1.0
outer loop
vertex 19.0130157471 -2.35606765747 221.482788086
vertex 18.9478187561 -2.36981487274 221.482788086
vertex 19.023349762 -2.40498805046 221.482788086
endloop
endfacet
facet normal 0.0 0.0 1.0
outer loop
vertex 18.9478187561 -2.36981487274 221.482788086
vertex 18.9581184387 -2.41874289513 221.482788086
vertex 19.023349762 -2.40498805046 221.482788086
endloop
endfacet
