solid 
facet normal 0.206325531006 0.978483438492 6.49197104963e-08
outer loop
vertex 19.0233421326 2.40499019623 280.558013916
vertex 18.9581108093 2.41874504089 280.558013916
vertex 18.9581108093 2.41874480247 284.148986816
endloop
endfacet
facet normal 0.206322103739 0.978484153748 -0.0
outer loop
vertex 19.0233421326 2.40499019623 280.558013916
vertex 18.9581108093 2.41874480247 284.148986816
vertex 19.0233421326 2.40499019623 284.148986816
endloop
endfacet
facet normal 0.20704600215 0.978331208229 -0.0
outer loop
vertex 19.0885639191 2.39118719101 280.558013916
vertex 19.0233421326 2.40499019623 284.148986816
vertex 19.0885639191 2.39118719101 284.148986816
endloop
endfacet
facet normal 0.20704600215 0.978331208229 0.0
outer loop
vertex 19.0885639191 2.39118719101 280.558013916
vertex 19.0233421326 2.40499019623 280.558013916
vertex 19.0233421326 2.40499019623 284.148986816
endloop
endfacet
facet normal 0.207769781351 0.978177726269 -0.0
outer loop
vertex 19.1537761688 2.37733578682 280.558013916
vertex 19.0885639191 2.39118719101 284.148986816
vertex 19.1537761688 2.37733578682 284.148986816
endloop
endfacet
facet normal 0.207769781351 0.978177726269 0.0
outer loop
vertex 19.1537761688 2.37733578682 280.558013916
vertex 19.0885639191 2.39118719101 280.558013916
vertex 19.0885639191 2.39118719101 284.148986816
endloop
endfacet
facet normal 0.978101074696 -0.208130538464 0.0
outer loop
vertex 19.1433696747 2.32843089104 280.558013916
vertex 19.1537761688 2.37733578682 280.558013916
vertex 19.1537761688 2.37733578682 284.148986816
endloop
endfacet
facet normal 0.97810125351 -0.208129569888 -1.38185276555e-08
outer loop
vertex 19.1433696747 2.32843089104 280.558013916
vertex 19.1537761688 2.37733578682 284.148986816
vertex 19.1433696747 2.32843065262 284.148986816
endloop
endfacet
facet normal -0.206322267652 -0.978484094143 -6.49653415508e-08
outer loop
vertex 18.9478130341 2.36981678009 284.148986816
vertex 18.9478130341 2.36981701851 280.558013916
vertex 19.0130081177 2.35606980324 284.148986816
endloop
endfacet
facet normal -0.206325694919 -0.978483378887 0.0
outer loop
vertex 18.9478130341 2.36981701851 280.558013916
vertex 19.0130081177 2.35606980324 280.558013916
vertex 19.0130081177 2.35606980324 284.148986816
endloop
endfacet
facet normal -0.207046583295 -0.97833108902 0.0
outer loop
vertex 19.0130081177 2.35606980324 284.148986816
vertex 19.0781936646 2.34227442741 280.558013916
vertex 19.0781936646 2.34227442741 284.148986816
endloop
endfacet
facet normal -0.207046583295 -0.97833108902 0.0
outer loop
vertex 19.0130081177 2.35606980324 280.558013916
vertex 19.0781936646 2.34227442741 280.558013916
vertex 19.0130081177 2.35606980324 284.148986816
endloop
endfacet
facet normal -0.207770764828 -0.97817748785 -6.49544915632e-08
outer loop
vertex 19.0781936646 2.34227442741 284.148986816
vertex 19.1433696747 2.32843089104 280.558013916
vertex 19.1433696747 2.32843065262 284.148986816
endloop
endfacet
facet normal -0.207767337561 -0.978178203106 0.0
outer loop
vertex 19.0781936646 2.34227442741 280.558013916
vertex 19.1433696747 2.32843089104 280.558013916
vertex 19.0781936646 2.34227442741 284.148986816
endloop
endfacet
facet normal -0.978561341763 0.205955699086 1.36741959977e-08
outer loop
vertex 18.9478130341 2.36981701851 280.558013916
vertex 18.9478130341 2.36981678009 284.148986816
vertex 18.9581108093 2.41874480247 284.148986816
endloop
endfacet
facet normal -0.978561341763 0.205955684185 1.36741942214e-08
outer loop
vertex 18.9581108093 2.41874504089 280.558013916
vertex 18.9478130341 2.36981701851 280.558013916
vertex 18.9581108093 2.41874480247 284.148986816
endloop
endfacet
facet normal 0.0 0.0 -1.0
outer loop
vertex 19.1433696747 2.32843089104 280.558013916
vertex 19.0781936646 2.34227442741 280.558013916
vertex 19.1537761688 2.37733578682 280.558013916
endloop
endfacet
facet normal 0.0 0.0 -1.0
outer loop
vertex 19.0781936646 2.34227442741 280.558013916
vertex 19.0885639191 2.39118719101 280.558013916
vertex 19.1537761688 2.37733578682 280.558013916
endloop
endfacet
facet normal 0.0 0.0 -1.0
outer loop
vertex 19.0130081177 2.35606980324 280.558013916
vertex 19.0233421326 2.40499019623 280.558013916
vertex 19.0781936646 2.34227442741 280.558013916
endloop
endfacet
facet normal 0.0 0.0 -1.0
outer loop
vertex 19.0781936646 2.34227442741 280.558013916
vertex 19.0233421326 2.40499019623 280.558013916
vertex 19.0885639191 2.39118719101 280.558013916
endloop
endfacet
facet normal 0.0 0.0 -1.0
outer loop
vertex 18.9478130341 2.36981701851 280.558013916
vertex 18.9581108093 2.41874504089 280.558013916
vertex 19.0130081177 2.35606980324 280.558013916
endloop
endfacet
facet normal 0.0 0.0 -1.0
outer loop
vertex 19.0130081177 2.35606980324 280.558013916
vertex 18.9581108093 2.41874504089 280.558013916
vertex 19.0233421326 2.40499019623 280.558013916
endloop
endfacet
facet normal -0.0 0.0 1.0
outer loop
vertex 19.0781936646 2.34227442741 284.148986816
vertex 19.1433696747 2.32843065262 284.148986816
vertex 19.1537761688 2.37733578682 284.148986816
endloop
endfacet
facet normal 0.0 0.0 1.0
outer loop
vertex 19.0885639191 2.39118719101 284.148986816
vertex 19.0781936646 2.34227442741 284.148986816
vertex 19.1537761688 2.37733578682 284.148986816
endloop
endfacet
facet normal 0.0 0.0 1.0
outer loop
vertex 19.0233421326 2.40499019623 284.148986816
vertex 19.0130081177 2.35606980324 284.148986816
vertex 19.0781936646 2.34227442741 284.148986816
endloop
endfacet
facet normal 0.0 0.0 1.0
outer loop
vertex 19.0233421326 2.40499019623 284.148986816
vertex 19.0781936646 2.34227442741 284.148986816
vertex 19.0885639191 2.39118719101 284.148986816
endloop
endfacet
facet normal 0.0 0.0 1.0
outer loop
vertex 18.9581108093 2.41874480247 284.148986816
vertex 18.9478130341 2.36981678009 284.148986816
vertex 19.0130081177 2.35606980324 284.148986816
endloop
endfacet
facet normal 0.0 0.0 1.0
outer loop
vertex 18.9581108093 2.41874480247 284.148986816
vertex 19.0130081177 2.35606980324 284.148986816
vertex 19.0233421326 2.40499019623 284.148986816
endloop
endfacet
