solid 
facet normal 0.000150203646626 1.0 1.32788144924e-07
outer loop
vertex 0.444566100836 4.35075473785 98.1583099365
vertex 0.37789940834 4.35076475143 98.1583099365
vertex 0.377899378538 4.3507642746 101.749305725
endloop
endfacet
facet normal 0.000143051147461 1.0 2.37441468397e-12
outer loop
vertex 0.444566100836 4.35075473785 98.1583099365
vertex 0.377899378538 4.3507642746 101.749305725
vertex 0.444566041231 4.35075473785 101.749305725
endloop
endfacet
facet normal 0.000886917230673 0.999999642372 1.47213716911e-11
outer loop
vertex 0.511232733727 4.35069561005 98.1583099365
vertex 0.444566041231 4.35075473785 101.749305725
vertex 0.511232674122 4.35069561005 101.749305725
endloop
endfacet
facet normal 0.00162362994161 0.999998688698 2.69495953331e-11
outer loop
vertex 0.511232733727 4.35069561005 98.1583099365
vertex 0.511232674122 4.35069561005 101.749305725
vertex 0.57789927721 4.35058736801 101.749305725
endloop
endfacet
facet normal 0.000886917230673 0.999999642372 1.51962557121e-11
outer loop
vertex 0.511232733727 4.35069561005 98.1583099365
vertex 0.444566100836 4.35075473785 98.1583099365
vertex 0.444566041231 4.35075473785 101.749305725
endloop
endfacet
facet normal 0.001623631455 0.999998688698 -0.0
outer loop
vertex 0.57789927721 4.35058736801 98.1583099365
vertex 0.511232733727 4.35069561005 98.1583099365
vertex 0.57789927721 4.35058736801 101.749305725
endloop
endfacet
facet normal 0.999998033047 -0.00199557119049 0.0
outer loop
vertex 0.577799499035 4.30058765411 98.1583099365
vertex 0.57789927721 4.35058736801 98.1583099365
vertex 0.57789927721 4.35058736801 101.749305725
endloop
endfacet
facet normal 0.999998033047 -0.00199555209838 -2.64983146536e-10
outer loop
vertex 0.577799499035 4.30058765411 98.1583099365
vertex 0.57789927721 4.35058736801 101.749305725
vertex 0.577799499035 4.30058717728 101.749305725
endloop
endfacet
facet normal -0.000150287160068 -1.0 -1.32789267582e-07
outer loop
vertex 0.377910584211 4.3007645607 101.749305725
vertex 0.444540292025 4.30075502396 98.1583099365
vertex 0.44454023242 4.30075454712 101.749305725
endloop
endfacet
facet normal -0.000880252628122 -0.999999642372 -1.32801446284e-07
outer loop
vertex 0.44454023242 4.30075454712 101.749305725
vertex 0.444540292025 4.30075502396 98.1583099365
vertex 0.511169910431 4.30069589615 101.749305725
endloop
endfacet
facet normal -0.000143130557262 -1.0 -1.18786642848e-12
outer loop
vertex 0.377910614014 4.3007645607 98.1583099365
vertex 0.444540292025 4.30075502396 98.1583099365
vertex 0.377910584211 4.3007645607 101.749305725
endloop
endfacet
facet normal -0.000887409958523 -0.999999642372 0.0
outer loop
vertex 0.444540292025 4.30075502396 98.1583099365
vertex 0.511169910431 4.30069589615 98.1583099365
vertex 0.511169910431 4.30069589615 101.749305725
endloop
endfacet
facet normal -0.00163168844301 -0.999998688698 -1.32786354357e-07
outer loop
vertex 0.511169910431 4.30069589615 101.749305725
vertex 0.577799499035 4.30058765411 98.1583099365
vertex 0.577799499035 4.30058717728 101.749305725
endloop
endfacet
facet normal -0.00162453192752 -0.999998688698 0.0
outer loop
vertex 0.511169910431 4.30069589615 98.1583099365
vertex 0.577799499035 4.30058765411 98.1583099365
vertex 0.511169910431 4.30069589615 101.749305725
endloop
endfacet
facet normal -1.0 -0.000224112605792 -8.2990228023e-09
outer loop
vertex 0.37789940834 4.35076475143 98.1583099365
vertex 0.377910614014 4.3007645607 98.1583099365
vertex 0.377910584211 4.3007645607 101.749305725
endloop
endfacet
facet normal -1.0 -0.000224114744924 -8.32894020419e-09
outer loop
vertex 0.37789940834 4.35076475143 98.1583099365
vertex 0.377910584211 4.3007645607 101.749305725
vertex 0.377899378538 4.3507642746 101.749305725
endloop
endfacet
facet normal 0.0 0.0 -1.0
outer loop
vertex 0.577799499035 4.30058765411 98.1583099365
vertex 0.511169910431 4.30069589615 98.1583099365
vertex 0.57789927721 4.35058736801 98.1583099365
endloop
endfacet
facet normal 0.0 0.0 -1.0
outer loop
vertex 0.511169910431 4.30069589615 98.1583099365
vertex 0.511232733727 4.35069561005 98.1583099365
vertex 0.57789927721 4.35058736801 98.1583099365
endloop
endfacet
facet normal 0.0 0.0 -1.0
outer loop
vertex 0.444540292025 4.30075502396 98.1583099365
vertex 0.444566100836 4.35075473785 98.1583099365
vertex 0.511169910431 4.30069589615 98.1583099365
endloop
endfacet
facet normal 0.0 0.0 -1.0
outer loop
vertex 0.511169910431 4.30069589615 98.1583099365
vertex 0.444566100836 4.35075473785 98.1583099365
vertex 0.511232733727 4.35069561005 98.1583099365
endloop
endfacet
facet normal 0.0 0.0 -1.0
outer loop
vertex 0.444540292025 4.30075502396 98.1583099365
vertex 0.377910614014 4.3007645607 98.1583099365
vertex 0.444566100836 4.35075473785 98.1583099365
endloop
endfacet
facet normal 0.0 0.0 -1.0
outer loop
vertex 0.377910614014 4.3007645607 98.1583099365
vertex 0.37789940834 4.35076475143 98.1583099365
vertex 0.444566100836 4.35075473785 98.1583099365
endloop
endfacet
facet normal -0.0 0.0 1.0
outer loop
vertex 0.511169910431 4.30069589615 101.749305725
vertex 0.577799499035 4.30058717728 101.749305725
vertex 0.57789927721 4.35058736801 101.749305725
endloop
endfacet
facet normal 0.0 0.0 1.0
outer loop
vertex 0.511232674122 4.35069561005 101.749305725
vertex 0.511169910431 4.30069589615 101.749305725
vertex 0.57789927721 4.35058736801 101.749305725
endloop
endfacet
facet normal 0.0 0.0 1.0
outer loop
vertex 0.444566041231 4.35075473785 101.749305725
vertex 0.44454023242 4.30075454712 101.749305725
vertex 0.511169910431 4.30069589615 101.749305725
endloop
endfacet
facet normal 0.0 0.0 1.0
outer loop
vertex 0.444566041231 4.35075473785 101.749305725
vertex 0.511169910431 4.30069589615 101.749305725
vertex 0.511232674122 4.35069561005 101.749305725
endloop
endfacet
facet normal 0.0 0.0 1.0
outer loop
vertex 0.377899378538 4.3507642746 101.749305725
vertex 0.377910584211 4.3007645607 101.749305725
vertex 0.44454023242 4.30075454712 101.749305725
endloop
endfacet
facet normal 0.0 0.0 1.0
outer loop
vertex 0.377899378538 4.3507642746 101.749305725
vertex 0.44454023242 4.30075454712 101.749305725
vertex 0.444566041231 4.35075473785 101.749305725
endloop
endfacet
