solid 
facet normal 0.000143051162013 1.0 0.0
outer loop
vertex 0.444545179605 4.35075378418 -130.744873047
vertex 0.377878516912 4.35076332092 -130.744873047
vertex 0.377878516912 4.35076332092 -127.153877258
endloop
endfacet
facet normal 0.000143051162013 1.0 -0.0
outer loop
vertex 0.444545179605 4.35075378418 -130.744873047
vertex 0.377878516912 4.35076332092 -127.153877258
vertex 0.444545179605 4.35075378418 -127.153877258
endloop
endfacet
facet normal 0.000886917230673 0.999999642372 -0.0
outer loop
vertex 0.511211812496 4.35069465637 -130.744873047
vertex 0.444545179605 4.35075378418 -127.153877258
vertex 0.511211812496 4.35069465637 -127.153877258
endloop
endfacet
facet normal 0.000886917230673 0.999999642372 0.0
outer loop
vertex 0.511211812496 4.35069465637 -130.744873047
vertex 0.444545179605 4.35075378418 -130.744873047
vertex 0.444545179605 4.35075378418 -127.153877258
endloop
endfacet
facet normal 0.00162362994161 0.999998688698 -0.0
outer loop
vertex 0.577878415585 4.35058641434 -130.744873047
vertex 0.511211812496 4.35069465637 -127.153877258
vertex 0.577878415585 4.35058641434 -127.153877258
endloop
endfacet
facet normal 0.00162362994161 0.999998688698 0.0
outer loop
vertex 0.577878415585 4.35058641434 -130.744873047
vertex 0.511211812496 4.35069465637 -130.744873047
vertex 0.511211812496 4.35069465637 -127.153877258
endloop
endfacet
facet normal 0.999998033047 -0.00199555209838 0.0
outer loop
vertex 0.577878415585 4.35058641434 -130.744873047
vertex 0.577778637409 4.3005862236 -127.153877258
vertex 0.577778637409 4.3005862236 -130.744873047
endloop
endfacet
facet normal 0.999998033047 -0.00199555209838 0.0
outer loop
vertex 0.577878415585 4.35058641434 -127.153877258
vertex 0.577778637409 4.3005862236 -127.153877258
vertex 0.577878415585 4.35058641434 -130.744873047
endloop
endfacet
facet normal -0.000150287087308 -1.0 -0.0
outer loop
vertex 0.377889692783 4.30076360703 -127.153877258
vertex 0.377889692783 4.30076360703 -130.744873047
vertex 0.444519370794 4.30075359344 -127.153877258
endloop
endfacet
facet normal -0.000150287087308 -1.0 0.0
outer loop
vertex 0.377889692783 4.30076360703 -130.744873047
vertex 0.444519370794 4.30075359344 -130.744873047
vertex 0.444519370794 4.30075359344 -127.153877258
endloop
endfacet
facet normal -0.000880252628122 -0.999999642372 0.0
outer loop
vertex 0.444519370794 4.30075359344 -127.153877258
vertex 0.511149048805 4.30069494247 -130.744873047
vertex 0.511149048805 4.30069494247 -127.153877258
endloop
endfacet
facet normal -0.00163168844301 -0.999998688698 -0.0
outer loop
vertex 0.511149048805 4.30069494247 -127.153877258
vertex 0.511149048805 4.30069494247 -130.744873047
vertex 0.577778637409 4.3005862236 -127.153877258
endloop
endfacet
facet normal -0.000880252628122 -0.999999642372 0.0
outer loop
vertex 0.444519370794 4.30075359344 -130.744873047
vertex 0.511149048805 4.30069494247 -130.744873047
vertex 0.444519370794 4.30075359344 -127.153877258
endloop
endfacet
facet normal -0.00163168844301 -0.999998688698 0.0
outer loop
vertex 0.511149048805 4.30069494247 -130.744873047
vertex 0.577778637409 4.3005862236 -130.744873047
vertex 0.577778637409 4.3005862236 -127.153877258
endloop
endfacet
facet normal -1.0 -0.000223518698476 0.0
outer loop
vertex 0.377889692783 4.30076360703 -130.744873047
vertex 0.377878516912 4.35076332092 -127.153877258
vertex 0.377878516912 4.35076332092 -130.744873047
endloop
endfacet
facet normal -1.0 -0.000223518698476 -0.0
outer loop
vertex 0.377889692783 4.30076360703 -127.153877258
vertex 0.377878516912 4.35076332092 -127.153877258
vertex 0.377889692783 4.30076360703 -130.744873047
endloop
endfacet
facet normal -0.0 0.0 1.0
outer loop
vertex 0.511149048805 4.30069494247 -127.153877258
vertex 0.577778637409 4.3005862236 -127.153877258
vertex 0.577878415585 4.35058641434 -127.153877258
endloop
endfacet
facet normal 0.0 0.0 1.0
outer loop
vertex 0.511211812496 4.35069465637 -127.153877258
vertex 0.511149048805 4.30069494247 -127.153877258
vertex 0.577878415585 4.35058641434 -127.153877258
endloop
endfacet
facet normal 0.0 0.0 1.0
outer loop
vertex 0.444545179605 4.35075378418 -127.153877258
vertex 0.444519370794 4.30075359344 -127.153877258
vertex 0.511149048805 4.30069494247 -127.153877258
endloop
endfacet
facet normal 0.0 0.0 1.0
outer loop
vertex 0.444545179605 4.35075378418 -127.153877258
vertex 0.511149048805 4.30069494247 -127.153877258
vertex 0.511211812496 4.35069465637 -127.153877258
endloop
endfacet
facet normal 0.0 0.0 1.0
outer loop
vertex 0.377878516912 4.35076332092 -127.153877258
vertex 0.377889692783 4.30076360703 -127.153877258
vertex 0.444519370794 4.30075359344 -127.153877258
endloop
endfacet
facet normal 0.0 0.0 1.0
outer loop
vertex 0.377878516912 4.35076332092 -127.153877258
vertex 0.444519370794 4.30075359344 -127.153877258
vertex 0.444545179605 4.35075378418 -127.153877258
endloop
endfacet
facet normal 0.0 0.0 -1.0
outer loop
vertex 0.577778637409 4.3005862236 -130.744873047
vertex 0.511149048805 4.30069494247 -130.744873047
vertex 0.577878415585 4.35058641434 -130.744873047
endloop
endfacet
facet normal 0.0 0.0 -1.0
outer loop
vertex 0.511149048805 4.30069494247 -130.744873047
vertex 0.511211812496 4.35069465637 -130.744873047
vertex 0.577878415585 4.35058641434 -130.744873047
endloop
endfacet
facet normal 0.0 0.0 -1.0
outer loop
vertex 0.511149048805 4.30069494247 -130.744873047
vertex 0.444519370794 4.30075359344 -130.744873047
vertex 0.511211812496 4.35069465637 -130.744873047
endloop
endfacet
facet normal 0.0 0.0 -1.0
outer loop
vertex 0.444519370794 4.30075359344 -130.744873047
vertex 0.444545179605 4.35075378418 -130.744873047
vertex 0.511211812496 4.35069465637 -130.744873047
endloop
endfacet
facet normal 0.0 0.0 -1.0
outer loop
vertex 0.444519370794 4.30075359344 -130.744873047
vertex 0.377889692783 4.30076360703 -130.744873047
vertex 0.444545179605 4.35075378418 -130.744873047
endloop
endfacet
facet normal 0.0 0.0 -1.0
outer loop
vertex 0.377889692783 4.30076360703 -130.744873047
vertex 0.377878516912 4.35076332092 -130.744873047
vertex 0.444545179605 4.35075378418 -130.744873047
endloop
endfacet
