solid 
facet normal -0.000150203719386 -1.0 -1.18720614936e-12
outer loop
vertex -0.444550216198 -4.35075378418 -41.2481231689
vertex -0.377883553505 -4.35076379776 -41.2481231689
vertex -0.377883583307 -4.35076379776 -37.6571235657
endloop
endfacet
facet normal -0.000150203719386 -1.0 -1.24656643515e-12
outer loop
vertex -0.444550216198 -4.35075378418 -41.2481231689
vertex -0.377883583307 -4.35076379776 -37.6571235657
vertex -0.444550246 -4.35075378418 -37.6571235657
endloop
endfacet
facet normal -0.000879764615092 -0.999999642372 -1.32786695417e-07
outer loop
vertex -0.511216878891 -4.35069465637 -41.2481231689
vertex -0.444550246 -4.35075378418 -37.6571235657
vertex -0.511216878891 -4.35069513321 -37.6571235657
endloop
endfacet
facet normal -0.00088691682322 -0.999999642372 -7.59811658035e-12
outer loop
vertex -0.511216878891 -4.35069465637 -41.2481231689
vertex -0.444550216198 -4.35075378418 -41.2481231689
vertex -0.444550246 -4.35075378418 -37.6571235657
endloop
endfacet
facet normal -0.00163078249898 -0.999998688698 -2.70682885828e-11
outer loop
vertex -0.577883422375 -4.35058641434 -41.2481231689
vertex -0.511216878891 -4.35069513321 -37.6571235657
vertex -0.577883481979 -4.35058641434 -37.6571235657
endloop
endfacet
facet normal -0.00162363133859 -0.999998688698 -1.32786695417e-07
outer loop
vertex -0.577883422375 -4.35058641434 -41.2481231689
vertex -0.511216878891 -4.35069465637 -41.2481231689
vertex -0.511216878891 -4.35069513321 -37.6571235657
endloop
endfacet
facet normal -0.999998092651 0.00199557119049 -1.65994205048e-08
outer loop
vertex -0.577883422375 -4.35058641434 -41.2481231689
vertex -0.577783703804 -4.30058670044 -37.6571235657
vertex -0.577783644199 -4.30058670044 -41.2481231689
endloop
endfacet
facet normal -0.999998092651 0.00199557119049 -1.65983120581e-08
outer loop
vertex -0.577883481979 -4.35058641434 -37.6571235657
vertex -0.577783703804 -4.30058670044 -37.6571235657
vertex -0.577883422375 -4.35058641434 -41.2481231689
endloop
endfacet
facet normal 0.000143130571814 1.0 0.0
outer loop
vertex -0.377894759178 -4.30076360703 -37.6571235657
vertex -0.444524437189 -4.30075407028 -41.2481231689
vertex -0.444524437189 -4.30075407028 -37.6571235657
endloop
endfacet
facet normal 0.000143130571814 1.0 -0.0
outer loop
vertex -0.377894759178 -4.30076360703 -41.2481231689
vertex -0.444524437189 -4.30075407028 -41.2481231689
vertex -0.377894759178 -4.30076360703 -37.6571235657
endloop
endfacet
facet normal 0.000887409143616 0.999999642372 1.52046673862e-11
outer loop
vertex -0.444524437189 -4.30075407028 -37.6571235657
vertex -0.511154055595 -4.30069494247 -41.2481231689
vertex -0.5111541152 -4.30069494247 -37.6571235657
endloop
endfacet
facet normal 0.000887409900315 0.999999642372 -0.0
outer loop
vertex -0.444524437189 -4.30075407028 -41.2481231689
vertex -0.511154055595 -4.30069494247 -41.2481231689
vertex -0.444524437189 -4.30075407028 -37.6571235657
endloop
endfacet
facet normal 0.00162453192752 0.999998688698 2.85087630586e-11
outer loop
vertex -0.5111541152 -4.30069494247 -37.6571235657
vertex -0.577783644199 -4.30058670044 -41.2481231689
vertex -0.577783703804 -4.30058670044 -37.6571235657
endloop
endfacet
facet normal 0.00162453192752 0.999998688698 2.69645382411e-11
outer loop
vertex -0.511154055595 -4.30069494247 -41.2481231689
vertex -0.577783644199 -4.30058670044 -41.2481231689
vertex -0.5111541152 -4.30069494247 -37.6571235657
endloop
endfacet
facet normal 1.0 0.000224112605792 8.29901392052e-09
outer loop
vertex -0.377894759178 -4.30076360703 -41.2481231689
vertex -0.377883583307 -4.35076379776 -37.6571235657
vertex -0.377883553505 -4.35076379776 -41.2481231689
endloop
endfacet
facet normal 1.0 0.000223516573897 0.0
outer loop
vertex -0.377894759178 -4.30076360703 -37.6571235657
vertex -0.377883583307 -4.35076379776 -37.6571235657
vertex -0.377894759178 -4.30076360703 -41.2481231689
endloop
endfacet
facet normal 0.0 0.0 1.0
outer loop
vertex -0.5111541152 -4.30069494247 -37.6571235657
vertex -0.577783703804 -4.30058670044 -37.6571235657
vertex -0.577883481979 -4.35058641434 -37.6571235657
endloop
endfacet
facet normal 0.0 -0.0 1.0
outer loop
vertex -0.511216878891 -4.35069513321 -37.6571235657
vertex -0.5111541152 -4.30069494247 -37.6571235657
vertex -0.577883481979 -4.35058641434 -37.6571235657
endloop
endfacet
facet normal 0.0 -0.0 1.0
outer loop
vertex -0.444550246 -4.35075378418 -37.6571235657
vertex -0.444524437189 -4.30075407028 -37.6571235657
vertex -0.5111541152 -4.30069494247 -37.6571235657
endloop
endfacet
facet normal 0.0 0.0 1.0
outer loop
vertex -0.444550246 -4.35075378418 -37.6571235657
vertex -0.5111541152 -4.30069494247 -37.6571235657
vertex -0.511216878891 -4.35069513321 -37.6571235657
endloop
endfacet
facet normal 0.0 0.0 1.0
outer loop
vertex -0.377883583307 -4.35076379776 -37.6571235657
vertex -0.377894759178 -4.30076360703 -37.6571235657
vertex -0.444524437189 -4.30075407028 -37.6571235657
endloop
endfacet
facet normal 0.0 0.0 1.0
outer loop
vertex -0.377883583307 -4.35076379776 -37.6571235657
vertex -0.444524437189 -4.30075407028 -37.6571235657
vertex -0.444550246 -4.35075378418 -37.6571235657
endloop
endfacet
facet normal 0.0 -0.0 -1.0
outer loop
vertex -0.577783644199 -4.30058670044 -41.2481231689
vertex -0.511154055595 -4.30069494247 -41.2481231689
vertex -0.577883422375 -4.35058641434 -41.2481231689
endloop
endfacet
facet normal 0.0 0.0 -1.0
outer loop
vertex -0.511154055595 -4.30069494247 -41.2481231689
vertex -0.511216878891 -4.35069465637 -41.2481231689
vertex -0.577883422375 -4.35058641434 -41.2481231689
endloop
endfacet
facet normal -0.0 0.0 -1.0
outer loop
vertex -0.444524437189 -4.30075407028 -41.2481231689
vertex -0.444550216198 -4.35075378418 -41.2481231689
vertex -0.511154055595 -4.30069494247 -41.2481231689
endloop
endfacet
facet normal 0.0 -0.0 -1.0
outer loop
vertex -0.511154055595 -4.30069494247 -41.2481231689
vertex -0.444550216198 -4.35075378418 -41.2481231689
vertex -0.511216878891 -4.35069465637 -41.2481231689
endloop
endfacet
facet normal -0.0 -0.0 -1.0
outer loop
vertex -0.377894759178 -4.30076360703 -41.2481231689
vertex -0.377883553505 -4.35076379776 -41.2481231689
vertex -0.444524437189 -4.30075407028 -41.2481231689
endloop
endfacet
facet normal 0.0 -0.0 -1.0
outer loop
vertex -0.444524437189 -4.30075407028 -41.2481231689
vertex -0.377883553505 -4.35076379776 -41.2481231689
vertex -0.444550216198 -4.35075378418 -41.2481231689
endloop
endfacet
