solid 
facet normal 0.206319749355 0.97848457098 -0.0
outer loop
vertex 18.9581069946 2.41874551773 276.907012939
vertex 18.9581069946 2.41874551773 280.498016357
vertex 19.0233402252 2.40499067307 280.498016357
endloop
endfacet
facet normal 0.207046017051 0.978331267834 -0.0
outer loop
vertex 19.0233402252 2.40499067307 276.907012939
vertex 19.0233402252 2.40499067307 280.498016357
vertex 19.0885620117 2.39118766785 280.498016357
endloop
endfacet
facet normal 0.206319749355 0.97848457098 -0.0
outer loop
vertex 19.0233402252 2.40499067307 276.907012939
vertex 18.9581069946 2.41874551773 276.907012939
vertex 19.0233402252 2.40499067307 280.498016357
endloop
endfacet
facet normal 0.207046017051 0.978331267834 -0.0
outer loop
vertex 19.0885620117 2.39118766785 276.907012939
vertex 19.0233402252 2.40499067307 276.907012939
vertex 19.0885620117 2.39118766785 280.498016357
endloop
endfacet
facet normal 0.207769796252 0.978177726269 6.49444515943e-08
outer loop
vertex 19.1537742615 2.37733650208 276.907012939
vertex 19.0885620117 2.39118766785 280.498016357
vertex 19.1537742615 2.37733626366 280.498016357
endloop
endfacet
facet normal 0.207766368985 0.978178441525 0.0
outer loop
vertex 19.1537742615 2.37733650208 276.907012939
vertex 19.0885620117 2.39118766785 276.907012939
vertex 19.0885620117 2.39118766785 280.498016357
endloop
endfacet
facet normal 0.97810125351 -0.20812959969 -1.39399807253e-08
outer loop
vertex 19.1433677673 2.32843136787 276.907012939
vertex 19.1537742615 2.37733650208 276.907012939
vertex 19.1537742615 2.37733626366 280.498016357
endloop
endfacet
facet normal 0.978101015091 -0.208130553365 0.0
outer loop
vertex 19.1433677673 2.32843136787 276.907012939
vertex 19.1537742615 2.37733626366 280.498016357
vertex 19.1433677673 2.32843136787 280.498016357
endloop
endfacet
facet normal -0.206319913268 -0.97848457098 0.0
outer loop
vertex 18.9478092194 2.36981749535 280.498016357
vertex 19.0130062103 2.35607028008 276.907012939
vertex 19.0130062103 2.35607028008 280.498016357
endloop
endfacet
facet normal -0.207046583295 -0.97833108902 -0.0
outer loop
vertex 19.0130062103 2.35607028008 280.498016357
vertex 19.0130062103 2.35607028008 276.907012939
vertex 19.0781917572 2.34227490425 280.498016357
endloop
endfacet
facet normal -0.206319913268 -0.97848457098 0.0
outer loop
vertex 18.9478092194 2.36981749535 276.907012939
vertex 19.0130062103 2.35607028008 276.907012939
vertex 18.9478092194 2.36981749535 280.498016357
endloop
endfacet
facet normal -0.207043170929 -0.978331804276 -6.49546834097e-08
outer loop
vertex 19.0130062103 2.35607028008 276.907012939
vertex 19.0781917572 2.34227514267 276.907012939
vertex 19.0781917572 2.34227490425 280.498016357
endloop
endfacet
facet normal -0.207767337561 -0.978178322315 0.0
outer loop
vertex 19.0781917572 2.34227490425 280.498016357
vertex 19.1433677673 2.32843136787 276.907012939
vertex 19.1433677673 2.32843136787 280.498016357
endloop
endfacet
facet normal -0.207770764828 -0.978177547455 -6.49444373835e-08
outer loop
vertex 19.0781917572 2.34227514267 276.907012939
vertex 19.1433677673 2.32843136787 276.907012939
vertex 19.0781917572 2.34227490425 280.498016357
endloop
endfacet
facet normal -0.978561282158 0.205955684185 0.0
outer loop
vertex 18.9581069946 2.41874551773 276.907012939
vertex 18.9478092194 2.36981749535 276.907012939
vertex 18.9478092194 2.36981749535 280.498016357
endloop
endfacet
facet normal -0.978561282158 0.205955684185 0.0
outer loop
vertex 18.9581069946 2.41874551773 276.907012939
vertex 18.9478092194 2.36981749535 280.498016357
vertex 18.9581069946 2.41874551773 280.498016357
endloop
endfacet
facet normal 0.0 0.0 -1.0
outer loop
vertex 19.1433677673 2.32843136787 276.907012939
vertex 19.0781917572 2.34227514267 276.907012939
vertex 19.1537742615 2.37733650208 276.907012939
endloop
endfacet
facet normal 0.0 0.0 -1.0
outer loop
vertex 19.0781917572 2.34227514267 276.907012939
vertex 19.0885620117 2.39118766785 276.907012939
vertex 19.1537742615 2.37733650208 276.907012939
endloop
endfacet
facet normal 0.0 0.0 -1.0
outer loop
vertex 19.0781917572 2.34227514267 276.907012939
vertex 19.0130062103 2.35607028008 276.907012939
vertex 19.0885620117 2.39118766785 276.907012939
endloop
endfacet
facet normal 0.0 0.0 -1.0
outer loop
vertex 19.0130062103 2.35607028008 276.907012939
vertex 19.0233402252 2.40499067307 276.907012939
vertex 19.0885620117 2.39118766785 276.907012939
endloop
endfacet
facet normal 0.0 0.0 -1.0
outer loop
vertex 19.0130062103 2.35607028008 276.907012939
vertex 18.9478092194 2.36981749535 276.907012939
vertex 19.0233402252 2.40499067307 276.907012939
endloop
endfacet
facet normal 0.0 0.0 -1.0
outer loop
vertex 18.9478092194 2.36981749535 276.907012939
vertex 18.9581069946 2.41874551773 276.907012939
vertex 19.0233402252 2.40499067307 276.907012939
endloop
endfacet
facet normal -0.0 0.0 1.0
outer loop
vertex 19.0781917572 2.34227490425 280.498016357
vertex 19.1433677673 2.32843136787 280.498016357
vertex 19.1537742615 2.37733626366 280.498016357
endloop
endfacet
facet normal 0.0 0.0 1.0
outer loop
vertex 19.0885620117 2.39118766785 280.498016357
vertex 19.0781917572 2.34227490425 280.498016357
vertex 19.1537742615 2.37733626366 280.498016357
endloop
endfacet
facet normal -0.0 0.0 1.0
outer loop
vertex 19.0130062103 2.35607028008 280.498016357
vertex 19.0781917572 2.34227490425 280.498016357
vertex 19.0885620117 2.39118766785 280.498016357
endloop
endfacet
facet normal 0.0 0.0 1.0
outer loop
vertex 19.0233402252 2.40499067307 280.498016357
vertex 19.0130062103 2.35607028008 280.498016357
vertex 19.0885620117 2.39118766785 280.498016357
endloop
endfacet
facet normal 0.0 0.0 1.0
outer loop
vertex 18.9581069946 2.41874551773 280.498016357
vertex 18.9478092194 2.36981749535 280.498016357
vertex 19.0130062103 2.35607028008 280.498016357
endloop
endfacet
facet normal 0.0 0.0 1.0
outer loop
vertex 18.9581069946 2.41874551773 280.498016357
vertex 19.0130062103 2.35607028008 280.498016357
vertex 19.0233402252 2.40499067307 280.498016357
endloop
endfacet
