solid 
facet normal 0.206319749355 0.97848457098 -6.49648228546e-08
outer loop
vertex 18.9581050873 2.41874575615 -370.960571289
vertex 18.9581050873 2.41874599457 -367.369567871
vertex 19.0233383179 2.4049911499 -367.369567871
endloop
endfacet
facet normal 0.207046017051 0.978331267834 -0.0
outer loop
vertex 19.0233383179 2.4049911499 -370.960571289
vertex 19.0233383179 2.4049911499 -367.369567871
vertex 19.0885601044 2.39118814468 -367.369567871
endloop
endfacet
facet normal 0.206316322088 0.978485286236 -0.0
outer loop
vertex 19.0233383179 2.4049911499 -370.960571289
vertex 18.9581050873 2.41874575615 -370.960571289
vertex 19.0233383179 2.4049911499 -367.369567871
endloop
endfacet
facet normal 0.207046017051 0.978331267834 -0.0
outer loop
vertex 19.0885601044 2.39118814468 -370.960571289
vertex 19.0233383179 2.4049911499 -370.960571289
vertex 19.0885601044 2.39118814468 -367.369567871
endloop
endfacet
facet normal 0.207766368985 0.978178441525 -6.49445013323e-08
outer loop
vertex 19.1537723541 2.37733674049 -370.960571289
vertex 19.0885601044 2.39118814468 -367.369567871
vertex 19.1537723541 2.37733697891 -367.369567871
endloop
endfacet
facet normal 0.207769796252 0.978177726269 0.0
outer loop
vertex 19.1537723541 2.37733674049 -370.960571289
vertex 19.0885601044 2.39118814468 -370.960571289
vertex 19.0885601044 2.39118814468 -367.369567871
endloop
endfacet
facet normal 0.978101015091 -0.208130553365 0.0
outer loop
vertex 19.1537723541 2.37733674049 -370.960571289
vertex 19.14336586 2.32843184471 -367.369567871
vertex 19.14336586 2.32843184471 -370.960571289
endloop
endfacet
facet normal 0.97810125351 -0.20812959969 1.38184113041e-08
outer loop
vertex 19.1537723541 2.37733697891 -367.369567871
vertex 19.14336586 2.32843184471 -367.369567871
vertex 19.1537723541 2.37733674049 -370.960571289
endloop
endfacet
facet normal -0.206319913268 -0.97848457098 0.0
outer loop
vertex 18.947807312 2.36981797218 -367.369567871
vertex 19.013004303 2.35607075691 -370.960571289
vertex 19.013004303 2.35607075691 -367.369567871
endloop
endfacet
facet normal -0.207046583295 -0.97833108902 -0.0
outer loop
vertex 19.013004303 2.35607075691 -367.369567871
vertex 19.013004303 2.35607075691 -370.960571289
vertex 19.0781898499 2.34227538109 -367.369567871
endloop
endfacet
facet normal -0.206316500902 -0.978485286236 6.49648725926e-08
outer loop
vertex 18.947807312 2.36981773376 -370.960571289
vertex 19.013004303 2.35607075691 -370.960571289
vertex 18.947807312 2.36981797218 -367.369567871
endloop
endfacet
facet normal -0.207046583295 -0.97833108902 0.0
outer loop
vertex 19.013004303 2.35607075691 -370.960571289
vertex 19.0781898499 2.34227538109 -370.960571289
vertex 19.0781898499 2.34227538109 -367.369567871
endloop
endfacet
facet normal -0.207767337561 -0.978178322315 0.0
outer loop
vertex 19.0781898499 2.34227538109 -367.369567871
vertex 19.14336586 2.32843184471 -370.960571289
vertex 19.14336586 2.32843184471 -367.369567871
endloop
endfacet
facet normal -0.207767337561 -0.978178322315 0.0
outer loop
vertex 19.0781898499 2.34227538109 -370.960571289
vertex 19.14336586 2.32843184471 -370.960571289
vertex 19.0781898499 2.34227538109 -367.369567871
endloop
endfacet
facet normal -0.978561282158 0.205955684185 -1.367407787e-08
outer loop
vertex 18.947807312 2.36981773376 -370.960571289
vertex 18.947807312 2.36981797218 -367.369567871
vertex 18.9581050873 2.41874575615 -370.960571289
endloop
endfacet
facet normal -0.978561282158 0.205955684185 -1.36158258002e-08
outer loop
vertex 18.947807312 2.36981797218 -367.369567871
vertex 18.9581050873 2.41874599457 -367.369567871
vertex 18.9581050873 2.41874575615 -370.960571289
endloop
endfacet
facet normal -0.0 0.0 1.0
outer loop
vertex 19.0781898499 2.34227538109 -367.369567871
vertex 19.14336586 2.32843184471 -367.369567871
vertex 19.1537723541 2.37733697891 -367.369567871
endloop
endfacet
facet normal 0.0 0.0 1.0
outer loop
vertex 19.0885601044 2.39118814468 -367.369567871
vertex 19.0781898499 2.34227538109 -367.369567871
vertex 19.1537723541 2.37733697891 -367.369567871
endloop
endfacet
facet normal 0.0 0.0 1.0
outer loop
vertex 19.0233383179 2.4049911499 -367.369567871
vertex 19.013004303 2.35607075691 -367.369567871
vertex 19.0781898499 2.34227538109 -367.369567871
endloop
endfacet
facet normal 0.0 0.0 1.0
outer loop
vertex 19.0233383179 2.4049911499 -367.369567871
vertex 19.0781898499 2.34227538109 -367.369567871
vertex 19.0885601044 2.39118814468 -367.369567871
endloop
endfacet
facet normal 0.0 0.0 1.0
outer loop
vertex 18.9581050873 2.41874599457 -367.369567871
vertex 18.947807312 2.36981797218 -367.369567871
vertex 19.013004303 2.35607075691 -367.369567871
endloop
endfacet
facet normal 0.0 0.0 1.0
outer loop
vertex 18.9581050873 2.41874599457 -367.369567871
vertex 19.013004303 2.35607075691 -367.369567871
vertex 19.0233383179 2.4049911499 -367.369567871
endloop
endfacet
facet normal 0.0 0.0 -1.0
outer loop
vertex 19.14336586 2.32843184471 -370.960571289
vertex 19.0781898499 2.34227538109 -370.960571289
vertex 19.1537723541 2.37733674049 -370.960571289
endloop
endfacet
facet normal 0.0 0.0 -1.0
outer loop
vertex 19.0781898499 2.34227538109 -370.960571289
vertex 19.0885601044 2.39118814468 -370.960571289
vertex 19.1537723541 2.37733674049 -370.960571289
endloop
endfacet
facet normal 0.0 0.0 -1.0
outer loop
vertex 19.013004303 2.35607075691 -370.960571289
vertex 19.0233383179 2.4049911499 -370.960571289
vertex 19.0781898499 2.34227538109 -370.960571289
endloop
endfacet
facet normal 0.0 0.0 -1.0
outer loop
vertex 19.0781898499 2.34227538109 -370.960571289
vertex 19.0233383179 2.4049911499 -370.960571289
vertex 19.0885601044 2.39118814468 -370.960571289
endloop
endfacet
facet normal 0.0 0.0 -1.0
outer loop
vertex 18.947807312 2.36981773376 -370.960571289
vertex 18.9581050873 2.41874575615 -370.960571289
vertex 19.013004303 2.35607075691 -370.960571289
endloop
endfacet
facet normal 0.0 0.0 -1.0
outer loop
vertex 19.013004303 2.35607075691 -370.960571289
vertex 18.9581050873 2.41874575615 -370.960571289
vertex 19.0233383179 2.4049911499 -370.960571289
endloop
endfacet
