solid 
facet normal 0.206319749355 0.97848457098 -0.0
outer loop
vertex 18.9581012726 2.41874647141 251.649993896
vertex 18.9581012726 2.41874647141 255.240997314
vertex 19.0233345032 2.40499162674 255.240997314
endloop
endfacet
facet normal 0.207046017051 0.978331267834 6.49546407772e-08
outer loop
vertex 19.0233345032 2.40499186516 251.649993896
vertex 19.0233345032 2.40499162674 255.240997314
vertex 19.0885562897 2.39118862152 255.240997314
endloop
endfacet
facet normal 0.206316322088 0.978485286236 6.49648725926e-08
outer loop
vertex 19.0233345032 2.40499186516 251.649993896
vertex 18.9581012726 2.41874647141 251.649993896
vertex 19.0233345032 2.40499162674 255.240997314
endloop
endfacet
facet normal 0.207046017051 0.978331267834 6.49546407772e-08
outer loop
vertex 19.0885562897 2.39118885994 251.649993896
vertex 19.0233345032 2.40499186516 251.649993896
vertex 19.0885562897 2.39118862152 255.240997314
endloop
endfacet
facet normal 0.207766368985 0.978178441525 -0.0
outer loop
vertex 19.1537685394 2.37733745575 251.649993896
vertex 19.0885562897 2.39118862152 255.240997314
vertex 19.1537685394 2.37733745575 255.240997314
endloop
endfacet
facet normal 0.207769796252 0.978177726269 6.49178559797e-08
outer loop
vertex 19.1537685394 2.37733745575 251.649993896
vertex 19.0885562897 2.39118885994 251.649993896
vertex 19.0885562897 2.39118862152 255.240997314
endloop
endfacet
facet normal 0.97810125351 -0.20812959969 0.0
outer loop
vertex 19.1537685394 2.37733745575 251.649993896
vertex 19.1537685394 2.37733745575 255.240997314
vertex 19.1433620453 2.32843232155 255.240997314
endloop
endfacet
facet normal 0.978101015091 -0.208130553365 -1.38184743648e-08
outer loop
vertex 19.1433620453 2.32843255997 251.649993896
vertex 19.1537685394 2.37733745575 251.649993896
vertex 19.1433620453 2.32843232155 255.240997314
endloop
endfacet
facet normal -0.206319913268 -0.97848457098 -0.0
outer loop
vertex 18.9478034973 2.36981844902 255.240997314
vertex 18.9478034973 2.36981844902 251.649993896
vertex 19.0130004883 2.35607123375 255.240997314
endloop
endfacet
facet normal -0.207046583295 -0.97833108902 -6.49546336717e-08
outer loop
vertex 19.0130004883 2.35607123375 255.240997314
vertex 19.0130004883 2.35607147217 251.649993896
vertex 19.0781860352 2.34227585793 255.240997314
endloop
endfacet
facet normal -0.206316500902 -0.978485286236 -6.49534683816e-08
outer loop
vertex 18.9478034973 2.36981844902 251.649993896
vertex 19.0130004883 2.35607147217 251.649993896
vertex 19.0130004883 2.35607123375 255.240997314
endloop
endfacet
facet normal -0.207767337561 -0.978178322315 -6.49444871215e-08
outer loop
vertex 19.0781860352 2.34227585793 255.240997314
vertex 19.0781860352 2.34227609634 251.649993896
vertex 19.1433620453 2.32843232155 255.240997314
endloop
endfacet
facet normal -0.207046583295 -0.97833108902 -6.49546336717e-08
outer loop
vertex 19.0130004883 2.35607147217 251.649993896
vertex 19.0781860352 2.34227609634 251.649993896
vertex 19.0781860352 2.34227585793 255.240997314
endloop
endfacet
facet normal -0.207767337561 -0.978178322315 -6.49539870778e-08
outer loop
vertex 19.0781860352 2.34227609634 251.649993896
vertex 19.1433620453 2.32843255997 251.649993896
vertex 19.1433620453 2.32843232155 255.240997314
endloop
endfacet
facet normal -0.978561282158 0.205955684185 0.0
outer loop
vertex 18.9478034973 2.36981844902 251.649993896
vertex 18.9478034973 2.36981844902 255.240997314
vertex 18.9581012726 2.41874647141 255.240997314
endloop
endfacet
facet normal -0.978561282158 0.205955684185 0.0
outer loop
vertex 18.9581012726 2.41874647141 251.649993896
vertex 18.9478034973 2.36981844902 251.649993896
vertex 18.9581012726 2.41874647141 255.240997314
endloop
endfacet
facet normal 0.0 0.0 -1.0
outer loop
vertex 19.0781860352 2.34227609634 251.649993896
vertex 19.0885562897 2.39118885994 251.649993896
vertex 19.1433620453 2.32843255997 251.649993896
endloop
endfacet
facet normal 0.0 0.0 -1.0
outer loop
vertex 19.1433620453 2.32843255997 251.649993896
vertex 19.0885562897 2.39118885994 251.649993896
vertex 19.1537685394 2.37733745575 251.649993896
endloop
endfacet
facet normal 0.0 0.0 -1.0
outer loop
vertex 19.0130004883 2.35607147217 251.649993896
vertex 19.0233345032 2.40499186516 251.649993896
vertex 19.0781860352 2.34227609634 251.649993896
endloop
endfacet
facet normal 0.0 0.0 -1.0
outer loop
vertex 19.0781860352 2.34227609634 251.649993896
vertex 19.0233345032 2.40499186516 251.649993896
vertex 19.0885562897 2.39118885994 251.649993896
endloop
endfacet
facet normal 0.0 0.0 -1.0
outer loop
vertex 18.9478034973 2.36981844902 251.649993896
vertex 18.9581012726 2.41874647141 251.649993896
vertex 19.0130004883 2.35607147217 251.649993896
endloop
endfacet
facet normal 0.0 0.0 -1.0
outer loop
vertex 19.0130004883 2.35607147217 251.649993896
vertex 18.9581012726 2.41874647141 251.649993896
vertex 19.0233345032 2.40499186516 251.649993896
endloop
endfacet
facet normal -0.0 0.0 1.0
outer loop
vertex 19.0781860352 2.34227585793 255.240997314
vertex 19.1433620453 2.32843232155 255.240997314
vertex 19.1537685394 2.37733745575 255.240997314
endloop
endfacet
facet normal 0.0 0.0 1.0
outer loop
vertex 19.0885562897 2.39118862152 255.240997314
vertex 19.0781860352 2.34227585793 255.240997314
vertex 19.1537685394 2.37733745575 255.240997314
endloop
endfacet
facet normal 0.0 0.0 1.0
outer loop
vertex 19.0233345032 2.40499162674 255.240997314
vertex 19.0130004883 2.35607123375 255.240997314
vertex 19.0781860352 2.34227585793 255.240997314
endloop
endfacet
facet normal 0.0 0.0 1.0
outer loop
vertex 19.0233345032 2.40499162674 255.240997314
vertex 19.0781860352 2.34227585793 255.240997314
vertex 19.0885562897 2.39118862152 255.240997314
endloop
endfacet
facet normal 0.0 0.0 1.0
outer loop
vertex 18.9581012726 2.41874647141 255.240997314
vertex 18.9478034973 2.36981844902 255.240997314
vertex 19.0130004883 2.35607123375 255.240997314
endloop
endfacet
facet normal 0.0 0.0 1.0
outer loop
vertex 18.9581012726 2.41874647141 255.240997314
vertex 19.0130004883 2.35607123375 255.240997314
vertex 19.0233345032 2.40499162674 255.240997314
endloop
endfacet
