solid 
facet normal -0.000150203719386 -1.0 0.0
outer loop
vertex -0.444545328617 -4.35075330734 327.628570557
vertex -0.377878665924 -4.35076332092 327.628570557
vertex -0.377878665924 -4.35076332092 331.219573975
endloop
endfacet
facet normal -0.000150203719386 -1.0 0.0
outer loop
vertex -0.444545328617 -4.35075330734 327.628570557
vertex -0.377878665924 -4.35076332092 331.219573975
vertex -0.444545328617 -4.35075330734 331.219573975
endloop
endfacet
facet normal -0.000886916881427 -0.999999642372 0.0
outer loop
vertex -0.51121199131 -4.35069417953 327.628570557
vertex -0.444545328617 -4.35075330734 331.219573975
vertex -0.51121199131 -4.35069417953 331.219573975
endloop
endfacet
facet normal -0.000886916881427 -0.999999642372 0.0
outer loop
vertex -0.51121199131 -4.35069417953 327.628570557
vertex -0.444545328617 -4.35075330734 327.628570557
vertex -0.444545328617 -4.35075330734 331.219573975
endloop
endfacet
facet normal -0.00162363122217 -0.999998629093 0.0
outer loop
vertex -0.577878534794 -4.3505859375 327.628570557
vertex -0.51121199131 -4.35069417953 331.219573975
vertex -0.577878534794 -4.3505859375 331.219573975
endloop
endfacet
facet normal -0.00162363122217 -0.999998629093 0.0
outer loop
vertex -0.577878534794 -4.3505859375 327.628570557
vertex -0.51121199131 -4.35069417953 327.628570557
vertex -0.51121199131 -4.35069417953 331.219573975
endloop
endfacet
facet normal -0.999998033047 0.00199557095766 0.0
outer loop
vertex -0.577778756618 -4.3005862236 327.628570557
vertex -0.577878534794 -4.3505859375 327.628570557
vertex -0.577878534794 -4.3505859375 331.219573975
endloop
endfacet
facet normal -0.999998033047 0.00199557095766 0.0
outer loop
vertex -0.577778756618 -4.3005862236 327.628570557
vertex -0.577878534794 -4.3505859375 331.219573975
vertex -0.577778756618 -4.3005862236 331.219573975
endloop
endfacet
facet normal 0.000143130557262 1.0 0.0
outer loop
vertex -0.377889871597 -4.30076313019 331.219573975
vertex -0.444519549608 -4.30075359344 327.628570557
vertex -0.444519549608 -4.30075359344 331.219573975
endloop
endfacet
facet normal 0.000143130557262 1.0 -0.0
outer loop
vertex -0.377889871597 -4.30076313019 327.628570557
vertex -0.444519549608 -4.30075359344 327.628570557
vertex -0.377889871597 -4.30076313019 331.219573975
endloop
endfacet
facet normal 0.000887409958523 0.999999642372 0.0
outer loop
vertex -0.444519549608 -4.30075359344 331.219573975
vertex -0.511149168015 -4.30069446564 327.628570557
vertex -0.511149168015 -4.30069446564 331.219573975
endloop
endfacet
facet normal 0.000887409958523 0.999999642372 -0.0
outer loop
vertex -0.444519549608 -4.30075359344 327.628570557
vertex -0.511149168015 -4.30069446564 327.628570557
vertex -0.444519549608 -4.30075359344 331.219573975
endloop
endfacet
facet normal 0.0016245318111 0.999998629093 0.0
outer loop
vertex -0.511149168015 -4.30069446564 331.219573975
vertex -0.577778756618 -4.3005862236 327.628570557
vertex -0.577778756618 -4.3005862236 331.219573975
endloop
endfacet
facet normal 0.0016245318111 0.999998629093 -0.0
outer loop
vertex -0.511149168015 -4.30069446564 327.628570557
vertex -0.577778756618 -4.3005862236 327.628570557
vertex -0.511149168015 -4.30069446564 331.219573975
endloop
endfacet
facet normal 1.0 0.000224112605792 0.0
outer loop
vertex -0.377878665924 -4.35076332092 327.628570557
vertex -0.377889871597 -4.30076313019 327.628570557
vertex -0.377889871597 -4.30076313019 331.219573975
endloop
endfacet
facet normal 1.0 0.000224112605792 -0.0
outer loop
vertex -0.377878665924 -4.35076332092 327.628570557
vertex -0.377889871597 -4.30076313019 331.219573975
vertex -0.377878665924 -4.35076332092 331.219573975
endloop
endfacet
facet normal 0.0 -0.0 -1.0
outer loop
vertex -0.577778756618 -4.3005862236 327.628570557
vertex -0.511149168015 -4.30069446564 327.628570557
vertex -0.577878534794 -4.3505859375 327.628570557
endloop
endfacet
facet normal 0.0 0.0 -1.0
outer loop
vertex -0.511149168015 -4.30069446564 327.628570557
vertex -0.51121199131 -4.35069417953 327.628570557
vertex -0.577878534794 -4.3505859375 327.628570557
endloop
endfacet
facet normal -0.0 0.0 -1.0
outer loop
vertex -0.444519549608 -4.30075359344 327.628570557
vertex -0.444545328617 -4.35075330734 327.628570557
vertex -0.511149168015 -4.30069446564 327.628570557
endloop
endfacet
facet normal 0.0 -0.0 -1.0
outer loop
vertex -0.511149168015 -4.30069446564 327.628570557
vertex -0.444545328617 -4.35075330734 327.628570557
vertex -0.51121199131 -4.35069417953 327.628570557
endloop
endfacet
facet normal -0.0 -0.0 -1.0
outer loop
vertex -0.377889871597 -4.30076313019 327.628570557
vertex -0.377878665924 -4.35076332092 327.628570557
vertex -0.444519549608 -4.30075359344 327.628570557
endloop
endfacet
facet normal 0.0 -0.0 -1.0
outer loop
vertex -0.444519549608 -4.30075359344 327.628570557
vertex -0.377878665924 -4.35076332092 327.628570557
vertex -0.444545328617 -4.35075330734 327.628570557
endloop
endfacet
facet normal 0.0 0.0 1.0
outer loop
vertex -0.511149168015 -4.30069446564 331.219573975
vertex -0.577778756618 -4.3005862236 331.219573975
vertex -0.577878534794 -4.3505859375 331.219573975
endloop
endfacet
facet normal 0.0 -0.0 1.0
outer loop
vertex -0.51121199131 -4.35069417953 331.219573975
vertex -0.511149168015 -4.30069446564 331.219573975
vertex -0.577878534794 -4.3505859375 331.219573975
endloop
endfacet
facet normal 0.0 -0.0 1.0
outer loop
vertex -0.444545328617 -4.35075330734 331.219573975
vertex -0.444519549608 -4.30075359344 331.219573975
vertex -0.511149168015 -4.30069446564 331.219573975
endloop
endfacet
facet normal 0.0 0.0 1.0
outer loop
vertex -0.444545328617 -4.35075330734 331.219573975
vertex -0.511149168015 -4.30069446564 331.219573975
vertex -0.51121199131 -4.35069417953 331.219573975
endloop
endfacet
facet normal 0.0 0.0 1.0
outer loop
vertex -0.377878665924 -4.35076332092 331.219573975
vertex -0.377889871597 -4.30076313019 331.219573975
vertex -0.444519549608 -4.30075359344 331.219573975
endloop
endfacet
facet normal 0.0 0.0 1.0
outer loop
vertex -0.377878665924 -4.35076332092 331.219573975
vertex -0.444519549608 -4.30075359344 331.219573975
vertex -0.444545328617 -4.35075330734 331.219573975
endloop
endfacet
