solid 
facet normal -0.206322103739 -0.978484153748 0.0
outer loop
vertex -19.0233478546 -2.40498900414 199.876785278
vertex -18.9581165314 -2.41874361038 199.876785278
vertex -18.9581165314 -2.41874361038 203.467788696
endloop
endfacet
facet normal -0.206325531006 -0.978483438492 6.49647446949e-08
outer loop
vertex -19.0233478546 -2.40498900414 199.876785278
vertex -18.9581165314 -2.41874361038 203.467788696
vertex -19.0233478546 -2.40498876572 203.467788696
endloop
endfacet
facet normal -0.207046017051 -0.978331267834 6.49546407772e-08
outer loop
vertex -19.0885696411 -2.39118599892 199.876785278
vertex -19.0233478546 -2.40498876572 203.467788696
vertex -19.0885696411 -2.3911857605 203.467788696
endloop
endfacet
facet normal -0.207046017051 -0.978331267834 6.51616929304e-08
outer loop
vertex -19.0885696411 -2.39118599892 199.876785278
vertex -19.0233478546 -2.40498900414 199.876785278
vertex -19.0233478546 -2.40498876572 203.467788696
endloop
endfacet
facet normal -0.207766368985 -0.978178441525 0.0
outer loop
vertex -19.1537818909 -2.37733459473 199.876785278
vertex -19.0885696411 -2.3911857605 203.467788696
vertex -19.1537818909 -2.37733459473 203.467788696
endloop
endfacet
facet normal -0.207769796252 -0.978177726269 6.49178559797e-08
outer loop
vertex -19.1537818909 -2.37733459473 199.876785278
vertex -19.0885696411 -2.39118599892 199.876785278
vertex -19.0885696411 -2.3911857605 203.467788696
endloop
endfacet
facet normal -0.978101015091 0.208130553365 0.0
outer loop
vertex -19.1433753967 -2.32842969894 199.876785278
vertex -19.1537818909 -2.37733459473 199.876785278
vertex -19.1537818909 -2.37733459473 203.467788696
endloop
endfacet
facet normal -0.97810125351 0.20812959969 -1.38184113041e-08
outer loop
vertex -19.1433753967 -2.32842969894 199.876785278
vertex -19.1537818909 -2.37733459473 203.467788696
vertex -19.1433753967 -2.32842946053 203.467788696
endloop
endfacet
facet normal 0.206325694919 0.978483378887 0.0
outer loop
vertex -18.9478187561 -2.369815588 203.467788696
vertex -18.9478187561 -2.369815588 199.876785278
vertex -19.0130138397 -2.35606837273 203.467788696
endloop
endfacet
facet normal 0.206322282553 0.978484094143 -6.4955287371e-08
outer loop
vertex -18.9478187561 -2.369815588 199.876785278
vertex -19.0130138397 -2.35606861115 199.876785278
vertex -19.0130138397 -2.35606837273 203.467788696
endloop
endfacet
facet normal 0.207046583295 0.97833108902 -6.49546336717e-08
outer loop
vertex -19.0130138397 -2.35606837273 203.467788696
vertex -19.0781993866 -2.34227323532 199.876785278
vertex -19.0781993866 -2.3422729969 203.467788696
endloop
endfacet
facet normal 0.207046583295 0.97833108902 -6.49546336717e-08
outer loop
vertex -19.0130138397 -2.35606861115 199.876785278
vertex -19.0781993866 -2.34227323532 199.876785278
vertex -19.0130138397 -2.35606837273 203.467788696
endloop
endfacet
facet normal 0.207767337561 0.978178322315 -6.49539870778e-08
outer loop
vertex -19.0781993866 -2.3422729969 203.467788696
vertex -19.1433753967 -2.32842969894 199.876785278
vertex -19.1433753967 -2.32842946053 203.467788696
endloop
endfacet
facet normal 0.207767337561 0.978178322315 -6.49444871215e-08
outer loop
vertex -19.0781993866 -2.34227323532 199.876785278
vertex -19.1433753967 -2.32842969894 199.876785278
vertex -19.0781993866 -2.3422729969 203.467788696
endloop
endfacet
facet normal 0.978561282158 -0.205955684185 0.0
outer loop
vertex -18.9478187561 -2.369815588 199.876785278
vertex -18.9478187561 -2.369815588 203.467788696
vertex -18.9581165314 -2.41874361038 203.467788696
endloop
endfacet
facet normal 0.978561282158 -0.205955684185 0.0
outer loop
vertex -18.9581165314 -2.41874361038 199.876785278
vertex -18.9478187561 -2.369815588 199.876785278
vertex -18.9581165314 -2.41874361038 203.467788696
endloop
endfacet
facet normal 0.0 -0.0 -1.0
outer loop
vertex -19.1433753967 -2.32842969894 199.876785278
vertex -19.0781993866 -2.34227323532 199.876785278
vertex -19.1537818909 -2.37733459473 199.876785278
endloop
endfacet
facet normal 0.0 0.0 -1.0
outer loop
vertex -19.0781993866 -2.34227323532 199.876785278
vertex -19.0885696411 -2.39118599892 199.876785278
vertex -19.1537818909 -2.37733459473 199.876785278
endloop
endfacet
facet normal -0.0 0.0 -1.0
outer loop
vertex -19.0130138397 -2.35606861115 199.876785278
vertex -19.0233478546 -2.40498900414 199.876785278
vertex -19.0781993866 -2.34227323532 199.876785278
endloop
endfacet
facet normal 0.0 -0.0 -1.0
outer loop
vertex -19.0781993866 -2.34227323532 199.876785278
vertex -19.0233478546 -2.40498900414 199.876785278
vertex -19.0885696411 -2.39118599892 199.876785278
endloop
endfacet
facet normal -0.0 0.0 -1.0
outer loop
vertex -18.9478187561 -2.369815588 199.876785278
vertex -18.9581165314 -2.41874361038 199.876785278
vertex -19.0130138397 -2.35606861115 199.876785278
endloop
endfacet
facet normal 0.0 -0.0 -1.0
outer loop
vertex -19.0130138397 -2.35606861115 199.876785278
vertex -18.9581165314 -2.41874361038 199.876785278
vertex -19.0233478546 -2.40498900414 199.876785278
endloop
endfacet
facet normal 0.0 0.0 1.0
outer loop
vertex -19.0781993866 -2.3422729969 203.467788696
vertex -19.1433753967 -2.32842946053 203.467788696
vertex -19.1537818909 -2.37733459473 203.467788696
endloop
endfacet
facet normal 0.0 -0.0 1.0
outer loop
vertex -19.0885696411 -2.3911857605 203.467788696
vertex -19.0781993866 -2.3422729969 203.467788696
vertex -19.1537818909 -2.37733459473 203.467788696
endloop
endfacet
facet normal 0.0 -0.0 1.0
outer loop
vertex -19.0233478546 -2.40498876572 203.467788696
vertex -19.0130138397 -2.35606837273 203.467788696
vertex -19.0781993866 -2.3422729969 203.467788696
endloop
endfacet
facet normal 0.0 0.0 1.0
outer loop
vertex -19.0233478546 -2.40498876572 203.467788696
vertex -19.0781993866 -2.3422729969 203.467788696
vertex -19.0885696411 -2.3911857605 203.467788696
endloop
endfacet
facet normal 0.0 -0.0 1.0
outer loop
vertex -18.9581165314 -2.41874361038 203.467788696
vertex -18.9478187561 -2.369815588 203.467788696
vertex -19.0130138397 -2.35606837273 203.467788696
endloop
endfacet
facet normal 0.0 0.0 1.0
outer loop
vertex -18.9581165314 -2.41874361038 203.467788696
vertex -19.0130138397 -2.35606837273 203.467788696
vertex -19.0233478546 -2.40498876572 203.467788696
endloop
endfacet
