solid 
facet normal 0.206325531006 0.978483438492 0.0
outer loop
vertex 19.0233421326 2.40498995781 -184.909881592
vertex 18.9581108093 2.41874480247 -184.909881592
vertex 18.9581108093 2.41874480247 -181.318878174
endloop
endfacet
facet normal 0.206322103739 0.978484153748 -6.49647944329e-08
outer loop
vertex 19.0233421326 2.40498995781 -184.909881592
vertex 18.9581108093 2.41874480247 -181.318878174
vertex 19.0233421326 2.40499019623 -181.318878174
endloop
endfacet
facet normal 0.207040220499 0.978332459927 -1.74923400209e-07
outer loop
vertex 19.0885639191 2.39118695259 -184.909881592
vertex 19.0233421326 2.40499019623 -181.318878174
vertex 19.0885658264 2.39118719101 -181.318878174
endloop
endfacet
facet normal 0.207046017051 0.978331267834 -6.49185523116e-08
outer loop
vertex 19.0885639191 2.39118695259 -184.909881592
vertex 19.0233421326 2.40498995781 -184.909881592
vertex 19.0233421326 2.40499019623 -181.318878174
endloop
endfacet
facet normal 0.207775607705 0.978176474571 -0.0
outer loop
vertex 19.1537761688 2.37733578682 -184.909881592
vertex 19.0885658264 2.39118719101 -181.318878174
vertex 19.1537761688 2.37733578682 -181.318878174
endloop
endfacet
facet normal 0.207766368985 0.978178441525 -1.753026595e-07
outer loop
vertex 19.1537761688 2.37733578682 -184.909881592
vertex 19.0885639191 2.39118695259 -184.909881592
vertex 19.0885658264 2.39118719101 -181.318878174
endloop
endfacet
facet normal 0.97810125351 -0.20812959969 1.39399807253e-08
outer loop
vertex 19.1537761688 2.37733578682 -184.909881592
vertex 19.1433696747 2.32843089104 -181.318878174
vertex 19.1433696747 2.32843065262 -184.909881592
endloop
endfacet
facet normal 0.978101015091 -0.208130553365 0.0
outer loop
vertex 19.1537761688 2.37733578682 -181.318878174
vertex 19.1433696747 2.32843089104 -181.318878174
vertex 19.1537761688 2.37733578682 -184.909881592
endloop
endfacet
facet normal -0.206322282553 -0.978484094143 -0.0
outer loop
vertex 18.9478130341 2.36981678009 -181.318878174
vertex 18.9478130341 2.36981678009 -184.909881592
vertex 19.0130081177 2.35606980324 -181.318878174
endloop
endfacet
facet normal -0.207046583295 -0.97833108902 6.49546336717e-08
outer loop
vertex 19.0130081177 2.35606980324 -181.318878174
vertex 19.0130081177 2.35606956482 -184.909881592
vertex 19.0781936646 2.34227442741 -181.318878174
endloop
endfacet
facet normal -0.206325694919 -0.978483378887 6.49552376331e-08
outer loop
vertex 18.9478130341 2.36981678009 -184.909881592
vertex 19.0130081177 2.35606956482 -184.909881592
vertex 19.0130081177 2.35606980324 -181.318878174
endloop
endfacet
facet normal -0.207046583295 -0.97833108902 6.49546336717e-08
outer loop
vertex 19.0130081177 2.35606956482 -184.909881592
vertex 19.0781936646 2.342274189 -184.909881592
vertex 19.0781936646 2.34227442741 -181.318878174
endloop
endfacet
facet normal -0.207767337561 -0.978178322315 6.49539870778e-08
outer loop
vertex 19.0781936646 2.34227442741 -181.318878174
vertex 19.1433696747 2.32843065262 -184.909881592
vertex 19.1433696747 2.32843089104 -181.318878174
endloop
endfacet
facet normal -0.207767337561 -0.978178322315 6.49444871215e-08
outer loop
vertex 19.0781936646 2.342274189 -184.909881592
vertex 19.1433696747 2.32843065262 -184.909881592
vertex 19.0781936646 2.34227442741 -181.318878174
endloop
endfacet
facet normal -0.978561282158 0.205955684185 0.0
outer loop
vertex 18.9478130341 2.36981678009 -184.909881592
vertex 18.9478130341 2.36981678009 -181.318878174
vertex 18.9581108093 2.41874480247 -184.909881592
endloop
endfacet
facet normal -0.978561282158 0.205955684185 0.0
outer loop
vertex 18.9478130341 2.36981678009 -181.318878174
vertex 18.9581108093 2.41874480247 -181.318878174
vertex 18.9581108093 2.41874480247 -184.909881592
endloop
endfacet
facet normal 0.0 0.0 1.0
outer loop
vertex 19.0885658264 2.39118719101 -181.318878174
vertex 19.0781936646 2.34227442741 -181.318878174
vertex 19.1433696747 2.32843089104 -181.318878174
endloop
endfacet
facet normal 0.0 0.0 1.0
outer loop
vertex 19.0885658264 2.39118719101 -181.318878174
vertex 19.1433696747 2.32843089104 -181.318878174
vertex 19.1537761688 2.37733578682 -181.318878174
endloop
endfacet
facet normal 0.0 0.0 1.0
outer loop
vertex 19.0233421326 2.40499019623 -181.318878174
vertex 19.0130081177 2.35606980324 -181.318878174
vertex 19.0781936646 2.34227442741 -181.318878174
endloop
endfacet
facet normal 0.0 0.0 1.0
outer loop
vertex 19.0233421326 2.40499019623 -181.318878174
vertex 19.0781936646 2.34227442741 -181.318878174
vertex 19.0885658264 2.39118719101 -181.318878174
endloop
endfacet
facet normal 0.0 0.0 1.0
outer loop
vertex 18.9581108093 2.41874480247 -181.318878174
vertex 18.9478130341 2.36981678009 -181.318878174
vertex 19.0130081177 2.35606980324 -181.318878174
endloop
endfacet
facet normal 0.0 0.0 1.0
outer loop
vertex 18.9581108093 2.41874480247 -181.318878174
vertex 19.0130081177 2.35606980324 -181.318878174
vertex 19.0233421326 2.40499019623 -181.318878174
endloop
endfacet
facet normal 0.0 0.0 -1.0
outer loop
vertex 19.1433696747 2.32843065262 -184.909881592
vertex 19.0781936646 2.342274189 -184.909881592
vertex 19.1537761688 2.37733578682 -184.909881592
endloop
endfacet
facet normal 0.0 0.0 -1.0
outer loop
vertex 19.0781936646 2.342274189 -184.909881592
vertex 19.0885639191 2.39118695259 -184.909881592
vertex 19.1537761688 2.37733578682 -184.909881592
endloop
endfacet
facet normal 0.0 0.0 -1.0
outer loop
vertex 19.0130081177 2.35606956482 -184.909881592
vertex 19.0233421326 2.40498995781 -184.909881592
vertex 19.0781936646 2.342274189 -184.909881592
endloop
endfacet
facet normal 0.0 0.0 -1.0
outer loop
vertex 19.0781936646 2.342274189 -184.909881592
vertex 19.0233421326 2.40498995781 -184.909881592
vertex 19.0885639191 2.39118695259 -184.909881592
endloop
endfacet
facet normal 0.0 0.0 -1.0
outer loop
vertex 19.0130081177 2.35606956482 -184.909881592
vertex 18.9478130341 2.36981678009 -184.909881592
vertex 19.0233421326 2.40498995781 -184.909881592
endloop
endfacet
facet normal 0.0 0.0 -1.0
outer loop
vertex 18.9478130341 2.36981678009 -184.909881592
vertex 18.9581108093 2.41874480247 -184.909881592
vertex 19.0233421326 2.40498995781 -184.909881592
endloop
endfacet
