solid 
facet normal 0.000143051162013 1.0 1.18720484832e-12
outer loop
vertex 0.444555401802 4.35075473785 269.725006104
vertex 0.377888739109 4.3507642746 269.725006104
vertex 0.377888709307 4.3507642746 273.316009521
endloop
endfacet
facet normal 0.000143051147461 1.0 1.18720484832e-12
outer loop
vertex 0.444555401802 4.35075473785 269.725006104
vertex 0.377888709307 4.3507642746 273.316009521
vertex 0.444555372 4.35075473785 273.316009521
endloop
endfacet
facet normal 0.000886917172465 0.999999642372 1.47213404661e-11
outer loop
vertex 0.511222064495 4.35069561005 269.725006104
vertex 0.444555372 4.35075473785 273.316009521
vertex 0.51122200489 4.35069561005 273.316009521
endloop
endfacet
facet normal 0.00163078249898 0.999998688698 2.70682590925e-11
outer loop
vertex 0.511222064495 4.35069561005 269.725006104
vertex 0.51122200489 4.35069561005 273.316009521
vertex 0.577888607979 4.35058689117 273.316009521
endloop
endfacet
facet normal 0.000886916881427 0.999999642372 7.5981087741e-12
outer loop
vertex 0.511222064495 4.35069561005 269.725006104
vertex 0.444555401802 4.35075473785 269.725006104
vertex 0.444555372 4.35075473785 273.316009521
endloop
endfacet
facet normal 0.00162363122217 0.999998629093 1.32786425411e-07
outer loop
vertex 0.577888607979 4.35058736801 269.725006104
vertex 0.511222064495 4.35069561005 269.725006104
vertex 0.577888607979 4.35058689117 273.316009521
endloop
endfacet
facet normal 0.999998033047 -0.00199555186555 -2.63399635436e-10
outer loop
vertex 0.577788829803 4.30058717728 269.725006104
vertex 0.577888607979 4.35058736801 269.725006104
vertex 0.577888607979 4.35058689117 273.316009521
endloop
endfacet
facet normal 0.999998033047 -0.00199557095766 0.0
outer loop
vertex 0.577788829803 4.30058717728 269.725006104
vertex 0.577888607979 4.35058689117 273.316009521
vertex 0.577788829803 4.30058717728 273.316009521
endloop
endfacet
facet normal -0.000143130557262 -1.0 0.0
outer loop
vertex 0.37789991498 4.30076408386 273.316009521
vertex 0.444529592991 4.30075454712 269.725006104
vertex 0.444529592991 4.30075454712 273.316009521
endloop
endfacet
facet normal -0.000887409551069 -0.999999642372 -0.0
outer loop
vertex 0.444529592991 4.30075454712 273.316009521
vertex 0.444529592991 4.30075454712 269.725006104
vertex 0.511159241199 4.30069541931 273.316009521
endloop
endfacet
facet normal -0.000150287087308 -1.0 -1.32786595941e-07
outer loop
vertex 0.37789991498 4.3007645607 269.725006104
vertex 0.444529592991 4.30075454712 269.725006104
vertex 0.37789991498 4.30076408386 273.316009521
endloop
endfacet
facet normal -0.000887409551069 -0.999999642372 0.0
outer loop
vertex 0.444529592991 4.30075454712 269.725006104
vertex 0.511159241199 4.30069541931 269.725006104
vertex 0.511159241199 4.30069541931 273.316009521
endloop
endfacet
facet normal -0.0016245318111 -0.999998629093 0.0
outer loop
vertex 0.511159241199 4.30069541931 273.316009521
vertex 0.577788829803 4.30058717728 269.725006104
vertex 0.577788829803 4.30058717728 273.316009521
endloop
endfacet
facet normal -0.0016245318111 -0.999998629093 0.0
outer loop
vertex 0.511159241199 4.30069541931 269.725006104
vertex 0.577788829803 4.30058717728 269.725006104
vertex 0.511159241199 4.30069541931 273.316009521
endloop
endfacet
facet normal -1.0 -0.000223518683924 -2.97594379695e-11
outer loop
vertex 0.377888739109 4.3507642746 269.725006104
vertex 0.37789991498 4.3007645607 269.725006104
vertex 0.37789991498 4.30076408386 273.316009521
endloop
endfacet
facet normal -1.0 -0.000224112605792 -8.2991631345e-09
outer loop
vertex 0.377888739109 4.3507642746 269.725006104
vertex 0.37789991498 4.30076408386 273.316009521
vertex 0.377888709307 4.3507642746 273.316009521
endloop
endfacet
facet normal 0.0 0.0 -1.0
outer loop
vertex 0.577788829803 4.30058717728 269.725006104
vertex 0.511159241199 4.30069541931 269.725006104
vertex 0.577888607979 4.35058736801 269.725006104
endloop
endfacet
facet normal 0.0 0.0 -1.0
outer loop
vertex 0.511159241199 4.30069541931 269.725006104
vertex 0.511222064495 4.35069561005 269.725006104
vertex 0.577888607979 4.35058736801 269.725006104
endloop
endfacet
facet normal 0.0 0.0 -1.0
outer loop
vertex 0.444529592991 4.30075454712 269.725006104
vertex 0.444555401802 4.35075473785 269.725006104
vertex 0.511159241199 4.30069541931 269.725006104
endloop
endfacet
facet normal 0.0 0.0 -1.0
outer loop
vertex 0.511159241199 4.30069541931 269.725006104
vertex 0.444555401802 4.35075473785 269.725006104
vertex 0.511222064495 4.35069561005 269.725006104
endloop
endfacet
facet normal 0.0 0.0 -1.0
outer loop
vertex 0.444529592991 4.30075454712 269.725006104
vertex 0.37789991498 4.3007645607 269.725006104
vertex 0.444555401802 4.35075473785 269.725006104
endloop
endfacet
facet normal 0.0 0.0 -1.0
outer loop
vertex 0.37789991498 4.3007645607 269.725006104
vertex 0.377888739109 4.3507642746 269.725006104
vertex 0.444555401802 4.35075473785 269.725006104
endloop
endfacet
facet normal -0.0 0.0 1.0
outer loop
vertex 0.511159241199 4.30069541931 273.316009521
vertex 0.577788829803 4.30058717728 273.316009521
vertex 0.577888607979 4.35058689117 273.316009521
endloop
endfacet
facet normal 0.0 0.0 1.0
outer loop
vertex 0.51122200489 4.35069561005 273.316009521
vertex 0.511159241199 4.30069541931 273.316009521
vertex 0.577888607979 4.35058689117 273.316009521
endloop
endfacet
facet normal 0.0 0.0 1.0
outer loop
vertex 0.444555372 4.35075473785 273.316009521
vertex 0.444529592991 4.30075454712 273.316009521
vertex 0.511159241199 4.30069541931 273.316009521
endloop
endfacet
facet normal 0.0 0.0 1.0
outer loop
vertex 0.444555372 4.35075473785 273.316009521
vertex 0.511159241199 4.30069541931 273.316009521
vertex 0.51122200489 4.35069561005 273.316009521
endloop
endfacet
facet normal 0.0 0.0 1.0
outer loop
vertex 0.377888709307 4.3507642746 273.316009521
vertex 0.37789991498 4.30076408386 273.316009521
vertex 0.444529592991 4.30075454712 273.316009521
endloop
endfacet
facet normal 0.0 0.0 1.0
outer loop
vertex 0.377888709307 4.3507642746 273.316009521
vertex 0.444529592991 4.30075454712 273.316009521
vertex 0.444555372 4.35075473785 273.316009521
endloop
endfacet
