solid 
facet normal -0.000143051162013 1.0 0.0
outer loop
vertex -0.377883404493 4.35076379776 -360.127563477
vertex -0.377883404493 4.35076379776 -363.718566895
vertex -0.444550067186 4.35075426102 -363.718566895
endloop
endfacet
facet normal -0.000886917230673 0.999999642372 0.0
outer loop
vertex -0.444550067186 4.35075426102 -360.127563477
vertex -0.444550067186 4.35075426102 -363.718566895
vertex -0.511216700077 4.35069513321 -363.718566895
endloop
endfacet
facet normal -0.000143051162013 1.0 0.0
outer loop
vertex -0.444550067186 4.35075426102 -360.127563477
vertex -0.377883404493 4.35076379776 -360.127563477
vertex -0.444550067186 4.35075426102 -363.718566895
endloop
endfacet
facet normal -0.00162362994161 0.999998688698 0.0
outer loop
vertex -0.511216700077 4.35069513321 -360.127563477
vertex -0.511216700077 4.35069513321 -363.718566895
vertex -0.577883303165 4.35058689117 -363.718566895
endloop
endfacet
facet normal -0.000886917230673 0.999999642372 0.0
outer loop
vertex -0.511216700077 4.35069513321 -360.127563477
vertex -0.444550067186 4.35075426102 -360.127563477
vertex -0.511216700077 4.35069513321 -363.718566895
endloop
endfacet
facet normal -0.00162362994161 0.999998688698 0.0
outer loop
vertex -0.577883303165 4.35058689117 -360.127563477
vertex -0.511216700077 4.35069513321 -360.127563477
vertex -0.577883303165 4.35058689117 -363.718566895
endloop
endfacet
facet normal -0.999998033047 -0.00199555186555 0.0
outer loop
vertex -0.57778352499 4.30058670044 -360.127563477
vertex -0.577883303165 4.35058689117 -360.127563477
vertex -0.577883303165 4.35058689117 -363.718566895
endloop
endfacet
facet normal -0.999998033047 -0.00199555186555 -0.0
outer loop
vertex -0.57778352499 4.30058670044 -360.127563477
vertex -0.577883303165 4.35058689117 -363.718566895
vertex -0.57778352499 4.30058670044 -363.718566895
endloop
endfacet
facet normal 0.000150287087308 -1.0 1.1878638264e-12
outer loop
vertex -0.377894580364 4.30076408386 -363.718566895
vertex -0.444524288177 4.30075407028 -360.127563477
vertex -0.444524258375 4.30075407028 -363.718566895
endloop
endfacet
facet normal 0.000150287087308 -1.0 1.24725696351e-12
outer loop
vertex -0.377894610167 4.30076408386 -360.127563477
vertex -0.444524288177 4.30075407028 -360.127563477
vertex -0.377894580364 4.30076408386 -363.718566895
endloop
endfacet
facet normal 0.000887409143616 -0.999999642372 1.32786013296e-07
outer loop
vertex -0.444524258375 4.30075407028 -363.718566895
vertex -0.511153936386 4.30069541931 -360.127563477
vertex -0.511153936386 4.30069494247 -363.718566895
endloop
endfacet
facet normal 0.000880253035575 -0.999999642372 7.30536291182e-12
outer loop
vertex -0.444524288177 4.30075407028 -360.127563477
vertex -0.511153936386 4.30069541931 -360.127563477
vertex -0.444524258375 4.30075407028 -363.718566895
endloop
endfacet
facet normal 0.0016245318111 -0.999998629093 0.0
outer loop
vertex -0.511153936386 4.30069494247 -363.718566895
vertex -0.57778352499 4.30058670044 -360.127563477
vertex -0.57778352499 4.30058670044 -363.718566895
endloop
endfacet
facet normal 0.0016316883266 -0.999998629093 1.32786425411e-07
outer loop
vertex -0.511153936386 4.30069541931 -360.127563477
vertex -0.57778352499 4.30058670044 -360.127563477
vertex -0.511153936386 4.30069494247 -363.718566895
endloop
endfacet
facet normal 1.0 -0.000224114744924 8.29908408662e-09
outer loop
vertex -0.377883404493 4.35076379776 -360.127563477
vertex -0.377894610167 4.30076408386 -360.127563477
vertex -0.377894580364 4.30076408386 -363.718566895
endloop
endfacet
facet normal 1.0 -0.000223518683924 0.0
outer loop
vertex -0.377883404493 4.35076379776 -360.127563477
vertex -0.377894580364 4.30076408386 -363.718566895
vertex -0.377883404493 4.35076379776 -363.718566895
endloop
endfacet
facet normal 0.0 -0.0 1.0
outer loop
vertex -0.57778352499 4.30058670044 -360.127563477
vertex -0.511153936386 4.30069541931 -360.127563477
vertex -0.577883303165 4.35058689117 -360.127563477
endloop
endfacet
facet normal 0.0 0.0 1.0
outer loop
vertex -0.511153936386 4.30069541931 -360.127563477
vertex -0.511216700077 4.35069513321 -360.127563477
vertex -0.577883303165 4.35058689117 -360.127563477
endloop
endfacet
facet normal 0.0 0.0 1.0
outer loop
vertex -0.444524288177 4.30075407028 -360.127563477
vertex -0.444550067186 4.35075426102 -360.127563477
vertex -0.511153936386 4.30069541931 -360.127563477
endloop
endfacet
facet normal 0.0 -0.0 1.0
outer loop
vertex -0.511153936386 4.30069541931 -360.127563477
vertex -0.444550067186 4.35075426102 -360.127563477
vertex -0.511216700077 4.35069513321 -360.127563477
endloop
endfacet
facet normal 0.0 -0.0 1.0
outer loop
vertex -0.444524288177 4.30075407028 -360.127563477
vertex -0.377894610167 4.30076408386 -360.127563477
vertex -0.444550067186 4.35075426102 -360.127563477
endloop
endfacet
facet normal 0.0 -0.0 1.0
outer loop
vertex -0.377894610167 4.30076408386 -360.127563477
vertex -0.377883404493 4.35076379776 -360.127563477
vertex -0.444550067186 4.35075426102 -360.127563477
endloop
endfacet
facet normal 0.0 -0.0 -1.0
outer loop
vertex -0.511216700077 4.35069513321 -363.718566895
vertex -0.511153936386 4.30069494247 -363.718566895
vertex -0.57778352499 4.30058670044 -363.718566895
endloop
endfacet
facet normal 0.0 0.0 -1.0
outer loop
vertex -0.511216700077 4.35069513321 -363.718566895
vertex -0.57778352499 4.30058670044 -363.718566895
vertex -0.577883303165 4.35058689117 -363.718566895
endloop
endfacet
facet normal -0.0 0.0 -1.0
outer loop
vertex -0.444524258375 4.30075407028 -363.718566895
vertex -0.511153936386 4.30069494247 -363.718566895
vertex -0.511216700077 4.35069513321 -363.718566895
endloop
endfacet
facet normal 0.0 -0.0 -1.0
outer loop
vertex -0.444550067186 4.35075426102 -363.718566895
vertex -0.444524258375 4.30075407028 -363.718566895
vertex -0.511216700077 4.35069513321 -363.718566895
endloop
endfacet
facet normal -0.0 0.0 -1.0
outer loop
vertex -0.377894580364 4.30076408386 -363.718566895
vertex -0.444524258375 4.30075407028 -363.718566895
vertex -0.444550067186 4.35075426102 -363.718566895
endloop
endfacet
facet normal 0.0 0.0 -1.0
outer loop
vertex -0.377883404493 4.35076379776 -363.718566895
vertex -0.377894580364 4.30076408386 -363.718566895
vertex -0.444550067186 4.35075426102 -363.718566895
endloop
endfacet
