solid 
facet normal -0.000143051162013 1.0 1.18720614936e-12
outer loop
vertex -0.444550037384 4.35075426102 43.933303833
vertex -0.377883374691 4.35076379776 43.933303833
vertex -0.377883404493 4.35076379776 40.3423042297
endloop
endfacet
facet normal -0.000143051162013 1.0 1.18720614936e-12
outer loop
vertex -0.444550037384 4.35075426102 43.933303833
vertex -0.377883404493 4.35076379776 40.3423042297
vertex -0.444550067186 4.35075426102 40.3423042297
endloop
endfacet
facet normal -0.000886917230673 0.999999642372 0.0
outer loop
vertex -0.511216700077 4.35069513321 43.933303833
vertex -0.444550067186 4.35075426102 40.3423042297
vertex -0.511216700077 4.35069513321 40.3423042297
endloop
endfacet
facet normal -0.00088691682322 0.999999642372 7.59811658035e-12
outer loop
vertex -0.511216700077 4.35069513321 43.933303833
vertex -0.444550037384 4.35075426102 43.933303833
vertex -0.444550067186 4.35075426102 40.3423042297
endloop
endfacet
facet normal -0.00162363133859 0.999998688698 0.0
outer loop
vertex -0.577883243561 4.35058689117 43.933303833
vertex -0.511216700077 4.35069513321 40.3423042297
vertex -0.577883243561 4.35058689117 40.3423042297
endloop
endfacet
facet normal -0.00162363133859 0.999998688698 0.0
outer loop
vertex -0.577883243561 4.35058689117 43.933303833
vertex -0.511216700077 4.35069513321 43.933303833
vertex -0.511216700077 4.35069513321 40.3423042297
endloop
endfacet
facet normal -0.999998092651 -0.00199555209838 0.0
outer loop
vertex -0.577883243561 4.35058689117 43.933303833
vertex -0.577783465385 4.30058670044 40.3423042297
vertex -0.577783465385 4.30058670044 43.933303833
endloop
endfacet
facet normal -0.999998092651 -0.00199555209838 0.0
outer loop
vertex -0.577883243561 4.35058689117 40.3423042297
vertex -0.577783465385 4.30058670044 40.3423042297
vertex -0.577883243561 4.35058689117 43.933303833
endloop
endfacet
facet normal 0.00015028710186 -1.0 0.0
outer loop
vertex -0.377894580364 4.30076408386 40.3423042297
vertex -0.377894580364 4.30076408386 43.933303833
vertex -0.444524258375 4.30075407028 40.3423042297
endloop
endfacet
facet normal 0.00015028710186 -1.0 0.0
outer loop
vertex -0.377894580364 4.30076408386 43.933303833
vertex -0.444524258375 4.30075407028 43.933303833
vertex -0.444524258375 4.30075407028 40.3423042297
endloop
endfacet
facet normal 0.000887409900315 -0.999999642372 0.0
outer loop
vertex -0.444524258375 4.30075407028 40.3423042297
vertex -0.511153876781 4.30069494247 43.933303833
vertex -0.511153876781 4.30069494247 40.3423042297
endloop
endfacet
facet normal 0.00162453192752 -0.999998688698 0.0
outer loop
vertex -0.511153876781 4.30069494247 40.3423042297
vertex -0.511153876781 4.30069494247 43.933303833
vertex -0.577783465385 4.30058670044 40.3423042297
endloop
endfacet
facet normal 0.000887409900315 -0.999999642372 0.0
outer loop
vertex -0.444524258375 4.30075407028 43.933303833
vertex -0.511153876781 4.30069494247 43.933303833
vertex -0.444524258375 4.30075407028 40.3423042297
endloop
endfacet
facet normal 0.00162453192752 -0.999998688698 0.0
outer loop
vertex -0.511153876781 4.30069494247 43.933303833
vertex -0.577783465385 4.30058670044 43.933303833
vertex -0.577783465385 4.30058670044 40.3423042297
endloop
endfacet
facet normal 1.0 -0.000224114744924 -8.2990929684e-09
outer loop
vertex -0.377894580364 4.30076408386 43.933303833
vertex -0.377883404493 4.35076379776 40.3423042297
vertex -0.377883374691 4.35076379776 43.933303833
endloop
endfacet
facet normal 1.0 -0.000223518713028 0.0
outer loop
vertex -0.377894580364 4.30076408386 40.3423042297
vertex -0.377883404493 4.35076379776 40.3423042297
vertex -0.377894580364 4.30076408386 43.933303833
endloop
endfacet
facet normal -0.0 0.0 -1.0
outer loop
vertex -0.511153876781 4.30069494247 40.3423042297
vertex -0.577783465385 4.30058670044 40.3423042297
vertex -0.577883243561 4.35058689117 40.3423042297
endloop
endfacet
facet normal 0.0 -0.0 -1.0
outer loop
vertex -0.511216700077 4.35069513321 40.3423042297
vertex -0.511153876781 4.30069494247 40.3423042297
vertex -0.577883243561 4.35058689117 40.3423042297
endloop
endfacet
facet normal 0.0 -0.0 -1.0
outer loop
vertex -0.444550067186 4.35075426102 40.3423042297
vertex -0.444524258375 4.30075407028 40.3423042297
vertex -0.511153876781 4.30069494247 40.3423042297
endloop
endfacet
facet normal 0.0 0.0 -1.0
outer loop
vertex -0.444550067186 4.35075426102 40.3423042297
vertex -0.511153876781 4.30069494247 40.3423042297
vertex -0.511216700077 4.35069513321 40.3423042297
endloop
endfacet
facet normal 0.0 0.0 -1.0
outer loop
vertex -0.377883404493 4.35076379776 40.3423042297
vertex -0.377894580364 4.30076408386 40.3423042297
vertex -0.444524258375 4.30075407028 40.3423042297
endloop
endfacet
facet normal 0.0 0.0 -1.0
outer loop
vertex -0.377883404493 4.35076379776 40.3423042297
vertex -0.444524258375 4.30075407028 40.3423042297
vertex -0.444550067186 4.35075426102 40.3423042297
endloop
endfacet
facet normal 0.0 -0.0 1.0
outer loop
vertex -0.577783465385 4.30058670044 43.933303833
vertex -0.511153876781 4.30069494247 43.933303833
vertex -0.577883243561 4.35058689117 43.933303833
endloop
endfacet
facet normal 0.0 0.0 1.0
outer loop
vertex -0.511153876781 4.30069494247 43.933303833
vertex -0.511216700077 4.35069513321 43.933303833
vertex -0.577883243561 4.35058689117 43.933303833
endloop
endfacet
facet normal 0.0 -0.0 1.0
outer loop
vertex -0.511153876781 4.30069494247 43.933303833
vertex -0.444524258375 4.30075407028 43.933303833
vertex -0.511216700077 4.35069513321 43.933303833
endloop
endfacet
facet normal 0.0 0.0 1.0
outer loop
vertex -0.444524258375 4.30075407028 43.933303833
vertex -0.444550037384 4.35075426102 43.933303833
vertex -0.511216700077 4.35069513321 43.933303833
endloop
endfacet
facet normal 0.0 -0.0 1.0
outer loop
vertex -0.444524258375 4.30075407028 43.933303833
vertex -0.377894580364 4.30076408386 43.933303833
vertex -0.444550037384 4.35075426102 43.933303833
endloop
endfacet
facet normal 0.0 -0.0 1.0
outer loop
vertex -0.377894580364 4.30076408386 43.933303833
vertex -0.377883374691 4.35076379776 43.933303833
vertex -0.444550037384 4.35075426102 43.933303833
endloop
endfacet
