solid 
facet normal 0.000143051162013 1.0 0.0
outer loop
vertex 0.444560617208 4.35075473785 72.8413085938
vertex 0.377893954515 4.3507642746 72.8413085938
vertex 0.377893954515 4.3507642746 76.4323043823
endloop
endfacet
facet normal 0.000150203719386 1.0 1.32786894369e-07
outer loop
vertex 0.444560617208 4.35075473785 72.8413085938
vertex 0.377893954515 4.3507642746 76.4323043823
vertex 0.444560617208 4.35075426102 76.4323043823
endloop
endfacet
facet normal 0.0008797646733 0.999999642372 -0.0
outer loop
vertex 0.511227250099 4.35069561005 72.8413085938
vertex 0.444560617208 4.35075426102 76.4323043823
vertex 0.511227250099 4.35069561005 76.4323043823
endloop
endfacet
facet normal 0.000886917230673 0.999999642372 1.32786780682e-07
outer loop
vertex 0.511227250099 4.35069561005 72.8413085938
vertex 0.444560617208 4.35075473785 72.8413085938
vertex 0.444560617208 4.35075426102 76.4323043823
endloop
endfacet
facet normal 0.00163078249898 0.999998688698 -0.0
outer loop
vertex 0.577893853188 4.35058689117 72.8413085938
vertex 0.511227250099 4.35069561005 76.4323043823
vertex 0.577893853188 4.35058689117 76.4323043823
endloop
endfacet
facet normal 0.00163078249898 0.999998688698 0.0
outer loop
vertex 0.577893853188 4.35058689117 72.8413085938
vertex 0.511227250099 4.35069561005 72.8413085938
vertex 0.511227250099 4.35069561005 76.4323043823
endloop
endfacet
facet normal 0.999998033047 -0.00199557119049 0.0
outer loop
vertex 0.577794075012 4.30058717728 72.8413085938
vertex 0.577893853188 4.35058689117 72.8413085938
vertex 0.577893853188 4.35058689117 76.4323043823
endloop
endfacet
facet normal 0.999997913837 -0.00199676305056 1.65983280453e-08
outer loop
vertex 0.577794075012 4.30058717728 72.8413085938
vertex 0.577893853188 4.35058689117 76.4323043823
vertex 0.577794015408 4.30058717728 76.4323043823
endloop
endfacet
facet normal -0.000143130557262 -1.0 -1.18786642848e-12
outer loop
vertex 0.377905130386 4.30076408386 76.4323043823
vertex 0.4445348382 4.30075454712 72.8413085938
vertex 0.444534808397 4.30075454712 76.4323043823
endloop
endfacet
facet normal -0.000143130557262 -1.0 -1.18786642848e-12
outer loop
vertex 0.377905160189 4.30076408386 72.8413085938
vertex 0.4445348382 4.30075454712 72.8413085938
vertex 0.377905130386 4.30076408386 76.4323043823
endloop
endfacet
facet normal -0.000887409958523 -0.999999642372 -1.52046968765e-11
outer loop
vertex 0.444534808397 4.30075454712 76.4323043823
vertex 0.511164486408 4.30069541931 72.8413085938
vertex 0.511164426804 4.30069541931 76.4323043823
endloop
endfacet
facet normal -0.000887409551069 -0.999999642372 -7.36477198671e-12
outer loop
vertex 0.4445348382 4.30075454712 72.8413085938
vertex 0.511164486408 4.30069541931 72.8413085938
vertex 0.444534808397 4.30075454712 76.4323043823
endloop
endfacet
facet normal -0.00162453192752 -0.999998688698 -2.66082069572e-11
outer loop
vertex 0.511164426804 4.30069541931 76.4323043823
vertex 0.577794075012 4.30058717728 72.8413085938
vertex 0.577794015408 4.30058717728 76.4323043823
endloop
endfacet
facet normal -0.00162453192752 -0.999998688698 -2.69645677314e-11
outer loop
vertex 0.511164486408 4.30069541931 72.8413085938
vertex 0.577794075012 4.30058717728 72.8413085938
vertex 0.511164426804 4.30069541931 76.4323043823
endloop
endfacet
facet normal -1.0 -0.000224112605792 -8.2990228023e-09
outer loop
vertex 0.377893954515 4.3507642746 72.8413085938
vertex 0.377905160189 4.30076408386 72.8413085938
vertex 0.377905130386 4.30076408386 76.4323043823
endloop
endfacet
facet normal -1.0 -0.000223516573897 0.0
outer loop
vertex 0.377893954515 4.3507642746 72.8413085938
vertex 0.377905130386 4.30076408386 76.4323043823
vertex 0.377893954515 4.3507642746 76.4323043823
endloop
endfacet
facet normal 0.0 0.0 -1.0
outer loop
vertex 0.577794075012 4.30058717728 72.8413085938
vertex 0.511164486408 4.30069541931 72.8413085938
vertex 0.577893853188 4.35058689117 72.8413085938
endloop
endfacet
facet normal 0.0 0.0 -1.0
outer loop
vertex 0.511164486408 4.30069541931 72.8413085938
vertex 0.511227250099 4.35069561005 72.8413085938
vertex 0.577893853188 4.35058689117 72.8413085938
endloop
endfacet
facet normal 0.0 0.0 -1.0
outer loop
vertex 0.4445348382 4.30075454712 72.8413085938
vertex 0.444560617208 4.35075473785 72.8413085938
vertex 0.511164486408 4.30069541931 72.8413085938
endloop
endfacet
facet normal 0.0 0.0 -1.0
outer loop
vertex 0.511164486408 4.30069541931 72.8413085938
vertex 0.444560617208 4.35075473785 72.8413085938
vertex 0.511227250099 4.35069561005 72.8413085938
endloop
endfacet
facet normal 0.0 0.0 -1.0
outer loop
vertex 0.377905160189 4.30076408386 72.8413085938
vertex 0.377893954515 4.3507642746 72.8413085938
vertex 0.4445348382 4.30075454712 72.8413085938
endloop
endfacet
facet normal 0.0 0.0 -1.0
outer loop
vertex 0.4445348382 4.30075454712 72.8413085938
vertex 0.377893954515 4.3507642746 72.8413085938
vertex 0.444560617208 4.35075473785 72.8413085938
endloop
endfacet
facet normal -0.0 0.0 1.0
outer loop
vertex 0.511164426804 4.30069541931 76.4323043823
vertex 0.577794015408 4.30058717728 76.4323043823
vertex 0.577893853188 4.35058689117 76.4323043823
endloop
endfacet
facet normal 0.0 0.0 1.0
outer loop
vertex 0.511227250099 4.35069561005 76.4323043823
vertex 0.511164426804 4.30069541931 76.4323043823
vertex 0.577893853188 4.35058689117 76.4323043823
endloop
endfacet
facet normal 0.0 0.0 1.0
outer loop
vertex 0.444560617208 4.35075426102 76.4323043823
vertex 0.444534808397 4.30075454712 76.4323043823
vertex 0.511164426804 4.30069541931 76.4323043823
endloop
endfacet
facet normal 0.0 0.0 1.0
outer loop
vertex 0.444560617208 4.35075426102 76.4323043823
vertex 0.511164426804 4.30069541931 76.4323043823
vertex 0.511227250099 4.35069561005 76.4323043823
endloop
endfacet
facet normal 0.0 0.0 1.0
outer loop
vertex 0.377893954515 4.3507642746 76.4323043823
vertex 0.377905130386 4.30076408386 76.4323043823
vertex 0.444534808397 4.30075454712 76.4323043823
endloop
endfacet
facet normal 0.0 0.0 1.0
outer loop
vertex 0.377893954515 4.3507642746 76.4323043823
vertex 0.444534808397 4.30075454712 76.4323043823
vertex 0.444560617208 4.35075426102 76.4323043823
endloop
endfacet
