solid 
facet normal 0.120357908309 0.992730557919 6.62798811391e-08
outer loop
vertex 9.90673160553 3.81790947914 122.314002991
vertex 9.90673160553 3.81790924072 125.885002136
vertex 12.949965477 3.44894981384 125.885002136
endloop
endfacet
facet normal 0.154053851962 0.988062441349 1.07109976e-07
outer loop
vertex 12.9499664307 3.44895005226 122.314002991
vertex 12.949965477 3.44894981384 125.885002136
vertex 15.9788894653 2.97669482231 125.885002136
endloop
endfacet
facet normal 0.120357878506 0.992730557919 9.84227739309e-08
outer loop
vertex 12.9499664307 3.44895005226 122.314002991
vertex 9.90673160553 3.81790947914 122.314002991
vertex 12.949965477 3.44894981384 125.885002136
endloop
endfacet
facet normal 0.187571719289 0.982250928879 5.00930745773e-08
outer loop
vertex 15.978890419 2.97669482231 122.314002991
vertex 15.9788894653 2.97669482231 125.885002136
vertex 18.9899978638 2.40169024467 125.885002136
endloop
endfacet
facet normal 0.154053941369 0.988062441349 4.11417850898e-08
outer loop
vertex 15.978890419 2.97669482231 122.314002991
vertex 12.9499664307 3.44895005226 122.314002991
vertex 15.9788894653 2.97669482231 125.885002136
endloop
endfacet
facet normal 0.187571704388 0.982250869274 6.55802097072e-08
outer loop
vertex 18.9899978638 2.40169048309 122.314002991
vertex 15.978890419 2.97669482231 122.314002991
vertex 18.9899978638 2.40169024467 125.885002136
endloop
endfacet
facet normal 0.978920996189 -0.204239502549 -1.36921292082e-08
outer loop
vertex 18.9797859192 2.35274457932 122.314002991
vertex 18.9899978638 2.40169048309 122.314002991
vertex 18.9899978638 2.40169024467 125.885002136
endloop
endfacet
facet normal 0.978920996189 -0.204239502549 -1.36360975844e-08
outer loop
vertex 18.9797859192 2.35274457932 122.314002991
vertex 18.9899978638 2.40169024467 125.885002136
vertex 18.9797859192 2.3527443409 125.885002136
endloop
endfacet
facet normal -0.120357863605 -0.992730498314 -6.62798811391e-08
outer loop
vertex 9.90155887604 3.76817750931 125.885002136
vertex 9.90155887604 3.76817774773 122.314002991
vertex 12.943104744 3.39942288399 125.885002136
endloop
endfacet
facet normal -0.154053926468 -0.988062441349 -6.59682157789e-08
outer loop
vertex 12.943104744 3.39942288399 125.885002136
vertex 12.943104744 3.39942312241 122.314002991
vertex 15.9703483582 2.92742967606 125.885002136
endloop
endfacet
facet normal -0.120357863605 -0.992730498314 -6.53745360069e-08
outer loop
vertex 9.90155887604 3.76817774773 122.314002991
vertex 12.943104744 3.39942312241 122.314002991
vertex 12.943104744 3.39942288399 125.885002136
endloop
endfacet
facet normal -0.187571644783 -0.982250869274 -6.55802026017e-08
outer loop
vertex 15.9703483582 2.92742967606 125.885002136
vertex 15.9703483582 2.92742991447 122.314002991
vertex 18.9797859192 2.3527443409 125.885002136
endloop
endfacet
facet normal -0.154053926468 -0.988062441349 -6.53745360069e-08
outer loop
vertex 12.943104744 3.39942312241 122.314002991
vertex 15.9703483582 2.92742991447 122.314002991
vertex 15.9703483582 2.92742967606 125.885002136
endloop
endfacet
facet normal -0.187571644783 -0.982250869274 -6.53745431123e-08
outer loop
vertex 15.9703483582 2.92742991447 122.314002991
vertex 18.9797859192 2.35274457932 122.314002991
vertex 18.9797859192 2.3527443409 125.885002136
endloop
endfacet
facet normal -0.994634151459 0.10345454514 7.0090422355e-09
outer loop
vertex 9.90673160553 3.81790947914 122.314002991
vertex 9.90155887604 3.76817774773 122.314002991
vertex 9.90155887604 3.76817750931 125.885002136
endloop
endfacet
facet normal -0.994634151459 0.10345453769 6.90716595031e-09
outer loop
vertex 9.90673160553 3.81790947914 122.314002991
vertex 9.90155887604 3.76817750931 125.885002136
vertex 9.90673160553 3.81790924072 125.885002136
endloop
endfacet
facet normal 0.0 0.0 -1.0
outer loop
vertex 18.9797859192 2.35274457932 122.314002991
vertex 15.9703483582 2.92742991447 122.314002991
vertex 18.9899978638 2.40169048309 122.314002991
endloop
endfacet
facet normal 0.0 0.0 -1.0
outer loop
vertex 15.9703483582 2.92742991447 122.314002991
vertex 15.978890419 2.97669482231 122.314002991
vertex 18.9899978638 2.40169048309 122.314002991
endloop
endfacet
facet normal 0.0 0.0 -1.0
outer loop
vertex 15.9703483582 2.92742991447 122.314002991
vertex 12.943104744 3.39942312241 122.314002991
vertex 15.978890419 2.97669482231 122.314002991
endloop
endfacet
facet normal 0.0 0.0 -1.0
outer loop
vertex 12.943104744 3.39942312241 122.314002991
vertex 12.9499664307 3.44895005226 122.314002991
vertex 15.978890419 2.97669482231 122.314002991
endloop
endfacet
facet normal 0.0 0.0 -1.0
outer loop
vertex 12.943104744 3.39942312241 122.314002991
vertex 9.90155887604 3.76817774773 122.314002991
vertex 12.9499664307 3.44895005226 122.314002991
endloop
endfacet
facet normal 0.0 0.0 -1.0
outer loop
vertex 9.90155887604 3.76817774773 122.314002991
vertex 9.90673160553 3.81790947914 122.314002991
vertex 12.9499664307 3.44895005226 122.314002991
endloop
endfacet
facet normal 0.0 0.0 1.0
outer loop
vertex 15.9703483582 2.92742967606 125.885002136
vertex 18.9797859192 2.3527443409 125.885002136
vertex 18.9899978638 2.40169024467 125.885002136
endloop
endfacet
facet normal 0.0 0.0 1.0
outer loop
vertex 15.9788894653 2.97669482231 125.885002136
vertex 15.9703483582 2.92742967606 125.885002136
vertex 18.9899978638 2.40169024467 125.885002136
endloop
endfacet
facet normal 0.0 0.0 1.0
outer loop
vertex 12.943104744 3.39942288399 125.885002136
vertex 15.9703483582 2.92742967606 125.885002136
vertex 15.9788894653 2.97669482231 125.885002136
endloop
endfacet
facet normal 0.0 0.0 1.0
outer loop
vertex 12.949965477 3.44894981384 125.885002136
vertex 12.943104744 3.39942288399 125.885002136
vertex 15.9788894653 2.97669482231 125.885002136
endloop
endfacet
facet normal 0.0 0.0 1.0
outer loop
vertex 9.90155887604 3.76817750931 125.885002136
vertex 12.943104744 3.39942288399 125.885002136
vertex 12.949965477 3.44894981384 125.885002136
endloop
endfacet
facet normal 0.0 0.0 1.0
outer loop
vertex 9.90673160553 3.81790924072 125.885002136
vertex 9.90155887604 3.76817750931 125.885002136
vertex 12.949965477 3.44894981384 125.885002136
endloop
endfacet
