solid 
facet normal -0.0172592047602 0.999851047993 1.33398955882e-07
outer loop
vertex -3.67149376869 4.24854469299 93.3860015869
vertex -0.606431543827 4.30145311356 93.3860015869
vertex -0.606431543827 4.30145359039 89.8150024414
endloop
endfacet
facet normal -0.0172593612224 0.999851047993 0.0
outer loop
vertex -3.67149376869 4.24854469299 93.3860015869
vertex -0.606431543827 4.30145359039 89.8150024414
vertex -3.67149376869 4.24854469299 89.8150024414
endloop
endfacet
facet normal -0.051257148385 0.998685479164 0.0
outer loop
vertex -6.73298311234 4.09141492844 93.3860015869
vertex -3.67149376869 4.24854469299 89.8150024414
vertex -6.73298311234 4.09141492844 89.8150024414
endloop
endfacet
facet normal -0.051257148385 0.998685479164 0.0
outer loop
vertex -6.73298311234 4.09141492844 93.3860015869
vertex -3.67149376869 4.24854469299 93.3860015869
vertex -3.67149376869 4.24854469299 89.8150024414
endloop
endfacet
facet normal -0.0851957499981 0.996364235878 0.0
outer loop
vertex -9.78735637665 3.83024573326 93.3860015869
vertex -6.73298311234 4.09141492844 89.8150024414
vertex -9.78735637665 3.83024573326 89.8150024414
endloop
endfacet
facet normal -0.0851957499981 0.996364235878 0.0
outer loop
vertex -9.78735637665 3.83024573326 93.3860015869
vertex -6.73298311234 4.09141492844 93.3860015869
vertex -6.73298311234 4.09141492844 89.8150024414
endloop
endfacet
facet normal -0.994770228863 -0.102138251066 -6.68302524431e-09
outer loop
vertex -9.78735637665 3.83024573326 93.3860015869
vertex -9.78224945068 3.78050732613 89.8150024414
vertex -9.78224945068 3.78050708771 93.3860015869
endloop
endfacet
facet normal -0.994770169258 -0.102138735354 0.0
outer loop
vertex -9.78735637665 3.83024573326 89.8150024414
vertex -9.78224945068 3.78050732613 89.8150024414
vertex -9.78735637665 3.83024573326 93.3860015869
endloop
endfacet
facet normal 0.0172592941672 -0.999851047993 -1.36196953715e-09
outer loop
vertex -0.606419026852 4.25145339966 89.8150024414
vertex -3.66978049278 4.19857406616 93.3860015869
vertex -3.6697807312 4.19857406616 89.8150024414
endloop
endfacet
facet normal 0.0172592941672 -0.999851047993 0.0
outer loop
vertex -0.606419026852 4.25145339966 93.3860015869
vertex -3.66978049278 4.19857406616 93.3860015869
vertex -0.606419026852 4.25145339966 89.8150024414
endloop
endfacet
facet normal 0.051257122308 -0.998685419559 -1.33473008646e-07
outer loop
vertex -3.6697807312 4.19857406616 89.8150024414
vertex -6.72957134247 4.04153108597 93.3860015869
vertex -6.72957134247 4.04153156281 89.8150024414
endloop
endfacet
facet normal 0.0851957574487 -0.996364235878 -1.33044977702e-07
outer loop
vertex -6.72957134247 4.04153156281 89.8150024414
vertex -6.72957134247 4.04153108597 93.3860015869
vertex -9.78224945068 3.78050732613 89.8150024414
endloop
endfacet
facet normal 0.0512572750449 -0.998685419559 -3.42220363159e-09
outer loop
vertex -3.66978049278 4.19857406616 93.3860015869
vertex -6.72957134247 4.04153108597 93.3860015869
vertex -3.6697807312 4.19857406616 89.8150024414
endloop
endfacet
facet normal 0.0851956754923 -0.996364235878 -6.53745502177e-08
outer loop
vertex -6.72957134247 4.04153108597 93.3860015869
vertex -9.78224945068 3.78050708771 93.3860015869
vertex -9.78224945068 3.78050732613 89.8150024414
endloop
endfacet
facet normal 1.0 0.000250340934144 3.34281421988e-11
outer loop
vertex -0.606419026852 4.25145339966 93.3860015869
vertex -0.606431543827 4.30145359039 89.8150024414
vertex -0.606431543827 4.30145311356 93.3860015869
endloop
endfacet
facet normal 0.999999940395 0.000250338518526 -0.0
outer loop
vertex -0.606419026852 4.25145339966 89.8150024414
vertex -0.606431543827 4.30145359039 89.8150024414
vertex -0.606419026852 4.25145339966 93.3860015869
endloop
endfacet
facet normal 0.0 0.0 -1.0
outer loop
vertex -6.72957134247 4.04153156281 89.8150024414
vertex -9.78224945068 3.78050732613 89.8150024414
vertex -9.78735637665 3.83024573326 89.8150024414
endloop
endfacet
facet normal 0.0 -0.0 -1.0
outer loop
vertex -6.73298311234 4.09141492844 89.8150024414
vertex -6.72957134247 4.04153156281 89.8150024414
vertex -9.78735637665 3.83024573326 89.8150024414
endloop
endfacet
facet normal 0.0 0.0 -1.0
outer loop
vertex -3.6697807312 4.19857406616 89.8150024414
vertex -6.72957134247 4.04153156281 89.8150024414
vertex -6.73298311234 4.09141492844 89.8150024414
endloop
endfacet
facet normal 0.0 -0.0 -1.0
outer loop
vertex -3.67149376869 4.24854469299 89.8150024414
vertex -3.6697807312 4.19857406616 89.8150024414
vertex -6.73298311234 4.09141492844 89.8150024414
endloop
endfacet
facet normal 0.0 0.0 -1.0
outer loop
vertex -0.606419026852 4.25145339966 89.8150024414
vertex -3.6697807312 4.19857406616 89.8150024414
vertex -3.67149376869 4.24854469299 89.8150024414
endloop
endfacet
facet normal 0.0 -0.0 -1.0
outer loop
vertex -0.606431543827 4.30145359039 89.8150024414
vertex -0.606419026852 4.25145339966 89.8150024414
vertex -3.67149376869 4.24854469299 89.8150024414
endloop
endfacet
facet normal 0.0 -0.0 1.0
outer loop
vertex -9.78224945068 3.78050708771 93.3860015869
vertex -6.72957134247 4.04153108597 93.3860015869
vertex -9.78735637665 3.83024573326 93.3860015869
endloop
endfacet
facet normal 0.0 0.0 1.0
outer loop
vertex -6.72957134247 4.04153108597 93.3860015869
vertex -6.73298311234 4.09141492844 93.3860015869
vertex -9.78735637665 3.83024573326 93.3860015869
endloop
endfacet
facet normal 0.0 -0.0 1.0
outer loop
vertex -6.72957134247 4.04153108597 93.3860015869
vertex -3.66978049278 4.19857406616 93.3860015869
vertex -6.73298311234 4.09141492844 93.3860015869
endloop
endfacet
facet normal 0.0 0.0 1.0
outer loop
vertex -3.66978049278 4.19857406616 93.3860015869
vertex -3.67149376869 4.24854469299 93.3860015869
vertex -6.73298311234 4.09141492844 93.3860015869
endloop
endfacet
facet normal 0.0 -0.0 1.0
outer loop
vertex -3.66978049278 4.19857406616 93.3860015869
vertex -0.606419026852 4.25145339966 93.3860015869
vertex -3.67149376869 4.24854469299 93.3860015869
endloop
endfacet
facet normal 0.0 0.0 1.0
outer loop
vertex -0.606419026852 4.25145339966 93.3860015869
vertex -0.606431543827 4.30145311356 93.3860015869
vertex -3.67149376869 4.24854469299 93.3860015869
endloop
endfacet
