solid 
facet normal -0.0172590520233 -0.999851047993 0.0
outer loop
vertex -3.67148280144 -4.24854469299 -51.0540008545
vertex -0.606420636177 -4.30145263672 -51.0540008545
vertex -0.606420636177 -4.30145263672 -47.483001709
endloop
endfacet
facet normal -0.0172590520233 -0.999851047993 0.0
outer loop
vertex -3.67148280144 -4.24854469299 -51.0540008545
vertex -0.606420636177 -4.30145263672 -47.483001709
vertex -3.67148280144 -4.24854469299 -47.483001709
endloop
endfacet
facet normal -0.0512569881976 -0.998685479164 0.0
outer loop
vertex -6.73297214508 -4.09141540527 -51.0540008545
vertex -3.67148280144 -4.24854469299 -47.483001709
vertex -6.73297214508 -4.09141540527 -47.483001709
endloop
endfacet
facet normal -0.0512569881976 -0.998685479164 0.0
outer loop
vertex -6.73297214508 -4.09141540527 -51.0540008545
vertex -3.67148280144 -4.24854469299 -51.0540008545
vertex -3.67148280144 -4.24854469299 -47.483001709
endloop
endfacet
facet normal -0.0851955860853 -0.996364235878 -6.65224817453e-08
outer loop
vertex -9.78734588623 -3.83024644852 -51.0540008545
vertex -6.73297214508 -4.09141540527 -47.483001709
vertex -9.78734588623 -3.83024668694 -47.483001709
endloop
endfacet
facet normal -0.0851956605911 -0.996364235878 0.0
outer loop
vertex -9.78734588623 -3.83024644852 -51.0540008545
vertex -6.73297214508 -4.09141540527 -51.0540008545
vertex -6.73297214508 -4.09141540527 -47.483001709
endloop
endfacet
facet normal -0.994770169258 0.102138735354 0.0
outer loop
vertex -9.78734588623 -3.83024644852 -51.0540008545
vertex -9.78223896027 -3.78050804138 -47.483001709
vertex -9.78223896027 -3.78050804138 -51.0540008545
endloop
endfacet
facet normal -0.994770228863 0.102138251066 6.81928336022e-09
outer loop
vertex -9.78734588623 -3.83024668694 -47.483001709
vertex -9.78223896027 -3.78050804138 -47.483001709
vertex -9.78734588623 -3.83024644852 -51.0540008545
endloop
endfacet
facet normal 0.017259137705 0.999851047993 0.0
outer loop
vertex -0.606408119202 -4.25145292282 -47.483001709
vertex -3.66976976395 -4.19857406616 -51.0540008545
vertex -3.66976976395 -4.19857406616 -47.483001709
endloop
endfacet
facet normal 0.017259137705 0.999851047993 -0.0
outer loop
vertex -0.606408119202 -4.25145292282 -51.0540008545
vertex -3.66976976395 -4.19857406616 -51.0540008545
vertex -0.606408119202 -4.25145292282 -47.483001709
endloop
endfacet
facet normal 0.0512569695711 0.998685538769 1.33473022856e-07
outer loop
vertex -3.66976976395 -4.19857406616 -47.483001709
vertex -6.72956037521 -4.04153156281 -51.0540008545
vertex -6.72956037521 -4.04153203964 -47.483001709
endloop
endfacet
facet normal 0.0851956605911 0.996364235878 1.33044977702e-07
outer loop
vertex -6.72956037521 -4.04153203964 -47.483001709
vertex -6.72956037521 -4.04153156281 -51.0540008545
vertex -9.78223896027 -3.78050804138 -47.483001709
endloop
endfacet
facet normal 0.051257122308 0.998685419559 -0.0
outer loop
vertex -3.66976976395 -4.19857406616 -51.0540008545
vertex -6.72956037521 -4.04153156281 -51.0540008545
vertex -3.66976976395 -4.19857406616 -47.483001709
endloop
endfacet
facet normal 0.0851955115795 0.996364295483 0.0
outer loop
vertex -6.72956037521 -4.04153156281 -51.0540008545
vertex -9.78223896027 -3.78050804138 -51.0540008545
vertex -9.78223896027 -3.78050804138 -47.483001709
endloop
endfacet
facet normal 1.0 -0.000250340934144 0.0
outer loop
vertex -0.606408119202 -4.25145292282 -51.0540008545
vertex -0.606420636177 -4.30145263672 -47.483001709
vertex -0.606420636177 -4.30145263672 -51.0540008545
endloop
endfacet
facet normal 1.0 -0.000250340934144 0.0
outer loop
vertex -0.606408119202 -4.25145292282 -47.483001709
vertex -0.606420636177 -4.30145263672 -47.483001709
vertex -0.606408119202 -4.25145292282 -51.0540008545
endloop
endfacet
facet normal 0.0 0.0 1.0
outer loop
vertex -6.72956037521 -4.04153203964 -47.483001709
vertex -9.78223896027 -3.78050804138 -47.483001709
vertex -9.78734588623 -3.83024668694 -47.483001709
endloop
endfacet
facet normal 0.0 -0.0 1.0
outer loop
vertex -6.73297214508 -4.09141540527 -47.483001709
vertex -6.72956037521 -4.04153203964 -47.483001709
vertex -9.78734588623 -3.83024668694 -47.483001709
endloop
endfacet
facet normal 0.0 0.0 1.0
outer loop
vertex -3.66976976395 -4.19857406616 -47.483001709
vertex -6.72956037521 -4.04153203964 -47.483001709
vertex -6.73297214508 -4.09141540527 -47.483001709
endloop
endfacet
facet normal 0.0 -0.0 1.0
outer loop
vertex -3.67148280144 -4.24854469299 -47.483001709
vertex -3.66976976395 -4.19857406616 -47.483001709
vertex -6.73297214508 -4.09141540527 -47.483001709
endloop
endfacet
facet normal 0.0 0.0 1.0
outer loop
vertex -0.606408119202 -4.25145292282 -47.483001709
vertex -3.66976976395 -4.19857406616 -47.483001709
vertex -3.67148280144 -4.24854469299 -47.483001709
endloop
endfacet
facet normal 0.0 -0.0 1.0
outer loop
vertex -0.606420636177 -4.30145263672 -47.483001709
vertex -0.606408119202 -4.25145292282 -47.483001709
vertex -3.67148280144 -4.24854469299 -47.483001709
endloop
endfacet
facet normal 0.0 -0.0 -1.0
outer loop
vertex -9.78223896027 -3.78050804138 -51.0540008545
vertex -6.72956037521 -4.04153156281 -51.0540008545
vertex -9.78734588623 -3.83024644852 -51.0540008545
endloop
endfacet
facet normal -0.0 0.0 -1.0
outer loop
vertex -6.72956037521 -4.04153156281 -51.0540008545
vertex -6.73297214508 -4.09141540527 -51.0540008545
vertex -9.78734588623 -3.83024644852 -51.0540008545
endloop
endfacet
facet normal 0.0 -0.0 -1.0
outer loop
vertex -6.72956037521 -4.04153156281 -51.0540008545
vertex -3.66976976395 -4.19857406616 -51.0540008545
vertex -6.73297214508 -4.09141540527 -51.0540008545
endloop
endfacet
facet normal -0.0 0.0 -1.0
outer loop
vertex -3.66976976395 -4.19857406616 -51.0540008545
vertex -3.67148280144 -4.24854469299 -51.0540008545
vertex -6.73297214508 -4.09141540527 -51.0540008545
endloop
endfacet
facet normal 0.0 -0.0 -1.0
outer loop
vertex -3.66976976395 -4.19857406616 -51.0540008545
vertex -0.606408119202 -4.25145292282 -51.0540008545
vertex -3.67148280144 -4.24854469299 -51.0540008545
endloop
endfacet
facet normal -0.0 0.0 -1.0
outer loop
vertex -0.606408119202 -4.25145292282 -51.0540008545
vertex -0.606420636177 -4.30145263672 -51.0540008545
vertex -3.67148280144 -4.24854469299 -51.0540008545
endloop
endfacet
