solid 
facet normal 0.120357505977 -0.992730617523 0.0
outer loop
vertex 9.90670871735 -3.81791138649 -29.408000946
vertex 9.90670871735 -3.81791138649 -32.9790000916
vertex 12.9499435425 -3.4489531517 -32.9790000916
endloop
endfacet
facet normal 0.154053628445 -0.988062500954 0.0
outer loop
vertex 12.9499435425 -3.4489531517 -29.408000946
vertex 12.9499435425 -3.4489531517 -32.9790000916
vertex 15.9788675308 -2.97669887543 -32.9790000916
endloop
endfacet
facet normal 0.120357505977 -0.992730617523 0.0
outer loop
vertex 12.9499435425 -3.4489531517 -29.408000946
vertex 9.90670871735 -3.81791138649 -29.408000946
vertex 12.9499435425 -3.4489531517 -32.9790000916
endloop
endfacet
facet normal 0.18757134676 -0.982250988483 0.0
outer loop
vertex 15.9788675308 -2.97669887543 -29.408000946
vertex 15.9788675308 -2.97669887543 -32.9790000916
vertex 18.9899768829 -2.40169525146 -32.9790000916
endloop
endfacet
facet normal 0.154053628445 -0.988062500954 0.0
outer loop
vertex 15.9788675308 -2.97669887543 -29.408000946
vertex 12.9499435425 -3.4489531517 -29.408000946
vertex 15.9788675308 -2.97669887543 -32.9790000916
endloop
endfacet
facet normal 0.187571272254 -0.982250988483 -6.55802097072e-08
outer loop
vertex 18.9899768829 -2.40169548988 -29.408000946
vertex 15.9788675308 -2.97669887543 -29.408000946
vertex 18.9899768829 -2.40169525146 -32.9790000916
endloop
endfacet
facet normal 0.97891330719 0.204276055098 1.36920217386e-08
outer loop
vertex 18.979763031 -2.35274958611 -29.408000946
vertex 18.9899768829 -2.40169548988 -29.408000946
vertex 18.9899768829 -2.40169525146 -32.9790000916
endloop
endfacet
facet normal 0.97891330719 0.204276055098 1.36385374105e-08
outer loop
vertex 18.979763031 -2.35274958611 -29.408000946
vertex 18.9899768829 -2.40169525146 -32.9790000916
vertex 18.979763031 -2.35274934769 -32.9790000916
endloop
endfacet
facet normal -0.120357565582 0.992730617523 0.0
outer loop
vertex 9.90153598785 -3.76817965508 -32.9790000916
vertex 9.90153598785 -3.76817965508 -29.408000946
vertex 12.9430818558 -3.39942598343 -32.9790000916
endloop
endfacet
facet normal -0.154053539038 0.988062500954 6.59682228843e-08
outer loop
vertex 12.9430818558 -3.39942598343 -32.9790000916
vertex 12.9430818558 -3.39942622185 -29.408000946
vertex 15.97032547 -2.92743396759 -32.9790000916
endloop
endfacet
facet normal -0.120357491076 0.992730617523 6.53745431123e-08
outer loop
vertex 9.90153598785 -3.76817965508 -29.408000946
vertex 12.9430818558 -3.39942622185 -29.408000946
vertex 12.9430818558 -3.39942598343 -32.9790000916
endloop
endfacet
facet normal -0.187571421266 0.982250988483 0.0
outer loop
vertex 15.97032547 -2.92743396759 -32.9790000916
vertex 15.97032547 -2.92743396759 -29.408000946
vertex 18.979763031 -2.35274934769 -32.9790000916
endloop
endfacet
facet normal -0.154053628445 0.988062500954 0.0
outer loop
vertex 12.9430818558 -3.39942622185 -29.408000946
vertex 15.97032547 -2.92743396759 -29.408000946
vertex 15.97032547 -2.92743396759 -32.9790000916
endloop
endfacet
facet normal -0.187571361661 0.982250988483 6.53745502177e-08
outer loop
vertex 15.97032547 -2.92743396759 -29.408000946
vertex 18.979763031 -2.35274958611 -29.408000946
vertex 18.979763031 -2.35274934769 -32.9790000916
endloop
endfacet
facet normal -0.994634151459 -0.10345454514 0.0
outer loop
vertex 9.90670871735 -3.81791138649 -29.408000946
vertex 9.90153598785 -3.76817965508 -29.408000946
vertex 9.90153598785 -3.76817965508 -32.9790000916
endloop
endfacet
facet normal -0.994634151459 -0.10345454514 -0.0
outer loop
vertex 9.90670871735 -3.81791138649 -29.408000946
vertex 9.90153598785 -3.76817965508 -32.9790000916
vertex 9.90670871735 -3.81791138649 -32.9790000916
endloop
endfacet
facet normal -0.0 0.0 1.0
outer loop
vertex 15.97032547 -2.92743396759 -29.408000946
vertex 15.9788675308 -2.97669887543 -29.408000946
vertex 18.979763031 -2.35274958611 -29.408000946
endloop
endfacet
facet normal 0.0 0.0 1.0
outer loop
vertex 18.979763031 -2.35274958611 -29.408000946
vertex 15.9788675308 -2.97669887543 -29.408000946
vertex 18.9899768829 -2.40169548988 -29.408000946
endloop
endfacet
facet normal -0.0 0.0 1.0
outer loop
vertex 12.9430818558 -3.39942622185 -29.408000946
vertex 12.9499435425 -3.4489531517 -29.408000946
vertex 15.97032547 -2.92743396759 -29.408000946
endloop
endfacet
facet normal 0.0 0.0 1.0
outer loop
vertex 15.97032547 -2.92743396759 -29.408000946
vertex 12.9499435425 -3.4489531517 -29.408000946
vertex 15.9788675308 -2.97669887543 -29.408000946
endloop
endfacet
facet normal -0.0 0.0 1.0
outer loop
vertex 9.90153598785 -3.76817965508 -29.408000946
vertex 9.90670871735 -3.81791138649 -29.408000946
vertex 12.9430818558 -3.39942622185 -29.408000946
endloop
endfacet
facet normal 0.0 0.0 1.0
outer loop
vertex 12.9430818558 -3.39942622185 -29.408000946
vertex 9.90670871735 -3.81791138649 -29.408000946
vertex 12.9499435425 -3.4489531517 -29.408000946
endloop
endfacet
facet normal 0.0 0.0 -1.0
outer loop
vertex 15.9788675308 -2.97669887543 -32.9790000916
vertex 15.97032547 -2.92743396759 -32.9790000916
vertex 18.979763031 -2.35274934769 -32.9790000916
endloop
endfacet
facet normal 0.0 0.0 -1.0
outer loop
vertex 15.9788675308 -2.97669887543 -32.9790000916
vertex 18.979763031 -2.35274934769 -32.9790000916
vertex 18.9899768829 -2.40169525146 -32.9790000916
endloop
endfacet
facet normal 0.0 0.0 -1.0
outer loop
vertex 12.9499435425 -3.4489531517 -32.9790000916
vertex 12.9430818558 -3.39942598343 -32.9790000916
vertex 15.97032547 -2.92743396759 -32.9790000916
endloop
endfacet
facet normal 0.0 0.0 -1.0
outer loop
vertex 12.9499435425 -3.4489531517 -32.9790000916
vertex 15.97032547 -2.92743396759 -32.9790000916
vertex 15.9788675308 -2.97669887543 -32.9790000916
endloop
endfacet
facet normal 0.0 0.0 -1.0
outer loop
vertex 9.90670871735 -3.81791138649 -32.9790000916
vertex 9.90153598785 -3.76817965508 -32.9790000916
vertex 12.9430818558 -3.39942598343 -32.9790000916
endloop
endfacet
facet normal 0.0 0.0 -1.0
outer loop
vertex 9.90670871735 -3.81791138649 -32.9790000916
vertex 12.9430818558 -3.39942598343 -32.9790000916
vertex 12.9499435425 -3.4489531517 -32.9790000916
endloop
endfacet
