solid 
facet normal 0.120357498527 0.992730557919 3.21426476546e-08
outer loop
vertex 9.90670394897 3.81791138649 -260.440002441
vertex 9.9067029953 3.81791138649 -256.868988037
vertex 12.9499378204 3.4489531517 -256.868988037
endloop
endfacet
facet normal 0.154053553939 0.988062500954 -0.0
outer loop
vertex 12.9499378204 3.4489531517 -260.440002441
vertex 12.9499378204 3.4489531517 -256.868988037
vertex 15.9788618088 2.97669911385 -256.868988037
endloop
endfacet
facet normal 0.120357535779 0.992730557919 -0.0
outer loop
vertex 12.9499378204 3.4489531517 -260.440002441
vertex 9.90670394897 3.81791138649 -260.440002441
vertex 12.9499378204 3.4489531517 -256.868988037
endloop
endfacet
facet normal 0.187571197748 0.982250988483 -0.0
outer loop
vertex 15.9788618088 2.97669911385 -260.440002441
vertex 15.9788618088 2.97669911385 -256.868988037
vertex 18.9899711609 2.40169596672 -256.868988037
endloop
endfacet
facet normal 0.154053553939 0.988062500954 -0.0
outer loop
vertex 15.9788618088 2.97669911385 -260.440002441
vertex 12.9499378204 3.4489531517 -260.440002441
vertex 15.9788618088 2.97669911385 -256.868988037
endloop
endfacet
facet normal 0.187571197748 0.982250988483 -0.0
outer loop
vertex 18.9899711609 2.40169596672 -260.440002441
vertex 15.9788618088 2.97669911385 -260.440002441
vertex 18.9899711609 2.40169596672 -256.868988037
endloop
endfacet
facet normal 0.978920996189 -0.204239502549 0.0
outer loop
vertex 18.9899711609 2.40169596672 -260.440002441
vertex 18.9899711609 2.40169596672 -256.868988037
vertex 18.9797592163 2.35275006294 -256.868988037
endloop
endfacet
facet normal 0.978921175003 -0.204238548875 1.3635975904e-08
outer loop
vertex 18.9797592163 2.35274982452 -260.440002441
vertex 18.9899711609 2.40169596672 -260.440002441
vertex 18.9797592163 2.35275006294 -256.868988037
endloop
endfacet
facet normal -0.120357491076 -0.992730617523 -3.26871294476e-08
outer loop
vertex 9.90153026581 3.76817965508 -256.868988037
vertex 12.9430770874 3.39942622185 -260.440002441
vertex 12.9430761337 3.39942622185 -256.868988037
endloop
endfacet
facet normal -0.154053494334 -0.988062500954 -4.11414902146e-08
outer loop
vertex 12.9430761337 3.39942622185 -256.868988037
vertex 12.9430770874 3.39942622185 -260.440002441
vertex 15.9703207016 2.92743420601 -256.868988037
endloop
endfacet
facet normal -0.120357491076 -0.992730617523 -3.21426441019e-08
outer loop
vertex 9.90153121948 3.76817965508 -260.440002441
vertex 12.9430770874 3.39942622185 -260.440002441
vertex 9.90153026581 3.76817965508 -256.868988037
endloop
endfacet
facet normal -0.187571227551 -0.982250988483 -0.0
outer loop
vertex 15.9703207016 2.92743420601 -256.868988037
vertex 15.9703207016 2.92743420601 -260.440002441
vertex 18.9797592163 2.35275006294 -256.868988037
endloop
endfacet
facet normal -0.154053539038 -0.988062500954 0.0
outer loop
vertex 12.9430770874 3.39942622185 -260.440002441
vertex 15.9703207016 2.92743420601 -260.440002441
vertex 15.9703207016 2.92743420601 -256.868988037
endloop
endfacet
facet normal -0.187571316957 -0.982250988483 6.53742588952e-08
outer loop
vertex 15.9703207016 2.92743420601 -260.440002441
vertex 18.9797592163 2.35274982452 -260.440002441
vertex 18.9797592163 2.35275006294 -256.868988037
endloop
endfacet
facet normal -0.994634211063 0.10345454514 -2.65690459855e-07
outer loop
vertex 9.90670394897 3.81791138649 -260.440002441
vertex 9.90153121948 3.76817965508 -260.440002441
vertex 9.90153026581 3.76817965508 -256.868988037
endloop
endfacet
facet normal -0.994634211063 0.103454552591 -2.65626795226e-07
outer loop
vertex 9.90670394897 3.81791138649 -260.440002441
vertex 9.90153026581 3.76817965508 -256.868988037
vertex 9.9067029953 3.81791138649 -256.868988037
endloop
endfacet
facet normal 0.0 0.0 -1.0
outer loop
vertex 18.9797592163 2.35274982452 -260.440002441
vertex 15.9703207016 2.92743420601 -260.440002441
vertex 18.9899711609 2.40169596672 -260.440002441
endloop
endfacet
facet normal 0.0 0.0 -1.0
outer loop
vertex 15.9703207016 2.92743420601 -260.440002441
vertex 15.9788618088 2.97669911385 -260.440002441
vertex 18.9899711609 2.40169596672 -260.440002441
endloop
endfacet
facet normal 0.0 0.0 -1.0
outer loop
vertex 15.9703207016 2.92743420601 -260.440002441
vertex 12.9430770874 3.39942622185 -260.440002441
vertex 15.9788618088 2.97669911385 -260.440002441
endloop
endfacet
facet normal 0.0 0.0 -1.0
outer loop
vertex 12.9430770874 3.39942622185 -260.440002441
vertex 12.9499378204 3.4489531517 -260.440002441
vertex 15.9788618088 2.97669911385 -260.440002441
endloop
endfacet
facet normal 0.0 0.0 -1.0
outer loop
vertex 12.9430770874 3.39942622185 -260.440002441
vertex 9.90153121948 3.76817965508 -260.440002441
vertex 12.9499378204 3.4489531517 -260.440002441
endloop
endfacet
facet normal 0.0 0.0 -1.0
outer loop
vertex 9.90153121948 3.76817965508 -260.440002441
vertex 9.90670394897 3.81791138649 -260.440002441
vertex 12.9499378204 3.4489531517 -260.440002441
endloop
endfacet
facet normal 0.0 0.0 1.0
outer loop
vertex 15.9703207016 2.92743420601 -256.868988037
vertex 18.9797592163 2.35275006294 -256.868988037
vertex 18.9899711609 2.40169596672 -256.868988037
endloop
endfacet
facet normal 0.0 0.0 1.0
outer loop
vertex 15.9788618088 2.97669911385 -256.868988037
vertex 15.9703207016 2.92743420601 -256.868988037
vertex 18.9899711609 2.40169596672 -256.868988037
endloop
endfacet
facet normal 0.0 0.0 1.0
outer loop
vertex 12.9430761337 3.39942622185 -256.868988037
vertex 15.9703207016 2.92743420601 -256.868988037
vertex 15.9788618088 2.97669911385 -256.868988037
endloop
endfacet
facet normal 0.0 0.0 1.0
outer loop
vertex 12.9499378204 3.4489531517 -256.868988037
vertex 12.9430761337 3.39942622185 -256.868988037
vertex 15.9788618088 2.97669911385 -256.868988037
endloop
endfacet
facet normal 0.0 0.0 1.0
outer loop
vertex 9.90153026581 3.76817965508 -256.868988037
vertex 12.9430761337 3.39942622185 -256.868988037
vertex 12.9499378204 3.4489531517 -256.868988037
endloop
endfacet
facet normal 0.0 0.0 1.0
outer loop
vertex 9.9067029953 3.81791138649 -256.868988037
vertex 9.90153026581 3.76817965508 -256.868988037
vertex 12.9499378204 3.4489531517 -256.868988037
endloop
endfacet
