solid 
facet normal -0.0172592066228 -0.999851047993 0.0
outer loop
vertex -3.67148804665 -4.24854469299 -83.5530014038
vertex -0.606425881386 -4.30145311356 -83.5530014038
vertex -0.606425881386 -4.30145311356 -79.9820022583
endloop
endfacet
facet normal -0.0172592066228 -0.999851047993 0.0
outer loop
vertex -3.67148804665 -4.24854469299 -83.5530014038
vertex -0.606425881386 -4.30145311356 -79.9820022583
vertex -3.67148804665 -4.24854469299 -79.9820022583
endloop
endfacet
facet normal -0.051257148385 -0.998685479164 0.0
outer loop
vertex -6.73297739029 -4.09141492844 -83.5530014038
vertex -3.67148804665 -4.24854469299 -79.9820022583
vertex -6.73297739029 -4.09141492844 -79.9820022583
endloop
endfacet
facet normal -0.051257148385 -0.998685479164 0.0
outer loop
vertex -6.73297739029 -4.09141492844 -83.5530014038
vertex -3.67148804665 -4.24854469299 -83.5530014038
vertex -3.67148804665 -4.24854469299 -79.9820022583
endloop
endfacet
facet normal -0.0851956009865 -0.996364235878 0.0
outer loop
vertex -9.7873506546 -3.8302462101 -83.5530014038
vertex -6.73297739029 -4.09141492844 -79.9820022583
vertex -9.7873506546 -3.8302462101 -79.9820022583
endloop
endfacet
facet normal -0.0851956009865 -0.996364235878 0.0
outer loop
vertex -9.7873506546 -3.8302462101 -83.5530014038
vertex -6.73297739029 -4.09141492844 -83.5530014038
vertex -6.73297739029 -4.09141492844 -79.9820022583
endloop
endfacet
facet normal -0.994770228863 0.102138251066 0.0
outer loop
vertex -9.7873506546 -3.8302462101 -83.5530014038
vertex -9.7873506546 -3.8302462101 -79.9820022583
vertex -9.78224372864 -3.78050756454 -83.5530014038
endloop
endfacet
facet normal -0.994770169258 0.102138735354 6.68305677465e-09
outer loop
vertex -9.7873506546 -3.8302462101 -79.9820022583
vertex -9.78224372864 -3.78050780296 -79.9820022583
vertex -9.78224372864 -3.78050756454 -83.5530014038
endloop
endfacet
facet normal 0.017259137705 0.999851047993 0.0
outer loop
vertex -0.60641336441 -4.25145292282 -79.9820022583
vertex -3.66977500916 -4.19857406616 -83.5530014038
vertex -3.66977500916 -4.19857406616 -79.9820022583
endloop
endfacet
facet normal 0.051257122308 0.998685419559 0.0
outer loop
vertex -3.66977500916 -4.19857406616 -79.9820022583
vertex -3.66977500916 -4.19857406616 -83.5530014038
vertex -6.72956562042 -4.04153156281 -79.9820022583
endloop
endfacet
facet normal 0.017259137705 0.999851047993 -0.0
outer loop
vertex -0.60641336441 -4.25145292282 -83.5530014038
vertex -3.66977500916 -4.19857406616 -83.5530014038
vertex -0.60641336441 -4.25145292282 -79.9820022583
endloop
endfacet
facet normal 0.051257122308 0.998685419559 0.0
outer loop
vertex -3.66977500916 -4.19857406616 -83.5530014038
vertex -6.72956562042 -4.04153156281 -83.5530014038
vertex -6.72956562042 -4.04153156281 -79.9820022583
endloop
endfacet
facet normal 0.0851956009865 0.996364235878 6.53745502177e-08
outer loop
vertex -6.72956562042 -4.04153156281 -79.9820022583
vertex -9.78224372864 -3.78050756454 -83.5530014038
vertex -9.78224372864 -3.78050780296 -79.9820022583
endloop
endfacet
facet normal 0.0851956754923 0.996364235878 -0.0
outer loop
vertex -6.72956562042 -4.04153156281 -83.5530014038
vertex -9.78224372864 -3.78050756454 -83.5530014038
vertex -6.72956562042 -4.04153156281 -79.9820022583
endloop
endfacet
facet normal 0.999999940395 -0.000250338518526 0.0
outer loop
vertex -0.60641336441 -4.25145292282 -83.5530014038
vertex -0.60641336441 -4.25145292282 -79.9820022583
vertex -0.606425881386 -4.30145311356 -83.5530014038
endloop
endfacet
facet normal 0.999999940395 -0.000250338518526 0.0
outer loop
vertex -0.60641336441 -4.25145292282 -79.9820022583
vertex -0.606425881386 -4.30145311356 -79.9820022583
vertex -0.606425881386 -4.30145311356 -83.5530014038
endloop
endfacet
facet normal 0.0 -0.0 1.0
outer loop
vertex -6.73297739029 -4.09141492844 -79.9820022583
vertex -6.72956562042 -4.04153156281 -79.9820022583
vertex -9.78224372864 -3.78050780296 -79.9820022583
endloop
endfacet
facet normal 0.0 0.0 1.0
outer loop
vertex -6.73297739029 -4.09141492844 -79.9820022583
vertex -9.78224372864 -3.78050780296 -79.9820022583
vertex -9.7873506546 -3.8302462101 -79.9820022583
endloop
endfacet
facet normal 0.0 -0.0 1.0
outer loop
vertex -3.67148804665 -4.24854469299 -79.9820022583
vertex -3.66977500916 -4.19857406616 -79.9820022583
vertex -6.72956562042 -4.04153156281 -79.9820022583
endloop
endfacet
facet normal 0.0 0.0 1.0
outer loop
vertex -3.67148804665 -4.24854469299 -79.9820022583
vertex -6.72956562042 -4.04153156281 -79.9820022583
vertex -6.73297739029 -4.09141492844 -79.9820022583
endloop
endfacet
facet normal 0.0 -0.0 1.0
outer loop
vertex -0.606425881386 -4.30145311356 -79.9820022583
vertex -0.60641336441 -4.25145292282 -79.9820022583
vertex -3.66977500916 -4.19857406616 -79.9820022583
endloop
endfacet
facet normal 0.0 0.0 1.0
outer loop
vertex -0.606425881386 -4.30145311356 -79.9820022583
vertex -3.66977500916 -4.19857406616 -79.9820022583
vertex -3.67148804665 -4.24854469299 -79.9820022583
endloop
endfacet
facet normal 0.0 -0.0 -1.0
outer loop
vertex -9.78224372864 -3.78050756454 -83.5530014038
vertex -6.72956562042 -4.04153156281 -83.5530014038
vertex -9.7873506546 -3.8302462101 -83.5530014038
endloop
endfacet
facet normal -0.0 0.0 -1.0
outer loop
vertex -6.72956562042 -4.04153156281 -83.5530014038
vertex -6.73297739029 -4.09141492844 -83.5530014038
vertex -9.7873506546 -3.8302462101 -83.5530014038
endloop
endfacet
facet normal 0.0 -0.0 -1.0
outer loop
vertex -6.72956562042 -4.04153156281 -83.5530014038
vertex -3.66977500916 -4.19857406616 -83.5530014038
vertex -6.73297739029 -4.09141492844 -83.5530014038
endloop
endfacet
facet normal -0.0 0.0 -1.0
outer loop
vertex -3.66977500916 -4.19857406616 -83.5530014038
vertex -3.67148804665 -4.24854469299 -83.5530014038
vertex -6.73297739029 -4.09141492844 -83.5530014038
endloop
endfacet
facet normal 0.0 -0.0 -1.0
outer loop
vertex -3.66977500916 -4.19857406616 -83.5530014038
vertex -0.60641336441 -4.25145292282 -83.5530014038
vertex -3.67148804665 -4.24854469299 -83.5530014038
endloop
endfacet
facet normal -0.0 0.0 -1.0
outer loop
vertex -0.60641336441 -4.25145292282 -83.5530014038
vertex -0.606425881386 -4.30145311356 -83.5530014038
vertex -3.67148804665 -4.24854469299 -83.5530014038
endloop
endfacet
