solid 
facet normal 0.0172588936985 -0.999851047993 0.0
outer loop
vertex 3.67147278786 -4.24854421616 -7.742000103
vertex 0.606410562992 -4.30145168304 -7.742000103
vertex 0.606410562992 -4.30145168304 -11.3129997253
endloop
endfacet
facet normal 0.0172588936985 -0.999851047993 0.0
outer loop
vertex 3.67147278786 -4.24854421616 -7.742000103
vertex 0.606410562992 -4.30145168304 -11.3129997253
vertex 3.67147278786 -4.24854421616 -11.3129997253
endloop
endfacet
facet normal 0.0512569956481 -0.998685479164 0.0
outer loop
vertex 6.7329621315 -4.09141492844 -7.742000103
vertex 3.67147278786 -4.24854421616 -11.3129997253
vertex 6.7329621315 -4.09141492844 -11.3129997253
endloop
endfacet
facet normal 0.0851954445243 -0.996364235878 0.0
outer loop
vertex 6.7329621315 -4.09141492844 -7.742000103
vertex 6.7329621315 -4.09141492844 -11.3129997253
vertex 9.78733539581 -3.83024668694 -11.3129997253
endloop
endfacet
facet normal 0.0512569956481 -0.998685479164 0.0
outer loop
vertex 6.7329621315 -4.09141492844 -7.742000103
vertex 3.67147278786 -4.24854421616 -7.742000103
vertex 3.67147278786 -4.24854421616 -11.3129997253
endloop
endfacet
facet normal 0.0851954445243 -0.996364235878 0.0
outer loop
vertex 9.78733539581 -3.83024668694 -7.742000103
vertex 6.7329621315 -4.09141492844 -7.742000103
vertex 9.78733539581 -3.83024668694 -11.3129997253
endloop
endfacet
facet normal 0.994770109653 0.102138720453 0.0
outer loop
vertex 9.78222846985 -3.7805082798 -7.742000103
vertex 9.78733539581 -3.83024668694 -7.742000103
vertex 9.78733539581 -3.83024668694 -11.3129997253
endloop
endfacet
facet normal 0.994770109653 0.102138720453 0.0
outer loop
vertex 9.78222846985 -3.7805082798 -7.742000103
vertex 9.78733539581 -3.83024668694 -11.3129997253
vertex 9.78222846985 -3.7805082798 -11.3129997253
endloop
endfacet
facet normal -0.0172589812428 0.999851047993 0.0
outer loop
vertex 0.606398046017 -4.25145196915 -11.3129997253
vertex 3.66975975037 -4.19857358932 -7.742000103
vertex 3.66975975037 -4.19857358932 -11.3129997253
endloop
endfacet
facet normal -0.0172589812428 0.999851047993 0.0
outer loop
vertex 0.606398046017 -4.25145196915 -7.742000103
vertex 3.66975975037 -4.19857358932 -7.742000103
vertex 0.606398046017 -4.25145196915 -11.3129997253
endloop
endfacet
facet normal -0.0512569732964 0.998685538769 0.0
outer loop
vertex 3.66975975037 -4.19857358932 -11.3129997253
vertex 6.72955036163 -4.04153156281 -7.742000103
vertex 6.72955036163 -4.04153156281 -11.3129997253
endloop
endfacet
facet normal -0.0851954519749 0.996364295483 0.0
outer loop
vertex 6.72955036163 -4.04153156281 -11.3129997253
vertex 6.72955036163 -4.04153156281 -7.742000103
vertex 9.78222846985 -3.7805082798 -11.3129997253
endloop
endfacet
facet normal -0.0512569732964 0.998685538769 0.0
outer loop
vertex 3.66975975037 -4.19857358932 -7.742000103
vertex 6.72955036163 -4.04153156281 -7.742000103
vertex 3.66975975037 -4.19857358932 -11.3129997253
endloop
endfacet
facet normal -0.0851954519749 0.996364295483 0.0
outer loop
vertex 6.72955036163 -4.04153156281 -7.742000103
vertex 9.78222846985 -3.7805082798 -7.742000103
vertex 9.78222846985 -3.7805082798 -11.3129997253
endloop
endfacet
facet normal -1.0 -0.000250340934144 0.0
outer loop
vertex 0.606410562992 -4.30145168304 -7.742000103
vertex 0.606398046017 -4.25145196915 -7.742000103
vertex 0.606398046017 -4.25145196915 -11.3129997253
endloop
endfacet
facet normal -1.0 -0.000250340934144 -0.0
outer loop
vertex 0.606410562992 -4.30145168304 -7.742000103
vertex 0.606398046017 -4.25145196915 -11.3129997253
vertex 0.606410562992 -4.30145168304 -11.3129997253
endloop
endfacet
facet normal 0.0 0.0 1.0
outer loop
vertex 9.78222846985 -3.7805082798 -7.742000103
vertex 6.72955036163 -4.04153156281 -7.742000103
vertex 9.78733539581 -3.83024668694 -7.742000103
endloop
endfacet
facet normal -0.0 0.0 1.0
outer loop
vertex 6.72955036163 -4.04153156281 -7.742000103
vertex 6.7329621315 -4.09141492844 -7.742000103
vertex 9.78733539581 -3.83024668694 -7.742000103
endloop
endfacet
facet normal 0.0 0.0 1.0
outer loop
vertex 6.72955036163 -4.04153156281 -7.742000103
vertex 3.66975975037 -4.19857358932 -7.742000103
vertex 6.7329621315 -4.09141492844 -7.742000103
endloop
endfacet
facet normal -0.0 0.0 1.0
outer loop
vertex 3.66975975037 -4.19857358932 -7.742000103
vertex 3.67147278786 -4.24854421616 -7.742000103
vertex 6.7329621315 -4.09141492844 -7.742000103
endloop
endfacet
facet normal 0.0 0.0 1.0
outer loop
vertex 3.66975975037 -4.19857358932 -7.742000103
vertex 0.606398046017 -4.25145196915 -7.742000103
vertex 3.67147278786 -4.24854421616 -7.742000103
endloop
endfacet
facet normal -0.0 0.0 1.0
outer loop
vertex 0.606398046017 -4.25145196915 -7.742000103
vertex 0.606410562992 -4.30145168304 -7.742000103
vertex 3.67147278786 -4.24854421616 -7.742000103
endloop
endfacet
facet normal 0.0 0.0 -1.0
outer loop
vertex 6.72955036163 -4.04153156281 -11.3129997253
vertex 9.78222846985 -3.7805082798 -11.3129997253
vertex 9.78733539581 -3.83024668694 -11.3129997253
endloop
endfacet
facet normal 0.0 0.0 -1.0
outer loop
vertex 6.7329621315 -4.09141492844 -11.3129997253
vertex 6.72955036163 -4.04153156281 -11.3129997253
vertex 9.78733539581 -3.83024668694 -11.3129997253
endloop
endfacet
facet normal 0.0 0.0 -1.0
outer loop
vertex 3.66975975037 -4.19857358932 -11.3129997253
vertex 6.72955036163 -4.04153156281 -11.3129997253
vertex 6.7329621315 -4.09141492844 -11.3129997253
endloop
endfacet
facet normal 0.0 0.0 -1.0
outer loop
vertex 3.67147278786 -4.24854421616 -11.3129997253
vertex 3.66975975037 -4.19857358932 -11.3129997253
vertex 6.7329621315 -4.09141492844 -11.3129997253
endloop
endfacet
facet normal 0.0 0.0 -1.0
outer loop
vertex 0.606398046017 -4.25145196915 -11.3129997253
vertex 3.66975975037 -4.19857358932 -11.3129997253
vertex 3.67147278786 -4.24854421616 -11.3129997253
endloop
endfacet
facet normal 0.0 0.0 -1.0
outer loop
vertex 0.606410562992 -4.30145168304 -11.3129997253
vertex 0.606398046017 -4.25145196915 -11.3129997253
vertex 3.67147278786 -4.24854421616 -11.3129997253
endloop
endfacet
