solid 
facet normal -0.102902412415 0.994691491127 -1.99219698516e-07
outer loop
vertex -9.86693954468 3.82203984261 104.21900177
vertex -9.84704589844 3.82409787178 104.21900177
vertex -9.84704589844 3.82409715652 100.648002625
endloop
endfacet
facet normal -0.102902412415 0.994691491127 -1.99232431441e-07
outer loop
vertex -9.86693954468 3.82203984261 104.21900177
vertex -9.84704589844 3.82409715652 100.648002625
vertex -9.86693954468 3.82203912735 100.648002625
endloop
endfacet
facet normal -0.103126503527 0.994668245316 -1.99227770281e-07
outer loop
vertex -9.88683319092 3.81997728348 104.21900177
vertex -9.86693954468 3.82203912735 100.648002625
vertex -9.88683319092 3.81997656822 100.648002625
endloop
endfacet
facet normal -0.103126503527 0.994668245316 -1.99215037355e-07
outer loop
vertex -9.88683319092 3.81997728348 104.21900177
vertex -9.86693954468 3.82203984261 104.21900177
vertex -9.86693954468 3.82203912735 100.648002625
endloop
endfacet
facet normal -0.103343687952 0.994645655155 -1.99223251229e-07
outer loop
vertex -9.90672588348 3.81791043282 104.21900177
vertex -9.88683319092 3.81997656822 100.648002625
vertex -9.90672588348 3.81790971756 100.648002625
endloop
endfacet
facet normal -0.103343687952 0.994645655155 -1.99220067998e-07
outer loop
vertex -9.90672588348 3.81791043282 104.21900177
vertex -9.88683319092 3.81997728348 104.21900177
vertex -9.88683319092 3.81997656822 100.648002625
endloop
endfacet
facet normal -0.994634151459 -0.10345454514 2.07011243702e-08
outer loop
vertex -9.90672588348 3.81791043282 104.21900177
vertex -9.90155315399 3.76817798615 100.648002625
vertex -9.90155315399 3.7681787014 104.21900177
endloop
endfacet
facet normal -0.994634151459 -0.10345454514 2.07214991832e-08
outer loop
vertex -9.90672588348 3.81790971756 100.648002625
vertex -9.90155315399 3.76817798615 100.648002625
vertex -9.90672588348 3.81791043282 104.21900177
endloop
endfacet
facet normal 0.102913804352 -0.994690299034 1.99232189857e-07
outer loop
vertex -9.84190654755 3.77436208725 100.648002625
vertex -9.86178874969 3.77230572701 104.21900177
vertex -9.86178874969 3.77230501175 100.648002625
endloop
endfacet
facet normal 0.102913804352 -0.994690299034 1.99232189857e-07
outer loop
vertex -9.84190654755 3.77436280251 104.21900177
vertex -9.86178874969 3.77230572701 104.21900177
vertex -9.84190654755 3.77436208725 100.648002625
endloop
endfacet
facet normal 0.103114426136 -0.994669556618 1.32818684051e-07
outer loop
vertex -9.86178874969 3.77230501175 100.648002625
vertex -9.88167095184 3.77024435997 104.21900177
vertex -9.88167095184 3.77024388313 100.648002625
endloop
endfacet
facet normal 0.103350438178 -0.994645059109 1.32815415554e-07
outer loop
vertex -9.88167095184 3.77024388313 100.648002625
vertex -9.88167095184 3.77024435997 104.21900177
vertex -9.90155315399 3.76817798615 100.648002625
endloop
endfacet
facet normal 0.103126235306 -0.99466830492 1.99227784492e-07
outer loop
vertex -9.86178874969 3.77230572701 104.21900177
vertex -9.88167095184 3.77024435997 104.21900177
vertex -9.86178874969 3.77230501175 100.648002625
endloop
endfacet
facet normal 0.103338636458 -0.994646310806 1.99223379127e-07
outer loop
vertex -9.88167095184 3.77024435997 104.21900177
vertex -9.90155315399 3.7681787014 104.21900177
vertex -9.90155315399 3.76817798615 100.648002625
endloop
endfacet
facet normal 0.994703412056 0.102787233889 -2.05381756047e-08
outer loop
vertex -9.84190654755 3.77436280251 104.21900177
vertex -9.84704589844 3.82409715652 100.648002625
vertex -9.84704589844 3.82409787178 104.21900177
endloop
endfacet
facet normal 0.994703412056 0.102787233889 -2.05878389892e-08
outer loop
vertex -9.84190654755 3.77436208725 100.648002625
vertex -9.84704589844 3.82409715652 100.648002625
vertex -9.84190654755 3.77436280251 104.21900177
endloop
endfacet
facet normal 0.0 0.0 -1.0
outer loop
vertex -9.90672588348 3.81790971756 100.648002625
vertex -9.88167095184 3.77024388313 100.648002625
vertex -9.90155315399 3.76817798615 100.648002625
endloop
endfacet
facet normal 0.0 -0.0 -1.0
outer loop
vertex -9.88683319092 3.81997656822 100.648002625
vertex -9.88167095184 3.77024388313 100.648002625
vertex -9.90672588348 3.81790971756 100.648002625
endloop
endfacet
facet normal 0.0 0.0 -1.0
outer loop
vertex -9.86693954468 3.82203912735 100.648002625
vertex -9.84190654755 3.77436208725 100.648002625
vertex -9.86178874969 3.77230501175 100.648002625
endloop
endfacet
facet normal 0.0 -0.0 -1.0
outer loop
vertex -9.86693954468 3.82203912735 100.648002625
vertex -9.86178874969 3.77230501175 100.648002625
vertex -9.88167095184 3.77024388313 100.648002625
endloop
endfacet
facet normal 0.0 0.0 -1.0
outer loop
vertex -9.86693954468 3.82203912735 100.648002625
vertex -9.88167095184 3.77024388313 100.648002625
vertex -9.88683319092 3.81997656822 100.648002625
endloop
endfacet
facet normal 0.0 -0.0 -1.0
outer loop
vertex -9.84704589844 3.82409715652 100.648002625
vertex -9.84190654755 3.77436208725 100.648002625
vertex -9.86693954468 3.82203912735 100.648002625
endloop
endfacet
facet normal 0.0 0.0 1.0
outer loop
vertex -9.88167095184 3.77024435997 104.21900177
vertex -9.90672588348 3.81791043282 104.21900177
vertex -9.90155315399 3.7681787014 104.21900177
endloop
endfacet
facet normal 0.0 0.0 1.0
outer loop
vertex -9.86178874969 3.77230572701 104.21900177
vertex -9.88683319092 3.81997728348 104.21900177
vertex -9.88167095184 3.77024435997 104.21900177
endloop
endfacet
facet normal 0.0 0.0 1.0
outer loop
vertex -9.88167095184 3.77024435997 104.21900177
vertex -9.88683319092 3.81997728348 104.21900177
vertex -9.90672588348 3.81791043282 104.21900177
endloop
endfacet
facet normal 0.0 0.0 1.0
outer loop
vertex -9.84190654755 3.77436280251 104.21900177
vertex -9.86693954468 3.82203984261 104.21900177
vertex -9.86178874969 3.77230572701 104.21900177
endloop
endfacet
facet normal 0.0 0.0 1.0
outer loop
vertex -9.86178874969 3.77230572701 104.21900177
vertex -9.86693954468 3.82203984261 104.21900177
vertex -9.88683319092 3.81997728348 104.21900177
endloop
endfacet
facet normal 0.0 0.0 1.0
outer loop
vertex -9.84190654755 3.77436280251 104.21900177
vertex -9.84704589844 3.82409787178 104.21900177
vertex -9.86693954468 3.82203984261 104.21900177
endloop
endfacet
