solid 
facet normal 0.102897524834 0.994691967964 -1.99231664055e-07
outer loop
vertex 9.8470249176 3.82409858704 -246.01600647
vertex 9.8470249176 3.82409930229 -242.444992065
vertex 9.86691951752 3.82204127312 -242.444992065
endloop
endfacet
facet normal 0.103119596839 0.994668960571 -2.26766147193e-07
outer loop
vertex 9.86691856384 3.82204055786 -246.01600647
vertex 9.86691951752 3.82204127312 -242.444992065
vertex 9.88681221008 3.81997895241 -242.444992065
endloop
endfacet
facet normal 0.102902397513 0.994691431522 -2.26712643325e-07
outer loop
vertex 9.86691856384 3.82204055786 -246.01600647
vertex 9.8470249176 3.82409858704 -246.01600647
vertex 9.86691951752 3.82204127312 -242.444992065
endloop
endfacet
facet normal 0.10335547477 0.994644463062 -2.6562952371e-07
outer loop
vertex 9.88681221008 3.81997799873 -246.01600647
vertex 9.88681221008 3.81997895241 -242.444992065
vertex 9.90670490265 3.81791186333 -242.444992065
endloop
endfacet
facet normal 0.103126503527 0.994668245316 -2.65635890173e-07
outer loop
vertex 9.88681221008 3.81997799873 -246.01600647
vertex 9.86691856384 3.82204055786 -246.01600647
vertex 9.88681221008 3.81997895241 -242.444992065
endloop
endfacet
facet normal 0.103343680501 0.99464571476 -1.99222398578e-07
outer loop
vertex 9.90670490265 3.81791114807 -246.01600647
vertex 9.88681221008 3.81997799873 -246.01600647
vertex 9.90670490265 3.81791186333 -242.444992065
endloop
endfacet
facet normal 0.994634211063 -0.10345454514 2.07010355524e-08
outer loop
vertex 9.90153217316 3.76817941666 -246.01600647
vertex 9.90670490265 3.81791114807 -246.01600647
vertex 9.90670490265 3.81791186333 -242.444992065
endloop
endfacet
facet normal 0.994634211063 -0.10345453769 2.07214103654e-08
outer loop
vertex 9.90153217316 3.76817941666 -246.01600647
vertex 9.90670490265 3.81791186333 -242.444992065
vertex 9.90153217316 3.76818013191 -242.444992065
endloop
endfacet
facet normal -0.102897122502 -0.994692027569 1.99231678266e-07
outer loop
vertex 9.84188556671 3.77436423302 -242.444992065
vertex 9.84188556671 3.77436351776 -246.01600647
vertex 9.86176872253 3.77230739594 -242.444992065
endloop
endfacet
facet normal -0.102908924222 -0.994690775871 2.6562918265e-07
outer loop
vertex 9.84188556671 3.77436351776 -246.01600647
vertex 9.86176872253 3.77230644226 -246.01600647
vertex 9.86176872253 3.77230739594 -242.444992065
endloop
endfacet
facet normal -0.103126227856 -0.99466830492 2.65635918595e-07
outer loop
vertex 9.86176872253 3.77230739594 -242.444992065
vertex 9.88165092468 3.77024507523 -246.01600647
vertex 9.88165092468 3.7702460289 -242.444992065
endloop
endfacet
facet normal -0.103126227856 -0.99466830492 2.65635918595e-07
outer loop
vertex 9.86176872253 3.77230644226 -246.01600647
vertex 9.88165092468 3.77024507523 -246.01600647
vertex 9.86176872253 3.77230739594 -242.444992065
endloop
endfacet
facet normal -0.103355333209 -0.994644522667 1.99231706688e-07
outer loop
vertex 9.88165092468 3.7702460289 -242.444992065
vertex 9.90153217316 3.76817941666 -246.01600647
vertex 9.90153217316 3.76818013191 -242.444992065
endloop
endfacet
facet normal -0.10334353894 -0.994645774364 2.65629864771e-07
outer loop
vertex 9.88165092468 3.77024507523 -246.01600647
vertex 9.90153217316 3.76817941666 -246.01600647
vertex 9.88165092468 3.7702460289 -242.444992065
endloop
endfacet
facet normal -0.994703352451 0.102787226439 -2.05380850105e-08
outer loop
vertex 9.8470249176 3.82409858704 -246.01600647
vertex 9.84188556671 3.77436351776 -246.01600647
vertex 9.84188556671 3.77436423302 -242.444992065
endloop
endfacet
facet normal -0.994703352451 0.102787226439 -2.05877501713e-08
outer loop
vertex 9.8470249176 3.82409858704 -246.01600647
vertex 9.84188556671 3.77436423302 -242.444992065
vertex 9.8470249176 3.82409930229 -242.444992065
endloop
endfacet
facet normal 0.0 0.0 -1.0
outer loop
vertex 9.88165092468 3.77024507523 -246.01600647
vertex 9.90670490265 3.81791114807 -246.01600647
vertex 9.90153217316 3.76817941666 -246.01600647
endloop
endfacet
facet normal 0.0 0.0 -1.0
outer loop
vertex 9.88165092468 3.77024507523 -246.01600647
vertex 9.88681221008 3.81997799873 -246.01600647
vertex 9.90670490265 3.81791114807 -246.01600647
endloop
endfacet
facet normal 0.0 0.0 -1.0
outer loop
vertex 9.86176872253 3.77230644226 -246.01600647
vertex 9.86691856384 3.82204055786 -246.01600647
vertex 9.88165092468 3.77024507523 -246.01600647
endloop
endfacet
facet normal 0.0 0.0 -1.0
outer loop
vertex 9.88165092468 3.77024507523 -246.01600647
vertex 9.86691856384 3.82204055786 -246.01600647
vertex 9.88681221008 3.81997799873 -246.01600647
endloop
endfacet
facet normal 0.0 0.0 -1.0
outer loop
vertex 9.84188556671 3.77436351776 -246.01600647
vertex 9.8470249176 3.82409858704 -246.01600647
vertex 9.86176872253 3.77230644226 -246.01600647
endloop
endfacet
facet normal 0.0 0.0 -1.0
outer loop
vertex 9.86176872253 3.77230644226 -246.01600647
vertex 9.8470249176 3.82409858704 -246.01600647
vertex 9.86691856384 3.82204055786 -246.01600647
endloop
endfacet
facet normal 0.0 0.0 1.0
outer loop
vertex 9.90670490265 3.81791186333 -242.444992065
vertex 9.88165092468 3.7702460289 -242.444992065
vertex 9.90153217316 3.76818013191 -242.444992065
endloop
endfacet
facet normal 0.0 0.0 1.0
outer loop
vertex 9.88681221008 3.81997895241 -242.444992065
vertex 9.86176872253 3.77230739594 -242.444992065
vertex 9.88165092468 3.7702460289 -242.444992065
endloop
endfacet
facet normal 0.0 0.0 1.0
outer loop
vertex 9.88681221008 3.81997895241 -242.444992065
vertex 9.88165092468 3.7702460289 -242.444992065
vertex 9.90670490265 3.81791186333 -242.444992065
endloop
endfacet
facet normal 0.0 0.0 1.0
outer loop
vertex 9.86691951752 3.82204127312 -242.444992065
vertex 9.86176872253 3.77230739594 -242.444992065
vertex 9.88681221008 3.81997895241 -242.444992065
endloop
endfacet
facet normal 0.0 0.0 1.0
outer loop
vertex 9.8470249176 3.82409930229 -242.444992065
vertex 9.84188556671 3.77436423302 -242.444992065
vertex 9.86176872253 3.77230739594 -242.444992065
endloop
endfacet
facet normal 0.0 0.0 1.0
outer loop
vertex 9.8470249176 3.82409930229 -242.444992065
vertex 9.86176872253 3.77230739594 -242.444992065
vertex 9.86691951752 3.82204127312 -242.444992065
endloop
endfacet
