solid 
facet normal -0.102897517383 -0.994691967964 1.99260739464e-07
outer loop
vertex -9.866938591 -3.82203984261 -90.7950057983
vertex -9.84704399109 -3.82409787178 -90.7950057983
vertex -9.84704399109 -3.82409715652 -87.2239990234
endloop
endfacet
facet normal -0.102897517383 -0.994691967964 1.99232090381e-07
outer loop
vertex -9.866938591 -3.82203984261 -90.7950057983
vertex -9.84704399109 -3.82409715652 -87.2239990234
vertex -9.866938591 -3.82203912735 -87.2239990234
endloop
endfacet
facet normal -0.103131391108 -0.994667768478 1.9922724448e-07
outer loop
vertex -9.88683128357 -3.81997728348 -90.7950057983
vertex -9.866938591 -3.82203912735 -87.2239990234
vertex -9.88683128357 -3.81997656822 -87.2239990234
endloop
endfacet
facet normal -0.103131391108 -0.994667768478 1.99224061248e-07
outer loop
vertex -9.88683128357 -3.81997728348 -90.7950057983
vertex -9.866938591 -3.82203984261 -90.7950057983
vertex -9.866938591 -3.82203912735 -87.2239990234
endloop
endfacet
facet normal -0.10334367305 -0.99464571476 1.99222810693e-07
outer loop
vertex -9.90672397614 -3.81791043282 -90.7950057983
vertex -9.88683128357 -3.81997656822 -87.2239990234
vertex -9.90672397614 -3.81790971756 -87.2239990234
endloop
endfacet
facet normal -0.103343680501 -0.99464571476 1.99219627461e-07
outer loop
vertex -9.90672397614 -3.81791043282 -90.7950057983
vertex -9.88683128357 -3.81997728348 -90.7950057983
vertex -9.88683128357 -3.81997656822 -87.2239990234
endloop
endfacet
facet normal -0.994634151459 0.10345453769 -2.07010799613e-08
outer loop
vertex -9.90672397614 -3.81791043282 -90.7950057983
vertex -9.90155124664 -3.76817798615 -87.2239990234
vertex -9.90155124664 -3.7681787014 -90.7950057983
endloop
endfacet
facet normal -0.994634151459 0.10345453769 -2.07214547743e-08
outer loop
vertex -9.90672397614 -3.81790971756 -87.2239990234
vertex -9.90155124664 -3.76817798615 -87.2239990234
vertex -9.90672397614 -3.81791043282 -90.7950057983
endloop
endfacet
facet normal 0.102908916771 0.994690775871 -1.99222299102e-07
outer loop
vertex -9.8419046402 -3.77436208725 -87.2239990234
vertex -9.86178779602 -3.77230572701 -90.7950057983
vertex -9.86178779602 -3.77230501175 -87.2239990234
endloop
endfacet
facet normal 0.102908916771 0.994690775871 -1.99231848796e-07
outer loop
vertex -9.8419046402 -3.77436280251 -90.7950057983
vertex -9.86178779602 -3.77230572701 -90.7950057983
vertex -9.8419046402 -3.77436208725 -87.2239990234
endloop
endfacet
facet normal 0.103126212955 0.994668245316 -1.99227329745e-07
outer loop
vertex -9.86178779602 -3.77230501175 -87.2239990234
vertex -9.88166999817 -3.77024435997 -90.7950057983
vertex -9.88166999817 -3.77024364471 -87.2239990234
endloop
endfacet
facet normal 0.103126212955 0.994668245316 -1.99227329745e-07
outer loop
vertex -9.86178779602 -3.77230572701 -90.7950057983
vertex -9.88166999817 -3.77024435997 -90.7950057983
vertex -9.86178779602 -3.77230501175 -87.2239990234
endloop
endfacet
facet normal 0.103343531489 0.99464571476 -1.99181414473e-07
outer loop
vertex -9.88166999817 -3.77024364471 -87.2239990234
vertex -9.90155124664 -3.7681787014 -90.7950057983
vertex -9.90155124664 -3.76817798615 -87.2239990234
endloop
endfacet
facet normal 0.103343531489 0.99464571476 -1.99222824904e-07
outer loop
vertex -9.88166999817 -3.77024435997 -90.7950057983
vertex -9.90155124664 -3.7681787014 -90.7950057983
vertex -9.88166999817 -3.77024364471 -87.2239990234
endloop
endfacet
facet normal 0.994703412056 -0.102787233889 2.05381294194e-08
outer loop
vertex -9.8419046402 -3.77436280251 -90.7950057983
vertex -9.84704399109 -3.82409715652 -87.2239990234
vertex -9.84704399109 -3.82409787178 -90.7950057983
endloop
endfacet
facet normal 0.994703412056 -0.102787233889 2.05877945803e-08
outer loop
vertex -9.8419046402 -3.77436208725 -87.2239990234
vertex -9.84704399109 -3.82409715652 -87.2239990234
vertex -9.8419046402 -3.77436280251 -90.7950057983
endloop
endfacet
facet normal 0.0 0.0 1.0
outer loop
vertex -9.90672397614 -3.81790971756 -87.2239990234
vertex -9.88166999817 -3.77024364471 -87.2239990234
vertex -9.90155124664 -3.76817798615 -87.2239990234
endloop
endfacet
facet normal 0.0 0.0 1.0
outer loop
vertex -9.88683128357 -3.81997656822 -87.2239990234
vertex -9.86178779602 -3.77230501175 -87.2239990234
vertex -9.88166999817 -3.77024364471 -87.2239990234
endloop
endfacet
facet normal 0.0 -0.0 1.0
outer loop
vertex -9.88683128357 -3.81997656822 -87.2239990234
vertex -9.88166999817 -3.77024364471 -87.2239990234
vertex -9.90672397614 -3.81790971756 -87.2239990234
endloop
endfacet
facet normal 0.0 -0.0 1.0
outer loop
vertex -9.866938591 -3.82203912735 -87.2239990234
vertex -9.86178779602 -3.77230501175 -87.2239990234
vertex -9.88683128357 -3.81997656822 -87.2239990234
endloop
endfacet
facet normal 0.0 -0.0 1.0
outer loop
vertex -9.84704399109 -3.82409715652 -87.2239990234
vertex -9.8419046402 -3.77436208725 -87.2239990234
vertex -9.86178779602 -3.77230501175 -87.2239990234
endloop
endfacet
facet normal 0.0 0.0 1.0
outer loop
vertex -9.84704399109 -3.82409715652 -87.2239990234
vertex -9.86178779602 -3.77230501175 -87.2239990234
vertex -9.866938591 -3.82203912735 -87.2239990234
endloop
endfacet
facet normal -0.0 0.0 -1.0
outer loop
vertex -9.88166999817 -3.77024435997 -90.7950057983
vertex -9.90672397614 -3.81791043282 -90.7950057983
vertex -9.90155124664 -3.7681787014 -90.7950057983
endloop
endfacet
facet normal -0.0 0.0 -1.0
outer loop
vertex -9.86178779602 -3.77230572701 -90.7950057983
vertex -9.88683128357 -3.81997728348 -90.7950057983
vertex -9.88166999817 -3.77024435997 -90.7950057983
endloop
endfacet
facet normal 0.0 0.0 -1.0
outer loop
vertex -9.88166999817 -3.77024435997 -90.7950057983
vertex -9.88683128357 -3.81997728348 -90.7950057983
vertex -9.90672397614 -3.81791043282 -90.7950057983
endloop
endfacet
facet normal -0.0 0.0 -1.0
outer loop
vertex -9.8419046402 -3.77436280251 -90.7950057983
vertex -9.866938591 -3.82203984261 -90.7950057983
vertex -9.86178779602 -3.77230572701 -90.7950057983
endloop
endfacet
facet normal 0.0 0.0 -1.0
outer loop
vertex -9.86178779602 -3.77230572701 -90.7950057983
vertex -9.866938591 -3.82203984261 -90.7950057983
vertex -9.88683128357 -3.81997728348 -90.7950057983
endloop
endfacet
facet normal 0.0 0.0 -1.0
outer loop
vertex -9.8419046402 -3.77436280251 -90.7950057983
vertex -9.84704399109 -3.82409787178 -90.7950057983
vertex -9.866938591 -3.82203984261 -90.7950057983
endloop
endfacet
