solid 
facet normal -0.102243922651 -0.994759321213 0.0
outer loop
vertex -9.80725669861 -3.82819962502 -130.475997925
vertex -9.78736114502 -3.83024454117 -130.475997925
vertex -9.78736114502 -3.83024454117 -126.905006409
endloop
endfacet
facet normal -0.102232135832 -0.99476057291 -6.64155592744e-08
outer loop
vertex -9.80725669861 -3.82819962502 -130.475997925
vertex -9.78736114502 -3.83024454117 -126.905006409
vertex -9.80725669861 -3.82819986343 -126.905006409
endloop
endfacet
facet normal -0.102472901344 -0.994735836983 0.0
outer loop
vertex -9.82715129852 -3.82615041733 -130.475997925
vertex -9.80725669861 -3.82819986343 -126.905006409
vertex -9.82715129852 -3.82615041733 -126.905006409
endloop
endfacet
facet normal -0.10267341882 -0.994715094566 0.0
outer loop
vertex -9.82715129852 -3.82615041733 -130.475997925
vertex -9.82715129852 -3.82615041733 -126.905006409
vertex -9.84704589844 -3.82409691811 -126.905006409
endloop
endfacet
facet normal -0.102461107075 -0.994736969471 -6.64235386694e-08
outer loop
vertex -9.82715129852 -3.82615041733 -130.475997925
vertex -9.80725669861 -3.82819962502 -130.475997925
vertex -9.80725669861 -3.82819986343 -126.905006409
endloop
endfacet
facet normal -0.10267341882 -0.994715094566 0.0
outer loop
vertex -9.84704589844 -3.82409691811 -130.475997925
vertex -9.82715129852 -3.82615041733 -130.475997925
vertex -9.84704589844 -3.82409691811 -126.905006409
endloop
endfacet
facet normal -0.994701445103 0.102805607021 0.0
outer loop
vertex -9.84704589844 -3.82409691811 -130.475997925
vertex -9.84704589844 -3.82409691811 -126.905006409
vertex -9.84190559387 -3.77436161041 -130.475997925
endloop
endfacet
facet normal -0.994703352451 0.1027867347 -2.6569153988e-07
outer loop
vertex -9.84704589844 -3.82409691811 -126.905006409
vertex -9.84190654755 -3.77436161041 -126.905006409
vertex -9.84190559387 -3.77436161041 -130.475997925
endloop
endfacet
facet normal 0.102231346071 0.99476069212 0.0
outer loop
vertex -9.78225517273 -3.78050589561 -126.905006409
vertex -9.80213928223 -3.77846240997 -130.475997925
vertex -9.80213928223 -3.77846240997 -126.905006409
endloop
endfacet
facet normal 0.102231346071 0.99476069212 -0.0
outer loop
vertex -9.78225517273 -3.78050589561 -130.475997925
vertex -9.80213928223 -3.77846240997 -130.475997925
vertex -9.78225517273 -3.78050589561 -126.905006409
endloop
endfacet
facet normal 0.102472253144 0.994735836983 0.0
outer loop
vertex -9.80213928223 -3.77846240997 -126.905006409
vertex -9.82202243805 -3.77641415596 -130.475997925
vertex -9.82202243805 -3.77641415596 -126.905006409
endloop
endfacet
facet normal 0.102679818869 0.99471449852 0.0
outer loop
vertex -9.82202243805 -3.77641415596 -126.905006409
vertex -9.82202243805 -3.77641415596 -130.475997925
vertex -9.84190654755 -3.77436161041 -126.905006409
endloop
endfacet
facet normal 0.102472253144 0.994735836983 -0.0
outer loop
vertex -9.80213928223 -3.77846240997 -130.475997925
vertex -9.82202243805 -3.77641415596 -130.475997925
vertex -9.80213928223 -3.77846240997 -126.905006409
endloop
endfacet
facet normal 0.102684691548 0.994713902473 2.74199400963e-08
outer loop
vertex -9.82202243805 -3.77641415596 -130.475997925
vertex -9.84190559387 -3.77436161041 -130.475997925
vertex -9.84190654755 -3.77436161041 -126.905006409
endloop
endfacet
facet normal 0.994772195816 -0.102119363844 0.0
outer loop
vertex -9.78225517273 -3.78050589561 -130.475997925
vertex -9.78225517273 -3.78050589561 -126.905006409
vertex -9.78736114502 -3.83024454117 -130.475997925
endloop
endfacet
facet normal 0.994772195816 -0.102119363844 0.0
outer loop
vertex -9.78225517273 -3.78050589561 -126.905006409
vertex -9.78736114502 -3.83024454117 -126.905006409
vertex -9.78736114502 -3.83024454117 -130.475997925
endloop
endfacet
facet normal 0.0 0.0 1.0
outer loop
vertex -9.84704589844 -3.82409691811 -126.905006409
vertex -9.82202243805 -3.77641415596 -126.905006409
vertex -9.84190654755 -3.77436161041 -126.905006409
endloop
endfacet
facet normal 0.0 -0.0 1.0
outer loop
vertex -9.82715129852 -3.82615041733 -126.905006409
vertex -9.82202243805 -3.77641415596 -126.905006409
vertex -9.84704589844 -3.82409691811 -126.905006409
endloop
endfacet
facet normal 0.0 -0.0 1.0
outer loop
vertex -9.80725669861 -3.82819986343 -126.905006409
vertex -9.80213928223 -3.77846240997 -126.905006409
vertex -9.82202243805 -3.77641415596 -126.905006409
endloop
endfacet
facet normal 0.0 0.0 1.0
outer loop
vertex -9.80725669861 -3.82819986343 -126.905006409
vertex -9.82202243805 -3.77641415596 -126.905006409
vertex -9.82715129852 -3.82615041733 -126.905006409
endloop
endfacet
facet normal 0.0 -0.0 1.0
outer loop
vertex -9.78736114502 -3.83024454117 -126.905006409
vertex -9.78225517273 -3.78050589561 -126.905006409
vertex -9.80213928223 -3.77846240997 -126.905006409
endloop
endfacet
facet normal 0.0 0.0 1.0
outer loop
vertex -9.78736114502 -3.83024454117 -126.905006409
vertex -9.80213928223 -3.77846240997 -126.905006409
vertex -9.80725669861 -3.82819986343 -126.905006409
endloop
endfacet
facet normal -0.0 0.0 -1.0
outer loop
vertex -9.82202243805 -3.77641415596 -130.475997925
vertex -9.84704589844 -3.82409691811 -130.475997925
vertex -9.84190559387 -3.77436161041 -130.475997925
endloop
endfacet
facet normal 0.0 0.0 -1.0
outer loop
vertex -9.82202243805 -3.77641415596 -130.475997925
vertex -9.82715129852 -3.82615041733 -130.475997925
vertex -9.84704589844 -3.82409691811 -130.475997925
endloop
endfacet
facet normal -0.0 0.0 -1.0
outer loop
vertex -9.80213928223 -3.77846240997 -130.475997925
vertex -9.80725669861 -3.82819962502 -130.475997925
vertex -9.82202243805 -3.77641415596 -130.475997925
endloop
endfacet
facet normal 0.0 -0.0 -1.0
outer loop
vertex -9.82202243805 -3.77641415596 -130.475997925
vertex -9.80725669861 -3.82819962502 -130.475997925
vertex -9.82715129852 -3.82615041733 -130.475997925
endloop
endfacet
facet normal -0.0 0.0 -1.0
outer loop
vertex -9.78225517273 -3.78050589561 -130.475997925
vertex -9.78736114502 -3.83024454117 -130.475997925
vertex -9.80213928223 -3.77846240997 -130.475997925
endloop
endfacet
facet normal 0.0 -0.0 -1.0
outer loop
vertex -9.80213928223 -3.77846240997 -130.475997925
vertex -9.78736114502 -3.83024454117 -130.475997925
vertex -9.80725669861 -3.82819962502 -130.475997925
endloop
endfacet
