solid 
facet normal 0.102902412415 0.994691491127 -1.99232431441e-07
outer loop
vertex 9.84704971313 3.82409644127 -152.11000061
vertex 9.84704971313 3.82409715652 -148.539001465
vertex 9.86694335938 3.82203912735 -148.539001465
endloop
endfacet
facet normal 0.102902412415 0.994691491127 -1.99232431441e-07
outer loop
vertex 9.86694335938 3.82203841209 -152.11000061
vertex 9.84704971313 3.82409644127 -152.11000061
vertex 9.86694335938 3.82203912735 -148.539001465
endloop
endfacet
facet normal 0.103126503527 0.994668245316 -1.99227770281e-07
outer loop
vertex 9.88683700562 3.81997585297 -152.11000061
vertex 9.86694335938 3.82203912735 -148.539001465
vertex 9.88683700562 3.81997656822 -148.539001465
endloop
endfacet
facet normal 0.103126503527 0.994668245316 -1.99215037355e-07
outer loop
vertex 9.88683700562 3.81997585297 -152.11000061
vertex 9.86694335938 3.82203841209 -152.11000061
vertex 9.86694335938 3.82203912735 -148.539001465
endloop
endfacet
facet normal 0.103343687952 0.994645655155 -1.99223251229e-07
outer loop
vertex 9.90672969818 3.8179090023 -152.11000061
vertex 9.88683700562 3.81997656822 -148.539001465
vertex 9.90672969818 3.81790971756 -148.539001465
endloop
endfacet
facet normal 0.103343687952 0.994645655155 -1.99220067998e-07
outer loop
vertex 9.90672969818 3.8179090023 -152.11000061
vertex 9.88683700562 3.81997585297 -152.11000061
vertex 9.88683700562 3.81997656822 -148.539001465
endloop
endfacet
facet normal 0.994634151459 -0.10345454514 2.07011243702e-08
outer loop
vertex 9.90155696869 3.76817727089 -152.11000061
vertex 9.90672969818 3.8179090023 -152.11000061
vertex 9.90672969818 3.81790971756 -148.539001465
endloop
endfacet
facet normal 0.994634151459 -0.10345453769 2.07214974068e-08
outer loop
vertex 9.90155696869 3.76817727089 -152.11000061
vertex 9.90672969818 3.81790971756 -148.539001465
vertex 9.90155696869 3.76817798615 -148.539001465
endloop
endfacet
facet normal -0.102902010083 -0.994691550732 1.99232445652e-07
outer loop
vertex 9.84191036224 3.77436184883 -148.539001465
vertex 9.84191036224 3.77436113358 -152.11000061
vertex 9.86179256439 3.77230501175 -148.539001465
endloop
endfacet
facet normal -0.102897122502 -0.994692027569 1.71752731148e-07
outer loop
vertex 9.84191036224 3.77436113358 -152.11000061
vertex 9.86179351807 3.77230429649 -152.11000061
vertex 9.86179256439 3.77230501175 -148.539001465
endloop
endfacet
facet normal -0.103121332824 -0.994668781757 1.99269280188e-07
outer loop
vertex 9.86179256439 3.77230501175 -148.539001465
vertex 9.88167572021 3.77024292946 -152.11000061
vertex 9.88167572021 3.77024364471 -148.539001465
endloop
endfacet
facet normal -0.103126235306 -0.99466830492 1.71686792783e-07
outer loop
vertex 9.86179351807 3.77230429649 -152.11000061
vertex 9.88167572021 3.77024292946 -152.11000061
vertex 9.86179256439 3.77230501175 -148.539001465
endloop
endfacet
facet normal -0.10334353894 -0.99464571476 1.99232815135e-07
outer loop
vertex 9.88167572021 3.77024364471 -148.539001465
vertex 9.90155696869 3.76817727089 -152.11000061
vertex 9.90155696869 3.76817798615 -148.539001465
endloop
endfacet
facet normal -0.10334353894 -0.99464571476 1.99223251229e-07
outer loop
vertex 9.88167572021 3.77024292946 -152.11000061
vertex 9.90155696869 3.76817727089 -152.11000061
vertex 9.88167572021 3.77024364471 -148.539001465
endloop
endfacet
facet normal -0.994703471661 0.102786749601 -2.0538077905e-08
outer loop
vertex 9.84704971313 3.82409644127 -152.11000061
vertex 9.84191036224 3.77436113358 -152.11000061
vertex 9.84191036224 3.77436184883 -148.539001465
endloop
endfacet
facet normal -0.994703471661 0.102786749601 -2.05877412895e-08
outer loop
vertex 9.84704971313 3.82409644127 -152.11000061
vertex 9.84191036224 3.77436184883 -148.539001465
vertex 9.84704971313 3.82409715652 -148.539001465
endloop
endfacet
facet normal 0.0 0.0 -1.0
outer loop
vertex 9.88167572021 3.77024292946 -152.11000061
vertex 9.90672969818 3.8179090023 -152.11000061
vertex 9.90155696869 3.76817727089 -152.11000061
endloop
endfacet
facet normal 0.0 0.0 -1.0
outer loop
vertex 9.86179351807 3.77230429649 -152.11000061
vertex 9.88683700562 3.81997585297 -152.11000061
vertex 9.88167572021 3.77024292946 -152.11000061
endloop
endfacet
facet normal 0.0 0.0 -1.0
outer loop
vertex 9.88167572021 3.77024292946 -152.11000061
vertex 9.88683700562 3.81997585297 -152.11000061
vertex 9.90672969818 3.8179090023 -152.11000061
endloop
endfacet
facet normal 0.0 0.0 -1.0
outer loop
vertex 9.84191036224 3.77436113358 -152.11000061
vertex 9.86694335938 3.82203841209 -152.11000061
vertex 9.86179351807 3.77230429649 -152.11000061
endloop
endfacet
facet normal 0.0 0.0 -1.0
outer loop
vertex 9.86179351807 3.77230429649 -152.11000061
vertex 9.86694335938 3.82203841209 -152.11000061
vertex 9.88683700562 3.81997585297 -152.11000061
endloop
endfacet
facet normal 0.0 0.0 -1.0
outer loop
vertex 9.84191036224 3.77436113358 -152.11000061
vertex 9.84704971313 3.82409644127 -152.11000061
vertex 9.86694335938 3.82203841209 -152.11000061
endloop
endfacet
facet normal 0.0 0.0 1.0
outer loop
vertex 9.90672969818 3.81790971756 -148.539001465
vertex 9.88167572021 3.77024364471 -148.539001465
vertex 9.90155696869 3.76817798615 -148.539001465
endloop
endfacet
facet normal 0.0 0.0 1.0
outer loop
vertex 9.88683700562 3.81997656822 -148.539001465
vertex 9.86179256439 3.77230501175 -148.539001465
vertex 9.88167572021 3.77024364471 -148.539001465
endloop
endfacet
facet normal 0.0 0.0 1.0
outer loop
vertex 9.88683700562 3.81997656822 -148.539001465
vertex 9.88167572021 3.77024364471 -148.539001465
vertex 9.90672969818 3.81790971756 -148.539001465
endloop
endfacet
facet normal 0.0 0.0 1.0
outer loop
vertex 9.86694335938 3.82203912735 -148.539001465
vertex 9.86179256439 3.77230501175 -148.539001465
vertex 9.88683700562 3.81997656822 -148.539001465
endloop
endfacet
facet normal 0.0 0.0 1.0
outer loop
vertex 9.84704971313 3.82409715652 -148.539001465
vertex 9.84191036224 3.77436184883 -148.539001465
vertex 9.86179256439 3.77230501175 -148.539001465
endloop
endfacet
facet normal 0.0 0.0 1.0
outer loop
vertex 9.84704971313 3.82409715652 -148.539001465
vertex 9.86179256439 3.77230501175 -148.539001465
vertex 9.86694335938 3.82203912735 -148.539001465
endloop
endfacet
