solid 
facet normal -0.102902412415 0.994691491127 -1.99232431441e-07
outer loop
vertex -9.84704589844 3.82409787178 -159.371994019
vertex -9.84704589844 3.82409715652 -162.942993164
vertex -9.86693954468 3.82203912735 -162.942993164
endloop
endfacet
facet normal -0.103126503527 0.994668245316 -1.99227770281e-07
outer loop
vertex -9.86693954468 3.82203984261 -159.371994019
vertex -9.86693954468 3.82203912735 -162.942993164
vertex -9.88683319092 3.81997656822 -162.942993164
endloop
endfacet
facet normal -0.102902412415 0.994691491127 -1.99232431441e-07
outer loop
vertex -9.86693954468 3.82203984261 -159.371994019
vertex -9.84704589844 3.82409787178 -159.371994019
vertex -9.86693954468 3.82203912735 -162.942993164
endloop
endfacet
facet normal -0.103343687952 0.994645655155 -1.99223251229e-07
outer loop
vertex -9.88683319092 3.81997728348 -159.371994019
vertex -9.88683319092 3.81997656822 -162.942993164
vertex -9.90672588348 3.81790971756 -162.942993164
endloop
endfacet
facet normal -0.103126503527 0.994668245316 -1.99227770281e-07
outer loop
vertex -9.88683319092 3.81997728348 -159.371994019
vertex -9.86693954468 3.82203984261 -159.371994019
vertex -9.88683319092 3.81997656822 -162.942993164
endloop
endfacet
facet normal -0.103343687952 0.994645655155 -1.99223251229e-07
outer loop
vertex -9.90672588348 3.81791043282 -159.371994019
vertex -9.88683319092 3.81997728348 -159.371994019
vertex -9.90672588348 3.81790971756 -162.942993164
endloop
endfacet
facet normal -0.994634151459 -0.10345454514 2.07011243702e-08
outer loop
vertex -9.90672588348 3.81791043282 -159.371994019
vertex -9.90155315399 3.76817798615 -162.942993164
vertex -9.90155315399 3.7681787014 -159.371994019
endloop
endfacet
facet normal -0.994634151459 -0.10345454514 2.07214991832e-08
outer loop
vertex -9.90672588348 3.81790971756 -162.942993164
vertex -9.90155315399 3.76817798615 -162.942993164
vertex -9.90672588348 3.81791043282 -159.371994019
endloop
endfacet
facet normal 0.102913804352 -0.994690299034 1.99232189857e-07
outer loop
vertex -9.84190654755 3.77436208725 -162.942993164
vertex -9.86178874969 3.77230572701 -159.371994019
vertex -9.86178874969 3.77230501175 -162.942993164
endloop
endfacet
facet normal 0.103126235306 -0.99466830492 1.99227784492e-07
outer loop
vertex -9.86178874969 3.77230501175 -162.942993164
vertex -9.86178874969 3.77230572701 -159.371994019
vertex -9.88167095184 3.77024364471 -162.942993164
endloop
endfacet
facet normal 0.102902010083 -0.994691550732 1.32821625698e-07
outer loop
vertex -9.84190654755 3.77436256409 -159.371994019
vertex -9.86178874969 3.77230572701 -159.371994019
vertex -9.84190654755 3.77436208725 -162.942993164
endloop
endfacet
facet normal 0.103338636458 -0.994646310806 1.99223379127e-07
outer loop
vertex -9.88167095184 3.77024364471 -162.942993164
vertex -9.88167095184 3.77024435997 -159.371994019
vertex -9.90155315399 3.76817798615 -162.942993164
endloop
endfacet
facet normal 0.103126235306 -0.99466830492 1.99227784492e-07
outer loop
vertex -9.86178874969 3.77230572701 -159.371994019
vertex -9.88167095184 3.77024435997 -159.371994019
vertex -9.88167095184 3.77024364471 -162.942993164
endloop
endfacet
facet normal 0.103338636458 -0.994646310806 1.99223379127e-07
outer loop
vertex -9.88167095184 3.77024435997 -159.371994019
vertex -9.90155315399 3.7681787014 -159.371994019
vertex -9.90155315399 3.76817798615 -162.942993164
endloop
endfacet
facet normal 0.994703471661 0.102786749601 -1.37251605636e-08
outer loop
vertex -9.84190654755 3.77436256409 -159.371994019
vertex -9.84190654755 3.77436208725 -162.942993164
vertex -9.84704589844 3.82409787178 -159.371994019
endloop
endfacet
facet normal 0.994703412056 0.102787233889 -2.07011758846e-08
outer loop
vertex -9.84190654755 3.77436208725 -162.942993164
vertex -9.84704589844 3.82409715652 -162.942993164
vertex -9.84704589844 3.82409787178 -159.371994019
endloop
endfacet
facet normal 0.0 0.0 -1.0
outer loop
vertex -9.90672588348 3.81790971756 -162.942993164
vertex -9.88167095184 3.77024364471 -162.942993164
vertex -9.90155315399 3.76817798615 -162.942993164
endloop
endfacet
facet normal 0.0 -0.0 -1.0
outer loop
vertex -9.88683319092 3.81997656822 -162.942993164
vertex -9.88167095184 3.77024364471 -162.942993164
vertex -9.90672588348 3.81790971756 -162.942993164
endloop
endfacet
facet normal 0.0 -0.0 -1.0
outer loop
vertex -9.86693954468 3.82203912735 -162.942993164
vertex -9.86178874969 3.77230501175 -162.942993164
vertex -9.88167095184 3.77024364471 -162.942993164
endloop
endfacet
facet normal 0.0 0.0 -1.0
outer loop
vertex -9.86693954468 3.82203912735 -162.942993164
vertex -9.88167095184 3.77024364471 -162.942993164
vertex -9.88683319092 3.81997656822 -162.942993164
endloop
endfacet
facet normal 0.0 -0.0 -1.0
outer loop
vertex -9.84704589844 3.82409715652 -162.942993164
vertex -9.84190654755 3.77436208725 -162.942993164
vertex -9.86178874969 3.77230501175 -162.942993164
endloop
endfacet
facet normal 0.0 0.0 -1.0
outer loop
vertex -9.84704589844 3.82409715652 -162.942993164
vertex -9.86178874969 3.77230501175 -162.942993164
vertex -9.86693954468 3.82203912735 -162.942993164
endloop
endfacet
facet normal 0.0 0.0 1.0
outer loop
vertex -9.88167095184 3.77024435997 -159.371994019
vertex -9.90672588348 3.81791043282 -159.371994019
vertex -9.90155315399 3.7681787014 -159.371994019
endloop
endfacet
facet normal 0.0 0.0 1.0
outer loop
vertex -9.86178874969 3.77230572701 -159.371994019
vertex -9.88683319092 3.81997728348 -159.371994019
vertex -9.88167095184 3.77024435997 -159.371994019
endloop
endfacet
facet normal 0.0 0.0 1.0
outer loop
vertex -9.88167095184 3.77024435997 -159.371994019
vertex -9.88683319092 3.81997728348 -159.371994019
vertex -9.90672588348 3.81791043282 -159.371994019
endloop
endfacet
facet normal 0.0 0.0 1.0
outer loop
vertex -9.84190654755 3.77436256409 -159.371994019
vertex -9.86693954468 3.82203984261 -159.371994019
vertex -9.86178874969 3.77230572701 -159.371994019
endloop
endfacet
facet normal 0.0 0.0 1.0
outer loop
vertex -9.86178874969 3.77230572701 -159.371994019
vertex -9.86693954468 3.82203984261 -159.371994019
vertex -9.88683319092 3.81997728348 -159.371994019
endloop
endfacet
facet normal 0.0 0.0 1.0
outer loop
vertex -9.84190654755 3.77436256409 -159.371994019
vertex -9.84704589844 3.82409787178 -159.371994019
vertex -9.86693954468 3.82203984261 -159.371994019
endloop
endfacet
