solid 
facet normal 0.102902404964 0.994691491127 -1.99219257979e-07
outer loop
vertex 9.86693286896 3.82203984261 64.5579986572
vertex 9.84703922272 3.82409787178 64.5579986572
vertex 9.84703922272 3.82409858704 68.1290054321
endloop
endfacet
facet normal 0.102902404964 0.994691491127 -1.99231990905e-07
outer loop
vertex 9.86693286896 3.82203984261 64.5579986572
vertex 9.84703922272 3.82409858704 68.1290054321
vertex 9.86693286896 3.82204055786 68.1290054321
endloop
endfacet
facet normal 0.103126496077 0.994668245316 -1.99227329745e-07
outer loop
vertex 9.8868265152 3.81997728348 64.5579986572
vertex 9.86693286896 3.82204055786 68.1290054321
vertex 9.8868265152 3.81997799873 68.1290054321
endloop
endfacet
facet normal 0.10334367305 0.99464571476 -1.99222810693e-07
outer loop
vertex 9.8868265152 3.81997728348 64.5579986572
vertex 9.8868265152 3.81997799873 68.1290054321
vertex 9.90671920776 3.81791114807 68.1290054321
endloop
endfacet
facet normal 0.103126496077 0.994668245316 -1.99214596819e-07
outer loop
vertex 9.8868265152 3.81997728348 64.5579986572
vertex 9.86693286896 3.82203984261 64.5579986572
vertex 9.86693286896 3.82204055786 68.1290054321
endloop
endfacet
facet normal 0.103343680501 0.99464571476 -1.99222810693e-07
outer loop
vertex 9.90671920776 3.81791043282 64.5579986572
vertex 9.8868265152 3.81997728348 64.5579986572
vertex 9.90671920776 3.81791114807 68.1290054321
endloop
endfacet
facet normal 0.994634151459 -0.10345453769 2.07010799613e-08
outer loop
vertex 9.90154647827 3.7681787014 64.5579986572
vertex 9.90671920776 3.81791043282 64.5579986572
vertex 9.90671920776 3.81791114807 68.1290054321
endloop
endfacet
facet normal 0.994634151459 -0.10345453769 2.07214547743e-08
outer loop
vertex 9.90154647827 3.7681787014 64.5579986572
vertex 9.90671920776 3.81791114807 68.1290054321
vertex 9.90154647827 3.76817941666 68.1290054321
endloop
endfacet
facet normal -0.102908916771 -0.994690775871 1.99231848796e-07
outer loop
vertex 9.84189891815 3.77436351776 68.1290054321
vertex 9.84189891815 3.77436280251 64.5579986572
vertex 9.86178207397 3.77230644226 68.1290054321
endloop
endfacet
facet normal -0.103114411235 -0.994669437408 1.99227571329e-07
outer loop
vertex 9.86178207397 3.77230644226 68.1290054321
vertex 9.86178207397 3.77230572701 64.5579986572
vertex 9.88166427612 3.77024531364 68.1290054321
endloop
endfacet
facet normal -0.102908916771 -0.994690775871 1.99222299102e-07
outer loop
vertex 9.84189891815 3.77436280251 64.5579986572
vertex 9.86178207397 3.77230572701 64.5579986572
vertex 9.86178207397 3.77230644226 68.1290054321
endloop
endfacet
facet normal -0.103126212955 -0.994668245316 2.65636430186e-07
outer loop
vertex 9.86178207397 3.77230572701 64.5579986572
vertex 9.88166427612 3.77024435997 64.5579986572
vertex 9.88166427612 3.77024531364 68.1290054321
endloop
endfacet
facet normal -0.103350423276 -0.994644939899 1.99222668584e-07
outer loop
vertex 9.88166427612 3.77024531364 68.1290054321
vertex 9.90154647827 3.7681787014 64.5579986572
vertex 9.90154647827 3.76817941666 68.1290054321
endloop
endfacet
facet normal -0.103338621557 -0.994646191597 2.65630546892e-07
outer loop
vertex 9.88166427612 3.77024435997 64.5579986572
vertex 9.90154647827 3.7681787014 64.5579986572
vertex 9.88166427612 3.77024531364 68.1290054321
endloop
endfacet
facet normal -0.994701445103 0.102806091309 -2.05380885632e-08
outer loop
vertex 9.84703922272 3.82409787178 64.5579986572
vertex 9.84189891815 3.77436280251 64.5579986572
vertex 9.84189891815 3.77436351776 68.1290054321
endloop
endfacet
facet normal -0.994701445103 0.10280610621 -2.05915746676e-08
outer loop
vertex 9.84703922272 3.82409787178 64.5579986572
vertex 9.84189891815 3.77436351776 68.1290054321
vertex 9.84703922272 3.82409858704 68.1290054321
endloop
endfacet
facet normal 0.0 0.0 -1.0
outer loop
vertex 9.88166427612 3.77024435997 64.5579986572
vertex 9.90671920776 3.81791043282 64.5579986572
vertex 9.90154647827 3.7681787014 64.5579986572
endloop
endfacet
facet normal 0.0 0.0 -1.0
outer loop
vertex 9.86178207397 3.77230572701 64.5579986572
vertex 9.8868265152 3.81997728348 64.5579986572
vertex 9.88166427612 3.77024435997 64.5579986572
endloop
endfacet
facet normal 0.0 0.0 -1.0
outer loop
vertex 9.88166427612 3.77024435997 64.5579986572
vertex 9.8868265152 3.81997728348 64.5579986572
vertex 9.90671920776 3.81791043282 64.5579986572
endloop
endfacet
facet normal 0.0 0.0 -1.0
outer loop
vertex 9.84189891815 3.77436280251 64.5579986572
vertex 9.86693286896 3.82203984261 64.5579986572
vertex 9.86178207397 3.77230572701 64.5579986572
endloop
endfacet
facet normal 0.0 0.0 -1.0
outer loop
vertex 9.86178207397 3.77230572701 64.5579986572
vertex 9.86693286896 3.82203984261 64.5579986572
vertex 9.8868265152 3.81997728348 64.5579986572
endloop
endfacet
facet normal 0.0 0.0 -1.0
outer loop
vertex 9.84189891815 3.77436280251 64.5579986572
vertex 9.84703922272 3.82409787178 64.5579986572
vertex 9.86693286896 3.82203984261 64.5579986572
endloop
endfacet
facet normal 0.0 0.0 1.0
outer loop
vertex 9.90671920776 3.81791114807 68.1290054321
vertex 9.88166427612 3.77024531364 68.1290054321
vertex 9.90154647827 3.76817941666 68.1290054321
endloop
endfacet
facet normal 0.0 0.0 1.0
outer loop
vertex 9.8868265152 3.81997799873 68.1290054321
vertex 9.86178207397 3.77230644226 68.1290054321
vertex 9.88166427612 3.77024531364 68.1290054321
endloop
endfacet
facet normal 0.0 0.0 1.0
outer loop
vertex 9.8868265152 3.81997799873 68.1290054321
vertex 9.88166427612 3.77024531364 68.1290054321
vertex 9.90671920776 3.81791114807 68.1290054321
endloop
endfacet
facet normal 0.0 0.0 1.0
outer loop
vertex 9.86693286896 3.82204055786 68.1290054321
vertex 9.86178207397 3.77230644226 68.1290054321
vertex 9.8868265152 3.81997799873 68.1290054321
endloop
endfacet
facet normal 0.0 0.0 1.0
outer loop
vertex 9.84703922272 3.82409858704 68.1290054321
vertex 9.84189891815 3.77436351776 68.1290054321
vertex 9.86178207397 3.77230644226 68.1290054321
endloop
endfacet
facet normal 0.0 0.0 1.0
outer loop
vertex 9.84703922272 3.82409858704 68.1290054321
vertex 9.86178207397 3.77230644226 68.1290054321
vertex 9.86693286896 3.82204055786 68.1290054321
endloop
endfacet
