solid 
facet normal 0.0125156836584 0.999921679497 -0.0
outer loop
vertex 0.0814138799906 4.30005455017 10.3330001831
vertex 0.0814138799906 4.30005455017 10.392999649
vertex 3.34164738655 4.25924730301 10.392999649
endloop
endfacet
facet normal 0.0486801154912 0.998814404011 -0.0
outer loop
vertex 3.34164738655 4.25924730301 10.3330001831
vertex 3.34164738655 4.25924730301 10.392999649
vertex 6.59827041626 4.10052633286 10.392999649
endloop
endfacet
facet normal 0.0125156836584 0.999921679497 -0.0
outer loop
vertex 3.34164738655 4.25924730301 10.3330001831
vertex 0.0814138799906 4.30005455017 10.3330001831
vertex 3.34164738655 4.25924730301 10.392999649
endloop
endfacet
facet normal 0.0486801154912 0.998814404011 -0.0
outer loop
vertex 6.59827041626 4.10052633286 10.3330001831
vertex 3.34164738655 4.25924730301 10.3330001831
vertex 6.59827041626 4.10052633286 10.392999649
endloop
endfacet
facet normal 0.0847807824612 0.996399641037 -0.0
outer loop
vertex 9.84702014923 3.82409954071 10.3330001831
vertex 6.59827041626 4.10052633286 10.392999649
vertex 9.84702014923 3.82409954071 10.392999649
endloop
endfacet
facet normal 0.0847807824612 0.996399641037 0.0
outer loop
vertex 9.84702014923 3.82409954071 10.3330001831
vertex 6.59827041626 4.10052633286 10.3330001831
vertex 6.59827041626 4.10052633286 10.392999649
endloop
endfacet
facet normal 0.994703352451 -0.102787218988 0.0
outer loop
vertex 9.84702014923 3.82409954071 10.3330001831
vertex 9.84702014923 3.82409954071 10.392999649
vertex 9.84188079834 3.77436447144 10.392999649
endloop
endfacet
facet normal 0.994703352451 -0.102787218988 0.0
outer loop
vertex 9.84188079834 3.77436447144 10.3330001831
vertex 9.84702014923 3.82409954071 10.3330001831
vertex 9.84188079834 3.77436447144 10.392999649
endloop
endfacet
facet normal -0.0125156091526 -0.999921739101 0.0
outer loop
vertex 0.0816926658154 4.25005531311 10.392999649
vertex 3.34011721611 4.20927095413 10.3330001831
vertex 3.34011721611 4.20927095413 10.392999649
endloop
endfacet
facet normal -0.0125156091526 -0.999921739101 0.0
outer loop
vertex 0.0816926658154 4.25005531311 10.3330001831
vertex 3.34011721611 4.20927095413 10.3330001831
vertex 0.0816926658154 4.25005531311 10.392999649
endloop
endfacet
facet normal -0.0486800670624 -0.998814404011 0.0
outer loop
vertex 3.34011721611 4.20927095413 10.392999649
vertex 6.59493350983 4.05063819885 10.3330001831
vertex 6.59493350983 4.05063819885 10.392999649
endloop
endfacet
facet normal -0.0847808718681 -0.996399581432 -0.0
outer loop
vertex 6.59493350983 4.05063819885 10.392999649
vertex 6.59493350983 4.05063819885 10.3330001831
vertex 9.84188079834 3.77436447144 10.392999649
endloop
endfacet
facet normal -0.0486800670624 -0.998814404011 0.0
outer loop
vertex 3.34011721611 4.20927095413 10.3330001831
vertex 6.59493350983 4.05063819885 10.3330001831
vertex 3.34011721611 4.20927095413 10.392999649
endloop
endfacet
facet normal -0.0847808718681 -0.996399581432 0.0
outer loop
vertex 6.59493350983 4.05063819885 10.3330001831
vertex 9.84188079834 3.77436447144 10.3330001831
vertex 9.84188079834 3.77436447144 10.392999649
endloop
endfacet
facet normal -0.999984502792 -0.00557571509853 0.0
outer loop
vertex 0.0814138799906 4.30005455017 10.3330001831
vertex 0.0816926658154 4.25005531311 10.3330001831
vertex 0.0816926658154 4.25005531311 10.392999649
endloop
endfacet
facet normal -0.999984502792 -0.00557571509853 0.0
outer loop
vertex 0.0814138799906 4.30005455017 10.3330001831
vertex 0.0816926658154 4.25005531311 10.392999649
vertex 0.0814138799906 4.30005455017 10.392999649
endloop
endfacet
facet normal 0.0 0.0 -1.0
outer loop
vertex 6.59493350983 4.05063819885 10.3330001831
vertex 6.59827041626 4.10052633286 10.3330001831
vertex 9.84188079834 3.77436447144 10.3330001831
endloop
endfacet
facet normal 0.0 0.0 -1.0
outer loop
vertex 9.84188079834 3.77436447144 10.3330001831
vertex 6.59827041626 4.10052633286 10.3330001831
vertex 9.84702014923 3.82409954071 10.3330001831
endloop
endfacet
facet normal 0.0 0.0 -1.0
outer loop
vertex 3.34011721611 4.20927095413 10.3330001831
vertex 3.34164738655 4.25924730301 10.3330001831
vertex 6.59493350983 4.05063819885 10.3330001831
endloop
endfacet
facet normal 0.0 0.0 -1.0
outer loop
vertex 6.59493350983 4.05063819885 10.3330001831
vertex 3.34164738655 4.25924730301 10.3330001831
vertex 6.59827041626 4.10052633286 10.3330001831
endloop
endfacet
facet normal 0.0 0.0 -1.0
outer loop
vertex 0.0816926658154 4.25005531311 10.3330001831
vertex 0.0814138799906 4.30005455017 10.3330001831
vertex 3.34011721611 4.20927095413 10.3330001831
endloop
endfacet
facet normal 0.0 0.0 -1.0
outer loop
vertex 3.34011721611 4.20927095413 10.3330001831
vertex 0.0814138799906 4.30005455017 10.3330001831
vertex 3.34164738655 4.25924730301 10.3330001831
endloop
endfacet
facet normal 0.0 0.0 1.0
outer loop
vertex 6.59493350983 4.05063819885 10.392999649
vertex 9.84188079834 3.77436447144 10.392999649
vertex 9.84702014923 3.82409954071 10.392999649
endloop
endfacet
facet normal 0.0 0.0 1.0
outer loop
vertex 6.59827041626 4.10052633286 10.392999649
vertex 6.59493350983 4.05063819885 10.392999649
vertex 9.84702014923 3.82409954071 10.392999649
endloop
endfacet
facet normal 0.0 0.0 1.0
outer loop
vertex 3.34011721611 4.20927095413 10.392999649
vertex 6.59493350983 4.05063819885 10.392999649
vertex 6.59827041626 4.10052633286 10.392999649
endloop
endfacet
facet normal 0.0 0.0 1.0
outer loop
vertex 3.34164738655 4.25924730301 10.392999649
vertex 3.34011721611 4.20927095413 10.392999649
vertex 6.59827041626 4.10052633286 10.392999649
endloop
endfacet
facet normal -0.0 0.0 1.0
outer loop
vertex 0.0816926658154 4.25005531311 10.392999649
vertex 3.34011721611 4.20927095413 10.392999649
vertex 3.34164738655 4.25924730301 10.392999649
endloop
endfacet
facet normal 0.0 0.0 1.0
outer loop
vertex 0.0814138799906 4.30005455017 10.392999649
vertex 0.0816926658154 4.25005531311 10.392999649
vertex 3.34164738655 4.25924730301 10.392999649
endloop
endfacet
