solid 
facet normal -0.120770581067 0.992680430412 0.0
outer loop
vertex -13.0836467743 3.43032813072 10.3930006027
vertex -9.84702301025 3.82409930229 10.3930006027
vertex -9.84702301025 3.82409930229 10.3330001831
endloop
endfacet
facet normal -0.120770581067 0.992680430412 0.0
outer loop
vertex -13.0836467743 3.43032813072 10.3930006027
vertex -9.84702301025 3.82409930229 10.3330001831
vertex -13.0836467743 3.43032813072 10.3330001831
endloop
endfacet
facet normal -0.156602218747 0.987661778927 0.0
outer loop
vertex -16.3039073944 2.91972827911 10.3930006027
vertex -13.0836467743 3.43032813072 10.3330001831
vertex -16.3039073944 2.91972827911 10.3330001831
endloop
endfacet
facet normal -0.156602218747 0.987661778927 0.0
outer loop
vertex -16.3039073944 2.91972827911 10.3930006027
vertex -13.0836467743 3.43032813072 10.3930006027
vertex -13.0836467743 3.43032813072 10.3330001831
endloop
endfacet
facet normal -0.192228958011 0.981350123882 0.0
outer loop
vertex -19.5035877228 2.29296803474 10.3930006027
vertex -16.3039073944 2.91972827911 10.3330001831
vertex -19.5035877228 2.29296803474 10.3330001831
endloop
endfacet
facet normal -0.192228958011 0.981350123882 0.0
outer loop
vertex -19.5035877228 2.29296803474 10.3930006027
vertex -16.3039073944 2.91972827911 10.3930006027
vertex -16.3039073944 2.91972827911 10.3330001831
endloop
endfacet
facet normal -0.977709829807 -0.20996055007 0.0
outer loop
vertex -19.5035877228 2.29296803474 10.3930006027
vertex -19.4930896759 2.24408245087 10.3330001831
vertex -19.4930896759 2.24408245087 10.3930006027
endloop
endfacet
facet normal -0.977709829807 -0.20996055007 0.0
outer loop
vertex -19.5035877228 2.29296803474 10.3330001831
vertex -19.4930896759 2.24408245087 10.3330001831
vertex -19.5035877228 2.29296803474 10.3930006027
endloop
endfacet
facet normal 0.120770610869 -0.992680430412 0.0
outer loop
vertex -9.84188365936 3.77436423302 10.3330001831
vertex -13.0767116547 3.38081145287 10.3930006027
vertex -13.0767116547 3.38081145287 10.3330001831
endloop
endfacet
facet normal 0.120770610869 -0.992680430412 0.0
outer loop
vertex -9.84188365936 3.77436423302 10.3930006027
vertex -13.0767116547 3.38081145287 10.3930006027
vertex -9.84188365936 3.77436423302 10.3330001831
endloop
endfacet
facet normal 0.156602188945 -0.987661778927 0.0
outer loop
vertex -13.0767116547 3.38081145287 10.3330001831
vertex -16.2951850891 2.87049508095 10.3930006027
vertex -16.2951850891 2.87049508095 10.3330001831
endloop
endfacet
facet normal 0.192229032516 -0.981350123882 0.0
outer loop
vertex -16.2951850891 2.87049508095 10.3330001831
vertex -16.2951850891 2.87049508095 10.3930006027
vertex -19.4930896759 2.24408245087 10.3330001831
endloop
endfacet
facet normal 0.156602188945 -0.987661778927 0.0
outer loop
vertex -13.0767116547 3.38081145287 10.3930006027
vertex -16.2951850891 2.87049508095 10.3930006027
vertex -13.0767116547 3.38081145287 10.3330001831
endloop
endfacet
facet normal 0.192229032516 -0.981350123882 0.0
outer loop
vertex -16.2951850891 2.87049508095 10.3930006027
vertex -19.4930896759 2.24408245087 10.3930006027
vertex -19.4930896759 2.24408245087 10.3330001831
endloop
endfacet
facet normal 0.994703352451 0.102787226439 0.0
outer loop
vertex -9.84188365936 3.77436423302 10.3930006027
vertex -9.84188365936 3.77436423302 10.3330001831
vertex -9.84702301025 3.82409930229 10.3930006027
endloop
endfacet
facet normal 0.994703352451 0.102787226439 0.0
outer loop
vertex -9.84188365936 3.77436423302 10.3330001831
vertex -9.84702301025 3.82409930229 10.3330001831
vertex -9.84702301025 3.82409930229 10.3930006027
endloop
endfacet
facet normal 0.0 -0.0 -1.0
outer loop
vertex -16.3039073944 2.91972827911 10.3330001831
vertex -16.2951850891 2.87049508095 10.3330001831
vertex -19.4930896759 2.24408245087 10.3330001831
endloop
endfacet
facet normal 0.0 0.0 -1.0
outer loop
vertex -16.3039073944 2.91972827911 10.3330001831
vertex -19.4930896759 2.24408245087 10.3330001831
vertex -19.5035877228 2.29296803474 10.3330001831
endloop
endfacet
facet normal 0.0 -0.0 -1.0
outer loop
vertex -13.0836467743 3.43032813072 10.3330001831
vertex -13.0767116547 3.38081145287 10.3330001831
vertex -16.2951850891 2.87049508095 10.3330001831
endloop
endfacet
facet normal 0.0 0.0 -1.0
outer loop
vertex -13.0836467743 3.43032813072 10.3330001831
vertex -16.2951850891 2.87049508095 10.3330001831
vertex -16.3039073944 2.91972827911 10.3330001831
endloop
endfacet
facet normal 0.0 -0.0 -1.0
outer loop
vertex -9.84702301025 3.82409930229 10.3330001831
vertex -9.84188365936 3.77436423302 10.3330001831
vertex -13.0767116547 3.38081145287 10.3330001831
endloop
endfacet
facet normal 0.0 0.0 -1.0
outer loop
vertex -9.84702301025 3.82409930229 10.3330001831
vertex -13.0767116547 3.38081145287 10.3330001831
vertex -13.0836467743 3.43032813072 10.3330001831
endloop
endfacet
facet normal 0.0 0.0 1.0
outer loop
vertex -16.2951850891 2.87049508095 10.3930006027
vertex -16.3039073944 2.91972827911 10.3930006027
vertex -19.4930896759 2.24408245087 10.3930006027
endloop
endfacet
facet normal 0.0 -0.0 1.0
outer loop
vertex -19.4930896759 2.24408245087 10.3930006027
vertex -16.3039073944 2.91972827911 10.3930006027
vertex -19.5035877228 2.29296803474 10.3930006027
endloop
endfacet
facet normal 0.0 0.0 1.0
outer loop
vertex -13.0767116547 3.38081145287 10.3930006027
vertex -13.0836467743 3.43032813072 10.3930006027
vertex -16.2951850891 2.87049508095 10.3930006027
endloop
endfacet
facet normal 0.0 -0.0 1.0
outer loop
vertex -16.2951850891 2.87049508095 10.3930006027
vertex -13.0836467743 3.43032813072 10.3930006027
vertex -16.3039073944 2.91972827911 10.3930006027
endloop
endfacet
facet normal 0.0 0.0 1.0
outer loop
vertex -9.84188365936 3.77436423302 10.3930006027
vertex -9.84702301025 3.82409930229 10.3930006027
vertex -13.0767116547 3.38081145287 10.3930006027
endloop
endfacet
facet normal 0.0 -0.0 1.0
outer loop
vertex -13.0767116547 3.38081145287 10.3930006027
vertex -9.84702301025 3.82409930229 10.3930006027
vertex -13.0836467743 3.43032813072 10.3930006027
endloop
endfacet
