solid 
facet normal -0.0125156836584 -0.999921679497 0.0
outer loop
vertex -3.34165740013 -4.25924777985 -54.7250022888
vertex -0.0814238861203 -4.30005502701 -54.7250022888
vertex -0.0814238861203 -4.30005502701 -54.6650009155
endloop
endfacet
facet normal -0.0125156836584 -0.999921679497 0.0
outer loop
vertex -3.34165740013 -4.25924777985 -54.7250022888
vertex -0.0814238861203 -4.30005502701 -54.6650009155
vertex -3.34165740013 -4.25924777985 -54.6650009155
endloop
endfacet
facet normal -0.0486802645028 -0.998814463615 0.0
outer loop
vertex -6.59828042984 -4.10052633286 -54.7250022888
vertex -3.34165740013 -4.25924777985 -54.6650009155
vertex -6.59828042984 -4.10052633286 -54.6650009155
endloop
endfacet
facet normal -0.0847809165716 -0.996399641037 0.0
outer loop
vertex -6.59828042984 -4.10052633286 -54.7250022888
vertex -6.59828042984 -4.10052633286 -54.6650009155
vertex -9.84703063965 -3.82409906387 -54.6650009155
endloop
endfacet
facet normal -0.0486802645028 -0.998814463615 0.0
outer loop
vertex -6.59828042984 -4.10052633286 -54.7250022888
vertex -3.34165740013 -4.25924777985 -54.7250022888
vertex -3.34165740013 -4.25924777985 -54.6650009155
endloop
endfacet
facet normal -0.0847809165716 -0.996399641037 0.0
outer loop
vertex -9.84703063965 -3.82409906387 -54.7250022888
vertex -6.59828042984 -4.10052633286 -54.7250022888
vertex -9.84703063965 -3.82409906387 -54.6650009155
endloop
endfacet
facet normal -0.994701445103 0.102806098759 0.0
outer loop
vertex -9.84703063965 -3.82409906387 -54.7250022888
vertex -9.84703063965 -3.82409906387 -54.6650009155
vertex -9.84189033508 -3.7743639946 -54.7250022888
endloop
endfacet
facet normal -0.994701445103 0.102806098759 0.0
outer loop
vertex -9.84703063965 -3.82409906387 -54.6650009155
vertex -9.84189033508 -3.7743639946 -54.6650009155
vertex -9.84189033508 -3.7743639946 -54.7250022888
endloop
endfacet
facet normal 0.0125156082213 0.999921679497 0.0
outer loop
vertex -0.0817026644945 -4.25005578995 -54.6650009155
vertex -0.0817026644945 -4.25005578995 -54.7250022888
vertex -3.34012722969 -4.20927143097 -54.6650009155
endloop
endfacet
facet normal 0.0486803613603 0.998814404011 0.0
outer loop
vertex -3.34012722969 -4.20927143097 -54.6650009155
vertex -3.34012722969 -4.20927143097 -54.7250022888
vertex -6.59494352341 -4.05063772202 -54.6650009155
endloop
endfacet
facet normal 0.0125156082213 0.999921679497 0.0
outer loop
vertex -0.0817026644945 -4.25005578995 -54.7250022888
vertex -3.34012722969 -4.20927143097 -54.7250022888
vertex -3.34012722969 -4.20927143097 -54.6650009155
endloop
endfacet
facet normal 0.0486803613603 0.998814404011 0.0
outer loop
vertex -3.34012722969 -4.20927143097 -54.7250022888
vertex -6.59494352341 -4.05063772202 -54.7250022888
vertex -6.59494352341 -4.05063772202 -54.6650009155
endloop
endfacet
facet normal 0.0847808867693 0.996399641037 0.0
outer loop
vertex -6.59494352341 -4.05063772202 -54.6650009155
vertex -9.84189033508 -3.7743639946 -54.7250022888
vertex -9.84189033508 -3.7743639946 -54.6650009155
endloop
endfacet
facet normal 0.0847808867693 0.996399641037 -0.0
outer loop
vertex -6.59494352341 -4.05063772202 -54.7250022888
vertex -9.84189033508 -3.7743639946 -54.7250022888
vertex -6.59494352341 -4.05063772202 -54.6650009155
endloop
endfacet
facet normal 0.999984502792 0.00557556608692 0.0
outer loop
vertex -0.0817026644945 -4.25005578995 -54.7250022888
vertex -0.0814238861203 -4.30005502701 -54.6650009155
vertex -0.0814238861203 -4.30005502701 -54.7250022888
endloop
endfacet
facet normal 0.999984502792 0.00557556608692 0.0
outer loop
vertex -0.0817026644945 -4.25005578995 -54.6650009155
vertex -0.0814238861203 -4.30005502701 -54.6650009155
vertex -0.0817026644945 -4.25005578995 -54.7250022888
endloop
endfacet
facet normal 0.0 -0.0 1.0
outer loop
vertex -6.59828042984 -4.10052633286 -54.6650009155
vertex -6.59494352341 -4.05063772202 -54.6650009155
vertex -9.84189033508 -3.7743639946 -54.6650009155
endloop
endfacet
facet normal 0.0 0.0 1.0
outer loop
vertex -6.59828042984 -4.10052633286 -54.6650009155
vertex -9.84189033508 -3.7743639946 -54.6650009155
vertex -9.84703063965 -3.82409906387 -54.6650009155
endloop
endfacet
facet normal 0.0 -0.0 1.0
outer loop
vertex -3.34165740013 -4.25924777985 -54.6650009155
vertex -3.34012722969 -4.20927143097 -54.6650009155
vertex -6.59494352341 -4.05063772202 -54.6650009155
endloop
endfacet
facet normal 0.0 0.0 1.0
outer loop
vertex -3.34165740013 -4.25924777985 -54.6650009155
vertex -6.59494352341 -4.05063772202 -54.6650009155
vertex -6.59828042984 -4.10052633286 -54.6650009155
endloop
endfacet
facet normal 0.0 0.0 1.0
outer loop
vertex -0.0814238861203 -4.30005502701 -54.6650009155
vertex -0.0817026644945 -4.25005578995 -54.6650009155
vertex -3.34012722969 -4.20927143097 -54.6650009155
endloop
endfacet
facet normal 0.0 0.0 1.0
outer loop
vertex -0.0814238861203 -4.30005502701 -54.6650009155
vertex -3.34012722969 -4.20927143097 -54.6650009155
vertex -3.34165740013 -4.25924777985 -54.6650009155
endloop
endfacet
facet normal 0.0 -0.0 -1.0
outer loop
vertex -9.84189033508 -3.7743639946 -54.7250022888
vertex -6.59494352341 -4.05063772202 -54.7250022888
vertex -9.84703063965 -3.82409906387 -54.7250022888
endloop
endfacet
facet normal -0.0 0.0 -1.0
outer loop
vertex -6.59494352341 -4.05063772202 -54.7250022888
vertex -6.59828042984 -4.10052633286 -54.7250022888
vertex -9.84703063965 -3.82409906387 -54.7250022888
endloop
endfacet
facet normal 0.0 -0.0 -1.0
outer loop
vertex -6.59494352341 -4.05063772202 -54.7250022888
vertex -3.34012722969 -4.20927143097 -54.7250022888
vertex -6.59828042984 -4.10052633286 -54.7250022888
endloop
endfacet
facet normal -0.0 0.0 -1.0
outer loop
vertex -3.34012722969 -4.20927143097 -54.7250022888
vertex -3.34165740013 -4.25924777985 -54.7250022888
vertex -6.59828042984 -4.10052633286 -54.7250022888
endloop
endfacet
facet normal 0.0 -0.0 -1.0
outer loop
vertex -3.34012722969 -4.20927143097 -54.7250022888
vertex -0.0817026644945 -4.25005578995 -54.7250022888
vertex -3.34165740013 -4.25924777985 -54.7250022888
endloop
endfacet
facet normal 0.0 -0.0 -1.0
outer loop
vertex -0.0817026644945 -4.25005578995 -54.7250022888
vertex -0.0814238861203 -4.30005502701 -54.7250022888
vertex -3.34165740013 -4.25924777985 -54.7250022888
endloop
endfacet
