solid 
facet normal 0.012515977025 0.999921679497 0.0
outer loop
vertex 3.34167408943 4.25924777985 107.830001831
vertex 0.0814407244325 4.30005598068 107.830001831
vertex 0.0814407244325 4.30005598068 107.88999939
endloop
endfacet
facet normal 0.012515977025 0.999921679497 -0.0
outer loop
vertex 3.34167408943 4.25924777985 107.830001831
vertex 0.0814407244325 4.30005598068 107.88999939
vertex 3.34167408943 4.25924777985 107.88999939
endloop
endfacet
facet normal 0.0486805550754 0.998814344406 -0.0
outer loop
vertex 6.59829711914 4.10052537918 107.830001831
vertex 3.34167408943 4.25924777985 107.88999939
vertex 6.59829711914 4.10052537918 107.88999939
endloop
endfacet
facet normal 0.0847811475396 0.996399641037 -0.0
outer loop
vertex 6.59829711914 4.10052537918 107.830001831
vertex 6.59829711914 4.10052537918 107.88999939
vertex 9.84704685211 3.82409739494 107.88999939
endloop
endfacet
facet normal 0.0486805550754 0.998814344406 0.0
outer loop
vertex 6.59829711914 4.10052537918 107.830001831
vertex 3.34167408943 4.25924777985 107.830001831
vertex 3.34167408943 4.25924777985 107.88999939
endloop
endfacet
facet normal 0.0847811475396 0.996399641037 -0.0
outer loop
vertex 9.84704685211 3.82409739494 107.830001831
vertex 6.59829711914 4.10052537918 107.830001831
vertex 9.84704685211 3.82409739494 107.88999939
endloop
endfacet
facet normal 0.994703412056 -0.102787226439 0.0
outer loop
vertex 9.84704685211 3.82409739494 107.830001831
vertex 9.84704685211 3.82409739494 107.88999939
vertex 9.84190750122 3.77436232567 107.88999939
endloop
endfacet
facet normal 0.994703412056 -0.102787226439 0.0
outer loop
vertex 9.84190750122 3.77436232567 107.830001831
vertex 9.84704685211 3.82409739494 107.830001831
vertex 9.84190750122 3.77436232567 107.88999939
endloop
endfacet
facet normal -0.0125160478055 -0.999921739101 0.0
outer loop
vertex 0.0817194953561 4.25005674362 107.88999939
vertex 3.34014391899 4.20927095413 107.830001831
vertex 3.34014391899 4.20927095413 107.88999939
endloop
endfacet
facet normal -0.0486803650856 -0.998814463615 -0.0
outer loop
vertex 3.34014391899 4.20927095413 107.88999939
vertex 3.34014391899 4.20927095413 107.830001831
vertex 6.59496021271 4.05063724518 107.88999939
endloop
endfacet
facet normal -0.0125160478055 -0.999921739101 0.0
outer loop
vertex 0.0817194953561 4.25005674362 107.830001831
vertex 3.34014391899 4.20927095413 107.830001831
vertex 0.0817194953561 4.25005674362 107.88999939
endloop
endfacet
facet normal -0.0847812369466 -0.996399581432 -0.0
outer loop
vertex 6.59496021271 4.05063724518 107.88999939
vertex 6.59496021271 4.05063724518 107.830001831
vertex 9.84190750122 3.77436232567 107.88999939
endloop
endfacet
facet normal -0.0486803650856 -0.998814463615 0.0
outer loop
vertex 3.34014391899 4.20927095413 107.830001831
vertex 6.59496021271 4.05063724518 107.830001831
vertex 6.59496021271 4.05063724518 107.88999939
endloop
endfacet
facet normal -0.0847812369466 -0.996399581432 0.0
outer loop
vertex 6.59496021271 4.05063724518 107.830001831
vertex 9.84190750122 3.77436232567 107.830001831
vertex 9.84190750122 3.77436232567 107.88999939
endloop
endfacet
facet normal -0.999984502792 -0.00557541707531 0.0
outer loop
vertex 0.0817194953561 4.25005674362 107.830001831
vertex 0.0817194953561 4.25005674362 107.88999939
vertex 0.0814407244325 4.30005598068 107.88999939
endloop
endfacet
facet normal -0.999984502792 -0.00557541707531 0.0
outer loop
vertex 0.0814407244325 4.30005598068 107.830001831
vertex 0.0817194953561 4.25005674362 107.830001831
vertex 0.0814407244325 4.30005598068 107.88999939
endloop
endfacet
facet normal 0.0 0.0 -1.0
outer loop
vertex 9.84190750122 3.77436232567 107.830001831
vertex 6.59496021271 4.05063724518 107.830001831
vertex 9.84704685211 3.82409739494 107.830001831
endloop
endfacet
facet normal 0.0 0.0 -1.0
outer loop
vertex 6.59496021271 4.05063724518 107.830001831
vertex 6.59829711914 4.10052537918 107.830001831
vertex 9.84704685211 3.82409739494 107.830001831
endloop
endfacet
facet normal 0.0 0.0 -1.0
outer loop
vertex 6.59496021271 4.05063724518 107.830001831
vertex 3.34014391899 4.20927095413 107.830001831
vertex 6.59829711914 4.10052537918 107.830001831
endloop
endfacet
facet normal 0.0 0.0 -1.0
outer loop
vertex 3.34014391899 4.20927095413 107.830001831
vertex 3.34167408943 4.25924777985 107.830001831
vertex 6.59829711914 4.10052537918 107.830001831
endloop
endfacet
facet normal 0.0 0.0 -1.0
outer loop
vertex 3.34014391899 4.20927095413 107.830001831
vertex 0.0817194953561 4.25005674362 107.830001831
vertex 3.34167408943 4.25924777985 107.830001831
endloop
endfacet
facet normal 0.0 0.0 -1.0
outer loop
vertex 0.0817194953561 4.25005674362 107.830001831
vertex 0.0814407244325 4.30005598068 107.830001831
vertex 3.34167408943 4.25924777985 107.830001831
endloop
endfacet
facet normal 0.0 0.0 1.0
outer loop
vertex 6.59829711914 4.10052537918 107.88999939
vertex 6.59496021271 4.05063724518 107.88999939
vertex 9.84190750122 3.77436232567 107.88999939
endloop
endfacet
facet normal 0.0 0.0 1.0
outer loop
vertex 6.59829711914 4.10052537918 107.88999939
vertex 9.84190750122 3.77436232567 107.88999939
vertex 9.84704685211 3.82409739494 107.88999939
endloop
endfacet
facet normal 0.0 0.0 1.0
outer loop
vertex 3.34167408943 4.25924777985 107.88999939
vertex 3.34014391899 4.20927095413 107.88999939
vertex 6.59496021271 4.05063724518 107.88999939
endloop
endfacet
facet normal 0.0 0.0 1.0
outer loop
vertex 3.34167408943 4.25924777985 107.88999939
vertex 6.59496021271 4.05063724518 107.88999939
vertex 6.59829711914 4.10052537918 107.88999939
endloop
endfacet
facet normal 0.0 0.0 1.0
outer loop
vertex 0.0814407244325 4.30005598068 107.88999939
vertex 0.0817194953561 4.25005674362 107.88999939
vertex 3.34014391899 4.20927095413 107.88999939
endloop
endfacet
facet normal 0.0 0.0 1.0
outer loop
vertex 0.0814407244325 4.30005598068 107.88999939
vertex 3.34014391899 4.20927095413 107.88999939
vertex 3.34167408943 4.25924777985 107.88999939
endloop
endfacet
