solid 
facet normal 0.120770610869 0.992680430412 -0.0
outer loop
vertex 9.84702205658 3.82409906387 -0.500000298023
vertex 9.84702205658 3.82409906387 -0.440000325441
vertex 13.0836448669 3.4303278923 -0.440000206232
endloop
endfacet
facet normal 0.156602144241 0.987661778927 -0.0
outer loop
vertex 13.0836448669 3.4303278923 -0.500000238419
vertex 13.0836448669 3.4303278923 -0.440000206232
vertex 16.3039054871 2.91972827911 -0.440000116825
endloop
endfacet
facet normal 0.120770610869 0.992680430412 -0.0
outer loop
vertex 13.0836448669 3.4303278923 -0.500000238419
vertex 9.84702205658 3.82409906387 -0.500000298023
vertex 13.0836448669 3.4303278923 -0.440000206232
endloop
endfacet
facet normal 0.192228898406 0.981350123882 -0.0
outer loop
vertex 16.3039054871 2.91972827911 -0.500000119209
vertex 16.3039054871 2.91972827911 -0.440000116825
vertex 19.5035858154 2.29296827316 -0.439999997616
endloop
endfacet
facet normal 0.156602144241 0.987661778927 -0.0
outer loop
vertex 16.3039054871 2.91972827911 -0.500000119209
vertex 13.0836448669 3.4303278923 -0.500000238419
vertex 16.3039054871 2.91972827911 -0.440000116825
endloop
endfacet
facet normal 0.192228898406 0.981350123882 -0.0
outer loop
vertex 19.5035858154 2.29296827316 -0.5
vertex 16.3039054871 2.91972827911 -0.500000119209
vertex 19.5035858154 2.29296827316 -0.439999997616
endloop
endfacet
facet normal 0.977717757225 -0.209924086928 0.0
outer loop
vertex 19.4930896759 2.24408268929 -0.5
vertex 19.5035858154 2.29296827316 -0.5
vertex 19.5035858154 2.29296827316 -0.439999997616
endloop
endfacet
facet normal 0.977717757225 -0.209924086928 0.0
outer loop
vertex 19.4930896759 2.24408268929 -0.5
vertex 19.5035858154 2.29296827316 -0.439999997616
vertex 19.4930896759 2.24408268929 -0.439999997616
endloop
endfacet
facet normal -0.120770536363 -0.992680490017 0.0
outer loop
vertex 9.84188175201 3.77436375618 -0.440000325441
vertex 13.0767097473 3.38081121445 -0.500000238419
vertex 13.0767097473 3.38081121445 -0.440000206232
endloop
endfacet
facet normal -0.120770536363 -0.992680430412 0.0
outer loop
vertex 9.84188175201 3.77436375618 -0.500000298023
vertex 13.0767097473 3.38081121445 -0.500000238419
vertex 9.84188175201 3.77436375618 -0.440000325441
endloop
endfacet
facet normal -0.156602188945 -0.987661778927 0.0
outer loop
vertex 13.0767097473 3.38081121445 -0.440000206232
vertex 16.2951831818 2.87049484253 -0.500000119209
vertex 16.2951831818 2.87049484253 -0.440000116825
endloop
endfacet
facet normal -0.156602188945 -0.987661778927 0.0
outer loop
vertex 13.0767097473 3.38081121445 -0.500000238419
vertex 16.2951831818 2.87049484253 -0.500000119209
vertex 13.0767097473 3.38081121445 -0.440000206232
endloop
endfacet
facet normal -0.192228764296 -0.981350183487 0.0
outer loop
vertex 16.2951831818 2.87049484253 -0.440000116825
vertex 19.4930896759 2.24408268929 -0.5
vertex 19.4930896759 2.24408268929 -0.439999997616
endloop
endfacet
facet normal -0.192228764296 -0.981350183487 0.0
outer loop
vertex 16.2951831818 2.87049484253 -0.500000119209
vertex 19.4930896759 2.24408268929 -0.5
vertex 16.2951831818 2.87049484253 -0.440000116825
endloop
endfacet
facet normal -0.994701504707 0.102805607021 0.0
outer loop
vertex 9.84188175201 3.77436375618 -0.500000298023
vertex 9.84188175201 3.77436375618 -0.440000325441
vertex 9.84702205658 3.82409906387 -0.440000325441
endloop
endfacet
facet normal -0.994701504707 0.102805607021 0.0
outer loop
vertex 9.84702205658 3.82409906387 -0.500000298023
vertex 9.84188175201 3.77436375618 -0.500000298023
vertex 9.84702205658 3.82409906387 -0.440000325441
endloop
endfacet
facet normal 3.60270462352e-08 -6.38263175645e-09 -1.0
outer loop
vertex 16.2951831818 2.87049484253 -0.500000119209
vertex 16.3039054871 2.91972827911 -0.500000119209
vertex 19.4930896759 2.24408268929 -0.5
endloop
endfacet
facet normal 3.57529472694e-08 -7.67645325084e-09 -1.0
outer loop
vertex 19.4930896759 2.24408268929 -0.5
vertex 16.3039054871 2.91972827911 -0.500000119209
vertex 19.5035858154 2.29296827316 -0.5
endloop
endfacet
facet normal 3.62344181326e-08 -5.07485609091e-09 -1.0
outer loop
vertex 13.0767097473 3.38081121445 -0.500000238419
vertex 13.0836448669 3.4303278923 -0.500000238419
vertex 16.2951831818 2.87049484253 -0.500000119209
endloop
endfacet
facet normal 3.60070622207e-08 -6.37909103318e-09 -1.0
outer loop
vertex 16.2951831818 2.87049484253 -0.500000119209
vertex 13.0836448669 3.4303278923 -0.500000238419
vertex 16.3039054871 2.91972827911 -0.500000119209
endloop
endfacet
facet normal 1.81970971624e-08 -1.8807286839e-09 -1.0
outer loop
vertex 9.84188175201 3.77436375618 -0.500000298023
vertex 9.84702205658 3.82409906387 -0.500000298023
vertex 13.0767097473 3.38081121445 -0.500000238419
endloop
endfacet
facet normal 1.81071548866e-08 -2.53602006062e-09 -1.0
outer loop
vertex 13.0767097473 3.38081121445 -0.500000238419
vertex 9.84702205658 3.82409906387 -0.500000298023
vertex 13.0836448669 3.4303278923 -0.500000238419
endloop
endfacet
facet normal -3.57728104916e-08 7.68071828361e-09 1.0
outer loop
vertex 16.2951831818 2.87049484253 -0.440000116825
vertex 19.4930896759 2.24408268929 -0.439999997616
vertex 19.5035858154 2.29296827316 -0.439999997616
endloop
endfacet
facet normal -3.60070764316e-08 6.37909369772e-09 1.0
outer loop
vertex 16.3039054871 2.91972827911 -0.440000116825
vertex 16.2951831818 2.87049484253 -0.440000116825
vertex 19.5035858154 2.29296827316 -0.439999997616
endloop
endfacet
facet normal -2.70202811237e-08 4.78697304018e-09 1.0
outer loop
vertex 13.0767097473 3.38081121445 -0.440000206232
vertex 16.2951831818 2.87049484253 -0.440000116825
vertex 16.3039054871 2.91972827911 -0.440000116825
endloop
endfacet
facet normal -2.71607305535e-08 3.80402953581e-09 1.0
outer loop
vertex 13.0836448669 3.4303278923 -0.440000206232
vertex 13.0767097473 3.38081121445 -0.440000206232
vertex 16.3039054871 2.91972827911 -0.440000116825
endloop
endfacet
facet normal -3.62343861582e-08 5.07485165002e-09 1.0
outer loop
vertex 9.84188175201 3.77436375618 -0.440000325441
vertex 13.0767097473 3.38081121445 -0.440000206232
vertex 13.0836448669 3.4303278923 -0.440000206232
endloop
endfacet
facet normal -3.63740149112e-08 3.75937192487e-09 1.0
outer loop
vertex 9.84702205658 3.82409906387 -0.440000325441
vertex 9.84188175201 3.77436375618 -0.440000325441
vertex 13.0836448669 3.4303278923 -0.440000206232
endloop
endfacet
