solid 
facet normal -0.207014471292 0.978337824345 6.49551452625e-08
outer loop
vertex -19.1857147217 2.36062812805 28.408000946
vertex -19.1857147217 2.36062836647 24.8170013428
vertex -19.2917003632 2.33820199966 24.8170013428
endloop
endfacet
facet normal -0.208183437586 0.978089809418 0.0
outer loop
vertex -19.2917003632 2.33820199966 28.408000946
vertex -19.2917003632 2.33820199966 24.8170013428
vertex -19.3976612091 2.31564855576 24.8170013428
endloop
endfacet
facet normal -0.20701238513 0.978338360786 0.0
outer loop
vertex -19.2917003632 2.33820199966 28.408000946
vertex -19.1857147217 2.36062812805 28.408000946
vertex -19.2917003632 2.33820199966 24.8170013428
endloop
endfacet
facet normal -0.208185553551 0.97808945179 6.4938660671e-08
outer loop
vertex -19.3976612091 2.31564831734 28.408000946
vertex -19.2917003632 2.33820199966 28.408000946
vertex -19.3976612091 2.31564855576 24.8170013428
endloop
endfacet
facet normal -0.20936344564 0.977837860584 6.49219558113e-08
outer loop
vertex -19.5035934448 2.29296731949 28.408000946
vertex -19.3976612091 2.31564855576 24.8170013428
vertex -19.5035934448 2.29296755791 24.8170013428
endloop
endfacet
facet normal -0.20936344564 0.977837860584 6.52363993936e-08
outer loop
vertex -19.5035934448 2.29296731949 28.408000946
vertex -19.3976612091 2.31564831734 28.408000946
vertex -19.3976612091 2.31564855576 24.8170013428
endloop
endfacet
facet normal -0.977709889412 -0.20996055007 -1.39399896071e-08
outer loop
vertex -19.5035934448 2.29296731949 28.408000946
vertex -19.4930953979 2.24408197403 24.8170013428
vertex -19.4930953979 2.24408173561 28.408000946
endloop
endfacet
facet normal -0.977709889412 -0.20996055007 -1.39399896071e-08
outer loop
vertex -19.5035934448 2.29296755791 24.8170013428
vertex -19.4930953979 2.24408197403 24.8170013428
vertex -19.5035934448 2.29296731949 28.408000946
endloop
endfacet
facet normal 0.207013398409 -0.978338122368 0.0
outer loop
vertex -19.1753940582 2.31170511246 24.8170013428
vertex -19.2813205719 2.28929138184 28.408000946
vertex -19.2813205719 2.28929138184 24.8170013428
endloop
endfacet
facet normal 0.208185091615 -0.97808945179 0.0
outer loop
vertex -19.2813205719 2.28929138184 24.8170013428
vertex -19.2813205719 2.28929138184 28.408000946
vertex -19.38722229 2.26675033569 24.8170013428
endloop
endfacet
facet normal 0.207013398409 -0.978338122368 0.0
outer loop
vertex -19.1753940582 2.31170511246 28.408000946
vertex -19.2813205719 2.28929138184 28.408000946
vertex -19.1753940582 2.31170511246 24.8170013428
endloop
endfacet
facet normal 0.209363684058 -0.977837920189 0.0
outer loop
vertex -19.38722229 2.26675033569 24.8170013428
vertex -19.38722229 2.26675033569 28.408000946
vertex -19.4930953979 2.24408197403 24.8170013428
endloop
endfacet
facet normal 0.208185091615 -0.97808945179 0.0
outer loop
vertex -19.2813205719 2.28929138184 28.408000946
vertex -19.38722229 2.26675033569 28.408000946
vertex -19.38722229 2.26675033569 24.8170013428
endloop
endfacet
facet normal 0.209365770221 -0.977837383747 -6.5272800498e-08
outer loop
vertex -19.38722229 2.26675033569 28.408000946
vertex -19.4930953979 2.24408173561 28.408000946
vertex -19.4930953979 2.24408197403 24.8170013428
endloop
endfacet
facet normal 0.978464722633 0.206414192915 0.0
outer loop
vertex -19.1753940582 2.31170511246 28.408000946
vertex -19.1753940582 2.31170511246 24.8170013428
vertex -19.1857147217 2.36062812805 28.408000946
endloop
endfacet
facet normal 0.978464901447 0.206413239241 1.36158266884e-08
outer loop
vertex -19.1753940582 2.31170511246 24.8170013428
vertex -19.1857147217 2.36062836647 24.8170013428
vertex -19.1857147217 2.36062812805 28.408000946
endloop
endfacet
facet normal -0.0 0.0 -1.0
outer loop
vertex -19.38722229 2.26675033569 24.8170013428
vertex -19.4930953979 2.24408197403 24.8170013428
vertex -19.5035934448 2.29296755791 24.8170013428
endloop
endfacet
facet normal 0.0 -0.0 -1.0
outer loop
vertex -19.3976612091 2.31564855576 24.8170013428
vertex -19.38722229 2.26675033569 24.8170013428
vertex -19.5035934448 2.29296755791 24.8170013428
endloop
endfacet
facet normal 0.0 -0.0 -1.0
outer loop
vertex -19.2917003632 2.33820199966 24.8170013428
vertex -19.2813205719 2.28929138184 24.8170013428
vertex -19.38722229 2.26675033569 24.8170013428
endloop
endfacet
facet normal 0.0 0.0 -1.0
outer loop
vertex -19.2917003632 2.33820199966 24.8170013428
vertex -19.38722229 2.26675033569 24.8170013428
vertex -19.3976612091 2.31564855576 24.8170013428
endloop
endfacet
facet normal 0.0 -0.0 -1.0
outer loop
vertex -19.1857147217 2.36062836647 24.8170013428
vertex -19.1753940582 2.31170511246 24.8170013428
vertex -19.2813205719 2.28929138184 24.8170013428
endloop
endfacet
facet normal 0.0 0.0 -1.0
outer loop
vertex -19.1857147217 2.36062836647 24.8170013428
vertex -19.2813205719 2.28929138184 24.8170013428
vertex -19.2917003632 2.33820199966 24.8170013428
endloop
endfacet
facet normal 0.0 0.0 1.0
outer loop
vertex -19.38722229 2.26675033569 28.408000946
vertex -19.3976612091 2.31564831734 28.408000946
vertex -19.4930953979 2.24408173561 28.408000946
endloop
endfacet
facet normal 0.0 -0.0 1.0
outer loop
vertex -19.4930953979 2.24408173561 28.408000946
vertex -19.3976612091 2.31564831734 28.408000946
vertex -19.5035934448 2.29296731949 28.408000946
endloop
endfacet
facet normal 0.0 0.0 1.0
outer loop
vertex -19.2813205719 2.28929138184 28.408000946
vertex -19.2917003632 2.33820199966 28.408000946
vertex -19.38722229 2.26675033569 28.408000946
endloop
endfacet
facet normal 0.0 -0.0 1.0
outer loop
vertex -19.38722229 2.26675033569 28.408000946
vertex -19.2917003632 2.33820199966 28.408000946
vertex -19.3976612091 2.31564831734 28.408000946
endloop
endfacet
facet normal 0.0 0.0 1.0
outer loop
vertex -19.1753940582 2.31170511246 28.408000946
vertex -19.1857147217 2.36062812805 28.408000946
vertex -19.2813205719 2.28929138184 28.408000946
endloop
endfacet
facet normal 0.0 -0.0 1.0
outer loop
vertex -19.2813205719 2.28929138184 28.408000946
vertex -19.1857147217 2.36062812805 28.408000946
vertex -19.2917003632 2.33820199966 28.408000946
endloop
endfacet
