solid 
facet normal -0.207008823752 -0.978339016438 0.0
outer loop
vertex -19.1857242584 -2.3606262207 -69.1490020752
vertex -19.1857242584 -2.3606262207 -65.5579986572
vertex -19.2917118073 -2.33820009232 -65.5579986572
endloop
endfacet
facet normal -0.208189144731 -0.978088617325 0.0
outer loop
vertex -19.2917118073 -2.33820009232 -69.1490020752
vertex -19.2917118073 -2.33820009232 -65.5579986572
vertex -19.3976707458 -2.31564640999 -65.5579986572
endloop
endfacet
facet normal -0.207008823752 -0.978339016438 0.0
outer loop
vertex -19.2917118073 -2.33820009232 -69.1490020752
vertex -19.1857242584 -2.3606262207 -69.1490020752
vertex -19.2917118073 -2.33820009232 -65.5579986572
endloop
endfacet
facet normal -0.209363460541 -0.977837920189 0.0
outer loop
vertex -19.3976707458 -2.31564640999 -69.1490020752
vertex -19.3976707458 -2.31564640999 -65.5579986572
vertex -19.5036029816 -2.29296541214 -65.5579986572
endloop
endfacet
facet normal -0.208189144731 -0.978088617325 0.0
outer loop
vertex -19.3976707458 -2.31564640999 -69.1490020752
vertex -19.2917118073 -2.33820009232 -69.1490020752
vertex -19.3976707458 -2.31564640999 -65.5579986572
endloop
endfacet
facet normal -0.209363460541 -0.977837920189 0.0
outer loop
vertex -19.5036029816 -2.29296541214 -69.1490020752
vertex -19.3976707458 -2.31564640999 -69.1490020752
vertex -19.5036029816 -2.29296541214 -65.5579986572
endloop
endfacet
facet normal -0.977709889412 0.20996055007 0.0
outer loop
vertex -19.5036029816 -2.29296541214 -69.1490020752
vertex -19.4931049347 -2.24407982826 -65.5579986572
vertex -19.4931049347 -2.24407982826 -69.1490020752
endloop
endfacet
facet normal -0.977709889412 0.20996055007 0.0
outer loop
vertex -19.5036029816 -2.29296541214 -65.5579986572
vertex -19.4931049347 -2.24407982826 -65.5579986572
vertex -19.5036029816 -2.29296541214 -69.1490020752
endloop
endfacet
facet normal 0.20700982213 0.978338897228 6.46732800647e-08
outer loop
vertex -19.175403595 -2.31170320511 -65.5579986572
vertex -19.281332016 -2.28928923607 -69.1490020752
vertex -19.281332016 -2.28928947449 -65.5579986572
endloop
endfacet
facet normal 0.208190798759 0.978088259697 6.49385114571e-08
outer loop
vertex -19.281332016 -2.28928947449 -65.5579986572
vertex -19.281332016 -2.28928923607 -69.1490020752
vertex -19.3872318268 -2.26674818993 -65.5579986572
endloop
endfacet
facet normal 0.207011923194 0.978338479996 -0.0
outer loop
vertex -19.175403595 -2.31170320511 -69.1490020752
vertex -19.281332016 -2.28928923607 -69.1490020752
vertex -19.175403595 -2.31170320511 -65.5579986572
endloop
endfacet
facet normal 0.209363669157 0.977837860584 0.0
outer loop
vertex -19.3872318268 -2.26674818993 -65.5579986572
vertex -19.3872318268 -2.26674818993 -69.1490020752
vertex -19.4931049347 -2.24407982826 -65.5579986572
endloop
endfacet
facet normal 0.208188667893 0.978088617325 0.0
outer loop
vertex -19.281332016 -2.28928923607 -69.1490020752
vertex -19.3872318268 -2.26674818993 -69.1490020752
vertex -19.3872318268 -2.26674818993 -65.5579986572
endloop
endfacet
facet normal 0.209363669157 0.977837860584 0.0
outer loop
vertex -19.3872318268 -2.26674818993 -69.1490020752
vertex -19.4931049347 -2.24407982826 -69.1490020752
vertex -19.4931049347 -2.24407982826 -65.5579986572
endloop
endfacet
facet normal 0.978464722633 -0.206414192915 0.0
outer loop
vertex -19.175403595 -2.31170320511 -69.1490020752
vertex -19.175403595 -2.31170320511 -65.5579986572
vertex -19.1857242584 -2.3606262207 -69.1490020752
endloop
endfacet
facet normal 0.978464722633 -0.206414192915 0.0
outer loop
vertex -19.175403595 -2.31170320511 -65.5579986572
vertex -19.1857242584 -2.3606262207 -65.5579986572
vertex -19.1857242584 -2.3606262207 -69.1490020752
endloop
endfacet
facet normal 0.0 -0.0 1.0
outer loop
vertex -19.3976707458 -2.31564640999 -65.5579986572
vertex -19.3872318268 -2.26674818993 -65.5579986572
vertex -19.4931049347 -2.24407982826 -65.5579986572
endloop
endfacet
facet normal 0.0 0.0 1.0
outer loop
vertex -19.3976707458 -2.31564640999 -65.5579986572
vertex -19.4931049347 -2.24407982826 -65.5579986572
vertex -19.5036029816 -2.29296541214 -65.5579986572
endloop
endfacet
facet normal 0.0 -0.0 1.0
outer loop
vertex -19.2917118073 -2.33820009232 -65.5579986572
vertex -19.281332016 -2.28928947449 -65.5579986572
vertex -19.3872318268 -2.26674818993 -65.5579986572
endloop
endfacet
facet normal 0.0 0.0 1.0
outer loop
vertex -19.2917118073 -2.33820009232 -65.5579986572
vertex -19.3872318268 -2.26674818993 -65.5579986572
vertex -19.3976707458 -2.31564640999 -65.5579986572
endloop
endfacet
facet normal 0.0 -0.0 1.0
outer loop
vertex -19.1857242584 -2.3606262207 -65.5579986572
vertex -19.175403595 -2.31170320511 -65.5579986572
vertex -19.281332016 -2.28928947449 -65.5579986572
endloop
endfacet
facet normal 0.0 0.0 1.0
outer loop
vertex -19.1857242584 -2.3606262207 -65.5579986572
vertex -19.281332016 -2.28928947449 -65.5579986572
vertex -19.2917118073 -2.33820009232 -65.5579986572
endloop
endfacet
facet normal -0.0 0.0 -1.0
outer loop
vertex -19.3872318268 -2.26674818993 -69.1490020752
vertex -19.3976707458 -2.31564640999 -69.1490020752
vertex -19.4931049347 -2.24407982826 -69.1490020752
endloop
endfacet
facet normal 0.0 -0.0 -1.0
outer loop
vertex -19.4931049347 -2.24407982826 -69.1490020752
vertex -19.3976707458 -2.31564640999 -69.1490020752
vertex -19.5036029816 -2.29296541214 -69.1490020752
endloop
endfacet
facet normal -0.0 0.0 -1.0
outer loop
vertex -19.281332016 -2.28928923607 -69.1490020752
vertex -19.2917118073 -2.33820009232 -69.1490020752
vertex -19.3872318268 -2.26674818993 -69.1490020752
endloop
endfacet
facet normal 0.0 -0.0 -1.0
outer loop
vertex -19.3872318268 -2.26674818993 -69.1490020752
vertex -19.2917118073 -2.33820009232 -69.1490020752
vertex -19.3976707458 -2.31564640999 -69.1490020752
endloop
endfacet
facet normal -0.0 0.0 -1.0
outer loop
vertex -19.175403595 -2.31170320511 -69.1490020752
vertex -19.1857242584 -2.3606262207 -69.1490020752
vertex -19.281332016 -2.28928923607 -69.1490020752
endloop
endfacet
facet normal 0.0 -0.0 -1.0
outer loop
vertex -19.281332016 -2.28928923607 -69.1490020752
vertex -19.1857242584 -2.3606262207 -69.1490020752
vertex -19.2917118073 -2.33820009232 -69.1490020752
endloop
endfacet
