solid 
facet normal -0.20701238513 0.978338301182 6.46383284675e-08
outer loop
vertex -19.2917118073 2.3381998539 78.9820022583
vertex -19.1857261658 2.36062598228 78.9820022583
vertex -19.1857261658 2.3606262207 75.3909988403
endloop
endfacet
facet normal -0.207014501095 0.978337824345 0.0
outer loop
vertex -19.2917118073 2.3381998539 78.9820022583
vertex -19.1857261658 2.3606262207 75.3909988403
vertex -19.2917118073 2.3381998539 75.3909988403
endloop
endfacet
facet normal -0.208185553551 0.978089392185 0.0
outer loop
vertex -19.3976726532 2.31564617157 78.9820022583
vertex -19.2917118073 2.3381998539 75.3909988403
vertex -19.3976726532 2.31564617157 75.3909988403
endloop
endfacet
facet normal -0.209363460541 0.977837920189 0.0
outer loop
vertex -19.3976726532 2.31564617157 78.9820022583
vertex -19.3976726532 2.31564617157 75.3909988403
vertex -19.5036048889 2.29296517372 75.3909988403
endloop
endfacet
facet normal -0.208185553551 0.978089392185 0.0
outer loop
vertex -19.3976726532 2.31564617157 78.9820022583
vertex -19.2917118073 2.3381998539 78.9820022583
vertex -19.2917118073 2.3381998539 75.3909988403
endloop
endfacet
facet normal -0.209363460541 0.977837920189 0.0
outer loop
vertex -19.5036048889 2.29296517372 78.9820022583
vertex -19.3976726532 2.31564617157 78.9820022583
vertex -19.5036048889 2.29296517372 75.3909988403
endloop
endfacet
facet normal -0.977709889412 -0.20996055007 -0.0
outer loop
vertex -19.5036048889 2.29296517372 78.9820022583
vertex -19.5036048889 2.29296517372 75.3909988403
vertex -19.493106842 2.24407958984 78.9820022583
endloop
endfacet
facet normal -0.977709889412 -0.20996055007 0.0
outer loop
vertex -19.5036048889 2.29296517372 75.3909988403
vertex -19.493106842 2.24407958984 75.3909988403
vertex -19.493106842 2.24407958984 78.9820022583
endloop
endfacet
facet normal 0.207013398409 -0.978338181973 0.0
outer loop
vertex -19.1754055023 2.31170296669 75.3909988403
vertex -19.1754055023 2.31170296669 78.9820022583
vertex -19.281332016 2.28928923607 75.3909988403
endloop
endfacet
facet normal 0.207015499473 -0.978337705135 -6.52732055073e-08
outer loop
vertex -19.1754055023 2.31170296669 78.9820022583
vertex -19.281332016 2.28928899765 78.9820022583
vertex -19.281332016 2.28928923607 75.3909988403
endloop
endfacet
facet normal 0.208185091615 -0.978089511395 -6.46730953235e-08
outer loop
vertex -19.281332016 2.28928923607 75.3909988403
vertex -19.3872337341 2.26674795151 78.9820022583
vertex -19.3872337341 2.26674818993 75.3909988403
endloop
endfacet
facet normal 0.209365740418 -0.977837324142 -6.49218492299e-08
outer loop
vertex -19.3872337341 2.26674818993 75.3909988403
vertex -19.3872337341 2.26674795151 78.9820022583
vertex -19.493106842 2.24407958984 75.3909988403
endloop
endfacet
facet normal 0.208185091615 -0.978089511395 -6.49385896168e-08
outer loop
vertex -19.281332016 2.28928899765 78.9820022583
vertex -19.3872337341 2.26674795151 78.9820022583
vertex -19.281332016 2.28928923607 75.3909988403
endloop
endfacet
facet normal 0.209363669157 -0.977837860584 0.0
outer loop
vertex -19.3872337341 2.26674795151 78.9820022583
vertex -19.493106842 2.24407958984 78.9820022583
vertex -19.493106842 2.24407958984 75.3909988403
endloop
endfacet
facet normal 0.978464722633 0.206414192915 1.36158755382e-08
outer loop
vertex -19.1754055023 2.31170296669 78.9820022583
vertex -19.1857261658 2.3606262207 75.3909988403
vertex -19.1857261658 2.36062598228 78.9820022583
endloop
endfacet
facet normal 0.978464901447 0.206413239241 -0.0
outer loop
vertex -19.1754055023 2.31170296669 75.3909988403
vertex -19.1857261658 2.3606262207 75.3909988403
vertex -19.1754055023 2.31170296669 78.9820022583
endloop
endfacet
facet normal -0.0 0.0 -1.0
outer loop
vertex -19.3872337341 2.26674818993 75.3909988403
vertex -19.493106842 2.24407958984 75.3909988403
vertex -19.5036048889 2.29296517372 75.3909988403
endloop
endfacet
facet normal 0.0 -0.0 -1.0
outer loop
vertex -19.3976726532 2.31564617157 75.3909988403
vertex -19.3872337341 2.26674818993 75.3909988403
vertex -19.5036048889 2.29296517372 75.3909988403
endloop
endfacet
facet normal -0.0 0.0 -1.0
outer loop
vertex -19.281332016 2.28928923607 75.3909988403
vertex -19.3872337341 2.26674818993 75.3909988403
vertex -19.3976726532 2.31564617157 75.3909988403
endloop
endfacet
facet normal 0.0 -0.0 -1.0
outer loop
vertex -19.2917118073 2.3381998539 75.3909988403
vertex -19.281332016 2.28928923607 75.3909988403
vertex -19.3976726532 2.31564617157 75.3909988403
endloop
endfacet
facet normal 0.0 -0.0 -1.0
outer loop
vertex -19.1857261658 2.3606262207 75.3909988403
vertex -19.1754055023 2.31170296669 75.3909988403
vertex -19.281332016 2.28928923607 75.3909988403
endloop
endfacet
facet normal 0.0 0.0 -1.0
outer loop
vertex -19.1857261658 2.3606262207 75.3909988403
vertex -19.281332016 2.28928923607 75.3909988403
vertex -19.2917118073 2.3381998539 75.3909988403
endloop
endfacet
facet normal 0.0 -0.0 1.0
outer loop
vertex -19.493106842 2.24407958984 78.9820022583
vertex -19.3872337341 2.26674795151 78.9820022583
vertex -19.5036048889 2.29296517372 78.9820022583
endloop
endfacet
facet normal 0.0 0.0 1.0
outer loop
vertex -19.3872337341 2.26674795151 78.9820022583
vertex -19.3976726532 2.31564617157 78.9820022583
vertex -19.5036048889 2.29296517372 78.9820022583
endloop
endfacet
facet normal 0.0 -0.0 1.0
outer loop
vertex -19.3872337341 2.26674795151 78.9820022583
vertex -19.281332016 2.28928899765 78.9820022583
vertex -19.3976726532 2.31564617157 78.9820022583
endloop
endfacet
facet normal 0.0 0.0 1.0
outer loop
vertex -19.281332016 2.28928899765 78.9820022583
vertex -19.2917118073 2.3381998539 78.9820022583
vertex -19.3976726532 2.31564617157 78.9820022583
endloop
endfacet
facet normal 0.0 -0.0 1.0
outer loop
vertex -19.281332016 2.28928899765 78.9820022583
vertex -19.1754055023 2.31170296669 78.9820022583
vertex -19.2917118073 2.3381998539 78.9820022583
endloop
endfacet
facet normal 0.0 0.0 1.0
outer loop
vertex -19.1754055023 2.31170296669 78.9820022583
vertex -19.1857261658 2.36062598228 78.9820022583
vertex -19.2917118073 2.3381998539 78.9820022583
endloop
endfacet
