solid 
facet normal -0.00497377850115 0.999987661839 -2.80545621456e-11
outer loop
vertex 0.189760759473 4.30059480667 64.5579986572
vertex 0.0814287662506 4.30005598068 64.5579986572
vertex 0.0814287438989 4.30005598068 68.1490020752
endloop
endfacet
facet normal -0.00497377896681 0.999987661839 -4.12781996084e-11
outer loop
vertex 0.189760759473 4.30059480667 64.5579986572
vertex 0.0814287438989 4.30005598068 68.1490020752
vertex 0.189760729671 4.30059480667 68.1490020752
endloop
endfacet
facet normal -0.00377214886248 0.999992847443 -3.13056768009e-11
outer loop
vertex 0.298093318939 4.30100345612 64.5579986572
vertex 0.189760729671 4.30059480667 68.1490020752
vertex 0.298093289137 4.30100345612 68.1490020752
endloop
endfacet
facet normal -0.00377214886248 0.999992847443 -2.80545621456e-11
outer loop
vertex 0.298093318939 4.30100345612 64.5579986572
vertex 0.189760759473 4.30059480667 64.5579986572
vertex 0.189760729671 4.30059480667 68.1490020752
endloop
endfacet
facet normal -0.00257051945664 0.999996721745 -2.13331609322e-11
outer loop
vertex 0.406426280737 4.30128192902 64.5579986572
vertex 0.298093289137 4.30100345612 68.1490020752
vertex 0.406426250935 4.30128192902 68.1490020752
endloop
endfacet
facet normal -0.00257051945664 0.999996721745 -2.3378804101e-11
outer loop
vertex 0.406426280737 4.30128192902 64.5579986572
vertex 0.298093318939 4.30100345612 64.5579986572
vertex 0.298093289137 4.30100345612 68.1490020752
endloop
endfacet
facet normal 0.999998033047 0.00196874863468 8.29970048244e-09
outer loop
vertex 0.406524717808 4.25128221512 64.5579986572
vertex 0.406426280737 4.30128192902 64.5579986572
vertex 0.406426250935 4.30128192902 68.1490020752
endloop
endfacet
facet normal 0.999998033047 0.00196932605468 2.61500127108e-10
outer loop
vertex 0.406524717808 4.25128221512 64.5579986572
vertex 0.406426250935 4.30128192902 68.1490020752
vertex 0.406524717808 4.25128173828 68.1490020752
endloop
endfacet
facet normal 0.00497213611379 -0.999987661839 -1.32743693371e-07
outer loop
vertex 0.0817075148225 4.25005674362 68.1490020752
vertex 0.189979419112 4.25059556961 64.5579986572
vertex 0.18997938931 4.25059509277 68.1490020752
endloop
endfacet
facet normal 0.00497653987259 -0.999987661839 3.09758364792e-11
outer loop
vertex 0.0817075371742 4.25005674362 64.5579986572
vertex 0.189979419112 4.25059556961 64.5579986572
vertex 0.0817075148225 4.25005674362 68.1490020752
endloop
endfacet
facet normal 0.00377424317412 -0.999992847443 2.80701382277e-11
outer loop
vertex 0.18997938931 4.25059509277 68.1490020752
vertex 0.298251867294 4.25100374222 64.5579986572
vertex 0.298251837492 4.25100374222 68.1490020752
endloop
endfacet
facet normal 0.0037698391825 -0.999992966652 -1.32754379933e-07
outer loop
vertex 0.189979419112 4.25059556961 64.5579986572
vertex 0.298251867294 4.25100374222 64.5579986572
vertex 0.18997938931 4.25059509277 68.1490020752
endloop
endfacet
facet normal 0.00256754178554 -0.999996721745 -1.32785771711e-07
outer loop
vertex 0.298251837492 4.25100374222 68.1490020752
vertex 0.406524717808 4.25128221512 64.5579986572
vertex 0.406524717808 4.25128173828 68.1490020752
endloop
endfacet
facet normal 0.00257194647565 -0.999996721745 2.13450021547e-11
outer loop
vertex 0.298251867294 4.25100374222 64.5579986572
vertex 0.406524717808 4.25128221512 64.5579986572
vertex 0.298251837492 4.25100374222 68.1490020752
endloop
endfacet
facet normal -0.999984502792 -0.00557541707531 -6.22538376405e-09
outer loop
vertex 0.0814287662506 4.30005598068 64.5579986572
vertex 0.0817075371742 4.25005674362 64.5579986572
vertex 0.0817075148225 4.25005674362 68.1490020752
endloop
endfacet
facet normal -0.999984502792 -0.00557541660964 -6.22427576147e-09
outer loop
vertex 0.0814287662506 4.30005598068 64.5579986572
vertex 0.0817075148225 4.25005674362 68.1490020752
vertex 0.0814287438989 4.30005598068 68.1490020752
endloop
endfacet
facet normal -0.0 0.0 -1.0
outer loop
vertex 0.406524717808 4.25128221512 64.5579986572
vertex 0.298251867294 4.25100374222 64.5579986572
vertex 0.406426280737 4.30128192902 64.5579986572
endloop
endfacet
facet normal 0.0 0.0 -1.0
outer loop
vertex 0.298251867294 4.25100374222 64.5579986572
vertex 0.298093318939 4.30100345612 64.5579986572
vertex 0.406426280737 4.30128192902 64.5579986572
endloop
endfacet
facet normal -0.0 0.0 -1.0
outer loop
vertex 0.298251867294 4.25100374222 64.5579986572
vertex 0.189979419112 4.25059556961 64.5579986572
vertex 0.298093318939 4.30100345612 64.5579986572
endloop
endfacet
facet normal 0.0 0.0 -1.0
outer loop
vertex 0.189979419112 4.25059556961 64.5579986572
vertex 0.189760759473 4.30059480667 64.5579986572
vertex 0.298093318939 4.30100345612 64.5579986572
endloop
endfacet
facet normal -0.0 0.0 -1.0
outer loop
vertex 0.189979419112 4.25059556961 64.5579986572
vertex 0.0817075371742 4.25005674362 64.5579986572
vertex 0.189760759473 4.30059480667 64.5579986572
endloop
endfacet
facet normal 0.0 0.0 -1.0
outer loop
vertex 0.0817075371742 4.25005674362 64.5579986572
vertex 0.0814287662506 4.30005598068 64.5579986572
vertex 0.189760759473 4.30059480667 64.5579986572
endloop
endfacet
facet normal 0.0 0.0 1.0
outer loop
vertex 0.298251837492 4.25100374222 68.1490020752
vertex 0.406524717808 4.25128173828 68.1490020752
vertex 0.406426250935 4.30128192902 68.1490020752
endloop
endfacet
facet normal -0.0 0.0 1.0
outer loop
vertex 0.298093289137 4.30100345612 68.1490020752
vertex 0.298251837492 4.25100374222 68.1490020752
vertex 0.406426250935 4.30128192902 68.1490020752
endloop
endfacet
facet normal 0.0 0.0 1.0
outer loop
vertex 0.18997938931 4.25059509277 68.1490020752
vertex 0.298251837492 4.25100374222 68.1490020752
vertex 0.298093289137 4.30100345612 68.1490020752
endloop
endfacet
facet normal -0.0 0.0 1.0
outer loop
vertex 0.189760729671 4.30059480667 68.1490020752
vertex 0.18997938931 4.25059509277 68.1490020752
vertex 0.298093289137 4.30100345612 68.1490020752
endloop
endfacet
facet normal 0.0 0.0 1.0
outer loop
vertex 0.0817075148225 4.25005674362 68.1490020752
vertex 0.18997938931 4.25059509277 68.1490020752
vertex 0.189760729671 4.30059480667 68.1490020752
endloop
endfacet
facet normal -0.0 0.0 1.0
outer loop
vertex 0.0814287438989 4.30005598068 68.1490020752
vertex 0.0817075148225 4.25005674362 68.1490020752
vertex 0.189760729671 4.30059480667 68.1490020752
endloop
endfacet
