solid 
facet normal -0.00497377896681 0.999987661839 -2.8054685311e-11
outer loop
vertex 0.189755022526 4.30059432983 -206.274993896
vertex 0.0814230367541 4.30005550385 -206.274993896
vertex 0.0814230144024 4.30005550385 -202.684005737
endloop
endfacet
facet normal -0.00497377850115 0.999987661839 -2.06391882751e-11
outer loop
vertex 0.189755022526 4.30059432983 -206.274993896
vertex 0.0814230144024 4.30005550385 -202.684005737
vertex 0.189755007625 4.30059432983 -202.684005737
endloop
endfacet
facet normal -0.00377214862965 0.999992847443 1.32786226459e-07
outer loop
vertex 0.298087567091 4.30100345612 -206.274993896
vertex 0.189755007625 4.30059432983 -202.684005737
vertex 0.298087567091 4.30100297928 -202.684005737
endloop
endfacet
facet normal -0.00377655075863 0.999992847443 -9.35156205945e-12
outer loop
vertex 0.298087567091 4.30100345612 -206.274993896
vertex 0.189755022526 4.30059432983 -206.274993896
vertex 0.189755007625 4.30059432983 -202.684005737
endloop
endfacet
facet normal -0.00257051968947 0.999996721745 -2.13332511378e-11
outer loop
vertex 0.406420558691 4.30128145218 -206.274993896
vertex 0.298087567091 4.30100297928 -202.684005737
vertex 0.406420528889 4.30128145218 -202.684005737
endloop
endfacet
facet normal -0.00256611709483 0.999996721745 1.32787462803e-07
outer loop
vertex 0.406420558691 4.30128145218 -206.274993896
vertex 0.298087567091 4.30100345612 -206.274993896
vertex 0.298087567091 4.30100297928 -202.684005737
endloop
endfacet
facet normal 0.999998033047 0.00196874886751 8.29973600958e-09
outer loop
vertex 0.406518995762 4.25128173828 -206.274993896
vertex 0.406420558691 4.30128145218 -206.274993896
vertex 0.406420528889 4.30128145218 -202.684005737
endloop
endfacet
facet normal 0.999998033047 0.00196874886751 8.29918178624e-09
outer loop
vertex 0.406518995762 4.25128173828 -206.274993896
vertex 0.406420528889 4.30128145218 -202.684005737
vertex 0.40651896596 4.25128173828 -202.684005737
endloop
endfacet
facet normal 0.00497653987259 -0.999987602234 2.06506461237e-11
outer loop
vertex 0.0817017927766 4.25005626678 -202.684005737
vertex 0.0817018076777 4.25005626678 -206.274993896
vertex 0.189973667264 4.25059509277 -202.684005737
endloop
endfacet
facet normal 0.00497653987259 -0.999987602234 2.80702579236e-11
outer loop
vertex 0.0817018076777 4.25005626678 -206.274993896
vertex 0.189973682165 4.25059509277 -206.274993896
vertex 0.189973667264 4.25059509277 -202.684005737
endloop
endfacet
facet normal 0.00376983871683 -0.999992847443 3.74270094083e-11
outer loop
vertex 0.189973667264 4.25059509277 -202.684005737
vertex 0.298246145248 4.25100326538 -206.274993896
vertex 0.298246115446 4.25100326538 -202.684005737
endloop
endfacet
facet normal 0.00376983871683 -0.999992966652 1.56433199727e-11
outer loop
vertex 0.189973682165 4.25059509277 -206.274993896
vertex 0.298246145248 4.25100326538 -206.274993896
vertex 0.189973667264 4.25059509277 -202.684005737
endloop
endfacet
facet normal 0.00257194670849 -0.999996721745 1.87135064389e-11
outer loop
vertex 0.298246115446 4.25100326538 -202.684005737
vertex 0.406518995762 4.25128173828 -206.274993896
vertex 0.40651896596 4.25128173828 -202.684005737
endloop
endfacet
facet normal 0.00257194670849 -0.999996721745 2.1345094095e-11
outer loop
vertex 0.298246145248 4.25100326538 -206.274993896
vertex 0.406518995762 4.25128173828 -206.274993896
vertex 0.298246115446 4.25100326538 -202.684005737
endloop
endfacet
facet normal -0.999984383583 -0.0055755651556 -4.14953449379e-09
outer loop
vertex 0.0817018076777 4.25005626678 -206.274993896
vertex 0.0817017927766 4.25005626678 -202.684005737
vertex 0.0814230144024 4.30005550385 -202.684005737
endloop
endfacet
facet normal -0.999984383583 -0.00557541614398 -6.22430151864e-09
outer loop
vertex 0.0814230367541 4.30005550385 -206.274993896
vertex 0.0817018076777 4.25005626678 -206.274993896
vertex 0.0814230144024 4.30005550385 -202.684005737
endloop
endfacet
facet normal -0.0 0.0 -1.0
outer loop
vertex 0.406518995762 4.25128173828 -206.274993896
vertex 0.298246145248 4.25100326538 -206.274993896
vertex 0.406420558691 4.30128145218 -206.274993896
endloop
endfacet
facet normal 0.0 0.0 -1.0
outer loop
vertex 0.298246145248 4.25100326538 -206.274993896
vertex 0.298087567091 4.30100345612 -206.274993896
vertex 0.406420558691 4.30128145218 -206.274993896
endloop
endfacet
facet normal 0.0 0.0 -1.0
outer loop
vertex 0.189973682165 4.25059509277 -206.274993896
vertex 0.189755022526 4.30059432983 -206.274993896
vertex 0.298246145248 4.25100326538 -206.274993896
endloop
endfacet
facet normal 0.0 0.0 -1.0
outer loop
vertex 0.298246145248 4.25100326538 -206.274993896
vertex 0.189755022526 4.30059432983 -206.274993896
vertex 0.298087567091 4.30100345612 -206.274993896
endloop
endfacet
facet normal 0.0 0.0 -1.0
outer loop
vertex 0.0817018076777 4.25005626678 -206.274993896
vertex 0.0814230367541 4.30005550385 -206.274993896
vertex 0.189973682165 4.25059509277 -206.274993896
endloop
endfacet
facet normal 0.0 0.0 -1.0
outer loop
vertex 0.189973682165 4.25059509277 -206.274993896
vertex 0.0814230367541 4.30005550385 -206.274993896
vertex 0.189755022526 4.30059432983 -206.274993896
endloop
endfacet
facet normal 0.0 0.0 1.0
outer loop
vertex 0.298246115446 4.25100326538 -202.684005737
vertex 0.40651896596 4.25128173828 -202.684005737
vertex 0.406420528889 4.30128145218 -202.684005737
endloop
endfacet
facet normal -0.0 0.0 1.0
outer loop
vertex 0.298087567091 4.30100297928 -202.684005737
vertex 0.298246115446 4.25100326538 -202.684005737
vertex 0.406420528889 4.30128145218 -202.684005737
endloop
endfacet
facet normal 0.0 0.0 1.0
outer loop
vertex 0.189755007625 4.30059432983 -202.684005737
vertex 0.189973667264 4.25059509277 -202.684005737
vertex 0.298246115446 4.25100326538 -202.684005737
endloop
endfacet
facet normal -0.0 0.0 1.0
outer loop
vertex 0.189755007625 4.30059432983 -202.684005737
vertex 0.298246115446 4.25100326538 -202.684005737
vertex 0.298087567091 4.30100297928 -202.684005737
endloop
endfacet
facet normal 0.0 0.0 1.0
outer loop
vertex 0.0814230144024 4.30005550385 -202.684005737
vertex 0.0817017927766 4.25005626678 -202.684005737
vertex 0.189973667264 4.25059509277 -202.684005737
endloop
endfacet
facet normal -0.0 0.0 1.0
outer loop
vertex 0.0814230144024 4.30005550385 -202.684005737
vertex 0.189973667264 4.25059509277 -202.684005737
vertex 0.189755007625 4.30059432983 -202.684005737
endloop
endfacet
