solid 
facet normal -0.207012400031 0.978338360786 6.46386055791e-08
outer loop
vertex -19.2917232513 2.33819651604 -134.095001221
vertex -19.1857376099 2.36062264442 -134.095001221
vertex -19.1857376099 2.36062288284 -137.68598938
endloop
endfacet
facet normal -0.207012400031 0.978338360786 6.49553939525e-08
outer loop
vertex -19.2917232513 2.33819651604 -134.095001221
vertex -19.1857376099 2.36062288284 -137.68598938
vertex -19.2917232513 2.33819675446 -137.68598938
endloop
endfacet
facet normal -0.208185568452 0.978089332581 6.4938859623e-08
outer loop
vertex -19.2917232513 2.33819651604 -134.095001221
vertex -19.2917232513 2.33819675446 -137.68598938
vertex -19.3976840973 2.31564307213 -137.68598938
endloop
endfacet
facet normal -0.209363490343 0.977837979794 1.76125297457e-07
outer loop
vertex -19.3976821899 2.31564283371 -134.095001221
vertex -19.3976840973 2.31564307213 -137.68598938
vertex -19.503616333 2.29296207428 -137.68598938
endloop
endfacet
facet normal -0.208189114928 0.978088498116 1.75518167111e-07
outer loop
vertex -19.3976821899 2.31564283371 -134.095001221
vertex -19.2917232513 2.33819651604 -134.095001221
vertex -19.3976840973 2.31564307213 -137.68598938
endloop
endfacet
facet normal -0.20935985446 0.977838695049 6.49222187121e-08
outer loop
vertex -19.503616333 2.29296183586 -134.095001221
vertex -19.3976821899 2.31564283371 -134.095001221
vertex -19.503616333 2.29296207428 -137.68598938
endloop
endfacet
facet normal -0.977709889412 -0.20996055007 -1.3940034016e-08
outer loop
vertex -19.503616333 2.29296183586 -134.095001221
vertex -19.503616333 2.29296207428 -137.68598938
vertex -19.4931182861 2.24407625198 -134.095001221
endloop
endfacet
facet normal -0.977709889412 -0.20996055007 -1.3940034016e-08
outer loop
vertex -19.503616333 2.29296207428 -137.68598938
vertex -19.4931182861 2.2440764904 -137.68598938
vertex -19.4931182861 2.24407625198 -134.095001221
endloop
endfacet
facet normal 0.207011938095 -0.978338420391 -6.49554010579e-08
outer loop
vertex -19.1754150391 2.31169986725 -137.68598938
vertex -19.1754150391 2.31169962883 -134.095001221
vertex -19.2813434601 2.28928589821 -137.68598938
endloop
endfacet
facet normal 0.20700982213 -0.978338897228 0.0
outer loop
vertex -19.1754150391 2.31169962883 -134.095001221
vertex -19.2813434601 2.28928589821 -134.095001221
vertex -19.2813434601 2.28928589821 -137.68598938
endloop
endfacet
facet normal 0.208185091615 -0.97808945179 -6.46733724352e-08
outer loop
vertex -19.2813434601 2.28928589821 -137.68598938
vertex -19.3872451782 2.26674461365 -134.095001221
vertex -19.3872451782 2.26674485207 -137.68598938
endloop
endfacet
facet normal 0.209363639355 -0.97783780098 -6.49221547633e-08
outer loop
vertex -19.3872451782 2.26674485207 -137.68598938
vertex -19.3872451782 2.26674461365 -134.095001221
vertex -19.4931182861 2.2440764904 -137.68598938
endloop
endfacet
facet normal 0.20818720758 -0.978089034557 0.0
outer loop
vertex -19.2813434601 2.28928589821 -134.095001221
vertex -19.3872451782 2.26674461365 -134.095001221
vertex -19.2813434601 2.28928589821 -137.68598938
endloop
endfacet
facet normal 0.209363639355 -0.97783780098 -6.46741966648e-08
outer loop
vertex -19.3872451782 2.26674461365 -134.095001221
vertex -19.4931182861 2.24407625198 -134.095001221
vertex -19.4931182861 2.2440764904 -137.68598938
endloop
endfacet
facet normal 0.978456914425 0.20645070076 1.36158258002e-08
outer loop
vertex -19.1754150391 2.31169962883 -134.095001221
vertex -19.1857376099 2.36062288284 -137.68598938
vertex -19.1857376099 2.36062264442 -134.095001221
endloop
endfacet
facet normal 0.978456914425 0.20645070076 1.3707002644e-08
outer loop
vertex -19.1754150391 2.31169986725 -137.68598938
vertex -19.1857376099 2.36062288284 -137.68598938
vertex -19.1754150391 2.31169962883 -134.095001221
endloop
endfacet
facet normal -0.0 0.0 -1.0
outer loop
vertex -19.3872451782 2.26674485207 -137.68598938
vertex -19.4931182861 2.2440764904 -137.68598938
vertex -19.503616333 2.29296207428 -137.68598938
endloop
endfacet
facet normal 0.0 -0.0 -1.0
outer loop
vertex -19.3976840973 2.31564307213 -137.68598938
vertex -19.3872451782 2.26674485207 -137.68598938
vertex -19.503616333 2.29296207428 -137.68598938
endloop
endfacet
facet normal 0.0 -0.0 -1.0
outer loop
vertex -19.2917232513 2.33819675446 -137.68598938
vertex -19.2813434601 2.28928589821 -137.68598938
vertex -19.3872451782 2.26674485207 -137.68598938
endloop
endfacet
facet normal 0.0 0.0 -1.0
outer loop
vertex -19.2917232513 2.33819675446 -137.68598938
vertex -19.3872451782 2.26674485207 -137.68598938
vertex -19.3976840973 2.31564307213 -137.68598938
endloop
endfacet
facet normal 0.0 -0.0 -1.0
outer loop
vertex -19.1857376099 2.36062288284 -137.68598938
vertex -19.1754150391 2.31169986725 -137.68598938
vertex -19.2813434601 2.28928589821 -137.68598938
endloop
endfacet
facet normal 0.0 0.0 -1.0
outer loop
vertex -19.1857376099 2.36062288284 -137.68598938
vertex -19.2813434601 2.28928589821 -137.68598938
vertex -19.2917232513 2.33819675446 -137.68598938
endloop
endfacet
facet normal 0.0 0.0 1.0
outer loop
vertex -19.3872451782 2.26674461365 -134.095001221
vertex -19.3976821899 2.31564283371 -134.095001221
vertex -19.4931182861 2.24407625198 -134.095001221
endloop
endfacet
facet normal 0.0 -0.0 1.0
outer loop
vertex -19.4931182861 2.24407625198 -134.095001221
vertex -19.3976821899 2.31564283371 -134.095001221
vertex -19.503616333 2.29296183586 -134.095001221
endloop
endfacet
facet normal 0.0 0.0 1.0
outer loop
vertex -19.2813434601 2.28928589821 -134.095001221
vertex -19.2917232513 2.33819651604 -134.095001221
vertex -19.3872451782 2.26674461365 -134.095001221
endloop
endfacet
facet normal 0.0 -0.0 1.0
outer loop
vertex -19.3872451782 2.26674461365 -134.095001221
vertex -19.2917232513 2.33819651604 -134.095001221
vertex -19.3976821899 2.31564283371 -134.095001221
endloop
endfacet
facet normal 0.0 0.0 1.0
outer loop
vertex -19.1754150391 2.31169962883 -134.095001221
vertex -19.1857376099 2.36062264442 -134.095001221
vertex -19.2813434601 2.28928589821 -134.095001221
endloop
endfacet
facet normal 0.0 -0.0 1.0
outer loop
vertex -19.2813434601 2.28928589821 -134.095001221
vertex -19.1857376099 2.36062264442 -134.095001221
vertex -19.2917232513 2.33819651604 -134.095001221
endloop
endfacet
