solid 
facet normal 0.207008808851 0.978339076042 0.0
outer loop
vertex 19.2917060852 2.33820128441 42.8920021057
vertex 19.1857185364 2.3606274128 42.8920021057
vertex 19.1857185364 2.3606274128 46.483001709
endloop
endfacet
facet normal 0.207008808851 0.978339076042 -0.0
outer loop
vertex 19.2917060852 2.33820128441 42.8920021057
vertex 19.1857185364 2.3606274128 46.483001709
vertex 19.2917060852 2.33820128441 46.483001709
endloop
endfacet
facet normal 0.208189129829 0.978088617325 -0.0
outer loop
vertex 19.3976650238 2.31564760208 42.8920021057
vertex 19.2917060852 2.33820128441 46.483001709
vertex 19.3976650238 2.31564760208 46.483001709
endloop
endfacet
facet normal 0.20936344564 0.977837860584 -0.0
outer loop
vertex 19.3976650238 2.31564760208 42.8920021057
vertex 19.3976650238 2.31564760208 46.483001709
vertex 19.5035972595 2.29296660423 46.483001709
endloop
endfacet
facet normal 0.208189129829 0.978088617325 0.0
outer loop
vertex 19.3976650238 2.31564760208 42.8920021057
vertex 19.2917060852 2.33820128441 42.8920021057
vertex 19.2917060852 2.33820128441 46.483001709
endloop
endfacet
facet normal 0.20936344564 0.977837860584 -0.0
outer loop
vertex 19.5035972595 2.29296660423 42.8920021057
vertex 19.3976650238 2.31564760208 42.8920021057
vertex 19.5035972595 2.29296660423 46.483001709
endloop
endfacet
facet normal 0.977717638016 -0.209924086928 0.0
outer loop
vertex 19.49310112 2.24408102036 42.8920021057
vertex 19.5035972595 2.29296660423 42.8920021057
vertex 19.5035972595 2.29296660423 46.483001709
endloop
endfacet
facet normal 0.977717638016 -0.209924086928 0.0
outer loop
vertex 19.49310112 2.24408102036 42.8920021057
vertex 19.5035972595 2.29296660423 46.483001709
vertex 19.49310112 2.24408102036 46.483001709
endloop
endfacet
facet normal -0.207011923194 -0.978338360786 -0.0
outer loop
vertex 19.1753978729 2.3117043972 46.483001709
vertex 19.1753978729 2.3117043972 42.8920021057
vertex 19.2813262939 2.28929042816 46.483001709
endloop
endfacet
facet normal -0.207009837031 -0.978338897228 -6.46733511189e-08
outer loop
vertex 19.1753978729 2.3117043972 42.8920021057
vertex 19.2813262939 2.28929066658 42.8920021057
vertex 19.2813262939 2.28929042816 46.483001709
endloop
endfacet
facet normal -0.208188682795 -0.978088676929 0.0
outer loop
vertex 19.2813262939 2.28929042816 46.483001709
vertex 19.3872261047 2.26674938202 42.8920021057
vertex 19.3872261047 2.26674938202 46.483001709
endloop
endfacet
facet normal -0.209360063076 -0.97783857584 -0.0
outer loop
vertex 19.3872261047 2.26674938202 46.483001709
vertex 19.3872261047 2.26674938202 42.8920021057
vertex 19.49310112 2.24408102036 46.483001709
endloop
endfacet
facet normal -0.208190768957 -0.978088200092 -6.49385754059e-08
outer loop
vertex 19.2813262939 2.28929066658 42.8920021057
vertex 19.3872261047 2.26674938202 42.8920021057
vertex 19.2813262939 2.28929042816 46.483001709
endloop
endfacet
facet normal -0.209360063076 -0.97783857584 0.0
outer loop
vertex 19.3872261047 2.26674938202 42.8920021057
vertex 19.49310112 2.24408102036 42.8920021057
vertex 19.49310112 2.24408102036 46.483001709
endloop
endfacet
facet normal -0.978464722633 0.206414192915 0.0
outer loop
vertex 19.1753978729 2.3117043972 42.8920021057
vertex 19.1753978729 2.3117043972 46.483001709
vertex 19.1857185364 2.3606274128 46.483001709
endloop
endfacet
facet normal -0.978464722633 0.206414192915 0.0
outer loop
vertex 19.1857185364 2.3606274128 42.8920021057
vertex 19.1753978729 2.3117043972 42.8920021057
vertex 19.1857185364 2.3606274128 46.483001709
endloop
endfacet
facet normal 0.0 0.0 -1.0
outer loop
vertex 19.3872261047 2.26674938202 42.8920021057
vertex 19.3976650238 2.31564760208 42.8920021057
vertex 19.49310112 2.24408102036 42.8920021057
endloop
endfacet
facet normal 0.0 0.0 -1.0
outer loop
vertex 19.49310112 2.24408102036 42.8920021057
vertex 19.3976650238 2.31564760208 42.8920021057
vertex 19.5035972595 2.29296660423 42.8920021057
endloop
endfacet
facet normal 0.0 0.0 -1.0
outer loop
vertex 19.2813262939 2.28929066658 42.8920021057
vertex 19.2917060852 2.33820128441 42.8920021057
vertex 19.3872261047 2.26674938202 42.8920021057
endloop
endfacet
facet normal 0.0 0.0 -1.0
outer loop
vertex 19.3872261047 2.26674938202 42.8920021057
vertex 19.2917060852 2.33820128441 42.8920021057
vertex 19.3976650238 2.31564760208 42.8920021057
endloop
endfacet
facet normal 0.0 0.0 -1.0
outer loop
vertex 19.1753978729 2.3117043972 42.8920021057
vertex 19.1857185364 2.3606274128 42.8920021057
vertex 19.2813262939 2.28929066658 42.8920021057
endloop
endfacet
facet normal 0.0 0.0 -1.0
outer loop
vertex 19.2813262939 2.28929066658 42.8920021057
vertex 19.1857185364 2.3606274128 42.8920021057
vertex 19.2917060852 2.33820128441 42.8920021057
endloop
endfacet
facet normal -0.0 0.0 1.0
outer loop
vertex 19.3872261047 2.26674938202 46.483001709
vertex 19.49310112 2.24408102036 46.483001709
vertex 19.5035972595 2.29296660423 46.483001709
endloop
endfacet
facet normal 0.0 0.0 1.0
outer loop
vertex 19.3976650238 2.31564760208 46.483001709
vertex 19.3872261047 2.26674938202 46.483001709
vertex 19.5035972595 2.29296660423 46.483001709
endloop
endfacet
facet normal 0.0 0.0 1.0
outer loop
vertex 19.2917060852 2.33820128441 46.483001709
vertex 19.2813262939 2.28929042816 46.483001709
vertex 19.3872261047 2.26674938202 46.483001709
endloop
endfacet
facet normal 0.0 0.0 1.0
outer loop
vertex 19.2917060852 2.33820128441 46.483001709
vertex 19.3872261047 2.26674938202 46.483001709
vertex 19.3976650238 2.31564760208 46.483001709
endloop
endfacet
facet normal 0.0 0.0 1.0
outer loop
vertex 19.1857185364 2.3606274128 46.483001709
vertex 19.1753978729 2.3117043972 46.483001709
vertex 19.2813262939 2.28929042816 46.483001709
endloop
endfacet
facet normal 0.0 0.0 1.0
outer loop
vertex 19.1857185364 2.3606274128 46.483001709
vertex 19.2813262939 2.28929042816 46.483001709
vertex 19.2917060852 2.33820128441 46.483001709
endloop
endfacet
