solid 
facet normal -0.00497817946598 0.999987602234 0.0
outer loop
vertex 0.189744979143 4.300593853 -246.01600647
vertex 0.0814129859209 4.30005455017 -246.01600647
vertex 0.0814129859209 4.30005455017 -242.425003052
endloop
endfacet
facet normal -0.00497817946598 0.999987602234 0.0
outer loop
vertex 0.189744979143 4.300593853 -246.01600647
vertex 0.0814129859209 4.30005455017 -242.425003052
vertex 0.189744979143 4.300593853 -242.425003052
endloop
endfacet
facet normal -0.00377214956097 0.999992847443 0.0
outer loop
vertex 0.298077523708 4.30100250244 -246.01600647
vertex 0.189744979143 4.300593853 -242.425003052
vertex 0.298077523708 4.30100250244 -242.425003052
endloop
endfacet
facet normal -0.00257051945664 0.999996721745 0.0
outer loop
vertex 0.298077523708 4.30100250244 -246.01600647
vertex 0.298077523708 4.30100250244 -242.425003052
vertex 0.406410485506 4.30128097534 -242.425003052
endloop
endfacet
facet normal -0.00377214956097 0.999992847443 0.0
outer loop
vertex 0.298077523708 4.30100250244 -246.01600647
vertex 0.189744979143 4.300593853 -246.01600647
vertex 0.189744979143 4.300593853 -242.425003052
endloop
endfacet
facet normal -0.00257051945664 0.999996721745 0.0
outer loop
vertex 0.406410485506 4.30128097534 -246.01600647
vertex 0.298077523708 4.30100250244 -246.01600647
vertex 0.406410485506 4.30128097534 -242.425003052
endloop
endfacet
facet normal 0.999998033047 0.00196932605468 0.0
outer loop
vertex 0.406508952379 4.25128078461 -246.01600647
vertex 0.406410485506 4.30128097534 -246.01600647
vertex 0.406410485506 4.30128097534 -242.425003052
endloop
endfacet
facet normal 0.999998033047 0.00196932605468 -0.0
outer loop
vertex 0.406508952379 4.25128078461 -246.01600647
vertex 0.406410485506 4.30128097534 -242.425003052
vertex 0.406508952379 4.25128078461 -242.425003052
endloop
endfacet
facet normal 0.00497653940693 -0.999987661839 0.0
outer loop
vertex 0.0816917642951 4.25005531311 -242.425003052
vertex 0.189963653684 4.2505941391 -246.01600647
vertex 0.189963653684 4.2505941391 -242.425003052
endloop
endfacet
facet normal 0.00377424317412 -0.999992847443 0.0
outer loop
vertex 0.189963653684 4.2505941391 -242.425003052
vertex 0.189963653684 4.2505941391 -246.01600647
vertex 0.298236101866 4.25100278854 -242.425003052
endloop
endfacet
facet normal 0.00497213564813 -0.999987661839 -1.32784961693e-07
outer loop
vertex 0.0816917642951 4.25005578995 -246.01600647
vertex 0.189963653684 4.2505941391 -246.01600647
vertex 0.0816917642951 4.25005531311 -242.425003052
endloop
endfacet
facet normal 0.0025675422512 -0.999996721745 0.0
outer loop
vertex 0.298236101866 4.25100278854 -242.425003052
vertex 0.298236101866 4.25100278854 -246.01600647
vertex 0.406508952379 4.25128078461 -242.425003052
endloop
endfacet
facet normal 0.00377424317412 -0.999992847443 0.0
outer loop
vertex 0.189963653684 4.2505941391 -246.01600647
vertex 0.298236101866 4.25100278854 -246.01600647
vertex 0.298236101866 4.25100278854 -242.425003052
endloop
endfacet
facet normal 0.0025675422512 -0.999996721745 0.0
outer loop
vertex 0.298236101866 4.25100278854 -246.01600647
vertex 0.406508952379 4.25128078461 -246.01600647
vertex 0.406508952379 4.25128078461 -242.425003052
endloop
endfacet
facet normal -0.999984502792 -0.00557556608692 -7.40360495133e-10
outer loop
vertex 0.0816917642951 4.25005578995 -246.01600647
vertex 0.0816917642951 4.25005531311 -242.425003052
vertex 0.0814129859209 4.30005455017 -242.425003052
endloop
endfacet
facet normal -0.999984383583 -0.0055756191723 0.0
outer loop
vertex 0.0814129859209 4.30005455017 -246.01600647
vertex 0.0816917642951 4.25005578995 -246.01600647
vertex 0.0814129859209 4.30005455017 -242.425003052
endloop
endfacet
facet normal -0.0 0.0 -1.0
outer loop
vertex 0.406508952379 4.25128078461 -246.01600647
vertex 0.298236101866 4.25100278854 -246.01600647
vertex 0.406410485506 4.30128097534 -246.01600647
endloop
endfacet
facet normal 0.0 0.0 -1.0
outer loop
vertex 0.298236101866 4.25100278854 -246.01600647
vertex 0.298077523708 4.30100250244 -246.01600647
vertex 0.406410485506 4.30128097534 -246.01600647
endloop
endfacet
facet normal 0.0 0.0 -1.0
outer loop
vertex 0.189963653684 4.2505941391 -246.01600647
vertex 0.189744979143 4.300593853 -246.01600647
vertex 0.298236101866 4.25100278854 -246.01600647
endloop
endfacet
facet normal 0.0 0.0 -1.0
outer loop
vertex 0.298236101866 4.25100278854 -246.01600647
vertex 0.189744979143 4.300593853 -246.01600647
vertex 0.298077523708 4.30100250244 -246.01600647
endloop
endfacet
facet normal 0.0 0.0 -1.0
outer loop
vertex 0.0816917642951 4.25005578995 -246.01600647
vertex 0.0814129859209 4.30005455017 -246.01600647
vertex 0.189963653684 4.2505941391 -246.01600647
endloop
endfacet
facet normal 0.0 0.0 -1.0
outer loop
vertex 0.189963653684 4.2505941391 -246.01600647
vertex 0.0814129859209 4.30005455017 -246.01600647
vertex 0.189744979143 4.300593853 -246.01600647
endloop
endfacet
facet normal 0.0 0.0 1.0
outer loop
vertex 0.298236101866 4.25100278854 -242.425003052
vertex 0.406508952379 4.25128078461 -242.425003052
vertex 0.406410485506 4.30128097534 -242.425003052
endloop
endfacet
facet normal -0.0 0.0 1.0
outer loop
vertex 0.298077523708 4.30100250244 -242.425003052
vertex 0.298236101866 4.25100278854 -242.425003052
vertex 0.406410485506 4.30128097534 -242.425003052
endloop
endfacet
facet normal 0.0 0.0 1.0
outer loop
vertex 0.189744979143 4.300593853 -242.425003052
vertex 0.189963653684 4.2505941391 -242.425003052
vertex 0.298236101866 4.25100278854 -242.425003052
endloop
endfacet
facet normal -0.0 0.0 1.0
outer loop
vertex 0.189744979143 4.300593853 -242.425003052
vertex 0.298236101866 4.25100278854 -242.425003052
vertex 0.298077523708 4.30100250244 -242.425003052
endloop
endfacet
facet normal 0.0 0.0 1.0
outer loop
vertex 0.0814129859209 4.30005455017 -242.425003052
vertex 0.0816917642951 4.25005531311 -242.425003052
vertex 0.189963653684 4.2505941391 -242.425003052
endloop
endfacet
facet normal -0.0 0.0 1.0
outer loop
vertex 0.0814129859209 4.30005455017 -242.425003052
vertex 0.189963653684 4.2505941391 -242.425003052
vertex 0.189744979143 4.300593853 -242.425003052
endloop
endfacet
