solid 
facet normal 0.00497377896681 0.999987661839 -5.61092491913e-11
outer loop
vertex -0.189766079187 4.30059480667 93.40599823
vertex -0.0814340934157 4.30005598068 93.40599823
vertex -0.0814341306686 4.30005598068 89.8150024414
endloop
endfacet
facet normal 0.00497377896681 0.999987661839 -4.1278289814e-11
outer loop
vertex -0.189766079187 4.30059480667 93.40599823
vertex -0.0814341306686 4.30005598068 89.8150024414
vertex -0.18976610899 4.30059480667 89.8150024414
endloop
endfacet
facet normal 0.00377214839682 0.999992847443 -6.26114785018e-11
outer loop
vertex -0.298098623753 4.30100345612 93.40599823
vertex -0.18976610899 4.30059480667 89.8150024414
vertex -0.298098683357 4.30100345612 89.8150024414
endloop
endfacet
facet normal 0.00377214909531 0.999992847443 -2.80546245957e-11
outer loop
vertex -0.298098623753 4.30100345612 93.40599823
vertex -0.189766079187 4.30059480667 93.40599823
vertex -0.18976610899 4.30059480667 89.8150024414
endloop
endfacet
facet normal 0.00257051945664 0.999996721745 -2.13332043003e-11
outer loop
vertex -0.406431615353 4.30128192902 93.40599823
vertex -0.298098683357 4.30100345612 89.8150024414
vertex -0.406431645155 4.30128192902 89.8150024414
endloop
endfacet
facet normal 0.00257051899098 0.999996721745 -4.20819282199e-11
outer loop
vertex -0.406431615353 4.30128192902 93.40599823
vertex -0.298098623753 4.30100345612 93.40599823
vertex -0.298098683357 4.30100345612 89.8150024414
endloop
endfacet
facet normal -0.999998033047 0.00196873024106 8.56050696996e-09
outer loop
vertex -0.406431615353 4.30128192902 93.40599823
vertex -0.406530082226 4.25128221512 89.8150024414
vertex -0.406530052423 4.25128173828 93.40599823
endloop
endfacet
facet normal -0.999998033047 0.00196874886751 8.29916402267e-09
outer loop
vertex -0.406431645155 4.30128192902 89.8150024414
vertex -0.406530082226 4.25128221512 89.8150024414
vertex -0.406431615353 4.30128192902 93.40599823
endloop
endfacet
facet normal -0.00497654033825 -0.999987661839 -1.32743977588e-07
outer loop
vertex -0.0817128941417 4.25005674362 89.8150024414
vertex -0.189984738827 4.25059509277 93.40599823
vertex -0.189984768629 4.25059556961 89.8150024414
endloop
endfacet
facet normal -0.00497213611379 -0.999987661839 4.1264658357e-11
outer loop
vertex -0.0817128643394 4.25005674362 93.40599823
vertex -0.189984738827 4.25059509277 93.40599823
vertex -0.0817128941417 4.25005674362 89.8150024414
endloop
endfacet
facet normal -0.003769838484 -0.999992847443 2.80701937388e-11
outer loop
vertex -0.189984768629 4.25059556961 89.8150024414
vertex -0.29825720191 4.25100374222 93.40599823
vertex -0.298257231712 4.25100374222 89.8150024414
endloop
endfacet
facet normal -0.00377424247563 -0.999992847443 -1.32754621518e-07
outer loop
vertex -0.189984738827 4.25059509277 93.40599823
vertex -0.29825720191 4.25100374222 93.40599823
vertex -0.189984768629 4.25059556961 89.8150024414
endloop
endfacet
facet normal -0.00257194647565 -0.999996721745 -1.32762693283e-07
outer loop
vertex -0.298257231712 4.25100374222 89.8150024414
vertex -0.406530052423 4.25128173828 93.40599823
vertex -0.406530082226 4.25128221512 89.8150024414
endloop
endfacet
facet normal -0.00256754248403 -0.999996721745 2.13084983686e-11
outer loop
vertex -0.29825720191 4.25100374222 93.40599823
vertex -0.406530052423 4.25128173828 93.40599823
vertex -0.298257231712 4.25100374222 89.8150024414
endloop
endfacet
facet normal 0.999984502792 -0.00557541707531 -1.03739727919e-08
outer loop
vertex -0.0817128643394 4.25005674362 93.40599823
vertex -0.0814341306686 4.30005598068 89.8150024414
vertex -0.0814340934157 4.30005598068 93.40599823
endloop
endfacet
facet normal 0.999984502792 -0.00557526806369 -8.29905122401e-09
outer loop
vertex -0.0817128941417 4.25005674362 89.8150024414
vertex -0.0814341306686 4.30005598068 89.8150024414
vertex -0.0817128643394 4.25005674362 93.40599823
endloop
endfacet
facet normal 0.0 0.0 -1.0
outer loop
vertex -0.298257231712 4.25100374222 89.8150024414
vertex -0.406530082226 4.25128221512 89.8150024414
vertex -0.406431645155 4.30128192902 89.8150024414
endloop
endfacet
facet normal -0.0 0.0 -1.0
outer loop
vertex -0.298098683357 4.30100345612 89.8150024414
vertex -0.298257231712 4.25100374222 89.8150024414
vertex -0.406431645155 4.30128192902 89.8150024414
endloop
endfacet
facet normal 0.0 0.0 -1.0
outer loop
vertex -0.189984768629 4.25059556961 89.8150024414
vertex -0.298257231712 4.25100374222 89.8150024414
vertex -0.298098683357 4.30100345612 89.8150024414
endloop
endfacet
facet normal -0.0 0.0 -1.0
outer loop
vertex -0.18976610899 4.30059480667 89.8150024414
vertex -0.189984768629 4.25059556961 89.8150024414
vertex -0.298098683357 4.30100345612 89.8150024414
endloop
endfacet
facet normal 0.0 0.0 -1.0
outer loop
vertex -0.0814341306686 4.30005598068 89.8150024414
vertex -0.0817128941417 4.25005674362 89.8150024414
vertex -0.189984768629 4.25059556961 89.8150024414
endloop
endfacet
facet normal -0.0 0.0 -1.0
outer loop
vertex -0.0814341306686 4.30005598068 89.8150024414
vertex -0.189984768629 4.25059556961 89.8150024414
vertex -0.18976610899 4.30059480667 89.8150024414
endloop
endfacet
facet normal -0.0 0.0 1.0
outer loop
vertex -0.406530052423 4.25128173828 93.40599823
vertex -0.29825720191 4.25100374222 93.40599823
vertex -0.406431615353 4.30128192902 93.40599823
endloop
endfacet
facet normal 0.0 -0.0 1.0
outer loop
vertex -0.29825720191 4.25100374222 93.40599823
vertex -0.298098623753 4.30100345612 93.40599823
vertex -0.406431615353 4.30128192902 93.40599823
endloop
endfacet
facet normal -0.0 0.0 1.0
outer loop
vertex -0.29825720191 4.25100374222 93.40599823
vertex -0.189984738827 4.25059509277 93.40599823
vertex -0.298098623753 4.30100345612 93.40599823
endloop
endfacet
facet normal 0.0 -0.0 1.0
outer loop
vertex -0.189984738827 4.25059509277 93.40599823
vertex -0.189766079187 4.30059480667 93.40599823
vertex -0.298098623753 4.30100345612 93.40599823
endloop
endfacet
facet normal -0.0 0.0 1.0
outer loop
vertex -0.189984738827 4.25059509277 93.40599823
vertex -0.0817128643394 4.25005674362 93.40599823
vertex -0.189766079187 4.30059480667 93.40599823
endloop
endfacet
facet normal 0.0 -0.0 1.0
outer loop
vertex -0.0817128643394 4.25005674362 93.40599823
vertex -0.0814340934157 4.30005598068 93.40599823
vertex -0.189766079187 4.30059480667 93.40599823
endloop
endfacet
