solid 
facet normal -0.207008808851 0.978339016438 6.52357527997e-08
outer loop
vertex -19.2916984558 2.3382024765 17.5750007629
vertex -19.185710907 2.36062860489 17.5750007629
vertex -19.185710907 2.36062884331 13.984000206
endloop
endfacet
facet normal -0.207010909915 0.978338599205 0.0
outer loop
vertex -19.2916984558 2.3382024765 17.5750007629
vertex -19.185710907 2.36062884331 13.984000206
vertex -19.2916984558 2.3382024765 13.984000206
endloop
endfacet
facet normal -0.208189114928 0.978088498116 0.0
outer loop
vertex -19.2916984558 2.3382024765 17.5750007629
vertex -19.2916984558 2.3382024765 13.984000206
vertex -19.3976573944 2.31564879417 13.984000206
endloop
endfacet
facet normal -0.209361344576 0.977838337421 0.0
outer loop
vertex -19.3976573944 2.31564879417 17.5750007629
vertex -19.3976573944 2.31564879417 13.984000206
vertex -19.5035896301 2.29296803474 13.984000206
endloop
endfacet
facet normal -0.208189114928 0.978088498116 0.0
outer loop
vertex -19.3976573944 2.31564879417 17.5750007629
vertex -19.2916984558 2.3382024765 17.5750007629
vertex -19.3976573944 2.31564879417 13.984000206
endloop
endfacet
facet normal -0.209363475442 0.977837979794 6.49219416005e-08
outer loop
vertex -19.5035896301 2.29296779633 17.5750007629
vertex -19.3976573944 2.31564879417 17.5750007629
vertex -19.5035896301 2.29296803474 13.984000206
endloop
endfacet
facet normal -0.977709889412 -0.20996055007 -1.39399851662e-08
outer loop
vertex -19.5035896301 2.29296779633 17.5750007629
vertex -19.5035896301 2.29296803474 13.984000206
vertex -19.4930915833 2.24408221245 17.5750007629
endloop
endfacet
facet normal -0.977710068226 -0.209959566593 0.0
outer loop
vertex -19.5035896301 2.29296803474 13.984000206
vertex -19.4930915833 2.24408221245 13.984000206
vertex -19.4930915833 2.24408221245 17.5750007629
endloop
endfacet
facet normal 0.207009837031 -0.978338897228 0.0
outer loop
vertex -19.1753902435 2.31170558929 13.984000206
vertex -19.1753902435 2.31170558929 17.5750007629
vertex -19.2813186646 2.28929185867 13.984000206
endloop
endfacet
facet normal 0.207013383508 -0.978338062763 -1.10186086033e-07
outer loop
vertex -19.1753902435 2.31170558929 17.5750007629
vertex -19.2813167572 2.28929185867 17.5750007629
vertex -19.2813186646 2.28929185867 13.984000206
endloop
endfacet
facet normal 0.208188697696 -0.978088676929 -6.52730989259e-08
outer loop
vertex -19.2813186646 2.28929185867 13.984000206
vertex -19.3872184753 2.26675057411 17.5750007629
vertex -19.3872184753 2.26675081253 13.984000206
endloop
endfacet
facet normal 0.209365770221 -0.977837383747 -6.49219060733e-08
outer loop
vertex -19.3872184753 2.26675081253 13.984000206
vertex -19.3872184753 2.26675057411 17.5750007629
vertex -19.4930915833 2.24408221245 13.984000206
endloop
endfacet
facet normal 0.20818720758 -0.978089034557 -1.10577978774e-07
outer loop
vertex -19.2813167572 2.28929185867 17.5750007629
vertex -19.3872184753 2.26675057411 17.5750007629
vertex -19.2813186646 2.28929185867 13.984000206
endloop
endfacet
facet normal 0.209363654256 -0.977837860584 0.0
outer loop
vertex -19.3872184753 2.26675057411 17.5750007629
vertex -19.4930915833 2.24408221245 17.5750007629
vertex -19.4930915833 2.24408221245 13.984000206
endloop
endfacet
facet normal 0.978464722633 0.206414207816 1.36158861963e-08
outer loop
vertex -19.1753902435 2.31170558929 17.5750007629
vertex -19.185710907 2.36062884331 13.984000206
vertex -19.185710907 2.36062860489 17.5750007629
endloop
endfacet
facet normal 0.978464901447 0.206413224339 -0.0
outer loop
vertex -19.1753902435 2.31170558929 13.984000206
vertex -19.185710907 2.36062884331 13.984000206
vertex -19.1753902435 2.31170558929 17.5750007629
endloop
endfacet
facet normal -0.0 0.0 -1.0
outer loop
vertex -19.3872184753 2.26675081253 13.984000206
vertex -19.4930915833 2.24408221245 13.984000206
vertex -19.5035896301 2.29296803474 13.984000206
endloop
endfacet
facet normal 0.0 -0.0 -1.0
outer loop
vertex -19.3976573944 2.31564879417 13.984000206
vertex -19.3872184753 2.26675081253 13.984000206
vertex -19.5035896301 2.29296803474 13.984000206
endloop
endfacet
facet normal 0.0 -0.0 -1.0
outer loop
vertex -19.2916984558 2.3382024765 13.984000206
vertex -19.2813186646 2.28929185867 13.984000206
vertex -19.3872184753 2.26675081253 13.984000206
endloop
endfacet
facet normal 0.0 0.0 -1.0
outer loop
vertex -19.2916984558 2.3382024765 13.984000206
vertex -19.3872184753 2.26675081253 13.984000206
vertex -19.3976573944 2.31564879417 13.984000206
endloop
endfacet
facet normal 0.0 -0.0 -1.0
outer loop
vertex -19.185710907 2.36062884331 13.984000206
vertex -19.1753902435 2.31170558929 13.984000206
vertex -19.2813186646 2.28929185867 13.984000206
endloop
endfacet
facet normal 0.0 0.0 -1.0
outer loop
vertex -19.185710907 2.36062884331 13.984000206
vertex -19.2813186646 2.28929185867 13.984000206
vertex -19.2916984558 2.3382024765 13.984000206
endloop
endfacet
facet normal 0.0 0.0 1.0
outer loop
vertex -19.3872184753 2.26675057411 17.5750007629
vertex -19.3976573944 2.31564879417 17.5750007629
vertex -19.4930915833 2.24408221245 17.5750007629
endloop
endfacet
facet normal 0.0 -0.0 1.0
outer loop
vertex -19.4930915833 2.24408221245 17.5750007629
vertex -19.3976573944 2.31564879417 17.5750007629
vertex -19.5035896301 2.29296779633 17.5750007629
endloop
endfacet
facet normal 0.0 0.0 1.0
outer loop
vertex -19.2813167572 2.28929185867 17.5750007629
vertex -19.2916984558 2.3382024765 17.5750007629
vertex -19.3872184753 2.26675057411 17.5750007629
endloop
endfacet
facet normal 0.0 -0.0 1.0
outer loop
vertex -19.3872184753 2.26675057411 17.5750007629
vertex -19.2916984558 2.3382024765 17.5750007629
vertex -19.3976573944 2.31564879417 17.5750007629
endloop
endfacet
facet normal 0.0 0.0 1.0
outer loop
vertex -19.1753902435 2.31170558929 17.5750007629
vertex -19.185710907 2.36062860489 17.5750007629
vertex -19.2813167572 2.28929185867 17.5750007629
endloop
endfacet
facet normal 0.0 -0.0 1.0
outer loop
vertex -19.2813167572 2.28929185867 17.5750007629
vertex -19.185710907 2.36062860489 17.5750007629
vertex -19.2916984558 2.3382024765 17.5750007629
endloop
endfacet
