solid 
facet normal -0.00497377896681 0.999987661839 -5.61091312301e-11
outer loop
vertex 0.189771577716 4.30059480667 118.722999573
vertex 0.0814395919442 4.30005598068 118.722999573
vertex 0.0814395472407 4.30005598068 122.314002991
endloop
endfacet
facet normal -0.00497377896681 0.999987661839 -6.19173046168e-11
outer loop
vertex 0.189771577716 4.30059480667 118.722999573
vertex 0.0814395472407 4.30005598068 122.314002991
vertex 0.189771533012 4.30059480667 122.314002991
endloop
endfacet
facet normal -0.00377214956097 0.999992847443 -6.26113674795e-11
outer loop
vertex 0.298104137182 4.30100345612 118.722999573
vertex 0.189771533012 4.30059480667 122.314002991
vertex 0.298104077578 4.30100345612 122.314002991
endloop
endfacet
facet normal -0.00377214886248 0.999992847443 -4.67576047325e-11
outer loop
vertex 0.298104137182 4.30100345612 118.722999573
vertex 0.189771577716 4.30059480667 118.722999573
vertex 0.189771533012 4.30059480667 122.314002991
endloop
endfacet
facet normal -0.00257051875815 0.999996721745 -2.13331539933e-11
outer loop
vertex 0.40643709898 4.30128192902 118.722999573
vertex 0.298104077578 4.30100345612 122.314002991
vertex 0.406437069178 4.30128192902 122.314002991
endloop
endfacet
facet normal -0.00257051945664 0.999996721745 -4.20818484226e-11
outer loop
vertex 0.40643709898 4.30128192902 118.722999573
vertex 0.298104137182 4.30100345612 118.722999573
vertex 0.298104077578 4.30100345612 122.314002991
endloop
endfacet
facet normal 0.999998033047 0.00196874863468 8.29970048244e-09
outer loop
vertex 0.406535536051 4.25128221512 118.722999573
vertex 0.40643709898 4.30128192902 118.722999573
vertex 0.406437069178 4.30128192902 122.314002991
endloop
endfacet
facet normal 0.999998033047 0.00196873000823 8.56056736609e-09
outer loop
vertex 0.406535536051 4.25128221512 118.722999573
vertex 0.406437069178 4.30128192902 122.314002991
vertex 0.406535506248 4.25128173828 122.314002991
endloop
endfacet
facet normal 0.00497213564813 -0.999987661839 6.18968487576e-11
outer loop
vertex 0.0817183107138 4.25005674362 122.314002991
vertex 0.0817183554173 4.25005674362 118.722999573
vertex 0.189990192652 4.25059509277 122.314002991
endloop
endfacet
facet normal 0.00497653987259 -0.999987661839 -1.32724963464e-07
outer loop
vertex 0.0817183554173 4.25005674362 118.722999573
vertex 0.189990237355 4.25059556961 118.722999573
vertex 0.189990192652 4.25059509277 122.314002991
endloop
endfacet
facet normal 0.00377424363978 -0.999992847443 6.54969967151e-11
outer loop
vertex 0.189990192652 4.25059509277 122.314002991
vertex 0.298262685537 4.25100374222 118.722999573
vertex 0.298262625933 4.25100374222 122.314002991
endloop
endfacet
facet normal 0.0037698391825 -0.999992966652 -1.32738733782e-07
outer loop
vertex 0.189990237355 4.25059556961 118.722999573
vertex 0.298262685537 4.25100374222 118.722999573
vertex 0.189990192652 4.25059509277 122.314002991
endloop
endfacet
facet normal 0.00256754178554 -0.999996721745 -1.32762380645e-07
outer loop
vertex 0.298262625933 4.25100374222 122.314002991
vertex 0.406535536051 4.25128221512 118.722999573
vertex 0.406535506248 4.25128173828 122.314002991
endloop
endfacet
facet normal 0.00257194647565 -0.999996721745 4.26900043093e-11
outer loop
vertex 0.298262685537 4.25100374222 118.722999573
vertex 0.406535536051 4.25128221512 118.722999573
vertex 0.298262625933 4.25100374222 122.314002991
endloop
endfacet
facet normal -0.999984502792 -0.00557526806369 -1.24485515229e-08
outer loop
vertex 0.0817183554173 4.25005674362 118.722999573
vertex 0.0817183107138 4.25005674362 122.314002991
vertex 0.0814395472407 4.30005598068 122.314002991
endloop
endfacet
facet normal -0.999984502792 -0.00557526806369 -1.24485515229e-08
outer loop
vertex 0.0814395919442 4.30005598068 118.722999573
vertex 0.0817183554173 4.25005674362 118.722999573
vertex 0.0814395472407 4.30005598068 122.314002991
endloop
endfacet
facet normal -0.0 0.0 -1.0
outer loop
vertex 0.406535536051 4.25128221512 118.722999573
vertex 0.298262685537 4.25100374222 118.722999573
vertex 0.40643709898 4.30128192902 118.722999573
endloop
endfacet
facet normal 0.0 0.0 -1.0
outer loop
vertex 0.298262685537 4.25100374222 118.722999573
vertex 0.298104137182 4.30100345612 118.722999573
vertex 0.40643709898 4.30128192902 118.722999573
endloop
endfacet
facet normal 0.0 0.0 -1.0
outer loop
vertex 0.189990237355 4.25059556961 118.722999573
vertex 0.189771577716 4.30059480667 118.722999573
vertex 0.298262685537 4.25100374222 118.722999573
endloop
endfacet
facet normal 0.0 0.0 -1.0
outer loop
vertex 0.298262685537 4.25100374222 118.722999573
vertex 0.189771577716 4.30059480667 118.722999573
vertex 0.298104137182 4.30100345612 118.722999573
endloop
endfacet
facet normal 0.0 0.0 -1.0
outer loop
vertex 0.0817183554173 4.25005674362 118.722999573
vertex 0.0814395919442 4.30005598068 118.722999573
vertex 0.189990237355 4.25059556961 118.722999573
endloop
endfacet
facet normal 0.0 0.0 -1.0
outer loop
vertex 0.189990237355 4.25059556961 118.722999573
vertex 0.0814395919442 4.30005598068 118.722999573
vertex 0.189771577716 4.30059480667 118.722999573
endloop
endfacet
facet normal 0.0 0.0 1.0
outer loop
vertex 0.298262625933 4.25100374222 122.314002991
vertex 0.406535506248 4.25128173828 122.314002991
vertex 0.406437069178 4.30128192902 122.314002991
endloop
endfacet
facet normal -0.0 0.0 1.0
outer loop
vertex 0.298104077578 4.30100345612 122.314002991
vertex 0.298262625933 4.25100374222 122.314002991
vertex 0.406437069178 4.30128192902 122.314002991
endloop
endfacet
facet normal 0.0 0.0 1.0
outer loop
vertex 0.189771533012 4.30059480667 122.314002991
vertex 0.189990192652 4.25059509277 122.314002991
vertex 0.298262625933 4.25100374222 122.314002991
endloop
endfacet
facet normal -0.0 0.0 1.0
outer loop
vertex 0.189771533012 4.30059480667 122.314002991
vertex 0.298262625933 4.25100374222 122.314002991
vertex 0.298104077578 4.30100345612 122.314002991
endloop
endfacet
facet normal 0.0 0.0 1.0
outer loop
vertex 0.0814395472407 4.30005598068 122.314002991
vertex 0.0817183107138 4.25005674362 122.314002991
vertex 0.189990192652 4.25059509277 122.314002991
endloop
endfacet
facet normal -0.0 0.0 1.0
outer loop
vertex 0.0814395472407 4.30005598068 122.314002991
vertex 0.189990192652 4.25059509277 122.314002991
vertex 0.189771533012 4.30059480667 122.314002991
endloop
endfacet
