solid 
facet normal 0.017370197922 -0.999849140644 0.0
outer loop
vertex 3.69147086143 -4.24785709381 -54.6450004578
vertex 0.606420516968 -4.30145311356 -54.6450004578
vertex 0.606420516968 -4.30145311356 -54.6650009155
endloop
endfacet
facet normal 0.017370197922 -0.999849140644 0.0
outer loop
vertex 3.69147086143 -4.24785709381 -54.6450004578
vertex 0.606420516968 -4.30145311356 -54.6650009155
vertex 3.69147086143 -4.24785709381 -54.6650009155
endloop
endfacet
facet normal 0.0515894815326 -0.998668372631 0.0
outer loop
vertex 3.69147086143 -4.24785709381 -54.6450004578
vertex 3.69147086143 -4.24785709381 -54.6650009155
vertex 6.77287817001 -4.08867692947 -54.6650009155
endloop
endfacet
facet normal 0.0857483372092 -0.996316850185 0.0
outer loop
vertex 6.77287817001 -4.08867692947 -54.6450004578
vertex 6.77287817001 -4.08867692947 -54.6650009155
vertex 9.84702968597 -3.82409906387 -54.6650009155
endloop
endfacet
facet normal 0.0515894815326 -0.998668372631 0.0
outer loop
vertex 6.77287817001 -4.08867692947 -54.6450004578
vertex 3.69147086143 -4.24785709381 -54.6450004578
vertex 6.77287817001 -4.08867692947 -54.6650009155
endloop
endfacet
facet normal 0.0857483372092 -0.996316850185 0.0
outer loop
vertex 9.84702968597 -3.82409906387 -54.6450004578
vertex 6.77287817001 -4.08867692947 -54.6450004578
vertex 9.84702968597 -3.82409906387 -54.6650009155
endloop
endfacet
facet normal 0.994703471661 0.102786749601 0.0
outer loop
vertex 9.84189033508 -3.77436375618 -54.6650009155
vertex 9.84702968597 -3.82409906387 -54.6450004578
vertex 9.84702968597 -3.82409906387 -54.6650009155
endloop
endfacet
facet normal 0.994703471661 0.102786749601 0.0
outer loop
vertex 9.84189033508 -3.77436375618 -54.6450004578
vertex 9.84702968597 -3.82409906387 -54.6450004578
vertex 9.84189033508 -3.77436375618 -54.6650009155
endloop
endfacet
facet normal -0.0173700992018 0.999849140644 0.0
outer loop
vertex 0.606407999992 -4.25145292282 -54.6650009155
vertex 0.606407999992 -4.25145292282 -54.6450004578
vertex 3.68974661827 -4.19788694382 -54.6650009155
endloop
endfacet
facet normal -0.0173700992018 0.999849140644 0.0
outer loop
vertex 0.606407999992 -4.25145292282 -54.6450004578
vertex 3.68974661827 -4.19788694382 -54.6450004578
vertex 3.68974661827 -4.19788694382 -54.6650009155
endloop
endfacet
facet normal -0.0515895150602 0.998668372631 0.0
outer loop
vertex 3.68974661827 -4.19788694382 -54.6650009155
vertex 6.7694439888 -4.03879499435 -54.6450004578
vertex 6.7694439888 -4.03879499435 -54.6650009155
endloop
endfacet
facet normal -0.0515895150602 0.998668372631 0.0
outer loop
vertex 3.68974661827 -4.19788694382 -54.6450004578
vertex 6.7694439888 -4.03879499435 -54.6450004578
vertex 3.68974661827 -4.19788694382 -54.6650009155
endloop
endfacet
facet normal -0.0857483819127 0.996316850185 0.0
outer loop
vertex 6.7694439888 -4.03879499435 -54.6650009155
vertex 9.84189033508 -3.77436375618 -54.6450004578
vertex 9.84189033508 -3.77436375618 -54.6650009155
endloop
endfacet
facet normal -0.0857483819127 0.996316850185 0.0
outer loop
vertex 6.7694439888 -4.03879499435 -54.6450004578
vertex 9.84189033508 -3.77436375618 -54.6450004578
vertex 6.7694439888 -4.03879499435 -54.6650009155
endloop
endfacet
facet normal -0.999999880791 -0.000250338518526 0.0
outer loop
vertex 0.606420516968 -4.30145311356 -54.6650009155
vertex 0.606407999992 -4.25145292282 -54.6450004578
vertex 0.606407999992 -4.25145292282 -54.6650009155
endloop
endfacet
facet normal -0.999999880791 -0.000250338518526 -0.0
outer loop
vertex 0.606420516968 -4.30145311356 -54.6450004578
vertex 0.606407999992 -4.25145292282 -54.6450004578
vertex 0.606420516968 -4.30145311356 -54.6650009155
endloop
endfacet
facet normal 0.0 0.0 1.0
outer loop
vertex 9.84189033508 -3.77436375618 -54.6450004578
vertex 6.7694439888 -4.03879499435 -54.6450004578
vertex 9.84702968597 -3.82409906387 -54.6450004578
endloop
endfacet
facet normal -0.0 0.0 1.0
outer loop
vertex 6.7694439888 -4.03879499435 -54.6450004578
vertex 6.77287817001 -4.08867692947 -54.6450004578
vertex 9.84702968597 -3.82409906387 -54.6450004578
endloop
endfacet
facet normal 0.0 0.0 1.0
outer loop
vertex 6.7694439888 -4.03879499435 -54.6450004578
vertex 3.68974661827 -4.19788694382 -54.6450004578
vertex 6.77287817001 -4.08867692947 -54.6450004578
endloop
endfacet
facet normal -0.0 0.0 1.0
outer loop
vertex 3.68974661827 -4.19788694382 -54.6450004578
vertex 3.69147086143 -4.24785709381 -54.6450004578
vertex 6.77287817001 -4.08867692947 -54.6450004578
endloop
endfacet
facet normal 0.0 0.0 1.0
outer loop
vertex 3.68974661827 -4.19788694382 -54.6450004578
vertex 0.606407999992 -4.25145292282 -54.6450004578
vertex 3.69147086143 -4.24785709381 -54.6450004578
endloop
endfacet
facet normal -0.0 0.0 1.0
outer loop
vertex 0.606407999992 -4.25145292282 -54.6450004578
vertex 0.606420516968 -4.30145311356 -54.6450004578
vertex 3.69147086143 -4.24785709381 -54.6450004578
endloop
endfacet
facet normal 0.0 0.0 -1.0
outer loop
vertex 6.77287817001 -4.08867692947 -54.6650009155
vertex 6.7694439888 -4.03879499435 -54.6650009155
vertex 9.84189033508 -3.77436375618 -54.6650009155
endloop
endfacet
facet normal 0.0 0.0 -1.0
outer loop
vertex 6.77287817001 -4.08867692947 -54.6650009155
vertex 9.84189033508 -3.77436375618 -54.6650009155
vertex 9.84702968597 -3.82409906387 -54.6650009155
endloop
endfacet
facet normal 0.0 0.0 -1.0
outer loop
vertex 3.69147086143 -4.24785709381 -54.6650009155
vertex 3.68974661827 -4.19788694382 -54.6650009155
vertex 6.7694439888 -4.03879499435 -54.6650009155
endloop
endfacet
facet normal 0.0 0.0 -1.0
outer loop
vertex 3.69147086143 -4.24785709381 -54.6650009155
vertex 6.7694439888 -4.03879499435 -54.6650009155
vertex 6.77287817001 -4.08867692947 -54.6650009155
endloop
endfacet
facet normal 0.0 0.0 -1.0
outer loop
vertex 0.606420516968 -4.30145311356 -54.6650009155
vertex 0.606407999992 -4.25145292282 -54.6650009155
vertex 3.68974661827 -4.19788694382 -54.6650009155
endloop
endfacet
facet normal 0.0 0.0 -1.0
outer loop
vertex 0.606420516968 -4.30145311356 -54.6650009155
vertex 3.68974661827 -4.19788694382 -54.6650009155
vertex 3.69147086143 -4.24785709381 -54.6650009155
endloop
endfacet
