solid 
facet normal 0.0173700433224 0.999849140644 0.0
outer loop
vertex 3.69146609306 4.24785709381 24.797000885
vertex 0.606415688992 4.30145263672 24.797000885
vertex 0.606415688992 4.30145263672 24.8169994354
endloop
endfacet
facet normal 0.0173700433224 0.999849140644 -0.0
outer loop
vertex 3.69146609306 4.24785709381 24.797000885
vertex 0.606415688992 4.30145263672 24.8169994354
vertex 3.69146609306 4.24785709381 24.8169994354
endloop
endfacet
facet normal 0.0515893250704 0.998668372631 -0.0
outer loop
vertex 6.77287340164 4.08867740631 24.797000885
vertex 3.69146609306 4.24785709381 24.8169994354
vertex 6.77287340164 4.08867740631 24.8169994354
endloop
endfacet
facet normal 0.0857483372092 0.996316850185 -0.0
outer loop
vertex 6.77287340164 4.08867740631 24.797000885
vertex 6.77287340164 4.08867740631 24.8169994354
vertex 9.8470249176 3.82409954071 24.8169994354
endloop
endfacet
facet normal 0.0515893250704 0.998668372631 0.0
outer loop
vertex 6.77287340164 4.08867740631 24.797000885
vertex 3.69146609306 4.24785709381 24.797000885
vertex 3.69146609306 4.24785709381 24.8169994354
endloop
endfacet
facet normal 0.0857483372092 0.996316850185 -0.0
outer loop
vertex 9.8470249176 3.82409954071 24.797000885
vertex 6.77287340164 4.08867740631 24.797000885
vertex 9.8470249176 3.82409954071 24.8169994354
endloop
endfacet
facet normal 0.994703412056 -0.10278672725 0.0
outer loop
vertex 9.84188556671 3.77436423302 24.8169994354
vertex 9.8470249176 3.82409954071 24.797000885
vertex 9.8470249176 3.82409954071 24.8169994354
endloop
endfacet
facet normal 0.994703412056 -0.10278672725 0.0
outer loop
vertex 9.84188556671 3.77436423302 24.797000885
vertex 9.8470249176 3.82409954071 24.797000885
vertex 9.84188556671 3.77436423302 24.8169994354
endloop
endfacet
facet normal -0.0173700973392 -0.999849081039 -0.0
outer loop
vertex 0.606403172016 4.25145292282 24.8169994354
vertex 0.606403172016 4.25145292282 24.797000885
vertex 3.6897418499 4.19788694382 24.8169994354
endloop
endfacet
facet normal -0.0173700973392 -0.999849081039 0.0
outer loop
vertex 0.606403172016 4.25145292282 24.797000885
vertex 3.6897418499 4.19788694382 24.797000885
vertex 3.6897418499 4.19788694382 24.8169994354
endloop
endfacet
facet normal -0.0515893623233 -0.998668372631 0.0
outer loop
vertex 3.6897418499 4.19788694382 24.8169994354
vertex 6.76943922043 4.03879547119 24.797000885
vertex 6.76943922043 4.03879547119 24.8169994354
endloop
endfacet
facet normal -0.0515893623233 -0.998668372631 0.0
outer loop
vertex 3.6897418499 4.19788694382 24.797000885
vertex 6.76943922043 4.03879547119 24.797000885
vertex 3.6897418499 4.19788694382 24.8169994354
endloop
endfacet
facet normal -0.0857483819127 -0.996316850185 0.0
outer loop
vertex 6.76943922043 4.03879547119 24.8169994354
vertex 9.84188556671 3.77436423302 24.797000885
vertex 9.84188556671 3.77436423302 24.8169994354
endloop
endfacet
facet normal -0.0857483819127 -0.996316850185 0.0
outer loop
vertex 6.76943922043 4.03879547119 24.797000885
vertex 9.84188556671 3.77436423302 24.797000885
vertex 6.76943922043 4.03879547119 24.8169994354
endloop
endfacet
facet normal -0.999999880791 0.000250340905041 0.0
outer loop
vertex 0.606415688992 4.30145263672 24.797000885
vertex 0.606403172016 4.25145292282 24.797000885
vertex 0.606403172016 4.25145292282 24.8169994354
endloop
endfacet
facet normal -0.999999880791 0.000250340905041 0.0
outer loop
vertex 0.606415688992 4.30145263672 24.797000885
vertex 0.606403172016 4.25145292282 24.8169994354
vertex 0.606415688992 4.30145263672 24.8169994354
endloop
endfacet
facet normal 0.0 0.0 -1.0
outer loop
vertex 9.84188556671 3.77436423302 24.797000885
vertex 6.76943922043 4.03879547119 24.797000885
vertex 9.8470249176 3.82409954071 24.797000885
endloop
endfacet
facet normal 0.0 0.0 -1.0
outer loop
vertex 6.76943922043 4.03879547119 24.797000885
vertex 6.77287340164 4.08867740631 24.797000885
vertex 9.8470249176 3.82409954071 24.797000885
endloop
endfacet
facet normal 0.0 0.0 -1.0
outer loop
vertex 6.76943922043 4.03879547119 24.797000885
vertex 3.6897418499 4.19788694382 24.797000885
vertex 6.77287340164 4.08867740631 24.797000885
endloop
endfacet
facet normal 0.0 0.0 -1.0
outer loop
vertex 3.6897418499 4.19788694382 24.797000885
vertex 3.69146609306 4.24785709381 24.797000885
vertex 6.77287340164 4.08867740631 24.797000885
endloop
endfacet
facet normal 0.0 0.0 -1.0
outer loop
vertex 3.6897418499 4.19788694382 24.797000885
vertex 0.606403172016 4.25145292282 24.797000885
vertex 3.69146609306 4.24785709381 24.797000885
endloop
endfacet
facet normal 0.0 0.0 -1.0
outer loop
vertex 0.606403172016 4.25145292282 24.797000885
vertex 0.606415688992 4.30145263672 24.797000885
vertex 3.69146609306 4.24785709381 24.797000885
endloop
endfacet
facet normal 0.0 0.0 1.0
outer loop
vertex 6.77287340164 4.08867740631 24.8169994354
vertex 6.76943922043 4.03879547119 24.8169994354
vertex 9.84188556671 3.77436423302 24.8169994354
endloop
endfacet
facet normal 0.0 0.0 1.0
outer loop
vertex 6.77287340164 4.08867740631 24.8169994354
vertex 9.84188556671 3.77436423302 24.8169994354
vertex 9.8470249176 3.82409954071 24.8169994354
endloop
endfacet
facet normal 0.0 0.0 1.0
outer loop
vertex 3.69146609306 4.24785709381 24.8169994354
vertex 3.6897418499 4.19788694382 24.8169994354
vertex 6.76943922043 4.03879547119 24.8169994354
endloop
endfacet
facet normal 0.0 0.0 1.0
outer loop
vertex 3.69146609306 4.24785709381 24.8169994354
vertex 6.76943922043 4.03879547119 24.8169994354
vertex 6.77287340164 4.08867740631 24.8169994354
endloop
endfacet
facet normal 0.0 0.0 1.0
outer loop
vertex 0.606415688992 4.30145263672 24.8169994354
vertex 0.606403172016 4.25145292282 24.8169994354
vertex 3.6897418499 4.19788694382 24.8169994354
endloop
endfacet
facet normal 0.0 0.0 1.0
outer loop
vertex 0.606415688992 4.30145263672 24.8169994354
vertex 3.6897418499 4.19788694382 24.8169994354
vertex 3.69146609306 4.24785709381 24.8169994354
endloop
endfacet
