solid 
facet normal 0.119806975126 0.992797195911 0.0
outer loop
vertex 12.9103374481 3.45443129539 -155.780990601
vertex 9.84704589844 3.82409763336 -155.780990601
vertex 9.84704589844 3.82409763336 -155.761001587
endloop
endfacet
facet normal 0.119806975126 0.992797195911 -0.0
outer loop
vertex 12.9103374481 3.45443129539 -155.780990601
vertex 9.84704589844 3.82409763336 -155.761001587
vertex 12.9103374481 3.45443129539 -155.761001587
endloop
endfacet
facet normal 0.153724908829 0.988113701344 -0.0
outer loop
vertex 15.9591779709 2.98011064529 -155.780990601
vertex 12.9103374481 3.45443129539 -155.761001587
vertex 15.9591779709 2.98011064529 -155.761001587
endloop
endfacet
facet normal 0.153724908829 0.988113701344 0.0
outer loop
vertex 15.9591779709 2.98011064529 -155.780990601
vertex 12.9103374481 3.45443129539 -155.780990601
vertex 12.9103374481 3.45443129539 -155.761001587
endloop
endfacet
facet normal 0.187462508678 0.982271790504 -0.0
outer loop
vertex 18.9899940491 2.4016919136 -155.780990601
vertex 15.9591779709 2.98011064529 -155.761001587
vertex 18.9899940491 2.4016919136 -155.761001587
endloop
endfacet
facet normal 0.187462508678 0.982271790504 0.0
outer loop
vertex 18.9899940491 2.4016919136 -155.780990601
vertex 15.9591779709 2.98011064529 -155.780990601
vertex 15.9591779709 2.98011064529 -155.761001587
endloop
endfacet
facet normal 0.978913247585 -0.204276040196 0.0
outer loop
vertex 18.9797801971 2.35274600983 -155.780990601
vertex 18.9899940491 2.4016919136 -155.780990601
vertex 18.9899940491 2.4016919136 -155.761001587
endloop
endfacet
facet normal 0.978913247585 -0.204276040196 0.0
outer loop
vertex 18.9797801971 2.35274600983 -155.780990601
vertex 18.9899940491 2.4016919136 -155.761001587
vertex 18.9797801971 2.35274600983 -155.761001587
endloop
endfacet
facet normal -0.119806922972 -0.992797195911 -0.0
outer loop
vertex 9.84190654755 3.77436232567 -155.761001587
vertex 9.84190654755 3.77436232567 -155.780990601
vertex 12.9034986496 3.4049012661 -155.761001587
endloop
endfacet
facet normal -0.119806922972 -0.992797195911 0.0
outer loop
vertex 9.84190654755 3.77436232567 -155.780990601
vertex 12.9034986496 3.4049012661 -155.780990601
vertex 12.9034986496 3.4049012661 -155.761001587
endloop
endfacet
facet normal -0.153724908829 -0.988113701344 0.0
outer loop
vertex 12.9034986496 3.4049012661 -155.761001587
vertex 15.9506473541 2.93084383011 -155.780990601
vertex 15.9506473541 2.93084383011 -155.761001587
endloop
endfacet
facet normal -0.153724908829 -0.988113701344 0.0
outer loop
vertex 12.9034986496 3.4049012661 -155.780990601
vertex 15.9506473541 2.93084383011 -155.780990601
vertex 12.9034986496 3.4049012661 -155.761001587
endloop
endfacet
facet normal -0.187462612987 -0.9822717309 0.0
outer loop
vertex 15.9506473541 2.93084383011 -155.761001587
vertex 18.9797801971 2.35274600983 -155.780990601
vertex 18.9797801971 2.35274600983 -155.761001587
endloop
endfacet
facet normal -0.187462612987 -0.9822717309 0.0
outer loop
vertex 15.9506473541 2.93084383011 -155.780990601
vertex 18.9797801971 2.35274600983 -155.780990601
vertex 15.9506473541 2.93084383011 -155.761001587
endloop
endfacet
facet normal -0.994703471661 0.102786742151 0.0
outer loop
vertex 9.84704589844 3.82409763336 -155.761001587
vertex 9.84190654755 3.77436232567 -155.780990601
vertex 9.84190654755 3.77436232567 -155.761001587
endloop
endfacet
facet normal -0.994703471661 0.102786742151 0.0
outer loop
vertex 9.84704589844 3.82409763336 -155.780990601
vertex 9.84190654755 3.77436232567 -155.780990601
vertex 9.84704589844 3.82409763336 -155.761001587
endloop
endfacet
facet normal 0.0 0.0 -1.0
outer loop
vertex 15.9506473541 2.93084383011 -155.780990601
vertex 15.9591779709 2.98011064529 -155.780990601
vertex 18.9797801971 2.35274600983 -155.780990601
endloop
endfacet
facet normal 0.0 0.0 -1.0
outer loop
vertex 18.9797801971 2.35274600983 -155.780990601
vertex 15.9591779709 2.98011064529 -155.780990601
vertex 18.9899940491 2.4016919136 -155.780990601
endloop
endfacet
facet normal 0.0 0.0 -1.0
outer loop
vertex 12.9034986496 3.4049012661 -155.780990601
vertex 12.9103374481 3.45443129539 -155.780990601
vertex 15.9506473541 2.93084383011 -155.780990601
endloop
endfacet
facet normal 0.0 0.0 -1.0
outer loop
vertex 15.9506473541 2.93084383011 -155.780990601
vertex 12.9103374481 3.45443129539 -155.780990601
vertex 15.9591779709 2.98011064529 -155.780990601
endloop
endfacet
facet normal 0.0 0.0 -1.0
outer loop
vertex 12.9034986496 3.4049012661 -155.780990601
vertex 9.84190654755 3.77436232567 -155.780990601
vertex 12.9103374481 3.45443129539 -155.780990601
endloop
endfacet
facet normal 0.0 0.0 -1.0
outer loop
vertex 9.84190654755 3.77436232567 -155.780990601
vertex 9.84704589844 3.82409763336 -155.780990601
vertex 12.9103374481 3.45443129539 -155.780990601
endloop
endfacet
facet normal 0.0 0.0 1.0
outer loop
vertex 15.9591779709 2.98011064529 -155.761001587
vertex 15.9506473541 2.93084383011 -155.761001587
vertex 18.9797801971 2.35274600983 -155.761001587
endloop
endfacet
facet normal 0.0 0.0 1.0
outer loop
vertex 15.9591779709 2.98011064529 -155.761001587
vertex 18.9797801971 2.35274600983 -155.761001587
vertex 18.9899940491 2.4016919136 -155.761001587
endloop
endfacet
facet normal 0.0 0.0 1.0
outer loop
vertex 12.9103374481 3.45443129539 -155.761001587
vertex 12.9034986496 3.4049012661 -155.761001587
vertex 15.9506473541 2.93084383011 -155.761001587
endloop
endfacet
facet normal 0.0 0.0 1.0
outer loop
vertex 12.9103374481 3.45443129539 -155.761001587
vertex 15.9506473541 2.93084383011 -155.761001587
vertex 15.9591779709 2.98011064529 -155.761001587
endloop
endfacet
facet normal 0.0 0.0 1.0
outer loop
vertex 9.84704589844 3.82409763336 -155.761001587
vertex 9.84190654755 3.77436232567 -155.761001587
vertex 12.9034986496 3.4049012661 -155.761001587
endloop
endfacet
facet normal 0.0 0.0 1.0
outer loop
vertex 9.84704589844 3.82409763336 -155.761001587
vertex 12.9034986496 3.4049012661 -155.761001587
vertex 12.9103374481 3.45443129539 -155.761001587
endloop
endfacet
