solid 
facet normal 0.119806744158 0.992797255516 0.0
outer loop
vertex 12.9103250504 3.45443296432 -213.537002563
vertex 9.84703350067 3.82409858704 -213.537002563
vertex 9.84703350067 3.82409858704 -213.516998291
endloop
endfacet
facet normal 0.119806744158 0.992797255516 -0.0
outer loop
vertex 12.9103250504 3.45443296432 -213.537002563
vertex 9.84703350067 3.82409858704 -213.516998291
vertex 12.9103250504 3.45443296432 -213.516998291
endloop
endfacet
facet normal 0.15372467041 0.988113701344 -0.0
outer loop
vertex 15.9591655731 2.98011302948 -213.537002563
vertex 12.9103250504 3.45443296432 -213.516998291
vertex 15.9591655731 2.98011302948 -213.516998291
endloop
endfacet
facet normal 0.187462419271 0.982271790504 -0.0
outer loop
vertex 15.9591655731 2.98011302948 -213.537002563
vertex 15.9591655731 2.98011302948 -213.516998291
vertex 18.9899806976 2.40169477463 -213.516998291
endloop
endfacet
facet normal 0.15372467041 0.988113701344 0.0
outer loop
vertex 15.9591655731 2.98011302948 -213.537002563
vertex 12.9103250504 3.45443296432 -213.537002563
vertex 12.9103250504 3.45443296432 -213.516998291
endloop
endfacet
facet normal 0.187462419271 0.982271790504 -0.0
outer loop
vertex 18.9899806976 2.40169477463 -213.537002563
vertex 15.9591655731 2.98011302948 -213.537002563
vertex 18.9899806976 2.40169477463 -213.516998291
endloop
endfacet
facet normal 0.978920936584 -0.204239472747 0.0
outer loop
vertex 18.9797687531 2.35274887085 -213.516998291
vertex 18.9899806976 2.40169477463 -213.537002563
vertex 18.9899806976 2.40169477463 -213.516998291
endloop
endfacet
facet normal 0.978920936584 -0.204239472747 0.0
outer loop
vertex 18.9797687531 2.35274887085 -213.537002563
vertex 18.9899806976 2.40169477463 -213.537002563
vertex 18.9797687531 2.35274887085 -213.516998291
endloop
endfacet
facet normal -0.119806796312 -0.992797195911 -0.0
outer loop
vertex 9.84189414978 3.77436351776 -213.516998291
vertex 9.84189414978 3.77436351776 -213.537002563
vertex 12.9034852982 3.40490293503 -213.516998291
endloop
endfacet
facet normal -0.119806796312 -0.992797195911 0.0
outer loop
vertex 9.84189414978 3.77436351776 -213.537002563
vertex 12.9034852982 3.40490293503 -213.537002563
vertex 12.9034852982 3.40490293503 -213.516998291
endloop
endfacet
facet normal -0.153724625707 -0.988113701344 0.0
outer loop
vertex 12.9034852982 3.40490293503 -213.516998291
vertex 15.9506349564 2.93084621429 -213.537002563
vertex 15.9506349564 2.93084621429 -213.516998291
endloop
endfacet
facet normal -0.153724625707 -0.988113701344 0.0
outer loop
vertex 12.9034852982 3.40490293503 -213.537002563
vertex 15.9506349564 2.93084621429 -213.537002563
vertex 12.9034852982 3.40490293503 -213.516998291
endloop
endfacet
facet normal -0.18746240437 -0.982271790504 0.0
outer loop
vertex 15.9506349564 2.93084621429 -213.516998291
vertex 18.9797687531 2.35274887085 -213.537002563
vertex 18.9797687531 2.35274887085 -213.516998291
endloop
endfacet
facet normal -0.18746240437 -0.982271790504 0.0
outer loop
vertex 15.9506349564 2.93084621429 -213.537002563
vertex 18.9797687531 2.35274887085 -213.537002563
vertex 15.9506349564 2.93084621429 -213.516998291
endloop
endfacet
facet normal -0.994703412056 0.102787226439 0.0
outer loop
vertex 9.84703350067 3.82409858704 -213.516998291
vertex 9.84189414978 3.77436351776 -213.537002563
vertex 9.84189414978 3.77436351776 -213.516998291
endloop
endfacet
facet normal -0.994703412056 0.102787226439 0.0
outer loop
vertex 9.84703350067 3.82409858704 -213.537002563
vertex 9.84189414978 3.77436351776 -213.537002563
vertex 9.84703350067 3.82409858704 -213.516998291
endloop
endfacet
facet normal 0.0 0.0 -1.0
outer loop
vertex 15.9506349564 2.93084621429 -213.537002563
vertex 15.9591655731 2.98011302948 -213.537002563
vertex 18.9797687531 2.35274887085 -213.537002563
endloop
endfacet
facet normal 0.0 0.0 -1.0
outer loop
vertex 18.9797687531 2.35274887085 -213.537002563
vertex 15.9591655731 2.98011302948 -213.537002563
vertex 18.9899806976 2.40169477463 -213.537002563
endloop
endfacet
facet normal 0.0 0.0 -1.0
outer loop
vertex 12.9034852982 3.40490293503 -213.537002563
vertex 12.9103250504 3.45443296432 -213.537002563
vertex 15.9506349564 2.93084621429 -213.537002563
endloop
endfacet
facet normal 0.0 0.0 -1.0
outer loop
vertex 15.9506349564 2.93084621429 -213.537002563
vertex 12.9103250504 3.45443296432 -213.537002563
vertex 15.9591655731 2.98011302948 -213.537002563
endloop
endfacet
facet normal 0.0 0.0 -1.0
outer loop
vertex 9.84189414978 3.77436351776 -213.537002563
vertex 9.84703350067 3.82409858704 -213.537002563
vertex 12.9034852982 3.40490293503 -213.537002563
endloop
endfacet
facet normal 0.0 0.0 -1.0
outer loop
vertex 12.9034852982 3.40490293503 -213.537002563
vertex 9.84703350067 3.82409858704 -213.537002563
vertex 12.9103250504 3.45443296432 -213.537002563
endloop
endfacet
facet normal 0.0 0.0 1.0
outer loop
vertex 15.9591655731 2.98011302948 -213.516998291
vertex 15.9506349564 2.93084621429 -213.516998291
vertex 18.9797687531 2.35274887085 -213.516998291
endloop
endfacet
facet normal 0.0 0.0 1.0
outer loop
vertex 15.9591655731 2.98011302948 -213.516998291
vertex 18.9797687531 2.35274887085 -213.516998291
vertex 18.9899806976 2.40169477463 -213.516998291
endloop
endfacet
facet normal 0.0 0.0 1.0
outer loop
vertex 12.9103250504 3.45443296432 -213.516998291
vertex 12.9034852982 3.40490293503 -213.516998291
vertex 15.9506349564 2.93084621429 -213.516998291
endloop
endfacet
facet normal 0.0 0.0 1.0
outer loop
vertex 12.9103250504 3.45443296432 -213.516998291
vertex 15.9506349564 2.93084621429 -213.516998291
vertex 15.9591655731 2.98011302948 -213.516998291
endloop
endfacet
facet normal 0.0 0.0 1.0
outer loop
vertex 9.84703350067 3.82409858704 -213.516998291
vertex 9.84189414978 3.77436351776 -213.516998291
vertex 12.9034852982 3.40490293503 -213.516998291
endloop
endfacet
facet normal 0.0 0.0 1.0
outer loop
vertex 9.84703350067 3.82409858704 -213.516998291
vertex 12.9034852982 3.40490293503 -213.516998291
vertex 12.9103250504 3.45443296432 -213.516998291
endloop
endfacet
