solid 
facet normal 0.017370197922 0.999849200249 0.0
outer loop
vertex 3.69147658348 4.24785757065 71.7200012207
vertex 0.6064260602 4.30145359039 71.7200012207
vertex 0.6064260602 4.30145359039 71.7399978638
endloop
endfacet
facet normal 0.017370197922 0.999849200249 -0.0
outer loop
vertex 3.69147658348 4.24785757065 71.7200012207
vertex 0.6064260602 4.30145359039 71.7399978638
vertex 3.69147658348 4.24785757065 71.7399978638
endloop
endfacet
facet normal 0.0515896417201 0.998668372631 -0.0
outer loop
vertex 6.77288341522 4.08867692947 71.7200012207
vertex 3.69147658348 4.24785757065 71.7399978638
vertex 6.77288341522 4.08867692947 71.7399978638
endloop
endfacet
facet normal 0.0857484042645 0.996316850185 -0.0
outer loop
vertex 6.77288341522 4.08867692947 71.7200012207
vertex 6.77288341522 4.08867692947 71.7399978638
vertex 9.84703540802 3.82409882545 71.7399978638
endloop
endfacet
facet normal 0.0515896417201 0.998668372631 0.0
outer loop
vertex 6.77288341522 4.08867692947 71.7200012207
vertex 3.69147658348 4.24785757065 71.7200012207
vertex 3.69147658348 4.24785757065 71.7399978638
endloop
endfacet
facet normal 0.0857484042645 0.996316850185 -0.0
outer loop
vertex 9.84703540802 3.82409882545 71.7200012207
vertex 6.77288341522 4.08867692947 71.7200012207
vertex 9.84703540802 3.82409882545 71.7399978638
endloop
endfacet
facet normal 0.994701385498 -0.102806091309 0.0
outer loop
vertex 9.84189510345 3.77436375618 71.7399978638
vertex 9.84703540802 3.82409882545 71.7200012207
vertex 9.84703540802 3.82409882545 71.7399978638
endloop
endfacet
facet normal 0.994701385498 -0.102806091309 0.0
outer loop
vertex 9.84189510345 3.77436375618 71.7200012207
vertex 9.84703540802 3.82409882545 71.7200012207
vertex 9.84189510345 3.77436375618 71.7399978638
endloop
endfacet
facet normal -0.0173700992018 -0.999849140644 -0.0
outer loop
vertex 0.606413543224 4.25145339966 71.7399978638
vertex 0.606413543224 4.25145339966 71.7200012207
vertex 3.6897521019 4.19788742065 71.7399978638
endloop
endfacet
facet normal -0.0173700992018 -0.999849140644 0.0
outer loop
vertex 0.606413543224 4.25145339966 71.7200012207
vertex 3.6897521019 4.19788742065 71.7200012207
vertex 3.6897521019 4.19788742065 71.7399978638
endloop
endfacet
facet normal -0.0515896677971 -0.998668372631 0.0
outer loop
vertex 3.6897521019 4.19788742065 71.7399978638
vertex 6.76944971085 4.03879499435 71.7200012207
vertex 6.76944971085 4.03879499435 71.7399978638
endloop
endfacet
facet normal -0.0515896677971 -0.998668372631 0.0
outer loop
vertex 3.6897521019 4.19788742065 71.7200012207
vertex 6.76944971085 4.03879499435 71.7200012207
vertex 3.6897521019 4.19788742065 71.7399978638
endloop
endfacet
facet normal -0.0857484042645 -0.996316790581 0.0
outer loop
vertex 6.76944971085 4.03879499435 71.7399978638
vertex 9.84189510345 3.77436375618 71.7200012207
vertex 9.84189510345 3.77436375618 71.7399978638
endloop
endfacet
facet normal -0.0857484042645 -0.996316790581 0.0
outer loop
vertex 6.76944971085 4.03879499435 71.7200012207
vertex 9.84189510345 3.77436375618 71.7200012207
vertex 6.76944971085 4.03879499435 71.7399978638
endloop
endfacet
facet normal -1.0 0.00025033854763 0.0
outer loop
vertex 0.6064260602 4.30145359039 71.7399978638
vertex 0.606413543224 4.25145339966 71.7200012207
vertex 0.606413543224 4.25145339966 71.7399978638
endloop
endfacet
facet normal -1.0 0.00025033854763 0.0
outer loop
vertex 0.6064260602 4.30145359039 71.7200012207
vertex 0.606413543224 4.25145339966 71.7200012207
vertex 0.6064260602 4.30145359039 71.7399978638
endloop
endfacet
facet normal 0.0 0.0 -1.0
outer loop
vertex 9.84189510345 3.77436375618 71.7200012207
vertex 6.76944971085 4.03879499435 71.7200012207
vertex 9.84703540802 3.82409882545 71.7200012207
endloop
endfacet
facet normal 0.0 0.0 -1.0
outer loop
vertex 6.76944971085 4.03879499435 71.7200012207
vertex 6.77288341522 4.08867692947 71.7200012207
vertex 9.84703540802 3.82409882545 71.7200012207
endloop
endfacet
facet normal 0.0 0.0 -1.0
outer loop
vertex 6.76944971085 4.03879499435 71.7200012207
vertex 3.6897521019 4.19788742065 71.7200012207
vertex 6.77288341522 4.08867692947 71.7200012207
endloop
endfacet
facet normal 0.0 0.0 -1.0
outer loop
vertex 3.6897521019 4.19788742065 71.7200012207
vertex 3.69147658348 4.24785757065 71.7200012207
vertex 6.77288341522 4.08867692947 71.7200012207
endloop
endfacet
facet normal 0.0 0.0 -1.0
outer loop
vertex 3.6897521019 4.19788742065 71.7200012207
vertex 0.606413543224 4.25145339966 71.7200012207
vertex 3.69147658348 4.24785757065 71.7200012207
endloop
endfacet
facet normal 0.0 0.0 -1.0
outer loop
vertex 0.606413543224 4.25145339966 71.7200012207
vertex 0.6064260602 4.30145359039 71.7200012207
vertex 3.69147658348 4.24785757065 71.7200012207
endloop
endfacet
facet normal 0.0 0.0 1.0
outer loop
vertex 6.76944971085 4.03879499435 71.7399978638
vertex 9.84189510345 3.77436375618 71.7399978638
vertex 9.84703540802 3.82409882545 71.7399978638
endloop
endfacet
facet normal 0.0 0.0 1.0
outer loop
vertex 6.77288341522 4.08867692947 71.7399978638
vertex 6.76944971085 4.03879499435 71.7399978638
vertex 9.84703540802 3.82409882545 71.7399978638
endloop
endfacet
facet normal 0.0 0.0 1.0
outer loop
vertex 3.69147658348 4.24785757065 71.7399978638
vertex 3.6897521019 4.19788742065 71.7399978638
vertex 6.76944971085 4.03879499435 71.7399978638
endloop
endfacet
facet normal 0.0 0.0 1.0
outer loop
vertex 3.69147658348 4.24785757065 71.7399978638
vertex 6.76944971085 4.03879499435 71.7399978638
vertex 6.77288341522 4.08867692947 71.7399978638
endloop
endfacet
facet normal 0.0 0.0 1.0
outer loop
vertex 0.6064260602 4.30145359039 71.7399978638
vertex 0.606413543224 4.25145339966 71.7399978638
vertex 3.6897521019 4.19788742065 71.7399978638
endloop
endfacet
facet normal 0.0 0.0 1.0
outer loop
vertex 0.6064260602 4.30145359039 71.7399978638
vertex 3.6897521019 4.19788742065 71.7399978638
vertex 3.69147658348 4.24785757065 71.7399978638
endloop
endfacet
