solid 
facet normal -0.119806975126 -0.992797195911 0.0
outer loop
vertex -9.84704971313 -3.82409691811 -116.072006226
vertex -9.84704971313 -3.82409691811 -116.052001953
vertex -12.9103412628 -3.45443058014 -116.052001953
endloop
endfacet
facet normal -0.153724968433 -0.988113641739 0.0
outer loop
vertex -12.9103412628 -3.45443058014 -116.072006226
vertex -12.9103412628 -3.45443058014 -116.052001953
vertex -15.9591817856 -2.98010969162 -116.052001953
endloop
endfacet
facet normal -0.119806975126 -0.992797195911 0.0
outer loop
vertex -12.9103412628 -3.45443058014 -116.072006226
vertex -9.84704971313 -3.82409691811 -116.072006226
vertex -12.9103412628 -3.45443058014 -116.052001953
endloop
endfacet
facet normal -0.153724968433 -0.988113641739 0.0
outer loop
vertex -15.9591817856 -2.98010969162 -116.072006226
vertex -12.9103412628 -3.45443058014 -116.072006226
vertex -15.9591817856 -2.98010969162 -116.052001953
endloop
endfacet
facet normal -0.187462508678 -0.982271790504 0.0
outer loop
vertex -18.9899978638 -2.40169095993 -116.072006226
vertex -15.9591817856 -2.98010969162 -116.052001953
vertex -18.9899978638 -2.40169095993 -116.052001953
endloop
endfacet
facet normal -0.187462508678 -0.982271790504 0.0
outer loop
vertex -18.9899978638 -2.40169095993 -116.072006226
vertex -15.9591817856 -2.98010969162 -116.072006226
vertex -15.9591817856 -2.98010969162 -116.052001953
endloop
endfacet
facet normal -0.97891330719 0.204276025295 0.0
outer loop
vertex -18.9899978638 -2.40169095993 -116.052001953
vertex -18.9797840118 -2.35274505615 -116.072006226
vertex -18.9899978638 -2.40169095993 -116.072006226
endloop
endfacet
facet normal -0.97891330719 0.204276025295 0.0
outer loop
vertex -18.9899978638 -2.40169095993 -116.052001953
vertex -18.9797840118 -2.35274505615 -116.052001953
vertex -18.9797840118 -2.35274505615 -116.072006226
endloop
endfacet
facet normal 0.119806997478 0.992797195911 0.0
outer loop
vertex -9.84191036224 -3.77436184883 -116.052001953
vertex -9.84191036224 -3.77436184883 -116.072006226
vertex -12.9035024643 -3.40490055084 -116.052001953
endloop
endfacet
facet normal 0.153724983335 0.988113701344 0.0
outer loop
vertex -12.9035024643 -3.40490055084 -116.052001953
vertex -12.9035024643 -3.40490055084 -116.072006226
vertex -15.9506511688 -2.93084287643 -116.052001953
endloop
endfacet
facet normal 0.119806997478 0.992797195911 0.0
outer loop
vertex -9.84191036224 -3.77436184883 -116.072006226
vertex -12.9035024643 -3.40490055084 -116.072006226
vertex -12.9035024643 -3.40490055084 -116.052001953
endloop
endfacet
facet normal 0.153724983335 0.988113701344 0.0
outer loop
vertex -12.9035024643 -3.40490055084 -116.072006226
vertex -15.9506511688 -2.93084287643 -116.072006226
vertex -15.9506511688 -2.93084287643 -116.052001953
endloop
endfacet
facet normal 0.187462598085 0.9822717309 0.0
outer loop
vertex -15.9506511688 -2.93084287643 -116.052001953
vertex -18.9797840118 -2.35274505615 -116.072006226
vertex -18.9797840118 -2.35274505615 -116.052001953
endloop
endfacet
facet normal 0.187462598085 0.9822717309 -0.0
outer loop
vertex -15.9506511688 -2.93084287643 -116.072006226
vertex -18.9797840118 -2.35274505615 -116.072006226
vertex -15.9506511688 -2.93084287643 -116.052001953
endloop
endfacet
facet normal 0.994703412056 -0.102787226439 0.0
outer loop
vertex -9.84191036224 -3.77436184883 -116.072006226
vertex -9.84704971313 -3.82409691811 -116.052001953
vertex -9.84704971313 -3.82409691811 -116.072006226
endloop
endfacet
facet normal 0.994703412056 -0.102787226439 0.0
outer loop
vertex -9.84191036224 -3.77436184883 -116.052001953
vertex -9.84704971313 -3.82409691811 -116.052001953
vertex -9.84191036224 -3.77436184883 -116.072006226
endloop
endfacet
facet normal 0.0 0.0 1.0
outer loop
vertex -15.9506511688 -2.93084287643 -116.052001953
vertex -18.9797840118 -2.35274505615 -116.052001953
vertex -18.9899978638 -2.40169095993 -116.052001953
endloop
endfacet
facet normal 0.0 -0.0 1.0
outer loop
vertex -15.9591817856 -2.98010969162 -116.052001953
vertex -15.9506511688 -2.93084287643 -116.052001953
vertex -18.9899978638 -2.40169095993 -116.052001953
endloop
endfacet
facet normal 0.0 0.0 1.0
outer loop
vertex -12.9035024643 -3.40490055084 -116.052001953
vertex -15.9506511688 -2.93084287643 -116.052001953
vertex -15.9591817856 -2.98010969162 -116.052001953
endloop
endfacet
facet normal 0.0 -0.0 1.0
outer loop
vertex -12.9103412628 -3.45443058014 -116.052001953
vertex -12.9035024643 -3.40490055084 -116.052001953
vertex -15.9591817856 -2.98010969162 -116.052001953
endloop
endfacet
facet normal 0.0 0.0 1.0
outer loop
vertex -9.84191036224 -3.77436184883 -116.052001953
vertex -12.9035024643 -3.40490055084 -116.052001953
vertex -12.9103412628 -3.45443058014 -116.052001953
endloop
endfacet
facet normal 0.0 -0.0 1.0
outer loop
vertex -9.84704971313 -3.82409691811 -116.052001953
vertex -9.84191036224 -3.77436184883 -116.052001953
vertex -12.9103412628 -3.45443058014 -116.052001953
endloop
endfacet
facet normal 0.0 -0.0 -1.0
outer loop
vertex -18.9797840118 -2.35274505615 -116.072006226
vertex -15.9506511688 -2.93084287643 -116.072006226
vertex -18.9899978638 -2.40169095993 -116.072006226
endloop
endfacet
facet normal -0.0 0.0 -1.0
outer loop
vertex -15.9506511688 -2.93084287643 -116.072006226
vertex -15.9591817856 -2.98010969162 -116.072006226
vertex -18.9899978638 -2.40169095993 -116.072006226
endloop
endfacet
facet normal 0.0 -0.0 -1.0
outer loop
vertex -15.9506511688 -2.93084287643 -116.072006226
vertex -12.9035024643 -3.40490055084 -116.072006226
vertex -15.9591817856 -2.98010969162 -116.072006226
endloop
endfacet
facet normal -0.0 0.0 -1.0
outer loop
vertex -12.9035024643 -3.40490055084 -116.072006226
vertex -12.9103412628 -3.45443058014 -116.072006226
vertex -15.9591817856 -2.98010969162 -116.072006226
endloop
endfacet
facet normal 0.0 -0.0 -1.0
outer loop
vertex -12.9035024643 -3.40490055084 -116.072006226
vertex -9.84191036224 -3.77436184883 -116.072006226
vertex -12.9103412628 -3.45443058014 -116.072006226
endloop
endfacet
facet normal -0.0 0.0 -1.0
outer loop
vertex -9.84191036224 -3.77436184883 -116.072006226
vertex -9.84704971313 -3.82409691811 -116.072006226
vertex -12.9103412628 -3.45443058014 -116.072006226
endloop
endfacet
