solid 
facet normal 0.0173703525215 -0.999849200249 0.0
outer loop
vertex 3.69148182869 -4.24785709381 -90.7950057983
vertex 0.606431543827 -4.30145359039 -90.7950057983
vertex 0.606431543827 -4.30145359039 -90.8150024414
endloop
endfacet
facet normal 0.0173703525215 -0.999849200249 0.0
outer loop
vertex 3.69148182869 -4.24785709381 -90.7950057983
vertex 0.606431543827 -4.30145359039 -90.8150024414
vertex 3.69148182869 -4.24785709381 -90.8150024414
endloop
endfacet
facet normal 0.0515896342695 -0.998668372631 0.0
outer loop
vertex 6.77288913727 -4.08867645264 -90.7950057983
vertex 3.69148182869 -4.24785709381 -90.8150024414
vertex 6.77288913727 -4.08867645264 -90.8150024414
endloop
endfacet
facet normal 0.085748501122 -0.996316790581 0.0
outer loop
vertex 6.77288913727 -4.08867645264 -90.7950057983
vertex 6.77288913727 -4.08867645264 -90.8150024414
vertex 9.84704017639 -3.8240981102 -90.8150024414
endloop
endfacet
facet normal 0.0515896342695 -0.998668372631 0.0
outer loop
vertex 6.77288913727 -4.08867645264 -90.7950057983
vertex 3.69148182869 -4.24785709381 -90.7950057983
vertex 3.69148182869 -4.24785709381 -90.8150024414
endloop
endfacet
facet normal 0.085748501122 -0.996316790581 0.0
outer loop
vertex 9.84704017639 -3.8240981102 -90.7950057983
vertex 6.77288913727 -4.08867645264 -90.7950057983
vertex 9.84704017639 -3.8240981102 -90.8150024414
endloop
endfacet
facet normal 0.994703352451 0.102787218988 0.0
outer loop
vertex 9.8419008255 -3.77436304092 -90.8150024414
vertex 9.84704017639 -3.8240981102 -90.7950057983
vertex 9.84704017639 -3.8240981102 -90.8150024414
endloop
endfacet
facet normal 0.994703352451 0.102787218988 0.0
outer loop
vertex 9.8419008255 -3.77436304092 -90.7950057983
vertex 9.84704017639 -3.8240981102 -90.7950057983
vertex 9.8419008255 -3.77436304092 -90.8150024414
endloop
endfacet
facet normal -0.0173702538013 0.999849140644 0.0
outer loop
vertex 0.606419026852 -4.25145339966 -90.8150024414
vertex 0.606419026852 -4.25145339966 -90.7949981689
vertex 3.68975758553 -4.19788694382 -90.8150024414
endloop
endfacet
facet normal -0.0173702538013 0.999849140644 0.0
outer loop
vertex 0.606419026852 -4.25145339966 -90.7949981689
vertex 3.68975758553 -4.19788694382 -90.7950057983
vertex 3.68975758553 -4.19788694382 -90.8150024414
endloop
endfacet
facet normal -0.0515896715224 0.998668372631 0.0
outer loop
vertex 3.68975758553 -4.19788694382 -90.8150024414
vertex 6.76945495605 -4.03879451752 -90.7950057983
vertex 6.76945495605 -4.03879451752 -90.8150024414
endloop
endfacet
facet normal -0.0515896715224 0.998668372631 0.0
outer loop
vertex 3.68975758553 -4.19788694382 -90.7950057983
vertex 6.76945495605 -4.03879451752 -90.7950057983
vertex 3.68975758553 -4.19788694382 -90.8150024414
endloop
endfacet
facet normal -0.0857484638691 0.996316790581 0.0
outer loop
vertex 6.76945495605 -4.03879451752 -90.8150024414
vertex 9.8419008255 -3.77436304092 -90.7950057983
vertex 9.8419008255 -3.77436304092 -90.8150024414
endloop
endfacet
facet normal -0.0857484638691 0.996316790581 0.0
outer loop
vertex 6.76945495605 -4.03879451752 -90.7950057983
vertex 9.8419008255 -3.77436304092 -90.7950057983
vertex 6.76945495605 -4.03879451752 -90.8150024414
endloop
endfacet
facet normal -0.999999880791 -0.000250338518526 0.0
outer loop
vertex 0.606431543827 -4.30145359039 -90.7950057983
vertex 0.606419026852 -4.25145339966 -90.7949981689
vertex 0.606419026852 -4.25145339966 -90.8150024414
endloop
endfacet
facet normal -1.0 -0.00025033854763 -0.0
outer loop
vertex 0.606431543827 -4.30145359039 -90.7950057983
vertex 0.606419026852 -4.25145339966 -90.8150024414
vertex 0.606431543827 -4.30145359039 -90.8150024414
endloop
endfacet
facet normal 0.0 0.0 1.0
outer loop
vertex 9.8419008255 -3.77436304092 -90.7950057983
vertex 6.76945495605 -4.03879451752 -90.7950057983
vertex 9.84704017639 -3.8240981102 -90.7950057983
endloop
endfacet
facet normal -0.0 0.0 1.0
outer loop
vertex 6.76945495605 -4.03879451752 -90.7950057983
vertex 6.77288913727 -4.08867645264 -90.7950057983
vertex 9.84704017639 -3.8240981102 -90.7950057983
endloop
endfacet
facet normal 0.0 0.0 1.0
outer loop
vertex 6.76945495605 -4.03879451752 -90.7950057983
vertex 3.68975758553 -4.19788694382 -90.7950057983
vertex 6.77288913727 -4.08867645264 -90.7950057983
endloop
endfacet
facet normal -0.0 0.0 1.0
outer loop
vertex 3.68975758553 -4.19788694382 -90.7950057983
vertex 3.69148182869 -4.24785709381 -90.7950057983
vertex 6.77288913727 -4.08867645264 -90.7950057983
endloop
endfacet
facet normal 2.47291154665e-06 8.53289634506e-08 1.0
outer loop
vertex 3.68975758553 -4.19788694382 -90.7950057983
vertex 0.606419026852 -4.25145339966 -90.7949981689
vertex 3.69148182869 -4.24785709381 -90.7950057983
endloop
endfacet
facet normal 2.65088374363e-06 -0.00015258663916 1.0
outer loop
vertex 0.606419026852 -4.25145339966 -90.7949981689
vertex 0.606431543827 -4.30145359039 -90.7950057983
vertex 3.69148182869 -4.24785709381 -90.7950057983
endloop
endfacet
facet normal 0.0 0.0 -1.0
outer loop
vertex 6.77288913727 -4.08867645264 -90.8150024414
vertex 6.76945495605 -4.03879451752 -90.8150024414
vertex 9.8419008255 -3.77436304092 -90.8150024414
endloop
endfacet
facet normal 0.0 0.0 -1.0
outer loop
vertex 6.77288913727 -4.08867645264 -90.8150024414
vertex 9.8419008255 -3.77436304092 -90.8150024414
vertex 9.84704017639 -3.8240981102 -90.8150024414
endloop
endfacet
facet normal 0.0 0.0 -1.0
outer loop
vertex 3.69148182869 -4.24785709381 -90.8150024414
vertex 3.68975758553 -4.19788694382 -90.8150024414
vertex 6.76945495605 -4.03879451752 -90.8150024414
endloop
endfacet
facet normal 0.0 0.0 -1.0
outer loop
vertex 3.69148182869 -4.24785709381 -90.8150024414
vertex 6.76945495605 -4.03879451752 -90.8150024414
vertex 6.77288913727 -4.08867645264 -90.8150024414
endloop
endfacet
facet normal 0.0 0.0 -1.0
outer loop
vertex 0.606431543827 -4.30145359039 -90.8150024414
vertex 0.606419026852 -4.25145339966 -90.8150024414
vertex 3.68975758553 -4.19788694382 -90.8150024414
endloop
endfacet
facet normal 0.0 0.0 -1.0
outer loop
vertex 0.606431543827 -4.30145359039 -90.8150024414
vertex 3.68975758553 -4.19788694382 -90.8150024414
vertex 3.69148182869 -4.24785709381 -90.8150024414
endloop
endfacet
