solid 
facet normal -0.119806751609 0.992797255516 0.0
outer loop
vertex -12.9103221893 3.45443344116 -224.350006104
vertex -9.84703063965 3.82409906387 -224.350006104
vertex -9.84703063965 3.82409906387 -224.369995117
endloop
endfacet
facet normal -0.119806751609 0.992797255516 0.0
outer loop
vertex -12.9103221893 3.45443344116 -224.350006104
vertex -9.84703063965 3.82409906387 -224.369995117
vertex -12.9103221893 3.45443344116 -224.369995117
endloop
endfacet
facet normal -0.153724685311 0.988113701344 0.0
outer loop
vertex -15.9591627121 2.98011350632 -224.350006104
vertex -12.9103221893 3.45443344116 -224.369995117
vertex -15.9591627121 2.98011350632 -224.369995117
endloop
endfacet
facet normal -0.153724685311 0.988113701344 0.0
outer loop
vertex -15.9591627121 2.98011350632 -224.350006104
vertex -12.9103221893 3.45443344116 -224.350006104
vertex -12.9103221893 3.45443344116 -224.369995117
endloop
endfacet
facet normal -0.187462478876 0.982271790504 0.0
outer loop
vertex -18.9899768829 2.40169525146 -224.350006104
vertex -15.9591627121 2.98011350632 -224.369995117
vertex -18.9899768829 2.40169525146 -224.369995117
endloop
endfacet
facet normal -0.187462478876 0.982271790504 0.0
outer loop
vertex -18.9899768829 2.40169525146 -224.350006104
vertex -15.9591627121 2.98011350632 -224.350006104
vertex -15.9591627121 2.98011350632 -224.369995117
endloop
endfacet
facet normal -0.978920936584 -0.204239487648 0.0
outer loop
vertex -18.9899768829 2.40169525146 -224.350006104
vertex -18.9797649384 2.35274934769 -224.369995117
vertex -18.9797649384 2.35274934769 -224.350006104
endloop
endfacet
facet normal -0.978920936584 -0.204239487648 0.0
outer loop
vertex -18.9899768829 2.40169525146 -224.369995117
vertex -18.9797649384 2.35274934769 -224.369995117
vertex -18.9899768829 2.40169525146 -224.350006104
endloop
endfacet
facet normal 0.11980676651 -0.992797195911 0.0
outer loop
vertex -9.84189033508 3.7743639946 -224.369995117
vertex -9.84189033508 3.7743639946 -224.350006104
vertex -12.9034824371 3.40490341187 -224.369995117
endloop
endfacet
facet normal 0.11980676651 -0.992797195911 0.0
outer loop
vertex -9.84189033508 3.7743639946 -224.350006104
vertex -12.9034824371 3.40490341187 -224.350006104
vertex -12.9034824371 3.40490341187 -224.369995117
endloop
endfacet
facet normal 0.15372467041 -0.988113701344 0.0
outer loop
vertex -12.9034824371 3.40490341187 -224.369995117
vertex -15.9506311417 2.93084669113 -224.350006104
vertex -15.9506311417 2.93084669113 -224.369995117
endloop
endfacet
facet normal 0.15372467041 -0.988113701344 0.0
outer loop
vertex -12.9034824371 3.40490341187 -224.350006104
vertex -15.9506311417 2.93084669113 -224.350006104
vertex -12.9034824371 3.40490341187 -224.369995117
endloop
endfacet
facet normal 0.18746240437 -0.982271790504 0.0
outer loop
vertex -15.9506311417 2.93084669113 -224.369995117
vertex -18.9797649384 2.35274934769 -224.350006104
vertex -18.9797649384 2.35274934769 -224.369995117
endloop
endfacet
facet normal 0.18746240437 -0.982271790504 0.0
outer loop
vertex -15.9506311417 2.93084669113 -224.350006104
vertex -18.9797649384 2.35274934769 -224.350006104
vertex -15.9506311417 2.93084669113 -224.369995117
endloop
endfacet
facet normal 0.994701385498 0.102806091309 -0.0
outer loop
vertex -9.84189033508 3.7743639946 -224.369995117
vertex -9.84703063965 3.82409906387 -224.350006104
vertex -9.84189033508 3.7743639946 -224.350006104
endloop
endfacet
facet normal 0.994701385498 0.102806091309 0.0
outer loop
vertex -9.84189033508 3.7743639946 -224.369995117
vertex -9.84703063965 3.82409906387 -224.369995117
vertex -9.84703063965 3.82409906387 -224.350006104
endloop
endfacet
facet normal 0.0 -0.0 -1.0
outer loop
vertex -15.9591627121 2.98011350632 -224.369995117
vertex -15.9506311417 2.93084669113 -224.369995117
vertex -18.9797649384 2.35274934769 -224.369995117
endloop
endfacet
facet normal 0.0 0.0 -1.0
outer loop
vertex -15.9591627121 2.98011350632 -224.369995117
vertex -18.9797649384 2.35274934769 -224.369995117
vertex -18.9899768829 2.40169525146 -224.369995117
endloop
endfacet
facet normal 0.0 -0.0 -1.0
outer loop
vertex -12.9103221893 3.45443344116 -224.369995117
vertex -12.9034824371 3.40490341187 -224.369995117
vertex -15.9506311417 2.93084669113 -224.369995117
endloop
endfacet
facet normal 0.0 0.0 -1.0
outer loop
vertex -12.9103221893 3.45443344116 -224.369995117
vertex -15.9506311417 2.93084669113 -224.369995117
vertex -15.9591627121 2.98011350632 -224.369995117
endloop
endfacet
facet normal 0.0 -0.0 -1.0
outer loop
vertex -9.84703063965 3.82409906387 -224.369995117
vertex -9.84189033508 3.7743639946 -224.369995117
vertex -12.9034824371 3.40490341187 -224.369995117
endloop
endfacet
facet normal 0.0 0.0 -1.0
outer loop
vertex -9.84703063965 3.82409906387 -224.369995117
vertex -12.9034824371 3.40490341187 -224.369995117
vertex -12.9103221893 3.45443344116 -224.369995117
endloop
endfacet
facet normal 0.0 0.0 1.0
outer loop
vertex -15.9506311417 2.93084669113 -224.350006104
vertex -15.9591627121 2.98011350632 -224.350006104
vertex -18.9797649384 2.35274934769 -224.350006104
endloop
endfacet
facet normal 0.0 -0.0 1.0
outer loop
vertex -18.9797649384 2.35274934769 -224.350006104
vertex -15.9591627121 2.98011350632 -224.350006104
vertex -18.9899768829 2.40169525146 -224.350006104
endloop
endfacet
facet normal 0.0 0.0 1.0
outer loop
vertex -12.9034824371 3.40490341187 -224.350006104
vertex -12.9103221893 3.45443344116 -224.350006104
vertex -15.9506311417 2.93084669113 -224.350006104
endloop
endfacet
facet normal 0.0 -0.0 1.0
outer loop
vertex -15.9506311417 2.93084669113 -224.350006104
vertex -12.9103221893 3.45443344116 -224.350006104
vertex -15.9591627121 2.98011350632 -224.350006104
endloop
endfacet
facet normal 0.0 0.0 1.0
outer loop
vertex -9.84189033508 3.7743639946 -224.350006104
vertex -9.84703063965 3.82409906387 -224.350006104
vertex -12.9034824371 3.40490341187 -224.350006104
endloop
endfacet
facet normal 0.0 -0.0 1.0
outer loop
vertex -12.9034824371 3.40490341187 -224.350006104
vertex -9.84703063965 3.82409906387 -224.350006104
vertex -12.9103221893 3.45443344116 -224.350006104
endloop
endfacet
