solid 
facet normal -0.017370197922 0.999849140644 0.0
outer loop
vertex -3.69147610664 4.24785757065 78.9820022583
vertex -0.606425762177 4.30145359039 78.9820022583
vertex -0.606425762177 4.30145359039 78.9619979858
endloop
endfacet
facet normal -0.017370197922 0.999849140644 0.0
outer loop
vertex -3.69147610664 4.24785757065 78.9820022583
vertex -0.606425762177 4.30145359039 78.9619979858
vertex -3.69147610664 4.24785757065 78.9619979858
endloop
endfacet
facet normal -0.051589474082 0.998668313026 0.0
outer loop
vertex -6.77288341522 4.08867740631 78.9820022583
vertex -3.69147610664 4.24785757065 78.9619979858
vertex -6.77288341522 4.08867740631 78.9619979858
endloop
endfacet
facet normal -0.051589474082 0.998668313026 0.0
outer loop
vertex -6.77288341522 4.08867740631 78.9820022583
vertex -3.69147610664 4.24785757065 78.9820022583
vertex -3.69147610664 4.24785757065 78.9619979858
endloop
endfacet
facet normal -0.0857485085726 0.996316790581 0.0
outer loop
vertex -9.84703445435 3.82409906387 78.9820022583
vertex -6.77288341522 4.08867740631 78.9619979858
vertex -9.84703445435 3.82409906387 78.9619979858
endloop
endfacet
facet normal -0.0857485085726 0.996316790581 0.0
outer loop
vertex -9.84703445435 3.82409906387 78.9820022583
vertex -6.77288341522 4.08867740631 78.9820022583
vertex -6.77288341522 4.08867740631 78.9619979858
endloop
endfacet
facet normal -0.994703412056 -0.1027867347 0.0
outer loop
vertex -9.84703445435 3.82409906387 78.9820022583
vertex -9.84189510345 3.77436375618 78.9619979858
vertex -9.84189510345 3.77436375618 78.9820022583
endloop
endfacet
facet normal -0.994703412056 -0.1027867347 0.0
outer loop
vertex -9.84703445435 3.82409906387 78.9619979858
vertex -9.84189510345 3.77436375618 78.9619979858
vertex -9.84703445435 3.82409906387 78.9820022583
endloop
endfacet
facet normal 0.0173700992018 -0.999849140644 0.0
outer loop
vertex -0.606413245201 4.25145339966 78.9619979858
vertex -3.68975186348 4.19788742065 78.9820022583
vertex -3.68975186348 4.19788742065 78.9619979858
endloop
endfacet
facet normal 0.0173700992018 -0.999849140644 0.0
outer loop
vertex -0.606413245201 4.25145339966 78.9820022583
vertex -3.68975186348 4.19788742065 78.9820022583
vertex -0.606413245201 4.25145339966 78.9619979858
endloop
endfacet
facet normal 0.0515895187855 -0.998668372631 0.0
outer loop
vertex -3.68975186348 4.19788742065 78.9619979858
vertex -6.76944923401 4.03879547119 78.9820022583
vertex -6.76944923401 4.03879547119 78.9619979858
endloop
endfacet
facet normal 0.0857485458255 -0.996316790581 0.0
outer loop
vertex -6.76944923401 4.03879547119 78.9619979858
vertex -6.76944923401 4.03879547119 78.9820022583
vertex -9.84189510345 3.77436375618 78.9619979858
endloop
endfacet
facet normal 0.0515895187855 -0.998668372631 0.0
outer loop
vertex -3.68975186348 4.19788742065 78.9820022583
vertex -6.76944923401 4.03879547119 78.9820022583
vertex -3.68975186348 4.19788742065 78.9619979858
endloop
endfacet
facet normal 0.0857485458255 -0.996316790581 0.0
outer loop
vertex -6.76944923401 4.03879547119 78.9820022583
vertex -9.84189510345 3.77436375618 78.9820022583
vertex -9.84189510345 3.77436375618 78.9619979858
endloop
endfacet
facet normal 0.999999880791 0.00025033854763 0.0
outer loop
vertex -0.606413245201 4.25145339966 78.9820022583
vertex -0.606425762177 4.30145359039 78.9619979858
vertex -0.606425762177 4.30145359039 78.9820022583
endloop
endfacet
facet normal 0.999999880791 0.00025033854763 -0.0
outer loop
vertex -0.606413245201 4.25145339966 78.9619979858
vertex -0.606425762177 4.30145359039 78.9619979858
vertex -0.606413245201 4.25145339966 78.9820022583
endloop
endfacet
facet normal 0.0 0.0 -1.0
outer loop
vertex -6.76944923401 4.03879547119 78.9619979858
vertex -9.84189510345 3.77436375618 78.9619979858
vertex -9.84703445435 3.82409906387 78.9619979858
endloop
endfacet
facet normal 0.0 -0.0 -1.0
outer loop
vertex -6.77288341522 4.08867740631 78.9619979858
vertex -6.76944923401 4.03879547119 78.9619979858
vertex -9.84703445435 3.82409906387 78.9619979858
endloop
endfacet
facet normal 0.0 0.0 -1.0
outer loop
vertex -3.68975186348 4.19788742065 78.9619979858
vertex -6.76944923401 4.03879547119 78.9619979858
vertex -6.77288341522 4.08867740631 78.9619979858
endloop
endfacet
facet normal 0.0 -0.0 -1.0
outer loop
vertex -3.69147610664 4.24785757065 78.9619979858
vertex -3.68975186348 4.19788742065 78.9619979858
vertex -6.77288341522 4.08867740631 78.9619979858
endloop
endfacet
facet normal 0.0 -0.0 -1.0
outer loop
vertex -0.606425762177 4.30145359039 78.9619979858
vertex -0.606413245201 4.25145339966 78.9619979858
vertex -3.68975186348 4.19788742065 78.9619979858
endloop
endfacet
facet normal 0.0 0.0 -1.0
outer loop
vertex -0.606425762177 4.30145359039 78.9619979858
vertex -3.68975186348 4.19788742065 78.9619979858
vertex -3.69147610664 4.24785757065 78.9619979858
endloop
endfacet
facet normal 0.0 -0.0 1.0
outer loop
vertex -9.84189510345 3.77436375618 78.9820022583
vertex -6.76944923401 4.03879547119 78.9820022583
vertex -9.84703445435 3.82409906387 78.9820022583
endloop
endfacet
facet normal 0.0 0.0 1.0
outer loop
vertex -6.76944923401 4.03879547119 78.9820022583
vertex -6.77288341522 4.08867740631 78.9820022583
vertex -9.84703445435 3.82409906387 78.9820022583
endloop
endfacet
facet normal 0.0 -0.0 1.0
outer loop
vertex -6.76944923401 4.03879547119 78.9820022583
vertex -3.68975186348 4.19788742065 78.9820022583
vertex -6.77288341522 4.08867740631 78.9820022583
endloop
endfacet
facet normal 0.0 0.0 1.0
outer loop
vertex -3.68975186348 4.19788742065 78.9820022583
vertex -3.69147610664 4.24785757065 78.9820022583
vertex -6.77288341522 4.08867740631 78.9820022583
endloop
endfacet
facet normal 0.0 -0.0 1.0
outer loop
vertex -3.68975186348 4.19788742065 78.9820022583
vertex -0.606413245201 4.25145339966 78.9820022583
vertex -3.69147610664 4.24785757065 78.9820022583
endloop
endfacet
facet normal 0.0 0.0 1.0
outer loop
vertex -0.606413245201 4.25145339966 78.9820022583
vertex -0.606425762177 4.30145359039 78.9820022583
vertex -3.69147610664 4.24785757065 78.9820022583
endloop
endfacet
