solid 
facet normal -0.0173703525215 0.999849140644 0.0
outer loop
vertex -0.606431543827 4.30145359039 -170.184997559
vertex -0.606431543827 4.30145359039 -170.205001831
vertex -3.69148182869 4.24785709381 -170.205001831
endloop
endfacet
facet normal -0.0173703525215 0.999849140644 0.0
outer loop
vertex -3.69148182869 4.24785709381 -170.184997559
vertex -0.606431543827 4.30145359039 -170.184997559
vertex -3.69148182869 4.24785709381 -170.205001831
endloop
endfacet
facet normal -0.0515896305442 0.998668313026 0.0
outer loop
vertex -6.77288913727 4.08867645264 -170.184997559
vertex -3.69148182869 4.24785709381 -170.205001831
vertex -6.77288913727 4.08867645264 -170.205001831
endloop
endfacet
facet normal -0.0515896305442 0.998668313026 0.0
outer loop
vertex -6.77288913727 4.08867645264 -170.184997559
vertex -3.69148182869 4.24785709381 -170.184997559
vertex -3.69148182869 4.24785709381 -170.205001831
endloop
endfacet
facet normal -0.0857485085726 0.996316790581 0.0
outer loop
vertex -9.84704017639 3.8240981102 -170.184997559
vertex -6.77288913727 4.08867645264 -170.205001831
vertex -9.84704017639 3.8240981102 -170.205001831
endloop
endfacet
facet normal -0.0857485085726 0.996316790581 0.0
outer loop
vertex -9.84704017639 3.8240981102 -170.184997559
vertex -6.77288913727 4.08867645264 -170.184997559
vertex -6.77288913727 4.08867645264 -170.205001831
endloop
endfacet
facet normal -0.994703412056 -0.102787226439 0.0
outer loop
vertex -9.84704017639 3.8240981102 -170.184997559
vertex -9.8419008255 3.77436304092 -170.205001831
vertex -9.8419008255 3.77436304092 -170.184997559
endloop
endfacet
facet normal -0.994703412056 -0.102787226439 0.0
outer loop
vertex -9.84704017639 3.8240981102 -170.205001831
vertex -9.8419008255 3.77436304092 -170.205001831
vertex -9.84704017639 3.8240981102 -170.184997559
endloop
endfacet
facet normal 0.0173702538013 -0.999849140644 0.0
outer loop
vertex -0.606419026852 4.25145339966 -170.205001831
vertex -3.68975758553 4.19788694382 -170.184997559
vertex -3.68975758553 4.19788694382 -170.205001831
endloop
endfacet
facet normal 0.0173702538013 -0.999849140644 0.0
outer loop
vertex -0.606419026852 4.25145339966 -170.184997559
vertex -3.68975758553 4.19788694382 -170.184997559
vertex -0.606419026852 4.25145339966 -170.205001831
endloop
endfacet
facet normal 0.0515896752477 -0.998668372631 0.0
outer loop
vertex -3.68975758553 4.19788694382 -170.205001831
vertex -6.76945495605 4.03879451752 -170.184997559
vertex -6.76945495605 4.03879451752 -170.205001831
endloop
endfacet
facet normal 0.0857484713197 -0.996316790581 0.0
outer loop
vertex -6.76945495605 4.03879451752 -170.205001831
vertex -6.76945495605 4.03879451752 -170.184997559
vertex -9.8419008255 3.77436304092 -170.205001831
endloop
endfacet
facet normal 0.0515896752477 -0.998668372631 0.0
outer loop
vertex -3.68975758553 4.19788694382 -170.184997559
vertex -6.76945495605 4.03879451752 -170.184997559
vertex -3.68975758553 4.19788694382 -170.205001831
endloop
endfacet
facet normal 0.0857484713197 -0.996316790581 0.0
outer loop
vertex -6.76945495605 4.03879451752 -170.184997559
vertex -9.8419008255 3.77436304092 -170.184997559
vertex -9.8419008255 3.77436304092 -170.205001831
endloop
endfacet
facet normal 0.999999880791 0.00025033854763 -0.0
outer loop
vertex -0.606419026852 4.25145339966 -170.205001831
vertex -0.606431543827 4.30145359039 -170.184997559
vertex -0.606419026852 4.25145339966 -170.184997559
endloop
endfacet
facet normal 0.999999880791 0.00025033854763 0.0
outer loop
vertex -0.606419026852 4.25145339966 -170.205001831
vertex -0.606431543827 4.30145359039 -170.205001831
vertex -0.606431543827 4.30145359039 -170.184997559
endloop
endfacet
facet normal 0.0 0.0 -1.0
outer loop
vertex -6.76945495605 4.03879451752 -170.205001831
vertex -9.8419008255 3.77436304092 -170.205001831
vertex -9.84704017639 3.8240981102 -170.205001831
endloop
endfacet
facet normal 0.0 -0.0 -1.0
outer loop
vertex -6.77288913727 4.08867645264 -170.205001831
vertex -6.76945495605 4.03879451752 -170.205001831
vertex -9.84704017639 3.8240981102 -170.205001831
endloop
endfacet
facet normal 0.0 0.0 -1.0
outer loop
vertex -3.68975758553 4.19788694382 -170.205001831
vertex -6.76945495605 4.03879451752 -170.205001831
vertex -6.77288913727 4.08867645264 -170.205001831
endloop
endfacet
facet normal 0.0 -0.0 -1.0
outer loop
vertex -3.69148182869 4.24785709381 -170.205001831
vertex -3.68975758553 4.19788694382 -170.205001831
vertex -6.77288913727 4.08867645264 -170.205001831
endloop
endfacet
facet normal 0.0 0.0 -1.0
outer loop
vertex -0.606419026852 4.25145339966 -170.205001831
vertex -3.68975758553 4.19788694382 -170.205001831
vertex -3.69148182869 4.24785709381 -170.205001831
endloop
endfacet
facet normal 0.0 -0.0 -1.0
outer loop
vertex -0.606431543827 4.30145359039 -170.205001831
vertex -0.606419026852 4.25145339966 -170.205001831
vertex -3.69148182869 4.24785709381 -170.205001831
endloop
endfacet
facet normal 0.0 0.0 1.0
outer loop
vertex -6.76945495605 4.03879451752 -170.184997559
vertex -6.77288913727 4.08867645264 -170.184997559
vertex -9.8419008255 3.77436304092 -170.184997559
endloop
endfacet
facet normal 0.0 -0.0 1.0
outer loop
vertex -9.8419008255 3.77436304092 -170.184997559
vertex -6.77288913727 4.08867645264 -170.184997559
vertex -9.84704017639 3.8240981102 -170.184997559
endloop
endfacet
facet normal 0.0 0.0 1.0
outer loop
vertex -3.68975758553 4.19788694382 -170.184997559
vertex -3.69148182869 4.24785709381 -170.184997559
vertex -6.76945495605 4.03879451752 -170.184997559
endloop
endfacet
facet normal 0.0 -0.0 1.0
outer loop
vertex -6.76945495605 4.03879451752 -170.184997559
vertex -3.69148182869 4.24785709381 -170.184997559
vertex -6.77288913727 4.08867645264 -170.184997559
endloop
endfacet
facet normal 0.0 0.0 1.0
outer loop
vertex -0.606419026852 4.25145339966 -170.184997559
vertex -0.606431543827 4.30145359039 -170.184997559
vertex -3.68975758553 4.19788694382 -170.184997559
endloop
endfacet
facet normal 0.0 -0.0 1.0
outer loop
vertex -3.68975758553 4.19788694382 -170.184997559
vertex -0.606431543827 4.30145359039 -170.184997559
vertex -3.69148182869 4.24785709381 -170.184997559
endloop
endfacet
