solid 
facet normal -0.119806751609 0.992797255516 0.0
outer loop
vertex -12.9103250504 3.45443320274 50.0740013123
vertex -9.84703350067 3.82409882545 50.0740013123
vertex -9.84703350067 3.82409882545 50.0540008545
endloop
endfacet
facet normal -0.119806751609 0.992797255516 0.0
outer loop
vertex -12.9103250504 3.45443320274 50.0740013123
vertex -9.84703350067 3.82409882545 50.0540008545
vertex -12.9103250504 3.45443320274 50.0540008545
endloop
endfacet
facet normal -0.15372467041 0.988113701344 0.0
outer loop
vertex -12.9103250504 3.45443320274 50.0740013123
vertex -12.9103250504 3.45443320274 50.0540008545
vertex -15.9591655731 2.9801132679 50.0540008545
endloop
endfacet
facet normal -0.15372467041 0.988113701344 0.0
outer loop
vertex -15.9591655731 2.9801132679 50.0740013123
vertex -12.9103250504 3.45443320274 50.0740013123
vertex -15.9591655731 2.9801132679 50.0540008545
endloop
endfacet
facet normal -0.187462419271 0.982271790504 0.0
outer loop
vertex -18.9899806976 2.40169501305 50.0740013123
vertex -15.9591655731 2.9801132679 50.0540008545
vertex -18.9899806976 2.40169501305 50.0540008545
endloop
endfacet
facet normal -0.187462419271 0.982271790504 0.0
outer loop
vertex -18.9899806976 2.40169501305 50.0740013123
vertex -15.9591655731 2.9801132679 50.0740013123
vertex -15.9591655731 2.9801132679 50.0540008545
endloop
endfacet
facet normal -0.978920996189 -0.204239487648 0.0
outer loop
vertex -18.9899806976 2.40169501305 50.0540008545
vertex -18.9797687531 2.35274910927 50.0740013123
vertex -18.9899806976 2.40169501305 50.0740013123
endloop
endfacet
facet normal -0.978920996189 -0.204239487648 0.0
outer loop
vertex -18.9899806976 2.40169501305 50.0540008545
vertex -18.9797687531 2.35274910927 50.0540008545
vertex -18.9797687531 2.35274910927 50.0740013123
endloop
endfacet
facet normal 0.119806796312 -0.992797255516 0.0
outer loop
vertex -9.84189414978 3.77436375618 50.0540008545
vertex -9.84189414978 3.77436375618 50.0740013123
vertex -12.9034852982 3.40490317345 50.0540008545
endloop
endfacet
facet normal 0.153724715114 -0.988113760948 0.0
outer loop
vertex -12.9034852982 3.40490317345 50.0540008545
vertex -12.9034852982 3.40490317345 50.0740013123
vertex -15.9506349564 2.93084621429 50.0540008545
endloop
endfacet
facet normal 0.119806796312 -0.992797255516 0.0
outer loop
vertex -9.84189414978 3.77436375618 50.0740013123
vertex -12.9034852982 3.40490317345 50.0740013123
vertex -12.9034852982 3.40490317345 50.0540008545
endloop
endfacet
facet normal 0.153724715114 -0.988113760948 0.0
outer loop
vertex -12.9034852982 3.40490317345 50.0740013123
vertex -15.9506349564 2.93084621429 50.0740013123
vertex -15.9506349564 2.93084621429 50.0540008545
endloop
endfacet
facet normal 0.187462329865 -0.982271790504 0.0
outer loop
vertex -15.9506349564 2.93084621429 50.0540008545
vertex -18.9797687531 2.35274910927 50.0740013123
vertex -18.9797687531 2.35274910927 50.0540008545
endloop
endfacet
facet normal 0.187462329865 -0.982271790504 0.0
outer loop
vertex -15.9506349564 2.93084621429 50.0740013123
vertex -18.9797687531 2.35274910927 50.0740013123
vertex -15.9506349564 2.93084621429 50.0540008545
endloop
endfacet
facet normal 0.994703471661 0.10278724134 0.0
outer loop
vertex -9.84189414978 3.77436375618 50.0740013123
vertex -9.84703350067 3.82409882545 50.0540008545
vertex -9.84703350067 3.82409882545 50.0740013123
endloop
endfacet
facet normal 0.994703471661 0.10278724134 -0.0
outer loop
vertex -9.84189414978 3.77436375618 50.0540008545
vertex -9.84703350067 3.82409882545 50.0540008545
vertex -9.84189414978 3.77436375618 50.0740013123
endloop
endfacet
facet normal 0.0 0.0 -1.0
outer loop
vertex -15.9506349564 2.93084621429 50.0540008545
vertex -18.9797687531 2.35274910927 50.0540008545
vertex -18.9899806976 2.40169501305 50.0540008545
endloop
endfacet
facet normal 0.0 -0.0 -1.0
outer loop
vertex -15.9591655731 2.9801132679 50.0540008545
vertex -15.9506349564 2.93084621429 50.0540008545
vertex -18.9899806976 2.40169501305 50.0540008545
endloop
endfacet
facet normal 0.0 0.0 -1.0
outer loop
vertex -12.9034852982 3.40490317345 50.0540008545
vertex -15.9506349564 2.93084621429 50.0540008545
vertex -15.9591655731 2.9801132679 50.0540008545
endloop
endfacet
facet normal 0.0 -0.0 -1.0
outer loop
vertex -12.9103250504 3.45443320274 50.0540008545
vertex -12.9034852982 3.40490317345 50.0540008545
vertex -15.9591655731 2.9801132679 50.0540008545
endloop
endfacet
facet normal 0.0 0.0 -1.0
outer loop
vertex -9.84189414978 3.77436375618 50.0540008545
vertex -12.9034852982 3.40490317345 50.0540008545
vertex -12.9103250504 3.45443320274 50.0540008545
endloop
endfacet
facet normal 0.0 -0.0 -1.0
outer loop
vertex -9.84703350067 3.82409882545 50.0540008545
vertex -9.84189414978 3.77436375618 50.0540008545
vertex -12.9103250504 3.45443320274 50.0540008545
endloop
endfacet
facet normal 0.0 -0.0 1.0
outer loop
vertex -18.9797687531 2.35274910927 50.0740013123
vertex -15.9506349564 2.93084621429 50.0740013123
vertex -18.9899806976 2.40169501305 50.0740013123
endloop
endfacet
facet normal 0.0 0.0 1.0
outer loop
vertex -15.9506349564 2.93084621429 50.0740013123
vertex -15.9591655731 2.9801132679 50.0740013123
vertex -18.9899806976 2.40169501305 50.0740013123
endloop
endfacet
facet normal 0.0 -0.0 1.0
outer loop
vertex -15.9506349564 2.93084621429 50.0740013123
vertex -12.9034852982 3.40490317345 50.0740013123
vertex -15.9591655731 2.9801132679 50.0740013123
endloop
endfacet
facet normal 0.0 0.0 1.0
outer loop
vertex -12.9034852982 3.40490317345 50.0740013123
vertex -12.9103250504 3.45443320274 50.0740013123
vertex -15.9591655731 2.9801132679 50.0740013123
endloop
endfacet
facet normal 0.0 -0.0 1.0
outer loop
vertex -12.9034852982 3.40490317345 50.0740013123
vertex -9.84189414978 3.77436375618 50.0740013123
vertex -12.9103250504 3.45443320274 50.0740013123
endloop
endfacet
facet normal 0.0 0.0 1.0
outer loop
vertex -9.84189414978 3.77436375618 50.0740013123
vertex -9.84703350067 3.82409882545 50.0740013123
vertex -12.9103250504 3.45443320274 50.0740013123
endloop
endfacet
