solid 
facet normal -0.0173700414598 -0.999849140644 0.0
outer loop
vertex -0.606410324574 -4.30145263672 -18.5749988556
vertex -0.606410324574 -4.30145263672 -18.5550003052
vertex -3.69146084785 -4.24785709381 -18.5550003052
endloop
endfacet
facet normal -0.0515893250704 -0.998668372631 0.0
outer loop
vertex -3.69146084785 -4.24785709381 -18.5749988556
vertex -3.69146084785 -4.24785709381 -18.5550003052
vertex -6.77286815643 -4.08867740631 -18.5550003052
endloop
endfacet
facet normal -0.0173700414598 -0.999849140644 0.0
outer loop
vertex -3.69146084785 -4.24785709381 -18.5749988556
vertex -0.606410324574 -4.30145263672 -18.5749988556
vertex -3.69146084785 -4.24785709381 -18.5550003052
endloop
endfacet
facet normal -0.0515893250704 -0.998668372631 0.0
outer loop
vertex -6.77286815643 -4.08867740631 -18.5749988556
vertex -3.69146084785 -4.24785709381 -18.5749988556
vertex -6.77286815643 -4.08867740631 -18.5550003052
endloop
endfacet
facet normal -0.0857483446598 -0.996316850185 0.0
outer loop
vertex -9.84701919556 -3.82409954071 -18.5749988556
vertex -6.77286815643 -4.08867740631 -18.5550003052
vertex -9.84701919556 -3.82409954071 -18.5550003052
endloop
endfacet
facet normal -0.0857483446598 -0.996316850185 0.0
outer loop
vertex -9.84701919556 -3.82409954071 -18.5749988556
vertex -6.77286815643 -4.08867740631 -18.5749988556
vertex -6.77286815643 -4.08867740631 -18.5550003052
endloop
endfacet
facet normal -0.994703412056 0.102787218988 0.0
outer loop
vertex -9.84701919556 -3.82409954071 -18.5749988556
vertex -9.84187984467 -3.77436447144 -18.5550003052
vertex -9.84187984467 -3.77436447144 -18.5749988556
endloop
endfacet
facet normal -0.994703412056 0.102787218988 0.0
outer loop
vertex -9.84701919556 -3.82409954071 -18.5550003052
vertex -9.84187984467 -3.77436447144 -18.5550003052
vertex -9.84701919556 -3.82409954071 -18.5749988556
endloop
endfacet
facet normal 0.0173699427396 0.999849081039 0.0
outer loop
vertex -0.606397807598 -4.25145244598 -18.5550003052
vertex -3.68973660469 -4.19788694382 -18.5749988556
vertex -3.68973660469 -4.19788694382 -18.5550003052
endloop
endfacet
facet normal 0.0515893623233 0.998668372631 0.0
outer loop
vertex -3.68973660469 -4.19788694382 -18.5550003052
vertex -3.68973660469 -4.19788694382 -18.5749988556
vertex -6.76943397522 -4.03879547119 -18.5550003052
endloop
endfacet
facet normal 0.0173699427396 0.999849081039 -0.0
outer loop
vertex -0.606397807598 -4.25145244598 -18.5749988556
vertex -3.68973660469 -4.19788694382 -18.5749988556
vertex -0.606397807598 -4.25145244598 -18.5550003052
endloop
endfacet
facet normal 0.0857483148575 0.996316850185 0.0
outer loop
vertex -6.76943397522 -4.03879547119 -18.5550003052
vertex -6.76943397522 -4.03879547119 -18.5749988556
vertex -9.84187984467 -3.77436447144 -18.5550003052
endloop
endfacet
facet normal 0.0515893623233 0.998668372631 0.0
outer loop
vertex -3.68973660469 -4.19788694382 -18.5749988556
vertex -6.76943397522 -4.03879547119 -18.5749988556
vertex -6.76943397522 -4.03879547119 -18.5550003052
endloop
endfacet
facet normal 0.0857483148575 0.996316850185 0.0
outer loop
vertex -6.76943397522 -4.03879547119 -18.5749988556
vertex -9.84187984467 -3.77436447144 -18.5749988556
vertex -9.84187984467 -3.77436447144 -18.5550003052
endloop
endfacet
facet normal 0.999999880791 -0.000250338518526 0.0
outer loop
vertex -0.606397807598 -4.25145244598 -18.5749988556
vertex -0.606410324574 -4.30145263672 -18.5550003052
vertex -0.606410324574 -4.30145263672 -18.5749988556
endloop
endfacet
facet normal 0.999999880791 -0.000250338518526 0.0
outer loop
vertex -0.606397807598 -4.25145244598 -18.5550003052
vertex -0.606410324574 -4.30145263672 -18.5550003052
vertex -0.606397807598 -4.25145244598 -18.5749988556
endloop
endfacet
facet normal 0.0 0.0 1.0
outer loop
vertex -6.76943397522 -4.03879547119 -18.5550003052
vertex -9.84187984467 -3.77436447144 -18.5550003052
vertex -9.84701919556 -3.82409954071 -18.5550003052
endloop
endfacet
facet normal 0.0 -0.0 1.0
outer loop
vertex -6.77286815643 -4.08867740631 -18.5550003052
vertex -6.76943397522 -4.03879547119 -18.5550003052
vertex -9.84701919556 -3.82409954071 -18.5550003052
endloop
endfacet
facet normal 0.0 0.0 1.0
outer loop
vertex -3.68973660469 -4.19788694382 -18.5550003052
vertex -6.76943397522 -4.03879547119 -18.5550003052
vertex -6.77286815643 -4.08867740631 -18.5550003052
endloop
endfacet
facet normal 0.0 -0.0 1.0
outer loop
vertex -3.69146084785 -4.24785709381 -18.5550003052
vertex -3.68973660469 -4.19788694382 -18.5550003052
vertex -6.77286815643 -4.08867740631 -18.5550003052
endloop
endfacet
facet normal 0.0 -0.0 1.0
outer loop
vertex -0.606410324574 -4.30145263672 -18.5550003052
vertex -0.606397807598 -4.25145244598 -18.5550003052
vertex -3.68973660469 -4.19788694382 -18.5550003052
endloop
endfacet
facet normal 0.0 0.0 1.0
outer loop
vertex -0.606410324574 -4.30145263672 -18.5550003052
vertex -3.68973660469 -4.19788694382 -18.5550003052
vertex -3.69146084785 -4.24785709381 -18.5550003052
endloop
endfacet
facet normal 0.0 -0.0 -1.0
outer loop
vertex -9.84187984467 -3.77436447144 -18.5749988556
vertex -6.76943397522 -4.03879547119 -18.5749988556
vertex -9.84701919556 -3.82409954071 -18.5749988556
endloop
endfacet
facet normal -0.0 0.0 -1.0
outer loop
vertex -6.76943397522 -4.03879547119 -18.5749988556
vertex -6.77286815643 -4.08867740631 -18.5749988556
vertex -9.84701919556 -3.82409954071 -18.5749988556
endloop
endfacet
facet normal 0.0 -0.0 -1.0
outer loop
vertex -6.76943397522 -4.03879547119 -18.5749988556
vertex -3.68973660469 -4.19788694382 -18.5749988556
vertex -6.77286815643 -4.08867740631 -18.5749988556
endloop
endfacet
facet normal -0.0 0.0 -1.0
outer loop
vertex -3.68973660469 -4.19788694382 -18.5749988556
vertex -3.69146084785 -4.24785709381 -18.5749988556
vertex -6.77286815643 -4.08867740631 -18.5749988556
endloop
endfacet
facet normal 0.0 -0.0 -1.0
outer loop
vertex -3.68973660469 -4.19788694382 -18.5749988556
vertex -0.606397807598 -4.25145244598 -18.5749988556
vertex -3.69146084785 -4.24785709381 -18.5749988556
endloop
endfacet
facet normal -0.0 0.0 -1.0
outer loop
vertex -0.606397807598 -4.25145244598 -18.5749988556
vertex -0.606410324574 -4.30145263672 -18.5749988556
vertex -3.69146084785 -4.24785709381 -18.5749988556
endloop
endfacet
