solid 
facet normal -0.00160217308439 -0.999998748302 -1.32773138262e-07
outer loop
vertex 0.406436949968 -4.30128145218 -126.904998779
vertex 0.406436920166 -4.30128097534 -130.496002197
vertex 0.473103493452 -4.30138778687 -130.496002197
endloop
endfacet
facet normal -0.000858307001181 -0.999999642372 7.12322952359e-12
outer loop
vertex 0.473103523254 -4.30138778687 -126.904998779
vertex 0.473103493452 -4.30138778687 -130.496002197
vertex 0.539770126343 -4.30144500732 -130.496002197
endloop
endfacet
facet normal -0.00159502052702 -0.999998748302 1.32373348394e-11
outer loop
vertex 0.473103523254 -4.30138778687 -126.904998779
vertex 0.406436949968 -4.30128145218 -126.904998779
vertex 0.473103493452 -4.30138778687 -130.496002197
endloop
endfacet
facet normal -0.000121593482618 -1.0 2.01824819877e-12
outer loop
vertex 0.539770185947 -4.30144500732 -126.904998779
vertex 0.539770126343 -4.30144500732 -130.496002197
vertex 0.606436789036 -4.30145311356 -130.496002197
endloop
endfacet
facet normal -0.000858306651935 -0.999999642372 1.42464529757e-11
outer loop
vertex 0.539770185947 -4.30144500732 -126.904998779
vertex 0.473103523254 -4.30138778687 -126.904998779
vertex 0.539770126343 -4.30144500732 -130.496002197
endloop
endfacet
facet normal -0.000121593482618 -1.0 2.01824819877e-12
outer loop
vertex 0.60643684864 -4.30145311356 -126.904998779
vertex 0.539770185947 -4.30144500732 -126.904998779
vertex 0.606436789036 -4.30145311356 -130.496002197
endloop
endfacet
facet normal 0.999999940395 0.000250340934144 -1.65984825884e-08
outer loop
vertex 0.606424331665 -4.25145339966 -126.904998779
vertex 0.60643684864 -4.30145311356 -126.904998779
vertex 0.606436789036 -4.30145311356 -130.496002197
endloop
endfacet
facet normal 0.999999940395 0.000250338518526 -1.65650835271e-08
outer loop
vertex 0.606424331665 -4.25145339966 -126.904998779
vertex 0.606436789036 -4.30145311356 -130.496002197
vertex 0.60642427206 -4.25145292282 -130.496002197
endloop
endfacet
facet normal 0.00159590574913 0.999998688698 1.32759467419e-07
outer loop
vertex 0.406535357237 -4.25128126144 -130.496002197
vertex 0.473165005445 -4.25138807297 -126.904998779
vertex 0.473164945841 -4.25138759613 -130.496002197
endloop
endfacet
facet normal 0.00160306238104 0.999998688698 -2.66081514461e-11
outer loop
vertex 0.406535416842 -4.25128126144 -126.904998779
vertex 0.473165005445 -4.25138807297 -126.904998779
vertex 0.406535357237 -4.25128126144 -130.496002197
endloop
endfacet
facet normal 0.000858783023432 0.999999642372 1.32786013296e-07
outer loop
vertex 0.473164945841 -4.25138759613 -130.496002197
vertex 0.539794623852 -4.25144529343 -126.904998779
vertex 0.539794623852 -4.25144481659 -130.496002197
endloop
endfacet
facet normal 0.000858783838339 0.999999642372 1.32772299821e-07
outer loop
vertex 0.473165005445 -4.25138807297 -126.904998779
vertex 0.539794623852 -4.25144529343 -126.904998779
vertex 0.473164945841 -4.25138759613 -130.496002197
endloop
endfacet
facet normal 0.000121661032608 1.0 1.32784705897e-07
outer loop
vertex 0.539794623852 -4.25144481659 -130.496002197
vertex 0.606424331665 -4.25145339966 -126.904998779
vertex 0.60642427206 -4.25145292282 -130.496002197
endloop
endfacet
facet normal 0.000121660916193 1.0 1.32786610152e-07
outer loop
vertex 0.539794623852 -4.25144529343 -126.904998779
vertex 0.606424331665 -4.25145339966 -126.904998779
vertex 0.539794623852 -4.25144481659 -130.496002197
endloop
endfacet
facet normal -0.999998033047 0.00196932605468 1.65967097843e-08
outer loop
vertex 0.406436949968 -4.30128145218 -126.904998779
vertex 0.406535416842 -4.25128126144 -126.904998779
vertex 0.406535357237 -4.25128126144 -130.496002197
endloop
endfacet
facet normal -0.999998033047 0.00196874863468 8.56057003062e-09
outer loop
vertex 0.406436949968 -4.30128145218 -126.904998779
vertex 0.406535357237 -4.25128126144 -130.496002197
vertex 0.406436920166 -4.30128097534 -130.496002197
endloop
endfacet
facet normal 0.0 0.0 1.0
outer loop
vertex 0.606424331665 -4.25145339966 -126.904998779
vertex 0.539794623852 -4.25144529343 -126.904998779
vertex 0.60643684864 -4.30145311356 -126.904998779
endloop
endfacet
facet normal 0.0 0.0 1.0
outer loop
vertex 0.539794623852 -4.25144529343 -126.904998779
vertex 0.539770185947 -4.30144500732 -126.904998779
vertex 0.60643684864 -4.30145311356 -126.904998779
endloop
endfacet
facet normal 0.0 0.0 1.0
outer loop
vertex 0.473165005445 -4.25138807297 -126.904998779
vertex 0.473103523254 -4.30138778687 -126.904998779
vertex 0.539794623852 -4.25144529343 -126.904998779
endloop
endfacet
facet normal 0.0 0.0 1.0
outer loop
vertex 0.539794623852 -4.25144529343 -126.904998779
vertex 0.473103523254 -4.30138778687 -126.904998779
vertex 0.539770185947 -4.30144500732 -126.904998779
endloop
endfacet
facet normal 0.0 0.0 1.0
outer loop
vertex 0.473165005445 -4.25138807297 -126.904998779
vertex 0.406535416842 -4.25128126144 -126.904998779
vertex 0.473103523254 -4.30138778687 -126.904998779
endloop
endfacet
facet normal 0.0 0.0 1.0
outer loop
vertex 0.406535416842 -4.25128126144 -126.904998779
vertex 0.406436949968 -4.30128145218 -126.904998779
vertex 0.473103523254 -4.30138778687 -126.904998779
endloop
endfacet
facet normal 0.0 0.0 -1.0
outer loop
vertex 0.539794623852 -4.25144481659 -130.496002197
vertex 0.60642427206 -4.25145292282 -130.496002197
vertex 0.606436789036 -4.30145311356 -130.496002197
endloop
endfacet
facet normal 0.0 0.0 -1.0
outer loop
vertex 0.539770126343 -4.30144500732 -130.496002197
vertex 0.539794623852 -4.25144481659 -130.496002197
vertex 0.606436789036 -4.30145311356 -130.496002197
endloop
endfacet
facet normal 0.0 0.0 -1.0
outer loop
vertex 0.473164945841 -4.25138759613 -130.496002197
vertex 0.539794623852 -4.25144481659 -130.496002197
vertex 0.539770126343 -4.30144500732 -130.496002197
endloop
endfacet
facet normal 0.0 0.0 -1.0
outer loop
vertex 0.473103493452 -4.30138778687 -130.496002197
vertex 0.473164945841 -4.25138759613 -130.496002197
vertex 0.539770126343 -4.30144500732 -130.496002197
endloop
endfacet
facet normal 0.0 0.0 -1.0
outer loop
vertex 0.406436920166 -4.30128097534 -130.496002197
vertex 0.406535357237 -4.25128126144 -130.496002197
vertex 0.473164945841 -4.25138759613 -130.496002197
endloop
endfacet
facet normal 0.0 0.0 -1.0
outer loop
vertex 0.406436920166 -4.30128097534 -130.496002197
vertex 0.473164945841 -4.25138759613 -130.496002197
vertex 0.473103493452 -4.30138778687 -130.496002197
endloop
endfacet
