solid 
facet normal -0.204613447189 0.9788428545 0.0
outer loop
vertex -19.0552272797 2.38805556297 10.3330001831
vertex -18.9899711609 2.40169644356 10.3330001831
vertex -18.9899711609 2.40169644356 6.742000103
endloop
endfacet
facet normal -0.204613447189 0.9788428545 0.0
outer loop
vertex -19.0552272797 2.38805556297 10.3330001831
vertex -18.9899711609 2.40169644356 6.742000103
vertex -19.0552272797 2.38805556297 6.742000103
endloop
endfacet
facet normal -0.205337613821 0.978691220284 0.0
outer loop
vertex -19.1204738617 2.37436628342 10.3330001831
vertex -19.0552272797 2.38805556297 6.742000103
vertex -19.1204738617 2.37436628342 6.742000103
endloop
endfacet
facet normal -0.205337613821 0.978691220284 0.0
outer loop
vertex -19.1204738617 2.37436628342 10.3330001831
vertex -19.0552272797 2.38805556297 10.3330001831
vertex -19.0552272797 2.38805556297 6.742000103
endloop
endfacet
facet normal -0.206064015627 0.978538513184 0.0
outer loop
vertex -19.1857089996 2.36062884331 10.3330001831
vertex -19.1204738617 2.37436628342 6.742000103
vertex -19.1857089996 2.36062884331 6.742000103
endloop
endfacet
facet normal -0.206064015627 0.978538513184 0.0
outer loop
vertex -19.1857089996 2.36062884331 10.3330001831
vertex -19.1204738617 2.37436628342 10.3330001831
vertex -19.1204738617 2.37436628342 6.742000103
endloop
endfacet
facet normal -0.978464722633 -0.206414192915 0.0
outer loop
vertex -19.1857089996 2.36062884331 10.3330001831
vertex -19.1753883362 2.31170582771 6.742000103
vertex -19.1753883362 2.31170582771 10.3330001831
endloop
endfacet
facet normal -0.978464722633 -0.206414192915 0.0
outer loop
vertex -19.1857089996 2.36062884331 6.742000103
vertex -19.1753883362 2.31170582771 6.742000103
vertex -19.1857089996 2.36062884331 10.3330001831
endloop
endfacet
facet normal 0.204616099596 -0.978842318058 -6.49886402471e-08
outer loop
vertex -18.9797592163 2.35275053978 6.742000103
vertex -18.9797592163 2.35275030136 10.3330001831
vertex -19.0449790955 2.33911705017 6.742000103
endloop
endfacet
facet normal 0.205333814025 -0.978691995144 0.0
outer loop
vertex -19.0449790955 2.33911705017 6.742000103
vertex -19.0449790955 2.33911705017 10.3330001831
vertex -19.1101894379 2.32543563843 6.742000103
endloop
endfacet
facet normal 0.204612657428 -0.978843033314 0.0
outer loop
vertex -18.9797592163 2.35275030136 10.3330001831
vertex -19.0449790955 2.33911705017 10.3330001831
vertex -19.0449790955 2.33911705017 6.742000103
endloop
endfacet
facet normal 0.205333814025 -0.978691995144 0.0
outer loop
vertex -19.0449790955 2.33911705017 10.3330001831
vertex -19.1101894379 2.32543563843 10.3330001831
vertex -19.1101894379 2.32543563843 6.742000103
endloop
endfacet
facet normal 0.206064045429 -0.978538513184 0.0
outer loop
vertex -19.1101894379 2.32543563843 6.742000103
vertex -19.1753883362 2.31170582771 10.3330001831
vertex -19.1753883362 2.31170582771 6.742000103
endloop
endfacet
facet normal 0.206064045429 -0.978538513184 0.0
outer loop
vertex -19.1101894379 2.32543563843 10.3330001831
vertex -19.1753883362 2.31170582771 10.3330001831
vertex -19.1101894379 2.32543563843 6.742000103
endloop
endfacet
facet normal 0.978921115398 0.204238533974 1.35600837226e-08
outer loop
vertex -18.9797592163 2.35275030136 10.3330001831
vertex -18.9797592163 2.35275053978 6.742000103
vertex -18.9899711609 2.40169644356 10.3330001831
endloop
endfacet
facet normal 0.978920936584 0.204239502549 0.0
outer loop
vertex -18.9797592163 2.35275053978 6.742000103
vertex -18.9899711609 2.40169644356 6.742000103
vertex -18.9899711609 2.40169644356 10.3330001831
endloop
endfacet
facet normal 0.0 -0.0 -1.0
outer loop
vertex -19.1204738617 2.37436628342 6.742000103
vertex -19.1101894379 2.32543563843 6.742000103
vertex -19.1753883362 2.31170582771 6.742000103
endloop
endfacet
facet normal 0.0 0.0 -1.0
outer loop
vertex -19.1204738617 2.37436628342 6.742000103
vertex -19.1753883362 2.31170582771 6.742000103
vertex -19.1857089996 2.36062884331 6.742000103
endloop
endfacet
facet normal 0.0 -0.0 -1.0
outer loop
vertex -19.0552272797 2.38805556297 6.742000103
vertex -19.0449790955 2.33911705017 6.742000103
vertex -19.1101894379 2.32543563843 6.742000103
endloop
endfacet
facet normal 0.0 0.0 -1.0
outer loop
vertex -19.0552272797 2.38805556297 6.742000103
vertex -19.1101894379 2.32543563843 6.742000103
vertex -19.1204738617 2.37436628342 6.742000103
endloop
endfacet
facet normal 0.0 -0.0 -1.0
outer loop
vertex -18.9899711609 2.40169644356 6.742000103
vertex -18.9797592163 2.35275053978 6.742000103
vertex -19.0449790955 2.33911705017 6.742000103
endloop
endfacet
facet normal 0.0 0.0 -1.0
outer loop
vertex -18.9899711609 2.40169644356 6.742000103
vertex -19.0449790955 2.33911705017 6.742000103
vertex -19.0552272797 2.38805556297 6.742000103
endloop
endfacet
facet normal 0.0 -0.0 1.0
outer loop
vertex -19.1753883362 2.31170582771 10.3330001831
vertex -19.1101894379 2.32543563843 10.3330001831
vertex -19.1857089996 2.36062884331 10.3330001831
endloop
endfacet
facet normal 0.0 0.0 1.0
outer loop
vertex -19.1101894379 2.32543563843 10.3330001831
vertex -19.1204738617 2.37436628342 10.3330001831
vertex -19.1857089996 2.36062884331 10.3330001831
endloop
endfacet
facet normal 0.0 0.0 1.0
outer loop
vertex -19.0449790955 2.33911705017 10.3330001831
vertex -19.0552272797 2.38805556297 10.3330001831
vertex -19.1101894379 2.32543563843 10.3330001831
endloop
endfacet
facet normal 0.0 -0.0 1.0
outer loop
vertex -19.1101894379 2.32543563843 10.3330001831
vertex -19.0552272797 2.38805556297 10.3330001831
vertex -19.1204738617 2.37436628342 10.3330001831
endloop
endfacet
facet normal 0.0 -0.0 1.0
outer loop
vertex -19.0449790955 2.33911705017 10.3330001831
vertex -18.9797592163 2.35275030136 10.3330001831
vertex -19.0552272797 2.38805556297 10.3330001831
endloop
endfacet
facet normal 0.0 0.0 1.0
outer loop
vertex -18.9797592163 2.35275030136 10.3330001831
vertex -18.9899711609 2.40169644356 10.3330001831
vertex -19.0552272797 2.38805556297 10.3330001831
endloop
endfacet
