solid 
facet normal 0.00160217308439 0.999998748302 1.32786496465e-07
outer loop
vertex -0.473092466593 4.3013882637 86.1640014648
vertex -0.406425893307 4.30128145218 86.1640014648
vertex -0.406425893307 4.30128192902 82.5729980469
endloop
endfacet
facet normal 0.00159501982853 0.999998748302 -1.32373296352e-11
outer loop
vertex -0.473092466593 4.3013882637 86.1640014648
vertex -0.406425893307 4.30128192902 82.5729980469
vertex -0.473092496395 4.3013882637 82.5729980469
endloop
endfacet
facet normal 0.000858307408635 0.999999642372 0.0
outer loop
vertex -0.539759099483 4.30144548416 86.1640014648
vertex -0.473092496395 4.3013882637 82.5729980469
vertex -0.539759099483 4.30144548416 82.5729980469
endloop
endfacet
facet normal 0.000858307001181 0.999999642372 -7.59811137618e-12
outer loop
vertex -0.539759099483 4.30144548416 86.1640014648
vertex -0.473092466593 4.3013882637 86.1640014648
vertex -0.473092496395 4.3013882637 82.5729980469
endloop
endfacet
facet normal 0.000121593482618 1.0 0.0
outer loop
vertex -0.606425762177 4.30145359039 86.1640014648
vertex -0.539759099483 4.30144548416 82.5729980469
vertex -0.606425762177 4.30145359039 82.5729980469
endloop
endfacet
facet normal 0.000121593482618 1.0 0.0
outer loop
vertex -0.606425762177 4.30145359039 86.1640014648
vertex -0.539759099483 4.30144548416 86.1640014648
vertex -0.539759099483 4.30144548416 82.5729980469
endloop
endfacet
facet normal -0.999999940395 -0.000250338518526 0.0
outer loop
vertex -0.606425762177 4.30145359039 86.1640014648
vertex -0.606413245201 4.25145339966 82.5729980469
vertex -0.606413245201 4.25145339966 86.1640014648
endloop
endfacet
facet normal -0.999999940395 -0.000250338518526 0.0
outer loop
vertex -0.606425762177 4.30145359039 82.5729980469
vertex -0.606413245201 4.25145339966 82.5729980469
vertex -0.606425762177 4.30145359039 86.1640014648
endloop
endfacet
facet normal -0.00160306238104 -0.999998688698 1.3304075723e-11
outer loop
vertex -0.40652436018 4.25128173828 82.5729980469
vertex -0.406524330378 4.25128173828 86.1640014648
vertex -0.473153948784 4.2513885498 82.5729980469
endloop
endfacet
facet normal -0.00159590574913 -0.999998688698 -1.32772768779e-07
outer loop
vertex -0.406524330378 4.25128173828 86.1640014648
vertex -0.473153918982 4.25138807297 86.1640014648
vertex -0.473153948784 4.2513885498 82.5729980469
endloop
endfacet
facet normal -0.000858783430886 -0.999999642372 -1.3278608435e-07
outer loop
vertex -0.473153948784 4.2513885498 82.5729980469
vertex -0.539783596992 4.25144529343 86.1640014648
vertex -0.539783596992 4.25144577026 82.5729980469
endloop
endfacet
facet normal -0.000114504502562 -1.0 -1.32786610152e-07
outer loop
vertex -0.539783596992 4.25144577026 82.5729980469
vertex -0.539783596992 4.25144529343 86.1640014648
vertex -0.606413245201 4.25145339966 82.5729980469
endloop
endfacet
facet normal -0.000858783023432 -0.999999642372 -1.32779419459e-07
outer loop
vertex -0.473153918982 4.25138807297 86.1640014648
vertex -0.539783596992 4.25144529343 86.1640014648
vertex -0.473153948784 4.2513885498 82.5729980469
endloop
endfacet
facet normal -0.000121661032608 -1.0 0.0
outer loop
vertex -0.539783596992 4.25144529343 86.1640014648
vertex -0.606413245201 4.25145339966 86.1640014648
vertex -0.606413245201 4.25145339966 82.5729980469
endloop
endfacet
facet normal 0.999998033047 -0.00196874863468 -2.63402161194e-10
outer loop
vertex -0.406524330378 4.25128173828 86.1640014648
vertex -0.406425893307 4.30128192902 82.5729980469
vertex -0.406425893307 4.30128145218 86.1640014648
endloop
endfacet
facet normal 0.999998033047 -0.00196932605468 -8.29914625911e-09
outer loop
vertex -0.40652436018 4.25128173828 82.5729980469
vertex -0.406425893307 4.30128192902 82.5729980469
vertex -0.406524330378 4.25128173828 86.1640014648
endloop
endfacet
facet normal 0.0 0.0 -1.0
outer loop
vertex -0.539783596992 4.25144577026 82.5729980469
vertex -0.606413245201 4.25145339966 82.5729980469
vertex -0.606425762177 4.30145359039 82.5729980469
endloop
endfacet
facet normal -0.0 0.0 -1.0
outer loop
vertex -0.539759099483 4.30144548416 82.5729980469
vertex -0.539783596992 4.25144577026 82.5729980469
vertex -0.606425762177 4.30145359039 82.5729980469
endloop
endfacet
facet normal 0.0 0.0 -1.0
outer loop
vertex -0.473092496395 4.3013882637 82.5729980469
vertex -0.473153948784 4.2513885498 82.5729980469
vertex -0.539783596992 4.25144577026 82.5729980469
endloop
endfacet
facet normal -0.0 0.0 -1.0
outer loop
vertex -0.473092496395 4.3013882637 82.5729980469
vertex -0.539783596992 4.25144577026 82.5729980469
vertex -0.539759099483 4.30144548416 82.5729980469
endloop
endfacet
facet normal 0.0 0.0 -1.0
outer loop
vertex -0.406425893307 4.30128192902 82.5729980469
vertex -0.40652436018 4.25128173828 82.5729980469
vertex -0.473153948784 4.2513885498 82.5729980469
endloop
endfacet
facet normal -0.0 0.0 -1.0
outer loop
vertex -0.406425893307 4.30128192902 82.5729980469
vertex -0.473153948784 4.2513885498 82.5729980469
vertex -0.473092496395 4.3013882637 82.5729980469
endloop
endfacet
facet normal -0.0 -0.0 1.0
outer loop
vertex -0.606413245201 4.25145339966 86.1640014648
vertex -0.539783596992 4.25144529343 86.1640014648
vertex -0.606425762177 4.30145359039 86.1640014648
endloop
endfacet
facet normal 0.0 -0.0 1.0
outer loop
vertex -0.539783596992 4.25144529343 86.1640014648
vertex -0.539759099483 4.30144548416 86.1640014648
vertex -0.606425762177 4.30145359039 86.1640014648
endloop
endfacet
facet normal -0.0 0.0 1.0
outer loop
vertex -0.539783596992 4.25144529343 86.1640014648
vertex -0.473153918982 4.25138807297 86.1640014648
vertex -0.539759099483 4.30144548416 86.1640014648
endloop
endfacet
facet normal 0.0 -0.0 1.0
outer loop
vertex -0.473153918982 4.25138807297 86.1640014648
vertex -0.473092466593 4.3013882637 86.1640014648
vertex -0.539759099483 4.30144548416 86.1640014648
endloop
endfacet
facet normal -0.0 0.0 1.0
outer loop
vertex -0.473153918982 4.25138807297 86.1640014648
vertex -0.406524330378 4.25128173828 86.1640014648
vertex -0.473092466593 4.3013882637 86.1640014648
endloop
endfacet
facet normal 0.0 -0.0 1.0
outer loop
vertex -0.406524330378 4.25128173828 86.1640014648
vertex -0.406425893307 4.30128145218 86.1640014648
vertex -0.473092466593 4.3013882637 86.1640014648
endloop
endfacet
