solid 
facet normal 0.0016021723859 0.999998748302 1.32773422479e-07
outer loop
vertex -0.473092734814 4.3013882637 71.7399978638
vertex -0.406426131725 4.30128145218 71.7399978638
vertex -0.406426161528 4.30128192902 68.1490020752
endloop
endfacet
facet normal 0.00159501982853 0.999998748302 -1.32373573908e-11
outer loop
vertex -0.473092734814 4.3013882637 71.7399978638
vertex -0.406426161528 4.30128192902 68.1490020752
vertex -0.473092764616 4.3013882637 68.1490020752
endloop
endfacet
facet normal 0.000858307001181 0.999999642372 -1.42464894048e-11
outer loop
vertex -0.539759337902 4.30144548416 71.7399978638
vertex -0.473092764616 4.3013882637 68.1490020752
vertex -0.539759397507 4.30144548416 68.1490020752
endloop
endfacet
facet normal 0.000858307350427 0.999999642372 -7.5981313255e-12
outer loop
vertex -0.539759337902 4.30144548416 71.7399978638
vertex -0.473092734814 4.3013882637 71.7399978638
vertex -0.473092764616 4.3013882637 68.1490020752
endloop
endfacet
facet normal 0.000121593482618 1.0 0.0
outer loop
vertex -0.6064260602 4.30145359039 71.7399978638
vertex -0.539759397507 4.30144548416 68.1490020752
vertex -0.6064260602 4.30145359039 68.1490020752
endloop
endfacet
facet normal 0.000121593373478 1.0 -2.13697137243e-12
outer loop
vertex -0.6064260602 4.30145359039 71.7399978638
vertex -0.539759337902 4.30144548416 71.7399978638
vertex -0.539759397507 4.30144548416 68.1490020752
endloop
endfacet
facet normal -0.999999940395 -0.00025033854763 -3.32416767723e-11
outer loop
vertex -0.6064260602 4.30145359039 71.7399978638
vertex -0.606413543224 4.2514538765 68.1490020752
vertex -0.606413543224 4.25145339966 71.7399978638
endloop
endfacet
facet normal -0.999999940395 -0.000250340934144 0.0
outer loop
vertex -0.6064260602 4.30145359039 68.1490020752
vertex -0.606413543224 4.2514538765 68.1490020752
vertex -0.6064260602 4.30145359039 71.7399978638
endloop
endfacet
facet normal -0.00160306238104 -0.999998748302 1.3304104346e-11
outer loop
vertex -0.406524628401 4.25128173828 68.1490020752
vertex -0.473154187202 4.2513885498 71.7399978638
vertex -0.473154217005 4.2513885498 68.1490020752
endloop
endfacet
facet normal -0.00160306238104 -0.999998748302 1.3304104346e-11
outer loop
vertex -0.406524598598 4.25128173828 71.7399978638
vertex -0.473154187202 4.2513885498 71.7399978638
vertex -0.406524628401 4.25128173828 68.1490020752
endloop
endfacet
facet normal -0.000858783838339 -0.999999642372 0.0
outer loop
vertex -0.473154217005 4.2513885498 68.1490020752
vertex -0.539783835411 4.25144577026 71.7399978638
vertex -0.539783835411 4.25144577026 68.1490020752
endloop
endfacet
facet normal -0.000858783430886 -0.999999642372 7.12719900459e-12
outer loop
vertex -0.473154187202 4.2513885498 71.7399978638
vertex -0.539783835411 4.25144577026 71.7399978638
vertex -0.473154217005 4.2513885498 68.1490020752
endloop
endfacet
facet normal -0.000121660916193 -1.0 -1.32786766471e-07
outer loop
vertex -0.539783835411 4.25144577026 68.1490020752
vertex -0.606413543224 4.25145339966 71.7399978638
vertex -0.606413543224 4.2514538765 68.1490020752
endloop
endfacet
facet normal -0.000114504393423 -1.0 -0.0
outer loop
vertex -0.539783835411 4.25144577026 71.7399978638
vertex -0.606413543224 4.25145339966 71.7399978638
vertex -0.539783835411 4.25144577026 68.1490020752
endloop
endfacet
facet normal 0.999998033047 -0.00196934491396 -8.56058868237e-09
outer loop
vertex -0.406524598598 4.25128173828 71.7399978638
vertex -0.406426161528 4.30128192902 68.1490020752
vertex -0.406426131725 4.30128145218 71.7399978638
endloop
endfacet
facet normal 0.999998033047 -0.00196932605468 -8.29916402267e-09
outer loop
vertex -0.406524628401 4.25128173828 68.1490020752
vertex -0.406426161528 4.30128192902 68.1490020752
vertex -0.406524598598 4.25128173828 71.7399978638
endloop
endfacet
facet normal 0.0 0.0 -1.0
outer loop
vertex -0.539783835411 4.25144577026 68.1490020752
vertex -0.606413543224 4.2514538765 68.1490020752
vertex -0.6064260602 4.30145359039 68.1490020752
endloop
endfacet
facet normal -0.0 0.0 -1.0
outer loop
vertex -0.539759397507 4.30144548416 68.1490020752
vertex -0.539783835411 4.25144577026 68.1490020752
vertex -0.6064260602 4.30145359039 68.1490020752
endloop
endfacet
facet normal 0.0 0.0 -1.0
outer loop
vertex -0.473092764616 4.3013882637 68.1490020752
vertex -0.473154217005 4.2513885498 68.1490020752
vertex -0.539783835411 4.25144577026 68.1490020752
endloop
endfacet
facet normal -0.0 0.0 -1.0
outer loop
vertex -0.473092764616 4.3013882637 68.1490020752
vertex -0.539783835411 4.25144577026 68.1490020752
vertex -0.539759397507 4.30144548416 68.1490020752
endloop
endfacet
facet normal 0.0 0.0 -1.0
outer loop
vertex -0.406426161528 4.30128192902 68.1490020752
vertex -0.406524628401 4.25128173828 68.1490020752
vertex -0.473154217005 4.2513885498 68.1490020752
endloop
endfacet
facet normal -0.0 0.0 -1.0
outer loop
vertex -0.406426161528 4.30128192902 68.1490020752
vertex -0.473154217005 4.2513885498 68.1490020752
vertex -0.473092764616 4.3013882637 68.1490020752
endloop
endfacet
facet normal -0.0 -0.0 1.0
outer loop
vertex -0.606413543224 4.25145339966 71.7399978638
vertex -0.539783835411 4.25144577026 71.7399978638
vertex -0.6064260602 4.30145359039 71.7399978638
endloop
endfacet
facet normal 0.0 -0.0 1.0
outer loop
vertex -0.539783835411 4.25144577026 71.7399978638
vertex -0.539759337902 4.30144548416 71.7399978638
vertex -0.6064260602 4.30145359039 71.7399978638
endloop
endfacet
facet normal 0.0 -0.0 1.0
outer loop
vertex -0.473154187202 4.2513885498 71.7399978638
vertex -0.473092734814 4.3013882637 71.7399978638
vertex -0.539783835411 4.25144577026 71.7399978638
endloop
endfacet
facet normal 0.0 0.0 1.0
outer loop
vertex -0.539783835411 4.25144577026 71.7399978638
vertex -0.473092734814 4.3013882637 71.7399978638
vertex -0.539759337902 4.30144548416 71.7399978638
endloop
endfacet
facet normal 0.0 -0.0 1.0
outer loop
vertex -0.406524598598 4.25128173828 71.7399978638
vertex -0.406426131725 4.30128145218 71.7399978638
vertex -0.473154187202 4.2513885498 71.7399978638
endloop
endfacet
facet normal 0.0 0.0 1.0
outer loop
vertex -0.473154187202 4.2513885498 71.7399978638
vertex -0.406426131725 4.30128145218 71.7399978638
vertex -0.473092734814 4.3013882637 71.7399978638
endloop
endfacet
