solid 
facet normal -0.00159502052702 0.999998748302 -1.32373348394e-11
outer loop
vertex 0.406431376934 4.30128145218 -155.761001587
vertex 0.406431347132 4.30128145218 -152.169998169
vertex 0.473097920418 4.30138778687 -152.169998169
endloop
endfacet
facet normal -0.000865459209308 0.999999642372 1.32779376827e-07
outer loop
vertex 0.47309795022 4.3013882637 -155.761001587
vertex 0.473097920418 4.30138778687 -152.169998169
vertex 0.539764583111 4.30144548416 -152.169998169
endloop
endfacet
facet normal -0.00160217308439 0.999998748302 1.32773138262e-07
outer loop
vertex 0.47309795022 4.3013882637 -155.761001587
vertex 0.406431376934 4.30128145218 -155.761001587
vertex 0.473097920418 4.30138778687 -152.169998169
endloop
endfacet
facet normal -0.000114440925245 1.0 0.0
outer loop
vertex 0.539764583111 4.30144548416 -155.761001587
vertex 0.539764583111 4.30144548416 -152.169998169
vertex 0.606431245804 4.30145311356 -152.169998169
endloop
endfacet
facet normal -0.000858307001181 0.999999642372 0.0
outer loop
vertex 0.539764583111 4.30144548416 -155.761001587
vertex 0.47309795022 4.3013882637 -155.761001587
vertex 0.539764583111 4.30144548416 -152.169998169
endloop
endfacet
facet normal -0.000121593482618 1.0 1.32786610152e-07
outer loop
vertex 0.606431245804 4.30145359039 -155.761001587
vertex 0.539764583111 4.30144548416 -155.761001587
vertex 0.606431245804 4.30145311356 -152.169998169
endloop
endfacet
facet normal 0.999999940395 -0.000250338518526 -3.32416039139e-11
outer loop
vertex 0.606418728828 4.25145339966 -155.761001587
vertex 0.606431245804 4.30145359039 -155.761001587
vertex 0.606431245804 4.30145311356 -152.169998169
endloop
endfacet
facet normal 0.999999940395 -0.000250340934144 0.0
outer loop
vertex 0.606418728828 4.25145339966 -155.761001587
vertex 0.606431245804 4.30145311356 -152.169998169
vertex 0.606418728828 4.25145339966 -152.169998169
endloop
endfacet
facet normal 0.00160306238104 -0.999998688698 1.3304075723e-11
outer loop
vertex 0.406529784203 4.25128126144 -152.169998169
vertex 0.473159402609 4.25138807297 -155.761001587
vertex 0.473159372807 4.25138807297 -152.169998169
endloop
endfacet
facet normal 0.00159590574913 -0.999998688698 -1.32773180894e-07
outer loop
vertex 0.406529814005 4.25128173828 -155.761001587
vertex 0.473159402609 4.25138807297 -155.761001587
vertex 0.406529784203 4.25128126144 -152.169998169
endloop
endfacet
facet normal 0.000858783430886 -0.999999642372 1.42543676515e-11
outer loop
vertex 0.473159372807 4.25138807297 -152.169998169
vertex 0.53978908062 4.25144529343 -155.761001587
vertex 0.539789021015 4.25144529343 -152.169998169
endloop
endfacet
facet normal 0.000858783023432 -0.999999642372 7.12718035631e-12
outer loop
vertex 0.473159402609 4.25138807297 -155.761001587
vertex 0.53978908062 4.25144529343 -155.761001587
vertex 0.473159372807 4.25138807297 -152.169998169
endloop
endfacet
facet normal 0.000121660916193 -1.0 0.0
outer loop
vertex 0.539789021015 4.25144529343 -152.169998169
vertex 0.606418728828 4.25145339966 -155.761001587
vertex 0.606418728828 4.25145339966 -152.169998169
endloop
endfacet
facet normal 0.000121661032608 -1.0 2.01936948066e-12
outer loop
vertex 0.53978908062 4.25144529343 -155.761001587
vertex 0.606418728828 4.25145339966 -155.761001587
vertex 0.539789021015 4.25144529343 -152.169998169
endloop
endfacet
facet normal -0.999998033047 -0.00196874863468 -8.56057003062e-09
outer loop
vertex 0.406431376934 4.30128145218 -155.761001587
vertex 0.406529814005 4.25128173828 -155.761001587
vertex 0.406529784203 4.25128126144 -152.169998169
endloop
endfacet
facet normal -0.999998033047 -0.00196873000823 -8.29914625911e-09
outer loop
vertex 0.406431376934 4.30128145218 -155.761001587
vertex 0.406529784203 4.25128126144 -152.169998169
vertex 0.406431347132 4.30128145218 -152.169998169
endloop
endfacet
facet normal -0.0 0.0 -1.0
outer loop
vertex 0.606418728828 4.25145339966 -155.761001587
vertex 0.53978908062 4.25144529343 -155.761001587
vertex 0.606431245804 4.30145359039 -155.761001587
endloop
endfacet
facet normal 0.0 0.0 -1.0
outer loop
vertex 0.53978908062 4.25144529343 -155.761001587
vertex 0.539764583111 4.30144548416 -155.761001587
vertex 0.606431245804 4.30145359039 -155.761001587
endloop
endfacet
facet normal 0.0 0.0 -1.0
outer loop
vertex 0.473159402609 4.25138807297 -155.761001587
vertex 0.47309795022 4.3013882637 -155.761001587
vertex 0.53978908062 4.25144529343 -155.761001587
endloop
endfacet
facet normal 0.0 0.0 -1.0
outer loop
vertex 0.53978908062 4.25144529343 -155.761001587
vertex 0.47309795022 4.3013882637 -155.761001587
vertex 0.539764583111 4.30144548416 -155.761001587
endloop
endfacet
facet normal -0.0 0.0 -1.0
outer loop
vertex 0.473159402609 4.25138807297 -155.761001587
vertex 0.406529814005 4.25128173828 -155.761001587
vertex 0.47309795022 4.3013882637 -155.761001587
endloop
endfacet
facet normal 0.0 0.0 -1.0
outer loop
vertex 0.406529814005 4.25128173828 -155.761001587
vertex 0.406431376934 4.30128145218 -155.761001587
vertex 0.47309795022 4.3013882637 -155.761001587
endloop
endfacet
facet normal 0.0 0.0 1.0
outer loop
vertex 0.539789021015 4.25144529343 -152.169998169
vertex 0.606418728828 4.25145339966 -152.169998169
vertex 0.606431245804 4.30145311356 -152.169998169
endloop
endfacet
facet normal -0.0 0.0 1.0
outer loop
vertex 0.539764583111 4.30144548416 -152.169998169
vertex 0.539789021015 4.25144529343 -152.169998169
vertex 0.606431245804 4.30145311356 -152.169998169
endloop
endfacet
facet normal 0.0 0.0 1.0
outer loop
vertex 0.473159372807 4.25138807297 -152.169998169
vertex 0.539789021015 4.25144529343 -152.169998169
vertex 0.539764583111 4.30144548416 -152.169998169
endloop
endfacet
facet normal -0.0 0.0 1.0
outer loop
vertex 0.473097920418 4.30138778687 -152.169998169
vertex 0.473159372807 4.25138807297 -152.169998169
vertex 0.539764583111 4.30144548416 -152.169998169
endloop
endfacet
facet normal 0.0 0.0 1.0
outer loop
vertex 0.406431347132 4.30128145218 -152.169998169
vertex 0.406529784203 4.25128126144 -152.169998169
vertex 0.473159372807 4.25138807297 -152.169998169
endloop
endfacet
facet normal -0.0 0.0 1.0
outer loop
vertex 0.406431347132 4.30128145218 -152.169998169
vertex 0.473159372807 4.25138807297 -152.169998169
vertex 0.473097920418 4.30138778687 -152.169998169
endloop
endfacet
