solid 
facet normal 0.00160217226949 0.999998688698 0.0
outer loop
vertex -0.473077207804 4.30138731003 6.74199962616
vertex -0.406410604715 4.3012804985 6.74199962616
vertex -0.406410604715 4.3012804985 3.15099954605
endloop
endfacet
facet normal 0.00160217226949 0.999998688698 0.0
outer loop
vertex -0.473077207804 4.30138731003 6.74199962616
vertex -0.406410604715 4.3012804985 3.15099954605
vertex -0.473077207804 4.30138731003 3.15099954605
endloop
endfacet
facet normal 0.000858307001181 0.999999642372 0.0
outer loop
vertex -0.539743840694 4.30144453049 6.74199962616
vertex -0.473077207804 4.30138731003 3.15099954605
vertex -0.539743840694 4.30144453049 3.15099954605
endloop
endfacet
facet normal 0.000858307001181 0.999999642372 0.0
outer loop
vertex -0.539743840694 4.30144453049 6.74199962616
vertex -0.473077207804 4.30138731003 6.74199962616
vertex -0.473077207804 4.30138731003 3.15099954605
endloop
endfacet
facet normal 0.000121593482618 1.0 0.0
outer loop
vertex -0.606410503387 4.30145263672 6.74199962616
vertex -0.539743840694 4.30144453049 3.15099954605
vertex -0.606410503387 4.30145263672 3.15099954605
endloop
endfacet
facet normal 0.000121593482618 1.0 0.0
outer loop
vertex -0.606410503387 4.30145263672 6.74199962616
vertex -0.539743840694 4.30144453049 6.74199962616
vertex -0.539743840694 4.30144453049 3.15099954605
endloop
endfacet
facet normal -1.0 -0.00025033854763 0.0
outer loop
vertex -0.606410503387 4.30145263672 6.74199962616
vertex -0.606397986412 4.25145244598 3.15099954605
vertex -0.606397986412 4.25145244598 6.74199962616
endloop
endfacet
facet normal -1.0 -0.00025033854763 0.0
outer loop
vertex -0.606410503387 4.30145263672 3.15099954605
vertex -0.606397986412 4.25145244598 3.15099954605
vertex -0.606410503387 4.30145263672 6.74199962616
endloop
endfacet
facet normal -0.00159590598196 -0.999998748302 0.0
outer loop
vertex -0.406509071589 4.25128078461 3.15099954605
vertex -0.473138660192 4.25138711929 6.74199962616
vertex -0.473138660192 4.25138711929 3.15099954605
endloop
endfacet
facet normal -0.00159590598196 -0.999998748302 -0.0
outer loop
vertex -0.406509071589 4.25128078461 6.74199962616
vertex -0.473138660192 4.25138711929 6.74199962616
vertex -0.406509071589 4.25128078461 3.15099954605
endloop
endfacet
facet normal -0.000858783023432 -0.999999642372 0.0
outer loop
vertex -0.473138660192 4.25138711929 3.15099954605
vertex -0.539768338203 4.25144433975 6.74199962616
vertex -0.539768338203 4.25144433975 3.15099954605
endloop
endfacet
facet normal -0.000858783023432 -0.999999642372 -0.0
outer loop
vertex -0.473138660192 4.25138711929 6.74199962616
vertex -0.539768338203 4.25144433975 6.74199962616
vertex -0.473138660192 4.25138711929 3.15099954605
endloop
endfacet
facet normal -0.000121661032608 -1.0 0.0
outer loop
vertex -0.539768338203 4.25144433975 3.15099954605
vertex -0.606397986412 4.25145244598 6.74199962616
vertex -0.606397986412 4.25145244598 3.15099954605
endloop
endfacet
facet normal -0.000121661032608 -1.0 -0.0
outer loop
vertex -0.539768338203 4.25144433975 6.74199962616
vertex -0.606397986412 4.25145244598 6.74199962616
vertex -0.539768338203 4.25144433975 3.15099954605
endloop
endfacet
facet normal 0.999998033047 -0.00196934468113 0.0
outer loop
vertex -0.406509071589 4.25128078461 6.74199962616
vertex -0.406410604715 4.3012804985 3.15099954605
vertex -0.406410604715 4.3012804985 6.74199962616
endloop
endfacet
facet normal 0.999998033047 -0.00196934468113 0.0
outer loop
vertex -0.406509071589 4.25128078461 3.15099954605
vertex -0.406410604715 4.3012804985 3.15099954605
vertex -0.406509071589 4.25128078461 6.74199962616
endloop
endfacet
facet normal 0.0 0.0 -1.0
outer loop
vertex -0.539768338203 4.25144433975 3.15099954605
vertex -0.606397986412 4.25145244598 3.15099954605
vertex -0.606410503387 4.30145263672 3.15099954605
endloop
endfacet
facet normal -0.0 0.0 -1.0
outer loop
vertex -0.539743840694 4.30144453049 3.15099954605
vertex -0.539768338203 4.25144433975 3.15099954605
vertex -0.606410503387 4.30145263672 3.15099954605
endloop
endfacet
facet normal 0.0 0.0 -1.0
outer loop
vertex -0.473077207804 4.30138731003 3.15099954605
vertex -0.473138660192 4.25138711929 3.15099954605
vertex -0.539768338203 4.25144433975 3.15099954605
endloop
endfacet
facet normal -0.0 0.0 -1.0
outer loop
vertex -0.473077207804 4.30138731003 3.15099954605
vertex -0.539768338203 4.25144433975 3.15099954605
vertex -0.539743840694 4.30144453049 3.15099954605
endloop
endfacet
facet normal 0.0 0.0 -1.0
outer loop
vertex -0.406410604715 4.3012804985 3.15099954605
vertex -0.406509071589 4.25128078461 3.15099954605
vertex -0.473138660192 4.25138711929 3.15099954605
endloop
endfacet
facet normal -0.0 0.0 -1.0
outer loop
vertex -0.406410604715 4.3012804985 3.15099954605
vertex -0.473138660192 4.25138711929 3.15099954605
vertex -0.473077207804 4.30138731003 3.15099954605
endloop
endfacet
facet normal -0.0 -0.0 1.0
outer loop
vertex -0.606397986412 4.25145244598 6.74199962616
vertex -0.539768338203 4.25144433975 6.74199962616
vertex -0.606410503387 4.30145263672 6.74199962616
endloop
endfacet
facet normal 0.0 -0.0 1.0
outer loop
vertex -0.539768338203 4.25144433975 6.74199962616
vertex -0.539743840694 4.30144453049 6.74199962616
vertex -0.606410503387 4.30145263672 6.74199962616
endloop
endfacet
facet normal 0.0 -0.0 1.0
outer loop
vertex -0.473138660192 4.25138711929 6.74199962616
vertex -0.473077207804 4.30138731003 6.74199962616
vertex -0.539768338203 4.25144433975 6.74199962616
endloop
endfacet
facet normal 0.0 0.0 1.0
outer loop
vertex -0.539768338203 4.25144433975 6.74199962616
vertex -0.473077207804 4.30138731003 6.74199962616
vertex -0.539743840694 4.30144453049 6.74199962616
endloop
endfacet
facet normal 0.0 -0.0 1.0
outer loop
vertex -0.406509071589 4.25128078461 6.74199962616
vertex -0.406410604715 4.3012804985 6.74199962616
vertex -0.473138660192 4.25138711929 6.74199962616
endloop
endfacet
facet normal 0.0 0.0 1.0
outer loop
vertex -0.473138660192 4.25138711929 6.74199962616
vertex -0.406410604715 4.3012804985 6.74199962616
vertex -0.473077207804 4.30138731003 6.74199962616
endloop
endfacet
