solid 
facet normal 0.204613447189 0.978842914104 6.49886118254e-08
outer loop
vertex 18.9899864197 2.40169382095 -188.259994507
vertex 18.9899864197 2.40169358253 -184.668991089
vertex 19.0552425385 2.38805270195 -184.668991089
endloop
endfacet
facet normal 0.205334171653 0.978691875935 6.49785860674e-08
outer loop
vertex 19.0552425385 2.38805294037 -188.259994507
vertex 19.0552425385 2.38805270195 -184.668991089
vertex 19.1204891205 2.37436366081 -184.668991089
endloop
endfacet
facet normal 0.204613447189 0.978842914104 6.49886118254e-08
outer loop
vertex 19.0552425385 2.38805294037 -188.259994507
vertex 18.9899864197 2.40169382095 -188.259994507
vertex 19.0552425385 2.38805270195 -184.668991089
endloop
endfacet
facet normal 0.206064015627 0.978538513184 -0.0
outer loop
vertex 19.1204891205 2.37436366081 -188.259994507
vertex 19.1204891205 2.37436366081 -184.668991089
vertex 19.1857242584 2.3606262207 -184.668991089
endloop
endfacet
facet normal 0.205337613821 0.978691220284 -0.0
outer loop
vertex 19.1204891205 2.37436366081 -188.259994507
vertex 19.0552425385 2.38805294037 -188.259994507
vertex 19.1204891205 2.37436366081 -184.668991089
endloop
endfacet
facet normal 0.206064015627 0.978538513184 -0.0
outer loop
vertex 19.1857242584 2.3606262207 -188.259994507
vertex 19.1204891205 2.37436366081 -188.259994507
vertex 19.1857242584 2.3606262207 -184.668991089
endloop
endfacet
facet normal 0.978464722633 -0.206414192915 0.0
outer loop
vertex 19.175403595 2.31170320511 -188.259994507
vertex 19.1857242584 2.3606262207 -188.259994507
vertex 19.1857242584 2.3606262207 -184.668991089
endloop
endfacet
facet normal 0.978464901447 -0.206413239241 -1.37044562365e-08
outer loop
vertex 19.175403595 2.31170320511 -188.259994507
vertex 19.1857242584 2.3606262207 -184.668991089
vertex 19.175403595 2.31170296669 -184.668991089
endloop
endfacet
facet normal -0.204612642527 -0.978843033314 0.0
outer loop
vertex 18.9797744751 2.35274767876 -184.668991089
vertex 19.0449943542 2.33911442757 -188.259994507
vertex 19.0449943542 2.33911442757 -184.668991089
endloop
endfacet
facet normal -0.204616069794 -0.978842318058 -6.49885691928e-08
outer loop
vertex 18.9797744751 2.35274791718 -188.259994507
vertex 19.0449943542 2.33911442757 -188.259994507
vertex 18.9797744751 2.35274767876 -184.668991089
endloop
endfacet
facet normal -0.20534299314 -0.978690087795 -1.73944940229e-07
outer loop
vertex 19.0449943542 2.33911442757 -184.668991089
vertex 19.1102046967 2.32543301582 -188.259994507
vertex 19.1102027893 2.3254327774 -184.668991089
endloop
endfacet
facet normal -0.206058263779 -0.978539764881 -1.74415603738e-07
outer loop
vertex 19.1102027893 2.3254327774 -184.668991089
vertex 19.1102046967 2.32543301582 -188.259994507
vertex 19.175403595 2.31170296669 -184.668991089
endloop
endfacet
facet normal -0.205333814025 -0.978691995144 0.0
outer loop
vertex 19.0449943542 2.33911442757 -188.259994507
vertex 19.1102046967 2.32543301582 -188.259994507
vertex 19.0449943542 2.33911442757 -184.668991089
endloop
endfacet
facet normal -0.206064030528 -0.978538513184 -6.49550955245e-08
outer loop
vertex 19.1102046967 2.32543301582 -188.259994507
vertex 19.175403595 2.31170320511 -188.259994507
vertex 19.175403595 2.31170296669 -184.668991089
endloop
endfacet
facet normal -0.978920996189 0.204239502549 1.35601352369e-08
outer loop
vertex 18.9797744751 2.35274791718 -188.259994507
vertex 18.9797744751 2.35274767876 -184.668991089
vertex 18.9899864197 2.40169358253 -184.668991089
endloop
endfacet
facet normal -0.978920996189 0.204239502549 1.35601352369e-08
outer loop
vertex 18.9899864197 2.40169382095 -188.259994507
vertex 18.9797744751 2.35274791718 -188.259994507
vertex 18.9899864197 2.40169358253 -184.668991089
endloop
endfacet
facet normal 0.0 0.0 -1.0
outer loop
vertex 19.1102046967 2.32543301582 -188.259994507
vertex 19.1204891205 2.37436366081 -188.259994507
vertex 19.175403595 2.31170320511 -188.259994507
endloop
endfacet
facet normal 0.0 0.0 -1.0
outer loop
vertex 19.175403595 2.31170320511 -188.259994507
vertex 19.1204891205 2.37436366081 -188.259994507
vertex 19.1857242584 2.3606262207 -188.259994507
endloop
endfacet
facet normal 0.0 0.0 -1.0
outer loop
vertex 19.0449943542 2.33911442757 -188.259994507
vertex 19.0552425385 2.38805294037 -188.259994507
vertex 19.1102046967 2.32543301582 -188.259994507
endloop
endfacet
facet normal 0.0 0.0 -1.0
outer loop
vertex 19.1102046967 2.32543301582 -188.259994507
vertex 19.0552425385 2.38805294037 -188.259994507
vertex 19.1204891205 2.37436366081 -188.259994507
endloop
endfacet
facet normal 0.0 0.0 -1.0
outer loop
vertex 18.9797744751 2.35274791718 -188.259994507
vertex 18.9899864197 2.40169382095 -188.259994507
vertex 19.0449943542 2.33911442757 -188.259994507
endloop
endfacet
facet normal 0.0 0.0 -1.0
outer loop
vertex 19.0449943542 2.33911442757 -188.259994507
vertex 18.9899864197 2.40169382095 -188.259994507
vertex 19.0552425385 2.38805294037 -188.259994507
endloop
endfacet
facet normal -0.0 0.0 1.0
outer loop
vertex 19.1102027893 2.3254327774 -184.668991089
vertex 19.175403595 2.31170296669 -184.668991089
vertex 19.1857242584 2.3606262207 -184.668991089
endloop
endfacet
facet normal 0.0 0.0 1.0
outer loop
vertex 19.1204891205 2.37436366081 -184.668991089
vertex 19.1102027893 2.3254327774 -184.668991089
vertex 19.1857242584 2.3606262207 -184.668991089
endloop
endfacet
facet normal 0.0 0.0 1.0
outer loop
vertex 19.0552425385 2.38805270195 -184.668991089
vertex 19.0449943542 2.33911442757 -184.668991089
vertex 19.1102027893 2.3254327774 -184.668991089
endloop
endfacet
facet normal 0.0 0.0 1.0
outer loop
vertex 19.0552425385 2.38805270195 -184.668991089
vertex 19.1102027893 2.3254327774 -184.668991089
vertex 19.1204891205 2.37436366081 -184.668991089
endloop
endfacet
facet normal 0.0 0.0 1.0
outer loop
vertex 18.9899864197 2.40169358253 -184.668991089
vertex 18.9797744751 2.35274767876 -184.668991089
vertex 19.0449943542 2.33911442757 -184.668991089
endloop
endfacet
facet normal 0.0 0.0 1.0
outer loop
vertex 18.9899864197 2.40169358253 -184.668991089
vertex 19.0449943542 2.33911442757 -184.668991089
vertex 19.0552425385 2.38805270195 -184.668991089
endloop
endfacet
