solid 
facet normal -0.00159502052702 0.999998748302 -1.3296695342e-11
outer loop
vertex 0.473087340593 4.30138778687 -217.108001709
vertex 0.406420767307 4.30128145218 -217.108001709
vertex 0.406420737505 4.30128145218 -213.516998291
endloop
endfacet
facet normal -0.00159502052702 0.999998748302 -1.32373348394e-11
outer loop
vertex 0.473087340593 4.30138778687 -217.108001709
vertex 0.406420737505 4.30128145218 -213.516998291
vertex 0.473087310791 4.30138778687 -213.516998291
endloop
endfacet
facet normal -0.000858306651935 0.999999642372 1.32786553309e-07
outer loop
vertex 0.539753973484 4.30144548416 -217.108001709
vertex 0.473087310791 4.30138778687 -213.516998291
vertex 0.539753973484 4.30144500732 -213.516998291
endloop
endfacet
facet normal -0.000865459558554 0.999999642372 -7.59811137618e-12
outer loop
vertex 0.539753973484 4.30144548416 -217.108001709
vertex 0.473087340593 4.30138778687 -217.108001709
vertex 0.473087310791 4.30138778687 -213.516998291
endloop
endfacet
facet normal -0.000121593482618 1.0 0.0
outer loop
vertex 0.606420636177 4.30145311356 -217.108001709
vertex 0.539753973484 4.30144500732 -213.516998291
vertex 0.606420636177 4.30145311356 -213.516998291
endloop
endfacet
facet normal -0.000114440925245 1.0 1.32786496465e-07
outer loop
vertex 0.606420636177 4.30145311356 -217.108001709
vertex 0.539753973484 4.30144548416 -217.108001709
vertex 0.539753973484 4.30144500732 -213.516998291
endloop
endfacet
facet normal 0.999999940395 -0.000250340934144 0.0
outer loop
vertex 0.606408119202 4.25145339966 -217.108001709
vertex 0.606420636177 4.30145311356 -217.108001709
vertex 0.606420636177 4.30145311356 -213.516998291
endloop
endfacet
facet normal 0.999999940395 -0.000250340934144 0.0
outer loop
vertex 0.606408119202 4.25145339966 -217.108001709
vertex 0.606420636177 4.30145311356 -213.516998291
vertex 0.606408119202 4.25145339966 -213.516998291
endloop
endfacet
facet normal 0.00160306238104 -0.999998688698 0.0
outer loop
vertex 0.406519204378 4.25128126144 -213.516998291
vertex 0.473148792982 4.25138807297 -217.108001709
vertex 0.473148792982 4.25138807297 -213.516998291
endloop
endfacet
facet normal 0.00160306238104 -0.999998688698 0.0
outer loop
vertex 0.406519204378 4.25128126144 -217.108001709
vertex 0.473148792982 4.25138807297 -217.108001709
vertex 0.406519204378 4.25128126144 -213.516998291
endloop
endfacet
facet normal 0.000858783838339 -0.999999642372 1.52046656515e-11
outer loop
vertex 0.473148792982 4.25138807297 -213.516998291
vertex 0.539778470993 4.25144529343 -217.108001709
vertex 0.539778411388 4.25144529343 -213.516998291
endloop
endfacet
facet normal 0.000858783023432 -0.999999642372 0.0
outer loop
vertex 0.473148792982 4.25138807297 -217.108001709
vertex 0.539778470993 4.25144529343 -217.108001709
vertex 0.473148792982 4.25138807297 -213.516998291
endloop
endfacet
facet normal 0.000121660916193 -1.0 0.0
outer loop
vertex 0.539778411388 4.25144529343 -213.516998291
vertex 0.606408119202 4.25145339966 -217.108001709
vertex 0.606408119202 4.25145339966 -213.516998291
endloop
endfacet
facet normal 0.000121661032608 -1.0 2.01936948066e-12
outer loop
vertex 0.539778470993 4.25144529343 -217.108001709
vertex 0.606408119202 4.25145339966 -217.108001709
vertex 0.539778411388 4.25144529343 -213.516998291
endloop
endfacet
facet normal -0.999998033047 -0.00196873000823 0.0
outer loop
vertex 0.406420767307 4.30128145218 -217.108001709
vertex 0.406519204378 4.25128126144 -217.108001709
vertex 0.406519204378 4.25128126144 -213.516998291
endloop
endfacet
facet normal -0.999998033047 -0.00196932605468 -8.29914625911e-09
outer loop
vertex 0.406420767307 4.30128145218 -217.108001709
vertex 0.406519204378 4.25128126144 -213.516998291
vertex 0.406420737505 4.30128145218 -213.516998291
endloop
endfacet
facet normal -0.0 0.0 -1.0
outer loop
vertex 0.606408119202 4.25145339966 -217.108001709
vertex 0.539778470993 4.25144529343 -217.108001709
vertex 0.606420636177 4.30145311356 -217.108001709
endloop
endfacet
facet normal 0.0 0.0 -1.0
outer loop
vertex 0.539778470993 4.25144529343 -217.108001709
vertex 0.539753973484 4.30144548416 -217.108001709
vertex 0.606420636177 4.30145311356 -217.108001709
endloop
endfacet
facet normal 0.0 0.0 -1.0
outer loop
vertex 0.473148792982 4.25138807297 -217.108001709
vertex 0.473087340593 4.30138778687 -217.108001709
vertex 0.539778470993 4.25144529343 -217.108001709
endloop
endfacet
facet normal 0.0 0.0 -1.0
outer loop
vertex 0.539778470993 4.25144529343 -217.108001709
vertex 0.473087340593 4.30138778687 -217.108001709
vertex 0.539753973484 4.30144548416 -217.108001709
endloop
endfacet
facet normal 0.0 0.0 -1.0
outer loop
vertex 0.406519204378 4.25128126144 -217.108001709
vertex 0.406420767307 4.30128145218 -217.108001709
vertex 0.473148792982 4.25138807297 -217.108001709
endloop
endfacet
facet normal 0.0 0.0 -1.0
outer loop
vertex 0.473148792982 4.25138807297 -217.108001709
vertex 0.406420767307 4.30128145218 -217.108001709
vertex 0.473087340593 4.30138778687 -217.108001709
endloop
endfacet
facet normal 0.0 0.0 1.0
outer loop
vertex 0.539778411388 4.25144529343 -213.516998291
vertex 0.606408119202 4.25145339966 -213.516998291
vertex 0.606420636177 4.30145311356 -213.516998291
endloop
endfacet
facet normal -0.0 0.0 1.0
outer loop
vertex 0.539753973484 4.30144500732 -213.516998291
vertex 0.539778411388 4.25144529343 -213.516998291
vertex 0.606420636177 4.30145311356 -213.516998291
endloop
endfacet
facet normal 0.0 0.0 1.0
outer loop
vertex 0.473087310791 4.30138778687 -213.516998291
vertex 0.473148792982 4.25138807297 -213.516998291
vertex 0.539778411388 4.25144529343 -213.516998291
endloop
endfacet
facet normal -0.0 0.0 1.0
outer loop
vertex 0.473087310791 4.30138778687 -213.516998291
vertex 0.539778411388 4.25144529343 -213.516998291
vertex 0.539753973484 4.30144500732 -213.516998291
endloop
endfacet
facet normal 0.0 0.0 1.0
outer loop
vertex 0.406420737505 4.30128145218 -213.516998291
vertex 0.406519204378 4.25128126144 -213.516998291
vertex 0.473148792982 4.25138807297 -213.516998291
endloop
endfacet
facet normal -0.0 0.0 1.0
outer loop
vertex 0.406420737505 4.30128145218 -213.516998291
vertex 0.473148792982 4.25138807297 -213.516998291
vertex 0.473087310791 4.30138778687 -213.516998291
endloop
endfacet
