solid 
facet normal 0.0016021723859 -0.999998748302 0.0
outer loop
vertex -0.473077088594 -4.30138731003 -18.5749988556
vertex -0.406410485506 -4.3012804985 -18.5749988556
vertex -0.406410485506 -4.3012804985 -14.9839992523
endloop
endfacet
facet normal 0.0016021723859 -0.999998748302 0.0
outer loop
vertex -0.473077088594 -4.30138731003 -18.5749988556
vertex -0.406410485506 -4.3012804985 -14.9839992523
vertex -0.473077088594 -4.30138731003 -14.9839992523
endloop
endfacet
facet normal 0.000858307001181 -0.999999642372 0.0
outer loop
vertex -0.539743721485 -4.30144453049 -18.5749988556
vertex -0.473077088594 -4.30138731003 -14.9839992523
vertex -0.539743721485 -4.30144453049 -14.9839992523
endloop
endfacet
facet normal 0.000858307001181 -0.999999642372 0.0
outer loop
vertex -0.539743721485 -4.30144453049 -18.5749988556
vertex -0.473077088594 -4.30138731003 -18.5749988556
vertex -0.473077088594 -4.30138731003 -14.9839992523
endloop
endfacet
facet normal 0.000121593482618 -1.0 0.0
outer loop
vertex -0.606410384178 -4.30145263672 -18.5749988556
vertex -0.539743721485 -4.30144453049 -14.9839992523
vertex -0.606410384178 -4.30145263672 -14.9839992523
endloop
endfacet
facet normal 0.000121593482618 -1.0 0.0
outer loop
vertex -0.606410384178 -4.30145263672 -18.5749988556
vertex -0.539743721485 -4.30144453049 -18.5749988556
vertex -0.539743721485 -4.30144453049 -14.9839992523
endloop
endfacet
facet normal -1.0 0.00025033854763 0.0
outer loop
vertex -0.606410384178 -4.30145263672 -18.5749988556
vertex -0.606397867203 -4.25145244598 -14.9839992523
vertex -0.606397867203 -4.25145244598 -18.5749988556
endloop
endfacet
facet normal -1.0 0.00025033854763 0.0
outer loop
vertex -0.606410384178 -4.30145263672 -14.9839992523
vertex -0.606397867203 -4.25145244598 -14.9839992523
vertex -0.606410384178 -4.30145263672 -18.5749988556
endloop
endfacet
facet normal -0.00159590586554 0.999998748302 0.0
outer loop
vertex -0.406508952379 -4.25128078461 -14.9839992523
vertex -0.406508952379 -4.25128078461 -18.5749988556
vertex -0.473138540983 -4.25138711929 -14.9839992523
endloop
endfacet
facet normal -0.000865939597134 0.999999642372 0.0
outer loop
vertex -0.473138540983 -4.25138711929 -14.9839992523
vertex -0.473138540983 -4.25138711929 -18.5749988556
vertex -0.539768218994 -4.25144481659 -14.9839992523
endloop
endfacet
facet normal -0.00159590586554 0.999998748302 0.0
outer loop
vertex -0.406508952379 -4.25128078461 -18.5749988556
vertex -0.473138540983 -4.25138711929 -18.5749988556
vertex -0.473138540983 -4.25138711929 -14.9839992523
endloop
endfacet
facet normal -0.000114504502562 1.0 0.0
outer loop
vertex -0.539768218994 -4.25144481659 -14.9839992523
vertex -0.539768218994 -4.25144481659 -18.5749988556
vertex -0.606397867203 -4.25145244598 -14.9839992523
endloop
endfacet
facet normal -0.000865939597134 0.999999642372 0.0
outer loop
vertex -0.473138540983 -4.25138711929 -18.5749988556
vertex -0.539768218994 -4.25144481659 -18.5749988556
vertex -0.539768218994 -4.25144481659 -14.9839992523
endloop
endfacet
facet normal -0.000114504502562 1.0 0.0
outer loop
vertex -0.539768218994 -4.25144481659 -18.5749988556
vertex -0.606397867203 -4.25145244598 -18.5749988556
vertex -0.606397867203 -4.25145244598 -14.9839992523
endloop
endfacet
facet normal 0.999998092651 0.00196934514679 0.0
outer loop
vertex -0.406508952379 -4.25128078461 -18.5749988556
vertex -0.406410485506 -4.3012804985 -14.9839992523
vertex -0.406410485506 -4.3012804985 -18.5749988556
endloop
endfacet
facet normal 0.999998092651 0.00196934514679 0.0
outer loop
vertex -0.406508952379 -4.25128078461 -14.9839992523
vertex -0.406410485506 -4.3012804985 -14.9839992523
vertex -0.406508952379 -4.25128078461 -18.5749988556
endloop
endfacet
facet normal 0.0 0.0 1.0
outer loop
vertex -0.539768218994 -4.25144481659 -14.9839992523
vertex -0.606397867203 -4.25145244598 -14.9839992523
vertex -0.606410384178 -4.30145263672 -14.9839992523
endloop
endfacet
facet normal 0.0 0.0 1.0
outer loop
vertex -0.539743721485 -4.30144453049 -14.9839992523
vertex -0.539768218994 -4.25144481659 -14.9839992523
vertex -0.606410384178 -4.30145263672 -14.9839992523
endloop
endfacet
facet normal 0.0 0.0 1.0
outer loop
vertex -0.473077088594 -4.30138731003 -14.9839992523
vertex -0.473138540983 -4.25138711929 -14.9839992523
vertex -0.539768218994 -4.25144481659 -14.9839992523
endloop
endfacet
facet normal 0.0 0.0 1.0
outer loop
vertex -0.473077088594 -4.30138731003 -14.9839992523
vertex -0.539768218994 -4.25144481659 -14.9839992523
vertex -0.539743721485 -4.30144453049 -14.9839992523
endloop
endfacet
facet normal 0.0 0.0 1.0
outer loop
vertex -0.406410485506 -4.3012804985 -14.9839992523
vertex -0.406508952379 -4.25128078461 -14.9839992523
vertex -0.473138540983 -4.25138711929 -14.9839992523
endloop
endfacet
facet normal 0.0 0.0 1.0
outer loop
vertex -0.406410485506 -4.3012804985 -14.9839992523
vertex -0.473138540983 -4.25138711929 -14.9839992523
vertex -0.473077088594 -4.30138731003 -14.9839992523
endloop
endfacet
facet normal 0.0 -0.0 -1.0
outer loop
vertex -0.539768218994 -4.25144481659 -18.5749988556
vertex -0.539743721485 -4.30144453049 -18.5749988556
vertex -0.606397867203 -4.25145244598 -18.5749988556
endloop
endfacet
facet normal 0.0 -0.0 -1.0
outer loop
vertex -0.606397867203 -4.25145244598 -18.5749988556
vertex -0.539743721485 -4.30144453049 -18.5749988556
vertex -0.606410384178 -4.30145263672 -18.5749988556
endloop
endfacet
facet normal 0.0 0.0 -1.0
outer loop
vertex -0.539768218994 -4.25144481659 -18.5749988556
vertex -0.473138540983 -4.25138711929 -18.5749988556
vertex -0.539743721485 -4.30144453049 -18.5749988556
endloop
endfacet
facet normal 0.0 -0.0 -1.0
outer loop
vertex -0.473138540983 -4.25138711929 -18.5749988556
vertex -0.473077088594 -4.30138731003 -18.5749988556
vertex -0.539743721485 -4.30144453049 -18.5749988556
endloop
endfacet
facet normal 0.0 0.0 -1.0
outer loop
vertex -0.473138540983 -4.25138711929 -18.5749988556
vertex -0.406508952379 -4.25128078461 -18.5749988556
vertex -0.473077088594 -4.30138731003 -18.5749988556
endloop
endfacet
facet normal 0.0 -0.0 -1.0
outer loop
vertex -0.406508952379 -4.25128078461 -18.5749988556
vertex -0.406410485506 -4.3012804985 -18.5749988556
vertex -0.473077088594 -4.30138731003 -18.5749988556
endloop
endfacet
