solid b'MESH-MESH-MESH-MESH-MESH-MESH-MESH-MESH-MESH-MESH-MESH-MESH-MESH-MESH-MESH-MESH'
facet normal -1.336518 -10.865069 -0.000001
  outer loop
    vertex -12.919920 -3.476542 -99.044121
    vertex -9.877335 -3.850812 -99.044121
    vertex -9.877335 -3.850813 -95.473122
  endloop
endfacet
facet normal -1.336518 -10.865069 -0.000001
  outer loop
    vertex -12.919920 -3.476542 -99.044121
    vertex -9.877335 -3.850813 -95.473122
    vertex -12.919920 -3.476543 -95.473122
  endloop
endfacet
facet normal -1.705300 -10.813349 -0.000001
  outer loop
    vertex -15.948015 -2.999002 -99.044128
    vertex -12.919920 -3.476543 -95.473122
    vertex -15.948015 -2.999002 -95.473122
  endloop
endfacet
facet normal -1.705297 -10.813326 -0.000001
  outer loop
    vertex -15.948015 -2.999002 -99.044128
    vertex -12.919920 -3.476542 -99.044121
    vertex -12.919920 -3.476543 -95.473122
  endloop
endfacet
facet normal -2.072107 -10.749092 -0.000001
  outer loop
    vertex -18.958117 -2.418743 -99.044128
    vertex -15.948015 -2.999002 -95.473122
    vertex -18.958117 -2.418744 -95.473122
  endloop
endfacet
facet normal -2.072107 -10.749092 -0.000001
  outer loop
    vertex -18.958117 -2.418743 -99.044128
    vertex -15.948015 -2.999002 -99.044128
    vertex -15.948015 -2.999002 -95.473122
  endloop
endfacet
facet normal -0.174722 0.036780 0.000000
  outer loop
    vertex -18.958117 -2.418743 -99.044128
    vertex -18.958117 -2.418744 -95.473122
    vertex -18.947817 -2.369815 -99.044128
  endloop
endfacet
facet normal -0.174722 0.036773 -0.000000
  outer loop
    vertex -18.958117 -2.418744 -95.473122
    vertex -18.947819 -2.369816 -95.473122
    vertex -18.947817 -2.369815 -99.044128
  endloop
endfacet
facet normal 1.335776 10.859042 0.000001
  outer loop
    vertex -9.872075 -3.801090 -95.473122
    vertex -9.872075 -3.801090 -99.044121
    vertex -12.912972 -3.427028 -95.473122
  endloop
endfacet
facet normal 1.335775 10.859042 0.000000
  outer loop
    vertex -9.872075 -3.801090 -99.044121
    vertex -12.912972 -3.427028 -99.044121
    vertex -12.912972 -3.427028 -95.473122
  endloop
endfacet
facet normal 1.704354 10.807348 0.000000
  outer loop
    vertex -12.912972 -3.427028 -95.473122
    vertex -15.939387 -2.949752 -99.044128
    vertex -15.939387 -2.949752 -95.473122
  endloop
endfacet
facet normal 1.704351 10.807325 -0.000000
  outer loop
    vertex -12.912972 -3.427028 -99.044121
    vertex -15.939387 -2.949752 -99.044128
    vertex -12.912972 -3.427028 -95.473122
  endloop
endfacet
facet normal 2.070957 10.743129 0.000002
  outer loop
    vertex -15.939387 -2.949752 -95.473122
    vertex -18.947817 -2.369815 -99.044128
    vertex -18.947819 -2.369816 -95.473122
  endloop
endfacet
facet normal 2.070958 10.743122 -0.000000
  outer loop
    vertex -15.939387 -2.949752 -99.044128
    vertex -18.947817 -2.369815 -99.044128
    vertex -15.939387 -2.949752 -95.473122
  endloop
endfacet
facet normal 0.177560 -0.018782 -0.000000
  outer loop
    vertex -9.872075 -3.801090 -99.044121
    vertex -9.877335 -3.850813 -95.473122
    vertex -9.877335 -3.850812 -99.044121
  endloop
endfacet
facet normal 0.177560 -0.018782 -0.000000
  outer loop
    vertex -9.872075 -3.801090 -95.473122
    vertex -9.877335 -3.850813 -95.473122
    vertex -9.872075 -3.801090 -99.044121
  endloop
endfacet
facet normal 0.000000 0.000000 0.153169
  outer loop
    vertex -15.939387 -2.949752 -95.473122
    vertex -18.947819 -2.369816 -95.473122
    vertex -18.958117 -2.418744 -95.473122
  endloop
endfacet
facet normal 0.000000 -0.000000 0.153254
  outer loop
    vertex -15.948015 -2.999002 -95.473122
    vertex -15.939387 -2.949752 -95.473122
    vertex -18.958117 -2.418744 -95.473122
  endloop
endfacet
facet normal 0.000000 0.000000 0.153169
  outer loop
    vertex -12.912972 -3.427028 -95.473122
    vertex -15.939387 -2.949752 -95.473122
    vertex -15.948015 -2.999002 -95.473122
  endloop
endfacet
facet normal 0.000000 -0.000000 0.153254
  outer loop
    vertex -12.919920 -3.476543 -95.473122
    vertex -12.912972 -3.427028 -95.473122
    vertex -15.948015 -2.999002 -95.473122
  endloop
endfacet
facet normal 0.000000 0.000000 0.153169
  outer loop
    vertex -9.872075 -3.801090 -95.473122
    vertex -12.912972 -3.427028 -95.473122
    vertex -12.919920 -3.476543 -95.473122
  endloop
endfacet
facet normal 0.000000 -0.000000 0.153254
  outer loop
    vertex -9.877335 -3.850813 -95.473122
    vertex -9.872075 -3.801090 -95.473122
    vertex -12.919920 -3.476543 -95.473122
  endloop
endfacet
facet normal 0.000000 -0.000000 -0.153170
  outer loop
    vertex -18.947817 -2.369815 -99.044128
    vertex -15.939387 -2.949752 -99.044128
    vertex -18.958117 -2.418743 -99.044128
  endloop
endfacet
facet normal -0.000000 0.000000 -0.153254
  outer loop
    vertex -15.939387 -2.949752 -99.044128
    vertex -15.948015 -2.999002 -99.044128
    vertex -18.958117 -2.418743 -99.044128
  endloop
endfacet
facet normal 0.000000 -0.000000 -0.153168
  outer loop
    vertex -15.939387 -2.949752 -99.044128
    vertex -12.912972 -3.427028 -99.044121
    vertex -15.948015 -2.999002 -99.044128
  endloop
endfacet
facet normal 0.000000 -0.000000 -0.153253
  outer loop
    vertex -12.912972 -3.427028 -99.044121
    vertex -12.919920 -3.476542 -99.044121
    vertex -15.948015 -2.999002 -99.044128
  endloop
endfacet
facet normal 0.000000 -0.000000 -0.153168
  outer loop
    vertex -12.912972 -3.427028 -99.044121
    vertex -9.872075 -3.801090 -99.044121
    vertex -12.919920 -3.476542 -99.044121
  endloop
endfacet
facet normal -0.000000 0.000000 -0.153254
  outer loop
    vertex -9.872075 -3.801090 -99.044121
    vertex -9.877335 -3.850812 -99.044121
    vertex -12.919920 -3.476542 -99.044121
  endloop
endfacet
endsolid b'MESH-MESH-MESH-MESH-MESH-MESH-MESH-MESH-MESH-MESH-MESH-MESH-MESH-MESH-MESH-MESH'
