solid b'MESH-MESH-MESH-MESH-MESH-MESH-MESH-MESH-MESH-MESH-MESH-MESH-MESH-MESH-MESH-MESH'
facet normal -0.208038 10.944988 0.000000
  outer loop
    vertex -3.642848 4.292329 43.913303
    vertex -0.577883 4.350586 43.913303
    vertex -0.577883 4.350586 40.342304
  endloop
endfacet
facet normal -0.208038 10.944988 0.000000
  outer loop
    vertex -3.642848 4.292329 43.913303
    vertex -0.577883 4.350586 40.342304
    vertex -3.642848 4.292329 40.342304
  endloop
endfacet
facet normal -0.580188 10.931579 0.000000
  outer loop
    vertex -6.704059 4.129857 43.913303
    vertex -3.642848 4.292329 40.342304
    vertex -6.704059 4.129857 40.342304
  endloop
endfacet
facet normal -0.580188 10.931579 0.000000
  outer loop
    vertex -6.704059 4.129857 43.913303
    vertex -3.642848 4.292329 43.913303
    vertex -3.642848 4.292329 40.342304
  endloop
endfacet
facet normal -0.951667 10.905521 0.000001
  outer loop
    vertex -9.757972 3.863358 43.913303
    vertex -6.704059 4.129857 40.342304
    vertex -9.757972 3.863358 40.342304
  endloop
endfacet
facet normal -0.951668 10.905521 0.000000
  outer loop
    vertex -9.757972 3.863358 43.913303
    vertex -6.704059 4.129857 43.913303
    vertex -6.704059 4.129857 40.342304
  endloop
endfacet
facet normal -0.177584 -0.018547 -0.000000
  outer loop
    vertex -9.757972 3.863358 43.913303
    vertex -9.757972 3.863358 40.342304
    vertex -9.752778 3.813628 43.913303
  endloop
endfacet
facet normal -0.177584 -0.018547 -0.000000
  outer loop
    vertex -9.757972 3.863358 40.342304
    vertex -9.752778 3.813628 40.342304
    vertex -9.752778 3.813628 43.913303
  endloop
endfacet
facet normal 0.207924 -10.938915 0.000000
  outer loop
    vertex -0.577784 4.300587 40.342304
    vertex -3.641048 4.242361 43.913303
    vertex -3.641048 4.242361 40.342304
  endloop
endfacet
facet normal 0.579865 -10.925514 0.000000
  outer loop
    vertex -3.641048 4.242361 40.342304
    vertex -3.641048 4.242361 43.913303
    vertex -6.700560 4.079979 40.342304
  endloop
endfacet
facet normal 0.207922 -10.938915 -0.000001
  outer loop
    vertex -0.577784 4.300586 43.913303
    vertex -3.641048 4.242361 43.913303
    vertex -0.577784 4.300587 40.342304
  endloop
endfacet
facet normal 0.579866 -10.925514 -0.000001
  outer loop
    vertex -3.641048 4.242361 43.913303
    vertex -6.700560 4.079979 43.913303
    vertex -6.700560 4.079979 40.342304
  endloop
endfacet
facet normal 0.951140 -10.899467 -0.000001
  outer loop
    vertex -6.700560 4.079979 40.342304
    vertex -9.752778 3.813628 43.913303
    vertex -9.752778 3.813628 40.342304
  endloop
endfacet
facet normal 0.951139 -10.899467 -0.000001
  outer loop
    vertex -6.700560 4.079979 43.913303
    vertex -9.752778 3.813628 43.913303
    vertex -6.700560 4.079979 40.342304
  endloop
endfacet
facet normal 0.178551 0.000356 0.000000
  outer loop
    vertex -0.577784 4.300586 43.913303
    vertex -0.577784 4.300587 40.342304
    vertex -0.577883 4.350586 43.913303
  endloop
endfacet
facet normal 0.178549 0.000356 0.000000
  outer loop
    vertex -0.577784 4.300587 40.342304
    vertex -0.577883 4.350586 40.342304
    vertex -0.577883 4.350586 43.913303
  endloop
endfacet
facet normal 0.000000 -0.000000 -0.153168
  outer loop
    vertex -6.704059 4.129857 40.342304
    vertex -6.700560 4.079979 40.342304
    vertex -9.752778 3.813628 40.342304
  endloop
endfacet
facet normal 0.000000 0.000000 -0.153254
  outer loop
    vertex -6.704059 4.129857 40.342304
    vertex -9.752778 3.813628 40.342304
    vertex -9.757972 3.863358 40.342304
  endloop
endfacet
facet normal 0.000000 -0.000000 -0.153169
  outer loop
    vertex -3.642848 4.292329 40.342304
    vertex -3.641048 4.242361 40.342304
    vertex -6.700560 4.079979 40.342304
  endloop
endfacet
facet normal 0.000000 0.000000 -0.153253
  outer loop
    vertex -3.642848 4.292329 40.342304
    vertex -6.700560 4.079979 40.342304
    vertex -6.704059 4.129857 40.342304
  endloop
endfacet
facet normal 0.000000 -0.000000 -0.153168
  outer loop
    vertex -0.577883 4.350586 40.342304
    vertex -0.577784 4.300587 40.342304
    vertex -3.641048 4.242361 40.342304
  endloop
endfacet
facet normal 0.000000 0.000000 -0.153254
  outer loop
    vertex -0.577883 4.350586 40.342304
    vertex -3.641048 4.242361 40.342304
    vertex -3.642848 4.292329 40.342304
  endloop
endfacet
facet normal 0.000000 -0.000000 0.153169
  outer loop
    vertex -9.752778 3.813628 43.913303
    vertex -6.700560 4.079979 43.913303
    vertex -9.757972 3.863358 43.913303
  endloop
endfacet
facet normal 0.000000 0.000000 0.153254
  outer loop
    vertex -6.700560 4.079979 43.913303
    vertex -6.704059 4.129857 43.913303
    vertex -9.757972 3.863358 43.913303
  endloop
endfacet
facet normal 0.000000 -0.000000 0.153169
  outer loop
    vertex -6.700560 4.079979 43.913303
    vertex -3.641048 4.242361 43.913303
    vertex -6.704059 4.129857 43.913303
  endloop
endfacet
facet normal 0.000000 0.000000 0.153254
  outer loop
    vertex -3.641048 4.242361 43.913303
    vertex -3.642848 4.292329 43.913303
    vertex -6.704059 4.129857 43.913303
  endloop
endfacet
facet normal 0.000000 -0.000000 0.153169
  outer loop
    vertex -3.641048 4.242361 43.913303
    vertex -0.577784 4.300586 43.913303
    vertex -3.642848 4.292329 43.913303
  endloop
endfacet
facet normal 0.000000 0.000000 0.153255
  outer loop
    vertex -0.577784 4.300586 43.913303
    vertex -0.577883 4.350586 43.913303
    vertex -3.642848 4.292329 43.913303
  endloop
endfacet
endsolid b'MESH-MESH-MESH-MESH-MESH-MESH-MESH-MESH-MESH-MESH-MESH-MESH-MESH-MESH-MESH-MESH'
