solid b'MESH-MESH-MESH-MESH-MESH-MESH-MESH-MESH-MESH-MESH-MESH-MESH-MESH-MESH-MESH-MESH'
facet normal -1.336515 10.865069 0.000000
  outer loop
    vertex -12.919901 3.476545 237.145996
    vertex -9.877316 3.850814 237.145996
    vertex -9.877316 3.850814 233.574997
  endloop
endfacet
facet normal -1.336515 10.865069 0.000000
  outer loop
    vertex -12.919901 3.476545 237.145996
    vertex -9.877316 3.850814 233.574997
    vertex -12.919901 3.476545 233.574997
  endloop
endfacet
facet normal -1.705294 10.813326 0.000001
  outer loop
    vertex -15.947996 2.999005 237.145996
    vertex -12.919901 3.476545 233.574997
    vertex -15.947996 2.999005 233.574997
  endloop
endfacet
facet normal -1.705295 10.813326 0.000000
  outer loop
    vertex -15.947996 2.999005 237.145996
    vertex -12.919901 3.476545 237.145996
    vertex -12.919901 3.476545 233.574997
  endloop
endfacet
facet normal -2.072101 10.749069 0.000000
  outer loop
    vertex -18.958097 2.418747 237.145996
    vertex -15.947996 2.999005 233.574997
    vertex -18.958097 2.418747 233.574997
  endloop
endfacet
facet normal -2.072100 10.749069 0.000001
  outer loop
    vertex -18.958097 2.418747 237.145996
    vertex -15.947996 2.999005 237.145996
    vertex -15.947996 2.999005 233.574997
  endloop
endfacet
facet normal -0.174722 -0.036773 -0.000000
  outer loop
    vertex -18.958097 2.418747 237.145996
    vertex -18.958097 2.418747 233.574997
    vertex -18.947800 2.369819 237.145996
  endloop
endfacet
facet normal -0.174722 -0.036773 0.000000
  outer loop
    vertex -18.958097 2.418747 233.574997
    vertex -18.947800 2.369819 233.574997
    vertex -18.947800 2.369819 237.145996
  endloop
endfacet
facet normal 1.335774 -10.859042 0.000000
  outer loop
    vertex -9.872056 3.801091 233.574997
    vertex -9.872056 3.801091 237.145996
    vertex -12.912953 3.427030 233.574997
  endloop
endfacet
facet normal 1.704348 -10.807328 0.000000
  outer loop
    vertex -12.912953 3.427030 233.574997
    vertex -12.912953 3.427030 237.145996
    vertex -15.939369 2.949755 233.574997
  endloop
endfacet
facet normal 1.335774 -10.859042 0.000000
  outer loop
    vertex -9.872056 3.801091 237.145996
    vertex -12.912953 3.427030 237.145996
    vertex -12.912953 3.427030 233.574997
  endloop
endfacet
facet normal 2.070951 -10.743103 0.000000
  outer loop
    vertex -15.939369 2.949755 233.574997
    vertex -15.939369 2.949755 237.145996
    vertex -18.947800 2.369819 233.574997
  endloop
endfacet
facet normal 1.704348 -10.807328 0.000000
  outer loop
    vertex -12.912953 3.427030 237.145996
    vertex -15.939369 2.949755 237.145996
    vertex -15.939369 2.949755 233.574997
  endloop
endfacet
facet normal 2.070951 -10.743103 0.000000
  outer loop
    vertex -15.939369 2.949755 237.145996
    vertex -18.947800 2.369819 237.145996
    vertex -18.947800 2.369819 233.574997
  endloop
endfacet
facet normal 0.177560 0.018782 0.000000
  outer loop
    vertex -9.872056 3.801091 237.145996
    vertex -9.872056 3.801091 233.574997
    vertex -9.877316 3.850814 237.145996
  endloop
endfacet
facet normal 0.177560 0.018782 0.000000
  outer loop
    vertex -9.872056 3.801091 233.574997
    vertex -9.877316 3.850814 233.574997
    vertex -9.877316 3.850814 237.145996
  endloop
endfacet
facet normal 0.000000 -0.000000 -0.153169
  outer loop
    vertex -15.947996 2.999005 233.574997
    vertex -15.939369 2.949755 233.574997
    vertex -18.947800 2.369819 233.574997
  endloop
endfacet
facet normal 0.000000 0.000000 -0.153254
  outer loop
    vertex -15.947996 2.999005 233.574997
    vertex -18.947800 2.369819 233.574997
    vertex -18.958097 2.418747 233.574997
  endloop
endfacet
facet normal 0.000000 -0.000000 -0.153169
  outer loop
    vertex -12.919901 3.476545 233.574997
    vertex -12.912953 3.427030 233.574997
    vertex -15.939369 2.949755 233.574997
  endloop
endfacet
facet normal 0.000000 0.000000 -0.153254
  outer loop
    vertex -12.919901 3.476545 233.574997
    vertex -15.939369 2.949755 233.574997
    vertex -15.947996 2.999005 233.574997
  endloop
endfacet
facet normal 0.000000 -0.000000 -0.153169
  outer loop
    vertex -9.877316 3.850814 233.574997
    vertex -9.872056 3.801091 233.574997
    vertex -12.912953 3.427030 233.574997
  endloop
endfacet
facet normal 0.000000 0.000000 -0.153254
  outer loop
    vertex -9.877316 3.850814 233.574997
    vertex -12.912953 3.427030 233.574997
    vertex -12.919901 3.476545 233.574997
  endloop
endfacet
facet normal 0.000000 -0.000000 0.153169
  outer loop
    vertex -18.947800 2.369819 237.145996
    vertex -15.939369 2.949755 237.145996
    vertex -18.958097 2.418747 237.145996
  endloop
endfacet
facet normal 0.000000 0.000000 0.153253
  outer loop
    vertex -15.939369 2.949755 237.145996
    vertex -15.947996 2.999005 237.145996
    vertex -18.958097 2.418747 237.145996
  endloop
endfacet
facet normal 0.000000 -0.000000 0.153168
  outer loop
    vertex -15.939369 2.949755 237.145996
    vertex -12.912953 3.427030 237.145996
    vertex -15.947996 2.999005 237.145996
  endloop
endfacet
facet normal 0.000000 0.000000 0.153254
  outer loop
    vertex -12.912953 3.427030 237.145996
    vertex -12.919901 3.476545 237.145996
    vertex -15.947996 2.999005 237.145996
  endloop
endfacet
facet normal 0.000000 -0.000000 0.153169
  outer loop
    vertex -12.912953 3.427030 237.145996
    vertex -9.872056 3.801091 237.145996
    vertex -12.919901 3.476545 237.145996
  endloop
endfacet
facet normal 0.000000 0.000000 0.153254
  outer loop
    vertex -9.872056 3.801091 237.145996
    vertex -9.877316 3.850814 237.145996
    vertex -12.919901 3.476545 237.145996
  endloop
endfacet
endsolid b'MESH-MESH-MESH-MESH-MESH-MESH-MESH-MESH-MESH-MESH-MESH-MESH-MESH-MESH-MESH-MESH'
