solid b'MESH-MESH-MESH-MESH-MESH-MESH-MESH-MESH-MESH-MESH-MESH-MESH-MESH-MESH-MESH-MESH'
facet normal 0.208040 -10.945012 -0.000001
  outer loop
    vertex 3.642859 -4.292329 -80.989120
    vertex 0.577894 -4.350587 -80.989120
    vertex 0.577894 -4.350586 -84.560127
  endloop
endfacet
facet normal 0.208038 -10.945011 -0.000000
  outer loop
    vertex 3.642859 -4.292329 -80.989120
    vertex 0.577894 -4.350586 -84.560127
    vertex 3.642859 -4.292329 -84.560127
  endloop
endfacet
facet normal 0.580191 -10.931602 -0.000000
  outer loop
    vertex 6.704070 -4.129856 -80.989120
    vertex 3.642859 -4.292329 -84.560127
    vertex 6.704069 -4.129856 -84.560127
  endloop
endfacet
facet normal 0.951672 -10.905544 -0.000000
  outer loop
    vertex 6.704070 -4.129856 -80.989120
    vertex 6.704069 -4.129856 -84.560127
    vertex 9.757982 -3.863357 -84.560127
  endloop
endfacet
facet normal 0.580191 -10.931603 -0.000000
  outer loop
    vertex 6.704070 -4.129856 -80.989120
    vertex 3.642859 -4.292329 -80.989120
    vertex 3.642859 -4.292329 -84.560127
  endloop
endfacet
facet normal 0.951671 -10.905542 -0.000001
  outer loop
    vertex 9.757982 -3.863357 -80.989120
    vertex 6.704070 -4.129856 -80.989120
    vertex 9.757982 -3.863357 -84.560127
  endloop
endfacet
facet normal 0.177585 0.018547 0.000000
  outer loop
    vertex 9.752789 -3.813627 -80.989120
    vertex 9.757982 -3.863357 -80.989120
    vertex 9.757982 -3.863357 -84.560127
  endloop
endfacet
facet normal 0.177585 0.018547 0.000000
  outer loop
    vertex 9.752789 -3.813627 -80.989120
    vertex 9.757982 -3.863357 -84.560127
    vertex 9.752789 -3.813627 -84.560127
  endloop
endfacet
facet normal -0.207924 10.938939 0.000000
  outer loop
    vertex 0.577794 -4.300587 -84.560127
    vertex 3.641059 -4.242361 -80.989120
    vertex 3.641059 -4.242361 -84.560127
  endloop
endfacet
facet normal -0.207924 10.938939 0.000000
  outer loop
    vertex 0.577794 -4.300587 -80.989120
    vertex 3.641059 -4.242361 -80.989120
    vertex 0.577794 -4.300587 -84.560127
  endloop
endfacet
facet normal -0.579869 10.925538 0.000001
  outer loop
    vertex 3.641059 -4.242361 -84.560127
    vertex 6.700571 -4.079979 -80.989120
    vertex 6.700571 -4.079978 -84.560127
  endloop
endfacet
facet normal -0.951143 10.899491 0.000001
  outer loop
    vertex 6.700571 -4.079978 -84.560127
    vertex 6.700571 -4.079979 -80.989120
    vertex 9.752789 -3.813627 -84.560127
  endloop
endfacet
facet normal -0.579868 10.925538 0.000000
  outer loop
    vertex 3.641059 -4.242361 -80.989120
    vertex 6.700571 -4.079979 -80.989120
    vertex 3.641059 -4.242361 -84.560127
  endloop
endfacet
facet normal -0.951144 10.899491 0.000001
  outer loop
    vertex 6.700571 -4.079979 -80.989120
    vertex 9.752789 -3.813627 -80.989120
    vertex 9.752789 -3.813627 -84.560127
  endloop
endfacet
facet normal -0.178551 -0.000356 0.000000
  outer loop
    vertex 0.577894 -4.350587 -80.989120
    vertex 0.577794 -4.300587 -80.989120
    vertex 0.577794 -4.300587 -84.560127
  endloop
endfacet
facet normal -0.178549 -0.000356 0.000000
  outer loop
    vertex 0.577894 -4.350587 -80.989120
    vertex 0.577794 -4.300587 -84.560127
    vertex 0.577894 -4.350586 -84.560127
  endloop
endfacet
facet normal 0.000000 0.000000 0.153169
  outer loop
    vertex 9.752789 -3.813627 -80.989120
    vertex 6.700571 -4.079979 -80.989120
    vertex 9.757982 -3.863357 -80.989120
  endloop
endfacet
facet normal -0.000000 0.000000 0.153253
  outer loop
    vertex 6.700571 -4.079979 -80.989120
    vertex 6.704070 -4.129856 -80.989120
    vertex 9.757982 -3.863357 -80.989120
  endloop
endfacet
facet normal 0.000000 0.000000 0.153168
  outer loop
    vertex 6.700571 -4.079979 -80.989120
    vertex 3.641059 -4.242361 -80.989120
    vertex 6.704070 -4.129856 -80.989120
  endloop
endfacet
facet normal -0.000000 0.000000 0.153254
  outer loop
    vertex 3.641059 -4.242361 -80.989120
    vertex 3.642859 -4.292329 -80.989120
    vertex 6.704070 -4.129856 -80.989120
  endloop
endfacet
facet normal 0.000000 0.000000 0.153169
  outer loop
    vertex 3.641059 -4.242361 -80.989120
    vertex 0.577794 -4.300587 -80.989120
    vertex 3.642859 -4.292329 -80.989120
  endloop
endfacet
facet normal -0.000000 0.000000 0.153255
  outer loop
    vertex 0.577794 -4.300587 -80.989120
    vertex 0.577894 -4.350587 -80.989120
    vertex 3.642859 -4.292329 -80.989120
  endloop
endfacet
facet normal 0.000000 0.000000 -0.153169
  outer loop
    vertex 6.700571 -4.079978 -84.560127
    vertex 9.752789 -3.813627 -84.560127
    vertex 9.757982 -3.863357 -84.560127
  endloop
endfacet
facet normal 0.000000 0.000000 -0.153254
  outer loop
    vertex 6.704069 -4.129856 -84.560127
    vertex 6.700571 -4.079978 -84.560127
    vertex 9.757982 -3.863357 -84.560127
  endloop
endfacet
facet normal 0.000000 0.000000 -0.153169
  outer loop
    vertex 3.641059 -4.242361 -84.560127
    vertex 6.700571 -4.079978 -84.560127
    vertex 6.704069 -4.129856 -84.560127
  endloop
endfacet
facet normal 0.000000 0.000000 -0.153254
  outer loop
    vertex 3.642859 -4.292329 -84.560127
    vertex 3.641059 -4.242361 -84.560127
    vertex 6.704069 -4.129856 -84.560127
  endloop
endfacet
facet normal 0.000000 0.000000 -0.153169
  outer loop
    vertex 0.577794 -4.300587 -84.560127
    vertex 3.641059 -4.242361 -84.560127
    vertex 3.642859 -4.292329 -84.560127
  endloop
endfacet
facet normal 0.000000 0.000000 -0.153253
  outer loop
    vertex 0.577894 -4.350586 -84.560127
    vertex 0.577794 -4.300587 -84.560127
    vertex 3.642859 -4.292329 -84.560127
  endloop
endfacet
endsolid b'MESH-MESH-MESH-MESH-MESH-MESH-MESH-MESH-MESH-MESH-MESH-MESH-MESH-MESH-MESH-MESH'
