solid b'MESH-MESH-MESH-MESH-MESH-MESH-MESH-MESH-MESH-MESH-MESH-MESH-MESH-MESH-MESH-MESH'
facet normal -1.336512 -10.865047 0.000000
  outer loop
    vertex -9.877316 -3.850814 127.636787
    vertex -9.877316 -3.850814 131.207779
    vertex -12.919901 -3.476545 131.207779
  endloop
endfacet
facet normal -1.705291 -10.813302 0.000000
  outer loop
    vertex -12.919901 -3.476545 127.636787
    vertex -12.919901 -3.476545 131.207779
    vertex -15.947996 -2.999005 131.207779
  endloop
endfacet
facet normal -1.336512 -10.865047 0.000000
  outer loop
    vertex -12.919901 -3.476545 127.636787
    vertex -9.877316 -3.850814 127.636787
    vertex -12.919901 -3.476545 131.207779
  endloop
endfacet
facet normal -2.072096 -10.749046 0.000001
  outer loop
    vertex -15.947996 -2.999005 127.636787
    vertex -15.947996 -2.999005 131.207779
    vertex -18.958097 -2.418747 131.207779
  endloop
endfacet
facet normal -1.705290 -10.813302 0.000001
  outer loop
    vertex -15.947996 -2.999005 127.636787
    vertex -12.919901 -3.476545 127.636787
    vertex -15.947996 -2.999005 131.207779
  endloop
endfacet
facet normal -2.072097 -10.749046 0.000000
  outer loop
    vertex -18.958097 -2.418747 127.636787
    vertex -15.947996 -2.999005 127.636787
    vertex -18.958097 -2.418747 131.207779
  endloop
endfacet
facet normal -0.174722 0.036773 0.000000
  outer loop
    vertex -18.947800 -2.369819 127.636787
    vertex -18.958097 -2.418747 127.636787
    vertex -18.958097 -2.418747 131.207779
  endloop
endfacet
facet normal -0.174722 0.036773 0.000000
  outer loop
    vertex -18.947800 -2.369819 127.636787
    vertex -18.958097 -2.418747 131.207779
    vertex -18.947800 -2.369819 131.207779
  endloop
endfacet
facet normal 1.335771 10.859018 0.000000
  outer loop
    vertex -9.872056 -3.801091 131.207779
    vertex -9.872056 -3.801091 127.636787
    vertex -12.912953 -3.427030 131.207779
  endloop
endfacet
facet normal 1.704345 10.807302 0.000000
  outer loop
    vertex -12.912953 -3.427030 131.207779
    vertex -12.912953 -3.427030 127.636787
    vertex -15.939368 -2.949755 131.207779
  endloop
endfacet
facet normal 1.335771 10.859018 0.000000
  outer loop
    vertex -9.872056 -3.801091 127.636787
    vertex -12.912953 -3.427030 127.636787
    vertex -12.912953 -3.427030 131.207779
  endloop
endfacet
facet normal 2.070947 10.743083 0.000000
  outer loop
    vertex -15.939368 -2.949755 131.207779
    vertex -15.939368 -2.949755 127.636787
    vertex -18.947800 -2.369819 131.207779
  endloop
endfacet
facet normal 1.704345 10.807302 0.000000
  outer loop
    vertex -12.912953 -3.427030 127.636787
    vertex -15.939368 -2.949755 127.636787
    vertex -15.939368 -2.949755 131.207779
  endloop
endfacet
facet normal 2.070947 10.743083 0.000000
  outer loop
    vertex -15.939368 -2.949755 127.636787
    vertex -18.947800 -2.369819 127.636787
    vertex -18.947800 -2.369819 131.207779
  endloop
endfacet
facet normal 0.177559 -0.018782 0.000000
  outer loop
    vertex -9.877316 -3.850814 127.636787
    vertex -9.872056 -3.801091 127.636787
    vertex -9.872056 -3.801091 131.207779
  endloop
endfacet
facet normal 0.177559 -0.018782 0.000000
  outer loop
    vertex -9.877316 -3.850814 127.636787
    vertex -9.872056 -3.801091 131.207779
    vertex -9.877316 -3.850814 131.207779
  endloop
endfacet
facet normal 0.000000 -0.000000 -0.153169
  outer loop
    vertex -18.947800 -2.369819 127.636787
    vertex -15.939368 -2.949755 127.636787
    vertex -18.958097 -2.418747 127.636787
  endloop
endfacet
facet normal -0.000000 0.000000 -0.153254
  outer loop
    vertex -15.939368 -2.949755 127.636787
    vertex -15.947996 -2.999005 127.636787
    vertex -18.958097 -2.418747 127.636787
  endloop
endfacet
facet normal 0.000000 -0.000000 -0.153169
  outer loop
    vertex -15.939368 -2.949755 127.636787
    vertex -12.912953 -3.427030 127.636787
    vertex -15.947996 -2.999005 127.636787
  endloop
endfacet
facet normal -0.000000 0.000000 -0.153254
  outer loop
    vertex -12.912953 -3.427030 127.636787
    vertex -12.919901 -3.476545 127.636787
    vertex -15.947996 -2.999005 127.636787
  endloop
endfacet
facet normal 0.000000 -0.000000 -0.153169
  outer loop
    vertex -12.912953 -3.427030 127.636787
    vertex -9.872056 -3.801091 127.636787
    vertex -12.919901 -3.476545 127.636787
  endloop
endfacet
facet normal -0.000000 0.000000 -0.153254
  outer loop
    vertex -9.872056 -3.801091 127.636787
    vertex -9.877316 -3.850814 127.636787
    vertex -12.919901 -3.476545 127.636787
  endloop
endfacet
facet normal 0.000000 0.000000 0.153169
  outer loop
    vertex -15.939368 -2.949755 131.207779
    vertex -18.947800 -2.369819 131.207779
    vertex -18.958097 -2.418747 131.207779
  endloop
endfacet
facet normal 0.000000 -0.000000 0.153254
  outer loop
    vertex -15.947996 -2.999005 131.207779
    vertex -15.939368 -2.949755 131.207779
    vertex -18.958097 -2.418747 131.207779
  endloop
endfacet
facet normal 0.000000 0.000000 0.153169
  outer loop
    vertex -12.912953 -3.427030 131.207779
    vertex -15.939368 -2.949755 131.207779
    vertex -15.947996 -2.999005 131.207779
  endloop
endfacet
facet normal 0.000000 -0.000000 0.153254
  outer loop
    vertex -12.919901 -3.476545 131.207779
    vertex -12.912953 -3.427030 131.207779
    vertex -15.947996 -2.999005 131.207779
  endloop
endfacet
facet normal 0.000000 0.000000 0.153169
  outer loop
    vertex -9.872056 -3.801091 131.207779
    vertex -12.912953 -3.427030 131.207779
    vertex -12.919901 -3.476545 131.207779
  endloop
endfacet
facet normal 0.000000 -0.000000 0.153254
  outer loop
    vertex -9.877316 -3.850814 131.207779
    vertex -9.872056 -3.801091 131.207779
    vertex -12.919901 -3.476545 131.207779
  endloop
endfacet
endsolid b'MESH-MESH-MESH-MESH-MESH-MESH-MESH-MESH-MESH-MESH-MESH-MESH-MESH-MESH-MESH-MESH'
