solid b'MESH-MESH-MESH-MESH-MESH-MESH-MESH-MESH-MESH-MESH-MESH-MESH-MESH-MESH-MESH-MESH'
facet normal -0.208039 -10.945035 -0.000001
  outer loop
    vertex -3.642854 -4.292329 -284.551910
    vertex -0.577889 -4.350586 -284.551910
    vertex -0.577889 -4.350587 -280.980896
  endloop
endfacet
facet normal -0.208040 -10.945035 0.000000
  outer loop
    vertex -3.642854 -4.292329 -284.551910
    vertex -0.577889 -4.350587 -280.980896
    vertex -3.642854 -4.292329 -280.980896
  endloop
endfacet
facet normal -0.580191 -10.931625 0.000000
  outer loop
    vertex -6.704064 -4.129857 -284.551910
    vertex -3.642854 -4.292329 -280.980896
    vertex -6.704064 -4.129857 -280.980896
  endloop
endfacet
facet normal -0.580191 -10.931625 0.000000
  outer loop
    vertex -6.704064 -4.129857 -284.551910
    vertex -3.642854 -4.292329 -284.551910
    vertex -3.642854 -4.292329 -280.980896
  endloop
endfacet
facet normal -0.951673 -10.905566 0.000000
  outer loop
    vertex -9.757977 -3.863357 -284.551910
    vertex -6.704064 -4.129857 -280.980896
    vertex -9.757977 -3.863357 -280.980896
  endloop
endfacet
facet normal -0.951673 -10.905566 0.000000
  outer loop
    vertex -9.757977 -3.863357 -284.551910
    vertex -6.704064 -4.129857 -284.551910
    vertex -6.704064 -4.129857 -280.980896
  endloop
endfacet
facet normal -0.177585 0.018543 0.000000
  outer loop
    vertex -9.757977 -3.863357 -284.551910
    vertex -9.757977 -3.863357 -280.980896
    vertex -9.752784 -3.813628 -284.551910
  endloop
endfacet
facet normal -0.177585 0.018543 0.000000
  outer loop
    vertex -9.757977 -3.863357 -280.980896
    vertex -9.752784 -3.813628 -280.980896
    vertex -9.752784 -3.813628 -284.551910
  endloop
endfacet
facet normal 0.207923 10.938962 0.000001
  outer loop
    vertex -0.577789 -4.300587 -280.980896
    vertex -3.641053 -4.242361 -284.551910
    vertex -3.641053 -4.242362 -280.980896
  endloop
endfacet
facet normal 0.579871 10.925561 0.000001
  outer loop
    vertex -3.641053 -4.242362 -280.980896
    vertex -3.641053 -4.242361 -284.551910
    vertex -6.700565 -4.079979 -280.980896
  endloop
endfacet
facet normal 0.207925 10.938962 -0.000000
  outer loop
    vertex -0.577789 -4.300587 -284.551910
    vertex -3.641053 -4.242361 -284.551910
    vertex -0.577789 -4.300587 -280.980896
  endloop
endfacet
facet normal 0.579869 10.925561 0.000000
  outer loop
    vertex -3.641053 -4.242361 -284.551910
    vertex -6.700565 -4.079979 -284.551910
    vertex -6.700565 -4.079979 -280.980896
  endloop
endfacet
facet normal 0.951144 10.899516 0.000000
  outer loop
    vertex -6.700565 -4.079979 -280.980896
    vertex -9.752784 -3.813628 -284.551910
    vertex -9.752784 -3.813628 -280.980896
  endloop
endfacet
facet normal 0.951144 10.899516 -0.000000
  outer loop
    vertex -6.700565 -4.079979 -284.551910
    vertex -9.752784 -3.813628 -284.551910
    vertex -6.700565 -4.079979 -280.980896
  endloop
endfacet
facet normal 0.178550 -0.000356 0.000000
  outer loop
    vertex -0.577789 -4.300587 -284.551910
    vertex -0.577789 -4.300587 -280.980896
    vertex -0.577889 -4.350586 -284.551910
  endloop
endfacet
facet normal 0.178551 -0.000356 -0.000000
  outer loop
    vertex -0.577789 -4.300587 -280.980896
    vertex -0.577889 -4.350587 -280.980896
    vertex -0.577889 -4.350586 -284.551910
  endloop
endfacet
facet normal 0.000000 -0.000000 0.153169
  outer loop
    vertex -6.704064 -4.129857 -280.980896
    vertex -6.700565 -4.079979 -280.980896
    vertex -9.752784 -3.813628 -280.980896
  endloop
endfacet
facet normal 0.000000 0.000000 0.153254
  outer loop
    vertex -6.704064 -4.129857 -280.980896
    vertex -9.752784 -3.813628 -280.980896
    vertex -9.757977 -3.863357 -280.980896
  endloop
endfacet
facet normal 0.000000 -0.000000 0.153168
  outer loop
    vertex -3.642854 -4.292329 -280.980896
    vertex -3.641053 -4.242362 -280.980896
    vertex -6.700565 -4.079979 -280.980896
  endloop
endfacet
facet normal 0.000000 0.000000 0.153254
  outer loop
    vertex -3.642854 -4.292329 -280.980896
    vertex -6.700565 -4.079979 -280.980896
    vertex -6.704064 -4.129857 -280.980896
  endloop
endfacet
facet normal 0.000000 -0.000000 0.153170
  outer loop
    vertex -0.577889 -4.350587 -280.980896
    vertex -0.577789 -4.300587 -280.980896
    vertex -3.641053 -4.242362 -280.980896
  endloop
endfacet
facet normal 0.000000 0.000000 0.153253
  outer loop
    vertex -0.577889 -4.350587 -280.980896
    vertex -3.641053 -4.242362 -280.980896
    vertex -3.642854 -4.292329 -280.980896
  endloop
endfacet
facet normal 0.000000 -0.000000 -0.153169
  outer loop
    vertex -9.752784 -3.813628 -284.551910
    vertex -6.700565 -4.079979 -284.551910
    vertex -9.757977 -3.863357 -284.551910
  endloop
endfacet
facet normal -0.000000 0.000000 -0.153254
  outer loop
    vertex -6.700565 -4.079979 -284.551910
    vertex -6.704064 -4.129857 -284.551910
    vertex -9.757977 -3.863357 -284.551910
  endloop
endfacet
facet normal 0.000000 -0.000000 -0.153169
  outer loop
    vertex -6.700565 -4.079979 -284.551910
    vertex -3.641053 -4.242361 -284.551910
    vertex -6.704064 -4.129857 -284.551910
  endloop
endfacet
facet normal -0.000000 0.000000 -0.153254
  outer loop
    vertex -3.641053 -4.242361 -284.551910
    vertex -3.642854 -4.292329 -284.551910
    vertex -6.704064 -4.129857 -284.551910
  endloop
endfacet
facet normal 0.000000 -0.000000 -0.153169
  outer loop
    vertex -3.641053 -4.242361 -284.551910
    vertex -0.577789 -4.300587 -284.551910
    vertex -3.642854 -4.292329 -284.551910
  endloop
endfacet
facet normal -0.000000 0.000000 -0.153253
  outer loop
    vertex -0.577789 -4.300587 -284.551910
    vertex -0.577889 -4.350586 -284.551910
    vertex -3.642854 -4.292329 -284.551910
  endloop
endfacet
endsolid b'MESH-MESH-MESH-MESH-MESH-MESH-MESH-MESH-MESH-MESH-MESH-MESH-MESH-MESH-MESH-MESH'
