solid b'MESH-MESH-MESH-MESH-MESH-MESH-MESH-MESH-MESH-MESH-MESH-MESH-MESH-MESH-MESH-MESH'
facet normal 0.208041 10.944988 -0.000000
  outer loop
    vertex 0.577899 4.350587 101.749306
    vertex 0.577899 4.350587 105.320305
    vertex 3.642864 4.292328 105.320305
  endloop
endfacet
facet normal 0.580190 10.931580 0.000001
  outer loop
    vertex 3.642864 4.292329 101.749306
    vertex 3.642864 4.292328 105.320305
    vertex 6.704075 4.129856 105.320305
  endloop
endfacet
facet normal 0.208039 10.944988 0.000001
  outer loop
    vertex 3.642864 4.292329 101.749306
    vertex 0.577899 4.350587 101.749306
    vertex 3.642864 4.292328 105.320305
  endloop
endfacet
facet normal 0.580192 10.931580 -0.000000
  outer loop
    vertex 6.704075 4.129856 101.749306
    vertex 3.642864 4.292329 101.749306
    vertex 6.704075 4.129856 105.320305
  endloop
endfacet
facet normal 0.951670 10.905521 0.000001
  outer loop
    vertex 9.757988 3.863356 101.749306
    vertex 6.704075 4.129856 105.320305
    vertex 9.757988 3.863356 105.320305
  endloop
endfacet
facet normal 0.951669 10.905521 0.000000
  outer loop
    vertex 9.757988 3.863356 101.749306
    vertex 6.704075 4.129856 101.749306
    vertex 6.704075 4.129856 105.320305
  endloop
endfacet
facet normal 0.177584 -0.018547 -0.000000
  outer loop
    vertex 9.757988 3.863356 101.749306
    vertex 9.757988 3.863356 105.320305
    vertex 9.752794 3.813627 105.320305
  endloop
endfacet
facet normal 0.177584 -0.018547 -0.000000
  outer loop
    vertex 9.752794 3.813627 101.749306
    vertex 9.757988 3.863356 101.749306
    vertex 9.752794 3.813627 105.320305
  endloop
endfacet
facet normal -0.207924 -10.938915 -0.000001
  outer loop
    vertex 0.577799 4.300587 105.320305
    vertex 0.577799 4.300587 101.749306
    vertex 3.641064 4.242361 105.320305
  endloop
endfacet
facet normal -0.207925 -10.938915 0.000000
  outer loop
    vertex 0.577799 4.300587 101.749306
    vertex 3.641064 4.242361 101.749306
    vertex 3.641064 4.242361 105.320305
  endloop
endfacet
facet normal -0.579868 -10.925513 0.000000
  outer loop
    vertex 3.641064 4.242361 105.320305
    vertex 6.700576 4.079978 101.749306
    vertex 6.700576 4.079978 105.320305
  endloop
endfacet
facet normal -0.951143 -10.899469 -0.000000
  outer loop
    vertex 6.700576 4.079978 105.320305
    vertex 6.700576 4.079978 101.749306
    vertex 9.752794 3.813627 105.320305
  endloop
endfacet
facet normal -0.579868 -10.925513 0.000000
  outer loop
    vertex 3.641064 4.242361 101.749306
    vertex 6.700576 4.079978 101.749306
    vertex 3.641064 4.242361 105.320305
  endloop
endfacet
facet normal -0.951142 -10.899469 -0.000001
  outer loop
    vertex 6.700576 4.079978 101.749306
    vertex 9.752794 3.813627 101.749306
    vertex 9.752794 3.813627 105.320305
  endloop
endfacet
facet normal -0.178551 0.000356 0.000000
  outer loop
    vertex 0.577799 4.300587 101.749306
    vertex 0.577799 4.300587 105.320305
    vertex 0.577899 4.350587 105.320305
  endloop
endfacet
facet normal -0.178549 0.000356 0.000000
  outer loop
    vertex 0.577899 4.350587 101.749306
    vertex 0.577799 4.300587 101.749306
    vertex 0.577899 4.350587 105.320305
  endloop
endfacet
facet normal 0.000000 0.000000 -0.153168
  outer loop
    vertex 6.700576 4.079978 101.749306
    vertex 6.704075 4.129856 101.749306
    vertex 9.752794 3.813627 101.749306
  endloop
endfacet
facet normal 0.000000 0.000000 -0.153254
  outer loop
    vertex 9.752794 3.813627 101.749306
    vertex 6.704075 4.129856 101.749306
    vertex 9.757988 3.863356 101.749306
  endloop
endfacet
facet normal 0.000000 0.000000 -0.153169
  outer loop
    vertex 3.641064 4.242361 101.749306
    vertex 3.642864 4.292329 101.749306
    vertex 6.700576 4.079978 101.749306
  endloop
endfacet
facet normal 0.000000 0.000000 -0.153253
  outer loop
    vertex 6.700576 4.079978 101.749306
    vertex 3.642864 4.292329 101.749306
    vertex 6.704075 4.129856 101.749306
  endloop
endfacet
facet normal 0.000000 0.000000 -0.153168
  outer loop
    vertex 0.577799 4.300587 101.749306
    vertex 0.577899 4.350587 101.749306
    vertex 3.641064 4.242361 101.749306
  endloop
endfacet
facet normal 0.000000 0.000000 -0.153254
  outer loop
    vertex 3.641064 4.242361 101.749306
    vertex 0.577899 4.350587 101.749306
    vertex 3.642864 4.292329 101.749306
  endloop
endfacet
facet normal 0.000000 0.000000 0.153169
  outer loop
    vertex 6.700576 4.079978 105.320305
    vertex 9.752794 3.813627 105.320305
    vertex 9.757988 3.863356 105.320305
  endloop
endfacet
facet normal 0.000000 0.000000 0.153253
  outer loop
    vertex 6.704075 4.129856 105.320305
    vertex 6.700576 4.079978 105.320305
    vertex 9.757988 3.863356 105.320305
  endloop
endfacet
facet normal 0.000000 0.000000 0.153168
  outer loop
    vertex 3.641064 4.242361 105.320305
    vertex 6.700576 4.079978 105.320305
    vertex 6.704075 4.129856 105.320305
  endloop
endfacet
facet normal 0.000000 0.000000 0.153253
  outer loop
    vertex 3.642864 4.292328 105.320305
    vertex 3.641064 4.242361 105.320305
    vertex 6.704075 4.129856 105.320305
  endloop
endfacet
facet normal 0.000000 0.000000 0.153168
  outer loop
    vertex 0.577799 4.300587 105.320305
    vertex 3.641064 4.242361 105.320305
    vertex 3.642864 4.292328 105.320305
  endloop
endfacet
facet normal 0.000000 0.000000 0.153255
  outer loop
    vertex 0.577899 4.350587 105.320305
    vertex 0.577799 4.300587 105.320305
    vertex 3.642864 4.292328 105.320305
  endloop
endfacet
endsolid b'MESH-MESH-MESH-MESH-MESH-MESH-MESH-MESH-MESH-MESH-MESH-MESH-MESH-MESH-MESH-MESH'
