solid b'MESH-MESH-MESH-MESH-MESH-MESH-MESH-MESH-MESH-MESH-MESH-MESH-MESH-MESH-MESH-MESH'
facet normal -1.336514 10.865069 0.000000
  outer loop
    vertex -9.877314 3.850814 -109.138878
    vertex -9.877314 3.850814 -112.709877
    vertex -12.919899 3.476545 -112.709877
  endloop
endfacet
facet normal -1.705294 10.813326 0.000000
  outer loop
    vertex -12.919899 3.476545 -109.138878
    vertex -12.919899 3.476545 -112.709877
    vertex -15.947994 2.999005 -112.709877
  endloop
endfacet
facet normal -1.336514 10.865069 0.000000
  outer loop
    vertex -12.919899 3.476545 -109.138878
    vertex -9.877314 3.850814 -109.138878
    vertex -12.919899 3.476545 -112.709877
  endloop
endfacet
facet normal -2.072100 10.749069 0.000000
  outer loop
    vertex -15.947994 2.999005 -109.138878
    vertex -15.947994 2.999005 -112.709877
    vertex -18.958096 2.418747 -112.709877
  endloop
endfacet
facet normal -1.705294 10.813326 0.000000
  outer loop
    vertex -15.947994 2.999005 -109.138878
    vertex -12.919899 3.476545 -109.138878
    vertex -15.947994 2.999005 -112.709877
  endloop
endfacet
facet normal -2.072100 10.749069 0.000000
  outer loop
    vertex -18.958096 2.418747 -109.138878
    vertex -15.947994 2.999005 -109.138878
    vertex -18.958096 2.418747 -112.709877
  endloop
endfacet
facet normal -0.174722 -0.036773 -0.000000
  outer loop
    vertex -18.958096 2.418747 -109.138878
    vertex -18.958096 2.418747 -112.709877
    vertex -18.947798 2.369819 -112.709877
  endloop
endfacet
facet normal -0.174722 -0.036773 -0.000000
  outer loop
    vertex -18.947798 2.369819 -109.138878
    vertex -18.958096 2.418747 -109.138878
    vertex -18.947798 2.369819 -112.709877
  endloop
endfacet
facet normal 1.335773 -10.859042 0.000000
  outer loop
    vertex -9.872054 3.801091 -112.709877
    vertex -12.912951 3.427030 -109.138878
    vertex -12.912951 3.427030 -112.709877
  endloop
endfacet
facet normal 1.704347 -10.807325 0.000000
  outer loop
    vertex -12.912951 3.427030 -112.709877
    vertex -12.912951 3.427030 -109.138878
    vertex -15.939366 2.949755 -112.709877
  endloop
endfacet
facet normal 1.335773 -10.859042 0.000000
  outer loop
    vertex -9.872054 3.801091 -109.138878
    vertex -12.912951 3.427030 -109.138878
    vertex -9.872054 3.801091 -112.709877
  endloop
endfacet
facet normal 2.070951 -10.743106 0.000001
  outer loop
    vertex -15.939366 2.949755 -112.709877
    vertex -15.939367 2.949755 -109.138878
    vertex -18.947798 2.369819 -112.709877
  endloop
endfacet
facet normal 1.704347 -10.807328 0.000000
  outer loop
    vertex -12.912951 3.427030 -109.138878
    vertex -15.939367 2.949755 -109.138878
    vertex -15.939366 2.949755 -112.709877
  endloop
endfacet
facet normal 2.070951 -10.743103 0.000000
  outer loop
    vertex -15.939367 2.949755 -109.138878
    vertex -18.947798 2.369819 -109.138878
    vertex -18.947798 2.369819 -112.709877
  endloop
endfacet
facet normal 0.177560 0.018782 0.000000
  outer loop
    vertex -9.877314 3.850814 -109.138878
    vertex -9.872054 3.801091 -109.138878
    vertex -9.872054 3.801091 -112.709877
  endloop
endfacet
facet normal 0.177560 0.018782 0.000000
  outer loop
    vertex -9.877314 3.850814 -109.138878
    vertex -9.872054 3.801091 -112.709877
    vertex -9.877314 3.850814 -112.709877
  endloop
endfacet
facet normal 0.000000 -0.000000 0.153169
  outer loop
    vertex -18.947798 2.369819 -109.138878
    vertex -15.939367 2.949755 -109.138878
    vertex -18.958096 2.418747 -109.138878
  endloop
endfacet
facet normal 0.000000 0.000000 0.153253
  outer loop
    vertex -15.939367 2.949755 -109.138878
    vertex -15.947994 2.999005 -109.138878
    vertex -18.958096 2.418747 -109.138878
  endloop
endfacet
facet normal 0.000000 -0.000000 0.153168
  outer loop
    vertex -15.939367 2.949755 -109.138878
    vertex -12.912951 3.427030 -109.138878
    vertex -15.947994 2.999005 -109.138878
  endloop
endfacet
facet normal 0.000000 0.000000 0.153254
  outer loop
    vertex -12.912951 3.427030 -109.138878
    vertex -12.919899 3.476545 -109.138878
    vertex -15.947994 2.999005 -109.138878
  endloop
endfacet
facet normal 0.000000 -0.000000 0.153169
  outer loop
    vertex -12.912951 3.427030 -109.138878
    vertex -9.872054 3.801091 -109.138878
    vertex -12.919899 3.476545 -109.138878
  endloop
endfacet
facet normal 0.000000 0.000000 0.153254
  outer loop
    vertex -9.872054 3.801091 -109.138878
    vertex -9.877314 3.850814 -109.138878
    vertex -12.919899 3.476545 -109.138878
  endloop
endfacet
facet normal 0.000000 0.000000 -0.153169
  outer loop
    vertex -15.939366 2.949755 -112.709877
    vertex -18.947798 2.369819 -112.709877
    vertex -18.958096 2.418747 -112.709877
  endloop
endfacet
facet normal 0.000000 -0.000000 -0.153254
  outer loop
    vertex -15.947994 2.999005 -112.709877
    vertex -15.939366 2.949755 -112.709877
    vertex -18.958096 2.418747 -112.709877
  endloop
endfacet
facet normal 0.000000 0.000000 -0.153169
  outer loop
    vertex -12.912951 3.427030 -112.709877
    vertex -15.939366 2.949755 -112.709877
    vertex -15.947994 2.999005 -112.709877
  endloop
endfacet
facet normal 0.000000 -0.000000 -0.153254
  outer loop
    vertex -12.919899 3.476545 -112.709877
    vertex -12.912951 3.427030 -112.709877
    vertex -15.947994 2.999005 -112.709877
  endloop
endfacet
facet normal 0.000000 0.000000 -0.153169
  outer loop
    vertex -9.872054 3.801091 -112.709877
    vertex -12.912951 3.427030 -112.709877
    vertex -12.919899 3.476545 -112.709877
  endloop
endfacet
facet normal 0.000000 -0.000000 -0.153254
  outer loop
    vertex -9.877314 3.850814 -112.709877
    vertex -9.872054 3.801091 -112.709877
    vertex -12.919899 3.476545 -112.709877
  endloop
endfacet
endsolid b'MESH-MESH-MESH-MESH-MESH-MESH-MESH-MESH-MESH-MESH-MESH-MESH-MESH-MESH-MESH-MESH'
