solid b'MESH-MESH-MESH-MESH-MESH-MESH-MESH-MESH-MESH-MESH-MESH-MESH-MESH-MESH-MESH-MESH'
facet normal -1.336515 -10.865069 -0.000001
  outer loop
    vertex -9.877316 -3.850814 -234.037903
    vertex -9.877316 -3.850814 -230.466904
    vertex -12.919901 -3.476545 -230.466904
  endloop
endfacet
facet normal -1.705295 -10.813326 0.000000
  outer loop
    vertex -12.919901 -3.476545 -234.037903
    vertex -12.919901 -3.476545 -230.466904
    vertex -15.947996 -2.999005 -230.466904
  endloop
endfacet
facet normal -1.336514 -10.865069 0.000000
  outer loop
    vertex -12.919901 -3.476545 -234.037903
    vertex -9.877316 -3.850814 -234.037903
    vertex -12.919901 -3.476545 -230.466904
  endloop
endfacet
facet normal -2.072100 -10.749069 0.000000
  outer loop
    vertex -15.947996 -2.999005 -234.037903
    vertex -15.947996 -2.999005 -230.466904
    vertex -18.958097 -2.418747 -230.466904
  endloop
endfacet
facet normal -1.705295 -10.813326 0.000000
  outer loop
    vertex -15.947996 -2.999005 -234.037903
    vertex -12.919901 -3.476545 -234.037903
    vertex -15.947996 -2.999005 -230.466904
  endloop
endfacet
facet normal -2.072100 -10.749069 0.000000
  outer loop
    vertex -18.958097 -2.418747 -234.037903
    vertex -15.947996 -2.999005 -234.037903
    vertex -18.958097 -2.418747 -230.466904
  endloop
endfacet
facet normal -0.174722 0.036773 0.000000
  outer loop
    vertex -18.958097 -2.418747 -234.037903
    vertex -18.947800 -2.369819 -230.466904
    vertex -18.947800 -2.369819 -234.037903
  endloop
endfacet
facet normal -0.174722 0.036773 0.000000
  outer loop
    vertex -18.958097 -2.418747 -230.466904
    vertex -18.947800 -2.369819 -230.466904
    vertex -18.958097 -2.418747 -234.037903
  endloop
endfacet
facet normal 1.335774 10.859042 0.000000
  outer loop
    vertex -9.872056 -3.801091 -230.466904
    vertex -12.912953 -3.427030 -234.037903
    vertex -12.912953 -3.427030 -230.466904
  endloop
endfacet
facet normal 1.704348 10.807325 0.000000
  outer loop
    vertex -12.912953 -3.427030 -230.466904
    vertex -12.912953 -3.427030 -234.037903
    vertex -15.939368 -2.949755 -230.466904
  endloop
endfacet
facet normal 1.335774 10.859042 -0.000000
  outer loop
    vertex -9.872056 -3.801091 -234.037903
    vertex -12.912953 -3.427030 -234.037903
    vertex -9.872056 -3.801091 -230.466904
  endloop
endfacet
facet normal 2.070951 10.743106 0.000000
  outer loop
    vertex -15.939368 -2.949755 -230.466904
    vertex -15.939368 -2.949755 -234.037903
    vertex -18.947800 -2.369819 -230.466904
  endloop
endfacet
facet normal 1.704348 10.807325 0.000000
  outer loop
    vertex -12.912953 -3.427030 -234.037903
    vertex -15.939368 -2.949755 -234.037903
    vertex -15.939368 -2.949755 -230.466904
  endloop
endfacet
facet normal 2.070951 10.743106 0.000000
  outer loop
    vertex -15.939368 -2.949755 -234.037903
    vertex -18.947800 -2.369819 -234.037903
    vertex -18.947800 -2.369819 -230.466904
  endloop
endfacet
facet normal 0.177559 -0.018782 0.000000
  outer loop
    vertex -9.872056 -3.801091 -234.037903
    vertex -9.872056 -3.801091 -230.466904
    vertex -9.877316 -3.850814 -234.037903
  endloop
endfacet
facet normal 0.177560 -0.018782 -0.000000
  outer loop
    vertex -9.872056 -3.801091 -230.466904
    vertex -9.877316 -3.850814 -230.466904
    vertex -9.877316 -3.850814 -234.037903
  endloop
endfacet
facet normal 0.000000 -0.000000 0.153169
  outer loop
    vertex -15.947996 -2.999005 -230.466904
    vertex -15.939368 -2.949755 -230.466904
    vertex -18.947800 -2.369819 -230.466904
  endloop
endfacet
facet normal 0.000000 0.000000 0.153254
  outer loop
    vertex -15.947996 -2.999005 -230.466904
    vertex -18.947800 -2.369819 -230.466904
    vertex -18.958097 -2.418747 -230.466904
  endloop
endfacet
facet normal 0.000000 -0.000000 0.153169
  outer loop
    vertex -12.919901 -3.476545 -230.466904
    vertex -12.912953 -3.427030 -230.466904
    vertex -15.939368 -2.949755 -230.466904
  endloop
endfacet
facet normal 0.000000 0.000000 0.153254
  outer loop
    vertex -12.919901 -3.476545 -230.466904
    vertex -15.939368 -2.949755 -230.466904
    vertex -15.947996 -2.999005 -230.466904
  endloop
endfacet
facet normal 0.000000 -0.000000 0.153169
  outer loop
    vertex -9.877316 -3.850814 -230.466904
    vertex -9.872056 -3.801091 -230.466904
    vertex -12.912953 -3.427030 -230.466904
  endloop
endfacet
facet normal 0.000000 0.000000 0.153254
  outer loop
    vertex -9.877316 -3.850814 -230.466904
    vertex -12.912953 -3.427030 -230.466904
    vertex -12.919901 -3.476545 -230.466904
  endloop
endfacet
facet normal -0.000000 0.000000 -0.153169
  outer loop
    vertex -15.939368 -2.949755 -234.037903
    vertex -15.947996 -2.999005 -234.037903
    vertex -18.947800 -2.369819 -234.037903
  endloop
endfacet
facet normal 0.000000 -0.000000 -0.153254
  outer loop
    vertex -18.947800 -2.369819 -234.037903
    vertex -15.947996 -2.999005 -234.037903
    vertex -18.958097 -2.418747 -234.037903
  endloop
endfacet
facet normal -0.000000 0.000000 -0.153169
  outer loop
    vertex -12.912953 -3.427030 -234.037903
    vertex -12.919901 -3.476545 -234.037903
    vertex -15.939368 -2.949755 -234.037903
  endloop
endfacet
facet normal 0.000000 -0.000000 -0.153254
  outer loop
    vertex -15.939368 -2.949755 -234.037903
    vertex -12.919901 -3.476545 -234.037903
    vertex -15.947996 -2.999005 -234.037903
  endloop
endfacet
facet normal -0.000000 0.000000 -0.153168
  outer loop
    vertex -9.872056 -3.801091 -234.037903
    vertex -9.877316 -3.850814 -234.037903
    vertex -12.912953 -3.427030 -234.037903
  endloop
endfacet
facet normal 0.000000 -0.000000 -0.153254
  outer loop
    vertex -12.912953 -3.427030 -234.037903
    vertex -9.877316 -3.850814 -234.037903
    vertex -12.919901 -3.476545 -234.037903
  endloop
endfacet
endsolid b'MESH-MESH-MESH-MESH-MESH-MESH-MESH-MESH-MESH-MESH-MESH-MESH-MESH-MESH-MESH-MESH'
