solid b'MESH-MESH-MESH-MESH-MESH-MESH-MESH-MESH-MESH-MESH-MESH-MESH-MESH-MESH-MESH-MESH'
facet normal 1.336516 -10.865075 0.000000
  outer loop
    vertex 9.877318 -3.850814 -30.475122
    vertex 9.877318 -3.850814 -34.046124
    vertex 12.919904 -3.476544 -34.046124
  endloop
endfacet
facet normal 1.705295 -10.813332 0.000000
  outer loop
    vertex 12.919904 -3.476544 -30.475122
    vertex 12.919904 -3.476544 -34.046124
    vertex 15.947999 -2.999005 -34.046124
  endloop
endfacet
facet normal 1.336516 -10.865075 0.000000
  outer loop
    vertex 12.919904 -3.476544 -30.475122
    vertex 9.877318 -3.850814 -30.475122
    vertex 12.919904 -3.476544 -34.046124
  endloop
endfacet
facet normal 2.072102 -10.749072 -0.000001
  outer loop
    vertex 15.948000 -2.999005 -30.475122
    vertex 15.947999 -2.999005 -34.046124
    vertex 18.958099 -2.418746 -34.046124
  endloop
endfacet
facet normal 1.705295 -10.813334 -0.000000
  outer loop
    vertex 15.948000 -2.999005 -30.475122
    vertex 12.919904 -3.476544 -30.475122
    vertex 15.947999 -2.999005 -34.046124
  endloop
endfacet
facet normal 2.072102 -10.749068 0.000000
  outer loop
    vertex 18.958099 -2.418746 -30.475122
    vertex 15.948000 -2.999005 -30.475122
    vertex 18.958099 -2.418746 -34.046124
  endloop
endfacet
facet normal 0.174722 0.036773 0.000000
  outer loop
    vertex 18.958099 -2.418746 -30.475122
    vertex 18.958099 -2.418746 -34.046124
    vertex 18.947802 -2.369818 -34.046124
  endloop
endfacet
facet normal 0.174722 0.036773 0.000000
  outer loop
    vertex 18.947802 -2.369818 -30.475122
    vertex 18.958099 -2.418746 -30.475122
    vertex 18.947802 -2.369818 -34.046124
  endloop
endfacet
facet normal -1.335774 10.859048 0.000001
  outer loop
    vertex 9.872059 -3.801091 -34.046124
    vertex 12.912956 -3.427030 -30.475122
    vertex 12.912956 -3.427029 -34.046124
  endloop
endfacet
facet normal -1.704349 10.807331 0.000001
  outer loop
    vertex 12.912956 -3.427029 -34.046124
    vertex 12.912956 -3.427030 -30.475122
    vertex 15.939371 -2.949754 -34.046124
  endloop
endfacet
facet normal -1.335773 10.859048 0.000000
  outer loop
    vertex 9.872059 -3.801091 -30.475122
    vertex 12.912956 -3.427030 -30.475122
    vertex 9.872059 -3.801091 -34.046124
  endloop
endfacet
facet normal -2.070952 10.743109 0.000001
  outer loop
    vertex 15.939371 -2.949754 -34.046124
    vertex 15.939372 -2.949754 -30.475122
    vertex 18.947802 -2.369818 -34.046124
  endloop
endfacet
facet normal -1.704350 10.807334 0.000000
  outer loop
    vertex 12.912956 -3.427030 -30.475122
    vertex 15.939372 -2.949754 -30.475122
    vertex 15.939371 -2.949754 -34.046124
  endloop
endfacet
facet normal -2.070952 10.743105 0.000000
  outer loop
    vertex 15.939372 -2.949754 -30.475122
    vertex 18.947802 -2.369818 -30.475122
    vertex 18.947802 -2.369818 -34.046124
  endloop
endfacet
facet normal -0.177560 -0.018782 0.000000
  outer loop
    vertex 9.877318 -3.850814 -30.475122
    vertex 9.872059 -3.801091 -30.475122
    vertex 9.872059 -3.801091 -34.046124
  endloop
endfacet
facet normal -0.177560 -0.018782 -0.000000
  outer loop
    vertex 9.877318 -3.850814 -30.475122
    vertex 9.872059 -3.801091 -34.046124
    vertex 9.877318 -3.850814 -34.046124
  endloop
endfacet
facet normal 0.000000 0.000000 0.153169
  outer loop
    vertex 18.947802 -2.369818 -30.475122
    vertex 15.939372 -2.949754 -30.475122
    vertex 18.958099 -2.418746 -30.475122
  endloop
endfacet
facet normal -0.000000 0.000000 0.153254
  outer loop
    vertex 15.939372 -2.949754 -30.475122
    vertex 15.948000 -2.999005 -30.475122
    vertex 18.958099 -2.418746 -30.475122
  endloop
endfacet
facet normal 0.000000 0.000000 0.153169
  outer loop
    vertex 15.939372 -2.949754 -30.475122
    vertex 12.912956 -3.427030 -30.475122
    vertex 15.948000 -2.999005 -30.475122
  endloop
endfacet
facet normal -0.000000 0.000000 0.153253
  outer loop
    vertex 12.912956 -3.427030 -30.475122
    vertex 12.919904 -3.476544 -30.475122
    vertex 15.948000 -2.999005 -30.475122
  endloop
endfacet
facet normal 0.000000 0.000000 0.153168
  outer loop
    vertex 12.912956 -3.427030 -30.475122
    vertex 9.872059 -3.801091 -30.475122
    vertex 12.919904 -3.476544 -30.475122
  endloop
endfacet
facet normal -0.000000 0.000000 0.153254
  outer loop
    vertex 9.872059 -3.801091 -30.475122
    vertex 9.877318 -3.850814 -30.475122
    vertex 12.919904 -3.476544 -30.475122
  endloop
endfacet
facet normal 0.000000 0.000000 -0.153169
  outer loop
    vertex 15.939371 -2.949754 -34.046124
    vertex 18.947802 -2.369818 -34.046124
    vertex 18.958099 -2.418746 -34.046124
  endloop
endfacet
facet normal 0.000000 0.000000 -0.153254
  outer loop
    vertex 15.947999 -2.999005 -34.046124
    vertex 15.939371 -2.949754 -34.046124
    vertex 18.958099 -2.418746 -34.046124
  endloop
endfacet
facet normal 0.000000 0.000000 -0.153169
  outer loop
    vertex 12.912956 -3.427029 -34.046124
    vertex 15.939371 -2.949754 -34.046124
    vertex 15.947999 -2.999005 -34.046124
  endloop
endfacet
facet normal 0.000000 0.000000 -0.153254
  outer loop
    vertex 12.919904 -3.476544 -34.046124
    vertex 12.912956 -3.427029 -34.046124
    vertex 15.947999 -2.999005 -34.046124
  endloop
endfacet
facet normal 0.000000 0.000000 -0.153169
  outer loop
    vertex 9.872059 -3.801091 -34.046124
    vertex 12.912956 -3.427029 -34.046124
    vertex 12.919904 -3.476544 -34.046124
  endloop
endfacet
facet normal 0.000000 0.000000 -0.153254
  outer loop
    vertex 9.877318 -3.850814 -34.046124
    vertex 9.872059 -3.801091 -34.046124
    vertex 12.919904 -3.476544 -34.046124
  endloop
endfacet
endsolid b'MESH-MESH-MESH-MESH-MESH-MESH-MESH-MESH-MESH-MESH-MESH-MESH-MESH-MESH-MESH-MESH'
