solid b'MESH-MESH-MESH-MESH-MESH-MESH-MESH-MESH-MESH-MESH-MESH-MESH-MESH-MESH-MESH-MESH'
facet normal 0.208038 10.944987 0.000001
  outer loop
    vertex 0.577894 4.350587 83.674309
    vertex 0.577894 4.350586 87.245308
    vertex 3.642859 4.292329 87.245308
  endloop
endfacet
facet normal 0.580190 10.931580 0.000000
  outer loop
    vertex 3.642859 4.292329 83.674309
    vertex 3.642859 4.292329 87.245308
    vertex 6.704069 4.129856 87.245308
  endloop
endfacet
facet normal 0.208039 10.944988 0.000000
  outer loop
    vertex 3.642859 4.292329 83.674309
    vertex 0.577894 4.350587 83.674309
    vertex 3.642859 4.292329 87.245308
  endloop
endfacet
facet normal 0.951670 10.905521 -0.000000
  outer loop
    vertex 6.704069 4.129856 83.674309
    vertex 6.704069 4.129856 87.245308
    vertex 9.757982 3.863357 87.245308
  endloop
endfacet
facet normal 0.580190 10.931579 -0.000000
  outer loop
    vertex 6.704069 4.129856 83.674309
    vertex 3.642859 4.292329 83.674309
    vertex 6.704069 4.129856 87.245308
  endloop
endfacet
facet normal 0.951669 10.905521 0.000001
  outer loop
    vertex 9.757982 3.863357 83.674309
    vertex 6.704069 4.129856 83.674309
    vertex 9.757982 3.863357 87.245308
  endloop
endfacet
facet normal 0.177583 -0.018547 -0.000000
  outer loop
    vertex 9.757982 3.863357 83.674309
    vertex 9.757982 3.863357 87.245308
    vertex 9.752789 3.813627 87.245308
  endloop
endfacet
facet normal 0.177584 -0.018547 0.000000
  outer loop
    vertex 9.752789 3.813627 83.674309
    vertex 9.757982 3.863357 83.674309
    vertex 9.752789 3.813627 87.245308
  endloop
endfacet
facet normal -0.207924 -10.938915 -0.000000
  outer loop
    vertex 0.577794 4.300587 87.245308
    vertex 0.577794 4.300587 83.674309
    vertex 3.641058 4.242361 87.245308
  endloop
endfacet
facet normal -0.207924 -10.938915 0.000000
  outer loop
    vertex 0.577794 4.300587 83.674309
    vertex 3.641058 4.242361 83.674309
    vertex 3.641058 4.242361 87.245308
  endloop
endfacet
facet normal -0.579868 -10.925513 -0.000001
  outer loop
    vertex 3.641058 4.242361 87.245308
    vertex 6.700570 4.079979 83.674309
    vertex 6.700570 4.079978 87.245308
  endloop
endfacet
facet normal -0.951140 -10.899469 -0.000001
  outer loop
    vertex 6.700570 4.079978 87.245308
    vertex 6.700570 4.079979 83.674309
    vertex 9.752789 3.813627 87.245308
  endloop
endfacet
facet normal -0.579866 -10.925513 0.000000
  outer loop
    vertex 3.641058 4.242361 83.674309
    vertex 6.700570 4.079979 83.674309
    vertex 3.641058 4.242361 87.245308
  endloop
endfacet
facet normal -0.951142 -10.899469 0.000000
  outer loop
    vertex 6.700570 4.079979 83.674309
    vertex 9.752789 3.813627 83.674309
    vertex 9.752789 3.813627 87.245308
  endloop
endfacet
facet normal -0.178549 0.000356 -0.000000
  outer loop
    vertex 0.577794 4.300587 83.674309
    vertex 0.577794 4.300587 87.245308
    vertex 0.577894 4.350586 87.245308
  endloop
endfacet
facet normal -0.178551 0.000356 -0.000000
  outer loop
    vertex 0.577894 4.350587 83.674309
    vertex 0.577794 4.300587 83.674309
    vertex 0.577894 4.350586 87.245308
  endloop
endfacet
facet normal 0.000000 0.000000 -0.153168
  outer loop
    vertex 6.700570 4.079979 83.674309
    vertex 6.704069 4.129856 83.674309
    vertex 9.752789 3.813627 83.674309
  endloop
endfacet
facet normal 0.000000 0.000000 -0.153254
  outer loop
    vertex 9.752789 3.813627 83.674309
    vertex 6.704069 4.129856 83.674309
    vertex 9.757982 3.863357 83.674309
  endloop
endfacet
facet normal 0.000000 0.000000 -0.153169
  outer loop
    vertex 3.641058 4.242361 83.674309
    vertex 3.642859 4.292329 83.674309
    vertex 6.700570 4.079979 83.674309
  endloop
endfacet
facet normal 0.000000 0.000000 -0.153253
  outer loop
    vertex 6.700570 4.079979 83.674309
    vertex 3.642859 4.292329 83.674309
    vertex 6.704069 4.129856 83.674309
  endloop
endfacet
facet normal 0.000000 0.000000 -0.153170
  outer loop
    vertex 0.577794 4.300587 83.674309
    vertex 0.577894 4.350587 83.674309
    vertex 3.641058 4.242361 83.674309
  endloop
endfacet
facet normal 0.000000 0.000000 -0.153254
  outer loop
    vertex 3.641058 4.242361 83.674309
    vertex 0.577894 4.350587 83.674309
    vertex 3.642859 4.292329 83.674309
  endloop
endfacet
facet normal 0.000000 0.000000 0.153168
  outer loop
    vertex 6.700570 4.079978 87.245308
    vertex 9.752789 3.813627 87.245308
    vertex 9.757982 3.863357 87.245308
  endloop
endfacet
facet normal 0.000000 0.000000 0.153254
  outer loop
    vertex 6.704069 4.129856 87.245308
    vertex 6.700570 4.079978 87.245308
    vertex 9.757982 3.863357 87.245308
  endloop
endfacet
facet normal 0.000000 0.000000 0.153169
  outer loop
    vertex 3.641058 4.242361 87.245308
    vertex 6.700570 4.079978 87.245308
    vertex 6.704069 4.129856 87.245308
  endloop
endfacet
facet normal 0.000000 0.000000 0.153254
  outer loop
    vertex 3.642859 4.292329 87.245308
    vertex 3.641058 4.242361 87.245308
    vertex 6.704069 4.129856 87.245308
  endloop
endfacet
facet normal 0.000000 0.000000 0.153169
  outer loop
    vertex 0.577794 4.300587 87.245308
    vertex 3.641058 4.242361 87.245308
    vertex 3.642859 4.292329 87.245308
  endloop
endfacet
facet normal 0.000000 0.000000 0.153253
  outer loop
    vertex 0.577894 4.350586 87.245308
    vertex 0.577794 4.300587 87.245308
    vertex 3.642859 4.292329 87.245308
  endloop
endfacet
endsolid b'MESH-MESH-MESH-MESH-MESH-MESH-MESH-MESH-MESH-MESH-MESH-MESH-MESH-MESH-MESH-MESH'
