solid b'MESH-MESH-MESH-MESH-MESH-MESH-MESH-MESH-MESH-MESH-MESH-MESH-MESH-MESH-MESH-MESH'
facet normal -0.208038 10.944988 -0.000001
  outer loop
    vertex -3.642849 4.292329 -134.395874
    vertex -0.577884 4.350586 -134.395874
    vertex -0.577883 4.350586 -137.966873
  endloop
endfacet
facet normal -0.208036 10.944988 0.000000
  outer loop
    vertex -3.642849 4.292329 -134.395874
    vertex -0.577883 4.350586 -137.966873
    vertex -3.642849 4.292329 -137.966873
  endloop
endfacet
facet normal -0.580188 10.931580 0.000000
  outer loop
    vertex -6.704059 4.129857 -134.395874
    vertex -3.642849 4.292329 -137.966873
    vertex -6.704059 4.129857 -137.966873
  endloop
endfacet
facet normal -0.580188 10.931580 0.000000
  outer loop
    vertex -6.704059 4.129857 -134.395874
    vertex -3.642849 4.292329 -134.395874
    vertex -3.642849 4.292329 -137.966873
  endloop
endfacet
facet normal -0.951669 10.905519 -0.000001
  outer loop
    vertex -9.757972 3.863358 -134.395874
    vertex -6.704059 4.129857 -137.966873
    vertex -9.757972 3.863357 -137.966873
  endloop
endfacet
facet normal -0.951668 10.905519 0.000000
  outer loop
    vertex -9.757972 3.863358 -134.395874
    vertex -6.704059 4.129857 -134.395874
    vertex -6.704059 4.129857 -137.966873
  endloop
endfacet
facet normal -0.177584 -0.018543 0.000000
  outer loop
    vertex -9.752779 3.813628 -134.395874
    vertex -9.757972 3.863358 -134.395874
    vertex -9.757972 3.863357 -137.966873
  endloop
endfacet
facet normal -0.177583 -0.018543 -0.000000
  outer loop
    vertex -9.752779 3.813628 -134.395874
    vertex -9.757972 3.863357 -137.966873
    vertex -9.752779 3.813628 -137.966873
  endloop
endfacet
facet normal 0.207922 -10.938916 0.000000
  outer loop
    vertex -0.577784 4.300586 -137.966873
    vertex -3.641048 4.242361 -134.395874
    vertex -3.641048 4.242361 -137.966873
  endloop
endfacet
facet normal 0.207922 -10.938915 0.000000
  outer loop
    vertex -0.577784 4.300586 -134.395874
    vertex -3.641048 4.242361 -134.395874
    vertex -0.577784 4.300586 -137.966873
  endloop
endfacet
facet normal 0.579866 -10.925513 0.000000
  outer loop
    vertex -3.641048 4.242361 -137.966873
    vertex -6.700560 4.079979 -134.395874
    vertex -6.700560 4.079979 -137.966873
  endloop
endfacet
facet normal 0.951139 -10.899471 0.000000
  outer loop
    vertex -6.700560 4.079979 -137.966873
    vertex -6.700560 4.079979 -134.395874
    vertex -9.752779 3.813628 -137.966873
  endloop
endfacet
facet normal 0.579866 -10.925513 0.000000
  outer loop
    vertex -3.641048 4.242361 -134.395874
    vertex -6.700560 4.079979 -134.395874
    vertex -3.641048 4.242361 -137.966873
  endloop
endfacet
facet normal 0.951139 -10.899471 0.000000
  outer loop
    vertex -6.700560 4.079979 -134.395874
    vertex -9.752779 3.813628 -134.395874
    vertex -9.752779 3.813628 -137.966873
  endloop
endfacet
facet normal 0.178551 0.000356 0.000000
  outer loop
    vertex -0.577884 4.350586 -134.395874
    vertex -0.577784 4.300586 -134.395874
    vertex -0.577784 4.300586 -137.966873
  endloop
endfacet
facet normal 0.178549 0.000356 0.000000
  outer loop
    vertex -0.577884 4.350586 -134.395874
    vertex -0.577784 4.300586 -137.966873
    vertex -0.577883 4.350586 -137.966873
  endloop
endfacet
facet normal 0.000000 -0.000000 0.153169
  outer loop
    vertex -9.752779 3.813628 -134.395874
    vertex -6.700560 4.079979 -134.395874
    vertex -9.757972 3.863358 -134.395874
  endloop
endfacet
facet normal 0.000000 0.000000 0.153254
  outer loop
    vertex -6.700560 4.079979 -134.395874
    vertex -6.704059 4.129857 -134.395874
    vertex -9.757972 3.863358 -134.395874
  endloop
endfacet
facet normal 0.000000 -0.000000 0.153169
  outer loop
    vertex -6.700560 4.079979 -134.395874
    vertex -3.641048 4.242361 -134.395874
    vertex -6.704059 4.129857 -134.395874
  endloop
endfacet
facet normal 0.000000 0.000000 0.153254
  outer loop
    vertex -3.641048 4.242361 -134.395874
    vertex -3.642849 4.292329 -134.395874
    vertex -6.704059 4.129857 -134.395874
  endloop
endfacet
facet normal 0.000000 -0.000000 0.153169
  outer loop
    vertex -3.641048 4.242361 -134.395874
    vertex -0.577784 4.300586 -134.395874
    vertex -3.642849 4.292329 -134.395874
  endloop
endfacet
facet normal 0.000000 0.000000 0.153255
  outer loop
    vertex -0.577784 4.300586 -134.395874
    vertex -0.577884 4.350586 -134.395874
    vertex -3.642849 4.292329 -134.395874
  endloop
endfacet
facet normal 0.000000 0.000000 -0.153168
  outer loop
    vertex -6.700560 4.079979 -137.966873
    vertex -9.752779 3.813628 -137.966873
    vertex -9.757972 3.863357 -137.966873
  endloop
endfacet
facet normal 0.000000 -0.000000 -0.153254
  outer loop
    vertex -6.704059 4.129857 -137.966873
    vertex -6.700560 4.079979 -137.966873
    vertex -9.757972 3.863357 -137.966873
  endloop
endfacet
facet normal 0.000000 0.000000 -0.153169
  outer loop
    vertex -3.641048 4.242361 -137.966873
    vertex -6.700560 4.079979 -137.966873
    vertex -6.704059 4.129857 -137.966873
  endloop
endfacet
facet normal 0.000000 -0.000000 -0.153254
  outer loop
    vertex -3.642849 4.292329 -137.966873
    vertex -3.641048 4.242361 -137.966873
    vertex -6.704059 4.129857 -137.966873
  endloop
endfacet
facet normal 0.000000 0.000000 -0.153169
  outer loop
    vertex -0.577784 4.300586 -137.966873
    vertex -3.641048 4.242361 -137.966873
    vertex -3.642849 4.292329 -137.966873
  endloop
endfacet
facet normal 0.000000 -0.000000 -0.153253
  outer loop
    vertex -0.577883 4.350586 -137.966873
    vertex -0.577784 4.300586 -137.966873
    vertex -3.642849 4.292329 -137.966873
  endloop
endfacet
endsolid b'MESH-MESH-MESH-MESH-MESH-MESH-MESH-MESH-MESH-MESH-MESH-MESH-MESH-MESH-MESH-MESH'
