solid b'MESH-MESH-MESH-MESH-MESH-MESH-MESH-MESH-MESH-MESH-MESH-MESH-MESH-MESH-MESH-MESH'
facet normal 0.208039 10.944942 0.000000
  outer loop
    vertex 3.642859 4.292329 -392.606567
    vertex 0.577894 4.350587 -392.606567
    vertex 0.577894 4.350587 -389.035583
  endloop
endfacet
facet normal 0.208039 10.944942 -0.000000
  outer loop
    vertex 3.642859 4.292329 -392.606567
    vertex 0.577894 4.350587 -389.035583
    vertex 3.642859 4.292329 -389.035583
  endloop
endfacet
facet normal 0.580187 10.931533 -0.000000
  outer loop
    vertex 6.704070 4.129856 -392.606567
    vertex 3.642859 4.292329 -389.035583
    vertex 6.704070 4.129856 -389.035583
  endloop
endfacet
facet normal 0.580187 10.931533 0.000000
  outer loop
    vertex 6.704070 4.129856 -392.606567
    vertex 3.642859 4.292329 -392.606567
    vertex 3.642859 4.292329 -389.035583
  endloop
endfacet
facet normal 0.951665 10.905473 -0.000000
  outer loop
    vertex 9.757982 3.863357 -392.606567
    vertex 6.704070 4.129856 -389.035583
    vertex 9.757982 3.863357 -389.035583
  endloop
endfacet
facet normal 0.951665 10.905473 0.000000
  outer loop
    vertex 9.757982 3.863357 -392.606567
    vertex 6.704070 4.129856 -392.606567
    vertex 6.704070 4.129856 -389.035583
  endloop
endfacet
facet normal 0.177584 -0.018547 0.000000
  outer loop
    vertex 9.757982 3.863357 -392.606567
    vertex 9.757982 3.863357 -389.035583
    vertex 9.752789 3.813627 -392.606567
  endloop
endfacet
facet normal 0.177583 -0.018547 0.000000
  outer loop
    vertex 9.757982 3.863357 -389.035583
    vertex 9.752789 3.813627 -389.035583
    vertex 9.752789 3.813627 -392.606567
  endloop
endfacet
facet normal -0.207923 -10.938869 0.000001
  outer loop
    vertex 0.577794 4.300587 -389.035583
    vertex 0.577794 4.300587 -392.606567
    vertex 3.641059 4.242362 -389.035583
  endloop
endfacet
facet normal -0.207923 -10.938869 0.000001
  outer loop
    vertex 0.577794 4.300587 -392.606567
    vertex 3.641059 4.242361 -392.606567
    vertex 3.641059 4.242362 -389.035583
  endloop
endfacet
facet normal -0.579866 -10.925467 0.000000
  outer loop
    vertex 3.641059 4.242362 -389.035583
    vertex 6.700571 4.079979 -392.606567
    vertex 6.700571 4.079979 -389.035583
  endloop
endfacet
facet normal -0.579864 -10.925467 0.000001
  outer loop
    vertex 3.641059 4.242361 -392.606567
    vertex 6.700571 4.079979 -392.606567
    vertex 3.641059 4.242362 -389.035583
  endloop
endfacet
facet normal -0.951137 -10.899421 0.000001
  outer loop
    vertex 6.700571 4.079979 -389.035583
    vertex 9.752789 3.813627 -392.606567
    vertex 9.752789 3.813627 -389.035583
  endloop
endfacet
facet normal -0.951138 -10.899421 0.000000
  outer loop
    vertex 6.700571 4.079979 -392.606567
    vertex 9.752789 3.813627 -392.606567
    vertex 6.700571 4.079979 -389.035583
  endloop
endfacet
facet normal -0.178550 0.000356 0.000000
  outer loop
    vertex 0.577794 4.300587 -392.606567
    vertex 0.577894 4.350587 -389.035583
    vertex 0.577894 4.350587 -392.606567
  endloop
endfacet
facet normal -0.178548 0.000356 0.000000
  outer loop
    vertex 0.577794 4.300587 -389.035583
    vertex 0.577894 4.350587 -389.035583
    vertex 0.577794 4.300587 -392.606567
  endloop
endfacet
facet normal 0.000000 0.000000 0.153168
  outer loop
    vertex 6.700571 4.079979 -389.035583
    vertex 9.752789 3.813627 -389.035583
    vertex 9.757982 3.863357 -389.035583
  endloop
endfacet
facet normal 0.000000 0.000000 0.153253
  outer loop
    vertex 6.704070 4.129856 -389.035583
    vertex 6.700571 4.079979 -389.035583
    vertex 9.757982 3.863357 -389.035583
  endloop
endfacet
facet normal 0.000000 0.000000 0.153168
  outer loop
    vertex 3.641059 4.242362 -389.035583
    vertex 6.700571 4.079979 -389.035583
    vertex 6.704070 4.129856 -389.035583
  endloop
endfacet
facet normal 0.000000 0.000000 0.153253
  outer loop
    vertex 3.642859 4.292329 -389.035583
    vertex 3.641059 4.242362 -389.035583
    vertex 6.704070 4.129856 -389.035583
  endloop
endfacet
facet normal 0.000000 0.000000 0.153168
  outer loop
    vertex 0.577894 4.350587 -389.035583
    vertex 0.577794 4.300587 -389.035583
    vertex 3.641059 4.242362 -389.035583
  endloop
endfacet
facet normal 0.000000 0.000000 0.153253
  outer loop
    vertex 0.577894 4.350587 -389.035583
    vertex 3.641059 4.242362 -389.035583
    vertex 3.642859 4.292329 -389.035583
  endloop
endfacet
facet normal 0.000000 0.000000 -0.153169
  outer loop
    vertex 9.752789 3.813627 -392.606567
    vertex 6.700571 4.079979 -392.606567
    vertex 9.757982 3.863357 -392.606567
  endloop
endfacet
facet normal 0.000000 0.000000 -0.153253
  outer loop
    vertex 6.700571 4.079979 -392.606567
    vertex 6.704070 4.129856 -392.606567
    vertex 9.757982 3.863357 -392.606567
  endloop
endfacet
facet normal 0.000000 0.000000 -0.153168
  outer loop
    vertex 6.700571 4.079979 -392.606567
    vertex 3.641059 4.242361 -392.606567
    vertex 6.704070 4.129856 -392.606567
  endloop
endfacet
facet normal 0.000000 0.000000 -0.153254
  outer loop
    vertex 3.641059 4.242361 -392.606567
    vertex 3.642859 4.292329 -392.606567
    vertex 6.704070 4.129856 -392.606567
  endloop
endfacet
facet normal 0.000000 0.000000 -0.153170
  outer loop
    vertex 0.577794 4.300587 -392.606567
    vertex 0.577894 4.350587 -392.606567
    vertex 3.641059 4.242361 -392.606567
  endloop
endfacet
facet normal 0.000000 0.000000 -0.153254
  outer loop
    vertex 3.641059 4.242361 -392.606567
    vertex 0.577894 4.350587 -392.606567
    vertex 3.642859 4.292329 -392.606567
  endloop
endfacet
endsolid b'MESH-MESH-MESH-MESH-MESH-MESH-MESH-MESH-MESH-MESH-MESH-MESH-MESH-MESH-MESH-MESH'
