solid b'MESH-MESH-MESH-MESH-MESH-MESH-MESH-MESH-MESH-MESH-MESH-MESH-MESH-MESH-MESH-MESH'
facet normal -0.208040 -10.945035 0.000000
  outer loop
    vertex -3.642859 -4.292329 -299.035919
    vertex -0.577894 -4.350587 -299.035919
    vertex -0.577894 -4.350587 -295.464905
  endloop
endfacet
facet normal -0.208040 -10.945035 0.000000
  outer loop
    vertex -3.642859 -4.292329 -299.035919
    vertex -0.577894 -4.350587 -295.464905
    vertex -3.642859 -4.292329 -295.464905
  endloop
endfacet
facet normal -0.580191 -10.931625 -0.000001
  outer loop
    vertex -6.704069 -4.129856 -299.035919
    vertex -3.642859 -4.292329 -295.464905
    vertex -6.704069 -4.129857 -295.464905
  endloop
endfacet
facet normal -0.580192 -10.931625 0.000000
  outer loop
    vertex -6.704069 -4.129856 -299.035919
    vertex -3.642859 -4.292329 -299.035919
    vertex -3.642859 -4.292329 -295.464905
  endloop
endfacet
facet normal -0.951674 -10.905568 -0.000001
  outer loop
    vertex -9.757982 -3.863357 -299.035919
    vertex -6.704069 -4.129857 -295.464905
    vertex -9.757982 -3.863357 -295.464905
  endloop
endfacet
facet normal -0.951673 -10.905568 -0.000001
  outer loop
    vertex -9.757982 -3.863357 -299.035919
    vertex -6.704069 -4.129856 -299.035919
    vertex -6.704069 -4.129857 -295.464905
  endloop
endfacet
facet normal -0.177585 0.018547 0.000000
  outer loop
    vertex -9.757982 -3.863357 -299.035919
    vertex -9.757982 -3.863357 -295.464905
    vertex -9.752789 -3.813627 -299.035919
  endloop
endfacet
facet normal -0.177585 0.018547 0.000000
  outer loop
    vertex -9.757982 -3.863357 -295.464905
    vertex -9.752789 -3.813627 -295.464905
    vertex -9.752789 -3.813627 -299.035919
  endloop
endfacet
facet normal 0.207925 10.938963 0.000000
  outer loop
    vertex -0.577794 -4.300587 -295.464905
    vertex -3.641058 -4.242362 -299.035919
    vertex -3.641059 -4.242362 -295.464905
  endloop
endfacet
facet normal 0.579871 10.925561 0.000000
  outer loop
    vertex -3.641059 -4.242362 -295.464905
    vertex -3.641058 -4.242362 -299.035919
    vertex -6.700571 -4.079979 -295.464905
  endloop
endfacet
facet normal 0.207923 10.938962 0.000001
  outer loop
    vertex -0.577794 -4.300587 -299.035919
    vertex -3.641058 -4.242362 -299.035919
    vertex -0.577794 -4.300587 -295.464905
  endloop
endfacet
facet normal 0.579871 10.925560 0.000000
  outer loop
    vertex -3.641058 -4.242362 -299.035919
    vertex -6.700570 -4.079979 -299.035919
    vertex -6.700571 -4.079979 -295.464905
  endloop
endfacet
facet normal 0.951145 10.899514 0.000001
  outer loop
    vertex -6.700571 -4.079979 -295.464905
    vertex -9.752789 -3.813627 -299.035919
    vertex -9.752789 -3.813627 -295.464905
  endloop
endfacet
facet normal 0.951146 10.899516 0.000000
  outer loop
    vertex -6.700570 -4.079979 -299.035919
    vertex -9.752789 -3.813627 -299.035919
    vertex -6.700571 -4.079979 -295.464905
  endloop
endfacet
facet normal 0.178551 -0.000356 0.000000
  outer loop
    vertex -0.577794 -4.300587 -299.035919
    vertex -0.577794 -4.300587 -295.464905
    vertex -0.577894 -4.350587 -299.035919
  endloop
endfacet
facet normal 0.178550 -0.000356 0.000000
  outer loop
    vertex -0.577794 -4.300587 -295.464905
    vertex -0.577894 -4.350587 -295.464905
    vertex -0.577894 -4.350587 -299.035919
  endloop
endfacet
facet normal 0.000000 -0.000000 0.153169
  outer loop
    vertex -6.704069 -4.129857 -295.464905
    vertex -6.700571 -4.079979 -295.464905
    vertex -9.752789 -3.813627 -295.464905
  endloop
endfacet
facet normal 0.000000 0.000000 0.153254
  outer loop
    vertex -6.704069 -4.129857 -295.464905
    vertex -9.752789 -3.813627 -295.464905
    vertex -9.757982 -3.863357 -295.464905
  endloop
endfacet
facet normal 0.000000 -0.000000 0.153168
  outer loop
    vertex -3.642859 -4.292329 -295.464905
    vertex -3.641059 -4.242362 -295.464905
    vertex -6.700571 -4.079979 -295.464905
  endloop
endfacet
facet normal 0.000000 0.000000 0.153254
  outer loop
    vertex -3.642859 -4.292329 -295.464905
    vertex -6.700571 -4.079979 -295.464905
    vertex -6.704069 -4.129857 -295.464905
  endloop
endfacet
facet normal 0.000000 -0.000000 0.153168
  outer loop
    vertex -0.577894 -4.350587 -295.464905
    vertex -0.577794 -4.300587 -295.464905
    vertex -3.641059 -4.242362 -295.464905
  endloop
endfacet
facet normal 0.000000 0.000000 0.153253
  outer loop
    vertex -0.577894 -4.350587 -295.464905
    vertex -3.641059 -4.242362 -295.464905
    vertex -3.642859 -4.292329 -295.464905
  endloop
endfacet
facet normal 0.000000 -0.000000 -0.153169
  outer loop
    vertex -9.752789 -3.813627 -299.035919
    vertex -6.700570 -4.079979 -299.035919
    vertex -9.757982 -3.863357 -299.035919
  endloop
endfacet
facet normal -0.000000 0.000000 -0.153253
  outer loop
    vertex -6.700570 -4.079979 -299.035919
    vertex -6.704069 -4.129856 -299.035919
    vertex -9.757982 -3.863357 -299.035919
  endloop
endfacet
facet normal 0.000000 -0.000000 -0.153168
  outer loop
    vertex -6.700570 -4.079979 -299.035919
    vertex -3.641058 -4.242362 -299.035919
    vertex -6.704069 -4.129856 -299.035919
  endloop
endfacet
facet normal -0.000000 0.000000 -0.153253
  outer loop
    vertex -3.641058 -4.242362 -299.035919
    vertex -3.642859 -4.292329 -299.035919
    vertex -6.704069 -4.129856 -299.035919
  endloop
endfacet
facet normal 0.000000 -0.000000 -0.153168
  outer loop
    vertex -3.641058 -4.242362 -299.035919
    vertex -0.577794 -4.300587 -299.035919
    vertex -3.642859 -4.292329 -299.035919
  endloop
endfacet
facet normal -0.000000 0.000000 -0.153255
  outer loop
    vertex -0.577794 -4.300587 -299.035919
    vertex -0.577894 -4.350587 -299.035919
    vertex -3.642859 -4.292329 -299.035919
  endloop
endfacet
endsolid b'MESH-MESH-MESH-MESH-MESH-MESH-MESH-MESH-MESH-MESH-MESH-MESH-MESH-MESH-MESH-MESH'
