solid b'MESH-MESH-MESH-MESH-MESH-MESH-MESH-MESH-MESH-MESH-MESH-MESH-MESH-MESH-MESH-MESH'
facet normal 0.208039 -10.944988 -0.000000
  outer loop
    vertex 0.577894 -4.350587 -84.640121
    vertex 0.577894 -4.350587 -88.211121
    vertex 3.642859 -4.292329 -88.211121
  endloop
endfacet
facet normal 0.580190 -10.931579 0.000000
  outer loop
    vertex 3.642859 -4.292329 -84.640121
    vertex 3.642859 -4.292329 -88.211121
    vertex 6.704069 -4.129856 -88.211121
  endloop
endfacet
facet normal 0.208039 -10.944988 0.000000
  outer loop
    vertex 3.642859 -4.292329 -84.640121
    vertex 0.577894 -4.350587 -84.640121
    vertex 3.642859 -4.292329 -88.211121
  endloop
endfacet
facet normal 0.951669 -10.905521 -0.000001
  outer loop
    vertex 6.704069 -4.129857 -84.640121
    vertex 6.704069 -4.129856 -88.211121
    vertex 9.757982 -3.863357 -88.211121
  endloop
endfacet
facet normal 0.580188 -10.931579 -0.000001
  outer loop
    vertex 6.704069 -4.129857 -84.640121
    vertex 3.642859 -4.292329 -84.640121
    vertex 6.704069 -4.129856 -88.211121
  endloop
endfacet
facet normal 0.951670 -10.905521 -0.000001
  outer loop
    vertex 9.757982 -3.863357 -84.640121
    vertex 6.704069 -4.129857 -84.640121
    vertex 9.757982 -3.863357 -88.211121
  endloop
endfacet
facet normal 0.177584 0.018547 0.000000
  outer loop
    vertex 9.757982 -3.863357 -84.640121
    vertex 9.757982 -3.863357 -88.211121
    vertex 9.752789 -3.813627 -88.211121
  endloop
endfacet
facet normal 0.177584 0.018547 0.000000
  outer loop
    vertex 9.752789 -3.813627 -84.640121
    vertex 9.757982 -3.863357 -84.640121
    vertex 9.752789 -3.813627 -88.211121
  endloop
endfacet
facet normal -0.207922 10.938915 0.000001
  outer loop
    vertex 0.577794 -4.300587 -88.211121
    vertex 0.577794 -4.300587 -84.640121
    vertex 3.641058 -4.242362 -88.211121
  endloop
endfacet
facet normal -0.207924 10.938916 0.000000
  outer loop
    vertex 0.577794 -4.300587 -84.640121
    vertex 3.641059 -4.242362 -84.640121
    vertex 3.641058 -4.242362 -88.211121
  endloop
endfacet
facet normal -0.579868 10.925513 0.000000
  outer loop
    vertex 3.641058 -4.242362 -88.211121
    vertex 6.700571 -4.079979 -84.640121
    vertex 6.700570 -4.079979 -88.211121
  endloop
endfacet
facet normal -0.951142 10.899469 0.000000
  outer loop
    vertex 6.700570 -4.079979 -88.211121
    vertex 6.700571 -4.079979 -84.640121
    vertex 9.752789 -3.813627 -88.211121
  endloop
endfacet
facet normal -0.579868 10.925514 0.000000
  outer loop
    vertex 3.641059 -4.242362 -84.640121
    vertex 6.700571 -4.079979 -84.640121
    vertex 3.641058 -4.242362 -88.211121
  endloop
endfacet
facet normal -0.951141 10.899467 0.000001
  outer loop
    vertex 6.700571 -4.079979 -84.640121
    vertex 9.752789 -3.813627 -84.640121
    vertex 9.752789 -3.813627 -88.211121
  endloop
endfacet
facet normal -0.178551 -0.000356 0.000000
  outer loop
    vertex 0.577794 -4.300587 -84.640121
    vertex 0.577794 -4.300587 -88.211121
    vertex 0.577894 -4.350587 -88.211121
  endloop
endfacet
facet normal -0.178549 -0.000356 0.000000
  outer loop
    vertex 0.577894 -4.350587 -84.640121
    vertex 0.577794 -4.300587 -84.640121
    vertex 0.577894 -4.350587 -88.211121
  endloop
endfacet
facet normal -0.000000 0.000000 0.153169
  outer loop
    vertex 6.700571 -4.079979 -84.640121
    vertex 6.704069 -4.129857 -84.640121
    vertex 9.752789 -3.813627 -84.640121
  endloop
endfacet
facet normal 0.000000 0.000000 0.153254
  outer loop
    vertex 9.752789 -3.813627 -84.640121
    vertex 6.704069 -4.129857 -84.640121
    vertex 9.757982 -3.863357 -84.640121
  endloop
endfacet
facet normal -0.000000 0.000000 0.153168
  outer loop
    vertex 3.641059 -4.242362 -84.640121
    vertex 3.642859 -4.292329 -84.640121
    vertex 6.700571 -4.079979 -84.640121
  endloop
endfacet
facet normal 0.000000 0.000000 0.153254
  outer loop
    vertex 6.700571 -4.079979 -84.640121
    vertex 3.642859 -4.292329 -84.640121
    vertex 6.704069 -4.129857 -84.640121
  endloop
endfacet
facet normal -0.000000 0.000000 0.153168
  outer loop
    vertex 0.577794 -4.300587 -84.640121
    vertex 0.577894 -4.350587 -84.640121
    vertex 3.641059 -4.242362 -84.640121
  endloop
endfacet
facet normal 0.000000 0.000000 0.153253
  outer loop
    vertex 3.641059 -4.242362 -84.640121
    vertex 0.577894 -4.350587 -84.640121
    vertex 3.642859 -4.292329 -84.640121
  endloop
endfacet
facet normal 0.000000 0.000000 -0.153169
  outer loop
    vertex 6.700570 -4.079979 -88.211121
    vertex 9.752789 -3.813627 -88.211121
    vertex 9.757982 -3.863357 -88.211121
  endloop
endfacet
facet normal 0.000000 0.000000 -0.153253
  outer loop
    vertex 6.704069 -4.129856 -88.211121
    vertex 6.700570 -4.079979 -88.211121
    vertex 9.757982 -3.863357 -88.211121
  endloop
endfacet
facet normal 0.000000 0.000000 -0.153168
  outer loop
    vertex 3.641058 -4.242362 -88.211121
    vertex 6.700570 -4.079979 -88.211121
    vertex 6.704069 -4.129856 -88.211121
  endloop
endfacet
facet normal 0.000000 0.000000 -0.153253
  outer loop
    vertex 3.642859 -4.292329 -88.211121
    vertex 3.641058 -4.242362 -88.211121
    vertex 6.704069 -4.129856 -88.211121
  endloop
endfacet
facet normal 0.000000 0.000000 -0.153168
  outer loop
    vertex 0.577794 -4.300587 -88.211121
    vertex 3.641058 -4.242362 -88.211121
    vertex 3.642859 -4.292329 -88.211121
  endloop
endfacet
facet normal 0.000000 0.000000 -0.153255
  outer loop
    vertex 0.577894 -4.350587 -88.211121
    vertex 0.577794 -4.300587 -88.211121
    vertex 3.642859 -4.292329 -88.211121
  endloop
endfacet
endsolid b'MESH-MESH-MESH-MESH-MESH-MESH-MESH-MESH-MESH-MESH-MESH-MESH-MESH-MESH-MESH-MESH'
