solid b'MESH-MESH-MESH-MESH-MESH-MESH-MESH-MESH-MESH-MESH-MESH-MESH-MESH-MESH-MESH-MESH'
facet normal 1.336520 -10.865116 0.000000
  outer loop
    vertex 12.919899 -3.476545 327.608582
    vertex 9.877314 -3.850814 327.608582
    vertex 9.877314 -3.850814 324.037567
  endloop
endfacet
facet normal 1.336520 -10.865116 0.000000
  outer loop
    vertex 12.919899 -3.476545 327.608582
    vertex 9.877314 -3.850814 324.037567
    vertex 12.919899 -3.476545 324.037567
  endloop
endfacet
facet normal 1.705301 -10.813372 0.000000
  outer loop
    vertex 15.947994 -2.999005 327.608582
    vertex 12.919899 -3.476545 324.037567
    vertex 15.947994 -2.999005 324.037567
  endloop
endfacet
facet normal 1.705301 -10.813372 0.000000
  outer loop
    vertex 15.947994 -2.999005 327.608582
    vertex 12.919899 -3.476545 327.608582
    vertex 12.919899 -3.476545 324.037567
  endloop
endfacet
facet normal 2.072109 -10.749115 0.000000
  outer loop
    vertex 18.958096 -2.418747 327.608582
    vertex 15.947994 -2.999005 324.037567
    vertex 18.958096 -2.418747 324.037567
  endloop
endfacet
facet normal 2.072109 -10.749115 0.000000
  outer loop
    vertex 18.958096 -2.418747 327.608582
    vertex 15.947994 -2.999005 327.608582
    vertex 15.947994 -2.999005 324.037567
  endloop
endfacet
facet normal 0.174723 0.036774 0.000000
  outer loop
    vertex 18.958096 -2.418747 327.608582
    vertex 18.958096 -2.418747 324.037567
    vertex 18.947798 -2.369819 327.608582
  endloop
endfacet
facet normal 0.174723 0.036774 0.000000
  outer loop
    vertex 18.958096 -2.418747 324.037567
    vertex 18.947798 -2.369819 324.037567
    vertex 18.947798 -2.369819 327.608582
  endloop
endfacet
facet normal -1.335778 10.859088 0.000000
  outer loop
    vertex 9.872054 -3.801091 324.037567
    vertex 9.872054 -3.801091 327.608582
    vertex 12.912951 -3.427030 324.037567
  endloop
endfacet
facet normal -1.335778 10.859088 0.000000
  outer loop
    vertex 9.872054 -3.801091 327.608582
    vertex 12.912951 -3.427030 327.608582
    vertex 12.912951 -3.427030 324.037567
  endloop
endfacet
facet normal -1.704355 10.807375 -0.000000
  outer loop
    vertex 12.912951 -3.427030 324.037567
    vertex 15.939366 -2.949755 327.608582
    vertex 15.939367 -2.949755 324.037567
  endloop
endfacet
facet normal -1.704355 10.807371 0.000000
  outer loop
    vertex 12.912951 -3.427030 327.608582
    vertex 15.939366 -2.949755 327.608582
    vertex 12.912951 -3.427030 324.037567
  endloop
endfacet
facet normal -2.070960 10.743149 0.000000
  outer loop
    vertex 15.939367 -2.949755 324.037567
    vertex 18.947798 -2.369819 327.608582
    vertex 18.947798 -2.369819 324.037567
  endloop
endfacet
facet normal -2.070960 10.743152 -0.000001
  outer loop
    vertex 15.939366 -2.949755 327.608582
    vertex 18.947798 -2.369819 327.608582
    vertex 15.939367 -2.949755 324.037567
  endloop
endfacet
facet normal -0.177560 -0.018782 0.000000
  outer loop
    vertex 9.872054 -3.801091 327.608582
    vertex 9.877314 -3.850814 324.037567
    vertex 9.877314 -3.850814 327.608582
  endloop
endfacet
facet normal -0.177560 -0.018782 0.000000
  outer loop
    vertex 9.872054 -3.801091 324.037567
    vertex 9.877314 -3.850814 324.037567
    vertex 9.872054 -3.801091 327.608582
  endloop
endfacet
facet normal 0.000000 0.000000 -0.153169
  outer loop
    vertex 15.939367 -2.949755 324.037567
    vertex 18.947798 -2.369819 324.037567
    vertex 18.958096 -2.418747 324.037567
  endloop
endfacet
facet normal 0.000000 0.000000 -0.153253
  outer loop
    vertex 15.947994 -2.999005 324.037567
    vertex 15.939367 -2.949755 324.037567
    vertex 18.958096 -2.418747 324.037567
  endloop
endfacet
facet normal 0.000000 0.000000 -0.153168
  outer loop
    vertex 12.912951 -3.427030 324.037567
    vertex 15.939367 -2.949755 324.037567
    vertex 15.947994 -2.999005 324.037567
  endloop
endfacet
facet normal 0.000000 0.000000 -0.153254
  outer loop
    vertex 12.919899 -3.476545 324.037567
    vertex 12.912951 -3.427030 324.037567
    vertex 15.947994 -2.999005 324.037567
  endloop
endfacet
facet normal 0.000000 0.000000 -0.153169
  outer loop
    vertex 9.872054 -3.801091 324.037567
    vertex 12.912951 -3.427030 324.037567
    vertex 12.919899 -3.476545 324.037567
  endloop
endfacet
facet normal 0.000000 0.000000 -0.153254
  outer loop
    vertex 9.877314 -3.850814 324.037567
    vertex 9.872054 -3.801091 324.037567
    vertex 12.919899 -3.476545 324.037567
  endloop
endfacet
facet normal 0.000000 0.000000 0.153169
  outer loop
    vertex 18.947798 -2.369819 327.608582
    vertex 15.939366 -2.949755 327.608582
    vertex 18.958096 -2.418747 327.608582
  endloop
endfacet
facet normal -0.000000 0.000000 0.153254
  outer loop
    vertex 15.939366 -2.949755 327.608582
    vertex 15.947994 -2.999005 327.608582
    vertex 18.958096 -2.418747 327.608582
  endloop
endfacet
facet normal 0.000000 0.000000 0.153168
  outer loop
    vertex 15.939366 -2.949755 327.608582
    vertex 12.912951 -3.427030 327.608582
    vertex 15.947994 -2.999005 327.608582
  endloop
endfacet
facet normal -0.000000 0.000000 0.153254
  outer loop
    vertex 12.912951 -3.427030 327.608582
    vertex 12.919899 -3.476545 327.608582
    vertex 15.947994 -2.999005 327.608582
  endloop
endfacet
facet normal 0.000000 0.000000 0.153169
  outer loop
    vertex 12.912951 -3.427030 327.608582
    vertex 9.872054 -3.801091 327.608582
    vertex 12.919899 -3.476545 327.608582
  endloop
endfacet
facet normal -0.000000 0.000000 0.153254
  outer loop
    vertex 9.872054 -3.801091 327.608582
    vertex 9.877314 -3.850814 327.608582
    vertex 12.919899 -3.476545 327.608582
  endloop
endfacet
endsolid b'MESH-MESH-MESH-MESH-MESH-MESH-MESH-MESH-MESH-MESH-MESH-MESH-MESH-MESH-MESH-MESH'
