solid b'MESH-MESH-MESH-MESH-MESH-MESH-MESH-MESH-MESH-MESH-MESH-MESH-MESH-MESH-MESH-MESH'
facet normal 0.208039 10.944942 0.000000
  outer loop
    vertex 3.642854 4.292329 -381.773560
    vertex 0.577889 4.350587 -381.773560
    vertex 0.577889 4.350587 -378.202576
  endloop
endfacet
facet normal 0.208037 10.944942 -0.000001
  outer loop
    vertex 3.642854 4.292329 -381.773560
    vertex 0.577889 4.350587 -378.202576
    vertex 3.642854 4.292329 -378.202576
  endloop
endfacet
facet normal 0.580187 10.931533 -0.000000
  outer loop
    vertex 6.704064 4.129857 -381.773560
    vertex 3.642854 4.292329 -378.202576
    vertex 6.704064 4.129857 -378.202576
  endloop
endfacet
facet normal 0.580186 10.931533 -0.000001
  outer loop
    vertex 6.704064 4.129857 -381.773560
    vertex 3.642854 4.292329 -381.773560
    vertex 3.642854 4.292329 -378.202576
  endloop
endfacet
facet normal 0.951664 10.905475 -0.000001
  outer loop
    vertex 9.757977 3.863357 -381.773560
    vertex 6.704064 4.129857 -378.202576
    vertex 9.757977 3.863358 -378.202576
  endloop
endfacet
facet normal 0.951665 10.905475 0.000000
  outer loop
    vertex 9.757977 3.863357 -381.773560
    vertex 6.704064 4.129857 -381.773560
    vertex 6.704064 4.129857 -378.202576
  endloop
endfacet
facet normal 0.177584 -0.018547 0.000000
  outer loop
    vertex 9.757977 3.863357 -381.773560
    vertex 9.757977 3.863358 -378.202576
    vertex 9.752784 3.813628 -381.773560
  endloop
endfacet
facet normal 0.177584 -0.018547 0.000000
  outer loop
    vertex 9.757977 3.863358 -378.202576
    vertex 9.752784 3.813628 -378.202576
    vertex 9.752784 3.813628 -381.773560
  endloop
endfacet
facet normal -0.207921 -10.938869 0.000000
  outer loop
    vertex 0.577789 4.300587 -378.202576
    vertex 3.641053 4.242362 -381.773560
    vertex 3.641053 4.242362 -378.202576
  endloop
endfacet
facet normal -0.579864 -10.925467 -0.000000
  outer loop
    vertex 3.641053 4.242362 -378.202576
    vertex 3.641053 4.242362 -381.773560
    vertex 6.700565 4.079979 -378.202576
  endloop
endfacet
facet normal -0.207921 -10.938869 0.000000
  outer loop
    vertex 0.577789 4.300587 -381.773560
    vertex 3.641053 4.242362 -381.773560
    vertex 0.577789 4.300587 -378.202576
  endloop
endfacet
facet normal -0.579866 -10.925467 0.000001
  outer loop
    vertex 3.641053 4.242362 -381.773560
    vertex 6.700565 4.079979 -381.773560
    vertex 6.700565 4.079979 -378.202576
  endloop
endfacet
facet normal -0.951137 -10.899423 0.000001
  outer loop
    vertex 6.700565 4.079979 -378.202576
    vertex 9.752784 3.813628 -381.773560
    vertex 9.752784 3.813628 -378.202576
  endloop
endfacet
facet normal -0.951136 -10.899423 0.000001
  outer loop
    vertex 6.700565 4.079979 -381.773560
    vertex 9.752784 3.813628 -381.773560
    vertex 6.700565 4.079979 -378.202576
  endloop
endfacet
facet normal -0.178550 0.000356 0.000000
  outer loop
    vertex 0.577789 4.300587 -381.773560
    vertex 0.577789 4.300587 -378.202576
    vertex 0.577889 4.350587 -381.773560
  endloop
endfacet
facet normal -0.178550 0.000356 0.000000
  outer loop
    vertex 0.577789 4.300587 -378.202576
    vertex 0.577889 4.350587 -378.202576
    vertex 0.577889 4.350587 -381.773560
  endloop
endfacet
facet normal 0.000000 0.000000 0.153168
  outer loop
    vertex 6.704064 4.129857 -378.202576
    vertex 6.700565 4.079979 -378.202576
    vertex 9.752784 3.813628 -378.202576
  endloop
endfacet
facet normal 0.000000 0.000000 0.153254
  outer loop
    vertex 6.704064 4.129857 -378.202576
    vertex 9.752784 3.813628 -378.202576
    vertex 9.757977 3.863358 -378.202576
  endloop
endfacet
facet normal 0.000000 0.000000 0.153169
  outer loop
    vertex 3.642854 4.292329 -378.202576
    vertex 3.641053 4.242362 -378.202576
    vertex 6.700565 4.079979 -378.202576
  endloop
endfacet
facet normal 0.000000 0.000000 0.153253
  outer loop
    vertex 3.642854 4.292329 -378.202576
    vertex 6.700565 4.079979 -378.202576
    vertex 6.704064 4.129857 -378.202576
  endloop
endfacet
facet normal 0.000000 0.000000 0.153170
  outer loop
    vertex 0.577889 4.350587 -378.202576
    vertex 0.577789 4.300587 -378.202576
    vertex 3.641053 4.242362 -378.202576
  endloop
endfacet
facet normal 0.000000 0.000000 0.153254
  outer loop
    vertex 0.577889 4.350587 -378.202576
    vertex 3.641053 4.242362 -378.202576
    vertex 3.642854 4.292329 -378.202576
  endloop
endfacet
facet normal 0.000000 0.000000 -0.153169
  outer loop
    vertex 9.752784 3.813628 -381.773560
    vertex 6.700565 4.079979 -381.773560
    vertex 9.757977 3.863357 -381.773560
  endloop
endfacet
facet normal 0.000000 0.000000 -0.153254
  outer loop
    vertex 6.700565 4.079979 -381.773560
    vertex 6.704064 4.129857 -381.773560
    vertex 9.757977 3.863357 -381.773560
  endloop
endfacet
facet normal 0.000000 0.000000 -0.153169
  outer loop
    vertex 6.700565 4.079979 -381.773560
    vertex 3.641053 4.242362 -381.773560
    vertex 6.704064 4.129857 -381.773560
  endloop
endfacet
facet normal 0.000000 0.000000 -0.153253
  outer loop
    vertex 3.641053 4.242362 -381.773560
    vertex 3.642854 4.292329 -381.773560
    vertex 6.704064 4.129857 -381.773560
  endloop
endfacet
facet normal 0.000000 0.000000 -0.153168
  outer loop
    vertex 3.641053 4.242362 -381.773560
    vertex 0.577789 4.300587 -381.773560
    vertex 3.642854 4.292329 -381.773560
  endloop
endfacet
facet normal 0.000000 0.000000 -0.153255
  outer loop
    vertex 0.577789 4.300587 -381.773560
    vertex 0.577889 4.350587 -381.773560
    vertex 3.642854 4.292329 -381.773560
  endloop
endfacet
endsolid b'MESH-MESH-MESH-MESH-MESH-MESH-MESH-MESH-MESH-MESH-MESH-MESH-MESH-MESH-MESH-MESH'
