solid b'MESH-MESH-MESH-MESH-MESH-MESH-MESH-MESH-MESH-MESH-MESH-MESH-MESH-MESH-MESH-MESH'
facet normal 0.208037 -10.944942 0.000000
  outer loop
    vertex 3.642854 -4.292329 378.122559
    vertex 0.577889 -4.350586 378.122559
    vertex 0.577889 -4.350586 374.551575
  endloop
endfacet
facet normal 0.208037 -10.944942 0.000000
  outer loop
    vertex 3.642854 -4.292329 378.122559
    vertex 0.577889 -4.350586 374.551575
    vertex 3.642854 -4.292329 374.551575
  endloop
endfacet
facet normal 0.580186 -10.931533 0.000001
  outer loop
    vertex 6.704064 -4.129856 378.122559
    vertex 3.642854 -4.292329 374.551575
    vertex 6.704064 -4.129857 374.551575
  endloop
endfacet
facet normal 0.951665 -10.905475 0.000001
  outer loop
    vertex 6.704064 -4.129856 378.122559
    vertex 6.704064 -4.129857 374.551575
    vertex 9.757977 -3.863357 374.551575
  endloop
endfacet
facet normal 0.580187 -10.931533 0.000000
  outer loop
    vertex 6.704064 -4.129856 378.122559
    vertex 3.642854 -4.292329 378.122559
    vertex 3.642854 -4.292329 374.551575
  endloop
endfacet
facet normal 0.951664 -10.905475 0.000001
  outer loop
    vertex 9.757977 -3.863357 378.122559
    vertex 6.704064 -4.129856 378.122559
    vertex 9.757977 -3.863357 374.551575
  endloop
endfacet
facet normal 0.177584 0.018547 -0.000000
  outer loop
    vertex 9.757977 -3.863357 378.122559
    vertex 9.752784 -3.813628 374.551575
    vertex 9.752784 -3.813627 378.122559
  endloop
endfacet
facet normal 0.177584 0.018547 -0.000000
  outer loop
    vertex 9.757977 -3.863357 374.551575
    vertex 9.752784 -3.813628 374.551575
    vertex 9.757977 -3.863357 378.122559
  endloop
endfacet
facet normal -0.207923 10.938869 0.000000
  outer loop
    vertex 0.577789 -4.300587 374.551575
    vertex 3.641054 -4.242361 378.122559
    vertex 3.641054 -4.242361 374.551575
  endloop
endfacet
facet normal -0.207923 10.938869 0.000000
  outer loop
    vertex 0.577789 -4.300587 378.122559
    vertex 3.641054 -4.242361 378.122559
    vertex 0.577789 -4.300587 374.551575
  endloop
endfacet
facet normal -0.579864 10.925467 0.000000
  outer loop
    vertex 3.641054 -4.242361 374.551575
    vertex 6.700565 -4.079979 378.122559
    vertex 6.700565 -4.079979 374.551575
  endloop
endfacet
facet normal -0.951136 10.899423 0.000000
  outer loop
    vertex 6.700565 -4.079979 374.551575
    vertex 6.700565 -4.079979 378.122559
    vertex 9.752784 -3.813628 374.551575
  endloop
endfacet
facet normal -0.579864 10.925467 0.000000
  outer loop
    vertex 3.641054 -4.242361 378.122559
    vertex 6.700565 -4.079979 378.122559
    vertex 3.641054 -4.242361 374.551575
  endloop
endfacet
facet normal -0.951137 10.899423 -0.000001
  outer loop
    vertex 6.700565 -4.079979 378.122559
    vertex 9.752784 -3.813627 378.122559
    vertex 9.752784 -3.813628 374.551575
  endloop
endfacet
facet normal -0.178548 -0.000356 0.000000
  outer loop
    vertex 0.577789 -4.300587 378.122559
    vertex 0.577889 -4.350586 374.551575
    vertex 0.577889 -4.350586 378.122559
  endloop
endfacet
facet normal -0.178548 -0.000356 0.000000
  outer loop
    vertex 0.577789 -4.300587 374.551575
    vertex 0.577889 -4.350586 374.551575
    vertex 0.577789 -4.300587 378.122559
  endloop
endfacet
facet normal 0.000000 0.000000 -0.153169
  outer loop
    vertex 6.700565 -4.079979 374.551575
    vertex 9.752784 -3.813628 374.551575
    vertex 9.757977 -3.863357 374.551575
  endloop
endfacet
facet normal 0.000000 0.000000 -0.153254
  outer loop
    vertex 6.704064 -4.129857 374.551575
    vertex 6.700565 -4.079979 374.551575
    vertex 9.757977 -3.863357 374.551575
  endloop
endfacet
facet normal 0.000000 0.000000 -0.153169
  outer loop
    vertex 3.641054 -4.242361 374.551575
    vertex 6.700565 -4.079979 374.551575
    vertex 6.704064 -4.129857 374.551575
  endloop
endfacet
facet normal 0.000000 0.000000 -0.153254
  outer loop
    vertex 3.642854 -4.292329 374.551575
    vertex 3.641054 -4.242361 374.551575
    vertex 6.704064 -4.129857 374.551575
  endloop
endfacet
facet normal 0.000000 0.000000 -0.153169
  outer loop
    vertex 0.577789 -4.300587 374.551575
    vertex 3.641054 -4.242361 374.551575
    vertex 3.642854 -4.292329 374.551575
  endloop
endfacet
facet normal 0.000000 0.000000 -0.153253
  outer loop
    vertex 0.577889 -4.350586 374.551575
    vertex 0.577789 -4.300587 374.551575
    vertex 3.642854 -4.292329 374.551575
  endloop
endfacet
facet normal 0.000000 0.000000 0.153169
  outer loop
    vertex 9.752784 -3.813627 378.122559
    vertex 6.700565 -4.079979 378.122559
    vertex 9.757977 -3.863357 378.122559
  endloop
endfacet
facet normal -0.000000 0.000000 0.153253
  outer loop
    vertex 6.700565 -4.079979 378.122559
    vertex 6.704064 -4.129856 378.122559
    vertex 9.757977 -3.863357 378.122559
  endloop
endfacet
facet normal 0.000000 0.000000 0.153168
  outer loop
    vertex 6.700565 -4.079979 378.122559
    vertex 3.641054 -4.242361 378.122559
    vertex 6.704064 -4.129856 378.122559
  endloop
endfacet
facet normal -0.000000 0.000000 0.153254
  outer loop
    vertex 3.641054 -4.242361 378.122559
    vertex 3.642854 -4.292329 378.122559
    vertex 6.704064 -4.129856 378.122559
  endloop
endfacet
facet normal 0.000000 0.000000 0.153169
  outer loop
    vertex 3.641054 -4.242361 378.122559
    vertex 0.577789 -4.300587 378.122559
    vertex 3.642854 -4.292329 378.122559
  endloop
endfacet
facet normal -0.000000 0.000000 0.153253
  outer loop
    vertex 0.577789 -4.300587 378.122559
    vertex 0.577889 -4.350586 378.122559
    vertex 3.642854 -4.292329 378.122559
  endloop
endfacet
endsolid b'MESH-MESH-MESH-MESH-MESH-MESH-MESH-MESH-MESH-MESH-MESH-MESH-MESH-MESH-MESH-MESH'
