solid b'MESH-MESH-MESH-MESH-MESH-MESH-MESH-MESH-MESH-MESH-MESH-MESH-MESH-MESH-MESH-MESH'
facet normal 0.208039 10.944988 -0.000000
  outer loop
    vertex 0.577889 4.350587 58.417305
    vertex 0.577889 4.350587 61.988304
    vertex 3.642854 4.292329 61.988304
  endloop
endfacet
facet normal 0.580188 10.931579 -0.000000
  outer loop
    vertex 3.642854 4.292329 58.417305
    vertex 3.642854 4.292329 61.988304
    vertex 6.704064 4.129857 61.988304
  endloop
endfacet
facet normal 0.208039 10.944988 -0.000000
  outer loop
    vertex 3.642854 4.292329 58.417305
    vertex 0.577889 4.350587 58.417305
    vertex 3.642854 4.292329 61.988304
  endloop
endfacet
facet normal 0.580188 10.931581 0.000000
  outer loop
    vertex 6.704064 4.129857 58.417305
    vertex 3.642854 4.292329 58.417305
    vertex 6.704064 4.129857 61.988304
  endloop
endfacet
facet normal 0.951669 10.905519 0.000000
  outer loop
    vertex 9.757977 3.863357 58.417305
    vertex 6.704064 4.129857 61.988304
    vertex 9.757977 3.863357 61.988304
  endloop
endfacet
facet normal 0.951669 10.905521 0.000000
  outer loop
    vertex 9.757977 3.863357 58.417305
    vertex 6.704064 4.129857 58.417305
    vertex 6.704064 4.129857 61.988304
  endloop
endfacet
facet normal 0.177584 -0.018543 0.000000
  outer loop
    vertex 9.757977 3.863357 58.417305
    vertex 9.757977 3.863357 61.988304
    vertex 9.752784 3.813628 61.988304
  endloop
endfacet
facet normal 0.177583 -0.018547 -0.000000
  outer loop
    vertex 9.752784 3.813628 58.417305
    vertex 9.757977 3.863357 58.417305
    vertex 9.752784 3.813628 61.988304
  endloop
endfacet
facet normal -0.207922 -10.938915 -0.000000
  outer loop
    vertex 0.577789 4.300587 61.988304
    vertex 0.577789 4.300587 58.417305
    vertex 3.641053 4.242362 61.988304
  endloop
endfacet
facet normal -0.207922 -10.938915 0.000000
  outer loop
    vertex 0.577789 4.300587 58.417305
    vertex 3.641053 4.242362 58.417305
    vertex 3.641053 4.242362 61.988304
  endloop
endfacet
facet normal -0.579868 -10.925514 0.000000
  outer loop
    vertex 3.641053 4.242362 61.988304
    vertex 6.700565 4.079979 58.417305
    vertex 6.700565 4.079979 61.988304
  endloop
endfacet
facet normal -0.951140 -10.899469 -0.000000
  outer loop
    vertex 6.700565 4.079979 61.988304
    vertex 6.700565 4.079979 58.417305
    vertex 9.752784 3.813628 61.988304
  endloop
endfacet
facet normal -0.579868 -10.925514 0.000000
  outer loop
    vertex 3.641053 4.242362 58.417305
    vertex 6.700565 4.079979 58.417305
    vertex 3.641053 4.242362 61.988304
  endloop
endfacet
facet normal -0.951139 -10.899469 -0.000001
  outer loop
    vertex 6.700565 4.079979 58.417305
    vertex 9.752784 3.813628 58.417305
    vertex 9.752784 3.813628 61.988304
  endloop
endfacet
facet normal -0.178551 0.000356 0.000000
  outer loop
    vertex 0.577789 4.300587 58.417305
    vertex 0.577789 4.300587 61.988304
    vertex 0.577889 4.350587 61.988304
  endloop
endfacet
facet normal -0.178551 0.000356 0.000000
  outer loop
    vertex 0.577889 4.350587 58.417305
    vertex 0.577789 4.300587 58.417305
    vertex 0.577889 4.350587 61.988304
  endloop
endfacet
facet normal 0.000000 0.000000 -0.153169
  outer loop
    vertex 6.700565 4.079979 58.417305
    vertex 6.704064 4.129857 58.417305
    vertex 9.752784 3.813628 58.417305
  endloop
endfacet
facet normal 0.000000 0.000000 -0.153253
  outer loop
    vertex 9.752784 3.813628 58.417305
    vertex 6.704064 4.129857 58.417305
    vertex 9.757977 3.863357 58.417305
  endloop
endfacet
facet normal 0.000000 0.000000 -0.153168
  outer loop
    vertex 3.641053 4.242362 58.417305
    vertex 3.642854 4.292329 58.417305
    vertex 6.700565 4.079979 58.417305
  endloop
endfacet
facet normal 0.000000 0.000000 -0.153254
  outer loop
    vertex 6.700565 4.079979 58.417305
    vertex 3.642854 4.292329 58.417305
    vertex 6.704064 4.129857 58.417305
  endloop
endfacet
facet normal 0.000000 0.000000 -0.153170
  outer loop
    vertex 0.577789 4.300587 58.417305
    vertex 0.577889 4.350587 58.417305
    vertex 3.641053 4.242362 58.417305
  endloop
endfacet
facet normal 0.000000 0.000000 -0.153253
  outer loop
    vertex 3.641053 4.242362 58.417305
    vertex 0.577889 4.350587 58.417305
    vertex 3.642854 4.292329 58.417305
  endloop
endfacet
facet normal 0.000000 0.000000 0.153169
  outer loop
    vertex 6.700565 4.079979 61.988304
    vertex 9.752784 3.813628 61.988304
    vertex 9.757977 3.863357 61.988304
  endloop
endfacet
facet normal 0.000000 0.000000 0.153254
  outer loop
    vertex 6.704064 4.129857 61.988304
    vertex 6.700565 4.079979 61.988304
    vertex 9.757977 3.863357 61.988304
  endloop
endfacet
facet normal 0.000000 0.000000 0.153169
  outer loop
    vertex 3.641053 4.242362 61.988304
    vertex 6.700565 4.079979 61.988304
    vertex 6.704064 4.129857 61.988304
  endloop
endfacet
facet normal 0.000000 0.000000 0.153253
  outer loop
    vertex 3.642854 4.292329 61.988304
    vertex 3.641053 4.242362 61.988304
    vertex 6.704064 4.129857 61.988304
  endloop
endfacet
facet normal 0.000000 0.000000 0.153168
  outer loop
    vertex 0.577789 4.300587 61.988304
    vertex 3.641053 4.242362 61.988304
    vertex 3.642854 4.292329 61.988304
  endloop
endfacet
facet normal 0.000000 0.000000 0.153255
  outer loop
    vertex 0.577889 4.350587 61.988304
    vertex 0.577789 4.300587 61.988304
    vertex 3.642854 4.292329 61.988304
  endloop
endfacet
endsolid b'MESH-MESH-MESH-MESH-MESH-MESH-MESH-MESH-MESH-MESH-MESH-MESH-MESH-MESH-MESH-MESH'
