solid b'MESH-MESH-MESH-MESH-MESH-MESH-MESH-MESH-MESH-MESH-MESH-MESH-MESH-MESH-MESH-MESH'
facet normal 0.208038 10.944988 -0.000001
  outer loop
    vertex 3.642859 4.292329 -184.889877
    vertex 0.577894 4.350586 -184.889877
    vertex 0.577894 4.350587 -181.318878
  endloop
endfacet
facet normal 0.208039 10.944988 -0.000000
  outer loop
    vertex 3.642859 4.292329 -184.889877
    vertex 0.577894 4.350587 -181.318878
    vertex 3.642859 4.292329 -181.318878
  endloop
endfacet
facet normal 0.580190 10.931580 -0.000000
  outer loop
    vertex 6.704069 4.129856 -184.889877
    vertex 3.642859 4.292329 -181.318878
    vertex 6.704070 4.129856 -181.318878
  endloop
endfacet
facet normal 0.951669 10.905519 -0.000000
  outer loop
    vertex 6.704069 4.129856 -184.889877
    vertex 6.704070 4.129856 -181.318878
    vertex 9.757982 3.863357 -181.318878
  endloop
endfacet
facet normal 0.580190 10.931579 -0.000000
  outer loop
    vertex 6.704069 4.129856 -184.889877
    vertex 3.642859 4.292329 -184.889877
    vertex 3.642859 4.292329 -181.318878
  endloop
endfacet
facet normal 0.951670 10.905521 -0.000001
  outer loop
    vertex 9.757982 3.863357 -184.889877
    vertex 6.704069 4.129856 -184.889877
    vertex 9.757982 3.863357 -181.318878
  endloop
endfacet
facet normal 0.177584 -0.018547 0.000000
  outer loop
    vertex 9.757982 3.863357 -184.889877
    vertex 9.752789 3.813627 -181.318878
    vertex 9.752789 3.813627 -184.889877
  endloop
endfacet
facet normal 0.177584 -0.018547 0.000000
  outer loop
    vertex 9.757982 3.863357 -181.318878
    vertex 9.752789 3.813627 -181.318878
    vertex 9.757982 3.863357 -184.889877
  endloop
endfacet
facet normal -0.207924 -10.938915 0.000000
  outer loop
    vertex 0.577794 4.300587 -181.318878
    vertex 3.641059 4.242361 -184.889877
    vertex 3.641059 4.242361 -181.318878
  endloop
endfacet
facet normal -0.207924 -10.938915 0.000000
  outer loop
    vertex 0.577794 4.300587 -184.889877
    vertex 3.641059 4.242361 -184.889877
    vertex 0.577794 4.300587 -181.318878
  endloop
endfacet
facet normal -0.579866 -10.925514 0.000001
  outer loop
    vertex 3.641059 4.242361 -181.318878
    vertex 6.700571 4.079978 -184.889877
    vertex 6.700571 4.079979 -181.318878
  endloop
endfacet
facet normal -0.951142 -10.899467 0.000001
  outer loop
    vertex 6.700571 4.079979 -181.318878
    vertex 6.700571 4.079978 -184.889877
    vertex 9.752789 3.813627 -181.318878
  endloop
endfacet
facet normal -0.579868 -10.925514 0.000000
  outer loop
    vertex 3.641059 4.242361 -184.889877
    vertex 6.700571 4.079978 -184.889877
    vertex 3.641059 4.242361 -181.318878
  endloop
endfacet
facet normal -0.951141 -10.899467 0.000001
  outer loop
    vertex 6.700571 4.079978 -184.889877
    vertex 9.752789 3.813627 -184.889877
    vertex 9.752789 3.813627 -181.318878
  endloop
endfacet
facet normal -0.178549 0.000356 0.000000
  outer loop
    vertex 0.577794 4.300587 -184.889877
    vertex 0.577894 4.350587 -181.318878
    vertex 0.577894 4.350586 -184.889877
  endloop
endfacet
facet normal -0.178551 0.000356 0.000000
  outer loop
    vertex 0.577794 4.300587 -181.318878
    vertex 0.577894 4.350587 -181.318878
    vertex 0.577794 4.300587 -184.889877
  endloop
endfacet
facet normal 0.000000 0.000000 0.153169
  outer loop
    vertex 6.700571 4.079979 -181.318878
    vertex 9.752789 3.813627 -181.318878
    vertex 9.757982 3.863357 -181.318878
  endloop
endfacet
facet normal 0.000000 0.000000 0.153253
  outer loop
    vertex 6.704070 4.129856 -181.318878
    vertex 6.700571 4.079979 -181.318878
    vertex 9.757982 3.863357 -181.318878
  endloop
endfacet
facet normal 0.000000 0.000000 0.153168
  outer loop
    vertex 3.641059 4.242361 -181.318878
    vertex 6.700571 4.079979 -181.318878
    vertex 6.704070 4.129856 -181.318878
  endloop
endfacet
facet normal 0.000000 0.000000 0.153254
  outer loop
    vertex 3.642859 4.292329 -181.318878
    vertex 3.641059 4.242361 -181.318878
    vertex 6.704070 4.129856 -181.318878
  endloop
endfacet
facet normal 0.000000 0.000000 0.153169
  outer loop
    vertex 0.577794 4.300587 -181.318878
    vertex 3.641059 4.242361 -181.318878
    vertex 3.642859 4.292329 -181.318878
  endloop
endfacet
facet normal 0.000000 0.000000 0.153255
  outer loop
    vertex 0.577894 4.350587 -181.318878
    vertex 0.577794 4.300587 -181.318878
    vertex 3.642859 4.292329 -181.318878
  endloop
endfacet
facet normal 0.000000 0.000000 -0.153169
  outer loop
    vertex 9.752789 3.813627 -184.889877
    vertex 6.700571 4.079978 -184.889877
    vertex 9.757982 3.863357 -184.889877
  endloop
endfacet
facet normal 0.000000 0.000000 -0.153254
  outer loop
    vertex 6.700571 4.079978 -184.889877
    vertex 6.704069 4.129856 -184.889877
    vertex 9.757982 3.863357 -184.889877
  endloop
endfacet
facet normal 0.000000 0.000000 -0.153169
  outer loop
    vertex 6.700571 4.079978 -184.889877
    vertex 3.641059 4.242361 -184.889877
    vertex 6.704069 4.129856 -184.889877
  endloop
endfacet
facet normal 0.000000 0.000000 -0.153254
  outer loop
    vertex 3.641059 4.242361 -184.889877
    vertex 3.642859 4.292329 -184.889877
    vertex 6.704069 4.129856 -184.889877
  endloop
endfacet
facet normal 0.000000 0.000000 -0.153169
  outer loop
    vertex 3.641059 4.242361 -184.889877
    vertex 0.577794 4.300587 -184.889877
    vertex 3.642859 4.292329 -184.889877
  endloop
endfacet
facet normal 0.000000 0.000000 -0.153253
  outer loop
    vertex 0.577794 4.300587 -184.889877
    vertex 0.577894 4.350586 -184.889877
    vertex 3.642859 4.292329 -184.889877
  endloop
endfacet
endsolid b'MESH-MESH-MESH-MESH-MESH-MESH-MESH-MESH-MESH-MESH-MESH-MESH-MESH-MESH-MESH-MESH'
