solid b'MESH-MESH-MESH-MESH-MESH-MESH-MESH-MESH-MESH-MESH-MESH-MESH-MESH-MESH-MESH-MESH'
facet normal -1.336516 10.865072 0.000001
  outer loop
    vertex -9.877316 3.850814 15.065305
    vertex -9.877316 3.850814 11.494305
    vertex -12.919901 3.476545 11.494305
  endloop
endfacet
facet normal -1.705295 10.813329 0.000000
  outer loop
    vertex -12.919901 3.476545 15.065305
    vertex -12.919901 3.476545 11.494305
    vertex -15.947996 2.999005 11.494305
  endloop
endfacet
facet normal -1.336515 10.865072 0.000000
  outer loop
    vertex -12.919901 3.476545 15.065305
    vertex -9.877316 3.850814 15.065305
    vertex -12.919901 3.476545 11.494305
  endloop
endfacet
facet normal -2.072101 10.749072 0.000000
  outer loop
    vertex -15.947996 2.999005 15.065305
    vertex -15.947996 2.999005 11.494305
    vertex -18.958097 2.418747 11.494305
  endloop
endfacet
facet normal -1.705295 10.813329 0.000000
  outer loop
    vertex -15.947996 2.999005 15.065305
    vertex -12.919901 3.476545 15.065305
    vertex -15.947996 2.999005 11.494305
  endloop
endfacet
facet normal -2.072101 10.749072 0.000000
  outer loop
    vertex -18.958097 2.418747 15.065305
    vertex -15.947996 2.999005 15.065305
    vertex -18.958097 2.418747 11.494305
  endloop
endfacet
facet normal -0.174722 -0.036773 0.000000
  outer loop
    vertex -18.958097 2.418747 15.065305
    vertex -18.947800 2.369819 11.494305
    vertex -18.947800 2.369819 15.065305
  endloop
endfacet
facet normal -0.174722 -0.036773 0.000000
  outer loop
    vertex -18.958097 2.418747 11.494305
    vertex -18.947800 2.369819 11.494305
    vertex -18.958097 2.418747 15.065305
  endloop
endfacet
facet normal 1.335774 -10.859045 0.000000
  outer loop
    vertex -9.872056 3.801091 11.494305
    vertex -12.912953 3.427030 15.065305
    vertex -12.912953 3.427030 11.494305
  endloop
endfacet
facet normal 1.704349 -10.807328 0.000000
  outer loop
    vertex -12.912953 3.427030 11.494305
    vertex -12.912953 3.427030 15.065305
    vertex -15.939368 2.949755 11.494305
  endloop
endfacet
facet normal 1.335774 -10.859045 0.000000
  outer loop
    vertex -9.872056 3.801091 15.065305
    vertex -12.912953 3.427030 15.065305
    vertex -9.872056 3.801091 11.494305
  endloop
endfacet
facet normal 2.070952 -10.743109 0.000000
  outer loop
    vertex -15.939368 2.949755 11.494305
    vertex -15.939368 2.949755 15.065305
    vertex -18.947800 2.369819 11.494305
  endloop
endfacet
facet normal 1.704349 -10.807328 0.000000
  outer loop
    vertex -12.912953 3.427030 15.065305
    vertex -15.939368 2.949755 15.065305
    vertex -15.939368 2.949755 11.494305
  endloop
endfacet
facet normal 2.070952 -10.743109 0.000000
  outer loop
    vertex -15.939368 2.949755 15.065305
    vertex -18.947800 2.369819 15.065305
    vertex -18.947800 2.369819 11.494305
  endloop
endfacet
facet normal 0.177559 0.018782 0.000000
  outer loop
    vertex -9.872056 3.801091 15.065305
    vertex -9.872056 3.801091 11.494305
    vertex -9.877316 3.850814 15.065305
  endloop
endfacet
facet normal 0.177560 0.018782 0.000000
  outer loop
    vertex -9.872056 3.801091 11.494305
    vertex -9.877316 3.850814 11.494305
    vertex -9.877316 3.850814 15.065305
  endloop
endfacet
facet normal 0.000000 -0.000000 -0.153169
  outer loop
    vertex -15.947996 2.999005 11.494305
    vertex -15.939368 2.949755 11.494305
    vertex -18.947800 2.369819 11.494305
  endloop
endfacet
facet normal 0.000000 0.000000 -0.153254
  outer loop
    vertex -15.947996 2.999005 11.494305
    vertex -18.947800 2.369819 11.494305
    vertex -18.958097 2.418747 11.494305
  endloop
endfacet
facet normal 0.000000 -0.000000 -0.153169
  outer loop
    vertex -12.919901 3.476545 11.494305
    vertex -12.912953 3.427030 11.494305
    vertex -15.939368 2.949755 11.494305
  endloop
endfacet
facet normal 0.000000 0.000000 -0.153254
  outer loop
    vertex -12.919901 3.476545 11.494305
    vertex -15.939368 2.949755 11.494305
    vertex -15.947996 2.999005 11.494305
  endloop
endfacet
facet normal 0.000000 -0.000000 -0.153169
  outer loop
    vertex -9.877316 3.850814 11.494305
    vertex -9.872056 3.801091 11.494305
    vertex -12.912953 3.427030 11.494305
  endloop
endfacet
facet normal 0.000000 0.000000 -0.153254
  outer loop
    vertex -9.877316 3.850814 11.494305
    vertex -12.912953 3.427030 11.494305
    vertex -12.919901 3.476545 11.494305
  endloop
endfacet
facet normal 0.000000 0.000000 0.153169
  outer loop
    vertex -15.939368 2.949755 15.065305
    vertex -15.947996 2.999005 15.065305
    vertex -18.947800 2.369819 15.065305
  endloop
endfacet
facet normal 0.000000 -0.000000 0.153254
  outer loop
    vertex -18.947800 2.369819 15.065305
    vertex -15.947996 2.999005 15.065305
    vertex -18.958097 2.418747 15.065305
  endloop
endfacet
facet normal 0.000000 0.000000 0.153169
  outer loop
    vertex -12.912953 3.427030 15.065305
    vertex -12.919901 3.476545 15.065305
    vertex -15.939368 2.949755 15.065305
  endloop
endfacet
facet normal 0.000000 -0.000000 0.153254
  outer loop
    vertex -15.939368 2.949755 15.065305
    vertex -12.919901 3.476545 15.065305
    vertex -15.947996 2.999005 15.065305
  endloop
endfacet
facet normal 0.000000 0.000000 0.153168
  outer loop
    vertex -9.872056 3.801091 15.065305
    vertex -9.877316 3.850814 15.065305
    vertex -12.912953 3.427030 15.065305
  endloop
endfacet
facet normal 0.000000 -0.000000 0.153254
  outer loop
    vertex -12.912953 3.427030 15.065305
    vertex -9.877316 3.850814 15.065305
    vertex -12.919901 3.476545 15.065305
  endloop
endfacet
endsolid b'MESH-MESH-MESH-MESH-MESH-MESH-MESH-MESH-MESH-MESH-MESH-MESH-MESH-MESH-MESH-MESH'
