solid b'MESH-MESH-MESH-MESH-MESH-MESH-MESH-MESH-MESH-MESH-MESH-MESH-MESH-MESH-MESH-MESH'
facet normal -0.208038 10.944988 0.000000
  outer loop
    vertex -0.577883 4.350586 -145.228882
    vertex -0.577883 4.350586 -148.799881
    vertex -3.642848 4.292329 -148.799881
  endloop
endfacet
facet normal -0.580188 10.931579 0.000000
  outer loop
    vertex -3.642848 4.292329 -145.228882
    vertex -3.642848 4.292329 -148.799881
    vertex -6.704059 4.129857 -148.799881
  endloop
endfacet
facet normal -0.208038 10.944988 0.000000
  outer loop
    vertex -3.642848 4.292329 -145.228882
    vertex -0.577883 4.350586 -145.228882
    vertex -3.642848 4.292329 -148.799881
  endloop
endfacet
facet normal -0.580188 10.931579 0.000000
  outer loop
    vertex -6.704059 4.129857 -145.228882
    vertex -3.642848 4.292329 -145.228882
    vertex -6.704059 4.129857 -148.799881
  endloop
endfacet
facet normal -0.951668 10.905521 -0.000001
  outer loop
    vertex -9.757972 3.863358 -145.228882
    vertex -6.704059 4.129857 -148.799881
    vertex -9.757972 3.863358 -148.799881
  endloop
endfacet
facet normal -0.951667 10.905521 0.000000
  outer loop
    vertex -9.757972 3.863358 -145.228882
    vertex -6.704059 4.129857 -145.228882
    vertex -6.704059 4.129857 -148.799881
  endloop
endfacet
facet normal -0.177583 -0.018547 0.000000
  outer loop
    vertex -9.757972 3.863358 -145.228882
    vertex -9.757972 3.863358 -148.799881
    vertex -9.752778 3.813628 -148.799881
  endloop
endfacet
facet normal -0.177584 -0.018547 -0.000000
  outer loop
    vertex -9.752778 3.813628 -145.228882
    vertex -9.757972 3.863358 -145.228882
    vertex -9.752778 3.813628 -148.799881
  endloop
endfacet
facet normal 0.207924 -10.938915 0.000000
  outer loop
    vertex -0.577784 4.300587 -148.799881
    vertex -0.577784 4.300587 -145.228882
    vertex -3.641048 4.242361 -148.799881
  endloop
endfacet
facet normal 0.207922 -10.938915 0.000001
  outer loop
    vertex -0.577784 4.300587 -145.228882
    vertex -3.641048 4.242362 -145.228882
    vertex -3.641048 4.242361 -148.799881
  endloop
endfacet
facet normal 0.579865 -10.925514 0.000000
  outer loop
    vertex -3.641048 4.242361 -148.799881
    vertex -6.700560 4.079979 -145.228882
    vertex -6.700560 4.079979 -148.799881
  endloop
endfacet
facet normal 0.951140 -10.899467 0.000000
  outer loop
    vertex -6.700560 4.079979 -148.799881
    vertex -6.700560 4.079979 -145.228882
    vertex -9.752778 3.813628 -148.799881
  endloop
endfacet
facet normal 0.579866 -10.925514 0.000001
  outer loop
    vertex -3.641048 4.242362 -145.228882
    vertex -6.700560 4.079979 -145.228882
    vertex -3.641048 4.242361 -148.799881
  endloop
endfacet
facet normal 0.951140 -10.899467 0.000000
  outer loop
    vertex -6.700560 4.079979 -145.228882
    vertex -9.752778 3.813628 -145.228882
    vertex -9.752778 3.813628 -148.799881
  endloop
endfacet
facet normal 0.178549 0.000356 0.000000
  outer loop
    vertex -0.577784 4.300587 -145.228882
    vertex -0.577784 4.300587 -148.799881
    vertex -0.577883 4.350586 -148.799881
  endloop
endfacet
facet normal 0.178549 0.000356 0.000000
  outer loop
    vertex -0.577883 4.350586 -145.228882
    vertex -0.577784 4.300587 -145.228882
    vertex -0.577883 4.350586 -148.799881
  endloop
endfacet
facet normal 0.000000 0.000000 0.153168
  outer loop
    vertex -6.700560 4.079979 -145.228882
    vertex -6.704059 4.129857 -145.228882
    vertex -9.752778 3.813628 -145.228882
  endloop
endfacet
facet normal 0.000000 -0.000000 0.153254
  outer loop
    vertex -9.752778 3.813628 -145.228882
    vertex -6.704059 4.129857 -145.228882
    vertex -9.757972 3.863358 -145.228882
  endloop
endfacet
facet normal 0.000000 0.000000 0.153168
  outer loop
    vertex -3.641048 4.242362 -145.228882
    vertex -3.642848 4.292329 -145.228882
    vertex -6.700560 4.079979 -145.228882
  endloop
endfacet
facet normal 0.000000 -0.000000 0.153253
  outer loop
    vertex -6.700560 4.079979 -145.228882
    vertex -3.642848 4.292329 -145.228882
    vertex -6.704059 4.129857 -145.228882
  endloop
endfacet
facet normal 0.000000 0.000000 0.153168
  outer loop
    vertex -0.577784 4.300587 -145.228882
    vertex -0.577883 4.350586 -145.228882
    vertex -3.641048 4.242362 -145.228882
  endloop
endfacet
facet normal 0.000000 -0.000000 0.153253
  outer loop
    vertex -3.641048 4.242362 -145.228882
    vertex -0.577883 4.350586 -145.228882
    vertex -3.642848 4.292329 -145.228882
  endloop
endfacet
facet normal 0.000000 0.000000 -0.153168
  outer loop
    vertex -6.700560 4.079979 -148.799881
    vertex -9.752778 3.813628 -148.799881
    vertex -9.757972 3.863358 -148.799881
  endloop
endfacet
facet normal 0.000000 -0.000000 -0.153253
  outer loop
    vertex -6.704059 4.129857 -148.799881
    vertex -6.700560 4.079979 -148.799881
    vertex -9.757972 3.863358 -148.799881
  endloop
endfacet
facet normal 0.000000 0.000000 -0.153168
  outer loop
    vertex -3.641048 4.242361 -148.799881
    vertex -6.700560 4.079979 -148.799881
    vertex -6.704059 4.129857 -148.799881
  endloop
endfacet
facet normal 0.000000 -0.000000 -0.153254
  outer loop
    vertex -3.642848 4.292329 -148.799881
    vertex -3.641048 4.242361 -148.799881
    vertex -6.704059 4.129857 -148.799881
  endloop
endfacet
facet normal 0.000000 0.000000 -0.153169
  outer loop
    vertex -0.577784 4.300587 -148.799881
    vertex -3.641048 4.242361 -148.799881
    vertex -3.642848 4.292329 -148.799881
  endloop
endfacet
facet normal 0.000000 -0.000000 -0.153253
  outer loop
    vertex -0.577883 4.350586 -148.799881
    vertex -0.577784 4.300587 -148.799881
    vertex -3.642848 4.292329 -148.799881
  endloop
endfacet
endsolid b'MESH-MESH-MESH-MESH-MESH-MESH-MESH-MESH-MESH-MESH-MESH-MESH-MESH-MESH-MESH-MESH'
