solid b'MESH-MESH-MESH-MESH-MESH-MESH-MESH-MESH-MESH-MESH-MESH-MESH-MESH-MESH-MESH-MESH'
facet normal 1.336516 10.865069 0.000001
  outer loop
    vertex 9.877329 3.850813 72.841309
    vertex 9.877329 3.850813 76.412308
    vertex 12.919914 3.476543 76.412308
  endloop
endfacet
facet normal 1.705297 10.813326 -0.000000
  outer loop
    vertex 12.919914 3.476543 72.841309
    vertex 12.919914 3.476543 76.412308
    vertex 15.948009 2.999003 76.412308
  endloop
endfacet
facet normal 1.336517 10.865069 -0.000000
  outer loop
    vertex 12.919914 3.476543 72.841309
    vertex 9.877329 3.850813 72.841309
    vertex 12.919914 3.476543 76.412308
  endloop
endfacet
facet normal 2.072102 10.749069 0.000001
  outer loop
    vertex 15.948009 2.999003 72.841309
    vertex 15.948009 2.999003 76.412308
    vertex 18.958111 2.418745 76.412308
  endloop
endfacet
facet normal 1.705296 10.813326 0.000001
  outer loop
    vertex 15.948009 2.999003 72.841309
    vertex 12.919914 3.476543 72.841309
    vertex 15.948009 2.999003 76.412308
  endloop
endfacet
facet normal 2.072102 10.749069 0.000001
  outer loop
    vertex 18.958111 2.418745 72.841309
    vertex 15.948009 2.999003 72.841309
    vertex 18.958111 2.418745 76.412308
  endloop
endfacet
facet normal 0.174722 -0.036773 -0.000000
  outer loop
    vertex 18.947813 2.369817 72.841309
    vertex 18.958111 2.418745 72.841309
    vertex 18.958111 2.418745 76.412308
  endloop
endfacet
facet normal 0.174722 -0.036773 -0.000000
  outer loop
    vertex 18.947813 2.369817 72.841309
    vertex 18.958111 2.418745 76.412308
    vertex 18.947813 2.369817 76.412308
  endloop
endfacet
facet normal -1.335775 -10.859042 -0.000000
  outer loop
    vertex 9.872069 3.801090 76.412308
    vertex 9.872069 3.801090 72.841309
    vertex 12.912967 3.427028 76.412308
  endloop
endfacet
facet normal -1.704350 -10.807325 -0.000000
  outer loop
    vertex 12.912967 3.427028 76.412308
    vertex 12.912967 3.427028 72.841309
    vertex 15.939382 2.949753 76.412308
  endloop
endfacet
facet normal -1.335775 -10.859042 0.000000
  outer loop
    vertex 9.872069 3.801090 72.841309
    vertex 12.912967 3.427028 72.841309
    vertex 12.912967 3.427028 76.412308
  endloop
endfacet
facet normal -2.070953 -10.743106 -0.000000
  outer loop
    vertex 15.939382 2.949753 76.412308
    vertex 15.939382 2.949753 72.841309
    vertex 18.947813 2.369817 76.412308
  endloop
endfacet
facet normal -1.704350 -10.807325 0.000000
  outer loop
    vertex 12.912967 3.427028 72.841309
    vertex 15.939382 2.949753 72.841309
    vertex 15.939382 2.949753 76.412308
  endloop
endfacet
facet normal -2.070952 -10.743106 -0.000001
  outer loop
    vertex 15.939382 2.949753 72.841309
    vertex 18.947813 2.369817 72.841309
    vertex 18.947813 2.369817 76.412308
  endloop
endfacet
facet normal -0.177560 0.018782 0.000000
  outer loop
    vertex 9.877329 3.850813 72.841309
    vertex 9.872069 3.801090 72.841309
    vertex 9.872069 3.801090 76.412308
  endloop
endfacet
facet normal -0.177559 0.018782 0.000000
  outer loop
    vertex 9.877329 3.850813 72.841309
    vertex 9.872069 3.801090 76.412308
    vertex 9.877329 3.850813 76.412308
  endloop
endfacet
facet normal 0.000000 0.000000 -0.153169
  outer loop
    vertex 15.939382 2.949753 72.841309
    vertex 15.948009 2.999003 72.841309
    vertex 18.947813 2.369817 72.841309
  endloop
endfacet
facet normal 0.000000 0.000000 -0.153254
  outer loop
    vertex 18.947813 2.369817 72.841309
    vertex 15.948009 2.999003 72.841309
    vertex 18.958111 2.418745 72.841309
  endloop
endfacet
facet normal 0.000000 0.000000 -0.153169
  outer loop
    vertex 12.912967 3.427028 72.841309
    vertex 12.919914 3.476543 72.841309
    vertex 15.939382 2.949753 72.841309
  endloop
endfacet
facet normal 0.000000 0.000000 -0.153254
  outer loop
    vertex 15.939382 2.949753 72.841309
    vertex 12.919914 3.476543 72.841309
    vertex 15.948009 2.999003 72.841309
  endloop
endfacet
facet normal 0.000000 0.000000 -0.153169
  outer loop
    vertex 9.872069 3.801090 72.841309
    vertex 9.877329 3.850813 72.841309
    vertex 12.912967 3.427028 72.841309
  endloop
endfacet
facet normal 0.000000 0.000000 -0.153254
  outer loop
    vertex 12.912967 3.427028 72.841309
    vertex 9.877329 3.850813 72.841309
    vertex 12.919914 3.476543 72.841309
  endloop
endfacet
facet normal 0.000000 0.000000 0.153169
  outer loop
    vertex 15.948009 2.999003 76.412308
    vertex 15.939382 2.949753 76.412308
    vertex 18.947813 2.369817 76.412308
  endloop
endfacet
facet normal 0.000000 0.000000 0.153254
  outer loop
    vertex 15.948009 2.999003 76.412308
    vertex 18.947813 2.369817 76.412308
    vertex 18.958111 2.418745 76.412308
  endloop
endfacet
facet normal 0.000000 0.000000 0.153169
  outer loop
    vertex 12.919914 3.476543 76.412308
    vertex 12.912967 3.427028 76.412308
    vertex 15.939382 2.949753 76.412308
  endloop
endfacet
facet normal 0.000000 0.000000 0.153254
  outer loop
    vertex 12.919914 3.476543 76.412308
    vertex 15.939382 2.949753 76.412308
    vertex 15.948009 2.999003 76.412308
  endloop
endfacet
facet normal 0.000000 0.000000 0.153168
  outer loop
    vertex 9.877329 3.850813 76.412308
    vertex 9.872069 3.801090 76.412308
    vertex 12.912967 3.427028 76.412308
  endloop
endfacet
facet normal 0.000000 0.000000 0.153254
  outer loop
    vertex 9.877329 3.850813 76.412308
    vertex 12.912967 3.427028 76.412308
    vertex 12.919914 3.476543 76.412308
  endloop
endfacet
endsolid b'MESH-MESH-MESH-MESH-MESH-MESH-MESH-MESH-MESH-MESH-MESH-MESH-MESH-MESH-MESH-MESH'
