solid b'MESH-MESH-MESH-MESH-MESH-MESH-MESH-MESH-MESH-MESH-MESH-MESH-MESH-MESH-MESH-MESH'
facet normal -0.208036 10.944988 0.000000
  outer loop
    vertex -3.642844 4.292328 -116.320877
    vertex -0.577879 4.350585 -116.320877
    vertex -0.577879 4.350585 -119.891876
  endloop
endfacet
facet normal -0.208036 10.944988 0.000000
  outer loop
    vertex -3.642844 4.292328 -116.320877
    vertex -0.577879 4.350585 -119.891876
    vertex -3.642844 4.292328 -119.891876
  endloop
endfacet
facet normal -0.580188 10.931581 0.000000
  outer loop
    vertex -6.704054 4.129856 -116.320877
    vertex -3.642844 4.292328 -119.891876
    vertex -6.704054 4.129856 -119.891876
  endloop
endfacet
facet normal -0.951666 10.905519 0.000000
  outer loop
    vertex -6.704054 4.129856 -116.320877
    vertex -6.704054 4.129856 -119.891876
    vertex -9.757967 3.863358 -119.891876
  endloop
endfacet
facet normal -0.580188 10.931581 0.000000
  outer loop
    vertex -6.704054 4.129856 -116.320877
    vertex -3.642844 4.292328 -116.320877
    vertex -3.642844 4.292328 -119.891876
  endloop
endfacet
facet normal -0.951666 10.905519 0.000000
  outer loop
    vertex -9.757967 3.863358 -116.320877
    vertex -6.704054 4.129856 -116.320877
    vertex -9.757967 3.863358 -119.891876
  endloop
endfacet
facet normal -0.177584 -0.018547 0.000000
  outer loop
    vertex -9.752773 3.813628 -116.320877
    vertex -9.757967 3.863358 -116.320877
    vertex -9.757967 3.863358 -119.891876
  endloop
endfacet
facet normal -0.177584 -0.018547 -0.000000
  outer loop
    vertex -9.752773 3.813628 -116.320877
    vertex -9.757967 3.863358 -119.891876
    vertex -9.752773 3.813628 -119.891876
  endloop
endfacet
facet normal 0.207922 -10.938915 0.000000
  outer loop
    vertex -0.577779 4.300586 -119.891876
    vertex -3.641043 4.242361 -116.320877
    vertex -3.641043 4.242361 -119.891876
  endloop
endfacet
facet normal 0.207922 -10.938915 0.000000
  outer loop
    vertex -0.577779 4.300586 -116.320877
    vertex -3.641043 4.242361 -116.320877
    vertex -0.577779 4.300586 -119.891876
  endloop
endfacet
facet normal 0.579865 -10.925514 0.000000
  outer loop
    vertex -3.641043 4.242361 -119.891876
    vertex -6.700555 4.079979 -116.320877
    vertex -6.700555 4.079979 -119.891876
  endloop
endfacet
facet normal 0.579865 -10.925514 0.000000
  outer loop
    vertex -3.641043 4.242361 -116.320877
    vertex -6.700555 4.079979 -116.320877
    vertex -3.641043 4.242361 -119.891876
  endloop
endfacet
facet normal 0.951139 -10.899467 0.000000
  outer loop
    vertex -6.700555 4.079979 -119.891876
    vertex -9.752773 3.813628 -116.320877
    vertex -9.752773 3.813628 -119.891876
  endloop
endfacet
facet normal 0.951139 -10.899467 0.000000
  outer loop
    vertex -6.700555 4.079979 -116.320877
    vertex -9.752773 3.813628 -116.320877
    vertex -6.700555 4.079979 -119.891876
  endloop
endfacet
facet normal 0.178549 0.000356 0.000000
  outer loop
    vertex -0.577879 4.350585 -116.320877
    vertex -0.577779 4.300586 -116.320877
    vertex -0.577779 4.300586 -119.891876
  endloop
endfacet
facet normal 0.178549 0.000356 0.000000
  outer loop
    vertex -0.577879 4.350585 -116.320877
    vertex -0.577779 4.300586 -119.891876
    vertex -0.577879 4.350585 -119.891876
  endloop
endfacet
facet normal 0.000000 -0.000000 0.153169
  outer loop
    vertex -9.752773 3.813628 -116.320877
    vertex -6.700555 4.079979 -116.320877
    vertex -9.757967 3.863358 -116.320877
  endloop
endfacet
facet normal 0.000000 0.000000 0.153253
  outer loop
    vertex -6.700555 4.079979 -116.320877
    vertex -6.704054 4.129856 -116.320877
    vertex -9.757967 3.863358 -116.320877
  endloop
endfacet
facet normal 0.000000 -0.000000 0.153168
  outer loop
    vertex -6.700555 4.079979 -116.320877
    vertex -3.641043 4.242361 -116.320877
    vertex -6.704054 4.129856 -116.320877
  endloop
endfacet
facet normal 0.000000 0.000000 0.153254
  outer loop
    vertex -3.641043 4.242361 -116.320877
    vertex -3.642844 4.292328 -116.320877
    vertex -6.704054 4.129856 -116.320877
  endloop
endfacet
facet normal 0.000000 -0.000000 0.153169
  outer loop
    vertex -3.641043 4.242361 -116.320877
    vertex -0.577779 4.300586 -116.320877
    vertex -3.642844 4.292328 -116.320877
  endloop
endfacet
facet normal 0.000000 0.000000 0.153253
  outer loop
    vertex -0.577779 4.300586 -116.320877
    vertex -0.577879 4.350585 -116.320877
    vertex -3.642844 4.292328 -116.320877
  endloop
endfacet
facet normal 0.000000 0.000000 -0.153169
  outer loop
    vertex -6.700555 4.079979 -119.891876
    vertex -9.752773 3.813628 -119.891876
    vertex -9.757967 3.863358 -119.891876
  endloop
endfacet
facet normal 0.000000 -0.000000 -0.153253
  outer loop
    vertex -6.704054 4.129856 -119.891876
    vertex -6.700555 4.079979 -119.891876
    vertex -9.757967 3.863358 -119.891876
  endloop
endfacet
facet normal 0.000000 0.000000 -0.153168
  outer loop
    vertex -3.641043 4.242361 -119.891876
    vertex -6.700555 4.079979 -119.891876
    vertex -6.704054 4.129856 -119.891876
  endloop
endfacet
facet normal 0.000000 -0.000000 -0.153254
  outer loop
    vertex -3.642844 4.292328 -119.891876
    vertex -3.641043 4.242361 -119.891876
    vertex -6.704054 4.129856 -119.891876
  endloop
endfacet
facet normal 0.000000 0.000000 -0.153169
  outer loop
    vertex -0.577779 4.300586 -119.891876
    vertex -3.641043 4.242361 -119.891876
    vertex -3.642844 4.292328 -119.891876
  endloop
endfacet
facet normal 0.000000 -0.000000 -0.153253
  outer loop
    vertex -0.577879 4.350585 -119.891876
    vertex -0.577779 4.300586 -119.891876
    vertex -3.642844 4.292328 -119.891876
  endloop
endfacet
endsolid b'MESH-MESH-MESH-MESH-MESH-MESH-MESH-MESH-MESH-MESH-MESH-MESH-MESH-MESH-MESH-MESH'
