solid b'MESH-MESH-MESH-MESH-MESH-MESH-MESH-MESH-MESH-MESH-MESH-MESH-MESH-MESH-MESH-MESH'
facet normal -0.208037 10.944942 -0.000001
  outer loop
    vertex -0.577889 4.350587 -385.384583
    vertex -0.577889 4.350586 -388.955566
    vertex -3.642854 4.292329 -388.955566
  endloop
endfacet
facet normal -0.580186 10.931532 0.000000
  outer loop
    vertex -3.642854 4.292329 -385.384583
    vertex -3.642854 4.292329 -388.955566
    vertex -6.704064 4.129857 -388.955566
  endloop
endfacet
facet normal -0.208039 10.944942 0.000000
  outer loop
    vertex -3.642854 4.292329 -385.384583
    vertex -0.577889 4.350587 -385.384583
    vertex -3.642854 4.292329 -388.955566
  endloop
endfacet
facet normal -0.951665 10.905473 0.000000
  outer loop
    vertex -6.704064 4.129857 -385.384583
    vertex -6.704064 4.129857 -388.955566
    vertex -9.757977 3.863357 -388.955566
  endloop
endfacet
facet normal -0.580186 10.931532 0.000000
  outer loop
    vertex -6.704064 4.129857 -385.384583
    vertex -3.642854 4.292329 -385.384583
    vertex -6.704064 4.129857 -388.955566
  endloop
endfacet
facet normal -0.951665 10.905473 0.000000
  outer loop
    vertex -9.757977 3.863357 -385.384583
    vertex -6.704064 4.129857 -385.384583
    vertex -9.757977 3.863357 -388.955566
  endloop
endfacet
facet normal -0.177584 -0.018543 -0.000000
  outer loop
    vertex -9.757977 3.863357 -385.384583
    vertex -9.757977 3.863357 -388.955566
    vertex -9.752784 3.813628 -388.955566
  endloop
endfacet
facet normal -0.177584 -0.018543 -0.000000
  outer loop
    vertex -9.752784 3.813628 -385.384583
    vertex -9.757977 3.863357 -385.384583
    vertex -9.752784 3.813628 -388.955566
  endloop
endfacet
facet normal 0.207923 -10.938869 0.000000
  outer loop
    vertex -0.577789 4.300587 -388.955566
    vertex -0.577789 4.300587 -385.384583
    vertex -3.641053 4.242361 -388.955566
  endloop
endfacet
facet normal 0.207921 -10.938869 0.000001
  outer loop
    vertex -0.577789 4.300587 -385.384583
    vertex -3.641053 4.242362 -385.384583
    vertex -3.641053 4.242361 -388.955566
  endloop
endfacet
facet normal 0.579864 -10.925467 0.000000
  outer loop
    vertex -3.641053 4.242361 -388.955566
    vertex -6.700565 4.079979 -385.384583
    vertex -6.700565 4.079979 -388.955566
  endloop
endfacet
facet normal 0.951136 -10.899423 0.000000
  outer loop
    vertex -6.700565 4.079979 -388.955566
    vertex -6.700565 4.079979 -385.384583
    vertex -9.752784 3.813628 -388.955566
  endloop
endfacet
facet normal 0.579866 -10.925467 0.000001
  outer loop
    vertex -3.641053 4.242362 -385.384583
    vertex -6.700565 4.079979 -385.384583
    vertex -3.641053 4.242361 -388.955566
  endloop
endfacet
facet normal 0.951136 -10.899423 0.000000
  outer loop
    vertex -6.700565 4.079979 -385.384583
    vertex -9.752784 3.813628 -385.384583
    vertex -9.752784 3.813628 -388.955566
  endloop
endfacet
facet normal 0.178548 0.000356 0.000000
  outer loop
    vertex -0.577789 4.300587 -385.384583
    vertex -0.577789 4.300587 -388.955566
    vertex -0.577889 4.350586 -388.955566
  endloop
endfacet
facet normal 0.178550 0.000356 -0.000000
  outer loop
    vertex -0.577889 4.350587 -385.384583
    vertex -0.577789 4.300587 -385.384583
    vertex -0.577889 4.350586 -388.955566
  endloop
endfacet
facet normal 0.000000 0.000000 0.153169
  outer loop
    vertex -6.700565 4.079979 -385.384583
    vertex -6.704064 4.129857 -385.384583
    vertex -9.752784 3.813628 -385.384583
  endloop
endfacet
facet normal 0.000000 -0.000000 0.153254
  outer loop
    vertex -9.752784 3.813628 -385.384583
    vertex -6.704064 4.129857 -385.384583
    vertex -9.757977 3.863357 -385.384583
  endloop
endfacet
facet normal 0.000000 0.000000 0.153168
  outer loop
    vertex -3.641053 4.242362 -385.384583
    vertex -3.642854 4.292329 -385.384583
    vertex -6.700565 4.079979 -385.384583
  endloop
endfacet
facet normal 0.000000 -0.000000 0.153254
  outer loop
    vertex -6.700565 4.079979 -385.384583
    vertex -3.642854 4.292329 -385.384583
    vertex -6.704064 4.129857 -385.384583
  endloop
endfacet
facet normal 0.000000 0.000000 0.153170
  outer loop
    vertex -0.577789 4.300587 -385.384583
    vertex -0.577889 4.350587 -385.384583
    vertex -3.641053 4.242362 -385.384583
  endloop
endfacet
facet normal 0.000000 -0.000000 0.153253
  outer loop
    vertex -3.641053 4.242362 -385.384583
    vertex -0.577889 4.350587 -385.384583
    vertex -3.642854 4.292329 -385.384583
  endloop
endfacet
facet normal 0.000000 0.000000 -0.153169
  outer loop
    vertex -6.700565 4.079979 -388.955566
    vertex -9.752784 3.813628 -388.955566
    vertex -9.757977 3.863357 -388.955566
  endloop
endfacet
facet normal 0.000000 -0.000000 -0.153254
  outer loop
    vertex -6.704064 4.129857 -388.955566
    vertex -6.700565 4.079979 -388.955566
    vertex -9.757977 3.863357 -388.955566
  endloop
endfacet
facet normal 0.000000 0.000000 -0.153169
  outer loop
    vertex -3.641053 4.242361 -388.955566
    vertex -6.700565 4.079979 -388.955566
    vertex -6.704064 4.129857 -388.955566
  endloop
endfacet
facet normal 0.000000 -0.000000 -0.153254
  outer loop
    vertex -3.642854 4.292329 -388.955566
    vertex -3.641053 4.242361 -388.955566
    vertex -6.704064 4.129857 -388.955566
  endloop
endfacet
facet normal 0.000000 0.000000 -0.153169
  outer loop
    vertex -0.577789 4.300587 -388.955566
    vertex -3.641053 4.242361 -388.955566
    vertex -3.642854 4.292329 -388.955566
  endloop
endfacet
facet normal 0.000000 -0.000000 -0.153253
  outer loop
    vertex -0.577889 4.350586 -388.955566
    vertex -0.577789 4.300587 -388.955566
    vertex -3.642854 4.292329 -388.955566
  endloop
endfacet
endsolid b'MESH-MESH-MESH-MESH-MESH-MESH-MESH-MESH-MESH-MESH-MESH-MESH-MESH-MESH-MESH-MESH'
