solid b'MESH-MESH-MESH-MESH-MESH-MESH-MESH-MESH-MESH-MESH-MESH-MESH-MESH-MESH-MESH-MESH'
facet normal -0.208037 -10.944942 0.000000
  outer loop
    vertex -3.642848 -4.292329 -262.885895
    vertex -0.577883 -4.350586 -262.885895
    vertex -0.577883 -4.350586 -259.314911
  endloop
endfacet
facet normal -0.208037 -10.944942 0.000000
  outer loop
    vertex -3.642848 -4.292329 -262.885895
    vertex -0.577883 -4.350586 -259.314911
    vertex -3.642848 -4.292329 -259.314911
  endloop
endfacet
facet normal -0.580186 -10.931532 0.000000
  outer loop
    vertex -6.704059 -4.129857 -262.885895
    vertex -3.642848 -4.292329 -259.314911
    vertex -6.704059 -4.129857 -259.314911
  endloop
endfacet
facet normal -0.580186 -10.931532 0.000000
  outer loop
    vertex -6.704059 -4.129857 -262.885895
    vertex -3.642848 -4.292329 -262.885895
    vertex -3.642848 -4.292329 -259.314911
  endloop
endfacet
facet normal -0.951663 -10.905475 -0.000001
  outer loop
    vertex -9.757972 -3.863358 -262.885895
    vertex -6.704059 -4.129857 -259.314911
    vertex -9.757972 -3.863358 -259.314911
  endloop
endfacet
facet normal -0.951664 -10.905475 0.000000
  outer loop
    vertex -9.757972 -3.863358 -262.885895
    vertex -6.704059 -4.129857 -262.885895
    vertex -6.704059 -4.129857 -259.314911
  endloop
endfacet
facet normal -0.177584 0.018547 0.000000
  outer loop
    vertex -9.757972 -3.863358 -262.885895
    vertex -9.757972 -3.863358 -259.314911
    vertex -9.752778 -3.813628 -262.885895
  endloop
endfacet
facet normal -0.177584 0.018547 0.000000
  outer loop
    vertex -9.757972 -3.863358 -259.314911
    vertex -9.752778 -3.813628 -259.314911
    vertex -9.752778 -3.813628 -262.885895
  endloop
endfacet
facet normal 0.207923 10.938869 0.000000
  outer loop
    vertex -0.577784 -4.300587 -259.314911
    vertex -3.641048 -4.242361 -262.885895
    vertex -3.641048 -4.242361 -259.314911
  endloop
endfacet
facet normal 0.579862 10.925467 0.000000
  outer loop
    vertex -3.641048 -4.242361 -259.314911
    vertex -3.641048 -4.242361 -262.885895
    vertex -6.700560 -4.079979 -259.314911
  endloop
endfacet
facet normal 0.207921 10.938869 0.000001
  outer loop
    vertex -0.577784 -4.300586 -262.885895
    vertex -3.641048 -4.242361 -262.885895
    vertex -0.577784 -4.300587 -259.314911
  endloop
endfacet
facet normal 0.579864 10.925467 0.000001
  outer loop
    vertex -3.641048 -4.242361 -262.885895
    vertex -6.700560 -4.079979 -262.885895
    vertex -6.700560 -4.079979 -259.314911
  endloop
endfacet
facet normal 0.951136 10.899421 0.000001
  outer loop
    vertex -6.700560 -4.079979 -259.314911
    vertex -9.752778 -3.813628 -262.885895
    vertex -9.752778 -3.813628 -259.314911
  endloop
endfacet
facet normal 0.951135 10.899421 0.000001
  outer loop
    vertex -6.700560 -4.079979 -262.885895
    vertex -9.752778 -3.813628 -262.885895
    vertex -6.700560 -4.079979 -259.314911
  endloop
endfacet
facet normal 0.178550 -0.000356 -0.000000
  outer loop
    vertex -0.577784 -4.300586 -262.885895
    vertex -0.577784 -4.300587 -259.314911
    vertex -0.577883 -4.350586 -262.885895
  endloop
endfacet
facet normal 0.178548 -0.000356 0.000000
  outer loop
    vertex -0.577784 -4.300587 -259.314911
    vertex -0.577883 -4.350586 -259.314911
    vertex -0.577883 -4.350586 -262.885895
  endloop
endfacet
facet normal 0.000000 -0.000000 0.153168
  outer loop
    vertex -6.704059 -4.129857 -259.314911
    vertex -6.700560 -4.079979 -259.314911
    vertex -9.752778 -3.813628 -259.314911
  endloop
endfacet
facet normal 0.000000 0.000000 0.153254
  outer loop
    vertex -6.704059 -4.129857 -259.314911
    vertex -9.752778 -3.813628 -259.314911
    vertex -9.757972 -3.863358 -259.314911
  endloop
endfacet
facet normal 0.000000 -0.000000 0.153169
  outer loop
    vertex -3.642848 -4.292329 -259.314911
    vertex -3.641048 -4.242361 -259.314911
    vertex -6.700560 -4.079979 -259.314911
  endloop
endfacet
facet normal 0.000000 0.000000 0.153253
  outer loop
    vertex -3.642848 -4.292329 -259.314911
    vertex -6.700560 -4.079979 -259.314911
    vertex -6.704059 -4.129857 -259.314911
  endloop
endfacet
facet normal 0.000000 -0.000000 0.153168
  outer loop
    vertex -0.577883 -4.350586 -259.314911
    vertex -0.577784 -4.300587 -259.314911
    vertex -3.641048 -4.242361 -259.314911
  endloop
endfacet
facet normal 0.000000 0.000000 0.153254
  outer loop
    vertex -0.577883 -4.350586 -259.314911
    vertex -3.641048 -4.242361 -259.314911
    vertex -3.642848 -4.292329 -259.314911
  endloop
endfacet
facet normal 0.000000 -0.000000 -0.153169
  outer loop
    vertex -9.752778 -3.813628 -262.885895
    vertex -6.700560 -4.079979 -262.885895
    vertex -9.757972 -3.863358 -262.885895
  endloop
endfacet
facet normal -0.000000 0.000000 -0.153254
  outer loop
    vertex -6.700560 -4.079979 -262.885895
    vertex -6.704059 -4.129857 -262.885895
    vertex -9.757972 -3.863358 -262.885895
  endloop
endfacet
facet normal 0.000000 -0.000000 -0.153169
  outer loop
    vertex -6.700560 -4.079979 -262.885895
    vertex -3.641048 -4.242361 -262.885895
    vertex -6.704059 -4.129857 -262.885895
  endloop
endfacet
facet normal -0.000000 0.000000 -0.153254
  outer loop
    vertex -3.641048 -4.242361 -262.885895
    vertex -3.642848 -4.292329 -262.885895
    vertex -6.704059 -4.129857 -262.885895
  endloop
endfacet
facet normal 0.000000 -0.000000 -0.153169
  outer loop
    vertex -3.641048 -4.242361 -262.885895
    vertex -0.577784 -4.300586 -262.885895
    vertex -3.642848 -4.292329 -262.885895
  endloop
endfacet
facet normal -0.000000 0.000000 -0.153255
  outer loop
    vertex -0.577784 -4.300586 -262.885895
    vertex -0.577883 -4.350586 -262.885895
    vertex -3.642848 -4.292329 -262.885895
  endloop
endfacet
endsolid b'MESH-MESH-MESH-MESH-MESH-MESH-MESH-MESH-MESH-MESH-MESH-MESH-MESH-MESH-MESH-MESH'
