solid b'MESH-MESH-MESH-MESH-MESH-MESH-MESH-MESH-MESH-MESH-MESH-MESH-MESH-MESH-MESH-MESH'
facet normal -0.007474 -0.071027 -0.000000
  outer loop
    vertex -9.837534 -3.855012 116.803787
    vertex -9.817644 -3.857105 116.803787
    vertex -9.817644 -3.857105 120.374786
  endloop
endfacet
facet normal -0.007473 -0.071030 -0.000000
  outer loop
    vertex -9.837534 -3.855012 116.803787
    vertex -9.817644 -3.857105 120.374786
    vertex -9.837535 -3.855013 120.374786
  endloop
endfacet
facet normal -0.007490 -0.071023 -0.000000
  outer loop
    vertex -9.857424 -3.852915 116.803787
    vertex -9.837535 -3.855013 120.374786
    vertex -9.857424 -3.852916 120.374786
  endloop
endfacet
facet normal -0.007504 -0.071027 -0.000000
  outer loop
    vertex -9.857424 -3.852915 116.803787
    vertex -9.857424 -3.852916 120.374786
    vertex -9.877314 -3.850814 120.374786
  endloop
endfacet
facet normal -0.007489 -0.071027 -0.000000
  outer loop
    vertex -9.857424 -3.852915 116.803787
    vertex -9.837534 -3.855012 116.803787
    vertex -9.837535 -3.855013 120.374786
  endloop
endfacet
facet normal -0.007505 -0.071027 -0.000000
  outer loop
    vertex -9.877314 -3.850813 116.803787
    vertex -9.857424 -3.852915 116.803787
    vertex -9.877314 -3.850814 120.374786
  endloop
endfacet
facet normal -0.177560 0.018782 0.000000
  outer loop
    vertex -9.877314 -3.850813 116.803787
    vertex -9.877314 -3.850814 120.374786
    vertex -9.872054 -3.801091 120.374786
  endloop
endfacet
facet normal -0.177560 0.018782 0.000000
  outer loop
    vertex -9.872054 -3.801090 116.803787
    vertex -9.877314 -3.850813 116.803787
    vertex -9.872054 -3.801091 120.374786
  endloop
endfacet
facet normal 0.007469 0.070989 0.000000
  outer loop
    vertex -9.812418 -3.807379 120.374786
    vertex -9.832297 -3.805287 116.803787
    vertex -9.832297 -3.805288 120.374786
  endloop
endfacet
facet normal 0.007485 0.070986 0.000000
  outer loop
    vertex -9.832297 -3.805288 120.374786
    vertex -9.832297 -3.805287 116.803787
    vertex -9.852176 -3.803192 120.374786
  endloop
endfacet
facet normal 0.007469 0.070989 0.000000
  outer loop
    vertex -9.812418 -3.807379 116.803787
    vertex -9.832297 -3.805287 116.803787
    vertex -9.812418 -3.807379 120.374786
  endloop
endfacet
facet normal 0.007501 0.070986 0.000000
  outer loop
    vertex -9.852176 -3.803192 120.374786
    vertex -9.852176 -3.803191 116.803787
    vertex -9.872054 -3.801091 120.374786
  endloop
endfacet
facet normal 0.007485 0.070986 0.000000
  outer loop
    vertex -9.832297 -3.805287 116.803787
    vertex -9.852176 -3.803191 116.803787
    vertex -9.852176 -3.803192 120.374786
  endloop
endfacet
facet normal 0.007501 0.070986 0.000000
  outer loop
    vertex -9.852176 -3.803191 116.803787
    vertex -9.872054 -3.801090 116.803787
    vertex -9.872054 -3.801091 120.374786
  endloop
endfacet
facet normal 0.177572 -0.018663 -0.000000
  outer loop
    vertex -9.817644 -3.857105 116.803787
    vertex -9.812418 -3.807379 116.803787
    vertex -9.812418 -3.807379 120.374786
  endloop
endfacet
facet normal 0.177572 -0.018663 -0.000000
  outer loop
    vertex -9.817644 -3.857105 116.803787
    vertex -9.812418 -3.807379 120.374786
    vertex -9.817644 -3.857105 120.374786
  endloop
endfacet
facet normal -0.000000 0.000000 -0.000999
  outer loop
    vertex -9.852176 -3.803191 116.803787
    vertex -9.877314 -3.850813 116.803787
    vertex -9.872054 -3.801090 116.803787
  endloop
endfacet
facet normal -0.000000 0.000000 -0.000999
  outer loop
    vertex -9.832297 -3.805287 116.803787
    vertex -9.857424 -3.852915 116.803787
    vertex -9.852176 -3.803191 116.803787
  endloop
endfacet
facet normal 0.000000 0.000000 -0.001000
  outer loop
    vertex -9.852176 -3.803191 116.803787
    vertex -9.857424 -3.852915 116.803787
    vertex -9.877314 -3.850813 116.803787
  endloop
endfacet
facet normal -0.000000 0.000000 -0.000999
  outer loop
    vertex -9.812418 -3.807379 116.803787
    vertex -9.837534 -3.855012 116.803787
    vertex -9.832297 -3.805287 116.803787
  endloop
endfacet
facet normal 0.000000 0.000000 -0.001000
  outer loop
    vertex -9.832297 -3.805287 116.803787
    vertex -9.837534 -3.855012 116.803787
    vertex -9.857424 -3.852915 116.803787
  endloop
endfacet
facet normal 0.000000 0.000000 -0.001000
  outer loop
    vertex -9.812418 -3.807379 116.803787
    vertex -9.817644 -3.857105 116.803787
    vertex -9.837534 -3.855012 116.803787
  endloop
endfacet
facet normal 0.000000 0.000000 0.000999
  outer loop
    vertex -9.877314 -3.850814 120.374786
    vertex -9.852176 -3.803192 120.374786
    vertex -9.872054 -3.801091 120.374786
  endloop
endfacet
facet normal 0.000000 -0.000000 0.001000
  outer loop
    vertex -9.857424 -3.852916 120.374786
    vertex -9.852176 -3.803192 120.374786
    vertex -9.877314 -3.850814 120.374786
  endloop
endfacet
facet normal 0.000000 -0.000000 0.000999
  outer loop
    vertex -9.837535 -3.855013 120.374786
    vertex -9.832297 -3.805288 120.374786
    vertex -9.852176 -3.803192 120.374786
  endloop
endfacet
facet normal 0.000000 0.000000 0.001000
  outer loop
    vertex -9.837535 -3.855013 120.374786
    vertex -9.852176 -3.803192 120.374786
    vertex -9.857424 -3.852916 120.374786
  endloop
endfacet
facet normal 0.000000 -0.000000 0.000999
  outer loop
    vertex -9.817644 -3.857105 120.374786
    vertex -9.812418 -3.807379 120.374786
    vertex -9.832297 -3.805288 120.374786
  endloop
endfacet
facet normal 0.000000 0.000000 0.001000
  outer loop
    vertex -9.817644 -3.857105 120.374786
    vertex -9.832297 -3.805288 120.374786
    vertex -9.837535 -3.855013 120.374786
  endloop
endfacet
endsolid b'MESH-MESH-MESH-MESH-MESH-MESH-MESH-MESH-MESH-MESH-MESH-MESH-MESH-MESH-MESH-MESH'
