solid b'MESH-MESH-MESH-MESH-MESH-MESH-MESH-MESH-MESH-MESH-MESH-MESH-MESH-MESH-MESH-MESH'
facet normal 0.007474 -0.071030 0.000000
  outer loop
    vertex 9.837540 -3.855012 -34.066124
    vertex 9.817649 -3.857105 -34.066124
    vertex 9.817649 -3.857105 -37.637123
  endloop
endfacet
facet normal 0.007473 -0.071030 0.000000
  outer loop
    vertex 9.837540 -3.855012 -34.066124
    vertex 9.817649 -3.857105 -37.637123
    vertex 9.837540 -3.855013 -37.637123
  endloop
endfacet
facet normal 0.007490 -0.071027 0.000000
  outer loop
    vertex 9.857430 -3.852915 -34.066124
    vertex 9.837540 -3.855013 -37.637123
    vertex 9.857430 -3.852916 -37.637123
  endloop
endfacet
facet normal 0.007504 -0.071023 0.000000
  outer loop
    vertex 9.857430 -3.852915 -34.066124
    vertex 9.857430 -3.852916 -37.637123
    vertex 9.877318 -3.850814 -37.637123
  endloop
endfacet
facet normal 0.007489 -0.071027 0.000000
  outer loop
    vertex 9.857430 -3.852915 -34.066124
    vertex 9.837540 -3.855012 -34.066124
    vertex 9.837540 -3.855013 -37.637123
  endloop
endfacet
facet normal 0.007505 -0.071023 0.000000
  outer loop
    vertex 9.877318 -3.850813 -34.066124
    vertex 9.857430 -3.852915 -34.066124
    vertex 9.877318 -3.850814 -37.637123
  endloop
endfacet
facet normal 0.177560 0.018782 -0.000000
  outer loop
    vertex 9.877318 -3.850813 -34.066124
    vertex 9.877318 -3.850814 -37.637123
    vertex 9.872059 -3.801091 -37.637123
  endloop
endfacet
facet normal 0.177560 0.018782 -0.000000
  outer loop
    vertex 9.872059 -3.801090 -34.066124
    vertex 9.877318 -3.850813 -34.066124
    vertex 9.872059 -3.801091 -37.637123
  endloop
endfacet
facet normal -0.007469 0.070989 -0.000000
  outer loop
    vertex 9.812423 -3.807379 -37.637123
    vertex 9.832302 -3.805287 -34.066124
    vertex 9.832302 -3.805288 -37.637123
  endloop
endfacet
facet normal -0.007485 0.070986 -0.000000
  outer loop
    vertex 9.832302 -3.805288 -37.637123
    vertex 9.832302 -3.805287 -34.066124
    vertex 9.852180 -3.803192 -37.637123
  endloop
endfacet
facet normal -0.007469 0.070989 -0.000000
  outer loop
    vertex 9.812423 -3.807379 -34.066124
    vertex 9.832302 -3.805287 -34.066124
    vertex 9.812423 -3.807379 -37.637123
  endloop
endfacet
facet normal -0.007501 0.070986 -0.000000
  outer loop
    vertex 9.852180 -3.803192 -37.637123
    vertex 9.852180 -3.803191 -34.066124
    vertex 9.872059 -3.801091 -37.637123
  endloop
endfacet
facet normal -0.007485 0.070986 -0.000000
  outer loop
    vertex 9.832302 -3.805287 -34.066124
    vertex 9.852180 -3.803191 -34.066124
    vertex 9.852180 -3.803192 -37.637123
  endloop
endfacet
facet normal -0.007501 0.070986 -0.000000
  outer loop
    vertex 9.852180 -3.803191 -34.066124
    vertex 9.872059 -3.801090 -34.066124
    vertex 9.872059 -3.801091 -37.637123
  endloop
endfacet
facet normal -0.177572 -0.018663 0.000000
  outer loop
    vertex 9.817649 -3.857105 -34.066124
    vertex 9.812423 -3.807379 -34.066124
    vertex 9.812423 -3.807379 -37.637123
  endloop
endfacet
facet normal -0.177572 -0.018663 0.000000
  outer loop
    vertex 9.817649 -3.857105 -34.066124
    vertex 9.812423 -3.807379 -37.637123
    vertex 9.817649 -3.857105 -37.637123
  endloop
endfacet
facet normal -0.000000 0.000000 0.000999
  outer loop
    vertex 9.852180 -3.803191 -34.066124
    vertex 9.877318 -3.850813 -34.066124
    vertex 9.872059 -3.801090 -34.066124
  endloop
endfacet
facet normal -0.000000 0.000000 0.000999
  outer loop
    vertex 9.832302 -3.805287 -34.066124
    vertex 9.857430 -3.852915 -34.066124
    vertex 9.852180 -3.803191 -34.066124
  endloop
endfacet
facet normal 0.000000 0.000000 0.001000
  outer loop
    vertex 9.852180 -3.803191 -34.066124
    vertex 9.857430 -3.852915 -34.066124
    vertex 9.877318 -3.850813 -34.066124
  endloop
endfacet
facet normal -0.000000 0.000000 0.000999
  outer loop
    vertex 9.812423 -3.807379 -34.066124
    vertex 9.837540 -3.855012 -34.066124
    vertex 9.832302 -3.805287 -34.066124
  endloop
endfacet
facet normal 0.000000 0.000000 0.001000
  outer loop
    vertex 9.832302 -3.805287 -34.066124
    vertex 9.837540 -3.855012 -34.066124
    vertex 9.857430 -3.852915 -34.066124
  endloop
endfacet
facet normal 0.000000 0.000000 0.001000
  outer loop
    vertex 9.812423 -3.807379 -34.066124
    vertex 9.817649 -3.857105 -34.066124
    vertex 9.837540 -3.855012 -34.066124
  endloop
endfacet
facet normal 0.000000 0.000000 -0.000999
  outer loop
    vertex 9.877318 -3.850814 -37.637123
    vertex 9.852180 -3.803192 -37.637123
    vertex 9.872059 -3.801091 -37.637123
  endloop
endfacet
facet normal 0.000000 0.000000 -0.001000
  outer loop
    vertex 9.857430 -3.852916 -37.637123
    vertex 9.852180 -3.803192 -37.637123
    vertex 9.877318 -3.850814 -37.637123
  endloop
endfacet
facet normal 0.000000 0.000000 -0.000999
  outer loop
    vertex 9.837540 -3.855013 -37.637123
    vertex 9.832302 -3.805288 -37.637123
    vertex 9.852180 -3.803192 -37.637123
  endloop
endfacet
facet normal 0.000000 0.000000 -0.001000
  outer loop
    vertex 9.837540 -3.855013 -37.637123
    vertex 9.852180 -3.803192 -37.637123
    vertex 9.857430 -3.852916 -37.637123
  endloop
endfacet
facet normal 0.000000 0.000000 -0.000999
  outer loop
    vertex 9.817649 -3.857105 -37.637123
    vertex 9.812423 -3.807379 -37.637123
    vertex 9.832302 -3.805288 -37.637123
  endloop
endfacet
facet normal 0.000000 0.000000 -0.001000
  outer loop
    vertex 9.817649 -3.857105 -37.637123
    vertex 9.832302 -3.805288 -37.637123
    vertex 9.837540 -3.855013 -37.637123
  endloop
endfacet
endsolid b'MESH-MESH-MESH-MESH-MESH-MESH-MESH-MESH-MESH-MESH-MESH-MESH-MESH-MESH-MESH-MESH'
