solid b'MESH-MESH-MESH-MESH-MESH-MESH-MESH-MESH-MESH-MESH-MESH-MESH-MESH-MESH-MESH-MESH'
facet normal -0.007426 0.071034 0.000000
  outer loop
    vertex -9.777869 3.861278 262.463013
    vertex -9.757977 3.863357 262.463013
    vertex -9.757977 3.863357 258.891998
  endloop
endfacet
facet normal -0.007426 0.071034 0.000000
  outer loop
    vertex -9.777869 3.861278 262.463013
    vertex -9.757977 3.863357 258.891998
    vertex -9.777869 3.861278 258.891998
  endloop
endfacet
facet normal -0.007442 0.071030 0.000000
  outer loop
    vertex -9.797760 3.859194 262.463013
    vertex -9.777869 3.861278 258.891998
    vertex -9.797760 3.859194 258.891998
  endloop
endfacet
facet normal -0.007442 0.071030 0.000000
  outer loop
    vertex -9.797760 3.859194 262.463013
    vertex -9.777869 3.861278 262.463013
    vertex -9.777869 3.861278 258.891998
  endloop
endfacet
facet normal -0.007457 0.071030 0.000000
  outer loop
    vertex -9.817651 3.857105 262.463013
    vertex -9.797760 3.859194 258.891998
    vertex -9.817651 3.857105 258.891998
  endloop
endfacet
facet normal -0.007457 0.071030 0.000000
  outer loop
    vertex -9.817651 3.857105 262.463013
    vertex -9.797760 3.859194 262.463013
    vertex -9.797760 3.859194 258.891998
  endloop
endfacet
facet normal -0.177572 -0.018666 0.000000
  outer loop
    vertex -9.817651 3.857105 262.463013
    vertex -9.812425 3.807379 258.891998
    vertex -9.812424 3.807379 262.463013
  endloop
endfacet
facet normal -0.177572 -0.018663 0.000000
  outer loop
    vertex -9.817651 3.857105 258.891998
    vertex -9.812425 3.807379 258.891998
    vertex -9.817651 3.857105 262.463013
  endloop
endfacet
facet normal 0.007422 -0.070993 0.000000
  outer loop
    vertex -9.752784 3.813628 258.891998
    vertex -9.772664 3.811549 262.463013
    vertex -9.772664 3.811549 258.891998
  endloop
endfacet
facet normal 0.007422 -0.070993 0.000000
  outer loop
    vertex -9.752784 3.813628 262.463013
    vertex -9.772664 3.811549 262.463013
    vertex -9.752784 3.813628 258.891998
  endloop
endfacet
facet normal 0.007438 -0.070993 0.000000
  outer loop
    vertex -9.772664 3.811549 258.891998
    vertex -9.792544 3.809467 262.463013
    vertex -9.792544 3.809467 258.891998
  endloop
endfacet
facet normal 0.007438 -0.070993 0.000000
  outer loop
    vertex -9.772664 3.811549 262.463013
    vertex -9.792544 3.809467 262.463013
    vertex -9.772664 3.811549 258.891998
  endloop
endfacet
facet normal 0.007453 -0.070993 -0.000000
  outer loop
    vertex -9.792544 3.809467 258.891998
    vertex -9.812424 3.807379 262.463013
    vertex -9.812425 3.807379 258.891998
  endloop
endfacet
facet normal 0.007453 -0.070989 0.000000
  outer loop
    vertex -9.792544 3.809467 262.463013
    vertex -9.812424 3.807379 262.463013
    vertex -9.792544 3.809467 258.891998
  endloop
endfacet
facet normal 0.177584 0.018547 -0.000000
  outer loop
    vertex -9.752784 3.813628 262.463013
    vertex -9.752784 3.813628 258.891998
    vertex -9.757977 3.863357 262.463013
  endloop
endfacet
facet normal 0.177585 0.018547 0.000000
  outer loop
    vertex -9.752784 3.813628 258.891998
    vertex -9.757977 3.863357 258.891998
    vertex -9.757977 3.863357 262.463013
  endloop
endfacet
facet normal 0.000000 -0.000000 -0.000999
  outer loop
    vertex -9.797760 3.859194 258.891998
    vertex -9.792544 3.809467 258.891998
    vertex -9.812425 3.807379 258.891998
  endloop
endfacet
facet normal 0.000000 0.000000 -0.001000
  outer loop
    vertex -9.797760 3.859194 258.891998
    vertex -9.812425 3.807379 258.891998
    vertex -9.817651 3.857105 258.891998
  endloop
endfacet
facet normal 0.000000 -0.000000 -0.000999
  outer loop
    vertex -9.777869 3.861278 258.891998
    vertex -9.772664 3.811549 258.891998
    vertex -9.792544 3.809467 258.891998
  endloop
endfacet
facet normal 0.000000 0.000000 -0.001000
  outer loop
    vertex -9.777869 3.861278 258.891998
    vertex -9.792544 3.809467 258.891998
    vertex -9.797760 3.859194 258.891998
  endloop
endfacet
facet normal 0.000000 -0.000000 -0.000999
  outer loop
    vertex -9.757977 3.863357 258.891998
    vertex -9.752784 3.813628 258.891998
    vertex -9.772664 3.811549 258.891998
  endloop
endfacet
facet normal 0.000000 0.000000 -0.001000
  outer loop
    vertex -9.757977 3.863357 258.891998
    vertex -9.772664 3.811549 258.891998
    vertex -9.777869 3.861278 258.891998
  endloop
endfacet
facet normal 0.000000 0.000000 0.000999
  outer loop
    vertex -9.792544 3.809467 262.463013
    vertex -9.817651 3.857105 262.463013
    vertex -9.812424 3.807379 262.463013
  endloop
endfacet
facet normal 0.000000 0.000000 0.000999
  outer loop
    vertex -9.772664 3.811549 262.463013
    vertex -9.797760 3.859194 262.463013
    vertex -9.792544 3.809467 262.463013
  endloop
endfacet
facet normal 0.000000 0.000000 0.001000
  outer loop
    vertex -9.792544 3.809467 262.463013
    vertex -9.797760 3.859194 262.463013
    vertex -9.817651 3.857105 262.463013
  endloop
endfacet
facet normal 0.000000 0.000000 0.000999
  outer loop
    vertex -9.752784 3.813628 262.463013
    vertex -9.777869 3.861278 262.463013
    vertex -9.772664 3.811549 262.463013
  endloop
endfacet
facet normal 0.000000 0.000000 0.001000
  outer loop
    vertex -9.772664 3.811549 262.463013
    vertex -9.777869 3.861278 262.463013
    vertex -9.797760 3.859194 262.463013
  endloop
endfacet
facet normal 0.000000 0.000000 0.001000
  outer loop
    vertex -9.752784 3.813628 262.463013
    vertex -9.757977 3.863357 262.463013
    vertex -9.777869 3.861278 262.463013
  endloop
endfacet
endsolid b'MESH-MESH-MESH-MESH-MESH-MESH-MESH-MESH-MESH-MESH-MESH-MESH-MESH-MESH-MESH-MESH'
