solid b'MESH-MESH-MESH-MESH-MESH-MESH-MESH-MESH-MESH-MESH-MESH-MESH-MESH-MESH-MESH-MESH'
facet normal -0.007473 0.071030 0.000000
  outer loop
    vertex -9.837537 3.855012 -342.052582
    vertex -9.817646 3.857105 -342.052582
    vertex -9.817646 3.857106 -345.623566
  endloop
endfacet
facet normal -0.007473 0.071030 0.000000
  outer loop
    vertex -9.837537 3.855012 -342.052582
    vertex -9.817646 3.857106 -345.623566
    vertex -9.837537 3.855013 -345.623566
  endloop
endfacet
facet normal -0.007489 0.071026 0.000000
  outer loop
    vertex -9.857426 3.852915 -342.052582
    vertex -9.837537 3.855013 -345.623566
    vertex -9.857427 3.852916 -345.623566
  endloop
endfacet
facet normal -0.007505 0.071023 0.000000
  outer loop
    vertex -9.857426 3.852915 -342.052582
    vertex -9.857427 3.852916 -345.623566
    vertex -9.877316 3.850814 -345.623566
  endloop
endfacet
facet normal -0.007490 0.071023 0.000000
  outer loop
    vertex -9.857426 3.852915 -342.052582
    vertex -9.837537 3.855012 -342.052582
    vertex -9.837537 3.855013 -345.623566
  endloop
endfacet
facet normal -0.007504 0.071026 0.000000
  outer loop
    vertex -9.877316 3.850814 -342.052582
    vertex -9.857426 3.852915 -342.052582
    vertex -9.877316 3.850814 -345.623566
  endloop
endfacet
facet normal -0.177559 -0.018782 -0.000000
  outer loop
    vertex -9.877316 3.850814 -342.052582
    vertex -9.877316 3.850814 -345.623566
    vertex -9.872056 3.801092 -345.623566
  endloop
endfacet
facet normal -0.177559 -0.018782 -0.000000
  outer loop
    vertex -9.872056 3.801091 -342.052582
    vertex -9.877316 3.850814 -342.052582
    vertex -9.872056 3.801092 -345.623566
  endloop
endfacet
facet normal 0.007469 -0.070989 -0.000000
  outer loop
    vertex -9.812420 3.807380 -345.623566
    vertex -9.832299 3.805287 -342.052582
    vertex -9.832299 3.805288 -345.623566
  endloop
endfacet
facet normal 0.007469 -0.070989 -0.000000
  outer loop
    vertex -9.812420 3.807379 -342.052582
    vertex -9.832299 3.805287 -342.052582
    vertex -9.812420 3.807380 -345.623566
  endloop
endfacet
facet normal 0.007485 -0.070985 -0.000000
  outer loop
    vertex -9.832299 3.805288 -345.623566
    vertex -9.852178 3.803191 -342.052582
    vertex -9.852178 3.803192 -345.623566
  endloop
endfacet
facet normal 0.007501 -0.070985 -0.000000
  outer loop
    vertex -9.852178 3.803192 -345.623566
    vertex -9.852178 3.803191 -342.052582
    vertex -9.872056 3.801092 -345.623566
  endloop
endfacet
facet normal 0.007485 -0.070985 -0.000000
  outer loop
    vertex -9.832299 3.805287 -342.052582
    vertex -9.852178 3.803191 -342.052582
    vertex -9.832299 3.805288 -345.623566
  endloop
endfacet
facet normal 0.007501 -0.070985 -0.000000
  outer loop
    vertex -9.852178 3.803191 -342.052582
    vertex -9.872056 3.801091 -342.052582
    vertex -9.872056 3.801092 -345.623566
  endloop
endfacet
facet normal 0.177571 0.018662 0.000000
  outer loop
    vertex -9.817646 3.857105 -342.052582
    vertex -9.812420 3.807379 -342.052582
    vertex -9.812420 3.807380 -345.623566
  endloop
endfacet
facet normal 0.177572 0.018662 0.000000
  outer loop
    vertex -9.817646 3.857105 -342.052582
    vertex -9.812420 3.807380 -345.623566
    vertex -9.817646 3.857106 -345.623566
  endloop
endfacet
facet normal 0.000000 0.000000 0.000999
  outer loop
    vertex -9.852178 3.803191 -342.052582
    vertex -9.877316 3.850814 -342.052582
    vertex -9.872056 3.801091 -342.052582
  endloop
endfacet
facet normal 0.000000 0.000000 0.000999
  outer loop
    vertex -9.832299 3.805287 -342.052582
    vertex -9.857426 3.852915 -342.052582
    vertex -9.852178 3.803191 -342.052582
  endloop
endfacet
facet normal 0.000000 0.000000 0.001000
  outer loop
    vertex -9.852178 3.803191 -342.052582
    vertex -9.857426 3.852915 -342.052582
    vertex -9.877316 3.850814 -342.052582
  endloop
endfacet
facet normal 0.000000 0.000000 0.000999
  outer loop
    vertex -9.812420 3.807379 -342.052582
    vertex -9.837537 3.855012 -342.052582
    vertex -9.832299 3.805287 -342.052582
  endloop
endfacet
facet normal 0.000000 0.000000 0.001000
  outer loop
    vertex -9.832299 3.805287 -342.052582
    vertex -9.837537 3.855012 -342.052582
    vertex -9.857426 3.852915 -342.052582
  endloop
endfacet
facet normal 0.000000 0.000000 0.001000
  outer loop
    vertex -9.812420 3.807379 -342.052582
    vertex -9.817646 3.857105 -342.052582
    vertex -9.837537 3.855012 -342.052582
  endloop
endfacet
facet normal 0.000000 0.000000 -0.000999
  outer loop
    vertex -9.877316 3.850814 -345.623566
    vertex -9.852178 3.803192 -345.623566
    vertex -9.872056 3.801092 -345.623566
  endloop
endfacet
facet normal 0.000000 -0.000000 -0.001000
  outer loop
    vertex -9.857427 3.852916 -345.623566
    vertex -9.852178 3.803192 -345.623566
    vertex -9.877316 3.850814 -345.623566
  endloop
endfacet
facet normal 0.000000 -0.000000 -0.000999
  outer loop
    vertex -9.837537 3.855013 -345.623566
    vertex -9.832299 3.805288 -345.623566
    vertex -9.852178 3.803192 -345.623566
  endloop
endfacet
facet normal 0.000000 0.000000 -0.001000
  outer loop
    vertex -9.837537 3.855013 -345.623566
    vertex -9.852178 3.803192 -345.623566
    vertex -9.857427 3.852916 -345.623566
  endloop
endfacet
facet normal 0.000000 -0.000000 -0.000999
  outer loop
    vertex -9.817646 3.857106 -345.623566
    vertex -9.812420 3.807380 -345.623566
    vertex -9.832299 3.805288 -345.623566
  endloop
endfacet
facet normal 0.000000 0.000000 -0.001000
  outer loop
    vertex -9.817646 3.857106 -345.623566
    vertex -9.832299 3.805288 -345.623566
    vertex -9.837537 3.855013 -345.623566
  endloop
endfacet
endsolid b'MESH-MESH-MESH-MESH-MESH-MESH-MESH-MESH-MESH-MESH-MESH-MESH-MESH-MESH-MESH-MESH'
