solid b'MESH-MESH-MESH-MESH-MESH-MESH-MESH-MESH-MESH-MESH-MESH-MESH-MESH-MESH-MESH-MESH'
facet normal 0.007474 -0.071027 -0.000000
  outer loop
    vertex 9.837557 -3.855011 214.280792
    vertex 9.817667 -3.857104 214.280792
    vertex 9.817667 -3.857104 210.709793
  endloop
endfacet
facet normal 0.007474 -0.071027 -0.000000
  outer loop
    vertex 9.837557 -3.855011 214.280792
    vertex 9.817667 -3.857104 210.709793
    vertex 9.837557 -3.855011 210.709793
  endloop
endfacet
facet normal 0.007489 -0.071027 -0.000000
  outer loop
    vertex 9.837557 -3.855011 214.280792
    vertex 9.837557 -3.855011 210.709793
    vertex 9.857447 -3.852914 210.709793
  endloop
endfacet
facet normal 0.007505 -0.071023 -0.000000
  outer loop
    vertex 9.857447 -3.852914 214.280792
    vertex 9.857447 -3.852914 210.709793
    vertex 9.877336 -3.850812 210.709793
  endloop
endfacet
facet normal 0.007489 -0.071027 -0.000000
  outer loop
    vertex 9.857447 -3.852914 214.280792
    vertex 9.837557 -3.855011 214.280792
    vertex 9.857447 -3.852914 210.709793
  endloop
endfacet
facet normal 0.007505 -0.071023 -0.000000
  outer loop
    vertex 9.877336 -3.850813 214.280792
    vertex 9.857447 -3.852914 214.280792
    vertex 9.877336 -3.850812 210.709793
  endloop
endfacet
facet normal 0.177560 0.018782 0.000000
  outer loop
    vertex 9.877336 -3.850813 214.280792
    vertex 9.872076 -3.801089 210.709793
    vertex 9.872076 -3.801090 214.280792
  endloop
endfacet
facet normal 0.177560 0.018782 0.000000
  outer loop
    vertex 9.877336 -3.850812 210.709793
    vertex 9.872076 -3.801089 210.709793
    vertex 9.877336 -3.850813 214.280792
  endloop
endfacet
facet normal -0.007469 0.070989 0.000000
  outer loop
    vertex 9.812440 -3.807378 210.709793
    vertex 9.832319 -3.805287 214.280792
    vertex 9.832319 -3.805286 210.709793
  endloop
endfacet
facet normal -0.007485 0.070986 0.000000
  outer loop
    vertex 9.832319 -3.805286 210.709793
    vertex 9.832319 -3.805287 214.280792
    vertex 9.852198 -3.803190 210.709793
  endloop
endfacet
facet normal -0.007468 0.070989 0.000000
  outer loop
    vertex 9.812440 -3.807378 214.280792
    vertex 9.832319 -3.805287 214.280792
    vertex 9.812440 -3.807378 210.709793
  endloop
endfacet
facet normal -0.007501 0.070986 0.000000
  outer loop
    vertex 9.852198 -3.803190 210.709793
    vertex 9.852198 -3.803190 214.280792
    vertex 9.872076 -3.801089 210.709793
  endloop
endfacet
facet normal -0.007485 0.070986 0.000000
  outer loop
    vertex 9.832319 -3.805287 214.280792
    vertex 9.852198 -3.803190 214.280792
    vertex 9.852198 -3.803190 210.709793
  endloop
endfacet
facet normal -0.007501 0.070986 0.000000
  outer loop
    vertex 9.852198 -3.803190 214.280792
    vertex 9.872076 -3.801090 214.280792
    vertex 9.872076 -3.801089 210.709793
  endloop
endfacet
facet normal -0.177572 -0.018666 -0.000000
  outer loop
    vertex 9.812440 -3.807378 214.280792
    vertex 9.812440 -3.807378 210.709793
    vertex 9.817667 -3.857104 214.280792
  endloop
endfacet
facet normal -0.177572 -0.018666 -0.000000
  outer loop
    vertex 9.812440 -3.807378 210.709793
    vertex 9.817667 -3.857104 210.709793
    vertex 9.817667 -3.857104 214.280792
  endloop
endfacet
facet normal 0.000000 0.000000 -0.000999
  outer loop
    vertex 9.877336 -3.850812 210.709793
    vertex 9.852198 -3.803190 210.709793
    vertex 9.872076 -3.801089 210.709793
  endloop
endfacet
facet normal 0.000000 0.000000 -0.001000
  outer loop
    vertex 9.857447 -3.852914 210.709793
    vertex 9.852198 -3.803190 210.709793
    vertex 9.877336 -3.850812 210.709793
  endloop
endfacet
facet normal 0.000000 0.000000 -0.000999
  outer loop
    vertex 9.837557 -3.855011 210.709793
    vertex 9.832319 -3.805286 210.709793
    vertex 9.852198 -3.803190 210.709793
  endloop
endfacet
facet normal 0.000000 0.000000 -0.001000
  outer loop
    vertex 9.837557 -3.855011 210.709793
    vertex 9.852198 -3.803190 210.709793
    vertex 9.857447 -3.852914 210.709793
  endloop
endfacet
facet normal 0.000000 0.000000 -0.000999
  outer loop
    vertex 9.817667 -3.857104 210.709793
    vertex 9.812440 -3.807378 210.709793
    vertex 9.832319 -3.805286 210.709793
  endloop
endfacet
facet normal 0.000000 0.000000 -0.001000
  outer loop
    vertex 9.817667 -3.857104 210.709793
    vertex 9.832319 -3.805286 210.709793
    vertex 9.837557 -3.855011 210.709793
  endloop
endfacet
facet normal -0.000000 0.000000 0.000999
  outer loop
    vertex 9.852198 -3.803190 214.280792
    vertex 9.877336 -3.850813 214.280792
    vertex 9.872076 -3.801090 214.280792
  endloop
endfacet
facet normal -0.000000 0.000000 0.000999
  outer loop
    vertex 9.832319 -3.805287 214.280792
    vertex 9.857447 -3.852914 214.280792
    vertex 9.852198 -3.803190 214.280792
  endloop
endfacet
facet normal 0.000000 0.000000 0.001000
  outer loop
    vertex 9.852198 -3.803190 214.280792
    vertex 9.857447 -3.852914 214.280792
    vertex 9.877336 -3.850813 214.280792
  endloop
endfacet
facet normal -0.000000 0.000000 0.000999
  outer loop
    vertex 9.812440 -3.807378 214.280792
    vertex 9.837557 -3.855011 214.280792
    vertex 9.832319 -3.805287 214.280792
  endloop
endfacet
facet normal 0.000000 0.000000 0.001000
  outer loop
    vertex 9.832319 -3.805287 214.280792
    vertex 9.837557 -3.855011 214.280792
    vertex 9.857447 -3.852914 214.280792
  endloop
endfacet
facet normal 0.000000 0.000000 0.001000
  outer loop
    vertex 9.812440 -3.807378 214.280792
    vertex 9.817667 -3.857104 214.280792
    vertex 9.837557 -3.855011 214.280792
  endloop
endfacet
endsolid b'MESH-MESH-MESH-MESH-MESH-MESH-MESH-MESH-MESH-MESH-MESH-MESH-MESH-MESH-MESH-MESH'
