solid b'MESH-MESH-MESH-MESH-MESH-MESH-MESH-MESH-MESH-MESH-MESH-MESH-MESH-MESH-MESH-MESH'
facet normal -0.007473 0.071030 0.000000
  outer loop
    vertex -9.837550 3.855011 -181.318878
    vertex -9.817659 3.857104 -181.318878
    vertex -9.817659 3.857105 -184.889877
  endloop
endfacet
facet normal -0.007473 0.071030 0.000000
  outer loop
    vertex -9.837550 3.855011 -181.318878
    vertex -9.817659 3.857105 -184.889877
    vertex -9.837550 3.855012 -184.889877
  endloop
endfacet
facet normal -0.007490 0.071027 0.000000
  outer loop
    vertex -9.857440 3.852914 -181.318878
    vertex -9.837550 3.855012 -184.889877
    vertex -9.857440 3.852915 -184.889877
  endloop
endfacet
facet normal -0.007490 0.071027 0.000000
  outer loop
    vertex -9.857440 3.852914 -181.318878
    vertex -9.837550 3.855011 -181.318878
    vertex -9.837550 3.855012 -184.889877
  endloop
endfacet
facet normal -0.007504 0.071023 0.000000
  outer loop
    vertex -9.877329 3.850813 -181.318878
    vertex -9.857440 3.852915 -184.889877
    vertex -9.877329 3.850813 -184.889877
  endloop
endfacet
facet normal -0.007504 0.071023 0.000000
  outer loop
    vertex -9.877329 3.850813 -181.318878
    vertex -9.857440 3.852914 -181.318878
    vertex -9.857440 3.852915 -184.889877
  endloop
endfacet
facet normal -0.177560 -0.018782 -0.000000
  outer loop
    vertex -9.877329 3.850813 -181.318878
    vertex -9.877329 3.850813 -184.889877
    vertex -9.872069 3.801091 -184.889877
  endloop
endfacet
facet normal -0.177560 -0.018782 -0.000000
  outer loop
    vertex -9.872069 3.801090 -181.318878
    vertex -9.877329 3.850813 -181.318878
    vertex -9.872069 3.801091 -184.889877
  endloop
endfacet
facet normal 0.007469 -0.070989 -0.000000
  outer loop
    vertex -9.812433 3.807379 -184.889877
    vertex -9.832313 3.805286 -181.318878
    vertex -9.832313 3.805287 -184.889877
  endloop
endfacet
facet normal 0.007485 -0.070986 -0.000000
  outer loop
    vertex -9.832313 3.805287 -184.889877
    vertex -9.832313 3.805286 -181.318878
    vertex -9.852191 3.803191 -184.889877
  endloop
endfacet
facet normal 0.007469 -0.070989 -0.000000
  outer loop
    vertex -9.812433 3.807378 -181.318878
    vertex -9.832313 3.805286 -181.318878
    vertex -9.812433 3.807379 -184.889877
  endloop
endfacet
facet normal 0.007485 -0.070986 -0.000000
  outer loop
    vertex -9.832313 3.805286 -181.318878
    vertex -9.852191 3.803190 -181.318878
    vertex -9.852191 3.803191 -184.889877
  endloop
endfacet
facet normal 0.007501 -0.070986 -0.000000
  outer loop
    vertex -9.852191 3.803191 -184.889877
    vertex -9.872069 3.801090 -181.318878
    vertex -9.872069 3.801091 -184.889877
  endloop
endfacet
facet normal 0.007501 -0.070986 -0.000000
  outer loop
    vertex -9.852191 3.803190 -181.318878
    vertex -9.872069 3.801090 -181.318878
    vertex -9.852191 3.803191 -184.889877
  endloop
endfacet
facet normal 0.177572 0.018663 0.000000
  outer loop
    vertex -9.812433 3.807378 -181.318878
    vertex -9.812433 3.807379 -184.889877
    vertex -9.817659 3.857105 -184.889877
  endloop
endfacet
facet normal 0.177572 0.018663 0.000000
  outer loop
    vertex -9.817659 3.857104 -181.318878
    vertex -9.812433 3.807378 -181.318878
    vertex -9.817659 3.857105 -184.889877
  endloop
endfacet
facet normal 0.000000 0.000000 0.000999
  outer loop
    vertex -9.852191 3.803190 -181.318878
    vertex -9.877329 3.850813 -181.318878
    vertex -9.872069 3.801090 -181.318878
  endloop
endfacet
facet normal 0.000000 0.000000 0.000999
  outer loop
    vertex -9.832313 3.805286 -181.318878
    vertex -9.857440 3.852914 -181.318878
    vertex -9.852191 3.803190 -181.318878
  endloop
endfacet
facet normal 0.000000 0.000000 0.001000
  outer loop
    vertex -9.852191 3.803190 -181.318878
    vertex -9.857440 3.852914 -181.318878
    vertex -9.877329 3.850813 -181.318878
  endloop
endfacet
facet normal 0.000000 0.000000 0.000999
  outer loop
    vertex -9.812433 3.807378 -181.318878
    vertex -9.837550 3.855011 -181.318878
    vertex -9.832313 3.805286 -181.318878
  endloop
endfacet
facet normal 0.000000 0.000000 0.001000
  outer loop
    vertex -9.832313 3.805286 -181.318878
    vertex -9.837550 3.855011 -181.318878
    vertex -9.857440 3.852914 -181.318878
  endloop
endfacet
facet normal 0.000000 0.000000 0.001000
  outer loop
    vertex -9.812433 3.807378 -181.318878
    vertex -9.817659 3.857104 -181.318878
    vertex -9.837550 3.855011 -181.318878
  endloop
endfacet
facet normal 0.000000 0.000000 -0.000999
  outer loop
    vertex -9.877329 3.850813 -184.889877
    vertex -9.852191 3.803191 -184.889877
    vertex -9.872069 3.801091 -184.889877
  endloop
endfacet
facet normal 0.000000 0.000000 -0.000999
  outer loop
    vertex -9.857440 3.852915 -184.889877
    vertex -9.832313 3.805287 -184.889877
    vertex -9.852191 3.803191 -184.889877
  endloop
endfacet
facet normal 0.000000 -0.000000 -0.001000
  outer loop
    vertex -9.857440 3.852915 -184.889877
    vertex -9.852191 3.803191 -184.889877
    vertex -9.877329 3.850813 -184.889877
  endloop
endfacet
facet normal 0.000000 -0.000000 -0.001000
  outer loop
    vertex -9.837550 3.855012 -184.889877
    vertex -9.832313 3.805287 -184.889877
    vertex -9.857440 3.852915 -184.889877
  endloop
endfacet
facet normal 0.000000 -0.000000 -0.000999
  outer loop
    vertex -9.817659 3.857105 -184.889877
    vertex -9.812433 3.807379 -184.889877
    vertex -9.832313 3.805287 -184.889877
  endloop
endfacet
facet normal 0.000000 0.000000 -0.001000
  outer loop
    vertex -9.817659 3.857105 -184.889877
    vertex -9.832313 3.805287 -184.889877
    vertex -9.837550 3.855012 -184.889877
  endloop
endfacet
endsolid b'MESH-MESH-MESH-MESH-MESH-MESH-MESH-MESH-MESH-MESH-MESH-MESH-MESH-MESH-MESH-MESH'
