solid b'MESH-MESH-MESH-MESH-MESH-MESH-MESH-MESH-MESH-MESH-MESH-MESH-MESH-MESH-MESH-MESH'
facet normal 0.007426 -0.071030 0.000000
  outer loop
    vertex 9.777868 -3.861278 378.122559
    vertex 9.757977 -3.863357 378.122559
    vertex 9.757977 -3.863357 374.551575
  endloop
endfacet
facet normal 0.007427 -0.071033 -0.000000
  outer loop
    vertex 9.777868 -3.861278 378.122559
    vertex 9.757977 -3.863357 374.551575
    vertex 9.777869 -3.861278 374.551575
  endloop
endfacet
facet normal 0.007441 -0.071030 0.000000
  outer loop
    vertex 9.797760 -3.859194 378.122559
    vertex 9.777869 -3.861278 374.551575
    vertex 9.797760 -3.859194 374.551575
  endloop
endfacet
facet normal 0.007458 -0.071030 0.000000
  outer loop
    vertex 9.797760 -3.859194 378.122559
    vertex 9.797760 -3.859194 374.551575
    vertex 9.817651 -3.857105 374.551575
  endloop
endfacet
facet normal 0.007442 -0.071033 -0.000000
  outer loop
    vertex 9.797760 -3.859194 378.122559
    vertex 9.777868 -3.861278 378.122559
    vertex 9.777869 -3.861278 374.551575
  endloop
endfacet
facet normal 0.007457 -0.071030 -0.000000
  outer loop
    vertex 9.817651 -3.857105 378.122559
    vertex 9.797760 -3.859194 378.122559
    vertex 9.817651 -3.857105 374.551575
  endloop
endfacet
facet normal 0.177572 0.018666 0.000000
  outer loop
    vertex 9.817651 -3.857105 378.122559
    vertex 9.812425 -3.807379 374.551575
    vertex 9.812424 -3.807379 378.122559
  endloop
endfacet
facet normal 0.177571 0.018662 0.000000
  outer loop
    vertex 9.817651 -3.857105 374.551575
    vertex 9.812425 -3.807379 374.551575
    vertex 9.817651 -3.857105 378.122559
  endloop
endfacet
facet normal -0.007422 0.070992 0.000000
  outer loop
    vertex 9.752784 -3.813628 374.551575
    vertex 9.772664 -3.811549 378.122559
    vertex 9.772664 -3.811549 374.551575
  endloop
endfacet
facet normal -0.007422 0.070992 0.000000
  outer loop
    vertex 9.752784 -3.813628 378.122559
    vertex 9.772664 -3.811549 378.122559
    vertex 9.752784 -3.813628 374.551575
  endloop
endfacet
facet normal -0.007438 0.070992 0.000000
  outer loop
    vertex 9.772664 -3.811549 374.551575
    vertex 9.792544 -3.809467 378.122559
    vertex 9.792544 -3.809466 374.551575
  endloop
endfacet
facet normal -0.007453 0.070992 0.000000
  outer loop
    vertex 9.792544 -3.809466 374.551575
    vertex 9.792544 -3.809467 378.122559
    vertex 9.812425 -3.807379 374.551575
  endloop
endfacet
facet normal -0.007438 0.070992 0.000000
  outer loop
    vertex 9.772664 -3.811549 378.122559
    vertex 9.792544 -3.809467 378.122559
    vertex 9.772664 -3.811549 374.551575
  endloop
endfacet
facet normal -0.007454 0.070989 -0.000000
  outer loop
    vertex 9.792544 -3.809467 378.122559
    vertex 9.812424 -3.807379 378.122559
    vertex 9.812425 -3.807379 374.551575
  endloop
endfacet
facet normal -0.177584 -0.018547 -0.000000
  outer loop
    vertex 9.752784 -3.813628 378.122559
    vertex 9.752784 -3.813628 374.551575
    vertex 9.757977 -3.863357 378.122559
  endloop
endfacet
facet normal -0.177584 -0.018547 0.000000
  outer loop
    vertex 9.752784 -3.813628 374.551575
    vertex 9.757977 -3.863357 374.551575
    vertex 9.757977 -3.863357 378.122559
  endloop
endfacet
facet normal 0.000000 0.000000 -0.000999
  outer loop
    vertex 9.817651 -3.857105 374.551575
    vertex 9.792544 -3.809466 374.551575
    vertex 9.812425 -3.807379 374.551575
  endloop
endfacet
facet normal 0.000000 0.000000 -0.001000
  outer loop
    vertex 9.797760 -3.859194 374.551575
    vertex 9.792544 -3.809466 374.551575
    vertex 9.817651 -3.857105 374.551575
  endloop
endfacet
facet normal 0.000000 0.000000 -0.000999
  outer loop
    vertex 9.777869 -3.861278 374.551575
    vertex 9.772664 -3.811549 374.551575
    vertex 9.792544 -3.809466 374.551575
  endloop
endfacet
facet normal 0.000000 0.000000 -0.001000
  outer loop
    vertex 9.777869 -3.861278 374.551575
    vertex 9.792544 -3.809466 374.551575
    vertex 9.797760 -3.859194 374.551575
  endloop
endfacet
facet normal 0.000000 0.000000 -0.000999
  outer loop
    vertex 9.757977 -3.863357 374.551575
    vertex 9.752784 -3.813628 374.551575
    vertex 9.772664 -3.811549 374.551575
  endloop
endfacet
facet normal 0.000000 0.000000 -0.001000
  outer loop
    vertex 9.757977 -3.863357 374.551575
    vertex 9.772664 -3.811549 374.551575
    vertex 9.777869 -3.861278 374.551575
  endloop
endfacet
facet normal -0.000000 0.000000 0.000999
  outer loop
    vertex 9.792544 -3.809467 378.122559
    vertex 9.817651 -3.857105 378.122559
    vertex 9.812424 -3.807379 378.122559
  endloop
endfacet
facet normal -0.000000 0.000000 0.000999
  outer loop
    vertex 9.772664 -3.811549 378.122559
    vertex 9.797760 -3.859194 378.122559
    vertex 9.792544 -3.809467 378.122559
  endloop
endfacet
facet normal 0.000000 0.000000 0.001000
  outer loop
    vertex 9.792544 -3.809467 378.122559
    vertex 9.797760 -3.859194 378.122559
    vertex 9.817651 -3.857105 378.122559
  endloop
endfacet
facet normal -0.000000 0.000000 0.000999
  outer loop
    vertex 9.752784 -3.813628 378.122559
    vertex 9.777868 -3.861278 378.122559
    vertex 9.772664 -3.811549 378.122559
  endloop
endfacet
facet normal 0.000000 0.000000 0.001000
  outer loop
    vertex 9.772664 -3.811549 378.122559
    vertex 9.777868 -3.861278 378.122559
    vertex 9.797760 -3.859194 378.122559
  endloop
endfacet
facet normal 0.000000 0.000000 0.001000
  outer loop
    vertex 9.752784 -3.813628 378.122559
    vertex 9.757977 -3.863357 378.122559
    vertex 9.777868 -3.861278 378.122559
  endloop
endfacet
endsolid b'MESH-MESH-MESH-MESH-MESH-MESH-MESH-MESH-MESH-MESH-MESH-MESH-MESH-MESH-MESH-MESH'
