solid b'MESH-MESH-MESH-MESH-MESH-MESH-MESH-MESH-MESH-MESH-MESH-MESH-MESH-MESH-MESH-MESH'
facet normal -0.007473 0.071026 0.000000
  outer loop
    vertex -9.817646 3.857105 -338.461578
    vertex -9.817646 3.857106 -342.032562
    vertex -9.837536 3.855013 -342.032562
  endloop
endfacet
facet normal -0.007489 0.071026 0.000000
  outer loop
    vertex -9.837536 3.855012 -338.461578
    vertex -9.837536 3.855013 -342.032562
    vertex -9.857426 3.852916 -342.032562
  endloop
endfacet
facet normal -0.007473 0.071026 0.000000
  outer loop
    vertex -9.837536 3.855012 -338.461578
    vertex -9.817646 3.857105 -338.461578
    vertex -9.837536 3.855013 -342.032562
  endloop
endfacet
facet normal -0.007505 0.071026 0.000000
  outer loop
    vertex -9.857426 3.852915 -338.461578
    vertex -9.857426 3.852916 -342.032562
    vertex -9.877316 3.850814 -342.032562
  endloop
endfacet
facet normal -0.007489 0.071026 0.000000
  outer loop
    vertex -9.857426 3.852915 -338.461578
    vertex -9.837536 3.855012 -338.461578
    vertex -9.857426 3.852916 -342.032562
  endloop
endfacet
facet normal -0.007505 0.071026 0.000000
  outer loop
    vertex -9.877316 3.850813 -338.461578
    vertex -9.857426 3.852915 -338.461578
    vertex -9.877316 3.850814 -342.032562
  endloop
endfacet
facet normal -0.177558 -0.018782 -0.000000
  outer loop
    vertex -9.872056 3.801091 -338.461578
    vertex -9.877316 3.850813 -338.461578
    vertex -9.877316 3.850814 -342.032562
  endloop
endfacet
facet normal -0.177559 -0.018782 -0.000000
  outer loop
    vertex -9.872056 3.801091 -338.461578
    vertex -9.877316 3.850814 -342.032562
    vertex -9.872056 3.801092 -342.032562
  endloop
endfacet
facet normal 0.007469 -0.070989 -0.000000
  outer loop
    vertex -9.812420 3.807380 -342.032562
    vertex -9.812420 3.807379 -338.461578
    vertex -9.832299 3.805288 -342.032562
  endloop
endfacet
facet normal 0.007485 -0.070985 -0.000000
  outer loop
    vertex -9.832299 3.805288 -342.032562
    vertex -9.832298 3.805287 -338.461578
    vertex -9.852178 3.803192 -342.032562
  endloop
endfacet
facet normal 0.007469 -0.070985 -0.000000
  outer loop
    vertex -9.812420 3.807379 -338.461578
    vertex -9.832298 3.805287 -338.461578
    vertex -9.832299 3.805288 -342.032562
  endloop
endfacet
facet normal 0.007485 -0.070989 -0.000000
  outer loop
    vertex -9.832298 3.805287 -338.461578
    vertex -9.852178 3.803191 -338.461578
    vertex -9.852178 3.803192 -342.032562
  endloop
endfacet
facet normal 0.007501 -0.070985 -0.000000
  outer loop
    vertex -9.852178 3.803192 -342.032562
    vertex -9.872056 3.801091 -338.461578
    vertex -9.872056 3.801092 -342.032562
  endloop
endfacet
facet normal 0.007501 -0.070985 -0.000000
  outer loop
    vertex -9.852178 3.803191 -338.461578
    vertex -9.872056 3.801091 -338.461578
    vertex -9.852178 3.803192 -342.032562
  endloop
endfacet
facet normal 0.177571 0.018662 0.000000
  outer loop
    vertex -9.817646 3.857105 -338.461578
    vertex -9.812420 3.807379 -338.461578
    vertex -9.812420 3.807380 -342.032562
  endloop
endfacet
facet normal 0.177572 0.018662 0.000000
  outer loop
    vertex -9.817646 3.857105 -338.461578
    vertex -9.812420 3.807380 -342.032562
    vertex -9.817646 3.857106 -342.032562
  endloop
endfacet
facet normal 0.000000 0.000000 0.000999
  outer loop
    vertex -9.852178 3.803191 -338.461578
    vertex -9.877316 3.850813 -338.461578
    vertex -9.872056 3.801091 -338.461578
  endloop
endfacet
facet normal 0.000000 0.000000 0.001000
  outer loop
    vertex -9.852178 3.803191 -338.461578
    vertex -9.857426 3.852915 -338.461578
    vertex -9.877316 3.850813 -338.461578
  endloop
endfacet
facet normal 0.000000 0.000000 0.000999
  outer loop
    vertex -9.832298 3.805287 -338.461578
    vertex -9.837536 3.855012 -338.461578
    vertex -9.852178 3.803191 -338.461578
  endloop
endfacet
facet normal 0.000000 -0.000000 0.001000
  outer loop
    vertex -9.852178 3.803191 -338.461578
    vertex -9.837536 3.855012 -338.461578
    vertex -9.857426 3.852915 -338.461578
  endloop
endfacet
facet normal 0.000000 0.000000 0.000999
  outer loop
    vertex -9.812420 3.807379 -338.461578
    vertex -9.817646 3.857105 -338.461578
    vertex -9.832298 3.805287 -338.461578
  endloop
endfacet
facet normal 0.000000 -0.000000 0.001000
  outer loop
    vertex -9.832298 3.805287 -338.461578
    vertex -9.817646 3.857105 -338.461578
    vertex -9.837536 3.855012 -338.461578
  endloop
endfacet
facet normal 0.000000 0.000000 -0.000999
  outer loop
    vertex -9.877316 3.850814 -342.032562
    vertex -9.852178 3.803192 -342.032562
    vertex -9.872056 3.801092 -342.032562
  endloop
endfacet
facet normal 0.000000 0.000000 -0.000999
  outer loop
    vertex -9.857426 3.852916 -342.032562
    vertex -9.832299 3.805288 -342.032562
    vertex -9.852178 3.803192 -342.032562
  endloop
endfacet
facet normal 0.000000 -0.000000 -0.001000
  outer loop
    vertex -9.857426 3.852916 -342.032562
    vertex -9.852178 3.803192 -342.032562
    vertex -9.877316 3.850814 -342.032562
  endloop
endfacet
facet normal 0.000000 -0.000000 -0.001000
  outer loop
    vertex -9.837536 3.855013 -342.032562
    vertex -9.832299 3.805288 -342.032562
    vertex -9.857426 3.852916 -342.032562
  endloop
endfacet
facet normal 0.000000 -0.000000 -0.000999
  outer loop
    vertex -9.817646 3.857106 -342.032562
    vertex -9.812420 3.807380 -342.032562
    vertex -9.832299 3.805288 -342.032562
  endloop
endfacet
facet normal 0.000000 0.000000 -0.001000
  outer loop
    vertex -9.817646 3.857106 -342.032562
    vertex -9.832299 3.805288 -342.032562
    vertex -9.837536 3.855013 -342.032562
  endloop
endfacet
endsolid b'MESH-MESH-MESH-MESH-MESH-MESH-MESH-MESH-MESH-MESH-MESH-MESH-MESH-MESH-MESH-MESH'
