solid b'MESH-MESH-MESH-MESH-MESH-MESH-MESH-MESH-MESH-MESH-MESH-MESH-MESH-MESH-MESH-MESH'
facet normal 0.007474 0.071027 0.000000
  outer loop
    vertex 9.837534 3.855013 -327.608582
    vertex 9.817644 3.857105 -327.608582
    vertex 9.817644 3.857105 -324.037567
  endloop
endfacet
facet normal 0.007473 0.071027 0.000000
  outer loop
    vertex 9.837534 3.855013 -327.608582
    vertex 9.817644 3.857105 -324.037567
    vertex 9.837534 3.855012 -324.037567
  endloop
endfacet
facet normal 0.007490 0.071027 0.000000
  outer loop
    vertex 9.857424 3.852916 -327.608582
    vertex 9.837534 3.855012 -324.037567
    vertex 9.857424 3.852915 -324.037567
  endloop
endfacet
facet normal 0.007489 0.071027 0.000000
  outer loop
    vertex 9.857424 3.852916 -327.608582
    vertex 9.837534 3.855013 -327.608582
    vertex 9.837534 3.855012 -324.037567
  endloop
endfacet
facet normal 0.007504 0.071027 0.000000
  outer loop
    vertex 9.877314 3.850814 -327.608582
    vertex 9.857424 3.852915 -324.037567
    vertex 9.877314 3.850813 -324.037567
  endloop
endfacet
facet normal 0.007505 0.071027 0.000000
  outer loop
    vertex 9.877314 3.850814 -327.608582
    vertex 9.857424 3.852916 -327.608582
    vertex 9.857424 3.852915 -324.037567
  endloop
endfacet
facet normal 0.177560 -0.018782 -0.000000
  outer loop
    vertex 9.877314 3.850814 -327.608582
    vertex 9.872054 3.801090 -324.037567
    vertex 9.872054 3.801091 -327.608582
  endloop
endfacet
facet normal 0.177560 -0.018782 -0.000000
  outer loop
    vertex 9.877314 3.850813 -324.037567
    vertex 9.872054 3.801090 -324.037567
    vertex 9.877314 3.850814 -327.608582
  endloop
endfacet
facet normal -0.007469 -0.070989 -0.000000
  outer loop
    vertex 9.812418 3.807379 -324.037567
    vertex 9.832297 3.805288 -327.608582
    vertex 9.832297 3.805287 -324.037567
  endloop
endfacet
facet normal -0.007469 -0.070989 -0.000000
  outer loop
    vertex 9.812418 3.807379 -327.608582
    vertex 9.832297 3.805288 -327.608582
    vertex 9.812418 3.807379 -324.037567
  endloop
endfacet
facet normal -0.007485 -0.070986 -0.000000
  outer loop
    vertex 9.832297 3.805287 -324.037567
    vertex 9.852176 3.803192 -327.608582
    vertex 9.852176 3.803191 -324.037567
  endloop
endfacet
facet normal -0.007485 -0.070986 -0.000000
  outer loop
    vertex 9.832297 3.805288 -327.608582
    vertex 9.852176 3.803192 -327.608582
    vertex 9.832297 3.805287 -324.037567
  endloop
endfacet
facet normal -0.007501 -0.070986 -0.000000
  outer loop
    vertex 9.852176 3.803191 -324.037567
    vertex 9.872054 3.801091 -327.608582
    vertex 9.872054 3.801090 -324.037567
  endloop
endfacet
facet normal -0.007500 -0.070986 -0.000000
  outer loop
    vertex 9.852176 3.803192 -327.608582
    vertex 9.872054 3.801091 -327.608582
    vertex 9.852176 3.803191 -324.037567
  endloop
endfacet
facet normal -0.177572 0.018663 0.000000
  outer loop
    vertex 9.812418 3.807379 -327.608582
    vertex 9.817644 3.857105 -324.037567
    vertex 9.817644 3.857105 -327.608582
  endloop
endfacet
facet normal -0.177572 0.018663 0.000000
  outer loop
    vertex 9.812418 3.807379 -324.037567
    vertex 9.817644 3.857105 -324.037567
    vertex 9.812418 3.807379 -327.608582
  endloop
endfacet
facet normal 0.000000 0.000000 0.000999
  outer loop
    vertex 9.877314 3.850813 -324.037567
    vertex 9.852176 3.803191 -324.037567
    vertex 9.872054 3.801090 -324.037567
  endloop
endfacet
facet normal 0.000000 0.000000 0.000999
  outer loop
    vertex 9.857424 3.852915 -324.037567
    vertex 9.832297 3.805287 -324.037567
    vertex 9.852176 3.803191 -324.037567
  endloop
endfacet
facet normal 0.000000 0.000000 0.001000
  outer loop
    vertex 9.857424 3.852915 -324.037567
    vertex 9.852176 3.803191 -324.037567
    vertex 9.877314 3.850813 -324.037567
  endloop
endfacet
facet normal 0.000000 0.000000 0.001000
  outer loop
    vertex 9.837534 3.855012 -324.037567
    vertex 9.832297 3.805287 -324.037567
    vertex 9.857424 3.852915 -324.037567
  endloop
endfacet
facet normal 0.000000 0.000000 0.000999
  outer loop
    vertex 9.817644 3.857105 -324.037567
    vertex 9.812418 3.807379 -324.037567
    vertex 9.832297 3.805287 -324.037567
  endloop
endfacet
facet normal 0.000000 0.000000 0.001000
  outer loop
    vertex 9.817644 3.857105 -324.037567
    vertex 9.832297 3.805287 -324.037567
    vertex 9.837534 3.855012 -324.037567
  endloop
endfacet
facet normal 0.000000 0.000000 -0.000999
  outer loop
    vertex 9.852176 3.803192 -327.608582
    vertex 9.877314 3.850814 -327.608582
    vertex 9.872054 3.801091 -327.608582
  endloop
endfacet
facet normal 0.000000 0.000000 -0.000999
  outer loop
    vertex 9.832297 3.805288 -327.608582
    vertex 9.857424 3.852916 -327.608582
    vertex 9.852176 3.803192 -327.608582
  endloop
endfacet
facet normal 0.000000 0.000000 -0.001000
  outer loop
    vertex 9.852176 3.803192 -327.608582
    vertex 9.857424 3.852916 -327.608582
    vertex 9.877314 3.850814 -327.608582
  endloop
endfacet
facet normal 0.000000 0.000000 -0.000999
  outer loop
    vertex 9.812418 3.807379 -327.608582
    vertex 9.837534 3.855013 -327.608582
    vertex 9.832297 3.805288 -327.608582
  endloop
endfacet
facet normal 0.000000 0.000000 -0.001000
  outer loop
    vertex 9.832297 3.805288 -327.608582
    vertex 9.837534 3.855013 -327.608582
    vertex 9.857424 3.852916 -327.608582
  endloop
endfacet
facet normal 0.000000 0.000000 -0.001000
  outer loop
    vertex 9.812418 3.807379 -327.608582
    vertex 9.817644 3.857105 -327.608582
    vertex 9.837534 3.855013 -327.608582
  endloop
endfacet
endsolid b'MESH-MESH-MESH-MESH-MESH-MESH-MESH-MESH-MESH-MESH-MESH-MESH-MESH-MESH-MESH-MESH'
