solid b'MESH-MESH-MESH-MESH-MESH-MESH-MESH-MESH-MESH-MESH-MESH-MESH-MESH-MESH-MESH-MESH'
facet normal -0.007426 -0.071034 0.000000
  outer loop
    vertex -9.757967 -3.863358 327.628571
    vertex -9.757967 -3.863358 331.199585
    vertex -9.777859 -3.861278 331.199585
  endloop
endfacet
facet normal -0.007442 -0.071030 -0.000000
  outer loop
    vertex -9.777859 -3.861278 327.628571
    vertex -9.777859 -3.861278 331.199585
    vertex -9.797750 -3.859194 331.199585
  endloop
endfacet
facet normal -0.007427 -0.071034 -0.000000
  outer loop
    vertex -9.777859 -3.861278 327.628571
    vertex -9.757967 -3.863358 327.628571
    vertex -9.777859 -3.861278 331.199585
  endloop
endfacet
facet normal -0.007441 -0.071030 0.000000
  outer loop
    vertex -9.797750 -3.859194 327.628571
    vertex -9.777859 -3.861278 327.628571
    vertex -9.797750 -3.859194 331.199585
  endloop
endfacet
facet normal -0.007457 -0.071030 -0.000000
  outer loop
    vertex -9.817640 -3.857105 327.628571
    vertex -9.797750 -3.859194 331.199585
    vertex -9.817640 -3.857106 331.199585
  endloop
endfacet
facet normal -0.007458 -0.071030 0.000000
  outer loop
    vertex -9.817640 -3.857105 327.628571
    vertex -9.797750 -3.859194 327.628571
    vertex -9.797750 -3.859194 331.199585
  endloop
endfacet
facet normal -0.177572 0.018663 0.000000
  outer loop
    vertex -9.812414 -3.807379 327.628571
    vertex -9.817640 -3.857105 327.628571
    vertex -9.817640 -3.857106 331.199585
  endloop
endfacet
facet normal -0.177572 0.018663 0.000000
  outer loop
    vertex -9.812414 -3.807379 327.628571
    vertex -9.817640 -3.857106 331.199585
    vertex -9.812414 -3.807380 331.199585
  endloop
endfacet
facet normal 0.007422 0.070996 0.000000
  outer loop
    vertex -9.752773 -3.813628 331.199585
    vertex -9.752773 -3.813628 327.628571
    vertex -9.772655 -3.811550 331.199585
  endloop
endfacet
facet normal 0.007422 0.070996 0.000000
  outer loop
    vertex -9.752773 -3.813628 327.628571
    vertex -9.772655 -3.811549 327.628571
    vertex -9.772655 -3.811550 331.199585
  endloop
endfacet
facet normal 0.007438 0.070989 0.000000
  outer loop
    vertex -9.772655 -3.811550 331.199585
    vertex -9.792535 -3.809467 327.628571
    vertex -9.792534 -3.809467 331.199585
  endloop
endfacet
facet normal 0.007438 0.070993 0.000000
  outer loop
    vertex -9.772655 -3.811549 327.628571
    vertex -9.792535 -3.809467 327.628571
    vertex -9.772655 -3.811550 331.199585
  endloop
endfacet
facet normal 0.007453 0.070993 0.000000
  outer loop
    vertex -9.792534 -3.809467 331.199585
    vertex -9.812414 -3.807379 327.628571
    vertex -9.812414 -3.807380 331.199585
  endloop
endfacet
facet normal 0.007453 0.070989 0.000000
  outer loop
    vertex -9.792535 -3.809467 327.628571
    vertex -9.812414 -3.807379 327.628571
    vertex -9.792534 -3.809467 331.199585
  endloop
endfacet
facet normal 0.177585 -0.018547 0.000000
  outer loop
    vertex -9.752773 -3.813628 327.628571
    vertex -9.752773 -3.813628 331.199585
    vertex -9.757967 -3.863358 331.199585
  endloop
endfacet
facet normal 0.177585 -0.018547 0.000000
  outer loop
    vertex -9.757967 -3.863358 327.628571
    vertex -9.752773 -3.813628 327.628571
    vertex -9.757967 -3.863358 331.199585
  endloop
endfacet
facet normal -0.000000 0.000000 -0.000999
  outer loop
    vertex -9.792535 -3.809467 327.628571
    vertex -9.817640 -3.857105 327.628571
    vertex -9.812414 -3.807379 327.628571
  endloop
endfacet
facet normal 0.000000 0.000000 -0.001000
  outer loop
    vertex -9.792535 -3.809467 327.628571
    vertex -9.797750 -3.859194 327.628571
    vertex -9.817640 -3.857105 327.628571
  endloop
endfacet
facet normal -0.000000 0.000000 -0.000999
  outer loop
    vertex -9.772655 -3.811549 327.628571
    vertex -9.777859 -3.861278 327.628571
    vertex -9.792535 -3.809467 327.628571
  endloop
endfacet
facet normal 0.000000 -0.000000 -0.001000
  outer loop
    vertex -9.792535 -3.809467 327.628571
    vertex -9.777859 -3.861278 327.628571
    vertex -9.797750 -3.859194 327.628571
  endloop
endfacet
facet normal -0.000000 0.000000 -0.000999
  outer loop
    vertex -9.752773 -3.813628 327.628571
    vertex -9.757967 -3.863358 327.628571
    vertex -9.772655 -3.811549 327.628571
  endloop
endfacet
facet normal 0.000000 -0.000000 -0.001000
  outer loop
    vertex -9.772655 -3.811549 327.628571
    vertex -9.757967 -3.863358 327.628571
    vertex -9.777859 -3.861278 327.628571
  endloop
endfacet
facet normal 0.000000 0.000000 0.000999
  outer loop
    vertex -9.817640 -3.857106 331.199585
    vertex -9.792534 -3.809467 331.199585
    vertex -9.812414 -3.807380 331.199585
  endloop
endfacet
facet normal 0.000000 0.000000 0.000999
  outer loop
    vertex -9.797750 -3.859194 331.199585
    vertex -9.772655 -3.811550 331.199585
    vertex -9.792534 -3.809467 331.199585
  endloop
endfacet
facet normal 0.000000 -0.000000 0.001000
  outer loop
    vertex -9.797750 -3.859194 331.199585
    vertex -9.792534 -3.809467 331.199585
    vertex -9.817640 -3.857106 331.199585
  endloop
endfacet
facet normal 0.000000 -0.000000 0.001000
  outer loop
    vertex -9.777859 -3.861278 331.199585
    vertex -9.772655 -3.811550 331.199585
    vertex -9.797750 -3.859194 331.199585
  endloop
endfacet
facet normal 0.000000 -0.000000 0.000999
  outer loop
    vertex -9.757967 -3.863358 331.199585
    vertex -9.752773 -3.813628 331.199585
    vertex -9.772655 -3.811550 331.199585
  endloop
endfacet
facet normal 0.000000 0.000000 0.001000
  outer loop
    vertex -9.757967 -3.863358 331.199585
    vertex -9.772655 -3.811550 331.199585
    vertex -9.777859 -3.861278 331.199585
  endloop
endfacet
endsolid b'MESH-MESH-MESH-MESH-MESH-MESH-MESH-MESH-MESH-MESH-MESH-MESH-MESH-MESH-MESH-MESH'
