solid b'MESH-MESH-MESH-MESH-MESH-MESH-MESH-MESH-MESH-MESH-MESH-MESH-MESH-MESH-MESH-MESH'
facet normal -0.007427 -0.071030 0.000000
  outer loop
    vertex -9.777879 -3.861277 425.125580
    vertex -9.757988 -3.863356 425.125580
    vertex -9.757988 -3.863356 428.696564
  endloop
endfacet
facet normal -0.007427 -0.071030 0.000000
  outer loop
    vertex -9.777879 -3.861277 425.125580
    vertex -9.757988 -3.863356 428.696564
    vertex -9.777879 -3.861277 428.696564
  endloop
endfacet
facet normal -0.007441 -0.071033 0.000000
  outer loop
    vertex -9.797771 -3.859193 425.125580
    vertex -9.777879 -3.861277 428.696564
    vertex -9.797771 -3.859193 428.696564
  endloop
endfacet
facet normal -0.007441 -0.071033 0.000000
  outer loop
    vertex -9.797771 -3.859193 425.125580
    vertex -9.777879 -3.861277 425.125580
    vertex -9.777879 -3.861277 428.696564
  endloop
endfacet
facet normal -0.007458 -0.071030 0.000000
  outer loop
    vertex -9.817661 -3.857104 425.125580
    vertex -9.797771 -3.859193 428.696564
    vertex -9.817661 -3.857104 428.696564
  endloop
endfacet
facet normal -0.007458 -0.071030 0.000000
  outer loop
    vertex -9.817661 -3.857104 425.125580
    vertex -9.797771 -3.859193 425.125580
    vertex -9.797771 -3.859193 428.696564
  endloop
endfacet
facet normal -0.177571 0.018666 0.000000
  outer loop
    vertex -9.817661 -3.857104 425.125580
    vertex -9.817661 -3.857104 428.696564
    vertex -9.812434 -3.807378 428.696564
  endloop
endfacet
facet normal -0.177571 0.018666 0.000000
  outer loop
    vertex -9.812434 -3.807378 425.125580
    vertex -9.817661 -3.857104 425.125580
    vertex -9.812434 -3.807378 428.696564
  endloop
endfacet
facet normal 0.007422 0.070992 0.000000
  outer loop
    vertex -9.752794 -3.813627 428.696564
    vertex -9.752794 -3.813627 425.125580
    vertex -9.772675 -3.811548 428.696564
  endloop
endfacet
facet normal 0.007422 0.070992 0.000000
  outer loop
    vertex -9.752794 -3.813627 425.125580
    vertex -9.772675 -3.811548 425.125580
    vertex -9.772675 -3.811548 428.696564
  endloop
endfacet
facet normal 0.007438 0.070992 0.000000
  outer loop
    vertex -9.772675 -3.811548 428.696564
    vertex -9.792555 -3.809465 425.125580
    vertex -9.792555 -3.809465 428.696564
  endloop
endfacet
facet normal 0.007438 0.070992 -0.000000
  outer loop
    vertex -9.772675 -3.811548 425.125580
    vertex -9.792555 -3.809465 425.125580
    vertex -9.772675 -3.811548 428.696564
  endloop
endfacet
facet normal 0.007453 0.070989 0.000000
  outer loop
    vertex -9.792555 -3.809465 428.696564
    vertex -9.812434 -3.807378 425.125580
    vertex -9.812434 -3.807378 428.696564
  endloop
endfacet
facet normal 0.007453 0.070989 -0.000000
  outer loop
    vertex -9.792555 -3.809465 425.125580
    vertex -9.812434 -3.807378 425.125580
    vertex -9.792555 -3.809465 428.696564
  endloop
endfacet
facet normal 0.177584 -0.018547 0.000000
  outer loop
    vertex -9.752794 -3.813627 425.125580
    vertex -9.752794 -3.813627 428.696564
    vertex -9.757988 -3.863356 428.696564
  endloop
endfacet
facet normal 0.177584 -0.018547 0.000000
  outer loop
    vertex -9.757988 -3.863356 425.125580
    vertex -9.752794 -3.813627 425.125580
    vertex -9.757988 -3.863356 428.696564
  endloop
endfacet
facet normal -0.000000 0.000000 -0.000999
  outer loop
    vertex -9.792555 -3.809465 425.125580
    vertex -9.817661 -3.857104 425.125580
    vertex -9.812434 -3.807378 425.125580
  endloop
endfacet
facet normal -0.000000 0.000000 -0.000999
  outer loop
    vertex -9.772675 -3.811548 425.125580
    vertex -9.797771 -3.859193 425.125580
    vertex -9.792555 -3.809465 425.125580
  endloop
endfacet
facet normal 0.000000 0.000000 -0.001000
  outer loop
    vertex -9.792555 -3.809465 425.125580
    vertex -9.797771 -3.859193 425.125580
    vertex -9.817661 -3.857104 425.125580
  endloop
endfacet
facet normal 0.000000 0.000000 -0.001000
  outer loop
    vertex -9.772675 -3.811548 425.125580
    vertex -9.777879 -3.861277 425.125580
    vertex -9.797771 -3.859193 425.125580
  endloop
endfacet
facet normal -0.000000 0.000000 -0.000999
  outer loop
    vertex -9.752794 -3.813627 425.125580
    vertex -9.757988 -3.863356 425.125580
    vertex -9.772675 -3.811548 425.125580
  endloop
endfacet
facet normal 0.000000 -0.000000 -0.001000
  outer loop
    vertex -9.772675 -3.811548 425.125580
    vertex -9.757988 -3.863356 425.125580
    vertex -9.777879 -3.861277 425.125580
  endloop
endfacet
facet normal 0.000000 0.000000 0.000999
  outer loop
    vertex -9.817661 -3.857104 428.696564
    vertex -9.792555 -3.809465 428.696564
    vertex -9.812434 -3.807378 428.696564
  endloop
endfacet
facet normal 0.000000 -0.000000 0.001000
  outer loop
    vertex -9.797771 -3.859193 428.696564
    vertex -9.792555 -3.809465 428.696564
    vertex -9.817661 -3.857104 428.696564
  endloop
endfacet
facet normal 0.000000 -0.000000 0.000999
  outer loop
    vertex -9.777879 -3.861277 428.696564
    vertex -9.772675 -3.811548 428.696564
    vertex -9.792555 -3.809465 428.696564
  endloop
endfacet
facet normal 0.000000 0.000000 0.001000
  outer loop
    vertex -9.777879 -3.861277 428.696564
    vertex -9.792555 -3.809465 428.696564
    vertex -9.797771 -3.859193 428.696564
  endloop
endfacet
facet normal 0.000000 -0.000000 0.000999
  outer loop
    vertex -9.757988 -3.863356 428.696564
    vertex -9.752794 -3.813627 428.696564
    vertex -9.772675 -3.811548 428.696564
  endloop
endfacet
facet normal 0.000000 0.000000 0.001000
  outer loop
    vertex -9.757988 -3.863356 428.696564
    vertex -9.772675 -3.811548 428.696564
    vertex -9.777879 -3.861277 428.696564
  endloop
endfacet
endsolid b'MESH-MESH-MESH-MESH-MESH-MESH-MESH-MESH-MESH-MESH-MESH-MESH-MESH-MESH-MESH-MESH'
