solid b'MESH-MESH-MESH-MESH-MESH-MESH-MESH-MESH-MESH-MESH-MESH-MESH-MESH-MESH-MESH-MESH'
facet normal -0.007474 0.071030 -0.000000
  outer loop
    vertex -9.817649 3.857105 29.489305
    vertex -9.817649 3.857105 25.918304
    vertex -9.837540 3.855012 25.918304
  endloop
endfacet
facet normal -0.007473 0.071030 -0.000000
  outer loop
    vertex -9.837540 3.855013 29.489305
    vertex -9.817649 3.857105 29.489305
    vertex -9.837540 3.855012 25.918304
  endloop
endfacet
facet normal -0.007489 0.071027 -0.000000
  outer loop
    vertex -9.857430 3.852916 29.489305
    vertex -9.837540 3.855012 25.918304
    vertex -9.857430 3.852915 25.918304
  endloop
endfacet
facet normal -0.007490 0.071027 -0.000000
  outer loop
    vertex -9.857430 3.852916 29.489305
    vertex -9.837540 3.855013 29.489305
    vertex -9.837540 3.855012 25.918304
  endloop
endfacet
facet normal -0.007505 0.071023 -0.000000
  outer loop
    vertex -9.877318 3.850814 29.489305
    vertex -9.857430 3.852915 25.918304
    vertex -9.877318 3.850813 25.918304
  endloop
endfacet
facet normal -0.007504 0.071023 -0.000000
  outer loop
    vertex -9.877318 3.850814 29.489305
    vertex -9.857430 3.852916 29.489305
    vertex -9.857430 3.852915 25.918304
  endloop
endfacet
facet normal -0.177560 -0.018782 0.000000
  outer loop
    vertex -9.877318 3.850814 29.489305
    vertex -9.877318 3.850813 25.918304
    vertex -9.872059 3.801091 29.489305
  endloop
endfacet
facet normal -0.177560 -0.018782 0.000000
  outer loop
    vertex -9.877318 3.850813 25.918304
    vertex -9.872059 3.801090 25.918304
    vertex -9.872059 3.801091 29.489305
  endloop
endfacet
facet normal 0.007469 -0.070989 0.000000
  outer loop
    vertex -9.812423 3.807379 25.918304
    vertex -9.812423 3.807379 29.489305
    vertex -9.832302 3.805287 25.918304
  endloop
endfacet
facet normal 0.007469 -0.070989 0.000000
  outer loop
    vertex -9.812423 3.807379 29.489305
    vertex -9.832302 3.805288 29.489305
    vertex -9.832302 3.805287 25.918304
  endloop
endfacet
facet normal 0.007485 -0.070986 0.000000
  outer loop
    vertex -9.832302 3.805287 25.918304
    vertex -9.852180 3.803192 29.489305
    vertex -9.852180 3.803191 25.918304
  endloop
endfacet
facet normal 0.007501 -0.070986 0.000000
  outer loop
    vertex -9.852180 3.803191 25.918304
    vertex -9.852180 3.803192 29.489305
    vertex -9.872059 3.801090 25.918304
  endloop
endfacet
facet normal 0.007485 -0.070986 0.000000
  outer loop
    vertex -9.832302 3.805288 29.489305
    vertex -9.852180 3.803192 29.489305
    vertex -9.832302 3.805287 25.918304
  endloop
endfacet
facet normal 0.007501 -0.070986 0.000000
  outer loop
    vertex -9.852180 3.803192 29.489305
    vertex -9.872059 3.801091 29.489305
    vertex -9.872059 3.801090 25.918304
  endloop
endfacet
facet normal 0.177572 0.018663 -0.000000
  outer loop
    vertex -9.812423 3.807379 29.489305
    vertex -9.817649 3.857105 25.918304
    vertex -9.817649 3.857105 29.489305
  endloop
endfacet
facet normal 0.177572 0.018663 -0.000000
  outer loop
    vertex -9.812423 3.807379 25.918304
    vertex -9.817649 3.857105 25.918304
    vertex -9.812423 3.807379 29.489305
  endloop
endfacet
facet normal 0.000000 0.000000 -0.000999
  outer loop
    vertex -9.877318 3.850813 25.918304
    vertex -9.852180 3.803191 25.918304
    vertex -9.872059 3.801090 25.918304
  endloop
endfacet
facet normal 0.000000 0.000000 -0.000999
  outer loop
    vertex -9.857430 3.852915 25.918304
    vertex -9.832302 3.805287 25.918304
    vertex -9.852180 3.803191 25.918304
  endloop
endfacet
facet normal 0.000000 -0.000000 -0.001000
  outer loop
    vertex -9.857430 3.852915 25.918304
    vertex -9.852180 3.803191 25.918304
    vertex -9.877318 3.850813 25.918304
  endloop
endfacet
facet normal 0.000000 -0.000000 -0.001000
  outer loop
    vertex -9.837540 3.855012 25.918304
    vertex -9.832302 3.805287 25.918304
    vertex -9.857430 3.852915 25.918304
  endloop
endfacet
facet normal 0.000000 -0.000000 -0.000999
  outer loop
    vertex -9.817649 3.857105 25.918304
    vertex -9.812423 3.807379 25.918304
    vertex -9.832302 3.805287 25.918304
  endloop
endfacet
facet normal 0.000000 0.000000 -0.001000
  outer loop
    vertex -9.817649 3.857105 25.918304
    vertex -9.832302 3.805287 25.918304
    vertex -9.837540 3.855012 25.918304
  endloop
endfacet
facet normal 0.000000 0.000000 0.000999
  outer loop
    vertex -9.852180 3.803192 29.489305
    vertex -9.877318 3.850814 29.489305
    vertex -9.872059 3.801091 29.489305
  endloop
endfacet
facet normal 0.000000 0.000000 0.001000
  outer loop
    vertex -9.852180 3.803192 29.489305
    vertex -9.857430 3.852916 29.489305
    vertex -9.877318 3.850814 29.489305
  endloop
endfacet
facet normal 0.000000 0.000000 0.000999
  outer loop
    vertex -9.832302 3.805288 29.489305
    vertex -9.837540 3.855013 29.489305
    vertex -9.852180 3.803192 29.489305
  endloop
endfacet
facet normal 0.000000 -0.000000 0.001000
  outer loop
    vertex -9.852180 3.803192 29.489305
    vertex -9.837540 3.855013 29.489305
    vertex -9.857430 3.852916 29.489305
  endloop
endfacet
facet normal 0.000000 0.000000 0.000999
  outer loop
    vertex -9.812423 3.807379 29.489305
    vertex -9.817649 3.857105 29.489305
    vertex -9.832302 3.805288 29.489305
  endloop
endfacet
facet normal 0.000000 -0.000000 0.001000
  outer loop
    vertex -9.832302 3.805288 29.489305
    vertex -9.817649 3.857105 29.489305
    vertex -9.837540 3.855013 29.489305
  endloop
endfacet
endsolid b'MESH-MESH-MESH-MESH-MESH-MESH-MESH-MESH-MESH-MESH-MESH-MESH-MESH-MESH-MESH-MESH'
