solid b'MESH-MESH-MESH-MESH-MESH-MESH-MESH-MESH-MESH-MESH-MESH-MESH-MESH-MESH-MESH-MESH'
facet normal 0.007426 -0.071030 0.000000
  outer loop
    vertex 9.757977 -3.863357 -59.323124
    vertex 9.757977 -3.863357 -62.894123
    vertex 9.777868 -3.861278 -62.894123
  endloop
endfacet
facet normal 0.007427 -0.071033 0.000000
  outer loop
    vertex 9.777869 -3.861278 -59.323124
    vertex 9.757977 -3.863357 -59.323124
    vertex 9.777868 -3.861278 -62.894123
  endloop
endfacet
facet normal 0.007442 -0.071033 0.000000
  outer loop
    vertex 9.797760 -3.859194 -59.323124
    vertex 9.777868 -3.861278 -62.894123
    vertex 9.797760 -3.859194 -62.894123
  endloop
endfacet
facet normal 0.007441 -0.071030 0.000000
  outer loop
    vertex 9.797760 -3.859194 -59.323124
    vertex 9.777869 -3.861278 -59.323124
    vertex 9.777868 -3.861278 -62.894123
  endloop
endfacet
facet normal 0.007457 -0.071030 0.000000
  outer loop
    vertex 9.817651 -3.857105 -59.323124
    vertex 9.797760 -3.859194 -62.894123
    vertex 9.817651 -3.857105 -62.894123
  endloop
endfacet
facet normal 0.007458 -0.071030 0.000000
  outer loop
    vertex 9.817651 -3.857105 -59.323124
    vertex 9.797760 -3.859194 -59.323124
    vertex 9.797760 -3.859194 -62.894123
  endloop
endfacet
facet normal 0.177572 0.018663 -0.000000
  outer loop
    vertex 9.812425 -3.807379 -59.323124
    vertex 9.817651 -3.857105 -59.323124
    vertex 9.817651 -3.857105 -62.894123
  endloop
endfacet
facet normal 0.177572 0.018666 -0.000000
  outer loop
    vertex 9.812425 -3.807379 -59.323124
    vertex 9.817651 -3.857105 -62.894123
    vertex 9.812424 -3.807379 -62.894123
  endloop
endfacet
facet normal -0.007422 0.070993 0.000000
  outer loop
    vertex 9.752784 -3.813628 -62.894123
    vertex 9.752784 -3.813628 -59.323124
    vertex 9.772664 -3.811549 -62.894123
  endloop
endfacet
facet normal -0.007422 0.070993 -0.000000
  outer loop
    vertex 9.752784 -3.813628 -59.323124
    vertex 9.772664 -3.811549 -59.323124
    vertex 9.772664 -3.811549 -62.894123
  endloop
endfacet
facet normal -0.007438 0.070993 -0.000000
  outer loop
    vertex 9.772664 -3.811549 -62.894123
    vertex 9.792544 -3.809466 -59.323124
    vertex 9.792544 -3.809467 -62.894123
  endloop
endfacet
facet normal -0.007438 0.070993 -0.000000
  outer loop
    vertex 9.772664 -3.811549 -59.323124
    vertex 9.792544 -3.809466 -59.323124
    vertex 9.772664 -3.811549 -62.894123
  endloop
endfacet
facet normal -0.007454 0.070989 0.000000
  outer loop
    vertex 9.792544 -3.809467 -62.894123
    vertex 9.812425 -3.807379 -59.323124
    vertex 9.812424 -3.807379 -62.894123
  endloop
endfacet
facet normal -0.007453 0.070993 -0.000000
  outer loop
    vertex 9.792544 -3.809466 -59.323124
    vertex 9.812425 -3.807379 -59.323124
    vertex 9.792544 -3.809467 -62.894123
  endloop
endfacet
facet normal -0.177584 -0.018547 -0.000000
  outer loop
    vertex 9.752784 -3.813628 -59.323124
    vertex 9.752784 -3.813628 -62.894123
    vertex 9.757977 -3.863357 -62.894123
  endloop
endfacet
facet normal -0.177584 -0.018547 -0.000000
  outer loop
    vertex 9.757977 -3.863357 -59.323124
    vertex 9.752784 -3.813628 -59.323124
    vertex 9.757977 -3.863357 -62.894123
  endloop
endfacet
facet normal -0.000000 0.000000 0.000999
  outer loop
    vertex 9.792544 -3.809466 -59.323124
    vertex 9.817651 -3.857105 -59.323124
    vertex 9.812425 -3.807379 -59.323124
  endloop
endfacet
facet normal 0.000000 0.000000 0.001000
  outer loop
    vertex 9.792544 -3.809466 -59.323124
    vertex 9.797760 -3.859194 -59.323124
    vertex 9.817651 -3.857105 -59.323124
  endloop
endfacet
facet normal -0.000000 0.000000 0.000999
  outer loop
    vertex 9.772664 -3.811549 -59.323124
    vertex 9.777869 -3.861278 -59.323124
    vertex 9.792544 -3.809466 -59.323124
  endloop
endfacet
facet normal 0.000000 0.000000 0.001000
  outer loop
    vertex 9.792544 -3.809466 -59.323124
    vertex 9.777869 -3.861278 -59.323124
    vertex 9.797760 -3.859194 -59.323124
  endloop
endfacet
facet normal -0.000000 0.000000 0.000999
  outer loop
    vertex 9.752784 -3.813628 -59.323124
    vertex 9.757977 -3.863357 -59.323124
    vertex 9.772664 -3.811549 -59.323124
  endloop
endfacet
facet normal 0.000000 0.000000 0.001000
  outer loop
    vertex 9.772664 -3.811549 -59.323124
    vertex 9.757977 -3.863357 -59.323124
    vertex 9.777869 -3.861278 -59.323124
  endloop
endfacet
facet normal 0.000000 0.000000 -0.000999
  outer loop
    vertex 9.817651 -3.857105 -62.894123
    vertex 9.792544 -3.809467 -62.894123
    vertex 9.812424 -3.807379 -62.894123
  endloop
endfacet
facet normal 0.000000 0.000000 -0.000999
  outer loop
    vertex 9.797760 -3.859194 -62.894123
    vertex 9.772664 -3.811549 -62.894123
    vertex 9.792544 -3.809467 -62.894123
  endloop
endfacet
facet normal 0.000000 0.000000 -0.001000
  outer loop
    vertex 9.797760 -3.859194 -62.894123
    vertex 9.792544 -3.809467 -62.894123
    vertex 9.817651 -3.857105 -62.894123
  endloop
endfacet
facet normal 0.000000 0.000000 -0.001000
  outer loop
    vertex 9.777868 -3.861278 -62.894123
    vertex 9.772664 -3.811549 -62.894123
    vertex 9.797760 -3.859194 -62.894123
  endloop
endfacet
facet normal 0.000000 0.000000 -0.000999
  outer loop
    vertex 9.757977 -3.863357 -62.894123
    vertex 9.752784 -3.813628 -62.894123
    vertex 9.772664 -3.811549 -62.894123
  endloop
endfacet
facet normal 0.000000 0.000000 -0.001000
  outer loop
    vertex 9.757977 -3.863357 -62.894123
    vertex 9.772664 -3.811549 -62.894123
    vertex 9.777868 -3.861278 -62.894123
  endloop
endfacet
endsolid b'MESH-MESH-MESH-MESH-MESH-MESH-MESH-MESH-MESH-MESH-MESH-MESH-MESH-MESH-MESH-MESH'
