solid b'MESH-MESH-MESH-MESH-MESH-MESH-MESH-MESH-MESH-MESH-MESH-MESH-MESH-MESH-MESH-MESH'
facet normal 0.007474 0.071027 0.000000
  outer loop
    vertex 9.837555 3.855011 -206.555878
    vertex 9.817665 3.857104 -206.555878
    vertex 9.817665 3.857104 -202.984879
  endloop
endfacet
facet normal 0.007474 0.071027 0.000000
  outer loop
    vertex 9.837555 3.855011 -206.555878
    vertex 9.817665 3.857104 -202.984879
    vertex 9.837555 3.855011 -202.984879
  endloop
endfacet
facet normal 0.007489 0.071027 0.000000
  outer loop
    vertex 9.857445 3.852914 -206.555878
    vertex 9.837555 3.855011 -202.984879
    vertex 9.857445 3.852914 -202.984879
  endloop
endfacet
facet normal 0.007505 0.071027 0.000000
  outer loop
    vertex 9.857445 3.852914 -206.555878
    vertex 9.857445 3.852914 -202.984879
    vertex 9.877335 3.850812 -202.984879
  endloop
endfacet
facet normal 0.007489 0.071027 0.000000
  outer loop
    vertex 9.857445 3.852914 -206.555878
    vertex 9.837555 3.855011 -206.555878
    vertex 9.837555 3.855011 -202.984879
  endloop
endfacet
facet normal 0.007505 0.071027 0.000000
  outer loop
    vertex 9.877335 3.850813 -206.555878
    vertex 9.857445 3.852914 -206.555878
    vertex 9.877335 3.850812 -202.984879
  endloop
endfacet
facet normal 0.177560 -0.018782 -0.000000
  outer loop
    vertex 9.877335 3.850813 -206.555878
    vertex 9.877335 3.850812 -202.984879
    vertex 9.872075 3.801090 -206.555878
  endloop
endfacet
facet normal 0.177560 -0.018782 -0.000000
  outer loop
    vertex 9.877335 3.850812 -202.984879
    vertex 9.872075 3.801089 -202.984879
    vertex 9.872075 3.801090 -206.555878
  endloop
endfacet
facet normal -0.007468 -0.070989 -0.000000
  outer loop
    vertex 9.812439 3.807377 -202.984879
    vertex 9.812439 3.807378 -206.555878
    vertex 9.832318 3.805286 -202.984879
  endloop
endfacet
facet normal -0.007468 -0.070989 -0.000000
  outer loop
    vertex 9.812439 3.807378 -206.555878
    vertex 9.832318 3.805287 -206.555878
    vertex 9.832318 3.805286 -202.984879
  endloop
endfacet
facet normal -0.007485 -0.070986 -0.000000
  outer loop
    vertex 9.832318 3.805286 -202.984879
    vertex 9.852197 3.803190 -206.555878
    vertex 9.852197 3.803190 -202.984879
  endloop
endfacet
facet normal -0.007501 -0.070986 -0.000000
  outer loop
    vertex 9.852197 3.803190 -202.984879
    vertex 9.852197 3.803190 -206.555878
    vertex 9.872075 3.801089 -202.984879
  endloop
endfacet
facet normal -0.007485 -0.070986 -0.000000
  outer loop
    vertex 9.832318 3.805287 -206.555878
    vertex 9.852197 3.803190 -206.555878
    vertex 9.832318 3.805286 -202.984879
  endloop
endfacet
facet normal -0.007501 -0.070986 -0.000000
  outer loop
    vertex 9.852197 3.803190 -206.555878
    vertex 9.872075 3.801090 -206.555878
    vertex 9.872075 3.801089 -202.984879
  endloop
endfacet
facet normal -0.177572 0.018663 0.000000
  outer loop
    vertex 9.812439 3.807378 -206.555878
    vertex 9.812439 3.807377 -202.984879
    vertex 9.817665 3.857104 -206.555878
  endloop
endfacet
facet normal -0.177572 0.018663 0.000000
  outer loop
    vertex 9.812439 3.807377 -202.984879
    vertex 9.817665 3.857104 -202.984879
    vertex 9.817665 3.857104 -206.555878
  endloop
endfacet
facet normal 0.000000 0.000000 0.000999
  outer loop
    vertex 9.877335 3.850812 -202.984879
    vertex 9.852197 3.803190 -202.984879
    vertex 9.872075 3.801089 -202.984879
  endloop
endfacet
facet normal 0.000000 0.000000 0.000999
  outer loop
    vertex 9.857445 3.852914 -202.984879
    vertex 9.832318 3.805286 -202.984879
    vertex 9.852197 3.803190 -202.984879
  endloop
endfacet
facet normal 0.000000 0.000000 0.001000
  outer loop
    vertex 9.857445 3.852914 -202.984879
    vertex 9.852197 3.803190 -202.984879
    vertex 9.877335 3.850812 -202.984879
  endloop
endfacet
facet normal 0.000000 0.000000 0.001000
  outer loop
    vertex 9.837555 3.855011 -202.984879
    vertex 9.832318 3.805286 -202.984879
    vertex 9.857445 3.852914 -202.984879
  endloop
endfacet
facet normal 0.000000 0.000000 0.000999
  outer loop
    vertex 9.817665 3.857104 -202.984879
    vertex 9.812439 3.807377 -202.984879
    vertex 9.832318 3.805286 -202.984879
  endloop
endfacet
facet normal 0.000000 0.000000 0.001000
  outer loop
    vertex 9.817665 3.857104 -202.984879
    vertex 9.832318 3.805286 -202.984879
    vertex 9.837555 3.855011 -202.984879
  endloop
endfacet
facet normal 0.000000 0.000000 -0.000999
  outer loop
    vertex 9.852197 3.803190 -206.555878
    vertex 9.877335 3.850813 -206.555878
    vertex 9.872075 3.801090 -206.555878
  endloop
endfacet
facet normal 0.000000 0.000000 -0.000999
  outer loop
    vertex 9.832318 3.805287 -206.555878
    vertex 9.857445 3.852914 -206.555878
    vertex 9.852197 3.803190 -206.555878
  endloop
endfacet
facet normal 0.000000 0.000000 -0.001000
  outer loop
    vertex 9.852197 3.803190 -206.555878
    vertex 9.857445 3.852914 -206.555878
    vertex 9.877335 3.850813 -206.555878
  endloop
endfacet
facet normal 0.000000 0.000000 -0.000999
  outer loop
    vertex 9.812439 3.807378 -206.555878
    vertex 9.837555 3.855011 -206.555878
    vertex 9.832318 3.805287 -206.555878
  endloop
endfacet
facet normal 0.000000 0.000000 -0.001000
  outer loop
    vertex 9.832318 3.805287 -206.555878
    vertex 9.837555 3.855011 -206.555878
    vertex 9.857445 3.852914 -206.555878
  endloop
endfacet
facet normal 0.000000 0.000000 -0.001000
  outer loop
    vertex 9.812439 3.807378 -206.555878
    vertex 9.817665 3.857104 -206.555878
    vertex 9.837555 3.855011 -206.555878
  endloop
endfacet
endsolid b'MESH-MESH-MESH-MESH-MESH-MESH-MESH-MESH-MESH-MESH-MESH-MESH-MESH-MESH-MESH-MESH'
