solid b'MESH-MESH-MESH-MESH-MESH-MESH-MESH-MESH-MESH-MESH-MESH-MESH-MESH-MESH-MESH-MESH'
facet normal 0.007474 0.071027 0.000000
  outer loop
    vertex 9.837551 3.855012 -188.540878
    vertex 9.817661 3.857105 -188.540878
    vertex 9.817661 3.857104 -184.969879
  endloop
endfacet
facet normal 0.007474 0.071027 0.000000
  outer loop
    vertex 9.837551 3.855012 -188.540878
    vertex 9.817661 3.857104 -184.969879
    vertex 9.837551 3.855011 -184.969879
  endloop
endfacet
facet normal 0.007489 0.071027 0.000000
  outer loop
    vertex 9.837551 3.855012 -188.540878
    vertex 9.837551 3.855011 -184.969879
    vertex 9.857441 3.852914 -184.969879
  endloop
endfacet
facet normal 0.007505 0.071027 0.000000
  outer loop
    vertex 9.857441 3.852915 -188.540878
    vertex 9.857441 3.852914 -184.969879
    vertex 9.877331 3.850813 -184.969879
  endloop
endfacet
facet normal 0.007489 0.071027 0.000000
  outer loop
    vertex 9.857441 3.852915 -188.540878
    vertex 9.837551 3.855012 -188.540878
    vertex 9.857441 3.852914 -184.969879
  endloop
endfacet
facet normal 0.007505 0.071027 0.000000
  outer loop
    vertex 9.877331 3.850813 -188.540878
    vertex 9.857441 3.852915 -188.540878
    vertex 9.877331 3.850813 -184.969879
  endloop
endfacet
facet normal 0.177560 -0.018785 -0.000000
  outer loop
    vertex 9.877331 3.850813 -188.540878
    vertex 9.872070 3.801090 -184.969879
    vertex 9.872070 3.801091 -188.540878
  endloop
endfacet
facet normal 0.177560 -0.018785 -0.000000
  outer loop
    vertex 9.877331 3.850813 -184.969879
    vertex 9.872070 3.801090 -184.969879
    vertex 9.877331 3.850813 -188.540878
  endloop
endfacet
facet normal -0.007469 -0.070989 -0.000000
  outer loop
    vertex 9.812434 3.807378 -184.969879
    vertex 9.832314 3.805287 -188.540878
    vertex 9.832314 3.805286 -184.969879
  endloop
endfacet
facet normal -0.007485 -0.070989 -0.000000
  outer loop
    vertex 9.832314 3.805286 -184.969879
    vertex 9.832314 3.805287 -188.540878
    vertex 9.852193 3.803190 -184.969879
  endloop
endfacet
facet normal -0.007469 -0.070989 -0.000000
  outer loop
    vertex 9.812434 3.807379 -188.540878
    vertex 9.832314 3.805287 -188.540878
    vertex 9.812434 3.807378 -184.969879
  endloop
endfacet
facet normal -0.007501 -0.070982 -0.000000
  outer loop
    vertex 9.852193 3.803190 -184.969879
    vertex 9.852193 3.803191 -188.540878
    vertex 9.872070 3.801090 -184.969879
  endloop
endfacet
facet normal -0.007485 -0.070989 -0.000000
  outer loop
    vertex 9.832314 3.805287 -188.540878
    vertex 9.852193 3.803191 -188.540878
    vertex 9.852193 3.803190 -184.969879
  endloop
endfacet
facet normal -0.007501 -0.070982 -0.000000
  outer loop
    vertex 9.852193 3.803191 -188.540878
    vertex 9.872070 3.801091 -188.540878
    vertex 9.872070 3.801090 -184.969879
  endloop
endfacet
facet normal -0.177572 0.018666 0.000000
  outer loop
    vertex 9.812434 3.807379 -188.540878
    vertex 9.812434 3.807378 -184.969879
    vertex 9.817661 3.857105 -188.540878
  endloop
endfacet
facet normal -0.177572 0.018666 0.000000
  outer loop
    vertex 9.812434 3.807378 -184.969879
    vertex 9.817661 3.857104 -184.969879
    vertex 9.817661 3.857105 -188.540878
  endloop
endfacet
facet normal 0.000000 0.000000 0.000999
  outer loop
    vertex 9.877331 3.850813 -184.969879
    vertex 9.852193 3.803190 -184.969879
    vertex 9.872070 3.801090 -184.969879
  endloop
endfacet
facet normal 0.000000 0.000000 0.001000
  outer loop
    vertex 9.857441 3.852914 -184.969879
    vertex 9.852193 3.803190 -184.969879
    vertex 9.877331 3.850813 -184.969879
  endloop
endfacet
facet normal 0.000000 0.000000 0.000999
  outer loop
    vertex 9.837551 3.855011 -184.969879
    vertex 9.832314 3.805286 -184.969879
    vertex 9.852193 3.803190 -184.969879
  endloop
endfacet
facet normal 0.000000 0.000000 0.001000
  outer loop
    vertex 9.837551 3.855011 -184.969879
    vertex 9.852193 3.803190 -184.969879
    vertex 9.857441 3.852914 -184.969879
  endloop
endfacet
facet normal 0.000000 0.000000 0.000999
  outer loop
    vertex 9.817661 3.857104 -184.969879
    vertex 9.812434 3.807378 -184.969879
    vertex 9.832314 3.805286 -184.969879
  endloop
endfacet
facet normal 0.000000 0.000000 0.001000
  outer loop
    vertex 9.817661 3.857104 -184.969879
    vertex 9.832314 3.805286 -184.969879
    vertex 9.837551 3.855011 -184.969879
  endloop
endfacet
facet normal 0.000000 0.000000 -0.000999
  outer loop
    vertex 9.852193 3.803191 -188.540878
    vertex 9.877331 3.850813 -188.540878
    vertex 9.872070 3.801091 -188.540878
  endloop
endfacet
facet normal 0.000000 0.000000 -0.000999
  outer loop
    vertex 9.832314 3.805287 -188.540878
    vertex 9.857441 3.852915 -188.540878
    vertex 9.852193 3.803191 -188.540878
  endloop
endfacet
facet normal 0.000000 0.000000 -0.001000
  outer loop
    vertex 9.852193 3.803191 -188.540878
    vertex 9.857441 3.852915 -188.540878
    vertex 9.877331 3.850813 -188.540878
  endloop
endfacet
facet normal 0.000000 0.000000 -0.000999
  outer loop
    vertex 9.812434 3.807379 -188.540878
    vertex 9.837551 3.855012 -188.540878
    vertex 9.832314 3.805287 -188.540878
  endloop
endfacet
facet normal 0.000000 0.000000 -0.001000
  outer loop
    vertex 9.832314 3.805287 -188.540878
    vertex 9.837551 3.855012 -188.540878
    vertex 9.857441 3.852915 -188.540878
  endloop
endfacet
facet normal 0.000000 0.000000 -0.001000
  outer loop
    vertex 9.812434 3.807379 -188.540878
    vertex 9.817661 3.857105 -188.540878
    vertex 9.837551 3.855012 -188.540878
  endloop
endfacet
endsolid b'MESH-MESH-MESH-MESH-MESH-MESH-MESH-MESH-MESH-MESH-MESH-MESH-MESH-MESH-MESH-MESH'
