solid b'MESH-MESH-MESH-MESH-MESH-MESH-MESH-MESH-MESH-MESH-MESH-MESH-MESH-MESH-MESH-MESH'
facet normal -0.007426 -0.071034 0.000000
  outer loop
    vertex -9.777874 -3.861277 -95.393127
    vertex -9.757982 -3.863357 -95.393127
    vertex -9.757982 -3.863357 -91.822121
  endloop
endfacet
facet normal -0.007426 -0.071034 0.000000
  outer loop
    vertex -9.777874 -3.861277 -95.393127
    vertex -9.757982 -3.863357 -91.822121
    vertex -9.777874 -3.861277 -91.822121
  endloop
endfacet
facet normal -0.007442 -0.071030 0.000000
  outer loop
    vertex -9.797765 -3.859193 -95.393127
    vertex -9.777874 -3.861277 -91.822121
    vertex -9.797765 -3.859193 -91.822121
  endloop
endfacet
facet normal -0.007457 -0.071030 0.000000
  outer loop
    vertex -9.797765 -3.859193 -95.393127
    vertex -9.797765 -3.859193 -91.822121
    vertex -9.817656 -3.857105 -91.822121
  endloop
endfacet
facet normal -0.007442 -0.071030 0.000000
  outer loop
    vertex -9.797765 -3.859193 -95.393127
    vertex -9.777874 -3.861277 -95.393127
    vertex -9.777874 -3.861277 -91.822121
  endloop
endfacet
facet normal -0.007457 -0.071030 0.000000
  outer loop
    vertex -9.817656 -3.857105 -95.393127
    vertex -9.797765 -3.859193 -95.393127
    vertex -9.817656 -3.857105 -91.822121
  endloop
endfacet
facet normal -0.177572 0.018666 0.000000
  outer loop
    vertex -9.817656 -3.857105 -95.393127
    vertex -9.817656 -3.857105 -91.822121
    vertex -9.812428 -3.807379 -95.393127
  endloop
endfacet
facet normal -0.177573 0.018663 -0.000000
  outer loop
    vertex -9.817656 -3.857105 -91.822121
    vertex -9.812429 -3.807379 -91.822121
    vertex -9.812428 -3.807379 -95.393127
  endloop
endfacet
facet normal 0.007422 0.070993 0.000000
  outer loop
    vertex -9.752789 -3.813627 -91.822121
    vertex -9.772669 -3.811549 -95.393127
    vertex -9.772669 -3.811549 -91.822121
  endloop
endfacet
facet normal 0.007422 0.070993 -0.000000
  outer loop
    vertex -9.752789 -3.813627 -95.393127
    vertex -9.772669 -3.811549 -95.393127
    vertex -9.752789 -3.813627 -91.822121
  endloop
endfacet
facet normal 0.007438 0.070993 0.000000
  outer loop
    vertex -9.772669 -3.811549 -91.822121
    vertex -9.792549 -3.809466 -95.393127
    vertex -9.792549 -3.809466 -91.822121
  endloop
endfacet
facet normal 0.007454 0.070993 0.000000
  outer loop
    vertex -9.792549 -3.809466 -91.822121
    vertex -9.792549 -3.809466 -95.393127
    vertex -9.812429 -3.807379 -91.822121
  endloop
endfacet
facet normal 0.007438 0.070993 -0.000000
  outer loop
    vertex -9.772669 -3.811549 -95.393127
    vertex -9.792549 -3.809466 -95.393127
    vertex -9.772669 -3.811549 -91.822121
  endloop
endfacet
facet normal 0.007453 0.070989 -0.000000
  outer loop
    vertex -9.792549 -3.809466 -95.393127
    vertex -9.812428 -3.807379 -95.393127
    vertex -9.812429 -3.807379 -91.822121
  endloop
endfacet
facet normal 0.177585 -0.018547 0.000000
  outer loop
    vertex -9.752789 -3.813627 -95.393127
    vertex -9.752789 -3.813627 -91.822121
    vertex -9.757982 -3.863357 -95.393127
  endloop
endfacet
facet normal 0.177585 -0.018547 0.000000
  outer loop
    vertex -9.752789 -3.813627 -91.822121
    vertex -9.757982 -3.863357 -91.822121
    vertex -9.757982 -3.863357 -95.393127
  endloop
endfacet
facet normal 0.000000 0.000000 0.000999
  outer loop
    vertex -9.817656 -3.857105 -91.822121
    vertex -9.792549 -3.809466 -91.822121
    vertex -9.812429 -3.807379 -91.822121
  endloop
endfacet
facet normal 0.000000 -0.000000 0.001000
  outer loop
    vertex -9.797765 -3.859193 -91.822121
    vertex -9.792549 -3.809466 -91.822121
    vertex -9.817656 -3.857105 -91.822121
  endloop
endfacet
facet normal 0.000000 -0.000000 0.000999
  outer loop
    vertex -9.777874 -3.861277 -91.822121
    vertex -9.772669 -3.811549 -91.822121
    vertex -9.792549 -3.809466 -91.822121
  endloop
endfacet
facet normal 0.000000 0.000000 0.001000
  outer loop
    vertex -9.777874 -3.861277 -91.822121
    vertex -9.792549 -3.809466 -91.822121
    vertex -9.797765 -3.859193 -91.822121
  endloop
endfacet
facet normal 0.000000 -0.000000 0.000999
  outer loop
    vertex -9.757982 -3.863357 -91.822121
    vertex -9.752789 -3.813627 -91.822121
    vertex -9.772669 -3.811549 -91.822121
  endloop
endfacet
facet normal 0.000000 0.000000 0.001000
  outer loop
    vertex -9.757982 -3.863357 -91.822121
    vertex -9.772669 -3.811549 -91.822121
    vertex -9.777874 -3.861277 -91.822121
  endloop
endfacet
facet normal -0.000000 0.000000 -0.000999
  outer loop
    vertex -9.792549 -3.809466 -95.393127
    vertex -9.817656 -3.857105 -95.393127
    vertex -9.812428 -3.807379 -95.393127
  endloop
endfacet
facet normal 0.000000 0.000000 -0.001000
  outer loop
    vertex -9.792549 -3.809466 -95.393127
    vertex -9.797765 -3.859193 -95.393127
    vertex -9.817656 -3.857105 -95.393127
  endloop
endfacet
facet normal -0.000000 0.000000 -0.000999
  outer loop
    vertex -9.772669 -3.811549 -95.393127
    vertex -9.777874 -3.861277 -95.393127
    vertex -9.792549 -3.809466 -95.393127
  endloop
endfacet
facet normal 0.000000 -0.000000 -0.001000
  outer loop
    vertex -9.792549 -3.809466 -95.393127
    vertex -9.777874 -3.861277 -95.393127
    vertex -9.797765 -3.859193 -95.393127
  endloop
endfacet
facet normal -0.000000 0.000000 -0.000999
  outer loop
    vertex -9.752789 -3.813627 -95.393127
    vertex -9.757982 -3.863357 -95.393127
    vertex -9.772669 -3.811549 -95.393127
  endloop
endfacet
facet normal 0.000000 -0.000000 -0.001000
  outer loop
    vertex -9.772669 -3.811549 -95.393127
    vertex -9.757982 -3.863357 -95.393127
    vertex -9.777874 -3.861277 -95.393127
  endloop
endfacet
endsolid b'MESH-MESH-MESH-MESH-MESH-MESH-MESH-MESH-MESH-MESH-MESH-MESH-MESH-MESH-MESH-MESH'
