solid b'MESH-MESH-MESH-MESH-MESH-MESH-MESH-MESH-MESH-MESH-MESH-MESH-MESH-MESH-MESH-MESH'
facet normal -0.007426 -0.071034 0.000000
  outer loop
    vertex -9.777868 -3.861278 -73.727127
    vertex -9.757977 -3.863357 -73.727127
    vertex -9.757977 -3.863357 -70.156120
  endloop
endfacet
facet normal -0.007426 -0.071034 0.000000
  outer loop
    vertex -9.777868 -3.861278 -73.727127
    vertex -9.757977 -3.863357 -70.156120
    vertex -9.777868 -3.861278 -70.156120
  endloop
endfacet
facet normal -0.007442 -0.071034 0.000000
  outer loop
    vertex -9.797760 -3.859194 -73.727127
    vertex -9.777868 -3.861278 -70.156120
    vertex -9.797760 -3.859194 -70.156120
  endloop
endfacet
facet normal -0.007457 -0.071030 0.000000
  outer loop
    vertex -9.797760 -3.859194 -73.727127
    vertex -9.797760 -3.859194 -70.156120
    vertex -9.817651 -3.857105 -70.156120
  endloop
endfacet
facet normal -0.007442 -0.071034 0.000000
  outer loop
    vertex -9.797760 -3.859194 -73.727127
    vertex -9.777868 -3.861278 -73.727127
    vertex -9.777868 -3.861278 -70.156120
  endloop
endfacet
facet normal -0.007457 -0.071027 -0.000000
  outer loop
    vertex -9.817650 -3.857105 -73.727127
    vertex -9.797760 -3.859194 -73.727127
    vertex -9.817651 -3.857105 -70.156120
  endloop
endfacet
facet normal -0.177572 0.018663 -0.000000
  outer loop
    vertex -9.817650 -3.857105 -73.727127
    vertex -9.817651 -3.857105 -70.156120
    vertex -9.812424 -3.807379 -73.727127
  endloop
endfacet
facet normal -0.177572 0.018666 0.000000
  outer loop
    vertex -9.817651 -3.857105 -70.156120
    vertex -9.812424 -3.807379 -70.156120
    vertex -9.812424 -3.807379 -73.727127
  endloop
endfacet
facet normal 0.007422 0.070993 0.000000
  outer loop
    vertex -9.752784 -3.813628 -70.156120
    vertex -9.772664 -3.811549 -73.727127
    vertex -9.772664 -3.811549 -70.156120
  endloop
endfacet
facet normal 0.007422 0.070993 -0.000000
  outer loop
    vertex -9.752784 -3.813628 -73.727127
    vertex -9.772664 -3.811549 -73.727127
    vertex -9.752784 -3.813628 -70.156120
  endloop
endfacet
facet normal 0.007438 0.070993 0.000000
  outer loop
    vertex -9.772664 -3.811549 -70.156120
    vertex -9.792544 -3.809467 -73.727127
    vertex -9.792544 -3.809467 -70.156120
  endloop
endfacet
facet normal 0.007453 0.070989 0.000000
  outer loop
    vertex -9.792544 -3.809467 -70.156120
    vertex -9.792544 -3.809467 -73.727127
    vertex -9.812424 -3.807379 -70.156120
  endloop
endfacet
facet normal 0.007438 0.070993 -0.000000
  outer loop
    vertex -9.772664 -3.811549 -73.727127
    vertex -9.792544 -3.809467 -73.727127
    vertex -9.772664 -3.811549 -70.156120
  endloop
endfacet
facet normal 0.007453 0.070989 0.000000
  outer loop
    vertex -9.792544 -3.809467 -73.727127
    vertex -9.812424 -3.807379 -73.727127
    vertex -9.812424 -3.807379 -70.156120
  endloop
endfacet
facet normal 0.177585 -0.018543 0.000000
  outer loop
    vertex -9.752784 -3.813628 -73.727127
    vertex -9.752784 -3.813628 -70.156120
    vertex -9.757977 -3.863357 -73.727127
  endloop
endfacet
facet normal 0.177585 -0.018543 0.000000
  outer loop
    vertex -9.752784 -3.813628 -70.156120
    vertex -9.757977 -3.863357 -70.156120
    vertex -9.757977 -3.863357 -73.727127
  endloop
endfacet
facet normal 0.000000 0.000000 0.000999
  outer loop
    vertex -9.817651 -3.857105 -70.156120
    vertex -9.792544 -3.809467 -70.156120
    vertex -9.812424 -3.807379 -70.156120
  endloop
endfacet
facet normal 0.000000 -0.000000 0.001000
  outer loop
    vertex -9.797760 -3.859194 -70.156120
    vertex -9.792544 -3.809467 -70.156120
    vertex -9.817651 -3.857105 -70.156120
  endloop
endfacet
facet normal 0.000000 -0.000000 0.000999
  outer loop
    vertex -9.777868 -3.861278 -70.156120
    vertex -9.772664 -3.811549 -70.156120
    vertex -9.792544 -3.809467 -70.156120
  endloop
endfacet
facet normal 0.000000 0.000000 0.001000
  outer loop
    vertex -9.777868 -3.861278 -70.156120
    vertex -9.792544 -3.809467 -70.156120
    vertex -9.797760 -3.859194 -70.156120
  endloop
endfacet
facet normal 0.000000 -0.000000 0.000999
  outer loop
    vertex -9.757977 -3.863357 -70.156120
    vertex -9.752784 -3.813628 -70.156120
    vertex -9.772664 -3.811549 -70.156120
  endloop
endfacet
facet normal 0.000000 0.000000 0.001000
  outer loop
    vertex -9.757977 -3.863357 -70.156120
    vertex -9.772664 -3.811549 -70.156120
    vertex -9.777868 -3.861278 -70.156120
  endloop
endfacet
facet normal -0.000000 0.000000 -0.000999
  outer loop
    vertex -9.792544 -3.809467 -73.727127
    vertex -9.817650 -3.857105 -73.727127
    vertex -9.812424 -3.807379 -73.727127
  endloop
endfacet
facet normal 0.000000 0.000000 -0.001000
  outer loop
    vertex -9.792544 -3.809467 -73.727127
    vertex -9.797760 -3.859194 -73.727127
    vertex -9.817650 -3.857105 -73.727127
  endloop
endfacet
facet normal -0.000000 0.000000 -0.000999
  outer loop
    vertex -9.772664 -3.811549 -73.727127
    vertex -9.777868 -3.861278 -73.727127
    vertex -9.792544 -3.809467 -73.727127
  endloop
endfacet
facet normal 0.000000 -0.000000 -0.001000
  outer loop
    vertex -9.792544 -3.809467 -73.727127
    vertex -9.777868 -3.861278 -73.727127
    vertex -9.797760 -3.859194 -73.727127
  endloop
endfacet
facet normal -0.000000 0.000000 -0.000999
  outer loop
    vertex -9.752784 -3.813628 -73.727127
    vertex -9.757977 -3.863357 -73.727127
    vertex -9.772664 -3.811549 -73.727127
  endloop
endfacet
facet normal 0.000000 -0.000000 -0.001000
  outer loop
    vertex -9.772664 -3.811549 -73.727127
    vertex -9.757977 -3.863357 -73.727127
    vertex -9.777868 -3.861278 -73.727127
  endloop
endfacet
endsolid b'MESH-MESH-MESH-MESH-MESH-MESH-MESH-MESH-MESH-MESH-MESH-MESH-MESH-MESH-MESH-MESH'
