solid b'MESH-MESH-MESH-MESH-MESH-MESH-MESH-MESH-MESH-MESH-MESH-MESH-MESH-MESH-MESH-MESH'
facet normal 0.007473 -0.071026 -0.000000
  outer loop
    vertex 9.837546 -3.855013 388.955566
    vertex 9.817657 -3.857105 388.955566
    vertex 9.817657 -3.857105 385.384583
  endloop
endfacet
facet normal 0.007473 -0.071026 -0.000000
  outer loop
    vertex 9.837546 -3.855013 388.955566
    vertex 9.817657 -3.857105 385.384583
    vertex 9.837546 -3.855012 385.384583
  endloop
endfacet
facet normal 0.007490 -0.071026 -0.000000
  outer loop
    vertex 9.857436 -3.852915 388.955566
    vertex 9.837546 -3.855012 385.384583
    vertex 9.857436 -3.852915 385.384583
  endloop
endfacet
facet normal 0.007490 -0.071026 -0.000000
  outer loop
    vertex 9.857436 -3.852915 388.955566
    vertex 9.837546 -3.855013 388.955566
    vertex 9.837546 -3.855012 385.384583
  endloop
endfacet
facet normal 0.007504 -0.071023 -0.000000
  outer loop
    vertex 9.877326 -3.850814 388.955566
    vertex 9.857436 -3.852915 385.384583
    vertex 9.877325 -3.850813 385.384583
  endloop
endfacet
facet normal 0.007504 -0.071026 -0.000000
  outer loop
    vertex 9.877326 -3.850814 388.955566
    vertex 9.857436 -3.852915 388.955566
    vertex 9.857436 -3.852915 385.384583
  endloop
endfacet
facet normal 0.177559 0.018782 -0.000000
  outer loop
    vertex 9.877326 -3.850814 388.955566
    vertex 9.877325 -3.850813 385.384583
    vertex 9.872066 -3.801091 388.955566
  endloop
endfacet
facet normal 0.177559 0.018782 -0.000000
  outer loop
    vertex 9.877325 -3.850813 385.384583
    vertex 9.872066 -3.801090 385.384583
    vertex 9.872066 -3.801091 388.955566
  endloop
endfacet
facet normal -0.007469 0.070989 0.000000
  outer loop
    vertex 9.812429 -3.807379 385.384583
    vertex 9.812430 -3.807379 388.955566
    vertex 9.832309 -3.805287 385.384583
  endloop
endfacet
facet normal -0.007469 0.070985 0.000000
  outer loop
    vertex 9.812430 -3.807379 388.955566
    vertex 9.832309 -3.805288 388.955566
    vertex 9.832309 -3.805287 385.384583
  endloop
endfacet
facet normal -0.007485 0.070989 0.000000
  outer loop
    vertex 9.832309 -3.805287 385.384583
    vertex 9.852188 -3.803192 388.955566
    vertex 9.852188 -3.803191 385.384583
  endloop
endfacet
facet normal -0.007501 0.070982 0.000000
  outer loop
    vertex 9.852188 -3.803191 385.384583
    vertex 9.852188 -3.803192 388.955566
    vertex 9.872066 -3.801090 385.384583
  endloop
endfacet
facet normal -0.007485 0.070989 0.000000
  outer loop
    vertex 9.832309 -3.805288 388.955566
    vertex 9.852188 -3.803192 388.955566
    vertex 9.832309 -3.805287 385.384583
  endloop
endfacet
facet normal -0.007501 0.070985 0.000000
  outer loop
    vertex 9.852188 -3.803192 388.955566
    vertex 9.872066 -3.801091 388.955566
    vertex 9.872066 -3.801090 385.384583
  endloop
endfacet
facet normal -0.177571 -0.018662 -0.000000
  outer loop
    vertex 9.812430 -3.807379 388.955566
    vertex 9.817657 -3.857105 385.384583
    vertex 9.817657 -3.857105 388.955566
  endloop
endfacet
facet normal -0.177571 -0.018666 0.000000
  outer loop
    vertex 9.812429 -3.807379 385.384583
    vertex 9.817657 -3.857105 385.384583
    vertex 9.812430 -3.807379 388.955566
  endloop
endfacet
facet normal 0.000000 0.000000 -0.000999
  outer loop
    vertex 9.877325 -3.850813 385.384583
    vertex 9.852188 -3.803191 385.384583
    vertex 9.872066 -3.801090 385.384583
  endloop
endfacet
facet normal 0.000000 0.000000 -0.000999
  outer loop
    vertex 9.857436 -3.852915 385.384583
    vertex 9.832309 -3.805287 385.384583
    vertex 9.852188 -3.803191 385.384583
  endloop
endfacet
facet normal 0.000000 0.000000 -0.001000
  outer loop
    vertex 9.857436 -3.852915 385.384583
    vertex 9.852188 -3.803191 385.384583
    vertex 9.877325 -3.850813 385.384583
  endloop
endfacet
facet normal 0.000000 0.000000 -0.001000
  outer loop
    vertex 9.837546 -3.855012 385.384583
    vertex 9.832309 -3.805287 385.384583
    vertex 9.857436 -3.852915 385.384583
  endloop
endfacet
facet normal 0.000000 0.000000 -0.000999
  outer loop
    vertex 9.817657 -3.857105 385.384583
    vertex 9.812429 -3.807379 385.384583
    vertex 9.832309 -3.805287 385.384583
  endloop
endfacet
facet normal 0.000000 0.000000 -0.001000
  outer loop
    vertex 9.817657 -3.857105 385.384583
    vertex 9.832309 -3.805287 385.384583
    vertex 9.837546 -3.855012 385.384583
  endloop
endfacet
facet normal -0.000000 0.000000 0.000999
  outer loop
    vertex 9.852188 -3.803192 388.955566
    vertex 9.877326 -3.850814 388.955566
    vertex 9.872066 -3.801091 388.955566
  endloop
endfacet
facet normal 0.000000 0.000000 0.001000
  outer loop
    vertex 9.852188 -3.803192 388.955566
    vertex 9.857436 -3.852915 388.955566
    vertex 9.877326 -3.850814 388.955566
  endloop
endfacet
facet normal -0.000000 0.000000 0.000999
  outer loop
    vertex 9.832309 -3.805288 388.955566
    vertex 9.837546 -3.855013 388.955566
    vertex 9.852188 -3.803192 388.955566
  endloop
endfacet
facet normal 0.000000 0.000000 0.001000
  outer loop
    vertex 9.852188 -3.803192 388.955566
    vertex 9.837546 -3.855013 388.955566
    vertex 9.857436 -3.852915 388.955566
  endloop
endfacet
facet normal -0.000000 0.000000 0.000999
  outer loop
    vertex 9.812430 -3.807379 388.955566
    vertex 9.817657 -3.857105 388.955566
    vertex 9.832309 -3.805288 388.955566
  endloop
endfacet
facet normal 0.000000 0.000000 0.001000
  outer loop
    vertex 9.832309 -3.805288 388.955566
    vertex 9.817657 -3.857105 388.955566
    vertex 9.837546 -3.855013 388.955566
  endloop
endfacet
endsolid b'MESH-MESH-MESH-MESH-MESH-MESH-MESH-MESH-MESH-MESH-MESH-MESH-MESH-MESH-MESH-MESH'
