solid b'MESH-MESH-MESH-MESH-MESH-MESH-MESH-MESH-MESH-MESH-MESH-MESH-MESH-MESH-MESH-MESH'
facet normal 0.007426 -0.071033 0.000000
  outer loop
    vertex 9.777859 -3.861278 -230.466904
    vertex 9.757967 -3.863358 -230.466904
    vertex 9.757967 -3.863358 -234.037903
  endloop
endfacet
facet normal 0.007426 -0.071033 0.000000
  outer loop
    vertex 9.777859 -3.861278 -230.466904
    vertex 9.757967 -3.863358 -234.037903
    vertex 9.777859 -3.861279 -234.037903
  endloop
endfacet
facet normal 0.007442 -0.071030 0.000000
  outer loop
    vertex 9.777859 -3.861278 -230.466904
    vertex 9.777859 -3.861279 -234.037903
    vertex 9.797750 -3.859195 -234.037903
  endloop
endfacet
facet normal 0.007442 -0.071030 0.000000
  outer loop
    vertex 9.797750 -3.859194 -230.466904
    vertex 9.777859 -3.861278 -230.466904
    vertex 9.797750 -3.859195 -234.037903
  endloop
endfacet
facet normal 0.007457 -0.071030 0.000000
  outer loop
    vertex 9.817640 -3.857106 -230.466904
    vertex 9.797750 -3.859195 -234.037903
    vertex 9.817640 -3.857106 -234.037903
  endloop
endfacet
facet normal 0.007457 -0.071030 0.000000
  outer loop
    vertex 9.817640 -3.857106 -230.466904
    vertex 9.797750 -3.859194 -230.466904
    vertex 9.797750 -3.859195 -234.037903
  endloop
endfacet
facet normal 0.177572 0.018663 -0.000000
  outer loop
    vertex 9.817640 -3.857106 -230.466904
    vertex 9.817640 -3.857106 -234.037903
    vertex 9.812414 -3.807380 -234.037903
  endloop
endfacet
facet normal 0.177572 0.018663 0.000000
  outer loop
    vertex 9.812414 -3.807380 -230.466904
    vertex 9.817640 -3.857106 -230.466904
    vertex 9.812414 -3.807380 -234.037903
  endloop
endfacet
facet normal -0.007422 0.070996 -0.000000
  outer loop
    vertex 9.752773 -3.813628 -234.037903
    vertex 9.752773 -3.813628 -230.466904
    vertex 9.772655 -3.811550 -234.037903
  endloop
endfacet
facet normal -0.007437 0.070989 0.000000
  outer loop
    vertex 9.772655 -3.811550 -234.037903
    vertex 9.772655 -3.811550 -230.466904
    vertex 9.792534 -3.809467 -234.037903
  endloop
endfacet
facet normal -0.007422 0.070996 0.000000
  outer loop
    vertex 9.752773 -3.813628 -230.466904
    vertex 9.772655 -3.811550 -230.466904
    vertex 9.772655 -3.811550 -234.037903
  endloop
endfacet
facet normal -0.007438 0.070989 -0.000000
  outer loop
    vertex 9.772655 -3.811550 -230.466904
    vertex 9.792534 -3.809467 -230.466904
    vertex 9.792534 -3.809467 -234.037903
  endloop
endfacet
facet normal -0.007454 0.070993 0.000000
  outer loop
    vertex 9.792534 -3.809467 -234.037903
    vertex 9.812414 -3.807380 -230.466904
    vertex 9.812414 -3.807380 -234.037903
  endloop
endfacet
facet normal -0.007453 0.070993 -0.000000
  outer loop
    vertex 9.792534 -3.809467 -230.466904
    vertex 9.812414 -3.807380 -230.466904
    vertex 9.792534 -3.809467 -234.037903
  endloop
endfacet
facet normal -0.177584 -0.018547 0.000000
  outer loop
    vertex 9.752773 -3.813628 -230.466904
    vertex 9.752773 -3.813628 -234.037903
    vertex 9.757967 -3.863358 -234.037903
  endloop
endfacet
facet normal -0.177584 -0.018547 0.000000
  outer loop
    vertex 9.757967 -3.863358 -230.466904
    vertex 9.752773 -3.813628 -230.466904
    vertex 9.757967 -3.863358 -234.037903
  endloop
endfacet
facet normal -0.000000 0.000000 0.000999
  outer loop
    vertex 9.792534 -3.809467 -230.466904
    vertex 9.817640 -3.857106 -230.466904
    vertex 9.812414 -3.807380 -230.466904
  endloop
endfacet
facet normal 0.000000 0.000000 0.001000
  outer loop
    vertex 9.792534 -3.809467 -230.466904
    vertex 9.797750 -3.859194 -230.466904
    vertex 9.817640 -3.857106 -230.466904
  endloop
endfacet
facet normal -0.000000 0.000000 0.000999
  outer loop
    vertex 9.772655 -3.811550 -230.466904
    vertex 9.777859 -3.861278 -230.466904
    vertex 9.792534 -3.809467 -230.466904
  endloop
endfacet
facet normal 0.000000 0.000000 0.001000
  outer loop
    vertex 9.792534 -3.809467 -230.466904
    vertex 9.777859 -3.861278 -230.466904
    vertex 9.797750 -3.859194 -230.466904
  endloop
endfacet
facet normal -0.000000 0.000000 0.000999
  outer loop
    vertex 9.752773 -3.813628 -230.466904
    vertex 9.757967 -3.863358 -230.466904
    vertex 9.772655 -3.811550 -230.466904
  endloop
endfacet
facet normal 0.000000 0.000000 0.001000
  outer loop
    vertex 9.772655 -3.811550 -230.466904
    vertex 9.757967 -3.863358 -230.466904
    vertex 9.777859 -3.861278 -230.466904
  endloop
endfacet
facet normal 0.000000 0.000000 -0.000999
  outer loop
    vertex 9.817640 -3.857106 -234.037903
    vertex 9.792534 -3.809467 -234.037903
    vertex 9.812414 -3.807380 -234.037903
  endloop
endfacet
facet normal 0.000000 0.000000 -0.001000
  outer loop
    vertex 9.797750 -3.859195 -234.037903
    vertex 9.792534 -3.809467 -234.037903
    vertex 9.817640 -3.857106 -234.037903
  endloop
endfacet
facet normal 0.000000 0.000000 -0.000999
  outer loop
    vertex 9.777859 -3.861279 -234.037903
    vertex 9.772655 -3.811550 -234.037903
    vertex 9.792534 -3.809467 -234.037903
  endloop
endfacet
facet normal 0.000000 0.000000 -0.001000
  outer loop
    vertex 9.777859 -3.861279 -234.037903
    vertex 9.792534 -3.809467 -234.037903
    vertex 9.797750 -3.859195 -234.037903
  endloop
endfacet
facet normal 0.000000 0.000000 -0.000999
  outer loop
    vertex 9.757967 -3.863358 -234.037903
    vertex 9.752773 -3.813628 -234.037903
    vertex 9.772655 -3.811550 -234.037903
  endloop
endfacet
facet normal 0.000000 0.000000 -0.001000
  outer loop
    vertex 9.757967 -3.863358 -234.037903
    vertex 9.772655 -3.811550 -234.037903
    vertex 9.777859 -3.861279 -234.037903
  endloop
endfacet
endsolid b'MESH-MESH-MESH-MESH-MESH-MESH-MESH-MESH-MESH-MESH-MESH-MESH-MESH-MESH-MESH-MESH'
