solid b'MESH-MESH-MESH-MESH-MESH-MESH-MESH-MESH-MESH-MESH-MESH-MESH-MESH-MESH-MESH-MESH'
facet normal -0.007426 0.071033 0.000000
  outer loop
    vertex -9.757982 3.863357 -181.318878
    vertex -9.757982 3.863357 -184.889877
    vertex -9.777874 3.861277 -184.889877
  endloop
endfacet
facet normal -0.007426 0.071033 0.000000
  outer loop
    vertex -9.777874 3.861277 -181.318878
    vertex -9.757982 3.863357 -181.318878
    vertex -9.777874 3.861277 -184.889877
  endloop
endfacet
facet normal -0.007442 0.071030 0.000000
  outer loop
    vertex -9.797765 3.859193 -181.318878
    vertex -9.777874 3.861277 -184.889877
    vertex -9.797765 3.859193 -184.889877
  endloop
endfacet
facet normal -0.007442 0.071030 0.000000
  outer loop
    vertex -9.797765 3.859193 -181.318878
    vertex -9.777874 3.861277 -181.318878
    vertex -9.777874 3.861277 -184.889877
  endloop
endfacet
facet normal -0.007457 0.071030 0.000000
  outer loop
    vertex -9.817656 3.857105 -181.318878
    vertex -9.797765 3.859193 -184.889877
    vertex -9.817656 3.857105 -184.889877
  endloop
endfacet
facet normal -0.007457 0.071030 0.000000
  outer loop
    vertex -9.817656 3.857105 -181.318878
    vertex -9.797765 3.859193 -181.318878
    vertex -9.797765 3.859193 -184.889877
  endloop
endfacet
facet normal -0.177572 -0.018663 0.000000
  outer loop
    vertex -9.812429 3.807379 -181.318878
    vertex -9.817656 3.857105 -181.318878
    vertex -9.817656 3.857105 -184.889877
  endloop
endfacet
facet normal -0.177572 -0.018663 -0.000000
  outer loop
    vertex -9.812429 3.807379 -181.318878
    vertex -9.817656 3.857105 -184.889877
    vertex -9.812429 3.807379 -184.889877
  endloop
endfacet
facet normal 0.007422 -0.070996 0.000000
  outer loop
    vertex -9.752789 3.813627 -184.889877
    vertex -9.752789 3.813627 -181.318878
    vertex -9.772670 3.811549 -184.889877
  endloop
endfacet
facet normal 0.007422 -0.070996 -0.000000
  outer loop
    vertex -9.752789 3.813627 -181.318878
    vertex -9.772670 3.811549 -181.318878
    vertex -9.772670 3.811549 -184.889877
  endloop
endfacet
facet normal 0.007438 -0.070989 0.000000
  outer loop
    vertex -9.772670 3.811549 -184.889877
    vertex -9.792549 3.809466 -181.318878
    vertex -9.792549 3.809466 -184.889877
  endloop
endfacet
facet normal 0.007437 -0.070989 -0.000000
  outer loop
    vertex -9.772670 3.811549 -181.318878
    vertex -9.792549 3.809466 -181.318878
    vertex -9.772670 3.811549 -184.889877
  endloop
endfacet
facet normal 0.007454 -0.070993 0.000000
  outer loop
    vertex -9.792549 3.809466 -184.889877
    vertex -9.812429 3.807379 -181.318878
    vertex -9.812429 3.807379 -184.889877
  endloop
endfacet
facet normal 0.007454 -0.070993 0.000000
  outer loop
    vertex -9.792549 3.809466 -181.318878
    vertex -9.812429 3.807379 -181.318878
    vertex -9.792549 3.809466 -184.889877
  endloop
endfacet
facet normal 0.177584 0.018547 0.000000
  outer loop
    vertex -9.752789 3.813627 -181.318878
    vertex -9.752789 3.813627 -184.889877
    vertex -9.757982 3.863357 -184.889877
  endloop
endfacet
facet normal 0.177584 0.018547 0.000000
  outer loop
    vertex -9.757982 3.863357 -181.318878
    vertex -9.752789 3.813627 -181.318878
    vertex -9.757982 3.863357 -184.889877
  endloop
endfacet
facet normal 0.000000 0.000000 0.000999
  outer loop
    vertex -9.792549 3.809466 -181.318878
    vertex -9.817656 3.857105 -181.318878
    vertex -9.812429 3.807379 -181.318878
  endloop
endfacet
facet normal 0.000000 0.000000 0.001000
  outer loop
    vertex -9.792549 3.809466 -181.318878
    vertex -9.797765 3.859193 -181.318878
    vertex -9.817656 3.857105 -181.318878
  endloop
endfacet
facet normal 0.000000 0.000000 0.000999
  outer loop
    vertex -9.772670 3.811549 -181.318878
    vertex -9.777874 3.861277 -181.318878
    vertex -9.792549 3.809466 -181.318878
  endloop
endfacet
facet normal 0.000000 -0.000000 0.001000
  outer loop
    vertex -9.792549 3.809466 -181.318878
    vertex -9.777874 3.861277 -181.318878
    vertex -9.797765 3.859193 -181.318878
  endloop
endfacet
facet normal 0.000000 0.000000 0.000999
  outer loop
    vertex -9.752789 3.813627 -181.318878
    vertex -9.757982 3.863357 -181.318878
    vertex -9.772670 3.811549 -181.318878
  endloop
endfacet
facet normal 0.000000 -0.000000 0.001000
  outer loop
    vertex -9.772670 3.811549 -181.318878
    vertex -9.757982 3.863357 -181.318878
    vertex -9.777874 3.861277 -181.318878
  endloop
endfacet
facet normal 0.000000 0.000000 -0.000999
  outer loop
    vertex -9.817656 3.857105 -184.889877
    vertex -9.792549 3.809466 -184.889877
    vertex -9.812429 3.807379 -184.889877
  endloop
endfacet
facet normal 0.000000 0.000000 -0.000999
  outer loop
    vertex -9.797765 3.859193 -184.889877
    vertex -9.772670 3.811549 -184.889877
    vertex -9.792549 3.809466 -184.889877
  endloop
endfacet
facet normal 0.000000 -0.000000 -0.001000
  outer loop
    vertex -9.797765 3.859193 -184.889877
    vertex -9.792549 3.809466 -184.889877
    vertex -9.817656 3.857105 -184.889877
  endloop
endfacet
facet normal 0.000000 -0.000000 -0.001000
  outer loop
    vertex -9.777874 3.861277 -184.889877
    vertex -9.772670 3.811549 -184.889877
    vertex -9.797765 3.859193 -184.889877
  endloop
endfacet
facet normal 0.000000 -0.000000 -0.000999
  outer loop
    vertex -9.757982 3.863357 -184.889877
    vertex -9.752789 3.813627 -184.889877
    vertex -9.772670 3.811549 -184.889877
  endloop
endfacet
facet normal 0.000000 0.000000 -0.001000
  outer loop
    vertex -9.757982 3.863357 -184.889877
    vertex -9.772670 3.811549 -184.889877
    vertex -9.777874 3.861277 -184.889877
  endloop
endfacet
endsolid b'MESH-MESH-MESH-MESH-MESH-MESH-MESH-MESH-MESH-MESH-MESH-MESH-MESH-MESH-MESH-MESH'
