solid b'MESH-MESH-MESH-MESH-MESH-MESH-MESH-MESH-MESH-MESH-MESH-MESH-MESH-MESH-MESH-MESH'
facet normal -0.007474 0.071027 -0.000000
  outer loop
    vertex -9.837546 3.855013 61.988308
    vertex -9.817657 3.857105 61.988308
    vertex -9.817657 3.857105 58.417305
  endloop
endfacet
facet normal -0.007474 0.071027 -0.000000
  outer loop
    vertex -9.837546 3.855013 61.988308
    vertex -9.817657 3.857105 58.417305
    vertex -9.837546 3.855012 58.417305
  endloop
endfacet
facet normal -0.007489 0.071027 -0.000000
  outer loop
    vertex -9.857436 3.852916 61.988308
    vertex -9.837546 3.855012 58.417305
    vertex -9.857436 3.852915 58.417305
  endloop
endfacet
facet normal -0.007489 0.071027 -0.000000
  outer loop
    vertex -9.857436 3.852916 61.988308
    vertex -9.837546 3.855013 61.988308
    vertex -9.837546 3.855012 58.417305
  endloop
endfacet
facet normal -0.007505 0.071023 -0.000000
  outer loop
    vertex -9.877325 3.850814 61.988308
    vertex -9.857436 3.852915 58.417305
    vertex -9.877325 3.850813 58.417305
  endloop
endfacet
facet normal -0.007505 0.071023 -0.000000
  outer loop
    vertex -9.877325 3.850814 61.988308
    vertex -9.857436 3.852916 61.988308
    vertex -9.857436 3.852915 58.417305
  endloop
endfacet
facet normal -0.177560 -0.018782 0.000000
  outer loop
    vertex -9.877325 3.850814 61.988308
    vertex -9.872066 3.801090 58.417305
    vertex -9.872066 3.801091 61.988308
  endloop
endfacet
facet normal -0.177560 -0.018782 0.000000
  outer loop
    vertex -9.877325 3.850813 58.417305
    vertex -9.872066 3.801090 58.417305
    vertex -9.877325 3.850814 61.988308
  endloop
endfacet
facet normal 0.007469 -0.070989 0.000000
  outer loop
    vertex -9.812429 3.807379 58.417305
    vertex -9.832309 3.805288 61.988308
    vertex -9.832309 3.805287 58.417305
  endloop
endfacet
facet normal 0.007469 -0.070989 0.000000
  outer loop
    vertex -9.812429 3.807379 61.988308
    vertex -9.832309 3.805288 61.988308
    vertex -9.812429 3.807379 58.417305
  endloop
endfacet
facet normal 0.007485 -0.070986 0.000000
  outer loop
    vertex -9.832309 3.805287 58.417305
    vertex -9.852187 3.803192 61.988308
    vertex -9.852187 3.803191 58.417305
  endloop
endfacet
facet normal 0.007501 -0.070986 0.000000
  outer loop
    vertex -9.852187 3.803191 58.417305
    vertex -9.852187 3.803192 61.988308
    vertex -9.872066 3.801090 58.417305
  endloop
endfacet
facet normal 0.007485 -0.070986 0.000000
  outer loop
    vertex -9.832309 3.805288 61.988308
    vertex -9.852187 3.803192 61.988308
    vertex -9.832309 3.805287 58.417305
  endloop
endfacet
facet normal 0.007501 -0.070986 0.000000
  outer loop
    vertex -9.852187 3.803192 61.988308
    vertex -9.872066 3.801091 61.988308
    vertex -9.872066 3.801090 58.417305
  endloop
endfacet
facet normal 0.177573 0.018666 -0.000000
  outer loop
    vertex -9.812429 3.807379 61.988308
    vertex -9.817657 3.857105 58.417305
    vertex -9.817657 3.857105 61.988308
  endloop
endfacet
facet normal 0.177573 0.018666 -0.000000
  outer loop
    vertex -9.812429 3.807379 58.417305
    vertex -9.817657 3.857105 58.417305
    vertex -9.812429 3.807379 61.988308
  endloop
endfacet
facet normal 0.000000 0.000000 -0.000999
  outer loop
    vertex -9.877325 3.850813 58.417305
    vertex -9.852187 3.803191 58.417305
    vertex -9.872066 3.801090 58.417305
  endloop
endfacet
facet normal 0.000000 -0.000000 -0.001000
  outer loop
    vertex -9.857436 3.852915 58.417305
    vertex -9.852187 3.803191 58.417305
    vertex -9.877325 3.850813 58.417305
  endloop
endfacet
facet normal 0.000000 0.000000 -0.000999
  outer loop
    vertex -9.837546 3.855012 58.417305
    vertex -9.812429 3.807379 58.417305
    vertex -9.832309 3.805287 58.417305
  endloop
endfacet
facet normal 0.000000 -0.000000 -0.000999
  outer loop
    vertex -9.837546 3.855012 58.417305
    vertex -9.832309 3.805287 58.417305
    vertex -9.852187 3.803191 58.417305
  endloop
endfacet
facet normal 0.000000 0.000000 -0.001000
  outer loop
    vertex -9.837546 3.855012 58.417305
    vertex -9.852187 3.803191 58.417305
    vertex -9.857436 3.852915 58.417305
  endloop
endfacet
facet normal 0.000000 -0.000000 -0.001000
  outer loop
    vertex -9.817657 3.857105 58.417305
    vertex -9.812429 3.807379 58.417305
    vertex -9.837546 3.855012 58.417305
  endloop
endfacet
facet normal 0.000000 0.000000 0.000999
  outer loop
    vertex -9.852187 3.803192 61.988308
    vertex -9.877325 3.850814 61.988308
    vertex -9.872066 3.801091 61.988308
  endloop
endfacet
facet normal 0.000000 0.000000 0.000999
  outer loop
    vertex -9.832309 3.805288 61.988308
    vertex -9.857436 3.852916 61.988308
    vertex -9.852187 3.803192 61.988308
  endloop
endfacet
facet normal 0.000000 0.000000 0.001000
  outer loop
    vertex -9.852187 3.803192 61.988308
    vertex -9.857436 3.852916 61.988308
    vertex -9.877325 3.850814 61.988308
  endloop
endfacet
facet normal 0.000000 0.000000 0.000999
  outer loop
    vertex -9.812429 3.807379 61.988308
    vertex -9.837546 3.855013 61.988308
    vertex -9.832309 3.805288 61.988308
  endloop
endfacet
facet normal 0.000000 0.000000 0.001000
  outer loop
    vertex -9.832309 3.805288 61.988308
    vertex -9.837546 3.855013 61.988308
    vertex -9.857436 3.852916 61.988308
  endloop
endfacet
facet normal 0.000000 0.000000 0.001000
  outer loop
    vertex -9.812429 3.807379 61.988308
    vertex -9.817657 3.857105 61.988308
    vertex -9.837546 3.855013 61.988308
  endloop
endfacet
endsolid b'MESH-MESH-MESH-MESH-MESH-MESH-MESH-MESH-MESH-MESH-MESH-MESH-MESH-MESH-MESH-MESH'
