solid b'MESH-MESH-MESH-MESH-MESH-MESH-MESH-MESH-MESH-MESH-MESH-MESH-MESH-MESH-MESH-MESH'
facet normal 0.007473 0.071026 -0.000000
  outer loop
    vertex 9.837557 3.855011 320.239014
    vertex 9.817667 3.857103 320.239014
    vertex 9.817667 3.857104 323.809998
  endloop
endfacet
facet normal 0.007473 0.071026 -0.000000
  outer loop
    vertex 9.837557 3.855011 320.239014
    vertex 9.817667 3.857104 323.809998
    vertex 9.837557 3.855011 323.809998
  endloop
endfacet
facet normal 0.007489 0.071026 -0.000000
  outer loop
    vertex 9.857447 3.852913 320.239014
    vertex 9.837557 3.855011 323.809998
    vertex 9.857447 3.852914 323.809998
  endloop
endfacet
facet normal 0.007505 0.071026 -0.000000
  outer loop
    vertex 9.857447 3.852913 320.239014
    vertex 9.857447 3.852914 323.809998
    vertex 9.877337 3.850812 323.809998
  endloop
endfacet
facet normal 0.007490 0.071026 -0.000000
  outer loop
    vertex 9.857447 3.852913 320.239014
    vertex 9.837557 3.855011 320.239014
    vertex 9.837557 3.855011 323.809998
  endloop
endfacet
facet normal 0.007505 0.071026 -0.000000
  outer loop
    vertex 9.877337 3.850812 320.239014
    vertex 9.857447 3.852913 320.239014
    vertex 9.877337 3.850812 323.809998
  endloop
endfacet
facet normal 0.177559 -0.018782 0.000000
  outer loop
    vertex 9.877337 3.850812 320.239014
    vertex 9.877337 3.850812 323.809998
    vertex 9.872077 3.801090 323.809998
  endloop
endfacet
facet normal 0.177558 -0.018782 0.000000
  outer loop
    vertex 9.872077 3.801089 320.239014
    vertex 9.877337 3.850812 320.239014
    vertex 9.872077 3.801090 323.809998
  endloop
endfacet
facet normal -0.007469 -0.070985 0.000000
  outer loop
    vertex 9.812441 3.807378 323.809998
    vertex 9.832319 3.805286 320.239014
    vertex 9.832319 3.805286 323.809998
  endloop
endfacet
facet normal -0.007469 -0.070985 0.000000
  outer loop
    vertex 9.812441 3.807377 320.239014
    vertex 9.832319 3.805286 320.239014
    vertex 9.812441 3.807378 323.809998
  endloop
endfacet
facet normal -0.007485 -0.070989 0.000000
  outer loop
    vertex 9.832319 3.805286 323.809998
    vertex 9.852199 3.803190 320.239014
    vertex 9.852199 3.803190 323.809998
  endloop
endfacet
facet normal -0.007501 -0.070985 0.000000
  outer loop
    vertex 9.852199 3.803190 323.809998
    vertex 9.852199 3.803190 320.239014
    vertex 9.872077 3.801090 323.809998
  endloop
endfacet
facet normal -0.007485 -0.070989 0.000000
  outer loop
    vertex 9.832319 3.805286 320.239014
    vertex 9.852199 3.803190 320.239014
    vertex 9.832319 3.805286 323.809998
  endloop
endfacet
facet normal -0.007501 -0.070985 0.000000
  outer loop
    vertex 9.852199 3.803190 320.239014
    vertex 9.872077 3.801089 320.239014
    vertex 9.872077 3.801090 323.809998
  endloop
endfacet
facet normal -0.177571 0.018662 -0.000000
  outer loop
    vertex 9.817667 3.857103 320.239014
    vertex 9.812441 3.807377 320.239014
    vertex 9.812441 3.807378 323.809998
  endloop
endfacet
facet normal -0.177571 0.018662 -0.000000
  outer loop
    vertex 9.817667 3.857103 320.239014
    vertex 9.812441 3.807378 323.809998
    vertex 9.817667 3.857104 323.809998
  endloop
endfacet
facet normal 0.000000 0.000000 -0.000999
  outer loop
    vertex 9.852199 3.803190 320.239014
    vertex 9.877337 3.850812 320.239014
    vertex 9.872077 3.801089 320.239014
  endloop
endfacet
facet normal 0.000000 0.000000 -0.000999
  outer loop
    vertex 9.832319 3.805286 320.239014
    vertex 9.857447 3.852913 320.239014
    vertex 9.852199 3.803190 320.239014
  endloop
endfacet
facet normal 0.000000 0.000000 -0.001000
  outer loop
    vertex 9.852199 3.803190 320.239014
    vertex 9.857447 3.852913 320.239014
    vertex 9.877337 3.850812 320.239014
  endloop
endfacet
facet normal 0.000000 0.000000 -0.000999
  outer loop
    vertex 9.812441 3.807377 320.239014
    vertex 9.837557 3.855011 320.239014
    vertex 9.832319 3.805286 320.239014
  endloop
endfacet
facet normal 0.000000 0.000000 -0.001000
  outer loop
    vertex 9.832319 3.805286 320.239014
    vertex 9.837557 3.855011 320.239014
    vertex 9.857447 3.852913 320.239014
  endloop
endfacet
facet normal 0.000000 0.000000 -0.001000
  outer loop
    vertex 9.812441 3.807377 320.239014
    vertex 9.817667 3.857103 320.239014
    vertex 9.837557 3.855011 320.239014
  endloop
endfacet
facet normal 0.000000 0.000000 0.000999
  outer loop
    vertex 9.877337 3.850812 323.809998
    vertex 9.852199 3.803190 323.809998
    vertex 9.872077 3.801090 323.809998
  endloop
endfacet
facet normal 0.000000 0.000000 0.001000
  outer loop
    vertex 9.857447 3.852914 323.809998
    vertex 9.852199 3.803190 323.809998
    vertex 9.877337 3.850812 323.809998
  endloop
endfacet
facet normal 0.000000 0.000000 0.000999
  outer loop
    vertex 9.837557 3.855011 323.809998
    vertex 9.832319 3.805286 323.809998
    vertex 9.852199 3.803190 323.809998
  endloop
endfacet
facet normal 0.000000 0.000000 0.001000
  outer loop
    vertex 9.837557 3.855011 323.809998
    vertex 9.852199 3.803190 323.809998
    vertex 9.857447 3.852914 323.809998
  endloop
endfacet
facet normal 0.000000 0.000000 0.000999
  outer loop
    vertex 9.817667 3.857104 323.809998
    vertex 9.812441 3.807378 323.809998
    vertex 9.832319 3.805286 323.809998
  endloop
endfacet
facet normal 0.000000 0.000000 0.001000
  outer loop
    vertex 9.817667 3.857104 323.809998
    vertex 9.832319 3.805286 323.809998
    vertex 9.837557 3.855011 323.809998
  endloop
endfacet
endsolid b'MESH-MESH-MESH-MESH-MESH-MESH-MESH-MESH-MESH-MESH-MESH-MESH-MESH-MESH-MESH-MESH'
