solid b'MESH-MESH-MESH-MESH-MESH-MESH-MESH-MESH-MESH-MESH-MESH-MESH-MESH-MESH-MESH-MESH'
facet normal -0.007426 0.071034 0.000000
  outer loop
    vertex -9.777874 3.861277 291.311005
    vertex -9.757982 3.863357 291.311005
    vertex -9.757982 3.863357 287.739990
  endloop
endfacet
facet normal -0.007426 0.071034 0.000000
  outer loop
    vertex -9.777874 3.861277 291.311005
    vertex -9.757982 3.863357 287.739990
    vertex -9.777874 3.861277 287.739990
  endloop
endfacet
facet normal -0.007442 0.071030 0.000000
  outer loop
    vertex -9.797765 3.859193 291.311005
    vertex -9.777874 3.861277 287.739990
    vertex -9.797765 3.859193 287.739990
  endloop
endfacet
facet normal -0.007457 0.071030 0.000000
  outer loop
    vertex -9.797765 3.859193 291.311005
    vertex -9.797765 3.859193 287.739990
    vertex -9.817656 3.857105 287.739990
  endloop
endfacet
facet normal -0.007442 0.071030 0.000000
  outer loop
    vertex -9.797765 3.859193 291.311005
    vertex -9.777874 3.861277 291.311005
    vertex -9.777874 3.861277 287.739990
  endloop
endfacet
facet normal -0.007457 0.071030 0.000000
  outer loop
    vertex -9.817656 3.857105 291.311005
    vertex -9.797765 3.859193 291.311005
    vertex -9.817656 3.857105 287.739990
  endloop
endfacet
facet normal -0.177573 -0.018663 0.000000
  outer loop
    vertex -9.817656 3.857105 291.311005
    vertex -9.812429 3.807379 287.739990
    vertex -9.812429 3.807379 291.311005
  endloop
endfacet
facet normal -0.177573 -0.018663 0.000000
  outer loop
    vertex -9.817656 3.857105 287.739990
    vertex -9.812429 3.807379 287.739990
    vertex -9.817656 3.857105 291.311005
  endloop
endfacet
facet normal 0.007422 -0.070996 0.000000
  outer loop
    vertex -9.752789 3.813627 287.739990
    vertex -9.772670 3.811549 291.311005
    vertex -9.772670 3.811549 287.739990
  endloop
endfacet
facet normal 0.007422 -0.070996 0.000000
  outer loop
    vertex -9.752789 3.813627 291.311005
    vertex -9.772670 3.811549 291.311005
    vertex -9.752789 3.813627 287.739990
  endloop
endfacet
facet normal 0.007437 -0.070989 0.000000
  outer loop
    vertex -9.772670 3.811549 287.739990
    vertex -9.792549 3.809466 291.311005
    vertex -9.792549 3.809466 287.739990
  endloop
endfacet
facet normal 0.007454 -0.070993 0.000000
  outer loop
    vertex -9.792549 3.809466 287.739990
    vertex -9.792549 3.809466 291.311005
    vertex -9.812429 3.807379 287.739990
  endloop
endfacet
facet normal 0.007438 -0.070989 0.000000
  outer loop
    vertex -9.772670 3.811549 291.311005
    vertex -9.792549 3.809466 291.311005
    vertex -9.772670 3.811549 287.739990
  endloop
endfacet
facet normal 0.007454 -0.070993 0.000000
  outer loop
    vertex -9.792549 3.809466 291.311005
    vertex -9.812429 3.807379 291.311005
    vertex -9.812429 3.807379 287.739990
  endloop
endfacet
facet normal 0.177585 0.018547 0.000000
  outer loop
    vertex -9.752789 3.813627 291.311005
    vertex -9.752789 3.813627 287.739990
    vertex -9.757982 3.863357 291.311005
  endloop
endfacet
facet normal 0.177585 0.018547 0.000000
  outer loop
    vertex -9.752789 3.813627 287.739990
    vertex -9.757982 3.863357 287.739990
    vertex -9.757982 3.863357 291.311005
  endloop
endfacet
facet normal 0.000000 0.000000 -0.000999
  outer loop
    vertex -9.817656 3.857105 287.739990
    vertex -9.792549 3.809466 287.739990
    vertex -9.812429 3.807379 287.739990
  endloop
endfacet
facet normal 0.000000 -0.000000 -0.001000
  outer loop
    vertex -9.797765 3.859193 287.739990
    vertex -9.792549 3.809466 287.739990
    vertex -9.817656 3.857105 287.739990
  endloop
endfacet
facet normal 0.000000 -0.000000 -0.000999
  outer loop
    vertex -9.777874 3.861277 287.739990
    vertex -9.772670 3.811549 287.739990
    vertex -9.792549 3.809466 287.739990
  endloop
endfacet
facet normal 0.000000 0.000000 -0.001000
  outer loop
    vertex -9.777874 3.861277 287.739990
    vertex -9.792549 3.809466 287.739990
    vertex -9.797765 3.859193 287.739990
  endloop
endfacet
facet normal 0.000000 -0.000000 -0.000999
  outer loop
    vertex -9.757982 3.863357 287.739990
    vertex -9.752789 3.813627 287.739990
    vertex -9.772670 3.811549 287.739990
  endloop
endfacet
facet normal 0.000000 0.000000 -0.001000
  outer loop
    vertex -9.757982 3.863357 287.739990
    vertex -9.772670 3.811549 287.739990
    vertex -9.777874 3.861277 287.739990
  endloop
endfacet
facet normal 0.000000 0.000000 0.000999
  outer loop
    vertex -9.792549 3.809466 291.311005
    vertex -9.817656 3.857105 291.311005
    vertex -9.812429 3.807379 291.311005
  endloop
endfacet
facet normal 0.000000 0.000000 0.000999
  outer loop
    vertex -9.772670 3.811549 291.311005
    vertex -9.797765 3.859193 291.311005
    vertex -9.792549 3.809466 291.311005
  endloop
endfacet
facet normal 0.000000 0.000000 0.001000
  outer loop
    vertex -9.792549 3.809466 291.311005
    vertex -9.797765 3.859193 291.311005
    vertex -9.817656 3.857105 291.311005
  endloop
endfacet
facet normal 0.000000 0.000000 0.000999
  outer loop
    vertex -9.752789 3.813627 291.311005
    vertex -9.777874 3.861277 291.311005
    vertex -9.772670 3.811549 291.311005
  endloop
endfacet
facet normal 0.000000 0.000000 0.001000
  outer loop
    vertex -9.772670 3.811549 291.311005
    vertex -9.777874 3.861277 291.311005
    vertex -9.797765 3.859193 291.311005
  endloop
endfacet
facet normal 0.000000 0.000000 0.001000
  outer loop
    vertex -9.752789 3.813627 291.311005
    vertex -9.757982 3.863357 291.311005
    vertex -9.777874 3.861277 291.311005
  endloop
endfacet
endsolid b'MESH-MESH-MESH-MESH-MESH-MESH-MESH-MESH-MESH-MESH-MESH-MESH-MESH-MESH-MESH-MESH'
