solid b'MESH-MESH-MESH-MESH-MESH-MESH-MESH-MESH-MESH-MESH-MESH-MESH-MESH-MESH-MESH-MESH'
facet normal 0.007474 -0.071027 -0.000000
  outer loop
    vertex 9.837549 -3.855012 181.781784
    vertex 9.817659 -3.857105 181.781784
    vertex 9.817659 -3.857104 178.210785
  endloop
endfacet
facet normal 0.007473 -0.071027 -0.000000
  outer loop
    vertex 9.837549 -3.855012 181.781784
    vertex 9.817659 -3.857104 178.210785
    vertex 9.837549 -3.855011 178.210785
  endloop
endfacet
facet normal 0.007490 -0.071027 -0.000000
  outer loop
    vertex 9.857439 -3.852915 181.781784
    vertex 9.837549 -3.855011 178.210785
    vertex 9.857439 -3.852914 178.210785
  endloop
endfacet
facet normal 0.007489 -0.071027 -0.000000
  outer loop
    vertex 9.857439 -3.852915 181.781784
    vertex 9.837549 -3.855012 181.781784
    vertex 9.837549 -3.855011 178.210785
  endloop
endfacet
facet normal 0.007504 -0.071027 -0.000000
  outer loop
    vertex 9.877329 -3.850813 181.781784
    vertex 9.857439 -3.852914 178.210785
    vertex 9.877329 -3.850813 178.210785
  endloop
endfacet
facet normal 0.007505 -0.071027 -0.000000
  outer loop
    vertex 9.877329 -3.850813 181.781784
    vertex 9.857439 -3.852915 181.781784
    vertex 9.857439 -3.852914 178.210785
  endloop
endfacet
facet normal 0.177560 0.018782 0.000000
  outer loop
    vertex 9.877329 -3.850813 181.781784
    vertex 9.872069 -3.801090 178.210785
    vertex 9.872069 -3.801091 181.781784
  endloop
endfacet
facet normal 0.177560 0.018782 0.000000
  outer loop
    vertex 9.877329 -3.850813 178.210785
    vertex 9.872069 -3.801090 178.210785
    vertex 9.877329 -3.850813 181.781784
  endloop
endfacet
facet normal -0.007469 0.070989 0.000000
  outer loop
    vertex 9.812433 -3.807378 178.210785
    vertex 9.832313 -3.805287 181.781784
    vertex 9.832313 -3.805286 178.210785
  endloop
endfacet
facet normal -0.007469 0.070989 0.000000
  outer loop
    vertex 9.812433 -3.807379 181.781784
    vertex 9.832313 -3.805287 181.781784
    vertex 9.812433 -3.807378 178.210785
  endloop
endfacet
facet normal -0.007485 0.070986 0.000000
  outer loop
    vertex 9.832313 -3.805286 178.210785
    vertex 9.852191 -3.803191 181.781784
    vertex 9.852191 -3.803190 178.210785
  endloop
endfacet
facet normal -0.007485 0.070986 0.000000
  outer loop
    vertex 9.832313 -3.805287 181.781784
    vertex 9.852191 -3.803191 181.781784
    vertex 9.832313 -3.805286 178.210785
  endloop
endfacet
facet normal -0.007501 0.070986 0.000000
  outer loop
    vertex 9.852191 -3.803190 178.210785
    vertex 9.872069 -3.801091 181.781784
    vertex 9.872069 -3.801090 178.210785
  endloop
endfacet
facet normal -0.007501 0.070986 0.000000
  outer loop
    vertex 9.852191 -3.803191 181.781784
    vertex 9.872069 -3.801091 181.781784
    vertex 9.852191 -3.803190 178.210785
  endloop
endfacet
facet normal -0.177572 -0.018663 -0.000000
  outer loop
    vertex 9.812433 -3.807379 181.781784
    vertex 9.817659 -3.857104 178.210785
    vertex 9.817659 -3.857105 181.781784
  endloop
endfacet
facet normal -0.177572 -0.018663 -0.000000
  outer loop
    vertex 9.812433 -3.807378 178.210785
    vertex 9.817659 -3.857104 178.210785
    vertex 9.812433 -3.807379 181.781784
  endloop
endfacet
facet normal 0.000000 0.000000 -0.000999
  outer loop
    vertex 9.877329 -3.850813 178.210785
    vertex 9.852191 -3.803190 178.210785
    vertex 9.872069 -3.801090 178.210785
  endloop
endfacet
facet normal 0.000000 0.000000 -0.000999
  outer loop
    vertex 9.857439 -3.852914 178.210785
    vertex 9.832313 -3.805286 178.210785
    vertex 9.852191 -3.803190 178.210785
  endloop
endfacet
facet normal 0.000000 0.000000 -0.001000
  outer loop
    vertex 9.857439 -3.852914 178.210785
    vertex 9.852191 -3.803190 178.210785
    vertex 9.877329 -3.850813 178.210785
  endloop
endfacet
facet normal 0.000000 0.000000 -0.001000
  outer loop
    vertex 9.837549 -3.855011 178.210785
    vertex 9.832313 -3.805286 178.210785
    vertex 9.857439 -3.852914 178.210785
  endloop
endfacet
facet normal 0.000000 0.000000 -0.000999
  outer loop
    vertex 9.817659 -3.857104 178.210785
    vertex 9.812433 -3.807378 178.210785
    vertex 9.832313 -3.805286 178.210785
  endloop
endfacet
facet normal 0.000000 0.000000 -0.001000
  outer loop
    vertex 9.817659 -3.857104 178.210785
    vertex 9.832313 -3.805286 178.210785
    vertex 9.837549 -3.855011 178.210785
  endloop
endfacet
facet normal -0.000000 0.000000 0.000999
  outer loop
    vertex 9.852191 -3.803191 181.781784
    vertex 9.877329 -3.850813 181.781784
    vertex 9.872069 -3.801091 181.781784
  endloop
endfacet
facet normal -0.000000 0.000000 0.000999
  outer loop
    vertex 9.832313 -3.805287 181.781784
    vertex 9.857439 -3.852915 181.781784
    vertex 9.852191 -3.803191 181.781784
  endloop
endfacet
facet normal 0.000000 0.000000 0.001000
  outer loop
    vertex 9.852191 -3.803191 181.781784
    vertex 9.857439 -3.852915 181.781784
    vertex 9.877329 -3.850813 181.781784
  endloop
endfacet
facet normal -0.000000 0.000000 0.000999
  outer loop
    vertex 9.812433 -3.807379 181.781784
    vertex 9.837549 -3.855012 181.781784
    vertex 9.832313 -3.805287 181.781784
  endloop
endfacet
facet normal 0.000000 0.000000 0.001000
  outer loop
    vertex 9.832313 -3.805287 181.781784
    vertex 9.837549 -3.855012 181.781784
    vertex 9.857439 -3.852915 181.781784
  endloop
endfacet
facet normal 0.000000 0.000000 0.001000
  outer loop
    vertex 9.812433 -3.807379 181.781784
    vertex 9.817659 -3.857105 181.781784
    vertex 9.837549 -3.855012 181.781784
  endloop
endfacet
endsolid b'MESH-MESH-MESH-MESH-MESH-MESH-MESH-MESH-MESH-MESH-MESH-MESH-MESH-MESH-MESH-MESH'
