solid b'MESH-MESH-MESH-MESH-MESH-MESH-MESH-MESH-MESH-MESH-MESH-MESH-MESH-MESH-MESH-MESH'
facet normal -0.007473 -0.071026 -0.000000
  outer loop
    vertex -9.837557 -3.855011 428.716583
    vertex -9.817667 -3.857103 428.716583
    vertex -9.817667 -3.857104 432.287567
  endloop
endfacet
facet normal -0.007473 -0.071026 -0.000000
  outer loop
    vertex -9.837557 -3.855011 428.716583
    vertex -9.817667 -3.857104 432.287567
    vertex -9.837557 -3.855011 432.287567
  endloop
endfacet
facet normal -0.007489 -0.071026 -0.000000
  outer loop
    vertex -9.857447 -3.852913 428.716583
    vertex -9.837557 -3.855011 432.287567
    vertex -9.857447 -3.852914 432.287567
  endloop
endfacet
facet normal -0.007505 -0.071026 -0.000000
  outer loop
    vertex -9.857447 -3.852913 428.716583
    vertex -9.857447 -3.852914 432.287567
    vertex -9.877337 -3.850812 432.287567
  endloop
endfacet
facet normal -0.007490 -0.071026 -0.000000
  outer loop
    vertex -9.857447 -3.852913 428.716583
    vertex -9.837557 -3.855011 428.716583
    vertex -9.837557 -3.855011 432.287567
  endloop
endfacet
facet normal -0.007505 -0.071026 -0.000000
  outer loop
    vertex -9.877337 -3.850812 428.716583
    vertex -9.857447 -3.852913 428.716583
    vertex -9.877337 -3.850812 432.287567
  endloop
endfacet
facet normal -0.177559 0.018782 0.000000
  outer loop
    vertex -9.877337 -3.850812 428.716583
    vertex -9.877337 -3.850812 432.287567
    vertex -9.872077 -3.801090 432.287567
  endloop
endfacet
facet normal -0.177558 0.018782 0.000000
  outer loop
    vertex -9.872077 -3.801089 428.716583
    vertex -9.877337 -3.850812 428.716583
    vertex -9.872077 -3.801090 432.287567
  endloop
endfacet
facet normal 0.007469 0.070985 0.000000
  outer loop
    vertex -9.812441 -3.807378 432.287567
    vertex -9.832319 -3.805286 428.716583
    vertex -9.832319 -3.805286 432.287567
  endloop
endfacet
facet normal 0.007469 0.070985 0.000000
  outer loop
    vertex -9.812441 -3.807377 428.716583
    vertex -9.832319 -3.805286 428.716583
    vertex -9.812441 -3.807378 432.287567
  endloop
endfacet
facet normal 0.007485 0.070989 0.000000
  outer loop
    vertex -9.832319 -3.805286 432.287567
    vertex -9.852199 -3.803190 428.716583
    vertex -9.852199 -3.803190 432.287567
  endloop
endfacet
facet normal 0.007501 0.070985 0.000000
  outer loop
    vertex -9.852199 -3.803190 432.287567
    vertex -9.852199 -3.803190 428.716583
    vertex -9.872077 -3.801090 432.287567
  endloop
endfacet
facet normal 0.007485 0.070989 0.000000
  outer loop
    vertex -9.832319 -3.805286 428.716583
    vertex -9.852199 -3.803190 428.716583
    vertex -9.832319 -3.805286 432.287567
  endloop
endfacet
facet normal 0.007501 0.070985 0.000000
  outer loop
    vertex -9.852199 -3.803190 428.716583
    vertex -9.872077 -3.801089 428.716583
    vertex -9.872077 -3.801090 432.287567
  endloop
endfacet
facet normal 0.177571 -0.018662 -0.000000
  outer loop
    vertex -9.817667 -3.857103 428.716583
    vertex -9.812441 -3.807377 428.716583
    vertex -9.812441 -3.807378 432.287567
  endloop
endfacet
facet normal 0.177571 -0.018662 -0.000000
  outer loop
    vertex -9.817667 -3.857103 428.716583
    vertex -9.812441 -3.807378 432.287567
    vertex -9.817667 -3.857104 432.287567
  endloop
endfacet
facet normal -0.000000 0.000000 -0.000999
  outer loop
    vertex -9.852199 -3.803190 428.716583
    vertex -9.877337 -3.850812 428.716583
    vertex -9.872077 -3.801089 428.716583
  endloop
endfacet
facet normal -0.000000 0.000000 -0.000999
  outer loop
    vertex -9.832319 -3.805286 428.716583
    vertex -9.857447 -3.852913 428.716583
    vertex -9.852199 -3.803190 428.716583
  endloop
endfacet
facet normal 0.000000 0.000000 -0.001000
  outer loop
    vertex -9.852199 -3.803190 428.716583
    vertex -9.857447 -3.852913 428.716583
    vertex -9.877337 -3.850812 428.716583
  endloop
endfacet
facet normal -0.000000 0.000000 -0.000999
  outer loop
    vertex -9.812441 -3.807377 428.716583
    vertex -9.837557 -3.855011 428.716583
    vertex -9.832319 -3.805286 428.716583
  endloop
endfacet
facet normal 0.000000 0.000000 -0.001000
  outer loop
    vertex -9.832319 -3.805286 428.716583
    vertex -9.837557 -3.855011 428.716583
    vertex -9.857447 -3.852913 428.716583
  endloop
endfacet
facet normal 0.000000 0.000000 -0.001000
  outer loop
    vertex -9.812441 -3.807377 428.716583
    vertex -9.817667 -3.857103 428.716583
    vertex -9.837557 -3.855011 428.716583
  endloop
endfacet
facet normal 0.000000 0.000000 0.000999
  outer loop
    vertex -9.877337 -3.850812 432.287567
    vertex -9.852199 -3.803190 432.287567
    vertex -9.872077 -3.801090 432.287567
  endloop
endfacet
facet normal 0.000000 -0.000000 0.001000
  outer loop
    vertex -9.857447 -3.852914 432.287567
    vertex -9.852199 -3.803190 432.287567
    vertex -9.877337 -3.850812 432.287567
  endloop
endfacet
facet normal 0.000000 -0.000000 0.000999
  outer loop
    vertex -9.837557 -3.855011 432.287567
    vertex -9.832319 -3.805286 432.287567
    vertex -9.852199 -3.803190 432.287567
  endloop
endfacet
facet normal 0.000000 0.000000 0.001000
  outer loop
    vertex -9.837557 -3.855011 432.287567
    vertex -9.852199 -3.803190 432.287567
    vertex -9.857447 -3.852914 432.287567
  endloop
endfacet
facet normal 0.000000 -0.000000 0.000999
  outer loop
    vertex -9.817667 -3.857104 432.287567
    vertex -9.812441 -3.807378 432.287567
    vertex -9.832319 -3.805286 432.287567
  endloop
endfacet
facet normal 0.000000 0.000000 0.001000
  outer loop
    vertex -9.817667 -3.857104 432.287567
    vertex -9.832319 -3.805286 432.287567
    vertex -9.837557 -3.855011 432.287567
  endloop
endfacet
endsolid b'MESH-MESH-MESH-MESH-MESH-MESH-MESH-MESH-MESH-MESH-MESH-MESH-MESH-MESH-MESH-MESH'
