solid b'MESH-MESH-MESH-MESH-MESH-MESH-MESH-MESH-MESH-MESH-MESH-MESH-MESH-MESH-MESH-MESH'
facet normal 0.007427 0.071034 0.000000
  outer loop
    vertex 9.777874 3.861277 -407.030579
    vertex 9.757982 3.863357 -407.030579
    vertex 9.757982 3.863357 -403.459564
  endloop
endfacet
facet normal 0.007426 0.071034 -0.000000
  outer loop
    vertex 9.777874 3.861277 -407.030579
    vertex 9.757982 3.863357 -403.459564
    vertex 9.777874 3.861277 -403.459564
  endloop
endfacet
facet normal 0.007442 0.071030 0.000000
  outer loop
    vertex 9.797765 3.859194 -407.030579
    vertex 9.777874 3.861277 -403.459564
    vertex 9.797765 3.859193 -403.459564
  endloop
endfacet
facet normal 0.007457 0.071030 0.000000
  outer loop
    vertex 9.797765 3.859194 -407.030579
    vertex 9.797765 3.859193 -403.459564
    vertex 9.817656 3.857105 -403.459564
  endloop
endfacet
facet normal 0.007441 0.071030 0.000000
  outer loop
    vertex 9.797765 3.859194 -407.030579
    vertex 9.777874 3.861277 -407.030579
    vertex 9.777874 3.861277 -403.459564
  endloop
endfacet
facet normal 0.007458 0.071030 -0.000000
  outer loop
    vertex 9.817656 3.857105 -407.030579
    vertex 9.797765 3.859194 -407.030579
    vertex 9.817656 3.857105 -403.459564
  endloop
endfacet
facet normal 0.177572 -0.018666 0.000000
  outer loop
    vertex 9.817656 3.857105 -407.030579
    vertex 9.817656 3.857105 -403.459564
    vertex 9.812428 3.807379 -407.030579
  endloop
endfacet
facet normal 0.177572 -0.018663 -0.000000
  outer loop
    vertex 9.817656 3.857105 -403.459564
    vertex 9.812429 3.807379 -403.459564
    vertex 9.812428 3.807379 -407.030579
  endloop
endfacet
facet normal -0.007422 -0.070993 0.000000
  outer loop
    vertex 9.752789 3.813627 -403.459564
    vertex 9.772669 3.811549 -407.030579
    vertex 9.772669 3.811549 -403.459564
  endloop
endfacet
facet normal -0.007422 -0.070993 0.000000
  outer loop
    vertex 9.752789 3.813627 -407.030579
    vertex 9.772669 3.811549 -407.030579
    vertex 9.752789 3.813627 -403.459564
  endloop
endfacet
facet normal -0.007438 -0.070993 0.000000
  outer loop
    vertex 9.772669 3.811549 -403.459564
    vertex 9.792549 3.809466 -407.030579
    vertex 9.792549 3.809466 -403.459564
  endloop
endfacet
facet normal -0.007453 -0.070993 -0.000000
  outer loop
    vertex 9.792549 3.809466 -403.459564
    vertex 9.792549 3.809466 -407.030579
    vertex 9.812429 3.807379 -403.459564
  endloop
endfacet
facet normal -0.007438 -0.070993 0.000000
  outer loop
    vertex 9.772669 3.811549 -407.030579
    vertex 9.792549 3.809466 -407.030579
    vertex 9.772669 3.811549 -403.459564
  endloop
endfacet
facet normal -0.007453 -0.070989 0.000000
  outer loop
    vertex 9.792549 3.809466 -407.030579
    vertex 9.812428 3.807379 -407.030579
    vertex 9.812429 3.807379 -403.459564
  endloop
endfacet
facet normal -0.177585 0.018547 0.000000
  outer loop
    vertex 9.752789 3.813627 -407.030579
    vertex 9.752789 3.813627 -403.459564
    vertex 9.757982 3.863357 -407.030579
  endloop
endfacet
facet normal -0.177584 0.018547 0.000000
  outer loop
    vertex 9.752789 3.813627 -403.459564
    vertex 9.757982 3.863357 -403.459564
    vertex 9.757982 3.863357 -407.030579
  endloop
endfacet
facet normal 0.000000 0.000000 0.000999
  outer loop
    vertex 9.817656 3.857105 -403.459564
    vertex 9.792549 3.809466 -403.459564
    vertex 9.812429 3.807379 -403.459564
  endloop
endfacet
facet normal 0.000000 0.000000 0.000999
  outer loop
    vertex 9.797765 3.859193 -403.459564
    vertex 9.772669 3.811549 -403.459564
    vertex 9.792549 3.809466 -403.459564
  endloop
endfacet
facet normal 0.000000 0.000000 0.001000
  outer loop
    vertex 9.797765 3.859193 -403.459564
    vertex 9.792549 3.809466 -403.459564
    vertex 9.817656 3.857105 -403.459564
  endloop
endfacet
facet normal 0.000000 0.000000 0.001000
  outer loop
    vertex 9.777874 3.861277 -403.459564
    vertex 9.772669 3.811549 -403.459564
    vertex 9.797765 3.859193 -403.459564
  endloop
endfacet
facet normal 0.000000 0.000000 0.000999
  outer loop
    vertex 9.757982 3.863357 -403.459564
    vertex 9.752789 3.813627 -403.459564
    vertex 9.772669 3.811549 -403.459564
  endloop
endfacet
facet normal 0.000000 0.000000 0.001000
  outer loop
    vertex 9.757982 3.863357 -403.459564
    vertex 9.772669 3.811549 -403.459564
    vertex 9.777874 3.861277 -403.459564
  endloop
endfacet
facet normal 0.000000 0.000000 -0.000999
  outer loop
    vertex 9.792549 3.809466 -407.030579
    vertex 9.817656 3.857105 -407.030579
    vertex 9.812428 3.807379 -407.030579
  endloop
endfacet
facet normal 0.000000 0.000000 -0.001000
  outer loop
    vertex 9.792549 3.809466 -407.030579
    vertex 9.797765 3.859194 -407.030579
    vertex 9.817656 3.857105 -407.030579
  endloop
endfacet
facet normal 0.000000 0.000000 -0.000999
  outer loop
    vertex 9.772669 3.811549 -407.030579
    vertex 9.777874 3.861277 -407.030579
    vertex 9.792549 3.809466 -407.030579
  endloop
endfacet
facet normal 0.000000 0.000000 -0.001000
  outer loop
    vertex 9.792549 3.809466 -407.030579
    vertex 9.777874 3.861277 -407.030579
    vertex 9.797765 3.859194 -407.030579
  endloop
endfacet
facet normal 0.000000 0.000000 -0.000999
  outer loop
    vertex 9.752789 3.813627 -407.030579
    vertex 9.757982 3.863357 -407.030579
    vertex 9.772669 3.811549 -407.030579
  endloop
endfacet
facet normal 0.000000 0.000000 -0.001000
  outer loop
    vertex 9.772669 3.811549 -407.030579
    vertex 9.757982 3.863357 -407.030579
    vertex 9.777874 3.861277 -407.030579
  endloop
endfacet
endsolid b'MESH-MESH-MESH-MESH-MESH-MESH-MESH-MESH-MESH-MESH-MESH-MESH-MESH-MESH-MESH-MESH'
