solid b'MESH-MESH-MESH-MESH-MESH-MESH-MESH-MESH-MESH-MESH-MESH-MESH-MESH-MESH-MESH-MESH'
facet normal 0.007473 -0.071026 0.000000
  outer loop
    vertex 9.837544 -3.855012 -266.556915
    vertex 9.817655 -3.857105 -266.556915
    vertex 9.817655 -3.857105 -270.127899
  endloop
endfacet
facet normal 0.007473 -0.071026 0.000000
  outer loop
    vertex 9.837544 -3.855012 -266.556915
    vertex 9.817655 -3.857105 -270.127899
    vertex 9.837544 -3.855013 -270.127899
  endloop
endfacet
facet normal 0.007490 -0.071026 0.000000
  outer loop
    vertex 9.857434 -3.852915 -266.556915
    vertex 9.837544 -3.855013 -270.127899
    vertex 9.857434 -3.852915 -270.127899
  endloop
endfacet
facet normal 0.007504 -0.071023 0.000000
  outer loop
    vertex 9.857434 -3.852915 -266.556915
    vertex 9.857434 -3.852915 -270.127899
    vertex 9.877323 -3.850814 -270.127899
  endloop
endfacet
facet normal 0.007489 -0.071026 0.000000
  outer loop
    vertex 9.857434 -3.852915 -266.556915
    vertex 9.837544 -3.855012 -266.556915
    vertex 9.837544 -3.855013 -270.127899
  endloop
endfacet
facet normal 0.007505 -0.071023 0.000000
  outer loop
    vertex 9.877323 -3.850813 -266.556915
    vertex 9.857434 -3.852915 -266.556915
    vertex 9.877323 -3.850814 -270.127899
  endloop
endfacet
facet normal 0.177559 0.018782 -0.000000
  outer loop
    vertex 9.877323 -3.850813 -266.556915
    vertex 9.877323 -3.850814 -270.127899
    vertex 9.872064 -3.801091 -270.127899
  endloop
endfacet
facet normal 0.177558 0.018782 -0.000000
  outer loop
    vertex 9.872064 -3.801090 -266.556915
    vertex 9.877323 -3.850813 -266.556915
    vertex 9.872064 -3.801091 -270.127899
  endloop
endfacet
facet normal -0.007469 0.070989 -0.000000
  outer loop
    vertex 9.812428 -3.807379 -270.127899
    vertex 9.832307 -3.805287 -266.556915
    vertex 9.832307 -3.805288 -270.127899
  endloop
endfacet
facet normal -0.007485 0.070989 -0.000000
  outer loop
    vertex 9.832307 -3.805288 -270.127899
    vertex 9.832307 -3.805287 -266.556915
    vertex 9.852186 -3.803192 -270.127899
  endloop
endfacet
facet normal -0.007469 0.070989 -0.000000
  outer loop
    vertex 9.812428 -3.807379 -266.556915
    vertex 9.832307 -3.805287 -266.556915
    vertex 9.812428 -3.807379 -270.127899
  endloop
endfacet
facet normal -0.007501 0.070982 -0.000000
  outer loop
    vertex 9.852186 -3.803192 -270.127899
    vertex 9.852186 -3.803191 -266.556915
    vertex 9.872064 -3.801091 -270.127899
  endloop
endfacet
facet normal -0.007485 0.070989 -0.000000
  outer loop
    vertex 9.832307 -3.805287 -266.556915
    vertex 9.852186 -3.803191 -266.556915
    vertex 9.852186 -3.803192 -270.127899
  endloop
endfacet
facet normal -0.007500 0.070982 -0.000000
  outer loop
    vertex 9.852186 -3.803191 -266.556915
    vertex 9.872064 -3.801090 -266.556915
    vertex 9.872064 -3.801091 -270.127899
  endloop
endfacet
facet normal -0.177571 -0.018666 0.000000
  outer loop
    vertex 9.817655 -3.857105 -266.556915
    vertex 9.812428 -3.807379 -266.556915
    vertex 9.812428 -3.807379 -270.127899
  endloop
endfacet
facet normal -0.177571 -0.018666 0.000000
  outer loop
    vertex 9.817655 -3.857105 -266.556915
    vertex 9.812428 -3.807379 -270.127899
    vertex 9.817655 -3.857105 -270.127899
  endloop
endfacet
facet normal -0.000000 0.000000 0.000999
  outer loop
    vertex 9.852186 -3.803191 -266.556915
    vertex 9.877323 -3.850813 -266.556915
    vertex 9.872064 -3.801090 -266.556915
  endloop
endfacet
facet normal -0.000000 0.000000 0.000999
  outer loop
    vertex 9.832307 -3.805287 -266.556915
    vertex 9.857434 -3.852915 -266.556915
    vertex 9.852186 -3.803191 -266.556915
  endloop
endfacet
facet normal 0.000000 0.000000 0.001000
  outer loop
    vertex 9.852186 -3.803191 -266.556915
    vertex 9.857434 -3.852915 -266.556915
    vertex 9.877323 -3.850813 -266.556915
  endloop
endfacet
facet normal -0.000000 0.000000 0.000999
  outer loop
    vertex 9.812428 -3.807379 -266.556915
    vertex 9.837544 -3.855012 -266.556915
    vertex 9.832307 -3.805287 -266.556915
  endloop
endfacet
facet normal 0.000000 0.000000 0.001000
  outer loop
    vertex 9.832307 -3.805287 -266.556915
    vertex 9.837544 -3.855012 -266.556915
    vertex 9.857434 -3.852915 -266.556915
  endloop
endfacet
facet normal 0.000000 0.000000 0.001000
  outer loop
    vertex 9.812428 -3.807379 -266.556915
    vertex 9.817655 -3.857105 -266.556915
    vertex 9.837544 -3.855012 -266.556915
  endloop
endfacet
facet normal 0.000000 0.000000 -0.000999
  outer loop
    vertex 9.877323 -3.850814 -270.127899
    vertex 9.852186 -3.803192 -270.127899
    vertex 9.872064 -3.801091 -270.127899
  endloop
endfacet
facet normal 0.000000 0.000000 -0.001000
  outer loop
    vertex 9.857434 -3.852915 -270.127899
    vertex 9.852186 -3.803192 -270.127899
    vertex 9.877323 -3.850814 -270.127899
  endloop
endfacet
facet normal 0.000000 0.000000 -0.000999
  outer loop
    vertex 9.837544 -3.855013 -270.127899
    vertex 9.832307 -3.805288 -270.127899
    vertex 9.852186 -3.803192 -270.127899
  endloop
endfacet
facet normal 0.000000 0.000000 -0.001000
  outer loop
    vertex 9.837544 -3.855013 -270.127899
    vertex 9.852186 -3.803192 -270.127899
    vertex 9.857434 -3.852915 -270.127899
  endloop
endfacet
facet normal 0.000000 0.000000 -0.000999
  outer loop
    vertex 9.817655 -3.857105 -270.127899
    vertex 9.812428 -3.807379 -270.127899
    vertex 9.832307 -3.805288 -270.127899
  endloop
endfacet
facet normal 0.000000 0.000000 -0.001000
  outer loop
    vertex 9.817655 -3.857105 -270.127899
    vertex 9.832307 -3.805288 -270.127899
    vertex 9.837544 -3.855013 -270.127899
  endloop
endfacet
endsolid b'MESH-MESH-MESH-MESH-MESH-MESH-MESH-MESH-MESH-MESH-MESH-MESH-MESH-MESH-MESH-MESH'
