solid b'MESH-MESH-MESH-MESH-MESH-MESH-MESH-MESH-MESH-MESH-MESH-MESH-MESH-MESH-MESH-MESH'
facet normal 0.007473 -0.071027 -0.000000
  outer loop
    vertex 9.837544 -3.855013 167.297791
    vertex 9.817655 -3.857105 167.297791
    vertex 9.817655 -3.857105 163.726791
  endloop
endfacet
facet normal 0.007474 -0.071027 -0.000000
  outer loop
    vertex 9.837544 -3.855013 167.297791
    vertex 9.817655 -3.857105 163.726791
    vertex 9.837544 -3.855012 163.726791
  endloop
endfacet
facet normal 0.007489 -0.071027 -0.000000
  outer loop
    vertex 9.857434 -3.852915 167.297791
    vertex 9.837544 -3.855012 163.726791
    vertex 9.857434 -3.852915 163.726791
  endloop
endfacet
facet normal 0.007505 -0.071027 -0.000000
  outer loop
    vertex 9.857434 -3.852915 167.297791
    vertex 9.857434 -3.852915 163.726791
    vertex 9.877324 -3.850813 163.726791
  endloop
endfacet
facet normal 0.007490 -0.071027 -0.000000
  outer loop
    vertex 9.857434 -3.852915 167.297791
    vertex 9.837544 -3.855013 167.297791
    vertex 9.837544 -3.855012 163.726791
  endloop
endfacet
facet normal 0.007504 -0.071027 -0.000000
  outer loop
    vertex 9.877324 -3.850814 167.297791
    vertex 9.857434 -3.852915 167.297791
    vertex 9.877324 -3.850813 163.726791
  endloop
endfacet
facet normal 0.177560 0.018782 0.000000
  outer loop
    vertex 9.877324 -3.850814 167.297791
    vertex 9.877324 -3.850813 163.726791
    vertex 9.872065 -3.801091 167.297791
  endloop
endfacet
facet normal 0.177559 0.018782 0.000000
  outer loop
    vertex 9.877324 -3.850813 163.726791
    vertex 9.872065 -3.801090 163.726791
    vertex 9.872065 -3.801091 167.297791
  endloop
endfacet
facet normal -0.007469 0.070986 0.000000
  outer loop
    vertex 9.812428 -3.807379 163.726791
    vertex 9.812428 -3.807379 167.297791
    vertex 9.832307 -3.805287 163.726791
  endloop
endfacet
facet normal -0.007469 0.070986 0.000000
  outer loop
    vertex 9.812428 -3.807379 167.297791
    vertex 9.832307 -3.805288 167.297791
    vertex 9.832307 -3.805287 163.726791
  endloop
endfacet
facet normal -0.007485 0.070989 0.000000
  outer loop
    vertex 9.832307 -3.805287 163.726791
    vertex 9.852186 -3.803192 167.297791
    vertex 9.852186 -3.803191 163.726791
  endloop
endfacet
facet normal -0.007501 0.070986 0.000000
  outer loop
    vertex 9.852186 -3.803191 163.726791
    vertex 9.852186 -3.803192 167.297791
    vertex 9.872065 -3.801090 163.726791
  endloop
endfacet
facet normal -0.007485 0.070989 0.000000
  outer loop
    vertex 9.832307 -3.805288 167.297791
    vertex 9.852186 -3.803192 167.297791
    vertex 9.832307 -3.805287 163.726791
  endloop
endfacet
facet normal -0.007501 0.070986 0.000000
  outer loop
    vertex 9.852186 -3.803192 167.297791
    vertex 9.872065 -3.801091 167.297791
    vertex 9.872065 -3.801090 163.726791
  endloop
endfacet
facet normal -0.177572 -0.018663 -0.000000
  outer loop
    vertex 9.812428 -3.807379 167.297791
    vertex 9.812428 -3.807379 163.726791
    vertex 9.817655 -3.857105 167.297791
  endloop
endfacet
facet normal -0.177572 -0.018663 -0.000000
  outer loop
    vertex 9.812428 -3.807379 163.726791
    vertex 9.817655 -3.857105 163.726791
    vertex 9.817655 -3.857105 167.297791
  endloop
endfacet
facet normal 0.000000 0.000000 -0.000999
  outer loop
    vertex 9.877324 -3.850813 163.726791
    vertex 9.852186 -3.803191 163.726791
    vertex 9.872065 -3.801090 163.726791
  endloop
endfacet
facet normal 0.000000 0.000000 -0.000999
  outer loop
    vertex 9.857434 -3.852915 163.726791
    vertex 9.832307 -3.805287 163.726791
    vertex 9.852186 -3.803191 163.726791
  endloop
endfacet
facet normal 0.000000 0.000000 -0.001000
  outer loop
    vertex 9.857434 -3.852915 163.726791
    vertex 9.852186 -3.803191 163.726791
    vertex 9.877324 -3.850813 163.726791
  endloop
endfacet
facet normal 0.000000 0.000000 -0.001000
  outer loop
    vertex 9.837544 -3.855012 163.726791
    vertex 9.832307 -3.805287 163.726791
    vertex 9.857434 -3.852915 163.726791
  endloop
endfacet
facet normal 0.000000 0.000000 -0.000999
  outer loop
    vertex 9.817655 -3.857105 163.726791
    vertex 9.812428 -3.807379 163.726791
    vertex 9.832307 -3.805287 163.726791
  endloop
endfacet
facet normal 0.000000 0.000000 -0.001000
  outer loop
    vertex 9.817655 -3.857105 163.726791
    vertex 9.832307 -3.805287 163.726791
    vertex 9.837544 -3.855012 163.726791
  endloop
endfacet
facet normal -0.000000 0.000000 0.000999
  outer loop
    vertex 9.852186 -3.803192 167.297791
    vertex 9.877324 -3.850814 167.297791
    vertex 9.872065 -3.801091 167.297791
  endloop
endfacet
facet normal -0.000000 0.000000 0.000999
  outer loop
    vertex 9.832307 -3.805288 167.297791
    vertex 9.857434 -3.852915 167.297791
    vertex 9.852186 -3.803192 167.297791
  endloop
endfacet
facet normal 0.000000 0.000000 0.001000
  outer loop
    vertex 9.852186 -3.803192 167.297791
    vertex 9.857434 -3.852915 167.297791
    vertex 9.877324 -3.850814 167.297791
  endloop
endfacet
facet normal -0.000000 0.000000 0.000999
  outer loop
    vertex 9.812428 -3.807379 167.297791
    vertex 9.837544 -3.855013 167.297791
    vertex 9.832307 -3.805288 167.297791
  endloop
endfacet
facet normal 0.000000 0.000000 0.001000
  outer loop
    vertex 9.832307 -3.805288 167.297791
    vertex 9.837544 -3.855013 167.297791
    vertex 9.857434 -3.852915 167.297791
  endloop
endfacet
facet normal 0.000000 0.000000 0.001000
  outer loop
    vertex 9.812428 -3.807379 167.297791
    vertex 9.817655 -3.857105 167.297791
    vertex 9.837544 -3.855013 167.297791
  endloop
endfacet
endsolid b'MESH-MESH-MESH-MESH-MESH-MESH-MESH-MESH-MESH-MESH-MESH-MESH-MESH-MESH-MESH-MESH'
