solid b'MESH-MESH-MESH-MESH-MESH-MESH-MESH-MESH-MESH-MESH-MESH-MESH-MESH-MESH-MESH-MESH'
facet normal 0.002790 0.195601 -0.000000
  outer loop
    vertex 0.052885 4.350105 -345.703583
    vertex 0.052885 4.350105 -345.643585
    vertex 3.313043 4.303607 -345.643585
  endloop
endfacet
facet normal 0.009864 0.195373 -0.000000
  outer loop
    vertex 3.313043 4.303607 -345.703583
    vertex 3.313043 4.303607 -345.643585
    vertex 6.569384 4.139203 -345.643585
  endloop
endfacet
facet normal 0.002790 0.195601 -0.000000
  outer loop
    vertex 3.313043 4.303607 -345.703583
    vertex 0.052885 4.350105 -345.703583
    vertex 3.313043 4.303607 -345.643585
  endloop
endfacet
facet normal 0.009864 0.195373 -0.000000
  outer loop
    vertex 6.569384 4.139203 -345.703583
    vertex 3.313043 4.303607 -345.703583
    vertex 6.569384 4.139203 -345.643585
  endloop
endfacet
facet normal 0.016925 0.194888 -0.000000
  outer loop
    vertex 9.817646 3.857105 -345.703583
    vertex 6.569384 4.139203 -345.643585
    vertex 9.817646 3.857105 -345.643585
  endloop
endfacet
facet normal 0.016925 0.194888 0.000000
  outer loop
    vertex 9.817646 3.857105 -345.703583
    vertex 6.569384 4.139203 -345.703583
    vertex 6.569384 4.139203 -345.643585
  endloop
endfacet
facet normal 0.002983 -0.000314 0.000000
  outer loop
    vertex 9.817646 3.857105 -345.703583
    vertex 9.812420 3.807379 -345.643585
    vertex 9.812420 3.807379 -345.703583
  endloop
endfacet
facet normal 0.002983 -0.000314 0.000000
  outer loop
    vertex 9.817646 3.857105 -345.643585
    vertex 9.812420 3.807379 -345.643585
    vertex 9.817646 3.857105 -345.703583
  endloop
endfacet
facet normal -0.002788 -0.195493 -0.000000
  outer loop
    vertex 0.053077 4.300105 -345.643585
    vertex 0.053077 4.300105 -345.703583
    vertex 3.311425 4.253633 -345.643585
  endloop
endfacet
facet normal -0.002788 -0.195493 0.000000
  outer loop
    vertex 0.053077 4.300105 -345.703583
    vertex 3.311425 4.253633 -345.703583
    vertex 3.311425 4.253633 -345.643585
  endloop
endfacet
facet normal -0.009858 -0.195264 0.000000
  outer loop
    vertex 3.311425 4.253633 -345.643585
    vertex 6.565959 4.089320 -345.703583
    vertex 6.565959 4.089320 -345.643585
  endloop
endfacet
facet normal -0.009858 -0.195264 0.000000
  outer loop
    vertex 3.311425 4.253633 -345.703583
    vertex 6.565959 4.089320 -345.703583
    vertex 3.311425 4.253633 -345.643585
  endloop
endfacet
facet normal -0.016916 -0.194780 0.000000
  outer loop
    vertex 6.565959 4.089320 -345.643585
    vertex 9.812420 3.807379 -345.703583
    vertex 9.812420 3.807379 -345.643585
  endloop
endfacet
facet normal -0.016916 -0.194780 0.000000
  outer loop
    vertex 6.565959 4.089320 -345.703583
    vertex 9.812420 3.807379 -345.703583
    vertex 6.565959 4.089320 -345.643585
  endloop
endfacet
facet normal -0.003000 -0.000011 0.000000
  outer loop
    vertex 0.053077 4.300105 -345.703583
    vertex 0.052885 4.350105 -345.643585
    vertex 0.052885 4.350105 -345.703583
  endloop
endfacet
facet normal -0.003000 -0.000011 -0.000000
  outer loop
    vertex 0.053077 4.300105 -345.643585
    vertex 0.052885 4.350105 -345.643585
    vertex 0.053077 4.300105 -345.703583
  endloop
endfacet
facet normal 0.000000 0.000000 0.162907
  outer loop
    vertex 6.565959 4.089320 -345.643585
    vertex 9.812420 3.807379 -345.643585
    vertex 9.817646 3.857105 -345.643585
  endloop
endfacet
facet normal 0.000000 0.000000 0.162999
  outer loop
    vertex 6.569384 4.139203 -345.643585
    vertex 6.565959 4.089320 -345.643585
    vertex 9.817646 3.857105 -345.643585
  endloop
endfacet
facet normal 0.000000 0.000000 0.162908
  outer loop
    vertex 3.311425 4.253633 -345.643585
    vertex 6.565959 4.089320 -345.643585
    vertex 6.569384 4.139203 -345.643585
  endloop
endfacet
facet normal 0.000000 0.000000 0.162998
  outer loop
    vertex 3.313043 4.303607 -345.643585
    vertex 3.311425 4.253633 -345.643585
    vertex 6.569384 4.139203 -345.643585
  endloop
endfacet
facet normal -0.000000 0.000000 0.162908
  outer loop
    vertex 0.053077 4.300105 -345.643585
    vertex 3.311425 4.253633 -345.643585
    vertex 3.313043 4.303607 -345.643585
  endloop
endfacet
facet normal 0.000000 0.000000 0.162998
  outer loop
    vertex 0.052885 4.350105 -345.643585
    vertex 0.053077 4.300105 -345.643585
    vertex 3.313043 4.303607 -345.643585
  endloop
endfacet
facet normal 0.000000 0.000000 -0.162908
  outer loop
    vertex 6.565959 4.089320 -345.703583
    vertex 6.569384 4.139203 -345.703583
    vertex 9.812420 3.807379 -345.703583
  endloop
endfacet
facet normal 0.000000 0.000000 -0.162997
  outer loop
    vertex 9.812420 3.807379 -345.703583
    vertex 6.569384 4.139203 -345.703583
    vertex 9.817646 3.857105 -345.703583
  endloop
endfacet
facet normal 0.000000 0.000000 -0.162908
  outer loop
    vertex 3.311425 4.253633 -345.703583
    vertex 3.313043 4.303607 -345.703583
    vertex 6.565959 4.089320 -345.703583
  endloop
endfacet
facet normal 0.000000 0.000000 -0.162999
  outer loop
    vertex 6.565959 4.089320 -345.703583
    vertex 3.313043 4.303607 -345.703583
    vertex 6.569384 4.139203 -345.703583
  endloop
endfacet
facet normal 0.000000 0.000000 -0.162908
  outer loop
    vertex 0.053077 4.300105 -345.703583
    vertex 0.052885 4.350105 -345.703583
    vertex 3.311425 4.253633 -345.703583
  endloop
endfacet
facet normal 0.000000 0.000000 -0.162998
  outer loop
    vertex 3.311425 4.253633 -345.703583
    vertex 0.052885 4.350105 -345.703583
    vertex 3.313043 4.303607 -345.703583
  endloop
endfacet
endsolid b'MESH-MESH-MESH-MESH-MESH-MESH-MESH-MESH-MESH-MESH-MESH-MESH-MESH-MESH-MESH-MESH'
