solid b'MESH-MESH-MESH-MESH-MESH-MESH-MESH-MESH-MESH-MESH-MESH-MESH-MESH-MESH-MESH-MESH'
facet normal -0.002790 0.195626 0.000000
  outer loop
    vertex -0.052896 4.350105 65.659309
    vertex -0.052896 4.350105 65.599304
    vertex -3.313053 4.303607 65.599304
  endloop
endfacet
facet normal -0.009865 0.195397 0.000000
  outer loop
    vertex -3.313053 4.303607 65.659309
    vertex -3.313053 4.303607 65.599304
    vertex -6.569394 4.139203 65.599304
  endloop
endfacet
facet normal -0.002790 0.195626 0.000000
  outer loop
    vertex -3.313053 4.303607 65.659309
    vertex -0.052896 4.350105 65.659309
    vertex -3.313053 4.303607 65.599304
  endloop
endfacet
facet normal -0.009865 0.195397 0.000000
  outer loop
    vertex -6.569394 4.139203 65.659309
    vertex -3.313053 4.303607 65.659309
    vertex -6.569394 4.139203 65.599304
  endloop
endfacet
facet normal -0.016927 0.194913 0.000000
  outer loop
    vertex -9.817657 3.857105 65.659309
    vertex -6.569394 4.139203 65.599304
    vertex -9.817657 3.857105 65.599304
  endloop
endfacet
facet normal -0.016927 0.194913 0.000000
  outer loop
    vertex -9.817657 3.857105 65.659309
    vertex -6.569394 4.139203 65.659309
    vertex -6.569394 4.139203 65.599304
  endloop
endfacet
facet normal -0.002984 -0.000314 0.000000
  outer loop
    vertex -9.817657 3.857105 65.659309
    vertex -9.812430 3.807379 65.599304
    vertex -9.812430 3.807379 65.659309
  endloop
endfacet
facet normal -0.002984 -0.000314 0.000000
  outer loop
    vertex -9.817657 3.857105 65.599304
    vertex -9.812430 3.807379 65.599304
    vertex -9.817657 3.857105 65.659309
  endloop
endfacet
facet normal 0.002789 -0.195518 0.000000
  outer loop
    vertex -0.053087 4.300106 65.599304
    vertex -0.053087 4.300106 65.659309
    vertex -3.311436 4.253634 65.599304
  endloop
endfacet
facet normal 0.002789 -0.195518 0.000000
  outer loop
    vertex -0.053087 4.300106 65.659309
    vertex -3.311436 4.253634 65.659309
    vertex -3.311436 4.253634 65.599304
  endloop
endfacet
facet normal 0.009860 -0.195289 0.000000
  outer loop
    vertex -3.311436 4.253634 65.599304
    vertex -6.565970 4.089320 65.659309
    vertex -6.565970 4.089320 65.599304
  endloop
endfacet
facet normal 0.009860 -0.195289 0.000000
  outer loop
    vertex -3.311436 4.253634 65.659309
    vertex -6.565970 4.089320 65.659309
    vertex -3.311436 4.253634 65.599304
  endloop
endfacet
facet normal 0.016918 -0.194804 0.000000
  outer loop
    vertex -6.565970 4.089320 65.599304
    vertex -9.812430 3.807379 65.659309
    vertex -9.812430 3.807379 65.599304
  endloop
endfacet
facet normal 0.016918 -0.194804 0.000000
  outer loop
    vertex -6.565970 4.089320 65.659309
    vertex -9.812430 3.807379 65.659309
    vertex -6.565970 4.089320 65.599304
  endloop
endfacet
facet normal 0.003000 -0.000011 0.000000
  outer loop
    vertex -0.053087 4.300106 65.659309
    vertex -0.052896 4.350105 65.599304
    vertex -0.052896 4.350105 65.659309
  endloop
endfacet
facet normal 0.003000 -0.000011 0.000000
  outer loop
    vertex -0.053087 4.300106 65.599304
    vertex -0.052896 4.350105 65.599304
    vertex -0.053087 4.300106 65.659309
  endloop
endfacet
facet normal 0.000000 0.000000 -0.162907
  outer loop
    vertex -6.565970 4.089320 65.599304
    vertex -9.812430 3.807379 65.599304
    vertex -9.817657 3.857105 65.599304
  endloop
endfacet
facet normal 0.000000 -0.000000 -0.162999
  outer loop
    vertex -6.569394 4.139203 65.599304
    vertex -6.565970 4.089320 65.599304
    vertex -9.817657 3.857105 65.599304
  endloop
endfacet
facet normal 0.000000 0.000000 -0.162908
  outer loop
    vertex -3.311436 4.253634 65.599304
    vertex -6.565970 4.089320 65.599304
    vertex -6.569394 4.139203 65.599304
  endloop
endfacet
facet normal 0.000000 -0.000000 -0.162997
  outer loop
    vertex -3.313053 4.303607 65.599304
    vertex -3.311436 4.253634 65.599304
    vertex -6.569394 4.139203 65.599304
  endloop
endfacet
facet normal -0.000000 0.000000 -0.162906
  outer loop
    vertex -0.053087 4.300106 65.599304
    vertex -3.311436 4.253634 65.599304
    vertex -3.313053 4.303607 65.599304
  endloop
endfacet
facet normal 0.000000 0.000000 -0.162998
  outer loop
    vertex -0.052896 4.350105 65.599304
    vertex -0.053087 4.300106 65.599304
    vertex -3.313053 4.303607 65.599304
  endloop
endfacet
facet normal 0.000000 0.000000 0.162908
  outer loop
    vertex -6.565970 4.089320 65.659309
    vertex -6.569394 4.139203 65.659309
    vertex -9.812430 3.807379 65.659309
  endloop
endfacet
facet normal 0.000000 -0.000000 0.162997
  outer loop
    vertex -9.812430 3.807379 65.659309
    vertex -6.569394 4.139203 65.659309
    vertex -9.817657 3.857105 65.659309
  endloop
endfacet
facet normal 0.000000 0.000000 0.162906
  outer loop
    vertex -3.311436 4.253634 65.659309
    vertex -3.313053 4.303607 65.659309
    vertex -6.565970 4.089320 65.659309
  endloop
endfacet
facet normal 0.000000 -0.000000 0.162999
  outer loop
    vertex -6.565970 4.089320 65.659309
    vertex -3.313053 4.303607 65.659309
    vertex -6.569394 4.139203 65.659309
  endloop
endfacet
facet normal 0.000000 -0.000000 0.162908
  outer loop
    vertex -0.053087 4.300106 65.659309
    vertex -0.052896 4.350105 65.659309
    vertex -3.311436 4.253634 65.659309
  endloop
endfacet
facet normal 0.000000 -0.000000 0.162997
  outer loop
    vertex -3.311436 4.253634 65.659309
    vertex -0.052896 4.350105 65.659309
    vertex -3.313053 4.303607 65.659309
  endloop
endfacet
endsolid b'MESH-MESH-MESH-MESH-MESH-MESH-MESH-MESH-MESH-MESH-MESH-MESH-MESH-MESH-MESH-MESH'
