solid b'MESH-MESH-MESH-MESH-MESH-MESH-MESH-MESH-MESH-MESH-MESH-MESH-MESH-MESH-MESH-MESH'
facet normal 0.002790 -0.195651 0.000000
  outer loop
    vertex 3.313048 -4.303607 167.377792
    vertex 0.052890 -4.350105 167.377792
    vertex 0.052890 -4.350105 167.317780
  endloop
endfacet
facet normal 0.002790 -0.195651 0.000002
  outer loop
    vertex 3.313048 -4.303607 167.377792
    vertex 0.052890 -4.350105 167.317780
    vertex 3.313048 -4.303608 167.317780
  endloop
endfacet
facet normal 0.009866 -0.195422 0.000000
  outer loop
    vertex 6.569389 -4.139203 167.377792
    vertex 3.313048 -4.303608 167.317780
    vertex 6.569389 -4.139203 167.317780
  endloop
endfacet
facet normal 0.016929 -0.194937 0.000000
  outer loop
    vertex 6.569389 -4.139203 167.377792
    vertex 6.569389 -4.139203 167.317780
    vertex 9.817651 -3.857105 167.317780
  endloop
endfacet
facet normal 0.009866 -0.195422 0.000002
  outer loop
    vertex 6.569389 -4.139203 167.377792
    vertex 3.313048 -4.303607 167.377792
    vertex 3.313048 -4.303608 167.317780
  endloop
endfacet
facet normal 0.016929 -0.194937 0.000000
  outer loop
    vertex 9.817651 -3.857105 167.377792
    vertex 6.569389 -4.139203 167.377792
    vertex 9.817651 -3.857105 167.317780
  endloop
endfacet
facet normal 0.002984 0.000314 0.000000
  outer loop
    vertex 9.817651 -3.857105 167.377792
    vertex 9.817651 -3.857105 167.317780
    vertex 9.812425 -3.807379 167.377792
  endloop
endfacet
facet normal 0.002984 0.000314 0.000000
  outer loop
    vertex 9.817651 -3.857105 167.317780
    vertex 9.812425 -3.807379 167.317780
    vertex 9.812425 -3.807379 167.377792
  endloop
endfacet
facet normal -0.002789 0.195543 0.000000
  outer loop
    vertex 0.053082 -4.300106 167.317780
    vertex 3.311430 -4.253634 167.377792
    vertex 3.311430 -4.253634 167.317780
  endloop
endfacet
facet normal -0.009861 0.195314 0.000000
  outer loop
    vertex 3.311430 -4.253634 167.317780
    vertex 3.311430 -4.253634 167.377792
    vertex 6.565965 -4.089320 167.317780
  endloop
endfacet
facet normal -0.002789 0.195543 0.000000
  outer loop
    vertex 0.053082 -4.300106 167.377792
    vertex 3.311430 -4.253634 167.377792
    vertex 0.053082 -4.300106 167.317780
  endloop
endfacet
facet normal -0.009861 0.195314 0.000000
  outer loop
    vertex 3.311430 -4.253634 167.377792
    vertex 6.565965 -4.089320 167.377792
    vertex 6.565965 -4.089320 167.317780
  endloop
endfacet
facet normal -0.016920 0.194829 0.000000
  outer loop
    vertex 6.565965 -4.089320 167.317780
    vertex 9.812425 -3.807379 167.377792
    vertex 9.812425 -3.807379 167.317780
  endloop
endfacet
facet normal -0.016920 0.194829 0.000000
  outer loop
    vertex 6.565965 -4.089320 167.377792
    vertex 9.812425 -3.807379 167.377792
    vertex 6.565965 -4.089320 167.317780
  endloop
endfacet
facet normal -0.003001 0.000011 0.000000
  outer loop
    vertex 0.053082 -4.300106 167.377792
    vertex 0.052890 -4.350105 167.317780
    vertex 0.052890 -4.350105 167.377792
  endloop
endfacet
facet normal -0.003001 0.000011 0.000000
  outer loop
    vertex 0.053082 -4.300106 167.317780
    vertex 0.052890 -4.350105 167.317780
    vertex 0.053082 -4.300106 167.377792
  endloop
endfacet
facet normal 0.000000 0.000000 -0.162907
  outer loop
    vertex 6.569389 -4.139203 167.317780
    vertex 6.565965 -4.089320 167.317780
    vertex 9.812425 -3.807379 167.317780
  endloop
endfacet
facet normal 0.000000 0.000000 -0.162997
  outer loop
    vertex 6.569389 -4.139203 167.317780
    vertex 9.812425 -3.807379 167.317780
    vertex 9.817651 -3.857105 167.317780
  endloop
endfacet
facet normal 0.000000 0.000000 -0.162908
  outer loop
    vertex 3.313048 -4.303608 167.317780
    vertex 3.311430 -4.253634 167.317780
    vertex 6.565965 -4.089320 167.317780
  endloop
endfacet
facet normal 0.000000 0.000000 -0.162997
  outer loop
    vertex 3.313048 -4.303608 167.317780
    vertex 6.565965 -4.089320 167.317780
    vertex 6.569389 -4.139203 167.317780
  endloop
endfacet
facet normal 0.000000 0.000000 -0.162908
  outer loop
    vertex 0.052890 -4.350105 167.317780
    vertex 0.053082 -4.300106 167.317780
    vertex 3.311430 -4.253634 167.317780
  endloop
endfacet
facet normal 0.000000 0.000000 -0.162998
  outer loop
    vertex 0.052890 -4.350105 167.317780
    vertex 3.311430 -4.253634 167.317780
    vertex 3.313048 -4.303608 167.317780
  endloop
endfacet
facet normal 0.000000 0.000000 0.162907
  outer loop
    vertex 9.812425 -3.807379 167.377792
    vertex 6.565965 -4.089320 167.377792
    vertex 9.817651 -3.857105 167.377792
  endloop
endfacet
facet normal -0.000000 0.000000 0.162997
  outer loop
    vertex 6.565965 -4.089320 167.377792
    vertex 6.569389 -4.139203 167.377792
    vertex 9.817651 -3.857105 167.377792
  endloop
endfacet
facet normal 0.000000 0.000000 0.162907
  outer loop
    vertex 6.565965 -4.089320 167.377792
    vertex 3.311430 -4.253634 167.377792
    vertex 6.569389 -4.139203 167.377792
  endloop
endfacet
facet normal -0.000000 0.000000 0.162997
  outer loop
    vertex 3.311430 -4.253634 167.377792
    vertex 3.313048 -4.303607 167.377792
    vertex 6.569389 -4.139203 167.377792
  endloop
endfacet
facet normal 0.000000 0.000000 0.162906
  outer loop
    vertex 3.311430 -4.253634 167.377792
    vertex 0.053082 -4.300106 167.377792
    vertex 3.313048 -4.303607 167.377792
  endloop
endfacet
facet normal 0.000000 0.000000 0.162998
  outer loop
    vertex 0.053082 -4.300106 167.377792
    vertex 0.052890 -4.350105 167.377792
    vertex 3.313048 -4.303607 167.377792
  endloop
endfacet
endsolid b'MESH-MESH-MESH-MESH-MESH-MESH-MESH-MESH-MESH-MESH-MESH-MESH-MESH-MESH-MESH-MESH'
