solid b'MESH-MESH-MESH-MESH-MESH-MESH-MESH-MESH-MESH-MESH-MESH-MESH-MESH-MESH-MESH-MESH'
facet normal -0.023970 -0.194197 0.000000
  outer loop
    vertex -9.817655 -3.857105 167.317780
    vertex -9.817655 -3.857105 167.377792
    vertex -13.053586 -3.457685 167.377792
  endloop
endfacet
facet normal -0.030980 -0.193203 0.000000
  outer loop
    vertex -13.053586 -3.457685 167.317780
    vertex -13.053586 -3.457685 167.377792
    vertex -16.272949 -2.941465 167.377792
  endloop
endfacet
facet normal -0.023970 -0.194197 0.000000
  outer loop
    vertex -13.053586 -3.457685 167.317780
    vertex -9.817655 -3.857105 167.317780
    vertex -13.053586 -3.457685 167.377792
  endloop
endfacet
facet normal -0.037949 -0.191956 0.000000
  outer loop
    vertex -16.272949 -2.941465 167.317780
    vertex -16.272949 -2.941465 167.377792
    vertex -19.471531 -2.309121 167.377792
  endloop
endfacet
facet normal -0.030980 -0.193203 0.000000
  outer loop
    vertex -16.272949 -2.941465 167.317780
    vertex -13.053586 -3.457685 167.317780
    vertex -16.272949 -2.941465 167.377792
  endloop
endfacet
facet normal -0.037949 -0.191956 0.000000
  outer loop
    vertex -19.471531 -2.309121 167.317780
    vertex -16.272949 -2.941465 167.317780
    vertex -19.471531 -2.309121 167.377792
  endloop
endfacet
facet normal -0.002933 0.000635 0.000000
  outer loop
    vertex -19.460949 -2.260254 167.317780
    vertex -19.471531 -2.309121 167.317780
    vertex -19.471531 -2.309121 167.377792
  endloop
endfacet
facet normal -0.002933 0.000635 0.000000
  outer loop
    vertex -19.460949 -2.260254 167.317780
    vertex -19.471531 -2.309121 167.377792
    vertex -19.460949 -2.260254 167.377792
  endloop
endfacet
facet normal 0.023957 0.194090 0.000000
  outer loop
    vertex -9.812428 -3.807379 167.377792
    vertex -9.812428 -3.807379 167.317780
    vertex -13.046564 -3.408181 167.377792
  endloop
endfacet
facet normal 0.030963 0.193096 0.000000
  outer loop
    vertex -13.046564 -3.408181 167.377792
    vertex -13.046564 -3.408181 167.317780
    vertex -16.264141 -2.892247 167.377792
  endloop
endfacet
facet normal 0.023957 0.194090 0.000000
  outer loop
    vertex -9.812428 -3.807379 167.317780
    vertex -13.046564 -3.408181 167.317780
    vertex -13.046564 -3.408181 167.377792
  endloop
endfacet
facet normal 0.030963 0.193096 0.000000
  outer loop
    vertex -13.046564 -3.408181 167.317780
    vertex -16.264141 -2.892247 167.317780
    vertex -16.264141 -2.892247 167.377792
  endloop
endfacet
facet normal 0.037928 0.191849 0.000000
  outer loop
    vertex -16.264141 -2.892247 167.377792
    vertex -19.460949 -2.260254 167.317780
    vertex -19.460949 -2.260254 167.377792
  endloop
endfacet
facet normal 0.037928 0.191849 -0.000000
  outer loop
    vertex -16.264141 -2.892247 167.317780
    vertex -19.460949 -2.260254 167.317780
    vertex -16.264141 -2.892247 167.377792
  endloop
endfacet
facet normal 0.002984 -0.000314 0.000000
  outer loop
    vertex -9.812428 -3.807379 167.317780
    vertex -9.812428 -3.807379 167.377792
    vertex -9.817655 -3.857105 167.377792
  endloop
endfacet
facet normal 0.002984 -0.000314 0.000000
  outer loop
    vertex -9.817655 -3.857105 167.317780
    vertex -9.812428 -3.807379 167.317780
    vertex -9.817655 -3.857105 167.377792
  endloop
endfacet
facet normal -0.000000 0.000000 -0.162907
  outer loop
    vertex -16.264141 -2.892247 167.317780
    vertex -16.272949 -2.941465 167.317780
    vertex -19.460949 -2.260254 167.317780
  endloop
endfacet
facet normal 0.000000 -0.000000 -0.162997
  outer loop
    vertex -19.460949 -2.260254 167.317780
    vertex -16.272949 -2.941465 167.317780
    vertex -19.471531 -2.309121 167.317780
  endloop
endfacet
facet normal -0.000000 0.000000 -0.162907
  outer loop
    vertex -13.046564 -3.408181 167.317780
    vertex -13.053586 -3.457685 167.317780
    vertex -16.264141 -2.892247 167.317780
  endloop
endfacet
facet normal 0.000000 -0.000000 -0.162997
  outer loop
    vertex -16.264141 -2.892247 167.317780
    vertex -13.053586 -3.457685 167.317780
    vertex -16.272949 -2.941465 167.317780
  endloop
endfacet
facet normal -0.000000 0.000000 -0.162907
  outer loop
    vertex -9.812428 -3.807379 167.317780
    vertex -9.817655 -3.857105 167.317780
    vertex -13.046564 -3.408181 167.317780
  endloop
endfacet
facet normal 0.000000 -0.000000 -0.162998
  outer loop
    vertex -13.046564 -3.408181 167.317780
    vertex -9.817655 -3.857105 167.317780
    vertex -13.053586 -3.457685 167.317780
  endloop
endfacet
facet normal 0.000000 -0.000000 0.162907
  outer loop
    vertex -16.272949 -2.941465 167.377792
    vertex -16.264141 -2.892247 167.377792
    vertex -19.460949 -2.260254 167.377792
  endloop
endfacet
facet normal 0.000000 0.000000 0.162997
  outer loop
    vertex -16.272949 -2.941465 167.377792
    vertex -19.460949 -2.260254 167.377792
    vertex -19.471531 -2.309121 167.377792
  endloop
endfacet
facet normal 0.000000 -0.000000 0.162907
  outer loop
    vertex -13.053586 -3.457685 167.377792
    vertex -13.046564 -3.408181 167.377792
    vertex -16.264141 -2.892247 167.377792
  endloop
endfacet
facet normal 0.000000 0.000000 0.162997
  outer loop
    vertex -13.053586 -3.457685 167.377792
    vertex -16.264141 -2.892247 167.377792
    vertex -16.272949 -2.941465 167.377792
  endloop
endfacet
facet normal 0.000000 -0.000000 0.162907
  outer loop
    vertex -9.817655 -3.857105 167.377792
    vertex -9.812428 -3.807379 167.377792
    vertex -13.046564 -3.408181 167.377792
  endloop
endfacet
facet normal 0.000000 0.000000 0.162998
  outer loop
    vertex -9.817655 -3.857105 167.377792
    vertex -13.046564 -3.408181 167.377792
    vertex -13.053586 -3.457685 167.377792
  endloop
endfacet
endsolid b'MESH-MESH-MESH-MESH-MESH-MESH-MESH-MESH-MESH-MESH-MESH-MESH-MESH-MESH-MESH-MESH'
