solid b'MESH-MESH-MESH-MESH-MESH-MESH-MESH-MESH-MESH-MESH-MESH-MESH-MESH-MESH-MESH-MESH'
facet normal 0.023967 0.194173 0.000001
  outer loop
    vertex 9.817659 3.857105 76.432304
    vertex 9.817659 3.857105 76.492310
    vertex 13.053591 3.457685 76.492310
  endloop
endfacet
facet normal 0.030976 0.193179 -0.000000
  outer loop
    vertex 13.053591 3.457685 76.432304
    vertex 13.053591 3.457685 76.492310
    vertex 16.272955 2.941465 76.492310
  endloop
endfacet
facet normal 0.023967 0.194173 -0.000000
  outer loop
    vertex 13.053591 3.457685 76.432304
    vertex 9.817659 3.857105 76.432304
    vertex 13.053591 3.457685 76.492310
  endloop
endfacet
facet normal 0.037944 0.191932 -0.000000
  outer loop
    vertex 16.272955 2.941465 76.432304
    vertex 16.272955 2.941465 76.492310
    vertex 19.471537 2.309120 76.492310
  endloop
endfacet
facet normal 0.030976 0.193179 -0.000000
  outer loop
    vertex 16.272955 2.941465 76.432304
    vertex 13.053591 3.457685 76.432304
    vertex 16.272955 2.941465 76.492310
  endloop
endfacet
facet normal 0.037944 0.191932 -0.000000
  outer loop
    vertex 19.471537 2.309120 76.432304
    vertex 16.272955 2.941465 76.432304
    vertex 19.471537 2.309120 76.492310
  endloop
endfacet
facet normal 0.002932 -0.000635 0.000000
  outer loop
    vertex 19.460955 2.260253 76.432304
    vertex 19.471537 2.309120 76.432304
    vertex 19.471537 2.309120 76.492310
  endloop
endfacet
facet normal 0.002932 -0.000635 0.000000
  outer loop
    vertex 19.460955 2.260253 76.432304
    vertex 19.471537 2.309120 76.492310
    vertex 19.460955 2.260253 76.492310
  endloop
endfacet
facet normal -0.023954 -0.194065 -0.000000
  outer loop
    vertex 9.812433 3.807379 76.492310
    vertex 9.812433 3.807379 76.432304
    vertex 13.046569 3.408180 76.492310
  endloop
endfacet
facet normal -0.030959 -0.193071 -0.000000
  outer loop
    vertex 13.046569 3.408180 76.492310
    vertex 13.046569 3.408180 76.432304
    vertex 16.264147 2.892246 76.492310
  endloop
endfacet
facet normal -0.023954 -0.194065 0.000000
  outer loop
    vertex 9.812433 3.807379 76.432304
    vertex 13.046569 3.408180 76.432304
    vertex 13.046569 3.408180 76.492310
  endloop
endfacet
facet normal -0.030959 -0.193071 0.000000
  outer loop
    vertex 13.046569 3.408180 76.432304
    vertex 16.264147 2.892246 76.432304
    vertex 16.264147 2.892246 76.492310
  endloop
endfacet
facet normal -0.037923 -0.191825 0.000000
  outer loop
    vertex 16.264147 2.892246 76.492310
    vertex 19.460955 2.260253 76.432304
    vertex 19.460955 2.260253 76.492310
  endloop
endfacet
facet normal -0.037923 -0.191825 0.000000
  outer loop
    vertex 16.264147 2.892246 76.432304
    vertex 19.460955 2.260253 76.432304
    vertex 16.264147 2.892246 76.492310
  endloop
endfacet
facet normal -0.002984 0.000314 0.000000
  outer loop
    vertex 9.812433 3.807379 76.432304
    vertex 9.812433 3.807379 76.492310
    vertex 9.817659 3.857105 76.492310
  endloop
endfacet
facet normal -0.002984 0.000314 0.000000
  outer loop
    vertex 9.817659 3.857105 76.432304
    vertex 9.812433 3.807379 76.432304
    vertex 9.817659 3.857105 76.492310
  endloop
endfacet
facet normal 0.000000 0.000000 -0.162908
  outer loop
    vertex 16.264147 2.892246 76.432304
    vertex 16.272955 2.941465 76.432304
    vertex 19.460955 2.260253 76.432304
  endloop
endfacet
facet normal 0.000000 0.000000 -0.162997
  outer loop
    vertex 19.460955 2.260253 76.432304
    vertex 16.272955 2.941465 76.432304
    vertex 19.471537 2.309120 76.432304
  endloop
endfacet
facet normal 0.000000 0.000000 -0.162907
  outer loop
    vertex 13.046569 3.408180 76.432304
    vertex 13.053591 3.457685 76.432304
    vertex 16.264147 2.892246 76.432304
  endloop
endfacet
facet normal 0.000000 0.000000 -0.162998
  outer loop
    vertex 16.264147 2.892246 76.432304
    vertex 13.053591 3.457685 76.432304
    vertex 16.272955 2.941465 76.432304
  endloop
endfacet
facet normal 0.000000 0.000000 -0.162908
  outer loop
    vertex 9.812433 3.807379 76.432304
    vertex 9.817659 3.857105 76.432304
    vertex 13.046569 3.408180 76.432304
  endloop
endfacet
facet normal 0.000000 0.000000 -0.162998
  outer loop
    vertex 13.046569 3.408180 76.432304
    vertex 9.817659 3.857105 76.432304
    vertex 13.053591 3.457685 76.432304
  endloop
endfacet
facet normal 0.000000 0.000000 0.162908
  outer loop
    vertex 16.272955 2.941465 76.492310
    vertex 16.264147 2.892246 76.492310
    vertex 19.460955 2.260253 76.492310
  endloop
endfacet
facet normal 0.000000 0.000000 0.162997
  outer loop
    vertex 16.272955 2.941465 76.492310
    vertex 19.460955 2.260253 76.492310
    vertex 19.471537 2.309120 76.492310
  endloop
endfacet
facet normal 0.000000 0.000000 0.162907
  outer loop
    vertex 13.053591 3.457685 76.492310
    vertex 13.046569 3.408180 76.492310
    vertex 16.264147 2.892246 76.492310
  endloop
endfacet
facet normal 0.000000 0.000000 0.162998
  outer loop
    vertex 13.053591 3.457685 76.492310
    vertex 16.264147 2.892246 76.492310
    vertex 16.272955 2.941465 76.492310
  endloop
endfacet
facet normal 0.000000 0.000000 0.162907
  outer loop
    vertex 9.817659 3.857105 76.492310
    vertex 9.812433 3.807379 76.492310
    vertex 13.046569 3.408180 76.492310
  endloop
endfacet
facet normal 0.000000 0.000000 0.162998
  outer loop
    vertex 9.817659 3.857105 76.492310
    vertex 13.046569 3.408180 76.492310
    vertex 13.053591 3.457685 76.492310
  endloop
endfacet
endsolid b'MESH-MESH-MESH-MESH-MESH-MESH-MESH-MESH-MESH-MESH-MESH-MESH-MESH-MESH-MESH-MESH'
