solid b'MESH-MESH-MESH-MESH-MESH-MESH-MESH-MESH-MESH-MESH-MESH-MESH-MESH-MESH-MESH-MESH'
facet normal 0.002790 0.195601 -0.000000
  outer loop
    vertex 0.052885 4.350105 247.999008
    vertex 0.052885 4.350105 248.059006
    vertex 3.313042 4.303607 248.059006
  endloop
endfacet
facet normal 0.009864 0.195373 -0.000000
  outer loop
    vertex 3.313042 4.303607 247.999008
    vertex 3.313042 4.303607 248.059006
    vertex 6.569384 4.139203 248.059006
  endloop
endfacet
facet normal 0.002790 0.195601 -0.000000
  outer loop
    vertex 3.313042 4.303607 247.999008
    vertex 0.052885 4.350105 247.999008
    vertex 3.313042 4.303607 248.059006
  endloop
endfacet
facet normal 0.009864 0.195373 -0.000000
  outer loop
    vertex 6.569384 4.139203 247.999008
    vertex 3.313042 4.303607 247.999008
    vertex 6.569384 4.139203 248.059006
  endloop
endfacet
facet normal 0.016925 0.194888 -0.000000
  outer loop
    vertex 9.817646 3.857106 247.999008
    vertex 6.569384 4.139203 248.059006
    vertex 9.817646 3.857106 248.059006
  endloop
endfacet
facet normal 0.016925 0.194888 0.000000
  outer loop
    vertex 9.817646 3.857106 247.999008
    vertex 6.569384 4.139203 247.999008
    vertex 6.569384 4.139203 248.059006
  endloop
endfacet
facet normal 0.002983 -0.000314 0.000000
  outer loop
    vertex 9.817646 3.857106 247.999008
    vertex 9.817646 3.857106 248.059006
    vertex 9.812420 3.807380 248.059006
  endloop
endfacet
facet normal 0.002983 -0.000314 0.000000
  outer loop
    vertex 9.812420 3.807380 247.999008
    vertex 9.817646 3.857106 247.999008
    vertex 9.812420 3.807380 248.059006
  endloop
endfacet
facet normal -0.002788 -0.195493 -0.000000
  outer loop
    vertex 0.053077 4.300105 248.059006
    vertex 0.053077 4.300105 247.999008
    vertex 3.311425 4.253633 248.059006
  endloop
endfacet
facet normal -0.002788 -0.195493 0.000000
  outer loop
    vertex 0.053077 4.300105 247.999008
    vertex 3.311425 4.253633 247.999008
    vertex 3.311425 4.253633 248.059006
  endloop
endfacet
facet normal -0.009858 -0.195264 0.000000
  outer loop
    vertex 3.311425 4.253633 248.059006
    vertex 6.565959 4.089320 247.999008
    vertex 6.565959 4.089320 248.059006
  endloop
endfacet
facet normal -0.016916 -0.194780 -0.000000
  outer loop
    vertex 6.565959 4.089320 248.059006
    vertex 6.565959 4.089320 247.999008
    vertex 9.812420 3.807380 248.059006
  endloop
endfacet
facet normal -0.009858 -0.195264 0.000000
  outer loop
    vertex 3.311425 4.253633 247.999008
    vertex 6.565959 4.089320 247.999008
    vertex 3.311425 4.253633 248.059006
  endloop
endfacet
facet normal -0.016916 -0.194780 0.000000
  outer loop
    vertex 6.565959 4.089320 247.999008
    vertex 9.812420 3.807380 247.999008
    vertex 9.812420 3.807380 248.059006
  endloop
endfacet
facet normal -0.003000 -0.000011 0.000000
  outer loop
    vertex 0.052885 4.350105 247.999008
    vertex 0.053077 4.300105 247.999008
    vertex 0.053077 4.300105 248.059006
  endloop
endfacet
facet normal -0.003000 -0.000011 0.000000
  outer loop
    vertex 0.052885 4.350105 247.999008
    vertex 0.053077 4.300105 248.059006
    vertex 0.052885 4.350105 248.059006
  endloop
endfacet
facet normal 0.000000 0.000000 -0.162907
  outer loop
    vertex 6.565959 4.089320 247.999008
    vertex 6.569384 4.139203 247.999008
    vertex 9.812420 3.807380 247.999008
  endloop
endfacet
facet normal 0.000000 0.000000 -0.162997
  outer loop
    vertex 9.812420 3.807380 247.999008
    vertex 6.569384 4.139203 247.999008
    vertex 9.817646 3.857106 247.999008
  endloop
endfacet
facet normal 0.000000 0.000000 -0.162908
  outer loop
    vertex 3.311425 4.253633 247.999008
    vertex 3.313042 4.303607 247.999008
    vertex 6.565959 4.089320 247.999008
  endloop
endfacet
facet normal 0.000000 0.000000 -0.162997
  outer loop
    vertex 6.565959 4.089320 247.999008
    vertex 3.313042 4.303607 247.999008
    vertex 6.569384 4.139203 247.999008
  endloop
endfacet
facet normal 0.000000 0.000000 -0.162908
  outer loop
    vertex 0.053077 4.300105 247.999008
    vertex 0.052885 4.350105 247.999008
    vertex 3.311425 4.253633 247.999008
  endloop
endfacet
facet normal 0.000000 0.000000 -0.162998
  outer loop
    vertex 3.311425 4.253633 247.999008
    vertex 0.052885 4.350105 247.999008
    vertex 3.313042 4.303607 247.999008
  endloop
endfacet
facet normal 0.000000 0.000000 0.162907
  outer loop
    vertex 6.565959 4.089320 248.059006
    vertex 9.812420 3.807380 248.059006
    vertex 9.817646 3.857106 248.059006
  endloop
endfacet
facet normal 0.000000 0.000000 0.162997
  outer loop
    vertex 6.569384 4.139203 248.059006
    vertex 6.565959 4.089320 248.059006
    vertex 9.817646 3.857106 248.059006
  endloop
endfacet
facet normal 0.000000 0.000000 0.162907
  outer loop
    vertex 3.311425 4.253633 248.059006
    vertex 6.565959 4.089320 248.059006
    vertex 6.569384 4.139203 248.059006
  endloop
endfacet
facet normal 0.000000 0.000000 0.162998
  outer loop
    vertex 3.313042 4.303607 248.059006
    vertex 3.311425 4.253633 248.059006
    vertex 6.569384 4.139203 248.059006
  endloop
endfacet
facet normal -0.000000 0.000000 0.162908
  outer loop
    vertex 0.053077 4.300105 248.059006
    vertex 3.311425 4.253633 248.059006
    vertex 3.313042 4.303607 248.059006
  endloop
endfacet
facet normal 0.000000 0.000000 0.162998
  outer loop
    vertex 0.052885 4.350105 248.059006
    vertex 0.053077 4.300105 248.059006
    vertex 3.313042 4.303607 248.059006
  endloop
endfacet
endsolid b'MESH-MESH-MESH-MESH-MESH-MESH-MESH-MESH-MESH-MESH-MESH-MESH-MESH-MESH-MESH-MESH'
