solid b'MESH-MESH-MESH-MESH-MESH-MESH-MESH-MESH-MESH-MESH-MESH-MESH-MESH-MESH-MESH-MESH'
facet normal 0.002790 0.195614 0.000000
  outer loop
    vertex 3.313048 4.303607 43.933304
    vertex 0.052891 4.350105 43.933304
    vertex 0.052891 4.350105 43.993305
  endloop
endfacet
facet normal 0.002790 0.195614 -0.000000
  outer loop
    vertex 3.313048 4.303607 43.933304
    vertex 0.052891 4.350105 43.993305
    vertex 3.313048 4.303607 43.993305
  endloop
endfacet
facet normal 0.009865 0.195385 -0.000000
  outer loop
    vertex 6.569389 4.139203 43.933304
    vertex 3.313048 4.303607 43.993305
    vertex 6.569389 4.139203 43.993305
  endloop
endfacet
facet normal 0.016926 0.194900 -0.000000
  outer loop
    vertex 6.569389 4.139203 43.933304
    vertex 6.569389 4.139203 43.993305
    vertex 9.817652 3.857105 43.993305
  endloop
endfacet
facet normal 0.009865 0.195385 0.000000
  outer loop
    vertex 6.569389 4.139203 43.933304
    vertex 3.313048 4.303607 43.933304
    vertex 3.313048 4.303607 43.993305
  endloop
endfacet
facet normal 0.016926 0.194900 -0.000000
  outer loop
    vertex 9.817652 3.857105 43.933304
    vertex 6.569389 4.139203 43.933304
    vertex 9.817652 3.857105 43.993305
  endloop
endfacet
facet normal 0.002984 -0.000314 0.000000
  outer loop
    vertex 9.817652 3.857105 43.933304
    vertex 9.817652 3.857105 43.993305
    vertex 9.812425 3.807379 43.993305
  endloop
endfacet
facet normal 0.002984 -0.000314 0.000000
  outer loop
    vertex 9.812425 3.807379 43.933304
    vertex 9.817652 3.857105 43.933304
    vertex 9.812425 3.807379 43.993305
  endloop
endfacet
facet normal -0.002788 -0.195505 0.000000
  outer loop
    vertex 0.053082 4.300106 43.993305
    vertex 3.311430 4.253633 43.933304
    vertex 3.311430 4.253633 43.993305
  endloop
endfacet
facet normal -0.009859 -0.195277 -0.000000
  outer loop
    vertex 3.311430 4.253633 43.993305
    vertex 3.311430 4.253633 43.933304
    vertex 6.565965 4.089320 43.993305
  endloop
endfacet
facet normal -0.002788 -0.195505 0.000000
  outer loop
    vertex 0.053082 4.300106 43.933304
    vertex 3.311430 4.253633 43.933304
    vertex 0.053082 4.300106 43.993305
  endloop
endfacet
facet normal -0.016917 -0.194792 -0.000000
  outer loop
    vertex 6.565965 4.089320 43.993305
    vertex 6.565965 4.089320 43.933304
    vertex 9.812425 3.807379 43.993305
  endloop
endfacet
facet normal -0.009859 -0.195277 0.000000
  outer loop
    vertex 3.311430 4.253633 43.933304
    vertex 6.565965 4.089320 43.933304
    vertex 6.565965 4.089320 43.993305
  endloop
endfacet
facet normal -0.016917 -0.194792 0.000000
  outer loop
    vertex 6.565965 4.089320 43.933304
    vertex 9.812425 3.807379 43.933304
    vertex 9.812425 3.807379 43.993305
  endloop
endfacet
facet normal -0.003000 -0.000011 0.000000
  outer loop
    vertex 0.053082 4.300106 43.933304
    vertex 0.053082 4.300106 43.993305
    vertex 0.052891 4.350105 43.993305
  endloop
endfacet
facet normal -0.003000 -0.000011 0.000000
  outer loop
    vertex 0.052891 4.350105 43.933304
    vertex 0.053082 4.300106 43.933304
    vertex 0.052891 4.350105 43.993305
  endloop
endfacet
facet normal 0.000000 0.000000 -0.162908
  outer loop
    vertex 9.812425 3.807379 43.933304
    vertex 6.565965 4.089320 43.933304
    vertex 9.817652 3.857105 43.933304
  endloop
endfacet
facet normal 0.000000 0.000000 -0.162999
  outer loop
    vertex 6.565965 4.089320 43.933304
    vertex 6.569389 4.139203 43.933304
    vertex 9.817652 3.857105 43.933304
  endloop
endfacet
facet normal 0.000000 0.000000 -0.162908
  outer loop
    vertex 6.565965 4.089320 43.933304
    vertex 3.311430 4.253633 43.933304
    vertex 6.569389 4.139203 43.933304
  endloop
endfacet
facet normal 0.000000 0.000000 -0.162998
  outer loop
    vertex 3.311430 4.253633 43.933304
    vertex 3.313048 4.303607 43.933304
    vertex 6.569389 4.139203 43.933304
  endloop
endfacet
facet normal 0.000000 0.000000 -0.162908
  outer loop
    vertex 3.311430 4.253633 43.933304
    vertex 0.053082 4.300106 43.933304
    vertex 3.313048 4.303607 43.933304
  endloop
endfacet
facet normal 0.000000 0.000000 -0.162998
  outer loop
    vertex 0.053082 4.300106 43.933304
    vertex 0.052891 4.350105 43.933304
    vertex 3.313048 4.303607 43.933304
  endloop
endfacet
facet normal 0.000000 0.000000 0.162908
  outer loop
    vertex 6.569389 4.139203 43.993305
    vertex 6.565965 4.089320 43.993305
    vertex 9.812425 3.807379 43.993305
  endloop
endfacet
facet normal 0.000000 0.000000 0.162998
  outer loop
    vertex 6.569389 4.139203 43.993305
    vertex 9.812425 3.807379 43.993305
    vertex 9.817652 3.857105 43.993305
  endloop
endfacet
facet normal 0.000000 0.000000 0.162908
  outer loop
    vertex 3.313048 4.303607 43.993305
    vertex 3.311430 4.253633 43.993305
    vertex 6.565965 4.089320 43.993305
  endloop
endfacet
facet normal 0.000000 0.000000 0.162999
  outer loop
    vertex 3.313048 4.303607 43.993305
    vertex 6.565965 4.089320 43.993305
    vertex 6.569389 4.139203 43.993305
  endloop
endfacet
facet normal 0.000000 0.000000 0.162908
  outer loop
    vertex 0.052891 4.350105 43.993305
    vertex 0.053082 4.300106 43.993305
    vertex 3.311430 4.253633 43.993305
  endloop
endfacet
facet normal 0.000000 0.000000 0.162998
  outer loop
    vertex 0.052891 4.350105 43.993305
    vertex 3.311430 4.253633 43.993305
    vertex 3.313048 4.303607 43.993305
  endloop
endfacet
endsolid b'MESH-MESH-MESH-MESH-MESH-MESH-MESH-MESH-MESH-MESH-MESH-MESH-MESH-MESH-MESH-MESH'
