solid b'MESH-MESH-MESH-MESH-MESH-MESH-MESH-MESH-MESH-MESH-MESH-MESH-MESH-MESH-MESH-MESH'
facet normal 0.001255 -0.389023 -0.000000
  outer loop
    vertex -0.161222 -4.350455 381.793579
    vertex -0.052890 -4.350106 381.793579
    vertex -0.052890 -4.350106 385.384583
  endloop
endfacet
facet normal 0.001255 -0.389023 -0.000000
  outer loop
    vertex -0.161222 -4.350455 381.793579
    vertex -0.052890 -4.350106 385.384583
    vertex -0.161222 -4.350455 385.384583
  endloop
endfacet
facet normal 0.000789 -0.389024 -0.000000
  outer loop
    vertex -0.269555 -4.350675 381.793579
    vertex -0.161222 -4.350455 385.384583
    vertex -0.269555 -4.350675 385.384583
  endloop
endfacet
facet normal 0.000320 -0.389025 -0.000000
  outer loop
    vertex -0.269555 -4.350675 381.793579
    vertex -0.269555 -4.350675 385.384583
    vertex -0.377889 -4.350764 385.384583
  endloop
endfacet
facet normal 0.000789 -0.389025 -0.000000
  outer loop
    vertex -0.269555 -4.350675 381.793579
    vertex -0.161222 -4.350455 381.793579
    vertex -0.161222 -4.350455 385.384583
  endloop
endfacet
facet normal 0.000320 -0.389025 -0.000000
  outer loop
    vertex -0.377889 -4.350764 381.793579
    vertex -0.269555 -4.350675 381.793579
    vertex -0.377889 -4.350764 385.384583
  endloop
endfacet
facet normal -0.179549 -0.000040 0.000000
  outer loop
    vertex -0.377900 -4.300765 381.793579
    vertex -0.377889 -4.350764 381.793579
    vertex -0.377889 -4.350764 385.384583
  endloop
endfacet
facet normal -0.179549 -0.000040 0.000000
  outer loop
    vertex -0.377900 -4.300765 381.793579
    vertex -0.377889 -4.350764 385.384583
    vertex -0.377900 -4.300765 385.384583
  endloop
endfacet
facet normal -0.001255 0.388807 0.000000
  outer loop
    vertex -0.053081 -4.300106 385.384583
    vertex -0.161354 -4.300456 381.793579
    vertex -0.161354 -4.300456 385.384583
  endloop
endfacet
facet normal -0.000788 0.388809 0.000000
  outer loop
    vertex -0.161354 -4.300456 385.384583
    vertex -0.161354 -4.300456 381.793579
    vertex -0.269627 -4.300675 385.384583
  endloop
endfacet
facet normal -0.001255 0.388807 0.000000
  outer loop
    vertex -0.053081 -4.300106 381.793579
    vertex -0.161354 -4.300456 381.793579
    vertex -0.053081 -4.300106 385.384583
  endloop
endfacet
facet normal -0.000322 0.388809 0.000000
  outer loop
    vertex -0.269627 -4.300675 385.384583
    vertex -0.269627 -4.300675 381.793579
    vertex -0.377900 -4.300765 385.384583
  endloop
endfacet
facet normal -0.000788 0.388809 0.000000
  outer loop
    vertex -0.161354 -4.300456 381.793579
    vertex -0.269627 -4.300675 381.793579
    vertex -0.269627 -4.300675 385.384583
  endloop
endfacet
facet normal -0.000322 0.388809 0.000000
  outer loop
    vertex -0.269627 -4.300675 381.793579
    vertex -0.377900 -4.300765 381.793579
    vertex -0.377900 -4.300765 385.384583
  endloop
endfacet
facet normal 0.179549 0.000688 -0.000000
  outer loop
    vertex -0.053081 -4.300106 381.793579
    vertex -0.053081 -4.300106 385.384583
    vertex -0.052890 -4.350106 385.384583
  endloop
endfacet
facet normal 0.179549 0.000688 -0.000000
  outer loop
    vertex -0.052890 -4.350106 381.793579
    vertex -0.053081 -4.300106 381.793579
    vertex -0.052890 -4.350106 385.384583
  endloop
endfacet
facet normal 0.000000 0.000000 -0.005414
  outer loop
    vertex -0.377900 -4.300765 381.793579
    vertex -0.269627 -4.300675 381.793579
    vertex -0.377889 -4.350764 381.793579
  endloop
endfacet
facet normal 0.000000 -0.000000 -0.005417
  outer loop
    vertex -0.269627 -4.300675 381.793579
    vertex -0.269555 -4.350675 381.793579
    vertex -0.377889 -4.350764 381.793579
  endloop
endfacet
facet normal 0.000000 0.000000 -0.005414
  outer loop
    vertex -0.269627 -4.300675 381.793579
    vertex -0.161354 -4.300456 381.793579
    vertex -0.269555 -4.350675 381.793579
  endloop
endfacet
facet normal 0.000000 -0.000000 -0.005417
  outer loop
    vertex -0.161354 -4.300456 381.793579
    vertex -0.161222 -4.350455 381.793579
    vertex -0.269555 -4.350675 381.793579
  endloop
endfacet
facet normal 0.000000 -0.000000 -0.005414
  outer loop
    vertex -0.053081 -4.300106 381.793579
    vertex -0.052890 -4.350106 381.793579
    vertex -0.161354 -4.300456 381.793579
  endloop
endfacet
facet normal 0.000000 0.000000 -0.005417
  outer loop
    vertex -0.161354 -4.300456 381.793579
    vertex -0.052890 -4.350106 381.793579
    vertex -0.161222 -4.350455 381.793579
  endloop
endfacet
facet normal 0.000000 0.000000 0.005414
  outer loop
    vertex -0.269627 -4.300675 385.384583
    vertex -0.377900 -4.300765 385.384583
    vertex -0.377889 -4.350764 385.384583
  endloop
endfacet
facet normal 0.000000 0.000000 0.005417
  outer loop
    vertex -0.269555 -4.350675 385.384583
    vertex -0.269627 -4.300675 385.384583
    vertex -0.377889 -4.350764 385.384583
  endloop
endfacet
facet normal 0.000000 0.000000 0.005414
  outer loop
    vertex -0.161222 -4.350455 385.384583
    vertex -0.161354 -4.300456 385.384583
    vertex -0.269627 -4.300675 385.384583
  endloop
endfacet
facet normal 0.000000 0.000000 0.005417
  outer loop
    vertex -0.161222 -4.350455 385.384583
    vertex -0.269627 -4.300675 385.384583
    vertex -0.269555 -4.350675 385.384583
  endloop
endfacet
facet normal 0.000000 0.000000 0.005414
  outer loop
    vertex -0.052890 -4.350106 385.384583
    vertex -0.053081 -4.300106 385.384583
    vertex -0.161354 -4.300456 385.384583
  endloop
endfacet
facet normal 0.000000 0.000000 0.005417
  outer loop
    vertex -0.052890 -4.350106 385.384583
    vertex -0.161354 -4.300456 385.384583
    vertex -0.161222 -4.350455 385.384583
  endloop
endfacet
endsolid b'MESH-MESH-MESH-MESH-MESH-MESH-MESH-MESH-MESH-MESH-MESH-MESH-MESH-MESH-MESH-MESH'
