solid b'MESH-MESH-MESH-MESH-MESH-MESH-MESH-MESH-MESH-MESH-MESH-MESH-MESH-MESH-MESH-MESH'
facet normal 0.081196 0.380455 -0.000000
  outer loop
    vertex 19.153776 2.377336 -396.217560
    vertex 19.153776 2.377336 -392.626587
    vertex 19.259724 2.354725 -392.626587
  endloop
endfacet
facet normal 0.081653 0.380359 -0.000000
  outer loop
    vertex 19.259724 2.354725 -396.217560
    vertex 19.259724 2.354725 -392.626587
    vertex 19.365644 2.331986 -392.626587
  endloop
endfacet
facet normal 0.081196 0.380455 -0.000000
  outer loop
    vertex 19.259724 2.354725 -396.217560
    vertex 19.153776 2.377336 -396.217560
    vertex 19.259724 2.354725 -392.626587
  endloop
endfacet
facet normal 0.081653 0.380359 -0.000000
  outer loop
    vertex 19.365644 2.331986 -396.217560
    vertex 19.259724 2.354725 -396.217560
    vertex 19.365644 2.331986 -392.626587
  endloop
endfacet
facet normal 0.082110 0.380256 -0.000000
  outer loop
    vertex 19.471537 2.309120 -396.217560
    vertex 19.365644 2.331986 -392.626587
    vertex 19.471537 2.309120 -392.626587
  endloop
endfacet
facet normal 0.082111 0.380256 0.000000
  outer loop
    vertex 19.471537 2.309120 -396.217560
    vertex 19.365644 2.331986 -396.217560
    vertex 19.365644 2.331986 -392.626587
  endloop
endfacet
facet normal 0.175481 -0.038000 0.000000
  outer loop
    vertex 19.471537 2.309120 -396.217560
    vertex 19.460955 2.260253 -392.626587
    vertex 19.460955 2.260253 -396.217560
  endloop
endfacet
facet normal 0.175481 -0.038000 0.000000
  outer loop
    vertex 19.471537 2.309120 -392.626587
    vertex 19.460955 2.260253 -392.626587
    vertex 19.471537 2.309120 -396.217560
  endloop
endfacet
facet normal -0.081151 -0.380242 0.000000
  outer loop
    vertex 19.143370 2.328431 -392.626587
    vertex 19.249258 2.305832 -396.217560
    vertex 19.249258 2.305832 -392.626587
  endloop
endfacet
facet normal -0.081608 -0.380146 -0.000000
  outer loop
    vertex 19.249258 2.305832 -392.626587
    vertex 19.249258 2.305832 -396.217560
    vertex 19.355120 2.283106 -392.626587
  endloop
endfacet
facet normal -0.081151 -0.380242 0.000000
  outer loop
    vertex 19.143370 2.328431 -396.217560
    vertex 19.249258 2.305832 -396.217560
    vertex 19.143370 2.328431 -392.626587
  endloop
endfacet
facet normal -0.082065 -0.380050 0.000000
  outer loop
    vertex 19.355120 2.283106 -392.626587
    vertex 19.355120 2.283106 -396.217560
    vertex 19.460955 2.260253 -392.626587
  endloop
endfacet
facet normal -0.081609 -0.380146 0.000000
  outer loop
    vertex 19.249258 2.305832 -396.217560
    vertex 19.355120 2.283106 -396.217560
    vertex 19.355120 2.283106 -392.626587
  endloop
endfacet
facet normal -0.082065 -0.380050 0.000000
  outer loop
    vertex 19.355120 2.283106 -396.217560
    vertex 19.460955 2.260253 -396.217560
    vertex 19.460955 2.260253 -392.626587
  endloop
endfacet
facet normal -0.175617 0.037369 -0.000000
  outer loop
    vertex 19.143370 2.328431 -396.217560
    vertex 19.143370 2.328431 -392.626587
    vertex 19.153776 2.377336 -396.217560
  endloop
endfacet
facet normal -0.175616 0.037369 0.000000
  outer loop
    vertex 19.143370 2.328431 -392.626587
    vertex 19.153776 2.377336 -392.626587
    vertex 19.153776 2.377336 -396.217560
  endloop
endfacet
facet normal -0.000000 0.000000 0.005414
  outer loop
    vertex 19.355120 2.283106 -392.626587
    vertex 19.460955 2.260253 -392.626587
    vertex 19.471537 2.309120 -392.626587
  endloop
endfacet
facet normal 0.000000 0.000000 0.005417
  outer loop
    vertex 19.365644 2.331986 -392.626587
    vertex 19.355120 2.283106 -392.626587
    vertex 19.471537 2.309120 -392.626587
  endloop
endfacet
facet normal 0.000000 0.000000 0.005414
  outer loop
    vertex 19.259724 2.354725 -392.626587
    vertex 19.249258 2.305832 -392.626587
    vertex 19.355120 2.283106 -392.626587
  endloop
endfacet
facet normal 0.000000 0.000000 0.005417
  outer loop
    vertex 19.259724 2.354725 -392.626587
    vertex 19.355120 2.283106 -392.626587
    vertex 19.365644 2.331986 -392.626587
  endloop
endfacet
facet normal 0.000000 0.000000 0.005414
  outer loop
    vertex 19.153776 2.377336 -392.626587
    vertex 19.143370 2.328431 -392.626587
    vertex 19.249258 2.305832 -392.626587
  endloop
endfacet
facet normal 0.000000 0.000000 0.005417
  outer loop
    vertex 19.153776 2.377336 -392.626587
    vertex 19.249258 2.305832 -392.626587
    vertex 19.259724 2.354725 -392.626587
  endloop
endfacet
facet normal 0.000000 0.000000 -0.005414
  outer loop
    vertex 19.355120 2.283106 -396.217560
    vertex 19.365644 2.331986 -396.217560
    vertex 19.460955 2.260253 -396.217560
  endloop
endfacet
facet normal 0.000000 0.000000 -0.005417
  outer loop
    vertex 19.460955 2.260253 -396.217560
    vertex 19.365644 2.331986 -396.217560
    vertex 19.471537 2.309120 -396.217560
  endloop
endfacet
facet normal 0.000000 0.000000 -0.005414
  outer loop
    vertex 19.249258 2.305832 -396.217560
    vertex 19.259724 2.354725 -396.217560
    vertex 19.355120 2.283106 -396.217560
  endloop
endfacet
facet normal 0.000000 0.000000 -0.005417
  outer loop
    vertex 19.355120 2.283106 -396.217560
    vertex 19.259724 2.354725 -396.217560
    vertex 19.365644 2.331986 -396.217560
  endloop
endfacet
facet normal 0.000000 0.000000 -0.005414
  outer loop
    vertex 19.143370 2.328431 -396.217560
    vertex 19.153776 2.377336 -396.217560
    vertex 19.249258 2.305832 -396.217560
  endloop
endfacet
facet normal 0.000000 0.000000 -0.005417
  outer loop
    vertex 19.249258 2.305832 -396.217560
    vertex 19.153776 2.377336 -396.217560
    vertex 19.259724 2.354725 -396.217560
  endloop
endfacet
endsolid b'MESH-MESH-MESH-MESH-MESH-MESH-MESH-MESH-MESH-MESH-MESH-MESH-MESH-MESH-MESH-MESH'
