solid b'MESH-MESH-MESH-MESH-MESH-MESH-MESH-MESH-MESH-MESH-MESH-MESH-MESH-MESH-MESH-MESH'
facet normal 0.001255 0.389023 0.000000
  outer loop
    vertex -0.052900 4.350106 316.648010
    vertex -0.052900 4.350106 313.057007
    vertex -0.161233 4.350456 313.057007
  endloop
endfacet
facet normal 0.000789 0.389025 -0.000000
  outer loop
    vertex -0.161233 4.350456 316.648010
    vertex -0.161233 4.350456 313.057007
    vertex -0.269566 4.350676 313.057007
  endloop
endfacet
facet normal 0.001257 0.389023 -0.000000
  outer loop
    vertex -0.161233 4.350456 316.648010
    vertex -0.052900 4.350106 316.648010
    vertex -0.161233 4.350456 313.057007
  endloop
endfacet
facet normal 0.000320 0.389025 0.000000
  outer loop
    vertex -0.269566 4.350675 316.648010
    vertex -0.269566 4.350676 313.057007
    vertex -0.377899 4.350765 313.057007
  endloop
endfacet
facet normal 0.000788 0.389025 0.000000
  outer loop
    vertex -0.269566 4.350675 316.648010
    vertex -0.161233 4.350456 316.648010
    vertex -0.269566 4.350676 313.057007
  endloop
endfacet
facet normal 0.000322 0.389025 -0.000000
  outer loop
    vertex -0.377899 4.350765 316.648010
    vertex -0.269566 4.350675 316.648010
    vertex -0.377899 4.350765 313.057007
  endloop
endfacet
facet normal -0.179551 0.000040 0.000000
  outer loop
    vertex -0.377899 4.350765 316.648010
    vertex -0.377911 4.300765 313.057007
    vertex -0.377911 4.300765 316.648010
  endloop
endfacet
facet normal -0.179551 0.000040 0.000000
  outer loop
    vertex -0.377899 4.350765 313.057007
    vertex -0.377911 4.300765 313.057007
    vertex -0.377899 4.350765 316.648010
  endloop
endfacet
facet normal -0.001255 -0.388807 0.000000
  outer loop
    vertex -0.053092 4.300107 313.057007
    vertex -0.161364 4.300456 316.648010
    vertex -0.161364 4.300456 313.057007
  endloop
endfacet
facet normal -0.000788 -0.388809 0.000000
  outer loop
    vertex -0.161364 4.300456 313.057007
    vertex -0.161364 4.300456 316.648010
    vertex -0.269637 4.300675 313.057007
  endloop
endfacet
facet normal -0.001257 -0.388807 -0.000000
  outer loop
    vertex -0.053092 4.300106 316.648010
    vertex -0.161364 4.300456 316.648010
    vertex -0.053092 4.300107 313.057007
  endloop
endfacet
facet normal -0.000320 -0.388809 0.000000
  outer loop
    vertex -0.269637 4.300675 313.057007
    vertex -0.269637 4.300675 316.648010
    vertex -0.377911 4.300765 313.057007
  endloop
endfacet
facet normal -0.000788 -0.388809 0.000000
  outer loop
    vertex -0.161364 4.300456 316.648010
    vertex -0.269637 4.300675 316.648010
    vertex -0.269637 4.300675 313.057007
  endloop
endfacet
facet normal -0.000320 -0.388809 0.000000
  outer loop
    vertex -0.269637 4.300675 316.648010
    vertex -0.377911 4.300765 316.648010
    vertex -0.377911 4.300765 313.057007
  endloop
endfacet
facet normal 0.179549 -0.000688 -0.000000
  outer loop
    vertex -0.053092 4.300106 316.648010
    vertex -0.053092 4.300107 313.057007
    vertex -0.052900 4.350106 316.648010
  endloop
endfacet
facet normal 0.179549 -0.000688 -0.000000
  outer loop
    vertex -0.053092 4.300107 313.057007
    vertex -0.052900 4.350106 313.057007
    vertex -0.052900 4.350106 316.648010
  endloop
endfacet
facet normal 0.000000 0.000000 -0.005414
  outer loop
    vertex -0.269637 4.300675 313.057007
    vertex -0.377911 4.300765 313.057007
    vertex -0.377899 4.350765 313.057007
  endloop
endfacet
facet normal -0.000000 0.000000 -0.005417
  outer loop
    vertex -0.269566 4.350676 313.057007
    vertex -0.269637 4.300675 313.057007
    vertex -0.377899 4.350765 313.057007
  endloop
endfacet
facet normal 0.000000 0.000000 -0.005414
  outer loop
    vertex -0.161364 4.300456 313.057007
    vertex -0.269637 4.300675 313.057007
    vertex -0.269566 4.350676 313.057007
  endloop
endfacet
facet normal -0.000000 0.000000 -0.005417
  outer loop
    vertex -0.161233 4.350456 313.057007
    vertex -0.161364 4.300456 313.057007
    vertex -0.269566 4.350676 313.057007
  endloop
endfacet
facet normal 0.000000 0.000000 -0.005414
  outer loop
    vertex -0.052900 4.350106 313.057007
    vertex -0.053092 4.300107 313.057007
    vertex -0.161364 4.300456 313.057007
  endloop
endfacet
facet normal -0.000000 0.000000 -0.005417
  outer loop
    vertex -0.052900 4.350106 313.057007
    vertex -0.161364 4.300456 313.057007
    vertex -0.161233 4.350456 313.057007
  endloop
endfacet
facet normal -0.000000 0.000000 0.005414
  outer loop
    vertex -0.377911 4.300765 316.648010
    vertex -0.269637 4.300675 316.648010
    vertex -0.377899 4.350765 316.648010
  endloop
endfacet
facet normal 0.000000 -0.000000 0.005417
  outer loop
    vertex -0.269637 4.300675 316.648010
    vertex -0.269566 4.350675 316.648010
    vertex -0.377899 4.350765 316.648010
  endloop
endfacet
facet normal -0.000000 0.000000 0.005414
  outer loop
    vertex -0.269637 4.300675 316.648010
    vertex -0.161364 4.300456 316.648010
    vertex -0.269566 4.350675 316.648010
  endloop
endfacet
facet normal 0.000000 -0.000000 0.005417
  outer loop
    vertex -0.161364 4.300456 316.648010
    vertex -0.161233 4.350456 316.648010
    vertex -0.269566 4.350675 316.648010
  endloop
endfacet
facet normal -0.000000 0.000000 0.005414
  outer loop
    vertex -0.161364 4.300456 316.648010
    vertex -0.053092 4.300106 316.648010
    vertex -0.161233 4.350456 316.648010
  endloop
endfacet
facet normal 0.000000 -0.000000 0.005417
  outer loop
    vertex -0.053092 4.300106 316.648010
    vertex -0.052900 4.350106 316.648010
    vertex -0.161233 4.350456 316.648010
  endloop
endfacet
endsolid b'MESH-MESH-MESH-MESH-MESH-MESH-MESH-MESH-MESH-MESH-MESH-MESH-MESH-MESH-MESH-MESH'
