solid b'MESH-MESH-MESH-MESH-MESH-MESH-MESH-MESH-MESH-MESH-MESH-MESH-MESH-MESH-MESH-MESH'
facet normal -0.081197 0.380457 0.000000
  outer loop
    vertex -19.153776 2.377336 69.250305
    vertex -19.153776 2.377336 65.659309
    vertex -19.259724 2.354725 65.659309
  endloop
endfacet
facet normal -0.081654 0.380361 0.000000
  outer loop
    vertex -19.259724 2.354725 69.250305
    vertex -19.259724 2.354725 65.659309
    vertex -19.365644 2.331986 65.659309
  endloop
endfacet
facet normal -0.081197 0.380457 0.000000
  outer loop
    vertex -19.259724 2.354725 69.250305
    vertex -19.153776 2.377336 69.250305
    vertex -19.259724 2.354725 65.659309
  endloop
endfacet
facet normal -0.082111 0.380258 0.000000
  outer loop
    vertex -19.365644 2.331986 69.250305
    vertex -19.365644 2.331986 65.659309
    vertex -19.471537 2.309120 65.659309
  endloop
endfacet
facet normal -0.081654 0.380361 0.000000
  outer loop
    vertex -19.365644 2.331986 69.250305
    vertex -19.259724 2.354725 69.250305
    vertex -19.365644 2.331986 65.659309
  endloop
endfacet
facet normal -0.082112 0.380258 0.000000
  outer loop
    vertex -19.471537 2.309120 69.250305
    vertex -19.365644 2.331986 69.250305
    vertex -19.471537 2.309120 65.659309
  endloop
endfacet
facet normal -0.175482 -0.038000 -0.000000
  outer loop
    vertex -19.471537 2.309120 69.250305
    vertex -19.460955 2.260253 65.659309
    vertex -19.460955 2.260253 69.250305
  endloop
endfacet
facet normal -0.175482 -0.038000 -0.000000
  outer loop
    vertex -19.471537 2.309120 65.659309
    vertex -19.460955 2.260253 65.659309
    vertex -19.471537 2.309120 69.250305
  endloop
endfacet
facet normal 0.081152 -0.380245 0.000000
  outer loop
    vertex -19.143370 2.328431 65.659309
    vertex -19.249258 2.305832 69.250305
    vertex -19.249258 2.305832 65.659309
  endloop
endfacet
facet normal 0.081608 -0.380149 0.000000
  outer loop
    vertex -19.249258 2.305832 65.659309
    vertex -19.249258 2.305832 69.250305
    vertex -19.355120 2.283106 65.659309
  endloop
endfacet
facet normal 0.081151 -0.380245 -0.000000
  outer loop
    vertex -19.143370 2.328431 69.250305
    vertex -19.249258 2.305832 69.250305
    vertex -19.143370 2.328431 65.659309
  endloop
endfacet
facet normal 0.082066 -0.380053 0.000000
  outer loop
    vertex -19.355120 2.283106 65.659309
    vertex -19.355120 2.283106 69.250305
    vertex -19.460955 2.260253 65.659309
  endloop
endfacet
facet normal 0.081608 -0.380149 0.000000
  outer loop
    vertex -19.249258 2.305832 69.250305
    vertex -19.355120 2.283106 69.250305
    vertex -19.355120 2.283106 65.659309
  endloop
endfacet
facet normal 0.082066 -0.380053 -0.000000
  outer loop
    vertex -19.355120 2.283106 69.250305
    vertex -19.460955 2.260253 69.250305
    vertex -19.460955 2.260253 65.659309
  endloop
endfacet
facet normal 0.175618 0.037370 0.000000
  outer loop
    vertex -19.143370 2.328431 69.250305
    vertex -19.143370 2.328431 65.659309
    vertex -19.153776 2.377336 69.250305
  endloop
endfacet
facet normal 0.175617 0.037370 0.000000
  outer loop
    vertex -19.143370 2.328431 65.659309
    vertex -19.153776 2.377336 65.659309
    vertex -19.153776 2.377336 69.250305
  endloop
endfacet
facet normal 0.000000 -0.000000 -0.005414
  outer loop
    vertex -19.365644 2.331986 65.659309
    vertex -19.355120 2.283106 65.659309
    vertex -19.460955 2.260253 65.659309
  endloop
endfacet
facet normal 0.000000 0.000000 -0.005417
  outer loop
    vertex -19.365644 2.331986 65.659309
    vertex -19.460955 2.260253 65.659309
    vertex -19.471537 2.309120 65.659309
  endloop
endfacet
facet normal 0.000000 -0.000000 -0.005414
  outer loop
    vertex -19.259724 2.354725 65.659309
    vertex -19.249258 2.305832 65.659309
    vertex -19.355120 2.283106 65.659309
  endloop
endfacet
facet normal 0.000000 0.000000 -0.005417
  outer loop
    vertex -19.259724 2.354725 65.659309
    vertex -19.355120 2.283106 65.659309
    vertex -19.365644 2.331986 65.659309
  endloop
endfacet
facet normal 0.000000 -0.000000 -0.005414
  outer loop
    vertex -19.153776 2.377336 65.659309
    vertex -19.143370 2.328431 65.659309
    vertex -19.249258 2.305832 65.659309
  endloop
endfacet
facet normal 0.000000 0.000000 -0.005417
  outer loop
    vertex -19.153776 2.377336 65.659309
    vertex -19.249258 2.305832 65.659309
    vertex -19.259724 2.354725 65.659309
  endloop
endfacet
facet normal 0.000000 0.000000 0.005414
  outer loop
    vertex -19.355120 2.283106 69.250305
    vertex -19.365644 2.331986 69.250305
    vertex -19.460955 2.260253 69.250305
  endloop
endfacet
facet normal 0.000000 -0.000000 0.005417
  outer loop
    vertex -19.460955 2.260253 69.250305
    vertex -19.365644 2.331986 69.250305
    vertex -19.471537 2.309120 69.250305
  endloop
endfacet
facet normal 0.000000 0.000000 0.005414
  outer loop
    vertex -19.249258 2.305832 69.250305
    vertex -19.259724 2.354725 69.250305
    vertex -19.355120 2.283106 69.250305
  endloop
endfacet
facet normal 0.000000 -0.000000 0.005417
  outer loop
    vertex -19.355120 2.283106 69.250305
    vertex -19.259724 2.354725 69.250305
    vertex -19.365644 2.331986 69.250305
  endloop
endfacet
facet normal 0.000000 0.000000 0.005414
  outer loop
    vertex -19.143370 2.328431 69.250305
    vertex -19.153776 2.377336 69.250305
    vertex -19.249258 2.305832 69.250305
  endloop
endfacet
facet normal 0.000000 -0.000000 0.005417
  outer loop
    vertex -19.249258 2.305832 69.250305
    vertex -19.153776 2.377336 69.250305
    vertex -19.259724 2.354725 69.250305
  endloop
endfacet
endsolid b'MESH-MESH-MESH-MESH-MESH-MESH-MESH-MESH-MESH-MESH-MESH-MESH-MESH-MESH-MESH-MESH'
