solid b'MESH-MESH-MESH-MESH-MESH-MESH-MESH-MESH-MESH-MESH-MESH-MESH-MESH-MESH-MESH-MESH'
facet normal 0.081197 -0.380457 -0.000000
  outer loop
    vertex 19.259729 -2.354723 -102.655128
    vertex 19.153782 -2.377335 -102.655128
    vertex 19.153782 -2.377334 -106.246124
  endloop
endfacet
facet normal 0.081197 -0.380457 0.000000
  outer loop
    vertex 19.259729 -2.354723 -102.655128
    vertex 19.153782 -2.377334 -106.246124
    vertex 19.259729 -2.354723 -106.246124
  endloop
endfacet
facet normal 0.081655 -0.380361 -0.000000
  outer loop
    vertex 19.365650 -2.331985 -102.655128
    vertex 19.259729 -2.354723 -106.246124
    vertex 19.365650 -2.331985 -106.246124
  endloop
endfacet
facet normal 0.082111 -0.380258 -0.000000
  outer loop
    vertex 19.365650 -2.331985 -102.655128
    vertex 19.365650 -2.331985 -106.246124
    vertex 19.471542 -2.309119 -106.246124
  endloop
endfacet
facet normal 0.081654 -0.380361 0.000000
  outer loop
    vertex 19.365650 -2.331985 -102.655128
    vertex 19.259729 -2.354723 -102.655128
    vertex 19.259729 -2.354723 -106.246124
  endloop
endfacet
facet normal 0.082111 -0.380258 -0.000000
  outer loop
    vertex 19.471542 -2.309119 -102.655128
    vertex 19.365650 -2.331985 -102.655128
    vertex 19.471542 -2.309119 -106.246124
  endloop
endfacet
facet normal 0.175482 0.038000 0.000000
  outer loop
    vertex 19.460960 -2.260252 -102.655128
    vertex 19.471542 -2.309119 -102.655128
    vertex 19.471542 -2.309119 -106.246124
  endloop
endfacet
facet normal 0.175482 0.038000 0.000000
  outer loop
    vertex 19.460960 -2.260252 -102.655128
    vertex 19.471542 -2.309119 -106.246124
    vertex 19.460960 -2.260252 -106.246124
  endloop
endfacet
facet normal -0.081151 0.380245 0.000000
  outer loop
    vertex 19.143375 -2.328429 -106.246124
    vertex 19.143375 -2.328429 -102.655128
    vertex 19.249264 -2.305831 -106.246124
  endloop
endfacet
facet normal -0.081609 0.380149 0.000000
  outer loop
    vertex 19.249264 -2.305831 -106.246124
    vertex 19.249264 -2.305831 -102.655128
    vertex 19.355125 -2.283105 -106.246124
  endloop
endfacet
facet normal -0.081152 0.380245 0.000000
  outer loop
    vertex 19.143375 -2.328429 -102.655128
    vertex 19.249264 -2.305831 -102.655128
    vertex 19.249264 -2.305831 -106.246124
  endloop
endfacet
facet normal -0.082066 0.380053 0.000000
  outer loop
    vertex 19.355125 -2.283105 -106.246124
    vertex 19.355125 -2.283105 -102.655128
    vertex 19.460960 -2.260252 -106.246124
  endloop
endfacet
facet normal -0.081608 0.380149 0.000000
  outer loop
    vertex 19.249264 -2.305831 -102.655128
    vertex 19.355125 -2.283105 -102.655128
    vertex 19.355125 -2.283105 -106.246124
  endloop
endfacet
facet normal -0.082066 0.380053 0.000000
  outer loop
    vertex 19.355125 -2.283105 -102.655128
    vertex 19.460960 -2.260252 -102.655128
    vertex 19.460960 -2.260252 -106.246124
  endloop
endfacet
facet normal -0.175618 -0.037370 -0.000000
  outer loop
    vertex 19.143375 -2.328429 -102.655128
    vertex 19.143375 -2.328429 -106.246124
    vertex 19.153782 -2.377334 -106.246124
  endloop
endfacet
facet normal -0.175618 -0.037370 -0.000000
  outer loop
    vertex 19.153782 -2.377335 -102.655128
    vertex 19.143375 -2.328429 -102.655128
    vertex 19.153782 -2.377334 -106.246124
  endloop
endfacet
facet normal 0.000000 0.000000 0.005414
  outer loop
    vertex 19.460960 -2.260252 -102.655128
    vertex 19.355125 -2.283105 -102.655128
    vertex 19.471542 -2.309119 -102.655128
  endloop
endfacet
facet normal 0.000000 0.000000 0.005417
  outer loop
    vertex 19.355125 -2.283105 -102.655128
    vertex 19.365650 -2.331985 -102.655128
    vertex 19.471542 -2.309119 -102.655128
  endloop
endfacet
facet normal 0.000000 0.000000 0.005414
  outer loop
    vertex 19.355125 -2.283105 -102.655128
    vertex 19.249264 -2.305831 -102.655128
    vertex 19.365650 -2.331985 -102.655128
  endloop
endfacet
facet normal 0.000000 0.000000 0.005417
  outer loop
    vertex 19.249264 -2.305831 -102.655128
    vertex 19.259729 -2.354723 -102.655128
    vertex 19.365650 -2.331985 -102.655128
  endloop
endfacet
facet normal 0.000000 0.000000 0.005414
  outer loop
    vertex 19.249264 -2.305831 -102.655128
    vertex 19.143375 -2.328429 -102.655128
    vertex 19.259729 -2.354723 -102.655128
  endloop
endfacet
facet normal 0.000000 0.000000 0.005417
  outer loop
    vertex 19.143375 -2.328429 -102.655128
    vertex 19.153782 -2.377335 -102.655128
    vertex 19.259729 -2.354723 -102.655128
  endloop
endfacet
facet normal 0.000000 0.000000 -0.005414
  outer loop
    vertex 19.355125 -2.283105 -106.246124
    vertex 19.460960 -2.260252 -106.246124
    vertex 19.471542 -2.309119 -106.246124
  endloop
endfacet
facet normal 0.000000 0.000000 -0.005417
  outer loop
    vertex 19.365650 -2.331985 -106.246124
    vertex 19.355125 -2.283105 -106.246124
    vertex 19.471542 -2.309119 -106.246124
  endloop
endfacet
facet normal 0.000000 0.000000 -0.005414
  outer loop
    vertex 19.259729 -2.354723 -106.246124
    vertex 19.249264 -2.305831 -106.246124
    vertex 19.355125 -2.283105 -106.246124
  endloop
endfacet
facet normal 0.000000 0.000000 -0.005417
  outer loop
    vertex 19.259729 -2.354723 -106.246124
    vertex 19.355125 -2.283105 -106.246124
    vertex 19.365650 -2.331985 -106.246124
  endloop
endfacet
facet normal 0.000000 0.000000 -0.005414
  outer loop
    vertex 19.153782 -2.377334 -106.246124
    vertex 19.143375 -2.328429 -106.246124
    vertex 19.249264 -2.305831 -106.246124
  endloop
endfacet
facet normal 0.000000 0.000000 -0.005417
  outer loop
    vertex 19.153782 -2.377334 -106.246124
    vertex 19.249264 -2.305831 -106.246124
    vertex 19.259729 -2.354723 -106.246124
  endloop
endfacet
endsolid b'MESH-MESH-MESH-MESH-MESH-MESH-MESH-MESH-MESH-MESH-MESH-MESH-MESH-MESH-MESH-MESH'
