solid b'MESH-MESH-MESH-MESH-MESH-MESH-MESH-MESH-MESH-MESH-MESH-MESH-MESH-MESH-MESH-MESH'
facet normal -0.081196 0.380455 0.000000
  outer loop
    vertex -19.259714 2.354727 -349.294586
    vertex -19.153767 2.377338 -349.294586
    vertex -19.153767 2.377338 -352.885559
  endloop
endfacet
facet normal -0.081196 0.380455 0.000000
  outer loop
    vertex -19.259714 2.354727 -349.294586
    vertex -19.153767 2.377338 -352.885559
    vertex -19.259714 2.354727 -352.885559
  endloop
endfacet
facet normal -0.081653 0.380352 -0.000000
  outer loop
    vertex -19.365635 2.331988 -349.294586
    vertex -19.259714 2.354727 -352.885559
    vertex -19.365633 2.331988 -352.885559
  endloop
endfacet
facet normal -0.082111 0.380263 -0.000000
  outer loop
    vertex -19.365635 2.331988 -349.294586
    vertex -19.365633 2.331988 -352.885559
    vertex -19.471527 2.309122 -352.885559
  endloop
endfacet
facet normal -0.081653 0.380359 0.000000
  outer loop
    vertex -19.365635 2.331988 -349.294586
    vertex -19.259714 2.354727 -349.294586
    vertex -19.259714 2.354727 -352.885559
  endloop
endfacet
facet normal -0.082111 0.380256 0.000000
  outer loop
    vertex -19.471527 2.309122 -349.294586
    vertex -19.365635 2.331988 -349.294586
    vertex -19.471527 2.309122 -352.885559
  endloop
endfacet
facet normal -0.175480 -0.038006 0.000000
  outer loop
    vertex -19.460943 2.260255 -349.294586
    vertex -19.471527 2.309122 -349.294586
    vertex -19.471527 2.309122 -352.885559
  endloop
endfacet
facet normal -0.175481 -0.038006 0.000000
  outer loop
    vertex -19.460943 2.260255 -349.294586
    vertex -19.471527 2.309122 -352.885559
    vertex -19.460943 2.260255 -352.885559
  endloop
endfacet
facet normal 0.081151 -0.380242 0.000000
  outer loop
    vertex -19.143360 2.328433 -352.885559
    vertex -19.143360 2.328433 -349.294586
    vertex -19.249249 2.305834 -352.885559
  endloop
endfacet
facet normal 0.081151 -0.380242 0.000000
  outer loop
    vertex -19.143360 2.328433 -349.294586
    vertex -19.249249 2.305834 -349.294586
    vertex -19.249249 2.305834 -352.885559
  endloop
endfacet
facet normal 0.081609 -0.380146 0.000000
  outer loop
    vertex -19.249249 2.305834 -352.885559
    vertex -19.355110 2.283108 -349.294586
    vertex -19.355110 2.283108 -352.885559
  endloop
endfacet
facet normal 0.081608 -0.380146 0.000000
  outer loop
    vertex -19.249249 2.305834 -349.294586
    vertex -19.355110 2.283108 -349.294586
    vertex -19.249249 2.305834 -352.885559
  endloop
endfacet
facet normal 0.082065 -0.380044 0.000000
  outer loop
    vertex -19.355110 2.283108 -352.885559
    vertex -19.460943 2.260255 -349.294586
    vertex -19.460943 2.260255 -352.885559
  endloop
endfacet
facet normal 0.082065 -0.380044 0.000000
  outer loop
    vertex -19.355110 2.283108 -349.294586
    vertex -19.460943 2.260255 -349.294586
    vertex -19.355110 2.283108 -352.885559
  endloop
endfacet
facet normal 0.175617 0.037369 0.000000
  outer loop
    vertex -19.143360 2.328433 -349.294586
    vertex -19.143360 2.328433 -352.885559
    vertex -19.153767 2.377338 -352.885559
  endloop
endfacet
facet normal 0.175617 0.037369 0.000000
  outer loop
    vertex -19.153767 2.377338 -349.294586
    vertex -19.143360 2.328433 -349.294586
    vertex -19.153767 2.377338 -352.885559
  endloop
endfacet
facet normal 0.000000 -0.000000 0.005414
  outer loop
    vertex -19.460943 2.260255 -349.294586
    vertex -19.355110 2.283108 -349.294586
    vertex -19.471527 2.309122 -349.294586
  endloop
endfacet
facet normal 0.000000 0.000000 0.005417
  outer loop
    vertex -19.355110 2.283108 -349.294586
    vertex -19.365635 2.331988 -349.294586
    vertex -19.471527 2.309122 -349.294586
  endloop
endfacet
facet normal 0.000000 0.000000 0.005414
  outer loop
    vertex -19.249249 2.305834 -349.294586
    vertex -19.259714 2.354727 -349.294586
    vertex -19.355110 2.283108 -349.294586
  endloop
endfacet
facet normal 0.000000 -0.000000 0.005417
  outer loop
    vertex -19.355110 2.283108 -349.294586
    vertex -19.259714 2.354727 -349.294586
    vertex -19.365635 2.331988 -349.294586
  endloop
endfacet
facet normal 0.000000 0.000000 0.005414
  outer loop
    vertex -19.143360 2.328433 -349.294586
    vertex -19.153767 2.377338 -349.294586
    vertex -19.249249 2.305834 -349.294586
  endloop
endfacet
facet normal 0.000000 -0.000000 0.005417
  outer loop
    vertex -19.249249 2.305834 -349.294586
    vertex -19.153767 2.377338 -349.294586
    vertex -19.259714 2.354727 -349.294586
  endloop
endfacet
facet normal -0.000000 0.000000 -0.005414
  outer loop
    vertex -19.355110 2.283108 -352.885559
    vertex -19.460943 2.260255 -352.885559
    vertex -19.471527 2.309122 -352.885559
  endloop
endfacet
facet normal 0.000000 -0.000000 -0.005417
  outer loop
    vertex -19.365633 2.331988 -352.885559
    vertex -19.355110 2.283108 -352.885559
    vertex -19.471527 2.309122 -352.885559
  endloop
endfacet
facet normal 0.000000 -0.000000 -0.005414
  outer loop
    vertex -19.259714 2.354727 -352.885559
    vertex -19.249249 2.305834 -352.885559
    vertex -19.355110 2.283108 -352.885559
  endloop
endfacet
facet normal 0.000000 0.000000 -0.005417
  outer loop
    vertex -19.259714 2.354727 -352.885559
    vertex -19.355110 2.283108 -352.885559
    vertex -19.365633 2.331988 -352.885559
  endloop
endfacet
facet normal 0.000000 -0.000000 -0.005414
  outer loop
    vertex -19.153767 2.377338 -352.885559
    vertex -19.143360 2.328433 -352.885559
    vertex -19.249249 2.305834 -352.885559
  endloop
endfacet
facet normal 0.000000 0.000000 -0.005417
  outer loop
    vertex -19.153767 2.377338 -352.885559
    vertex -19.249249 2.305834 -352.885559
    vertex -19.259714 2.354727 -352.885559
  endloop
endfacet
endsolid b'MESH-MESH-MESH-MESH-MESH-MESH-MESH-MESH-MESH-MESH-MESH-MESH-MESH-MESH-MESH-MESH'
