solid b'MESH-MESH-MESH-MESH-MESH-MESH-MESH-MESH-MESH-MESH-MESH-MESH-MESH-MESH-MESH-MESH'
facet normal -0.001257 0.389022 -0.000000
  outer loop
    vertex 0.161228 4.350456 65.659309
    vertex 0.052895 4.350106 65.659309
    vertex 0.052895 4.350106 69.250305
  endloop
endfacet
facet normal -0.001257 0.389022 -0.000000
  outer loop
    vertex 0.161228 4.350456 65.659309
    vertex 0.052895 4.350106 69.250305
    vertex 0.161228 4.350456 69.250305
  endloop
endfacet
facet normal -0.000788 0.389024 -0.000000
  outer loop
    vertex 0.269561 4.350675 65.659309
    vertex 0.161228 4.350456 69.250305
    vertex 0.269561 4.350675 69.250305
  endloop
endfacet
facet normal -0.000788 0.389024 -0.000000
  outer loop
    vertex 0.269561 4.350675 65.659309
    vertex 0.161228 4.350456 65.659309
    vertex 0.161228 4.350456 69.250305
  endloop
endfacet
facet normal -0.000320 0.389024 0.000000
  outer loop
    vertex 0.377894 4.350765 65.659309
    vertex 0.269561 4.350675 69.250305
    vertex 0.377894 4.350764 69.250305
  endloop
endfacet
facet normal -0.000322 0.389024 -0.000000
  outer loop
    vertex 0.377894 4.350765 65.659309
    vertex 0.269561 4.350675 65.659309
    vertex 0.269561 4.350675 69.250305
  endloop
endfacet
facet normal 0.179550 0.000040 0.000000
  outer loop
    vertex 0.377905 4.300765 65.659309
    vertex 0.377894 4.350765 65.659309
    vertex 0.377894 4.350764 69.250305
  endloop
endfacet
facet normal 0.179549 0.000040 0.000000
  outer loop
    vertex 0.377905 4.300765 65.659309
    vertex 0.377894 4.350764 69.250305
    vertex 0.377905 4.300765 69.250305
  endloop
endfacet
facet normal 0.001255 -0.388807 -0.000000
  outer loop
    vertex 0.053086 4.300106 69.250305
    vertex 0.161359 4.300456 65.659309
    vertex 0.161359 4.300456 69.250305
  endloop
endfacet
facet normal 0.001257 -0.388807 0.000000
  outer loop
    vertex 0.053086 4.300106 65.659309
    vertex 0.161359 4.300456 65.659309
    vertex 0.053086 4.300106 69.250305
  endloop
endfacet
facet normal 0.000789 -0.388808 0.000000
  outer loop
    vertex 0.161359 4.300456 69.250305
    vertex 0.269632 4.300675 65.659309
    vertex 0.269632 4.300675 69.250305
  endloop
endfacet
facet normal 0.000788 -0.388808 -0.000000
  outer loop
    vertex 0.161359 4.300456 65.659309
    vertex 0.269632 4.300675 65.659309
    vertex 0.161359 4.300456 69.250305
  endloop
endfacet
facet normal 0.000320 -0.388809 0.000000
  outer loop
    vertex 0.269632 4.300675 69.250305
    vertex 0.377905 4.300765 65.659309
    vertex 0.377905 4.300765 69.250305
  endloop
endfacet
facet normal 0.000320 -0.388809 0.000000
  outer loop
    vertex 0.269632 4.300675 65.659309
    vertex 0.377905 4.300765 65.659309
    vertex 0.269632 4.300675 69.250305
  endloop
endfacet
facet normal -0.179549 -0.000688 -0.000000
  outer loop
    vertex 0.052895 4.350106 65.659309
    vertex 0.053086 4.300106 65.659309
    vertex 0.053086 4.300106 69.250305
  endloop
endfacet
facet normal -0.179549 -0.000688 -0.000000
  outer loop
    vertex 0.052895 4.350106 65.659309
    vertex 0.053086 4.300106 69.250305
    vertex 0.052895 4.350106 69.250305
  endloop
endfacet
facet normal -0.000000 0.000000 -0.005414
  outer loop
    vertex 0.377905 4.300765 65.659309
    vertex 0.269632 4.300675 65.659309
    vertex 0.377894 4.350765 65.659309
  endloop
endfacet
facet normal 0.000000 0.000000 -0.005417
  outer loop
    vertex 0.269632 4.300675 65.659309
    vertex 0.269561 4.350675 65.659309
    vertex 0.377894 4.350765 65.659309
  endloop
endfacet
facet normal -0.000000 0.000000 -0.005414
  outer loop
    vertex 0.269632 4.300675 65.659309
    vertex 0.161359 4.300456 65.659309
    vertex 0.269561 4.350675 65.659309
  endloop
endfacet
facet normal 0.000000 0.000000 -0.005417
  outer loop
    vertex 0.161359 4.300456 65.659309
    vertex 0.161228 4.350456 65.659309
    vertex 0.269561 4.350675 65.659309
  endloop
endfacet
facet normal -0.000000 0.000000 -0.005414
  outer loop
    vertex 0.161359 4.300456 65.659309
    vertex 0.053086 4.300106 65.659309
    vertex 0.161228 4.350456 65.659309
  endloop
endfacet
facet normal 0.000000 0.000000 -0.005417
  outer loop
    vertex 0.053086 4.300106 65.659309
    vertex 0.052895 4.350106 65.659309
    vertex 0.161228 4.350456 65.659309
  endloop
endfacet
facet normal 0.000000 0.000000 0.005414
  outer loop
    vertex 0.269632 4.300675 69.250305
    vertex 0.377905 4.300765 69.250305
    vertex 0.377894 4.350764 69.250305
  endloop
endfacet
facet normal -0.000000 0.000000 0.005417
  outer loop
    vertex 0.269561 4.350675 69.250305
    vertex 0.269632 4.300675 69.250305
    vertex 0.377894 4.350764 69.250305
  endloop
endfacet
facet normal 0.000000 0.000000 0.005414
  outer loop
    vertex 0.161359 4.300456 69.250305
    vertex 0.269632 4.300675 69.250305
    vertex 0.269561 4.350675 69.250305
  endloop
endfacet
facet normal -0.000000 0.000000 0.005417
  outer loop
    vertex 0.161228 4.350456 69.250305
    vertex 0.161359 4.300456 69.250305
    vertex 0.269561 4.350675 69.250305
  endloop
endfacet
facet normal 0.000000 0.000000 0.005414
  outer loop
    vertex 0.053086 4.300106 69.250305
    vertex 0.161359 4.300456 69.250305
    vertex 0.161228 4.350456 69.250305
  endloop
endfacet
facet normal -0.000000 0.000000 0.005417
  outer loop
    vertex 0.052895 4.350106 69.250305
    vertex 0.053086 4.300106 69.250305
    vertex 0.161228 4.350456 69.250305
  endloop
endfacet
endsolid b'MESH-MESH-MESH-MESH-MESH-MESH-MESH-MESH-MESH-MESH-MESH-MESH-MESH-MESH-MESH-MESH'
