solid b'MESH-MESH-MESH-MESH-MESH-MESH-MESH-MESH-MESH-MESH-MESH-MESH-MESH-MESH-MESH-MESH'
facet normal 0.081197 0.380458 -0.000000
  outer loop
    vertex 19.153767 2.377338 -356.476562
    vertex 19.153767 2.377338 -352.885559
    vertex 19.259714 2.354727 -352.885559
  endloop
endfacet
facet normal 0.081654 0.380362 -0.000000
  outer loop
    vertex 19.259714 2.354727 -356.476562
    vertex 19.259714 2.354727 -352.885559
    vertex 19.365635 2.331988 -352.885559
  endloop
endfacet
facet normal 0.081197 0.380458 -0.000000
  outer loop
    vertex 19.259714 2.354727 -356.476562
    vertex 19.153767 2.377338 -356.476562
    vertex 19.259714 2.354727 -352.885559
  endloop
endfacet
facet normal 0.081654 0.380362 -0.000000
  outer loop
    vertex 19.365635 2.331988 -356.476562
    vertex 19.259714 2.354727 -356.476562
    vertex 19.365635 2.331988 -352.885559
  endloop
endfacet
facet normal 0.082111 0.380259 -0.000000
  outer loop
    vertex 19.471527 2.309122 -356.476562
    vertex 19.365635 2.331988 -352.885559
    vertex 19.471527 2.309122 -352.885559
  endloop
endfacet
facet normal 0.082112 0.380259 0.000000
  outer loop
    vertex 19.471527 2.309122 -356.476562
    vertex 19.365635 2.331988 -356.476562
    vertex 19.365635 2.331988 -352.885559
  endloop
endfacet
facet normal 0.175482 -0.038007 0.000000
  outer loop
    vertex 19.471527 2.309122 -356.476562
    vertex 19.460943 2.260255 -352.885559
    vertex 19.460943 2.260255 -356.476562
  endloop
endfacet
facet normal 0.175482 -0.038007 0.000000
  outer loop
    vertex 19.471527 2.309122 -352.885559
    vertex 19.460943 2.260255 -352.885559
    vertex 19.471527 2.309122 -356.476562
  endloop
endfacet
facet normal -0.081152 -0.380245 0.000000
  outer loop
    vertex 19.143360 2.328433 -352.885559
    vertex 19.249249 2.305834 -356.476562
    vertex 19.249249 2.305834 -352.885559
  endloop
endfacet
facet normal -0.081151 -0.380245 0.000000
  outer loop
    vertex 19.143360 2.328433 -356.476562
    vertex 19.249249 2.305834 -356.476562
    vertex 19.143360 2.328433 -352.885559
  endloop
endfacet
facet normal -0.081608 -0.380150 0.000000
  outer loop
    vertex 19.249249 2.305834 -352.885559
    vertex 19.355110 2.283108 -356.476562
    vertex 19.355110 2.283108 -352.885559
  endloop
endfacet
facet normal -0.081609 -0.380150 0.000000
  outer loop
    vertex 19.249249 2.305834 -356.476562
    vertex 19.355110 2.283108 -356.476562
    vertex 19.249249 2.305834 -352.885559
  endloop
endfacet
facet normal -0.082066 -0.380047 0.000000
  outer loop
    vertex 19.355110 2.283108 -352.885559
    vertex 19.460943 2.260255 -356.476562
    vertex 19.460943 2.260255 -352.885559
  endloop
endfacet
facet normal -0.082066 -0.380047 0.000000
  outer loop
    vertex 19.355110 2.283108 -356.476562
    vertex 19.460943 2.260255 -356.476562
    vertex 19.355110 2.283108 -352.885559
  endloop
endfacet
facet normal -0.175618 0.037370 -0.000000
  outer loop
    vertex 19.143360 2.328433 -356.476562
    vertex 19.143360 2.328433 -352.885559
    vertex 19.153767 2.377338 -356.476562
  endloop
endfacet
facet normal -0.175618 0.037370 0.000000
  outer loop
    vertex 19.143360 2.328433 -352.885559
    vertex 19.153767 2.377338 -352.885559
    vertex 19.153767 2.377338 -356.476562
  endloop
endfacet
facet normal -0.000000 0.000000 0.005414
  outer loop
    vertex 19.355110 2.283108 -352.885559
    vertex 19.460943 2.260255 -352.885559
    vertex 19.471527 2.309122 -352.885559
  endloop
endfacet
facet normal 0.000000 0.000000 0.005417
  outer loop
    vertex 19.365635 2.331988 -352.885559
    vertex 19.355110 2.283108 -352.885559
    vertex 19.471527 2.309122 -352.885559
  endloop
endfacet
facet normal -0.000000 0.000000 0.005414
  outer loop
    vertex 19.249249 2.305834 -352.885559
    vertex 19.355110 2.283108 -352.885559
    vertex 19.365635 2.331988 -352.885559
  endloop
endfacet
facet normal 0.000000 0.000000 0.005417
  outer loop
    vertex 19.259714 2.354727 -352.885559
    vertex 19.249249 2.305834 -352.885559
    vertex 19.365635 2.331988 -352.885559
  endloop
endfacet
facet normal -0.000000 0.000000 0.005414
  outer loop
    vertex 19.143360 2.328433 -352.885559
    vertex 19.249249 2.305834 -352.885559
    vertex 19.259714 2.354727 -352.885559
  endloop
endfacet
facet normal 0.000000 0.000000 0.005417
  outer loop
    vertex 19.153767 2.377338 -352.885559
    vertex 19.143360 2.328433 -352.885559
    vertex 19.259714 2.354727 -352.885559
  endloop
endfacet
facet normal 0.000000 0.000000 -0.005414
  outer loop
    vertex 19.460943 2.260255 -356.476562
    vertex 19.355110 2.283108 -356.476562
    vertex 19.471527 2.309122 -356.476562
  endloop
endfacet
facet normal 0.000000 0.000000 -0.005417
  outer loop
    vertex 19.355110 2.283108 -356.476562
    vertex 19.365635 2.331988 -356.476562
    vertex 19.471527 2.309122 -356.476562
  endloop
endfacet
facet normal 0.000000 0.000000 -0.005414
  outer loop
    vertex 19.249249 2.305834 -356.476562
    vertex 19.259714 2.354727 -356.476562
    vertex 19.355110 2.283108 -356.476562
  endloop
endfacet
facet normal 0.000000 0.000000 -0.005417
  outer loop
    vertex 19.355110 2.283108 -356.476562
    vertex 19.259714 2.354727 -356.476562
    vertex 19.365635 2.331988 -356.476562
  endloop
endfacet
facet normal 0.000000 0.000000 -0.005414
  outer loop
    vertex 19.143360 2.328433 -356.476562
    vertex 19.153767 2.377338 -356.476562
    vertex 19.249249 2.305834 -356.476562
  endloop
endfacet
facet normal 0.000000 0.000000 -0.005417
  outer loop
    vertex 19.249249 2.305834 -356.476562
    vertex 19.153767 2.377338 -356.476562
    vertex 19.259714 2.354727 -356.476562
  endloop
endfacet
endsolid b'MESH-MESH-MESH-MESH-MESH-MESH-MESH-MESH-MESH-MESH-MESH-MESH-MESH-MESH-MESH-MESH'
