solid b'MESH-MESH-MESH-MESH-MESH-MESH-MESH-MESH-MESH-MESH-MESH-MESH-MESH-MESH-MESH-MESH'
facet normal 0.081197 -0.380456 0.000000
  outer loop
    vertex 19.153782 -2.377334 210.649780
    vertex 19.153782 -2.377335 207.058792
    vertex 19.259729 -2.354723 207.058792
  endloop
endfacet
facet normal 0.081654 -0.380360 0.000000
  outer loop
    vertex 19.259729 -2.354723 210.649780
    vertex 19.259729 -2.354723 207.058792
    vertex 19.365650 -2.331985 207.058792
  endloop
endfacet
facet normal 0.081196 -0.380456 0.000000
  outer loop
    vertex 19.259729 -2.354723 210.649780
    vertex 19.153782 -2.377334 210.649780
    vertex 19.259729 -2.354723 207.058792
  endloop
endfacet
facet normal 0.081654 -0.380360 0.000000
  outer loop
    vertex 19.365650 -2.331985 210.649780
    vertex 19.259729 -2.354723 210.649780
    vertex 19.365650 -2.331985 207.058792
  endloop
endfacet
facet normal 0.082111 -0.380258 0.000000
  outer loop
    vertex 19.471542 -2.309119 210.649780
    vertex 19.365650 -2.331985 207.058792
    vertex 19.471542 -2.309119 207.058792
  endloop
endfacet
facet normal 0.082111 -0.380258 0.000000
  outer loop
    vertex 19.471542 -2.309119 210.649780
    vertex 19.365650 -2.331985 210.649780
    vertex 19.365650 -2.331985 207.058792
  endloop
endfacet
facet normal 0.175482 0.038000 -0.000000
  outer loop
    vertex 19.471542 -2.309119 210.649780
    vertex 19.460960 -2.260252 207.058792
    vertex 19.460960 -2.260252 210.649780
  endloop
endfacet
facet normal 0.175482 0.038000 -0.000000
  outer loop
    vertex 19.471542 -2.309119 207.058792
    vertex 19.460960 -2.260252 207.058792
    vertex 19.471542 -2.309119 210.649780
  endloop
endfacet
facet normal -0.081152 0.380244 0.000000
  outer loop
    vertex 19.143375 -2.328429 207.058792
    vertex 19.249264 -2.305831 210.649780
    vertex 19.249264 -2.305831 207.058792
  endloop
endfacet
facet normal -0.081151 0.380244 -0.000000
  outer loop
    vertex 19.143375 -2.328429 210.649780
    vertex 19.249264 -2.305831 210.649780
    vertex 19.143375 -2.328429 207.058792
  endloop
endfacet
facet normal -0.081608 0.380148 -0.000000
  outer loop
    vertex 19.249264 -2.305831 207.058792
    vertex 19.355125 -2.283105 210.649780
    vertex 19.355125 -2.283105 207.058792
  endloop
endfacet
facet normal -0.081609 0.380148 0.000000
  outer loop
    vertex 19.249264 -2.305831 210.649780
    vertex 19.355125 -2.283105 210.649780
    vertex 19.249264 -2.305831 207.058792
  endloop
endfacet
facet normal -0.082065 0.380052 -0.000000
  outer loop
    vertex 19.355125 -2.283105 207.058792
    vertex 19.460960 -2.260252 210.649780
    vertex 19.460960 -2.260252 207.058792
  endloop
endfacet
facet normal -0.082065 0.380052 -0.000000
  outer loop
    vertex 19.355125 -2.283105 210.649780
    vertex 19.460960 -2.260252 210.649780
    vertex 19.355125 -2.283105 207.058792
  endloop
endfacet
facet normal -0.175618 -0.037370 0.000000
  outer loop
    vertex 19.143375 -2.328429 210.649780
    vertex 19.143375 -2.328429 207.058792
    vertex 19.153782 -2.377334 210.649780
  endloop
endfacet
facet normal -0.175618 -0.037370 0.000000
  outer loop
    vertex 19.143375 -2.328429 207.058792
    vertex 19.153782 -2.377335 207.058792
    vertex 19.153782 -2.377334 210.649780
  endloop
endfacet
facet normal 0.000000 0.000000 -0.005414
  outer loop
    vertex 19.355125 -2.283105 207.058792
    vertex 19.460960 -2.260252 207.058792
    vertex 19.471542 -2.309119 207.058792
  endloop
endfacet
facet normal 0.000000 0.000000 -0.005417
  outer loop
    vertex 19.365650 -2.331985 207.058792
    vertex 19.355125 -2.283105 207.058792
    vertex 19.471542 -2.309119 207.058792
  endloop
endfacet
facet normal 0.000000 0.000000 -0.005414
  outer loop
    vertex 19.249264 -2.305831 207.058792
    vertex 19.355125 -2.283105 207.058792
    vertex 19.365650 -2.331985 207.058792
  endloop
endfacet
facet normal 0.000000 0.000000 -0.005417
  outer loop
    vertex 19.259729 -2.354723 207.058792
    vertex 19.249264 -2.305831 207.058792
    vertex 19.365650 -2.331985 207.058792
  endloop
endfacet
facet normal 0.000000 0.000000 -0.005414
  outer loop
    vertex 19.143375 -2.328429 207.058792
    vertex 19.249264 -2.305831 207.058792
    vertex 19.259729 -2.354723 207.058792
  endloop
endfacet
facet normal 0.000000 0.000000 -0.005417
  outer loop
    vertex 19.153782 -2.377335 207.058792
    vertex 19.143375 -2.328429 207.058792
    vertex 19.259729 -2.354723 207.058792
  endloop
endfacet
facet normal 0.000000 0.000000 0.005414
  outer loop
    vertex 19.460960 -2.260252 210.649780
    vertex 19.355125 -2.283105 210.649780
    vertex 19.471542 -2.309119 210.649780
  endloop
endfacet
facet normal 0.000000 0.000000 0.005417
  outer loop
    vertex 19.355125 -2.283105 210.649780
    vertex 19.365650 -2.331985 210.649780
    vertex 19.471542 -2.309119 210.649780
  endloop
endfacet
facet normal -0.000000 0.000000 0.005414
  outer loop
    vertex 19.249264 -2.305831 210.649780
    vertex 19.259729 -2.354723 210.649780
    vertex 19.355125 -2.283105 210.649780
  endloop
endfacet
facet normal 0.000000 0.000000 0.005417
  outer loop
    vertex 19.355125 -2.283105 210.649780
    vertex 19.259729 -2.354723 210.649780
    vertex 19.365650 -2.331985 210.649780
  endloop
endfacet
facet normal -0.000000 0.000000 0.005414
  outer loop
    vertex 19.143375 -2.328429 210.649780
    vertex 19.153782 -2.377334 210.649780
    vertex 19.249264 -2.305831 210.649780
  endloop
endfacet
facet normal 0.000000 0.000000 0.005417
  outer loop
    vertex 19.249264 -2.305831 210.649780
    vertex 19.153782 -2.377334 210.649780
    vertex 19.259729 -2.354723 210.649780
  endloop
endfacet
endsolid b'MESH-MESH-MESH-MESH-MESH-MESH-MESH-MESH-MESH-MESH-MESH-MESH-MESH-MESH-MESH-MESH'
