solid b'MESH-MESH-MESH-MESH-MESH-MESH-MESH-MESH-MESH-MESH-MESH-MESH-MESH-MESH-MESH-MESH'
facet normal 0.081197 0.380457 0.000000
  outer loop
    vertex 19.259714 2.354727 29.509306
    vertex 19.153767 2.377338 29.509306
    vertex 19.153767 2.377338 33.100304
  endloop
endfacet
facet normal 0.081197 0.380457 -0.000000
  outer loop
    vertex 19.259714 2.354727 29.509306
    vertex 19.153767 2.377338 33.100304
    vertex 19.259714 2.354727 33.100304
  endloop
endfacet
facet normal 0.081654 0.380361 -0.000000
  outer loop
    vertex 19.365635 2.331988 29.509306
    vertex 19.259714 2.354727 33.100304
    vertex 19.365635 2.331988 33.100304
  endloop
endfacet
facet normal 0.082112 0.380259 -0.000000
  outer loop
    vertex 19.365635 2.331988 29.509306
    vertex 19.365635 2.331988 33.100304
    vertex 19.471527 2.309122 33.100304
  endloop
endfacet
facet normal 0.081654 0.380361 0.000000
  outer loop
    vertex 19.365635 2.331988 29.509306
    vertex 19.259714 2.354727 29.509306
    vertex 19.259714 2.354727 33.100304
  endloop
endfacet
facet normal 0.082111 0.380259 0.000000
  outer loop
    vertex 19.471527 2.309122 29.509306
    vertex 19.365635 2.331988 29.509306
    vertex 19.471527 2.309122 33.100304
  endloop
endfacet
facet normal 0.175482 -0.038007 -0.000000
  outer loop
    vertex 19.460943 2.260255 29.509306
    vertex 19.471527 2.309122 29.509306
    vertex 19.471527 2.309122 33.100304
  endloop
endfacet
facet normal 0.175482 -0.038007 -0.000000
  outer loop
    vertex 19.460943 2.260255 29.509306
    vertex 19.471527 2.309122 33.100304
    vertex 19.460943 2.260255 33.100304
  endloop
endfacet
facet normal -0.081151 -0.380245 -0.000000
  outer loop
    vertex 19.143360 2.328433 33.100304
    vertex 19.143360 2.328433 29.509306
    vertex 19.249249 2.305834 33.100304
  endloop
endfacet
facet normal -0.081609 -0.380149 -0.000000
  outer loop
    vertex 19.249249 2.305834 33.100304
    vertex 19.249249 2.305834 29.509306
    vertex 19.355110 2.283108 33.100304
  endloop
endfacet
facet normal -0.081152 -0.380245 0.000000
  outer loop
    vertex 19.143360 2.328433 29.509306
    vertex 19.249249 2.305834 29.509306
    vertex 19.249249 2.305834 33.100304
  endloop
endfacet
facet normal -0.082066 -0.380046 -0.000000
  outer loop
    vertex 19.355110 2.283108 33.100304
    vertex 19.355110 2.283108 29.509306
    vertex 19.460943 2.260255 33.100304
  endloop
endfacet
facet normal -0.081608 -0.380149 -0.000000
  outer loop
    vertex 19.249249 2.305834 29.509306
    vertex 19.355110 2.283108 29.509306
    vertex 19.355110 2.283108 33.100304
  endloop
endfacet
facet normal -0.082066 -0.380046 -0.000000
  outer loop
    vertex 19.355110 2.283108 29.509306
    vertex 19.460943 2.260255 29.509306
    vertex 19.460943 2.260255 33.100304
  endloop
endfacet
facet normal -0.175618 0.037370 0.000000
  outer loop
    vertex 19.143360 2.328433 29.509306
    vertex 19.143360 2.328433 33.100304
    vertex 19.153767 2.377338 33.100304
  endloop
endfacet
facet normal -0.175617 0.037370 0.000000
  outer loop
    vertex 19.153767 2.377338 29.509306
    vertex 19.143360 2.328433 29.509306
    vertex 19.153767 2.377338 33.100304
  endloop
endfacet
facet normal 0.000000 0.000000 -0.005414
  outer loop
    vertex 19.460943 2.260255 29.509306
    vertex 19.355110 2.283108 29.509306
    vertex 19.471527 2.309122 29.509306
  endloop
endfacet
facet normal 0.000000 0.000000 -0.005417
  outer loop
    vertex 19.355110 2.283108 29.509306
    vertex 19.365635 2.331988 29.509306
    vertex 19.471527 2.309122 29.509306
  endloop
endfacet
facet normal 0.000000 0.000000 -0.005414
  outer loop
    vertex 19.355110 2.283108 29.509306
    vertex 19.249249 2.305834 29.509306
    vertex 19.365635 2.331988 29.509306
  endloop
endfacet
facet normal 0.000000 0.000000 -0.005417
  outer loop
    vertex 19.249249 2.305834 29.509306
    vertex 19.259714 2.354727 29.509306
    vertex 19.365635 2.331988 29.509306
  endloop
endfacet
facet normal 0.000000 0.000000 -0.005414
  outer loop
    vertex 19.249249 2.305834 29.509306
    vertex 19.143360 2.328433 29.509306
    vertex 19.259714 2.354727 29.509306
  endloop
endfacet
facet normal 0.000000 0.000000 -0.005417
  outer loop
    vertex 19.143360 2.328433 29.509306
    vertex 19.153767 2.377338 29.509306
    vertex 19.259714 2.354727 29.509306
  endloop
endfacet
facet normal -0.000000 0.000000 0.005414
  outer loop
    vertex 19.355110 2.283108 33.100304
    vertex 19.460943 2.260255 33.100304
    vertex 19.471527 2.309122 33.100304
  endloop
endfacet
facet normal 0.000000 0.000000 0.005417
  outer loop
    vertex 19.365635 2.331988 33.100304
    vertex 19.355110 2.283108 33.100304
    vertex 19.471527 2.309122 33.100304
  endloop
endfacet
facet normal 0.000000 0.000000 0.005414
  outer loop
    vertex 19.259714 2.354727 33.100304
    vertex 19.249249 2.305834 33.100304
    vertex 19.355110 2.283108 33.100304
  endloop
endfacet
facet normal 0.000000 0.000000 0.005417
  outer loop
    vertex 19.259714 2.354727 33.100304
    vertex 19.355110 2.283108 33.100304
    vertex 19.365635 2.331988 33.100304
  endloop
endfacet
facet normal 0.000000 0.000000 0.005414
  outer loop
    vertex 19.153767 2.377338 33.100304
    vertex 19.143360 2.328433 33.100304
    vertex 19.249249 2.305834 33.100304
  endloop
endfacet
facet normal 0.000000 0.000000 0.005417
  outer loop
    vertex 19.153767 2.377338 33.100304
    vertex 19.249249 2.305834 33.100304
    vertex 19.259714 2.354727 33.100304
  endloop
endfacet
endsolid b'MESH-MESH-MESH-MESH-MESH-MESH-MESH-MESH-MESH-MESH-MESH-MESH-MESH-MESH-MESH-MESH'
