solid b'MESH-MESH-MESH-MESH-MESH-MESH-MESH-MESH-MESH-MESH-MESH-MESH-MESH-MESH-MESH-MESH'
facet normal 0.001257 0.389023 0.000000
  outer loop
    vertex -0.161212 4.350454 7.843304
    vertex -0.052880 4.350104 7.843304
    vertex -0.052880 4.350104 4.252304
  endloop
endfacet
facet normal 0.001257 0.389023 0.000000
  outer loop
    vertex -0.161212 4.350454 7.843304
    vertex -0.052880 4.350104 4.252304
    vertex -0.161212 4.350454 4.252304
  endloop
endfacet
facet normal 0.000789 0.389024 0.000000
  outer loop
    vertex -0.269545 4.350674 7.843304
    vertex -0.161212 4.350454 4.252304
    vertex -0.269545 4.350674 4.252304
  endloop
endfacet
facet normal 0.000789 0.389024 0.000000
  outer loop
    vertex -0.269545 4.350674 7.843304
    vertex -0.161212 4.350454 7.843304
    vertex -0.161212 4.350454 4.252304
  endloop
endfacet
facet normal 0.000320 0.389025 0.000000
  outer loop
    vertex -0.377879 4.350763 7.843304
    vertex -0.269545 4.350674 4.252304
    vertex -0.377879 4.350763 4.252304
  endloop
endfacet
facet normal 0.000320 0.389025 0.000000
  outer loop
    vertex -0.377879 4.350763 7.843304
    vertex -0.269545 4.350674 7.843304
    vertex -0.269545 4.350674 4.252304
  endloop
endfacet
facet normal -0.179551 0.000040 0.000000
  outer loop
    vertex -0.377879 4.350763 7.843304
    vertex -0.377890 4.300763 4.252304
    vertex -0.377890 4.300763 7.843304
  endloop
endfacet
facet normal -0.179551 0.000040 0.000000
  outer loop
    vertex -0.377879 4.350763 4.252304
    vertex -0.377890 4.300763 4.252304
    vertex -0.377879 4.350763 7.843304
  endloop
endfacet
facet normal -0.001255 -0.388807 0.000000
  outer loop
    vertex -0.053071 4.300105 4.252304
    vertex -0.161344 4.300455 7.843304
    vertex -0.161344 4.300455 4.252304
  endloop
endfacet
facet normal -0.001255 -0.388807 -0.000000
  outer loop
    vertex -0.053071 4.300105 7.843304
    vertex -0.161344 4.300455 7.843304
    vertex -0.053071 4.300105 4.252304
  endloop
endfacet
facet normal -0.000788 -0.388808 0.000000
  outer loop
    vertex -0.161344 4.300455 4.252304
    vertex -0.269617 4.300674 7.843304
    vertex -0.269617 4.300674 4.252304
  endloop
endfacet
facet normal -0.000788 -0.388808 -0.000000
  outer loop
    vertex -0.161344 4.300455 7.843304
    vertex -0.269617 4.300674 7.843304
    vertex -0.161344 4.300455 4.252304
  endloop
endfacet
facet normal -0.000320 -0.388809 0.000000
  outer loop
    vertex -0.269617 4.300674 4.252304
    vertex -0.377890 4.300763 7.843304
    vertex -0.377890 4.300763 4.252304
  endloop
endfacet
facet normal -0.000320 -0.388809 -0.000000
  outer loop
    vertex -0.269617 4.300674 7.843304
    vertex -0.377890 4.300763 7.843304
    vertex -0.269617 4.300674 4.252304
  endloop
endfacet
facet normal 0.179547 -0.000688 0.000000
  outer loop
    vertex -0.053071 4.300105 7.843304
    vertex -0.052880 4.350104 4.252304
    vertex -0.052880 4.350104 7.843304
  endloop
endfacet
facet normal 0.179547 -0.000688 0.000000
  outer loop
    vertex -0.053071 4.300105 4.252304
    vertex -0.052880 4.350104 4.252304
    vertex -0.053071 4.300105 7.843304
  endloop
endfacet
facet normal 0.000000 0.000000 -0.005414
  outer loop
    vertex -0.269617 4.300674 4.252304
    vertex -0.377890 4.300763 4.252304
    vertex -0.377879 4.350763 4.252304
  endloop
endfacet
facet normal -0.000000 0.000000 -0.005417
  outer loop
    vertex -0.269545 4.350674 4.252304
    vertex -0.269617 4.300674 4.252304
    vertex -0.377879 4.350763 4.252304
  endloop
endfacet
facet normal 0.000000 0.000000 -0.005414
  outer loop
    vertex -0.161344 4.300455 4.252304
    vertex -0.269617 4.300674 4.252304
    vertex -0.269545 4.350674 4.252304
  endloop
endfacet
facet normal -0.000000 0.000000 -0.005417
  outer loop
    vertex -0.161212 4.350454 4.252304
    vertex -0.161344 4.300455 4.252304
    vertex -0.269545 4.350674 4.252304
  endloop
endfacet
facet normal 0.000000 0.000000 -0.005414
  outer loop
    vertex -0.052880 4.350104 4.252304
    vertex -0.053071 4.300105 4.252304
    vertex -0.161344 4.300455 4.252304
  endloop
endfacet
facet normal -0.000000 0.000000 -0.005417
  outer loop
    vertex -0.052880 4.350104 4.252304
    vertex -0.161344 4.300455 4.252304
    vertex -0.161212 4.350454 4.252304
  endloop
endfacet
facet normal -0.000000 0.000000 0.005414
  outer loop
    vertex -0.377890 4.300763 7.843304
    vertex -0.269617 4.300674 7.843304
    vertex -0.377879 4.350763 7.843304
  endloop
endfacet
facet normal 0.000000 -0.000000 0.005417
  outer loop
    vertex -0.269617 4.300674 7.843304
    vertex -0.269545 4.350674 7.843304
    vertex -0.377879 4.350763 7.843304
  endloop
endfacet
facet normal -0.000000 0.000000 0.005414
  outer loop
    vertex -0.269617 4.300674 7.843304
    vertex -0.161344 4.300455 7.843304
    vertex -0.269545 4.350674 7.843304
  endloop
endfacet
facet normal 0.000000 -0.000000 0.005417
  outer loop
    vertex -0.161344 4.300455 7.843304
    vertex -0.161212 4.350454 7.843304
    vertex -0.269545 4.350674 7.843304
  endloop
endfacet
facet normal -0.000000 0.000000 0.005414
  outer loop
    vertex -0.161344 4.300455 7.843304
    vertex -0.053071 4.300105 7.843304
    vertex -0.161212 4.350454 7.843304
  endloop
endfacet
facet normal 0.000000 -0.000000 0.005417
  outer loop
    vertex -0.053071 4.300105 7.843304
    vertex -0.052880 4.350104 7.843304
    vertex -0.161212 4.350454 7.843304
  endloop
endfacet
endsolid b'MESH-MESH-MESH-MESH-MESH-MESH-MESH-MESH-MESH-MESH-MESH-MESH-MESH-MESH-MESH-MESH'
