solid b'MESH-MESH-MESH-MESH-MESH-MESH-MESH-MESH-MESH-MESH-MESH-MESH-MESH-MESH-MESH-MESH'
facet normal -0.001257 -0.389022 -0.000000
  outer loop
    vertex 0.052884 -4.350105 149.302780
    vertex 0.052884 -4.350105 145.711792
    vertex 0.161217 -4.350455 145.711792
  endloop
endfacet
facet normal -0.000788 -0.389023 -0.000000
  outer loop
    vertex 0.161217 -4.350455 149.302780
    vertex 0.161217 -4.350455 145.711792
    vertex 0.269550 -4.350675 145.711792
  endloop
endfacet
facet normal -0.001257 -0.389022 -0.000000
  outer loop
    vertex 0.161217 -4.350455 149.302780
    vertex 0.052884 -4.350105 149.302780
    vertex 0.161217 -4.350455 145.711792
  endloop
endfacet
facet normal -0.000322 -0.389024 -0.000000
  outer loop
    vertex 0.269550 -4.350675 149.302780
    vertex 0.269550 -4.350675 145.711792
    vertex 0.377883 -4.350764 145.711792
  endloop
endfacet
facet normal -0.000788 -0.389023 -0.000000
  outer loop
    vertex 0.269550 -4.350675 149.302780
    vertex 0.161217 -4.350455 149.302780
    vertex 0.269550 -4.350675 145.711792
  endloop
endfacet
facet normal -0.000322 -0.389024 -0.000000
  outer loop
    vertex 0.377883 -4.350764 149.302780
    vertex 0.269550 -4.350675 149.302780
    vertex 0.377883 -4.350764 145.711792
  endloop
endfacet
facet normal 0.179550 -0.000040 0.000000
  outer loop
    vertex 0.377883 -4.350764 149.302780
    vertex 0.377895 -4.300764 145.711792
    vertex 0.377895 -4.300764 149.302780
  endloop
endfacet
facet normal 0.179550 -0.000040 0.000000
  outer loop
    vertex 0.377883 -4.350764 145.711792
    vertex 0.377895 -4.300764 145.711792
    vertex 0.377883 -4.350764 149.302780
  endloop
endfacet
facet normal 0.001257 0.388806 -0.000000
  outer loop
    vertex 0.053076 -4.300106 145.711792
    vertex 0.161348 -4.300455 149.302780
    vertex 0.161348 -4.300456 145.711792
  endloop
endfacet
facet normal 0.000788 0.388807 -0.000000
  outer loop
    vertex 0.161348 -4.300456 145.711792
    vertex 0.161348 -4.300455 149.302780
    vertex 0.269621 -4.300675 145.711792
  endloop
endfacet
facet normal 0.001255 0.388806 0.000000
  outer loop
    vertex 0.053076 -4.300106 149.302780
    vertex 0.161348 -4.300455 149.302780
    vertex 0.053076 -4.300106 145.711792
  endloop
endfacet
facet normal 0.000320 0.388808 -0.000000
  outer loop
    vertex 0.269621 -4.300675 145.711792
    vertex 0.269621 -4.300675 149.302780
    vertex 0.377895 -4.300764 145.711792
  endloop
endfacet
facet normal 0.000789 0.388807 0.000000
  outer loop
    vertex 0.161348 -4.300455 149.302780
    vertex 0.269621 -4.300675 149.302780
    vertex 0.269621 -4.300675 145.711792
  endloop
endfacet
facet normal 0.000320 0.388808 0.000000
  outer loop
    vertex 0.269621 -4.300675 149.302780
    vertex 0.377895 -4.300764 149.302780
    vertex 0.377895 -4.300764 145.711792
  endloop
endfacet
facet normal -0.179548 0.000688 -0.000000
  outer loop
    vertex 0.053076 -4.300106 149.302780
    vertex 0.053076 -4.300106 145.711792
    vertex 0.052884 -4.350105 149.302780
  endloop
endfacet
facet normal -0.179548 0.000688 -0.000000
  outer loop
    vertex 0.053076 -4.300106 145.711792
    vertex 0.052884 -4.350105 145.711792
    vertex 0.052884 -4.350105 149.302780
  endloop
endfacet
facet normal 0.000000 0.000000 -0.005414
  outer loop
    vertex 0.269621 -4.300675 145.711792
    vertex 0.377895 -4.300764 145.711792
    vertex 0.377883 -4.350764 145.711792
  endloop
endfacet
facet normal 0.000000 0.000000 -0.005417
  outer loop
    vertex 0.269550 -4.350675 145.711792
    vertex 0.269621 -4.300675 145.711792
    vertex 0.377883 -4.350764 145.711792
  endloop
endfacet
facet normal 0.000000 0.000000 -0.005414
  outer loop
    vertex 0.161348 -4.300456 145.711792
    vertex 0.269621 -4.300675 145.711792
    vertex 0.269550 -4.350675 145.711792
  endloop
endfacet
facet normal 0.000000 0.000000 -0.005417
  outer loop
    vertex 0.161217 -4.350455 145.711792
    vertex 0.161348 -4.300456 145.711792
    vertex 0.269550 -4.350675 145.711792
  endloop
endfacet
facet normal 0.000000 0.000000 -0.005414
  outer loop
    vertex 0.052884 -4.350105 145.711792
    vertex 0.053076 -4.300106 145.711792
    vertex 0.161348 -4.300456 145.711792
  endloop
endfacet
facet normal 0.000000 0.000000 -0.005417
  outer loop
    vertex 0.052884 -4.350105 145.711792
    vertex 0.161348 -4.300456 145.711792
    vertex 0.161217 -4.350455 145.711792
  endloop
endfacet
facet normal 0.000000 0.000000 0.005414
  outer loop
    vertex 0.377895 -4.300764 149.302780
    vertex 0.269621 -4.300675 149.302780
    vertex 0.377883 -4.350764 149.302780
  endloop
endfacet
facet normal 0.000000 0.000000 0.005417
  outer loop
    vertex 0.269621 -4.300675 149.302780
    vertex 0.269550 -4.350675 149.302780
    vertex 0.377883 -4.350764 149.302780
  endloop
endfacet
facet normal 0.000000 0.000000 0.005414
  outer loop
    vertex 0.269621 -4.300675 149.302780
    vertex 0.161348 -4.300455 149.302780
    vertex 0.269550 -4.350675 149.302780
  endloop
endfacet
facet normal 0.000000 0.000000 0.005417
  outer loop
    vertex 0.161348 -4.300455 149.302780
    vertex 0.161217 -4.350455 149.302780
    vertex 0.269550 -4.350675 149.302780
  endloop
endfacet
facet normal 0.000000 0.000000 0.005414
  outer loop
    vertex 0.161348 -4.300455 149.302780
    vertex 0.053076 -4.300106 149.302780
    vertex 0.161217 -4.350455 149.302780
  endloop
endfacet
facet normal 0.000000 0.000000 0.005417
  outer loop
    vertex 0.053076 -4.300106 149.302780
    vertex 0.052884 -4.350105 149.302780
    vertex 0.161217 -4.350455 149.302780
  endloop
endfacet
endsolid b'MESH-MESH-MESH-MESH-MESH-MESH-MESH-MESH-MESH-MESH-MESH-MESH-MESH-MESH-MESH-MESH'
