solid b'MESH-MESH-MESH-MESH-MESH-MESH-MESH-MESH-MESH-MESH-MESH-MESH-MESH-MESH-MESH-MESH'
facet normal 0.001255 -0.389023 0.000000
  outer loop
    vertex -0.161233 -4.350455 -327.903900
    vertex -0.052900 -4.350106 -327.903900
    vertex -0.052900 -4.350106 -324.312897
  endloop
endfacet
facet normal 0.001257 -0.389023 -0.000000
  outer loop
    vertex -0.161233 -4.350455 -327.903900
    vertex -0.052900 -4.350106 -324.312897
    vertex -0.161233 -4.350456 -324.312897
  endloop
endfacet
facet normal 0.000788 -0.389025 0.000000
  outer loop
    vertex -0.269566 -4.350675 -327.903900
    vertex -0.161233 -4.350456 -324.312897
    vertex -0.269566 -4.350675 -324.312897
  endloop
endfacet
facet normal 0.000320 -0.389025 0.000000
  outer loop
    vertex -0.269566 -4.350675 -327.903900
    vertex -0.269566 -4.350675 -324.312897
    vertex -0.377899 -4.350764 -324.312897
  endloop
endfacet
facet normal 0.000789 -0.389025 -0.000000
  outer loop
    vertex -0.269566 -4.350675 -327.903900
    vertex -0.161233 -4.350455 -327.903900
    vertex -0.161233 -4.350456 -324.312897
  endloop
endfacet
facet normal 0.000320 -0.389025 0.000000
  outer loop
    vertex -0.377899 -4.350764 -327.903900
    vertex -0.269566 -4.350675 -327.903900
    vertex -0.377899 -4.350764 -324.312897
  endloop
endfacet
facet normal -0.179551 -0.000040 -0.000000
  outer loop
    vertex -0.377899 -4.350764 -327.903900
    vertex -0.377911 -4.300765 -324.312897
    vertex -0.377910 -4.300764 -327.903900
  endloop
endfacet
facet normal -0.179549 -0.000040 -0.000000
  outer loop
    vertex -0.377899 -4.350764 -324.312897
    vertex -0.377911 -4.300765 -324.312897
    vertex -0.377899 -4.350764 -327.903900
  endloop
endfacet
facet normal -0.001255 0.388807 -0.000000
  outer loop
    vertex -0.053092 -4.300106 -324.312897
    vertex -0.161364 -4.300456 -327.903900
    vertex -0.161364 -4.300456 -324.312897
  endloop
endfacet
facet normal -0.001255 0.388807 -0.000000
  outer loop
    vertex -0.053092 -4.300106 -327.903900
    vertex -0.161364 -4.300456 -327.903900
    vertex -0.053092 -4.300106 -324.312897
  endloop
endfacet
facet normal -0.000788 0.388809 -0.000000
  outer loop
    vertex -0.161364 -4.300456 -324.312897
    vertex -0.269637 -4.300675 -327.903900
    vertex -0.269637 -4.300675 -324.312897
  endloop
endfacet
facet normal -0.000322 0.388809 -0.000000
  outer loop
    vertex -0.269637 -4.300675 -324.312897
    vertex -0.269637 -4.300675 -327.903900
    vertex -0.377911 -4.300765 -324.312897
  endloop
endfacet
facet normal -0.000788 0.388809 -0.000000
  outer loop
    vertex -0.161364 -4.300456 -327.903900
    vertex -0.269637 -4.300675 -327.903900
    vertex -0.161364 -4.300456 -324.312897
  endloop
endfacet
facet normal -0.000320 0.388809 0.000000
  outer loop
    vertex -0.269637 -4.300675 -327.903900
    vertex -0.377910 -4.300764 -327.903900
    vertex -0.377911 -4.300765 -324.312897
  endloop
endfacet
facet normal 0.179549 0.000688 0.000000
  outer loop
    vertex -0.053092 -4.300106 -327.903900
    vertex -0.053092 -4.300106 -324.312897
    vertex -0.052900 -4.350106 -327.903900
  endloop
endfacet
facet normal 0.179549 0.000688 0.000000
  outer loop
    vertex -0.053092 -4.300106 -324.312897
    vertex -0.052900 -4.350106 -324.312897
    vertex -0.052900 -4.350106 -327.903900
  endloop
endfacet
facet normal 0.000000 0.000000 0.005414
  outer loop
    vertex -0.269637 -4.300675 -324.312897
    vertex -0.377911 -4.300765 -324.312897
    vertex -0.377899 -4.350764 -324.312897
  endloop
endfacet
facet normal 0.000000 0.000000 0.005417
  outer loop
    vertex -0.269566 -4.350675 -324.312897
    vertex -0.269637 -4.300675 -324.312897
    vertex -0.377899 -4.350764 -324.312897
  endloop
endfacet
facet normal 0.000000 0.000000 0.005414
  outer loop
    vertex -0.161233 -4.350456 -324.312897
    vertex -0.161364 -4.300456 -324.312897
    vertex -0.269637 -4.300675 -324.312897
  endloop
endfacet
facet normal 0.000000 0.000000 0.005417
  outer loop
    vertex -0.161233 -4.350456 -324.312897
    vertex -0.269637 -4.300675 -324.312897
    vertex -0.269566 -4.350675 -324.312897
  endloop
endfacet
facet normal 0.000000 0.000000 0.005414
  outer loop
    vertex -0.052900 -4.350106 -324.312897
    vertex -0.053092 -4.300106 -324.312897
    vertex -0.161364 -4.300456 -324.312897
  endloop
endfacet
facet normal 0.000000 0.000000 0.005417
  outer loop
    vertex -0.052900 -4.350106 -324.312897
    vertex -0.161364 -4.300456 -324.312897
    vertex -0.161233 -4.350456 -324.312897
  endloop
endfacet
facet normal 0.000000 0.000000 -0.005414
  outer loop
    vertex -0.377910 -4.300764 -327.903900
    vertex -0.269637 -4.300675 -327.903900
    vertex -0.377899 -4.350764 -327.903900
  endloop
endfacet
facet normal 0.000000 -0.000000 -0.005417
  outer loop
    vertex -0.269637 -4.300675 -327.903900
    vertex -0.269566 -4.350675 -327.903900
    vertex -0.377899 -4.350764 -327.903900
  endloop
endfacet
facet normal 0.000000 -0.000000 -0.005414
  outer loop
    vertex -0.161364 -4.300456 -327.903900
    vertex -0.161233 -4.350455 -327.903900
    vertex -0.269637 -4.300675 -327.903900
  endloop
endfacet
facet normal 0.000000 0.000000 -0.005417
  outer loop
    vertex -0.269637 -4.300675 -327.903900
    vertex -0.161233 -4.350455 -327.903900
    vertex -0.269566 -4.350675 -327.903900
  endloop
endfacet
facet normal 0.000000 -0.000000 -0.005414
  outer loop
    vertex -0.053092 -4.300106 -327.903900
    vertex -0.052900 -4.350106 -327.903900
    vertex -0.161364 -4.300456 -327.903900
  endloop
endfacet
facet normal 0.000000 0.000000 -0.005417
  outer loop
    vertex -0.161364 -4.300456 -327.903900
    vertex -0.052900 -4.350106 -327.903900
    vertex -0.161233 -4.350455 -327.903900
  endloop
endfacet
endsolid b'MESH-MESH-MESH-MESH-MESH-MESH-MESH-MESH-MESH-MESH-MESH-MESH-MESH-MESH-MESH-MESH'
