solid b'MESH-MESH-MESH-MESH-MESH-MESH-MESH-MESH-MESH-MESH-MESH-MESH-MESH-MESH-MESH-MESH'
facet normal -0.081197 -0.380458 0.000000
  outer loop
    vertex -19.259710 -2.354727 -26.824123
    vertex -19.153763 -2.377338 -26.824123
    vertex -19.153763 -2.377338 -23.233122
  endloop
endfacet
facet normal -0.081197 -0.380458 0.000000
  outer loop
    vertex -19.259710 -2.354727 -26.824123
    vertex -19.153763 -2.377338 -23.233122
    vertex -19.259710 -2.354727 -23.233122
  endloop
endfacet
facet normal -0.081654 -0.380362 0.000000
  outer loop
    vertex -19.259710 -2.354727 -26.824123
    vertex -19.259710 -2.354727 -23.233122
    vertex -19.365631 -2.331989 -23.233122
  endloop
endfacet
facet normal -0.082112 -0.380259 -0.000000
  outer loop
    vertex -19.365631 -2.331988 -26.824123
    vertex -19.365631 -2.331989 -23.233122
    vertex -19.471523 -2.309123 -23.233122
  endloop
endfacet
facet normal -0.081655 -0.380362 -0.000000
  outer loop
    vertex -19.365631 -2.331988 -26.824123
    vertex -19.259710 -2.354727 -26.824123
    vertex -19.365631 -2.331989 -23.233122
  endloop
endfacet
facet normal -0.082111 -0.380259 0.000000
  outer loop
    vertex -19.471523 -2.309123 -26.824123
    vertex -19.365631 -2.331988 -26.824123
    vertex -19.471523 -2.309123 -23.233122
  endloop
endfacet
facet normal -0.175482 0.038000 0.000000
  outer loop
    vertex -19.471523 -2.309123 -26.824123
    vertex -19.471523 -2.309123 -23.233122
    vertex -19.460941 -2.260255 -26.824123
  endloop
endfacet
facet normal -0.175482 0.038000 0.000000
  outer loop
    vertex -19.471523 -2.309123 -23.233122
    vertex -19.460941 -2.260255 -23.233122
    vertex -19.460941 -2.260255 -26.824123
  endloop
endfacet
facet normal 0.081151 0.380245 0.000000
  outer loop
    vertex -19.143356 -2.328433 -23.233122
    vertex -19.143356 -2.328433 -26.824123
    vertex -19.249245 -2.305835 -23.233122
  endloop
endfacet
facet normal 0.081151 0.380245 0.000000
  outer loop
    vertex -19.143356 -2.328433 -26.824123
    vertex -19.249245 -2.305835 -26.824123
    vertex -19.249245 -2.305835 -23.233122
  endloop
endfacet
facet normal 0.081609 0.380149 0.000000
  outer loop
    vertex -19.249245 -2.305835 -23.233122
    vertex -19.355106 -2.283108 -26.824123
    vertex -19.355106 -2.283108 -23.233122
  endloop
endfacet
facet normal 0.082066 0.380053 0.000000
  outer loop
    vertex -19.355106 -2.283108 -23.233122
    vertex -19.355106 -2.283108 -26.824123
    vertex -19.460941 -2.260255 -23.233122
  endloop
endfacet
facet normal 0.081609 0.380149 -0.000000
  outer loop
    vertex -19.249245 -2.305835 -26.824123
    vertex -19.355106 -2.283108 -26.824123
    vertex -19.249245 -2.305835 -23.233122
  endloop
endfacet
facet normal 0.082066 0.380053 0.000000
  outer loop
    vertex -19.355106 -2.283108 -26.824123
    vertex -19.460941 -2.260255 -26.824123
    vertex -19.460941 -2.260255 -23.233122
  endloop
endfacet
facet normal 0.175618 -0.037370 0.000000
  outer loop
    vertex -19.143356 -2.328433 -26.824123
    vertex -19.153763 -2.377338 -23.233122
    vertex -19.153763 -2.377338 -26.824123
  endloop
endfacet
facet normal 0.175618 -0.037370 0.000000
  outer loop
    vertex -19.143356 -2.328433 -23.233122
    vertex -19.153763 -2.377338 -23.233122
    vertex -19.143356 -2.328433 -26.824123
  endloop
endfacet
facet normal 0.000000 0.000000 0.005414
  outer loop
    vertex -19.355106 -2.283108 -23.233122
    vertex -19.460941 -2.260255 -23.233122
    vertex -19.471523 -2.309123 -23.233122
  endloop
endfacet
facet normal 0.000000 -0.000000 0.005417
  outer loop
    vertex -19.365631 -2.331989 -23.233122
    vertex -19.355106 -2.283108 -23.233122
    vertex -19.471523 -2.309123 -23.233122
  endloop
endfacet
facet normal 0.000000 -0.000000 0.005414
  outer loop
    vertex -19.259710 -2.354727 -23.233122
    vertex -19.249245 -2.305835 -23.233122
    vertex -19.355106 -2.283108 -23.233122
  endloop
endfacet
facet normal 0.000000 0.000000 0.005417
  outer loop
    vertex -19.259710 -2.354727 -23.233122
    vertex -19.355106 -2.283108 -23.233122
    vertex -19.365631 -2.331989 -23.233122
  endloop
endfacet
facet normal 0.000000 -0.000000 0.005414
  outer loop
    vertex -19.153763 -2.377338 -23.233122
    vertex -19.143356 -2.328433 -23.233122
    vertex -19.249245 -2.305835 -23.233122
  endloop
endfacet
facet normal 0.000000 0.000000 0.005417
  outer loop
    vertex -19.153763 -2.377338 -23.233122
    vertex -19.249245 -2.305835 -23.233122
    vertex -19.259710 -2.354727 -23.233122
  endloop
endfacet
facet normal -0.000000 0.000000 -0.005414
  outer loop
    vertex -19.355106 -2.283108 -26.824123
    vertex -19.365631 -2.331988 -26.824123
    vertex -19.460941 -2.260255 -26.824123
  endloop
endfacet
facet normal 0.000000 -0.000000 -0.005417
  outer loop
    vertex -19.460941 -2.260255 -26.824123
    vertex -19.365631 -2.331988 -26.824123
    vertex -19.471523 -2.309123 -26.824123
  endloop
endfacet
facet normal -0.000000 0.000000 -0.005414
  outer loop
    vertex -19.249245 -2.305835 -26.824123
    vertex -19.259710 -2.354727 -26.824123
    vertex -19.355106 -2.283108 -26.824123
  endloop
endfacet
facet normal 0.000000 -0.000000 -0.005417
  outer loop
    vertex -19.355106 -2.283108 -26.824123
    vertex -19.259710 -2.354727 -26.824123
    vertex -19.365631 -2.331988 -26.824123
  endloop
endfacet
facet normal -0.000000 0.000000 -0.005414
  outer loop
    vertex -19.143356 -2.328433 -26.824123
    vertex -19.153763 -2.377338 -26.824123
    vertex -19.249245 -2.305835 -26.824123
  endloop
endfacet
facet normal 0.000000 -0.000000 -0.005417
  outer loop
    vertex -19.249245 -2.305835 -26.824123
    vertex -19.153763 -2.377338 -26.824123
    vertex -19.259710 -2.354727 -26.824123
  endloop
endfacet
endsolid b'MESH-MESH-MESH-MESH-MESH-MESH-MESH-MESH-MESH-MESH-MESH-MESH-MESH-MESH-MESH-MESH'
