solid b'MESH-MESH-MESH-MESH-MESH-MESH-MESH-MESH-MESH-MESH-MESH-MESH-MESH-MESH-MESH-MESH'
facet normal 0.081197 0.380458 -0.000000
  outer loop
    vertex 19.259720 2.354725 -385.384583
    vertex 19.153772 2.377337 -385.384583
    vertex 19.153774 2.377337 -381.793579
  endloop
endfacet
facet normal 0.081197 0.380451 -0.000000
  outer loop
    vertex 19.259720 2.354725 -385.384583
    vertex 19.153774 2.377337 -381.793579
    vertex 19.259720 2.354725 -381.793579
  endloop
endfacet
facet normal 0.081654 0.380362 -0.000000
  outer loop
    vertex 19.259720 2.354725 -385.384583
    vertex 19.259720 2.354725 -381.793579
    vertex 19.365641 2.331987 -381.793579
  endloop
endfacet
facet normal 0.082112 0.380259 -0.000000
  outer loop
    vertex 19.365641 2.331987 -385.384583
    vertex 19.365641 2.331987 -381.793579
    vertex 19.471533 2.309121 -381.793579
  endloop
endfacet
facet normal 0.081655 0.380362 -0.000000
  outer loop
    vertex 19.365641 2.331987 -385.384583
    vertex 19.259720 2.354725 -385.384583
    vertex 19.365641 2.331987 -381.793579
  endloop
endfacet
facet normal 0.082111 0.380259 -0.000000
  outer loop
    vertex 19.471533 2.309121 -385.384583
    vertex 19.365641 2.331987 -385.384583
    vertex 19.471533 2.309121 -381.793579
  endloop
endfacet
facet normal 0.175482 -0.038000 0.000000
  outer loop
    vertex 19.471533 2.309121 -385.384583
    vertex 19.471533 2.309121 -381.793579
    vertex 19.460951 2.260254 -385.384583
  endloop
endfacet
facet normal 0.175482 -0.038000 0.000000
  outer loop
    vertex 19.471533 2.309121 -381.793579
    vertex 19.460951 2.260254 -381.793579
    vertex 19.460951 2.260254 -385.384583
  endloop
endfacet
facet normal -0.081152 -0.380252 0.000000
  outer loop
    vertex 19.143366 2.328432 -381.793579
    vertex 19.143366 2.328431 -385.384583
    vertex 19.249256 2.305833 -381.793579
  endloop
endfacet
facet normal -0.081151 -0.380252 0.000000
  outer loop
    vertex 19.143366 2.328431 -385.384583
    vertex 19.249256 2.305833 -385.384583
    vertex 19.249256 2.305833 -381.793579
  endloop
endfacet
facet normal -0.081608 -0.380143 0.000000
  outer loop
    vertex 19.249256 2.305833 -381.793579
    vertex 19.355116 2.283107 -385.384583
    vertex 19.355116 2.283107 -381.793579
  endloop
endfacet
facet normal -0.082066 -0.380054 0.000000
  outer loop
    vertex 19.355116 2.283107 -381.793579
    vertex 19.355116 2.283107 -385.384583
    vertex 19.460951 2.260254 -381.793579
  endloop
endfacet
facet normal -0.081609 -0.380143 0.000000
  outer loop
    vertex 19.249256 2.305833 -385.384583
    vertex 19.355116 2.283107 -385.384583
    vertex 19.249256 2.305833 -381.793579
  endloop
endfacet
facet normal -0.082066 -0.380054 0.000000
  outer loop
    vertex 19.355116 2.283107 -385.384583
    vertex 19.460951 2.260254 -385.384583
    vertex 19.460951 2.260254 -381.793579
  endloop
endfacet
facet normal -0.175618 0.037370 0.000000
  outer loop
    vertex 19.143366 2.328431 -385.384583
    vertex 19.153774 2.377337 -381.793579
    vertex 19.153772 2.377337 -385.384583
  endloop
endfacet
facet normal -0.175618 0.037377 -0.000000
  outer loop
    vertex 19.143366 2.328432 -381.793579
    vertex 19.153774 2.377337 -381.793579
    vertex 19.143366 2.328431 -385.384583
  endloop
endfacet
facet normal -0.000000 0.000000 0.005414
  outer loop
    vertex 19.355116 2.283107 -381.793579
    vertex 19.460951 2.260254 -381.793579
    vertex 19.471533 2.309121 -381.793579
  endloop
endfacet
facet normal 0.000000 0.000000 0.005417
  outer loop
    vertex 19.365641 2.331987 -381.793579
    vertex 19.355116 2.283107 -381.793579
    vertex 19.471533 2.309121 -381.793579
  endloop
endfacet
facet normal 0.000000 0.000000 0.005414
  outer loop
    vertex 19.259720 2.354725 -381.793579
    vertex 19.249256 2.305833 -381.793579
    vertex 19.355116 2.283107 -381.793579
  endloop
endfacet
facet normal 0.000000 0.000000 0.005417
  outer loop
    vertex 19.259720 2.354725 -381.793579
    vertex 19.355116 2.283107 -381.793579
    vertex 19.365641 2.331987 -381.793579
  endloop
endfacet
facet normal 0.000000 0.000000 0.005414
  outer loop
    vertex 19.153774 2.377337 -381.793579
    vertex 19.143366 2.328432 -381.793579
    vertex 19.249256 2.305833 -381.793579
  endloop
endfacet
facet normal 0.000000 0.000000 0.005417
  outer loop
    vertex 19.153774 2.377337 -381.793579
    vertex 19.249256 2.305833 -381.793579
    vertex 19.259720 2.354725 -381.793579
  endloop
endfacet
facet normal 0.000000 0.000000 -0.005414
  outer loop
    vertex 19.355116 2.283107 -385.384583
    vertex 19.365641 2.331987 -385.384583
    vertex 19.460951 2.260254 -385.384583
  endloop
endfacet
facet normal 0.000000 0.000000 -0.005417
  outer loop
    vertex 19.460951 2.260254 -385.384583
    vertex 19.365641 2.331987 -385.384583
    vertex 19.471533 2.309121 -385.384583
  endloop
endfacet
facet normal 0.000000 0.000000 -0.005414
  outer loop
    vertex 19.249256 2.305833 -385.384583
    vertex 19.259720 2.354725 -385.384583
    vertex 19.355116 2.283107 -385.384583
  endloop
endfacet
facet normal 0.000000 0.000000 -0.005417
  outer loop
    vertex 19.355116 2.283107 -385.384583
    vertex 19.259720 2.354725 -385.384583
    vertex 19.365641 2.331987 -385.384583
  endloop
endfacet
facet normal 0.000000 0.000000 -0.005414
  outer loop
    vertex 19.143366 2.328431 -385.384583
    vertex 19.153772 2.377337 -385.384583
    vertex 19.249256 2.305833 -385.384583
  endloop
endfacet
facet normal 0.000000 0.000000 -0.005417
  outer loop
    vertex 19.249256 2.305833 -385.384583
    vertex 19.153772 2.377337 -385.384583
    vertex 19.259720 2.354725 -385.384583
  endloop
endfacet
endsolid b'MESH-MESH-MESH-MESH-MESH-MESH-MESH-MESH-MESH-MESH-MESH-MESH-MESH-MESH-MESH-MESH'
