solid b'MESH-MESH-MESH-MESH-MESH-MESH-MESH-MESH-MESH-MESH-MESH-MESH-MESH-MESH-MESH-MESH'
facet normal -0.081197 0.380457 0.000000
  outer loop
    vertex -19.259716 2.354726 43.933304
    vertex -19.153769 2.377337 43.933304
    vertex -19.153769 2.377337 40.342304
  endloop
endfacet
facet normal -0.081197 0.380457 0.000000
  outer loop
    vertex -19.259716 2.354726 43.933304
    vertex -19.153769 2.377337 40.342304
    vertex -19.259716 2.354726 40.342304
  endloop
endfacet
facet normal -0.081654 0.380355 0.000000
  outer loop
    vertex -19.365635 2.331988 43.933304
    vertex -19.259716 2.354726 40.342304
    vertex -19.365635 2.331988 40.342304
  endloop
endfacet
facet normal -0.082112 0.380266 0.000000
  outer loop
    vertex -19.365635 2.331988 43.933304
    vertex -19.365635 2.331988 40.342304
    vertex -19.471529 2.309122 40.342304
  endloop
endfacet
facet normal -0.081654 0.380355 0.000000
  outer loop
    vertex -19.365635 2.331988 43.933304
    vertex -19.259716 2.354726 43.933304
    vertex -19.259716 2.354726 40.342304
  endloop
endfacet
facet normal -0.082111 0.380266 0.000000
  outer loop
    vertex -19.471529 2.309122 43.933304
    vertex -19.365635 2.331988 43.933304
    vertex -19.471529 2.309122 40.342304
  endloop
endfacet
facet normal -0.175482 -0.038007 -0.000000
  outer loop
    vertex -19.471529 2.309122 43.933304
    vertex -19.471529 2.309122 40.342304
    vertex -19.460945 2.260255 43.933304
  endloop
endfacet
facet normal -0.175482 -0.038007 0.000000
  outer loop
    vertex -19.471529 2.309122 40.342304
    vertex -19.460945 2.260255 40.342304
    vertex -19.460945 2.260255 43.933304
  endloop
endfacet
facet normal 0.081151 -0.380245 -0.000000
  outer loop
    vertex -19.143362 2.328432 40.342304
    vertex -19.249250 2.305834 43.933304
    vertex -19.249250 2.305834 40.342304
  endloop
endfacet
facet normal 0.081608 -0.380149 -0.000000
  outer loop
    vertex -19.249250 2.305834 40.342304
    vertex -19.249250 2.305834 43.933304
    vertex -19.355112 2.283108 40.342304
  endloop
endfacet
facet normal 0.081152 -0.380245 0.000000
  outer loop
    vertex -19.143362 2.328432 43.933304
    vertex -19.249250 2.305834 43.933304
    vertex -19.143362 2.328432 40.342304
  endloop
endfacet
facet normal 0.082066 -0.380046 -0.000000
  outer loop
    vertex -19.355112 2.283108 40.342304
    vertex -19.355112 2.283108 43.933304
    vertex -19.460945 2.260255 40.342304
  endloop
endfacet
facet normal 0.081608 -0.380149 -0.000000
  outer loop
    vertex -19.249250 2.305834 43.933304
    vertex -19.355112 2.283108 43.933304
    vertex -19.355112 2.283108 40.342304
  endloop
endfacet
facet normal 0.082066 -0.380046 0.000000
  outer loop
    vertex -19.355112 2.283108 43.933304
    vertex -19.460945 2.260255 43.933304
    vertex -19.460945 2.260255 40.342304
  endloop
endfacet
facet normal 0.175618 0.037370 0.000000
  outer loop
    vertex -19.143362 2.328432 43.933304
    vertex -19.143362 2.328432 40.342304
    vertex -19.153769 2.377337 43.933304
  endloop
endfacet
facet normal 0.175618 0.037370 0.000000
  outer loop
    vertex -19.143362 2.328432 40.342304
    vertex -19.153769 2.377337 40.342304
    vertex -19.153769 2.377337 43.933304
  endloop
endfacet
facet normal 0.000000 -0.000000 -0.005414
  outer loop
    vertex -19.365635 2.331988 40.342304
    vertex -19.355112 2.283108 40.342304
    vertex -19.460945 2.260255 40.342304
  endloop
endfacet
facet normal 0.000000 0.000000 -0.005417
  outer loop
    vertex -19.365635 2.331988 40.342304
    vertex -19.460945 2.260255 40.342304
    vertex -19.471529 2.309122 40.342304
  endloop
endfacet
facet normal 0.000000 -0.000000 -0.005414
  outer loop
    vertex -19.259716 2.354726 40.342304
    vertex -19.249250 2.305834 40.342304
    vertex -19.355112 2.283108 40.342304
  endloop
endfacet
facet normal 0.000000 0.000000 -0.005417
  outer loop
    vertex -19.259716 2.354726 40.342304
    vertex -19.355112 2.283108 40.342304
    vertex -19.365635 2.331988 40.342304
  endloop
endfacet
facet normal 0.000000 -0.000000 -0.005414
  outer loop
    vertex -19.153769 2.377337 40.342304
    vertex -19.143362 2.328432 40.342304
    vertex -19.249250 2.305834 40.342304
  endloop
endfacet
facet normal 0.000000 0.000000 -0.005417
  outer loop
    vertex -19.153769 2.377337 40.342304
    vertex -19.249250 2.305834 40.342304
    vertex -19.259716 2.354726 40.342304
  endloop
endfacet
facet normal 0.000000 -0.000000 0.005414
  outer loop
    vertex -19.460945 2.260255 43.933304
    vertex -19.355112 2.283108 43.933304
    vertex -19.471529 2.309122 43.933304
  endloop
endfacet
facet normal 0.000000 0.000000 0.005417
  outer loop
    vertex -19.355112 2.283108 43.933304
    vertex -19.365635 2.331988 43.933304
    vertex -19.471529 2.309122 43.933304
  endloop
endfacet
facet normal 0.000000 -0.000000 0.005414
  outer loop
    vertex -19.355112 2.283108 43.933304
    vertex -19.249250 2.305834 43.933304
    vertex -19.365635 2.331988 43.933304
  endloop
endfacet
facet normal 0.000000 0.000000 0.005417
  outer loop
    vertex -19.249250 2.305834 43.933304
    vertex -19.259716 2.354726 43.933304
    vertex -19.365635 2.331988 43.933304
  endloop
endfacet
facet normal 0.000000 0.000000 0.005414
  outer loop
    vertex -19.143362 2.328432 43.933304
    vertex -19.153769 2.377337 43.933304
    vertex -19.249250 2.305834 43.933304
  endloop
endfacet
facet normal 0.000000 -0.000000 0.005417
  outer loop
    vertex -19.249250 2.305834 43.933304
    vertex -19.153769 2.377337 43.933304
    vertex -19.259716 2.354726 43.933304
  endloop
endfacet
endsolid b'MESH-MESH-MESH-MESH-MESH-MESH-MESH-MESH-MESH-MESH-MESH-MESH-MESH-MESH-MESH-MESH'
