solid b'MESH-MESH-MESH-MESH-MESH-MESH-MESH-MESH-MESH-MESH-MESH-MESH-MESH-MESH-MESH-MESH'
facet normal -0.081196 0.380456 0.000000
  outer loop
    vertex -19.259716 2.354726 251.649994
    vertex -19.153769 2.377337 251.649994
    vertex -19.153769 2.377337 248.059006
  endloop
endfacet
facet normal -0.081196 0.380456 0.000000
  outer loop
    vertex -19.259716 2.354726 251.649994
    vertex -19.153769 2.377337 248.059006
    vertex -19.259716 2.354726 248.059006
  endloop
endfacet
facet normal -0.081654 0.380353 0.000000
  outer loop
    vertex -19.365635 2.331988 251.649994
    vertex -19.259716 2.354726 248.059006
    vertex -19.365635 2.331988 248.059006
  endloop
endfacet
facet normal -0.082111 0.380264 0.000000
  outer loop
    vertex -19.365635 2.331988 251.649994
    vertex -19.365635 2.331988 248.059006
    vertex -19.471529 2.309122 248.059006
  endloop
endfacet
facet normal -0.081654 0.380353 0.000000
  outer loop
    vertex -19.365635 2.331988 251.649994
    vertex -19.259716 2.354726 251.649994
    vertex -19.259716 2.354726 248.059006
  endloop
endfacet
facet normal -0.082112 0.380264 0.000000
  outer loop
    vertex -19.471529 2.309122 251.649994
    vertex -19.365635 2.331988 251.649994
    vertex -19.471529 2.309122 248.059006
  endloop
endfacet
facet normal -0.175482 -0.038007 -0.000000
  outer loop
    vertex -19.471529 2.309122 251.649994
    vertex -19.471529 2.309122 248.059006
    vertex -19.460945 2.260255 251.649994
  endloop
endfacet
facet normal -0.175482 -0.038007 -0.000000
  outer loop
    vertex -19.471529 2.309122 248.059006
    vertex -19.460945 2.260255 248.059006
    vertex -19.460945 2.260255 251.649994
  endloop
endfacet
facet normal 0.081152 -0.380244 -0.000000
  outer loop
    vertex -19.143362 2.328433 248.059006
    vertex -19.143362 2.328432 251.649994
    vertex -19.249250 2.305834 248.059006
  endloop
endfacet
facet normal 0.081151 -0.380244 0.000000
  outer loop
    vertex -19.143362 2.328432 251.649994
    vertex -19.249250 2.305834 251.649994
    vertex -19.249250 2.305834 248.059006
  endloop
endfacet
facet normal 0.081608 -0.380148 -0.000000
  outer loop
    vertex -19.249250 2.305834 248.059006
    vertex -19.355112 2.283108 251.649994
    vertex -19.355112 2.283108 248.059006
  endloop
endfacet
facet normal 0.082065 -0.380045 -0.000000
  outer loop
    vertex -19.355112 2.283108 248.059006
    vertex -19.355112 2.283108 251.649994
    vertex -19.460945 2.260255 248.059006
  endloop
endfacet
facet normal 0.081609 -0.380148 0.000000
  outer loop
    vertex -19.249250 2.305834 251.649994
    vertex -19.355112 2.283108 251.649994
    vertex -19.249250 2.305834 248.059006
  endloop
endfacet
facet normal 0.082065 -0.380045 -0.000000
  outer loop
    vertex -19.355112 2.283108 251.649994
    vertex -19.460945 2.260255 251.649994
    vertex -19.460945 2.260255 248.059006
  endloop
endfacet
facet normal 0.175618 0.037370 0.000000
  outer loop
    vertex -19.143362 2.328432 251.649994
    vertex -19.153769 2.377337 248.059006
    vertex -19.153769 2.377337 251.649994
  endloop
endfacet
facet normal 0.175617 0.037370 0.000000
  outer loop
    vertex -19.143362 2.328433 248.059006
    vertex -19.153769 2.377337 248.059006
    vertex -19.143362 2.328432 251.649994
  endloop
endfacet
facet normal -0.000000 0.000000 -0.005414
  outer loop
    vertex -19.355112 2.283108 248.059006
    vertex -19.460945 2.260255 248.059006
    vertex -19.471529 2.309122 248.059006
  endloop
endfacet
facet normal 0.000000 -0.000000 -0.005417
  outer loop
    vertex -19.365635 2.331988 248.059006
    vertex -19.355112 2.283108 248.059006
    vertex -19.471529 2.309122 248.059006
  endloop
endfacet
facet normal -0.000000 0.000000 -0.005414
  outer loop
    vertex -19.249250 2.305834 248.059006
    vertex -19.355112 2.283108 248.059006
    vertex -19.365635 2.331988 248.059006
  endloop
endfacet
facet normal 0.000000 -0.000000 -0.005417
  outer loop
    vertex -19.259716 2.354726 248.059006
    vertex -19.249250 2.305834 248.059006
    vertex -19.365635 2.331988 248.059006
  endloop
endfacet
facet normal 0.000000 -0.000000 -0.005414
  outer loop
    vertex -19.153769 2.377337 248.059006
    vertex -19.143362 2.328433 248.059006
    vertex -19.249250 2.305834 248.059006
  endloop
endfacet
facet normal 0.000000 0.000000 -0.005417
  outer loop
    vertex -19.153769 2.377337 248.059006
    vertex -19.249250 2.305834 248.059006
    vertex -19.259716 2.354726 248.059006
  endloop
endfacet
facet normal 0.000000 -0.000000 0.005414
  outer loop
    vertex -19.460945 2.260255 251.649994
    vertex -19.355112 2.283108 251.649994
    vertex -19.471529 2.309122 251.649994
  endloop
endfacet
facet normal 0.000000 0.000000 0.005417
  outer loop
    vertex -19.355112 2.283108 251.649994
    vertex -19.365635 2.331988 251.649994
    vertex -19.471529 2.309122 251.649994
  endloop
endfacet
facet normal 0.000000 -0.000000 0.005414
  outer loop
    vertex -19.355112 2.283108 251.649994
    vertex -19.249250 2.305834 251.649994
    vertex -19.365635 2.331988 251.649994
  endloop
endfacet
facet normal 0.000000 0.000000 0.005417
  outer loop
    vertex -19.249250 2.305834 251.649994
    vertex -19.259716 2.354726 251.649994
    vertex -19.365635 2.331988 251.649994
  endloop
endfacet
facet normal 0.000000 -0.000000 0.005414
  outer loop
    vertex -19.249250 2.305834 251.649994
    vertex -19.143362 2.328432 251.649994
    vertex -19.259716 2.354726 251.649994
  endloop
endfacet
facet normal 0.000000 0.000000 0.005417
  outer loop
    vertex -19.143362 2.328432 251.649994
    vertex -19.153769 2.377337 251.649994
    vertex -19.259716 2.354726 251.649994
  endloop
endfacet
endsolid b'MESH-MESH-MESH-MESH-MESH-MESH-MESH-MESH-MESH-MESH-MESH-MESH-MESH-MESH-MESH-MESH'
