solid b'MESH-MESH-MESH-MESH-MESH-MESH-MESH-MESH-MESH-MESH-MESH-MESH-MESH-MESH-MESH-MESH'
facet normal 0.001255 -0.389020 0.000000
  outer loop
    vertex -0.161222 -4.350455 -280.980896
    vertex -0.052890 -4.350106 -280.980896
    vertex -0.052890 -4.350106 -277.389923
  endloop
endfacet
facet normal 0.001255 -0.389020 0.000000
  outer loop
    vertex -0.161222 -4.350455 -280.980896
    vertex -0.052890 -4.350106 -277.389923
    vertex -0.161222 -4.350455 -277.389923
  endloop
endfacet
facet normal 0.000789 -0.389021 0.000000
  outer loop
    vertex -0.269555 -4.350675 -280.980896
    vertex -0.161222 -4.350455 -277.389923
    vertex -0.269555 -4.350675 -277.389923
  endloop
endfacet
facet normal 0.000789 -0.389021 0.000000
  outer loop
    vertex -0.269555 -4.350675 -280.980896
    vertex -0.161222 -4.350455 -280.980896
    vertex -0.161222 -4.350455 -277.389923
  endloop
endfacet
facet normal 0.000320 -0.389022 0.000000
  outer loop
    vertex -0.377889 -4.350764 -280.980896
    vertex -0.269555 -4.350675 -277.389923
    vertex -0.377889 -4.350764 -277.389923
  endloop
endfacet
facet normal 0.000320 -0.389022 0.000000
  outer loop
    vertex -0.377889 -4.350764 -280.980896
    vertex -0.269555 -4.350675 -280.980896
    vertex -0.269555 -4.350675 -277.389923
  endloop
endfacet
facet normal -0.179548 -0.000040 0.000000
  outer loop
    vertex -0.377889 -4.350764 -280.980896
    vertex -0.377900 -4.300765 -277.389923
    vertex -0.377900 -4.300765 -280.980896
  endloop
endfacet
facet normal -0.179548 -0.000040 -0.000000
  outer loop
    vertex -0.377889 -4.350764 -277.389923
    vertex -0.377900 -4.300765 -277.389923
    vertex -0.377889 -4.350764 -280.980896
  endloop
endfacet
facet normal -0.001255 0.388804 -0.000000
  outer loop
    vertex -0.053081 -4.300106 -277.389923
    vertex -0.053081 -4.300106 -280.980896
    vertex -0.161354 -4.300456 -277.389923
  endloop
endfacet
facet normal -0.001255 0.388804 -0.000000
  outer loop
    vertex -0.053081 -4.300106 -280.980896
    vertex -0.161354 -4.300456 -280.980896
    vertex -0.161354 -4.300456 -277.389923
  endloop
endfacet
facet normal -0.000788 0.388805 0.000000
  outer loop
    vertex -0.161354 -4.300456 -277.389923
    vertex -0.269627 -4.300675 -280.980896
    vertex -0.269627 -4.300675 -277.389923
  endloop
endfacet
facet normal -0.000788 0.388805 -0.000000
  outer loop
    vertex -0.161354 -4.300456 -280.980896
    vertex -0.269627 -4.300675 -280.980896
    vertex -0.161354 -4.300456 -277.389923
  endloop
endfacet
facet normal -0.000322 0.388806 0.000000
  outer loop
    vertex -0.269627 -4.300675 -277.389923
    vertex -0.377900 -4.300765 -280.980896
    vertex -0.377900 -4.300765 -277.389923
  endloop
endfacet
facet normal -0.000322 0.388806 0.000000
  outer loop
    vertex -0.269627 -4.300675 -280.980896
    vertex -0.377900 -4.300765 -280.980896
    vertex -0.269627 -4.300675 -277.389923
  endloop
endfacet
facet normal 0.179548 0.000688 0.000000
  outer loop
    vertex -0.053081 -4.300106 -280.980896
    vertex -0.053081 -4.300106 -277.389923
    vertex -0.052890 -4.350106 -280.980896
  endloop
endfacet
facet normal 0.179548 0.000688 0.000000
  outer loop
    vertex -0.053081 -4.300106 -277.389923
    vertex -0.052890 -4.350106 -277.389923
    vertex -0.052890 -4.350106 -280.980896
  endloop
endfacet
facet normal 0.000000 0.000000 0.005414
  outer loop
    vertex -0.269627 -4.300675 -277.389923
    vertex -0.377900 -4.300765 -277.389923
    vertex -0.377889 -4.350764 -277.389923
  endloop
endfacet
facet normal 0.000000 0.000000 0.005417
  outer loop
    vertex -0.269555 -4.350675 -277.389923
    vertex -0.269627 -4.300675 -277.389923
    vertex -0.377889 -4.350764 -277.389923
  endloop
endfacet
facet normal 0.000000 0.000000 0.005414
  outer loop
    vertex -0.161354 -4.300456 -277.389923
    vertex -0.269627 -4.300675 -277.389923
    vertex -0.269555 -4.350675 -277.389923
  endloop
endfacet
facet normal 0.000000 0.000000 0.005417
  outer loop
    vertex -0.161222 -4.350455 -277.389923
    vertex -0.161354 -4.300456 -277.389923
    vertex -0.269555 -4.350675 -277.389923
  endloop
endfacet
facet normal 0.000000 0.000000 0.005414
  outer loop
    vertex -0.052890 -4.350106 -277.389923
    vertex -0.053081 -4.300106 -277.389923
    vertex -0.161354 -4.300456 -277.389923
  endloop
endfacet
facet normal 0.000000 0.000000 0.005417
  outer loop
    vertex -0.052890 -4.350106 -277.389923
    vertex -0.161354 -4.300456 -277.389923
    vertex -0.161222 -4.350455 -277.389923
  endloop
endfacet
facet normal 0.000000 0.000000 -0.005414
  outer loop
    vertex -0.377900 -4.300765 -280.980896
    vertex -0.269627 -4.300675 -280.980896
    vertex -0.377889 -4.350764 -280.980896
  endloop
endfacet
facet normal 0.000000 -0.000000 -0.005417
  outer loop
    vertex -0.269627 -4.300675 -280.980896
    vertex -0.269555 -4.350675 -280.980896
    vertex -0.377889 -4.350764 -280.980896
  endloop
endfacet
facet normal 0.000000 -0.000000 -0.005414
  outer loop
    vertex -0.161354 -4.300456 -280.980896
    vertex -0.161222 -4.350455 -280.980896
    vertex -0.269627 -4.300675 -280.980896
  endloop
endfacet
facet normal 0.000000 0.000000 -0.005417
  outer loop
    vertex -0.269627 -4.300675 -280.980896
    vertex -0.161222 -4.350455 -280.980896
    vertex -0.269555 -4.350675 -280.980896
  endloop
endfacet
facet normal 0.000000 -0.000000 -0.005414
  outer loop
    vertex -0.053081 -4.300106 -280.980896
    vertex -0.052890 -4.350106 -280.980896
    vertex -0.161354 -4.300456 -280.980896
  endloop
endfacet
facet normal 0.000000 0.000000 -0.005417
  outer loop
    vertex -0.161354 -4.300456 -280.980896
    vertex -0.052890 -4.350106 -280.980896
    vertex -0.161222 -4.350455 -280.980896
  endloop
endfacet
endsolid b'MESH-MESH-MESH-MESH-MESH-MESH-MESH-MESH-MESH-MESH-MESH-MESH-MESH-MESH-MESH-MESH'
