solid b'MESH-MESH-MESH-MESH-MESH-MESH-MESH-MESH-MESH-MESH-MESH-MESH-MESH-MESH-MESH-MESH'
facet normal -0.007508 -0.061313 0.000000
  outer loop
    vertex -12.880309 -3.482092 432.287567
    vertex -9.817667 -3.857104 432.287567
    vertex -9.817667 -3.857104 432.307587
  endloop
endfacet
facet normal -0.007508 -0.061313 0.000000
  outer loop
    vertex -12.880309 -3.482092 432.287567
    vertex -9.817667 -3.857104 432.307587
    vertex -12.880309 -3.482092 432.307587
  endloop
endfacet
facet normal -0.009602 -0.061020 0.000000
  outer loop
    vertex -15.928317 -3.002450 432.287567
    vertex -12.880309 -3.482092 432.307587
    vertex -15.928317 -3.002450 432.307587
  endloop
endfacet
facet normal -0.011686 -0.060655 0.000000
  outer loop
    vertex -15.928317 -3.002450 432.287567
    vertex -15.928317 -3.002450 432.307587
    vertex -18.958118 -2.418743 432.307587
  endloop
endfacet
facet normal -0.009602 -0.061020 0.000000
  outer loop
    vertex -15.928317 -3.002450 432.287567
    vertex -12.880309 -3.482092 432.287567
    vertex -12.880309 -3.482092 432.307587
  endloop
endfacet
facet normal -0.011686 -0.060655 0.000000
  outer loop
    vertex -18.958118 -2.418743 432.287567
    vertex -15.928317 -3.002450 432.287567
    vertex -18.958118 -2.418743 432.307587
  endloop
endfacet
facet normal -0.000980 0.000206 0.000000
  outer loop
    vertex -18.947819 -2.369815 432.307587
    vertex -18.958118 -2.418743 432.287567
    vertex -18.958118 -2.418743 432.307587
  endloop
endfacet
facet normal -0.000980 0.000206 0.000000
  outer loop
    vertex -18.947819 -2.369815 432.287567
    vertex -18.958118 -2.418743 432.287567
    vertex -18.947819 -2.369815 432.307587
  endloop
endfacet
facet normal 0.007503 0.061279 0.000000
  outer loop
    vertex -9.812441 -3.807378 432.307587
    vertex -12.873383 -3.432574 432.287567
    vertex -12.873383 -3.432574 432.307587
  endloop
endfacet
facet normal 0.007503 0.061279 -0.000000
  outer loop
    vertex -9.812441 -3.807378 432.287567
    vertex -12.873383 -3.432574 432.287567
    vertex -9.812441 -3.807378 432.307587
  endloop
endfacet
facet normal 0.009597 0.060986 0.000000
  outer loop
    vertex -12.873383 -3.432574 432.307587
    vertex -15.919700 -2.953199 432.287567
    vertex -15.919700 -2.953199 432.307587
  endloop
endfacet
facet normal 0.011679 0.060622 0.000000
  outer loop
    vertex -15.919700 -2.953199 432.307587
    vertex -15.919700 -2.953199 432.287567
    vertex -18.947819 -2.369815 432.307587
  endloop
endfacet
facet normal 0.009597 0.060986 -0.000000
  outer loop
    vertex -12.873383 -3.432574 432.287567
    vertex -15.919700 -2.953199 432.287567
    vertex -12.873383 -3.432574 432.307587
  endloop
endfacet
facet normal 0.011679 0.060622 0.000000
  outer loop
    vertex -15.919700 -2.953199 432.287567
    vertex -18.947819 -2.369815 432.287567
    vertex -18.947819 -2.369815 432.307587
  endloop
endfacet
facet normal 0.000995 -0.000105 0.000000
  outer loop
    vertex -9.817667 -3.857104 432.287567
    vertex -9.812441 -3.807378 432.287567
    vertex -9.812441 -3.807378 432.307587
  endloop
endfacet
facet normal 0.000995 -0.000105 0.000000
  outer loop
    vertex -9.817667 -3.857104 432.287567
    vertex -9.812441 -3.807378 432.307587
    vertex -9.817667 -3.857104 432.307587
  endloop
endfacet
facet normal 0.000000 -0.000000 -0.154169
  outer loop
    vertex -18.947819 -2.369815 432.287567
    vertex -15.919700 -2.953199 432.287567
    vertex -18.958118 -2.418743 432.287567
  endloop
endfacet
facet normal -0.000000 0.000000 -0.154253
  outer loop
    vertex -15.919700 -2.953199 432.287567
    vertex -15.928317 -3.002450 432.287567
    vertex -18.958118 -2.418743 432.287567
  endloop
endfacet
facet normal 0.000000 -0.000000 -0.154168
  outer loop
    vertex -15.919700 -2.953199 432.287567
    vertex -12.873383 -3.432574 432.287567
    vertex -15.928317 -3.002450 432.287567
  endloop
endfacet
facet normal -0.000000 0.000000 -0.154253
  outer loop
    vertex -12.873383 -3.432574 432.287567
    vertex -12.880309 -3.482092 432.287567
    vertex -15.928317 -3.002450 432.287567
  endloop
endfacet
facet normal 0.000000 -0.000000 -0.154167
  outer loop
    vertex -12.873383 -3.432574 432.287567
    vertex -9.812441 -3.807378 432.287567
    vertex -12.880309 -3.482092 432.287567
  endloop
endfacet
facet normal -0.000000 0.000000 -0.154253
  outer loop
    vertex -9.812441 -3.807378 432.287567
    vertex -9.817667 -3.857104 432.287567
    vertex -12.880309 -3.482092 432.287567
  endloop
endfacet
facet normal 0.000000 0.000000 0.154169
  outer loop
    vertex -15.919700 -2.953199 432.307587
    vertex -18.947819 -2.369815 432.307587
    vertex -18.958118 -2.418743 432.307587
  endloop
endfacet
facet normal 0.000000 -0.000000 0.154253
  outer loop
    vertex -15.928317 -3.002450 432.307587
    vertex -15.919700 -2.953199 432.307587
    vertex -18.958118 -2.418743 432.307587
  endloop
endfacet
facet normal 0.000000 0.000000 0.154168
  outer loop
    vertex -12.873383 -3.432574 432.307587
    vertex -15.919700 -2.953199 432.307587
    vertex -15.928317 -3.002450 432.307587
  endloop
endfacet
facet normal 0.000000 -0.000000 0.154253
  outer loop
    vertex -12.880309 -3.482092 432.307587
    vertex -12.873383 -3.432574 432.307587
    vertex -15.928317 -3.002450 432.307587
  endloop
endfacet
facet normal 0.000000 -0.000000 0.154167
  outer loop
    vertex -9.817667 -3.857104 432.307587
    vertex -9.812441 -3.807378 432.307587
    vertex -12.873383 -3.432574 432.307587
  endloop
endfacet
facet normal 0.000000 0.000000 0.154253
  outer loop
    vertex -9.817667 -3.857104 432.307587
    vertex -12.873383 -3.432574 432.307587
    vertex -12.880309 -3.482092 432.307587
  endloop
endfacet
endsolid b'MESH-MESH-MESH-MESH-MESH-MESH-MESH-MESH-MESH-MESH-MESH-MESH-MESH-MESH-MESH-MESH'
