solid b'MESH-MESH-MESH-MESH-MESH-MESH-MESH-MESH-MESH-MESH-MESH-MESH-MESH-MESH-MESH-MESH'
facet normal 0.007502 -0.061266 0.000000
  outer loop
    vertex 9.817667 -3.857104 221.482788
    vertex 9.817667 -3.857104 221.462784
    vertex 12.880309 -3.482092 221.462784
  endloop
endfacet
facet normal 0.009595 -0.060973 0.000000
  outer loop
    vertex 12.880309 -3.482092 221.482788
    vertex 12.880309 -3.482092 221.462784
    vertex 15.928317 -3.002450 221.462784
  endloop
endfacet
facet normal 0.007502 -0.061266 0.000000
  outer loop
    vertex 12.880309 -3.482092 221.482788
    vertex 9.817667 -3.857104 221.482788
    vertex 12.880309 -3.482092 221.462784
  endloop
endfacet
facet normal 0.009595 -0.060973 0.000000
  outer loop
    vertex 15.928317 -3.002450 221.482788
    vertex 12.880309 -3.482092 221.482788
    vertex 15.928317 -3.002450 221.462784
  endloop
endfacet
facet normal 0.011677 -0.060609 0.000000
  outer loop
    vertex 18.958118 -2.418743 221.482788
    vertex 15.928317 -3.002450 221.462784
    vertex 18.958118 -2.418743 221.462784
  endloop
endfacet
facet normal 0.011677 -0.060609 0.000000
  outer loop
    vertex 18.958118 -2.418743 221.482788
    vertex 15.928317 -3.002450 221.482788
    vertex 15.928317 -3.002450 221.462784
  endloop
endfacet
facet normal 0.000979 0.000206 -0.000000
  outer loop
    vertex 18.958118 -2.418743 221.462784
    vertex 18.947819 -2.369815 221.482788
    vertex 18.958118 -2.418743 221.482788
  endloop
endfacet
facet normal 0.000979 0.000206 0.000000
  outer loop
    vertex 18.958118 -2.418743 221.462784
    vertex 18.947819 -2.369815 221.462784
    vertex 18.947819 -2.369815 221.482788
  endloop
endfacet
facet normal -0.007498 0.061232 0.000000
  outer loop
    vertex 9.812441 -3.807378 221.462784
    vertex 9.812441 -3.807378 221.482788
    vertex 12.873383 -3.432574 221.462784
  endloop
endfacet
facet normal -0.009590 0.060939 0.000000
  outer loop
    vertex 12.873383 -3.432574 221.462784
    vertex 12.873383 -3.432574 221.482788
    vertex 15.919700 -2.953199 221.462784
  endloop
endfacet
facet normal -0.007498 0.061232 0.000000
  outer loop
    vertex 9.812441 -3.807378 221.482788
    vertex 12.873383 -3.432574 221.482788
    vertex 12.873383 -3.432574 221.462784
  endloop
endfacet
facet normal -0.009590 0.060939 0.000000
  outer loop
    vertex 12.873383 -3.432574 221.482788
    vertex 15.919700 -2.953199 221.482788
    vertex 15.919700 -2.953199 221.462784
  endloop
endfacet
facet normal -0.011670 0.060575 0.000000
  outer loop
    vertex 15.919700 -2.953199 221.462784
    vertex 18.947819 -2.369815 221.482788
    vertex 18.947819 -2.369815 221.462784
  endloop
endfacet
facet normal -0.011670 0.060575 0.000000
  outer loop
    vertex 15.919700 -2.953199 221.482788
    vertex 18.947819 -2.369815 221.482788
    vertex 15.919700 -2.953199 221.462784
  endloop
endfacet
facet normal -0.000995 -0.000105 0.000000
  outer loop
    vertex 9.812441 -3.807378 221.482788
    vertex 9.817667 -3.857104 221.462784
    vertex 9.817667 -3.857104 221.482788
  endloop
endfacet
facet normal -0.000995 -0.000105 0.000000
  outer loop
    vertex 9.812441 -3.807378 221.462784
    vertex 9.817667 -3.857104 221.462784
    vertex 9.812441 -3.807378 221.482788
  endloop
endfacet
facet normal 0.000000 0.000000 -0.154169
  outer loop
    vertex 15.919700 -2.953199 221.462784
    vertex 18.947819 -2.369815 221.462784
    vertex 18.958118 -2.418743 221.462784
  endloop
endfacet
facet normal 0.000000 0.000000 -0.154253
  outer loop
    vertex 15.928317 -3.002450 221.462784
    vertex 15.919700 -2.953199 221.462784
    vertex 18.958118 -2.418743 221.462784
  endloop
endfacet
facet normal 0.000000 0.000000 -0.154168
  outer loop
    vertex 12.873383 -3.432574 221.462784
    vertex 15.919700 -2.953199 221.462784
    vertex 15.928317 -3.002450 221.462784
  endloop
endfacet
facet normal 0.000000 0.000000 -0.154253
  outer loop
    vertex 12.880309 -3.482092 221.462784
    vertex 12.873383 -3.432574 221.462784
    vertex 15.928317 -3.002450 221.462784
  endloop
endfacet
facet normal 0.000000 0.000000 -0.154167
  outer loop
    vertex 9.812441 -3.807378 221.462784
    vertex 12.873383 -3.432574 221.462784
    vertex 12.880309 -3.482092 221.462784
  endloop
endfacet
facet normal 0.000000 0.000000 -0.154253
  outer loop
    vertex 9.817667 -3.857104 221.462784
    vertex 9.812441 -3.807378 221.462784
    vertex 12.880309 -3.482092 221.462784
  endloop
endfacet
facet normal 0.000000 0.000000 0.154169
  outer loop
    vertex 18.947819 -2.369815 221.482788
    vertex 15.919700 -2.953199 221.482788
    vertex 18.958118 -2.418743 221.482788
  endloop
endfacet
facet normal -0.000000 0.000000 0.154253
  outer loop
    vertex 15.919700 -2.953199 221.482788
    vertex 15.928317 -3.002450 221.482788
    vertex 18.958118 -2.418743 221.482788
  endloop
endfacet
facet normal 0.000000 0.000000 0.154168
  outer loop
    vertex 15.919700 -2.953199 221.482788
    vertex 12.873383 -3.432574 221.482788
    vertex 15.928317 -3.002450 221.482788
  endloop
endfacet
facet normal -0.000000 0.000000 0.154253
  outer loop
    vertex 12.873383 -3.432574 221.482788
    vertex 12.880309 -3.482092 221.482788
    vertex 15.928317 -3.002450 221.482788
  endloop
endfacet
facet normal -0.000000 0.000000 0.154167
  outer loop
    vertex 9.812441 -3.807378 221.482788
    vertex 9.817667 -3.857104 221.482788
    vertex 12.873383 -3.432574 221.482788
  endloop
endfacet
facet normal 0.000000 0.000000 0.154253
  outer loop
    vertex 12.873383 -3.432574 221.482788
    vertex 9.817667 -3.857104 221.482788
    vertex 12.880309 -3.482092 221.482788
  endloop
endfacet
endsolid b'MESH-MESH-MESH-MESH-MESH-MESH-MESH-MESH-MESH-MESH-MESH-MESH-MESH-MESH-MESH-MESH'
