solid b'MESH-MESH-MESH-MESH-MESH-MESH-MESH-MESH-MESH-MESH-MESH-MESH-MESH-MESH-MESH-MESH'
facet normal -0.001179 -0.061665 0.000000
  outer loop
    vertex -3.662841 -4.291606 167.297791
    vertex -0.577889 -4.350587 167.297791
    vertex -0.577889 -4.350587 167.317780
  endloop
endfacet
facet normal -0.001179 -0.061665 0.000000
  outer loop
    vertex -3.662841 -4.291606 167.297791
    vertex -0.577889 -4.350587 167.317780
    vertex -3.662841 -4.291606 167.317780
  endloop
endfacet
facet normal -0.003289 -0.061589 0.000000
  outer loop
    vertex -3.662841 -4.291606 167.297791
    vertex -3.662841 -4.291606 167.317780
    vertex -6.743966 -4.127048 167.317780
  endloop
endfacet
facet normal -0.005396 -0.061440 0.000000
  outer loop
    vertex -6.743966 -4.127048 167.297791
    vertex -6.743966 -4.127048 167.317780
    vertex -9.817651 -3.857105 167.317780
  endloop
endfacet
facet normal -0.003289 -0.061589 0.000000
  outer loop
    vertex -6.743966 -4.127048 167.297791
    vertex -3.662841 -4.291606 167.297791
    vertex -6.743966 -4.127048 167.317780
  endloop
endfacet
facet normal -0.005396 -0.061440 0.000000
  outer loop
    vertex -9.817651 -3.857105 167.297791
    vertex -6.743966 -4.127048 167.297791
    vertex -9.817651 -3.857105 167.317780
  endloop
endfacet
facet normal -0.000994 0.000104 0.000000
  outer loop
    vertex -9.812424 -3.807379 167.317780
    vertex -9.817651 -3.857105 167.297791
    vertex -9.817651 -3.857105 167.317780
  endloop
endfacet
facet normal -0.000994 0.000104 0.000000
  outer loop
    vertex -9.812424 -3.807379 167.297791
    vertex -9.817651 -3.857105 167.297791
    vertex -9.812424 -3.807379 167.317780
  endloop
endfacet
facet normal 0.001178 0.061631 0.000000
  outer loop
    vertex -0.577789 -4.300587 167.317780
    vertex -0.577789 -4.300587 167.297791
    vertex -3.661029 -4.241640 167.317780
  endloop
endfacet
facet normal 0.001178 0.061631 0.000000
  outer loop
    vertex -0.577789 -4.300587 167.297791
    vertex -3.661029 -4.241640 167.297791
    vertex -3.661029 -4.241640 167.317780
  endloop
endfacet
facet normal 0.003288 0.061554 0.000000
  outer loop
    vertex -3.661029 -4.241640 167.317780
    vertex -6.740445 -4.077173 167.297791
    vertex -6.740445 -4.077173 167.317780
  endloop
endfacet
facet normal 0.003288 0.061554 -0.000000
  outer loop
    vertex -3.661029 -4.241640 167.297791
    vertex -6.740445 -4.077173 167.297791
    vertex -3.661029 -4.241640 167.317780
  endloop
endfacet
facet normal 0.005393 0.061406 0.000000
  outer loop
    vertex -6.740445 -4.077173 167.317780
    vertex -9.812424 -3.807379 167.297791
    vertex -9.812424 -3.807379 167.317780
  endloop
endfacet
facet normal 0.005393 0.061406 -0.000000
  outer loop
    vertex -6.740445 -4.077173 167.297791
    vertex -9.812424 -3.807379 167.297791
    vertex -6.740445 -4.077173 167.317780
  endloop
endfacet
facet normal 0.000999 -0.000002 0.000000
  outer loop
    vertex -0.577889 -4.350587 167.317780
    vertex -0.577789 -4.300587 167.297791
    vertex -0.577789 -4.300587 167.317780
  endloop
endfacet
facet normal 0.000999 -0.000002 0.000000
  outer loop
    vertex -0.577889 -4.350587 167.297791
    vertex -0.577789 -4.300587 167.297791
    vertex -0.577889 -4.350587 167.317780
  endloop
endfacet
facet normal 0.000000 -0.000000 -0.154167
  outer loop
    vertex -9.812424 -3.807379 167.297791
    vertex -6.740445 -4.077173 167.297791
    vertex -9.817651 -3.857105 167.297791
  endloop
endfacet
facet normal -0.000000 0.000000 -0.154253
  outer loop
    vertex -6.740445 -4.077173 167.297791
    vertex -6.743966 -4.127048 167.297791
    vertex -9.817651 -3.857105 167.297791
  endloop
endfacet
facet normal 0.000000 -0.000000 -0.154167
  outer loop
    vertex -6.740445 -4.077173 167.297791
    vertex -3.661029 -4.241640 167.297791
    vertex -6.743966 -4.127048 167.297791
  endloop
endfacet
facet normal -0.000000 0.000000 -0.154252
  outer loop
    vertex -3.661029 -4.241640 167.297791
    vertex -3.662841 -4.291606 167.297791
    vertex -6.743966 -4.127048 167.297791
  endloop
endfacet
facet normal 0.000000 -0.000000 -0.154166
  outer loop
    vertex -3.661029 -4.241640 167.297791
    vertex -0.577789 -4.300587 167.297791
    vertex -3.662841 -4.291606 167.297791
  endloop
endfacet
facet normal -0.000000 0.000000 -0.154254
  outer loop
    vertex -0.577789 -4.300587 167.297791
    vertex -0.577889 -4.350587 167.297791
    vertex -3.662841 -4.291606 167.297791
  endloop
endfacet
facet normal 0.000000 -0.000000 0.154167
  outer loop
    vertex -6.743966 -4.127048 167.317780
    vertex -6.740445 -4.077173 167.317780
    vertex -9.812424 -3.807379 167.317780
  endloop
endfacet
facet normal 0.000000 0.000000 0.154253
  outer loop
    vertex -6.743966 -4.127048 167.317780
    vertex -9.812424 -3.807379 167.317780
    vertex -9.817651 -3.857105 167.317780
  endloop
endfacet
facet normal 0.000000 -0.000000 0.154166
  outer loop
    vertex -3.662841 -4.291606 167.317780
    vertex -3.661029 -4.241640 167.317780
    vertex -6.740445 -4.077173 167.317780
  endloop
endfacet
facet normal 0.000000 0.000000 0.154253
  outer loop
    vertex -3.662841 -4.291606 167.317780
    vertex -6.740445 -4.077173 167.317780
    vertex -6.743966 -4.127048 167.317780
  endloop
endfacet
facet normal 0.000000 -0.000000 0.154169
  outer loop
    vertex -0.577889 -4.350587 167.317780
    vertex -0.577789 -4.300587 167.317780
    vertex -3.661029 -4.241640 167.317780
  endloop
endfacet
facet normal 0.000000 0.000000 0.154252
  outer loop
    vertex -0.577889 -4.350587 167.317780
    vertex -3.661029 -4.241640 167.317780
    vertex -3.662841 -4.291606 167.317780
  endloop
endfacet
endsolid b'MESH-MESH-MESH-MESH-MESH-MESH-MESH-MESH-MESH-MESH-MESH-MESH-MESH-MESH-MESH-MESH'
