solid b'MESH-MESH-MESH-MESH-MESH-MESH-MESH-MESH-MESH-MESH-MESH-MESH-MESH-MESH-MESH-MESH'
facet normal -0.007499 -0.061243 0.000000
  outer loop
    vertex -9.817665 -3.857104 -106.246124
    vertex -9.817665 -3.857104 -106.226128
    vertex -12.880307 -3.482092 -106.226128
  endloop
endfacet
facet normal -0.009591 -0.060950 0.000000
  outer loop
    vertex -12.880307 -3.482092 -106.246124
    vertex -12.880307 -3.482092 -106.226128
    vertex -15.928315 -3.002451 -106.226128
  endloop
endfacet
facet normal -0.007499 -0.061243 0.000000
  outer loop
    vertex -12.880307 -3.482092 -106.246124
    vertex -9.817665 -3.857104 -106.246124
    vertex -12.880307 -3.482092 -106.226128
  endloop
endfacet
facet normal -0.009591 -0.060950 0.000000
  outer loop
    vertex -15.928315 -3.002451 -106.246124
    vertex -12.880307 -3.482092 -106.246124
    vertex -15.928315 -3.002451 -106.226128
  endloop
endfacet
facet normal -0.011672 -0.060586 0.000000
  outer loop
    vertex -18.958117 -2.418743 -106.246124
    vertex -15.928315 -3.002451 -106.226128
    vertex -18.958117 -2.418743 -106.226128
  endloop
endfacet
facet normal -0.011672 -0.060586 0.000000
  outer loop
    vertex -18.958117 -2.418743 -106.246124
    vertex -15.928315 -3.002451 -106.246124
    vertex -15.928315 -3.002451 -106.226128
  endloop
endfacet
facet normal -0.000978 0.000206 0.000000
  outer loop
    vertex -18.958117 -2.418743 -106.246124
    vertex -18.947819 -2.369815 -106.226128
    vertex -18.947819 -2.369815 -106.246124
  endloop
endfacet
facet normal -0.000978 0.000206 0.000000
  outer loop
    vertex -18.958117 -2.418743 -106.226128
    vertex -18.947819 -2.369815 -106.226128
    vertex -18.958117 -2.418743 -106.246124
  endloop
endfacet
facet normal 0.007495 0.061209 0.000000
  outer loop
    vertex -9.812439 -3.807378 -106.226128
    vertex -9.812439 -3.807378 -106.246124
    vertex -12.873382 -3.432574 -106.226128
  endloop
endfacet
facet normal 0.007495 0.061209 0.000000
  outer loop
    vertex -9.812439 -3.807378 -106.246124
    vertex -12.873382 -3.432574 -106.246124
    vertex -12.873382 -3.432574 -106.226128
  endloop
endfacet
facet normal 0.009586 0.060916 0.000000
  outer loop
    vertex -12.873382 -3.432574 -106.226128
    vertex -15.919698 -2.953199 -106.246124
    vertex -15.919698 -2.953199 -106.226128
  endloop
endfacet
facet normal 0.011666 0.060552 0.000000
  outer loop
    vertex -15.919698 -2.953199 -106.226128
    vertex -15.919698 -2.953199 -106.246124
    vertex -18.947819 -2.369815 -106.226128
  endloop
endfacet
facet normal 0.009586 0.060916 -0.000000
  outer loop
    vertex -12.873382 -3.432574 -106.246124
    vertex -15.919698 -2.953199 -106.246124
    vertex -12.873382 -3.432574 -106.226128
  endloop
endfacet
facet normal 0.011666 0.060552 0.000000
  outer loop
    vertex -15.919698 -2.953199 -106.246124
    vertex -18.947819 -2.369815 -106.246124
    vertex -18.947819 -2.369815 -106.226128
  endloop
endfacet
facet normal 0.000994 -0.000105 0.000000
  outer loop
    vertex -9.812439 -3.807378 -106.246124
    vertex -9.817665 -3.857104 -106.226128
    vertex -9.817665 -3.857104 -106.246124
  endloop
endfacet
facet normal 0.000994 -0.000105 0.000000
  outer loop
    vertex -9.812439 -3.807378 -106.226128
    vertex -9.817665 -3.857104 -106.226128
    vertex -9.812439 -3.807378 -106.246124
  endloop
endfacet
facet normal 0.000000 0.000000 0.154168
  outer loop
    vertex -15.919698 -2.953199 -106.226128
    vertex -18.947819 -2.369815 -106.226128
    vertex -18.958117 -2.418743 -106.226128
  endloop
endfacet
facet normal 0.000000 -0.000000 0.154253
  outer loop
    vertex -15.928315 -3.002451 -106.226128
    vertex -15.919698 -2.953199 -106.226128
    vertex -18.958117 -2.418743 -106.226128
  endloop
endfacet
facet normal 0.000000 0.000000 0.154168
  outer loop
    vertex -12.873382 -3.432574 -106.226128
    vertex -15.919698 -2.953199 -106.226128
    vertex -15.928315 -3.002451 -106.226128
  endloop
endfacet
facet normal 0.000000 -0.000000 0.154253
  outer loop
    vertex -12.880307 -3.482092 -106.226128
    vertex -12.873382 -3.432574 -106.226128
    vertex -15.928315 -3.002451 -106.226128
  endloop
endfacet
facet normal 0.000000 0.000000 0.154168
  outer loop
    vertex -9.812439 -3.807378 -106.226128
    vertex -12.873382 -3.432574 -106.226128
    vertex -12.880307 -3.482092 -106.226128
  endloop
endfacet
facet normal 0.000000 -0.000000 0.154253
  outer loop
    vertex -9.817665 -3.857104 -106.226128
    vertex -9.812439 -3.807378 -106.226128
    vertex -12.880307 -3.482092 -106.226128
  endloop
endfacet
facet normal -0.000000 0.000000 -0.154168
  outer loop
    vertex -15.919698 -2.953199 -106.246124
    vertex -15.928315 -3.002451 -106.246124
    vertex -18.947819 -2.369815 -106.246124
  endloop
endfacet
facet normal 0.000000 -0.000000 -0.154253
  outer loop
    vertex -18.947819 -2.369815 -106.246124
    vertex -15.928315 -3.002451 -106.246124
    vertex -18.958117 -2.418743 -106.246124
  endloop
endfacet
facet normal -0.000000 0.000000 -0.154168
  outer loop
    vertex -12.873382 -3.432574 -106.246124
    vertex -12.880307 -3.482092 -106.246124
    vertex -15.919698 -2.953199 -106.246124
  endloop
endfacet
facet normal 0.000000 -0.000000 -0.154253
  outer loop
    vertex -15.919698 -2.953199 -106.246124
    vertex -12.880307 -3.482092 -106.246124
    vertex -15.928315 -3.002451 -106.246124
  endloop
endfacet
facet normal -0.000000 0.000000 -0.154167
  outer loop
    vertex -9.812439 -3.807378 -106.246124
    vertex -9.817665 -3.857104 -106.246124
    vertex -12.873382 -3.432574 -106.246124
  endloop
endfacet
facet normal 0.000000 -0.000000 -0.154253
  outer loop
    vertex -12.873382 -3.432574 -106.246124
    vertex -9.817665 -3.857104 -106.246124
    vertex -12.880307 -3.482092 -106.246124
  endloop
endfacet
endsolid b'MESH-MESH-MESH-MESH-MESH-MESH-MESH-MESH-MESH-MESH-MESH-MESH-MESH-MESH-MESH-MESH'
