solid b'MESH-MESH-MESH-MESH-MESH-MESH-MESH-MESH-MESH-MESH-MESH-MESH-MESH-MESH-MESH-MESH'
facet normal 0.001180 -0.061712 0.000000
  outer loop
    vertex 0.577889 -4.350587 160.135788
    vertex 0.577889 -4.350587 160.115784
    vertex 3.662841 -4.291607 160.115784
  endloop
endfacet
facet normal 0.001180 -0.061712 0.000000
  outer loop
    vertex 3.662841 -4.291607 160.135788
    vertex 0.577889 -4.350587 160.135788
    vertex 3.662841 -4.291607 160.115784
  endloop
endfacet
facet normal 0.003292 -0.061636 0.000000
  outer loop
    vertex 6.743966 -4.127048 160.135788
    vertex 3.662841 -4.291607 160.115784
    vertex 6.743966 -4.127048 160.115784
  endloop
endfacet
facet normal 0.003292 -0.061636 0.000000
  outer loop
    vertex 6.743966 -4.127048 160.135788
    vertex 3.662841 -4.291607 160.135788
    vertex 3.662841 -4.291607 160.115784
  endloop
endfacet
facet normal 0.005400 -0.061487 0.000000
  outer loop
    vertex 9.817651 -3.857106 160.135788
    vertex 6.743966 -4.127048 160.115784
    vertex 9.817651 -3.857106 160.115784
  endloop
endfacet
facet normal 0.005400 -0.061487 0.000000
  outer loop
    vertex 9.817651 -3.857106 160.135788
    vertex 6.743966 -4.127048 160.135788
    vertex 6.743966 -4.127048 160.115784
  endloop
endfacet
facet normal 0.000995 0.000105 0.000000
  outer loop
    vertex 9.817651 -3.857106 160.135788
    vertex 9.812424 -3.807379 160.115784
    vertex 9.812424 -3.807379 160.135788
  endloop
endfacet
facet normal 0.000995 0.000105 -0.000000
  outer loop
    vertex 9.817651 -3.857106 160.115784
    vertex 9.812424 -3.807379 160.115784
    vertex 9.817651 -3.857106 160.135788
  endloop
endfacet
facet normal -0.001179 0.061678 0.000000
  outer loop
    vertex 0.577789 -4.300587 160.115784
    vertex 3.661030 -4.241640 160.135788
    vertex 3.661030 -4.241640 160.115784
  endloop
endfacet
facet normal -0.001179 0.061678 0.000000
  outer loop
    vertex 0.577789 -4.300587 160.135788
    vertex 3.661030 -4.241640 160.135788
    vertex 0.577789 -4.300587 160.115784
  endloop
endfacet
facet normal -0.003290 0.061601 0.000000
  outer loop
    vertex 3.661030 -4.241640 160.115784
    vertex 6.740445 -4.077173 160.135788
    vertex 6.740445 -4.077173 160.115784
  endloop
endfacet
facet normal -0.005397 0.061453 0.000000
  outer loop
    vertex 6.740445 -4.077173 160.115784
    vertex 6.740445 -4.077173 160.135788
    vertex 9.812424 -3.807379 160.115784
  endloop
endfacet
facet normal -0.003290 0.061601 0.000000
  outer loop
    vertex 3.661030 -4.241640 160.135788
    vertex 6.740445 -4.077173 160.135788
    vertex 3.661030 -4.241640 160.115784
  endloop
endfacet
facet normal -0.005397 0.061453 0.000000
  outer loop
    vertex 6.740445 -4.077173 160.135788
    vertex 9.812424 -3.807379 160.135788
    vertex 9.812424 -3.807379 160.115784
  endloop
endfacet
facet normal -0.001000 -0.000002 0.000000
  outer loop
    vertex 0.577789 -4.300587 160.115784
    vertex 0.577889 -4.350587 160.135788
    vertex 0.577789 -4.300587 160.135788
  endloop
endfacet
facet normal -0.001000 -0.000002 0.000000
  outer loop
    vertex 0.577789 -4.300587 160.115784
    vertex 0.577889 -4.350587 160.115784
    vertex 0.577889 -4.350587 160.135788
  endloop
endfacet
facet normal 0.000000 0.000000 -0.154168
  outer loop
    vertex 6.740445 -4.077173 160.115784
    vertex 9.812424 -3.807379 160.115784
    vertex 9.817651 -3.857106 160.115784
  endloop
endfacet
facet normal 0.000000 0.000000 -0.154253
  outer loop
    vertex 6.743966 -4.127048 160.115784
    vertex 6.740445 -4.077173 160.115784
    vertex 9.817651 -3.857106 160.115784
  endloop
endfacet
facet normal 0.000000 0.000000 -0.154167
  outer loop
    vertex 3.661030 -4.241640 160.115784
    vertex 6.740445 -4.077173 160.115784
    vertex 6.743966 -4.127048 160.115784
  endloop
endfacet
facet normal 0.000000 0.000000 -0.154254
  outer loop
    vertex 3.662841 -4.291607 160.115784
    vertex 3.661030 -4.241640 160.115784
    vertex 6.743966 -4.127048 160.115784
  endloop
endfacet
facet normal 0.000000 0.000000 -0.154168
  outer loop
    vertex 0.577789 -4.300587 160.115784
    vertex 3.661030 -4.241640 160.115784
    vertex 3.662841 -4.291607 160.115784
  endloop
endfacet
facet normal 0.000000 0.000000 -0.154254
  outer loop
    vertex 0.577889 -4.350587 160.115784
    vertex 0.577789 -4.300587 160.115784
    vertex 3.662841 -4.291607 160.115784
  endloop
endfacet
facet normal -0.000000 0.000000 0.154167
  outer loop
    vertex 6.740445 -4.077173 160.135788
    vertex 6.743966 -4.127048 160.135788
    vertex 9.812424 -3.807379 160.135788
  endloop
endfacet
facet normal 0.000000 0.000000 0.154254
  outer loop
    vertex 9.812424 -3.807379 160.135788
    vertex 6.743966 -4.127048 160.135788
    vertex 9.817651 -3.857106 160.135788
  endloop
endfacet
facet normal -0.000000 0.000000 0.154168
  outer loop
    vertex 3.661030 -4.241640 160.135788
    vertex 3.662841 -4.291607 160.135788
    vertex 6.740445 -4.077173 160.135788
  endloop
endfacet
facet normal 0.000000 0.000000 0.154253
  outer loop
    vertex 6.740445 -4.077173 160.135788
    vertex 3.662841 -4.291607 160.135788
    vertex 6.743966 -4.127048 160.135788
  endloop
endfacet
facet normal -0.000000 0.000000 0.154169
  outer loop
    vertex 0.577789 -4.300587 160.135788
    vertex 0.577889 -4.350587 160.135788
    vertex 3.661030 -4.241640 160.135788
  endloop
endfacet
facet normal 0.000000 0.000000 0.154254
  outer loop
    vertex 3.661030 -4.241640 160.135788
    vertex 0.577889 -4.350587 160.135788
    vertex 3.662841 -4.291607 160.135788
  endloop
endfacet
endsolid b'MESH-MESH-MESH-MESH-MESH-MESH-MESH-MESH-MESH-MESH-MESH-MESH-MESH-MESH-MESH-MESH'
