solid b'MESH-MESH-MESH-MESH-MESH-MESH-MESH-MESH-MESH-MESH-MESH-MESH-MESH-MESH-MESH-MESH'
facet normal 0.001181 -0.061759 0.000000
  outer loop
    vertex 3.662831 -4.291606 334.810577
    vertex 0.577878 -4.350586 334.810577
    vertex 0.577878 -4.350586 334.790558
  endloop
endfacet
facet normal 0.001181 -0.061759 0.000000
  outer loop
    vertex 3.662831 -4.291606 334.810577
    vertex 0.577878 -4.350586 334.790558
    vertex 3.662831 -4.291606 334.790558
  endloop
endfacet
facet normal 0.003294 -0.061683 0.000000
  outer loop
    vertex 6.743955 -4.127048 334.810577
    vertex 3.662831 -4.291606 334.790558
    vertex 6.743955 -4.127048 334.790558
  endloop
endfacet
facet normal 0.003294 -0.061683 0.000000
  outer loop
    vertex 6.743955 -4.127048 334.810577
    vertex 3.662831 -4.291606 334.810577
    vertex 3.662831 -4.291606 334.790558
  endloop
endfacet
facet normal 0.005404 -0.061534 0.000000
  outer loop
    vertex 9.817640 -3.857106 334.810577
    vertex 6.743955 -4.127048 334.790558
    vertex 9.817640 -3.857106 334.790558
  endloop
endfacet
facet normal 0.005404 -0.061534 0.000000
  outer loop
    vertex 9.817640 -3.857106 334.810577
    vertex 6.743955 -4.127048 334.810577
    vertex 6.743955 -4.127048 334.790558
  endloop
endfacet
facet normal 0.000995 0.000105 0.000000
  outer loop
    vertex 9.817640 -3.857106 334.810577
    vertex 9.812414 -3.807380 334.790558
    vertex 9.812414 -3.807380 334.810577
  endloop
endfacet
facet normal 0.000995 0.000105 -0.000000
  outer loop
    vertex 9.817640 -3.857106 334.790558
    vertex 9.812414 -3.807380 334.790558
    vertex 9.817640 -3.857106 334.810577
  endloop
endfacet
facet normal -0.001180 0.061725 0.000000
  outer loop
    vertex 0.577779 -4.300586 334.790558
    vertex 3.661019 -4.241639 334.810577
    vertex 3.661019 -4.241639 334.790558
  endloop
endfacet
facet normal -0.001180 0.061725 0.000000
  outer loop
    vertex 0.577779 -4.300586 334.810577
    vertex 3.661019 -4.241639 334.810577
    vertex 0.577779 -4.300586 334.790558
  endloop
endfacet
facet normal -0.003293 0.061648 0.000000
  outer loop
    vertex 3.661019 -4.241639 334.790558
    vertex 6.740434 -4.077173 334.810577
    vertex 6.740434 -4.077173 334.790558
  endloop
endfacet
facet normal -0.005401 0.061500 0.000000
  outer loop
    vertex 6.740434 -4.077173 334.790558
    vertex 6.740434 -4.077173 334.810577
    vertex 9.812414 -3.807380 334.790558
  endloop
endfacet
facet normal -0.003293 0.061648 0.000000
  outer loop
    vertex 3.661019 -4.241639 334.810577
    vertex 6.740434 -4.077173 334.810577
    vertex 3.661019 -4.241639 334.790558
  endloop
endfacet
facet normal -0.005401 0.061500 0.000000
  outer loop
    vertex 6.740434 -4.077173 334.810577
    vertex 9.812414 -3.807380 334.810577
    vertex 9.812414 -3.807380 334.790558
  endloop
endfacet
facet normal -0.001001 -0.000002 0.000000
  outer loop
    vertex 0.577779 -4.300586 334.790558
    vertex 0.577878 -4.350586 334.810577
    vertex 0.577779 -4.300586 334.810577
  endloop
endfacet
facet normal -0.001001 -0.000002 0.000000
  outer loop
    vertex 0.577779 -4.300586 334.790558
    vertex 0.577878 -4.350586 334.790558
    vertex 0.577878 -4.350586 334.810577
  endloop
endfacet
facet normal 0.000000 0.000000 -0.154167
  outer loop
    vertex 6.740434 -4.077173 334.790558
    vertex 9.812414 -3.807380 334.790558
    vertex 9.817640 -3.857106 334.790558
  endloop
endfacet
facet normal 0.000000 0.000000 -0.154253
  outer loop
    vertex 6.743955 -4.127048 334.790558
    vertex 6.740434 -4.077173 334.790558
    vertex 9.817640 -3.857106 334.790558
  endloop
endfacet
facet normal 0.000000 0.000000 -0.154167
  outer loop
    vertex 3.661019 -4.241639 334.790558
    vertex 6.740434 -4.077173 334.790558
    vertex 6.743955 -4.127048 334.790558
  endloop
endfacet
facet normal 0.000000 0.000000 -0.154252
  outer loop
    vertex 3.662831 -4.291606 334.790558
    vertex 3.661019 -4.241639 334.790558
    vertex 6.743955 -4.127048 334.790558
  endloop
endfacet
facet normal 0.000000 0.000000 -0.154166
  outer loop
    vertex 0.577779 -4.300586 334.790558
    vertex 3.661019 -4.241639 334.790558
    vertex 3.662831 -4.291606 334.790558
  endloop
endfacet
facet normal 0.000000 0.000000 -0.154254
  outer loop
    vertex 0.577878 -4.350586 334.790558
    vertex 0.577779 -4.300586 334.790558
    vertex 3.662831 -4.291606 334.790558
  endloop
endfacet
facet normal -0.000000 0.000000 0.154167
  outer loop
    vertex 6.740434 -4.077173 334.810577
    vertex 6.743955 -4.127048 334.810577
    vertex 9.812414 -3.807380 334.810577
  endloop
endfacet
facet normal 0.000000 0.000000 0.154253
  outer loop
    vertex 9.812414 -3.807380 334.810577
    vertex 6.743955 -4.127048 334.810577
    vertex 9.817640 -3.857106 334.810577
  endloop
endfacet
facet normal -0.000000 0.000000 0.154166
  outer loop
    vertex 3.661019 -4.241639 334.810577
    vertex 3.662831 -4.291606 334.810577
    vertex 6.740434 -4.077173 334.810577
  endloop
endfacet
facet normal 0.000000 0.000000 0.154253
  outer loop
    vertex 6.740434 -4.077173 334.810577
    vertex 3.662831 -4.291606 334.810577
    vertex 6.743955 -4.127048 334.810577
  endloop
endfacet
facet normal -0.000000 0.000000 0.154168
  outer loop
    vertex 0.577779 -4.300586 334.810577
    vertex 0.577878 -4.350586 334.810577
    vertex 3.661019 -4.241639 334.810577
  endloop
endfacet
facet normal 0.000000 0.000000 0.154252
  outer loop
    vertex 3.661019 -4.241639 334.810577
    vertex 0.577878 -4.350586 334.810577
    vertex 3.662831 -4.291606 334.810577
  endloop
endfacet
endsolid b'MESH-MESH-MESH-MESH-MESH-MESH-MESH-MESH-MESH-MESH-MESH-MESH-MESH-MESH-MESH-MESH'
