solid b'MESH-MESH-MESH-MESH-MESH-MESH-MESH-MESH-MESH-MESH-MESH-MESH-MESH-MESH-MESH-MESH'
facet normal -0.007496 0.061219 0.000000
  outer loop
    vertex -12.880303 3.482093 298.572998
    vertex -9.817661 3.857105 298.572998
    vertex -9.817661 3.857105 298.553009
  endloop
endfacet
facet normal -0.007496 0.061219 0.000000
  outer loop
    vertex -12.880303 3.482093 298.572998
    vertex -9.817661 3.857105 298.553009
    vertex -12.880303 3.482093 298.553009
  endloop
endfacet
facet normal -0.009588 0.060927 0.000000
  outer loop
    vertex -15.928311 3.002452 298.572998
    vertex -12.880303 3.482093 298.553009
    vertex -15.928311 3.002452 298.553009
  endloop
endfacet
facet normal -0.011668 0.060563 0.000000
  outer loop
    vertex -15.928311 3.002452 298.572998
    vertex -15.928311 3.002452 298.553009
    vertex -18.958113 2.418744 298.553009
  endloop
endfacet
facet normal -0.009588 0.060927 0.000000
  outer loop
    vertex -15.928311 3.002452 298.572998
    vertex -12.880303 3.482093 298.572998
    vertex -12.880303 3.482093 298.553009
  endloop
endfacet
facet normal -0.011668 0.060563 0.000000
  outer loop
    vertex -18.958113 2.418744 298.572998
    vertex -15.928311 3.002452 298.572998
    vertex -18.958113 2.418744 298.553009
  endloop
endfacet
facet normal -0.000978 -0.000206 0.000000
  outer loop
    vertex -18.958113 2.418744 298.572998
    vertex -18.947813 2.369816 298.553009
    vertex -18.947813 2.369816 298.572998
  endloop
endfacet
facet normal -0.000978 -0.000206 0.000000
  outer loop
    vertex -18.958113 2.418744 298.553009
    vertex -18.947813 2.369816 298.553009
    vertex -18.958113 2.418744 298.572998
  endloop
endfacet
facet normal 0.007492 -0.061185 0.000000
  outer loop
    vertex -9.812435 3.807379 298.553009
    vertex -12.873377 3.432575 298.572998
    vertex -12.873377 3.432575 298.553009
  endloop
endfacet
facet normal 0.009582 -0.060893 0.000000
  outer loop
    vertex -12.873377 3.432575 298.553009
    vertex -12.873377 3.432575 298.572998
    vertex -15.919694 2.953200 298.553009
  endloop
endfacet
facet normal 0.007492 -0.061185 0.000000
  outer loop
    vertex -9.812435 3.807379 298.572998
    vertex -12.873377 3.432575 298.572998
    vertex -9.812435 3.807379 298.553009
  endloop
endfacet
facet normal 0.011661 -0.060529 0.000000
  outer loop
    vertex -15.919694 2.953200 298.553009
    vertex -15.919694 2.953200 298.572998
    vertex -18.947813 2.369816 298.553009
  endloop
endfacet
facet normal 0.009582 -0.060893 0.000000
  outer loop
    vertex -12.873377 3.432575 298.572998
    vertex -15.919694 2.953200 298.572998
    vertex -15.919694 2.953200 298.553009
  endloop
endfacet
facet normal 0.011661 -0.060529 0.000000
  outer loop
    vertex -15.919694 2.953200 298.572998
    vertex -18.947813 2.369816 298.572998
    vertex -18.947813 2.369816 298.553009
  endloop
endfacet
facet normal 0.000994 0.000104 -0.000000
  outer loop
    vertex -9.812435 3.807379 298.553009
    vertex -9.817661 3.857105 298.572998
    vertex -9.812435 3.807379 298.572998
  endloop
endfacet
facet normal 0.000994 0.000104 0.000000
  outer loop
    vertex -9.812435 3.807379 298.553009
    vertex -9.817661 3.857105 298.553009
    vertex -9.817661 3.857105 298.572998
  endloop
endfacet
facet normal 0.000000 -0.000000 -0.154168
  outer loop
    vertex -15.928311 3.002452 298.553009
    vertex -15.919694 2.953200 298.553009
    vertex -18.947813 2.369816 298.553009
  endloop
endfacet
facet normal 0.000000 0.000000 -0.154254
  outer loop
    vertex -15.928311 3.002452 298.553009
    vertex -18.947813 2.369816 298.553009
    vertex -18.958113 2.418744 298.553009
  endloop
endfacet
facet normal 0.000000 -0.000000 -0.154168
  outer loop
    vertex -12.880303 3.482093 298.553009
    vertex -12.873377 3.432575 298.553009
    vertex -15.919694 2.953200 298.553009
  endloop
endfacet
facet normal 0.000000 0.000000 -0.154253
  outer loop
    vertex -12.880303 3.482093 298.553009
    vertex -15.919694 2.953200 298.553009
    vertex -15.928311 3.002452 298.553009
  endloop
endfacet
facet normal 0.000000 -0.000000 -0.154167
  outer loop
    vertex -9.817661 3.857105 298.553009
    vertex -9.812435 3.807379 298.553009
    vertex -12.873377 3.432575 298.553009
  endloop
endfacet
facet normal 0.000000 0.000000 -0.154254
  outer loop
    vertex -9.817661 3.857105 298.553009
    vertex -12.873377 3.432575 298.553009
    vertex -12.880303 3.482093 298.553009
  endloop
endfacet
facet normal 0.000000 0.000000 0.154168
  outer loop
    vertex -15.919694 2.953200 298.572998
    vertex -15.928311 3.002452 298.572998
    vertex -18.947813 2.369816 298.572998
  endloop
endfacet
facet normal 0.000000 -0.000000 0.154254
  outer loop
    vertex -18.947813 2.369816 298.572998
    vertex -15.928311 3.002452 298.572998
    vertex -18.958113 2.418744 298.572998
  endloop
endfacet
facet normal 0.000000 0.000000 0.154168
  outer loop
    vertex -12.873377 3.432575 298.572998
    vertex -12.880303 3.482093 298.572998
    vertex -15.919694 2.953200 298.572998
  endloop
endfacet
facet normal 0.000000 -0.000000 0.154253
  outer loop
    vertex -15.919694 2.953200 298.572998
    vertex -12.880303 3.482093 298.572998
    vertex -15.928311 3.002452 298.572998
  endloop
endfacet
facet normal 0.000000 -0.000000 0.154168
  outer loop
    vertex -12.873377 3.432575 298.572998
    vertex -9.812435 3.807379 298.572998
    vertex -12.880303 3.482093 298.572998
  endloop
endfacet
facet normal 0.000000 0.000000 0.154253
  outer loop
    vertex -9.812435 3.807379 298.572998
    vertex -9.817661 3.857105 298.572998
    vertex -12.880303 3.482093 298.572998
  endloop
endfacet
endsolid b'MESH-MESH-MESH-MESH-MESH-MESH-MESH-MESH-MESH-MESH-MESH-MESH-MESH-MESH-MESH-MESH'
