solid b'MESH-MESH-MESH-MESH-MESH-MESH-MESH-MESH-MESH-MESH-MESH-MESH-MESH-MESH-MESH-MESH'
facet normal -0.001180 -0.061712 0.000000
  outer loop
    vertex -3.662852 -4.291606 203.447784
    vertex -0.577899 -4.350587 203.447784
    vertex -0.577899 -4.350587 203.467789
  endloop
endfacet
facet normal -0.001180 -0.061712 0.000000
  outer loop
    vertex -3.662852 -4.291606 203.447784
    vertex -0.577899 -4.350587 203.467789
    vertex -3.662852 -4.291606 203.467789
  endloop
endfacet
facet normal -0.003292 -0.061636 0.000000
  outer loop
    vertex -6.743976 -4.127048 203.447784
    vertex -3.662852 -4.291606 203.467789
    vertex -6.743976 -4.127048 203.467789
  endloop
endfacet
facet normal -0.005400 -0.061487 0.000000
  outer loop
    vertex -6.743976 -4.127048 203.447784
    vertex -6.743976 -4.127048 203.467789
    vertex -9.817661 -3.857105 203.467789
  endloop
endfacet
facet normal -0.003292 -0.061636 0.000000
  outer loop
    vertex -6.743976 -4.127048 203.447784
    vertex -3.662852 -4.291606 203.447784
    vertex -3.662852 -4.291606 203.467789
  endloop
endfacet
facet normal -0.005400 -0.061487 0.000000
  outer loop
    vertex -9.817661 -3.857105 203.447784
    vertex -6.743976 -4.127048 203.447784
    vertex -9.817661 -3.857105 203.467789
  endloop
endfacet
facet normal -0.000995 0.000105 0.000000
  outer loop
    vertex -9.812435 -3.807379 203.467789
    vertex -9.817661 -3.857105 203.447784
    vertex -9.817661 -3.857105 203.467789
  endloop
endfacet
facet normal -0.000995 0.000105 0.000000
  outer loop
    vertex -9.812435 -3.807379 203.447784
    vertex -9.817661 -3.857105 203.447784
    vertex -9.812435 -3.807379 203.467789
  endloop
endfacet
facet normal 0.001179 0.061678 0.000000
  outer loop
    vertex -0.577800 -4.300587 203.467789
    vertex -0.577800 -4.300587 203.447784
    vertex -3.661040 -4.241640 203.467789
  endloop
endfacet
facet normal 0.001179 0.061678 0.000000
  outer loop
    vertex -0.577800 -4.300587 203.447784
    vertex -3.661040 -4.241640 203.447784
    vertex -3.661040 -4.241640 203.467789
  endloop
endfacet
facet normal 0.003290 0.061601 0.000000
  outer loop
    vertex -3.661040 -4.241640 203.467789
    vertex -6.740455 -4.077172 203.447784
    vertex -6.740455 -4.077172 203.467789
  endloop
endfacet
facet normal 0.003290 0.061601 -0.000000
  outer loop
    vertex -3.661040 -4.241640 203.447784
    vertex -6.740455 -4.077172 203.447784
    vertex -3.661040 -4.241640 203.467789
  endloop
endfacet
facet normal 0.005397 0.061453 0.000000
  outer loop
    vertex -6.740455 -4.077172 203.467789
    vertex -9.812435 -3.807379 203.447784
    vertex -9.812435 -3.807379 203.467789
  endloop
endfacet
facet normal 0.005397 0.061453 -0.000000
  outer loop
    vertex -6.740455 -4.077172 203.447784
    vertex -9.812435 -3.807379 203.447784
    vertex -6.740455 -4.077172 203.467789
  endloop
endfacet
facet normal 0.001000 -0.000002 0.000000
  outer loop
    vertex -0.577899 -4.350587 203.447784
    vertex -0.577800 -4.300587 203.447784
    vertex -0.577800 -4.300587 203.467789
  endloop
endfacet
facet normal 0.001000 -0.000002 0.000000
  outer loop
    vertex -0.577899 -4.350587 203.447784
    vertex -0.577800 -4.300587 203.467789
    vertex -0.577899 -4.350587 203.467789
  endloop
endfacet
facet normal 0.000000 -0.000000 -0.154167
  outer loop
    vertex -9.812435 -3.807379 203.447784
    vertex -6.740455 -4.077172 203.447784
    vertex -9.817661 -3.857105 203.447784
  endloop
endfacet
facet normal -0.000000 0.000000 -0.154253
  outer loop
    vertex -6.740455 -4.077172 203.447784
    vertex -6.743976 -4.127048 203.447784
    vertex -9.817661 -3.857105 203.447784
  endloop
endfacet
facet normal 0.000000 -0.000000 -0.154167
  outer loop
    vertex -6.740455 -4.077172 203.447784
    vertex -3.661040 -4.241640 203.447784
    vertex -6.743976 -4.127048 203.447784
  endloop
endfacet
facet normal -0.000000 0.000000 -0.154252
  outer loop
    vertex -3.661040 -4.241640 203.447784
    vertex -3.662852 -4.291606 203.447784
    vertex -6.743976 -4.127048 203.447784
  endloop
endfacet
facet normal 0.000000 -0.000000 -0.154166
  outer loop
    vertex -3.661040 -4.241640 203.447784
    vertex -0.577800 -4.300587 203.447784
    vertex -3.662852 -4.291606 203.447784
  endloop
endfacet
facet normal -0.000000 0.000000 -0.154253
  outer loop
    vertex -0.577800 -4.300587 203.447784
    vertex -0.577899 -4.350587 203.447784
    vertex -3.662852 -4.291606 203.447784
  endloop
endfacet
facet normal 0.000000 -0.000000 0.154167
  outer loop
    vertex -6.743976 -4.127048 203.467789
    vertex -6.740455 -4.077172 203.467789
    vertex -9.812435 -3.807379 203.467789
  endloop
endfacet
facet normal 0.000000 0.000000 0.154253
  outer loop
    vertex -6.743976 -4.127048 203.467789
    vertex -9.812435 -3.807379 203.467789
    vertex -9.817661 -3.857105 203.467789
  endloop
endfacet
facet normal 0.000000 -0.000000 0.154166
  outer loop
    vertex -3.662852 -4.291606 203.467789
    vertex -3.661040 -4.241640 203.467789
    vertex -6.740455 -4.077172 203.467789
  endloop
endfacet
facet normal 0.000000 0.000000 0.154253
  outer loop
    vertex -3.662852 -4.291606 203.467789
    vertex -6.740455 -4.077172 203.467789
    vertex -6.743976 -4.127048 203.467789
  endloop
endfacet
facet normal 0.000000 -0.000000 0.154167
  outer loop
    vertex -0.577899 -4.350587 203.467789
    vertex -0.577800 -4.300587 203.467789
    vertex -3.661040 -4.241640 203.467789
  endloop
endfacet
facet normal 0.000000 0.000000 0.154252
  outer loop
    vertex -0.577899 -4.350587 203.467789
    vertex -3.661040 -4.241640 203.467789
    vertex -3.662852 -4.291606 203.467789
  endloop
endfacet
endsolid b'MESH-MESH-MESH-MESH-MESH-MESH-MESH-MESH-MESH-MESH-MESH-MESH-MESH-MESH-MESH-MESH'
