solid b'MESH-MESH-MESH-MESH-MESH-MESH-MESH-MESH-MESH-MESH-MESH-MESH-MESH-MESH-MESH-MESH'
facet normal -0.001181 0.061759 0.000000
  outer loop
    vertex -3.662846 4.291607 -392.606567
    vertex -0.577894 4.350587 -392.606567
    vertex -0.577894 4.350587 -392.626587
  endloop
endfacet
facet normal -0.001181 0.061759 0.000000
  outer loop
    vertex -3.662846 4.291607 -392.606567
    vertex -0.577894 4.350587 -392.626587
    vertex -3.662846 4.291607 -392.626587
  endloop
endfacet
facet normal -0.003294 0.061683 0.000000
  outer loop
    vertex -6.743971 4.127048 -392.606567
    vertex -3.662846 4.291607 -392.626587
    vertex -6.743971 4.127048 -392.626587
  endloop
endfacet
facet normal -0.005404 0.061534 0.000000
  outer loop
    vertex -6.743971 4.127048 -392.606567
    vertex -6.743971 4.127048 -392.626587
    vertex -9.817656 3.857105 -392.626587
  endloop
endfacet
facet normal -0.003294 0.061683 0.000000
  outer loop
    vertex -6.743971 4.127048 -392.606567
    vertex -3.662846 4.291607 -392.606567
    vertex -3.662846 4.291607 -392.626587
  endloop
endfacet
facet normal -0.005404 0.061534 0.000000
  outer loop
    vertex -9.817656 3.857105 -392.606567
    vertex -6.743971 4.127048 -392.606567
    vertex -9.817656 3.857105 -392.626587
  endloop
endfacet
facet normal -0.000995 -0.000105 0.000000
  outer loop
    vertex -9.812429 3.807379 -392.626587
    vertex -9.817656 3.857105 -392.606567
    vertex -9.817656 3.857105 -392.626587
  endloop
endfacet
facet normal -0.000995 -0.000105 -0.000000
  outer loop
    vertex -9.812429 3.807379 -392.606567
    vertex -9.817656 3.857105 -392.606567
    vertex -9.812429 3.807379 -392.626587
  endloop
endfacet
facet normal 0.001180 -0.061725 0.000000
  outer loop
    vertex -0.577794 4.300587 -392.626587
    vertex -0.577794 4.300587 -392.606567
    vertex -3.661035 4.241640 -392.626587
  endloop
endfacet
facet normal 0.001180 -0.061725 0.000000
  outer loop
    vertex -0.577794 4.300587 -392.606567
    vertex -3.661035 4.241640 -392.606567
    vertex -3.661035 4.241640 -392.626587
  endloop
endfacet
facet normal 0.003293 -0.061648 0.000000
  outer loop
    vertex -3.661035 4.241640 -392.626587
    vertex -6.740449 4.077173 -392.606567
    vertex -6.740449 4.077173 -392.626587
  endloop
endfacet
facet normal 0.003293 -0.061648 0.000000
  outer loop
    vertex -3.661035 4.241640 -392.606567
    vertex -6.740449 4.077173 -392.606567
    vertex -3.661035 4.241640 -392.626587
  endloop
endfacet
facet normal 0.005401 -0.061500 0.000000
  outer loop
    vertex -6.740449 4.077173 -392.626587
    vertex -9.812429 3.807379 -392.606567
    vertex -9.812429 3.807379 -392.626587
  endloop
endfacet
facet normal 0.005401 -0.061500 0.000000
  outer loop
    vertex -6.740449 4.077173 -392.606567
    vertex -9.812429 3.807379 -392.606567
    vertex -6.740449 4.077173 -392.626587
  endloop
endfacet
facet normal 0.001001 0.000002 0.000000
  outer loop
    vertex -0.577894 4.350587 -392.606567
    vertex -0.577794 4.300587 -392.606567
    vertex -0.577794 4.300587 -392.626587
  endloop
endfacet
facet normal 0.001001 0.000002 0.000000
  outer loop
    vertex -0.577894 4.350587 -392.606567
    vertex -0.577794 4.300587 -392.626587
    vertex -0.577894 4.350587 -392.626587
  endloop
endfacet
facet normal 0.000000 -0.000000 0.154168
  outer loop
    vertex -9.812429 3.807379 -392.606567
    vertex -6.740449 4.077173 -392.606567
    vertex -9.817656 3.857105 -392.606567
  endloop
endfacet
facet normal 0.000000 0.000000 0.154253
  outer loop
    vertex -6.740449 4.077173 -392.606567
    vertex -6.743971 4.127048 -392.606567
    vertex -9.817656 3.857105 -392.606567
  endloop
endfacet
facet normal 0.000000 -0.000000 0.154167
  outer loop
    vertex -6.740449 4.077173 -392.606567
    vertex -3.661035 4.241640 -392.606567
    vertex -6.743971 4.127048 -392.606567
  endloop
endfacet
facet normal 0.000000 0.000000 0.154254
  outer loop
    vertex -3.661035 4.241640 -392.606567
    vertex -3.662846 4.291607 -392.606567
    vertex -6.743971 4.127048 -392.606567
  endloop
endfacet
facet normal 0.000000 -0.000000 0.154168
  outer loop
    vertex -3.661035 4.241640 -392.606567
    vertex -0.577794 4.300587 -392.606567
    vertex -3.662846 4.291607 -392.606567
  endloop
endfacet
facet normal 0.000000 0.000000 0.154253
  outer loop
    vertex -0.577794 4.300587 -392.606567
    vertex -0.577894 4.350587 -392.606567
    vertex -3.662846 4.291607 -392.606567
  endloop
endfacet
facet normal 0.000000 -0.000000 -0.154167
  outer loop
    vertex -6.743971 4.127048 -392.626587
    vertex -6.740449 4.077173 -392.626587
    vertex -9.812429 3.807379 -392.626587
  endloop
endfacet
facet normal 0.000000 0.000000 -0.154254
  outer loop
    vertex -6.743971 4.127048 -392.626587
    vertex -9.812429 3.807379 -392.626587
    vertex -9.817656 3.857105 -392.626587
  endloop
endfacet
facet normal 0.000000 -0.000000 -0.154168
  outer loop
    vertex -3.662846 4.291607 -392.626587
    vertex -3.661035 4.241640 -392.626587
    vertex -6.740449 4.077173 -392.626587
  endloop
endfacet
facet normal 0.000000 0.000000 -0.154253
  outer loop
    vertex -3.662846 4.291607 -392.626587
    vertex -6.740449 4.077173 -392.626587
    vertex -6.743971 4.127048 -392.626587
  endloop
endfacet
facet normal 0.000000 -0.000000 -0.154167
  outer loop
    vertex -0.577894 4.350587 -392.626587
    vertex -0.577794 4.300587 -392.626587
    vertex -3.661035 4.241640 -392.626587
  endloop
endfacet
facet normal 0.000000 0.000000 -0.154254
  outer loop
    vertex -0.577894 4.350587 -392.626587
    vertex -3.661035 4.241640 -392.626587
    vertex -3.662846 4.291607 -392.626587
  endloop
endfacet
endsolid b'MESH-MESH-MESH-MESH-MESH-MESH-MESH-MESH-MESH-MESH-MESH-MESH-MESH-MESH-MESH-MESH'
