solid b'MESH-MESH-MESH-MESH-MESH-MESH-MESH-MESH-MESH-MESH-MESH-MESH-MESH-MESH-MESH-MESH'
facet normal 0.007500 -0.061254 0.000000
  outer loop
    vertex 12.880286 -3.482094 -19.562122
    vertex 9.817644 -3.857105 -19.562122
    vertex 9.817644 -3.857105 -19.582123
  endloop
endfacet
facet normal 0.007500 -0.061254 0.000000
  outer loop
    vertex 12.880286 -3.482094 -19.562122
    vertex 9.817644 -3.857105 -19.582123
    vertex 12.880286 -3.482094 -19.582123
  endloop
endfacet
facet normal 0.009593 -0.060962 0.000000
  outer loop
    vertex 15.928294 -3.002454 -19.562122
    vertex 12.880286 -3.482094 -19.582123
    vertex 15.928294 -3.002454 -19.582123
  endloop
endfacet
facet normal 0.011674 -0.060597 0.000000
  outer loop
    vertex 15.928294 -3.002454 -19.562122
    vertex 15.928294 -3.002454 -19.582123
    vertex 18.958096 -2.418747 -19.582123
  endloop
endfacet
facet normal 0.009593 -0.060962 0.000000
  outer loop
    vertex 15.928294 -3.002454 -19.562122
    vertex 12.880286 -3.482094 -19.562122
    vertex 12.880286 -3.482094 -19.582123
  endloop
endfacet
facet normal 0.011674 -0.060597 0.000000
  outer loop
    vertex 18.958096 -2.418747 -19.562122
    vertex 15.928294 -3.002454 -19.562122
    vertex 18.958096 -2.418747 -19.582123
  endloop
endfacet
facet normal 0.000979 0.000206 0.000000
  outer loop
    vertex 18.947798 -2.369819 -19.582123
    vertex 18.958096 -2.418747 -19.562122
    vertex 18.958096 -2.418747 -19.582123
  endloop
endfacet
facet normal 0.000979 0.000206 0.000000
  outer loop
    vertex 18.947798 -2.369819 -19.562122
    vertex 18.958096 -2.418747 -19.562122
    vertex 18.947798 -2.369819 -19.582123
  endloop
endfacet
facet normal -0.007496 0.061220 0.000000
  outer loop
    vertex 9.812418 -3.807379 -19.582123
    vertex 12.873361 -3.432576 -19.562122
    vertex 12.873361 -3.432576 -19.582123
  endloop
endfacet
facet normal -0.009588 0.060928 0.000000
  outer loop
    vertex 12.873361 -3.432576 -19.582123
    vertex 12.873361 -3.432576 -19.562122
    vertex 15.919678 -2.953202 -19.582123
  endloop
endfacet
facet normal -0.007496 0.061220 0.000000
  outer loop
    vertex 9.812418 -3.807379 -19.562122
    vertex 12.873361 -3.432576 -19.562122
    vertex 9.812418 -3.807379 -19.582123
  endloop
endfacet
facet normal -0.009588 0.060928 0.000000
  outer loop
    vertex 12.873361 -3.432576 -19.562122
    vertex 15.919678 -2.953202 -19.562122
    vertex 15.919678 -2.953202 -19.582123
  endloop
endfacet
facet normal -0.011668 0.060564 0.000000
  outer loop
    vertex 15.919678 -2.953202 -19.582123
    vertex 18.947798 -2.369819 -19.562122
    vertex 18.947798 -2.369819 -19.582123
  endloop
endfacet
facet normal -0.011668 0.060564 0.000000
  outer loop
    vertex 15.919678 -2.953202 -19.562122
    vertex 18.947798 -2.369819 -19.562122
    vertex 15.919678 -2.953202 -19.582123
  endloop
endfacet
facet normal -0.000995 -0.000105 0.000000
  outer loop
    vertex 9.817644 -3.857105 -19.582123
    vertex 9.812418 -3.807379 -19.562122
    vertex 9.812418 -3.807379 -19.582123
  endloop
endfacet
facet normal -0.000995 -0.000105 -0.000000
  outer loop
    vertex 9.817644 -3.857105 -19.562122
    vertex 9.812418 -3.807379 -19.562122
    vertex 9.817644 -3.857105 -19.582123
  endloop
endfacet
facet normal 0.000000 0.000000 0.154167
  outer loop
    vertex 18.947798 -2.369819 -19.562122
    vertex 15.919678 -2.953202 -19.562122
    vertex 18.958096 -2.418747 -19.562122
  endloop
endfacet
facet normal -0.000000 0.000000 0.154253
  outer loop
    vertex 15.919678 -2.953202 -19.562122
    vertex 15.928294 -3.002454 -19.562122
    vertex 18.958096 -2.418747 -19.562122
  endloop
endfacet
facet normal 0.000000 0.000000 0.154167
  outer loop
    vertex 15.919678 -2.953202 -19.562122
    vertex 12.873361 -3.432576 -19.562122
    vertex 15.928294 -3.002454 -19.562122
  endloop
endfacet
facet normal -0.000000 0.000000 0.154253
  outer loop
    vertex 12.873361 -3.432576 -19.562122
    vertex 12.880286 -3.482094 -19.562122
    vertex 15.928294 -3.002454 -19.562122
  endloop
endfacet
facet normal 0.000000 0.000000 0.154168
  outer loop
    vertex 12.873361 -3.432576 -19.562122
    vertex 9.812418 -3.807379 -19.562122
    vertex 12.880286 -3.482094 -19.562122
  endloop
endfacet
facet normal -0.000000 0.000000 0.154253
  outer loop
    vertex 9.812418 -3.807379 -19.562122
    vertex 9.817644 -3.857105 -19.562122
    vertex 12.880286 -3.482094 -19.562122
  endloop
endfacet
facet normal 0.000000 0.000000 -0.154167
  outer loop
    vertex 15.928294 -3.002454 -19.582123
    vertex 15.919678 -2.953202 -19.582123
    vertex 18.947798 -2.369819 -19.582123
  endloop
endfacet
facet normal 0.000000 0.000000 -0.154253
  outer loop
    vertex 15.928294 -3.002454 -19.582123
    vertex 18.947798 -2.369819 -19.582123
    vertex 18.958096 -2.418747 -19.582123
  endloop
endfacet
facet normal 0.000000 0.000000 -0.154168
  outer loop
    vertex 12.880286 -3.482094 -19.582123
    vertex 12.873361 -3.432576 -19.582123
    vertex 15.919678 -2.953202 -19.582123
  endloop
endfacet
facet normal 0.000000 0.000000 -0.154253
  outer loop
    vertex 12.880286 -3.482094 -19.582123
    vertex 15.919678 -2.953202 -19.582123
    vertex 15.928294 -3.002454 -19.582123
  endloop
endfacet
facet normal 0.000000 0.000000 -0.154167
  outer loop
    vertex 9.817644 -3.857105 -19.582123
    vertex 9.812418 -3.807379 -19.582123
    vertex 12.873361 -3.432576 -19.582123
  endloop
endfacet
facet normal 0.000000 0.000000 -0.154253
  outer loop
    vertex 9.817644 -3.857105 -19.582123
    vertex 12.873361 -3.432576 -19.582123
    vertex 12.880286 -3.482094 -19.582123
  endloop
endfacet
endsolid b'MESH-MESH-MESH-MESH-MESH-MESH-MESH-MESH-MESH-MESH-MESH-MESH-MESH-MESH-MESH-MESH'
