solid b'MESH-MESH-MESH-MESH-MESH-MESH-MESH-MESH-MESH-MESH-MESH-MESH-MESH-MESH-MESH-MESH'
facet normal -0.007496 -0.061219 0.000000
  outer loop
    vertex -12.880293 -3.482094 367.289581
    vertex -9.817651 -3.857105 367.289581
    vertex -9.817651 -3.857105 367.309570
  endloop
endfacet
facet normal -0.007496 -0.061219 0.000000
  outer loop
    vertex -12.880293 -3.482094 367.289581
    vertex -9.817651 -3.857105 367.309570
    vertex -12.880293 -3.482094 367.309570
  endloop
endfacet
facet normal -0.009588 -0.060927 0.000000
  outer loop
    vertex -15.928301 -3.002454 367.289581
    vertex -12.880293 -3.482094 367.309570
    vertex -15.928301 -3.002454 367.309570
  endloop
endfacet
facet normal -0.011668 -0.060563 0.000000
  outer loop
    vertex -15.928301 -3.002454 367.289581
    vertex -15.928301 -3.002454 367.309570
    vertex -18.958101 -2.418746 367.309570
  endloop
endfacet
facet normal -0.009588 -0.060927 0.000000
  outer loop
    vertex -15.928301 -3.002454 367.289581
    vertex -12.880293 -3.482094 367.289581
    vertex -12.880293 -3.482094 367.309570
  endloop
endfacet
facet normal -0.011668 -0.060563 0.000000
  outer loop
    vertex -18.958101 -2.418746 367.289581
    vertex -15.928301 -3.002454 367.289581
    vertex -18.958101 -2.418746 367.309570
  endloop
endfacet
facet normal -0.000978 0.000206 0.000000
  outer loop
    vertex -18.947803 -2.369818 367.309570
    vertex -18.958101 -2.418746 367.289581
    vertex -18.958101 -2.418746 367.309570
  endloop
endfacet
facet normal -0.000978 0.000206 0.000000
  outer loop
    vertex -18.947803 -2.369818 367.289581
    vertex -18.958101 -2.418746 367.289581
    vertex -18.947803 -2.369818 367.309570
  endloop
endfacet
facet normal 0.007492 0.061185 0.000000
  outer loop
    vertex -9.812425 -3.807379 367.309570
    vertex -12.873367 -3.432576 367.289581
    vertex -12.873367 -3.432576 367.309570
  endloop
endfacet
facet normal 0.007492 0.061185 -0.000000
  outer loop
    vertex -9.812425 -3.807379 367.289581
    vertex -12.873367 -3.432576 367.289581
    vertex -9.812425 -3.807379 367.309570
  endloop
endfacet
facet normal 0.009582 0.060893 0.000000
  outer loop
    vertex -12.873367 -3.432576 367.309570
    vertex -15.919684 -2.953202 367.289581
    vertex -15.919684 -2.953202 367.309570
  endloop
endfacet
facet normal 0.011661 0.060529 0.000000
  outer loop
    vertex -15.919684 -2.953202 367.309570
    vertex -15.919684 -2.953202 367.289581
    vertex -18.947803 -2.369818 367.309570
  endloop
endfacet
facet normal 0.009582 0.060893 -0.000000
  outer loop
    vertex -12.873367 -3.432576 367.289581
    vertex -15.919684 -2.953202 367.289581
    vertex -12.873367 -3.432576 367.309570
  endloop
endfacet
facet normal 0.011661 0.060529 0.000000
  outer loop
    vertex -15.919684 -2.953202 367.289581
    vertex -18.947803 -2.369818 367.289581
    vertex -18.947803 -2.369818 367.309570
  endloop
endfacet
facet normal 0.000994 -0.000104 0.000000
  outer loop
    vertex -9.817651 -3.857105 367.289581
    vertex -9.812425 -3.807379 367.289581
    vertex -9.812425 -3.807379 367.309570
  endloop
endfacet
facet normal 0.000994 -0.000104 0.000000
  outer loop
    vertex -9.817651 -3.857105 367.289581
    vertex -9.812425 -3.807379 367.309570
    vertex -9.817651 -3.857105 367.309570
  endloop
endfacet
facet normal 0.000000 -0.000000 -0.154167
  outer loop
    vertex -18.947803 -2.369818 367.289581
    vertex -15.919684 -2.953202 367.289581
    vertex -18.958101 -2.418746 367.289581
  endloop
endfacet
facet normal -0.000000 0.000000 -0.154253
  outer loop
    vertex -15.919684 -2.953202 367.289581
    vertex -15.928301 -3.002454 367.289581
    vertex -18.958101 -2.418746 367.289581
  endloop
endfacet
facet normal 0.000000 -0.000000 -0.154168
  outer loop
    vertex -15.919684 -2.953202 367.289581
    vertex -12.873367 -3.432576 367.289581
    vertex -15.928301 -3.002454 367.289581
  endloop
endfacet
facet normal -0.000000 0.000000 -0.154253
  outer loop
    vertex -12.873367 -3.432576 367.289581
    vertex -12.880293 -3.482094 367.289581
    vertex -15.928301 -3.002454 367.289581
  endloop
endfacet
facet normal 0.000000 -0.000000 -0.154168
  outer loop
    vertex -12.873367 -3.432576 367.289581
    vertex -9.812425 -3.807379 367.289581
    vertex -12.880293 -3.482094 367.289581
  endloop
endfacet
facet normal -0.000000 0.000000 -0.154253
  outer loop
    vertex -9.812425 -3.807379 367.289581
    vertex -9.817651 -3.857105 367.289581
    vertex -12.880293 -3.482094 367.289581
  endloop
endfacet
facet normal 0.000000 0.000000 0.154167
  outer loop
    vertex -15.919684 -2.953202 367.309570
    vertex -18.947803 -2.369818 367.309570
    vertex -18.958101 -2.418746 367.309570
  endloop
endfacet
facet normal 0.000000 -0.000000 0.154253
  outer loop
    vertex -15.928301 -3.002454 367.309570
    vertex -15.919684 -2.953202 367.309570
    vertex -18.958101 -2.418746 367.309570
  endloop
endfacet
facet normal 0.000000 0.000000 0.154168
  outer loop
    vertex -12.873367 -3.432576 367.309570
    vertex -15.919684 -2.953202 367.309570
    vertex -15.928301 -3.002454 367.309570
  endloop
endfacet
facet normal 0.000000 -0.000000 0.154253
  outer loop
    vertex -12.880293 -3.482094 367.309570
    vertex -12.873367 -3.432576 367.309570
    vertex -15.928301 -3.002454 367.309570
  endloop
endfacet
facet normal 0.000000 -0.000000 0.154167
  outer loop
    vertex -9.817651 -3.857105 367.309570
    vertex -9.812425 -3.807379 367.309570
    vertex -12.873367 -3.432576 367.309570
  endloop
endfacet
facet normal 0.000000 0.000000 0.154253
  outer loop
    vertex -9.817651 -3.857105 367.309570
    vertex -12.873367 -3.432576 367.309570
    vertex -12.880293 -3.482094 367.309570
  endloop
endfacet
endsolid b'MESH-MESH-MESH-MESH-MESH-MESH-MESH-MESH-MESH-MESH-MESH-MESH-MESH-MESH-MESH-MESH'
