solid b'MESH-MESH-MESH-MESH-MESH-MESH-MESH-MESH-MESH-MESH-MESH-MESH-MESH-MESH-MESH-MESH'
facet normal 0.001180 -0.061712 0.000000
  outer loop
    vertex 0.577889 -4.350587 -66.545120
    vertex 0.577889 -4.350587 -66.565125
    vertex 3.662841 -4.291607 -66.565125
  endloop
endfacet
facet normal 0.001180 -0.061712 0.000000
  outer loop
    vertex 3.662841 -4.291607 -66.545120
    vertex 0.577889 -4.350587 -66.545120
    vertex 3.662841 -4.291607 -66.565125
  endloop
endfacet
facet normal 0.003292 -0.061636 0.000000
  outer loop
    vertex 6.743965 -4.127049 -66.545120
    vertex 3.662841 -4.291607 -66.565125
    vertex 6.743965 -4.127049 -66.565125
  endloop
endfacet
facet normal 0.003292 -0.061636 0.000000
  outer loop
    vertex 6.743965 -4.127049 -66.545120
    vertex 3.662841 -4.291607 -66.545120
    vertex 3.662841 -4.291607 -66.565125
  endloop
endfacet
facet normal 0.005400 -0.061487 0.000000
  outer loop
    vertex 9.817651 -3.857106 -66.545120
    vertex 6.743965 -4.127049 -66.565125
    vertex 9.817651 -3.857106 -66.565125
  endloop
endfacet
facet normal 0.005400 -0.061487 0.000000
  outer loop
    vertex 9.817651 -3.857106 -66.545120
    vertex 6.743965 -4.127049 -66.545120
    vertex 6.743965 -4.127049 -66.565125
  endloop
endfacet
facet normal 0.000995 0.000105 0.000000
  outer loop
    vertex 9.812424 -3.807380 -66.545120
    vertex 9.817651 -3.857106 -66.545120
    vertex 9.817651 -3.857106 -66.565125
  endloop
endfacet
facet normal 0.000995 0.000105 0.000000
  outer loop
    vertex 9.812424 -3.807380 -66.545120
    vertex 9.817651 -3.857106 -66.565125
    vertex 9.812424 -3.807380 -66.565125
  endloop
endfacet
facet normal -0.001179 0.061678 0.000000
  outer loop
    vertex 0.577789 -4.300587 -66.565125
    vertex 0.577789 -4.300587 -66.545120
    vertex 3.661029 -4.241640 -66.565125
  endloop
endfacet
facet normal -0.001179 0.061678 0.000000
  outer loop
    vertex 0.577789 -4.300587 -66.545120
    vertex 3.661029 -4.241640 -66.545120
    vertex 3.661029 -4.241640 -66.565125
  endloop
endfacet
facet normal -0.003290 0.061601 0.000000
  outer loop
    vertex 3.661029 -4.241640 -66.565125
    vertex 6.740444 -4.077173 -66.545120
    vertex 6.740444 -4.077173 -66.565125
  endloop
endfacet
facet normal -0.003290 0.061601 0.000000
  outer loop
    vertex 3.661029 -4.241640 -66.545120
    vertex 6.740444 -4.077173 -66.545120
    vertex 3.661029 -4.241640 -66.565125
  endloop
endfacet
facet normal -0.005397 0.061453 0.000000
  outer loop
    vertex 6.740444 -4.077173 -66.565125
    vertex 9.812424 -3.807380 -66.545120
    vertex 9.812424 -3.807380 -66.565125
  endloop
endfacet
facet normal -0.005397 0.061453 0.000000
  outer loop
    vertex 6.740444 -4.077173 -66.545120
    vertex 9.812424 -3.807380 -66.545120
    vertex 6.740444 -4.077173 -66.565125
  endloop
endfacet
facet normal -0.001000 -0.000002 0.000000
  outer loop
    vertex 0.577889 -4.350587 -66.565125
    vertex 0.577789 -4.300587 -66.545120
    vertex 0.577789 -4.300587 -66.565125
  endloop
endfacet
facet normal -0.001000 -0.000002 -0.000000
  outer loop
    vertex 0.577889 -4.350587 -66.545120
    vertex 0.577789 -4.300587 -66.545120
    vertex 0.577889 -4.350587 -66.565125
  endloop
endfacet
facet normal 0.000000 0.000000 0.154168
  outer loop
    vertex 9.812424 -3.807380 -66.545120
    vertex 6.740444 -4.077173 -66.545120
    vertex 9.817651 -3.857106 -66.545120
  endloop
endfacet
facet normal -0.000000 0.000000 0.154254
  outer loop
    vertex 6.740444 -4.077173 -66.545120
    vertex 6.743965 -4.127049 -66.545120
    vertex 9.817651 -3.857106 -66.545120
  endloop
endfacet
facet normal 0.000000 0.000000 0.154169
  outer loop
    vertex 6.740444 -4.077173 -66.545120
    vertex 3.661029 -4.241640 -66.545120
    vertex 6.743965 -4.127049 -66.545120
  endloop
endfacet
facet normal -0.000000 0.000000 0.154253
  outer loop
    vertex 3.661029 -4.241640 -66.545120
    vertex 3.662841 -4.291607 -66.545120
    vertex 6.743965 -4.127049 -66.545120
  endloop
endfacet
facet normal -0.000000 0.000000 0.154167
  outer loop
    vertex 0.577789 -4.300587 -66.545120
    vertex 0.577889 -4.350587 -66.545120
    vertex 3.661029 -4.241640 -66.545120
  endloop
endfacet
facet normal 0.000000 0.000000 0.154254
  outer loop
    vertex 3.661029 -4.241640 -66.545120
    vertex 0.577889 -4.350587 -66.545120
    vertex 3.662841 -4.291607 -66.545120
  endloop
endfacet
facet normal 0.000000 0.000000 -0.154168
  outer loop
    vertex 6.740444 -4.077173 -66.565125
    vertex 9.812424 -3.807380 -66.565125
    vertex 9.817651 -3.857106 -66.565125
  endloop
endfacet
facet normal 0.000000 0.000000 -0.154254
  outer loop
    vertex 6.743965 -4.127049 -66.565125
    vertex 6.740444 -4.077173 -66.565125
    vertex 9.817651 -3.857106 -66.565125
  endloop
endfacet
facet normal 0.000000 0.000000 -0.154169
  outer loop
    vertex 3.661029 -4.241640 -66.565125
    vertex 6.740444 -4.077173 -66.565125
    vertex 6.743965 -4.127049 -66.565125
  endloop
endfacet
facet normal 0.000000 0.000000 -0.154253
  outer loop
    vertex 3.662841 -4.291607 -66.565125
    vertex 3.661029 -4.241640 -66.565125
    vertex 6.743965 -4.127049 -66.565125
  endloop
endfacet
facet normal 0.000000 0.000000 -0.154168
  outer loop
    vertex 0.577789 -4.300587 -66.565125
    vertex 3.661029 -4.241640 -66.565125
    vertex 3.662841 -4.291607 -66.565125
  endloop
endfacet
facet normal 0.000000 0.000000 -0.154253
  outer loop
    vertex 0.577889 -4.350587 -66.565125
    vertex 0.577789 -4.300587 -66.565125
    vertex 3.662841 -4.291607 -66.565125
  endloop
endfacet
endsolid b'MESH-MESH-MESH-MESH-MESH-MESH-MESH-MESH-MESH-MESH-MESH-MESH-MESH-MESH-MESH-MESH'
