solid b'MESH-MESH-MESH-MESH-MESH-MESH-MESH-MESH-MESH-MESH-MESH-MESH-MESH-MESH-MESH-MESH'
facet normal -0.001179 -0.061665 0.000000
  outer loop
    vertex -0.577894 -4.350587 192.614792
    vertex -0.577894 -4.350587 192.634781
    vertex -3.662846 -4.291607 192.634781
  endloop
endfacet
facet normal -0.001179 -0.061665 0.000000
  outer loop
    vertex -3.662846 -4.291607 192.614792
    vertex -0.577894 -4.350587 192.614792
    vertex -3.662846 -4.291607 192.634781
  endloop
endfacet
facet normal -0.003289 -0.061589 0.000000
  outer loop
    vertex -6.743970 -4.127048 192.614792
    vertex -3.662846 -4.291607 192.634781
    vertex -6.743970 -4.127048 192.634781
  endloop
endfacet
facet normal -0.003289 -0.061589 0.000000
  outer loop
    vertex -6.743970 -4.127048 192.614792
    vertex -3.662846 -4.291607 192.614792
    vertex -3.662846 -4.291607 192.634781
  endloop
endfacet
facet normal -0.005396 -0.061440 0.000000
  outer loop
    vertex -9.817656 -3.857105 192.614792
    vertex -6.743970 -4.127048 192.634781
    vertex -9.817656 -3.857105 192.634781
  endloop
endfacet
facet normal -0.005396 -0.061440 0.000000
  outer loop
    vertex -9.817656 -3.857105 192.614792
    vertex -6.743970 -4.127048 192.614792
    vertex -6.743970 -4.127048 192.634781
  endloop
endfacet
facet normal -0.000994 0.000104 0.000000
  outer loop
    vertex -9.812428 -3.807379 192.614792
    vertex -9.817656 -3.857105 192.614792
    vertex -9.817656 -3.857105 192.634781
  endloop
endfacet
facet normal -0.000994 0.000104 0.000000
  outer loop
    vertex -9.812428 -3.807379 192.614792
    vertex -9.817656 -3.857105 192.634781
    vertex -9.812428 -3.807379 192.634781
  endloop
endfacet
facet normal 0.001178 0.061631 0.000000
  outer loop
    vertex -0.577794 -4.300587 192.634781
    vertex -0.577794 -4.300587 192.614792
    vertex -3.661034 -4.241640 192.634781
  endloop
endfacet
facet normal 0.001178 0.061631 0.000000
  outer loop
    vertex -0.577794 -4.300587 192.614792
    vertex -3.661034 -4.241640 192.614792
    vertex -3.661034 -4.241640 192.634781
  endloop
endfacet
facet normal 0.003288 0.061554 0.000000
  outer loop
    vertex -3.661034 -4.241640 192.634781
    vertex -6.740449 -4.077173 192.614792
    vertex -6.740449 -4.077173 192.634781
  endloop
endfacet
facet normal 0.003288 0.061554 -0.000000
  outer loop
    vertex -3.661034 -4.241640 192.614792
    vertex -6.740449 -4.077173 192.614792
    vertex -3.661034 -4.241640 192.634781
  endloop
endfacet
facet normal 0.005393 0.061406 0.000000
  outer loop
    vertex -6.740449 -4.077173 192.634781
    vertex -9.812428 -3.807379 192.614792
    vertex -9.812428 -3.807379 192.634781
  endloop
endfacet
facet normal 0.005393 0.061406 -0.000000
  outer loop
    vertex -6.740449 -4.077173 192.614792
    vertex -9.812428 -3.807379 192.614792
    vertex -6.740449 -4.077173 192.634781
  endloop
endfacet
facet normal 0.000999 -0.000002 0.000000
  outer loop
    vertex -0.577894 -4.350587 192.634781
    vertex -0.577794 -4.300587 192.614792
    vertex -0.577794 -4.300587 192.634781
  endloop
endfacet
facet normal 0.000999 -0.000002 0.000000
  outer loop
    vertex -0.577894 -4.350587 192.614792
    vertex -0.577794 -4.300587 192.614792
    vertex -0.577894 -4.350587 192.634781
  endloop
endfacet
facet normal 0.000000 -0.000000 -0.154167
  outer loop
    vertex -9.812428 -3.807379 192.614792
    vertex -6.740449 -4.077173 192.614792
    vertex -9.817656 -3.857105 192.614792
  endloop
endfacet
facet normal -0.000000 0.000000 -0.154253
  outer loop
    vertex -6.740449 -4.077173 192.614792
    vertex -6.743970 -4.127048 192.614792
    vertex -9.817656 -3.857105 192.614792
  endloop
endfacet
facet normal 0.000000 -0.000000 -0.154167
  outer loop
    vertex -6.740449 -4.077173 192.614792
    vertex -3.661034 -4.241640 192.614792
    vertex -6.743970 -4.127048 192.614792
  endloop
endfacet
facet normal -0.000000 0.000000 -0.154254
  outer loop
    vertex -3.661034 -4.241640 192.614792
    vertex -3.662846 -4.291607 192.614792
    vertex -6.743970 -4.127048 192.614792
  endloop
endfacet
facet normal -0.000000 0.000000 -0.154167
  outer loop
    vertex -0.577794 -4.300587 192.614792
    vertex -0.577894 -4.350587 192.614792
    vertex -3.661034 -4.241640 192.614792
  endloop
endfacet
facet normal 0.000000 -0.000000 -0.154254
  outer loop
    vertex -3.661034 -4.241640 192.614792
    vertex -0.577894 -4.350587 192.614792
    vertex -3.662846 -4.291607 192.614792
  endloop
endfacet
facet normal 0.000000 0.000000 0.154168
  outer loop
    vertex -6.740449 -4.077173 192.634781
    vertex -9.812428 -3.807379 192.634781
    vertex -9.817656 -3.857105 192.634781
  endloop
endfacet
facet normal 0.000000 -0.000000 0.154253
  outer loop
    vertex -6.743970 -4.127048 192.634781
    vertex -6.740449 -4.077173 192.634781
    vertex -9.817656 -3.857105 192.634781
  endloop
endfacet
facet normal 0.000000 0.000000 0.154167
  outer loop
    vertex -3.661034 -4.241640 192.634781
    vertex -6.740449 -4.077173 192.634781
    vertex -6.743970 -4.127048 192.634781
  endloop
endfacet
facet normal 0.000000 -0.000000 0.154254
  outer loop
    vertex -3.662846 -4.291607 192.634781
    vertex -3.661034 -4.241640 192.634781
    vertex -6.743970 -4.127048 192.634781
  endloop
endfacet
facet normal 0.000000 0.000000 0.154168
  outer loop
    vertex -0.577794 -4.300587 192.634781
    vertex -3.661034 -4.241640 192.634781
    vertex -3.662846 -4.291607 192.634781
  endloop
endfacet
facet normal 0.000000 -0.000000 0.154253
  outer loop
    vertex -0.577894 -4.350587 192.634781
    vertex -0.577794 -4.300587 192.634781
    vertex -3.662846 -4.291607 192.634781
  endloop
endfacet
endsolid b'MESH-MESH-MESH-MESH-MESH-MESH-MESH-MESH-MESH-MESH-MESH-MESH-MESH-MESH-MESH-MESH'
