solid b'MESH-MESH-MESH-MESH-MESH-MESH-MESH-MESH-MESH-MESH-MESH-MESH-MESH-MESH-MESH-MESH'
facet normal 0.007502 0.061266 0.000000
  outer loop
    vertex 12.880288 3.482094 237.145996
    vertex 9.817646 3.857106 237.145996
    vertex 9.817646 3.857106 237.166000
  endloop
endfacet
facet normal 0.007502 0.061266 -0.000000
  outer loop
    vertex 12.880288 3.482094 237.145996
    vertex 9.817646 3.857106 237.166000
    vertex 12.880288 3.482094 237.166000
  endloop
endfacet
facet normal 0.009595 0.060973 -0.000000
  outer loop
    vertex 15.928296 3.002454 237.145996
    vertex 12.880288 3.482094 237.166000
    vertex 15.928296 3.002454 237.166000
  endloop
endfacet
facet normal 0.011677 0.060609 -0.000000
  outer loop
    vertex 15.928296 3.002454 237.145996
    vertex 15.928296 3.002454 237.166000
    vertex 18.958097 2.418747 237.166000
  endloop
endfacet
facet normal 0.009595 0.060973 0.000000
  outer loop
    vertex 15.928296 3.002454 237.145996
    vertex 12.880288 3.482094 237.145996
    vertex 12.880288 3.482094 237.166000
  endloop
endfacet
facet normal 0.011677 0.060609 -0.000000
  outer loop
    vertex 18.958097 2.418747 237.145996
    vertex 15.928296 3.002454 237.145996
    vertex 18.958097 2.418747 237.166000
  endloop
endfacet
facet normal 0.000979 -0.000206 0.000000
  outer loop
    vertex 18.947800 2.369819 237.166000
    vertex 18.958097 2.418747 237.145996
    vertex 18.958097 2.418747 237.166000
  endloop
endfacet
facet normal 0.000979 -0.000206 0.000000
  outer loop
    vertex 18.947800 2.369819 237.145996
    vertex 18.958097 2.418747 237.145996
    vertex 18.947800 2.369819 237.166000
  endloop
endfacet
facet normal -0.007498 -0.061232 0.000000
  outer loop
    vertex 9.812420 3.807380 237.166000
    vertex 12.873363 3.432576 237.145996
    vertex 12.873363 3.432576 237.166000
  endloop
endfacet
facet normal -0.007498 -0.061232 0.000000
  outer loop
    vertex 9.812420 3.807380 237.145996
    vertex 12.873363 3.432576 237.145996
    vertex 9.812420 3.807380 237.166000
  endloop
endfacet
facet normal -0.009590 -0.060939 0.000000
  outer loop
    vertex 12.873363 3.432576 237.166000
    vertex 15.919680 2.953202 237.145996
    vertex 15.919680 2.953202 237.166000
  endloop
endfacet
facet normal -0.011670 -0.060575 -0.000000
  outer loop
    vertex 15.919680 2.953202 237.166000
    vertex 15.919680 2.953202 237.145996
    vertex 18.947800 2.369819 237.166000
  endloop
endfacet
facet normal -0.009590 -0.060939 0.000000
  outer loop
    vertex 12.873363 3.432576 237.145996
    vertex 15.919680 2.953202 237.145996
    vertex 12.873363 3.432576 237.166000
  endloop
endfacet
facet normal -0.011670 -0.060575 0.000000
  outer loop
    vertex 15.919680 2.953202 237.145996
    vertex 18.947800 2.369819 237.145996
    vertex 18.947800 2.369819 237.166000
  endloop
endfacet
facet normal -0.000995 0.000105 0.000000
  outer loop
    vertex 9.817646 3.857106 237.145996
    vertex 9.812420 3.807380 237.145996
    vertex 9.812420 3.807380 237.166000
  endloop
endfacet
facet normal -0.000995 0.000105 0.000000
  outer loop
    vertex 9.817646 3.857106 237.145996
    vertex 9.812420 3.807380 237.166000
    vertex 9.817646 3.857106 237.166000
  endloop
endfacet
facet normal 0.000000 0.000000 -0.154167
  outer loop
    vertex 18.947800 2.369819 237.145996
    vertex 15.919680 2.953202 237.145996
    vertex 18.958097 2.418747 237.145996
  endloop
endfacet
facet normal 0.000000 0.000000 -0.154253
  outer loop
    vertex 15.919680 2.953202 237.145996
    vertex 15.928296 3.002454 237.145996
    vertex 18.958097 2.418747 237.145996
  endloop
endfacet
facet normal 0.000000 0.000000 -0.154167
  outer loop
    vertex 15.919680 2.953202 237.145996
    vertex 12.873363 3.432576 237.145996
    vertex 15.928296 3.002454 237.145996
  endloop
endfacet
facet normal 0.000000 0.000000 -0.154253
  outer loop
    vertex 12.873363 3.432576 237.145996
    vertex 12.880288 3.482094 237.145996
    vertex 15.928296 3.002454 237.145996
  endloop
endfacet
facet normal 0.000000 0.000000 -0.154167
  outer loop
    vertex 12.873363 3.432576 237.145996
    vertex 9.812420 3.807380 237.145996
    vertex 12.880288 3.482094 237.145996
  endloop
endfacet
facet normal 0.000000 0.000000 -0.154253
  outer loop
    vertex 9.812420 3.807380 237.145996
    vertex 9.817646 3.857106 237.145996
    vertex 12.880288 3.482094 237.145996
  endloop
endfacet
facet normal 0.000000 0.000000 0.154167
  outer loop
    vertex 15.919680 2.953202 237.166000
    vertex 18.947800 2.369819 237.166000
    vertex 18.958097 2.418747 237.166000
  endloop
endfacet
facet normal 0.000000 0.000000 0.154253
  outer loop
    vertex 15.928296 3.002454 237.166000
    vertex 15.919680 2.953202 237.166000
    vertex 18.958097 2.418747 237.166000
  endloop
endfacet
facet normal 0.000000 0.000000 0.154167
  outer loop
    vertex 12.873363 3.432576 237.166000
    vertex 15.919680 2.953202 237.166000
    vertex 15.928296 3.002454 237.166000
  endloop
endfacet
facet normal 0.000000 0.000000 0.154253
  outer loop
    vertex 12.880288 3.482094 237.166000
    vertex 12.873363 3.432576 237.166000
    vertex 15.928296 3.002454 237.166000
  endloop
endfacet
facet normal 0.000000 0.000000 0.154167
  outer loop
    vertex 9.817646 3.857106 237.166000
    vertex 9.812420 3.807380 237.166000
    vertex 12.873363 3.432576 237.166000
  endloop
endfacet
facet normal 0.000000 0.000000 0.154253
  outer loop
    vertex 9.817646 3.857106 237.166000
    vertex 12.873363 3.432576 237.166000
    vertex 12.880288 3.482094 237.166000
  endloop
endfacet
endsolid b'MESH-MESH-MESH-MESH-MESH-MESH-MESH-MESH-MESH-MESH-MESH-MESH-MESH-MESH-MESH-MESH'
