solid b'MESH-MESH-MESH-MESH-MESH-MESH-MESH-MESH-MESH-MESH-MESH-MESH-MESH-MESH-MESH-MESH'
facet normal 0.007502 -0.061266 0.000000
  outer loop
    vertex 9.817644 -3.857105 123.985786
    vertex 9.817644 -3.857105 123.965782
    vertex 12.880286 -3.482094 123.965782
  endloop
endfacet
facet normal 0.009595 -0.060973 0.000000
  outer loop
    vertex 12.880286 -3.482094 123.985786
    vertex 12.880286 -3.482094 123.965782
    vertex 15.928294 -3.002454 123.965782
  endloop
endfacet
facet normal 0.007502 -0.061266 0.000000
  outer loop
    vertex 12.880286 -3.482094 123.985786
    vertex 9.817644 -3.857105 123.985786
    vertex 12.880286 -3.482094 123.965782
  endloop
endfacet
facet normal 0.009595 -0.060973 0.000000
  outer loop
    vertex 15.928294 -3.002454 123.985786
    vertex 12.880286 -3.482094 123.985786
    vertex 15.928294 -3.002454 123.965782
  endloop
endfacet
facet normal 0.011677 -0.060609 0.000000
  outer loop
    vertex 18.958096 -2.418747 123.985786
    vertex 15.928294 -3.002454 123.965782
    vertex 18.958096 -2.418747 123.965782
  endloop
endfacet
facet normal 0.011677 -0.060609 0.000000
  outer loop
    vertex 18.958096 -2.418747 123.985786
    vertex 15.928294 -3.002454 123.985786
    vertex 15.928294 -3.002454 123.965782
  endloop
endfacet
facet normal 0.000979 0.000206 0.000000
  outer loop
    vertex 18.958096 -2.418747 123.985786
    vertex 18.947798 -2.369819 123.965782
    vertex 18.947798 -2.369819 123.985786
  endloop
endfacet
facet normal 0.000979 0.000206 -0.000000
  outer loop
    vertex 18.958096 -2.418747 123.965782
    vertex 18.947798 -2.369819 123.965782
    vertex 18.958096 -2.418747 123.985786
  endloop
endfacet
facet normal -0.007498 0.061232 0.000000
  outer loop
    vertex 9.812418 -3.807379 123.965782
    vertex 9.812418 -3.807379 123.985786
    vertex 12.873361 -3.432576 123.965782
  endloop
endfacet
facet normal -0.007498 0.061232 0.000000
  outer loop
    vertex 9.812418 -3.807379 123.985786
    vertex 12.873361 -3.432576 123.985786
    vertex 12.873361 -3.432576 123.965782
  endloop
endfacet
facet normal -0.009590 0.060939 0.000000
  outer loop
    vertex 12.873361 -3.432576 123.965782
    vertex 15.919678 -2.953202 123.985786
    vertex 15.919678 -2.953202 123.965782
  endloop
endfacet
facet normal -0.011670 0.060575 0.000000
  outer loop
    vertex 15.919678 -2.953202 123.965782
    vertex 15.919678 -2.953202 123.985786
    vertex 18.947798 -2.369819 123.965782
  endloop
endfacet
facet normal -0.009590 0.060939 0.000000
  outer loop
    vertex 12.873361 -3.432576 123.985786
    vertex 15.919678 -2.953202 123.985786
    vertex 12.873361 -3.432576 123.965782
  endloop
endfacet
facet normal -0.011670 0.060575 0.000000
  outer loop
    vertex 15.919678 -2.953202 123.985786
    vertex 18.947798 -2.369819 123.985786
    vertex 18.947798 -2.369819 123.965782
  endloop
endfacet
facet normal -0.000995 -0.000105 0.000000
  outer loop
    vertex 9.812418 -3.807379 123.985786
    vertex 9.817644 -3.857105 123.965782
    vertex 9.817644 -3.857105 123.985786
  endloop
endfacet
facet normal -0.000995 -0.000105 0.000000
  outer loop
    vertex 9.812418 -3.807379 123.965782
    vertex 9.817644 -3.857105 123.965782
    vertex 9.812418 -3.807379 123.985786
  endloop
endfacet
facet normal 0.000000 0.000000 -0.154167
  outer loop
    vertex 15.919678 -2.953202 123.965782
    vertex 18.947798 -2.369819 123.965782
    vertex 18.958096 -2.418747 123.965782
  endloop
endfacet
facet normal 0.000000 0.000000 -0.154253
  outer loop
    vertex 15.928294 -3.002454 123.965782
    vertex 15.919678 -2.953202 123.965782
    vertex 18.958096 -2.418747 123.965782
  endloop
endfacet
facet normal 0.000000 0.000000 -0.154167
  outer loop
    vertex 12.873361 -3.432576 123.965782
    vertex 15.919678 -2.953202 123.965782
    vertex 15.928294 -3.002454 123.965782
  endloop
endfacet
facet normal 0.000000 0.000000 -0.154253
  outer loop
    vertex 12.880286 -3.482094 123.965782
    vertex 12.873361 -3.432576 123.965782
    vertex 15.928294 -3.002454 123.965782
  endloop
endfacet
facet normal 0.000000 0.000000 -0.154168
  outer loop
    vertex 9.812418 -3.807379 123.965782
    vertex 12.873361 -3.432576 123.965782
    vertex 12.880286 -3.482094 123.965782
  endloop
endfacet
facet normal 0.000000 0.000000 -0.154253
  outer loop
    vertex 9.817644 -3.857105 123.965782
    vertex 9.812418 -3.807379 123.965782
    vertex 12.880286 -3.482094 123.965782
  endloop
endfacet
facet normal -0.000000 0.000000 0.154167
  outer loop
    vertex 15.919678 -2.953202 123.985786
    vertex 15.928294 -3.002454 123.985786
    vertex 18.947798 -2.369819 123.985786
  endloop
endfacet
facet normal 0.000000 0.000000 0.154253
  outer loop
    vertex 18.947798 -2.369819 123.985786
    vertex 15.928294 -3.002454 123.985786
    vertex 18.958096 -2.418747 123.985786
  endloop
endfacet
facet normal -0.000000 0.000000 0.154168
  outer loop
    vertex 12.873361 -3.432576 123.985786
    vertex 12.880286 -3.482094 123.985786
    vertex 15.919678 -2.953202 123.985786
  endloop
endfacet
facet normal 0.000000 0.000000 0.154253
  outer loop
    vertex 15.919678 -2.953202 123.985786
    vertex 12.880286 -3.482094 123.985786
    vertex 15.928294 -3.002454 123.985786
  endloop
endfacet
facet normal -0.000000 0.000000 0.154167
  outer loop
    vertex 9.812418 -3.807379 123.985786
    vertex 9.817644 -3.857105 123.985786
    vertex 12.873361 -3.432576 123.985786
  endloop
endfacet
facet normal 0.000000 0.000000 0.154253
  outer loop
    vertex 12.873361 -3.432576 123.985786
    vertex 9.817644 -3.857105 123.985786
    vertex 12.880286 -3.482094 123.985786
  endloop
endfacet
endsolid b'MESH-MESH-MESH-MESH-MESH-MESH-MESH-MESH-MESH-MESH-MESH-MESH-MESH-MESH-MESH-MESH'
