solid b'MESH-MESH-MESH-MESH-MESH-MESH-MESH-MESH-MESH-MESH-MESH-MESH-MESH-MESH-MESH-MESH'
facet normal -0.007499 -0.061243 0.000000
  outer loop
    vertex -9.817661 -3.857105 -95.413124
    vertex -9.817661 -3.857105 -95.393127
    vertex -12.880303 -3.482093 -95.393127
  endloop
endfacet
facet normal -0.009591 -0.060950 0.000000
  outer loop
    vertex -12.880303 -3.482093 -95.413124
    vertex -12.880303 -3.482093 -95.393127
    vertex -15.928311 -3.002452 -95.393127
  endloop
endfacet
facet normal -0.007499 -0.061243 0.000000
  outer loop
    vertex -12.880303 -3.482093 -95.413124
    vertex -9.817661 -3.857105 -95.413124
    vertex -12.880303 -3.482093 -95.393127
  endloop
endfacet
facet normal -0.009591 -0.060950 0.000000
  outer loop
    vertex -15.928311 -3.002452 -95.413124
    vertex -12.880303 -3.482093 -95.413124
    vertex -15.928311 -3.002452 -95.393127
  endloop
endfacet
facet normal -0.011672 -0.060586 0.000000
  outer loop
    vertex -18.958113 -2.418744 -95.413124
    vertex -15.928311 -3.002452 -95.393127
    vertex -18.958113 -2.418744 -95.393127
  endloop
endfacet
facet normal -0.011672 -0.060586 0.000000
  outer loop
    vertex -18.958113 -2.418744 -95.413124
    vertex -15.928311 -3.002452 -95.413124
    vertex -15.928311 -3.002452 -95.393127
  endloop
endfacet
facet normal -0.000978 0.000206 0.000000
  outer loop
    vertex -18.958113 -2.418744 -95.393127
    vertex -18.947815 -2.369816 -95.413124
    vertex -18.958113 -2.418744 -95.413124
  endloop
endfacet
facet normal -0.000978 0.000206 0.000000
  outer loop
    vertex -18.958113 -2.418744 -95.393127
    vertex -18.947815 -2.369816 -95.393127
    vertex -18.947815 -2.369816 -95.413124
  endloop
endfacet
facet normal 0.007495 0.061209 0.000000
  outer loop
    vertex -9.812435 -3.807379 -95.393127
    vertex -9.812435 -3.807379 -95.413124
    vertex -12.873378 -3.432575 -95.393127
  endloop
endfacet
facet normal 0.009586 0.060916 0.000000
  outer loop
    vertex -12.873378 -3.432575 -95.393127
    vertex -12.873378 -3.432575 -95.413124
    vertex -15.919694 -2.953200 -95.393127
  endloop
endfacet
facet normal 0.007495 0.061209 0.000000
  outer loop
    vertex -9.812435 -3.807379 -95.413124
    vertex -12.873378 -3.432575 -95.413124
    vertex -12.873378 -3.432575 -95.393127
  endloop
endfacet
facet normal 0.009586 0.060916 0.000000
  outer loop
    vertex -12.873378 -3.432575 -95.413124
    vertex -15.919694 -2.953200 -95.413124
    vertex -15.919694 -2.953200 -95.393127
  endloop
endfacet
facet normal 0.011666 0.060552 0.000000
  outer loop
    vertex -15.919694 -2.953200 -95.393127
    vertex -18.947815 -2.369816 -95.413124
    vertex -18.947815 -2.369816 -95.393127
  endloop
endfacet
facet normal 0.011666 0.060552 -0.000000
  outer loop
    vertex -15.919694 -2.953200 -95.413124
    vertex -18.947815 -2.369816 -95.413124
    vertex -15.919694 -2.953200 -95.393127
  endloop
endfacet
facet normal 0.000994 -0.000105 0.000000
  outer loop
    vertex -9.812435 -3.807379 -95.413124
    vertex -9.817661 -3.857105 -95.393127
    vertex -9.817661 -3.857105 -95.413124
  endloop
endfacet
facet normal 0.000994 -0.000105 0.000000
  outer loop
    vertex -9.812435 -3.807379 -95.393127
    vertex -9.817661 -3.857105 -95.393127
    vertex -9.812435 -3.807379 -95.413124
  endloop
endfacet
facet normal 0.000000 0.000000 0.154168
  outer loop
    vertex -15.919694 -2.953200 -95.393127
    vertex -18.947815 -2.369816 -95.393127
    vertex -18.958113 -2.418744 -95.393127
  endloop
endfacet
facet normal 0.000000 -0.000000 0.154254
  outer loop
    vertex -15.928311 -3.002452 -95.393127
    vertex -15.919694 -2.953200 -95.393127
    vertex -18.958113 -2.418744 -95.393127
  endloop
endfacet
facet normal 0.000000 0.000000 0.154168
  outer loop
    vertex -12.873378 -3.432575 -95.393127
    vertex -15.919694 -2.953200 -95.393127
    vertex -15.928311 -3.002452 -95.393127
  endloop
endfacet
facet normal 0.000000 -0.000000 0.154253
  outer loop
    vertex -12.880303 -3.482093 -95.393127
    vertex -12.873378 -3.432575 -95.393127
    vertex -15.928311 -3.002452 -95.393127
  endloop
endfacet
facet normal 0.000000 0.000000 0.154167
  outer loop
    vertex -9.812435 -3.807379 -95.393127
    vertex -12.873378 -3.432575 -95.393127
    vertex -12.880303 -3.482093 -95.393127
  endloop
endfacet
facet normal 0.000000 -0.000000 0.154254
  outer loop
    vertex -9.817661 -3.857105 -95.393127
    vertex -9.812435 -3.807379 -95.393127
    vertex -12.880303 -3.482093 -95.393127
  endloop
endfacet
facet normal 0.000000 -0.000000 -0.154168
  outer loop
    vertex -18.947815 -2.369816 -95.413124
    vertex -15.919694 -2.953200 -95.413124
    vertex -18.958113 -2.418744 -95.413124
  endloop
endfacet
facet normal -0.000000 0.000000 -0.154254
  outer loop
    vertex -15.919694 -2.953200 -95.413124
    vertex -15.928311 -3.002452 -95.413124
    vertex -18.958113 -2.418744 -95.413124
  endloop
endfacet
facet normal 0.000000 -0.000000 -0.154168
  outer loop
    vertex -15.919694 -2.953200 -95.413124
    vertex -12.873378 -3.432575 -95.413124
    vertex -15.928311 -3.002452 -95.413124
  endloop
endfacet
facet normal -0.000000 0.000000 -0.154253
  outer loop
    vertex -12.873378 -3.432575 -95.413124
    vertex -12.880303 -3.482093 -95.413124
    vertex -15.928311 -3.002452 -95.413124
  endloop
endfacet
facet normal -0.000000 0.000000 -0.154168
  outer loop
    vertex -9.812435 -3.807379 -95.413124
    vertex -9.817661 -3.857105 -95.413124
    vertex -12.873378 -3.432575 -95.413124
  endloop
endfacet
facet normal 0.000000 -0.000000 -0.154253
  outer loop
    vertex -12.873378 -3.432575 -95.413124
    vertex -9.817661 -3.857105 -95.413124
    vertex -12.880303 -3.482093 -95.413124
  endloop
endfacet
endsolid b'MESH-MESH-MESH-MESH-MESH-MESH-MESH-MESH-MESH-MESH-MESH-MESH-MESH-MESH-MESH-MESH'
