solid b'MESH-MESH-MESH-MESH-MESH-MESH-MESH-MESH-MESH-MESH-MESH-MESH-MESH-MESH-MESH-MESH'
facet normal -0.001181 -0.061759 0.000000
  outer loop
    vertex -3.662835 -4.291607 -262.905914
    vertex -0.577883 -4.350586 -262.905914
    vertex -0.577883 -4.350586 -262.885895
  endloop
endfacet
facet normal -0.001181 -0.061759 0.000000
  outer loop
    vertex -3.662835 -4.291607 -262.905914
    vertex -0.577883 -4.350586 -262.885895
    vertex -3.662835 -4.291607 -262.885895
  endloop
endfacet
facet normal -0.003294 -0.061683 0.000000
  outer loop
    vertex -6.743960 -4.127049 -262.905914
    vertex -3.662835 -4.291607 -262.885895
    vertex -6.743960 -4.127049 -262.885895
  endloop
endfacet
facet normal -0.005404 -0.061534 0.000000
  outer loop
    vertex -6.743960 -4.127049 -262.905914
    vertex -6.743960 -4.127049 -262.885895
    vertex -9.817645 -3.857106 -262.885895
  endloop
endfacet
facet normal -0.003294 -0.061683 0.000000
  outer loop
    vertex -6.743960 -4.127049 -262.905914
    vertex -3.662835 -4.291607 -262.905914
    vertex -3.662835 -4.291607 -262.885895
  endloop
endfacet
facet normal -0.005404 -0.061534 0.000000
  outer loop
    vertex -9.817645 -3.857106 -262.905914
    vertex -6.743960 -4.127049 -262.905914
    vertex -9.817645 -3.857106 -262.885895
  endloop
endfacet
facet normal -0.000995 0.000105 0.000000
  outer loop
    vertex -9.817645 -3.857106 -262.885895
    vertex -9.812419 -3.807380 -262.905914
    vertex -9.817645 -3.857106 -262.905914
  endloop
endfacet
facet normal -0.000995 0.000105 0.000000
  outer loop
    vertex -9.817645 -3.857106 -262.885895
    vertex -9.812419 -3.807380 -262.885895
    vertex -9.812419 -3.807380 -262.905914
  endloop
endfacet
facet normal 0.001180 0.061725 0.000000
  outer loop
    vertex -0.577783 -4.300587 -262.885895
    vertex -3.661024 -4.241640 -262.905914
    vertex -3.661024 -4.241640 -262.885895
  endloop
endfacet
facet normal 0.003293 0.061648 0.000000
  outer loop
    vertex -3.661024 -4.241640 -262.885895
    vertex -3.661024 -4.241640 -262.905914
    vertex -6.740439 -4.077173 -262.885895
  endloop
endfacet
facet normal 0.001180 0.061725 -0.000000
  outer loop
    vertex -0.577783 -4.300587 -262.905914
    vertex -3.661024 -4.241640 -262.905914
    vertex -0.577783 -4.300587 -262.885895
  endloop
endfacet
facet normal 0.005401 0.061500 0.000000
  outer loop
    vertex -6.740439 -4.077173 -262.885895
    vertex -6.740439 -4.077173 -262.905914
    vertex -9.812419 -3.807380 -262.885895
  endloop
endfacet
facet normal 0.003293 0.061648 0.000000
  outer loop
    vertex -3.661024 -4.241640 -262.905914
    vertex -6.740439 -4.077173 -262.905914
    vertex -6.740439 -4.077173 -262.885895
  endloop
endfacet
facet normal 0.005401 0.061500 0.000000
  outer loop
    vertex -6.740439 -4.077173 -262.905914
    vertex -9.812419 -3.807380 -262.905914
    vertex -9.812419 -3.807380 -262.885895
  endloop
endfacet
facet normal 0.001001 -0.000002 0.000000
  outer loop
    vertex -0.577783 -4.300587 -262.885895
    vertex -0.577883 -4.350586 -262.905914
    vertex -0.577783 -4.300587 -262.905914
  endloop
endfacet
facet normal 0.001001 -0.000002 0.000000
  outer loop
    vertex -0.577783 -4.300587 -262.885895
    vertex -0.577883 -4.350586 -262.885895
    vertex -0.577883 -4.350586 -262.905914
  endloop
endfacet
facet normal 0.000000 -0.000000 0.154169
  outer loop
    vertex -6.743960 -4.127049 -262.885895
    vertex -6.740439 -4.077173 -262.885895
    vertex -9.812419 -3.807380 -262.885895
  endloop
endfacet
facet normal 0.000000 0.000000 0.154253
  outer loop
    vertex -6.743960 -4.127049 -262.885895
    vertex -9.812419 -3.807380 -262.885895
    vertex -9.817645 -3.857106 -262.885895
  endloop
endfacet
facet normal 0.000000 -0.000000 0.154168
  outer loop
    vertex -3.662835 -4.291607 -262.885895
    vertex -3.661024 -4.241640 -262.885895
    vertex -6.740439 -4.077173 -262.885895
  endloop
endfacet
facet normal 0.000000 0.000000 0.154254
  outer loop
    vertex -3.662835 -4.291607 -262.885895
    vertex -6.740439 -4.077173 -262.885895
    vertex -6.743960 -4.127049 -262.885895
  endloop
endfacet
facet normal 0.000000 -0.000000 0.154167
  outer loop
    vertex -0.577883 -4.350586 -262.885895
    vertex -0.577783 -4.300587 -262.885895
    vertex -3.661024 -4.241640 -262.885895
  endloop
endfacet
facet normal 0.000000 0.000000 0.154254
  outer loop
    vertex -0.577883 -4.350586 -262.885895
    vertex -3.661024 -4.241640 -262.885895
    vertex -3.662835 -4.291607 -262.885895
  endloop
endfacet
facet normal 0.000000 -0.000000 -0.154167
  outer loop
    vertex -9.812419 -3.807380 -262.905914
    vertex -6.740439 -4.077173 -262.905914
    vertex -9.817645 -3.857106 -262.905914
  endloop
endfacet
facet normal -0.000000 0.000000 -0.154254
  outer loop
    vertex -6.740439 -4.077173 -262.905914
    vertex -6.743960 -4.127049 -262.905914
    vertex -9.817645 -3.857106 -262.905914
  endloop
endfacet
facet normal 0.000000 -0.000000 -0.154169
  outer loop
    vertex -6.740439 -4.077173 -262.905914
    vertex -3.661024 -4.241640 -262.905914
    vertex -6.743960 -4.127049 -262.905914
  endloop
endfacet
facet normal -0.000000 0.000000 -0.154254
  outer loop
    vertex -3.661024 -4.241640 -262.905914
    vertex -3.662835 -4.291607 -262.905914
    vertex -6.743960 -4.127049 -262.905914
  endloop
endfacet
facet normal 0.000000 -0.000000 -0.154168
  outer loop
    vertex -3.661024 -4.241640 -262.905914
    vertex -0.577783 -4.300587 -262.905914
    vertex -3.662835 -4.291607 -262.905914
  endloop
endfacet
facet normal -0.000000 0.000000 -0.154253
  outer loop
    vertex -0.577783 -4.300587 -262.905914
    vertex -0.577883 -4.350586 -262.905914
    vertex -3.662835 -4.291607 -262.905914
  endloop
endfacet
endsolid b'MESH-MESH-MESH-MESH-MESH-MESH-MESH-MESH-MESH-MESH-MESH-MESH-MESH-MESH-MESH-MESH'
