solid b'MESH-MESH-MESH-MESH-MESH-MESH-MESH-MESH-MESH-MESH-MESH-MESH-MESH-MESH-MESH-MESH'
facet normal -0.007496 0.061219 0.000000
  outer loop
    vertex -12.880309 3.482092 -217.388885
    vertex -9.817667 3.857104 -217.388885
    vertex -9.817667 3.857104 -217.408875
  endloop
endfacet
facet normal -0.007496 0.061219 0.000000
  outer loop
    vertex -12.880309 3.482092 -217.388885
    vertex -9.817667 3.857104 -217.408875
    vertex -12.880309 3.482092 -217.408875
  endloop
endfacet
facet normal -0.009588 0.060927 0.000000
  outer loop
    vertex -15.928317 3.002450 -217.388885
    vertex -12.880309 3.482092 -217.408875
    vertex -15.928317 3.002450 -217.408875
  endloop
endfacet
facet normal -0.011668 0.060563 0.000000
  outer loop
    vertex -15.928317 3.002450 -217.388885
    vertex -15.928317 3.002450 -217.408875
    vertex -18.958118 2.418743 -217.408875
  endloop
endfacet
facet normal -0.009588 0.060927 0.000000
  outer loop
    vertex -15.928317 3.002450 -217.388885
    vertex -12.880309 3.482092 -217.388885
    vertex -12.880309 3.482092 -217.408875
  endloop
endfacet
facet normal -0.011668 0.060563 0.000000
  outer loop
    vertex -18.958118 2.418743 -217.388885
    vertex -15.928317 3.002450 -217.388885
    vertex -18.958118 2.418743 -217.408875
  endloop
endfacet
facet normal -0.000978 -0.000206 0.000000
  outer loop
    vertex -18.947819 2.369815 -217.408875
    vertex -18.958118 2.418743 -217.388885
    vertex -18.958118 2.418743 -217.408875
  endloop
endfacet
facet normal -0.000978 -0.000206 -0.000000
  outer loop
    vertex -18.947819 2.369815 -217.388885
    vertex -18.958118 2.418743 -217.388885
    vertex -18.947819 2.369815 -217.408875
  endloop
endfacet
facet normal 0.007492 -0.061185 0.000000
  outer loop
    vertex -9.812441 3.807378 -217.408875
    vertex -12.873383 3.432574 -217.388885
    vertex -12.873383 3.432574 -217.408875
  endloop
endfacet
facet normal 0.007492 -0.061185 0.000000
  outer loop
    vertex -9.812441 3.807378 -217.388885
    vertex -12.873383 3.432574 -217.388885
    vertex -9.812441 3.807378 -217.408875
  endloop
endfacet
facet normal 0.009582 -0.060893 0.000000
  outer loop
    vertex -12.873383 3.432574 -217.408875
    vertex -15.919700 2.953199 -217.388885
    vertex -15.919700 2.953199 -217.408875
  endloop
endfacet
facet normal 0.011661 -0.060529 0.000000
  outer loop
    vertex -15.919700 2.953199 -217.408875
    vertex -15.919700 2.953199 -217.388885
    vertex -18.947819 2.369815 -217.408875
  endloop
endfacet
facet normal 0.009582 -0.060893 0.000000
  outer loop
    vertex -12.873383 3.432574 -217.388885
    vertex -15.919700 2.953199 -217.388885
    vertex -12.873383 3.432574 -217.408875
  endloop
endfacet
facet normal 0.011661 -0.060529 0.000000
  outer loop
    vertex -15.919700 2.953199 -217.388885
    vertex -18.947819 2.369815 -217.388885
    vertex -18.947819 2.369815 -217.408875
  endloop
endfacet
facet normal 0.000994 0.000104 0.000000
  outer loop
    vertex -9.817667 3.857104 -217.388885
    vertex -9.812441 3.807378 -217.388885
    vertex -9.812441 3.807378 -217.408875
  endloop
endfacet
facet normal 0.000994 0.000104 0.000000
  outer loop
    vertex -9.817667 3.857104 -217.388885
    vertex -9.812441 3.807378 -217.408875
    vertex -9.817667 3.857104 -217.408875
  endloop
endfacet
facet normal 0.000000 -0.000000 0.154169
  outer loop
    vertex -18.947819 2.369815 -217.388885
    vertex -15.919700 2.953199 -217.388885
    vertex -18.958118 2.418743 -217.388885
  endloop
endfacet
facet normal 0.000000 0.000000 0.154253
  outer loop
    vertex -15.919700 2.953199 -217.388885
    vertex -15.928317 3.002450 -217.388885
    vertex -18.958118 2.418743 -217.388885
  endloop
endfacet
facet normal 0.000000 -0.000000 0.154168
  outer loop
    vertex -15.919700 2.953199 -217.388885
    vertex -12.873383 3.432574 -217.388885
    vertex -15.928317 3.002450 -217.388885
  endloop
endfacet
facet normal 0.000000 0.000000 0.154253
  outer loop
    vertex -12.873383 3.432574 -217.388885
    vertex -12.880309 3.482092 -217.388885
    vertex -15.928317 3.002450 -217.388885
  endloop
endfacet
facet normal 0.000000 -0.000000 0.154167
  outer loop
    vertex -12.873383 3.432574 -217.388885
    vertex -9.812441 3.807378 -217.388885
    vertex -12.880309 3.482092 -217.388885
  endloop
endfacet
facet normal 0.000000 0.000000 0.154253
  outer loop
    vertex -9.812441 3.807378 -217.388885
    vertex -9.817667 3.857104 -217.388885
    vertex -12.880309 3.482092 -217.388885
  endloop
endfacet
facet normal 0.000000 0.000000 -0.154169
  outer loop
    vertex -15.919700 2.953199 -217.408875
    vertex -18.947819 2.369815 -217.408875
    vertex -18.958118 2.418743 -217.408875
  endloop
endfacet
facet normal 0.000000 -0.000000 -0.154253
  outer loop
    vertex -15.928317 3.002450 -217.408875
    vertex -15.919700 2.953199 -217.408875
    vertex -18.958118 2.418743 -217.408875
  endloop
endfacet
facet normal 0.000000 0.000000 -0.154168
  outer loop
    vertex -12.873383 3.432574 -217.408875
    vertex -15.919700 2.953199 -217.408875
    vertex -15.928317 3.002450 -217.408875
  endloop
endfacet
facet normal 0.000000 -0.000000 -0.154253
  outer loop
    vertex -12.880309 3.482092 -217.408875
    vertex -12.873383 3.432574 -217.408875
    vertex -15.928317 3.002450 -217.408875
  endloop
endfacet
facet normal 0.000000 -0.000000 -0.154167
  outer loop
    vertex -9.817667 3.857104 -217.408875
    vertex -9.812441 3.807378 -217.408875
    vertex -12.873383 3.432574 -217.408875
  endloop
endfacet
facet normal 0.000000 0.000000 -0.154253
  outer loop
    vertex -9.817667 3.857104 -217.408875
    vertex -12.873383 3.432574 -217.408875
    vertex -12.880309 3.482092 -217.408875
  endloop
endfacet
endsolid b'MESH-MESH-MESH-MESH-MESH-MESH-MESH-MESH-MESH-MESH-MESH-MESH-MESH-MESH-MESH-MESH'
