solid b'MESH-MESH-MESH-MESH-MESH-MESH-MESH-MESH-MESH-MESH-MESH-MESH-MESH-MESH-MESH-MESH'
facet normal -0.007500 0.061254 0.000000
  outer loop
    vertex -12.880288 3.482094 18.676306
    vertex -9.817646 3.857106 18.676306
    vertex -9.817646 3.857106 18.656305
  endloop
endfacet
facet normal -0.007500 0.061254 0.000000
  outer loop
    vertex -12.880288 3.482094 18.676306
    vertex -9.817646 3.857106 18.656305
    vertex -12.880288 3.482094 18.656305
  endloop
endfacet
facet normal -0.009593 0.060962 0.000000
  outer loop
    vertex -15.928296 3.002454 18.676306
    vertex -12.880288 3.482094 18.656305
    vertex -15.928296 3.002454 18.656305
  endloop
endfacet
facet normal -0.011674 0.060597 0.000000
  outer loop
    vertex -15.928296 3.002454 18.676306
    vertex -15.928296 3.002454 18.656305
    vertex -18.958097 2.418747 18.656305
  endloop
endfacet
facet normal -0.009593 0.060962 0.000000
  outer loop
    vertex -15.928296 3.002454 18.676306
    vertex -12.880288 3.482094 18.676306
    vertex -12.880288 3.482094 18.656305
  endloop
endfacet
facet normal -0.011674 0.060597 0.000000
  outer loop
    vertex -18.958097 2.418747 18.676306
    vertex -15.928296 3.002454 18.676306
    vertex -18.958097 2.418747 18.656305
  endloop
endfacet
facet normal -0.000979 -0.000206 0.000000
  outer loop
    vertex -18.958097 2.418747 18.676306
    vertex -18.947800 2.369819 18.656305
    vertex -18.947800 2.369819 18.676306
  endloop
endfacet
facet normal -0.000979 -0.000206 0.000000
  outer loop
    vertex -18.958097 2.418747 18.656305
    vertex -18.947800 2.369819 18.656305
    vertex -18.958097 2.418747 18.676306
  endloop
endfacet
facet normal 0.007496 -0.061220 0.000000
  outer loop
    vertex -9.812420 3.807380 18.656305
    vertex -12.873363 3.432576 18.676306
    vertex -12.873363 3.432576 18.656305
  endloop
endfacet
facet normal 0.009588 -0.060928 0.000000
  outer loop
    vertex -12.873363 3.432576 18.656305
    vertex -12.873363 3.432576 18.676306
    vertex -15.919679 2.953202 18.656305
  endloop
endfacet
facet normal 0.007496 -0.061220 0.000000
  outer loop
    vertex -9.812420 3.807380 18.676306
    vertex -12.873363 3.432576 18.676306
    vertex -9.812420 3.807380 18.656305
  endloop
endfacet
facet normal 0.011668 -0.060564 0.000000
  outer loop
    vertex -15.919679 2.953202 18.656305
    vertex -15.919679 2.953202 18.676306
    vertex -18.947800 2.369819 18.656305
  endloop
endfacet
facet normal 0.009588 -0.060928 0.000000
  outer loop
    vertex -12.873363 3.432576 18.676306
    vertex -15.919679 2.953202 18.676306
    vertex -15.919679 2.953202 18.656305
  endloop
endfacet
facet normal 0.011668 -0.060564 0.000000
  outer loop
    vertex -15.919679 2.953202 18.676306
    vertex -18.947800 2.369819 18.676306
    vertex -18.947800 2.369819 18.656305
  endloop
endfacet
facet normal 0.000995 0.000105 -0.000000
  outer loop
    vertex -9.812420 3.807380 18.656305
    vertex -9.817646 3.857106 18.676306
    vertex -9.812420 3.807380 18.676306
  endloop
endfacet
facet normal 0.000995 0.000105 0.000000
  outer loop
    vertex -9.812420 3.807380 18.656305
    vertex -9.817646 3.857106 18.656305
    vertex -9.817646 3.857106 18.676306
  endloop
endfacet
facet normal 0.000000 -0.000000 -0.154168
  outer loop
    vertex -15.928296 3.002454 18.656305
    vertex -15.919679 2.953202 18.656305
    vertex -18.947800 2.369819 18.656305
  endloop
endfacet
facet normal 0.000000 0.000000 -0.154253
  outer loop
    vertex -15.928296 3.002454 18.656305
    vertex -18.947800 2.369819 18.656305
    vertex -18.958097 2.418747 18.656305
  endloop
endfacet
facet normal 0.000000 -0.000000 -0.154167
  outer loop
    vertex -12.880288 3.482094 18.656305
    vertex -12.873363 3.432576 18.656305
    vertex -15.919679 2.953202 18.656305
  endloop
endfacet
facet normal 0.000000 0.000000 -0.154253
  outer loop
    vertex -12.880288 3.482094 18.656305
    vertex -15.919679 2.953202 18.656305
    vertex -15.928296 3.002454 18.656305
  endloop
endfacet
facet normal 0.000000 -0.000000 -0.154167
  outer loop
    vertex -9.817646 3.857106 18.656305
    vertex -9.812420 3.807380 18.656305
    vertex -12.873363 3.432576 18.656305
  endloop
endfacet
facet normal 0.000000 0.000000 -0.154253
  outer loop
    vertex -9.817646 3.857106 18.656305
    vertex -12.873363 3.432576 18.656305
    vertex -12.880288 3.482094 18.656305
  endloop
endfacet
facet normal 0.000000 0.000000 0.154168
  outer loop
    vertex -15.919679 2.953202 18.676306
    vertex -15.928296 3.002454 18.676306
    vertex -18.947800 2.369819 18.676306
  endloop
endfacet
facet normal 0.000000 -0.000000 0.154253
  outer loop
    vertex -18.947800 2.369819 18.676306
    vertex -15.928296 3.002454 18.676306
    vertex -18.958097 2.418747 18.676306
  endloop
endfacet
facet normal 0.000000 0.000000 0.154167
  outer loop
    vertex -12.873363 3.432576 18.676306
    vertex -12.880288 3.482094 18.676306
    vertex -15.919679 2.953202 18.676306
  endloop
endfacet
facet normal 0.000000 -0.000000 0.154253
  outer loop
    vertex -15.919679 2.953202 18.676306
    vertex -12.880288 3.482094 18.676306
    vertex -15.928296 3.002454 18.676306
  endloop
endfacet
facet normal 0.000000 -0.000000 0.154167
  outer loop
    vertex -12.873363 3.432576 18.676306
    vertex -9.812420 3.807380 18.676306
    vertex -12.880288 3.482094 18.676306
  endloop
endfacet
facet normal 0.000000 0.000000 0.154253
  outer loop
    vertex -9.812420 3.807380 18.676306
    vertex -9.817646 3.857106 18.676306
    vertex -12.880288 3.482094 18.676306
  endloop
endfacet
endsolid b'MESH-MESH-MESH-MESH-MESH-MESH-MESH-MESH-MESH-MESH-MESH-MESH-MESH-MESH-MESH-MESH'
