solid b'MESH-MESH-MESH-MESH-MESH-MESH-MESH-MESH-MESH-MESH-MESH-MESH-MESH-MESH-MESH-MESH'
facet normal -0.007502 0.061266 0.000000
  outer loop
    vertex -12.880307 3.482092 94.507309
    vertex -9.817665 3.857104 94.507309
    vertex -9.817665 3.857104 94.487305
  endloop
endfacet
facet normal -0.007502 0.061266 0.000000
  outer loop
    vertex -12.880307 3.482092 94.507309
    vertex -9.817665 3.857104 94.487305
    vertex -12.880307 3.482092 94.487305
  endloop
endfacet
facet normal -0.009595 0.060973 0.000000
  outer loop
    vertex -12.880307 3.482092 94.507309
    vertex -12.880307 3.482092 94.487305
    vertex -15.928315 3.002451 94.487305
  endloop
endfacet
facet normal -0.009595 0.060973 0.000000
  outer loop
    vertex -15.928315 3.002451 94.507309
    vertex -12.880307 3.482092 94.507309
    vertex -15.928315 3.002451 94.487305
  endloop
endfacet
facet normal -0.011677 0.060609 0.000000
  outer loop
    vertex -18.958117 2.418744 94.507309
    vertex -15.928315 3.002451 94.487305
    vertex -18.958117 2.418744 94.487305
  endloop
endfacet
facet normal -0.011677 0.060609 0.000000
  outer loop
    vertex -18.958117 2.418744 94.507309
    vertex -15.928315 3.002451 94.507309
    vertex -15.928315 3.002451 94.487305
  endloop
endfacet
facet normal -0.000979 -0.000206 0.000000
  outer loop
    vertex -18.958117 2.418744 94.487305
    vertex -18.947819 2.369816 94.507309
    vertex -18.958117 2.418744 94.507309
  endloop
endfacet
facet normal -0.000979 -0.000206 0.000000
  outer loop
    vertex -18.958117 2.418744 94.487305
    vertex -18.947819 2.369816 94.487305
    vertex -18.947819 2.369816 94.507309
  endloop
endfacet
facet normal 0.007498 -0.061232 0.000000
  outer loop
    vertex -9.812439 3.807378 94.487305
    vertex -9.812439 3.807378 94.507309
    vertex -12.873381 3.432574 94.487305
  endloop
endfacet
facet normal 0.009590 -0.060939 0.000000
  outer loop
    vertex -12.873381 3.432574 94.487305
    vertex -12.873381 3.432574 94.507309
    vertex -15.919698 2.953199 94.487305
  endloop
endfacet
facet normal 0.007498 -0.061232 0.000000
  outer loop
    vertex -9.812439 3.807378 94.507309
    vertex -12.873381 3.432574 94.507309
    vertex -12.873381 3.432574 94.487305
  endloop
endfacet
facet normal 0.009590 -0.060939 0.000000
  outer loop
    vertex -12.873381 3.432574 94.507309
    vertex -15.919698 2.953199 94.507309
    vertex -15.919698 2.953199 94.487305
  endloop
endfacet
facet normal 0.011670 -0.060575 0.000000
  outer loop
    vertex -15.919698 2.953199 94.487305
    vertex -18.947819 2.369816 94.507309
    vertex -18.947819 2.369816 94.487305
  endloop
endfacet
facet normal 0.011670 -0.060575 0.000000
  outer loop
    vertex -15.919698 2.953199 94.507309
    vertex -18.947819 2.369816 94.507309
    vertex -15.919698 2.953199 94.487305
  endloop
endfacet
facet normal 0.000995 0.000105 0.000000
  outer loop
    vertex -9.812439 3.807378 94.507309
    vertex -9.817665 3.857104 94.487305
    vertex -9.817665 3.857104 94.507309
  endloop
endfacet
facet normal 0.000995 0.000105 -0.000000
  outer loop
    vertex -9.812439 3.807378 94.487305
    vertex -9.817665 3.857104 94.487305
    vertex -9.812439 3.807378 94.507309
  endloop
endfacet
facet normal 0.000000 0.000000 -0.154168
  outer loop
    vertex -15.919698 2.953199 94.487305
    vertex -18.947819 2.369816 94.487305
    vertex -18.958117 2.418744 94.487305
  endloop
endfacet
facet normal 0.000000 -0.000000 -0.154254
  outer loop
    vertex -15.928315 3.002451 94.487305
    vertex -15.919698 2.953199 94.487305
    vertex -18.958117 2.418744 94.487305
  endloop
endfacet
facet normal 0.000000 0.000000 -0.154168
  outer loop
    vertex -12.873381 3.432574 94.487305
    vertex -15.919698 2.953199 94.487305
    vertex -15.928315 3.002451 94.487305
  endloop
endfacet
facet normal 0.000000 -0.000000 -0.154254
  outer loop
    vertex -12.880307 3.482092 94.487305
    vertex -12.873381 3.432574 94.487305
    vertex -15.928315 3.002451 94.487305
  endloop
endfacet
facet normal 0.000000 0.000000 -0.154168
  outer loop
    vertex -9.812439 3.807378 94.487305
    vertex -12.873381 3.432574 94.487305
    vertex -12.880307 3.482092 94.487305
  endloop
endfacet
facet normal 0.000000 -0.000000 -0.154253
  outer loop
    vertex -9.817665 3.857104 94.487305
    vertex -9.812439 3.807378 94.487305
    vertex -12.880307 3.482092 94.487305
  endloop
endfacet
facet normal 0.000000 -0.000000 0.154168
  outer loop
    vertex -18.947819 2.369816 94.507309
    vertex -15.919698 2.953199 94.507309
    vertex -18.958117 2.418744 94.507309
  endloop
endfacet
facet normal 0.000000 0.000000 0.154254
  outer loop
    vertex -15.919698 2.953199 94.507309
    vertex -15.928315 3.002451 94.507309
    vertex -18.958117 2.418744 94.507309
  endloop
endfacet
facet normal 0.000000 -0.000000 0.154168
  outer loop
    vertex -15.919698 2.953199 94.507309
    vertex -12.873381 3.432574 94.507309
    vertex -15.928315 3.002451 94.507309
  endloop
endfacet
facet normal 0.000000 0.000000 0.154254
  outer loop
    vertex -12.873381 3.432574 94.507309
    vertex -12.880307 3.482092 94.507309
    vertex -15.928315 3.002451 94.507309
  endloop
endfacet
facet normal 0.000000 -0.000000 0.154168
  outer loop
    vertex -12.873381 3.432574 94.507309
    vertex -9.812439 3.807378 94.507309
    vertex -12.880307 3.482092 94.507309
  endloop
endfacet
facet normal 0.000000 0.000000 0.154253
  outer loop
    vertex -9.812439 3.807378 94.507309
    vertex -9.817665 3.857104 94.507309
    vertex -12.880307 3.482092 94.507309
  endloop
endfacet
endsolid b'MESH-MESH-MESH-MESH-MESH-MESH-MESH-MESH-MESH-MESH-MESH-MESH-MESH-MESH-MESH-MESH'
