solid b'MESH-MESH-MESH-MESH-MESH-MESH-MESH-MESH-MESH-MESH-MESH-MESH-MESH-MESH-MESH-MESH'
facet normal -0.049394 0.234253 -0.000000
  outer loop
    vertex -19.023338 2.404991 -367.369568
    vertex -18.958105 2.418746 -367.369568
    vertex -18.958105 2.418746 -370.960571
  endloop
endfacet
facet normal -0.049393 0.234253 0.000000
  outer loop
    vertex -19.023338 2.404991 -367.369568
    vertex -18.958105 2.418746 -370.960571
    vertex -19.023338 2.404991 -370.960571
  endloop
endfacet
facet normal -0.049567 0.234212 0.000000
  outer loop
    vertex -19.088560 2.391188 -367.369568
    vertex -19.023338 2.404991 -370.960571
    vertex -19.088560 2.391188 -370.960571
  endloop
endfacet
facet normal -0.049567 0.234212 0.000000
  outer loop
    vertex -19.088560 2.391188 -367.369568
    vertex -19.023338 2.404991 -367.369568
    vertex -19.023338 2.404991 -370.960571
  endloop
endfacet
facet normal -0.049740 0.234177 -0.000000
  outer loop
    vertex -19.153772 2.377337 -367.369568
    vertex -19.088560 2.391188 -370.960571
    vertex -19.153772 2.377337 -370.960571
  endloop
endfacet
facet normal -0.049740 0.234177 0.000000
  outer loop
    vertex -19.153772 2.377337 -367.369568
    vertex -19.088560 2.391188 -367.369568
    vertex -19.088560 2.391188 -370.960571
  endloop
endfacet
facet normal -0.175618 -0.037370 0.000000
  outer loop
    vertex -19.143366 2.328432 -367.369568
    vertex -19.153772 2.377337 -367.369568
    vertex -19.153772 2.377337 -370.960571
  endloop
endfacet
facet normal -0.175618 -0.037370 -0.000000
  outer loop
    vertex -19.143366 2.328432 -367.369568
    vertex -19.153772 2.377337 -370.960571
    vertex -19.143366 2.328432 -370.960571
  endloop
endfacet
facet normal 0.049365 -0.234123 0.000000
  outer loop
    vertex -18.947807 2.369818 -370.960571
    vertex -18.947807 2.369818 -367.369568
    vertex -19.013004 2.356071 -370.960571
  endloop
endfacet
facet normal 0.049366 -0.234123 0.000000
  outer loop
    vertex -18.947807 2.369818 -367.369568
    vertex -19.013004 2.356071 -367.369568
    vertex -19.013004 2.356071 -370.960571
  endloop
endfacet
facet normal 0.049539 -0.234082 0.000000
  outer loop
    vertex -19.013004 2.356071 -370.960571
    vertex -19.078190 2.342275 -367.369568
    vertex -19.078190 2.342275 -370.960571
  endloop
endfacet
facet normal 0.049539 -0.234082 0.000000
  outer loop
    vertex -19.013004 2.356071 -367.369568
    vertex -19.078190 2.342275 -367.369568
    vertex -19.013004 2.356071 -370.960571
  endloop
endfacet
facet normal 0.049712 -0.234047 0.000000
  outer loop
    vertex -19.078190 2.342275 -370.960571
    vertex -19.143366 2.328432 -367.369568
    vertex -19.143366 2.328432 -370.960571
  endloop
endfacet
facet normal 0.049712 -0.234047 0.000000
  outer loop
    vertex -19.078190 2.342275 -367.369568
    vertex -19.143366 2.328432 -367.369568
    vertex -19.078190 2.342275 -370.960571
  endloop
endfacet
facet normal 0.175701 0.036979 -0.000000
  outer loop
    vertex -18.947807 2.369818 -367.369568
    vertex -18.947807 2.369818 -370.960571
    vertex -18.958105 2.418746 -370.960571
  endloop
endfacet
facet normal 0.175701 0.036979 -0.000000
  outer loop
    vertex -18.958105 2.418746 -367.369568
    vertex -18.947807 2.369818 -367.369568
    vertex -18.958105 2.418746 -370.960571
  endloop
endfacet
facet normal 0.000000 -0.000000 0.003332
  outer loop
    vertex -19.143366 2.328432 -367.369568
    vertex -19.078190 2.342275 -367.369568
    vertex -19.153772 2.377337 -367.369568
  endloop
endfacet
facet normal 0.000000 0.000000 0.003333
  outer loop
    vertex -19.078190 2.342275 -367.369568
    vertex -19.088560 2.391188 -367.369568
    vertex -19.153772 2.377337 -367.369568
  endloop
endfacet
facet normal 0.000000 0.000000 0.003331
  outer loop
    vertex -19.013004 2.356071 -367.369568
    vertex -19.023338 2.404991 -367.369568
    vertex -19.078190 2.342275 -367.369568
  endloop
endfacet
facet normal 0.000000 -0.000000 0.003333
  outer loop
    vertex -19.078190 2.342275 -367.369568
    vertex -19.023338 2.404991 -367.369568
    vertex -19.088560 2.391188 -367.369568
  endloop
endfacet
facet normal 0.000000 0.000000 0.003332
  outer loop
    vertex -18.947807 2.369818 -367.369568
    vertex -18.958105 2.418746 -367.369568
    vertex -19.013004 2.356071 -367.369568
  endloop
endfacet
facet normal 0.000000 -0.000000 0.003333
  outer loop
    vertex -19.013004 2.356071 -367.369568
    vertex -18.958105 2.418746 -367.369568
    vertex -19.023338 2.404991 -367.369568
  endloop
endfacet
facet normal -0.000000 0.000000 -0.003331
  outer loop
    vertex -19.078190 2.342275 -370.960571
    vertex -19.143366 2.328432 -370.960571
    vertex -19.153772 2.377337 -370.960571
  endloop
endfacet
facet normal 0.000000 -0.000000 -0.003333
  outer loop
    vertex -19.088560 2.391188 -370.960571
    vertex -19.078190 2.342275 -370.960571
    vertex -19.153772 2.377337 -370.960571
  endloop
endfacet
facet normal 0.000000 -0.000000 -0.003331
  outer loop
    vertex -19.023338 2.404991 -370.960571
    vertex -19.013004 2.356071 -370.960571
    vertex -19.078190 2.342275 -370.960571
  endloop
endfacet
facet normal 0.000000 0.000000 -0.003333
  outer loop
    vertex -19.023338 2.404991 -370.960571
    vertex -19.078190 2.342275 -370.960571
    vertex -19.088560 2.391188 -370.960571
  endloop
endfacet
facet normal 0.000000 -0.000000 -0.003332
  outer loop
    vertex -18.958105 2.418746 -370.960571
    vertex -18.947807 2.369818 -370.960571
    vertex -19.013004 2.356071 -370.960571
  endloop
endfacet
facet normal 0.000000 0.000000 -0.003333
  outer loop
    vertex -18.958105 2.418746 -370.960571
    vertex -19.013004 2.356071 -370.960571
    vertex -19.023338 2.404991 -370.960571
  endloop
endfacet
endsolid b'MESH-MESH-MESH-MESH-MESH-MESH-MESH-MESH-MESH-MESH-MESH-MESH-MESH-MESH-MESH-MESH'
