solid b'MESH-MESH-MESH-MESH-MESH-MESH-MESH-MESH-MESH-MESH-MESH-MESH-MESH-MESH-MESH-MESH'
facet normal 0.049394 -0.234253 0.000000
  outer loop
    vertex 19.023333 -2.404992 -241.299911
    vertex 18.958099 -2.418747 -241.299911
    vertex 18.958099 -2.418747 -244.890915
  endloop
endfacet
facet normal 0.049394 -0.234253 0.000000
  outer loop
    vertex 19.023333 -2.404992 -241.299911
    vertex 18.958099 -2.418747 -244.890915
    vertex 19.023333 -2.404992 -244.890915
  endloop
endfacet
facet normal 0.049567 -0.234212 0.000000
  outer loop
    vertex 19.088554 -2.391189 -241.299911
    vertex 19.023333 -2.404992 -244.890915
    vertex 19.088554 -2.391189 -244.890915
  endloop
endfacet
facet normal 0.049567 -0.234212 0.000000
  outer loop
    vertex 19.088554 -2.391189 -241.299911
    vertex 19.023333 -2.404992 -241.299911
    vertex 19.023333 -2.404992 -244.890915
  endloop
endfacet
facet normal 0.049740 -0.234177 0.000000
  outer loop
    vertex 19.153767 -2.377338 -241.299911
    vertex 19.088554 -2.391189 -244.890915
    vertex 19.153767 -2.377338 -244.890915
  endloop
endfacet
facet normal 0.049740 -0.234177 0.000000
  outer loop
    vertex 19.153767 -2.377338 -241.299911
    vertex 19.088554 -2.391189 -241.299911
    vertex 19.088554 -2.391189 -244.890915
  endloop
endfacet
facet normal 0.175618 0.037370 0.000000
  outer loop
    vertex 19.143360 -2.328433 -241.299911
    vertex 19.153767 -2.377338 -241.299911
    vertex 19.153767 -2.377338 -244.890915
  endloop
endfacet
facet normal 0.175618 0.037370 0.000000
  outer loop
    vertex 19.143360 -2.328433 -241.299911
    vertex 19.153767 -2.377338 -244.890915
    vertex 19.143360 -2.328433 -244.890915
  endloop
endfacet
facet normal -0.049366 0.234123 0.000000
  outer loop
    vertex 18.947802 -2.369819 -244.890915
    vertex 18.947802 -2.369819 -241.299911
    vertex 19.012999 -2.356071 -244.890915
  endloop
endfacet
facet normal -0.049366 0.234123 0.000000
  outer loop
    vertex 18.947802 -2.369819 -241.299911
    vertex 19.012999 -2.356071 -241.299911
    vertex 19.012999 -2.356071 -244.890915
  endloop
endfacet
facet normal -0.049539 0.234082 0.000000
  outer loop
    vertex 19.012999 -2.356071 -244.890915
    vertex 19.078184 -2.342276 -241.299911
    vertex 19.078184 -2.342276 -244.890915
  endloop
endfacet
facet normal -0.049539 0.234082 0.000000
  outer loop
    vertex 19.012999 -2.356071 -241.299911
    vertex 19.078184 -2.342276 -241.299911
    vertex 19.012999 -2.356071 -244.890915
  endloop
endfacet
facet normal -0.049712 0.234047 0.000000
  outer loop
    vertex 19.078184 -2.342276 -244.890915
    vertex 19.143360 -2.328433 -241.299911
    vertex 19.143360 -2.328433 -244.890915
  endloop
endfacet
facet normal -0.049712 0.234047 0.000000
  outer loop
    vertex 19.078184 -2.342276 -241.299911
    vertex 19.143360 -2.328433 -241.299911
    vertex 19.078184 -2.342276 -244.890915
  endloop
endfacet
facet normal -0.175701 -0.036979 -0.000000
  outer loop
    vertex 18.947802 -2.369819 -241.299911
    vertex 18.947802 -2.369819 -244.890915
    vertex 18.958099 -2.418747 -244.890915
  endloop
endfacet
facet normal -0.175701 -0.036979 -0.000000
  outer loop
    vertex 18.958099 -2.418747 -241.299911
    vertex 18.947802 -2.369819 -241.299911
    vertex 18.958099 -2.418747 -244.890915
  endloop
endfacet
facet normal 0.000000 0.000000 0.003332
  outer loop
    vertex 19.143360 -2.328433 -241.299911
    vertex 19.078184 -2.342276 -241.299911
    vertex 19.153767 -2.377338 -241.299911
  endloop
endfacet
facet normal 0.000000 0.000000 0.003333
  outer loop
    vertex 19.078184 -2.342276 -241.299911
    vertex 19.088554 -2.391189 -241.299911
    vertex 19.153767 -2.377338 -241.299911
  endloop
endfacet
facet normal -0.000000 0.000000 0.003331
  outer loop
    vertex 19.012999 -2.356071 -241.299911
    vertex 19.023333 -2.404992 -241.299911
    vertex 19.078184 -2.342276 -241.299911
  endloop
endfacet
facet normal 0.000000 0.000000 0.003333
  outer loop
    vertex 19.078184 -2.342276 -241.299911
    vertex 19.023333 -2.404992 -241.299911
    vertex 19.088554 -2.391189 -241.299911
  endloop
endfacet
facet normal -0.000000 0.000000 0.003332
  outer loop
    vertex 18.947802 -2.369819 -241.299911
    vertex 18.958099 -2.418747 -241.299911
    vertex 19.012999 -2.356071 -241.299911
  endloop
endfacet
facet normal 0.000000 0.000000 0.003333
  outer loop
    vertex 19.012999 -2.356071 -241.299911
    vertex 18.958099 -2.418747 -241.299911
    vertex 19.023333 -2.404992 -241.299911
  endloop
endfacet
facet normal 0.000000 0.000000 -0.003332
  outer loop
    vertex 19.078184 -2.342276 -244.890915
    vertex 19.143360 -2.328433 -244.890915
    vertex 19.153767 -2.377338 -244.890915
  endloop
endfacet
facet normal 0.000000 0.000000 -0.003333
  outer loop
    vertex 19.088554 -2.391189 -244.890915
    vertex 19.078184 -2.342276 -244.890915
    vertex 19.153767 -2.377338 -244.890915
  endloop
endfacet
facet normal 0.000000 0.000000 -0.003331
  outer loop
    vertex 19.023333 -2.404992 -244.890915
    vertex 19.012999 -2.356071 -244.890915
    vertex 19.078184 -2.342276 -244.890915
  endloop
endfacet
facet normal 0.000000 0.000000 -0.003333
  outer loop
    vertex 19.023333 -2.404992 -244.890915
    vertex 19.078184 -2.342276 -244.890915
    vertex 19.088554 -2.391189 -244.890915
  endloop
endfacet
facet normal 0.000000 0.000000 -0.003332
  outer loop
    vertex 18.958099 -2.418747 -244.890915
    vertex 18.947802 -2.369819 -244.890915
    vertex 19.012999 -2.356071 -244.890915
  endloop
endfacet
facet normal 0.000000 0.000000 -0.003333
  outer loop
    vertex 18.958099 -2.418747 -244.890915
    vertex 19.012999 -2.356071 -244.890915
    vertex 19.023333 -2.404992 -244.890915
  endloop
endfacet
endsolid b'MESH-MESH-MESH-MESH-MESH-MESH-MESH-MESH-MESH-MESH-MESH-MESH-MESH-MESH-MESH-MESH'
