solid b'MESH-MESH-MESH-MESH-MESH-MESH-MESH-MESH-MESH-MESH-MESH-MESH-MESH-MESH-MESH-MESH'
facet normal -0.049393 0.234246 0.000000
  outer loop
    vertex -19.023348 2.404989 -195.802872
    vertex -18.958117 2.418744 -195.802872
    vertex -18.958117 2.418744 -199.393875
  endloop
endfacet
facet normal -0.049394 0.234246 -0.000000
  outer loop
    vertex -19.023348 2.404989 -195.802872
    vertex -18.958117 2.418744 -199.393875
    vertex -19.023348 2.404989 -199.393875
  endloop
endfacet
facet normal -0.049567 0.234212 -0.000000
  outer loop
    vertex -19.088570 2.391186 -195.802872
    vertex -19.023348 2.404989 -199.393875
    vertex -19.088570 2.391186 -199.393875
  endloop
endfacet
facet normal -0.049567 0.234212 -0.000000
  outer loop
    vertex -19.088570 2.391186 -195.802872
    vertex -19.023348 2.404989 -195.802872
    vertex -19.023348 2.404989 -199.393875
  endloop
endfacet
facet normal -0.049740 0.234177 0.000000
  outer loop
    vertex -19.153782 2.377335 -195.802872
    vertex -19.088570 2.391186 -199.393875
    vertex -19.153782 2.377335 -199.393875
  endloop
endfacet
facet normal -0.049740 0.234177 -0.000000
  outer loop
    vertex -19.153782 2.377335 -195.802872
    vertex -19.088570 2.391186 -195.802872
    vertex -19.088570 2.391186 -199.393875
  endloop
endfacet
facet normal -0.175618 -0.037370 0.000000
  outer loop
    vertex -19.143375 2.328430 -195.802872
    vertex -19.153782 2.377335 -195.802872
    vertex -19.153782 2.377335 -199.393875
  endloop
endfacet
facet normal -0.175618 -0.037370 0.000000
  outer loop
    vertex -19.143375 2.328430 -195.802872
    vertex -19.153782 2.377335 -199.393875
    vertex -19.143375 2.328429 -199.393875
  endloop
endfacet
facet normal 0.049366 -0.234116 0.000000
  outer loop
    vertex -18.947819 2.369816 -199.393875
    vertex -18.947819 2.369816 -195.802872
    vertex -19.013014 2.356068 -199.393875
  endloop
endfacet
facet normal 0.049365 -0.234116 0.000000
  outer loop
    vertex -18.947819 2.369816 -195.802872
    vertex -19.013014 2.356069 -195.802872
    vertex -19.013014 2.356068 -199.393875
  endloop
endfacet
facet normal 0.049539 -0.234082 0.000000
  outer loop
    vertex -19.013014 2.356068 -199.393875
    vertex -19.078199 2.342273 -195.802872
    vertex -19.078199 2.342273 -199.393875
  endloop
endfacet
facet normal 0.049539 -0.234082 0.000000
  outer loop
    vertex -19.013014 2.356069 -195.802872
    vertex -19.078199 2.342273 -195.802872
    vertex -19.013014 2.356068 -199.393875
  endloop
endfacet
facet normal 0.049712 -0.234047 0.000000
  outer loop
    vertex -19.078199 2.342273 -199.393875
    vertex -19.143375 2.328430 -195.802872
    vertex -19.143375 2.328429 -199.393875
  endloop
endfacet
facet normal 0.049712 -0.234047 0.000000
  outer loop
    vertex -19.078199 2.342273 -195.802872
    vertex -19.143375 2.328430 -195.802872
    vertex -19.078199 2.342273 -199.393875
  endloop
endfacet
facet normal 0.175701 0.036979 0.000000
  outer loop
    vertex -18.947819 2.369816 -195.802872
    vertex -18.947819 2.369816 -199.393875
    vertex -18.958117 2.418744 -199.393875
  endloop
endfacet
facet normal 0.175701 0.036979 0.000000
  outer loop
    vertex -18.958117 2.418744 -195.802872
    vertex -18.947819 2.369816 -195.802872
    vertex -18.958117 2.418744 -199.393875
  endloop
endfacet
facet normal 0.000000 -0.000000 0.003331
  outer loop
    vertex -19.143375 2.328430 -195.802872
    vertex -19.078199 2.342273 -195.802872
    vertex -19.153782 2.377335 -195.802872
  endloop
endfacet
facet normal 0.000000 0.000000 0.003333
  outer loop
    vertex -19.078199 2.342273 -195.802872
    vertex -19.088570 2.391186 -195.802872
    vertex -19.153782 2.377335 -195.802872
  endloop
endfacet
facet normal 0.000000 0.000000 0.003331
  outer loop
    vertex -19.013014 2.356069 -195.802872
    vertex -19.023348 2.404989 -195.802872
    vertex -19.078199 2.342273 -195.802872
  endloop
endfacet
facet normal 0.000000 -0.000000 0.003333
  outer loop
    vertex -19.078199 2.342273 -195.802872
    vertex -19.023348 2.404989 -195.802872
    vertex -19.088570 2.391186 -195.802872
  endloop
endfacet
facet normal 0.000000 0.000000 0.003331
  outer loop
    vertex -18.947819 2.369816 -195.802872
    vertex -18.958117 2.418744 -195.802872
    vertex -19.013014 2.356069 -195.802872
  endloop
endfacet
facet normal 0.000000 -0.000000 0.003333
  outer loop
    vertex -19.013014 2.356069 -195.802872
    vertex -18.958117 2.418744 -195.802872
    vertex -19.023348 2.404989 -195.802872
  endloop
endfacet
facet normal -0.000000 0.000000 -0.003332
  outer loop
    vertex -19.078199 2.342273 -199.393875
    vertex -19.143375 2.328429 -199.393875
    vertex -19.153782 2.377335 -199.393875
  endloop
endfacet
facet normal 0.000000 -0.000000 -0.003333
  outer loop
    vertex -19.088570 2.391186 -199.393875
    vertex -19.078199 2.342273 -199.393875
    vertex -19.153782 2.377335 -199.393875
  endloop
endfacet
facet normal 0.000000 -0.000000 -0.003331
  outer loop
    vertex -19.023348 2.404989 -199.393875
    vertex -19.013014 2.356068 -199.393875
    vertex -19.078199 2.342273 -199.393875
  endloop
endfacet
facet normal 0.000000 0.000000 -0.003333
  outer loop
    vertex -19.023348 2.404989 -199.393875
    vertex -19.078199 2.342273 -199.393875
    vertex -19.088570 2.391186 -199.393875
  endloop
endfacet
facet normal 0.000000 -0.000000 -0.003331
  outer loop
    vertex -18.958117 2.418744 -199.393875
    vertex -18.947819 2.369816 -199.393875
    vertex -19.013014 2.356068 -199.393875
  endloop
endfacet
facet normal 0.000000 0.000000 -0.003333
  outer loop
    vertex -18.958117 2.418744 -199.393875
    vertex -19.013014 2.356068 -199.393875
    vertex -19.023348 2.404989 -199.393875
  endloop
endfacet
endsolid b'MESH-MESH-MESH-MESH-MESH-MESH-MESH-MESH-MESH-MESH-MESH-MESH-MESH-MESH-MESH-MESH'
