solid b'MESH-MESH-MESH-MESH-MESH-MESH-MESH-MESH-MESH-MESH-MESH-MESH-MESH-MESH-MESH-MESH'
facet normal 0.000034 -0.239400 0.000000
  outer loop
    vertex 0.444555 -4.350755 381.793579
    vertex 0.377889 -4.350764 381.793579
    vertex 0.377889 -4.350764 378.202576
  endloop
endfacet
facet normal 0.000034 -0.239400 0.000000
  outer loop
    vertex 0.444555 -4.350755 381.793579
    vertex 0.377889 -4.350764 378.202576
    vertex 0.444555 -4.350755 378.202576
  endloop
endfacet
facet normal 0.000212 -0.239400 0.000000
  outer loop
    vertex 0.444555 -4.350755 381.793579
    vertex 0.444555 -4.350755 378.202576
    vertex 0.511222 -4.350696 378.202576
  endloop
endfacet
facet normal 0.000212 -0.239400 0.000000
  outer loop
    vertex 0.511222 -4.350696 381.793579
    vertex 0.444555 -4.350755 381.793579
    vertex 0.511222 -4.350696 378.202576
  endloop
endfacet
facet normal 0.000389 -0.239400 0.000000
  outer loop
    vertex 0.577889 -4.350587 381.793579
    vertex 0.511222 -4.350696 378.202576
    vertex 0.577889 -4.350587 378.202576
  endloop
endfacet
facet normal 0.000390 -0.239400 0.000000
  outer loop
    vertex 0.577889 -4.350587 381.793579
    vertex 0.511222 -4.350696 381.793579
    vertex 0.511222 -4.350696 378.202576
  endloop
endfacet
facet normal 0.179549 0.000358 0.000000
  outer loop
    vertex 0.577889 -4.350587 381.793579
    vertex 0.577789 -4.300587 378.202576
    vertex 0.577789 -4.300587 381.793579
  endloop
endfacet
facet normal 0.179551 0.000358 -0.000000
  outer loop
    vertex 0.577889 -4.350587 378.202576
    vertex 0.577789 -4.300587 378.202576
    vertex 0.577889 -4.350587 381.793579
  endloop
endfacet
facet normal -0.000036 0.239267 -0.000000
  outer loop
    vertex 0.377900 -4.300765 378.202576
    vertex 0.377900 -4.300764 381.793579
    vertex 0.444530 -4.300755 378.202576
  endloop
endfacet
facet normal -0.000034 0.239267 0.000000
  outer loop
    vertex 0.377900 -4.300764 381.793579
    vertex 0.444530 -4.300755 381.793579
    vertex 0.444530 -4.300755 378.202576
  endloop
endfacet
facet normal -0.000212 0.239267 0.000000
  outer loop
    vertex 0.444530 -4.300755 378.202576
    vertex 0.511159 -4.300695 381.793579
    vertex 0.511159 -4.300695 378.202576
  endloop
endfacet
facet normal -0.000389 0.239267 0.000000
  outer loop
    vertex 0.511159 -4.300695 378.202576
    vertex 0.511159 -4.300695 381.793579
    vertex 0.577789 -4.300587 378.202576
  endloop
endfacet
facet normal -0.000212 0.239267 0.000000
  outer loop
    vertex 0.444530 -4.300755 381.793579
    vertex 0.511159 -4.300695 381.793579
    vertex 0.444530 -4.300755 378.202576
  endloop
endfacet
facet normal -0.000389 0.239267 0.000000
  outer loop
    vertex 0.511159 -4.300695 381.793579
    vertex 0.577789 -4.300587 381.793579
    vertex 0.577789 -4.300587 378.202576
  endloop
endfacet
facet normal -0.179551 0.000040 -0.000000
  outer loop
    vertex 0.377900 -4.300764 381.793579
    vertex 0.377889 -4.350764 378.202576
    vertex 0.377889 -4.350764 381.793579
  endloop
endfacet
facet normal -0.179549 0.000040 -0.000000
  outer loop
    vertex 0.377900 -4.300765 378.202576
    vertex 0.377889 -4.350764 378.202576
    vertex 0.377900 -4.300764 381.793579
  endloop
endfacet
facet normal 0.000000 0.000000 -0.003332
  outer loop
    vertex 0.511159 -4.300695 378.202576
    vertex 0.577789 -4.300587 378.202576
    vertex 0.577889 -4.350587 378.202576
  endloop
endfacet
facet normal 0.000000 0.000000 -0.003333
  outer loop
    vertex 0.511222 -4.350696 378.202576
    vertex 0.511159 -4.300695 378.202576
    vertex 0.577889 -4.350587 378.202576
  endloop
endfacet
facet normal 0.000000 0.000000 -0.003331
  outer loop
    vertex 0.444555 -4.350755 378.202576
    vertex 0.444530 -4.300755 378.202576
    vertex 0.511159 -4.300695 378.202576
  endloop
endfacet
facet normal 0.000000 0.000000 -0.003333
  outer loop
    vertex 0.444555 -4.350755 378.202576
    vertex 0.511159 -4.300695 378.202576
    vertex 0.511222 -4.350696 378.202576
  endloop
endfacet
facet normal 0.000000 0.000000 -0.003331
  outer loop
    vertex 0.377889 -4.350764 378.202576
    vertex 0.377900 -4.300765 378.202576
    vertex 0.444530 -4.300755 378.202576
  endloop
endfacet
facet normal 0.000000 0.000000 -0.003333
  outer loop
    vertex 0.377889 -4.350764 378.202576
    vertex 0.444530 -4.300755 378.202576
    vertex 0.444555 -4.350755 378.202576
  endloop
endfacet
facet normal 0.000000 0.000000 0.003331
  outer loop
    vertex 0.577789 -4.300587 381.793579
    vertex 0.511159 -4.300695 381.793579
    vertex 0.577889 -4.350587 381.793579
  endloop
endfacet
facet normal 0.000000 0.000000 0.003333
  outer loop
    vertex 0.511159 -4.300695 381.793579
    vertex 0.511222 -4.350696 381.793579
    vertex 0.577889 -4.350587 381.793579
  endloop
endfacet
facet normal -0.000000 0.000000 0.003331
  outer loop
    vertex 0.444530 -4.300755 381.793579
    vertex 0.444555 -4.350755 381.793579
    vertex 0.511159 -4.300695 381.793579
  endloop
endfacet
facet normal 0.000000 0.000000 0.003333
  outer loop
    vertex 0.511159 -4.300695 381.793579
    vertex 0.444555 -4.350755 381.793579
    vertex 0.511222 -4.350696 381.793579
  endloop
endfacet
facet normal 0.000000 0.000000 0.003331
  outer loop
    vertex 0.444530 -4.300755 381.793579
    vertex 0.377900 -4.300764 381.793579
    vertex 0.444555 -4.350755 381.793579
  endloop
endfacet
facet normal 0.000000 0.000000 0.003333
  outer loop
    vertex 0.377900 -4.300764 381.793579
    vertex 0.377889 -4.350764 381.793579
    vertex 0.444555 -4.350755 381.793579
  endloop
endfacet
endsolid b'MESH-MESH-MESH-MESH-MESH-MESH-MESH-MESH-MESH-MESH-MESH-MESH-MESH-MESH-MESH-MESH'
