solid b'MESH-MESH-MESH-MESH-MESH-MESH-MESH-MESH-MESH-MESH-MESH-MESH-MESH-MESH-MESH-MESH'
facet normal 0.000034 -0.239400 -0.000000
  outer loop
    vertex 0.444561 -4.350755 -73.807121
    vertex 0.377894 -4.350764 -73.807121
    vertex 0.377894 -4.350764 -77.398125
  endloop
endfacet
facet normal 0.000034 -0.239400 -0.000000
  outer loop
    vertex 0.444561 -4.350755 -73.807121
    vertex 0.377894 -4.350764 -77.398125
    vertex 0.444561 -4.350755 -77.398125
  endloop
endfacet
facet normal 0.000212 -0.239400 0.000000
  outer loop
    vertex 0.511227 -4.350696 -73.807121
    vertex 0.444561 -4.350755 -77.398125
    vertex 0.511227 -4.350696 -77.398125
  endloop
endfacet
facet normal 0.000212 -0.239400 -0.000000
  outer loop
    vertex 0.511227 -4.350696 -73.807121
    vertex 0.444561 -4.350755 -73.807121
    vertex 0.444561 -4.350755 -77.398125
  endloop
endfacet
facet normal 0.000389 -0.239400 0.000000
  outer loop
    vertex 0.577894 -4.350587 -73.807121
    vertex 0.511227 -4.350696 -77.398125
    vertex 0.577894 -4.350587 -77.398125
  endloop
endfacet
facet normal 0.000389 -0.239400 0.000000
  outer loop
    vertex 0.577894 -4.350587 -73.807121
    vertex 0.511227 -4.350696 -73.807121
    vertex 0.511227 -4.350696 -77.398125
  endloop
endfacet
facet normal 0.179551 0.000358 0.000000
  outer loop
    vertex 0.577794 -4.300587 -73.807121
    vertex 0.577894 -4.350587 -73.807121
    vertex 0.577894 -4.350587 -77.398125
  endloop
endfacet
facet normal 0.179551 0.000358 0.000000
  outer loop
    vertex 0.577794 -4.300587 -73.807121
    vertex 0.577894 -4.350587 -77.398125
    vertex 0.577794 -4.300587 -77.398125
  endloop
endfacet
facet normal -0.000036 0.239267 0.000000
  outer loop
    vertex 0.377905 -4.300765 -77.398125
    vertex 0.444535 -4.300755 -73.807121
    vertex 0.444535 -4.300755 -77.398125
  endloop
endfacet
facet normal -0.000036 0.239267 0.000000
  outer loop
    vertex 0.377905 -4.300765 -73.807121
    vertex 0.444535 -4.300755 -73.807121
    vertex 0.377905 -4.300765 -77.398125
  endloop
endfacet
facet normal -0.000212 0.239267 0.000000
  outer loop
    vertex 0.444535 -4.300755 -77.398125
    vertex 0.511165 -4.300696 -73.807121
    vertex 0.511165 -4.300695 -77.398125
  endloop
endfacet
facet normal -0.000211 0.239267 0.000000
  outer loop
    vertex 0.444535 -4.300755 -73.807121
    vertex 0.511165 -4.300696 -73.807121
    vertex 0.444535 -4.300755 -77.398125
  endloop
endfacet
facet normal -0.000389 0.239267 0.000000
  outer loop
    vertex 0.511165 -4.300695 -77.398125
    vertex 0.577794 -4.300587 -73.807121
    vertex 0.577794 -4.300587 -77.398125
  endloop
endfacet
facet normal -0.000390 0.239267 0.000000
  outer loop
    vertex 0.511165 -4.300696 -73.807121
    vertex 0.577794 -4.300587 -73.807121
    vertex 0.511165 -4.300695 -77.398125
  endloop
endfacet
facet normal -0.179549 0.000040 0.000000
  outer loop
    vertex 0.377894 -4.350764 -73.807121
    vertex 0.377905 -4.300765 -73.807121
    vertex 0.377905 -4.300765 -77.398125
  endloop
endfacet
facet normal -0.179549 0.000040 0.000000
  outer loop
    vertex 0.377894 -4.350764 -73.807121
    vertex 0.377905 -4.300765 -77.398125
    vertex 0.377894 -4.350764 -77.398125
  endloop
endfacet
facet normal 0.000000 0.000000 0.003332
  outer loop
    vertex 0.577794 -4.300587 -73.807121
    vertex 0.511165 -4.300696 -73.807121
    vertex 0.577894 -4.350587 -73.807121
  endloop
endfacet
facet normal 0.000000 0.000000 0.003333
  outer loop
    vertex 0.511165 -4.300696 -73.807121
    vertex 0.511227 -4.350696 -73.807121
    vertex 0.577894 -4.350587 -73.807121
  endloop
endfacet
facet normal -0.000000 0.000000 0.003331
  outer loop
    vertex 0.444535 -4.300755 -73.807121
    vertex 0.444561 -4.350755 -73.807121
    vertex 0.511165 -4.300696 -73.807121
  endloop
endfacet
facet normal 0.000000 0.000000 0.003333
  outer loop
    vertex 0.511165 -4.300696 -73.807121
    vertex 0.444561 -4.350755 -73.807121
    vertex 0.511227 -4.350696 -73.807121
  endloop
endfacet
facet normal -0.000000 0.000000 0.003331
  outer loop
    vertex 0.377905 -4.300765 -73.807121
    vertex 0.377894 -4.350764 -73.807121
    vertex 0.444535 -4.300755 -73.807121
  endloop
endfacet
facet normal 0.000000 0.000000 0.003333
  outer loop
    vertex 0.444535 -4.300755 -73.807121
    vertex 0.377894 -4.350764 -73.807121
    vertex 0.444561 -4.350755 -73.807121
  endloop
endfacet
facet normal 0.000000 0.000000 -0.003332
  outer loop
    vertex 0.511165 -4.300695 -77.398125
    vertex 0.577794 -4.300587 -77.398125
    vertex 0.577894 -4.350587 -77.398125
  endloop
endfacet
facet normal 0.000000 0.000000 -0.003333
  outer loop
    vertex 0.511227 -4.350696 -77.398125
    vertex 0.511165 -4.300695 -77.398125
    vertex 0.577894 -4.350587 -77.398125
  endloop
endfacet
facet normal 0.000000 0.000000 -0.003331
  outer loop
    vertex 0.444561 -4.350755 -77.398125
    vertex 0.444535 -4.300755 -77.398125
    vertex 0.511165 -4.300695 -77.398125
  endloop
endfacet
facet normal 0.000000 0.000000 -0.003333
  outer loop
    vertex 0.444561 -4.350755 -77.398125
    vertex 0.511165 -4.300695 -77.398125
    vertex 0.511227 -4.350696 -77.398125
  endloop
endfacet
facet normal 0.000000 0.000000 -0.003331
  outer loop
    vertex 0.377894 -4.350764 -77.398125
    vertex 0.377905 -4.300765 -77.398125
    vertex 0.444535 -4.300755 -77.398125
  endloop
endfacet
facet normal 0.000000 0.000000 -0.003333
  outer loop
    vertex 0.377894 -4.350764 -77.398125
    vertex 0.444535 -4.300755 -77.398125
    vertex 0.444561 -4.350755 -77.398125
  endloop
endfacet
endsolid b'MESH-MESH-MESH-MESH-MESH-MESH-MESH-MESH-MESH-MESH-MESH-MESH-MESH-MESH-MESH-MESH'
