solid b'MESH-MESH-MESH-MESH-MESH-MESH-MESH-MESH-MESH-MESH-MESH-MESH-MESH-MESH-MESH-MESH'
facet normal -0.000034 0.239400 -0.000000
  outer loop
    vertex -0.377883 4.350764 -148.819870
    vertex -0.377883 4.350764 -152.410873
    vertex -0.444550 4.350754 -152.410873
  endloop
endfacet
facet normal -0.000212 0.239400 -0.000000
  outer loop
    vertex -0.444550 4.350754 -148.819870
    vertex -0.444550 4.350754 -152.410873
    vertex -0.511217 4.350695 -152.410873
  endloop
endfacet
facet normal -0.000034 0.239400 -0.000000
  outer loop
    vertex -0.444550 4.350754 -148.819870
    vertex -0.377883 4.350764 -148.819870
    vertex -0.444550 4.350754 -152.410873
  endloop
endfacet
facet normal -0.000389 0.239400 0.000000
  outer loop
    vertex -0.511217 4.350695 -148.819870
    vertex -0.511217 4.350695 -152.410873
    vertex -0.577883 4.350587 -152.410873
  endloop
endfacet
facet normal -0.000212 0.239400 0.000000
  outer loop
    vertex -0.511217 4.350695 -148.819870
    vertex -0.444550 4.350754 -148.819870
    vertex -0.511217 4.350695 -152.410873
  endloop
endfacet
facet normal -0.000389 0.239400 0.000000
  outer loop
    vertex -0.577883 4.350587 -148.819870
    vertex -0.511217 4.350695 -148.819870
    vertex -0.577883 4.350587 -152.410873
  endloop
endfacet
facet normal -0.179551 -0.000358 0.000000
  outer loop
    vertex -0.577783 4.300587 -148.819870
    vertex -0.577883 4.350587 -148.819870
    vertex -0.577883 4.350587 -152.410873
  endloop
endfacet
facet normal -0.179551 -0.000358 -0.000000
  outer loop
    vertex -0.577783 4.300587 -148.819870
    vertex -0.577883 4.350587 -152.410873
    vertex -0.577783 4.300587 -152.410873
  endloop
endfacet
facet normal 0.000036 -0.239267 0.000000
  outer loop
    vertex -0.377895 4.300764 -152.410873
    vertex -0.444524 4.300754 -148.819870
    vertex -0.444524 4.300754 -152.410873
  endloop
endfacet
facet normal 0.000036 -0.239267 0.000000
  outer loop
    vertex -0.377895 4.300764 -148.819870
    vertex -0.444524 4.300754 -148.819870
    vertex -0.377895 4.300764 -152.410873
  endloop
endfacet
facet normal 0.000212 -0.239267 0.000000
  outer loop
    vertex -0.444524 4.300754 -152.410873
    vertex -0.511154 4.300695 -148.819870
    vertex -0.511154 4.300695 -152.410873
  endloop
endfacet
facet normal 0.000212 -0.239267 0.000000
  outer loop
    vertex -0.444524 4.300754 -148.819870
    vertex -0.511154 4.300695 -148.819870
    vertex -0.444524 4.300754 -152.410873
  endloop
endfacet
facet normal 0.000389 -0.239267 0.000000
  outer loop
    vertex -0.511154 4.300695 -152.410873
    vertex -0.577783 4.300587 -148.819870
    vertex -0.577783 4.300587 -152.410873
  endloop
endfacet
facet normal 0.000389 -0.239267 0.000000
  outer loop
    vertex -0.511154 4.300695 -148.819870
    vertex -0.577783 4.300587 -148.819870
    vertex -0.511154 4.300695 -152.410873
  endloop
endfacet
facet normal 0.179549 -0.000040 0.000000
  outer loop
    vertex -0.377883 4.350764 -148.819870
    vertex -0.377895 4.300764 -148.819870
    vertex -0.377895 4.300764 -152.410873
  endloop
endfacet
facet normal 0.179549 -0.000040 0.000000
  outer loop
    vertex -0.377883 4.350764 -148.819870
    vertex -0.377895 4.300764 -152.410873
    vertex -0.377883 4.350764 -152.410873
  endloop
endfacet
facet normal 0.000000 -0.000000 0.003332
  outer loop
    vertex -0.577783 4.300587 -148.819870
    vertex -0.511154 4.300695 -148.819870
    vertex -0.577883 4.350587 -148.819870
  endloop
endfacet
facet normal 0.000000 0.000000 0.003333
  outer loop
    vertex -0.511154 4.300695 -148.819870
    vertex -0.511217 4.350695 -148.819870
    vertex -0.577883 4.350587 -148.819870
  endloop
endfacet
facet normal 0.000000 0.000000 0.003331
  outer loop
    vertex -0.444524 4.300754 -148.819870
    vertex -0.444550 4.350754 -148.819870
    vertex -0.511154 4.300695 -148.819870
  endloop
endfacet
facet normal 0.000000 -0.000000 0.003333
  outer loop
    vertex -0.511154 4.300695 -148.819870
    vertex -0.444550 4.350754 -148.819870
    vertex -0.511217 4.350695 -148.819870
  endloop
endfacet
facet normal 0.000000 -0.000000 0.003331
  outer loop
    vertex -0.444524 4.300754 -148.819870
    vertex -0.377895 4.300764 -148.819870
    vertex -0.444550 4.350754 -148.819870
  endloop
endfacet
facet normal 0.000000 -0.000000 0.003333
  outer loop
    vertex -0.377895 4.300764 -148.819870
    vertex -0.377883 4.350764 -148.819870
    vertex -0.444550 4.350754 -148.819870
  endloop
endfacet
facet normal -0.000000 0.000000 -0.003332
  outer loop
    vertex -0.511154 4.300695 -152.410873
    vertex -0.577783 4.300587 -152.410873
    vertex -0.577883 4.350587 -152.410873
  endloop
endfacet
facet normal 0.000000 -0.000000 -0.003333
  outer loop
    vertex -0.511217 4.350695 -152.410873
    vertex -0.511154 4.300695 -152.410873
    vertex -0.577883 4.350587 -152.410873
  endloop
endfacet
facet normal -0.000000 0.000000 -0.003331
  outer loop
    vertex -0.444524 4.300754 -152.410873
    vertex -0.511154 4.300695 -152.410873
    vertex -0.511217 4.350695 -152.410873
  endloop
endfacet
facet normal 0.000000 -0.000000 -0.003333
  outer loop
    vertex -0.444550 4.350754 -152.410873
    vertex -0.444524 4.300754 -152.410873
    vertex -0.511217 4.350695 -152.410873
  endloop
endfacet
facet normal 0.000000 0.000000 -0.003331
  outer loop
    vertex -0.377883 4.350764 -152.410873
    vertex -0.377895 4.300764 -152.410873
    vertex -0.444524 4.300754 -152.410873
  endloop
endfacet
facet normal 0.000000 0.000000 -0.003333
  outer loop
    vertex -0.377883 4.350764 -152.410873
    vertex -0.444524 4.300754 -152.410873
    vertex -0.444550 4.350754 -152.410873
  endloop
endfacet
endsolid b'MESH-MESH-MESH-MESH-MESH-MESH-MESH-MESH-MESH-MESH-MESH-MESH-MESH-MESH-MESH-MESH'
