solid b'MESH-MESH-MESH-MESH-MESH-MESH-MESH-MESH-MESH-MESH-MESH-MESH-MESH-MESH-MESH-MESH'
facet normal -0.000036 0.239400 0.000000
  outer loop
    vertex -0.444555 4.350754 65.599304
    vertex -0.377889 4.350764 65.599304
    vertex -0.377889 4.350764 62.008305
  endloop
endfacet
facet normal -0.000036 0.239400 0.000000
  outer loop
    vertex -0.444555 4.350754 65.599304
    vertex -0.377889 4.350764 62.008305
    vertex -0.444555 4.350754 62.008305
  endloop
endfacet
facet normal -0.000211 0.239400 0.000000
  outer loop
    vertex -0.511222 4.350695 65.599304
    vertex -0.444555 4.350754 62.008305
    vertex -0.511222 4.350696 62.008305
  endloop
endfacet
facet normal -0.000212 0.239400 0.000000
  outer loop
    vertex -0.511222 4.350695 65.599304
    vertex -0.444555 4.350754 65.599304
    vertex -0.444555 4.350754 62.008305
  endloop
endfacet
facet normal -0.000390 0.239400 0.000000
  outer loop
    vertex -0.577889 4.350587 65.599304
    vertex -0.511222 4.350696 62.008305
    vertex -0.577889 4.350587 62.008305
  endloop
endfacet
facet normal -0.000389 0.239400 0.000000
  outer loop
    vertex -0.577889 4.350587 65.599304
    vertex -0.511222 4.350695 65.599304
    vertex -0.511222 4.350696 62.008305
  endloop
endfacet
facet normal -0.179549 -0.000358 0.000000
  outer loop
    vertex -0.577889 4.350587 65.599304
    vertex -0.577789 4.300587 62.008305
    vertex -0.577789 4.300587 65.599304
  endloop
endfacet
facet normal -0.179549 -0.000358 0.000000
  outer loop
    vertex -0.577889 4.350587 62.008305
    vertex -0.577789 4.300587 62.008305
    vertex -0.577889 4.350587 65.599304
  endloop
endfacet
facet normal 0.000034 -0.239267 0.000000
  outer loop
    vertex -0.377900 4.300764 62.008305
    vertex -0.377900 4.300764 65.599304
    vertex -0.444530 4.300755 62.008305
  endloop
endfacet
facet normal 0.000034 -0.239267 0.000000
  outer loop
    vertex -0.377900 4.300764 65.599304
    vertex -0.444530 4.300755 65.599304
    vertex -0.444530 4.300755 62.008305
  endloop
endfacet
facet normal 0.000212 -0.239267 0.000000
  outer loop
    vertex -0.444530 4.300755 62.008305
    vertex -0.511159 4.300695 65.599304
    vertex -0.511159 4.300695 62.008305
  endloop
endfacet
facet normal 0.000389 -0.239267 0.000000
  outer loop
    vertex -0.511159 4.300695 62.008305
    vertex -0.511159 4.300695 65.599304
    vertex -0.577789 4.300587 62.008305
  endloop
endfacet
facet normal 0.000212 -0.239267 0.000000
  outer loop
    vertex -0.444530 4.300755 65.599304
    vertex -0.511159 4.300695 65.599304
    vertex -0.444530 4.300755 62.008305
  endloop
endfacet
facet normal 0.000389 -0.239267 0.000000
  outer loop
    vertex -0.511159 4.300695 65.599304
    vertex -0.577789 4.300587 65.599304
    vertex -0.577789 4.300587 62.008305
  endloop
endfacet
facet normal 0.179551 -0.000040 -0.000000
  outer loop
    vertex -0.377900 4.300764 65.599304
    vertex -0.377889 4.350764 62.008305
    vertex -0.377889 4.350764 65.599304
  endloop
endfacet
facet normal 0.179551 -0.000040 0.000000
  outer loop
    vertex -0.377900 4.300764 62.008305
    vertex -0.377889 4.350764 62.008305
    vertex -0.377900 4.300764 65.599304
  endloop
endfacet
facet normal -0.000000 0.000000 -0.003331
  outer loop
    vertex -0.511159 4.300695 62.008305
    vertex -0.577789 4.300587 62.008305
    vertex -0.577889 4.350587 62.008305
  endloop
endfacet
facet normal 0.000000 -0.000000 -0.003333
  outer loop
    vertex -0.511222 4.350696 62.008305
    vertex -0.511159 4.300695 62.008305
    vertex -0.577889 4.350587 62.008305
  endloop
endfacet
facet normal 0.000000 -0.000000 -0.003331
  outer loop
    vertex -0.444555 4.350754 62.008305
    vertex -0.444530 4.300755 62.008305
    vertex -0.511159 4.300695 62.008305
  endloop
endfacet
facet normal 0.000000 0.000000 -0.003333
  outer loop
    vertex -0.444555 4.350754 62.008305
    vertex -0.511159 4.300695 62.008305
    vertex -0.511222 4.350696 62.008305
  endloop
endfacet
facet normal 0.000000 0.000000 -0.003331
  outer loop
    vertex -0.377889 4.350764 62.008305
    vertex -0.377900 4.300764 62.008305
    vertex -0.444530 4.300755 62.008305
  endloop
endfacet
facet normal 0.000000 0.000000 -0.003333
  outer loop
    vertex -0.377889 4.350764 62.008305
    vertex -0.444530 4.300755 62.008305
    vertex -0.444555 4.350754 62.008305
  endloop
endfacet
facet normal 0.000000 -0.000000 0.003331
  outer loop
    vertex -0.577789 4.300587 65.599304
    vertex -0.511159 4.300695 65.599304
    vertex -0.577889 4.350587 65.599304
  endloop
endfacet
facet normal 0.000000 0.000000 0.003333
  outer loop
    vertex -0.511159 4.300695 65.599304
    vertex -0.511222 4.350695 65.599304
    vertex -0.577889 4.350587 65.599304
  endloop
endfacet
facet normal 0.000000 -0.000000 0.003331
  outer loop
    vertex -0.511159 4.300695 65.599304
    vertex -0.444530 4.300755 65.599304
    vertex -0.511222 4.350695 65.599304
  endloop
endfacet
facet normal 0.000000 0.000000 0.003333
  outer loop
    vertex -0.444530 4.300755 65.599304
    vertex -0.444555 4.350754 65.599304
    vertex -0.511222 4.350695 65.599304
  endloop
endfacet
facet normal 0.000000 -0.000000 0.003331
  outer loop
    vertex -0.444530 4.300755 65.599304
    vertex -0.377900 4.300764 65.599304
    vertex -0.444555 4.350754 65.599304
  endloop
endfacet
facet normal 0.000000 -0.000000 0.003333
  outer loop
    vertex -0.377900 4.300764 65.599304
    vertex -0.377889 4.350764 65.599304
    vertex -0.444555 4.350754 65.599304
  endloop
endfacet
endsolid b'MESH-MESH-MESH-MESH-MESH-MESH-MESH-MESH-MESH-MESH-MESH-MESH-MESH-MESH-MESH-MESH'
