solid b'MESH-MESH-MESH-MESH-MESH-MESH-MESH-MESH-MESH-MESH-MESH-MESH-MESH-MESH-MESH-MESH'
facet normal -0.049394 -0.234245 -0.000000
  outer loop
    vertex -18.958111 -2.418745 -80.989120
    vertex -18.958111 -2.418745 -77.398125
    vertex -19.023342 -2.404990 -77.398125
  endloop
endfacet
facet normal -0.049567 -0.234211 0.000000
  outer loop
    vertex -19.023342 -2.404990 -80.989120
    vertex -19.023342 -2.404990 -77.398125
    vertex -19.088564 -2.391187 -77.398125
  endloop
endfacet
facet normal -0.049393 -0.234245 0.000000
  outer loop
    vertex -19.023342 -2.404990 -80.989120
    vertex -18.958111 -2.418745 -80.989120
    vertex -19.023342 -2.404990 -77.398125
  endloop
endfacet
facet normal -0.049567 -0.234211 -0.000000
  outer loop
    vertex -19.088564 -2.391187 -80.989120
    vertex -19.023342 -2.404990 -80.989120
    vertex -19.088564 -2.391187 -77.398125
  endloop
endfacet
facet normal -0.049740 -0.234177 0.000000
  outer loop
    vertex -19.153776 -2.377336 -80.989120
    vertex -19.088564 -2.391187 -77.398125
    vertex -19.153776 -2.377336 -77.398125
  endloop
endfacet
facet normal -0.049739 -0.234177 -0.000000
  outer loop
    vertex -19.153776 -2.377336 -80.989120
    vertex -19.088564 -2.391187 -80.989120
    vertex -19.088564 -2.391187 -77.398125
  endloop
endfacet
facet normal -0.175618 0.037370 0.000000
  outer loop
    vertex -19.153776 -2.377336 -80.989120
    vertex -19.143370 -2.328431 -77.398125
    vertex -19.143370 -2.328431 -80.989120
  endloop
endfacet
facet normal -0.175617 0.037370 0.000000
  outer loop
    vertex -19.153776 -2.377336 -77.398125
    vertex -19.143370 -2.328431 -77.398125
    vertex -19.153776 -2.377336 -80.989120
  endloop
endfacet
facet normal 0.049366 0.234115 0.000000
  outer loop
    vertex -18.947813 -2.369817 -77.398125
    vertex -18.947813 -2.369817 -80.989120
    vertex -19.013008 -2.356070 -77.398125
  endloop
endfacet
facet normal 0.049539 0.234081 0.000000
  outer loop
    vertex -19.013008 -2.356070 -77.398125
    vertex -19.013008 -2.356070 -80.989120
    vertex -19.078194 -2.342274 -77.398125
  endloop
endfacet
facet normal 0.049365 0.234115 0.000000
  outer loop
    vertex -18.947813 -2.369817 -80.989120
    vertex -19.013008 -2.356070 -80.989120
    vertex -19.013008 -2.356070 -77.398125
  endloop
endfacet
facet normal 0.049539 0.234081 0.000000
  outer loop
    vertex -19.013008 -2.356070 -80.989120
    vertex -19.078194 -2.342274 -80.989120
    vertex -19.078194 -2.342274 -77.398125
  endloop
endfacet
facet normal 0.049712 0.234047 0.000000
  outer loop
    vertex -19.078194 -2.342274 -77.398125
    vertex -19.143370 -2.328431 -80.989120
    vertex -19.143370 -2.328431 -77.398125
  endloop
endfacet
facet normal 0.049713 0.234047 -0.000000
  outer loop
    vertex -19.078194 -2.342274 -80.989120
    vertex -19.143370 -2.328431 -80.989120
    vertex -19.078194 -2.342274 -77.398125
  endloop
endfacet
facet normal 0.175700 -0.036979 -0.000000
  outer loop
    vertex -18.947813 -2.369817 -80.989120
    vertex -18.958111 -2.418745 -77.398125
    vertex -18.958111 -2.418745 -80.989120
  endloop
endfacet
facet normal 0.175700 -0.036979 -0.000000
  outer loop
    vertex -18.947813 -2.369817 -77.398125
    vertex -18.958111 -2.418745 -77.398125
    vertex -18.947813 -2.369817 -80.989120
  endloop
endfacet
facet normal 0.000000 0.000000 0.003331
  outer loop
    vertex -19.078194 -2.342274 -77.398125
    vertex -19.143370 -2.328431 -77.398125
    vertex -19.153776 -2.377336 -77.398125
  endloop
endfacet
facet normal 0.000000 -0.000000 0.003333
  outer loop
    vertex -19.088564 -2.391187 -77.398125
    vertex -19.078194 -2.342274 -77.398125
    vertex -19.153776 -2.377336 -77.398125
  endloop
endfacet
facet normal 0.000000 0.000000 0.003331
  outer loop
    vertex -19.013008 -2.356070 -77.398125
    vertex -19.078194 -2.342274 -77.398125
    vertex -19.088564 -2.391187 -77.398125
  endloop
endfacet
facet normal 0.000000 -0.000000 0.003333
  outer loop
    vertex -19.023342 -2.404990 -77.398125
    vertex -19.013008 -2.356070 -77.398125
    vertex -19.088564 -2.391187 -77.398125
  endloop
endfacet
facet normal 0.000000 0.000000 0.003331
  outer loop
    vertex -18.947813 -2.369817 -77.398125
    vertex -19.013008 -2.356070 -77.398125
    vertex -19.023342 -2.404990 -77.398125
  endloop
endfacet
facet normal 0.000000 -0.000000 0.003333
  outer loop
    vertex -18.958111 -2.418745 -77.398125
    vertex -18.947813 -2.369817 -77.398125
    vertex -19.023342 -2.404990 -77.398125
  endloop
endfacet
facet normal 0.000000 -0.000000 -0.003332
  outer loop
    vertex -19.143370 -2.328431 -80.989120
    vertex -19.078194 -2.342274 -80.989120
    vertex -19.153776 -2.377336 -80.989120
  endloop
endfacet
facet normal 0.000000 0.000000 -0.003333
  outer loop
    vertex -19.078194 -2.342274 -80.989120
    vertex -19.088564 -2.391187 -80.989120
    vertex -19.153776 -2.377336 -80.989120
  endloop
endfacet
facet normal 0.000000 -0.000000 -0.003331
  outer loop
    vertex -19.078194 -2.342274 -80.989120
    vertex -19.013008 -2.356070 -80.989120
    vertex -19.088564 -2.391187 -80.989120
  endloop
endfacet
facet normal 0.000000 0.000000 -0.003333
  outer loop
    vertex -19.013008 -2.356070 -80.989120
    vertex -19.023342 -2.404990 -80.989120
    vertex -19.088564 -2.391187 -80.989120
  endloop
endfacet
facet normal 0.000000 -0.000000 -0.003331
  outer loop
    vertex -19.013008 -2.356070 -80.989120
    vertex -18.947813 -2.369817 -80.989120
    vertex -19.023342 -2.404990 -80.989120
  endloop
endfacet
facet normal 0.000000 0.000000 -0.003333
  outer loop
    vertex -18.947813 -2.369817 -80.989120
    vertex -18.958111 -2.418745 -80.989120
    vertex -19.023342 -2.404990 -80.989120
  endloop
endfacet
endsolid b'MESH-MESH-MESH-MESH-MESH-MESH-MESH-MESH-MESH-MESH-MESH-MESH-MESH-MESH-MESH-MESH'
