solid b'MESH-MESH-MESH-MESH-MESH-MESH-MESH-MESH-MESH-MESH-MESH-MESH-MESH-MESH-MESH-MESH'
facet normal -0.000036 -0.239400 -0.000000
  outer loop
    vertex -0.444566 -4.350754 -327.903900
    vertex -0.377899 -4.350764 -327.903900
    vertex -0.377899 -4.350764 -324.312897
  endloop
endfacet
facet normal -0.000034 -0.239400 -0.000000
  outer loop
    vertex -0.444566 -4.350754 -327.903900
    vertex -0.377899 -4.350764 -324.312897
    vertex -0.444566 -4.350755 -324.312897
  endloop
endfacet
facet normal -0.000212 -0.239400 -0.000000
  outer loop
    vertex -0.511233 -4.350695 -327.903900
    vertex -0.444566 -4.350755 -324.312897
    vertex -0.511233 -4.350696 -324.312897
  endloop
endfacet
facet normal -0.000212 -0.239400 -0.000000
  outer loop
    vertex -0.511233 -4.350695 -327.903900
    vertex -0.444566 -4.350754 -327.903900
    vertex -0.444566 -4.350755 -324.312897
  endloop
endfacet
facet normal -0.000390 -0.239400 -0.000000
  outer loop
    vertex -0.577899 -4.350587 -327.903900
    vertex -0.511233 -4.350696 -324.312897
    vertex -0.577899 -4.350587 -324.312897
  endloop
endfacet
facet normal -0.000389 -0.239400 -0.000000
  outer loop
    vertex -0.577899 -4.350587 -327.903900
    vertex -0.511233 -4.350695 -327.903900
    vertex -0.511233 -4.350696 -324.312897
  endloop
endfacet
facet normal -0.179549 0.000358 -0.000000
  outer loop
    vertex -0.577899 -4.350587 -327.903900
    vertex -0.577799 -4.300587 -324.312897
    vertex -0.577799 -4.300587 -327.903900
  endloop
endfacet
facet normal -0.179549 0.000358 -0.000000
  outer loop
    vertex -0.577899 -4.350587 -324.312897
    vertex -0.577799 -4.300587 -324.312897
    vertex -0.577899 -4.350587 -327.903900
  endloop
endfacet
facet normal 0.000036 0.239267 0.000000
  outer loop
    vertex -0.377911 -4.300765 -324.312897
    vertex -0.377910 -4.300764 -327.903900
    vertex -0.444540 -4.300755 -324.312897
  endloop
endfacet
facet normal 0.000034 0.239267 0.000000
  outer loop
    vertex -0.377910 -4.300764 -327.903900
    vertex -0.444540 -4.300755 -327.903900
    vertex -0.444540 -4.300755 -324.312897
  endloop
endfacet
facet normal 0.000212 0.239267 0.000000
  outer loop
    vertex -0.444540 -4.300755 -324.312897
    vertex -0.511170 -4.300695 -327.903900
    vertex -0.511170 -4.300695 -324.312897
  endloop
endfacet
facet normal 0.000389 0.239267 0.000000
  outer loop
    vertex -0.511170 -4.300695 -324.312897
    vertex -0.511170 -4.300695 -327.903900
    vertex -0.577799 -4.300587 -324.312897
  endloop
endfacet
facet normal 0.000212 0.239267 0.000000
  outer loop
    vertex -0.444540 -4.300755 -327.903900
    vertex -0.511170 -4.300695 -327.903900
    vertex -0.444540 -4.300755 -324.312897
  endloop
endfacet
facet normal 0.000389 0.239267 0.000000
  outer loop
    vertex -0.511170 -4.300695 -327.903900
    vertex -0.577799 -4.300587 -327.903900
    vertex -0.577799 -4.300587 -324.312897
  endloop
endfacet
facet normal 0.179551 0.000040 0.000000
  outer loop
    vertex -0.377910 -4.300764 -327.903900
    vertex -0.377899 -4.350764 -324.312897
    vertex -0.377899 -4.350764 -327.903900
  endloop
endfacet
facet normal 0.179549 0.000040 0.000000
  outer loop
    vertex -0.377911 -4.300765 -324.312897
    vertex -0.377899 -4.350764 -324.312897
    vertex -0.377910 -4.300764 -327.903900
  endloop
endfacet
facet normal 0.000000 0.000000 0.003331
  outer loop
    vertex -0.511170 -4.300695 -324.312897
    vertex -0.577799 -4.300587 -324.312897
    vertex -0.577899 -4.350587 -324.312897
  endloop
endfacet
facet normal 0.000000 -0.000000 0.003333
  outer loop
    vertex -0.511233 -4.350696 -324.312897
    vertex -0.511170 -4.300695 -324.312897
    vertex -0.577899 -4.350587 -324.312897
  endloop
endfacet
facet normal 0.000000 -0.000000 0.003331
  outer loop
    vertex -0.444566 -4.350755 -324.312897
    vertex -0.444540 -4.300755 -324.312897
    vertex -0.511170 -4.300695 -324.312897
  endloop
endfacet
facet normal 0.000000 0.000000 0.003333
  outer loop
    vertex -0.444566 -4.350755 -324.312897
    vertex -0.511170 -4.300695 -324.312897
    vertex -0.511233 -4.350696 -324.312897
  endloop
endfacet
facet normal 0.000000 0.000000 0.003331
  outer loop
    vertex -0.377899 -4.350764 -324.312897
    vertex -0.377911 -4.300765 -324.312897
    vertex -0.444540 -4.300755 -324.312897
  endloop
endfacet
facet normal 0.000000 0.000000 0.003333
  outer loop
    vertex -0.377899 -4.350764 -324.312897
    vertex -0.444540 -4.300755 -324.312897
    vertex -0.444566 -4.350755 -324.312897
  endloop
endfacet
facet normal 0.000000 -0.000000 -0.003331
  outer loop
    vertex -0.577799 -4.300587 -327.903900
    vertex -0.511170 -4.300695 -327.903900
    vertex -0.577899 -4.350587 -327.903900
  endloop
endfacet
facet normal 0.000000 0.000000 -0.003333
  outer loop
    vertex -0.511170 -4.300695 -327.903900
    vertex -0.511233 -4.350695 -327.903900
    vertex -0.577899 -4.350587 -327.903900
  endloop
endfacet
facet normal 0.000000 -0.000000 -0.003331
  outer loop
    vertex -0.511170 -4.300695 -327.903900
    vertex -0.444540 -4.300755 -327.903900
    vertex -0.511233 -4.350695 -327.903900
  endloop
endfacet
facet normal 0.000000 0.000000 -0.003333
  outer loop
    vertex -0.444540 -4.300755 -327.903900
    vertex -0.444566 -4.350754 -327.903900
    vertex -0.511233 -4.350695 -327.903900
  endloop
endfacet
facet normal 0.000000 -0.000000 -0.003331
  outer loop
    vertex -0.444540 -4.300755 -327.903900
    vertex -0.377910 -4.300764 -327.903900
    vertex -0.444566 -4.350754 -327.903900
  endloop
endfacet
facet normal 0.000000 -0.000000 -0.003333
  outer loop
    vertex -0.377910 -4.300764 -327.903900
    vertex -0.377899 -4.350764 -327.903900
    vertex -0.444566 -4.350754 -327.903900
  endloop
endfacet
endsolid b'MESH-MESH-MESH-MESH-MESH-MESH-MESH-MESH-MESH-MESH-MESH-MESH-MESH-MESH-MESH-MESH'
