solid b'MESH-MESH-MESH-MESH-MESH-MESH-MESH-MESH-MESH-MESH-MESH-MESH-MESH-MESH-MESH-MESH'
facet normal -0.049394 -0.234253 0.000000
  outer loop
    vertex -19.023335 -2.404992 -262.905914
    vertex -18.958101 -2.418746 -262.905914
    vertex -18.958101 -2.418746 -259.314911
  endloop
endfacet
facet normal -0.049393 -0.234253 -0.000000
  outer loop
    vertex -19.023335 -2.404992 -262.905914
    vertex -18.958101 -2.418746 -259.314911
    vertex -19.023335 -2.404992 -259.314911
  endloop
endfacet
facet normal -0.049567 -0.234212 0.000000
  outer loop
    vertex -19.088556 -2.391189 -262.905914
    vertex -19.023335 -2.404992 -259.314911
    vertex -19.088556 -2.391189 -259.314911
  endloop
endfacet
facet normal -0.049740 -0.234177 0.000000
  outer loop
    vertex -19.088556 -2.391189 -262.905914
    vertex -19.088556 -2.391189 -259.314911
    vertex -19.153769 -2.377337 -259.314911
  endloop
endfacet
facet normal -0.049567 -0.234212 -0.000000
  outer loop
    vertex -19.088556 -2.391189 -262.905914
    vertex -19.023335 -2.404992 -262.905914
    vertex -19.023335 -2.404992 -259.314911
  endloop
endfacet
facet normal -0.049740 -0.234177 0.000000
  outer loop
    vertex -19.153769 -2.377337 -262.905914
    vertex -19.088556 -2.391189 -262.905914
    vertex -19.153769 -2.377337 -259.314911
  endloop
endfacet
facet normal -0.175618 0.037370 0.000000
  outer loop
    vertex -19.153769 -2.377337 -262.905914
    vertex -19.143362 -2.328432 -259.314911
    vertex -19.143362 -2.328432 -262.905914
  endloop
endfacet
facet normal -0.175618 0.037370 0.000000
  outer loop
    vertex -19.153769 -2.377337 -259.314911
    vertex -19.143362 -2.328432 -259.314911
    vertex -19.153769 -2.377337 -262.905914
  endloop
endfacet
facet normal 0.049365 0.234123 0.000000
  outer loop
    vertex -18.947803 -2.369818 -259.314911
    vertex -18.947803 -2.369818 -262.905914
    vertex -19.013000 -2.356071 -259.314911
  endloop
endfacet
facet normal 0.049366 0.234123 0.000000
  outer loop
    vertex -18.947803 -2.369818 -262.905914
    vertex -19.013000 -2.356071 -262.905914
    vertex -19.013000 -2.356071 -259.314911
  endloop
endfacet
facet normal 0.049539 0.234082 0.000000
  outer loop
    vertex -19.013000 -2.356071 -259.314911
    vertex -19.078186 -2.342276 -262.905914
    vertex -19.078186 -2.342276 -259.314911
  endloop
endfacet
facet normal 0.049713 0.234047 0.000000
  outer loop
    vertex -19.078186 -2.342276 -259.314911
    vertex -19.078186 -2.342276 -262.905914
    vertex -19.143362 -2.328432 -259.314911
  endloop
endfacet
facet normal 0.049539 0.234082 0.000000
  outer loop
    vertex -19.013000 -2.356071 -262.905914
    vertex -19.078186 -2.342276 -262.905914
    vertex -19.013000 -2.356071 -259.314911
  endloop
endfacet
facet normal 0.049712 0.234047 0.000000
  outer loop
    vertex -19.078186 -2.342276 -262.905914
    vertex -19.143362 -2.328432 -262.905914
    vertex -19.143362 -2.328432 -259.314911
  endloop
endfacet
facet normal 0.175701 -0.036979 0.000000
  outer loop
    vertex -18.947803 -2.369818 -262.905914
    vertex -18.958101 -2.418746 -259.314911
    vertex -18.958101 -2.418746 -262.905914
  endloop
endfacet
facet normal 0.175701 -0.036979 0.000000
  outer loop
    vertex -18.947803 -2.369818 -259.314911
    vertex -18.958101 -2.418746 -259.314911
    vertex -18.947803 -2.369818 -262.905914
  endloop
endfacet
facet normal 0.000000 0.000000 0.003332
  outer loop
    vertex -19.078186 -2.342276 -259.314911
    vertex -19.143362 -2.328432 -259.314911
    vertex -19.153769 -2.377337 -259.314911
  endloop
endfacet
facet normal 0.000000 -0.000000 0.003333
  outer loop
    vertex -19.088556 -2.391189 -259.314911
    vertex -19.078186 -2.342276 -259.314911
    vertex -19.153769 -2.377337 -259.314911
  endloop
endfacet
facet normal 0.000000 0.000000 0.003331
  outer loop
    vertex -19.013000 -2.356071 -259.314911
    vertex -19.078186 -2.342276 -259.314911
    vertex -19.088556 -2.391189 -259.314911
  endloop
endfacet
facet normal 0.000000 -0.000000 0.003333
  outer loop
    vertex -19.023335 -2.404992 -259.314911
    vertex -19.013000 -2.356071 -259.314911
    vertex -19.088556 -2.391189 -259.314911
  endloop
endfacet
facet normal 0.000000 -0.000000 0.003332
  outer loop
    vertex -18.958101 -2.418746 -259.314911
    vertex -18.947803 -2.369818 -259.314911
    vertex -19.013000 -2.356071 -259.314911
  endloop
endfacet
facet normal 0.000000 0.000000 0.003333
  outer loop
    vertex -18.958101 -2.418746 -259.314911
    vertex -19.013000 -2.356071 -259.314911
    vertex -19.023335 -2.404992 -259.314911
  endloop
endfacet
facet normal 0.000000 -0.000000 -0.003332
  outer loop
    vertex -19.143362 -2.328432 -262.905914
    vertex -19.078186 -2.342276 -262.905914
    vertex -19.153769 -2.377337 -262.905914
  endloop
endfacet
facet normal 0.000000 0.000000 -0.003333
  outer loop
    vertex -19.078186 -2.342276 -262.905914
    vertex -19.088556 -2.391189 -262.905914
    vertex -19.153769 -2.377337 -262.905914
  endloop
endfacet
facet normal 0.000000 -0.000000 -0.003331
  outer loop
    vertex -19.078186 -2.342276 -262.905914
    vertex -19.013000 -2.356071 -262.905914
    vertex -19.088556 -2.391189 -262.905914
  endloop
endfacet
facet normal 0.000000 0.000000 -0.003333
  outer loop
    vertex -19.013000 -2.356071 -262.905914
    vertex -19.023335 -2.404992 -262.905914
    vertex -19.088556 -2.391189 -262.905914
  endloop
endfacet
facet normal 0.000000 -0.000000 -0.003332
  outer loop
    vertex -19.013000 -2.356071 -262.905914
    vertex -18.947803 -2.369818 -262.905914
    vertex -19.023335 -2.404992 -262.905914
  endloop
endfacet
facet normal 0.000000 0.000000 -0.003333
  outer loop
    vertex -18.947803 -2.369818 -262.905914
    vertex -18.958101 -2.418746 -262.905914
    vertex -19.023335 -2.404992 -262.905914
  endloop
endfacet
endsolid b'MESH-MESH-MESH-MESH-MESH-MESH-MESH-MESH-MESH-MESH-MESH-MESH-MESH-MESH-MESH-MESH'
