solid b'MESH-MESH-MESH-MESH-MESH-MESH-MESH-MESH-MESH-MESH-MESH-MESH-MESH-MESH-MESH-MESH'
facet normal -0.000034 -0.239400 -0.000000
  outer loop
    vertex -0.444566 -4.350755 -317.070923
    vertex -0.377900 -4.350764 -317.070923
    vertex -0.377900 -4.350764 -313.479919
  endloop
endfacet
facet normal -0.000034 -0.239400 -0.000000
  outer loop
    vertex -0.444566 -4.350755 -317.070923
    vertex -0.377900 -4.350764 -313.479919
    vertex -0.444566 -4.350755 -313.479919
  endloop
endfacet
facet normal -0.000212 -0.239400 -0.000000
  outer loop
    vertex -0.511233 -4.350696 -317.070923
    vertex -0.444566 -4.350755 -313.479919
    vertex -0.511233 -4.350696 -313.479919
  endloop
endfacet
facet normal -0.000212 -0.239400 -0.000000
  outer loop
    vertex -0.511233 -4.350696 -317.070923
    vertex -0.444566 -4.350755 -317.070923
    vertex -0.444566 -4.350755 -313.479919
  endloop
endfacet
facet normal -0.000389 -0.239400 -0.000000
  outer loop
    vertex -0.577899 -4.350587 -317.070923
    vertex -0.511233 -4.350696 -313.479919
    vertex -0.577899 -4.350587 -313.479919
  endloop
endfacet
facet normal -0.000390 -0.239400 -0.000000
  outer loop
    vertex -0.577899 -4.350587 -317.070923
    vertex -0.511233 -4.350696 -317.070923
    vertex -0.511233 -4.350696 -313.479919
  endloop
endfacet
facet normal -0.179549 0.000358 0.000000
  outer loop
    vertex -0.577899 -4.350587 -317.070923
    vertex -0.577800 -4.300587 -313.479919
    vertex -0.577800 -4.300587 -317.070923
  endloop
endfacet
facet normal -0.179551 0.000358 0.000000
  outer loop
    vertex -0.577899 -4.350587 -313.479919
    vertex -0.577800 -4.300587 -313.479919
    vertex -0.577899 -4.350587 -317.070923
  endloop
endfacet
facet normal 0.000036 0.239267 0.000000
  outer loop
    vertex -0.377911 -4.300765 -313.479919
    vertex -0.444540 -4.300755 -317.070923
    vertex -0.444540 -4.300755 -313.479919
  endloop
endfacet
facet normal 0.000034 0.239267 0.000000
  outer loop
    vertex -0.377911 -4.300764 -317.070923
    vertex -0.444540 -4.300755 -317.070923
    vertex -0.377911 -4.300765 -313.479919
  endloop
endfacet
facet normal 0.000212 0.239267 0.000000
  outer loop
    vertex -0.444540 -4.300755 -313.479919
    vertex -0.511170 -4.300695 -317.070923
    vertex -0.511170 -4.300695 -313.479919
  endloop
endfacet
facet normal 0.000212 0.239267 0.000000
  outer loop
    vertex -0.444540 -4.300755 -317.070923
    vertex -0.511170 -4.300695 -317.070923
    vertex -0.444540 -4.300755 -313.479919
  endloop
endfacet
facet normal 0.000389 0.239267 0.000000
  outer loop
    vertex -0.511170 -4.300695 -313.479919
    vertex -0.577800 -4.300587 -317.070923
    vertex -0.577800 -4.300587 -313.479919
  endloop
endfacet
facet normal 0.000389 0.239267 -0.000000
  outer loop
    vertex -0.511170 -4.300695 -317.070923
    vertex -0.577800 -4.300587 -317.070923
    vertex -0.511170 -4.300695 -313.479919
  endloop
endfacet
facet normal 0.179551 0.000040 0.000000
  outer loop
    vertex -0.377911 -4.300764 -317.070923
    vertex -0.377900 -4.350764 -313.479919
    vertex -0.377900 -4.350764 -317.070923
  endloop
endfacet
facet normal 0.179549 0.000040 0.000000
  outer loop
    vertex -0.377911 -4.300765 -313.479919
    vertex -0.377900 -4.350764 -313.479919
    vertex -0.377911 -4.300764 -317.070923
  endloop
endfacet
facet normal 0.000000 0.000000 0.003332
  outer loop
    vertex -0.511170 -4.300695 -313.479919
    vertex -0.577800 -4.300587 -313.479919
    vertex -0.577899 -4.350587 -313.479919
  endloop
endfacet
facet normal 0.000000 -0.000000 0.003333
  outer loop
    vertex -0.511233 -4.350696 -313.479919
    vertex -0.511170 -4.300695 -313.479919
    vertex -0.577899 -4.350587 -313.479919
  endloop
endfacet
facet normal 0.000000 -0.000000 0.003331
  outer loop
    vertex -0.444566 -4.350755 -313.479919
    vertex -0.444540 -4.300755 -313.479919
    vertex -0.511170 -4.300695 -313.479919
  endloop
endfacet
facet normal 0.000000 0.000000 0.003333
  outer loop
    vertex -0.444566 -4.350755 -313.479919
    vertex -0.511170 -4.300695 -313.479919
    vertex -0.511233 -4.350696 -313.479919
  endloop
endfacet
facet normal 0.000000 0.000000 0.003331
  outer loop
    vertex -0.377900 -4.350764 -313.479919
    vertex -0.377911 -4.300765 -313.479919
    vertex -0.444540 -4.300755 -313.479919
  endloop
endfacet
facet normal 0.000000 0.000000 0.003333
  outer loop
    vertex -0.377900 -4.350764 -313.479919
    vertex -0.444540 -4.300755 -313.479919
    vertex -0.444566 -4.350755 -313.479919
  endloop
endfacet
facet normal 0.000000 -0.000000 -0.003331
  outer loop
    vertex -0.577800 -4.300587 -317.070923
    vertex -0.511170 -4.300695 -317.070923
    vertex -0.577899 -4.350587 -317.070923
  endloop
endfacet
facet normal 0.000000 0.000000 -0.003333
  outer loop
    vertex -0.511170 -4.300695 -317.070923
    vertex -0.511233 -4.350696 -317.070923
    vertex -0.577899 -4.350587 -317.070923
  endloop
endfacet
facet normal -0.000000 0.000000 -0.003331
  outer loop
    vertex -0.444540 -4.300755 -317.070923
    vertex -0.444566 -4.350755 -317.070923
    vertex -0.511170 -4.300695 -317.070923
  endloop
endfacet
facet normal 0.000000 -0.000000 -0.003333
  outer loop
    vertex -0.511170 -4.300695 -317.070923
    vertex -0.444566 -4.350755 -317.070923
    vertex -0.511233 -4.350696 -317.070923
  endloop
endfacet
facet normal -0.000000 -0.000000 -0.003331
  outer loop
    vertex -0.377911 -4.300764 -317.070923
    vertex -0.377900 -4.350764 -317.070923
    vertex -0.444540 -4.300755 -317.070923
  endloop
endfacet
facet normal 0.000000 -0.000000 -0.003333
  outer loop
    vertex -0.444540 -4.300755 -317.070923
    vertex -0.377900 -4.350764 -317.070923
    vertex -0.444566 -4.350755 -317.070923
  endloop
endfacet
endsolid b'MESH-MESH-MESH-MESH-MESH-MESH-MESH-MESH-MESH-MESH-MESH-MESH-MESH-MESH-MESH-MESH'
