solid b'MESH-MESH-MESH-MESH-MESH-MESH-MESH-MESH-MESH-MESH-MESH-MESH-MESH-MESH-MESH-MESH'
facet normal -0.049393 -0.234245 0.000000
  outer loop
    vertex -18.958107 -2.418746 167.377792
    vertex -18.958107 -2.418746 170.968781
    vertex -19.023338 -2.404991 170.968781
  endloop
endfacet
facet normal -0.049566 -0.234218 0.000000
  outer loop
    vertex -19.023340 -2.404991 167.377792
    vertex -19.023338 -2.404991 170.968781
    vertex -19.088562 -2.391188 170.968781
  endloop
endfacet
facet normal -0.049393 -0.234252 0.000000
  outer loop
    vertex -19.023340 -2.404991 167.377792
    vertex -18.958107 -2.418746 167.377792
    vertex -19.023338 -2.404991 170.968781
  endloop
endfacet
facet normal -0.049739 -0.234170 0.000000
  outer loop
    vertex -19.088562 -2.391188 167.377792
    vertex -19.088562 -2.391188 170.968781
    vertex -19.153772 -2.377337 170.968781
  endloop
endfacet
facet normal -0.049566 -0.234211 0.000000
  outer loop
    vertex -19.088562 -2.391188 167.377792
    vertex -19.023340 -2.404991 167.377792
    vertex -19.088562 -2.391188 170.968781
  endloop
endfacet
facet normal -0.049740 -0.234170 0.000000
  outer loop
    vertex -19.153772 -2.377337 167.377792
    vertex -19.088562 -2.391188 167.377792
    vertex -19.153772 -2.377337 170.968781
  endloop
endfacet
facet normal -0.175618 0.037370 0.000000
  outer loop
    vertex -19.153772 -2.377337 167.377792
    vertex -19.153772 -2.377337 170.968781
    vertex -19.143366 -2.328431 170.968781
  endloop
endfacet
facet normal -0.175617 0.037370 -0.000000
  outer loop
    vertex -19.143366 -2.328432 167.377792
    vertex -19.153772 -2.377337 167.377792
    vertex -19.143366 -2.328431 170.968781
  endloop
endfacet
facet normal 0.049366 0.234115 -0.000000
  outer loop
    vertex -18.947809 -2.369817 170.968781
    vertex -19.013004 -2.356071 167.377792
    vertex -19.013004 -2.356070 170.968781
  endloop
endfacet
facet normal 0.049538 0.234087 -0.000000
  outer loop
    vertex -19.013004 -2.356070 170.968781
    vertex -19.013004 -2.356071 167.377792
    vertex -19.078192 -2.342275 170.968781
  endloop
endfacet
facet normal 0.049366 0.234115 -0.000000
  outer loop
    vertex -18.947809 -2.369818 167.377792
    vertex -19.013004 -2.356071 167.377792
    vertex -18.947809 -2.369817 170.968781
  endloop
endfacet
facet normal 0.049713 0.234039 0.000000
  outer loop
    vertex -19.078192 -2.342275 170.968781
    vertex -19.078192 -2.342275 167.377792
    vertex -19.143366 -2.328431 170.968781
  endloop
endfacet
facet normal 0.049539 0.234087 0.000000
  outer loop
    vertex -19.013004 -2.356071 167.377792
    vertex -19.078192 -2.342275 167.377792
    vertex -19.078192 -2.342275 170.968781
  endloop
endfacet
facet normal 0.049712 0.234039 -0.000000
  outer loop
    vertex -19.078192 -2.342275 167.377792
    vertex -19.143366 -2.328432 167.377792
    vertex -19.143366 -2.328431 170.968781
  endloop
endfacet
facet normal 0.175700 -0.036979 0.000000
  outer loop
    vertex -18.958107 -2.418746 167.377792
    vertex -18.947809 -2.369818 167.377792
    vertex -18.947809 -2.369817 170.968781
  endloop
endfacet
facet normal 0.175700 -0.036979 0.000000
  outer loop
    vertex -18.958107 -2.418746 167.377792
    vertex -18.947809 -2.369817 170.968781
    vertex -18.958107 -2.418746 170.968781
  endloop
endfacet
facet normal -0.000000 0.000000 -0.003331
  outer loop
    vertex -19.078192 -2.342275 167.377792
    vertex -19.088562 -2.391188 167.377792
    vertex -19.143366 -2.328432 167.377792
  endloop
endfacet
facet normal 0.000000 -0.000000 -0.003333
  outer loop
    vertex -19.143366 -2.328432 167.377792
    vertex -19.088562 -2.391188 167.377792
    vertex -19.153772 -2.377337 167.377792
  endloop
endfacet
facet normal -0.000000 0.000000 -0.003332
  outer loop
    vertex -19.013004 -2.356071 167.377792
    vertex -19.023340 -2.404991 167.377792
    vertex -19.078192 -2.342275 167.377792
  endloop
endfacet
facet normal 0.000000 -0.000000 -0.003333
  outer loop
    vertex -19.078192 -2.342275 167.377792
    vertex -19.023340 -2.404991 167.377792
    vertex -19.088562 -2.391188 167.377792
  endloop
endfacet
facet normal -0.000000 0.000000 -0.003331
  outer loop
    vertex -18.947809 -2.369818 167.377792
    vertex -18.958107 -2.418746 167.377792
    vertex -19.013004 -2.356071 167.377792
  endloop
endfacet
facet normal 0.000000 -0.000000 -0.003333
  outer loop
    vertex -19.013004 -2.356071 167.377792
    vertex -18.958107 -2.418746 167.377792
    vertex -19.023340 -2.404991 167.377792
  endloop
endfacet
facet normal 0.000000 -0.000000 0.003331
  outer loop
    vertex -19.088562 -2.391188 170.968781
    vertex -19.078192 -2.342275 170.968781
    vertex -19.143366 -2.328431 170.968781
  endloop
endfacet
facet normal 0.000000 0.000000 0.003333
  outer loop
    vertex -19.088562 -2.391188 170.968781
    vertex -19.143366 -2.328431 170.968781
    vertex -19.153772 -2.377337 170.968781
  endloop
endfacet
facet normal 0.000000 -0.000000 0.003332
  outer loop
    vertex -19.023338 -2.404991 170.968781
    vertex -19.013004 -2.356070 170.968781
    vertex -19.078192 -2.342275 170.968781
  endloop
endfacet
facet normal 0.000000 0.000000 0.003333
  outer loop
    vertex -19.023338 -2.404991 170.968781
    vertex -19.078192 -2.342275 170.968781
    vertex -19.088562 -2.391188 170.968781
  endloop
endfacet
facet normal 0.000000 -0.000000 0.003331
  outer loop
    vertex -18.958107 -2.418746 170.968781
    vertex -18.947809 -2.369817 170.968781
    vertex -19.013004 -2.356070 170.968781
  endloop
endfacet
facet normal 0.000000 0.000000 0.003333
  outer loop
    vertex -18.958107 -2.418746 170.968781
    vertex -19.013004 -2.356070 170.968781
    vertex -19.023338 -2.404991 170.968781
  endloop
endfacet
endsolid b'MESH-MESH-MESH-MESH-MESH-MESH-MESH-MESH-MESH-MESH-MESH-MESH-MESH-MESH-MESH-MESH'
