solid b'MESH-MESH-MESH-MESH-MESH-MESH-MESH-MESH-MESH-MESH-MESH-MESH-MESH-MESH-MESH-MESH'
facet normal 0.000034 0.239400 -0.000000
  outer loop
    vertex 0.444566 4.350755 -202.984879
    vertex 0.377900 4.350764 -202.984879
    vertex 0.377900 4.350765 -199.393875
  endloop
endfacet
facet normal 0.000036 0.239400 -0.000000
  outer loop
    vertex 0.444566 4.350755 -202.984879
    vertex 0.377900 4.350765 -199.393875
    vertex 0.444566 4.350755 -199.393875
  endloop
endfacet
facet normal 0.000212 0.239400 -0.000000
  outer loop
    vertex 0.511233 4.350696 -202.984879
    vertex 0.444566 4.350755 -199.393875
    vertex 0.511233 4.350696 -199.393875
  endloop
endfacet
facet normal 0.000212 0.239400 -0.000000
  outer loop
    vertex 0.511233 4.350696 -202.984879
    vertex 0.444566 4.350755 -202.984879
    vertex 0.444566 4.350755 -199.393875
  endloop
endfacet
facet normal 0.000389 0.239400 -0.000000
  outer loop
    vertex 0.577899 4.350587 -202.984879
    vertex 0.511233 4.350696 -199.393875
    vertex 0.577900 4.350587 -199.393875
  endloop
endfacet
facet normal 0.000389 0.239400 0.000000
  outer loop
    vertex 0.577899 4.350587 -202.984879
    vertex 0.511233 4.350696 -202.984879
    vertex 0.511233 4.350696 -199.393875
  endloop
endfacet
facet normal 0.179551 -0.000358 -0.000000
  outer loop
    vertex 0.577899 4.350587 -202.984879
    vertex 0.577800 4.300587 -199.393875
    vertex 0.577800 4.300587 -202.984879
  endloop
endfacet
facet normal 0.179551 -0.000358 -0.000000
  outer loop
    vertex 0.577900 4.350587 -199.393875
    vertex 0.577800 4.300587 -199.393875
    vertex 0.577899 4.350587 -202.984879
  endloop
endfacet
facet normal -0.000036 -0.239267 0.000000
  outer loop
    vertex 0.377911 4.300765 -199.393875
    vertex 0.444540 4.300755 -202.984879
    vertex 0.444541 4.300755 -199.393875
  endloop
endfacet
facet normal -0.000036 -0.239267 0.000000
  outer loop
    vertex 0.377911 4.300765 -202.984879
    vertex 0.444540 4.300755 -202.984879
    vertex 0.377911 4.300765 -199.393875
  endloop
endfacet
facet normal -0.000211 -0.239267 0.000000
  outer loop
    vertex 0.444541 4.300755 -199.393875
    vertex 0.511170 4.300695 -202.984879
    vertex 0.511170 4.300696 -199.393875
  endloop
endfacet
facet normal -0.000212 -0.239267 0.000000
  outer loop
    vertex 0.444540 4.300755 -202.984879
    vertex 0.511170 4.300695 -202.984879
    vertex 0.444541 4.300755 -199.393875
  endloop
endfacet
facet normal -0.000390 -0.239267 0.000000
  outer loop
    vertex 0.511170 4.300696 -199.393875
    vertex 0.577800 4.300587 -202.984879
    vertex 0.577800 4.300587 -199.393875
  endloop
endfacet
facet normal -0.000389 -0.239267 0.000000
  outer loop
    vertex 0.511170 4.300695 -202.984879
    vertex 0.577800 4.300587 -202.984879
    vertex 0.511170 4.300696 -199.393875
  endloop
endfacet
facet normal -0.179549 -0.000040 0.000000
  outer loop
    vertex 0.377911 4.300765 -202.984879
    vertex 0.377900 4.350765 -199.393875
    vertex 0.377900 4.350764 -202.984879
  endloop
endfacet
facet normal -0.179551 -0.000040 0.000000
  outer loop
    vertex 0.377911 4.300765 -199.393875
    vertex 0.377900 4.350765 -199.393875
    vertex 0.377911 4.300765 -202.984879
  endloop
endfacet
facet normal -0.000000 0.000000 0.003332
  outer loop
    vertex 0.511170 4.300696 -199.393875
    vertex 0.577800 4.300587 -199.393875
    vertex 0.577900 4.350587 -199.393875
  endloop
endfacet
facet normal 0.000000 0.000000 0.003333
  outer loop
    vertex 0.511233 4.350696 -199.393875
    vertex 0.511170 4.300696 -199.393875
    vertex 0.577900 4.350587 -199.393875
  endloop
endfacet
facet normal 0.000000 0.000000 0.003331
  outer loop
    vertex 0.444566 4.350755 -199.393875
    vertex 0.444541 4.300755 -199.393875
    vertex 0.511170 4.300696 -199.393875
  endloop
endfacet
facet normal 0.000000 0.000000 0.003333
  outer loop
    vertex 0.444566 4.350755 -199.393875
    vertex 0.511170 4.300696 -199.393875
    vertex 0.511233 4.350696 -199.393875
  endloop
endfacet
facet normal 0.000000 0.000000 0.003331
  outer loop
    vertex 0.377900 4.350765 -199.393875
    vertex 0.377911 4.300765 -199.393875
    vertex 0.444541 4.300755 -199.393875
  endloop
endfacet
facet normal 0.000000 0.000000 0.003333
  outer loop
    vertex 0.377900 4.350765 -199.393875
    vertex 0.444541 4.300755 -199.393875
    vertex 0.444566 4.350755 -199.393875
  endloop
endfacet
facet normal 0.000000 0.000000 -0.003332
  outer loop
    vertex 0.577800 4.300587 -202.984879
    vertex 0.511170 4.300695 -202.984879
    vertex 0.577899 4.350587 -202.984879
  endloop
endfacet
facet normal 0.000000 0.000000 -0.003333
  outer loop
    vertex 0.511170 4.300695 -202.984879
    vertex 0.511233 4.350696 -202.984879
    vertex 0.577899 4.350587 -202.984879
  endloop
endfacet
facet normal 0.000000 0.000000 -0.003331
  outer loop
    vertex 0.444540 4.300755 -202.984879
    vertex 0.444566 4.350755 -202.984879
    vertex 0.511170 4.300695 -202.984879
  endloop
endfacet
facet normal 0.000000 0.000000 -0.003333
  outer loop
    vertex 0.511170 4.300695 -202.984879
    vertex 0.444566 4.350755 -202.984879
    vertex 0.511233 4.350696 -202.984879
  endloop
endfacet
facet normal 0.000000 0.000000 -0.003331
  outer loop
    vertex 0.377911 4.300765 -202.984879
    vertex 0.377900 4.350764 -202.984879
    vertex 0.444540 4.300755 -202.984879
  endloop
endfacet
facet normal 0.000000 0.000000 -0.003333
  outer loop
    vertex 0.444540 4.300755 -202.984879
    vertex 0.377900 4.350764 -202.984879
    vertex 0.444566 4.350755 -202.984879
  endloop
endfacet
endsolid b'MESH-MESH-MESH-MESH-MESH-MESH-MESH-MESH-MESH-MESH-MESH-MESH-MESH-MESH-MESH-MESH'
