solid b'MESH-MESH-MESH-MESH-MESH-MESH-MESH-MESH-MESH-MESH-MESH-MESH-MESH-MESH-MESH-MESH'
facet normal -0.049394 0.234246 0.000000
  outer loop
    vertex -19.023344 2.404990 294.981995
    vertex -18.958113 2.418745 294.981995
    vertex -18.958113 2.418745 291.390991
  endloop
endfacet
facet normal -0.049393 0.234246 0.000000
  outer loop
    vertex -19.023344 2.404990 294.981995
    vertex -18.958113 2.418745 291.390991
    vertex -19.023344 2.404990 291.390991
  endloop
endfacet
facet normal -0.049567 0.234212 0.000000
  outer loop
    vertex -19.088566 2.391187 294.981995
    vertex -19.023344 2.404990 291.390991
    vertex -19.088566 2.391187 291.390991
  endloop
endfacet
facet normal -0.049567 0.234212 0.000000
  outer loop
    vertex -19.088566 2.391187 294.981995
    vertex -19.023344 2.404990 294.981995
    vertex -19.023344 2.404990 291.390991
  endloop
endfacet
facet normal -0.049740 0.234177 0.000000
  outer loop
    vertex -19.153778 2.377335 294.981995
    vertex -19.088566 2.391187 291.390991
    vertex -19.153778 2.377336 291.390991
  endloop
endfacet
facet normal -0.049740 0.234177 0.000000
  outer loop
    vertex -19.153778 2.377335 294.981995
    vertex -19.088566 2.391187 294.981995
    vertex -19.088566 2.391187 291.390991
  endloop
endfacet
facet normal -0.175618 -0.037370 -0.000000
  outer loop
    vertex -19.153778 2.377335 294.981995
    vertex -19.153778 2.377336 291.390991
    vertex -19.143372 2.328430 294.981995
  endloop
endfacet
facet normal -0.175618 -0.037370 0.000000
  outer loop
    vertex -19.153778 2.377336 291.390991
    vertex -19.143372 2.328430 291.390991
    vertex -19.143372 2.328430 294.981995
  endloop
endfacet
facet normal 0.049365 -0.234116 -0.000000
  outer loop
    vertex -18.947815 2.369817 291.390991
    vertex -18.947813 2.369817 294.981995
    vertex -19.013010 2.356070 291.390991
  endloop
endfacet
facet normal 0.049366 -0.234123 -0.000000
  outer loop
    vertex -18.947813 2.369817 294.981995
    vertex -19.013010 2.356069 294.981995
    vertex -19.013010 2.356070 291.390991
  endloop
endfacet
facet normal 0.049539 -0.234082 -0.000000
  outer loop
    vertex -19.013010 2.356070 291.390991
    vertex -19.078196 2.342274 294.981995
    vertex -19.078196 2.342274 291.390991
  endloop
endfacet
facet normal 0.049539 -0.234082 -0.000000
  outer loop
    vertex -19.013010 2.356069 294.981995
    vertex -19.078196 2.342274 294.981995
    vertex -19.013010 2.356070 291.390991
  endloop
endfacet
facet normal 0.049713 -0.234047 0.000000
  outer loop
    vertex -19.078196 2.342274 291.390991
    vertex -19.143372 2.328430 294.981995
    vertex -19.143372 2.328430 291.390991
  endloop
endfacet
facet normal 0.049712 -0.234047 -0.000000
  outer loop
    vertex -19.078196 2.342274 294.981995
    vertex -19.143372 2.328430 294.981995
    vertex -19.078196 2.342274 291.390991
  endloop
endfacet
facet normal 0.175701 0.036986 0.000000
  outer loop
    vertex -18.947813 2.369817 294.981995
    vertex -18.958113 2.418745 291.390991
    vertex -18.958113 2.418745 294.981995
  endloop
endfacet
facet normal 0.175701 0.036979 -0.000000
  outer loop
    vertex -18.947815 2.369817 291.390991
    vertex -18.958113 2.418745 291.390991
    vertex -18.947813 2.369817 294.981995
  endloop
endfacet
facet normal 0.000000 -0.000000 -0.003331
  outer loop
    vertex -19.088566 2.391187 291.390991
    vertex -19.078196 2.342274 291.390991
    vertex -19.143372 2.328430 291.390991
  endloop
endfacet
facet normal 0.000000 0.000000 -0.003333
  outer loop
    vertex -19.088566 2.391187 291.390991
    vertex -19.143372 2.328430 291.390991
    vertex -19.153778 2.377336 291.390991
  endloop
endfacet
facet normal 0.000000 -0.000000 -0.003331
  outer loop
    vertex -19.023344 2.404990 291.390991
    vertex -19.013010 2.356070 291.390991
    vertex -19.078196 2.342274 291.390991
  endloop
endfacet
facet normal 0.000000 0.000000 -0.003333
  outer loop
    vertex -19.023344 2.404990 291.390991
    vertex -19.078196 2.342274 291.390991
    vertex -19.088566 2.391187 291.390991
  endloop
endfacet
facet normal 0.000000 -0.000000 -0.003331
  outer loop
    vertex -18.958113 2.418745 291.390991
    vertex -18.947815 2.369817 291.390991
    vertex -19.013010 2.356070 291.390991
  endloop
endfacet
facet normal 0.000000 0.000000 -0.003333
  outer loop
    vertex -18.958113 2.418745 291.390991
    vertex -19.013010 2.356070 291.390991
    vertex -19.023344 2.404990 291.390991
  endloop
endfacet
facet normal 0.000000 0.000000 0.003331
  outer loop
    vertex -19.078196 2.342274 294.981995
    vertex -19.088566 2.391187 294.981995
    vertex -19.143372 2.328430 294.981995
  endloop
endfacet
facet normal 0.000000 -0.000000 0.003333
  outer loop
    vertex -19.143372 2.328430 294.981995
    vertex -19.088566 2.391187 294.981995
    vertex -19.153778 2.377335 294.981995
  endloop
endfacet
facet normal 0.000000 0.000000 0.003331
  outer loop
    vertex -19.013010 2.356069 294.981995
    vertex -19.023344 2.404990 294.981995
    vertex -19.078196 2.342274 294.981995
  endloop
endfacet
facet normal 0.000000 -0.000000 0.003333
  outer loop
    vertex -19.078196 2.342274 294.981995
    vertex -19.023344 2.404990 294.981995
    vertex -19.088566 2.391187 294.981995
  endloop
endfacet
facet normal 0.000000 0.000000 0.003332
  outer loop
    vertex -18.947813 2.369817 294.981995
    vertex -18.958113 2.418745 294.981995
    vertex -19.013010 2.356069 294.981995
  endloop
endfacet
facet normal 0.000000 -0.000000 0.003333
  outer loop
    vertex -19.013010 2.356069 294.981995
    vertex -18.958113 2.418745 294.981995
    vertex -19.023344 2.404990 294.981995
  endloop
endfacet
endsolid b'MESH-MESH-MESH-MESH-MESH-MESH-MESH-MESH-MESH-MESH-MESH-MESH-MESH-MESH-MESH-MESH'
