solid b'MESH-MESH-MESH-MESH-MESH-MESH-MESH-MESH-MESH-MESH-MESH-MESH-MESH-MESH-MESH-MESH'
facet normal -0.000034 0.239398 -0.000000
  outer loop
    vertex -0.444561 4.350755 -392.626587
    vertex -0.377894 4.350764 -392.626587
    vertex -0.377894 4.350764 -396.217560
  endloop
endfacet
facet normal -0.000034 0.239398 -0.000000
  outer loop
    vertex -0.444561 4.350755 -392.626587
    vertex -0.377894 4.350764 -396.217560
    vertex -0.444561 4.350755 -396.217560
  endloop
endfacet
facet normal -0.000212 0.239398 0.000000
  outer loop
    vertex -0.511227 4.350696 -392.626587
    vertex -0.444561 4.350755 -396.217560
    vertex -0.511227 4.350696 -396.217560
  endloop
endfacet
facet normal -0.000212 0.239398 -0.000000
  outer loop
    vertex -0.511227 4.350696 -392.626587
    vertex -0.444561 4.350755 -392.626587
    vertex -0.444561 4.350755 -396.217560
  endloop
endfacet
facet normal -0.000390 0.239398 -0.000000
  outer loop
    vertex -0.577894 4.350587 -392.626587
    vertex -0.511227 4.350696 -396.217560
    vertex -0.577894 4.350587 -396.217560
  endloop
endfacet
facet normal -0.000389 0.239398 0.000000
  outer loop
    vertex -0.577894 4.350587 -392.626587
    vertex -0.511227 4.350696 -392.626587
    vertex -0.511227 4.350696 -396.217560
  endloop
endfacet
facet normal -0.179549 -0.000358 0.000000
  outer loop
    vertex -0.577794 4.300587 -392.626587
    vertex -0.577894 4.350587 -392.626587
    vertex -0.577894 4.350587 -396.217560
  endloop
endfacet
facet normal -0.179548 -0.000358 -0.000000
  outer loop
    vertex -0.577794 4.300587 -392.626587
    vertex -0.577894 4.350587 -396.217560
    vertex -0.577794 4.300587 -396.217560
  endloop
endfacet
facet normal 0.000034 -0.239265 0.000000
  outer loop
    vertex -0.377905 4.300764 -396.217560
    vertex -0.444535 4.300755 -392.626587
    vertex -0.444535 4.300755 -396.217560
  endloop
endfacet
facet normal 0.000036 -0.239265 0.000000
  outer loop
    vertex -0.377905 4.300765 -392.626587
    vertex -0.444535 4.300755 -392.626587
    vertex -0.377905 4.300764 -396.217560
  endloop
endfacet
facet normal 0.000212 -0.239265 0.000000
  outer loop
    vertex -0.444535 4.300755 -396.217560
    vertex -0.511164 4.300695 -392.626587
    vertex -0.511164 4.300695 -396.217560
  endloop
endfacet
facet normal 0.000212 -0.239265 0.000000
  outer loop
    vertex -0.444535 4.300755 -392.626587
    vertex -0.511164 4.300695 -392.626587
    vertex -0.444535 4.300755 -396.217560
  endloop
endfacet
facet normal 0.000389 -0.239265 0.000000
  outer loop
    vertex -0.511164 4.300695 -396.217560
    vertex -0.577794 4.300587 -392.626587
    vertex -0.577794 4.300587 -396.217560
  endloop
endfacet
facet normal 0.000389 -0.239265 0.000000
  outer loop
    vertex -0.511164 4.300695 -392.626587
    vertex -0.577794 4.300587 -392.626587
    vertex -0.511164 4.300695 -396.217560
  endloop
endfacet
facet normal 0.179548 -0.000040 0.000000
  outer loop
    vertex -0.377894 4.350764 -392.626587
    vertex -0.377905 4.300765 -392.626587
    vertex -0.377905 4.300764 -396.217560
  endloop
endfacet
facet normal 0.179549 -0.000040 0.000000
  outer loop
    vertex -0.377894 4.350764 -392.626587
    vertex -0.377905 4.300764 -396.217560
    vertex -0.377894 4.350764 -396.217560
  endloop
endfacet
facet normal 0.000000 -0.000000 0.003332
  outer loop
    vertex -0.577794 4.300587 -392.626587
    vertex -0.511164 4.300695 -392.626587
    vertex -0.577894 4.350587 -392.626587
  endloop
endfacet
facet normal 0.000000 0.000000 0.003333
  outer loop
    vertex -0.511164 4.300695 -392.626587
    vertex -0.511227 4.350696 -392.626587
    vertex -0.577894 4.350587 -392.626587
  endloop
endfacet
facet normal 0.000000 0.000000 0.003331
  outer loop
    vertex -0.444535 4.300755 -392.626587
    vertex -0.444561 4.350755 -392.626587
    vertex -0.511164 4.300695 -392.626587
  endloop
endfacet
facet normal 0.000000 -0.000000 0.003333
  outer loop
    vertex -0.511164 4.300695 -392.626587
    vertex -0.444561 4.350755 -392.626587
    vertex -0.511227 4.350696 -392.626587
  endloop
endfacet
facet normal 0.000000 -0.000000 0.003331
  outer loop
    vertex -0.377905 4.300765 -392.626587
    vertex -0.377894 4.350764 -392.626587
    vertex -0.444535 4.300755 -392.626587
  endloop
endfacet
facet normal 0.000000 -0.000000 0.003333
  outer loop
    vertex -0.444535 4.300755 -392.626587
    vertex -0.377894 4.350764 -392.626587
    vertex -0.444561 4.350755 -392.626587
  endloop
endfacet
facet normal -0.000000 0.000000 -0.003331
  outer loop
    vertex -0.511164 4.300695 -396.217560
    vertex -0.577794 4.300587 -396.217560
    vertex -0.577894 4.350587 -396.217560
  endloop
endfacet
facet normal 0.000000 -0.000000 -0.003333
  outer loop
    vertex -0.511227 4.350696 -396.217560
    vertex -0.511164 4.300695 -396.217560
    vertex -0.577894 4.350587 -396.217560
  endloop
endfacet
facet normal 0.000000 -0.000000 -0.003331
  outer loop
    vertex -0.444561 4.350755 -396.217560
    vertex -0.444535 4.300755 -396.217560
    vertex -0.511164 4.300695 -396.217560
  endloop
endfacet
facet normal 0.000000 0.000000 -0.003333
  outer loop
    vertex -0.444561 4.350755 -396.217560
    vertex -0.511164 4.300695 -396.217560
    vertex -0.511227 4.350696 -396.217560
  endloop
endfacet
facet normal 0.000000 0.000000 -0.003331
  outer loop
    vertex -0.377894 4.350764 -396.217560
    vertex -0.377905 4.300764 -396.217560
    vertex -0.444535 4.300755 -396.217560
  endloop
endfacet
facet normal 0.000000 0.000000 -0.003333
  outer loop
    vertex -0.377894 4.350764 -396.217560
    vertex -0.444535 4.300755 -396.217560
    vertex -0.444561 4.350755 -396.217560
  endloop
endfacet
endsolid b'MESH-MESH-MESH-MESH-MESH-MESH-MESH-MESH-MESH-MESH-MESH-MESH-MESH-MESH-MESH-MESH'
