solid b'MESH-MESH-MESH-MESH-MESH-MESH-MESH-MESH-MESH-MESH-MESH-MESH-MESH-MESH-MESH-MESH'
facet normal -0.000034 0.239400 0.000000
  outer loop
    vertex -0.444545 4.350754 237.166000
    vertex -0.377879 4.350763 237.166000
    vertex -0.377879 4.350763 233.574997
  endloop
endfacet
facet normal -0.000034 0.239400 0.000000
  outer loop
    vertex -0.444545 4.350754 237.166000
    vertex -0.377879 4.350763 233.574997
    vertex -0.444545 4.350754 233.574997
  endloop
endfacet
facet normal -0.000212 0.239400 0.000000
  outer loop
    vertex -0.511212 4.350695 237.166000
    vertex -0.444545 4.350754 233.574997
    vertex -0.511212 4.350695 233.574997
  endloop
endfacet
facet normal -0.000212 0.239400 0.000000
  outer loop
    vertex -0.511212 4.350695 237.166000
    vertex -0.444545 4.350754 237.166000
    vertex -0.444545 4.350754 233.574997
  endloop
endfacet
facet normal -0.000389 0.239400 0.000000
  outer loop
    vertex -0.577878 4.350586 237.166000
    vertex -0.511212 4.350695 233.574997
    vertex -0.577878 4.350586 233.574997
  endloop
endfacet
facet normal -0.000389 0.239400 0.000000
  outer loop
    vertex -0.577878 4.350586 237.166000
    vertex -0.511212 4.350695 237.166000
    vertex -0.511212 4.350695 233.574997
  endloop
endfacet
facet normal -0.179551 -0.000358 0.000000
  outer loop
    vertex -0.577878 4.350586 237.166000
    vertex -0.577779 4.300586 233.574997
    vertex -0.577779 4.300586 237.166000
  endloop
endfacet
facet normal -0.179551 -0.000358 0.000000
  outer loop
    vertex -0.577878 4.350586 233.574997
    vertex -0.577779 4.300586 233.574997
    vertex -0.577878 4.350586 237.166000
  endloop
endfacet
facet normal 0.000036 -0.239267 0.000000
  outer loop
    vertex -0.377890 4.300764 233.574997
    vertex -0.377890 4.300764 237.166000
    vertex -0.444519 4.300754 233.574997
  endloop
endfacet
facet normal 0.000036 -0.239267 0.000000
  outer loop
    vertex -0.377890 4.300764 237.166000
    vertex -0.444519 4.300754 237.166000
    vertex -0.444519 4.300754 233.574997
  endloop
endfacet
facet normal 0.000211 -0.239267 0.000000
  outer loop
    vertex -0.444519 4.300754 233.574997
    vertex -0.511149 4.300695 237.166000
    vertex -0.511149 4.300695 233.574997
  endloop
endfacet
facet normal 0.000390 -0.239267 0.000000
  outer loop
    vertex -0.511149 4.300695 233.574997
    vertex -0.511149 4.300695 237.166000
    vertex -0.577779 4.300586 233.574997
  endloop
endfacet
facet normal 0.000211 -0.239267 0.000000
  outer loop
    vertex -0.444519 4.300754 237.166000
    vertex -0.511149 4.300695 237.166000
    vertex -0.444519 4.300754 233.574997
  endloop
endfacet
facet normal 0.000390 -0.239267 0.000000
  outer loop
    vertex -0.511149 4.300695 237.166000
    vertex -0.577779 4.300586 237.166000
    vertex -0.577779 4.300586 233.574997
  endloop
endfacet
facet normal 0.179549 -0.000040 0.000000
  outer loop
    vertex -0.377890 4.300764 237.166000
    vertex -0.377879 4.350763 233.574997
    vertex -0.377879 4.350763 237.166000
  endloop
endfacet
facet normal 0.179549 -0.000040 0.000000
  outer loop
    vertex -0.377890 4.300764 233.574997
    vertex -0.377879 4.350763 233.574997
    vertex -0.377890 4.300764 237.166000
  endloop
endfacet
facet normal -0.000000 0.000000 -0.003332
  outer loop
    vertex -0.511149 4.300695 233.574997
    vertex -0.577779 4.300586 233.574997
    vertex -0.577878 4.350586 233.574997
  endloop
endfacet
facet normal 0.000000 -0.000000 -0.003333
  outer loop
    vertex -0.511212 4.350695 233.574997
    vertex -0.511149 4.300695 233.574997
    vertex -0.577878 4.350586 233.574997
  endloop
endfacet
facet normal 0.000000 -0.000000 -0.003331
  outer loop
    vertex -0.444545 4.350754 233.574997
    vertex -0.444519 4.300754 233.574997
    vertex -0.511149 4.300695 233.574997
  endloop
endfacet
facet normal 0.000000 0.000000 -0.003333
  outer loop
    vertex -0.444545 4.350754 233.574997
    vertex -0.511149 4.300695 233.574997
    vertex -0.511212 4.350695 233.574997
  endloop
endfacet
facet normal 0.000000 0.000000 -0.003331
  outer loop
    vertex -0.377879 4.350763 233.574997
    vertex -0.377890 4.300764 233.574997
    vertex -0.444519 4.300754 233.574997
  endloop
endfacet
facet normal 0.000000 0.000000 -0.003333
  outer loop
    vertex -0.377879 4.350763 233.574997
    vertex -0.444519 4.300754 233.574997
    vertex -0.444545 4.350754 233.574997
  endloop
endfacet
facet normal 0.000000 -0.000000 0.003332
  outer loop
    vertex -0.577779 4.300586 237.166000
    vertex -0.511149 4.300695 237.166000
    vertex -0.577878 4.350586 237.166000
  endloop
endfacet
facet normal 0.000000 0.000000 0.003333
  outer loop
    vertex -0.511149 4.300695 237.166000
    vertex -0.511212 4.350695 237.166000
    vertex -0.577878 4.350586 237.166000
  endloop
endfacet
facet normal 0.000000 -0.000000 0.003331
  outer loop
    vertex -0.511149 4.300695 237.166000
    vertex -0.444519 4.300754 237.166000
    vertex -0.511212 4.350695 237.166000
  endloop
endfacet
facet normal 0.000000 0.000000 0.003333
  outer loop
    vertex -0.444519 4.300754 237.166000
    vertex -0.444545 4.350754 237.166000
    vertex -0.511212 4.350695 237.166000
  endloop
endfacet
facet normal 0.000000 -0.000000 0.003331
  outer loop
    vertex -0.444519 4.300754 237.166000
    vertex -0.377890 4.300764 237.166000
    vertex -0.444545 4.350754 237.166000
  endloop
endfacet
facet normal 0.000000 -0.000000 0.003333
  outer loop
    vertex -0.377890 4.300764 237.166000
    vertex -0.377879 4.350763 237.166000
    vertex -0.444545 4.350754 237.166000
  endloop
endfacet
endsolid b'MESH-MESH-MESH-MESH-MESH-MESH-MESH-MESH-MESH-MESH-MESH-MESH-MESH-MESH-MESH-MESH'
