solid b'MESH-MESH-MESH-MESH-MESH-MESH-MESH-MESH-MESH-MESH-MESH-MESH-MESH-MESH-MESH-MESH'
facet normal -0.049394 -0.234253 -0.000000
  outer loop
    vertex -19.023350 -2.404988 -320.721924
    vertex -18.958117 -2.418743 -320.721924
    vertex -18.958117 -2.418743 -317.130920
  endloop
endfacet
facet normal -0.049394 -0.234253 -0.000000
  outer loop
    vertex -19.023350 -2.404988 -320.721924
    vertex -18.958117 -2.418743 -317.130920
    vertex -19.023350 -2.404989 -317.130920
  endloop
endfacet
facet normal -0.049567 -0.234212 -0.000000
  outer loop
    vertex -19.088572 -2.391185 -320.721924
    vertex -19.023350 -2.404989 -317.130920
    vertex -19.088572 -2.391186 -317.130920
  endloop
endfacet
facet normal -0.049567 -0.234212 -0.000000
  outer loop
    vertex -19.088572 -2.391185 -320.721924
    vertex -19.023350 -2.404988 -320.721924
    vertex -19.023350 -2.404989 -317.130920
  endloop
endfacet
facet normal -0.049740 -0.234177 0.000000
  outer loop
    vertex -19.153784 -2.377334 -320.721924
    vertex -19.088572 -2.391186 -317.130920
    vertex -19.153784 -2.377334 -317.130920
  endloop
endfacet
facet normal -0.049740 -0.234177 -0.000000
  outer loop
    vertex -19.153784 -2.377334 -320.721924
    vertex -19.088572 -2.391185 -320.721924
    vertex -19.088572 -2.391186 -317.130920
  endloop
endfacet
facet normal -0.175618 0.037370 0.000000
  outer loop
    vertex -19.153784 -2.377334 -320.721924
    vertex -19.153784 -2.377334 -317.130920
    vertex -19.143377 -2.328429 -320.721924
  endloop
endfacet
facet normal -0.175618 0.037370 0.000000
  outer loop
    vertex -19.153784 -2.377334 -317.130920
    vertex -19.143377 -2.328429 -317.130920
    vertex -19.143377 -2.328429 -320.721924
  endloop
endfacet
facet normal 0.049366 0.234123 0.000000
  outer loop
    vertex -18.947819 -2.369815 -317.130920
    vertex -18.947819 -2.369815 -320.721924
    vertex -19.013016 -2.356068 -317.130920
  endloop
endfacet
facet normal 0.049366 0.234123 0.000000
  outer loop
    vertex -18.947819 -2.369815 -320.721924
    vertex -19.013016 -2.356068 -320.721924
    vertex -19.013016 -2.356068 -317.130920
  endloop
endfacet
facet normal 0.049539 0.234082 0.000000
  outer loop
    vertex -19.013016 -2.356068 -317.130920
    vertex -19.078201 -2.342273 -320.721924
    vertex -19.078201 -2.342273 -317.130920
  endloop
endfacet
facet normal 0.049539 0.234082 0.000000
  outer loop
    vertex -19.013016 -2.356068 -320.721924
    vertex -19.078201 -2.342273 -320.721924
    vertex -19.013016 -2.356068 -317.130920
  endloop
endfacet
facet normal 0.049712 0.234047 0.000000
  outer loop
    vertex -19.078201 -2.342273 -317.130920
    vertex -19.143377 -2.328429 -320.721924
    vertex -19.143377 -2.328429 -317.130920
  endloop
endfacet
facet normal 0.049712 0.234047 0.000000
  outer loop
    vertex -19.078201 -2.342273 -320.721924
    vertex -19.143377 -2.328429 -320.721924
    vertex -19.078201 -2.342273 -317.130920
  endloop
endfacet
facet normal 0.175701 -0.036979 -0.000000
  outer loop
    vertex -18.947819 -2.369815 -320.721924
    vertex -18.958117 -2.418743 -317.130920
    vertex -18.958117 -2.418743 -320.721924
  endloop
endfacet
facet normal 0.175701 -0.036979 -0.000000
  outer loop
    vertex -18.947819 -2.369815 -317.130920
    vertex -18.958117 -2.418743 -317.130920
    vertex -18.947819 -2.369815 -320.721924
  endloop
endfacet
facet normal 0.000000 -0.000000 0.003331
  outer loop
    vertex -19.088572 -2.391186 -317.130920
    vertex -19.078201 -2.342273 -317.130920
    vertex -19.143377 -2.328429 -317.130920
  endloop
endfacet
facet normal 0.000000 0.000000 0.003333
  outer loop
    vertex -19.088572 -2.391186 -317.130920
    vertex -19.143377 -2.328429 -317.130920
    vertex -19.153784 -2.377334 -317.130920
  endloop
endfacet
facet normal 0.000000 -0.000000 0.003331
  outer loop
    vertex -19.023350 -2.404989 -317.130920
    vertex -19.013016 -2.356068 -317.130920
    vertex -19.078201 -2.342273 -317.130920
  endloop
endfacet
facet normal 0.000000 0.000000 0.003333
  outer loop
    vertex -19.023350 -2.404989 -317.130920
    vertex -19.078201 -2.342273 -317.130920
    vertex -19.088572 -2.391186 -317.130920
  endloop
endfacet
facet normal 0.000000 -0.000000 0.003332
  outer loop
    vertex -18.958117 -2.418743 -317.130920
    vertex -18.947819 -2.369815 -317.130920
    vertex -19.013016 -2.356068 -317.130920
  endloop
endfacet
facet normal 0.000000 0.000000 0.003333
  outer loop
    vertex -18.958117 -2.418743 -317.130920
    vertex -19.013016 -2.356068 -317.130920
    vertex -19.023350 -2.404989 -317.130920
  endloop
endfacet
facet normal -0.000000 0.000000 -0.003331
  outer loop
    vertex -19.078201 -2.342273 -320.721924
    vertex -19.088572 -2.391185 -320.721924
    vertex -19.143377 -2.328429 -320.721924
  endloop
endfacet
facet normal 0.000000 -0.000000 -0.003333
  outer loop
    vertex -19.143377 -2.328429 -320.721924
    vertex -19.088572 -2.391185 -320.721924
    vertex -19.153784 -2.377334 -320.721924
  endloop
endfacet
facet normal -0.000000 0.000000 -0.003331
  outer loop
    vertex -19.013016 -2.356068 -320.721924
    vertex -19.023350 -2.404988 -320.721924
    vertex -19.078201 -2.342273 -320.721924
  endloop
endfacet
facet normal 0.000000 -0.000000 -0.003333
  outer loop
    vertex -19.078201 -2.342273 -320.721924
    vertex -19.023350 -2.404988 -320.721924
    vertex -19.088572 -2.391185 -320.721924
  endloop
endfacet
facet normal -0.000000 0.000000 -0.003332
  outer loop
    vertex -18.947819 -2.369815 -320.721924
    vertex -18.958117 -2.418743 -320.721924
    vertex -19.013016 -2.356068 -320.721924
  endloop
endfacet
facet normal 0.000000 -0.000000 -0.003333
  outer loop
    vertex -19.013016 -2.356068 -320.721924
    vertex -18.958117 -2.418743 -320.721924
    vertex -19.023350 -2.404988 -320.721924
  endloop
endfacet
endsolid b'MESH-MESH-MESH-MESH-MESH-MESH-MESH-MESH-MESH-MESH-MESH-MESH-MESH-MESH-MESH-MESH'
