solid b'MESH-MESH-MESH-MESH-MESH-MESH-MESH-MESH-MESH-MESH-MESH-MESH-MESH-MESH-MESH-MESH'
facet normal -0.000034 0.239399 -0.000000
  outer loop
    vertex -0.377899 4.350764 -210.226883
    vertex -0.377899 4.350764 -213.817871
    vertex -0.444566 4.350755 -213.817871
  endloop
endfacet
facet normal -0.000212 0.239399 -0.000000
  outer loop
    vertex -0.444566 4.350755 -210.226883
    vertex -0.444566 4.350755 -213.817871
    vertex -0.511233 4.350696 -213.817871
  endloop
endfacet
facet normal -0.000034 0.239399 -0.000000
  outer loop
    vertex -0.444566 4.350755 -210.226883
    vertex -0.377899 4.350764 -210.226883
    vertex -0.444566 4.350755 -213.817871
  endloop
endfacet
facet normal -0.000390 0.239399 0.000000
  outer loop
    vertex -0.511233 4.350696 -210.226883
    vertex -0.511233 4.350696 -213.817871
    vertex -0.577899 4.350587 -213.817871
  endloop
endfacet
facet normal -0.000212 0.239399 0.000000
  outer loop
    vertex -0.511233 4.350696 -210.226883
    vertex -0.444566 4.350755 -210.226883
    vertex -0.511233 4.350696 -213.817871
  endloop
endfacet
facet normal -0.000389 0.239399 -0.000000
  outer loop
    vertex -0.577899 4.350587 -210.226883
    vertex -0.511233 4.350696 -210.226883
    vertex -0.577899 4.350587 -213.817871
  endloop
endfacet
facet normal -0.179550 -0.000358 -0.000000
  outer loop
    vertex -0.577799 4.300587 -210.226883
    vertex -0.577899 4.350587 -210.226883
    vertex -0.577899 4.350587 -213.817871
  endloop
endfacet
facet normal -0.179548 -0.000358 -0.000000
  outer loop
    vertex -0.577799 4.300587 -210.226883
    vertex -0.577899 4.350587 -213.817871
    vertex -0.577799 4.300587 -213.817871
  endloop
endfacet
facet normal 0.000034 -0.239266 0.000000
  outer loop
    vertex -0.377911 4.300764 -213.817871
    vertex -0.444540 4.300755 -210.226883
    vertex -0.444540 4.300755 -213.817871
  endloop
endfacet
facet normal 0.000036 -0.239266 0.000000
  outer loop
    vertex -0.377911 4.300765 -210.226883
    vertex -0.444540 4.300755 -210.226883
    vertex -0.377911 4.300764 -213.817871
  endloop
endfacet
facet normal 0.000212 -0.239266 0.000000
  outer loop
    vertex -0.444540 4.300755 -213.817871
    vertex -0.511170 4.300696 -210.226883
    vertex -0.511170 4.300695 -213.817871
  endloop
endfacet
facet normal 0.000211 -0.239266 0.000000
  outer loop
    vertex -0.444540 4.300755 -210.226883
    vertex -0.511170 4.300696 -210.226883
    vertex -0.444540 4.300755 -213.817871
  endloop
endfacet
facet normal 0.000389 -0.239266 0.000000
  outer loop
    vertex -0.511170 4.300695 -213.817871
    vertex -0.577799 4.300587 -210.226883
    vertex -0.577799 4.300587 -213.817871
  endloop
endfacet
facet normal 0.000390 -0.239266 0.000000
  outer loop
    vertex -0.511170 4.300696 -210.226883
    vertex -0.577799 4.300587 -210.226883
    vertex -0.511170 4.300695 -213.817871
  endloop
endfacet
facet normal 0.179548 -0.000040 0.000000
  outer loop
    vertex -0.377899 4.350764 -210.226883
    vertex -0.377911 4.300765 -210.226883
    vertex -0.377911 4.300764 -213.817871
  endloop
endfacet
facet normal 0.179550 -0.000040 0.000000
  outer loop
    vertex -0.377899 4.350764 -210.226883
    vertex -0.377911 4.300764 -213.817871
    vertex -0.377899 4.350764 -213.817871
  endloop
endfacet
facet normal 0.000000 -0.000000 0.003332
  outer loop
    vertex -0.577799 4.300587 -210.226883
    vertex -0.511170 4.300696 -210.226883
    vertex -0.577899 4.350587 -210.226883
  endloop
endfacet
facet normal 0.000000 0.000000 0.003333
  outer loop
    vertex -0.511170 4.300696 -210.226883
    vertex -0.511233 4.350696 -210.226883
    vertex -0.577899 4.350587 -210.226883
  endloop
endfacet
facet normal 0.000000 0.000000 0.003331
  outer loop
    vertex -0.444540 4.300755 -210.226883
    vertex -0.444566 4.350755 -210.226883
    vertex -0.511170 4.300696 -210.226883
  endloop
endfacet
facet normal 0.000000 -0.000000 0.003333
  outer loop
    vertex -0.511170 4.300696 -210.226883
    vertex -0.444566 4.350755 -210.226883
    vertex -0.511233 4.350696 -210.226883
  endloop
endfacet
facet normal 0.000000 -0.000000 0.003331
  outer loop
    vertex -0.444540 4.300755 -210.226883
    vertex -0.377911 4.300765 -210.226883
    vertex -0.444566 4.350755 -210.226883
  endloop
endfacet
facet normal 0.000000 -0.000000 0.003333
  outer loop
    vertex -0.377911 4.300765 -210.226883
    vertex -0.377899 4.350764 -210.226883
    vertex -0.444566 4.350755 -210.226883
  endloop
endfacet
facet normal 0.000000 -0.000000 -0.003331
  outer loop
    vertex -0.511233 4.350696 -213.817871
    vertex -0.511170 4.300695 -213.817871
    vertex -0.577799 4.300587 -213.817871
  endloop
endfacet
facet normal 0.000000 0.000000 -0.003333
  outer loop
    vertex -0.511233 4.350696 -213.817871
    vertex -0.577799 4.300587 -213.817871
    vertex -0.577899 4.350587 -213.817871
  endloop
endfacet
facet normal -0.000000 0.000000 -0.003331
  outer loop
    vertex -0.444540 4.300755 -213.817871
    vertex -0.511170 4.300695 -213.817871
    vertex -0.511233 4.350696 -213.817871
  endloop
endfacet
facet normal 0.000000 -0.000000 -0.003333
  outer loop
    vertex -0.444566 4.350755 -213.817871
    vertex -0.444540 4.300755 -213.817871
    vertex -0.511233 4.350696 -213.817871
  endloop
endfacet
facet normal -0.000000 0.000000 -0.003331
  outer loop
    vertex -0.377911 4.300764 -213.817871
    vertex -0.444540 4.300755 -213.817871
    vertex -0.444566 4.350755 -213.817871
  endloop
endfacet
facet normal 0.000000 0.000000 -0.003333
  outer loop
    vertex -0.377899 4.350764 -213.817871
    vertex -0.377911 4.300764 -213.817871
    vertex -0.444566 4.350755 -213.817871
  endloop
endfacet
endsolid b'MESH-MESH-MESH-MESH-MESH-MESH-MESH-MESH-MESH-MESH-MESH-MESH-MESH-MESH-MESH-MESH'
