solid b'MESH-MESH-MESH-MESH-MESH-MESH-MESH-MESH-MESH-MESH-MESH-MESH-MESH-MESH-MESH-MESH'
facet normal 0.000034 -0.239400 0.000000
  outer loop
    vertex 0.444550 -4.350754 -241.299911
    vertex 0.377884 -4.350764 -241.299911
    vertex 0.377884 -4.350764 -244.890915
  endloop
endfacet
facet normal 0.000036 -0.239400 -0.000000
  outer loop
    vertex 0.444550 -4.350754 -241.299911
    vertex 0.377884 -4.350764 -244.890915
    vertex 0.444550 -4.350754 -244.890915
  endloop
endfacet
facet normal 0.000211 -0.239400 -0.000000
  outer loop
    vertex 0.511217 -4.350695 -241.299911
    vertex 0.444550 -4.350754 -244.890915
    vertex 0.511217 -4.350695 -244.890915
  endloop
endfacet
facet normal 0.000212 -0.239400 -0.000000
  outer loop
    vertex 0.511217 -4.350695 -241.299911
    vertex 0.444550 -4.350754 -241.299911
    vertex 0.444550 -4.350754 -244.890915
  endloop
endfacet
facet normal 0.000390 -0.239400 0.000000
  outer loop
    vertex 0.577883 -4.350586 -241.299911
    vertex 0.511217 -4.350695 -244.890915
    vertex 0.577883 -4.350586 -244.890915
  endloop
endfacet
facet normal 0.000390 -0.239400 -0.000000
  outer loop
    vertex 0.577883 -4.350586 -241.299911
    vertex 0.511217 -4.350695 -241.299911
    vertex 0.511217 -4.350695 -244.890915
  endloop
endfacet
facet normal 0.179549 0.000358 0.000000
  outer loop
    vertex 0.577784 -4.300587 -241.299911
    vertex 0.577883 -4.350586 -241.299911
    vertex 0.577883 -4.350586 -244.890915
  endloop
endfacet
facet normal 0.179549 0.000358 0.000000
  outer loop
    vertex 0.577784 -4.300587 -241.299911
    vertex 0.577883 -4.350586 -244.890915
    vertex 0.577784 -4.300587 -244.890915
  endloop
endfacet
facet normal -0.000034 0.239267 0.000000
  outer loop
    vertex 0.377895 -4.300764 -244.890915
    vertex 0.444524 -4.300754 -241.299911
    vertex 0.444524 -4.300754 -244.890915
  endloop
endfacet
facet normal -0.000034 0.239267 0.000000
  outer loop
    vertex 0.377895 -4.300764 -241.299911
    vertex 0.444524 -4.300754 -241.299911
    vertex 0.377895 -4.300764 -244.890915
  endloop
endfacet
facet normal -0.000212 0.239267 0.000000
  outer loop
    vertex 0.444524 -4.300754 -244.890915
    vertex 0.511154 -4.300695 -241.299911
    vertex 0.511154 -4.300695 -244.890915
  endloop
endfacet
facet normal -0.000212 0.239267 0.000000
  outer loop
    vertex 0.444524 -4.300754 -241.299911
    vertex 0.511154 -4.300695 -241.299911
    vertex 0.444524 -4.300754 -244.890915
  endloop
endfacet
facet normal -0.000389 0.239267 0.000000
  outer loop
    vertex 0.511154 -4.300695 -244.890915
    vertex 0.577784 -4.300587 -241.299911
    vertex 0.577784 -4.300587 -244.890915
  endloop
endfacet
facet normal -0.000389 0.239267 0.000000
  outer loop
    vertex 0.511154 -4.300695 -241.299911
    vertex 0.577784 -4.300587 -241.299911
    vertex 0.511154 -4.300695 -244.890915
  endloop
endfacet
facet normal -0.179551 0.000040 0.000000
  outer loop
    vertex 0.377884 -4.350764 -241.299911
    vertex 0.377895 -4.300764 -241.299911
    vertex 0.377895 -4.300764 -244.890915
  endloop
endfacet
facet normal -0.179551 0.000040 0.000000
  outer loop
    vertex 0.377884 -4.350764 -241.299911
    vertex 0.377895 -4.300764 -244.890915
    vertex 0.377884 -4.350764 -244.890915
  endloop
endfacet
facet normal 0.000000 0.000000 0.003331
  outer loop
    vertex 0.577784 -4.300587 -241.299911
    vertex 0.511154 -4.300695 -241.299911
    vertex 0.577883 -4.350586 -241.299911
  endloop
endfacet
facet normal 0.000000 0.000000 0.003333
  outer loop
    vertex 0.511154 -4.300695 -241.299911
    vertex 0.511217 -4.350695 -241.299911
    vertex 0.577883 -4.350586 -241.299911
  endloop
endfacet
facet normal -0.000000 0.000000 0.003331
  outer loop
    vertex 0.444524 -4.300754 -241.299911
    vertex 0.444550 -4.350754 -241.299911
    vertex 0.511154 -4.300695 -241.299911
  endloop
endfacet
facet normal 0.000000 0.000000 0.003333
  outer loop
    vertex 0.511154 -4.300695 -241.299911
    vertex 0.444550 -4.350754 -241.299911
    vertex 0.511217 -4.350695 -241.299911
  endloop
endfacet
facet normal -0.000000 0.000000 0.003331
  outer loop
    vertex 0.377895 -4.300764 -241.299911
    vertex 0.377884 -4.350764 -241.299911
    vertex 0.444524 -4.300754 -241.299911
  endloop
endfacet
facet normal 0.000000 0.000000 0.003333
  outer loop
    vertex 0.444524 -4.300754 -241.299911
    vertex 0.377884 -4.350764 -241.299911
    vertex 0.444550 -4.350754 -241.299911
  endloop
endfacet
facet normal 0.000000 0.000000 -0.003331
  outer loop
    vertex 0.511154 -4.300695 -244.890915
    vertex 0.577784 -4.300587 -244.890915
    vertex 0.577883 -4.350586 -244.890915
  endloop
endfacet
facet normal 0.000000 0.000000 -0.003333
  outer loop
    vertex 0.511217 -4.350695 -244.890915
    vertex 0.511154 -4.300695 -244.890915
    vertex 0.577883 -4.350586 -244.890915
  endloop
endfacet
facet normal 0.000000 0.000000 -0.003331
  outer loop
    vertex 0.444550 -4.350754 -244.890915
    vertex 0.444524 -4.300754 -244.890915
    vertex 0.511154 -4.300695 -244.890915
  endloop
endfacet
facet normal 0.000000 0.000000 -0.003333
  outer loop
    vertex 0.444550 -4.350754 -244.890915
    vertex 0.511154 -4.300695 -244.890915
    vertex 0.511217 -4.350695 -244.890915
  endloop
endfacet
facet normal 0.000000 0.000000 -0.003331
  outer loop
    vertex 0.377884 -4.350764 -244.890915
    vertex 0.377895 -4.300764 -244.890915
    vertex 0.444524 -4.300754 -244.890915
  endloop
endfacet
facet normal 0.000000 0.000000 -0.003333
  outer loop
    vertex 0.377884 -4.350764 -244.890915
    vertex 0.444524 -4.300754 -244.890915
    vertex 0.444550 -4.350754 -244.890915
  endloop
endfacet
endsolid b'MESH-MESH-MESH-MESH-MESH-MESH-MESH-MESH-MESH-MESH-MESH-MESH-MESH-MESH-MESH-MESH'
