solid b'MESH-MESH-MESH-MESH-MESH-MESH-MESH-MESH-MESH-MESH-MESH-MESH-MESH-MESH-MESH-MESH'
facet normal 0.000036 -0.239399 0.000000
  outer loop
    vertex 0.444556 -4.350754 167.317780
    vertex 0.377889 -4.350764 167.317780
    vertex 0.377889 -4.350764 163.726791
  endloop
endfacet
facet normal 0.000036 -0.239399 0.000000
  outer loop
    vertex 0.444556 -4.350754 167.317780
    vertex 0.377889 -4.350764 163.726791
    vertex 0.444556 -4.350754 163.726791
  endloop
endfacet
facet normal 0.000212 -0.239399 0.000000
  outer loop
    vertex 0.511222 -4.350695 167.317780
    vertex 0.444556 -4.350754 163.726791
    vertex 0.511222 -4.350695 163.726791
  endloop
endfacet
facet normal 0.000212 -0.239399 0.000000
  outer loop
    vertex 0.511222 -4.350695 167.317780
    vertex 0.444556 -4.350754 167.317780
    vertex 0.444556 -4.350754 163.726791
  endloop
endfacet
facet normal 0.000389 -0.239399 0.000000
  outer loop
    vertex 0.577889 -4.350587 167.317780
    vertex 0.511222 -4.350695 163.726791
    vertex 0.577889 -4.350587 163.726791
  endloop
endfacet
facet normal 0.000389 -0.239399 0.000000
  outer loop
    vertex 0.577889 -4.350587 167.317780
    vertex 0.511222 -4.350695 167.317780
    vertex 0.511222 -4.350695 163.726791
  endloop
endfacet
facet normal 0.179548 0.000358 0.000000
  outer loop
    vertex 0.577889 -4.350587 167.317780
    vertex 0.577789 -4.300587 163.726791
    vertex 0.577789 -4.300587 167.317780
  endloop
endfacet
facet normal 0.179548 0.000358 0.000000
  outer loop
    vertex 0.577889 -4.350587 163.726791
    vertex 0.577789 -4.300587 163.726791
    vertex 0.577889 -4.350587 167.317780
  endloop
endfacet
facet normal -0.000034 0.239266 -0.000000
  outer loop
    vertex 0.377900 -4.300764 163.726791
    vertex 0.444530 -4.300754 167.317780
    vertex 0.444530 -4.300755 163.726791
  endloop
endfacet
facet normal -0.000036 0.239266 -0.000000
  outer loop
    vertex 0.377900 -4.300764 167.317780
    vertex 0.444530 -4.300754 167.317780
    vertex 0.377900 -4.300764 163.726791
  endloop
endfacet
facet normal -0.000212 0.239266 -0.000000
  outer loop
    vertex 0.444530 -4.300755 163.726791
    vertex 0.511159 -4.300695 167.317780
    vertex 0.511159 -4.300695 163.726791
  endloop
endfacet
facet normal -0.000211 0.239266 -0.000000
  outer loop
    vertex 0.444530 -4.300754 167.317780
    vertex 0.511159 -4.300695 167.317780
    vertex 0.444530 -4.300755 163.726791
  endloop
endfacet
facet normal -0.000389 0.239266 -0.000000
  outer loop
    vertex 0.511159 -4.300695 163.726791
    vertex 0.577789 -4.300587 167.317780
    vertex 0.577789 -4.300587 163.726791
  endloop
endfacet
facet normal -0.000389 0.239266 -0.000000
  outer loop
    vertex 0.511159 -4.300695 167.317780
    vertex 0.577789 -4.300587 167.317780
    vertex 0.511159 -4.300695 163.726791
  endloop
endfacet
facet normal -0.179550 0.000040 0.000000
  outer loop
    vertex 0.377900 -4.300764 167.317780
    vertex 0.377889 -4.350764 163.726791
    vertex 0.377889 -4.350764 167.317780
  endloop
endfacet
facet normal -0.179550 0.000040 -0.000000
  outer loop
    vertex 0.377900 -4.300764 163.726791
    vertex 0.377889 -4.350764 163.726791
    vertex 0.377900 -4.300764 167.317780
  endloop
endfacet
facet normal 0.000000 0.000000 -0.003331
  outer loop
    vertex 0.511159 -4.300695 163.726791
    vertex 0.577789 -4.300587 163.726791
    vertex 0.577889 -4.350587 163.726791
  endloop
endfacet
facet normal 0.000000 0.000000 -0.003333
  outer loop
    vertex 0.511222 -4.350695 163.726791
    vertex 0.511159 -4.300695 163.726791
    vertex 0.577889 -4.350587 163.726791
  endloop
endfacet
facet normal 0.000000 0.000000 -0.003331
  outer loop
    vertex 0.444556 -4.350754 163.726791
    vertex 0.444530 -4.300755 163.726791
    vertex 0.511159 -4.300695 163.726791
  endloop
endfacet
facet normal 0.000000 0.000000 -0.003333
  outer loop
    vertex 0.444556 -4.350754 163.726791
    vertex 0.511159 -4.300695 163.726791
    vertex 0.511222 -4.350695 163.726791
  endloop
endfacet
facet normal 0.000000 0.000000 -0.003331
  outer loop
    vertex 0.377889 -4.350764 163.726791
    vertex 0.377900 -4.300764 163.726791
    vertex 0.444530 -4.300755 163.726791
  endloop
endfacet
facet normal 0.000000 0.000000 -0.003333
  outer loop
    vertex 0.377889 -4.350764 163.726791
    vertex 0.444530 -4.300755 163.726791
    vertex 0.444556 -4.350754 163.726791
  endloop
endfacet
facet normal 0.000000 0.000000 0.003331
  outer loop
    vertex 0.577789 -4.300587 167.317780
    vertex 0.511159 -4.300695 167.317780
    vertex 0.577889 -4.350587 167.317780
  endloop
endfacet
facet normal 0.000000 0.000000 0.003333
  outer loop
    vertex 0.511159 -4.300695 167.317780
    vertex 0.511222 -4.350695 167.317780
    vertex 0.577889 -4.350587 167.317780
  endloop
endfacet
facet normal -0.000000 0.000000 0.003331
  outer loop
    vertex 0.444530 -4.300754 167.317780
    vertex 0.444556 -4.350754 167.317780
    vertex 0.511159 -4.300695 167.317780
  endloop
endfacet
facet normal 0.000000 0.000000 0.003333
  outer loop
    vertex 0.511159 -4.300695 167.317780
    vertex 0.444556 -4.350754 167.317780
    vertex 0.511222 -4.350695 167.317780
  endloop
endfacet
facet normal -0.000000 0.000000 0.003331
  outer loop
    vertex 0.377900 -4.300764 167.317780
    vertex 0.377889 -4.350764 167.317780
    vertex 0.444530 -4.300754 167.317780
  endloop
endfacet
facet normal 0.000000 0.000000 0.003333
  outer loop
    vertex 0.444530 -4.300754 167.317780
    vertex 0.377889 -4.350764 167.317780
    vertex 0.444556 -4.350754 167.317780
  endloop
endfacet
endsolid b'MESH-MESH-MESH-MESH-MESH-MESH-MESH-MESH-MESH-MESH-MESH-MESH-MESH-MESH-MESH-MESH'
