solid b'MESH-MESH-MESH-MESH-MESH-MESH-MESH-MESH-MESH-MESH-MESH-MESH-MESH-MESH-MESH-MESH'
facet normal 0.049394 0.234245 -0.000000
  outer loop
    vertex 18.958096 2.418747 -112.729874
    vertex 18.958096 2.418747 -109.138878
    vertex 19.023327 2.404992 -109.138878
  endloop
endfacet
facet normal 0.049567 0.234218 -0.000000
  outer loop
    vertex 19.023327 2.404992 -112.729874
    vertex 19.023327 2.404992 -109.138878
    vertex 19.088551 2.391189 -109.138878
  endloop
endfacet
facet normal 0.049394 0.234245 -0.000000
  outer loop
    vertex 19.023327 2.404992 -112.729874
    vertex 18.958096 2.418747 -112.729874
    vertex 19.023327 2.404992 -109.138878
  endloop
endfacet
facet normal 0.049567 0.234218 -0.000000
  outer loop
    vertex 19.088551 2.391189 -112.729874
    vertex 19.023327 2.404992 -112.729874
    vertex 19.088551 2.391189 -109.138878
  endloop
endfacet
facet normal 0.049739 0.234170 -0.000000
  outer loop
    vertex 19.153761 2.377338 -112.729874
    vertex 19.088551 2.391189 -109.138878
    vertex 19.153761 2.377338 -109.138878
  endloop
endfacet
facet normal 0.049739 0.234170 0.000000
  outer loop
    vertex 19.153761 2.377338 -112.729874
    vertex 19.088551 2.391189 -112.729874
    vertex 19.088551 2.391189 -109.138878
  endloop
endfacet
facet normal 0.175618 -0.037370 0.000000
  outer loop
    vertex 19.153761 2.377338 -112.729874
    vertex 19.143354 2.328433 -109.138878
    vertex 19.143354 2.328433 -112.729874
  endloop
endfacet
facet normal 0.175618 -0.037370 0.000000
  outer loop
    vertex 19.153761 2.377338 -109.138878
    vertex 19.143354 2.328433 -109.138878
    vertex 19.153761 2.377338 -112.729874
  endloop
endfacet
facet normal -0.049366 -0.234115 0.000000
  outer loop
    vertex 18.947798 2.369819 -109.138878
    vertex 19.012993 2.356072 -112.729874
    vertex 19.012993 2.356072 -109.138878
  endloop
endfacet
facet normal -0.049538 -0.234088 -0.000000
  outer loop
    vertex 19.012993 2.356072 -109.138878
    vertex 19.012993 2.356072 -112.729874
    vertex 19.078180 2.342277 -109.138878
  endloop
endfacet
facet normal -0.049366 -0.234115 0.000000
  outer loop
    vertex 18.947798 2.369819 -112.729874
    vertex 19.012993 2.356072 -112.729874
    vertex 18.947798 2.369819 -109.138878
  endloop
endfacet
facet normal -0.049538 -0.234088 0.000000
  outer loop
    vertex 19.012993 2.356072 -112.729874
    vertex 19.078180 2.342277 -112.729874
    vertex 19.078180 2.342277 -109.138878
  endloop
endfacet
facet normal -0.049713 -0.234040 0.000000
  outer loop
    vertex 19.078180 2.342277 -109.138878
    vertex 19.143354 2.328433 -112.729874
    vertex 19.143354 2.328433 -109.138878
  endloop
endfacet
facet normal -0.049713 -0.234040 0.000000
  outer loop
    vertex 19.078180 2.342277 -112.729874
    vertex 19.143354 2.328433 -112.729874
    vertex 19.078180 2.342277 -109.138878
  endloop
endfacet
facet normal -0.175700 0.036979 0.000000
  outer loop
    vertex 18.947798 2.369819 -112.729874
    vertex 18.947798 2.369819 -109.138878
    vertex 18.958096 2.418747 -112.729874
  endloop
endfacet
facet normal -0.175700 0.036979 0.000000
  outer loop
    vertex 18.947798 2.369819 -109.138878
    vertex 18.958096 2.418747 -109.138878
    vertex 18.958096 2.418747 -112.729874
  endloop
endfacet
facet normal -0.000000 0.000000 0.003331
  outer loop
    vertex 19.078180 2.342277 -109.138878
    vertex 19.143354 2.328433 -109.138878
    vertex 19.153761 2.377338 -109.138878
  endloop
endfacet
facet normal 0.000000 0.000000 0.003333
  outer loop
    vertex 19.088551 2.391189 -109.138878
    vertex 19.078180 2.342277 -109.138878
    vertex 19.153761 2.377338 -109.138878
  endloop
endfacet
facet normal 0.000000 0.000000 0.003332
  outer loop
    vertex 19.023327 2.404992 -109.138878
    vertex 19.012993 2.356072 -109.138878
    vertex 19.078180 2.342277 -109.138878
  endloop
endfacet
facet normal 0.000000 0.000000 0.003333
  outer loop
    vertex 19.023327 2.404992 -109.138878
    vertex 19.078180 2.342277 -109.138878
    vertex 19.088551 2.391189 -109.138878
  endloop
endfacet
facet normal 0.000000 0.000000 0.003331
  outer loop
    vertex 18.958096 2.418747 -109.138878
    vertex 18.947798 2.369819 -109.138878
    vertex 19.012993 2.356072 -109.138878
  endloop
endfacet
facet normal 0.000000 0.000000 0.003333
  outer loop
    vertex 18.958096 2.418747 -109.138878
    vertex 19.012993 2.356072 -109.138878
    vertex 19.023327 2.404992 -109.138878
  endloop
endfacet
facet normal 0.000000 0.000000 -0.003331
  outer loop
    vertex 19.143354 2.328433 -112.729874
    vertex 19.078180 2.342277 -112.729874
    vertex 19.153761 2.377338 -112.729874
  endloop
endfacet
facet normal 0.000000 0.000000 -0.003333
  outer loop
    vertex 19.078180 2.342277 -112.729874
    vertex 19.088551 2.391189 -112.729874
    vertex 19.153761 2.377338 -112.729874
  endloop
endfacet
facet normal 0.000000 0.000000 -0.003332
  outer loop
    vertex 19.012993 2.356072 -112.729874
    vertex 19.023327 2.404992 -112.729874
    vertex 19.078180 2.342277 -112.729874
  endloop
endfacet
facet normal 0.000000 0.000000 -0.003333
  outer loop
    vertex 19.078180 2.342277 -112.729874
    vertex 19.023327 2.404992 -112.729874
    vertex 19.088551 2.391189 -112.729874
  endloop
endfacet
facet normal 0.000000 0.000000 -0.003331
  outer loop
    vertex 18.947798 2.369819 -112.729874
    vertex 18.958096 2.418747 -112.729874
    vertex 19.012993 2.356072 -112.729874
  endloop
endfacet
facet normal 0.000000 0.000000 -0.003333
  outer loop
    vertex 19.012993 2.356072 -112.729874
    vertex 18.958096 2.418747 -112.729874
    vertex 19.023327 2.404992 -112.729874
  endloop
endfacet
endsolid b'MESH-MESH-MESH-MESH-MESH-MESH-MESH-MESH-MESH-MESH-MESH-MESH-MESH-MESH-MESH-MESH'
