solid b'MESH-MESH-MESH-MESH-MESH-MESH-MESH-MESH-MESH-MESH-MESH-MESH-MESH-MESH-MESH-MESH'
facet normal 0.000036 0.239400 0.000000
  outer loop
    vertex 0.444566 4.350755 87.325310
    vertex 0.377900 4.350765 87.325310
    vertex 0.377900 4.350764 90.916306
  endloop
endfacet
facet normal 0.000034 0.239400 0.000000
  outer loop
    vertex 0.444566 4.350755 87.325310
    vertex 0.377900 4.350764 90.916306
    vertex 0.444566 4.350755 90.916306
  endloop
endfacet
facet normal 0.000212 0.239400 -0.000000
  outer loop
    vertex 0.511233 4.350696 87.325310
    vertex 0.444566 4.350755 90.916306
    vertex 0.511233 4.350696 90.916306
  endloop
endfacet
facet normal 0.000212 0.239400 0.000000
  outer loop
    vertex 0.511233 4.350696 87.325310
    vertex 0.444566 4.350755 87.325310
    vertex 0.444566 4.350755 90.916306
  endloop
endfacet
facet normal 0.000389 0.239399 0.000000
  outer loop
    vertex 0.577900 4.350587 87.325310
    vertex 0.511233 4.350696 90.916306
    vertex 0.577900 4.350587 90.916306
  endloop
endfacet
facet normal 0.000389 0.239399 0.000000
  outer loop
    vertex 0.577900 4.350587 87.325310
    vertex 0.511233 4.350696 87.325310
    vertex 0.511233 4.350696 90.916306
  endloop
endfacet
facet normal 0.179549 -0.000358 0.000000
  outer loop
    vertex 0.577800 4.300588 87.325310
    vertex 0.577900 4.350587 87.325310
    vertex 0.577900 4.350587 90.916306
  endloop
endfacet
facet normal 0.179550 -0.000358 0.000000
  outer loop
    vertex 0.577800 4.300588 87.325310
    vertex 0.577900 4.350587 90.916306
    vertex 0.577800 4.300587 90.916306
  endloop
endfacet
facet normal -0.000036 -0.239267 -0.000000
  outer loop
    vertex 0.377911 4.300765 90.916306
    vertex 0.444541 4.300755 87.325310
    vertex 0.444541 4.300755 90.916306
  endloop
endfacet
facet normal -0.000034 -0.239267 -0.000000
  outer loop
    vertex 0.377911 4.300765 87.325310
    vertex 0.444541 4.300755 87.325310
    vertex 0.377911 4.300765 90.916306
  endloop
endfacet
facet normal -0.000211 -0.239267 -0.000000
  outer loop
    vertex 0.444541 4.300755 90.916306
    vertex 0.511170 4.300696 87.325310
    vertex 0.511170 4.300696 90.916306
  endloop
endfacet
facet normal -0.000212 -0.239267 -0.000000
  outer loop
    vertex 0.444541 4.300755 87.325310
    vertex 0.511170 4.300696 87.325310
    vertex 0.444541 4.300755 90.916306
  endloop
endfacet
facet normal -0.000390 -0.239267 -0.000000
  outer loop
    vertex 0.511170 4.300696 90.916306
    vertex 0.577800 4.300588 87.325310
    vertex 0.577800 4.300587 90.916306
  endloop
endfacet
facet normal -0.000389 -0.239267 -0.000000
  outer loop
    vertex 0.511170 4.300696 87.325310
    vertex 0.577800 4.300588 87.325310
    vertex 0.511170 4.300696 90.916306
  endloop
endfacet
facet normal -0.179550 -0.000040 -0.000000
  outer loop
    vertex 0.377900 4.350765 87.325310
    vertex 0.377911 4.300765 87.325310
    vertex 0.377911 4.300765 90.916306
  endloop
endfacet
facet normal -0.179549 -0.000040 -0.000000
  outer loop
    vertex 0.377900 4.350765 87.325310
    vertex 0.377911 4.300765 90.916306
    vertex 0.377900 4.350764 90.916306
  endloop
endfacet
facet normal 0.000000 0.000000 -0.003331
  outer loop
    vertex 0.577800 4.300588 87.325310
    vertex 0.511170 4.300696 87.325310
    vertex 0.577900 4.350587 87.325310
  endloop
endfacet
facet normal 0.000000 0.000000 -0.003333
  outer loop
    vertex 0.511170 4.300696 87.325310
    vertex 0.511233 4.350696 87.325310
    vertex 0.577900 4.350587 87.325310
  endloop
endfacet
facet normal 0.000000 0.000000 -0.003331
  outer loop
    vertex 0.444541 4.300755 87.325310
    vertex 0.444566 4.350755 87.325310
    vertex 0.511170 4.300696 87.325310
  endloop
endfacet
facet normal 0.000000 0.000000 -0.003333
  outer loop
    vertex 0.511170 4.300696 87.325310
    vertex 0.444566 4.350755 87.325310
    vertex 0.511233 4.350696 87.325310
  endloop
endfacet
facet normal 0.000000 0.000000 -0.003331
  outer loop
    vertex 0.377911 4.300765 87.325310
    vertex 0.377900 4.350765 87.325310
    vertex 0.444541 4.300755 87.325310
  endloop
endfacet
facet normal 0.000000 0.000000 -0.003333
  outer loop
    vertex 0.444541 4.300755 87.325310
    vertex 0.377900 4.350765 87.325310
    vertex 0.444566 4.350755 87.325310
  endloop
endfacet
facet normal -0.000000 0.000000 0.003332
  outer loop
    vertex 0.511170 4.300696 90.916306
    vertex 0.577800 4.300587 90.916306
    vertex 0.577900 4.350587 90.916306
  endloop
endfacet
facet normal 0.000000 0.000000 0.003333
  outer loop
    vertex 0.511233 4.350696 90.916306
    vertex 0.511170 4.300696 90.916306
    vertex 0.577900 4.350587 90.916306
  endloop
endfacet
facet normal 0.000000 0.000000 0.003331
  outer loop
    vertex 0.444566 4.350755 90.916306
    vertex 0.444541 4.300755 90.916306
    vertex 0.511170 4.300696 90.916306
  endloop
endfacet
facet normal 0.000000 0.000000 0.003333
  outer loop
    vertex 0.444566 4.350755 90.916306
    vertex 0.511170 4.300696 90.916306
    vertex 0.511233 4.350696 90.916306
  endloop
endfacet
facet normal 0.000000 0.000000 0.003331
  outer loop
    vertex 0.377900 4.350764 90.916306
    vertex 0.377911 4.300765 90.916306
    vertex 0.444541 4.300755 90.916306
  endloop
endfacet
facet normal 0.000000 0.000000 0.003333
  outer loop
    vertex 0.377900 4.350764 90.916306
    vertex 0.444541 4.300755 90.916306
    vertex 0.444566 4.350755 90.916306
  endloop
endfacet
endsolid b'MESH-MESH-MESH-MESH-MESH-MESH-MESH-MESH-MESH-MESH-MESH-MESH-MESH-MESH-MESH-MESH'
