solid b'MESH-MESH-MESH-MESH-MESH-MESH-MESH-MESH-MESH-MESH-MESH-MESH-MESH-MESH-MESH-MESH'
facet normal -0.049393 -0.234251 0.000000
  outer loop
    vertex -19.023340 -2.404991 -280.980896
    vertex -18.958107 -2.418746 -280.980896
    vertex -18.958107 -2.418746 -277.389923
  endloop
endfacet
facet normal -0.049392 -0.234251 -0.000000
  outer loop
    vertex -19.023340 -2.404991 -280.980896
    vertex -18.958107 -2.418746 -277.389923
    vertex -19.023340 -2.404991 -277.389923
  endloop
endfacet
facet normal -0.049566 -0.234210 -0.000000
  outer loop
    vertex -19.088562 -2.391188 -280.980896
    vertex -19.023340 -2.404991 -277.389923
    vertex -19.088562 -2.391188 -277.389923
  endloop
endfacet
facet normal -0.049740 -0.234175 -0.000000
  outer loop
    vertex -19.088562 -2.391188 -280.980896
    vertex -19.088562 -2.391188 -277.389923
    vertex -19.153774 -2.377337 -277.389923
  endloop
endfacet
facet normal -0.049566 -0.234210 -0.000000
  outer loop
    vertex -19.088562 -2.391188 -280.980896
    vertex -19.023340 -2.404991 -280.980896
    vertex -19.023340 -2.404991 -277.389923
  endloop
endfacet
facet normal -0.049739 -0.234169 -0.000000
  outer loop
    vertex -19.153772 -2.377337 -280.980896
    vertex -19.088562 -2.391188 -280.980896
    vertex -19.153774 -2.377337 -277.389923
  endloop
endfacet
facet normal -0.175617 0.037369 -0.000000
  outer loop
    vertex -19.153772 -2.377337 -280.980896
    vertex -19.153774 -2.377337 -277.389923
    vertex -19.143366 -2.328431 -280.980896
  endloop
endfacet
facet normal -0.175616 0.037376 0.000000
  outer loop
    vertex -19.153774 -2.377337 -277.389923
    vertex -19.143366 -2.328432 -277.389923
    vertex -19.143366 -2.328431 -280.980896
  endloop
endfacet
facet normal 0.049365 0.234114 0.000000
  outer loop
    vertex -18.947809 -2.369817 -277.389923
    vertex -19.013004 -2.356070 -280.980896
    vertex -19.013004 -2.356071 -277.389923
  endloop
endfacet
facet normal 0.049366 0.234114 -0.000000
  outer loop
    vertex -18.947809 -2.369817 -280.980896
    vertex -19.013004 -2.356070 -280.980896
    vertex -18.947809 -2.369817 -277.389923
  endloop
endfacet
facet normal 0.049539 0.234086 0.000000
  outer loop
    vertex -19.013004 -2.356071 -277.389923
    vertex -19.078192 -2.342275 -280.980896
    vertex -19.078192 -2.342275 -277.389923
  endloop
endfacet
facet normal 0.049539 0.234086 0.000000
  outer loop
    vertex -19.013004 -2.356070 -280.980896
    vertex -19.078192 -2.342275 -280.980896
    vertex -19.013004 -2.356071 -277.389923
  endloop
endfacet
facet normal 0.049712 0.234038 0.000000
  outer loop
    vertex -19.078192 -2.342275 -277.389923
    vertex -19.143366 -2.328431 -280.980896
    vertex -19.143366 -2.328432 -277.389923
  endloop
endfacet
facet normal 0.049712 0.234038 0.000000
  outer loop
    vertex -19.078192 -2.342275 -280.980896
    vertex -19.143366 -2.328431 -280.980896
    vertex -19.078192 -2.342275 -277.389923
  endloop
endfacet
facet normal 0.175699 -0.036979 0.000000
  outer loop
    vertex -18.947809 -2.369817 -280.980896
    vertex -18.947809 -2.369817 -277.389923
    vertex -18.958107 -2.418746 -280.980896
  endloop
endfacet
facet normal 0.175699 -0.036979 0.000000
  outer loop
    vertex -18.947809 -2.369817 -277.389923
    vertex -18.958107 -2.418746 -277.389923
    vertex -18.958107 -2.418746 -280.980896
  endloop
endfacet
facet normal 0.000000 0.000000 0.003331
  outer loop
    vertex -19.078192 -2.342275 -277.389923
    vertex -19.143366 -2.328432 -277.389923
    vertex -19.153774 -2.377337 -277.389923
  endloop
endfacet
facet normal 0.000000 -0.000000 0.003333
  outer loop
    vertex -19.088562 -2.391188 -277.389923
    vertex -19.078192 -2.342275 -277.389923
    vertex -19.153774 -2.377337 -277.389923
  endloop
endfacet
facet normal 0.000000 -0.000000 0.003332
  outer loop
    vertex -19.023340 -2.404991 -277.389923
    vertex -19.013004 -2.356071 -277.389923
    vertex -19.078192 -2.342275 -277.389923
  endloop
endfacet
facet normal 0.000000 0.000000 0.003333
  outer loop
    vertex -19.023340 -2.404991 -277.389923
    vertex -19.078192 -2.342275 -277.389923
    vertex -19.088562 -2.391188 -277.389923
  endloop
endfacet
facet normal 0.000000 -0.000000 0.003331
  outer loop
    vertex -18.958107 -2.418746 -277.389923
    vertex -18.947809 -2.369817 -277.389923
    vertex -19.013004 -2.356071 -277.389923
  endloop
endfacet
facet normal 0.000000 0.000000 0.003333
  outer loop
    vertex -18.958107 -2.418746 -277.389923
    vertex -19.013004 -2.356071 -277.389923
    vertex -19.023340 -2.404991 -277.389923
  endloop
endfacet
facet normal 0.000000 -0.000000 -0.003331
  outer loop
    vertex -19.143366 -2.328431 -280.980896
    vertex -19.078192 -2.342275 -280.980896
    vertex -19.153772 -2.377337 -280.980896
  endloop
endfacet
facet normal 0.000000 0.000000 -0.003333
  outer loop
    vertex -19.078192 -2.342275 -280.980896
    vertex -19.088562 -2.391188 -280.980896
    vertex -19.153772 -2.377337 -280.980896
  endloop
endfacet
facet normal -0.000000 0.000000 -0.003332
  outer loop
    vertex -19.013004 -2.356070 -280.980896
    vertex -19.023340 -2.404991 -280.980896
    vertex -19.078192 -2.342275 -280.980896
  endloop
endfacet
facet normal 0.000000 -0.000000 -0.003333
  outer loop
    vertex -19.078192 -2.342275 -280.980896
    vertex -19.023340 -2.404991 -280.980896
    vertex -19.088562 -2.391188 -280.980896
  endloop
endfacet
facet normal -0.000000 0.000000 -0.003331
  outer loop
    vertex -18.947809 -2.369817 -280.980896
    vertex -18.958107 -2.418746 -280.980896
    vertex -19.013004 -2.356070 -280.980896
  endloop
endfacet
facet normal 0.000000 -0.000000 -0.003333
  outer loop
    vertex -19.013004 -2.356070 -280.980896
    vertex -18.958107 -2.418746 -280.980896
    vertex -19.023340 -2.404991 -280.980896
  endloop
endfacet
endsolid b'MESH-MESH-MESH-MESH-MESH-MESH-MESH-MESH-MESH-MESH-MESH-MESH-MESH-MESH-MESH-MESH'
