solid b'MESH-MESH-MESH-MESH-MESH-MESH-MESH-MESH-MESH-MESH-MESH-MESH-MESH-MESH-MESH-MESH'
facet normal -0.104927 5.867801 0.000000
  outer loop
    vertex -3.964770 4.280154 325.330017
    vertex -0.052903 4.350105 325.330017
    vertex -0.052903 4.350105 323.830017
  endloop
endfacet
facet normal -0.104927 5.867801 0.000000
  outer loop
    vertex -3.964770 4.280154 325.330017
    vertex -0.052903 4.350105 323.830017
    vertex -3.964770 4.280154 323.830017
  endloop
endfacet
facet normal -0.359528 5.857717 0.000000
  outer loop
    vertex -7.869914 4.040468 325.330017
    vertex -3.964770 4.280154 323.830017
    vertex -7.869914 4.040468 323.830017
  endloop
endfacet
facet normal -0.359528 5.857717 0.000000
  outer loop
    vertex -7.869914 4.040468 325.330017
    vertex -3.964770 4.280154 325.330017
    vertex -3.964770 4.280154 323.830017
  endloop
endfacet
facet normal -0.613452 5.836588 0.000000
  outer loop
    vertex -11.760973 3.631500 325.330017
    vertex -7.869914 4.040468 323.830017
    vertex -11.760973 3.631500 323.830017
  endloop
endfacet
facet normal -0.613452 5.836588 0.000000
  outer loop
    vertex -11.760973 3.631500 325.330017
    vertex -7.869914 4.040468 325.330017
    vertex -7.869914 4.040468 323.830017
  endloop
endfacet
facet normal -0.866219 5.804461 0.000001
  outer loop
    vertex -15.630613 3.054021 325.330017
    vertex -11.760973 3.631500 323.830017
    vertex -15.630613 3.054021 323.830017
  endloop
endfacet
facet normal -0.866219 5.804461 0.000000
  outer loop
    vertex -15.630613 3.054021 325.330017
    vertex -11.760973 3.631500 325.330017
    vertex -11.760973 3.631500 323.830017
  endloop
endfacet
facet normal -1.117354 5.761391 0.000000
  outer loop
    vertex -19.471540 2.309119 325.330017
    vertex -15.630613 3.054021 323.830017
    vertex -19.471540 2.309119 323.830017
  endloop
endfacet
facet normal -1.117354 5.761391 0.000001
  outer loop
    vertex -19.471540 2.309119 325.330017
    vertex -15.630613 3.054021 325.330017
    vertex -15.630613 3.054021 323.830017
  endloop
endfacet
facet normal -0.073301 -0.015873 -0.000000
  outer loop
    vertex -19.471540 2.309119 325.330017
    vertex -19.460958 2.260252 323.830017
    vertex -19.460958 2.260251 325.330017
  endloop
endfacet
facet normal -0.073300 -0.015873 0.000000
  outer loop
    vertex -19.471540 2.309119 323.830017
    vertex -19.460958 2.260252 323.830017
    vertex -19.471540 2.309119 325.330017
  endloop
endfacet
facet normal 0.104869 -5.864545 0.000000
  outer loop
    vertex -0.053094 4.300105 323.830017
    vertex -3.962791 4.230193 325.330017
    vertex -3.962791 4.230193 323.830017
  endloop
endfacet
facet normal 0.104869 -5.864545 -0.000000
  outer loop
    vertex -0.053094 4.300105 325.330017
    vertex -3.962791 4.230193 325.330017
    vertex -0.053094 4.300105 323.830017
  endloop
endfacet
facet normal 0.359328 -5.854466 0.000000
  outer loop
    vertex -3.962791 4.230193 323.830017
    vertex -7.865768 3.990640 325.330017
    vertex -7.865768 3.990640 323.830017
  endloop
endfacet
facet normal 0.359328 -5.854466 0.000000
  outer loop
    vertex -3.962791 4.230193 325.330017
    vertex -7.865768 3.990640 325.330017
    vertex -3.962791 4.230193 323.830017
  endloop
endfacet
facet normal 0.613111 -5.833351 0.000000
  outer loop
    vertex -7.865768 3.990640 323.830017
    vertex -11.754669 3.581899 325.330017
    vertex -11.754669 3.581899 323.830017
  endloop
endfacet
facet normal 0.613111 -5.833351 0.000000
  outer loop
    vertex -7.865768 3.990640 325.330017
    vertex -11.754669 3.581899 325.330017
    vertex -7.865768 3.990640 323.830017
  endloop
endfacet
facet normal 0.865738 -5.801239 0.000000
  outer loop
    vertex -11.754669 3.581899 323.830017
    vertex -15.622162 3.004740 325.330017
    vertex -15.622162 3.004740 323.830017
  endloop
endfacet
facet normal 0.865738 -5.801239 0.000000
  outer loop
    vertex -11.754669 3.581899 325.330017
    vertex -15.622162 3.004740 325.330017
    vertex -11.754669 3.581899 323.830017
  endloop
endfacet
facet normal 1.116733 -5.758195 -0.000001
  outer loop
    vertex -15.622162 3.004740 323.830017
    vertex -19.460958 2.260251 325.330017
    vertex -19.460958 2.260252 323.830017
  endloop
endfacet
facet normal 1.116734 -5.758195 0.000000
  outer loop
    vertex -15.622162 3.004740 325.330017
    vertex -19.460958 2.260251 325.330017
    vertex -15.622162 3.004740 323.830017
  endloop
endfacet
facet normal 0.075000 -0.000287 -0.000000
  outer loop
    vertex -0.053094 4.300105 325.330017
    vertex -0.052903 4.350105 323.830017
    vertex -0.052903 4.350105 325.330017
  endloop
endfacet
facet normal 0.075000 -0.000287 -0.000000
  outer loop
    vertex -0.053094 4.300105 323.830017
    vertex -0.052903 4.350105 323.830017
    vertex -0.053094 4.300105 325.330017
  endloop
endfacet
facet normal 0.000000 -0.000000 -0.195470
  outer loop
    vertex -15.630613 3.054021 323.830017
    vertex -15.622162 3.004740 323.830017
    vertex -19.460958 2.260252 323.830017
  endloop
endfacet
facet normal 0.000000 0.000000 -0.195577
  outer loop
    vertex -15.630613 3.054021 323.830017
    vertex -19.460958 2.260252 323.830017
    vertex -19.471540 2.309119 323.830017
  endloop
endfacet
facet normal 0.000000 -0.000000 -0.195470
  outer loop
    vertex -11.760973 3.631500 323.830017
    vertex -11.754669 3.581899 323.830017
    vertex -15.622162 3.004740 323.830017
  endloop
endfacet
facet normal 0.000000 0.000000 -0.195579
  outer loop
    vertex -11.760973 3.631500 323.830017
    vertex -15.622162 3.004740 323.830017
    vertex -15.630613 3.054021 323.830017
  endloop
endfacet
facet normal 0.000000 -0.000000 -0.195470
  outer loop
    vertex -7.869914 4.040468 323.830017
    vertex -7.865768 3.990640 323.830017
    vertex -11.754669 3.581899 323.830017
  endloop
endfacet
facet normal 0.000000 0.000000 -0.195579
  outer loop
    vertex -7.869914 4.040468 323.830017
    vertex -11.754669 3.581899 323.830017
    vertex -11.760973 3.631500 323.830017
  endloop
endfacet
facet normal 0.000000 -0.000000 -0.195471
  outer loop
    vertex -3.964770 4.280154 323.830017
    vertex -3.962791 4.230193 323.830017
    vertex -7.865768 3.990640 323.830017
  endloop
endfacet
facet normal 0.000000 0.000000 -0.195578
  outer loop
    vertex -3.964770 4.280154 323.830017
    vertex -7.865768 3.990640 323.830017
    vertex -7.869914 4.040468 323.830017
  endloop
endfacet
facet normal 0.000000 0.000000 -0.195470
  outer loop
    vertex -0.052903 4.350105 323.830017
    vertex -0.053094 4.300105 323.830017
    vertex -3.962791 4.230193 323.830017
  endloop
endfacet
facet normal 0.000000 0.000000 -0.195580
  outer loop
    vertex -0.052903 4.350105 323.830017
    vertex -3.962791 4.230193 323.830017
    vertex -3.964770 4.280154 323.830017
  endloop
endfacet
facet normal 0.000000 0.000000 0.195469
  outer loop
    vertex -15.622162 3.004740 325.330017
    vertex -15.630613 3.054021 325.330017
    vertex -19.460958 2.260251 325.330017
  endloop
endfacet
facet normal 0.000000 -0.000000 0.195578
  outer loop
    vertex -19.460958 2.260251 325.330017
    vertex -15.630613 3.054021 325.330017
    vertex -19.471540 2.309119 325.330017
  endloop
endfacet
facet normal 0.000000 0.000000 0.195470
  outer loop
    vertex -11.754669 3.581899 325.330017
    vertex -11.760973 3.631500 325.330017
    vertex -15.622162 3.004740 325.330017
  endloop
endfacet
facet normal 0.000000 -0.000000 0.195578
  outer loop
    vertex -15.622162 3.004740 325.330017
    vertex -11.760973 3.631500 325.330017
    vertex -15.630613 3.054021 325.330017
  endloop
endfacet
facet normal 0.000000 0.000000 0.195470
  outer loop
    vertex -7.865768 3.990640 325.330017
    vertex -7.869914 4.040468 325.330017
    vertex -11.754669 3.581899 325.330017
  endloop
endfacet
facet normal 0.000000 -0.000000 0.195579
  outer loop
    vertex -11.754669 3.581899 325.330017
    vertex -7.869914 4.040468 325.330017
    vertex -11.760973 3.631500 325.330017
  endloop
endfacet
facet normal 0.000000 0.000000 0.195471
  outer loop
    vertex -3.962791 4.230193 325.330017
    vertex -3.964770 4.280154 325.330017
    vertex -7.865768 3.990640 325.330017
  endloop
endfacet
facet normal 0.000000 -0.000000 0.195578
  outer loop
    vertex -7.865768 3.990640 325.330017
    vertex -3.964770 4.280154 325.330017
    vertex -7.869914 4.040468 325.330017
  endloop
endfacet
facet normal 0.000000 -0.000000 0.195470
  outer loop
    vertex -0.053094 4.300105 325.330017
    vertex -0.052903 4.350105 325.330017
    vertex -3.962791 4.230193 325.330017
  endloop
endfacet
facet normal 0.000000 -0.000000 0.195580
  outer loop
    vertex -3.962791 4.230193 325.330017
    vertex -0.052903 4.350105 325.330017
    vertex -3.964770 4.280154 325.330017
  endloop
endfacet
endsolid b'MESH-MESH-MESH-MESH-MESH-MESH-MESH-MESH-MESH-MESH-MESH-MESH-MESH-MESH-MESH-MESH'
