solid b'MESH-MESH-MESH-MESH-MESH-MESH-MESH-MESH-MESH-MESH-MESH-MESH-MESH-MESH-MESH-MESH'
facet normal -0.188934 -10.945334 0.000000
  outer loop
    vertex -3.671478 -4.248545 -45.812000
    vertex -0.606416 -4.301453 -45.812000
    vertex -0.606416 -4.301453 -42.241001
  endloop
endfacet
facet normal -0.188934 -10.945334 0.000000
  outer loop
    vertex -3.671478 -4.248545 -45.812000
    vertex -0.606416 -4.301453 -42.241001
    vertex -3.671478 -4.248545 -42.241001
  endloop
endfacet
facet normal -0.561109 -10.932575 0.000000
  outer loop
    vertex -6.732967 -4.091415 -45.812000
    vertex -3.671478 -4.248545 -42.241001
    vertex -6.732967 -4.091415 -42.241001
  endloop
endfacet
facet normal -0.561109 -10.932575 0.000000
  outer loop
    vertex -6.732967 -4.091415 -45.812000
    vertex -3.671478 -4.248545 -45.812000
    vertex -3.671478 -4.248545 -42.241001
  endloop
endfacet
facet normal -0.932632 -10.907165 0.000000
  outer loop
    vertex -9.787340 -3.830247 -45.812000
    vertex -6.732967 -4.091415 -42.241001
    vertex -9.787340 -3.830247 -42.241001
  endloop
endfacet
facet normal -0.932632 -10.907165 0.000000
  outer loop
    vertex -9.787340 -3.830247 -45.812000
    vertex -6.732967 -4.091415 -45.812000
    vertex -6.732967 -4.091415 -42.241001
  endloop
endfacet
facet normal -0.177616 0.018233 0.000000
  outer loop
    vertex -9.787340 -3.830247 -45.812000
    vertex -9.787340 -3.830247 -42.241001
    vertex -9.782234 -3.780509 -45.812000
  endloop
endfacet
facet normal -0.177616 0.018233 0.000000
  outer loop
    vertex -9.787340 -3.830247 -42.241001
    vertex -9.782234 -3.780509 -42.241001
    vertex -9.782234 -3.780509 -45.812000
  endloop
endfacet
facet normal 0.188829 10.939261 0.000000
  outer loop
    vertex -0.606403 -4.251452 -42.241001
    vertex -3.669765 -4.198574 -45.812000
    vertex -3.669765 -4.198574 -42.241001
  endloop
endfacet
facet normal 0.560797 10.926510 0.000000
  outer loop
    vertex -3.669765 -4.198574 -42.241001
    vertex -3.669765 -4.198574 -45.812000
    vertex -6.729555 -4.041532 -42.241001
  endloop
endfacet
facet normal 0.188829 10.939261 -0.000000
  outer loop
    vertex -0.606403 -4.251452 -45.812000
    vertex -3.669765 -4.198574 -45.812000
    vertex -0.606403 -4.251452 -42.241001
  endloop
endfacet
facet normal 0.560797 10.926510 0.000000
  outer loop
    vertex -3.669765 -4.198574 -45.812000
    vertex -6.729555 -4.041532 -45.812000
    vertex -6.729555 -4.041532 -42.241001
  endloop
endfacet
facet normal 0.932115 10.901114 0.000000
  outer loop
    vertex -6.729555 -4.041532 -42.241001
    vertex -9.782234 -3.780509 -45.812000
    vertex -9.782234 -3.780509 -42.241001
  endloop
endfacet
facet normal 0.932115 10.901114 -0.000000
  outer loop
    vertex -6.729555 -4.041532 -45.812000
    vertex -9.782234 -3.780509 -45.812000
    vertex -6.729555 -4.041532 -42.241001
  endloop
endfacet
facet normal 0.178551 -0.000045 0.000000
  outer loop
    vertex -0.606403 -4.251452 -45.812000
    vertex -0.606403 -4.251452 -42.241001
    vertex -0.606416 -4.301453 -45.812000
  endloop
endfacet
facet normal 0.178551 -0.000045 0.000000
  outer loop
    vertex -0.606403 -4.251452 -42.241001
    vertex -0.606416 -4.301453 -42.241001
    vertex -0.606416 -4.301453 -45.812000
  endloop
endfacet
facet normal 0.000000 -0.000000 0.153168
  outer loop
    vertex -6.732967 -4.091415 -42.241001
    vertex -6.729555 -4.041532 -42.241001
    vertex -9.782234 -3.780509 -42.241001
  endloop
endfacet
facet normal 0.000000 0.000000 0.153253
  outer loop
    vertex -6.732967 -4.091415 -42.241001
    vertex -9.782234 -3.780509 -42.241001
    vertex -9.787340 -3.830247 -42.241001
  endloop
endfacet
facet normal 0.000000 -0.000000 0.153169
  outer loop
    vertex -3.671478 -4.248545 -42.241001
    vertex -3.669765 -4.198574 -42.241001
    vertex -6.729555 -4.041532 -42.241001
  endloop
endfacet
facet normal 0.000000 0.000000 0.153253
  outer loop
    vertex -3.671478 -4.248545 -42.241001
    vertex -6.729555 -4.041532 -42.241001
    vertex -6.732967 -4.091415 -42.241001
  endloop
endfacet
facet normal 0.000000 -0.000000 0.153169
  outer loop
    vertex -0.606416 -4.301453 -42.241001
    vertex -0.606403 -4.251452 -42.241001
    vertex -3.669765 -4.198574 -42.241001
  endloop
endfacet
facet normal 0.000000 0.000000 0.153254
  outer loop
    vertex -0.606416 -4.301453 -42.241001
    vertex -3.669765 -4.198574 -42.241001
    vertex -3.671478 -4.248545 -42.241001
  endloop
endfacet
facet normal 0.000000 -0.000000 -0.153168
  outer loop
    vertex -9.782234 -3.780509 -45.812000
    vertex -6.729555 -4.041532 -45.812000
    vertex -9.787340 -3.830247 -45.812000
  endloop
endfacet
facet normal -0.000000 0.000000 -0.153253
  outer loop
    vertex -6.729555 -4.041532 -45.812000
    vertex -6.732967 -4.091415 -45.812000
    vertex -9.787340 -3.830247 -45.812000
  endloop
endfacet
facet normal 0.000000 -0.000000 -0.153168
  outer loop
    vertex -6.729555 -4.041532 -45.812000
    vertex -3.669765 -4.198574 -45.812000
    vertex -6.732967 -4.091415 -45.812000
  endloop
endfacet
facet normal -0.000000 0.000000 -0.153254
  outer loop
    vertex -3.669765 -4.198574 -45.812000
    vertex -3.671478 -4.248545 -45.812000
    vertex -6.732967 -4.091415 -45.812000
  endloop
endfacet
facet normal 0.000000 -0.000000 -0.153169
  outer loop
    vertex -3.669765 -4.198574 -45.812000
    vertex -0.606403 -4.251452 -45.812000
    vertex -3.671478 -4.248545 -45.812000
  endloop
endfacet
facet normal -0.000000 0.000000 -0.153254
  outer loop
    vertex -0.606403 -4.251452 -45.812000
    vertex -0.606416 -4.301453 -45.812000
    vertex -3.671478 -4.248545 -45.812000
  endloop
endfacet
endsolid b'MESH-MESH-MESH-MESH-MESH-MESH-MESH-MESH-MESH-MESH-MESH-MESH-MESH-MESH-MESH-MESH'
