solid b'MESH-MESH-MESH-MESH-MESH-MESH-MESH-MESH-MESH-MESH-MESH-MESH-MESH-MESH-MESH-MESH'
facet normal 0.188933 10.945337 0.000000
  outer loop
    vertex 3.671473 4.248544 6.151000
    vertex 0.606411 4.301452 6.151000
    vertex 0.606411 4.301452 9.722000
  endloop
endfacet
facet normal 0.188933 10.945337 -0.000000
  outer loop
    vertex 3.671473 4.248544 6.151000
    vertex 0.606411 4.301452 9.722000
    vertex 3.671473 4.248544 9.722000
  endloop
endfacet
facet normal 0.561109 10.932579 -0.000000
  outer loop
    vertex 6.732962 4.091415 6.151000
    vertex 3.671473 4.248544 9.722000
    vertex 6.732962 4.091415 9.722000
  endloop
endfacet
facet normal 0.561109 10.932579 0.000000
  outer loop
    vertex 6.732962 4.091415 6.151000
    vertex 3.671473 4.248544 6.151000
    vertex 3.671473 4.248544 9.722000
  endloop
endfacet
facet normal 0.932632 10.907167 -0.000000
  outer loop
    vertex 9.787335 3.830247 6.151000
    vertex 6.732962 4.091415 9.722000
    vertex 9.787335 3.830247 9.722000
  endloop
endfacet
facet normal 0.932632 10.907167 0.000000
  outer loop
    vertex 9.787335 3.830247 6.151000
    vertex 6.732962 4.091415 6.151000
    vertex 6.732962 4.091415 9.722000
  endloop
endfacet
facet normal 0.177616 -0.018237 0.000000
  outer loop
    vertex 9.782228 3.780508 6.151000
    vertex 9.787335 3.830247 6.151000
    vertex 9.787335 3.830247 9.722000
  endloop
endfacet
facet normal 0.177616 -0.018237 0.000000
  outer loop
    vertex 9.782228 3.780508 6.151000
    vertex 9.787335 3.830247 9.722000
    vertex 9.782228 3.780508 9.722000
  endloop
endfacet
facet normal -0.188829 -10.939264 0.000000
  outer loop
    vertex 0.606398 4.251452 9.722000
    vertex 3.669760 4.198574 6.151000
    vertex 3.669760 4.198574 9.722000
  endloop
endfacet
facet normal -0.188829 -10.939264 0.000000
  outer loop
    vertex 0.606398 4.251452 6.151000
    vertex 3.669760 4.198574 6.151000
    vertex 0.606398 4.251452 9.722000
  endloop
endfacet
facet normal -0.560797 -10.926513 0.000000
  outer loop
    vertex 3.669760 4.198574 9.722000
    vertex 6.729550 4.041532 6.151000
    vertex 6.729550 4.041532 9.722000
  endloop
endfacet
facet normal -0.932114 -10.901114 -0.000000
  outer loop
    vertex 6.729550 4.041532 9.722000
    vertex 6.729550 4.041532 6.151000
    vertex 9.782228 3.780508 9.722000
  endloop
endfacet
facet normal -0.560797 -10.926513 0.000000
  outer loop
    vertex 3.669760 4.198574 6.151000
    vertex 6.729550 4.041532 6.151000
    vertex 3.669760 4.198574 9.722000
  endloop
endfacet
facet normal -0.932114 -10.901114 0.000000
  outer loop
    vertex 6.729550 4.041532 6.151000
    vertex 9.782228 3.780508 6.151000
    vertex 9.782228 3.780508 9.722000
  endloop
endfacet
facet normal -0.178549 0.000045 0.000000
  outer loop
    vertex 0.606411 4.301452 6.151000
    vertex 0.606398 4.251452 6.151000
    vertex 0.606398 4.251452 9.722000
  endloop
endfacet
facet normal -0.178549 0.000045 0.000000
  outer loop
    vertex 0.606411 4.301452 6.151000
    vertex 0.606398 4.251452 9.722000
    vertex 0.606411 4.301452 9.722000
  endloop
endfacet
facet normal 0.000000 0.000000 -0.153168
  outer loop
    vertex 9.782228 3.780508 6.151000
    vertex 6.729550 4.041532 6.151000
    vertex 9.787335 3.830247 6.151000
  endloop
endfacet
facet normal 0.000000 0.000000 -0.153253
  outer loop
    vertex 6.729550 4.041532 6.151000
    vertex 6.732962 4.091415 6.151000
    vertex 9.787335 3.830247 6.151000
  endloop
endfacet
facet normal 0.000000 0.000000 -0.153168
  outer loop
    vertex 6.729550 4.041532 6.151000
    vertex 3.669760 4.198574 6.151000
    vertex 6.732962 4.091415 6.151000
  endloop
endfacet
facet normal 0.000000 0.000000 -0.153254
  outer loop
    vertex 3.669760 4.198574 6.151000
    vertex 3.671473 4.248544 6.151000
    vertex 6.732962 4.091415 6.151000
  endloop
endfacet
facet normal 0.000000 0.000000 -0.153169
  outer loop
    vertex 3.669760 4.198574 6.151000
    vertex 0.606398 4.251452 6.151000
    vertex 3.671473 4.248544 6.151000
  endloop
endfacet
facet normal 0.000000 0.000000 -0.153253
  outer loop
    vertex 0.606398 4.251452 6.151000
    vertex 0.606411 4.301452 6.151000
    vertex 3.671473 4.248544 6.151000
  endloop
endfacet
facet normal 0.000000 0.000000 0.153168
  outer loop
    vertex 6.729550 4.041532 9.722000
    vertex 9.782228 3.780508 9.722000
    vertex 9.787335 3.830247 9.722000
  endloop
endfacet
facet normal 0.000000 0.000000 0.153253
  outer loop
    vertex 6.732962 4.091415 9.722000
    vertex 6.729550 4.041532 9.722000
    vertex 9.787335 3.830247 9.722000
  endloop
endfacet
facet normal 0.000000 0.000000 0.153168
  outer loop
    vertex 3.669760 4.198574 9.722000
    vertex 6.729550 4.041532 9.722000
    vertex 6.732962 4.091415 9.722000
  endloop
endfacet
facet normal 0.000000 0.000000 0.153254
  outer loop
    vertex 3.671473 4.248544 9.722000
    vertex 3.669760 4.198574 9.722000
    vertex 6.732962 4.091415 9.722000
  endloop
endfacet
facet normal 0.000000 0.000000 0.153169
  outer loop
    vertex 0.606398 4.251452 9.722000
    vertex 3.669760 4.198574 9.722000
    vertex 3.671473 4.248544 9.722000
  endloop
endfacet
facet normal 0.000000 0.000000 0.153253
  outer loop
    vertex 0.606411 4.301452 9.722000
    vertex 0.606398 4.251452 9.722000
    vertex 3.671473 4.248544 9.722000
  endloop
endfacet
endsolid b'MESH-MESH-MESH-MESH-MESH-MESH-MESH-MESH-MESH-MESH-MESH-MESH-MESH-MESH-MESH-MESH'
