solid b'MESH-MESH-MESH-MESH-MESH-MESH-MESH-MESH-MESH-MESH-MESH-MESH-MESH-MESH-MESH-MESH'
facet normal -1.317554 10.867409 0.000000
  outer loop
    vertex -12.949953 3.448952 71.129005
    vertex -9.906719 3.817911 71.129005
    vertex -9.906719 3.817911 67.557999
  endloop
endfacet
facet normal -1.317554 10.867409 0.000000
  outer loop
    vertex -12.949953 3.448952 71.129005
    vertex -9.906719 3.817911 67.557999
    vertex -12.949953 3.448952 67.557999
  endloop
endfacet
facet normal -1.686424 10.816308 0.000000
  outer loop
    vertex -15.978877 2.976697 71.129005
    vertex -12.949953 3.448952 67.557999
    vertex -15.978877 2.976697 67.557999
  endloop
endfacet
facet normal -1.686424 10.816308 0.000000
  outer loop
    vertex -15.978877 2.976697 71.129005
    vertex -12.949953 3.448952 71.129005
    vertex -12.949953 3.448952 67.557999
  endloop
endfacet
facet normal -2.053343 10.752692 0.000000
  outer loop
    vertex -18.989986 2.401694 71.129005
    vertex -15.978877 2.976697 67.557999
    vertex -18.989986 2.401694 67.557999
  endloop
endfacet
facet normal -2.053343 10.752692 0.000000
  outer loop
    vertex -18.989986 2.401694 71.129005
    vertex -15.978877 2.976697 71.129005
    vertex -15.978877 2.976697 67.557999
  endloop
endfacet
facet normal -0.174786 -0.036467 -0.000000
  outer loop
    vertex -18.989986 2.401694 71.129005
    vertex -18.989986 2.401694 67.557999
    vertex -18.979774 2.352748 71.129005
  endloop
endfacet
facet normal -0.174786 -0.036467 0.000000
  outer loop
    vertex -18.989986 2.401694 67.557999
    vertex -18.979774 2.352748 67.557999
    vertex -18.979774 2.352748 71.129005
  endloop
endfacet
facet normal 1.316824 -10.861381 -0.000001
  outer loop
    vertex -9.901546 3.768179 67.557999
    vertex -9.901546 3.768179 71.129005
    vertex -12.943092 3.399425 67.557999
  endloop
endfacet
facet normal 1.316823 -10.861381 0.000000
  outer loop
    vertex -9.901546 3.768179 71.129005
    vertex -12.943092 3.399425 71.129005
    vertex -12.943092 3.399425 67.557999
  endloop
endfacet
facet normal 1.685488 -10.810308 0.000000
  outer loop
    vertex -12.943092 3.399425 67.557999
    vertex -15.970336 2.927433 71.129005
    vertex -15.970336 2.927433 67.557999
  endloop
endfacet
facet normal 1.685488 -10.810308 0.000000
  outer loop
    vertex -12.943092 3.399425 71.129005
    vertex -15.970336 2.927433 71.129005
    vertex -12.943092 3.399425 67.557999
  endloop
endfacet
facet normal 2.052203 -10.746725 0.000000
  outer loop
    vertex -15.970336 2.927433 67.557999
    vertex -18.979774 2.352748 71.129005
    vertex -18.979774 2.352748 67.557999
  endloop
endfacet
facet normal 2.052203 -10.746725 0.000000
  outer loop
    vertex -15.970336 2.927433 71.129005
    vertex -18.979774 2.352748 71.129005
    vertex -15.970336 2.927433 67.557999
  endloop
endfacet
facet normal 0.177592 0.018472 0.000000
  outer loop
    vertex -9.901546 3.768179 71.129005
    vertex -9.906719 3.817911 67.557999
    vertex -9.906719 3.817911 71.129005
  endloop
endfacet
facet normal 0.177592 0.018472 0.000000
  outer loop
    vertex -9.901546 3.768179 67.557999
    vertex -9.906719 3.817911 67.557999
    vertex -9.901546 3.768179 71.129005
  endloop
endfacet
facet normal 0.000000 0.000000 -0.153168
  outer loop
    vertex -15.970336 2.927433 67.557999
    vertex -18.979774 2.352748 67.557999
    vertex -18.989986 2.401694 67.557999
  endloop
endfacet
facet normal 0.000000 -0.000000 -0.153253
  outer loop
    vertex -15.978877 2.976697 67.557999
    vertex -15.970336 2.927433 67.557999
    vertex -18.989986 2.401694 67.557999
  endloop
endfacet
facet normal 0.000000 0.000000 -0.153168
  outer loop
    vertex -12.943092 3.399425 67.557999
    vertex -15.970336 2.927433 67.557999
    vertex -15.978877 2.976697 67.557999
  endloop
endfacet
facet normal 0.000000 -0.000000 -0.153253
  outer loop
    vertex -12.949953 3.448952 67.557999
    vertex -12.943092 3.399425 67.557999
    vertex -15.978877 2.976697 67.557999
  endloop
endfacet
facet normal 0.000000 0.000000 -0.153168
  outer loop
    vertex -9.901546 3.768179 67.557999
    vertex -12.943092 3.399425 67.557999
    vertex -12.949953 3.448952 67.557999
  endloop
endfacet
facet normal 0.000000 -0.000000 -0.153253
  outer loop
    vertex -9.906719 3.817911 67.557999
    vertex -9.901546 3.768179 67.557999
    vertex -12.949953 3.448952 67.557999
  endloop
endfacet
facet normal 0.000000 -0.000000 0.153168
  outer loop
    vertex -18.979774 2.352748 71.129005
    vertex -15.970336 2.927433 71.129005
    vertex -18.989986 2.401694 71.129005
  endloop
endfacet
facet normal 0.000000 0.000000 0.153253
  outer loop
    vertex -15.970336 2.927433 71.129005
    vertex -15.978877 2.976697 71.129005
    vertex -18.989986 2.401694 71.129005
  endloop
endfacet
facet normal 0.000000 -0.000000 0.153168
  outer loop
    vertex -15.970336 2.927433 71.129005
    vertex -12.943092 3.399425 71.129005
    vertex -15.978877 2.976697 71.129005
  endloop
endfacet
facet normal 0.000000 0.000000 0.153253
  outer loop
    vertex -12.943092 3.399425 71.129005
    vertex -12.949953 3.448952 71.129005
    vertex -15.978877 2.976697 71.129005
  endloop
endfacet
facet normal 0.000000 -0.000000 0.153168
  outer loop
    vertex -12.943092 3.399425 71.129005
    vertex -9.901546 3.768179 71.129005
    vertex -12.949953 3.448952 71.129005
  endloop
endfacet
facet normal 0.000000 0.000000 0.153254
  outer loop
    vertex -9.901546 3.768179 71.129005
    vertex -9.906719 3.817911 71.129005
    vertex -12.949953 3.448952 71.129005
  endloop
endfacet
endsolid b'MESH-MESH-MESH-MESH-MESH-MESH-MESH-MESH-MESH-MESH-MESH-MESH-MESH-MESH-MESH-MESH'
