solid b'MESH-MESH-MESH-MESH-MESH-MESH-MESH-MESH-MESH-MESH-MESH-MESH-MESH-MESH-MESH-MESH'
facet normal 0.188936 -10.945334 -0.000001
  outer loop
    vertex 0.606431 -4.301453 154.761002
    vertex 0.606431 -4.301453 151.190002
    vertex 3.671494 -4.248544 151.190002
  endloop
endfacet
facet normal 0.561110 -10.932575 0.000000
  outer loop
    vertex 3.671494 -4.248544 154.761002
    vertex 3.671494 -4.248544 151.190002
    vertex 6.732983 -4.091414 151.190002
  endloop
endfacet
facet normal 0.188938 -10.945334 0.000000
  outer loop
    vertex 3.671494 -4.248544 154.761002
    vertex 0.606431 -4.301453 154.761002
    vertex 3.671494 -4.248544 151.190002
  endloop
endfacet
facet normal 0.932635 -10.907166 0.000000
  outer loop
    vertex 6.732983 -4.091414 154.761002
    vertex 6.732983 -4.091414 151.190002
    vertex 9.787356 -3.830245 151.190002
  endloop
endfacet
facet normal 0.561110 -10.932575 0.000000
  outer loop
    vertex 6.732983 -4.091414 154.761002
    vertex 3.671494 -4.248544 154.761002
    vertex 6.732983 -4.091414 151.190002
  endloop
endfacet
facet normal 0.932634 -10.907166 -0.000001
  outer loop
    vertex 9.787356 -3.830245 154.761002
    vertex 6.732983 -4.091414 154.761002
    vertex 9.787356 -3.830245 151.190002
  endloop
endfacet
facet normal 0.177616 0.018237 0.000000
  outer loop
    vertex 9.787356 -3.830245 154.761002
    vertex 9.787356 -3.830245 151.190002
    vertex 9.782249 -3.780507 151.190002
  endloop
endfacet
facet normal 0.177617 0.018237 0.000000
  outer loop
    vertex 9.782249 -3.780507 154.761002
    vertex 9.787356 -3.830245 154.761002
    vertex 9.782249 -3.780507 151.190002
  endloop
endfacet
facet normal -0.188832 10.939261 0.000000
  outer loop
    vertex 0.606419 -4.251453 151.190002
    vertex 0.606419 -4.251453 154.761002
    vertex 3.669780 -4.198574 151.190002
  endloop
endfacet
facet normal -0.188832 10.939261 0.000000
  outer loop
    vertex 0.606419 -4.251453 154.761002
    vertex 3.669780 -4.198574 154.761002
    vertex 3.669780 -4.198574 151.190002
  endloop
endfacet
facet normal -0.560799 10.926510 0.000000
  outer loop
    vertex 3.669780 -4.198574 151.190002
    vertex 6.729571 -4.041531 154.761002
    vertex 6.729571 -4.041531 151.190002
  endloop
endfacet
facet normal -0.932117 10.901113 0.000000
  outer loop
    vertex 6.729571 -4.041531 151.190002
    vertex 6.729571 -4.041531 154.761002
    vertex 9.782249 -3.780507 151.190002
  endloop
endfacet
facet normal -0.560799 10.926510 0.000000
  outer loop
    vertex 3.669780 -4.198574 154.761002
    vertex 6.729571 -4.041531 154.761002
    vertex 3.669780 -4.198574 151.190002
  endloop
endfacet
facet normal -0.932117 10.901113 0.000000
  outer loop
    vertex 6.729571 -4.041531 154.761002
    vertex 9.782249 -3.780507 154.761002
    vertex 9.782249 -3.780507 151.190002
  endloop
endfacet
facet normal -0.178549 -0.000045 0.000000
  outer loop
    vertex 0.606419 -4.251453 154.761002
    vertex 0.606419 -4.251453 151.190002
    vertex 0.606431 -4.301453 151.190002
  endloop
endfacet
facet normal -0.178551 -0.000045 0.000000
  outer loop
    vertex 0.606431 -4.301453 154.761002
    vertex 0.606419 -4.251453 154.761002
    vertex 0.606431 -4.301453 151.190002
  endloop
endfacet
facet normal -0.000000 0.000000 0.153168
  outer loop
    vertex 6.729571 -4.041531 154.761002
    vertex 6.732983 -4.091414 154.761002
    vertex 9.782249 -3.780507 154.761002
  endloop
endfacet
facet normal 0.000000 0.000000 0.153254
  outer loop
    vertex 9.782249 -3.780507 154.761002
    vertex 6.732983 -4.091414 154.761002
    vertex 9.787356 -3.830245 154.761002
  endloop
endfacet
facet normal -0.000000 0.000000 0.153169
  outer loop
    vertex 3.669780 -4.198574 154.761002
    vertex 3.671494 -4.248544 154.761002
    vertex 6.729571 -4.041531 154.761002
  endloop
endfacet
facet normal 0.000000 0.000000 0.153253
  outer loop
    vertex 6.729571 -4.041531 154.761002
    vertex 3.671494 -4.248544 154.761002
    vertex 6.732983 -4.091414 154.761002
  endloop
endfacet
facet normal -0.000000 0.000000 0.153169
  outer loop
    vertex 0.606419 -4.251453 154.761002
    vertex 0.606431 -4.301453 154.761002
    vertex 3.669780 -4.198574 154.761002
  endloop
endfacet
facet normal 0.000000 0.000000 0.153254
  outer loop
    vertex 3.669780 -4.198574 154.761002
    vertex 0.606431 -4.301453 154.761002
    vertex 3.671494 -4.248544 154.761002
  endloop
endfacet
facet normal 0.000000 0.000000 -0.153168
  outer loop
    vertex 6.729571 -4.041531 151.190002
    vertex 9.782249 -3.780507 151.190002
    vertex 9.787356 -3.830245 151.190002
  endloop
endfacet
facet normal 0.000000 0.000000 -0.153253
  outer loop
    vertex 6.732983 -4.091414 151.190002
    vertex 6.729571 -4.041531 151.190002
    vertex 9.787356 -3.830245 151.190002
  endloop
endfacet
facet normal 0.000000 0.000000 -0.153168
  outer loop
    vertex 3.669780 -4.198574 151.190002
    vertex 6.729571 -4.041531 151.190002
    vertex 6.732983 -4.091414 151.190002
  endloop
endfacet
facet normal 0.000000 0.000000 -0.153254
  outer loop
    vertex 3.671494 -4.248544 151.190002
    vertex 3.669780 -4.198574 151.190002
    vertex 6.732983 -4.091414 151.190002
  endloop
endfacet
facet normal 0.000000 0.000000 -0.153169
  outer loop
    vertex 0.606419 -4.251453 151.190002
    vertex 3.669780 -4.198574 151.190002
    vertex 3.671494 -4.248544 151.190002
  endloop
endfacet
facet normal 0.000000 0.000000 -0.153253
  outer loop
    vertex 0.606431 -4.301453 151.190002
    vertex 0.606419 -4.251453 151.190002
    vertex 3.671494 -4.248544 151.190002
  endloop
endfacet
endsolid b'MESH-MESH-MESH-MESH-MESH-MESH-MESH-MESH-MESH-MESH-MESH-MESH-MESH-MESH-MESH-MESH'
