solid b'MESH-MESH-MESH-MESH-MESH-MESH-MESH-MESH-MESH-MESH-MESH-MESH-MESH-MESH-MESH-MESH'
facet normal 1.317555 -10.867413 -0.000001
  outer loop
    vertex 12.949961 -3.448951 -100.056999
    vertex 9.906726 -3.817910 -100.056999
    vertex 9.906726 -3.817910 -103.628006
  endloop
endfacet
facet normal 1.317555 -10.867413 -0.000001
  outer loop
    vertex 12.949961 -3.448951 -100.056999
    vertex 9.906726 -3.817910 -103.628006
    vertex 12.949961 -3.448951 -103.628006
  endloop
endfacet
facet normal 1.686426 -10.816308 -0.000001
  outer loop
    vertex 15.978885 -2.976696 -100.056999
    vertex 12.949961 -3.448951 -103.628006
    vertex 15.978885 -2.976696 -103.628006
  endloop
endfacet
facet normal 1.686426 -10.816308 -0.000001
  outer loop
    vertex 15.978885 -2.976696 -100.056999
    vertex 12.949961 -3.448951 -100.056999
    vertex 12.949961 -3.448951 -103.628006
  endloop
endfacet
facet normal 2.053340 -10.752669 -0.000001
  outer loop
    vertex 18.989994 -2.401692 -100.057007
    vertex 15.978885 -2.976696 -103.628006
    vertex 18.989994 -2.401692 -103.628006
  endloop
endfacet
facet normal 2.053344 -10.752692 -0.000001
  outer loop
    vertex 18.989994 -2.401692 -100.057007
    vertex 15.978885 -2.976696 -100.056999
    vertex 15.978885 -2.976696 -103.628006
  endloop
endfacet
facet normal 0.174786 0.036474 0.000000
  outer loop
    vertex 18.979780 -2.352746 -100.057007
    vertex 18.989994 -2.401692 -100.057007
    vertex 18.989994 -2.401692 -103.628006
  endloop
endfacet
facet normal 0.174786 0.036474 0.000000
  outer loop
    vertex 18.979780 -2.352746 -100.057007
    vertex 18.989994 -2.401692 -103.628006
    vertex 18.979780 -2.352746 -103.628006
  endloop
endfacet
facet normal -1.316824 10.861381 0.000000
  outer loop
    vertex 9.901553 -3.768178 -103.628006
    vertex 12.943099 -3.399424 -100.056999
    vertex 12.943099 -3.399424 -103.628006
  endloop
endfacet
facet normal -1.316824 10.861381 0.000001
  outer loop
    vertex 9.901553 -3.768178 -100.056999
    vertex 12.943099 -3.399424 -100.056999
    vertex 9.901553 -3.768178 -103.628006
  endloop
endfacet
facet normal -1.685490 10.810308 0.000001
  outer loop
    vertex 12.943099 -3.399424 -103.628006
    vertex 15.970343 -2.927431 -100.056999
    vertex 15.970343 -2.927431 -103.628006
  endloop
endfacet
facet normal -1.685489 10.810308 0.000000
  outer loop
    vertex 12.943099 -3.399424 -100.056999
    vertex 15.970343 -2.927431 -100.056999
    vertex 12.943099 -3.399424 -103.628006
  endloop
endfacet
facet normal -2.052201 10.746699 0.000001
  outer loop
    vertex 15.970343 -2.927431 -103.628006
    vertex 18.979780 -2.352746 -100.057007
    vertex 18.979780 -2.352746 -103.628006
  endloop
endfacet
facet normal -2.052205 10.746722 0.000001
  outer loop
    vertex 15.970343 -2.927431 -100.056999
    vertex 18.979780 -2.352746 -100.057007
    vertex 15.970343 -2.927431 -103.628006
  endloop
endfacet
facet normal -0.177592 -0.018472 -0.000000
  outer loop
    vertex 9.901553 -3.768178 -100.056999
    vertex 9.901553 -3.768178 -103.628006
    vertex 9.906726 -3.817910 -103.628006
  endloop
endfacet
facet normal -0.177592 -0.018472 -0.000000
  outer loop
    vertex 9.906726 -3.817910 -100.056999
    vertex 9.901553 -3.768178 -100.056999
    vertex 9.906726 -3.817910 -103.628006
  endloop
endfacet
facet normal 0.000000 0.000000 0.153169
  outer loop
    vertex 15.970343 -2.927431 -100.056999
    vertex 15.978885 -2.976696 -100.056999
    vertex 18.979780 -2.352746 -100.057007
  endloop
endfacet
facet normal 0.000000 0.000000 0.153254
  outer loop
    vertex 18.979780 -2.352746 -100.057007
    vertex 15.978885 -2.976696 -100.056999
    vertex 18.989994 -2.401692 -100.057007
  endloop
endfacet
facet normal -0.000000 0.000000 0.153169
  outer loop
    vertex 12.943099 -3.399424 -100.056999
    vertex 12.949961 -3.448951 -100.056999
    vertex 15.970343 -2.927431 -100.056999
  endloop
endfacet
facet normal 0.000000 0.000000 0.153254
  outer loop
    vertex 15.970343 -2.927431 -100.056999
    vertex 12.949961 -3.448951 -100.056999
    vertex 15.978885 -2.976696 -100.056999
  endloop
endfacet
facet normal -0.000000 0.000000 0.153169
  outer loop
    vertex 9.901553 -3.768178 -100.056999
    vertex 9.906726 -3.817910 -100.056999
    vertex 12.943099 -3.399424 -100.056999
  endloop
endfacet
facet normal 0.000000 0.000000 0.153254
  outer loop
    vertex 12.943099 -3.399424 -100.056999
    vertex 9.906726 -3.817910 -100.056999
    vertex 12.949961 -3.448951 -100.056999
  endloop
endfacet
facet normal 0.000000 0.000000 -0.153169
  outer loop
    vertex 15.978885 -2.976696 -103.628006
    vertex 15.970343 -2.927431 -103.628006
    vertex 18.979780 -2.352746 -103.628006
  endloop
endfacet
facet normal 0.000000 0.000000 -0.153255
  outer loop
    vertex 15.978885 -2.976696 -103.628006
    vertex 18.979780 -2.352746 -103.628006
    vertex 18.989994 -2.401692 -103.628006
  endloop
endfacet
facet normal 0.000000 0.000000 -0.153169
  outer loop
    vertex 12.949961 -3.448951 -103.628006
    vertex 12.943099 -3.399424 -103.628006
    vertex 15.970343 -2.927431 -103.628006
  endloop
endfacet
facet normal 0.000000 0.000000 -0.153254
  outer loop
    vertex 12.949961 -3.448951 -103.628006
    vertex 15.970343 -2.927431 -103.628006
    vertex 15.978885 -2.976696 -103.628006
  endloop
endfacet
facet normal 0.000000 0.000000 -0.153169
  outer loop
    vertex 9.906726 -3.817910 -103.628006
    vertex 9.901553 -3.768178 -103.628006
    vertex 12.943099 -3.399424 -103.628006
  endloop
endfacet
facet normal 0.000000 0.000000 -0.153254
  outer loop
    vertex 9.906726 -3.817910 -103.628006
    vertex 12.943099 -3.399424 -103.628006
    vertex 12.949961 -3.448951 -103.628006
  endloop
endfacet
endsolid b'MESH-MESH-MESH-MESH-MESH-MESH-MESH-MESH-MESH-MESH-MESH-MESH-MESH-MESH-MESH-MESH'
