solid b'MESH-MESH-MESH-MESH-MESH-MESH-MESH-MESH-MESH-MESH-MESH-MESH-MESH-MESH-MESH-MESH'
facet normal -1.317555 -10.867413 -0.000000
  outer loop
    vertex -12.949959 -3.448951 -92.795006
    vertex -9.906724 -3.817910 -92.795006
    vertex -9.906725 -3.817910 -89.223999
  endloop
endfacet
facet normal -1.317555 -10.867409 0.000000
  outer loop
    vertex -12.949959 -3.448951 -92.795006
    vertex -9.906725 -3.817910 -89.223999
    vertex -12.949959 -3.448951 -89.223999
  endloop
endfacet
facet normal -1.686425 -10.816308 0.000000
  outer loop
    vertex -15.978883 -2.976696 -92.795006
    vertex -12.949959 -3.448951 -89.223999
    vertex -15.978883 -2.976696 -89.223999
  endloop
endfacet
facet normal -1.686425 -10.816308 0.000000
  outer loop
    vertex -15.978883 -2.976696 -92.795006
    vertex -12.949959 -3.448951 -92.795006
    vertex -12.949959 -3.448951 -89.223999
  endloop
endfacet
facet normal -2.053344 -10.752692 0.000000
  outer loop
    vertex -18.989992 -2.401692 -92.795006
    vertex -15.978883 -2.976696 -89.223999
    vertex -18.989992 -2.401692 -89.223999
  endloop
endfacet
facet normal -2.053344 -10.752692 0.000000
  outer loop
    vertex -18.989992 -2.401692 -92.795006
    vertex -15.978883 -2.976696 -92.795006
    vertex -15.978883 -2.976696 -89.223999
  endloop
endfacet
facet normal -0.174787 0.036474 0.000000
  outer loop
    vertex -18.989992 -2.401692 -92.795006
    vertex -18.989992 -2.401692 -89.223999
    vertex -18.979778 -2.352746 -92.795006
  endloop
endfacet
facet normal -0.174786 0.036474 0.000000
  outer loop
    vertex -18.989992 -2.401692 -89.223999
    vertex -18.979778 -2.352746 -89.223999
    vertex -18.979778 -2.352746 -92.795006
  endloop
endfacet
facet normal 1.316824 10.861378 0.000000
  outer loop
    vertex -9.901552 -3.768178 -89.223999
    vertex -9.901551 -3.768178 -92.795006
    vertex -12.943097 -3.399424 -89.223999
  endloop
endfacet
facet normal 1.316824 10.861381 0.000001
  outer loop
    vertex -9.901551 -3.768178 -92.795006
    vertex -12.943097 -3.399424 -92.795006
    vertex -12.943097 -3.399424 -89.223999
  endloop
endfacet
facet normal 1.685489 10.810308 0.000001
  outer loop
    vertex -12.943097 -3.399424 -89.223999
    vertex -15.970341 -2.927431 -92.795006
    vertex -15.970341 -2.927432 -89.223999
  endloop
endfacet
facet normal 1.685489 10.810308 0.000001
  outer loop
    vertex -12.943097 -3.399424 -92.795006
    vertex -15.970341 -2.927431 -92.795006
    vertex -12.943097 -3.399424 -89.223999
  endloop
endfacet
facet normal 2.052204 10.746722 0.000001
  outer loop
    vertex -15.970341 -2.927432 -89.223999
    vertex -18.979778 -2.352746 -92.795006
    vertex -18.979778 -2.352746 -89.223999
  endloop
endfacet
facet normal 2.052204 10.746722 0.000001
  outer loop
    vertex -15.970341 -2.927431 -92.795006
    vertex -18.979778 -2.352746 -92.795006
    vertex -15.970341 -2.927432 -89.223999
  endloop
endfacet
facet normal 0.177592 -0.018472 0.000000
  outer loop
    vertex -9.901551 -3.768178 -92.795006
    vertex -9.906725 -3.817910 -89.223999
    vertex -9.906724 -3.817910 -92.795006
  endloop
endfacet
facet normal 0.177592 -0.018472 0.000000
  outer loop
    vertex -9.901552 -3.768178 -89.223999
    vertex -9.906725 -3.817910 -89.223999
    vertex -9.901551 -3.768178 -92.795006
  endloop
endfacet
facet normal 0.000000 0.000000 0.153169
  outer loop
    vertex -15.970341 -2.927432 -89.223999
    vertex -18.979778 -2.352746 -89.223999
    vertex -18.989992 -2.401692 -89.223999
  endloop
endfacet
facet normal 0.000000 -0.000000 0.153254
  outer loop
    vertex -15.978883 -2.976696 -89.223999
    vertex -15.970341 -2.927432 -89.223999
    vertex -18.989992 -2.401692 -89.223999
  endloop
endfacet
facet normal 0.000000 0.000000 0.153169
  outer loop
    vertex -12.943097 -3.399424 -89.223999
    vertex -15.970341 -2.927432 -89.223999
    vertex -15.978883 -2.976696 -89.223999
  endloop
endfacet
facet normal 0.000000 -0.000000 0.153254
  outer loop
    vertex -12.949959 -3.448951 -89.223999
    vertex -12.943097 -3.399424 -89.223999
    vertex -15.978883 -2.976696 -89.223999
  endloop
endfacet
facet normal 0.000000 0.000000 0.153169
  outer loop
    vertex -9.901552 -3.768178 -89.223999
    vertex -12.943097 -3.399424 -89.223999
    vertex -12.949959 -3.448951 -89.223999
  endloop
endfacet
facet normal 0.000000 -0.000000 0.153254
  outer loop
    vertex -9.906725 -3.817910 -89.223999
    vertex -9.901552 -3.768178 -89.223999
    vertex -12.949959 -3.448951 -89.223999
  endloop
endfacet
facet normal 0.000000 -0.000000 -0.153170
  outer loop
    vertex -18.979778 -2.352746 -92.795006
    vertex -15.970341 -2.927431 -92.795006
    vertex -18.989992 -2.401692 -92.795006
  endloop
endfacet
facet normal -0.000000 0.000000 -0.153254
  outer loop
    vertex -15.970341 -2.927431 -92.795006
    vertex -15.978883 -2.976696 -92.795006
    vertex -18.989992 -2.401692 -92.795006
  endloop
endfacet
facet normal 0.000000 -0.000000 -0.153169
  outer loop
    vertex -15.970341 -2.927431 -92.795006
    vertex -12.943097 -3.399424 -92.795006
    vertex -15.978883 -2.976696 -92.795006
  endloop
endfacet
facet normal -0.000000 0.000000 -0.153254
  outer loop
    vertex -12.943097 -3.399424 -92.795006
    vertex -12.949959 -3.448951 -92.795006
    vertex -15.978883 -2.976696 -92.795006
  endloop
endfacet
facet normal 0.000000 -0.000000 -0.153169
  outer loop
    vertex -12.943097 -3.399424 -92.795006
    vertex -9.901551 -3.768178 -92.795006
    vertex -12.949959 -3.448951 -92.795006
  endloop
endfacet
facet normal -0.000000 0.000000 -0.153254
  outer loop
    vertex -9.901551 -3.768178 -92.795006
    vertex -9.906724 -3.817910 -92.795006
    vertex -12.949959 -3.448951 -92.795006
  endloop
endfacet
endsolid b'MESH-MESH-MESH-MESH-MESH-MESH-MESH-MESH-MESH-MESH-MESH-MESH-MESH-MESH-MESH-MESH'
