solid b'MESH-MESH-MESH-MESH-MESH-MESH-MESH-MESH-MESH-MESH-MESH-MESH-MESH-MESH-MESH-MESH'
facet normal 0.188938 -10.945334 0.000000
  outer loop
    vertex 3.671499 -4.248544 151.110001
    vertex 0.606437 -4.301453 151.110001
    vertex 0.606437 -4.301453 147.539001
  endloop
endfacet
facet normal 0.188938 -10.945334 0.000000
  outer loop
    vertex 3.671499 -4.248544 151.110001
    vertex 0.606437 -4.301453 147.539001
    vertex 3.671499 -4.248544 147.539001
  endloop
endfacet
facet normal 0.561112 -10.932576 -0.000001
  outer loop
    vertex 6.732989 -4.091414 151.110001
    vertex 3.671499 -4.248544 147.539001
    vertex 6.732989 -4.091414 147.539001
  endloop
endfacet
facet normal 0.561110 -10.932576 0.000000
  outer loop
    vertex 6.732989 -4.091414 151.110001
    vertex 3.671499 -4.248544 151.110001
    vertex 3.671499 -4.248544 147.539001
  endloop
endfacet
facet normal 0.932635 -10.907165 -0.000001
  outer loop
    vertex 9.787362 -3.830245 151.110001
    vertex 6.732989 -4.091414 147.539001
    vertex 9.787362 -3.830245 147.539001
  endloop
endfacet
facet normal 0.932636 -10.907165 -0.000001
  outer loop
    vertex 9.787362 -3.830245 151.110001
    vertex 6.732989 -4.091414 151.110001
    vertex 6.732989 -4.091414 147.539001
  endloop
endfacet
facet normal 0.177617 0.018237 0.000000
  outer loop
    vertex 9.782255 -3.780506 151.110001
    vertex 9.787362 -3.830245 151.110001
    vertex 9.787362 -3.830245 147.539001
  endloop
endfacet
facet normal 0.177616 0.018237 0.000000
  outer loop
    vertex 9.782255 -3.780506 151.110001
    vertex 9.787362 -3.830245 147.539001
    vertex 9.782255 -3.780506 147.539001
  endloop
endfacet
facet normal -0.188832 10.939261 0.000000
  outer loop
    vertex 0.606425 -4.251453 147.539001
    vertex 3.669786 -4.198574 151.110001
    vertex 3.669786 -4.198574 147.539001
  endloop
endfacet
facet normal -0.188834 10.939261 0.000001
  outer loop
    vertex 0.606425 -4.251453 151.110001
    vertex 3.669786 -4.198574 151.110001
    vertex 0.606425 -4.251453 147.539001
  endloop
endfacet
facet normal -0.560800 10.926509 0.000002
  outer loop
    vertex 3.669786 -4.198574 147.539001
    vertex 6.729577 -4.041531 151.110001
    vertex 6.729577 -4.041531 147.539001
  endloop
endfacet
facet normal -0.932117 10.901113 0.000002
  outer loop
    vertex 6.729577 -4.041531 147.539001
    vertex 6.729577 -4.041531 151.110001
    vertex 9.782255 -3.780506 147.539001
  endloop
endfacet
facet normal -0.560799 10.926511 0.000000
  outer loop
    vertex 3.669786 -4.198574 151.110001
    vertex 6.729577 -4.041531 151.110001
    vertex 3.669786 -4.198574 147.539001
  endloop
endfacet
facet normal -0.932119 10.901111 0.000000
  outer loop
    vertex 6.729577 -4.041531 151.110001
    vertex 9.782255 -3.780506 151.110001
    vertex 9.782255 -3.780506 147.539001
  endloop
endfacet
facet normal -0.178549 -0.000045 0.000000
  outer loop
    vertex 0.606437 -4.301453 151.110001
    vertex 0.606425 -4.251453 151.110001
    vertex 0.606425 -4.251453 147.539001
  endloop
endfacet
facet normal -0.178551 -0.000045 0.000000
  outer loop
    vertex 0.606437 -4.301453 151.110001
    vertex 0.606425 -4.251453 147.539001
    vertex 0.606437 -4.301453 147.539001
  endloop
endfacet
facet normal 0.000000 0.000000 0.153169
  outer loop
    vertex 9.782255 -3.780506 151.110001
    vertex 6.729577 -4.041531 151.110001
    vertex 9.787362 -3.830245 151.110001
  endloop
endfacet
facet normal -0.000000 0.000000 0.153253
  outer loop
    vertex 6.729577 -4.041531 151.110001
    vertex 6.732989 -4.091414 151.110001
    vertex 9.787362 -3.830245 151.110001
  endloop
endfacet
facet normal 0.000000 0.000000 0.153168
  outer loop
    vertex 6.729577 -4.041531 151.110001
    vertex 3.669786 -4.198574 151.110001
    vertex 6.732989 -4.091414 151.110001
  endloop
endfacet
facet normal -0.000000 0.000000 0.153254
  outer loop
    vertex 3.669786 -4.198574 151.110001
    vertex 3.671499 -4.248544 151.110001
    vertex 6.732989 -4.091414 151.110001
  endloop
endfacet
facet normal -0.000000 0.000000 0.153168
  outer loop
    vertex 0.606425 -4.251453 151.110001
    vertex 0.606437 -4.301453 151.110001
    vertex 3.669786 -4.198574 151.110001
  endloop
endfacet
facet normal 0.000000 0.000000 0.153254
  outer loop
    vertex 3.669786 -4.198574 151.110001
    vertex 0.606437 -4.301453 151.110001
    vertex 3.671499 -4.248544 151.110001
  endloop
endfacet
facet normal 0.000000 0.000000 -0.153168
  outer loop
    vertex 6.729577 -4.041531 147.539001
    vertex 9.782255 -3.780506 147.539001
    vertex 9.787362 -3.830245 147.539001
  endloop
endfacet
facet normal 0.000000 0.000000 -0.153254
  outer loop
    vertex 6.732989 -4.091414 147.539001
    vertex 6.729577 -4.041531 147.539001
    vertex 9.787362 -3.830245 147.539001
  endloop
endfacet
facet normal 0.000000 0.000000 -0.153168
  outer loop
    vertex 3.669786 -4.198574 147.539001
    vertex 6.729577 -4.041531 147.539001
    vertex 6.732989 -4.091414 147.539001
  endloop
endfacet
facet normal 0.000000 0.000000 -0.153254
  outer loop
    vertex 3.671499 -4.248544 147.539001
    vertex 3.669786 -4.198574 147.539001
    vertex 6.732989 -4.091414 147.539001
  endloop
endfacet
facet normal 0.000000 0.000000 -0.153169
  outer loop
    vertex 0.606437 -4.301453 147.539001
    vertex 0.606425 -4.251453 147.539001
    vertex 3.669786 -4.198574 147.539001
  endloop
endfacet
facet normal 0.000000 0.000000 -0.153254
  outer loop
    vertex 0.606437 -4.301453 147.539001
    vertex 3.669786 -4.198574 147.539001
    vertex 3.671499 -4.248544 147.539001
  endloop
endfacet
endsolid b'MESH-MESH-MESH-MESH-MESH-MESH-MESH-MESH-MESH-MESH-MESH-MESH-MESH-MESH-MESH-MESH'
