solid b'MESH-MESH-MESH-MESH-MESH-MESH-MESH-MESH-MESH-MESH-MESH-MESH-MESH-MESH-MESH-MESH'
facet normal 1.317550 10.867386 -0.000000
  outer loop
    vertex 9.906704 3.817911 -255.848999
    vertex 9.906704 3.817911 -252.278000
    vertex 12.949938 3.448953 -252.278000
  endloop
endfacet
facet normal 1.686418 10.816285 -0.000000
  outer loop
    vertex 12.949938 3.448953 -255.848999
    vertex 12.949938 3.448953 -252.278000
    vertex 15.978862 2.976699 -252.278000
  endloop
endfacet
facet normal 1.317550 10.867386 -0.000000
  outer loop
    vertex 12.949938 3.448953 -255.848999
    vertex 9.906704 3.817911 -255.848999
    vertex 12.949938 3.448953 -252.278000
  endloop
endfacet
facet normal 2.053337 10.752669 -0.000000
  outer loop
    vertex 15.978862 2.976699 -255.848999
    vertex 15.978862 2.976699 -252.278000
    vertex 18.989971 2.401696 -252.278000
  endloop
endfacet
facet normal 1.686418 10.816285 -0.000000
  outer loop
    vertex 15.978862 2.976699 -255.848999
    vertex 12.949938 3.448953 -255.848999
    vertex 15.978862 2.976699 -252.278000
  endloop
endfacet
facet normal 2.053337 10.752669 -0.000000
  outer loop
    vertex 18.989971 2.401696 -255.848999
    vertex 15.978862 2.976699 -255.848999
    vertex 18.989971 2.401696 -252.278000
  endloop
endfacet
facet normal 0.174786 -0.036467 0.000000
  outer loop
    vertex 18.979759 2.352750 -255.848999
    vertex 18.989971 2.401696 -255.848999
    vertex 18.989971 2.401696 -252.278000
  endloop
endfacet
facet normal 0.174786 -0.036467 0.000000
  outer loop
    vertex 18.979759 2.352750 -255.848999
    vertex 18.989971 2.401696 -252.278000
    vertex 18.979759 2.352750 -252.278000
  endloop
endfacet
facet normal -1.316818 -10.861358 0.000000
  outer loop
    vertex 9.901531 3.768180 -252.278000
    vertex 12.943077 3.399426 -255.848999
    vertex 12.943077 3.399426 -252.278000
  endloop
endfacet
facet normal -1.316818 -10.861358 0.000000
  outer loop
    vertex 9.901531 3.768180 -255.848999
    vertex 12.943077 3.399426 -255.848999
    vertex 9.901531 3.768180 -252.278000
  endloop
endfacet
facet normal -1.685483 -10.810285 0.000000
  outer loop
    vertex 12.943077 3.399426 -252.278000
    vertex 15.970321 2.927434 -255.848999
    vertex 15.970321 2.927434 -252.278000
  endloop
endfacet
facet normal -1.685483 -10.810285 0.000000
  outer loop
    vertex 12.943077 3.399426 -255.848999
    vertex 15.970321 2.927434 -255.848999
    vertex 12.943077 3.399426 -252.278000
  endloop
endfacet
facet normal -2.052197 -10.746702 0.000000
  outer loop
    vertex 15.970321 2.927434 -252.278000
    vertex 18.979759 2.352750 -255.848999
    vertex 18.979759 2.352750 -252.278000
  endloop
endfacet
facet normal -2.052197 -10.746702 0.000000
  outer loop
    vertex 15.970321 2.927434 -255.848999
    vertex 18.979759 2.352750 -255.848999
    vertex 15.970321 2.927434 -252.278000
  endloop
endfacet
facet normal -0.177592 0.018472 0.000000
  outer loop
    vertex 9.901531 3.768180 -255.848999
    vertex 9.901531 3.768180 -252.278000
    vertex 9.906704 3.817911 -252.278000
  endloop
endfacet
facet normal -0.177592 0.018472 0.000000
  outer loop
    vertex 9.906704 3.817911 -255.848999
    vertex 9.901531 3.768180 -255.848999
    vertex 9.906704 3.817911 -252.278000
  endloop
endfacet
facet normal 0.000000 0.000000 -0.153169
  outer loop
    vertex 15.970321 2.927434 -255.848999
    vertex 15.978862 2.976699 -255.848999
    vertex 18.979759 2.352750 -255.848999
  endloop
endfacet
facet normal 0.000000 0.000000 -0.153253
  outer loop
    vertex 18.979759 2.352750 -255.848999
    vertex 15.978862 2.976699 -255.848999
    vertex 18.989971 2.401696 -255.848999
  endloop
endfacet
facet normal 0.000000 0.000000 -0.153168
  outer loop
    vertex 12.943077 3.399426 -255.848999
    vertex 12.949938 3.448953 -255.848999
    vertex 15.970321 2.927434 -255.848999
  endloop
endfacet
facet normal 0.000000 0.000000 -0.153254
  outer loop
    vertex 15.970321 2.927434 -255.848999
    vertex 12.949938 3.448953 -255.848999
    vertex 15.978862 2.976699 -255.848999
  endloop
endfacet
facet normal 0.000000 0.000000 -0.153169
  outer loop
    vertex 9.901531 3.768180 -255.848999
    vertex 9.906704 3.817911 -255.848999
    vertex 12.943077 3.399426 -255.848999
  endloop
endfacet
facet normal 0.000000 0.000000 -0.153253
  outer loop
    vertex 12.943077 3.399426 -255.848999
    vertex 9.906704 3.817911 -255.848999
    vertex 12.949938 3.448953 -255.848999
  endloop
endfacet
facet normal 0.000000 0.000000 0.153168
  outer loop
    vertex 15.970321 2.927434 -252.278000
    vertex 18.979759 2.352750 -252.278000
    vertex 18.989971 2.401696 -252.278000
  endloop
endfacet
facet normal 0.000000 0.000000 0.153254
  outer loop
    vertex 15.978862 2.976699 -252.278000
    vertex 15.970321 2.927434 -252.278000
    vertex 18.989971 2.401696 -252.278000
  endloop
endfacet
facet normal 0.000000 0.000000 0.153169
  outer loop
    vertex 12.943077 3.399426 -252.278000
    vertex 15.970321 2.927434 -252.278000
    vertex 15.978862 2.976699 -252.278000
  endloop
endfacet
facet normal 0.000000 0.000000 0.153253
  outer loop
    vertex 12.949938 3.448953 -252.278000
    vertex 12.943077 3.399426 -252.278000
    vertex 15.978862 2.976699 -252.278000
  endloop
endfacet
facet normal 0.000000 0.000000 0.153168
  outer loop
    vertex 9.901531 3.768180 -252.278000
    vertex 12.943077 3.399426 -252.278000
    vertex 12.949938 3.448953 -252.278000
  endloop
endfacet
facet normal 0.000000 0.000000 0.153254
  outer loop
    vertex 9.906704 3.817911 -252.278000
    vertex 9.901531 3.768180 -252.278000
    vertex 12.949938 3.448953 -252.278000
  endloop
endfacet
endsolid b'MESH-MESH-MESH-MESH-MESH-MESH-MESH-MESH-MESH-MESH-MESH-MESH-MESH-MESH-MESH-MESH'
