solid b'MESH-MESH-MESH-MESH-MESH-MESH-MESH-MESH-MESH-MESH-MESH-MESH-MESH-MESH-MESH-MESH'
facet normal 0.007302 -0.071044 -0.000000
  outer loop
    vertex 9.807257 -3.828200 140.276993
    vertex 9.787362 -3.830245 140.276993
    vertex 9.787361 -3.830245 136.705994
  endloop
endfacet
facet normal 0.007302 -0.071047 0.000000
  outer loop
    vertex 9.807257 -3.828200 140.276993
    vertex 9.787361 -3.830245 136.705994
    vertex 9.807257 -3.828200 136.705994
  endloop
endfacet
facet normal 0.007318 -0.071044 0.000000
  outer loop
    vertex 9.827151 -3.826151 140.276993
    vertex 9.807257 -3.828200 136.705994
    vertex 9.827151 -3.826151 136.705994
  endloop
endfacet
facet normal 0.007318 -0.071044 0.000000
  outer loop
    vertex 9.827151 -3.826151 140.276993
    vertex 9.807257 -3.828200 140.276993
    vertex 9.807257 -3.828200 136.705994
  endloop
endfacet
facet normal 0.007334 -0.071044 0.000000
  outer loop
    vertex 9.847046 -3.824097 140.276993
    vertex 9.827151 -3.826151 136.705994
    vertex 9.847046 -3.824097 136.705994
  endloop
endfacet
facet normal 0.007334 -0.071044 0.000000
  outer loop
    vertex 9.847046 -3.824097 140.276993
    vertex 9.827151 -3.826151 140.276993
    vertex 9.827151 -3.826151 136.705994
  endloop
endfacet
facet normal 0.177604 0.018353 0.000000
  outer loop
    vertex 9.847046 -3.824097 140.276993
    vertex 9.847046 -3.824097 136.705994
    vertex 9.841907 -3.774362 136.705994
  endloop
endfacet
facet normal 0.177604 0.018353 0.000000
  outer loop
    vertex 9.841907 -3.774362 140.276993
    vertex 9.847046 -3.824097 140.276993
    vertex 9.841907 -3.774362 136.705994
  endloop
endfacet
facet normal -0.007298 0.071006 0.000000
  outer loop
    vertex 9.782255 -3.780506 136.705994
    vertex 9.782255 -3.780506 140.276993
    vertex 9.802139 -3.778463 136.705994
  endloop
endfacet
facet normal -0.007313 0.071003 0.000000
  outer loop
    vertex 9.802139 -3.778463 136.705994
    vertex 9.802139 -3.778463 140.276993
    vertex 9.822022 -3.776415 136.705994
  endloop
endfacet
facet normal -0.007298 0.071006 0.000000
  outer loop
    vertex 9.782255 -3.780506 140.276993
    vertex 9.802139 -3.778463 140.276993
    vertex 9.802139 -3.778463 136.705994
  endloop
endfacet
facet normal -0.007313 0.071006 0.000000
  outer loop
    vertex 9.802139 -3.778463 140.276993
    vertex 9.822023 -3.776415 140.276993
    vertex 9.822022 -3.776415 136.705994
  endloop
endfacet
facet normal -0.007330 0.071006 0.000000
  outer loop
    vertex 9.822022 -3.776415 136.705994
    vertex 9.841907 -3.774362 140.276993
    vertex 9.841907 -3.774362 136.705994
  endloop
endfacet
facet normal -0.007330 0.071003 0.000000
  outer loop
    vertex 9.822023 -3.776415 140.276993
    vertex 9.841907 -3.774362 140.276993
    vertex 9.822022 -3.776415 136.705994
  endloop
endfacet
facet normal -0.177616 -0.018233 -0.000000
  outer loop
    vertex 9.782255 -3.780506 140.276993
    vertex 9.782255 -3.780506 136.705994
    vertex 9.787361 -3.830245 136.705994
  endloop
endfacet
facet normal -0.177617 -0.018237 0.000000
  outer loop
    vertex 9.787362 -3.830245 140.276993
    vertex 9.782255 -3.780506 140.276993
    vertex 9.787361 -3.830245 136.705994
  endloop
endfacet
facet normal -0.000000 0.000000 0.000999
  outer loop
    vertex 9.822023 -3.776415 140.276993
    vertex 9.847046 -3.824097 140.276993
    vertex 9.841907 -3.774362 140.276993
  endloop
endfacet
facet normal 0.000000 0.000000 0.001000
  outer loop
    vertex 9.822023 -3.776415 140.276993
    vertex 9.827151 -3.826151 140.276993
    vertex 9.847046 -3.824097 140.276993
  endloop
endfacet
facet normal -0.000000 0.000000 0.000999
  outer loop
    vertex 9.802139 -3.778463 140.276993
    vertex 9.807257 -3.828200 140.276993
    vertex 9.822023 -3.776415 140.276993
  endloop
endfacet
facet normal 0.000000 0.000000 0.001000
  outer loop
    vertex 9.822023 -3.776415 140.276993
    vertex 9.807257 -3.828200 140.276993
    vertex 9.827151 -3.826151 140.276993
  endloop
endfacet
facet normal -0.000000 0.000000 0.000999
  outer loop
    vertex 9.782255 -3.780506 140.276993
    vertex 9.787362 -3.830245 140.276993
    vertex 9.802139 -3.778463 140.276993
  endloop
endfacet
facet normal 0.000000 0.000000 0.001000
  outer loop
    vertex 9.802139 -3.778463 140.276993
    vertex 9.787362 -3.830245 140.276993
    vertex 9.807257 -3.828200 140.276993
  endloop
endfacet
facet normal 0.000000 0.000000 -0.000999
  outer loop
    vertex 9.847046 -3.824097 136.705994
    vertex 9.822022 -3.776415 136.705994
    vertex 9.841907 -3.774362 136.705994
  endloop
endfacet
facet normal 0.000000 0.000000 -0.001000
  outer loop
    vertex 9.827151 -3.826151 136.705994
    vertex 9.822022 -3.776415 136.705994
    vertex 9.847046 -3.824097 136.705994
  endloop
endfacet
facet normal 0.000000 0.000000 -0.000999
  outer loop
    vertex 9.807257 -3.828200 136.705994
    vertex 9.802139 -3.778463 136.705994
    vertex 9.822022 -3.776415 136.705994
  endloop
endfacet
facet normal 0.000000 0.000000 -0.001000
  outer loop
    vertex 9.807257 -3.828200 136.705994
    vertex 9.822022 -3.776415 136.705994
    vertex 9.827151 -3.826151 136.705994
  endloop
endfacet
facet normal 0.000000 0.000000 -0.000999
  outer loop
    vertex 9.787361 -3.830245 136.705994
    vertex 9.782255 -3.780506 136.705994
    vertex 9.802139 -3.778463 136.705994
  endloop
endfacet
facet normal 0.000000 0.000000 -0.001000
  outer loop
    vertex 9.787361 -3.830245 136.705994
    vertex 9.802139 -3.778463 136.705994
    vertex 9.807257 -3.828200 136.705994
  endloop
endfacet
endsolid b'MESH-MESH-MESH-MESH-MESH-MESH-MESH-MESH-MESH-MESH-MESH-MESH-MESH-MESH-MESH-MESH'
