solid b'MESH-MESH-MESH-MESH-MESH-MESH-MESH-MESH-MESH-MESH-MESH-MESH-MESH-MESH-MESH-MESH'
facet normal 0.007302 0.071047 -0.000000
  outer loop
    vertex 9.787346 3.830246 -208.925995
    vertex 9.787345 3.830247 -205.354996
    vertex 9.807240 3.828202 -205.354996
  endloop
endfacet
facet normal 0.007302 0.071044 -0.000000
  outer loop
    vertex 9.807240 3.828202 -208.925995
    vertex 9.787346 3.830246 -208.925995
    vertex 9.807240 3.828202 -205.354996
  endloop
endfacet
facet normal 0.007318 0.071044 -0.000000
  outer loop
    vertex 9.827135 3.826153 -208.925995
    vertex 9.807240 3.828202 -205.354996
    vertex 9.827135 3.826153 -205.354996
  endloop
endfacet
facet normal 0.007318 0.071044 0.000000
  outer loop
    vertex 9.827135 3.826153 -208.925995
    vertex 9.807240 3.828202 -208.925995
    vertex 9.807240 3.828202 -205.354996
  endloop
endfacet
facet normal 0.007334 0.071044 -0.000000
  outer loop
    vertex 9.847030 3.824099 -208.925995
    vertex 9.827135 3.826153 -205.354996
    vertex 9.847030 3.824099 -205.354996
  endloop
endfacet
facet normal 0.007334 0.071044 0.000000
  outer loop
    vertex 9.847030 3.824099 -208.925995
    vertex 9.827135 3.826153 -208.925995
    vertex 9.827135 3.826153 -205.354996
  endloop
endfacet
facet normal 0.177604 -0.018353 0.000000
  outer loop
    vertex 9.841890 3.774364 -208.925995
    vertex 9.847030 3.824099 -208.925995
    vertex 9.847030 3.824099 -205.354996
  endloop
endfacet
facet normal 0.177604 -0.018353 0.000000
  outer loop
    vertex 9.841890 3.774364 -208.925995
    vertex 9.847030 3.824099 -205.354996
    vertex 9.841890 3.774364 -205.354996
  endloop
endfacet
facet normal -0.007298 -0.071006 -0.000000
  outer loop
    vertex 9.782239 3.780508 -205.354996
    vertex 9.782239 3.780508 -208.925995
    vertex 9.802123 3.778464 -205.354996
  endloop
endfacet
facet normal -0.007298 -0.071006 0.000000
  outer loop
    vertex 9.782239 3.780508 -208.925995
    vertex 9.802123 3.778464 -208.925995
    vertex 9.802123 3.778464 -205.354996
  endloop
endfacet
facet normal -0.007313 -0.071003 -0.000000
  outer loop
    vertex 9.802123 3.778464 -205.354996
    vertex 9.822007 3.776416 -208.925995
    vertex 9.822006 3.776416 -205.354996
  endloop
endfacet
facet normal -0.007313 -0.071006 0.000000
  outer loop
    vertex 9.802123 3.778464 -208.925995
    vertex 9.822007 3.776416 -208.925995
    vertex 9.802123 3.778464 -205.354996
  endloop
endfacet
facet normal -0.007330 -0.071006 0.000000
  outer loop
    vertex 9.822006 3.776416 -205.354996
    vertex 9.841890 3.774364 -208.925995
    vertex 9.841890 3.774364 -205.354996
  endloop
endfacet
facet normal -0.007330 -0.071003 -0.000000
  outer loop
    vertex 9.822007 3.776416 -208.925995
    vertex 9.841890 3.774364 -208.925995
    vertex 9.822006 3.776416 -205.354996
  endloop
endfacet
facet normal -0.177617 0.018233 0.000000
  outer loop
    vertex 9.782239 3.780508 -208.925995
    vertex 9.782239 3.780508 -205.354996
    vertex 9.787345 3.830247 -205.354996
  endloop
endfacet
facet normal -0.177616 0.018237 -0.000000
  outer loop
    vertex 9.787346 3.830246 -208.925995
    vertex 9.782239 3.780508 -208.925995
    vertex 9.787345 3.830247 -205.354996
  endloop
endfacet
facet normal 0.000000 0.000000 -0.000999
  outer loop
    vertex 9.822007 3.776416 -208.925995
    vertex 9.847030 3.824099 -208.925995
    vertex 9.841890 3.774364 -208.925995
  endloop
endfacet
facet normal 0.000000 0.000000 -0.001000
  outer loop
    vertex 9.822007 3.776416 -208.925995
    vertex 9.827135 3.826153 -208.925995
    vertex 9.847030 3.824099 -208.925995
  endloop
endfacet
facet normal 0.000000 0.000000 -0.000999
  outer loop
    vertex 9.802123 3.778464 -208.925995
    vertex 9.807240 3.828202 -208.925995
    vertex 9.822007 3.776416 -208.925995
  endloop
endfacet
facet normal 0.000000 0.000000 -0.001000
  outer loop
    vertex 9.822007 3.776416 -208.925995
    vertex 9.807240 3.828202 -208.925995
    vertex 9.827135 3.826153 -208.925995
  endloop
endfacet
facet normal 0.000000 0.000000 -0.000999
  outer loop
    vertex 9.782239 3.780508 -208.925995
    vertex 9.787346 3.830246 -208.925995
    vertex 9.802123 3.778464 -208.925995
  endloop
endfacet
facet normal 0.000000 0.000000 -0.001000
  outer loop
    vertex 9.802123 3.778464 -208.925995
    vertex 9.787346 3.830246 -208.925995
    vertex 9.807240 3.828202 -208.925995
  endloop
endfacet
facet normal 0.000000 0.000000 0.000999
  outer loop
    vertex 9.847030 3.824099 -205.354996
    vertex 9.822006 3.776416 -205.354996
    vertex 9.841890 3.774364 -205.354996
  endloop
endfacet
facet normal 0.000000 0.000000 0.000999
  outer loop
    vertex 9.827135 3.826153 -205.354996
    vertex 9.802123 3.778464 -205.354996
    vertex 9.822006 3.776416 -205.354996
  endloop
endfacet
facet normal 0.000000 0.000000 0.001000
  outer loop
    vertex 9.827135 3.826153 -205.354996
    vertex 9.822006 3.776416 -205.354996
    vertex 9.847030 3.824099 -205.354996
  endloop
endfacet
facet normal 0.000000 0.000000 0.001000
  outer loop
    vertex 9.807240 3.828202 -205.354996
    vertex 9.802123 3.778464 -205.354996
    vertex 9.827135 3.826153 -205.354996
  endloop
endfacet
facet normal 0.000000 0.000000 0.000999
  outer loop
    vertex 9.787345 3.830247 -205.354996
    vertex 9.782239 3.780508 -205.354996
    vertex 9.802123 3.778464 -205.354996
  endloop
endfacet
facet normal 0.000000 0.000000 0.001000
  outer loop
    vertex 9.787345 3.830247 -205.354996
    vertex 9.802123 3.778464 -205.354996
    vertex 9.807240 3.828202 -205.354996
  endloop
endfacet
endsolid b'MESH-MESH-MESH-MESH-MESH-MESH-MESH-MESH-MESH-MESH-MESH-MESH-MESH-MESH-MESH-MESH'
