solid b'MESH-MESH-MESH-MESH-MESH-MESH-MESH-MESH-MESH-MESH-MESH-MESH-MESH-MESH-MESH-MESH'
facet normal 0.007349 -0.071040 0.000000
  outer loop
    vertex 9.847034 -3.824098 -53.074001
    vertex 9.847034 -3.824099 -56.645000
    vertex 9.866927 -3.822041 -56.645000
  endloop
endfacet
facet normal 0.007365 -0.071040 0.000000
  outer loop
    vertex 9.866927 -3.822040 -53.074001
    vertex 9.866927 -3.822041 -56.645000
    vertex 9.886821 -3.819978 -56.645000
  endloop
endfacet
facet normal 0.007349 -0.071040 0.000000
  outer loop
    vertex 9.866927 -3.822040 -53.074001
    vertex 9.847034 -3.824098 -53.074001
    vertex 9.866927 -3.822041 -56.645000
  endloop
endfacet
facet normal 0.007365 -0.071040 0.000000
  outer loop
    vertex 9.886821 -3.819978 -53.074001
    vertex 9.866927 -3.822040 -53.074001
    vertex 9.886821 -3.819978 -56.645000
  endloop
endfacet
facet normal 0.007381 -0.071037 0.000000
  outer loop
    vertex 9.906713 -3.817911 -53.074001
    vertex 9.886821 -3.819978 -56.645000
    vertex 9.906713 -3.817911 -56.645000
  endloop
endfacet
facet normal 0.007381 -0.071037 0.000000
  outer loop
    vertex 9.906713 -3.817911 -53.074001
    vertex 9.886821 -3.819978 -53.074001
    vertex 9.886821 -3.819978 -56.645000
  endloop
endfacet
facet normal 0.177592 0.018472 -0.000000
  outer loop
    vertex 9.906713 -3.817911 -53.074001
    vertex 9.906713 -3.817911 -56.645000
    vertex 9.901541 -3.768180 -56.645000
  endloop
endfacet
facet normal 0.177592 0.018472 -0.000000
  outer loop
    vertex 9.901541 -3.768179 -53.074001
    vertex 9.906713 -3.817911 -53.074001
    vertex 9.901541 -3.768180 -56.645000
  endloop
endfacet
facet normal -0.007345 0.070999 -0.000000
  outer loop
    vertex 9.841894 -3.774364 -56.645000
    vertex 9.861776 -3.772306 -53.074001
    vertex 9.861776 -3.772307 -56.645000
  endloop
endfacet
facet normal -0.007361 0.071003 -0.000000
  outer loop
    vertex 9.861776 -3.772307 -56.645000
    vertex 9.861776 -3.772306 -53.074001
    vertex 9.881660 -3.770246 -56.645000
  endloop
endfacet
facet normal -0.007346 0.070999 -0.000000
  outer loop
    vertex 9.841894 -3.774363 -53.074001
    vertex 9.861776 -3.772306 -53.074001
    vertex 9.841894 -3.774364 -56.645000
  endloop
endfacet
facet normal -0.007361 0.071003 -0.000000
  outer loop
    vertex 9.861776 -3.772306 -53.074001
    vertex 9.881660 -3.770245 -53.074001
    vertex 9.881660 -3.770246 -56.645000
  endloop
endfacet
facet normal -0.007377 0.070996 -0.000000
  outer loop
    vertex 9.881660 -3.770246 -56.645000
    vertex 9.901541 -3.768179 -53.074001
    vertex 9.901541 -3.768180 -56.645000
  endloop
endfacet
facet normal -0.007376 0.070996 -0.000000
  outer loop
    vertex 9.881660 -3.770245 -53.074001
    vertex 9.901541 -3.768179 -53.074001
    vertex 9.881660 -3.770246 -56.645000
  endloop
endfacet
facet normal -0.177604 -0.018353 0.000000
  outer loop
    vertex 9.841894 -3.774363 -53.074001
    vertex 9.841894 -3.774364 -56.645000
    vertex 9.847034 -3.824099 -56.645000
  endloop
endfacet
facet normal -0.177604 -0.018353 0.000000
  outer loop
    vertex 9.847034 -3.824098 -53.074001
    vertex 9.841894 -3.774363 -53.074001
    vertex 9.847034 -3.824099 -56.645000
  endloop
endfacet
facet normal -0.000000 0.000000 0.000999
  outer loop
    vertex 9.881660 -3.770245 -53.074001
    vertex 9.906713 -3.817911 -53.074001
    vertex 9.901541 -3.768179 -53.074001
  endloop
endfacet
facet normal -0.000000 0.000000 0.000999
  outer loop
    vertex 9.861776 -3.772306 -53.074001
    vertex 9.886821 -3.819978 -53.074001
    vertex 9.881660 -3.770245 -53.074001
  endloop
endfacet
facet normal 0.000000 0.000000 0.001000
  outer loop
    vertex 9.881660 -3.770245 -53.074001
    vertex 9.886821 -3.819978 -53.074001
    vertex 9.906713 -3.817911 -53.074001
  endloop
endfacet
facet normal -0.000000 0.000000 0.000999
  outer loop
    vertex 9.841894 -3.774363 -53.074001
    vertex 9.866927 -3.822040 -53.074001
    vertex 9.861776 -3.772306 -53.074001
  endloop
endfacet
facet normal 0.000000 0.000000 0.001000
  outer loop
    vertex 9.861776 -3.772306 -53.074001
    vertex 9.866927 -3.822040 -53.074001
    vertex 9.886821 -3.819978 -53.074001
  endloop
endfacet
facet normal 0.000000 0.000000 0.001000
  outer loop
    vertex 9.841894 -3.774363 -53.074001
    vertex 9.847034 -3.824098 -53.074001
    vertex 9.866927 -3.822040 -53.074001
  endloop
endfacet
facet normal 0.000000 0.000000 -0.000999
  outer loop
    vertex 9.906713 -3.817911 -56.645000
    vertex 9.881660 -3.770246 -56.645000
    vertex 9.901541 -3.768180 -56.645000
  endloop
endfacet
facet normal 0.000000 0.000000 -0.000999
  outer loop
    vertex 9.886821 -3.819978 -56.645000
    vertex 9.861776 -3.772307 -56.645000
    vertex 9.881660 -3.770246 -56.645000
  endloop
endfacet
facet normal 0.000000 0.000000 -0.001000
  outer loop
    vertex 9.886821 -3.819978 -56.645000
    vertex 9.881660 -3.770246 -56.645000
    vertex 9.906713 -3.817911 -56.645000
  endloop
endfacet
facet normal 0.000000 0.000000 -0.001000
  outer loop
    vertex 9.866927 -3.822041 -56.645000
    vertex 9.861776 -3.772307 -56.645000
    vertex 9.886821 -3.819978 -56.645000
  endloop
endfacet
facet normal 0.000000 0.000000 -0.000999
  outer loop
    vertex 9.847034 -3.824099 -56.645000
    vertex 9.841894 -3.774364 -56.645000
    vertex 9.861776 -3.772307 -56.645000
  endloop
endfacet
facet normal 0.000000 0.000000 -0.001000
  outer loop
    vertex 9.847034 -3.824099 -56.645000
    vertex 9.861776 -3.772307 -56.645000
    vertex 9.866927 -3.822041 -56.645000
  endloop
endfacet
endsolid b'MESH-MESH-MESH-MESH-MESH-MESH-MESH-MESH-MESH-MESH-MESH-MESH-MESH-MESH-MESH-MESH'
