solid b'MESH-MESH-MESH-MESH-MESH-MESH-MESH-MESH-MESH-MESH-MESH-MESH-MESH-MESH-MESH-MESH'
facet normal 0.007349 0.071040 -0.000000
  outer loop
    vertex 9.866922 3.822040 -234.182999
    vertex 9.847029 3.824098 -234.182999
    vertex 9.847029 3.824099 -230.612000
  endloop
endfacet
facet normal 0.007349 0.071040 -0.000000
  outer loop
    vertex 9.866922 3.822040 -234.182999
    vertex 9.847029 3.824099 -230.612000
    vertex 9.866922 3.822041 -230.612000
  endloop
endfacet
facet normal 0.007365 0.071040 -0.000000
  outer loop
    vertex 9.886816 3.819978 -234.182999
    vertex 9.866922 3.822041 -230.612000
    vertex 9.886816 3.819978 -230.612000
  endloop
endfacet
facet normal 0.007381 0.071037 -0.000000
  outer loop
    vertex 9.886816 3.819978 -234.182999
    vertex 9.886816 3.819978 -230.612000
    vertex 9.906709 3.817912 -230.612000
  endloop
endfacet
facet normal 0.007365 0.071040 -0.000000
  outer loop
    vertex 9.886816 3.819978 -234.182999
    vertex 9.866922 3.822040 -234.182999
    vertex 9.866922 3.822041 -230.612000
  endloop
endfacet
facet normal 0.007381 0.071037 -0.000000
  outer loop
    vertex 9.906709 3.817911 -234.182999
    vertex 9.886816 3.819978 -234.182999
    vertex 9.906709 3.817912 -230.612000
  endloop
endfacet
facet normal 0.177592 -0.018472 0.000000
  outer loop
    vertex 9.906709 3.817911 -234.182999
    vertex 9.906709 3.817912 -230.612000
    vertex 9.901536 3.768180 -230.612000
  endloop
endfacet
facet normal 0.177592 -0.018472 0.000000
  outer loop
    vertex 9.901536 3.768179 -234.182999
    vertex 9.906709 3.817911 -234.182999
    vertex 9.901536 3.768180 -230.612000
  endloop
endfacet
facet normal -0.007346 -0.070999 0.000000
  outer loop
    vertex 9.841889 3.774364 -230.612000
    vertex 9.861772 3.772306 -234.182999
    vertex 9.861772 3.772307 -230.612000
  endloop
endfacet
facet normal -0.007360 -0.070999 0.000000
  outer loop
    vertex 9.861772 3.772307 -230.612000
    vertex 9.861772 3.772306 -234.182999
    vertex 9.881654 3.770246 -230.612000
  endloop
endfacet
facet normal -0.007345 -0.070999 0.000000
  outer loop
    vertex 9.841889 3.774363 -234.182999
    vertex 9.861772 3.772306 -234.182999
    vertex 9.841889 3.774364 -230.612000
  endloop
endfacet
facet normal -0.007377 -0.070999 0.000000
  outer loop
    vertex 9.881654 3.770246 -230.612000
    vertex 9.881654 3.770245 -234.182999
    vertex 9.901536 3.768180 -230.612000
  endloop
endfacet
facet normal -0.007361 -0.070999 0.000000
  outer loop
    vertex 9.861772 3.772306 -234.182999
    vertex 9.881654 3.770245 -234.182999
    vertex 9.881654 3.770246 -230.612000
  endloop
endfacet
facet normal -0.007376 -0.070999 0.000000
  outer loop
    vertex 9.881654 3.770245 -234.182999
    vertex 9.901536 3.768179 -234.182999
    vertex 9.901536 3.768180 -230.612000
  endloop
endfacet
facet normal -0.177605 0.018353 -0.000000
  outer loop
    vertex 9.847029 3.824098 -234.182999
    vertex 9.841889 3.774363 -234.182999
    vertex 9.841889 3.774364 -230.612000
  endloop
endfacet
facet normal -0.177604 0.018353 -0.000000
  outer loop
    vertex 9.847029 3.824098 -234.182999
    vertex 9.841889 3.774364 -230.612000
    vertex 9.847029 3.824099 -230.612000
  endloop
endfacet
facet normal 0.000000 0.000000 -0.000999
  outer loop
    vertex 9.881654 3.770245 -234.182999
    vertex 9.906709 3.817911 -234.182999
    vertex 9.901536 3.768179 -234.182999
  endloop
endfacet
facet normal 0.000000 0.000000 -0.000999
  outer loop
    vertex 9.861772 3.772306 -234.182999
    vertex 9.886816 3.819978 -234.182999
    vertex 9.881654 3.770245 -234.182999
  endloop
endfacet
facet normal 0.000000 0.000000 -0.001000
  outer loop
    vertex 9.881654 3.770245 -234.182999
    vertex 9.886816 3.819978 -234.182999
    vertex 9.906709 3.817911 -234.182999
  endloop
endfacet
facet normal 0.000000 0.000000 -0.000999
  outer loop
    vertex 9.841889 3.774363 -234.182999
    vertex 9.866922 3.822040 -234.182999
    vertex 9.861772 3.772306 -234.182999
  endloop
endfacet
facet normal 0.000000 0.000000 -0.001000
  outer loop
    vertex 9.861772 3.772306 -234.182999
    vertex 9.866922 3.822040 -234.182999
    vertex 9.886816 3.819978 -234.182999
  endloop
endfacet
facet normal 0.000000 0.000000 -0.001000
  outer loop
    vertex 9.841889 3.774363 -234.182999
    vertex 9.847029 3.824098 -234.182999
    vertex 9.866922 3.822040 -234.182999
  endloop
endfacet
facet normal 0.000000 0.000000 0.000999
  outer loop
    vertex 9.906709 3.817912 -230.612000
    vertex 9.881654 3.770246 -230.612000
    vertex 9.901536 3.768180 -230.612000
  endloop
endfacet
facet normal 0.000000 0.000000 0.001000
  outer loop
    vertex 9.886816 3.819978 -230.612000
    vertex 9.881654 3.770246 -230.612000
    vertex 9.906709 3.817912 -230.612000
  endloop
endfacet
facet normal 0.000000 0.000000 0.000999
  outer loop
    vertex 9.866922 3.822041 -230.612000
    vertex 9.861772 3.772307 -230.612000
    vertex 9.881654 3.770246 -230.612000
  endloop
endfacet
facet normal 0.000000 0.000000 0.001000
  outer loop
    vertex 9.866922 3.822041 -230.612000
    vertex 9.881654 3.770246 -230.612000
    vertex 9.886816 3.819978 -230.612000
  endloop
endfacet
facet normal 0.000000 0.000000 0.000999
  outer loop
    vertex 9.847029 3.824099 -230.612000
    vertex 9.841889 3.774364 -230.612000
    vertex 9.861772 3.772307 -230.612000
  endloop
endfacet
facet normal 0.000000 0.000000 0.001000
  outer loop
    vertex 9.847029 3.824099 -230.612000
    vertex 9.861772 3.772307 -230.612000
    vertex 9.866922 3.822041 -230.612000
  endloop
endfacet
endsolid b'MESH-MESH-MESH-MESH-MESH-MESH-MESH-MESH-MESH-MESH-MESH-MESH-MESH-MESH-MESH-MESH'
