solid b'MESH-MESH-MESH-MESH-MESH-MESH-MESH-MESH-MESH-MESH-MESH-MESH-MESH-MESH-MESH-MESH'
facet normal -0.007302 0.071047 -0.000000
  outer loop
    vertex -9.807231 3.828202 -248.686996
    vertex -9.787335 3.830247 -248.686996
    vertex -9.787335 3.830247 -252.257996
  endloop
endfacet
facet normal -0.007302 0.071047 -0.000000
  outer loop
    vertex -9.807231 3.828202 -248.686996
    vertex -9.787335 3.830247 -252.257996
    vertex -9.807231 3.828202 -252.257996
  endloop
endfacet
facet normal -0.007318 0.071044 0.000000
  outer loop
    vertex -9.827126 3.826153 -248.686996
    vertex -9.807231 3.828202 -252.257996
    vertex -9.827126 3.826153 -252.257996
  endloop
endfacet
facet normal -0.007334 0.071040 0.000000
  outer loop
    vertex -9.827126 3.826153 -248.686996
    vertex -9.827126 3.826153 -252.257996
    vertex -9.847019 3.824099 -252.257996
  endloop
endfacet
facet normal -0.007319 0.071044 -0.000000
  outer loop
    vertex -9.827126 3.826153 -248.686996
    vertex -9.807231 3.828202 -248.686996
    vertex -9.807231 3.828202 -252.257996
  endloop
endfacet
facet normal -0.007333 0.071040 -0.000000
  outer loop
    vertex -9.847019 3.824099 -248.686996
    vertex -9.827126 3.826153 -248.686996
    vertex -9.847019 3.824099 -252.257996
  endloop
endfacet
facet normal -0.177604 -0.018353 0.000000
  outer loop
    vertex -9.847019 3.824099 -248.686996
    vertex -9.841880 3.774364 -252.257996
    vertex -9.841880 3.774364 -248.686996
  endloop
endfacet
facet normal -0.177604 -0.018353 0.000000
  outer loop
    vertex -9.847019 3.824099 -252.257996
    vertex -9.841880 3.774364 -252.257996
    vertex -9.847019 3.824099 -248.686996
  endloop
endfacet
facet normal 0.007298 -0.071010 0.000000
  outer loop
    vertex -9.782228 3.780508 -252.257996
    vertex -9.802113 3.778465 -248.686996
    vertex -9.802114 3.778465 -252.257996
  endloop
endfacet
facet normal 0.007297 -0.071006 0.000000
  outer loop
    vertex -9.782228 3.780508 -248.686996
    vertex -9.802113 3.778465 -248.686996
    vertex -9.782228 3.780508 -252.257996
  endloop
endfacet
facet normal 0.007313 -0.071003 0.000000
  outer loop
    vertex -9.802114 3.778465 -252.257996
    vertex -9.821997 3.776417 -248.686996
    vertex -9.821997 3.776417 -252.257996
  endloop
endfacet
facet normal 0.007330 -0.071003 0.000000
  outer loop
    vertex -9.821997 3.776417 -252.257996
    vertex -9.821997 3.776417 -248.686996
    vertex -9.841880 3.774364 -252.257996
  endloop
endfacet
facet normal 0.007314 -0.071006 0.000000
  outer loop
    vertex -9.802113 3.778465 -248.686996
    vertex -9.821997 3.776417 -248.686996
    vertex -9.802114 3.778465 -252.257996
  endloop
endfacet
facet normal 0.007329 -0.071003 0.000000
  outer loop
    vertex -9.821997 3.776417 -248.686996
    vertex -9.841880 3.774364 -248.686996
    vertex -9.841880 3.774364 -252.257996
  endloop
endfacet
facet normal 0.177617 0.018237 0.000000
  outer loop
    vertex -9.782228 3.780508 -248.686996
    vertex -9.782228 3.780508 -252.257996
    vertex -9.787335 3.830247 -248.686996
  endloop
endfacet
facet normal 0.177616 0.018237 -0.000000
  outer loop
    vertex -9.782228 3.780508 -252.257996
    vertex -9.787335 3.830247 -252.257996
    vertex -9.787335 3.830247 -248.686996
  endloop
endfacet
facet normal 0.000000 0.000000 -0.000999
  outer loop
    vertex -9.847019 3.824099 -252.257996
    vertex -9.821997 3.776417 -252.257996
    vertex -9.841880 3.774364 -252.257996
  endloop
endfacet
facet normal 0.000000 -0.000000 -0.001000
  outer loop
    vertex -9.827126 3.826153 -252.257996
    vertex -9.821997 3.776417 -252.257996
    vertex -9.847019 3.824099 -252.257996
  endloop
endfacet
facet normal 0.000000 -0.000000 -0.000999
  outer loop
    vertex -9.807231 3.828202 -252.257996
    vertex -9.802114 3.778465 -252.257996
    vertex -9.821997 3.776417 -252.257996
  endloop
endfacet
facet normal 0.000000 0.000000 -0.001000
  outer loop
    vertex -9.807231 3.828202 -252.257996
    vertex -9.821997 3.776417 -252.257996
    vertex -9.827126 3.826153 -252.257996
  endloop
endfacet
facet normal 0.000000 -0.000000 -0.000999
  outer loop
    vertex -9.787335 3.830247 -252.257996
    vertex -9.782228 3.780508 -252.257996
    vertex -9.802114 3.778465 -252.257996
  endloop
endfacet
facet normal 0.000000 0.000000 -0.001000
  outer loop
    vertex -9.787335 3.830247 -252.257996
    vertex -9.802114 3.778465 -252.257996
    vertex -9.807231 3.828202 -252.257996
  endloop
endfacet
facet normal 0.000000 0.000000 0.000999
  outer loop
    vertex -9.821997 3.776417 -248.686996
    vertex -9.847019 3.824099 -248.686996
    vertex -9.841880 3.774364 -248.686996
  endloop
endfacet
facet normal 0.000000 0.000000 0.000999
  outer loop
    vertex -9.802113 3.778465 -248.686996
    vertex -9.827126 3.826153 -248.686996
    vertex -9.821997 3.776417 -248.686996
  endloop
endfacet
facet normal 0.000000 0.000000 0.001000
  outer loop
    vertex -9.821997 3.776417 -248.686996
    vertex -9.827126 3.826153 -248.686996
    vertex -9.847019 3.824099 -248.686996
  endloop
endfacet
facet normal 0.000000 0.000000 0.000999
  outer loop
    vertex -9.782228 3.780508 -248.686996
    vertex -9.807231 3.828202 -248.686996
    vertex -9.802113 3.778465 -248.686996
  endloop
endfacet
facet normal 0.000000 0.000000 0.001000
  outer loop
    vertex -9.802113 3.778465 -248.686996
    vertex -9.807231 3.828202 -248.686996
    vertex -9.827126 3.826153 -248.686996
  endloop
endfacet
facet normal 0.000000 0.000000 0.001000
  outer loop
    vertex -9.782228 3.780508 -248.686996
    vertex -9.787335 3.830247 -248.686996
    vertex -9.807231 3.828202 -248.686996
  endloop
endfacet
endsolid b'MESH-MESH-MESH-MESH-MESH-MESH-MESH-MESH-MESH-MESH-MESH-MESH-MESH-MESH-MESH-MESH'
