solid b'MESH-MESH-MESH-MESH-MESH-MESH-MESH-MESH-MESH-MESH-MESH-MESH-MESH-MESH-MESH-MESH'
facet normal 0.007302 0.071044 0.000000
  outer loop
    vertex 9.807251 3.828201 103.648003
    vertex 9.787356 3.830246 103.648003
    vertex 9.787356 3.830246 107.219002
  endloop
endfacet
facet normal 0.007302 0.071044 -0.000000
  outer loop
    vertex 9.807251 3.828201 103.648003
    vertex 9.787356 3.830246 107.219002
    vertex 9.807251 3.828201 107.219002
  endloop
endfacet
facet normal 0.007318 0.071044 -0.000000
  outer loop
    vertex 9.827146 3.826152 103.648003
    vertex 9.807251 3.828201 107.219002
    vertex 9.827146 3.826152 107.219002
  endloop
endfacet
facet normal 0.007318 0.071044 0.000000
  outer loop
    vertex 9.827146 3.826152 103.648003
    vertex 9.807251 3.828201 103.648003
    vertex 9.807251 3.828201 107.219002
  endloop
endfacet
facet normal 0.007334 0.071044 -0.000000
  outer loop
    vertex 9.847040 3.824098 103.648003
    vertex 9.827146 3.826152 107.219002
    vertex 9.847040 3.824098 107.219002
  endloop
endfacet
facet normal 0.007334 0.071044 0.000000
  outer loop
    vertex 9.847040 3.824098 103.648003
    vertex 9.827146 3.826152 103.648003
    vertex 9.827146 3.826152 107.219002
  endloop
endfacet
facet normal 0.177604 -0.018353 0.000000
  outer loop
    vertex 9.847040 3.824098 103.648003
    vertex 9.847040 3.824098 107.219002
    vertex 9.841901 3.774363 107.219002
  endloop
endfacet
facet normal 0.177604 -0.018353 0.000000
  outer loop
    vertex 9.841901 3.774363 103.648003
    vertex 9.847040 3.824098 103.648003
    vertex 9.841901 3.774363 107.219002
  endloop
endfacet
facet normal -0.007298 -0.071006 -0.000000
  outer loop
    vertex 9.782249 3.780507 107.219002
    vertex 9.782249 3.780507 103.648003
    vertex 9.802134 3.778463 107.219002
  endloop
endfacet
facet normal -0.007313 -0.071006 -0.000000
  outer loop
    vertex 9.802134 3.778463 107.219002
    vertex 9.802134 3.778463 103.648003
    vertex 9.822018 3.776415 107.219002
  endloop
endfacet
facet normal -0.007298 -0.071006 0.000000
  outer loop
    vertex 9.782249 3.780507 103.648003
    vertex 9.802134 3.778463 103.648003
    vertex 9.802134 3.778463 107.219002
  endloop
endfacet
facet normal -0.007313 -0.071006 0.000000
  outer loop
    vertex 9.802134 3.778463 103.648003
    vertex 9.822018 3.776415 103.648003
    vertex 9.822018 3.776415 107.219002
  endloop
endfacet
facet normal -0.007330 -0.071003 0.000000
  outer loop
    vertex 9.822018 3.776415 107.219002
    vertex 9.841901 3.774363 103.648003
    vertex 9.841901 3.774363 107.219002
  endloop
endfacet
facet normal -0.007330 -0.071003 0.000000
  outer loop
    vertex 9.822018 3.776415 103.648003
    vertex 9.841901 3.774363 103.648003
    vertex 9.822018 3.776415 107.219002
  endloop
endfacet
facet normal -0.177617 0.018237 0.000000
  outer loop
    vertex 9.782249 3.780507 103.648003
    vertex 9.782249 3.780507 107.219002
    vertex 9.787356 3.830246 107.219002
  endloop
endfacet
facet normal -0.177617 0.018237 0.000000
  outer loop
    vertex 9.787356 3.830246 103.648003
    vertex 9.782249 3.780507 103.648003
    vertex 9.787356 3.830246 107.219002
  endloop
endfacet
facet normal 0.000000 0.000000 -0.000999
  outer loop
    vertex 9.822018 3.776415 103.648003
    vertex 9.847040 3.824098 103.648003
    vertex 9.841901 3.774363 103.648003
  endloop
endfacet
facet normal 0.000000 0.000000 -0.000999
  outer loop
    vertex 9.802134 3.778463 103.648003
    vertex 9.827146 3.826152 103.648003
    vertex 9.822018 3.776415 103.648003
  endloop
endfacet
facet normal 0.000000 0.000000 -0.001000
  outer loop
    vertex 9.822018 3.776415 103.648003
    vertex 9.827146 3.826152 103.648003
    vertex 9.847040 3.824098 103.648003
  endloop
endfacet
facet normal 0.000000 0.000000 -0.001000
  outer loop
    vertex 9.802134 3.778463 103.648003
    vertex 9.807251 3.828201 103.648003
    vertex 9.827146 3.826152 103.648003
  endloop
endfacet
facet normal 0.000000 0.000000 -0.000999
  outer loop
    vertex 9.782249 3.780507 103.648003
    vertex 9.787356 3.830246 103.648003
    vertex 9.802134 3.778463 103.648003
  endloop
endfacet
facet normal 0.000000 0.000000 -0.001000
  outer loop
    vertex 9.802134 3.778463 103.648003
    vertex 9.787356 3.830246 103.648003
    vertex 9.807251 3.828201 103.648003
  endloop
endfacet
facet normal 0.000000 0.000000 0.000999
  outer loop
    vertex 9.847040 3.824098 107.219002
    vertex 9.822018 3.776415 107.219002
    vertex 9.841901 3.774363 107.219002
  endloop
endfacet
facet normal 0.000000 0.000000 0.001000
  outer loop
    vertex 9.827146 3.826152 107.219002
    vertex 9.822018 3.776415 107.219002
    vertex 9.847040 3.824098 107.219002
  endloop
endfacet
facet normal 0.000000 0.000000 0.000999
  outer loop
    vertex 9.807251 3.828201 107.219002
    vertex 9.802134 3.778463 107.219002
    vertex 9.822018 3.776415 107.219002
  endloop
endfacet
facet normal 0.000000 0.000000 0.001000
  outer loop
    vertex 9.807251 3.828201 107.219002
    vertex 9.822018 3.776415 107.219002
    vertex 9.827146 3.826152 107.219002
  endloop
endfacet
facet normal 0.000000 0.000000 0.000999
  outer loop
    vertex 9.787356 3.830246 107.219002
    vertex 9.782249 3.780507 107.219002
    vertex 9.802134 3.778463 107.219002
  endloop
endfacet
facet normal 0.000000 0.000000 0.001000
  outer loop
    vertex 9.787356 3.830246 107.219002
    vertex 9.802134 3.778463 107.219002
    vertex 9.807251 3.828201 107.219002
  endloop
endfacet
endsolid b'MESH-MESH-MESH-MESH-MESH-MESH-MESH-MESH-MESH-MESH-MESH-MESH-MESH-MESH-MESH-MESH'
