solid b'MESH-MESH-MESH-MESH-MESH-MESH-MESH-MESH-MESH-MESH-MESH-MESH-MESH-MESH-MESH-MESH'
facet normal 0.007349 0.071044 -0.000000
  outer loop
    vertex 9.866918 3.822040 -259.440002
    vertex 9.847023 3.824098 -259.440002
    vertex 9.847023 3.824099 -255.869003
  endloop
endfacet
facet normal 0.007349 0.071044 -0.000000
  outer loop
    vertex 9.866918 3.822040 -259.440002
    vertex 9.847023 3.824099 -255.869003
    vertex 9.866918 3.822041 -255.869003
  endloop
endfacet
facet normal 0.007365 0.071037 -0.000000
  outer loop
    vertex 9.886810 3.819978 -259.440002
    vertex 9.866918 3.822041 -255.869003
    vertex 9.886810 3.819978 -255.869003
  endloop
endfacet
facet normal 0.007381 0.071040 -0.000000
  outer loop
    vertex 9.886810 3.819978 -259.440002
    vertex 9.886810 3.819978 -255.869003
    vertex 9.906704 3.817912 -255.869003
  endloop
endfacet
facet normal 0.007365 0.071037 -0.000000
  outer loop
    vertex 9.886810 3.819978 -259.440002
    vertex 9.866918 3.822040 -259.440002
    vertex 9.866918 3.822041 -255.869003
  endloop
endfacet
facet normal 0.007381 0.071040 -0.000000
  outer loop
    vertex 9.906704 3.817911 -259.440002
    vertex 9.886810 3.819978 -259.440002
    vertex 9.906704 3.817912 -255.869003
  endloop
endfacet
facet normal 0.177592 -0.018472 0.000000
  outer loop
    vertex 9.901531 3.768179 -259.440002
    vertex 9.906704 3.817911 -259.440002
    vertex 9.906704 3.817912 -255.869003
  endloop
endfacet
facet normal 0.177592 -0.018472 0.000000
  outer loop
    vertex 9.901531 3.768179 -259.440002
    vertex 9.906704 3.817912 -255.869003
    vertex 9.901531 3.768180 -255.869003
  endloop
endfacet
facet normal -0.007345 -0.071003 0.000000
  outer loop
    vertex 9.841884 3.774364 -255.869003
    vertex 9.841884 3.774363 -259.440002
    vertex 9.861767 3.772307 -255.869003
  endloop
endfacet
facet normal -0.007361 -0.070999 0.000000
  outer loop
    vertex 9.861767 3.772307 -255.869003
    vertex 9.861767 3.772306 -259.440002
    vertex 9.881649 3.770246 -255.869003
  endloop
endfacet
facet normal -0.007345 -0.071003 0.000000
  outer loop
    vertex 9.841884 3.774363 -259.440002
    vertex 9.861767 3.772306 -259.440002
    vertex 9.861767 3.772307 -255.869003
  endloop
endfacet
facet normal -0.007361 -0.070999 0.000000
  outer loop
    vertex 9.861767 3.772306 -259.440002
    vertex 9.881649 3.770245 -259.440002
    vertex 9.881649 3.770246 -255.869003
  endloop
endfacet
facet normal -0.007376 -0.070999 0.000000
  outer loop
    vertex 9.881649 3.770246 -255.869003
    vertex 9.901531 3.768179 -259.440002
    vertex 9.901531 3.768180 -255.869003
  endloop
endfacet
facet normal -0.007377 -0.070999 0.000000
  outer loop
    vertex 9.881649 3.770245 -259.440002
    vertex 9.901531 3.768179 -259.440002
    vertex 9.881649 3.770246 -255.869003
  endloop
endfacet
facet normal -0.177604 0.018353 -0.000000
  outer loop
    vertex 9.847023 3.824098 -259.440002
    vertex 9.841884 3.774363 -259.440002
    vertex 9.841884 3.774364 -255.869003
  endloop
endfacet
facet normal -0.177605 0.018353 -0.000000
  outer loop
    vertex 9.847023 3.824098 -259.440002
    vertex 9.841884 3.774364 -255.869003
    vertex 9.847023 3.824099 -255.869003
  endloop
endfacet
facet normal 0.000000 0.000000 -0.000999
  outer loop
    vertex 9.881649 3.770245 -259.440002
    vertex 9.906704 3.817911 -259.440002
    vertex 9.901531 3.768179 -259.440002
  endloop
endfacet
facet normal 0.000000 0.000000 -0.000999
  outer loop
    vertex 9.861767 3.772306 -259.440002
    vertex 9.886810 3.819978 -259.440002
    vertex 9.881649 3.770245 -259.440002
  endloop
endfacet
facet normal 0.000000 0.000000 -0.001000
  outer loop
    vertex 9.881649 3.770245 -259.440002
    vertex 9.886810 3.819978 -259.440002
    vertex 9.906704 3.817911 -259.440002
  endloop
endfacet
facet normal 0.000000 0.000000 -0.000999
  outer loop
    vertex 9.841884 3.774363 -259.440002
    vertex 9.866918 3.822040 -259.440002
    vertex 9.861767 3.772306 -259.440002
  endloop
endfacet
facet normal 0.000000 0.000000 -0.001000
  outer loop
    vertex 9.861767 3.772306 -259.440002
    vertex 9.866918 3.822040 -259.440002
    vertex 9.886810 3.819978 -259.440002
  endloop
endfacet
facet normal 0.000000 0.000000 -0.001000
  outer loop
    vertex 9.841884 3.774363 -259.440002
    vertex 9.847023 3.824098 -259.440002
    vertex 9.866918 3.822040 -259.440002
  endloop
endfacet
facet normal 0.000000 0.000000 0.000999
  outer loop
    vertex 9.906704 3.817912 -255.869003
    vertex 9.881649 3.770246 -255.869003
    vertex 9.901531 3.768180 -255.869003
  endloop
endfacet
facet normal 0.000000 0.000000 0.000999
  outer loop
    vertex 9.886810 3.819978 -255.869003
    vertex 9.861767 3.772307 -255.869003
    vertex 9.881649 3.770246 -255.869003
  endloop
endfacet
facet normal 0.000000 0.000000 0.001000
  outer loop
    vertex 9.886810 3.819978 -255.869003
    vertex 9.881649 3.770246 -255.869003
    vertex 9.906704 3.817912 -255.869003
  endloop
endfacet
facet normal 0.000000 0.000000 0.001000
  outer loop
    vertex 9.866918 3.822041 -255.869003
    vertex 9.861767 3.772307 -255.869003
    vertex 9.886810 3.819978 -255.869003
  endloop
endfacet
facet normal 0.000000 0.000000 0.000999
  outer loop
    vertex 9.847023 3.824099 -255.869003
    vertex 9.841884 3.774364 -255.869003
    vertex 9.861767 3.772307 -255.869003
  endloop
endfacet
facet normal 0.000000 0.000000 0.001000
  outer loop
    vertex 9.847023 3.824099 -255.869003
    vertex 9.861767 3.772307 -255.869003
    vertex 9.866918 3.822041 -255.869003
  endloop
endfacet
endsolid b'MESH-MESH-MESH-MESH-MESH-MESH-MESH-MESH-MESH-MESH-MESH-MESH-MESH-MESH-MESH-MESH'
