solid b'MESH-MESH-MESH-MESH-MESH-MESH-MESH-MESH-MESH-MESH-MESH-MESH-MESH-MESH-MESH-MESH'
facet normal -0.023626 -0.194197 0.000000
  outer loop
    vertex -13.083645 -3.430328 -2.560000
    vertex -9.847022 -3.824099 -2.560000
    vertex -9.847022 -3.824099 -2.500000
  endloop
endfacet
facet normal -0.023626 -0.194197 0.000000
  outer loop
    vertex -13.083645 -3.430328 -2.560000
    vertex -9.847022 -3.824099 -2.500000
    vertex -13.083645 -3.430328 -2.500000
  endloop
endfacet
facet normal -0.030636 -0.193215 0.000000
  outer loop
    vertex -16.303905 -2.919728 -2.560000
    vertex -13.083645 -3.430328 -2.500000
    vertex -16.303905 -2.919728 -2.500000
  endloop
endfacet
facet normal -0.030636 -0.193215 0.000000
  outer loop
    vertex -16.303905 -2.919728 -2.560000
    vertex -13.083645 -3.430328 -2.560000
    vertex -13.083645 -3.430328 -2.500000
  endloop
endfacet
facet normal -0.037606 -0.191981 0.000000
  outer loop
    vertex -19.503586 -2.292968 -2.560000
    vertex -16.303905 -2.919728 -2.500000
    vertex -19.503586 -2.292968 -2.500000
  endloop
endfacet
facet normal -0.037606 -0.191981 0.000000
  outer loop
    vertex -19.503586 -2.292968 -2.560000
    vertex -16.303905 -2.919728 -2.560000
    vertex -16.303905 -2.919728 -2.500000
  endloop
endfacet
facet normal -0.002933 0.000630 0.000000
  outer loop
    vertex -19.503586 -2.292968 -2.560000
    vertex -19.503586 -2.292968 -2.500000
    vertex -19.493090 -2.244082 -2.560000
  endloop
endfacet
facet normal -0.002933 0.000630 0.000000
  outer loop
    vertex -19.503586 -2.292968 -2.500000
    vertex -19.493090 -2.244082 -2.500000
    vertex -19.493090 -2.244082 -2.560000
  endloop
endfacet
facet normal 0.023613 0.194089 0.000000
  outer loop
    vertex -9.841882 -3.774364 -2.500000
    vertex -9.841882 -3.774364 -2.560000
    vertex -13.076710 -3.380811 -2.500000
  endloop
endfacet
facet normal 0.030619 0.193108 0.000000
  outer loop
    vertex -13.076710 -3.380811 -2.500000
    vertex -13.076710 -3.380811 -2.560000
    vertex -16.295183 -2.870495 -2.500000
  endloop
endfacet
facet normal 0.023613 0.194089 0.000000
  outer loop
    vertex -9.841882 -3.774364 -2.560000
    vertex -13.076710 -3.380811 -2.560000
    vertex -13.076710 -3.380811 -2.500000
  endloop
endfacet
facet normal 0.037585 0.191874 0.000000
  outer loop
    vertex -16.295183 -2.870495 -2.500000
    vertex -16.295183 -2.870495 -2.560000
    vertex -19.493090 -2.244082 -2.500000
  endloop
endfacet
facet normal 0.030619 0.193108 0.000000
  outer loop
    vertex -13.076710 -3.380811 -2.560000
    vertex -16.295183 -2.870495 -2.560000
    vertex -16.295183 -2.870495 -2.500000
  endloop
endfacet
facet normal 0.037585 0.191874 0.000000
  outer loop
    vertex -16.295183 -2.870495 -2.560000
    vertex -19.493090 -2.244082 -2.560000
    vertex -19.493090 -2.244082 -2.500000
  endloop
endfacet
facet normal 0.002984 -0.000308 0.000000
  outer loop
    vertex -9.841882 -3.774364 -2.560000
    vertex -9.847022 -3.824099 -2.500000
    vertex -9.847022 -3.824099 -2.560000
  endloop
endfacet
facet normal 0.002984 -0.000308 0.000000
  outer loop
    vertex -9.841882 -3.774364 -2.500000
    vertex -9.847022 -3.824099 -2.500000
    vertex -9.841882 -3.774364 -2.560000
  endloop
endfacet
facet normal 0.000000 -0.000000 0.162907
  outer loop
    vertex -16.303905 -2.919728 -2.500000
    vertex -16.295183 -2.870495 -2.500000
    vertex -19.493090 -2.244082 -2.500000
  endloop
endfacet
facet normal 0.000000 0.000000 0.162997
  outer loop
    vertex -16.303905 -2.919728 -2.500000
    vertex -19.493090 -2.244082 -2.500000
    vertex -19.503586 -2.292968 -2.500000
  endloop
endfacet
facet normal -0.000000 0.000000 0.162907
  outer loop
    vertex -13.083645 -3.430328 -2.500000
    vertex -13.076710 -3.380811 -2.500000
    vertex -16.295183 -2.870495 -2.500000
  endloop
endfacet
facet normal -0.000000 0.000000 0.162997
  outer loop
    vertex -13.083645 -3.430328 -2.500000
    vertex -16.295183 -2.870495 -2.500000
    vertex -16.303905 -2.919728 -2.500000
  endloop
endfacet
facet normal 0.000000 -0.000000 0.162907
  outer loop
    vertex -9.847022 -3.824099 -2.500000
    vertex -9.841882 -3.774364 -2.500000
    vertex -13.076710 -3.380811 -2.500000
  endloop
endfacet
facet normal 0.000000 0.000000 0.162998
  outer loop
    vertex -9.847022 -3.824099 -2.500000
    vertex -13.076710 -3.380811 -2.500000
    vertex -13.083645 -3.430328 -2.500000
  endloop
endfacet
facet normal 0.000000 -0.000000 -0.162906
  outer loop
    vertex -19.493090 -2.244082 -2.560000
    vertex -16.295183 -2.870495 -2.560000
    vertex -19.503586 -2.292968 -2.560000
  endloop
endfacet
facet normal -0.000000 0.000000 -0.162997
  outer loop
    vertex -16.295183 -2.870495 -2.560000
    vertex -16.303905 -2.919728 -2.560000
    vertex -19.503586 -2.292968 -2.560000
  endloop
endfacet
facet normal 0.000000 -0.000000 -0.162907
  outer loop
    vertex -16.295183 -2.870495 -2.560000
    vertex -13.076710 -3.380811 -2.560000
    vertex -16.303905 -2.919728 -2.560000
  endloop
endfacet
facet normal 0.000000 -0.000000 -0.162998
  outer loop
    vertex -13.076710 -3.380811 -2.560000
    vertex -13.083645 -3.430328 -2.560000
    vertex -16.303905 -2.919728 -2.560000
  endloop
endfacet
facet normal 0.000000 -0.000000 -0.162907
  outer loop
    vertex -13.076710 -3.380811 -2.560000
    vertex -9.841882 -3.774364 -2.560000
    vertex -13.083645 -3.430328 -2.560000
  endloop
endfacet
facet normal -0.000000 0.000000 -0.162998
  outer loop
    vertex -9.841882 -3.774364 -2.560000
    vertex -9.847022 -3.824099 -2.560000
    vertex -13.083645 -3.430328 -2.560000
  endloop
endfacet
endsolid b'MESH-MESH-MESH-MESH-MESH-MESH-MESH-MESH-MESH-MESH-MESH-MESH-MESH-MESH-MESH-MESH'
