solid b'MESH-MESH-MESH-MESH-MESH-MESH-MESH-MESH-MESH-MESH-MESH-MESH-MESH-MESH-MESH-MESH'
facet normal -0.023626 0.194199 0.000000
  outer loop
    vertex -13.083647 3.430328 13.393001
    vertex -9.847023 3.824099 13.393001
    vertex -9.847023 3.824099 13.333000
  endloop
endfacet
facet normal -0.023626 0.194199 0.000000
  outer loop
    vertex -13.083647 3.430328 13.393001
    vertex -9.847023 3.824099 13.333000
    vertex -13.083647 3.430328 13.333000
  endloop
endfacet
facet normal -0.030636 0.193217 0.000000
  outer loop
    vertex -16.303907 2.919728 13.393001
    vertex -13.083647 3.430328 13.333000
    vertex -16.303907 2.919728 13.333000
  endloop
endfacet
facet normal -0.030636 0.193217 0.000000
  outer loop
    vertex -16.303907 2.919728 13.393001
    vertex -13.083647 3.430328 13.393001
    vertex -13.083647 3.430328 13.333000
  endloop
endfacet
facet normal -0.037606 0.191982 0.000000
  outer loop
    vertex -19.503588 2.292968 13.393001
    vertex -16.303907 2.919728 13.333000
    vertex -19.503588 2.292968 13.333000
  endloop
endfacet
facet normal -0.037606 0.191982 0.000000
  outer loop
    vertex -19.503588 2.292968 13.393001
    vertex -16.303907 2.919728 13.393001
    vertex -16.303907 2.919728 13.333000
  endloop
endfacet
facet normal -0.002933 -0.000630 0.000000
  outer loop
    vertex -19.503588 2.292968 13.393001
    vertex -19.493090 2.244082 13.333000
    vertex -19.493090 2.244082 13.393001
  endloop
endfacet
facet normal -0.002933 -0.000630 0.000000
  outer loop
    vertex -19.503588 2.292968 13.333000
    vertex -19.493090 2.244082 13.333000
    vertex -19.503588 2.292968 13.393001
  endloop
endfacet
facet normal 0.023613 -0.194091 0.000000
  outer loop
    vertex -9.841884 3.774364 13.333000
    vertex -13.076712 3.380811 13.393001
    vertex -13.076712 3.380811 13.333000
  endloop
endfacet
facet normal 0.023613 -0.194091 0.000000
  outer loop
    vertex -9.841884 3.774364 13.393001
    vertex -13.076712 3.380811 13.393001
    vertex -9.841884 3.774364 13.333000
  endloop
endfacet
facet normal 0.030619 -0.193110 0.000000
  outer loop
    vertex -13.076712 3.380811 13.333000
    vertex -16.295185 2.870495 13.393001
    vertex -16.295185 2.870495 13.333000
  endloop
endfacet
facet normal 0.037585 -0.191876 0.000000
  outer loop
    vertex -16.295185 2.870495 13.333000
    vertex -16.295185 2.870495 13.393001
    vertex -19.493090 2.244082 13.333000
  endloop
endfacet
facet normal 0.030619 -0.193110 0.000000
  outer loop
    vertex -13.076712 3.380811 13.393001
    vertex -16.295185 2.870495 13.393001
    vertex -13.076712 3.380811 13.333000
  endloop
endfacet
facet normal 0.037585 -0.191876 0.000000
  outer loop
    vertex -16.295185 2.870495 13.393001
    vertex -19.493090 2.244082 13.393001
    vertex -19.493090 2.244082 13.333000
  endloop
endfacet
facet normal 0.002984 0.000308 0.000000
  outer loop
    vertex -9.841884 3.774364 13.393001
    vertex -9.841884 3.774364 13.333000
    vertex -9.847023 3.824099 13.393001
  endloop
endfacet
facet normal 0.002984 0.000308 0.000000
  outer loop
    vertex -9.841884 3.774364 13.333000
    vertex -9.847023 3.824099 13.333000
    vertex -9.847023 3.824099 13.393001
  endloop
endfacet
facet normal 0.000000 -0.000000 -0.162908
  outer loop
    vertex -16.303907 2.919728 13.333000
    vertex -16.295185 2.870495 13.333000
    vertex -19.493090 2.244082 13.333000
  endloop
endfacet
facet normal 0.000000 0.000000 -0.162998
  outer loop
    vertex -16.303907 2.919728 13.333000
    vertex -19.493090 2.244082 13.333000
    vertex -19.503588 2.292968 13.333000
  endloop
endfacet
facet normal 0.000000 -0.000000 -0.162907
  outer loop
    vertex -13.083647 3.430328 13.333000
    vertex -13.076712 3.380811 13.333000
    vertex -16.295185 2.870495 13.333000
  endloop
endfacet
facet normal 0.000000 0.000000 -0.162998
  outer loop
    vertex -13.083647 3.430328 13.333000
    vertex -16.295185 2.870495 13.333000
    vertex -16.303907 2.919728 13.333000
  endloop
endfacet
facet normal 0.000000 -0.000000 -0.162908
  outer loop
    vertex -9.847023 3.824099 13.333000
    vertex -9.841884 3.774364 13.333000
    vertex -13.076712 3.380811 13.333000
  endloop
endfacet
facet normal 0.000000 0.000000 -0.162998
  outer loop
    vertex -9.847023 3.824099 13.333000
    vertex -13.076712 3.380811 13.333000
    vertex -13.083647 3.430328 13.333000
  endloop
endfacet
facet normal 0.000000 0.000000 0.162908
  outer loop
    vertex -16.295185 2.870495 13.393001
    vertex -16.303907 2.919728 13.393001
    vertex -19.493090 2.244082 13.393001
  endloop
endfacet
facet normal 0.000000 -0.000000 0.162998
  outer loop
    vertex -19.493090 2.244082 13.393001
    vertex -16.303907 2.919728 13.393001
    vertex -19.503588 2.292968 13.393001
  endloop
endfacet
facet normal 0.000000 0.000000 0.162907
  outer loop
    vertex -13.076712 3.380811 13.393001
    vertex -13.083647 3.430328 13.393001
    vertex -16.295185 2.870495 13.393001
  endloop
endfacet
facet normal 0.000000 -0.000000 0.162998
  outer loop
    vertex -16.295185 2.870495 13.393001
    vertex -13.083647 3.430328 13.393001
    vertex -16.303907 2.919728 13.393001
  endloop
endfacet
facet normal 0.000000 0.000000 0.162908
  outer loop
    vertex -9.841884 3.774364 13.393001
    vertex -9.847023 3.824099 13.393001
    vertex -13.076712 3.380811 13.393001
  endloop
endfacet
facet normal 0.000000 -0.000000 0.162998
  outer loop
    vertex -13.076712 3.380811 13.393001
    vertex -9.847023 3.824099 13.393001
    vertex -13.083647 3.430328 13.393001
  endloop
endfacet
endsolid b'MESH-MESH-MESH-MESH-MESH-MESH-MESH-MESH-MESH-MESH-MESH-MESH-MESH-MESH-MESH-MESH'
