solid b'MESH-MESH-MESH-MESH-MESH-MESH-MESH-MESH-MESH-MESH-MESH-MESH-MESH-MESH-MESH-MESH'
facet normal -0.002448 0.195612 0.000000
  outer loop
    vertex -3.341647 4.259247 13.393000
    vertex -0.081414 4.300055 13.393000
    vertex -0.081414 4.300055 13.333000
  endloop
endfacet
facet normal -0.002448 0.195612 0.000000
  outer loop
    vertex -3.341647 4.259247 13.393000
    vertex -0.081414 4.300055 13.333000
    vertex -3.341647 4.259247 13.333000
  endloop
endfacet
facet normal -0.009523 0.195396 0.000000
  outer loop
    vertex -6.598270 4.100526 13.393000
    vertex -3.341647 4.259247 13.333000
    vertex -6.598270 4.100526 13.333000
  endloop
endfacet
facet normal -0.016585 0.194923 0.000000
  outer loop
    vertex -6.598270 4.100526 13.393000
    vertex -6.598270 4.100526 13.333000
    vertex -9.847020 3.824099 13.333000
  endloop
endfacet
facet normal -0.009523 0.195396 0.000000
  outer loop
    vertex -6.598270 4.100526 13.393000
    vertex -3.341647 4.259247 13.393000
    vertex -3.341647 4.259247 13.333000
  endloop
endfacet
facet normal -0.016585 0.194923 0.000000
  outer loop
    vertex -9.847020 3.824099 13.393000
    vertex -6.598270 4.100526 13.393000
    vertex -9.847020 3.824099 13.333000
  endloop
endfacet
facet normal -0.002984 -0.000308 -0.000000
  outer loop
    vertex -9.847020 3.824099 13.393000
    vertex -9.847020 3.824099 13.333000
    vertex -9.841881 3.774364 13.393000
  endloop
endfacet
facet normal -0.002984 -0.000308 0.000000
  outer loop
    vertex -9.847020 3.824099 13.333000
    vertex -9.841881 3.774364 13.333000
    vertex -9.841881 3.774364 13.393000
  endloop
endfacet
facet normal 0.002447 -0.195504 0.000000
  outer loop
    vertex -0.081693 4.250055 13.333000
    vertex -0.081693 4.250055 13.393000
    vertex -3.340117 4.209271 13.333000
  endloop
endfacet
facet normal 0.009518 -0.195287 0.000000
  outer loop
    vertex -3.340117 4.209271 13.333000
    vertex -3.340117 4.209271 13.393000
    vertex -6.594934 4.050638 13.333000
  endloop
endfacet
facet normal 0.002447 -0.195504 0.000000
  outer loop
    vertex -0.081693 4.250055 13.393000
    vertex -3.340117 4.209271 13.393000
    vertex -3.340117 4.209271 13.333000
  endloop
endfacet
facet normal 0.009518 -0.195287 0.000000
  outer loop
    vertex -3.340117 4.209271 13.393000
    vertex -6.594934 4.050638 13.393000
    vertex -6.594934 4.050638 13.333000
  endloop
endfacet
facet normal 0.016576 -0.194815 0.000000
  outer loop
    vertex -6.594934 4.050638 13.333000
    vertex -9.841881 3.774364 13.393000
    vertex -9.841881 3.774364 13.333000
  endloop
endfacet
facet normal 0.016576 -0.194815 0.000000
  outer loop
    vertex -6.594934 4.050638 13.393000
    vertex -9.841881 3.774364 13.393000
    vertex -6.594934 4.050638 13.333000
  endloop
endfacet
facet normal 0.003000 -0.000017 0.000000
  outer loop
    vertex -0.081693 4.250055 13.393000
    vertex -0.081414 4.300055 13.333000
    vertex -0.081414 4.300055 13.393000
  endloop
endfacet
facet normal 0.003000 -0.000017 0.000000
  outer loop
    vertex -0.081693 4.250055 13.333000
    vertex -0.081414 4.300055 13.333000
    vertex -0.081693 4.250055 13.393000
  endloop
endfacet
facet normal 0.000000 -0.000000 -0.162908
  outer loop
    vertex -6.598270 4.100526 13.333000
    vertex -6.594934 4.050638 13.333000
    vertex -9.841881 3.774364 13.333000
  endloop
endfacet
facet normal 0.000000 0.000000 -0.162997
  outer loop
    vertex -6.598270 4.100526 13.333000
    vertex -9.841881 3.774364 13.333000
    vertex -9.847020 3.824099 13.333000
  endloop
endfacet
facet normal 0.000000 -0.000000 -0.162907
  outer loop
    vertex -3.341647 4.259247 13.333000
    vertex -3.340117 4.209271 13.333000
    vertex -6.594934 4.050638 13.333000
  endloop
endfacet
facet normal 0.000000 0.000000 -0.162998
  outer loop
    vertex -3.341647 4.259247 13.333000
    vertex -6.594934 4.050638 13.333000
    vertex -6.598270 4.100526 13.333000
  endloop
endfacet
facet normal 0.000000 0.000000 -0.162907
  outer loop
    vertex -0.081414 4.300055 13.333000
    vertex -0.081693 4.250055 13.333000
    vertex -3.340117 4.209271 13.333000
  endloop
endfacet
facet normal 0.000000 0.000000 -0.162997
  outer loop
    vertex -0.081414 4.300055 13.333000
    vertex -3.340117 4.209271 13.333000
    vertex -3.341647 4.259247 13.333000
  endloop
endfacet
facet normal 0.000000 -0.000000 0.162907
  outer loop
    vertex -9.841881 3.774364 13.393000
    vertex -6.594934 4.050638 13.393000
    vertex -9.847020 3.824099 13.393000
  endloop
endfacet
facet normal 0.000000 0.000000 0.162998
  outer loop
    vertex -6.594934 4.050638 13.393000
    vertex -6.598270 4.100526 13.393000
    vertex -9.847020 3.824099 13.393000
  endloop
endfacet
facet normal 0.000000 -0.000000 0.162908
  outer loop
    vertex -6.594934 4.050638 13.393000
    vertex -3.340117 4.209271 13.393000
    vertex -6.598270 4.100526 13.393000
  endloop
endfacet
facet normal 0.000000 0.000000 0.162997
  outer loop
    vertex -3.340117 4.209271 13.393000
    vertex -3.341647 4.259247 13.393000
    vertex -6.598270 4.100526 13.393000
  endloop
endfacet
facet normal 0.000000 -0.000000 0.162907
  outer loop
    vertex -3.340117 4.209271 13.393000
    vertex -0.081693 4.250055 13.393000
    vertex -3.341647 4.259247 13.393000
  endloop
endfacet
facet normal 0.000000 -0.000000 0.162998
  outer loop
    vertex -0.081693 4.250055 13.393000
    vertex -0.081414 4.300055 13.393000
    vertex -3.341647 4.259247 13.393000
  endloop
endfacet
endsolid b'MESH-MESH-MESH-MESH-MESH-MESH-MESH-MESH-MESH-MESH-MESH-MESH-MESH-MESH-MESH-MESH'
