solid b'MESH-MESH-MESH-MESH-MESH-MESH-MESH-MESH-MESH-MESH-MESH-MESH-MESH-MESH-MESH-MESH'
facet normal 0.023625 -0.194189 0.000000
  outer loop
    vertex 9.847039 -3.824098 183.668991
    vertex 9.847039 -3.824098 183.608994
    vertex 13.083662 -3.430327 183.608994
  endloop
endfacet
facet normal 0.030635 -0.193208 0.000000
  outer loop
    vertex 13.083662 -3.430327 183.668991
    vertex 13.083662 -3.430327 183.608994
    vertex 16.303923 -2.919726 183.608994
  endloop
endfacet
facet normal 0.023625 -0.194189 0.000000
  outer loop
    vertex 13.083662 -3.430327 183.668991
    vertex 9.847039 -3.824098 183.668991
    vertex 13.083662 -3.430327 183.608994
  endloop
endfacet
facet normal 0.037604 -0.191973 0.000000
  outer loop
    vertex 16.303923 -2.919726 183.668991
    vertex 16.303923 -2.919726 183.608994
    vertex 19.503603 -2.292965 183.608994
  endloop
endfacet
facet normal 0.030635 -0.193208 0.000000
  outer loop
    vertex 16.303923 -2.919726 183.668991
    vertex 13.083662 -3.430327 183.668991
    vertex 16.303923 -2.919726 183.608994
  endloop
endfacet
facet normal 0.037604 -0.191973 0.000000
  outer loop
    vertex 19.503603 -2.292965 183.668991
    vertex 16.303923 -2.919726 183.668991
    vertex 19.503603 -2.292965 183.608994
  endloop
endfacet
facet normal 0.002933 0.000630 0.000000
  outer loop
    vertex 19.493105 -2.244080 183.668991
    vertex 19.503603 -2.292965 183.668991
    vertex 19.503603 -2.292965 183.608994
  endloop
endfacet
facet normal 0.002933 0.000630 0.000000
  outer loop
    vertex 19.493105 -2.244080 183.668991
    vertex 19.503603 -2.292965 183.608994
    vertex 19.493105 -2.244080 183.608994
  endloop
endfacet
facet normal -0.023612 0.194082 0.000000
  outer loop
    vertex 9.841899 -3.774363 183.608994
    vertex 9.841899 -3.774363 183.668991
    vertex 13.076727 -3.380810 183.608994
  endloop
endfacet
facet normal -0.030618 0.193101 0.000000
  outer loop
    vertex 13.076727 -3.380810 183.608994
    vertex 13.076727 -3.380810 183.668991
    vertex 16.295200 -2.870493 183.608994
  endloop
endfacet
facet normal -0.023612 0.194082 0.000000
  outer loop
    vertex 9.841899 -3.774363 183.668991
    vertex 13.076727 -3.380810 183.668991
    vertex 13.076727 -3.380810 183.608994
  endloop
endfacet
facet normal -0.030618 0.193101 0.000000
  outer loop
    vertex 13.076727 -3.380810 183.668991
    vertex 16.295200 -2.870493 183.668991
    vertex 16.295200 -2.870493 183.608994
  endloop
endfacet
facet normal -0.037583 0.191866 0.000000
  outer loop
    vertex 16.295200 -2.870493 183.608994
    vertex 19.493105 -2.244080 183.668991
    vertex 19.493105 -2.244080 183.608994
  endloop
endfacet
facet normal -0.037583 0.191866 0.000000
  outer loop
    vertex 16.295200 -2.870493 183.668991
    vertex 19.493105 -2.244080 183.668991
    vertex 16.295200 -2.870493 183.608994
  endloop
endfacet
facet normal -0.002984 -0.000308 -0.000000
  outer loop
    vertex 9.841899 -3.774363 183.668991
    vertex 9.841899 -3.774363 183.608994
    vertex 9.847039 -3.824098 183.608994
  endloop
endfacet
facet normal -0.002984 -0.000308 -0.000000
  outer loop
    vertex 9.847039 -3.824098 183.668991
    vertex 9.841899 -3.774363 183.668991
    vertex 9.847039 -3.824098 183.608994
  endloop
endfacet
facet normal -0.000000 0.000000 0.162908
  outer loop
    vertex 16.295200 -2.870493 183.668991
    vertex 16.303923 -2.919726 183.668991
    vertex 19.493105 -2.244080 183.668991
  endloop
endfacet
facet normal 0.000000 0.000000 0.162998
  outer loop
    vertex 19.493105 -2.244080 183.668991
    vertex 16.303923 -2.919726 183.668991
    vertex 19.503603 -2.292965 183.668991
  endloop
endfacet
facet normal -0.000000 0.000000 0.162907
  outer loop
    vertex 13.076727 -3.380810 183.668991
    vertex 13.083662 -3.430327 183.668991
    vertex 16.295200 -2.870493 183.668991
  endloop
endfacet
facet normal 0.000000 0.000000 0.162998
  outer loop
    vertex 16.295200 -2.870493 183.668991
    vertex 13.083662 -3.430327 183.668991
    vertex 16.303923 -2.919726 183.668991
  endloop
endfacet
facet normal -0.000000 0.000000 0.162907
  outer loop
    vertex 9.841899 -3.774363 183.668991
    vertex 9.847039 -3.824098 183.668991
    vertex 13.076727 -3.380810 183.668991
  endloop
endfacet
facet normal 0.000000 0.000000 0.162998
  outer loop
    vertex 13.076727 -3.380810 183.668991
    vertex 9.847039 -3.824098 183.668991
    vertex 13.083662 -3.430327 183.668991
  endloop
endfacet
facet normal 0.000000 0.000000 -0.162908
  outer loop
    vertex 16.303923 -2.919726 183.608994
    vertex 16.295200 -2.870493 183.608994
    vertex 19.493105 -2.244080 183.608994
  endloop
endfacet
facet normal 0.000000 0.000000 -0.162998
  outer loop
    vertex 16.303923 -2.919726 183.608994
    vertex 19.493105 -2.244080 183.608994
    vertex 19.503603 -2.292965 183.608994
  endloop
endfacet
facet normal 0.000000 0.000000 -0.162907
  outer loop
    vertex 13.083662 -3.430327 183.608994
    vertex 13.076727 -3.380810 183.608994
    vertex 16.295200 -2.870493 183.608994
  endloop
endfacet
facet normal 0.000000 0.000000 -0.162998
  outer loop
    vertex 13.083662 -3.430327 183.608994
    vertex 16.295200 -2.870493 183.608994
    vertex 16.303923 -2.919726 183.608994
  endloop
endfacet
facet normal 0.000000 0.000000 -0.162907
  outer loop
    vertex 9.847039 -3.824098 183.608994
    vertex 9.841899 -3.774363 183.608994
    vertex 13.076727 -3.380810 183.608994
  endloop
endfacet
facet normal 0.000000 0.000000 -0.162998
  outer loop
    vertex 9.847039 -3.824098 183.608994
    vertex 13.076727 -3.380810 183.608994
    vertex 13.083662 -3.430327 183.608994
  endloop
endfacet
endsolid b'MESH-MESH-MESH-MESH-MESH-MESH-MESH-MESH-MESH-MESH-MESH-MESH-MESH-MESH-MESH-MESH'
