solid b'MESH-MESH-MESH-MESH-MESH-MESH-MESH-MESH-MESH-MESH-MESH-MESH-MESH-MESH-MESH-MESH'
facet normal -0.000000 0.000000 -0.033334
  outer loop
    vertex -0.333339 -4.316316 141.561935
    vertex -1.000555 -4.361384 141.561935
    vertex -1.000000 -4.311387 141.561935
  endloop
endfacet
facet normal 0.000000 0.000000 -0.033352
  outer loop
    vertex -0.333524 -4.366316 141.561935
    vertex -1.000555 -4.361384 141.561935
    vertex -0.333339 -4.316316 141.561935
  endloop
endfacet
facet normal 0.000000 0.000000 -0.033334
  outer loop
    vertex 0.333524 -4.366316 141.561935
    vertex -0.333339 -4.316316 141.561935
    vertex 0.333339 -4.316316 141.561935
  endloop
endfacet
facet normal 0.000000 0.000000 -0.033352
  outer loop
    vertex 0.333524 -4.366316 141.561935
    vertex -0.333524 -4.366316 141.561935
    vertex -0.333339 -4.316316 141.561935
  endloop
endfacet
facet normal 0.000000 0.000000 -0.033334
  outer loop
    vertex 1.000555 -4.361384 141.561935
    vertex 0.333339 -4.316316 141.561935
    vertex 1.000000 -4.311387 141.561935
  endloop
endfacet
facet normal -0.000000 0.000000 -0.033352
  outer loop
    vertex 1.000555 -4.361384 141.561935
    vertex 0.333524 -4.366316 141.561935
    vertex 0.333339 -4.316316 141.561935
  endloop
endfacet
facet normal 5.416159 0.060076 0.000000
  outer loop
    vertex 1.000555 -4.361384 141.561935
    vertex 1.000000 -4.311387 141.561935
    vertex 1.000000 -4.311387 249.891937
  endloop
endfacet
facet normal 5.416159 0.060076 -0.000000
  outer loop
    vertex 1.000555 -4.361384 141.561935
    vertex 1.000000 -4.311387 249.891937
    vertex 1.000555 -4.361384 249.891937
  endloop
endfacet
facet normal 0.533966 72.219337 -0.000000
  outer loop
    vertex -1.000000 -4.311387 141.561935
    vertex -1.000000 -4.311387 249.891937
    vertex -0.333339 -4.316316 141.561935
  endloop
endfacet
facet normal 0.000000 72.221321 0.000000
  outer loop
    vertex -0.333339 -4.316316 141.561935
    vertex -0.333339 -4.316316 249.891937
    vertex 0.333339 -4.316316 141.561935
  endloop
endfacet
facet normal 0.533966 72.219337 0.000000
  outer loop
    vertex -1.000000 -4.311387 249.891937
    vertex -0.333339 -4.316316 249.891937
    vertex -0.333339 -4.316316 141.561935
  endloop
endfacet
facet normal -0.533966 72.219337 0.000000
  outer loop
    vertex 0.333339 -4.316316 141.561935
    vertex 0.333339 -4.316316 249.891937
    vertex 1.000000 -4.311387 141.561935
  endloop
endfacet
facet normal -0.000000 72.221321 0.000000
  outer loop
    vertex -0.333339 -4.316316 249.891937
    vertex 0.333339 -4.316316 249.891937
    vertex 0.333339 -4.316316 141.561935
  endloop
endfacet
facet normal -0.533966 72.219337 0.000000
  outer loop
    vertex 0.333339 -4.316316 249.891937
    vertex 1.000000 -4.311387 249.891937
    vertex 1.000000 -4.311387 141.561935
  endloop
endfacet
facet normal -5.416159 0.060076 0.000000
  outer loop
    vertex -1.000000 -4.311387 141.561935
    vertex -1.000555 -4.361384 141.561935
    vertex -1.000555 -4.361384 249.891937
  endloop
endfacet
facet normal -5.416159 0.060076 0.000000
  outer loop
    vertex -1.000000 -4.311387 141.561935
    vertex -1.000555 -4.361384 249.891937
    vertex -1.000000 -4.311387 249.891937
  endloop
endfacet
facet normal -0.534276 -72.259399 -0.000000
  outer loop
    vertex -1.000555 -4.361384 249.891937
    vertex -1.000555 -4.361384 141.561935
    vertex -0.333524 -4.366316 141.561935
  endloop
endfacet
facet normal 0.000000 -72.261368 0.000000
  outer loop
    vertex -0.333524 -4.366316 249.891937
    vertex -0.333524 -4.366316 141.561935
    vertex 0.333524 -4.366316 141.561935
  endloop
endfacet
facet normal -0.534276 -72.259399 -0.000000
  outer loop
    vertex -0.333524 -4.366316 249.891937
    vertex -1.000555 -4.361384 249.891937
    vertex -0.333524 -4.366316 141.561935
  endloop
endfacet
facet normal -0.000000 -72.261368 -0.000000
  outer loop
    vertex 0.333524 -4.366316 249.891937
    vertex -0.333524 -4.366316 249.891937
    vertex 0.333524 -4.366316 141.561935
  endloop
endfacet
facet normal 0.534276 -72.259399 0.000000
  outer loop
    vertex 1.000555 -4.361384 249.891937
    vertex 0.333524 -4.366316 141.561935
    vertex 1.000555 -4.361384 141.561935
  endloop
endfacet
facet normal 0.534276 -72.259399 0.000000
  outer loop
    vertex 1.000555 -4.361384 249.891937
    vertex 0.333524 -4.366316 249.891937
    vertex 0.333524 -4.366316 141.561935
  endloop
endfacet
facet normal -0.000000 0.000000 0.033334
  outer loop
    vertex 0.333339 -4.316316 249.891937
    vertex 1.000555 -4.361384 249.891937
    vertex 1.000000 -4.311387 249.891937
  endloop
endfacet
facet normal 0.000000 -0.000000 0.033352
  outer loop
    vertex 0.333524 -4.366316 249.891937
    vertex 1.000555 -4.361384 249.891937
    vertex 0.333339 -4.316316 249.891937
  endloop
endfacet
facet normal -0.000000 0.000000 0.033334
  outer loop
    vertex -0.333339 -4.316316 249.891937
    vertex 0.333524 -4.366316 249.891937
    vertex 0.333339 -4.316316 249.891937
  endloop
endfacet
facet normal 0.000000 0.000000 0.033352
  outer loop
    vertex -0.333524 -4.366316 249.891937
    vertex 0.333524 -4.366316 249.891937
    vertex -0.333339 -4.316316 249.891937
  endloop
endfacet
facet normal 0.000000 0.000000 0.033334
  outer loop
    vertex -1.000555 -4.361384 249.891937
    vertex -0.333339 -4.316316 249.891937
    vertex -1.000000 -4.311387 249.891937
  endloop
endfacet
facet normal -0.000000 0.000000 0.033352
  outer loop
    vertex -1.000555 -4.361384 249.891937
    vertex -0.333524 -4.366316 249.891937
    vertex -0.333339 -4.316316 249.891937
  endloop
endfacet
endsolid b'MESH-MESH-MESH-MESH-MESH-MESH-MESH-MESH-MESH-MESH-MESH-MESH-MESH-MESH-MESH-MESH'
