solid b'MESH-MESH-MESH-MESH-MESH-MESH-MESH-MESH-MESH-MESH-MESH-MESH-MESH-MESH-MESH-MESH'
facet normal -0.080532 0.380595 0.000000
  outer loop
    vertex -19.185736 2.360623 -140.336990
    vertex -19.185736 2.360623 -143.927994
    vertex -19.291721 2.338197 -143.927994
  endloop
endfacet
facet normal -0.080990 0.380506 0.000000
  outer loop
    vertex -19.291721 2.338197 -140.336990
    vertex -19.291721 2.338197 -143.927994
    vertex -19.397682 2.315644 -143.927994
  endloop
endfacet
facet normal -0.080533 0.380595 0.000000
  outer loop
    vertex -19.291721 2.338197 -140.336990
    vertex -19.185736 2.360623 -140.336990
    vertex -19.291721 2.338197 -143.927994
  endloop
endfacet
facet normal -0.080990 0.380506 0.000000
  outer loop
    vertex -19.397682 2.315643 -140.336990
    vertex -19.291721 2.338197 -140.336990
    vertex -19.397682 2.315644 -143.927994
  endloop
endfacet
facet normal -0.081448 0.380403 0.000000
  outer loop
    vertex -19.503614 2.292962 -140.336990
    vertex -19.397682 2.315644 -143.927994
    vertex -19.503614 2.292963 -143.927994
  endloop
endfacet
facet normal -0.081448 0.380403 0.000000
  outer loop
    vertex -19.503614 2.292962 -140.336990
    vertex -19.397682 2.315643 -140.336990
    vertex -19.397682 2.315644 -143.927994
  endloop
endfacet
facet normal -0.175548 -0.037699 -0.000000
  outer loop
    vertex -19.503614 2.292962 -140.336990
    vertex -19.493116 2.244077 -143.927994
    vertex -19.493116 2.244077 -140.336990
  endloop
endfacet
facet normal -0.175548 -0.037699 -0.000000
  outer loop
    vertex -19.503614 2.292963 -143.927994
    vertex -19.493116 2.244077 -143.927994
    vertex -19.503614 2.292962 -140.336990
  endloop
endfacet
facet normal 0.080489 -0.380382 0.000000
  outer loop
    vertex -19.175415 2.311700 -143.927994
    vertex -19.281342 2.289286 -140.336990
    vertex -19.281342 2.289286 -143.927994
  endloop
endfacet
facet normal 0.080488 -0.380382 -0.000000
  outer loop
    vertex -19.175415 2.311700 -140.336990
    vertex -19.281342 2.289286 -140.336990
    vertex -19.175415 2.311700 -143.927994
  endloop
endfacet
facet normal 0.080945 -0.380293 -0.000000
  outer loop
    vertex -19.281342 2.289286 -143.927994
    vertex -19.387243 2.266745 -140.336990
    vertex -19.387243 2.266745 -143.927994
  endloop
endfacet
facet normal 0.080946 -0.380293 0.000000
  outer loop
    vertex -19.281342 2.289286 -140.336990
    vertex -19.387243 2.266745 -140.336990
    vertex -19.281342 2.289286 -143.927994
  endloop
endfacet
facet normal 0.081402 -0.380191 -0.000000
  outer loop
    vertex -19.387243 2.266745 -143.927994
    vertex -19.493116 2.244077 -140.336990
    vertex -19.493116 2.244077 -143.927994
  endloop
endfacet
facet normal 0.081402 -0.380191 -0.000000
  outer loop
    vertex -19.387243 2.266745 -140.336990
    vertex -19.493116 2.244077 -140.336990
    vertex -19.387243 2.266745 -143.927994
  endloop
endfacet
facet normal 0.175684 0.037062 0.000000
  outer loop
    vertex -19.175415 2.311700 -140.336990
    vertex -19.175415 2.311700 -143.927994
    vertex -19.185736 2.360623 -140.336990
  endloop
endfacet
facet normal 0.175683 0.037062 0.000000
  outer loop
    vertex -19.175415 2.311700 -143.927994
    vertex -19.185736 2.360623 -143.927994
    vertex -19.185736 2.360623 -140.336990
  endloop
endfacet
facet normal -0.000000 0.000000 -0.005414
  outer loop
    vertex -19.387243 2.266745 -143.927994
    vertex -19.493116 2.244077 -143.927994
    vertex -19.503614 2.292963 -143.927994
  endloop
endfacet
facet normal 0.000000 -0.000000 -0.005417
  outer loop
    vertex -19.397682 2.315644 -143.927994
    vertex -19.387243 2.266745 -143.927994
    vertex -19.503614 2.292963 -143.927994
  endloop
endfacet
facet normal -0.000000 0.000000 -0.005414
  outer loop
    vertex -19.281342 2.289286 -143.927994
    vertex -19.387243 2.266745 -143.927994
    vertex -19.397682 2.315644 -143.927994
  endloop
endfacet
facet normal 0.000000 -0.000000 -0.005417
  outer loop
    vertex -19.291721 2.338197 -143.927994
    vertex -19.281342 2.289286 -143.927994
    vertex -19.397682 2.315644 -143.927994
  endloop
endfacet
facet normal -0.000000 0.000000 -0.005414
  outer loop
    vertex -19.175415 2.311700 -143.927994
    vertex -19.281342 2.289286 -143.927994
    vertex -19.291721 2.338197 -143.927994
  endloop
endfacet
facet normal 0.000000 -0.000000 -0.005417
  outer loop
    vertex -19.185736 2.360623 -143.927994
    vertex -19.175415 2.311700 -143.927994
    vertex -19.291721 2.338197 -143.927994
  endloop
endfacet
facet normal 0.000000 -0.000000 0.005414
  outer loop
    vertex -19.493116 2.244077 -140.336990
    vertex -19.387243 2.266745 -140.336990
    vertex -19.503614 2.292962 -140.336990
  endloop
endfacet
facet normal 0.000000 0.000000 0.005417
  outer loop
    vertex -19.387243 2.266745 -140.336990
    vertex -19.397682 2.315643 -140.336990
    vertex -19.503614 2.292962 -140.336990
  endloop
endfacet
facet normal 0.000000 0.000000 0.005414
  outer loop
    vertex -19.281342 2.289286 -140.336990
    vertex -19.291721 2.338197 -140.336990
    vertex -19.387243 2.266745 -140.336990
  endloop
endfacet
facet normal 0.000000 -0.000000 0.005417
  outer loop
    vertex -19.387243 2.266745 -140.336990
    vertex -19.291721 2.338197 -140.336990
    vertex -19.397682 2.315643 -140.336990
  endloop
endfacet
facet normal 0.000000 0.000000 0.005414
  outer loop
    vertex -19.175415 2.311700 -140.336990
    vertex -19.185736 2.360623 -140.336990
    vertex -19.281342 2.289286 -140.336990
  endloop
endfacet
facet normal 0.000000 -0.000000 0.005417
  outer loop
    vertex -19.281342 2.289286 -140.336990
    vertex -19.185736 2.360623 -140.336990
    vertex -19.291721 2.338197 -140.336990
  endloop
endfacet
endsolid b'MESH-MESH-MESH-MESH-MESH-MESH-MESH-MESH-MESH-MESH-MESH-MESH-MESH-MESH-MESH-MESH'
