solid b'MESH-MESH-MESH-MESH-MESH-MESH-MESH-MESH-MESH-MESH-MESH-MESH-MESH-MESH-MESH-MESH'
facet normal -0.080532 0.380601 0.000000
  outer loop
    vertex -19.185709 2.360629 6.151000
    vertex -19.185709 2.360629 2.560000
    vertex -19.291697 2.338202 2.560000
  endloop
endfacet
facet normal -0.080990 0.380499 0.000000
  outer loop
    vertex -19.291697 2.338202 6.151000
    vertex -19.291697 2.338202 2.560000
    vertex -19.397655 2.315649 2.560000
  endloop
endfacet
facet normal -0.080532 0.380601 0.000000
  outer loop
    vertex -19.291697 2.338202 6.151000
    vertex -19.185709 2.360629 6.151000
    vertex -19.291697 2.338202 2.560000
  endloop
endfacet
facet normal -0.081447 0.380403 0.000000
  outer loop
    vertex -19.397655 2.315649 6.151000
    vertex -19.397655 2.315649 2.560000
    vertex -19.503588 2.292968 2.560000
  endloop
endfacet
facet normal -0.080990 0.380499 0.000000
  outer loop
    vertex -19.397655 2.315649 6.151000
    vertex -19.291697 2.338202 6.151000
    vertex -19.397655 2.315649 2.560000
  endloop
endfacet
facet normal -0.081447 0.380403 0.000000
  outer loop
    vertex -19.503588 2.292968 6.151000
    vertex -19.397655 2.315649 6.151000
    vertex -19.503588 2.292968 2.560000
  endloop
endfacet
facet normal -0.175548 -0.037698 0.000000
  outer loop
    vertex -19.503588 2.292968 6.151000
    vertex -19.493090 2.244082 2.560000
    vertex -19.493090 2.244082 6.151000
  endloop
endfacet
facet normal -0.175548 -0.037698 0.000000
  outer loop
    vertex -19.503588 2.292968 2.560000
    vertex -19.493090 2.244082 2.560000
    vertex -19.503588 2.292968 6.151000
  endloop
endfacet
facet normal 0.080489 -0.380389 0.000000
  outer loop
    vertex -19.175388 2.311706 2.560000
    vertex -19.281317 2.289292 6.151000
    vertex -19.281317 2.289292 2.560000
  endloop
endfacet
facet normal 0.080945 -0.380286 0.000000
  outer loop
    vertex -19.281317 2.289292 2.560000
    vertex -19.281317 2.289292 6.151000
    vertex -19.387217 2.266751 2.560000
  endloop
endfacet
facet normal 0.080489 -0.380389 0.000000
  outer loop
    vertex -19.175388 2.311706 6.151000
    vertex -19.281317 2.289292 6.151000
    vertex -19.175388 2.311706 2.560000
  endloop
endfacet
facet normal 0.081402 -0.380190 0.000000
  outer loop
    vertex -19.387217 2.266751 2.560000
    vertex -19.387217 2.266751 6.151000
    vertex -19.493090 2.244082 2.560000
  endloop
endfacet
facet normal 0.080945 -0.380286 0.000000
  outer loop
    vertex -19.281317 2.289292 6.151000
    vertex -19.387217 2.266751 6.151000
    vertex -19.387217 2.266751 2.560000
  endloop
endfacet
facet normal 0.081402 -0.380190 0.000000
  outer loop
    vertex -19.387217 2.266751 6.151000
    vertex -19.493090 2.244082 6.151000
    vertex -19.493090 2.244082 2.560000
  endloop
endfacet
facet normal 0.175683 0.037062 0.000000
  outer loop
    vertex -19.175388 2.311706 6.151000
    vertex -19.175388 2.311706 2.560000
    vertex -19.185709 2.360629 6.151000
  endloop
endfacet
facet normal 0.175683 0.037062 0.000000
  outer loop
    vertex -19.175388 2.311706 2.560000
    vertex -19.185709 2.360629 2.560000
    vertex -19.185709 2.360629 6.151000
  endloop
endfacet
facet normal 0.000000 -0.000000 -0.005414
  outer loop
    vertex -19.397655 2.315649 2.560000
    vertex -19.387217 2.266751 2.560000
    vertex -19.493090 2.244082 2.560000
  endloop
endfacet
facet normal 0.000000 0.000000 -0.005417
  outer loop
    vertex -19.397655 2.315649 2.560000
    vertex -19.493090 2.244082 2.560000
    vertex -19.503588 2.292968 2.560000
  endloop
endfacet
facet normal 0.000000 -0.000000 -0.005414
  outer loop
    vertex -19.291697 2.338202 2.560000
    vertex -19.281317 2.289292 2.560000
    vertex -19.387217 2.266751 2.560000
  endloop
endfacet
facet normal 0.000000 0.000000 -0.005417
  outer loop
    vertex -19.291697 2.338202 2.560000
    vertex -19.387217 2.266751 2.560000
    vertex -19.397655 2.315649 2.560000
  endloop
endfacet
facet normal 0.000000 -0.000000 -0.005414
  outer loop
    vertex -19.185709 2.360629 2.560000
    vertex -19.175388 2.311706 2.560000
    vertex -19.281317 2.289292 2.560000
  endloop
endfacet
facet normal 0.000000 0.000000 -0.005417
  outer loop
    vertex -19.185709 2.360629 2.560000
    vertex -19.281317 2.289292 2.560000
    vertex -19.291697 2.338202 2.560000
  endloop
endfacet
facet normal 0.000000 0.000000 0.005414
  outer loop
    vertex -19.387217 2.266751 6.151000
    vertex -19.397655 2.315649 6.151000
    vertex -19.493090 2.244082 6.151000
  endloop
endfacet
facet normal 0.000000 -0.000000 0.005417
  outer loop
    vertex -19.493090 2.244082 6.151000
    vertex -19.397655 2.315649 6.151000
    vertex -19.503588 2.292968 6.151000
  endloop
endfacet
facet normal 0.000000 0.000000 0.005414
  outer loop
    vertex -19.281317 2.289292 6.151000
    vertex -19.291697 2.338202 6.151000
    vertex -19.387217 2.266751 6.151000
  endloop
endfacet
facet normal 0.000000 -0.000000 0.005417
  outer loop
    vertex -19.387217 2.266751 6.151000
    vertex -19.291697 2.338202 6.151000
    vertex -19.397655 2.315649 6.151000
  endloop
endfacet
facet normal 0.000000 0.000000 0.005414
  outer loop
    vertex -19.175388 2.311706 6.151000
    vertex -19.185709 2.360629 6.151000
    vertex -19.281317 2.289292 6.151000
  endloop
endfacet
facet normal 0.000000 -0.000000 0.005417
  outer loop
    vertex -19.281317 2.289292 6.151000
    vertex -19.185709 2.360629 6.151000
    vertex -19.291697 2.338202 6.151000
  endloop
endfacet
endsolid b'MESH-MESH-MESH-MESH-MESH-MESH-MESH-MESH-MESH-MESH-MESH-MESH-MESH-MESH-MESH-MESH'
