solid b'MESH-MESH-MESH-MESH-MESH-MESH-MESH-MESH-MESH-MESH-MESH-MESH-MESH-MESH-MESH-MESH'
facet normal -0.001935 -0.389021 -0.000000
  outer loop
    vertex 0.189766 -4.300595 -96.405998
    vertex 0.081434 -4.300056 -96.405998
    vertex 0.081434 -4.300056 -99.997002
  endloop
endfacet
facet normal -0.001935 -0.389021 -0.000000
  outer loop
    vertex 0.189766 -4.300595 -96.405998
    vertex 0.081434 -4.300056 -99.997002
    vertex 0.189766 -4.300594 -99.997002
  endloop
endfacet
facet normal -0.001467 -0.389023 -0.000000
  outer loop
    vertex 0.298099 -4.301003 -96.405998
    vertex 0.189766 -4.300594 -99.997002
    vertex 0.298099 -4.301003 -99.997002
  endloop
endfacet
facet normal -0.001467 -0.389023 -0.000000
  outer loop
    vertex 0.298099 -4.301003 -96.405998
    vertex 0.189766 -4.300595 -96.405998
    vertex 0.189766 -4.300594 -99.997002
  endloop
endfacet
facet normal -0.001000 -0.389024 -0.000000
  outer loop
    vertex 0.406432 -4.301282 -96.405998
    vertex 0.298099 -4.301003 -99.997002
    vertex 0.406432 -4.301281 -99.997002
  endloop
endfacet
facet normal -0.001000 -0.389024 -0.000000
  outer loop
    vertex 0.406432 -4.301282 -96.405998
    vertex 0.298099 -4.301003 -96.405998
    vertex 0.298099 -4.301003 -99.997002
  endloop
endfacet
facet normal 0.179551 -0.000353 -0.000000
  outer loop
    vertex 0.406530 -4.251282 -96.405998
    vertex 0.406432 -4.301282 -96.405998
    vertex 0.406432 -4.301281 -99.997002
  endloop
endfacet
facet normal 0.179549 -0.000354 -0.000000
  outer loop
    vertex 0.406530 -4.251282 -96.405998
    vertex 0.406432 -4.301281 -99.997002
    vertex 0.406530 -4.251282 -99.997002
  endloop
endfacet
facet normal 0.001935 0.388805 -0.000000
  outer loop
    vertex 0.081713 -4.250056 -99.997002
    vertex 0.189985 -4.250595 -96.405998
    vertex 0.189985 -4.250595 -99.997002
  endloop
endfacet
facet normal 0.001933 0.388805 0.000000
  outer loop
    vertex 0.081713 -4.250057 -96.405998
    vertex 0.189985 -4.250595 -96.405998
    vertex 0.081713 -4.250056 -99.997002
  endloop
endfacet
facet normal 0.001466 0.388807 0.000000
  outer loop
    vertex 0.189985 -4.250595 -99.997002
    vertex 0.298257 -4.251004 -96.405998
    vertex 0.298257 -4.251003 -99.997002
  endloop
endfacet
facet normal 0.001467 0.388807 -0.000000
  outer loop
    vertex 0.189985 -4.250595 -96.405998
    vertex 0.298257 -4.251004 -96.405998
    vertex 0.189985 -4.250595 -99.997002
  endloop
endfacet
facet normal 0.001000 0.388808 -0.000000
  outer loop
    vertex 0.298257 -4.251003 -99.997002
    vertex 0.406530 -4.251282 -96.405998
    vertex 0.406530 -4.251282 -99.997002
  endloop
endfacet
facet normal 0.000998 0.388808 0.000000
  outer loop
    vertex 0.298257 -4.251004 -96.405998
    vertex 0.406530 -4.251282 -96.405998
    vertex 0.298257 -4.251003 -99.997002
  endloop
endfacet
facet normal -0.179547 0.001001 0.000000
  outer loop
    vertex 0.081434 -4.300056 -96.405998
    vertex 0.081713 -4.250057 -96.405998
    vertex 0.081713 -4.250056 -99.997002
  endloop
endfacet
facet normal -0.179547 0.001001 0.000000
  outer loop
    vertex 0.081434 -4.300056 -96.405998
    vertex 0.081713 -4.250056 -99.997002
    vertex 0.081434 -4.300056 -99.997002
  endloop
endfacet
facet normal 0.000000 0.000000 0.005414
  outer loop
    vertex 0.406530 -4.251282 -96.405998
    vertex 0.298257 -4.251004 -96.405998
    vertex 0.406432 -4.301282 -96.405998
  endloop
endfacet
facet normal 0.000000 0.000000 0.005417
  outer loop
    vertex 0.298257 -4.251004 -96.405998
    vertex 0.298099 -4.301003 -96.405998
    vertex 0.406432 -4.301282 -96.405998
  endloop
endfacet
facet normal 0.000000 0.000000 0.005414
  outer loop
    vertex 0.298257 -4.251004 -96.405998
    vertex 0.189985 -4.250595 -96.405998
    vertex 0.298099 -4.301003 -96.405998
  endloop
endfacet
facet normal 0.000000 0.000000 0.005417
  outer loop
    vertex 0.189985 -4.250595 -96.405998
    vertex 0.189766 -4.300595 -96.405998
    vertex 0.298099 -4.301003 -96.405998
  endloop
endfacet
facet normal 0.000000 0.000000 0.005414
  outer loop
    vertex 0.189985 -4.250595 -96.405998
    vertex 0.081713 -4.250057 -96.405998
    vertex 0.189766 -4.300595 -96.405998
  endloop
endfacet
facet normal 0.000000 0.000000 0.005417
  outer loop
    vertex 0.081713 -4.250057 -96.405998
    vertex 0.081434 -4.300056 -96.405998
    vertex 0.189766 -4.300595 -96.405998
  endloop
endfacet
facet normal 0.000000 0.000000 -0.005414
  outer loop
    vertex 0.298257 -4.251003 -99.997002
    vertex 0.406530 -4.251282 -99.997002
    vertex 0.406432 -4.301281 -99.997002
  endloop
endfacet
facet normal 0.000000 0.000000 -0.005417
  outer loop
    vertex 0.298099 -4.301003 -99.997002
    vertex 0.298257 -4.251003 -99.997002
    vertex 0.406432 -4.301281 -99.997002
  endloop
endfacet
facet normal 0.000000 0.000000 -0.005414
  outer loop
    vertex 0.189985 -4.250595 -99.997002
    vertex 0.298257 -4.251003 -99.997002
    vertex 0.298099 -4.301003 -99.997002
  endloop
endfacet
facet normal 0.000000 0.000000 -0.005417
  outer loop
    vertex 0.189766 -4.300594 -99.997002
    vertex 0.189985 -4.250595 -99.997002
    vertex 0.298099 -4.301003 -99.997002
  endloop
endfacet
facet normal 0.000000 0.000000 -0.005414
  outer loop
    vertex 0.081434 -4.300056 -99.997002
    vertex 0.081713 -4.250056 -99.997002
    vertex 0.189985 -4.250595 -99.997002
  endloop
endfacet
facet normal 0.000000 0.000000 -0.005417
  outer loop
    vertex 0.081434 -4.300056 -99.997002
    vertex 0.189985 -4.250595 -99.997002
    vertex 0.189766 -4.300594 -99.997002
  endloop
endfacet
endsolid b'MESH-MESH-MESH-MESH-MESH-MESH-MESH-MESH-MESH-MESH-MESH-MESH-MESH-MESH-MESH-MESH'
