solid b'MESH-MESH-MESH-MESH-MESH-MESH-MESH-MESH-MESH-MESH-MESH-MESH-MESH-MESH-MESH-MESH'
facet normal -0.080533 0.380600 0.000000
  outer loop
    vertex -19.291698 2.338202 -245.016006
    vertex -19.185711 2.360629 -245.016006
    vertex -19.185711 2.360629 -248.606995
  endloop
endfacet
facet normal -0.080533 0.380600 0.000000
  outer loop
    vertex -19.291698 2.338202 -245.016006
    vertex -19.185711 2.360629 -248.606995
    vertex -19.291698 2.338202 -248.606995
  endloop
endfacet
facet normal -0.080989 0.380497 0.000000
  outer loop
    vertex -19.397657 2.315649 -245.016006
    vertex -19.291698 2.338202 -248.606995
    vertex -19.397657 2.315649 -248.606995
  endloop
endfacet
facet normal -0.081447 0.380401 0.000000
  outer loop
    vertex -19.397657 2.315649 -245.016006
    vertex -19.397657 2.315649 -248.606995
    vertex -19.503590 2.292968 -248.606995
  endloop
endfacet
facet normal -0.080989 0.380497 0.000000
  outer loop
    vertex -19.397657 2.315649 -245.016006
    vertex -19.291698 2.338202 -245.016006
    vertex -19.291698 2.338202 -248.606995
  endloop
endfacet
facet normal -0.081447 0.380401 0.000000
  outer loop
    vertex -19.503590 2.292968 -245.016006
    vertex -19.397657 2.315649 -245.016006
    vertex -19.503590 2.292968 -248.606995
  endloop
endfacet
facet normal -0.175548 -0.037698 -0.000000
  outer loop
    vertex -19.503590 2.292968 -245.016006
    vertex -19.503590 2.292968 -248.606995
    vertex -19.493092 2.244082 -245.016006
  endloop
endfacet
facet normal -0.175548 -0.037698 0.000000
  outer loop
    vertex -19.503590 2.292968 -248.606995
    vertex -19.493092 2.244082 -248.606995
    vertex -19.493092 2.244082 -245.016006
  endloop
endfacet
facet normal 0.080487 -0.380381 0.000000
  outer loop
    vertex -19.175390 2.311705 -248.606995
    vertex -19.175390 2.311705 -245.016006
    vertex -19.281317 2.289292 -248.606995
  endloop
endfacet
facet normal 0.080487 -0.380381 0.000000
  outer loop
    vertex -19.175390 2.311705 -245.016006
    vertex -19.281317 2.289292 -245.016006
    vertex -19.281317 2.289292 -248.606995
  endloop
endfacet
facet normal 0.080945 -0.380292 0.000000
  outer loop
    vertex -19.281317 2.289292 -248.606995
    vertex -19.387218 2.266751 -245.016006
    vertex -19.387218 2.266751 -248.606995
  endloop
endfacet
facet normal 0.081402 -0.380189 0.000000
  outer loop
    vertex -19.387218 2.266751 -248.606995
    vertex -19.387218 2.266751 -245.016006
    vertex -19.493092 2.244082 -248.606995
  endloop
endfacet
facet normal 0.080945 -0.380292 0.000000
  outer loop
    vertex -19.281317 2.289292 -245.016006
    vertex -19.387218 2.266751 -245.016006
    vertex -19.281317 2.289292 -248.606995
  endloop
endfacet
facet normal 0.081402 -0.380189 0.000000
  outer loop
    vertex -19.387218 2.266751 -245.016006
    vertex -19.493092 2.244082 -245.016006
    vertex -19.493092 2.244082 -248.606995
  endloop
endfacet
facet normal 0.175683 0.037061 0.000000
  outer loop
    vertex -19.175390 2.311705 -245.016006
    vertex -19.185711 2.360629 -248.606995
    vertex -19.185711 2.360629 -245.016006
  endloop
endfacet
facet normal 0.175683 0.037061 -0.000000
  outer loop
    vertex -19.175390 2.311705 -248.606995
    vertex -19.185711 2.360629 -248.606995
    vertex -19.175390 2.311705 -245.016006
  endloop
endfacet
facet normal -0.000000 0.000000 -0.005414
  outer loop
    vertex -19.387218 2.266751 -248.606995
    vertex -19.493092 2.244082 -248.606995
    vertex -19.503590 2.292968 -248.606995
  endloop
endfacet
facet normal 0.000000 -0.000000 -0.005417
  outer loop
    vertex -19.397657 2.315649 -248.606995
    vertex -19.387218 2.266751 -248.606995
    vertex -19.503590 2.292968 -248.606995
  endloop
endfacet
facet normal -0.000000 0.000000 -0.005414
  outer loop
    vertex -19.281317 2.289292 -248.606995
    vertex -19.387218 2.266751 -248.606995
    vertex -19.397657 2.315649 -248.606995
  endloop
endfacet
facet normal 0.000000 -0.000000 -0.005417
  outer loop
    vertex -19.291698 2.338202 -248.606995
    vertex -19.281317 2.289292 -248.606995
    vertex -19.397657 2.315649 -248.606995
  endloop
endfacet
facet normal 0.000000 -0.000000 -0.005414
  outer loop
    vertex -19.185711 2.360629 -248.606995
    vertex -19.175390 2.311705 -248.606995
    vertex -19.281317 2.289292 -248.606995
  endloop
endfacet
facet normal 0.000000 0.000000 -0.005417
  outer loop
    vertex -19.185711 2.360629 -248.606995
    vertex -19.281317 2.289292 -248.606995
    vertex -19.291698 2.338202 -248.606995
  endloop
endfacet
facet normal 0.000000 -0.000000 0.005414
  outer loop
    vertex -19.493092 2.244082 -245.016006
    vertex -19.387218 2.266751 -245.016006
    vertex -19.503590 2.292968 -245.016006
  endloop
endfacet
facet normal 0.000000 0.000000 0.005417
  outer loop
    vertex -19.387218 2.266751 -245.016006
    vertex -19.397657 2.315649 -245.016006
    vertex -19.503590 2.292968 -245.016006
  endloop
endfacet
facet normal 0.000000 -0.000000 0.005414
  outer loop
    vertex -19.387218 2.266751 -245.016006
    vertex -19.281317 2.289292 -245.016006
    vertex -19.397657 2.315649 -245.016006
  endloop
endfacet
facet normal 0.000000 0.000000 0.005417
  outer loop
    vertex -19.281317 2.289292 -245.016006
    vertex -19.291698 2.338202 -245.016006
    vertex -19.397657 2.315649 -245.016006
  endloop
endfacet
facet normal 0.000000 -0.000000 0.005414
  outer loop
    vertex -19.281317 2.289292 -245.016006
    vertex -19.175390 2.311705 -245.016006
    vertex -19.291698 2.338202 -245.016006
  endloop
endfacet
facet normal 0.000000 0.000000 0.005417
  outer loop
    vertex -19.175390 2.311705 -245.016006
    vertex -19.185711 2.360629 -245.016006
    vertex -19.291698 2.338202 -245.016006
  endloop
endfacet
endsolid b'MESH-MESH-MESH-MESH-MESH-MESH-MESH-MESH-MESH-MESH-MESH-MESH-MESH-MESH-MESH-MESH'
