solid b'MESH-MESH-MESH-MESH-MESH-MESH-MESH-MESH-MESH-MESH-MESH-MESH-MESH-MESH-MESH-MESH'
facet normal 0.001935 0.389019 0.000000
  outer loop
    vertex -0.081413 4.300055 -245.016006
    vertex -0.081413 4.300055 -248.606995
    vertex -0.189745 4.300594 -248.606995
  endloop
endfacet
facet normal 0.001467 0.389021 0.000000
  outer loop
    vertex -0.189745 4.300594 -245.016006
    vertex -0.189745 4.300594 -248.606995
    vertex -0.298078 4.301003 -248.606995
  endloop
endfacet
facet normal 0.001937 0.389019 0.000000
  outer loop
    vertex -0.189745 4.300594 -245.016006
    vertex -0.081413 4.300055 -245.016006
    vertex -0.189745 4.300594 -248.606995
  endloop
endfacet
facet normal 0.001000 0.389022 0.000000
  outer loop
    vertex -0.298078 4.301003 -245.016006
    vertex -0.298078 4.301003 -248.606995
    vertex -0.406411 4.301281 -248.606995
  endloop
endfacet
facet normal 0.001467 0.389021 0.000000
  outer loop
    vertex -0.298078 4.301003 -245.016006
    vertex -0.189745 4.300594 -245.016006
    vertex -0.298078 4.301003 -248.606995
  endloop
endfacet
facet normal 0.001000 0.389022 0.000000
  outer loop
    vertex -0.406411 4.301281 -245.016006
    vertex -0.298078 4.301003 -245.016006
    vertex -0.406411 4.301281 -248.606995
  endloop
endfacet
facet normal -0.179550 0.000353 0.000000
  outer loop
    vertex -0.406411 4.301281 -245.016006
    vertex -0.406509 4.251281 -248.606995
    vertex -0.406509 4.251281 -245.016006
  endloop
endfacet
facet normal -0.179550 0.000353 0.000000
  outer loop
    vertex -0.406411 4.301281 -248.606995
    vertex -0.406509 4.251281 -248.606995
    vertex -0.406411 4.301281 -245.016006
  endloop
endfacet
facet normal -0.001933 -0.388803 0.000000
  outer loop
    vertex -0.081692 4.250056 -248.606995
    vertex -0.189964 4.250594 -245.016006
    vertex -0.189964 4.250594 -248.606995
  endloop
endfacet
facet normal -0.001935 -0.388803 -0.000000
  outer loop
    vertex -0.081692 4.250055 -245.016006
    vertex -0.189964 4.250594 -245.016006
    vertex -0.081692 4.250056 -248.606995
  endloop
endfacet
facet normal -0.001467 -0.388805 0.000000
  outer loop
    vertex -0.189964 4.250594 -248.606995
    vertex -0.298236 4.251003 -245.016006
    vertex -0.298236 4.251003 -248.606995
  endloop
endfacet
facet normal -0.000998 -0.388807 0.000000
  outer loop
    vertex -0.298236 4.251003 -248.606995
    vertex -0.298236 4.251003 -245.016006
    vertex -0.406509 4.251281 -248.606995
  endloop
endfacet
facet normal -0.001467 -0.388805 -0.000000
  outer loop
    vertex -0.189964 4.250594 -245.016006
    vertex -0.298236 4.251003 -245.016006
    vertex -0.189964 4.250594 -248.606995
  endloop
endfacet
facet normal -0.000998 -0.388807 0.000000
  outer loop
    vertex -0.298236 4.251003 -245.016006
    vertex -0.406509 4.251281 -245.016006
    vertex -0.406509 4.251281 -248.606995
  endloop
endfacet
facet normal 0.179547 -0.001001 -0.000000
  outer loop
    vertex -0.081692 4.250055 -245.016006
    vertex -0.081692 4.250056 -248.606995
    vertex -0.081413 4.300055 -245.016006
  endloop
endfacet
facet normal 0.179547 -0.001001 -0.000000
  outer loop
    vertex -0.081692 4.250056 -248.606995
    vertex -0.081413 4.300055 -248.606995
    vertex -0.081413 4.300055 -245.016006
  endloop
endfacet
facet normal 0.000000 0.000000 -0.005414
  outer loop
    vertex -0.298236 4.251003 -248.606995
    vertex -0.406509 4.251281 -248.606995
    vertex -0.406411 4.301281 -248.606995
  endloop
endfacet
facet normal -0.000000 0.000000 -0.005417
  outer loop
    vertex -0.298078 4.301003 -248.606995
    vertex -0.298236 4.251003 -248.606995
    vertex -0.406411 4.301281 -248.606995
  endloop
endfacet
facet normal 0.000000 0.000000 -0.005414
  outer loop
    vertex -0.189745 4.300594 -248.606995
    vertex -0.189964 4.250594 -248.606995
    vertex -0.298236 4.251003 -248.606995
  endloop
endfacet
facet normal -0.000000 0.000000 -0.005417
  outer loop
    vertex -0.189745 4.300594 -248.606995
    vertex -0.298236 4.251003 -248.606995
    vertex -0.298078 4.301003 -248.606995
  endloop
endfacet
facet normal 0.000000 0.000000 -0.005414
  outer loop
    vertex -0.081413 4.300055 -248.606995
    vertex -0.081692 4.250056 -248.606995
    vertex -0.189964 4.250594 -248.606995
  endloop
endfacet
facet normal -0.000000 0.000000 -0.005417
  outer loop
    vertex -0.081413 4.300055 -248.606995
    vertex -0.189964 4.250594 -248.606995
    vertex -0.189745 4.300594 -248.606995
  endloop
endfacet
facet normal -0.000000 0.000000 0.005414
  outer loop
    vertex -0.406509 4.251281 -245.016006
    vertex -0.298236 4.251003 -245.016006
    vertex -0.406411 4.301281 -245.016006
  endloop
endfacet
facet normal 0.000000 -0.000000 0.005417
  outer loop
    vertex -0.298236 4.251003 -245.016006
    vertex -0.298078 4.301003 -245.016006
    vertex -0.406411 4.301281 -245.016006
  endloop
endfacet
facet normal 0.000000 -0.000000 0.005414
  outer loop
    vertex -0.189964 4.250594 -245.016006
    vertex -0.189745 4.300594 -245.016006
    vertex -0.298236 4.251003 -245.016006
  endloop
endfacet
facet normal 0.000000 0.000000 0.005417
  outer loop
    vertex -0.298236 4.251003 -245.016006
    vertex -0.189745 4.300594 -245.016006
    vertex -0.298078 4.301003 -245.016006
  endloop
endfacet
facet normal 0.000000 -0.000000 0.005414
  outer loop
    vertex -0.081692 4.250055 -245.016006
    vertex -0.081413 4.300055 -245.016006
    vertex -0.189964 4.250594 -245.016006
  endloop
endfacet
facet normal 0.000000 0.000000 0.005417
  outer loop
    vertex -0.189964 4.250594 -245.016006
    vertex -0.081413 4.300055 -245.016006
    vertex -0.189745 4.300594 -245.016006
  endloop
endfacet
endsolid b'MESH-MESH-MESH-MESH-MESH-MESH-MESH-MESH-MESH-MESH-MESH-MESH-MESH-MESH-MESH-MESH'
