solid b'MESH-MESH-MESH-MESH-MESH-MESH-MESH-MESH-MESH-MESH-MESH-MESH-MESH-MESH-MESH-MESH'
facet normal 0.080533 -0.380594 0.000000
  outer loop
    vertex 19.185717 -2.360628 -35.059002
    vertex 19.185717 -2.360628 -38.650002
    vertex 19.291702 -2.338202 -38.650002
  endloop
endfacet
facet normal 0.080989 -0.380505 -0.000000
  outer loop
    vertex 19.291702 -2.338202 -35.059002
    vertex 19.291702 -2.338202 -38.650002
    vertex 19.397663 -2.315648 -38.650002
  endloop
endfacet
facet normal 0.080532 -0.380594 -0.000000
  outer loop
    vertex 19.291702 -2.338202 -35.059002
    vertex 19.185717 -2.360628 -35.059002
    vertex 19.291702 -2.338202 -38.650002
  endloop
endfacet
facet normal 0.080990 -0.380505 0.000000
  outer loop
    vertex 19.397663 -2.315648 -35.059002
    vertex 19.291702 -2.338202 -35.059002
    vertex 19.397663 -2.315648 -38.650002
  endloop
endfacet
facet normal 0.081447 -0.380403 0.000000
  outer loop
    vertex 19.503595 -2.292967 -35.059002
    vertex 19.397663 -2.315648 -38.650002
    vertex 19.503595 -2.292967 -38.650002
  endloop
endfacet
facet normal 0.081447 -0.380403 0.000000
  outer loop
    vertex 19.503595 -2.292967 -35.059002
    vertex 19.397663 -2.315648 -35.059002
    vertex 19.397663 -2.315648 -38.650002
  endloop
endfacet
facet normal 0.175548 0.037698 0.000000
  outer loop
    vertex 19.503595 -2.292967 -35.059002
    vertex 19.503595 -2.292967 -38.650002
    vertex 19.493097 -2.244081 -38.650002
  endloop
endfacet
facet normal 0.175548 0.037698 0.000000
  outer loop
    vertex 19.493097 -2.244081 -35.059002
    vertex 19.503595 -2.292967 -35.059002
    vertex 19.493097 -2.244081 -38.650002
  endloop
endfacet
facet normal -0.080488 0.380389 0.000000
  outer loop
    vertex 19.175394 -2.311705 -38.650002
    vertex 19.281322 -2.289291 -35.059002
    vertex 19.281322 -2.289291 -38.650002
  endloop
endfacet
facet normal -0.080945 0.380293 0.000000
  outer loop
    vertex 19.281322 -2.289291 -38.650002
    vertex 19.281322 -2.289291 -35.059002
    vertex 19.387224 -2.266750 -38.650002
  endloop
endfacet
facet normal -0.080489 0.380389 0.000000
  outer loop
    vertex 19.175394 -2.311705 -35.059002
    vertex 19.281322 -2.289291 -35.059002
    vertex 19.175394 -2.311705 -38.650002
  endloop
endfacet
facet normal -0.080945 0.380293 0.000000
  outer loop
    vertex 19.281322 -2.289291 -35.059002
    vertex 19.387224 -2.266750 -35.059002
    vertex 19.387224 -2.266750 -38.650002
  endloop
endfacet
facet normal -0.081402 0.380190 0.000000
  outer loop
    vertex 19.387224 -2.266750 -38.650002
    vertex 19.493097 -2.244081 -35.059002
    vertex 19.493097 -2.244081 -38.650002
  endloop
endfacet
facet normal -0.081402 0.380190 0.000000
  outer loop
    vertex 19.387224 -2.266750 -35.059002
    vertex 19.493097 -2.244081 -35.059002
    vertex 19.387224 -2.266750 -38.650002
  endloop
endfacet
facet normal -0.175683 -0.037068 -0.000000
  outer loop
    vertex 19.185717 -2.360628 -35.059002
    vertex 19.175394 -2.311705 -35.059002
    vertex 19.175394 -2.311705 -38.650002
  endloop
endfacet
facet normal -0.175683 -0.037068 -0.000000
  outer loop
    vertex 19.185717 -2.360628 -35.059002
    vertex 19.175394 -2.311705 -38.650002
    vertex 19.185717 -2.360628 -38.650002
  endloop
endfacet
facet normal 0.000000 0.000000 0.005414
  outer loop
    vertex 19.493097 -2.244081 -35.059002
    vertex 19.387224 -2.266750 -35.059002
    vertex 19.503595 -2.292967 -35.059002
  endloop
endfacet
facet normal 0.000000 0.000000 0.005417
  outer loop
    vertex 19.387224 -2.266750 -35.059002
    vertex 19.397663 -2.315648 -35.059002
    vertex 19.503595 -2.292967 -35.059002
  endloop
endfacet
facet normal 0.000000 0.000000 0.005414
  outer loop
    vertex 19.387224 -2.266750 -35.059002
    vertex 19.281322 -2.289291 -35.059002
    vertex 19.397663 -2.315648 -35.059002
  endloop
endfacet
facet normal 0.000000 0.000000 0.005417
  outer loop
    vertex 19.281322 -2.289291 -35.059002
    vertex 19.291702 -2.338202 -35.059002
    vertex 19.397663 -2.315648 -35.059002
  endloop
endfacet
facet normal 0.000000 0.000000 0.005414
  outer loop
    vertex 19.281322 -2.289291 -35.059002
    vertex 19.175394 -2.311705 -35.059002
    vertex 19.291702 -2.338202 -35.059002
  endloop
endfacet
facet normal 0.000000 0.000000 0.005417
  outer loop
    vertex 19.175394 -2.311705 -35.059002
    vertex 19.185717 -2.360628 -35.059002
    vertex 19.291702 -2.338202 -35.059002
  endloop
endfacet
facet normal 0.000000 0.000000 -0.005414
  outer loop
    vertex 19.387224 -2.266750 -38.650002
    vertex 19.493097 -2.244081 -38.650002
    vertex 19.503595 -2.292967 -38.650002
  endloop
endfacet
facet normal 0.000000 0.000000 -0.005417
  outer loop
    vertex 19.397663 -2.315648 -38.650002
    vertex 19.387224 -2.266750 -38.650002
    vertex 19.503595 -2.292967 -38.650002
  endloop
endfacet
facet normal 0.000000 0.000000 -0.005414
  outer loop
    vertex 19.281322 -2.289291 -38.650002
    vertex 19.387224 -2.266750 -38.650002
    vertex 19.397663 -2.315648 -38.650002
  endloop
endfacet
facet normal 0.000000 0.000000 -0.005417
  outer loop
    vertex 19.291702 -2.338202 -38.650002
    vertex 19.281322 -2.289291 -38.650002
    vertex 19.397663 -2.315648 -38.650002
  endloop
endfacet
facet normal 0.000000 0.000000 -0.005414
  outer loop
    vertex 19.185717 -2.360628 -38.650002
    vertex 19.175394 -2.311705 -38.650002
    vertex 19.281322 -2.289291 -38.650002
  endloop
endfacet
facet normal 0.000000 0.000000 -0.005417
  outer loop
    vertex 19.185717 -2.360628 -38.650002
    vertex 19.281322 -2.289291 -38.650002
    vertex 19.291702 -2.338202 -38.650002
  endloop
endfacet
endsolid b'MESH-MESH-MESH-MESH-MESH-MESH-MESH-MESH-MESH-MESH-MESH-MESH-MESH-MESH-MESH-MESH'
