solid b'MESH-MESH-MESH-MESH-MESH-MESH-MESH-MESH-MESH-MESH-MESH-MESH-MESH-MESH-MESH-MESH'
facet normal -0.001935 0.389020 -0.000000
  outer loop
    vertex 0.189750 4.300594 35.059002
    vertex 0.081418 4.300056 35.059002
    vertex 0.081418 4.300056 38.650002
  endloop
endfacet
facet normal -0.001935 0.389020 0.000000
  outer loop
    vertex 0.189750 4.300594 35.059002
    vertex 0.081418 4.300056 38.650002
    vertex 0.189750 4.300594 38.650002
  endloop
endfacet
facet normal -0.001467 0.389022 -0.000000
  outer loop
    vertex 0.298083 4.301003 35.059002
    vertex 0.189750 4.300594 38.650002
    vertex 0.298083 4.301003 38.650002
  endloop
endfacet
facet normal -0.001467 0.389022 0.000000
  outer loop
    vertex 0.298083 4.301003 35.059002
    vertex 0.189750 4.300594 35.059002
    vertex 0.189750 4.300594 38.650002
  endloop
endfacet
facet normal -0.001000 0.389024 0.000000
  outer loop
    vertex 0.406416 4.301281 35.059002
    vertex 0.298083 4.301003 38.650002
    vertex 0.406416 4.301281 38.650002
  endloop
endfacet
facet normal -0.001000 0.389024 -0.000000
  outer loop
    vertex 0.406416 4.301281 35.059002
    vertex 0.298083 4.301003 35.059002
    vertex 0.298083 4.301003 38.650002
  endloop
endfacet
facet normal 0.179551 0.000353 0.000000
  outer loop
    vertex 0.406514 4.251281 35.059002
    vertex 0.406416 4.301281 35.059002
    vertex 0.406416 4.301281 38.650002
  endloop
endfacet
facet normal 0.179551 0.000353 -0.000000
  outer loop
    vertex 0.406514 4.251281 35.059002
    vertex 0.406416 4.301281 38.650002
    vertex 0.406514 4.251281 38.650002
  endloop
endfacet
facet normal 0.001933 -0.388804 0.000000
  outer loop
    vertex 0.081697 4.250056 38.650002
    vertex 0.081697 4.250056 35.059002
    vertex 0.189969 4.250595 38.650002
  endloop
endfacet
facet normal 0.001933 -0.388804 0.000000
  outer loop
    vertex 0.081697 4.250056 35.059002
    vertex 0.189969 4.250595 35.059002
    vertex 0.189969 4.250595 38.650002
  endloop
endfacet
facet normal 0.001467 -0.388806 0.000000
  outer loop
    vertex 0.189969 4.250595 38.650002
    vertex 0.298241 4.251003 35.059002
    vertex 0.298241 4.251003 38.650002
  endloop
endfacet
facet normal 0.001467 -0.388806 0.000000
  outer loop
    vertex 0.189969 4.250595 35.059002
    vertex 0.298241 4.251003 35.059002
    vertex 0.189969 4.250595 38.650002
  endloop
endfacet
facet normal 0.000998 -0.388808 0.000000
  outer loop
    vertex 0.298241 4.251003 38.650002
    vertex 0.406514 4.251281 35.059002
    vertex 0.406514 4.251281 38.650002
  endloop
endfacet
facet normal 0.000998 -0.388808 0.000000
  outer loop
    vertex 0.298241 4.251003 35.059002
    vertex 0.406514 4.251281 35.059002
    vertex 0.298241 4.251003 38.650002
  endloop
endfacet
facet normal -0.179547 -0.001001 -0.000000
  outer loop
    vertex 0.081697 4.250056 35.059002
    vertex 0.081697 4.250056 38.650002
    vertex 0.081418 4.300056 38.650002
  endloop
endfacet
facet normal -0.179547 -0.001001 -0.000000
  outer loop
    vertex 0.081418 4.300056 35.059002
    vertex 0.081697 4.250056 35.059002
    vertex 0.081418 4.300056 38.650002
  endloop
endfacet
facet normal -0.000000 0.000000 -0.005414
  outer loop
    vertex 0.406514 4.251281 35.059002
    vertex 0.298241 4.251003 35.059002
    vertex 0.406416 4.301281 35.059002
  endloop
endfacet
facet normal 0.000000 0.000000 -0.005417
  outer loop
    vertex 0.298241 4.251003 35.059002
    vertex 0.298083 4.301003 35.059002
    vertex 0.406416 4.301281 35.059002
  endloop
endfacet
facet normal 0.000000 0.000000 -0.005414
  outer loop
    vertex 0.189969 4.250595 35.059002
    vertex 0.189750 4.300594 35.059002
    vertex 0.298241 4.251003 35.059002
  endloop
endfacet
facet normal 0.000000 0.000000 -0.005417
  outer loop
    vertex 0.298241 4.251003 35.059002
    vertex 0.189750 4.300594 35.059002
    vertex 0.298083 4.301003 35.059002
  endloop
endfacet
facet normal 0.000000 0.000000 -0.005414
  outer loop
    vertex 0.081697 4.250056 35.059002
    vertex 0.081418 4.300056 35.059002
    vertex 0.189969 4.250595 35.059002
  endloop
endfacet
facet normal 0.000000 0.000000 -0.005417
  outer loop
    vertex 0.189969 4.250595 35.059002
    vertex 0.081418 4.300056 35.059002
    vertex 0.189750 4.300594 35.059002
  endloop
endfacet
facet normal 0.000000 0.000000 0.005414
  outer loop
    vertex 0.298241 4.251003 38.650002
    vertex 0.406514 4.251281 38.650002
    vertex 0.406416 4.301281 38.650002
  endloop
endfacet
facet normal -0.000000 0.000000 0.005417
  outer loop
    vertex 0.298083 4.301003 38.650002
    vertex 0.298241 4.251003 38.650002
    vertex 0.406416 4.301281 38.650002
  endloop
endfacet
facet normal 0.000000 0.000000 0.005414
  outer loop
    vertex 0.189750 4.300594 38.650002
    vertex 0.189969 4.250595 38.650002
    vertex 0.298241 4.251003 38.650002
  endloop
endfacet
facet normal -0.000000 0.000000 0.005417
  outer loop
    vertex 0.189750 4.300594 38.650002
    vertex 0.298241 4.251003 38.650002
    vertex 0.298083 4.301003 38.650002
  endloop
endfacet
facet normal 0.000000 0.000000 0.005414
  outer loop
    vertex 0.081418 4.300056 38.650002
    vertex 0.081697 4.250056 38.650002
    vertex 0.189969 4.250595 38.650002
  endloop
endfacet
facet normal -0.000000 0.000000 0.005417
  outer loop
    vertex 0.081418 4.300056 38.650002
    vertex 0.189969 4.250595 38.650002
    vertex 0.189750 4.300594 38.650002
  endloop
endfacet
endsolid b'MESH-MESH-MESH-MESH-MESH-MESH-MESH-MESH-MESH-MESH-MESH-MESH-MESH-MESH-MESH-MESH'
