solid b'MESH-MESH-MESH-MESH-MESH-MESH-MESH-MESH-MESH-MESH-MESH-MESH-MESH-MESH-MESH-MESH'
facet normal 0.001935 -0.389021 0.000000
  outer loop
    vertex -0.081428 -4.300056 -81.982002
    vertex -0.081428 -4.300056 -78.390999
    vertex -0.189760 -4.300595 -78.390999
  endloop
endfacet
facet normal 0.001467 -0.389023 0.000000
  outer loop
    vertex -0.189760 -4.300595 -81.982002
    vertex -0.189760 -4.300595 -78.390999
    vertex -0.298093 -4.301003 -78.390999
  endloop
endfacet
facet normal 0.001935 -0.389021 0.000000
  outer loop
    vertex -0.189760 -4.300595 -81.982002
    vertex -0.081428 -4.300056 -81.982002
    vertex -0.189760 -4.300595 -78.390999
  endloop
endfacet
facet normal 0.001000 -0.389024 0.000000
  outer loop
    vertex -0.298093 -4.301003 -81.982002
    vertex -0.298093 -4.301003 -78.390999
    vertex -0.406426 -4.301282 -78.390999
  endloop
endfacet
facet normal 0.001467 -0.389023 0.000000
  outer loop
    vertex -0.298093 -4.301003 -81.982002
    vertex -0.189760 -4.300595 -81.982002
    vertex -0.298093 -4.301003 -78.390999
  endloop
endfacet
facet normal 0.001000 -0.389024 0.000000
  outer loop
    vertex -0.406426 -4.301282 -81.982002
    vertex -0.298093 -4.301003 -81.982002
    vertex -0.406426 -4.301282 -78.390999
  endloop
endfacet
facet normal -0.179551 -0.000354 -0.000000
  outer loop
    vertex -0.406426 -4.301282 -81.982002
    vertex -0.406524 -4.251282 -78.390999
    vertex -0.406524 -4.251282 -81.982002
  endloop
endfacet
facet normal -0.179549 -0.000353 -0.000000
  outer loop
    vertex -0.406426 -4.301282 -78.390999
    vertex -0.406524 -4.251282 -78.390999
    vertex -0.406426 -4.301282 -81.982002
  endloop
endfacet
facet normal -0.001933 0.388805 -0.000000
  outer loop
    vertex -0.081707 -4.250057 -78.390999
    vertex -0.189979 -4.250595 -81.982002
    vertex -0.189979 -4.250595 -78.390999
  endloop
endfacet
facet normal -0.001933 0.388805 -0.000000
  outer loop
    vertex -0.081707 -4.250057 -81.982002
    vertex -0.189979 -4.250595 -81.982002
    vertex -0.081707 -4.250057 -78.390999
  endloop
endfacet
facet normal -0.001467 0.388807 -0.000000
  outer loop
    vertex -0.189979 -4.250595 -78.390999
    vertex -0.298252 -4.251004 -81.982002
    vertex -0.298252 -4.251004 -78.390999
  endloop
endfacet
facet normal -0.001000 0.388808 -0.000000
  outer loop
    vertex -0.298252 -4.251004 -78.390999
    vertex -0.298252 -4.251004 -81.982002
    vertex -0.406524 -4.251282 -78.390999
  endloop
endfacet
facet normal -0.001467 0.388807 -0.000000
  outer loop
    vertex -0.189979 -4.250595 -81.982002
    vertex -0.298252 -4.251004 -81.982002
    vertex -0.189979 -4.250595 -78.390999
  endloop
endfacet
facet normal -0.000998 0.388808 0.000000
  outer loop
    vertex -0.298252 -4.251004 -81.982002
    vertex -0.406524 -4.251282 -81.982002
    vertex -0.406524 -4.251282 -78.390999
  endloop
endfacet
facet normal 0.179547 0.001001 0.000000
  outer loop
    vertex -0.081707 -4.250057 -81.982002
    vertex -0.081707 -4.250057 -78.390999
    vertex -0.081428 -4.300056 -81.982002
  endloop
endfacet
facet normal 0.179547 0.001001 0.000000
  outer loop
    vertex -0.081707 -4.250057 -78.390999
    vertex -0.081428 -4.300056 -78.390999
    vertex -0.081428 -4.300056 -81.982002
  endloop
endfacet
facet normal 0.000000 0.000000 0.005414
  outer loop
    vertex -0.298252 -4.251004 -78.390999
    vertex -0.406524 -4.251282 -78.390999
    vertex -0.406426 -4.301282 -78.390999
  endloop
endfacet
facet normal 0.000000 0.000000 0.005417
  outer loop
    vertex -0.298093 -4.301003 -78.390999
    vertex -0.298252 -4.251004 -78.390999
    vertex -0.406426 -4.301282 -78.390999
  endloop
endfacet
facet normal 0.000000 0.000000 0.005414
  outer loop
    vertex -0.189760 -4.300595 -78.390999
    vertex -0.189979 -4.250595 -78.390999
    vertex -0.298252 -4.251004 -78.390999
  endloop
endfacet
facet normal 0.000000 0.000000 0.005417
  outer loop
    vertex -0.189760 -4.300595 -78.390999
    vertex -0.298252 -4.251004 -78.390999
    vertex -0.298093 -4.301003 -78.390999
  endloop
endfacet
facet normal 0.000000 0.000000 0.005414
  outer loop
    vertex -0.081428 -4.300056 -78.390999
    vertex -0.081707 -4.250057 -78.390999
    vertex -0.189979 -4.250595 -78.390999
  endloop
endfacet
facet normal 0.000000 0.000000 0.005417
  outer loop
    vertex -0.081428 -4.300056 -78.390999
    vertex -0.189979 -4.250595 -78.390999
    vertex -0.189760 -4.300595 -78.390999
  endloop
endfacet
facet normal 0.000000 0.000000 -0.005414
  outer loop
    vertex -0.406524 -4.251282 -81.982002
    vertex -0.298252 -4.251004 -81.982002
    vertex -0.406426 -4.301282 -81.982002
  endloop
endfacet
facet normal 0.000000 -0.000000 -0.005417
  outer loop
    vertex -0.298252 -4.251004 -81.982002
    vertex -0.298093 -4.301003 -81.982002
    vertex -0.406426 -4.301282 -81.982002
  endloop
endfacet
facet normal 0.000000 -0.000000 -0.005414
  outer loop
    vertex -0.189979 -4.250595 -81.982002
    vertex -0.189760 -4.300595 -81.982002
    vertex -0.298252 -4.251004 -81.982002
  endloop
endfacet
facet normal 0.000000 0.000000 -0.005417
  outer loop
    vertex -0.298252 -4.251004 -81.982002
    vertex -0.189760 -4.300595 -81.982002
    vertex -0.298093 -4.301003 -81.982002
  endloop
endfacet
facet normal 0.000000 -0.000000 -0.005414
  outer loop
    vertex -0.081707 -4.250057 -81.982002
    vertex -0.081428 -4.300056 -81.982002
    vertex -0.189979 -4.250595 -81.982002
  endloop
endfacet
facet normal 0.000000 0.000000 -0.005417
  outer loop
    vertex -0.189979 -4.250595 -81.982002
    vertex -0.081428 -4.300056 -81.982002
    vertex -0.189760 -4.300595 -81.982002
  endloop
endfacet
endsolid b'MESH-MESH-MESH-MESH-MESH-MESH-MESH-MESH-MESH-MESH-MESH-MESH-MESH-MESH-MESH-MESH'
