solid b'MESH-MESH-MESH-MESH-MESH-MESH-MESH-MESH-MESH-MESH-MESH-MESH-MESH-MESH-MESH-MESH'
facet normal -0.080533 -0.380595 0.000000
  outer loop
    vertex -19.291718 -2.338198 -103.648003
    vertex -19.185732 -2.360625 -103.648003
    vertex -19.185732 -2.360625 -100.056999
  endloop
endfacet
facet normal -0.080532 -0.380595 -0.000000
  outer loop
    vertex -19.291718 -2.338198 -103.648003
    vertex -19.185732 -2.360625 -100.056999
    vertex -19.291718 -2.338198 -100.056999
  endloop
endfacet
facet normal -0.080990 -0.380506 -0.000000
  outer loop
    vertex -19.397678 -2.315645 -103.648003
    vertex -19.291718 -2.338198 -100.056999
    vertex -19.397678 -2.315645 -100.056999
  endloop
endfacet
facet normal -0.081448 -0.380403 -0.000000
  outer loop
    vertex -19.397678 -2.315645 -103.648003
    vertex -19.397678 -2.315645 -100.056999
    vertex -19.503611 -2.292964 -100.056999
  endloop
endfacet
facet normal -0.080990 -0.380506 -0.000000
  outer loop
    vertex -19.397678 -2.315645 -103.648003
    vertex -19.291718 -2.338198 -103.648003
    vertex -19.291718 -2.338198 -100.056999
  endloop
endfacet
facet normal -0.081448 -0.380403 -0.000000
  outer loop
    vertex -19.503611 -2.292964 -103.648003
    vertex -19.397678 -2.315645 -103.648003
    vertex -19.503611 -2.292964 -100.056999
  endloop
endfacet
facet normal -0.175548 0.037699 0.000000
  outer loop
    vertex -19.503611 -2.292964 -103.648003
    vertex -19.503611 -2.292964 -100.056999
    vertex -19.493113 -2.244078 -103.648003
  endloop
endfacet
facet normal -0.175548 0.037699 0.000000
  outer loop
    vertex -19.503611 -2.292964 -100.056999
    vertex -19.493113 -2.244078 -100.056999
    vertex -19.493113 -2.244078 -103.648003
  endloop
endfacet
facet normal 0.080488 0.380389 0.000000
  outer loop
    vertex -19.175409 -2.311702 -100.056999
    vertex -19.175409 -2.311701 -103.648003
    vertex -19.281338 -2.289288 -100.056999
  endloop
endfacet
facet normal 0.080488 0.380389 0.000000
  outer loop
    vertex -19.175409 -2.311701 -103.648003
    vertex -19.281338 -2.289288 -103.648003
    vertex -19.281338 -2.289288 -100.056999
  endloop
endfacet
facet normal 0.080946 0.380293 0.000000
  outer loop
    vertex -19.281338 -2.289288 -100.056999
    vertex -19.387239 -2.266747 -103.648003
    vertex -19.387239 -2.266747 -100.056999
  endloop
endfacet
facet normal 0.081402 0.380191 0.000000
  outer loop
    vertex -19.387239 -2.266747 -100.056999
    vertex -19.387239 -2.266747 -103.648003
    vertex -19.493113 -2.244078 -100.056999
  endloop
endfacet
facet normal 0.080945 0.380293 0.000000
  outer loop
    vertex -19.281338 -2.289288 -103.648003
    vertex -19.387239 -2.266747 -103.648003
    vertex -19.281338 -2.289288 -100.056999
  endloop
endfacet
facet normal 0.081403 0.380191 0.000000
  outer loop
    vertex -19.387239 -2.266747 -103.648003
    vertex -19.493113 -2.244078 -103.648003
    vertex -19.493113 -2.244078 -100.056999
  endloop
endfacet
facet normal 0.175684 -0.037068 0.000000
  outer loop
    vertex -19.175409 -2.311701 -103.648003
    vertex -19.185732 -2.360625 -100.056999
    vertex -19.185732 -2.360625 -103.648003
  endloop
endfacet
facet normal 0.175683 -0.037068 -0.000000
  outer loop
    vertex -19.175409 -2.311702 -100.056999
    vertex -19.185732 -2.360625 -100.056999
    vertex -19.175409 -2.311701 -103.648003
  endloop
endfacet
facet normal 0.000000 0.000000 0.005414
  outer loop
    vertex -19.387239 -2.266747 -100.056999
    vertex -19.493113 -2.244078 -100.056999
    vertex -19.503611 -2.292964 -100.056999
  endloop
endfacet
facet normal 0.000000 -0.000000 0.005417
  outer loop
    vertex -19.397678 -2.315645 -100.056999
    vertex -19.387239 -2.266747 -100.056999
    vertex -19.503611 -2.292964 -100.056999
  endloop
endfacet
facet normal 0.000000 0.000000 0.005414
  outer loop
    vertex -19.281338 -2.289288 -100.056999
    vertex -19.387239 -2.266747 -100.056999
    vertex -19.397678 -2.315645 -100.056999
  endloop
endfacet
facet normal 0.000000 -0.000000 0.005417
  outer loop
    vertex -19.291718 -2.338198 -100.056999
    vertex -19.281338 -2.289288 -100.056999
    vertex -19.397678 -2.315645 -100.056999
  endloop
endfacet
facet normal 0.000000 -0.000000 0.005414
  outer loop
    vertex -19.185732 -2.360625 -100.056999
    vertex -19.175409 -2.311702 -100.056999
    vertex -19.281338 -2.289288 -100.056999
  endloop
endfacet
facet normal 0.000000 0.000000 0.005417
  outer loop
    vertex -19.185732 -2.360625 -100.056999
    vertex -19.281338 -2.289288 -100.056999
    vertex -19.291718 -2.338198 -100.056999
  endloop
endfacet
facet normal 0.000000 -0.000000 -0.005414
  outer loop
    vertex -19.493113 -2.244078 -103.648003
    vertex -19.387239 -2.266747 -103.648003
    vertex -19.503611 -2.292964 -103.648003
  endloop
endfacet
facet normal 0.000000 0.000000 -0.005417
  outer loop
    vertex -19.387239 -2.266747 -103.648003
    vertex -19.397678 -2.315645 -103.648003
    vertex -19.503611 -2.292964 -103.648003
  endloop
endfacet
facet normal 0.000000 -0.000000 -0.005414
  outer loop
    vertex -19.387239 -2.266747 -103.648003
    vertex -19.281338 -2.289288 -103.648003
    vertex -19.397678 -2.315645 -103.648003
  endloop
endfacet
facet normal 0.000000 0.000000 -0.005417
  outer loop
    vertex -19.281338 -2.289288 -103.648003
    vertex -19.291718 -2.338198 -103.648003
    vertex -19.397678 -2.315645 -103.648003
  endloop
endfacet
facet normal 0.000000 -0.000000 -0.005414
  outer loop
    vertex -19.281338 -2.289288 -103.648003
    vertex -19.175409 -2.311701 -103.648003
    vertex -19.291718 -2.338198 -103.648003
  endloop
endfacet
facet normal 0.000000 0.000000 -0.005417
  outer loop
    vertex -19.175409 -2.311701 -103.648003
    vertex -19.185732 -2.360625 -103.648003
    vertex -19.291718 -2.338198 -103.648003
  endloop
endfacet
endsolid b'MESH-MESH-MESH-MESH-MESH-MESH-MESH-MESH-MESH-MESH-MESH-MESH-MESH-MESH-MESH-MESH'
