solid b'MESH-MESH-MESH-MESH-MESH-MESH-MESH-MESH-MESH-MESH-MESH-MESH-MESH-MESH-MESH-MESH'
facet normal 0.001935 -0.389020 0.000000
  outer loop
    vertex -0.189745 -4.300593 -6.151000
    vertex -0.081413 -4.300055 -6.151000
    vertex -0.081413 -4.300055 -2.559999
  endloop
endfacet
facet normal 0.001935 -0.389020 0.000000
  outer loop
    vertex -0.189745 -4.300593 -6.151000
    vertex -0.081413 -4.300055 -2.559999
    vertex -0.189745 -4.300593 -2.559999
  endloop
endfacet
facet normal 0.001467 -0.389022 0.000000
  outer loop
    vertex -0.298078 -4.301002 -6.151000
    vertex -0.189745 -4.300593 -2.559999
    vertex -0.298078 -4.301002 -2.559999
  endloop
endfacet
facet normal 0.001467 -0.389022 0.000000
  outer loop
    vertex -0.298078 -4.301002 -6.151000
    vertex -0.189745 -4.300593 -6.151000
    vertex -0.189745 -4.300593 -2.559999
  endloop
endfacet
facet normal 0.001000 -0.389024 0.000000
  outer loop
    vertex -0.406411 -4.301280 -6.151000
    vertex -0.298078 -4.301002 -2.559999
    vertex -0.406411 -4.301280 -2.559999
  endloop
endfacet
facet normal 0.001000 -0.389024 0.000000
  outer loop
    vertex -0.406411 -4.301280 -6.151000
    vertex -0.298078 -4.301002 -6.151000
    vertex -0.298078 -4.301002 -2.559999
  endloop
endfacet
facet normal -0.179549 -0.000354 0.000000
  outer loop
    vertex -0.406411 -4.301280 -6.151000
    vertex -0.406509 -4.251281 -2.559999
    vertex -0.406509 -4.251281 -6.151000
  endloop
endfacet
facet normal -0.179549 -0.000354 -0.000000
  outer loop
    vertex -0.406411 -4.301280 -2.559999
    vertex -0.406509 -4.251281 -2.559999
    vertex -0.406411 -4.301280 -6.151000
  endloop
endfacet
facet normal -0.001933 0.388804 0.000000
  outer loop
    vertex -0.081692 -4.250055 -2.559999
    vertex -0.081692 -4.250055 -6.151000
    vertex -0.189964 -4.250594 -2.559999
  endloop
endfacet
facet normal -0.001933 0.388804 0.000000
  outer loop
    vertex -0.081692 -4.250055 -6.151000
    vertex -0.189964 -4.250594 -6.151000
    vertex -0.189964 -4.250594 -2.559999
  endloop
endfacet
facet normal -0.001467 0.388806 0.000000
  outer loop
    vertex -0.189964 -4.250594 -2.559999
    vertex -0.298236 -4.251002 -6.151000
    vertex -0.298236 -4.251002 -2.559999
  endloop
endfacet
facet normal -0.001467 0.388806 0.000000
  outer loop
    vertex -0.189964 -4.250594 -6.151000
    vertex -0.298236 -4.251002 -6.151000
    vertex -0.189964 -4.250594 -2.559999
  endloop
endfacet
facet normal -0.001000 0.388808 0.000000
  outer loop
    vertex -0.298236 -4.251002 -2.559999
    vertex -0.406509 -4.251281 -6.151000
    vertex -0.406509 -4.251281 -2.559999
  endloop
endfacet
facet normal -0.001000 0.388808 0.000000
  outer loop
    vertex -0.298236 -4.251002 -6.151000
    vertex -0.406509 -4.251281 -6.151000
    vertex -0.298236 -4.251002 -2.559999
  endloop
endfacet
facet normal 0.179547 0.001001 0.000000
  outer loop
    vertex -0.081692 -4.250055 -6.151000
    vertex -0.081413 -4.300055 -2.559999
    vertex -0.081413 -4.300055 -6.151000
  endloop
endfacet
facet normal 0.179547 0.001001 0.000000
  outer loop
    vertex -0.081692 -4.250055 -2.559999
    vertex -0.081413 -4.300055 -2.559999
    vertex -0.081692 -4.250055 -6.151000
  endloop
endfacet
facet normal 0.000000 0.000000 0.005414
  outer loop
    vertex -0.298236 -4.251002 -2.559999
    vertex -0.406509 -4.251281 -2.559999
    vertex -0.406411 -4.301280 -2.559999
  endloop
endfacet
facet normal 0.000000 0.000000 0.005417
  outer loop
    vertex -0.298078 -4.301002 -2.559999
    vertex -0.298236 -4.251002 -2.559999
    vertex -0.406411 -4.301280 -2.559999
  endloop
endfacet
facet normal 0.000000 0.000000 0.005414
  outer loop
    vertex -0.189964 -4.250594 -2.559999
    vertex -0.298236 -4.251002 -2.559999
    vertex -0.298078 -4.301002 -2.559999
  endloop
endfacet
facet normal 0.000000 0.000000 0.005417
  outer loop
    vertex -0.189745 -4.300593 -2.559999
    vertex -0.189964 -4.250594 -2.559999
    vertex -0.298078 -4.301002 -2.559999
  endloop
endfacet
facet normal 0.000000 0.000000 0.005414
  outer loop
    vertex -0.081692 -4.250055 -2.559999
    vertex -0.189964 -4.250594 -2.559999
    vertex -0.189745 -4.300593 -2.559999
  endloop
endfacet
facet normal 0.000000 0.000000 0.005417
  outer loop
    vertex -0.081413 -4.300055 -2.559999
    vertex -0.081692 -4.250055 -2.559999
    vertex -0.189745 -4.300593 -2.559999
  endloop
endfacet
facet normal 0.000000 0.000000 -0.005414
  outer loop
    vertex -0.406509 -4.251281 -6.151000
    vertex -0.298236 -4.251002 -6.151000
    vertex -0.406411 -4.301280 -6.151000
  endloop
endfacet
facet normal 0.000000 -0.000000 -0.005417
  outer loop
    vertex -0.298236 -4.251002 -6.151000
    vertex -0.298078 -4.301002 -6.151000
    vertex -0.406411 -4.301280 -6.151000
  endloop
endfacet
facet normal 0.000000 0.000000 -0.005414
  outer loop
    vertex -0.298236 -4.251002 -6.151000
    vertex -0.189964 -4.250594 -6.151000
    vertex -0.298078 -4.301002 -6.151000
  endloop
endfacet
facet normal 0.000000 -0.000000 -0.005417
  outer loop
    vertex -0.189964 -4.250594 -6.151000
    vertex -0.189745 -4.300593 -6.151000
    vertex -0.298078 -4.301002 -6.151000
  endloop
endfacet
facet normal 0.000000 0.000000 -0.005414
  outer loop
    vertex -0.189964 -4.250594 -6.151000
    vertex -0.081692 -4.250055 -6.151000
    vertex -0.189745 -4.300593 -6.151000
  endloop
endfacet
facet normal 0.000000 -0.000000 -0.005417
  outer loop
    vertex -0.081692 -4.250055 -6.151000
    vertex -0.081413 -4.300055 -6.151000
    vertex -0.189745 -4.300593 -6.151000
  endloop
endfacet
endsolid b'MESH-MESH-MESH-MESH-MESH-MESH-MESH-MESH-MESH-MESH-MESH-MESH-MESH-MESH-MESH-MESH'
