solid b'MESH-MESH-MESH-MESH-MESH-MESH-MESH-MESH-MESH-MESH-MESH-MESH-MESH-MESH-MESH-MESH'
facet normal -0.001935 -0.389020 -0.000000
  outer loop
    vertex 0.189745 -4.300594 -13.393000
    vertex 0.081413 -4.300055 -13.393000
    vertex 0.081413 -4.300055 -16.983999
  endloop
endfacet
facet normal -0.001937 -0.389020 -0.000000
  outer loop
    vertex 0.189745 -4.300594 -13.393000
    vertex 0.081413 -4.300055 -16.983999
    vertex 0.189745 -4.300594 -16.983999
  endloop
endfacet
facet normal -0.001467 -0.389022 -0.000000
  outer loop
    vertex 0.298078 -4.301003 -13.393000
    vertex 0.189745 -4.300594 -16.983999
    vertex 0.298078 -4.301003 -16.983999
  endloop
endfacet
facet normal -0.001467 -0.389022 0.000000
  outer loop
    vertex 0.298078 -4.301003 -13.393000
    vertex 0.189745 -4.300594 -13.393000
    vertex 0.189745 -4.300594 -16.983999
  endloop
endfacet
facet normal -0.001000 -0.389024 -0.000000
  outer loop
    vertex 0.406411 -4.301281 -13.393000
    vertex 0.298078 -4.301003 -16.983999
    vertex 0.406411 -4.301281 -16.983999
  endloop
endfacet
facet normal -0.001000 -0.389024 0.000000
  outer loop
    vertex 0.406411 -4.301281 -13.393000
    vertex 0.298078 -4.301003 -13.393000
    vertex 0.298078 -4.301003 -16.983999
  endloop
endfacet
facet normal 0.179551 -0.000353 0.000000
  outer loop
    vertex 0.406509 -4.251281 -13.393000
    vertex 0.406411 -4.301281 -13.393000
    vertex 0.406411 -4.301281 -16.983999
  endloop
endfacet
facet normal 0.179551 -0.000353 0.000000
  outer loop
    vertex 0.406509 -4.251281 -13.393000
    vertex 0.406411 -4.301281 -16.983999
    vertex 0.406509 -4.251281 -16.983999
  endloop
endfacet
facet normal 0.001935 0.388804 0.000000
  outer loop
    vertex 0.081692 -4.250055 -16.983999
    vertex 0.081692 -4.250056 -13.393000
    vertex 0.189964 -4.250594 -16.983999
  endloop
endfacet
facet normal 0.001933 0.388804 0.000000
  outer loop
    vertex 0.081692 -4.250056 -13.393000
    vertex 0.189964 -4.250594 -13.393000
    vertex 0.189964 -4.250594 -16.983999
  endloop
endfacet
facet normal 0.001467 0.388806 0.000000
  outer loop
    vertex 0.189964 -4.250594 -16.983999
    vertex 0.298236 -4.251003 -13.393000
    vertex 0.298236 -4.251003 -16.983999
  endloop
endfacet
facet normal 0.001467 0.388806 0.000000
  outer loop
    vertex 0.189964 -4.250594 -13.393000
    vertex 0.298236 -4.251003 -13.393000
    vertex 0.189964 -4.250594 -16.983999
  endloop
endfacet
facet normal 0.000998 0.388808 0.000000
  outer loop
    vertex 0.298236 -4.251003 -16.983999
    vertex 0.406509 -4.251281 -13.393000
    vertex 0.406509 -4.251281 -16.983999
  endloop
endfacet
facet normal 0.000998 0.388808 0.000000
  outer loop
    vertex 0.298236 -4.251003 -13.393000
    vertex 0.406509 -4.251281 -13.393000
    vertex 0.298236 -4.251003 -16.983999
  endloop
endfacet
facet normal -0.179547 0.001001 0.000000
  outer loop
    vertex 0.081692 -4.250056 -13.393000
    vertex 0.081692 -4.250055 -16.983999
    vertex 0.081413 -4.300055 -16.983999
  endloop
endfacet
facet normal -0.179547 0.001001 0.000000
  outer loop
    vertex 0.081413 -4.300055 -13.393000
    vertex 0.081692 -4.250056 -13.393000
    vertex 0.081413 -4.300055 -16.983999
  endloop
endfacet
facet normal 0.000000 0.000000 0.005414
  outer loop
    vertex 0.406509 -4.251281 -13.393000
    vertex 0.298236 -4.251003 -13.393000
    vertex 0.406411 -4.301281 -13.393000
  endloop
endfacet
facet normal 0.000000 0.000000 0.005417
  outer loop
    vertex 0.298236 -4.251003 -13.393000
    vertex 0.298078 -4.301003 -13.393000
    vertex 0.406411 -4.301281 -13.393000
  endloop
endfacet
facet normal 0.000000 0.000000 0.005414
  outer loop
    vertex 0.189964 -4.250594 -13.393000
    vertex 0.189745 -4.300594 -13.393000
    vertex 0.298236 -4.251003 -13.393000
  endloop
endfacet
facet normal 0.000000 0.000000 0.005417
  outer loop
    vertex 0.298236 -4.251003 -13.393000
    vertex 0.189745 -4.300594 -13.393000
    vertex 0.298078 -4.301003 -13.393000
  endloop
endfacet
facet normal 0.000000 0.000000 0.005414
  outer loop
    vertex 0.081692 -4.250056 -13.393000
    vertex 0.081413 -4.300055 -13.393000
    vertex 0.189964 -4.250594 -13.393000
  endloop
endfacet
facet normal 0.000000 0.000000 0.005417
  outer loop
    vertex 0.189964 -4.250594 -13.393000
    vertex 0.081413 -4.300055 -13.393000
    vertex 0.189745 -4.300594 -13.393000
  endloop
endfacet
facet normal 0.000000 0.000000 -0.005414
  outer loop
    vertex 0.298236 -4.251003 -16.983999
    vertex 0.406509 -4.251281 -16.983999
    vertex 0.406411 -4.301281 -16.983999
  endloop
endfacet
facet normal 0.000000 0.000000 -0.005417
  outer loop
    vertex 0.298078 -4.301003 -16.983999
    vertex 0.298236 -4.251003 -16.983999
    vertex 0.406411 -4.301281 -16.983999
  endloop
endfacet
facet normal 0.000000 0.000000 -0.005414
  outer loop
    vertex 0.189745 -4.300594 -16.983999
    vertex 0.189964 -4.250594 -16.983999
    vertex 0.298236 -4.251003 -16.983999
  endloop
endfacet
facet normal 0.000000 0.000000 -0.005417
  outer loop
    vertex 0.189745 -4.300594 -16.983999
    vertex 0.298236 -4.251003 -16.983999
    vertex 0.298078 -4.301003 -16.983999
  endloop
endfacet
facet normal 0.000000 0.000000 -0.005414
  outer loop
    vertex 0.081413 -4.300055 -16.983999
    vertex 0.081692 -4.250055 -16.983999
    vertex 0.189964 -4.250594 -16.983999
  endloop
endfacet
facet normal 0.000000 0.000000 -0.005417
  outer loop
    vertex 0.081413 -4.300055 -16.983999
    vertex 0.189964 -4.250594 -16.983999
    vertex 0.189745 -4.300594 -16.983999
  endloop
endfacet
endsolid b'MESH-MESH-MESH-MESH-MESH-MESH-MESH-MESH-MESH-MESH-MESH-MESH-MESH-MESH-MESH-MESH'
