solid b'MESH-MESH-MESH-MESH-MESH-MESH-MESH-MESH-MESH-MESH-MESH-MESH-MESH-MESH-MESH-MESH'
facet normal -0.007395 0.061279 0.000000
  outer loop
    vertex -9.847052 3.824096 132.496002
    vertex -9.847052 3.824096 132.475998
    vertex -12.910343 3.454430 132.475998
  endloop
endfacet
facet normal -0.009488 0.060990 0.000000
  outer loop
    vertex -12.910343 3.454430 132.496002
    vertex -12.910343 3.454430 132.475998
    vertex -15.959184 2.980109 132.475998
  endloop
endfacet
facet normal -0.007395 0.061279 0.000000
  outer loop
    vertex -12.910343 3.454430 132.496002
    vertex -9.847052 3.824096 132.496002
    vertex -12.910343 3.454430 132.475998
  endloop
endfacet
facet normal -0.009488 0.060990 0.000000
  outer loop
    vertex -15.959184 2.980109 132.496002
    vertex -12.910343 3.454430 132.496002
    vertex -15.959184 2.980109 132.475998
  endloop
endfacet
facet normal -0.011571 0.060629 0.000000
  outer loop
    vertex -18.989998 2.401690 132.496002
    vertex -15.959184 2.980109 132.475998
    vertex -18.989998 2.401690 132.475998
  endloop
endfacet
facet normal -0.011571 0.060629 0.000000
  outer loop
    vertex -18.989998 2.401690 132.496002
    vertex -15.959184 2.980109 132.496002
    vertex -15.959184 2.980109 132.475998
  endloop
endfacet
facet normal -0.000979 -0.000204 0.000000
  outer loop
    vertex -18.989998 2.401690 132.475998
    vertex -18.979786 2.352744 132.496002
    vertex -18.989998 2.401690 132.496002
  endloop
endfacet
facet normal -0.000979 -0.000204 0.000000
  outer loop
    vertex -18.989998 2.401690 132.475998
    vertex -18.979786 2.352744 132.475998
    vertex -18.979786 2.352744 132.496002
  endloop
endfacet
facet normal 0.007391 -0.061245 0.000000
  outer loop
    vertex -9.841912 3.774361 132.475998
    vertex -9.841912 3.774361 132.496002
    vertex -12.903504 3.404900 132.475998
  endloop
endfacet
facet normal 0.009483 -0.060956 0.000000
  outer loop
    vertex -12.903504 3.404900 132.475998
    vertex -12.903504 3.404900 132.496002
    vertex -15.950653 2.930842 132.475998
  endloop
endfacet
facet normal 0.007391 -0.061245 0.000000
  outer loop
    vertex -9.841912 3.774361 132.496002
    vertex -12.903504 3.404900 132.496002
    vertex -12.903504 3.404900 132.475998
  endloop
endfacet
facet normal 0.009483 -0.060956 0.000000
  outer loop
    vertex -12.903504 3.404900 132.496002
    vertex -15.950653 2.930842 132.496002
    vertex -15.950653 2.930842 132.475998
  endloop
endfacet
facet normal 0.011564 -0.060596 0.000000
  outer loop
    vertex -15.950653 2.930842 132.475998
    vertex -18.979786 2.352744 132.496002
    vertex -18.979786 2.352744 132.475998
  endloop
endfacet
facet normal 0.011564 -0.060596 0.000000
  outer loop
    vertex -15.950653 2.930842 132.496002
    vertex -18.979786 2.352744 132.496002
    vertex -15.950653 2.930842 132.475998
  endloop
endfacet
facet normal 0.000995 0.000103 0.000000
  outer loop
    vertex -9.841912 3.774361 132.496002
    vertex -9.847052 3.824096 132.475998
    vertex -9.847052 3.824096 132.496002
  endloop
endfacet
facet normal 0.000995 0.000103 -0.000000
  outer loop
    vertex -9.841912 3.774361 132.475998
    vertex -9.847052 3.824096 132.475998
    vertex -9.841912 3.774361 132.496002
  endloop
endfacet
facet normal 0.000000 0.000000 -0.154167
  outer loop
    vertex -15.950653 2.930842 132.475998
    vertex -18.979786 2.352744 132.475998
    vertex -18.989998 2.401690 132.475998
  endloop
endfacet
facet normal 0.000000 -0.000000 -0.154254
  outer loop
    vertex -15.959184 2.980109 132.475998
    vertex -15.950653 2.930842 132.475998
    vertex -18.989998 2.401690 132.475998
  endloop
endfacet
facet normal 0.000000 0.000000 -0.154168
  outer loop
    vertex -12.903504 3.404900 132.475998
    vertex -15.950653 2.930842 132.475998
    vertex -15.959184 2.980109 132.475998
  endloop
endfacet
facet normal 0.000000 -0.000000 -0.154253
  outer loop
    vertex -12.910343 3.454430 132.475998
    vertex -12.903504 3.404900 132.475998
    vertex -15.959184 2.980109 132.475998
  endloop
endfacet
facet normal 0.000000 0.000000 -0.154167
  outer loop
    vertex -9.841912 3.774361 132.475998
    vertex -12.903504 3.404900 132.475998
    vertex -12.910343 3.454430 132.475998
  endloop
endfacet
facet normal 0.000000 -0.000000 -0.154253
  outer loop
    vertex -9.847052 3.824096 132.475998
    vertex -9.841912 3.774361 132.475998
    vertex -12.910343 3.454430 132.475998
  endloop
endfacet
facet normal 0.000000 -0.000000 0.154167
  outer loop
    vertex -18.979786 2.352744 132.496002
    vertex -15.950653 2.930842 132.496002
    vertex -18.989998 2.401690 132.496002
  endloop
endfacet
facet normal 0.000000 0.000000 0.154254
  outer loop
    vertex -15.950653 2.930842 132.496002
    vertex -15.959184 2.980109 132.496002
    vertex -18.989998 2.401690 132.496002
  endloop
endfacet
facet normal 0.000000 -0.000000 0.154168
  outer loop
    vertex -15.950653 2.930842 132.496002
    vertex -12.903504 3.404900 132.496002
    vertex -15.959184 2.980109 132.496002
  endloop
endfacet
facet normal 0.000000 0.000000 0.154253
  outer loop
    vertex -12.903504 3.404900 132.496002
    vertex -12.910343 3.454430 132.496002
    vertex -15.959184 2.980109 132.496002
  endloop
endfacet
facet normal 0.000000 0.000000 0.154167
  outer loop
    vertex -9.841912 3.774361 132.496002
    vertex -9.847052 3.824096 132.496002
    vertex -12.903504 3.404900 132.496002
  endloop
endfacet
facet normal 0.000000 -0.000000 0.154253
  outer loop
    vertex -12.903504 3.404900 132.496002
    vertex -9.847052 3.824096 132.496002
    vertex -12.910343 3.454430 132.496002
  endloop
endfacet
endsolid b'MESH-MESH-MESH-MESH-MESH-MESH-MESH-MESH-MESH-MESH-MESH-MESH-MESH-MESH-MESH-MESH'
