solid b'MESH-MESH-MESH-MESH-MESH-MESH-MESH-MESH-MESH-MESH-MESH-MESH-MESH-MESH-MESH-MESH'
facet normal 0.007393 0.061266 0.000000
  outer loop
    vertex 12.910316 3.454433 6.131000
    vertex 9.847023 3.824099 6.131000
    vertex 9.847023 3.824099 6.151000
  endloop
endfacet
facet normal 0.007393 0.061266 -0.000000
  outer loop
    vertex 12.910316 3.454433 6.131000
    vertex 9.847023 3.824099 6.151000
    vertex 12.910316 3.454433 6.151000
  endloop
endfacet
facet normal 0.009486 0.060977 -0.000000
  outer loop
    vertex 15.959156 2.980114 6.131000
    vertex 12.910316 3.454433 6.151000
    vertex 15.959156 2.980114 6.151000
  endloop
endfacet
facet normal 0.011568 0.060616 -0.000000
  outer loop
    vertex 15.959156 2.980114 6.131000
    vertex 15.959156 2.980114 6.151000
    vertex 18.989971 2.401696 6.151000
  endloop
endfacet
facet normal 0.009486 0.060977 0.000000
  outer loop
    vertex 15.959156 2.980114 6.131000
    vertex 12.910316 3.454433 6.131000
    vertex 12.910316 3.454433 6.151000
  endloop
endfacet
facet normal 0.011568 0.060616 -0.000000
  outer loop
    vertex 18.989971 2.401696 6.131000
    vertex 15.959156 2.980114 6.131000
    vertex 18.989971 2.401696 6.151000
  endloop
endfacet
facet normal 0.000979 -0.000204 0.000000
  outer loop
    vertex 18.979759 2.352750 6.151000
    vertex 18.989971 2.401696 6.131000
    vertex 18.989971 2.401696 6.151000
  endloop
endfacet
facet normal 0.000979 -0.000204 0.000000
  outer loop
    vertex 18.979759 2.352750 6.131000
    vertex 18.989971 2.401696 6.131000
    vertex 18.979759 2.352750 6.151000
  endloop
endfacet
facet normal -0.007389 -0.061232 -0.000000
  outer loop
    vertex 9.841884 3.774364 6.151000
    vertex 9.841884 3.774364 6.131000
    vertex 12.903476 3.404903 6.151000
  endloop
endfacet
facet normal -0.007389 -0.061232 0.000000
  outer loop
    vertex 9.841884 3.774364 6.131000
    vertex 12.903476 3.404903 6.131000
    vertex 12.903476 3.404903 6.151000
  endloop
endfacet
facet normal -0.009481 -0.060943 0.000000
  outer loop
    vertex 12.903476 3.404903 6.151000
    vertex 15.950624 2.930847 6.131000
    vertex 15.950624 2.930847 6.151000
  endloop
endfacet
facet normal -0.009481 -0.060943 0.000000
  outer loop
    vertex 12.903476 3.404903 6.131000
    vertex 15.950624 2.930847 6.131000
    vertex 12.903476 3.404903 6.151000
  endloop
endfacet
facet normal -0.011562 -0.060583 0.000000
  outer loop
    vertex 15.950624 2.930847 6.151000
    vertex 18.979759 2.352750 6.131000
    vertex 18.979759 2.352750 6.151000
  endloop
endfacet
facet normal -0.011562 -0.060583 0.000000
  outer loop
    vertex 15.950624 2.930847 6.131000
    vertex 18.979759 2.352750 6.131000
    vertex 15.950624 2.930847 6.151000
  endloop
endfacet
facet normal -0.000995 0.000103 0.000000
  outer loop
    vertex 9.847023 3.824099 6.151000
    vertex 9.841884 3.774364 6.131000
    vertex 9.841884 3.774364 6.151000
  endloop
endfacet
facet normal -0.000995 0.000103 0.000000
  outer loop
    vertex 9.847023 3.824099 6.131000
    vertex 9.841884 3.774364 6.131000
    vertex 9.847023 3.824099 6.151000
  endloop
endfacet
facet normal 0.000000 0.000000 -0.154168
  outer loop
    vertex 15.950624 2.930847 6.131000
    vertex 15.959156 2.980114 6.131000
    vertex 18.979759 2.352750 6.131000
  endloop
endfacet
facet normal 0.000000 0.000000 -0.154253
  outer loop
    vertex 18.979759 2.352750 6.131000
    vertex 15.959156 2.980114 6.131000
    vertex 18.989971 2.401696 6.131000
  endloop
endfacet
facet normal 0.000000 0.000000 -0.154168
  outer loop
    vertex 12.903476 3.404903 6.131000
    vertex 12.910316 3.454433 6.131000
    vertex 15.950624 2.930847 6.131000
  endloop
endfacet
facet normal 0.000000 0.000000 -0.154253
  outer loop
    vertex 15.950624 2.930847 6.131000
    vertex 12.910316 3.454433 6.131000
    vertex 15.959156 2.980114 6.131000
  endloop
endfacet
facet normal 0.000000 0.000000 -0.154167
  outer loop
    vertex 9.841884 3.774364 6.131000
    vertex 9.847023 3.824099 6.131000
    vertex 12.903476 3.404903 6.131000
  endloop
endfacet
facet normal 0.000000 0.000000 -0.154253
  outer loop
    vertex 12.903476 3.404903 6.131000
    vertex 9.847023 3.824099 6.131000
    vertex 12.910316 3.454433 6.131000
  endloop
endfacet
facet normal 0.000000 0.000000 0.154168
  outer loop
    vertex 15.959156 2.980114 6.151000
    vertex 15.950624 2.930847 6.151000
    vertex 18.979759 2.352750 6.151000
  endloop
endfacet
facet normal 0.000000 0.000000 0.154253
  outer loop
    vertex 15.959156 2.980114 6.151000
    vertex 18.979759 2.352750 6.151000
    vertex 18.989971 2.401696 6.151000
  endloop
endfacet
facet normal 0.000000 0.000000 0.154168
  outer loop
    vertex 12.910316 3.454433 6.151000
    vertex 12.903476 3.404903 6.151000
    vertex 15.950624 2.930847 6.151000
  endloop
endfacet
facet normal 0.000000 0.000000 0.154253
  outer loop
    vertex 12.910316 3.454433 6.151000
    vertex 15.950624 2.930847 6.151000
    vertex 15.959156 2.980114 6.151000
  endloop
endfacet
facet normal 0.000000 0.000000 0.154167
  outer loop
    vertex 9.847023 3.824099 6.151000
    vertex 9.841884 3.774364 6.151000
    vertex 12.903476 3.404903 6.151000
  endloop
endfacet
facet normal 0.000000 0.000000 0.154253
  outer loop
    vertex 9.847023 3.824099 6.151000
    vertex 12.903476 3.404903 6.151000
    vertex 12.910316 3.454433 6.151000
  endloop
endfacet
endsolid b'MESH-MESH-MESH-MESH-MESH-MESH-MESH-MESH-MESH-MESH-MESH-MESH-MESH-MESH-MESH-MESH'
