solid b'MESH-MESH-MESH-MESH-MESH-MESH-MESH-MESH-MESH-MESH-MESH-MESH-MESH-MESH-MESH-MESH'
facet normal -0.001071 -0.061667 0.000000
  outer loop
    vertex -3.691466 -4.247858 223.350006
    vertex -0.606415 -4.301453 223.350006
    vertex -0.606415 -4.301453 223.369995
  endloop
endfacet
facet normal -0.001071 -0.061667 0.000000
  outer loop
    vertex -3.691466 -4.247858 223.350006
    vertex -0.606415 -4.301453 223.369995
    vertex -3.691466 -4.247858 223.369995
  endloop
endfacet
facet normal -0.003182 -0.061594 0.000000
  outer loop
    vertex -6.772873 -4.088677 223.350006
    vertex -3.691466 -4.247858 223.369995
    vertex -6.772873 -4.088677 223.369995
  endloop
endfacet
facet normal -0.003182 -0.061594 0.000000
  outer loop
    vertex -6.772873 -4.088677 223.350006
    vertex -3.691466 -4.247858 223.350006
    vertex -3.691466 -4.247858 223.369995
  endloop
endfacet
facet normal -0.005289 -0.061449 0.000000
  outer loop
    vertex -9.847025 -3.824100 223.350006
    vertex -6.772873 -4.088677 223.369995
    vertex -9.847025 -3.824100 223.369995
  endloop
endfacet
facet normal -0.005289 -0.061449 0.000000
  outer loop
    vertex -9.847025 -3.824100 223.350006
    vertex -6.772873 -4.088677 223.350006
    vertex -6.772873 -4.088677 223.369995
  endloop
endfacet
facet normal -0.000994 0.000103 0.000000
  outer loop
    vertex -9.847025 -3.824100 223.350006
    vertex -9.841885 -3.774364 223.369995
    vertex -9.841885 -3.774364 223.350006
  endloop
endfacet
facet normal -0.000994 0.000103 0.000000
  outer loop
    vertex -9.847025 -3.824100 223.369995
    vertex -9.841885 -3.774364 223.369995
    vertex -9.847025 -3.824100 223.350006
  endloop
endfacet
facet normal 0.001071 0.061633 0.000000
  outer loop
    vertex -0.606403 -4.251453 223.369995
    vertex -3.689742 -4.197887 223.350006
    vertex -3.689742 -4.197887 223.369995
  endloop
endfacet
facet normal 0.001071 0.061633 -0.000000
  outer loop
    vertex -0.606403 -4.251453 223.350006
    vertex -3.689742 -4.197887 223.350006
    vertex -0.606403 -4.251453 223.369995
  endloop
endfacet
facet normal 0.003180 0.061560 0.000000
  outer loop
    vertex -3.689742 -4.197887 223.369995
    vertex -6.769439 -4.038795 223.350006
    vertex -6.769439 -4.038795 223.369995
  endloop
endfacet
facet normal 0.005286 0.061415 0.000000
  outer loop
    vertex -6.769439 -4.038795 223.369995
    vertex -6.769439 -4.038795 223.350006
    vertex -9.841885 -3.774364 223.369995
  endloop
endfacet
facet normal 0.003180 0.061560 -0.000000
  outer loop
    vertex -3.689742 -4.197887 223.350006
    vertex -6.769439 -4.038795 223.350006
    vertex -3.689742 -4.197887 223.369995
  endloop
endfacet
facet normal 0.005286 0.061415 0.000000
  outer loop
    vertex -6.769439 -4.038795 223.350006
    vertex -9.841885 -3.774364 223.350006
    vertex -9.841885 -3.774364 223.369995
  endloop
endfacet
facet normal 0.000999 -0.000000 0.000000
  outer loop
    vertex -0.606403 -4.251453 223.350006
    vertex -0.606415 -4.301453 223.369995
    vertex -0.606415 -4.301453 223.350006
  endloop
endfacet
facet normal 0.000999 -0.000000 0.000000
  outer loop
    vertex -0.606403 -4.251453 223.369995
    vertex -0.606415 -4.301453 223.369995
    vertex -0.606403 -4.251453 223.350006
  endloop
endfacet
facet normal 0.000000 0.000000 0.154168
  outer loop
    vertex -6.769439 -4.038795 223.369995
    vertex -9.841885 -3.774364 223.369995
    vertex -9.847025 -3.824100 223.369995
  endloop
endfacet
facet normal 0.000000 -0.000000 0.154253
  outer loop
    vertex -6.772873 -4.088677 223.369995
    vertex -6.769439 -4.038795 223.369995
    vertex -9.847025 -3.824100 223.369995
  endloop
endfacet
facet normal 0.000000 0.000000 0.154168
  outer loop
    vertex -3.689742 -4.197887 223.369995
    vertex -6.769439 -4.038795 223.369995
    vertex -6.772873 -4.088677 223.369995
  endloop
endfacet
facet normal 0.000000 -0.000000 0.154254
  outer loop
    vertex -3.691466 -4.247858 223.369995
    vertex -3.689742 -4.197887 223.369995
    vertex -6.772873 -4.088677 223.369995
  endloop
endfacet
facet normal 0.000000 -0.000000 0.154168
  outer loop
    vertex -0.606415 -4.301453 223.369995
    vertex -0.606403 -4.251453 223.369995
    vertex -3.689742 -4.197887 223.369995
  endloop
endfacet
facet normal 0.000000 0.000000 0.154254
  outer loop
    vertex -0.606415 -4.301453 223.369995
    vertex -3.689742 -4.197887 223.369995
    vertex -3.691466 -4.247858 223.369995
  endloop
endfacet
facet normal 0.000000 -0.000000 -0.154168
  outer loop
    vertex -9.841885 -3.774364 223.350006
    vertex -6.769439 -4.038795 223.350006
    vertex -9.847025 -3.824100 223.350006
  endloop
endfacet
facet normal -0.000000 0.000000 -0.154253
  outer loop
    vertex -6.769439 -4.038795 223.350006
    vertex -6.772873 -4.088677 223.350006
    vertex -9.847025 -3.824100 223.350006
  endloop
endfacet
facet normal 0.000000 -0.000000 -0.154168
  outer loop
    vertex -6.769439 -4.038795 223.350006
    vertex -3.689742 -4.197887 223.350006
    vertex -6.772873 -4.088677 223.350006
  endloop
endfacet
facet normal -0.000000 0.000000 -0.154254
  outer loop
    vertex -3.689742 -4.197887 223.350006
    vertex -3.691466 -4.247858 223.350006
    vertex -6.772873 -4.088677 223.350006
  endloop
endfacet
facet normal 0.000000 -0.000000 -0.154169
  outer loop
    vertex -3.689742 -4.197887 223.350006
    vertex -0.606403 -4.251453 223.350006
    vertex -3.691466 -4.247858 223.350006
  endloop
endfacet
facet normal -0.000000 0.000000 -0.154254
  outer loop
    vertex -0.606403 -4.251453 223.350006
    vertex -0.606415 -4.301453 223.350006
    vertex -3.691466 -4.247858 223.350006
  endloop
endfacet
endsolid b'MESH-MESH-MESH-MESH-MESH-MESH-MESH-MESH-MESH-MESH-MESH-MESH-MESH-MESH-MESH-MESH'
