solid b'MESH-MESH-MESH-MESH-MESH-MESH-MESH-MESH-MESH-MESH-MESH-MESH-MESH-MESH-MESH-MESH'
facet normal -0.001072 -0.061714 0.000000
  outer loop
    vertex -0.606415 -4.301453 219.759003
    vertex -0.606415 -4.301453 219.779007
    vertex -3.691466 -4.247858 219.779007
  endloop
endfacet
facet normal -0.003184 -0.061641 0.000000
  outer loop
    vertex -3.691466 -4.247858 219.759003
    vertex -3.691466 -4.247858 219.779007
    vertex -6.772873 -4.088677 219.779007
  endloop
endfacet
facet normal -0.001072 -0.061714 0.000000
  outer loop
    vertex -3.691466 -4.247858 219.759003
    vertex -0.606415 -4.301453 219.759003
    vertex -3.691466 -4.247858 219.779007
  endloop
endfacet
facet normal -0.003184 -0.061641 0.000000
  outer loop
    vertex -6.772873 -4.088677 219.759003
    vertex -3.691466 -4.247858 219.759003
    vertex -6.772873 -4.088677 219.779007
  endloop
endfacet
facet normal -0.005293 -0.061496 0.000000
  outer loop
    vertex -9.847025 -3.824100 219.759003
    vertex -6.772873 -4.088677 219.779007
    vertex -9.847025 -3.824100 219.779007
  endloop
endfacet
facet normal -0.005293 -0.061496 0.000000
  outer loop
    vertex -9.847025 -3.824100 219.759003
    vertex -6.772873 -4.088677 219.759003
    vertex -6.772873 -4.088677 219.779007
  endloop
endfacet
facet normal -0.000995 0.000103 0.000000
  outer loop
    vertex -9.847025 -3.824100 219.759003
    vertex -9.841885 -3.774364 219.779007
    vertex -9.841885 -3.774364 219.759003
  endloop
endfacet
facet normal -0.000995 0.000103 0.000000
  outer loop
    vertex -9.847025 -3.824100 219.779007
    vertex -9.841885 -3.774364 219.779007
    vertex -9.847025 -3.824100 219.759003
  endloop
endfacet
facet normal 0.001072 0.061680 0.000000
  outer loop
    vertex -0.606403 -4.251453 219.779007
    vertex -3.689742 -4.197887 219.759003
    vertex -3.689742 -4.197887 219.779007
  endloop
endfacet
facet normal 0.003183 0.061607 0.000000
  outer loop
    vertex -3.689742 -4.197887 219.779007
    vertex -3.689742 -4.197887 219.759003
    vertex -6.769439 -4.038795 219.779007
  endloop
endfacet
facet normal 0.001072 0.061680 -0.000000
  outer loop
    vertex -0.606403 -4.251453 219.759003
    vertex -3.689742 -4.197887 219.759003
    vertex -0.606403 -4.251453 219.779007
  endloop
endfacet
facet normal 0.005290 0.061462 0.000000
  outer loop
    vertex -6.769439 -4.038795 219.779007
    vertex -6.769439 -4.038795 219.759003
    vertex -9.841885 -3.774364 219.779007
  endloop
endfacet
facet normal 0.003183 0.061607 0.000000
  outer loop
    vertex -3.689742 -4.197887 219.759003
    vertex -6.769439 -4.038795 219.759003
    vertex -6.769439 -4.038795 219.779007
  endloop
endfacet
facet normal 0.005290 0.061462 0.000000
  outer loop
    vertex -6.769439 -4.038795 219.759003
    vertex -9.841885 -3.774364 219.759003
    vertex -9.841885 -3.774364 219.779007
  endloop
endfacet
facet normal 0.001000 -0.000000 0.000000
  outer loop
    vertex -0.606403 -4.251453 219.759003
    vertex -0.606415 -4.301453 219.779007
    vertex -0.606415 -4.301453 219.759003
  endloop
endfacet
facet normal 0.001000 -0.000000 0.000000
  outer loop
    vertex -0.606403 -4.251453 219.779007
    vertex -0.606415 -4.301453 219.779007
    vertex -0.606403 -4.251453 219.759003
  endloop
endfacet
facet normal 0.000000 0.000000 0.154168
  outer loop
    vertex -6.769439 -4.038795 219.779007
    vertex -9.841885 -3.774364 219.779007
    vertex -9.847025 -3.824100 219.779007
  endloop
endfacet
facet normal 0.000000 -0.000000 0.154253
  outer loop
    vertex -6.772873 -4.088677 219.779007
    vertex -6.769439 -4.038795 219.779007
    vertex -9.847025 -3.824100 219.779007
  endloop
endfacet
facet normal 0.000000 0.000000 0.154168
  outer loop
    vertex -3.689742 -4.197887 219.779007
    vertex -6.769439 -4.038795 219.779007
    vertex -6.772873 -4.088677 219.779007
  endloop
endfacet
facet normal 0.000000 -0.000000 0.154254
  outer loop
    vertex -3.691466 -4.247858 219.779007
    vertex -3.689742 -4.197887 219.779007
    vertex -6.772873 -4.088677 219.779007
  endloop
endfacet
facet normal 0.000000 -0.000000 0.154167
  outer loop
    vertex -0.606415 -4.301453 219.779007
    vertex -0.606403 -4.251453 219.779007
    vertex -3.689742 -4.197887 219.779007
  endloop
endfacet
facet normal 0.000000 0.000000 0.154254
  outer loop
    vertex -0.606415 -4.301453 219.779007
    vertex -3.689742 -4.197887 219.779007
    vertex -3.691466 -4.247858 219.779007
  endloop
endfacet
facet normal 0.000000 -0.000000 -0.154168
  outer loop
    vertex -9.841885 -3.774364 219.759003
    vertex -6.769439 -4.038795 219.759003
    vertex -9.847025 -3.824100 219.759003
  endloop
endfacet
facet normal -0.000000 0.000000 -0.154253
  outer loop
    vertex -6.769439 -4.038795 219.759003
    vertex -6.772873 -4.088677 219.759003
    vertex -9.847025 -3.824100 219.759003
  endloop
endfacet
facet normal 0.000000 -0.000000 -0.154168
  outer loop
    vertex -6.769439 -4.038795 219.759003
    vertex -3.689742 -4.197887 219.759003
    vertex -6.772873 -4.088677 219.759003
  endloop
endfacet
facet normal -0.000000 0.000000 -0.154254
  outer loop
    vertex -3.689742 -4.197887 219.759003
    vertex -3.691466 -4.247858 219.759003
    vertex -6.772873 -4.088677 219.759003
  endloop
endfacet
facet normal 0.000000 -0.000000 -0.154169
  outer loop
    vertex -3.689742 -4.197887 219.759003
    vertex -0.606403 -4.251453 219.759003
    vertex -3.691466 -4.247858 219.759003
  endloop
endfacet
facet normal -0.000000 0.000000 -0.154252
  outer loop
    vertex -0.606403 -4.251453 219.759003
    vertex -0.606415 -4.301453 219.759003
    vertex -3.691466 -4.247858 219.759003
  endloop
endfacet
endsolid b'MESH-MESH-MESH-MESH-MESH-MESH-MESH-MESH-MESH-MESH-MESH-MESH-MESH-MESH-MESH-MESH'
