solid b'MESH-MESH-MESH-MESH-MESH-MESH-MESH-MESH-MESH-MESH-MESH-MESH-MESH-MESH-MESH-MESH'
facet normal -0.007392 0.061256 0.000000
  outer loop
    vertex -9.847050 3.824097 121.663002
    vertex -9.847050 3.824097 121.643005
    vertex -12.910341 3.454430 121.643005
  endloop
endfacet
facet normal -0.009485 0.060967 0.000000
  outer loop
    vertex -12.910341 3.454430 121.663002
    vertex -12.910341 3.454430 121.643005
    vertex -15.959182 2.980110 121.643005
  endloop
endfacet
facet normal -0.007392 0.061256 0.000000
  outer loop
    vertex -12.910341 3.454430 121.663002
    vertex -9.847050 3.824097 121.663002
    vertex -12.910341 3.454430 121.643005
  endloop
endfacet
facet normal -0.009485 0.060967 0.000000
  outer loop
    vertex -15.959182 2.980110 121.663002
    vertex -12.910341 3.454430 121.663002
    vertex -15.959182 2.980110 121.643005
  endloop
endfacet
facet normal -0.011566 0.060606 0.000000
  outer loop
    vertex -18.989998 2.401691 121.663002
    vertex -15.959182 2.980110 121.643005
    vertex -18.989998 2.401691 121.643005
  endloop
endfacet
facet normal -0.011566 0.060606 0.000000
  outer loop
    vertex -18.989998 2.401691 121.663002
    vertex -15.959182 2.980110 121.663002
    vertex -15.959182 2.980110 121.643005
  endloop
endfacet
facet normal -0.000979 -0.000204 0.000000
  outer loop
    vertex -18.989998 2.401691 121.663002
    vertex -18.979784 2.352745 121.643005
    vertex -18.979784 2.352745 121.663002
  endloop
endfacet
facet normal -0.000979 -0.000204 0.000000
  outer loop
    vertex -18.989998 2.401691 121.643005
    vertex -18.979784 2.352745 121.643005
    vertex -18.989998 2.401691 121.663002
  endloop
endfacet
facet normal 0.007388 -0.061222 0.000000
  outer loop
    vertex -9.841910 3.774362 121.643005
    vertex -9.841910 3.774362 121.663002
    vertex -12.903502 3.404900 121.643005
  endloop
endfacet
facet normal 0.007388 -0.061222 0.000000
  outer loop
    vertex -9.841910 3.774362 121.663002
    vertex -12.903502 3.404900 121.663002
    vertex -12.903502 3.404900 121.643005
  endloop
endfacet
facet normal 0.009480 -0.060933 0.000000
  outer loop
    vertex -12.903502 3.404900 121.643005
    vertex -15.950651 2.930843 121.663002
    vertex -15.950651 2.930843 121.643005
  endloop
endfacet
facet normal 0.011560 -0.060572 0.000000
  outer loop
    vertex -15.950651 2.930843 121.643005
    vertex -15.950651 2.930843 121.663002
    vertex -18.979784 2.352745 121.643005
  endloop
endfacet
facet normal 0.009480 -0.060933 0.000000
  outer loop
    vertex -12.903502 3.404900 121.663002
    vertex -15.950651 2.930843 121.663002
    vertex -12.903502 3.404900 121.643005
  endloop
endfacet
facet normal 0.011560 -0.060572 0.000000
  outer loop
    vertex -15.950651 2.930843 121.663002
    vertex -18.979784 2.352745 121.663002
    vertex -18.979784 2.352745 121.643005
  endloop
endfacet
facet normal 0.000995 0.000103 0.000000
  outer loop
    vertex -9.841910 3.774362 121.663002
    vertex -9.847050 3.824097 121.643005
    vertex -9.847050 3.824097 121.663002
  endloop
endfacet
facet normal 0.000995 0.000103 -0.000000
  outer loop
    vertex -9.841910 3.774362 121.643005
    vertex -9.847050 3.824097 121.643005
    vertex -9.841910 3.774362 121.663002
  endloop
endfacet
facet normal 0.000000 0.000000 -0.154168
  outer loop
    vertex -15.950651 2.930843 121.643005
    vertex -18.979784 2.352745 121.643005
    vertex -18.989998 2.401691 121.643005
  endloop
endfacet
facet normal 0.000000 -0.000000 -0.154253
  outer loop
    vertex -15.959182 2.980110 121.643005
    vertex -15.950651 2.930843 121.643005
    vertex -18.989998 2.401691 121.643005
  endloop
endfacet
facet normal 0.000000 0.000000 -0.154167
  outer loop
    vertex -12.903502 3.404900 121.643005
    vertex -15.950651 2.930843 121.643005
    vertex -15.959182 2.980110 121.643005
  endloop
endfacet
facet normal 0.000000 -0.000000 -0.154253
  outer loop
    vertex -12.910341 3.454430 121.643005
    vertex -12.903502 3.404900 121.643005
    vertex -15.959182 2.980110 121.643005
  endloop
endfacet
facet normal 0.000000 0.000000 -0.154167
  outer loop
    vertex -9.841910 3.774362 121.643005
    vertex -12.903502 3.404900 121.643005
    vertex -12.910341 3.454430 121.643005
  endloop
endfacet
facet normal 0.000000 -0.000000 -0.154254
  outer loop
    vertex -9.847050 3.824097 121.643005
    vertex -9.841910 3.774362 121.643005
    vertex -12.910341 3.454430 121.643005
  endloop
endfacet
facet normal 0.000000 0.000000 0.154167
  outer loop
    vertex -15.950651 2.930843 121.663002
    vertex -15.959182 2.980110 121.663002
    vertex -18.979784 2.352745 121.663002
  endloop
endfacet
facet normal 0.000000 -0.000000 0.154254
  outer loop
    vertex -18.979784 2.352745 121.663002
    vertex -15.959182 2.980110 121.663002
    vertex -18.989998 2.401691 121.663002
  endloop
endfacet
facet normal 0.000000 0.000000 0.154167
  outer loop
    vertex -12.903502 3.404900 121.663002
    vertex -12.910341 3.454430 121.663002
    vertex -15.950651 2.930843 121.663002
  endloop
endfacet
facet normal 0.000000 -0.000000 0.154253
  outer loop
    vertex -15.950651 2.930843 121.663002
    vertex -12.910341 3.454430 121.663002
    vertex -15.959182 2.980110 121.663002
  endloop
endfacet
facet normal 0.000000 0.000000 0.154168
  outer loop
    vertex -9.841910 3.774362 121.663002
    vertex -9.847050 3.824097 121.663002
    vertex -12.903502 3.404900 121.663002
  endloop
endfacet
facet normal 0.000000 -0.000000 0.154253
  outer loop
    vertex -12.903502 3.404900 121.663002
    vertex -9.847050 3.824097 121.663002
    vertex -12.910341 3.454430 121.663002
  endloop
endfacet
endsolid b'MESH-MESH-MESH-MESH-MESH-MESH-MESH-MESH-MESH-MESH-MESH-MESH-MESH-MESH-MESH-MESH'
