solid b'MESH-MESH-MESH-MESH-MESH-MESH-MESH-MESH-MESH-MESH-MESH-MESH-MESH-MESH-MESH-MESH'
facet normal -0.007395 0.061279 0.000000
  outer loop
    vertex -9.847041 3.824098 -172.835999
    vertex -9.847041 3.824098 -172.856003
    vertex -12.910333 3.454432 -172.856003
  endloop
endfacet
facet normal -0.009488 0.060990 0.000000
  outer loop
    vertex -12.910333 3.454432 -172.835999
    vertex -12.910333 3.454432 -172.856003
    vertex -15.959173 2.980112 -172.856003
  endloop
endfacet
facet normal -0.007395 0.061279 0.000000
  outer loop
    vertex -12.910333 3.454432 -172.835999
    vertex -9.847041 3.824098 -172.835999
    vertex -12.910333 3.454432 -172.856003
  endloop
endfacet
facet normal -0.011571 0.060629 0.000000
  outer loop
    vertex -15.959173 2.980112 -172.835999
    vertex -15.959173 2.980112 -172.856003
    vertex -18.989988 2.401693 -172.856003
  endloop
endfacet
facet normal -0.009488 0.060990 0.000000
  outer loop
    vertex -15.959173 2.980112 -172.835999
    vertex -12.910333 3.454432 -172.835999
    vertex -15.959173 2.980112 -172.856003
  endloop
endfacet
facet normal -0.011571 0.060629 0.000000
  outer loop
    vertex -18.989988 2.401693 -172.835999
    vertex -15.959173 2.980112 -172.835999
    vertex -18.989988 2.401693 -172.856003
  endloop
endfacet
facet normal -0.000979 -0.000204 0.000000
  outer loop
    vertex -18.989988 2.401693 -172.856003
    vertex -18.979776 2.352747 -172.835999
    vertex -18.989988 2.401693 -172.835999
  endloop
endfacet
facet normal -0.000979 -0.000204 0.000000
  outer loop
    vertex -18.989988 2.401693 -172.856003
    vertex -18.979776 2.352747 -172.856003
    vertex -18.979776 2.352747 -172.835999
  endloop
endfacet
facet normal 0.007391 -0.061245 0.000000
  outer loop
    vertex -9.841901 3.774363 -172.856003
    vertex -12.903493 3.404902 -172.835999
    vertex -12.903493 3.404902 -172.856003
  endloop
endfacet
facet normal 0.009483 -0.060956 0.000000
  outer loop
    vertex -12.903493 3.404902 -172.856003
    vertex -12.903493 3.404902 -172.835999
    vertex -15.950642 2.930845 -172.856003
  endloop
endfacet
facet normal 0.007391 -0.061245 0.000000
  outer loop
    vertex -9.841901 3.774363 -172.835999
    vertex -12.903493 3.404902 -172.835999
    vertex -9.841901 3.774363 -172.856003
  endloop
endfacet
facet normal 0.011564 -0.060596 0.000000
  outer loop
    vertex -15.950642 2.930845 -172.856003
    vertex -15.950642 2.930845 -172.835999
    vertex -18.979776 2.352747 -172.856003
  endloop
endfacet
facet normal 0.009483 -0.060956 0.000000
  outer loop
    vertex -12.903493 3.404902 -172.835999
    vertex -15.950642 2.930845 -172.835999
    vertex -15.950642 2.930845 -172.856003
  endloop
endfacet
facet normal 0.011564 -0.060596 0.000000
  outer loop
    vertex -15.950642 2.930845 -172.835999
    vertex -18.979776 2.352747 -172.835999
    vertex -18.979776 2.352747 -172.856003
  endloop
endfacet
facet normal 0.000995 0.000103 0.000000
  outer loop
    vertex -9.841901 3.774363 -172.835999
    vertex -9.847041 3.824098 -172.856003
    vertex -9.847041 3.824098 -172.835999
  endloop
endfacet
facet normal 0.000995 0.000103 -0.000000
  outer loop
    vertex -9.841901 3.774363 -172.856003
    vertex -9.847041 3.824098 -172.856003
    vertex -9.841901 3.774363 -172.835999
  endloop
endfacet
facet normal 0.000000 0.000000 -0.154167
  outer loop
    vertex -15.950642 2.930845 -172.856003
    vertex -18.979776 2.352747 -172.856003
    vertex -18.989988 2.401693 -172.856003
  endloop
endfacet
facet normal 0.000000 -0.000000 -0.154254
  outer loop
    vertex -15.959173 2.980112 -172.856003
    vertex -15.950642 2.930845 -172.856003
    vertex -18.989988 2.401693 -172.856003
  endloop
endfacet
facet normal 0.000000 0.000000 -0.154168
  outer loop
    vertex -12.903493 3.404902 -172.856003
    vertex -15.950642 2.930845 -172.856003
    vertex -15.959173 2.980112 -172.856003
  endloop
endfacet
facet normal 0.000000 -0.000000 -0.154253
  outer loop
    vertex -12.910333 3.454432 -172.856003
    vertex -12.903493 3.404902 -172.856003
    vertex -15.959173 2.980112 -172.856003
  endloop
endfacet
facet normal 0.000000 0.000000 -0.154168
  outer loop
    vertex -9.841901 3.774363 -172.856003
    vertex -12.903493 3.404902 -172.856003
    vertex -12.910333 3.454432 -172.856003
  endloop
endfacet
facet normal 0.000000 -0.000000 -0.154253
  outer loop
    vertex -9.847041 3.824098 -172.856003
    vertex -9.841901 3.774363 -172.856003
    vertex -12.910333 3.454432 -172.856003
  endloop
endfacet
facet normal 0.000000 -0.000000 0.154167
  outer loop
    vertex -18.979776 2.352747 -172.835999
    vertex -15.950642 2.930845 -172.835999
    vertex -18.989988 2.401693 -172.835999
  endloop
endfacet
facet normal 0.000000 0.000000 0.154254
  outer loop
    vertex -15.950642 2.930845 -172.835999
    vertex -15.959173 2.980112 -172.835999
    vertex -18.989988 2.401693 -172.835999
  endloop
endfacet
facet normal 0.000000 -0.000000 0.154169
  outer loop
    vertex -15.950642 2.930845 -172.835999
    vertex -12.903493 3.404902 -172.835999
    vertex -15.959173 2.980112 -172.835999
  endloop
endfacet
facet normal 0.000000 0.000000 0.154253
  outer loop
    vertex -12.903493 3.404902 -172.835999
    vertex -12.910333 3.454432 -172.835999
    vertex -15.959173 2.980112 -172.835999
  endloop
endfacet
facet normal 0.000000 0.000000 0.154168
  outer loop
    vertex -9.841901 3.774363 -172.835999
    vertex -9.847041 3.824098 -172.835999
    vertex -12.903493 3.404902 -172.835999
  endloop
endfacet
facet normal 0.000000 -0.000000 0.154253
  outer loop
    vertex -12.903493 3.404902 -172.835999
    vertex -9.847041 3.824098 -172.835999
    vertex -12.910333 3.454432 -172.835999
  endloop
endfacet
endsolid b'MESH-MESH-MESH-MESH-MESH-MESH-MESH-MESH-MESH-MESH-MESH-MESH-MESH-MESH-MESH-MESH'
