solid b'MESH-MESH-MESH-MESH-MESH-MESH-MESH-MESH-MESH-MESH-MESH-MESH-MESH-MESH-MESH-MESH'
facet normal 0.001072 -0.061691 0.000000
  outer loop
    vertex 3.691482 -4.247857 -92.795006
    vertex 0.606432 -4.301454 -92.795006
    vertex 0.606432 -4.301454 -92.815002
  endloop
endfacet
facet normal 0.001072 -0.061691 0.000000
  outer loop
    vertex 3.691482 -4.247857 -92.795006
    vertex 0.606432 -4.301454 -92.815002
    vertex 3.691482 -4.247857 -92.815002
  endloop
endfacet
facet normal 0.003183 -0.061618 0.000000
  outer loop
    vertex 6.772889 -4.088676 -92.795006
    vertex 3.691482 -4.247857 -92.815002
    vertex 6.772889 -4.088676 -92.815002
  endloop
endfacet
facet normal 0.005291 -0.061473 0.000000
  outer loop
    vertex 6.772889 -4.088676 -92.795006
    vertex 6.772889 -4.088676 -92.815002
    vertex 9.847040 -3.824098 -92.815002
  endloop
endfacet
facet normal 0.003183 -0.061618 0.000000
  outer loop
    vertex 6.772889 -4.088676 -92.795006
    vertex 3.691482 -4.247857 -92.795006
    vertex 3.691482 -4.247857 -92.815002
  endloop
endfacet
facet normal 0.005291 -0.061473 0.000000
  outer loop
    vertex 9.847040 -3.824098 -92.795006
    vertex 6.772889 -4.088676 -92.795006
    vertex 9.847040 -3.824098 -92.815002
  endloop
endfacet
facet normal 0.000995 0.000103 0.000000
  outer loop
    vertex 9.841901 -3.774363 -92.815002
    vertex 9.847040 -3.824098 -92.795006
    vertex 9.847040 -3.824098 -92.815002
  endloop
endfacet
facet normal 0.000995 0.000103 0.000000
  outer loop
    vertex 9.841901 -3.774363 -92.795006
    vertex 9.847040 -3.824098 -92.795006
    vertex 9.841901 -3.774363 -92.815002
  endloop
endfacet
facet normal -0.001072 0.061680 0.000000
  outer loop
    vertex 0.606419 -4.251453 -92.815002
    vertex 0.606419 -4.251453 -92.794998
    vertex 3.689758 -4.197887 -92.815002
  endloop
endfacet
facet normal -0.001071 0.061656 0.000000
  outer loop
    vertex 0.606419 -4.251453 -92.794998
    vertex 3.689758 -4.197887 -92.795006
    vertex 3.689758 -4.197887 -92.815002
  endloop
endfacet
facet normal -0.003181 0.061584 0.000000
  outer loop
    vertex 3.689758 -4.197887 -92.815002
    vertex 6.769455 -4.038795 -92.795006
    vertex 6.769455 -4.038795 -92.815002
  endloop
endfacet
facet normal -0.003181 0.061584 0.000000
  outer loop
    vertex 3.689758 -4.197887 -92.795006
    vertex 6.769455 -4.038795 -92.795006
    vertex 3.689758 -4.197887 -92.815002
  endloop
endfacet
facet normal -0.005288 0.061439 0.000000
  outer loop
    vertex 6.769455 -4.038795 -92.815002
    vertex 9.841901 -3.774363 -92.795006
    vertex 9.841901 -3.774363 -92.815002
  endloop
endfacet
facet normal -0.005288 0.061439 0.000000
  outer loop
    vertex 6.769455 -4.038795 -92.795006
    vertex 9.841901 -3.774363 -92.795006
    vertex 6.769455 -4.038795 -92.815002
  endloop
endfacet
facet normal -0.001000 -0.000000 0.000000
  outer loop
    vertex 0.606432 -4.301454 -92.795006
    vertex 0.606419 -4.251453 -92.794998
    vertex 0.606419 -4.251453 -92.815002
  endloop
endfacet
facet normal -0.001000 -0.000000 -0.000000
  outer loop
    vertex 0.606432 -4.301454 -92.795006
    vertex 0.606419 -4.251453 -92.815002
    vertex 0.606432 -4.301454 -92.815002
  endloop
endfacet
facet normal 0.000000 0.000000 0.154167
  outer loop
    vertex 9.841901 -3.774363 -92.795006
    vertex 6.769455 -4.038795 -92.795006
    vertex 9.847040 -3.824098 -92.795006
  endloop
endfacet
facet normal -0.000000 0.000000 0.154253
  outer loop
    vertex 6.769455 -4.038795 -92.795006
    vertex 6.772889 -4.088676 -92.795006
    vertex 9.847040 -3.824098 -92.795006
  endloop
endfacet
facet normal 0.000000 0.000000 0.154168
  outer loop
    vertex 6.769455 -4.038795 -92.795006
    vertex 3.689758 -4.197887 -92.795006
    vertex 6.772889 -4.088676 -92.795006
  endloop
endfacet
facet normal -0.000000 0.000000 0.154253
  outer loop
    vertex 3.689758 -4.197887 -92.795006
    vertex 3.691482 -4.247857 -92.795006
    vertex 6.772889 -4.088676 -92.795006
  endloop
endfacet
facet normal 0.000000 0.000000 0.154167
  outer loop
    vertex 3.689758 -4.197887 -92.795006
    vertex 0.606419 -4.251453 -92.794998
    vertex 3.691482 -4.247857 -92.795006
  endloop
endfacet
facet normal 0.000000 -0.000024 0.154254
  outer loop
    vertex 0.606419 -4.251453 -92.794998
    vertex 0.606432 -4.301454 -92.795006
    vertex 3.691482 -4.247857 -92.795006
  endloop
endfacet
facet normal 0.000000 0.000000 -0.154168
  outer loop
    vertex 6.772889 -4.088676 -92.815002
    vertex 6.769455 -4.038795 -92.815002
    vertex 9.841901 -3.774363 -92.815002
  endloop
endfacet
facet normal 0.000000 0.000000 -0.154253
  outer loop
    vertex 6.772889 -4.088676 -92.815002
    vertex 9.841901 -3.774363 -92.815002
    vertex 9.847040 -3.824098 -92.815002
  endloop
endfacet
facet normal 0.000000 0.000000 -0.154167
  outer loop
    vertex 3.691482 -4.247857 -92.815002
    vertex 3.689758 -4.197887 -92.815002
    vertex 6.769455 -4.038795 -92.815002
  endloop
endfacet
facet normal 0.000000 0.000000 -0.154253
  outer loop
    vertex 3.691482 -4.247857 -92.815002
    vertex 6.769455 -4.038795 -92.815002
    vertex 6.772889 -4.088676 -92.815002
  endloop
endfacet
facet normal 0.000000 0.000000 -0.154168
  outer loop
    vertex 0.606432 -4.301454 -92.815002
    vertex 0.606419 -4.251453 -92.815002
    vertex 3.689758 -4.197887 -92.815002
  endloop
endfacet
facet normal 0.000000 0.000000 -0.154253
  outer loop
    vertex 0.606432 -4.301454 -92.815002
    vertex 3.689758 -4.197887 -92.815002
    vertex 3.691482 -4.247857 -92.815002
  endloop
endfacet
endsolid b'MESH-MESH-MESH-MESH-MESH-MESH-MESH-MESH-MESH-MESH-MESH-MESH-MESH-MESH-MESH-MESH'
