solid b'MESH-MESH-MESH-MESH-MESH-MESH-MESH-MESH-MESH-MESH-MESH-MESH-MESH-MESH-MESH-MESH'
facet normal 0.000384 -0.239399 -0.000000
  outer loop
    vertex -0.473087 -4.301388 205.335007
    vertex -0.406421 -4.301281 205.335007
    vertex -0.406421 -4.301281 208.925995
  endloop
endfacet
facet normal 0.000382 -0.239399 0.000000
  outer loop
    vertex -0.473087 -4.301388 205.335007
    vertex -0.406421 -4.301281 208.925995
    vertex -0.473087 -4.301388 208.925995
  endloop
endfacet
facet normal 0.000205 -0.239399 0.000000
  outer loop
    vertex -0.539754 -4.301445 205.335007
    vertex -0.473087 -4.301388 208.925995
    vertex -0.539754 -4.301445 208.925995
  endloop
endfacet
facet normal 0.000205 -0.239399 0.000000
  outer loop
    vertex -0.539754 -4.301445 205.335007
    vertex -0.473087 -4.301388 205.335007
    vertex -0.473087 -4.301388 208.925995
  endloop
endfacet
facet normal 0.000029 -0.239399 0.000000
  outer loop
    vertex -0.606421 -4.301453 205.335007
    vertex -0.539754 -4.301445 208.925995
    vertex -0.606421 -4.301453 208.925995
  endloop
endfacet
facet normal 0.000029 -0.239399 0.000000
  outer loop
    vertex -0.606421 -4.301453 205.335007
    vertex -0.539754 -4.301445 205.335007
    vertex -0.539754 -4.301445 208.925995
  endloop
endfacet
facet normal -0.179550 0.000045 0.000000
  outer loop
    vertex -0.606421 -4.301453 205.335007
    vertex -0.606408 -4.251453 208.925995
    vertex -0.606408 -4.251453 205.335007
  endloop
endfacet
facet normal -0.179550 0.000045 0.000000
  outer loop
    vertex -0.606421 -4.301453 208.925995
    vertex -0.606408 -4.251453 208.925995
    vertex -0.606421 -4.301453 205.335007
  endloop
endfacet
facet normal -0.000384 0.239266 0.000000
  outer loop
    vertex -0.406519 -4.251281 208.925995
    vertex -0.473149 -4.251388 205.335007
    vertex -0.473149 -4.251388 208.925995
  endloop
endfacet
facet normal -0.000384 0.239266 0.000000
  outer loop
    vertex -0.406519 -4.251281 205.335007
    vertex -0.473149 -4.251388 205.335007
    vertex -0.406519 -4.251281 208.925995
  endloop
endfacet
facet normal -0.000205 0.239266 -0.000000
  outer loop
    vertex -0.473149 -4.251388 208.925995
    vertex -0.539778 -4.251445 205.335007
    vertex -0.539778 -4.251445 208.925995
  endloop
endfacet
facet normal -0.000205 0.239266 0.000000
  outer loop
    vertex -0.473149 -4.251388 205.335007
    vertex -0.539778 -4.251445 205.335007
    vertex -0.473149 -4.251388 208.925995
  endloop
endfacet
facet normal -0.000027 0.239266 0.000000
  outer loop
    vertex -0.539778 -4.251445 208.925995
    vertex -0.606408 -4.251453 205.335007
    vertex -0.606408 -4.251453 208.925995
  endloop
endfacet
facet normal -0.000027 0.239266 -0.000000
  outer loop
    vertex -0.539778 -4.251445 205.335007
    vertex -0.606408 -4.251453 205.335007
    vertex -0.539778 -4.251445 208.925995
  endloop
endfacet
facet normal 0.179548 0.000354 0.000000
  outer loop
    vertex -0.406519 -4.251281 205.335007
    vertex -0.406421 -4.301281 208.925995
    vertex -0.406421 -4.301281 205.335007
  endloop
endfacet
facet normal 0.179550 0.000353 0.000000
  outer loop
    vertex -0.406519 -4.251281 208.925995
    vertex -0.406421 -4.301281 208.925995
    vertex -0.406519 -4.251281 205.335007
  endloop
endfacet
facet normal 0.000000 0.000000 0.003331
  outer loop
    vertex -0.539778 -4.251445 208.925995
    vertex -0.606408 -4.251453 208.925995
    vertex -0.606421 -4.301453 208.925995
  endloop
endfacet
facet normal 0.000000 0.000000 0.003333
  outer loop
    vertex -0.539754 -4.301445 208.925995
    vertex -0.539778 -4.251445 208.925995
    vertex -0.606421 -4.301453 208.925995
  endloop
endfacet
facet normal 0.000000 0.000000 0.003331
  outer loop
    vertex -0.473087 -4.301388 208.925995
    vertex -0.473149 -4.251388 208.925995
    vertex -0.539778 -4.251445 208.925995
  endloop
endfacet
facet normal 0.000000 0.000000 0.003333
  outer loop
    vertex -0.473087 -4.301388 208.925995
    vertex -0.539778 -4.251445 208.925995
    vertex -0.539754 -4.301445 208.925995
  endloop
endfacet
facet normal 0.000000 0.000000 0.003332
  outer loop
    vertex -0.406421 -4.301281 208.925995
    vertex -0.406519 -4.251281 208.925995
    vertex -0.473149 -4.251388 208.925995
  endloop
endfacet
facet normal 0.000000 0.000000 0.003333
  outer loop
    vertex -0.406421 -4.301281 208.925995
    vertex -0.473149 -4.251388 208.925995
    vertex -0.473087 -4.301388 208.925995
  endloop
endfacet
facet normal 0.000000 -0.000000 -0.003331
  outer loop
    vertex -0.606408 -4.251453 205.335007
    vertex -0.539778 -4.251445 205.335007
    vertex -0.606421 -4.301453 205.335007
  endloop
endfacet
facet normal 0.000000 -0.000000 -0.003333
  outer loop
    vertex -0.539778 -4.251445 205.335007
    vertex -0.539754 -4.301445 205.335007
    vertex -0.606421 -4.301453 205.335007
  endloop
endfacet
facet normal 0.000000 -0.000000 -0.003331
  outer loop
    vertex -0.473149 -4.251388 205.335007
    vertex -0.473087 -4.301388 205.335007
    vertex -0.539778 -4.251445 205.335007
  endloop
endfacet
facet normal 0.000000 0.000000 -0.003333
  outer loop
    vertex -0.539778 -4.251445 205.335007
    vertex -0.473087 -4.301388 205.335007
    vertex -0.539754 -4.301445 205.335007
  endloop
endfacet
facet normal 0.000000 -0.000000 -0.003331
  outer loop
    vertex -0.406519 -4.251281 205.335007
    vertex -0.406421 -4.301281 205.335007
    vertex -0.473149 -4.251388 205.335007
  endloop
endfacet
facet normal 0.000000 0.000000 -0.003333
  outer loop
    vertex -0.473149 -4.251388 205.335007
    vertex -0.406421 -4.301281 205.335007
    vertex -0.473087 -4.301388 205.335007
  endloop
endfacet
endsolid b'MESH-MESH-MESH-MESH-MESH-MESH-MESH-MESH-MESH-MESH-MESH-MESH-MESH-MESH-MESH-MESH'
