solid b'MESH-MESH-MESH-MESH-MESH-MESH-MESH-MESH-MESH-MESH-MESH-MESH-MESH-MESH-MESH-MESH'
facet normal -0.000384 0.239400 0.000000
  outer loop
    vertex 0.473082 4.301388 27.816999
    vertex 0.406416 4.301281 27.816999
    vertex 0.406416 4.301281 31.408001
  endloop
endfacet
facet normal -0.000382 0.239400 0.000000
  outer loop
    vertex 0.473082 4.301388 27.816999
    vertex 0.406416 4.301281 31.408001
    vertex 0.473082 4.301387 31.408001
  endloop
endfacet
facet normal -0.000207 0.239400 0.000000
  outer loop
    vertex 0.539749 4.301445 27.816999
    vertex 0.473082 4.301387 31.408001
    vertex 0.539749 4.301445 31.408001
  endloop
endfacet
facet normal -0.000205 0.239400 0.000000
  outer loop
    vertex 0.539749 4.301445 27.816999
    vertex 0.473082 4.301388 27.816999
    vertex 0.473082 4.301387 31.408001
  endloop
endfacet
facet normal -0.000027 0.239400 0.000000
  outer loop
    vertex 0.606416 4.301453 27.816999
    vertex 0.539749 4.301445 31.408001
    vertex 0.606416 4.301453 31.408001
  endloop
endfacet
facet normal -0.000027 0.239400 0.000000
  outer loop
    vertex 0.606416 4.301453 27.816999
    vertex 0.539749 4.301445 27.816999
    vertex 0.539749 4.301445 31.408001
  endloop
endfacet
facet normal 0.179549 -0.000045 0.000000
  outer loop
    vertex 0.606403 4.251453 27.816999
    vertex 0.606416 4.301453 27.816999
    vertex 0.606416 4.301453 31.408001
  endloop
endfacet
facet normal 0.179549 -0.000045 0.000000
  outer loop
    vertex 0.606403 4.251453 27.816999
    vertex 0.606416 4.301453 31.408001
    vertex 0.606403 4.251453 31.408001
  endloop
endfacet
facet normal 0.000384 -0.239267 0.000000
  outer loop
    vertex 0.406514 4.251281 31.408001
    vertex 0.473144 4.251388 27.816999
    vertex 0.473144 4.251388 31.408001
  endloop
endfacet
facet normal 0.000382 -0.239267 -0.000000
  outer loop
    vertex 0.406514 4.251281 27.816999
    vertex 0.473144 4.251388 27.816999
    vertex 0.406514 4.251281 31.408001
  endloop
endfacet
facet normal 0.000205 -0.239267 0.000000
  outer loop
    vertex 0.473144 4.251388 31.408001
    vertex 0.539774 4.251445 27.816999
    vertex 0.539773 4.251445 31.408001
  endloop
endfacet
facet normal 0.000205 -0.239267 0.000000
  outer loop
    vertex 0.473144 4.251388 27.816999
    vertex 0.539774 4.251445 27.816999
    vertex 0.473144 4.251388 31.408001
  endloop
endfacet
facet normal 0.000029 -0.239267 0.000000
  outer loop
    vertex 0.539773 4.251445 31.408001
    vertex 0.606403 4.251453 27.816999
    vertex 0.606403 4.251453 31.408001
  endloop
endfacet
facet normal 0.000029 -0.239267 0.000000
  outer loop
    vertex 0.539774 4.251445 27.816999
    vertex 0.606403 4.251453 27.816999
    vertex 0.539773 4.251445 31.408001
  endloop
endfacet
facet normal -0.179549 -0.000354 -0.000000
  outer loop
    vertex 0.406416 4.301281 27.816999
    vertex 0.406514 4.251281 27.816999
    vertex 0.406514 4.251281 31.408001
  endloop
endfacet
facet normal -0.179551 -0.000354 0.000000
  outer loop
    vertex 0.406416 4.301281 27.816999
    vertex 0.406514 4.251281 31.408001
    vertex 0.406416 4.301281 31.408001
  endloop
endfacet
facet normal -0.000000 0.000000 -0.003331
  outer loop
    vertex 0.606403 4.251453 27.816999
    vertex 0.539774 4.251445 27.816999
    vertex 0.606416 4.301453 27.816999
  endloop
endfacet
facet normal 0.000000 0.000000 -0.003333
  outer loop
    vertex 0.539774 4.251445 27.816999
    vertex 0.539749 4.301445 27.816999
    vertex 0.606416 4.301453 27.816999
  endloop
endfacet
facet normal 0.000000 0.000000 -0.003332
  outer loop
    vertex 0.473144 4.251388 27.816999
    vertex 0.473082 4.301388 27.816999
    vertex 0.539774 4.251445 27.816999
  endloop
endfacet
facet normal 0.000000 0.000000 -0.003333
  outer loop
    vertex 0.539774 4.251445 27.816999
    vertex 0.473082 4.301388 27.816999
    vertex 0.539749 4.301445 27.816999
  endloop
endfacet
facet normal 0.000000 0.000000 -0.003331
  outer loop
    vertex 0.406514 4.251281 27.816999
    vertex 0.406416 4.301281 27.816999
    vertex 0.473144 4.251388 27.816999
  endloop
endfacet
facet normal 0.000000 0.000000 -0.003333
  outer loop
    vertex 0.473144 4.251388 27.816999
    vertex 0.406416 4.301281 27.816999
    vertex 0.473082 4.301388 27.816999
  endloop
endfacet
facet normal 0.000000 0.000000 0.003331
  outer loop
    vertex 0.539773 4.251445 31.408001
    vertex 0.606403 4.251453 31.408001
    vertex 0.606416 4.301453 31.408001
  endloop
endfacet
facet normal -0.000000 0.000000 0.003333
  outer loop
    vertex 0.539749 4.301445 31.408001
    vertex 0.539773 4.251445 31.408001
    vertex 0.606416 4.301453 31.408001
  endloop
endfacet
facet normal 0.000000 0.000000 0.003331
  outer loop
    vertex 0.473082 4.301387 31.408001
    vertex 0.473144 4.251388 31.408001
    vertex 0.539773 4.251445 31.408001
  endloop
endfacet
facet normal -0.000000 0.000000 0.003333
  outer loop
    vertex 0.473082 4.301387 31.408001
    vertex 0.539773 4.251445 31.408001
    vertex 0.539749 4.301445 31.408001
  endloop
endfacet
facet normal 0.000000 0.000000 0.003332
  outer loop
    vertex 0.406416 4.301281 31.408001
    vertex 0.406514 4.251281 31.408001
    vertex 0.473144 4.251388 31.408001
  endloop
endfacet
facet normal -0.000000 0.000000 0.003333
  outer loop
    vertex 0.406416 4.301281 31.408001
    vertex 0.473144 4.251388 31.408001
    vertex 0.473082 4.301387 31.408001
  endloop
endfacet
endsolid b'MESH-MESH-MESH-MESH-MESH-MESH-MESH-MESH-MESH-MESH-MESH-MESH-MESH-MESH-MESH-MESH'
