solid b'MESH-MESH-MESH-MESH-MESH-MESH-MESH-MESH-MESH-MESH-MESH-MESH-MESH-MESH-MESH-MESH'
facet normal 0.000384 0.239400 0.000000
  outer loop
    vertex -0.473093 4.301388 81.982002
    vertex -0.406426 4.301281 81.982002
    vertex -0.406426 4.301282 78.390999
  endloop
endfacet
facet normal 0.000382 0.239400 -0.000000
  outer loop
    vertex -0.473093 4.301388 81.982002
    vertex -0.406426 4.301282 78.390999
    vertex -0.473093 4.301388 78.390999
  endloop
endfacet
facet normal 0.000205 0.239400 0.000000
  outer loop
    vertex -0.539759 4.301445 81.982002
    vertex -0.473093 4.301388 78.390999
    vertex -0.539759 4.301445 78.390999
  endloop
endfacet
facet normal 0.000205 0.239400 -0.000000
  outer loop
    vertex -0.539759 4.301445 81.982002
    vertex -0.473093 4.301388 81.982002
    vertex -0.473093 4.301388 78.390999
  endloop
endfacet
facet normal 0.000029 0.239400 0.000000
  outer loop
    vertex -0.606426 4.301454 81.982002
    vertex -0.539759 4.301445 78.390999
    vertex -0.606426 4.301454 78.390999
  endloop
endfacet
facet normal 0.000029 0.239400 0.000000
  outer loop
    vertex -0.606426 4.301454 81.982002
    vertex -0.539759 4.301445 81.982002
    vertex -0.539759 4.301445 78.390999
  endloop
endfacet
facet normal -0.179551 -0.000045 -0.000000
  outer loop
    vertex -0.606426 4.301454 81.982002
    vertex -0.606413 4.251454 78.390999
    vertex -0.606413 4.251453 81.982002
  endloop
endfacet
facet normal -0.179549 -0.000045 0.000000
  outer loop
    vertex -0.606426 4.301454 78.390999
    vertex -0.606413 4.251454 78.390999
    vertex -0.606426 4.301454 81.982002
  endloop
endfacet
facet normal -0.000384 -0.239267 0.000000
  outer loop
    vertex -0.406524 4.251282 78.390999
    vertex -0.406524 4.251282 81.982002
    vertex -0.473154 4.251389 78.390999
  endloop
endfacet
facet normal -0.000205 -0.239267 -0.000000
  outer loop
    vertex -0.473154 4.251389 78.390999
    vertex -0.473154 4.251388 81.982002
    vertex -0.539784 4.251446 78.390999
  endloop
endfacet
facet normal -0.000382 -0.239267 -0.000000
  outer loop
    vertex -0.406524 4.251282 81.982002
    vertex -0.473154 4.251388 81.982002
    vertex -0.473154 4.251389 78.390999
  endloop
endfacet
facet normal -0.000029 -0.239267 0.000000
  outer loop
    vertex -0.539784 4.251446 78.390999
    vertex -0.539784 4.251446 81.982002
    vertex -0.606413 4.251454 78.390999
  endloop
endfacet
facet normal -0.000207 -0.239267 0.000000
  outer loop
    vertex -0.473154 4.251388 81.982002
    vertex -0.539784 4.251446 81.982002
    vertex -0.539784 4.251446 78.390999
  endloop
endfacet
facet normal -0.000027 -0.239268 -0.000000
  outer loop
    vertex -0.539784 4.251446 81.982002
    vertex -0.606413 4.251453 81.982002
    vertex -0.606413 4.251454 78.390999
  endloop
endfacet
facet normal 0.179549 -0.000354 -0.000000
  outer loop
    vertex -0.406524 4.251282 81.982002
    vertex -0.406426 4.301282 78.390999
    vertex -0.406426 4.301281 81.982002
  endloop
endfacet
facet normal 0.179551 -0.000353 0.000000
  outer loop
    vertex -0.406524 4.251282 78.390999
    vertex -0.406426 4.301282 78.390999
    vertex -0.406524 4.251282 81.982002
  endloop
endfacet
facet normal 0.000000 0.000000 -0.003331
  outer loop
    vertex -0.539784 4.251446 78.390999
    vertex -0.606413 4.251454 78.390999
    vertex -0.606426 4.301454 78.390999
  endloop
endfacet
facet normal -0.000000 0.000000 -0.003333
  outer loop
    vertex -0.539759 4.301445 78.390999
    vertex -0.539784 4.251446 78.390999
    vertex -0.606426 4.301454 78.390999
  endloop
endfacet
facet normal 0.000000 0.000000 -0.003331
  outer loop
    vertex -0.473093 4.301388 78.390999
    vertex -0.473154 4.251389 78.390999
    vertex -0.539784 4.251446 78.390999
  endloop
endfacet
facet normal -0.000000 0.000000 -0.003333
  outer loop
    vertex -0.473093 4.301388 78.390999
    vertex -0.539784 4.251446 78.390999
    vertex -0.539759 4.301445 78.390999
  endloop
endfacet
facet normal 0.000000 0.000000 -0.003332
  outer loop
    vertex -0.406426 4.301282 78.390999
    vertex -0.406524 4.251282 78.390999
    vertex -0.473154 4.251389 78.390999
  endloop
endfacet
facet normal -0.000000 0.000000 -0.003333
  outer loop
    vertex -0.406426 4.301282 78.390999
    vertex -0.473154 4.251389 78.390999
    vertex -0.473093 4.301388 78.390999
  endloop
endfacet
facet normal -0.000000 -0.000000 0.003331
  outer loop
    vertex -0.606413 4.251453 81.982002
    vertex -0.539784 4.251446 81.982002
    vertex -0.606426 4.301454 81.982002
  endloop
endfacet
facet normal 0.000000 -0.000000 0.003333
  outer loop
    vertex -0.539784 4.251446 81.982002
    vertex -0.539759 4.301445 81.982002
    vertex -0.606426 4.301454 81.982002
  endloop
endfacet
facet normal 0.000000 -0.000000 0.003331
  outer loop
    vertex -0.473154 4.251388 81.982002
    vertex -0.473093 4.301388 81.982002
    vertex -0.539784 4.251446 81.982002
  endloop
endfacet
facet normal 0.000000 0.000000 0.003333
  outer loop
    vertex -0.539784 4.251446 81.982002
    vertex -0.473093 4.301388 81.982002
    vertex -0.539759 4.301445 81.982002
  endloop
endfacet
facet normal -0.000000 0.000000 0.003331
  outer loop
    vertex -0.473154 4.251388 81.982002
    vertex -0.406524 4.251282 81.982002
    vertex -0.473093 4.301388 81.982002
  endloop
endfacet
facet normal 0.000000 -0.000000 0.003333
  outer loop
    vertex -0.406524 4.251282 81.982002
    vertex -0.406426 4.301281 81.982002
    vertex -0.473093 4.301388 81.982002
  endloop
endfacet
endsolid b'MESH-MESH-MESH-MESH-MESH-MESH-MESH-MESH-MESH-MESH-MESH-MESH-MESH-MESH-MESH-MESH'
