solid b'MESH-MESH-MESH-MESH-MESH-MESH-MESH-MESH-MESH-MESH-MESH-MESH-MESH-MESH-MESH-MESH'
facet normal 0.000384 0.239400 0.000000
  outer loop
    vertex -0.473077 4.301387 -241.425003
    vertex -0.406410 4.301280 -241.425003
    vertex -0.406410 4.301280 -245.016006
  endloop
endfacet
facet normal 0.000384 0.239400 0.000000
  outer loop
    vertex -0.473077 4.301387 -241.425003
    vertex -0.406410 4.301280 -245.016006
    vertex -0.473077 4.301387 -245.016006
  endloop
endfacet
facet normal 0.000205 0.239400 0.000000
  outer loop
    vertex -0.539744 4.301445 -241.425003
    vertex -0.473077 4.301387 -245.016006
    vertex -0.539744 4.301445 -245.016006
  endloop
endfacet
facet normal 0.000205 0.239400 0.000000
  outer loop
    vertex -0.539744 4.301445 -241.425003
    vertex -0.473077 4.301387 -241.425003
    vertex -0.473077 4.301387 -245.016006
  endloop
endfacet
facet normal 0.000029 0.239400 0.000000
  outer loop
    vertex -0.606410 4.301453 -241.425003
    vertex -0.539744 4.301445 -245.016006
    vertex -0.606410 4.301453 -245.016006
  endloop
endfacet
facet normal 0.000029 0.239400 0.000000
  outer loop
    vertex -0.606410 4.301453 -241.425003
    vertex -0.539744 4.301445 -241.425003
    vertex -0.539744 4.301445 -245.016006
  endloop
endfacet
facet normal -0.179551 -0.000045 0.000000
  outer loop
    vertex -0.606410 4.301453 -241.425003
    vertex -0.606398 4.251452 -245.016006
    vertex -0.606398 4.251452 -241.425003
  endloop
endfacet
facet normal -0.179551 -0.000045 0.000000
  outer loop
    vertex -0.606410 4.301453 -245.016006
    vertex -0.606398 4.251452 -245.016006
    vertex -0.606410 4.301453 -241.425003
  endloop
endfacet
facet normal -0.000382 -0.239267 0.000000
  outer loop
    vertex -0.406509 4.251281 -245.016006
    vertex -0.406509 4.251281 -241.425003
    vertex -0.473139 4.251387 -245.016006
  endloop
endfacet
facet normal -0.000207 -0.239267 0.000000
  outer loop
    vertex -0.473139 4.251387 -245.016006
    vertex -0.473139 4.251387 -241.425003
    vertex -0.539768 4.251445 -245.016006
  endloop
endfacet
facet normal -0.000382 -0.239267 0.000000
  outer loop
    vertex -0.406509 4.251281 -241.425003
    vertex -0.473139 4.251387 -241.425003
    vertex -0.473139 4.251387 -245.016006
  endloop
endfacet
facet normal -0.000027 -0.239267 0.000000
  outer loop
    vertex -0.539768 4.251445 -245.016006
    vertex -0.539768 4.251445 -241.425003
    vertex -0.606398 4.251452 -245.016006
  endloop
endfacet
facet normal -0.000207 -0.239267 0.000000
  outer loop
    vertex -0.473139 4.251387 -241.425003
    vertex -0.539768 4.251445 -241.425003
    vertex -0.539768 4.251445 -245.016006
  endloop
endfacet
facet normal -0.000027 -0.239267 0.000000
  outer loop
    vertex -0.539768 4.251445 -241.425003
    vertex -0.606398 4.251452 -241.425003
    vertex -0.606398 4.251452 -245.016006
  endloop
endfacet
facet normal 0.179549 -0.000354 0.000000
  outer loop
    vertex -0.406509 4.251281 -241.425003
    vertex -0.406410 4.301280 -245.016006
    vertex -0.406410 4.301280 -241.425003
  endloop
endfacet
facet normal 0.179549 -0.000354 0.000000
  outer loop
    vertex -0.406509 4.251281 -245.016006
    vertex -0.406410 4.301280 -245.016006
    vertex -0.406509 4.251281 -241.425003
  endloop
endfacet
facet normal 0.000000 0.000000 -0.003331
  outer loop
    vertex -0.539768 4.251445 -245.016006
    vertex -0.606398 4.251452 -245.016006
    vertex -0.606410 4.301453 -245.016006
  endloop
endfacet
facet normal -0.000000 0.000000 -0.003333
  outer loop
    vertex -0.539744 4.301445 -245.016006
    vertex -0.539768 4.251445 -245.016006
    vertex -0.606410 4.301453 -245.016006
  endloop
endfacet
facet normal 0.000000 0.000000 -0.003332
  outer loop
    vertex -0.473077 4.301387 -245.016006
    vertex -0.473139 4.251387 -245.016006
    vertex -0.539768 4.251445 -245.016006
  endloop
endfacet
facet normal -0.000000 0.000000 -0.003333
  outer loop
    vertex -0.473077 4.301387 -245.016006
    vertex -0.539768 4.251445 -245.016006
    vertex -0.539744 4.301445 -245.016006
  endloop
endfacet
facet normal 0.000000 0.000000 -0.003331
  outer loop
    vertex -0.406410 4.301280 -245.016006
    vertex -0.406509 4.251281 -245.016006
    vertex -0.473139 4.251387 -245.016006
  endloop
endfacet
facet normal -0.000000 0.000000 -0.003333
  outer loop
    vertex -0.406410 4.301280 -245.016006
    vertex -0.473139 4.251387 -245.016006
    vertex -0.473077 4.301387 -245.016006
  endloop
endfacet
facet normal 0.000000 -0.000000 0.003331
  outer loop
    vertex -0.539768 4.251445 -241.425003
    vertex -0.539744 4.301445 -241.425003
    vertex -0.606398 4.251452 -241.425003
  endloop
endfacet
facet normal 0.000000 -0.000000 0.003333
  outer loop
    vertex -0.606398 4.251452 -241.425003
    vertex -0.539744 4.301445 -241.425003
    vertex -0.606410 4.301453 -241.425003
  endloop
endfacet
facet normal -0.000000 0.000000 0.003331
  outer loop
    vertex -0.539768 4.251445 -241.425003
    vertex -0.473139 4.251387 -241.425003
    vertex -0.539744 4.301445 -241.425003
  endloop
endfacet
facet normal 0.000000 -0.000000 0.003333
  outer loop
    vertex -0.473139 4.251387 -241.425003
    vertex -0.473077 4.301387 -241.425003
    vertex -0.539744 4.301445 -241.425003
  endloop
endfacet
facet normal -0.000000 0.000000 0.003331
  outer loop
    vertex -0.473139 4.251387 -241.425003
    vertex -0.406509 4.251281 -241.425003
    vertex -0.473077 4.301387 -241.425003
  endloop
endfacet
facet normal 0.000000 -0.000000 0.003333
  outer loop
    vertex -0.406509 4.251281 -241.425003
    vertex -0.406410 4.301280 -241.425003
    vertex -0.473077 4.301387 -241.425003
  endloop
endfacet
endsolid b'MESH-MESH-MESH-MESH-MESH-MESH-MESH-MESH-MESH-MESH-MESH-MESH-MESH-MESH-MESH-MESH'
