solid b'MESH-MESH-MESH-MESH-MESH-MESH-MESH-MESH-MESH-MESH-MESH-MESH-MESH-MESH-MESH-MESH'
facet normal -0.048984 -0.234335 0.000000
  outer loop
    vertex -19.055229 -2.388055 -16.984001
    vertex -18.989973 -2.401696 -16.984001
    vertex -18.989973 -2.401696 -13.393001
  endloop
endfacet
facet normal -0.048984 -0.234335 0.000000
  outer loop
    vertex -19.055229 -2.388055 -16.984001
    vertex -18.989973 -2.401696 -13.393001
    vertex -19.055229 -2.388055 -13.393001
  endloop
endfacet
facet normal -0.049157 -0.234301 0.000000
  outer loop
    vertex -19.120476 -2.374366 -16.984001
    vertex -19.055229 -2.388055 -13.393001
    vertex -19.120476 -2.374366 -13.393001
  endloop
endfacet
facet normal -0.049157 -0.234301 0.000000
  outer loop
    vertex -19.120476 -2.374366 -16.984001
    vertex -19.055229 -2.388055 -16.984001
    vertex -19.055229 -2.388055 -13.393001
  endloop
endfacet
facet normal -0.049331 -0.234259 0.000000
  outer loop
    vertex -19.185711 -2.360629 -16.984001
    vertex -19.120476 -2.374366 -13.393001
    vertex -19.185711 -2.360629 -13.393001
  endloop
endfacet
facet normal -0.049331 -0.234259 0.000000
  outer loop
    vertex -19.185711 -2.360629 -16.984001
    vertex -19.120476 -2.374366 -16.984001
    vertex -19.120476 -2.374366 -13.393001
  endloop
endfacet
facet normal -0.175683 0.037062 0.000000
  outer loop
    vertex -19.185711 -2.360629 -16.984001
    vertex -19.185711 -2.360629 -13.393001
    vertex -19.175390 -2.311705 -16.984001
  endloop
endfacet
facet normal -0.175683 0.037062 0.000000
  outer loop
    vertex -19.185711 -2.360629 -13.393001
    vertex -19.175390 -2.311705 -13.393001
    vertex -19.175390 -2.311705 -16.984001
  endloop
endfacet
facet normal 0.048957 0.234205 0.000000
  outer loop
    vertex -18.979761 -2.352750 -13.393001
    vertex -18.979759 -2.352750 -16.984001
    vertex -19.044981 -2.339117 -13.393001
  endloop
endfacet
facet normal 0.048957 0.234211 0.000000
  outer loop
    vertex -18.979759 -2.352750 -16.984001
    vertex -19.044981 -2.339117 -16.984001
    vertex -19.044981 -2.339117 -13.393001
  endloop
endfacet
facet normal 0.049131 0.234164 0.000000
  outer loop
    vertex -19.044981 -2.339117 -13.393001
    vertex -19.110189 -2.325435 -16.984001
    vertex -19.110189 -2.325435 -13.393001
  endloop
endfacet
facet normal 0.049131 0.234164 -0.000000
  outer loop
    vertex -19.044981 -2.339117 -16.984001
    vertex -19.110189 -2.325435 -16.984001
    vertex -19.044981 -2.339117 -13.393001
  endloop
endfacet
facet normal 0.049304 0.234136 0.000000
  outer loop
    vertex -19.110189 -2.325435 -13.393001
    vertex -19.175390 -2.311705 -16.984001
    vertex -19.175390 -2.311705 -13.393001
  endloop
endfacet
facet normal 0.049304 0.234136 -0.000000
  outer loop
    vertex -19.110189 -2.325435 -16.984001
    vertex -19.175390 -2.311705 -16.984001
    vertex -19.110189 -2.325435 -13.393001
  endloop
endfacet
facet normal 0.175765 -0.036678 0.000000
  outer loop
    vertex -18.979759 -2.352750 -16.984001
    vertex -18.989973 -2.401696 -13.393001
    vertex -18.989973 -2.401696 -16.984001
  endloop
endfacet
facet normal 0.175765 -0.036671 0.000000
  outer loop
    vertex -18.979761 -2.352750 -13.393001
    vertex -18.989973 -2.401696 -13.393001
    vertex -18.979759 -2.352750 -16.984001
  endloop
endfacet
facet normal 0.000000 -0.000000 0.003332
  outer loop
    vertex -19.120476 -2.374366 -13.393001
    vertex -19.110189 -2.325435 -13.393001
    vertex -19.175390 -2.311705 -13.393001
  endloop
endfacet
facet normal 0.000000 0.000000 0.003333
  outer loop
    vertex -19.120476 -2.374366 -13.393001
    vertex -19.175390 -2.311705 -13.393001
    vertex -19.185711 -2.360629 -13.393001
  endloop
endfacet
facet normal 0.000000 -0.000000 0.003331
  outer loop
    vertex -19.055229 -2.388055 -13.393001
    vertex -19.044981 -2.339117 -13.393001
    vertex -19.110189 -2.325435 -13.393001
  endloop
endfacet
facet normal 0.000000 0.000000 0.003333
  outer loop
    vertex -19.055229 -2.388055 -13.393001
    vertex -19.110189 -2.325435 -13.393001
    vertex -19.120476 -2.374366 -13.393001
  endloop
endfacet
facet normal 0.000000 -0.000000 0.003331
  outer loop
    vertex -18.989973 -2.401696 -13.393001
    vertex -18.979761 -2.352750 -13.393001
    vertex -19.044981 -2.339117 -13.393001
  endloop
endfacet
facet normal 0.000000 0.000000 0.003333
  outer loop
    vertex -18.989973 -2.401696 -13.393001
    vertex -19.044981 -2.339117 -13.393001
    vertex -19.055229 -2.388055 -13.393001
  endloop
endfacet
facet normal -0.000000 0.000000 -0.003332
  outer loop
    vertex -19.110189 -2.325435 -16.984001
    vertex -19.120476 -2.374366 -16.984001
    vertex -19.175390 -2.311705 -16.984001
  endloop
endfacet
facet normal 0.000000 -0.000000 -0.003333
  outer loop
    vertex -19.175390 -2.311705 -16.984001
    vertex -19.120476 -2.374366 -16.984001
    vertex -19.185711 -2.360629 -16.984001
  endloop
endfacet
facet normal -0.000000 0.000000 -0.003331
  outer loop
    vertex -19.044981 -2.339117 -16.984001
    vertex -19.055229 -2.388055 -16.984001
    vertex -19.110189 -2.325435 -16.984001
  endloop
endfacet
facet normal 0.000000 -0.000000 -0.003333
  outer loop
    vertex -19.110189 -2.325435 -16.984001
    vertex -19.055229 -2.388055 -16.984001
    vertex -19.120476 -2.374366 -16.984001
  endloop
endfacet
facet normal -0.000000 0.000000 -0.003332
  outer loop
    vertex -18.979759 -2.352750 -16.984001
    vertex -18.989973 -2.401696 -16.984001
    vertex -19.044981 -2.339117 -16.984001
  endloop
endfacet
facet normal 0.000000 -0.000000 -0.003333
  outer loop
    vertex -19.044981 -2.339117 -16.984001
    vertex -18.989973 -2.401696 -16.984001
    vertex -19.055229 -2.388055 -16.984001
  endloop
endfacet
endsolid b'MESH-MESH-MESH-MESH-MESH-MESH-MESH-MESH-MESH-MESH-MESH-MESH-MESH-MESH-MESH-MESH'
