solid b'MESH-MESH-MESH-MESH-MESH-MESH-MESH-MESH-MESH-MESH-MESH-MESH-MESH-MESH-MESH-MESH'
facet normal 0.000384 -0.239400 -0.000000
  outer loop
    vertex -0.473104 -4.301388 -114.481003
    vertex -0.406437 -4.301281 -114.481003
    vertex -0.406437 -4.301282 -110.889999
  endloop
endfacet
facet normal 0.000382 -0.239400 0.000000
  outer loop
    vertex -0.473104 -4.301388 -114.481003
    vertex -0.406437 -4.301282 -110.889999
    vertex -0.473104 -4.301388 -110.889999
  endloop
endfacet
facet normal 0.000205 -0.239400 0.000000
  outer loop
    vertex -0.539771 -4.301445 -114.481003
    vertex -0.473104 -4.301388 -110.889999
    vertex -0.539771 -4.301445 -110.889999
  endloop
endfacet
facet normal 0.000205 -0.239400 0.000000
  outer loop
    vertex -0.539771 -4.301445 -114.481003
    vertex -0.473104 -4.301388 -114.481003
    vertex -0.473104 -4.301388 -110.889999
  endloop
endfacet
facet normal 0.000029 -0.239400 0.000000
  outer loop
    vertex -0.606437 -4.301454 -114.481003
    vertex -0.539771 -4.301445 -110.889999
    vertex -0.606437 -4.301454 -110.889999
  endloop
endfacet
facet normal 0.000029 -0.239400 0.000000
  outer loop
    vertex -0.606437 -4.301454 -114.481003
    vertex -0.539771 -4.301445 -114.481003
    vertex -0.539771 -4.301445 -110.889999
  endloop
endfacet
facet normal -0.179551 0.000045 0.000000
  outer loop
    vertex -0.606437 -4.301454 -114.481003
    vertex -0.606425 -4.251454 -110.889999
    vertex -0.606425 -4.251453 -114.481003
  endloop
endfacet
facet normal -0.179549 0.000045 0.000000
  outer loop
    vertex -0.606437 -4.301454 -110.889999
    vertex -0.606425 -4.251454 -110.889999
    vertex -0.606437 -4.301454 -114.481003
  endloop
endfacet
facet normal -0.000384 0.239267 -0.000000
  outer loop
    vertex -0.406536 -4.251282 -110.889999
    vertex -0.406536 -4.251282 -114.481003
    vertex -0.473165 -4.251389 -110.889999
  endloop
endfacet
facet normal -0.000382 0.239267 0.000000
  outer loop
    vertex -0.406536 -4.251282 -114.481003
    vertex -0.473165 -4.251388 -114.481003
    vertex -0.473165 -4.251389 -110.889999
  endloop
endfacet
facet normal -0.000205 0.239267 -0.000000
  outer loop
    vertex -0.473165 -4.251389 -110.889999
    vertex -0.539795 -4.251446 -114.481003
    vertex -0.539795 -4.251446 -110.889999
  endloop
endfacet
facet normal -0.000207 0.239267 0.000000
  outer loop
    vertex -0.473165 -4.251388 -114.481003
    vertex -0.539795 -4.251446 -114.481003
    vertex -0.473165 -4.251389 -110.889999
  endloop
endfacet
facet normal -0.000029 0.239267 0.000000
  outer loop
    vertex -0.539795 -4.251446 -110.889999
    vertex -0.606425 -4.251453 -114.481003
    vertex -0.606425 -4.251454 -110.889999
  endloop
endfacet
facet normal -0.000027 0.239268 -0.000000
  outer loop
    vertex -0.539795 -4.251446 -114.481003
    vertex -0.606425 -4.251453 -114.481003
    vertex -0.539795 -4.251446 -110.889999
  endloop
endfacet
facet normal 0.179549 0.000353 0.000000
  outer loop
    vertex -0.406536 -4.251282 -114.481003
    vertex -0.406437 -4.301282 -110.889999
    vertex -0.406437 -4.301281 -114.481003
  endloop
endfacet
facet normal 0.179551 0.000353 0.000000
  outer loop
    vertex -0.406536 -4.251282 -110.889999
    vertex -0.406437 -4.301282 -110.889999
    vertex -0.406536 -4.251282 -114.481003
  endloop
endfacet
facet normal 0.000000 0.000000 0.003331
  outer loop
    vertex -0.539795 -4.251446 -110.889999
    vertex -0.606425 -4.251454 -110.889999
    vertex -0.606437 -4.301454 -110.889999
  endloop
endfacet
facet normal 0.000000 0.000000 0.003333
  outer loop
    vertex -0.539771 -4.301445 -110.889999
    vertex -0.539795 -4.251446 -110.889999
    vertex -0.606437 -4.301454 -110.889999
  endloop
endfacet
facet normal 0.000000 0.000000 0.003331
  outer loop
    vertex -0.473104 -4.301388 -110.889999
    vertex -0.473165 -4.251389 -110.889999
    vertex -0.539795 -4.251446 -110.889999
  endloop
endfacet
facet normal 0.000000 0.000000 0.003333
  outer loop
    vertex -0.473104 -4.301388 -110.889999
    vertex -0.539795 -4.251446 -110.889999
    vertex -0.539771 -4.301445 -110.889999
  endloop
endfacet
facet normal 0.000000 0.000000 0.003332
  outer loop
    vertex -0.406437 -4.301282 -110.889999
    vertex -0.406536 -4.251282 -110.889999
    vertex -0.473165 -4.251389 -110.889999
  endloop
endfacet
facet normal 0.000000 0.000000 0.003333
  outer loop
    vertex -0.406437 -4.301282 -110.889999
    vertex -0.473165 -4.251389 -110.889999
    vertex -0.473104 -4.301388 -110.889999
  endloop
endfacet
facet normal 0.000000 -0.000000 -0.003331
  outer loop
    vertex -0.606425 -4.251453 -114.481003
    vertex -0.539795 -4.251446 -114.481003
    vertex -0.606437 -4.301454 -114.481003
  endloop
endfacet
facet normal 0.000000 -0.000000 -0.003333
  outer loop
    vertex -0.539795 -4.251446 -114.481003
    vertex -0.539771 -4.301445 -114.481003
    vertex -0.606437 -4.301454 -114.481003
  endloop
endfacet
facet normal 0.000000 -0.000000 -0.003331
  outer loop
    vertex -0.473165 -4.251388 -114.481003
    vertex -0.473104 -4.301388 -114.481003
    vertex -0.539795 -4.251446 -114.481003
  endloop
endfacet
facet normal 0.000000 0.000000 -0.003333
  outer loop
    vertex -0.539795 -4.251446 -114.481003
    vertex -0.473104 -4.301388 -114.481003
    vertex -0.539771 -4.301445 -114.481003
  endloop
endfacet
facet normal 0.000000 -0.000000 -0.003331
  outer loop
    vertex -0.406536 -4.251282 -114.481003
    vertex -0.406437 -4.301281 -114.481003
    vertex -0.473165 -4.251388 -114.481003
  endloop
endfacet
facet normal 0.000000 0.000000 -0.003333
  outer loop
    vertex -0.473165 -4.251388 -114.481003
    vertex -0.406437 -4.301281 -114.481003
    vertex -0.473104 -4.301388 -114.481003
  endloop
endfacet
endsolid b'MESH-MESH-MESH-MESH-MESH-MESH-MESH-MESH-MESH-MESH-MESH-MESH-MESH-MESH-MESH-MESH'
