solid b'MESH-MESH-MESH-MESH-MESH-MESH-MESH-MESH-MESH-MESH-MESH-MESH-MESH-MESH-MESH-MESH'
facet normal -0.000382 0.239399 0.000000
  outer loop
    vertex 0.473104 4.301388 -140.276993
    vertex 0.406437 4.301282 -140.276993
    vertex 0.406437 4.301281 -136.686005
  endloop
endfacet
facet normal -0.000384 0.239399 -0.000000
  outer loop
    vertex 0.473104 4.301388 -140.276993
    vertex 0.406437 4.301281 -136.686005
    vertex 0.473104 4.301388 -136.686005
  endloop
endfacet
facet normal -0.000205 0.239399 -0.000000
  outer loop
    vertex 0.539770 4.301445 -140.276993
    vertex 0.473104 4.301388 -136.686005
    vertex 0.539770 4.301445 -136.686005
  endloop
endfacet
facet normal -0.000029 0.239399 -0.000000
  outer loop
    vertex 0.539770 4.301445 -140.276993
    vertex 0.539770 4.301445 -136.686005
    vertex 0.606437 4.301454 -136.686005
  endloop
endfacet
facet normal -0.000205 0.239399 -0.000000
  outer loop
    vertex 0.539770 4.301445 -140.276993
    vertex 0.473104 4.301388 -140.276993
    vertex 0.473104 4.301388 -136.686005
  endloop
endfacet
facet normal -0.000029 0.239399 -0.000000
  outer loop
    vertex 0.606437 4.301454 -140.276993
    vertex 0.539770 4.301445 -140.276993
    vertex 0.606437 4.301454 -136.686005
  endloop
endfacet
facet normal 0.179550 -0.000045 0.000000
  outer loop
    vertex 0.606424 4.251453 -140.276993
    vertex 0.606437 4.301454 -140.276993
    vertex 0.606437 4.301454 -136.686005
  endloop
endfacet
facet normal 0.179550 -0.000045 0.000000
  outer loop
    vertex 0.606424 4.251453 -140.276993
    vertex 0.606437 4.301454 -136.686005
    vertex 0.606424 4.251453 -136.686005
  endloop
endfacet
facet normal 0.000382 -0.239266 -0.000000
  outer loop
    vertex 0.406535 4.251282 -136.686005
    vertex 0.473165 4.251389 -140.276993
    vertex 0.473165 4.251388 -136.686005
  endloop
endfacet
facet normal 0.000384 -0.239266 0.000000
  outer loop
    vertex 0.406536 4.251282 -140.276993
    vertex 0.473165 4.251389 -140.276993
    vertex 0.406535 4.251282 -136.686005
  endloop
endfacet
facet normal 0.000205 -0.239266 -0.000000
  outer loop
    vertex 0.473165 4.251388 -136.686005
    vertex 0.539795 4.251446 -140.276993
    vertex 0.539795 4.251445 -136.686005
  endloop
endfacet
facet normal 0.000205 -0.239266 -0.000000
  outer loop
    vertex 0.473165 4.251389 -140.276993
    vertex 0.539795 4.251446 -140.276993
    vertex 0.473165 4.251388 -136.686005
  endloop
endfacet
facet normal 0.000029 -0.239266 0.000000
  outer loop
    vertex 0.539795 4.251445 -136.686005
    vertex 0.606424 4.251453 -140.276993
    vertex 0.606424 4.251453 -136.686005
  endloop
endfacet
facet normal 0.000027 -0.239266 -0.000000
  outer loop
    vertex 0.539795 4.251446 -140.276993
    vertex 0.606424 4.251453 -140.276993
    vertex 0.539795 4.251445 -136.686005
  endloop
endfacet
facet normal -0.179550 -0.000353 -0.000000
  outer loop
    vertex 0.406437 4.301282 -140.276993
    vertex 0.406536 4.251282 -140.276993
    vertex 0.406535 4.251282 -136.686005
  endloop
endfacet
facet normal -0.179548 -0.000354 -0.000000
  outer loop
    vertex 0.406437 4.301282 -140.276993
    vertex 0.406535 4.251282 -136.686005
    vertex 0.406437 4.301281 -136.686005
  endloop
endfacet
facet normal -0.000000 0.000000 -0.003331
  outer loop
    vertex 0.606424 4.251453 -140.276993
    vertex 0.539795 4.251446 -140.276993
    vertex 0.606437 4.301454 -140.276993
  endloop
endfacet
facet normal 0.000000 0.000000 -0.003333
  outer loop
    vertex 0.539795 4.251446 -140.276993
    vertex 0.539770 4.301445 -140.276993
    vertex 0.606437 4.301454 -140.276993
  endloop
endfacet
facet normal 0.000000 0.000000 -0.003331
  outer loop
    vertex 0.473165 4.251389 -140.276993
    vertex 0.473104 4.301388 -140.276993
    vertex 0.539795 4.251446 -140.276993
  endloop
endfacet
facet normal 0.000000 0.000000 -0.003333
  outer loop
    vertex 0.539795 4.251446 -140.276993
    vertex 0.473104 4.301388 -140.276993
    vertex 0.539770 4.301445 -140.276993
  endloop
endfacet
facet normal -0.000000 0.000000 -0.003331
  outer loop
    vertex 0.473165 4.251389 -140.276993
    vertex 0.406536 4.251282 -140.276993
    vertex 0.473104 4.301388 -140.276993
  endloop
endfacet
facet normal 0.000000 0.000000 -0.003333
  outer loop
    vertex 0.406536 4.251282 -140.276993
    vertex 0.406437 4.301282 -140.276993
    vertex 0.473104 4.301388 -140.276993
  endloop
endfacet
facet normal 0.000000 0.000000 0.003331
  outer loop
    vertex 0.539795 4.251445 -136.686005
    vertex 0.606424 4.251453 -136.686005
    vertex 0.606437 4.301454 -136.686005
  endloop
endfacet
facet normal -0.000000 0.000000 0.003333
  outer loop
    vertex 0.539770 4.301445 -136.686005
    vertex 0.539795 4.251445 -136.686005
    vertex 0.606437 4.301454 -136.686005
  endloop
endfacet
facet normal 0.000000 0.000000 0.003331
  outer loop
    vertex 0.473104 4.301388 -136.686005
    vertex 0.473165 4.251388 -136.686005
    vertex 0.539795 4.251445 -136.686005
  endloop
endfacet
facet normal -0.000000 0.000000 0.003333
  outer loop
    vertex 0.473104 4.301388 -136.686005
    vertex 0.539795 4.251445 -136.686005
    vertex 0.539770 4.301445 -136.686005
  endloop
endfacet
facet normal 0.000000 0.000000 0.003331
  outer loop
    vertex 0.406437 4.301281 -136.686005
    vertex 0.406535 4.251282 -136.686005
    vertex 0.473165 4.251388 -136.686005
  endloop
endfacet
facet normal -0.000000 0.000000 0.003333
  outer loop
    vertex 0.406437 4.301281 -136.686005
    vertex 0.473165 4.251388 -136.686005
    vertex 0.473104 4.301388 -136.686005
  endloop
endfacet
endsolid b'MESH-MESH-MESH-MESH-MESH-MESH-MESH-MESH-MESH-MESH-MESH-MESH-MESH-MESH-MESH-MESH'
