solid b'MESH-MESH-MESH-MESH-MESH-MESH-MESH-MESH-MESH-MESH-MESH-MESH-MESH-MESH-MESH-MESH'
facet normal -0.000382 -0.239400 0.000000
  outer loop
    vertex 0.473077 -4.301387 -6.151000
    vertex 0.406411 -4.301280 -6.151000
    vertex 0.406411 -4.301280 -9.742000
  endloop
endfacet
facet normal -0.000382 -0.239400 -0.000000
  outer loop
    vertex 0.473077 -4.301387 -6.151000
    vertex 0.406411 -4.301280 -9.742000
    vertex 0.473077 -4.301387 -9.742000
  endloop
endfacet
facet normal -0.000205 -0.239400 -0.000000
  outer loop
    vertex 0.539744 -4.301444 -6.151000
    vertex 0.473077 -4.301387 -9.742000
    vertex 0.539744 -4.301444 -9.742000
  endloop
endfacet
facet normal -0.000205 -0.239400 0.000000
  outer loop
    vertex 0.539744 -4.301444 -6.151000
    vertex 0.473077 -4.301387 -6.151000
    vertex 0.473077 -4.301387 -9.742000
  endloop
endfacet
facet normal -0.000029 -0.239400 -0.000000
  outer loop
    vertex 0.606411 -4.301452 -6.151000
    vertex 0.539744 -4.301444 -9.742000
    vertex 0.606411 -4.301452 -9.742000
  endloop
endfacet
facet normal -0.000029 -0.239400 0.000000
  outer loop
    vertex 0.606411 -4.301452 -6.151000
    vertex 0.539744 -4.301444 -6.151000
    vertex 0.539744 -4.301444 -9.742000
  endloop
endfacet
facet normal 0.179549 0.000045 0.000000
  outer loop
    vertex 0.606398 -4.251452 -6.151000
    vertex 0.606411 -4.301452 -6.151000
    vertex 0.606411 -4.301452 -9.742000
  endloop
endfacet
facet normal 0.179549 0.000045 0.000000
  outer loop
    vertex 0.606398 -4.251452 -6.151000
    vertex 0.606411 -4.301452 -9.742000
    vertex 0.606398 -4.251452 -9.742000
  endloop
endfacet
facet normal 0.000384 0.239267 0.000000
  outer loop
    vertex 0.406509 -4.251280 -9.742000
    vertex 0.473139 -4.251387 -6.151000
    vertex 0.473139 -4.251387 -9.742000
  endloop
endfacet
facet normal 0.000384 0.239267 0.000000
  outer loop
    vertex 0.406509 -4.251280 -6.151000
    vertex 0.473139 -4.251387 -6.151000
    vertex 0.406509 -4.251280 -9.742000
  endloop
endfacet
facet normal 0.000205 0.239267 0.000000
  outer loop
    vertex 0.473139 -4.251387 -9.742000
    vertex 0.539768 -4.251444 -6.151000
    vertex 0.539768 -4.251444 -9.742000
  endloop
endfacet
facet normal 0.000205 0.239267 0.000000
  outer loop
    vertex 0.473139 -4.251387 -6.151000
    vertex 0.539768 -4.251444 -6.151000
    vertex 0.473139 -4.251387 -9.742000
  endloop
endfacet
facet normal 0.000029 0.239267 0.000000
  outer loop
    vertex 0.539768 -4.251444 -9.742000
    vertex 0.606398 -4.251452 -6.151000
    vertex 0.606398 -4.251452 -9.742000
  endloop
endfacet
facet normal 0.000029 0.239267 0.000000
  outer loop
    vertex 0.539768 -4.251444 -6.151000
    vertex 0.606398 -4.251452 -6.151000
    vertex 0.539768 -4.251444 -9.742000
  endloop
endfacet
facet normal -0.179551 0.000353 0.000000
  outer loop
    vertex 0.406411 -4.301280 -6.151000
    vertex 0.406509 -4.251280 -6.151000
    vertex 0.406509 -4.251280 -9.742000
  endloop
endfacet
facet normal -0.179551 0.000353 0.000000
  outer loop
    vertex 0.406411 -4.301280 -6.151000
    vertex 0.406509 -4.251280 -9.742000
    vertex 0.406411 -4.301280 -9.742000
  endloop
endfacet
facet normal 0.000000 0.000000 0.003331
  outer loop
    vertex 0.606398 -4.251452 -6.151000
    vertex 0.539768 -4.251444 -6.151000
    vertex 0.606411 -4.301452 -6.151000
  endloop
endfacet
facet normal 0.000000 0.000000 0.003333
  outer loop
    vertex 0.539768 -4.251444 -6.151000
    vertex 0.539744 -4.301444 -6.151000
    vertex 0.606411 -4.301452 -6.151000
  endloop
endfacet
facet normal 0.000000 0.000000 0.003331
  outer loop
    vertex 0.473139 -4.251387 -6.151000
    vertex 0.473077 -4.301387 -6.151000
    vertex 0.539768 -4.251444 -6.151000
  endloop
endfacet
facet normal 0.000000 0.000000 0.003333
  outer loop
    vertex 0.539768 -4.251444 -6.151000
    vertex 0.473077 -4.301387 -6.151000
    vertex 0.539744 -4.301444 -6.151000
  endloop
endfacet
facet normal 0.000000 0.000000 0.003332
  outer loop
    vertex 0.406509 -4.251280 -6.151000
    vertex 0.406411 -4.301280 -6.151000
    vertex 0.473139 -4.251387 -6.151000
  endloop
endfacet
facet normal 0.000000 0.000000 0.003333
  outer loop
    vertex 0.473139 -4.251387 -6.151000
    vertex 0.406411 -4.301280 -6.151000
    vertex 0.473077 -4.301387 -6.151000
  endloop
endfacet
facet normal 0.000000 0.000000 -0.003331
  outer loop
    vertex 0.539768 -4.251444 -9.742000
    vertex 0.606398 -4.251452 -9.742000
    vertex 0.606411 -4.301452 -9.742000
  endloop
endfacet
facet normal 0.000000 0.000000 -0.003333
  outer loop
    vertex 0.539744 -4.301444 -9.742000
    vertex 0.539768 -4.251444 -9.742000
    vertex 0.606411 -4.301452 -9.742000
  endloop
endfacet
facet normal 0.000000 0.000000 -0.003331
  outer loop
    vertex 0.473077 -4.301387 -9.742000
    vertex 0.473139 -4.251387 -9.742000
    vertex 0.539768 -4.251444 -9.742000
  endloop
endfacet
facet normal 0.000000 0.000000 -0.003333
  outer loop
    vertex 0.473077 -4.301387 -9.742000
    vertex 0.539768 -4.251444 -9.742000
    vertex 0.539744 -4.301444 -9.742000
  endloop
endfacet
facet normal 0.000000 0.000000 -0.003332
  outer loop
    vertex 0.406411 -4.301280 -9.742000
    vertex 0.406509 -4.251280 -9.742000
    vertex 0.473139 -4.251387 -9.742000
  endloop
endfacet
facet normal 0.000000 0.000000 -0.003333
  outer loop
    vertex 0.406411 -4.301280 -9.742000
    vertex 0.473139 -4.251387 -9.742000
    vertex 0.473077 -4.301387 -9.742000
  endloop
endfacet
endsolid b'MESH-MESH-MESH-MESH-MESH-MESH-MESH-MESH-MESH-MESH-MESH-MESH-MESH-MESH-MESH-MESH'
