solid b'MESH-MESH-MESH-MESH-MESH-MESH-MESH-MESH-MESH-MESH-MESH-MESH-MESH-MESH-MESH-MESH'
facet normal -0.048984 0.234335 0.000000
  outer loop
    vertex -19.055239 2.388053 -194.501999
    vertex -18.989983 2.401694 -194.501999
    vertex -18.989983 2.401695 -198.093002
  endloop
endfacet
facet normal -0.048984 0.234335 0.000000
  outer loop
    vertex -19.055239 2.388053 -194.501999
    vertex -18.989983 2.401695 -198.093002
    vertex -19.055239 2.388054 -198.093002
  endloop
endfacet
facet normal -0.049158 0.234301 0.000000
  outer loop
    vertex -19.120485 2.374364 -194.501999
    vertex -19.055239 2.388054 -198.093002
    vertex -19.120485 2.374364 -198.093002
  endloop
endfacet
facet normal -0.049331 0.234260 0.000000
  outer loop
    vertex -19.120485 2.374364 -194.501999
    vertex -19.120485 2.374364 -198.093002
    vertex -19.185720 2.360627 -198.093002
  endloop
endfacet
facet normal -0.049157 0.234301 0.000000
  outer loop
    vertex -19.120485 2.374364 -194.501999
    vertex -19.055239 2.388053 -194.501999
    vertex -19.055239 2.388054 -198.093002
  endloop
endfacet
facet normal -0.049331 0.234260 0.000000
  outer loop
    vertex -19.185720 2.360627 -194.501999
    vertex -19.120485 2.374364 -194.501999
    vertex -19.185720 2.360627 -198.093002
  endloop
endfacet
facet normal -0.175684 -0.037062 -0.000000
  outer loop
    vertex -19.185720 2.360627 -194.501999
    vertex -19.175400 2.311704 -198.093002
    vertex -19.175400 2.311704 -194.501999
  endloop
endfacet
facet normal -0.175683 -0.037062 0.000000
  outer loop
    vertex -19.185720 2.360627 -198.093002
    vertex -19.175400 2.311704 -198.093002
    vertex -19.185720 2.360627 -194.501999
  endloop
endfacet
facet normal 0.048958 -0.234205 -0.000000
  outer loop
    vertex -18.979771 2.352749 -198.093002
    vertex -18.979771 2.352748 -194.501999
    vertex -19.044991 2.339115 -198.093002
  endloop
endfacet
facet normal 0.048957 -0.234205 0.000000
  outer loop
    vertex -18.979771 2.352748 -194.501999
    vertex -19.044991 2.339115 -194.501999
    vertex -19.044991 2.339115 -198.093002
  endloop
endfacet
facet normal 0.049130 -0.234171 -0.000000
  outer loop
    vertex -19.044991 2.339115 -198.093002
    vertex -19.110201 2.325433 -194.501999
    vertex -19.110201 2.325434 -198.093002
  endloop
endfacet
facet normal 0.049304 -0.234129 -0.000000
  outer loop
    vertex -19.110201 2.325434 -198.093002
    vertex -19.110201 2.325433 -194.501999
    vertex -19.175400 2.311704 -198.093002
  endloop
endfacet
facet normal 0.049131 -0.234171 0.000000
  outer loop
    vertex -19.044991 2.339115 -194.501999
    vertex -19.110201 2.325433 -194.501999
    vertex -19.044991 2.339115 -198.093002
  endloop
endfacet
facet normal 0.049304 -0.234129 -0.000000
  outer loop
    vertex -19.110201 2.325433 -194.501999
    vertex -19.175400 2.311704 -194.501999
    vertex -19.175400 2.311704 -198.093002
  endloop
endfacet
facet normal 0.175765 0.036671 0.000000
  outer loop
    vertex -18.979771 2.352748 -194.501999
    vertex -18.989983 2.401695 -198.093002
    vertex -18.989983 2.401694 -194.501999
  endloop
endfacet
facet normal 0.175765 0.036671 0.000000
  outer loop
    vertex -18.979771 2.352749 -198.093002
    vertex -18.989983 2.401695 -198.093002
    vertex -18.979771 2.352748 -194.501999
  endloop
endfacet
facet normal -0.000000 0.000000 -0.003331
  outer loop
    vertex -19.110201 2.325434 -198.093002
    vertex -19.175400 2.311704 -198.093002
    vertex -19.185720 2.360627 -198.093002
  endloop
endfacet
facet normal 0.000000 -0.000000 -0.003333
  outer loop
    vertex -19.120485 2.374364 -198.093002
    vertex -19.110201 2.325434 -198.093002
    vertex -19.185720 2.360627 -198.093002
  endloop
endfacet
facet normal -0.000000 0.000000 -0.003331
  outer loop
    vertex -19.044991 2.339115 -198.093002
    vertex -19.110201 2.325434 -198.093002
    vertex -19.120485 2.374364 -198.093002
  endloop
endfacet
facet normal 0.000000 -0.000000 -0.003333
  outer loop
    vertex -19.055239 2.388054 -198.093002
    vertex -19.044991 2.339115 -198.093002
    vertex -19.120485 2.374364 -198.093002
  endloop
endfacet
facet normal 0.000000 -0.000000 -0.003331
  outer loop
    vertex -18.989983 2.401695 -198.093002
    vertex -18.979771 2.352749 -198.093002
    vertex -19.044991 2.339115 -198.093002
  endloop
endfacet
facet normal 0.000000 0.000000 -0.003333
  outer loop
    vertex -18.989983 2.401695 -198.093002
    vertex -19.044991 2.339115 -198.093002
    vertex -19.055239 2.388054 -198.093002
  endloop
endfacet
facet normal 0.000000 -0.000000 0.003331
  outer loop
    vertex -19.175400 2.311704 -194.501999
    vertex -19.110201 2.325433 -194.501999
    vertex -19.185720 2.360627 -194.501999
  endloop
endfacet
facet normal 0.000000 0.000000 0.003333
  outer loop
    vertex -19.110201 2.325433 -194.501999
    vertex -19.120485 2.374364 -194.501999
    vertex -19.185720 2.360627 -194.501999
  endloop
endfacet
facet normal 0.000000 -0.000000 0.003332
  outer loop
    vertex -19.110201 2.325433 -194.501999
    vertex -19.044991 2.339115 -194.501999
    vertex -19.120485 2.374364 -194.501999
  endloop
endfacet
facet normal 0.000000 0.000000 0.003333
  outer loop
    vertex -19.044991 2.339115 -194.501999
    vertex -19.055239 2.388053 -194.501999
    vertex -19.120485 2.374364 -194.501999
  endloop
endfacet
facet normal 0.000000 -0.000000 0.003331
  outer loop
    vertex -19.044991 2.339115 -194.501999
    vertex -18.979771 2.352748 -194.501999
    vertex -19.055239 2.388053 -194.501999
  endloop
endfacet
facet normal 0.000000 0.000000 0.003333
  outer loop
    vertex -18.979771 2.352748 -194.501999
    vertex -18.989983 2.401694 -194.501999
    vertex -19.055239 2.388053 -194.501999
  endloop
endfacet
endsolid b'MESH-MESH-MESH-MESH-MESH-MESH-MESH-MESH-MESH-MESH-MESH-MESH-MESH-MESH-MESH-MESH'
