solid b'MESH-MESH-MESH-MESH-MESH-MESH-MESH-MESH-MESH-MESH-MESH-MESH-MESH-MESH-MESH-MESH'
facet normal -0.000382 0.239399 -0.000000
  outer loop
    vertex 0.406437 4.301281 125.314003
    vertex 0.406437 4.301281 128.904999
    vertex 0.473104 4.301388 128.904999
  endloop
endfacet
facet normal -0.000205 0.239400 0.000000
  outer loop
    vertex 0.473104 4.301388 125.314003
    vertex 0.473104 4.301388 128.904999
    vertex 0.539770 4.301445 128.904999
  endloop
endfacet
facet normal -0.000384 0.239399 0.000000
  outer loop
    vertex 0.473104 4.301388 125.314003
    vertex 0.406437 4.301281 125.314003
    vertex 0.473104 4.301388 128.904999
  endloop
endfacet
facet normal -0.000029 0.239400 0.000000
  outer loop
    vertex 0.539770 4.301445 125.314003
    vertex 0.539770 4.301445 128.904999
    vertex 0.606437 4.301453 128.904999
  endloop
endfacet
facet normal -0.000205 0.239400 0.000000
  outer loop
    vertex 0.539770 4.301445 125.314003
    vertex 0.473104 4.301388 125.314003
    vertex 0.539770 4.301445 128.904999
  endloop
endfacet
facet normal -0.000029 0.239400 0.000000
  outer loop
    vertex 0.606437 4.301454 125.314003
    vertex 0.539770 4.301445 125.314003
    vertex 0.606437 4.301453 128.904999
  endloop
endfacet
facet normal 0.179550 -0.000045 0.000000
  outer loop
    vertex 0.606424 4.251453 125.314003
    vertex 0.606437 4.301454 125.314003
    vertex 0.606437 4.301453 128.904999
  endloop
endfacet
facet normal 0.179549 -0.000045 0.000000
  outer loop
    vertex 0.606424 4.251453 125.314003
    vertex 0.606437 4.301453 128.904999
    vertex 0.606424 4.251453 128.904999
  endloop
endfacet
facet normal 0.000384 -0.239267 0.000000
  outer loop
    vertex 0.406535 4.251281 128.904999
    vertex 0.473165 4.251388 125.314003
    vertex 0.473165 4.251388 128.904999
  endloop
endfacet
facet normal 0.000382 -0.239267 -0.000000
  outer loop
    vertex 0.406535 4.251282 125.314003
    vertex 0.473165 4.251388 125.314003
    vertex 0.406535 4.251281 128.904999
  endloop
endfacet
facet normal 0.000205 -0.239267 0.000000
  outer loop
    vertex 0.473165 4.251388 128.904999
    vertex 0.539795 4.251445 125.314003
    vertex 0.539795 4.251445 128.904999
  endloop
endfacet
facet normal 0.000205 -0.239267 0.000000
  outer loop
    vertex 0.473165 4.251388 125.314003
    vertex 0.539795 4.251445 125.314003
    vertex 0.473165 4.251388 128.904999
  endloop
endfacet
facet normal 0.000029 -0.239267 0.000000
  outer loop
    vertex 0.539795 4.251445 128.904999
    vertex 0.606424 4.251453 125.314003
    vertex 0.606424 4.251453 128.904999
  endloop
endfacet
facet normal 0.000029 -0.239267 0.000000
  outer loop
    vertex 0.539795 4.251445 125.314003
    vertex 0.606424 4.251453 125.314003
    vertex 0.539795 4.251445 128.904999
  endloop
endfacet
facet normal -0.179549 -0.000353 -0.000000
  outer loop
    vertex 0.406437 4.301281 125.314003
    vertex 0.406535 4.251282 125.314003
    vertex 0.406535 4.251281 128.904999
  endloop
endfacet
facet normal -0.179550 -0.000353 -0.000000
  outer loop
    vertex 0.406437 4.301281 125.314003
    vertex 0.406535 4.251281 128.904999
    vertex 0.406437 4.301281 128.904999
  endloop
endfacet
facet normal -0.000000 0.000000 -0.003331
  outer loop
    vertex 0.606424 4.251453 125.314003
    vertex 0.539795 4.251445 125.314003
    vertex 0.606437 4.301454 125.314003
  endloop
endfacet
facet normal 0.000000 0.000000 -0.003333
  outer loop
    vertex 0.539795 4.251445 125.314003
    vertex 0.539770 4.301445 125.314003
    vertex 0.606437 4.301454 125.314003
  endloop
endfacet
facet normal 0.000000 0.000000 -0.003331
  outer loop
    vertex 0.473165 4.251388 125.314003
    vertex 0.473104 4.301388 125.314003
    vertex 0.539795 4.251445 125.314003
  endloop
endfacet
facet normal 0.000000 0.000000 -0.003333
  outer loop
    vertex 0.539795 4.251445 125.314003
    vertex 0.473104 4.301388 125.314003
    vertex 0.539770 4.301445 125.314003
  endloop
endfacet
facet normal -0.000000 0.000000 -0.003331
  outer loop
    vertex 0.473165 4.251388 125.314003
    vertex 0.406535 4.251282 125.314003
    vertex 0.473104 4.301388 125.314003
  endloop
endfacet
facet normal 0.000000 0.000000 -0.003333
  outer loop
    vertex 0.406535 4.251282 125.314003
    vertex 0.406437 4.301281 125.314003
    vertex 0.473104 4.301388 125.314003
  endloop
endfacet
facet normal 0.000000 0.000000 0.003331
  outer loop
    vertex 0.539770 4.301445 128.904999
    vertex 0.539795 4.251445 128.904999
    vertex 0.606424 4.251453 128.904999
  endloop
endfacet
facet normal -0.000000 0.000000 0.003333
  outer loop
    vertex 0.539770 4.301445 128.904999
    vertex 0.606424 4.251453 128.904999
    vertex 0.606437 4.301453 128.904999
  endloop
endfacet
facet normal 0.000000 0.000000 0.003331
  outer loop
    vertex 0.473165 4.251388 128.904999
    vertex 0.539795 4.251445 128.904999
    vertex 0.539770 4.301445 128.904999
  endloop
endfacet
facet normal -0.000000 0.000000 0.003333
  outer loop
    vertex 0.473104 4.301388 128.904999
    vertex 0.473165 4.251388 128.904999
    vertex 0.539770 4.301445 128.904999
  endloop
endfacet
facet normal 0.000000 0.000000 0.003331
  outer loop
    vertex 0.406535 4.251281 128.904999
    vertex 0.473165 4.251388 128.904999
    vertex 0.473104 4.301388 128.904999
  endloop
endfacet
facet normal -0.000000 0.000000 0.003333
  outer loop
    vertex 0.406437 4.301281 128.904999
    vertex 0.406535 4.251281 128.904999
    vertex 0.473104 4.301388 128.904999
  endloop
endfacet
endsolid b'MESH-MESH-MESH-MESH-MESH-MESH-MESH-MESH-MESH-MESH-MESH-MESH-MESH-MESH-MESH-MESH'
