solid b'MESH-MESH-MESH-MESH-MESH-MESH-MESH-MESH-MESH-MESH-MESH-MESH-MESH-MESH-MESH-MESH'
facet normal 0.048984 -0.234334 0.000000
  outer loop
    vertex 18.989992 -2.401692 -96.406006
    vertex 18.989992 -2.401692 -99.997002
    vertex 19.055248 -2.388052 -99.997002
  endloop
endfacet
facet normal 0.049158 -0.234300 0.000000
  outer loop
    vertex 19.055248 -2.388052 -96.406006
    vertex 19.055248 -2.388052 -99.997002
    vertex 19.120495 -2.374362 -99.997002
  endloop
endfacet
facet normal 0.048984 -0.234334 0.000000
  outer loop
    vertex 19.055248 -2.388052 -96.406006
    vertex 18.989992 -2.401692 -96.406006
    vertex 19.055248 -2.388052 -99.997002
  endloop
endfacet
facet normal 0.049331 -0.234259 -0.000000
  outer loop
    vertex 19.120495 -2.374362 -96.406006
    vertex 19.120495 -2.374362 -99.997002
    vertex 19.185730 -2.360625 -99.997002
  endloop
endfacet
facet normal 0.049157 -0.234300 -0.000000
  outer loop
    vertex 19.120495 -2.374362 -96.406006
    vertex 19.055248 -2.388052 -96.406006
    vertex 19.120495 -2.374362 -99.997002
  endloop
endfacet
facet normal 0.049331 -0.234259 -0.000000
  outer loop
    vertex 19.185730 -2.360625 -96.406006
    vertex 19.120495 -2.374362 -96.406006
    vertex 19.185730 -2.360625 -99.997002
  endloop
endfacet
facet normal 0.175683 0.037061 0.000000
  outer loop
    vertex 19.175409 -2.311702 -96.406006
    vertex 19.185730 -2.360625 -96.406006
    vertex 19.185730 -2.360625 -99.997002
  endloop
endfacet
facet normal 0.175682 0.037061 0.000000
  outer loop
    vertex 19.175409 -2.311702 -96.406006
    vertex 19.185730 -2.360625 -99.997002
    vertex 19.175409 -2.311702 -99.997002
  endloop
endfacet
facet normal -0.048958 0.234204 0.000000
  outer loop
    vertex 18.979778 -2.352746 -99.997002
    vertex 19.045000 -2.339113 -96.406006
    vertex 19.044998 -2.339113 -99.997002
  endloop
endfacet
facet normal -0.048957 0.234211 0.000000
  outer loop
    vertex 18.979778 -2.352746 -96.406006
    vertex 19.045000 -2.339113 -96.406006
    vertex 18.979778 -2.352746 -99.997002
  endloop
endfacet
facet normal -0.049130 0.234170 0.000000
  outer loop
    vertex 19.044998 -2.339113 -99.997002
    vertex 19.110209 -2.325432 -96.406006
    vertex 19.110209 -2.325432 -99.997002
  endloop
endfacet
facet normal -0.049304 0.234136 0.000000
  outer loop
    vertex 19.110209 -2.325432 -99.997002
    vertex 19.110209 -2.325432 -96.406006
    vertex 19.175409 -2.311702 -99.997002
  endloop
endfacet
facet normal -0.049131 0.234163 0.000000
  outer loop
    vertex 19.045000 -2.339113 -96.406006
    vertex 19.110209 -2.325432 -96.406006
    vertex 19.044998 -2.339113 -99.997002
  endloop
endfacet
facet normal -0.049304 0.234136 0.000000
  outer loop
    vertex 19.110209 -2.325432 -96.406006
    vertex 19.175409 -2.311702 -96.406006
    vertex 19.175409 -2.311702 -99.997002
  endloop
endfacet
facet normal -0.175765 -0.036678 -0.000000
  outer loop
    vertex 18.979778 -2.352746 -96.406006
    vertex 18.979778 -2.352746 -99.997002
    vertex 18.989992 -2.401692 -99.997002
  endloop
endfacet
facet normal -0.175765 -0.036678 -0.000000
  outer loop
    vertex 18.989992 -2.401692 -96.406006
    vertex 18.979778 -2.352746 -96.406006
    vertex 18.989992 -2.401692 -99.997002
  endloop
endfacet
facet normal -0.000000 0.000000 0.003332
  outer loop
    vertex 19.110209 -2.325432 -96.406006
    vertex 19.120495 -2.374362 -96.406006
    vertex 19.175409 -2.311702 -96.406006
  endloop
endfacet
facet normal 0.000000 0.000000 0.003333
  outer loop
    vertex 19.175409 -2.311702 -96.406006
    vertex 19.120495 -2.374362 -96.406006
    vertex 19.185730 -2.360625 -96.406006
  endloop
endfacet
facet normal -0.000000 0.000000 0.003331
  outer loop
    vertex 19.045000 -2.339113 -96.406006
    vertex 19.055248 -2.388052 -96.406006
    vertex 19.110209 -2.325432 -96.406006
  endloop
endfacet
facet normal 0.000000 0.000000 0.003333
  outer loop
    vertex 19.110209 -2.325432 -96.406006
    vertex 19.055248 -2.388052 -96.406006
    vertex 19.120495 -2.374362 -96.406006
  endloop
endfacet
facet normal -0.000000 0.000000 0.003332
  outer loop
    vertex 18.979778 -2.352746 -96.406006
    vertex 18.989992 -2.401692 -96.406006
    vertex 19.045000 -2.339113 -96.406006
  endloop
endfacet
facet normal 0.000000 0.000000 0.003333
  outer loop
    vertex 19.045000 -2.339113 -96.406006
    vertex 18.989992 -2.401692 -96.406006
    vertex 19.055248 -2.388052 -96.406006
  endloop
endfacet
facet normal 0.000000 0.000000 -0.003332
  outer loop
    vertex 19.110209 -2.325432 -99.997002
    vertex 19.175409 -2.311702 -99.997002
    vertex 19.185730 -2.360625 -99.997002
  endloop
endfacet
facet normal 0.000000 0.000000 -0.003333
  outer loop
    vertex 19.120495 -2.374362 -99.997002
    vertex 19.110209 -2.325432 -99.997002
    vertex 19.185730 -2.360625 -99.997002
  endloop
endfacet
facet normal 0.000000 0.000000 -0.003332
  outer loop
    vertex 19.055248 -2.388052 -99.997002
    vertex 19.044998 -2.339113 -99.997002
    vertex 19.110209 -2.325432 -99.997002
  endloop
endfacet
facet normal 0.000000 0.000000 -0.003333
  outer loop
    vertex 19.055248 -2.388052 -99.997002
    vertex 19.110209 -2.325432 -99.997002
    vertex 19.120495 -2.374362 -99.997002
  endloop
endfacet
facet normal 0.000000 0.000000 -0.003331
  outer loop
    vertex 18.989992 -2.401692 -99.997002
    vertex 18.979778 -2.352746 -99.997002
    vertex 19.044998 -2.339113 -99.997002
  endloop
endfacet
facet normal 0.000000 0.000000 -0.003333
  outer loop
    vertex 18.989992 -2.401692 -99.997002
    vertex 19.044998 -2.339113 -99.997002
    vertex 19.055248 -2.388052 -99.997002
  endloop
endfacet
endsolid b'MESH-MESH-MESH-MESH-MESH-MESH-MESH-MESH-MESH-MESH-MESH-MESH-MESH-MESH-MESH-MESH'
