solid 
facet normal -0.0 0.0 -1.0
outer loop
vertex 19.452287674 -2.30955195427 131.934997559
vertex 18.9008312225 -2.42784667015 131.934997559
vertex 19.431312561 -2.21177625656 131.934997559
endloop
endfacet
facet normal 0.0 0.0 -1.0
outer loop
vertex 19.431312561 -2.21177625656 131.934997559
vertex 18.9008312225 -2.42784667015 131.934997559
vertex 18.879858017 -2.33007097244 131.934997559
endloop
endfacet
facet normal 0.0 0.0 -1.0
outer loop
vertex 18.879858017 -2.33007097244 131.934997559
vertex 14.7417221069 -3.21838116646 131.934997559
vertex 14.7253608704 -3.11972856522 131.934997559
endloop
endfacet
facet normal -0.0 0.0 -1.0
outer loop
vertex 18.9008312225 -2.42784667015 131.934997559
vertex 14.7417221069 -3.21838116646 131.934997559
vertex 18.879858017 -2.33007097244 131.934997559
endloop
endfacet
facet normal 0.0 0.0 -1.0
outer loop
vertex 14.7253608704 -3.11972856522 131.934997559
vertex 10.5500888824 -3.81281208992 131.934997559
vertex 10.5383768082 -3.71350026131 131.934997559
endloop
endfacet
facet normal -0.0 0.0 -1.0
outer loop
vertex 14.7417221069 -3.21838116646 131.934997559
vertex 10.5500888824 -3.81281208992 131.934997559
vertex 14.7253608704 -3.11972856522 131.934997559
endloop
endfacet
facet normal 0.0 0.0 -1.0
outer loop
vertex 10.5383768082 -3.71350026131 131.934997559
vertex 6.33517313004 -4.20982885361 131.934997559
vertex 6.32813549042 -4.1100769043 131.934997559
endloop
endfacet
facet normal -0.0 0.0 -1.0
outer loop
vertex 10.5500888824 -3.81281208992 131.934997559
vertex 6.33517313004 -4.20982885361 131.934997559
vertex 10.5383768082 -3.71350026131 131.934997559
endloop
endfacet
facet normal 0.0 0.0 -1.0
outer loop
vertex 6.32813549042 -4.1100769043 131.934997559
vertex 2.10626721382 -4.40855646133 131.934997559
vertex 2.10391950607 -4.30858373642 131.934997559
endloop
endfacet
facet normal -0.0 0.0 -1.0
outer loop
vertex 6.33517313004 -4.20982885361 131.934997559
vertex 2.10626721382 -4.40855646133 131.934997559
vertex 6.32813549042 -4.1100769043 131.934997559
endloop
endfacet
facet normal -0.0 0.0 -1.0
outer loop
vertex 2.10391950607 -4.30858373642 131.934997559
vertex -2.12730550766 -4.40855646133 131.934997559
vertex -2.12495779991 -4.30858373642 131.934997559
endloop
endfacet
facet normal 0.0 0.0 -1.0
outer loop
vertex 2.10626721382 -4.40855646133 131.934997559
vertex -2.12730550766 -4.40855646133 131.934997559
vertex 2.10391950607 -4.30858373642 131.934997559
endloop
endfacet
facet normal 0.0 0.0 -1.0
outer loop
vertex -2.12495779991 -4.30858373642 131.934997559
vertex -6.35621166229 -4.20982885361 131.934997559
vertex -6.34917354584 -4.1100769043 131.934997559
endloop
endfacet
facet normal 0.0 0.0 -1.0
outer loop
vertex -2.12730550766 -4.40855646133 131.934997559
vertex -6.35621166229 -4.20982885361 131.934997559
vertex -2.12495779991 -4.30858373642 131.934997559
endloop
endfacet
facet normal 0.0 0.0 -1.0
outer loop
vertex -6.34917354584 -4.1100769043 131.934997559
vertex -10.5711269379 -3.81281208992 131.934997559
vertex -10.5594148636 -3.71350026131 131.934997559
endloop
endfacet
facet normal 0.0 0.0 -1.0
outer loop
vertex -6.35621166229 -4.20982885361 131.934997559
vertex -10.5711269379 -3.81281208992 131.934997559
vertex -6.34917354584 -4.1100769043 131.934997559
endloop
endfacet
facet normal 0.0 0.0 -1.0
outer loop
vertex -10.5594148636 -3.71350026131 131.934997559
vertex -14.762761116 -3.21838116646 131.934997559
vertex -14.7463989258 -3.11972856522 131.934997559
endloop
endfacet
facet normal 0.0 0.0 -1.0
outer loop
vertex -10.5711269379 -3.81281208992 131.934997559
vertex -14.762761116 -3.21838116646 131.934997559
vertex -10.5594148636 -3.71350026131 131.934997559
endloop
endfacet
facet normal 0.0 0.0 -1.0
outer loop
vertex -14.7463989258 -3.11972856522 131.934997559
vertex -18.9218711853 -2.42784667015 131.934997559
vertex -18.9008960724 -2.33007097244 131.934997559
endloop
endfacet
facet normal 0.0 0.0 -1.0
outer loop
vertex -14.762761116 -3.21838116646 131.934997559
vertex -18.9218711853 -2.42784667015 131.934997559
vertex -14.7463989258 -3.11972856522 131.934997559
endloop
endfacet
facet normal 0.0 0.0 -1.0
outer loop
vertex -18.9218711853 -2.42784667015 131.934997559
vertex -19.4523506165 -2.21177625656 131.934997559
vertex -18.9008960724 -2.33007097244 131.934997559
endloop
endfacet
facet normal 0.0 0.0 -1.0
outer loop
vertex -18.9218711853 -2.42784667015 131.934997559
vertex -19.4733257294 -2.30955195427 131.934997559
vertex -19.4523506165 -2.21177625656 131.934997559
endloop
endfacet
facet normal 0.0 0.0 1.0
outer loop
vertex 18.9008312225 -2.42784667015 268.065002441
vertex 19.452287674 -2.30955195427 268.065002441
vertex 19.431312561 -2.21177625656 268.065002441
endloop
endfacet
facet normal 0.0 -0.0 1.0
outer loop
vertex 18.9008312225 -2.42784667015 268.065002441
vertex 19.431312561 -2.21177625656 268.065002441
vertex 18.879858017 -2.33007097244 268.065002441
endloop
endfacet
facet normal 0.0 -0.0 1.0
outer loop
vertex 14.7417221069 -3.21838116646 268.065002441
vertex 18.879858017 -2.33007097244 268.065002441
vertex 14.7253608704 -3.11972856522 268.065002441
endloop
endfacet
facet normal 0.0 0.0 1.0
outer loop
vertex 14.7417221069 -3.21838116646 268.065002441
vertex 18.9008312225 -2.42784667015 268.065002441
vertex 18.879858017 -2.33007097244 268.065002441
endloop
endfacet
facet normal 0.0 -0.0 1.0
outer loop
vertex 10.5500888824 -3.81281208992 268.065002441
vertex 14.7253608704 -3.11972856522 268.065002441
vertex 10.5383768082 -3.71350026131 268.065002441
endloop
endfacet
facet normal 0.0 0.0 1.0
outer loop
vertex 10.5500888824 -3.81281208992 268.065002441
vertex 14.7417221069 -3.21838116646 268.065002441
vertex 14.7253608704 -3.11972856522 268.065002441
endloop
endfacet
facet normal 0.0 0.0 1.0
outer loop
vertex 6.32813549042 -4.1100769043 268.065002441
vertex 10.5500888824 -3.81281208992 268.065002441
vertex 10.5383768082 -3.71350026131 268.065002441
endloop
endfacet
facet normal 0.0 -0.0 1.0
outer loop
vertex 6.33517313004 -4.20982885361 268.065002441
vertex 10.5500888824 -3.81281208992 268.065002441
vertex 6.32813549042 -4.1100769043 268.065002441
endloop
endfacet
facet normal 0.0 0.0 1.0
outer loop
vertex 2.10391950607 -4.30858373642 268.065002441
vertex 6.33517313004 -4.20982885361 268.065002441
vertex 6.32813549042 -4.1100769043 268.065002441
endloop
endfacet
facet normal 0.0 -0.0 1.0
outer loop
vertex 2.10626721382 -4.40855646133 268.065002441
vertex 6.33517313004 -4.20982885361 268.065002441
vertex 2.10391950607 -4.30858373642 268.065002441
endloop
endfacet
facet normal -0.0 0.0 1.0
outer loop
vertex -2.12495779991 -4.30858373642 268.065002441
vertex 2.10626721382 -4.40855646133 268.065002441
vertex 2.10391950607 -4.30858373642 268.065002441
endloop
endfacet
facet normal 0.0 0.0 1.0
outer loop
vertex -2.12730550766 -4.40855646133 268.065002441
vertex 2.10626721382 -4.40855646133 268.065002441
vertex -2.12495779991 -4.30858373642 268.065002441
endloop
endfacet
facet normal 0.0 0.0 1.0
outer loop
vertex -6.34917354584 -4.1100769043 268.065002441
vertex -2.12730550766 -4.40855646133 268.065002441
vertex -2.12495779991 -4.30858373642 268.065002441
endloop
endfacet
facet normal -0.0 0.0 1.0
outer loop
vertex -6.35621166229 -4.20982885361 268.065002441
vertex -2.12730550766 -4.40855646133 268.065002441
vertex -6.34917354584 -4.1100769043 268.065002441
endloop
endfacet
facet normal 0.0 0.0 1.0
outer loop
vertex -10.5594148636 -3.71350026131 268.065002441
vertex -6.35621166229 -4.20982885361 268.065002441
vertex -6.34917354584 -4.1100769043 268.065002441
endloop
endfacet
facet normal -0.0 0.0 1.0
outer loop
vertex -10.5711269379 -3.81281208992 268.065002441
vertex -6.35621166229 -4.20982885361 268.065002441
vertex -10.5594148636 -3.71350026131 268.065002441
endloop
endfacet
facet normal 0.0 0.0 1.0
outer loop
vertex -14.7463989258 -3.11972856522 268.065002441
vertex -10.5711269379 -3.81281208992 268.065002441
vertex -10.5594148636 -3.71350026131 268.065002441
endloop
endfacet
facet normal -0.0 0.0 1.0
outer loop
vertex -14.762761116 -3.21838116646 268.065002441
vertex -10.5711269379 -3.81281208992 268.065002441
vertex -14.7463989258 -3.11972856522 268.065002441
endloop
endfacet
facet normal 0.0 0.0 1.0
outer loop
vertex -18.9008960724 -2.33007097244 268.065002441
vertex -14.762761116 -3.21838116646 268.065002441
vertex -14.7463989258 -3.11972856522 268.065002441
endloop
endfacet
facet normal -0.0 0.0 1.0
outer loop
vertex -18.9218711853 -2.42784667015 268.065002441
vertex -14.762761116 -3.21838116646 268.065002441
vertex -18.9008960724 -2.33007097244 268.065002441
endloop
endfacet
facet normal 0.0 0.0 1.0
outer loop
vertex -19.4523506165 -2.21177625656 268.065002441
vertex -18.9218711853 -2.42784667015 268.065002441
vertex -18.9008960724 -2.33007097244 268.065002441
endloop
endfacet
facet normal -0.0 0.0 1.0
outer loop
vertex -19.4733257294 -2.30955195427 268.065002441
vertex -18.9218711853 -2.42784667015 268.065002441
vertex -19.4523506165 -2.21177625656 268.065002441
endloop
endfacet
facet normal -0.209742501378 -0.977756679058 -0.0
outer loop
vertex -18.9218711853 -2.42784667015 254.065002441
vertex -19.4733257294 -2.30955195427 254.065002441
vertex -18.9218711853 -2.42784667015 145.73500061
endloop
endfacet
facet normal -0.209742501378 -0.977756679058 0.0
outer loop
vertex -18.9218711853 -2.42784667015 145.73500061
vertex -19.4733257294 -2.30955195427 254.065002441
vertex -19.4733257294 -2.30955195427 145.73500061
endloop
endfacet
facet normal -0.209742486477 -0.977756679058 -0.0
outer loop
vertex -18.9218711853 -2.42784667015 268.065002441
vertex -19.4733257294 -2.30955195427 268.065002441
vertex -18.9218711853 -2.42784667015 254.065002441
endloop
endfacet
facet normal -0.209742486477 -0.977756679058 0.0
outer loop
vertex -18.9218711853 -2.42784667015 254.065002441
vertex -19.4733257294 -2.30955195427 268.065002441
vertex -19.4733257294 -2.30955195427 254.065002441
endloop
endfacet
facet normal -0.977754890919 0.209750697017 0.0
outer loop
vertex -19.4733257294 -2.30955195427 131.934997559
vertex -19.4733257294 -2.30955195427 145.73500061
vertex -19.4523506165 -2.21177625656 131.934997559
endloop
endfacet
facet normal -0.977754890919 0.209750682116 0.0
outer loop
vertex -19.4733257294 -2.30955195427 268.065002441
vertex -19.4523506165 -2.21177625656 268.065002441
vertex -19.4733257294 -2.30955195427 254.065002441
endloop
endfacet
facet normal -0.977754890919 0.209750682116 0.0
outer loop
vertex -19.4523506165 -2.21177625656 268.065002441
vertex -19.4523506165 -2.21177625656 131.934997559
vertex -19.4733257294 -2.30955195427 254.065002441
endloop
endfacet
facet normal -0.977754890919 0.209750667214 0.0
outer loop
vertex -19.4733257294 -2.30955195427 254.065002441
vertex -19.4523506165 -2.21177625656 131.934997559
vertex -19.4733257294 -2.30955195427 145.73500061
endloop
endfacet
facet normal 0.209742471576 0.977756619453 0.0
outer loop
vertex -19.4523506165 -2.21177625656 268.065002441
vertex -18.9008960724 -2.33007097244 268.065002441
vertex -18.9008960724 -2.33007097244 131.934997559
endloop
endfacet
facet normal 0.209742471576 0.977756619453 0.0
outer loop
vertex -19.4523506165 -2.21177625656 268.065002441
vertex -18.9008960724 -2.33007097244 131.934997559
vertex -19.4523506165 -2.21177625656 131.934997559
endloop
endfacet
facet normal -0.209742471576 -0.977756679058 0.0
outer loop
vertex -18.9218711853 -2.42784667015 131.934997559
vertex -19.4733257294 -2.30955195427 145.73500061
vertex -19.4733257294 -2.30955195427 131.934997559
endloop
endfacet
facet normal -0.209742471576 -0.977756679058 -0.0
outer loop
vertex -18.9218711853 -2.42784667015 145.73500061
vertex -19.4733257294 -2.30955195427 145.73500061
vertex -18.9218711853 -2.42784667015 131.934997559
endloop
endfacet
facet normal -0.186729833484 -0.982411265373 0.0
outer loop
vertex -14.762761116 -3.21838116646 131.934997559
vertex -18.9218711853 -2.42784667015 145.73500061
vertex -18.9218711853 -2.42784667015 131.934997559
endloop
endfacet
facet normal -0.186729848385 -0.982411265373 -0.0
outer loop
vertex -18.9218711853 -2.42784667015 254.065002441
vertex -18.9218711853 -2.42784667015 145.73500061
vertex -14.762761116 -3.21838116646 131.934997559
endloop
endfacet
facet normal -0.186729863286 -0.982411265373 0.0
outer loop
vertex -14.762761116 -3.21838116646 268.065002441
vertex -18.9218711853 -2.42784667015 268.065002441
vertex -18.9218711853 -2.42784667015 254.065002441
endloop
endfacet
facet normal -0.186729848385 -0.982411324978 -0.0
outer loop
vertex -14.762761116 -3.21838116646 268.065002441
vertex -18.9218711853 -2.42784667015 254.065002441
vertex -14.762761116 -3.21838116646 131.934997559
endloop
endfacet
facet normal -0.140408784151 -0.990093588829 -0.0
outer loop
vertex -10.5711269379 -3.81281208992 268.065002441
vertex -14.762761116 -3.21838116646 131.934997559
vertex -10.5711269379 -3.81281208992 131.934997559
endloop
endfacet
facet normal -0.140408784151 -0.990093588829 0.0
outer loop
vertex -10.5711269379 -3.81281208992 268.065002441
vertex -14.762761116 -3.21838116646 268.065002441
vertex -14.762761116 -3.21838116646 131.934997559
endloop
endfacet
facet normal -0.0937782004476 -0.995593130589 -0.0
outer loop
vertex -6.35621166229 -4.20982885361 268.065002441
vertex -10.5711269379 -3.81281208992 131.934997559
vertex -6.35621166229 -4.20982885361 131.934997559
endloop
endfacet
facet normal -0.0937782004476 -0.995593130589 0.0
outer loop
vertex -6.35621166229 -4.20982885361 268.065002441
vertex -10.5711269379 -3.81281208992 268.065002441
vertex -10.5711269379 -3.81281208992 131.934997559
endloop
endfacet
facet normal -0.0469408668578 -0.998897612095 -0.0
outer loop
vertex -2.12730550766 -4.40855646133 268.065002441
vertex -6.35621166229 -4.20982885361 131.934997559
vertex -2.12730550766 -4.40855646133 131.934997559
endloop
endfacet
facet normal -0.0469408668578 -0.998897612095 0.0
outer loop
vertex -2.12730550766 -4.40855646133 268.065002441
vertex -6.35621166229 -4.20982885361 268.065002441
vertex -6.35621166229 -4.20982885361 131.934997559
endloop
endfacet
facet normal 0.0 -1.0 -0.0
outer loop
vertex 2.10626721382 -4.40855646133 268.065002441
vertex -2.12730550766 -4.40855646133 131.934997559
vertex 2.10626721382 -4.40855646133 131.934997559
endloop
endfacet
facet normal -0.0 -1.0 0.0
outer loop
vertex 2.10626721382 -4.40855646133 268.065002441
vertex -2.12730550766 -4.40855646133 268.065002441
vertex -2.12730550766 -4.40855646133 131.934997559
endloop
endfacet
facet normal 0.0469408743083 -0.998897612095 0.0
outer loop
vertex 6.33517313004 -4.20982885361 268.065002441
vertex 2.10626721382 -4.40855646133 131.934997559
vertex 6.33517313004 -4.20982885361 131.934997559
endloop
endfacet
facet normal 0.0469408743083 -0.998897612095 0.0
outer loop
vertex 6.33517313004 -4.20982885361 268.065002441
vertex 2.10626721382 -4.40855646133 268.065002441
vertex 2.10626721382 -4.40855646133 131.934997559
endloop
endfacet
facet normal 0.0937781855464 -0.995593070984 0.0
outer loop
vertex 10.5500888824 -3.81281208992 268.065002441
vertex 6.33517313004 -4.20982885361 131.934997559
vertex 10.5500888824 -3.81281208992 131.934997559
endloop
endfacet
facet normal 0.0937781855464 -0.995593070984 0.0
outer loop
vertex 10.5500888824 -3.81281208992 268.065002441
vertex 6.33517313004 -4.20982885361 268.065002441
vertex 6.33517313004 -4.20982885361 131.934997559
endloop
endfacet
facet normal 0.18672990799 -0.982411324978 0.0
outer loop
vertex 18.9008312225 -2.42784667015 145.73500061
vertex 14.7417221069 -3.21838116646 131.934997559
vertex 18.9008312225 -2.42784667015 131.934997559
endloop
endfacet
facet normal 0.140408813953 -0.990093588829 0.0
outer loop
vertex 14.7417221069 -3.21838116646 268.065002441
vertex 10.5500888824 -3.81281208992 131.934997559
vertex 14.7417221069 -3.21838116646 131.934997559
endloop
endfacet
facet normal 0.140408813953 -0.990093588829 0.0
outer loop
vertex 14.7417221069 -3.21838116646 268.065002441
vertex 10.5500888824 -3.81281208992 268.065002441
vertex 10.5500888824 -3.81281208992 131.934997559
endloop
endfacet
facet normal 0.186729893088 -0.982411265373 0.0
outer loop
vertex 18.9008312225 -2.42784667015 254.065002441
vertex 14.7417221069 -3.21838116646 131.934997559
vertex 18.9008312225 -2.42784667015 145.73500061
endloop
endfacet
facet normal 0.186729893088 -0.982411265373 0.0
outer loop
vertex 18.9008312225 -2.42784667015 254.065002441
vertex 14.7417221069 -3.21838116646 268.065002441
vertex 14.7417221069 -3.21838116646 131.934997559
endloop
endfacet
facet normal 0.186729893088 -0.982411265373 0.0
outer loop
vertex 18.9008312225 -2.42784667015 268.065002441
vertex 14.7417221069 -3.21838116646 268.065002441
vertex 18.9008312225 -2.42784667015 254.065002441
endloop
endfacet
facet normal 0.209741801023 -0.977756798267 0.0
outer loop
vertex 19.452287674 -2.30955195427 254.065002441
vertex 18.9008312225 -2.42784667015 254.065002441
vertex 19.452287674 -2.30955195427 145.73500061
endloop
endfacet
facet normal 0.209741801023 -0.977756798267 0.0
outer loop
vertex 19.452287674 -2.30955195427 145.73500061
vertex 18.9008312225 -2.42784667015 254.065002441
vertex 18.9008312225 -2.42784667015 145.73500061
endloop
endfacet
facet normal 0.977754890919 0.209750697017 0.0
outer loop
vertex 19.431312561 -2.21177625656 131.934997559
vertex 19.452287674 -2.30955195427 145.73500061
vertex 19.452287674 -2.30955195427 131.934997559
endloop
endfacet
facet normal 0.977754890919 0.209750682116 0.0
outer loop
vertex 19.431312561 -2.21177625656 268.065002441
vertex 19.452287674 -2.30955195427 268.065002441
vertex 19.452287674 -2.30955195427 254.065002441
endloop
endfacet
facet normal 0.977754890919 0.209750682116 -0.0
outer loop
vertex 19.431312561 -2.21177625656 131.934997559
vertex 19.431312561 -2.21177625656 268.065002441
vertex 19.452287674 -2.30955195427 145.73500061
endloop
endfacet
facet normal 0.977754890919 0.209750667214 -0.0
outer loop
vertex 19.452287674 -2.30955195427 145.73500061
vertex 19.431312561 -2.21177625656 268.065002441
vertex 19.452287674 -2.30955195427 254.065002441
endloop
endfacet
facet normal -0.209742471576 0.977756619453 0.0
outer loop
vertex 19.431312561 -2.21177625656 268.065002441
vertex 19.431312561 -2.21177625656 131.934997559
vertex 18.879858017 -2.33007097244 131.934997559
endloop
endfacet
facet normal -0.209742471576 0.977756619453 0.0
outer loop
vertex 18.879858017 -2.33007097244 268.065002441
vertex 19.431312561 -2.21177625656 268.065002441
vertex 18.879858017 -2.33007097244 131.934997559
endloop
endfacet
facet normal 0.186729833484 0.982411265373 -0.0
outer loop
vertex -18.9008960724 -2.33007097244 131.934997559
vertex -18.9008960724 -2.33007097244 268.065002441
vertex -14.7463989258 -3.11972856522 131.934997559
endloop
endfacet
facet normal 0.140408843756 0.990093588829 -0.0
outer loop
vertex -14.7463989258 -3.11972856522 131.934997559
vertex -14.7463989258 -3.11972856522 268.065002441
vertex -10.5594148636 -3.71350026131 131.934997559
endloop
endfacet
facet normal 0.186729833484 0.982411265373 0.0
outer loop
vertex -18.9008960724 -2.33007097244 268.065002441
vertex -14.7463989258 -3.11972856522 268.065002441
vertex -14.7463989258 -3.11972856522 131.934997559
endloop
endfacet
facet normal 0.0937782153487 0.995593011379 -0.0
outer loop
vertex -10.5594148636 -3.71350026131 131.934997559
vertex -10.5594148636 -3.71350026131 268.065002441
vertex -6.34917354584 -4.1100769043 131.934997559
endloop
endfacet
facet normal 0.140408843756 0.990093588829 0.0
outer loop
vertex -14.7463989258 -3.11972856522 268.065002441
vertex -10.5594148636 -3.71350026131 268.065002441
vertex -10.5594148636 -3.71350026131 131.934997559
endloop
endfacet
facet normal 0.0469407886267 0.9988976717 -0.0
outer loop
vertex -6.34917354584 -4.1100769043 131.934997559
vertex -6.34917354584 -4.1100769043 268.065002441
vertex -2.12495779991 -4.30858373642 131.934997559
endloop
endfacet
facet normal 0.0937782153487 0.995593011379 0.0
outer loop
vertex -10.5594148636 -3.71350026131 268.065002441
vertex -6.34917354584 -4.1100769043 268.065002441
vertex -6.34917354584 -4.1100769043 131.934997559
endloop
endfacet
facet normal 0.0469407886267 0.9988976717 0.0
outer loop
vertex -6.34917354584 -4.1100769043 268.065002441
vertex -2.12495779991 -4.30858373642 268.065002441
vertex -2.12495779991 -4.30858373642 131.934997559
endloop
endfacet
facet normal 0.0 1.0 0.0
outer loop
vertex -2.12495779991 -4.30858373642 131.934997559
vertex 2.10391950607 -4.30858373642 268.065002441
vertex 2.10391950607 -4.30858373642 131.934997559
endloop
endfacet
facet normal -0.0 1.0 0.0
outer loop
vertex -2.12495779991 -4.30858373642 268.065002441
vertex 2.10391950607 -4.30858373642 268.065002441
vertex -2.12495779991 -4.30858373642 131.934997559
endloop
endfacet
facet normal -0.0469407849014 0.9988976717 0.0
outer loop
vertex 2.10391950607 -4.30858373642 131.934997559
vertex 6.32813549042 -4.1100769043 268.065002441
vertex 6.32813549042 -4.1100769043 131.934997559
endloop
endfacet
facet normal -0.0469407849014 0.9988976717 0.0
outer loop
vertex 2.10391950607 -4.30858373642 268.065002441
vertex 6.32813549042 -4.1100769043 268.065002441
vertex 2.10391950607 -4.30858373642 131.934997559
endloop
endfacet
facet normal -0.0937782153487 0.995593011379 0.0
outer loop
vertex 6.32813549042 -4.1100769043 131.934997559
vertex 10.5383768082 -3.71350026131 268.065002441
vertex 10.5383768082 -3.71350026131 131.934997559
endloop
endfacet
facet normal -0.0937782153487 0.995593011379 0.0
outer loop
vertex 6.32813549042 -4.1100769043 268.065002441
vertex 10.5383768082 -3.71350026131 268.065002441
vertex 6.32813549042 -4.1100769043 131.934997559
endloop
endfacet
facet normal -0.140408843756 0.990093588829 0.0
outer loop
vertex 10.5383768082 -3.71350026131 131.934997559
vertex 14.7253608704 -3.11972856522 268.065002441
vertex 14.7253608704 -3.11972856522 131.934997559
endloop
endfacet
facet normal -0.140408843756 0.990093588829 0.0
outer loop
vertex 10.5383768082 -3.71350026131 268.065002441
vertex 14.7253608704 -3.11972856522 268.065002441
vertex 10.5383768082 -3.71350026131 131.934997559
endloop
endfacet
facet normal -0.186729833484 0.982411265373 0.0
outer loop
vertex 14.7253608704 -3.11972856522 131.934997559
vertex 18.879858017 -2.33007097244 268.065002441
vertex 18.879858017 -2.33007097244 131.934997559
endloop
endfacet
facet normal -0.186729833484 0.982411265373 0.0
outer loop
vertex 14.7253608704 -3.11972856522 268.065002441
vertex 18.879858017 -2.33007097244 268.065002441
vertex 14.7253608704 -3.11972856522 131.934997559
endloop
endfacet
facet normal 0.209741801023 -0.977756857872 0.0
outer loop
vertex 19.452287674 -2.30955195427 268.065002441
vertex 18.9008312225 -2.42784667015 268.065002441
vertex 19.452287674 -2.30955195427 254.065002441
endloop
endfacet
facet normal 0.209741801023 -0.977756857872 0.0
outer loop
vertex 19.452287674 -2.30955195427 254.065002441
vertex 18.9008312225 -2.42784667015 268.065002441
vertex 18.9008312225 -2.42784667015 254.065002441
endloop
endfacet
facet normal 0.209741786122 -0.977756798267 0.0
outer loop
vertex 19.452287674 -2.30955195427 131.934997559
vertex 18.9008312225 -2.42784667015 145.73500061
vertex 18.9008312225 -2.42784667015 131.934997559
endloop
endfacet
facet normal 0.209741786122 -0.977756798267 0.0
outer loop
vertex 19.452287674 -2.30955195427 145.73500061
vertex 18.9008312225 -2.42784667015 145.73500061
vertex 19.452287674 -2.30955195427 131.934997559
endloop
endfacet
